<?xml version="1.0" encoding="UTF-8"?>
<!DOCTYPE svg PUBLIC "-//W3C//DTD SVG 1.1//EN" "http://www.w3.org/Graphics/SVG/1.1/DTD/svg11.dtd">
<!-- Creator: CorelDRAW X8 -->
<svg xmlns="http://www.w3.org/2000/svg" xml:space="preserve" width="285.695mm" height="68.972mm" version="1.1" style="shape-rendering:geometricPrecision; text-rendering:geometricPrecision; image-rendering:optimizeQuality; fill-rule:evenodd; clip-rule:evenodd"
viewBox="0 0 28570 6897"
 xmlns:xlink="http://www.w3.org/1999/xlink">
 <defs>
  <style type="text/css">
   <![CDATA[
    .fil57 {fill:#26191B}
    .fil7 {fill:#281C25}
    .fil5 {fill:#2C2328}
    .fil9 {fill:#33242C}
    .fil10 {fill:#352B33}
    .fil12 {fill:#3B2C34}
    .fil8 {fill:#43333C}
    .fil22 {fill:#443442}
    .fil13 {fill:#453943}
    .fil15 {fill:#4B3B44}
    .fil28 {fill:#4C3C4B}
    .fil19 {fill:#4C4249}
    .fil16 {fill:#533C48}
    .fil55 {fill:#53434C}
    .fil27 {fill:#544453}
    .fil48 {fill:#574648}
    .fil53 {fill:#584751}
    .fil39 {fill:#594956}
    .fil60 {fill:#5C5259}
    .fil52 {fill:#634B58}
    .fil47 {fill:#66565A}
    .fil29 {fill:#675966}
    .fil42 {fill:#6B636A}
    .fil24 {fill:#6F6460}
    .fil74 {fill:#766668}
    .fil33 {fill:#776A75}
    .fil49 {fill:#7B737A}
    .fil91 {fill:#867779}
    .fil73 {fill:#867A85}
    .fil88 {fill:#8D736D}
    .fil83 {fill:#9395A9}
    .fil90 {fill:#968889}
    .fil81 {fill:#9B9399}
    .fil87 {fill:#A69899}
    .fil93 {fill:#A69CA4}
    .fil65 {fill:#AB958B}
    .fil84 {fill:#ABA3A8}
    .fil78 {fill:#B1ACB2}
    .fil92 {fill:#B3B7C7}
    .fil86 {fill:#B7A9A8}
    .fil82 {fill:#B8A599}
    .fil94 {fill:#BBB4B7}
    .fil56 {fill:#C5BCC5}
    .fil85 {fill:#C7B6A9}
    .fil61 {fill:#CBC4C7}
    .fil43 {fill:#CCC2BC}
    .fil25 {fill:#CDB295}
    .fil37 {fill:#CDB7AA}
    .fil41 {fill:#D5CAC7}
    .fil21 {fill:#D8C8B9}
    .fil32 {fill:#D9C8AD}
    .fil50 {fill:#DAD6D9}
    .fil36 {fill:#DCD4D3}
    .fil77 {fill:#DEC291}
    .fil51 {fill:#E2CDB6}
    .fil20 {fill:#E3D4C4}
    .fil45 {fill:#E3DDE3}
    .fil89 {fill:#E5CCA6}
    .fil26 {fill:#E5D9D7}
    .fil46 {fill:#E5DBD2}
    .fil63 {fill:#E6C895}
    .fil66 {fill:#E7D9CA}
    .fil64 {fill:#E7E4E7}
    .fil67 {fill:#EADED3}
    .fil58 {fill:#EBCD9A}
    .fil35 {fill:#EBE5E3}
    .fil79 {fill:#ECD7A9}
    .fil17 {fill:#EDE2C9}
    .fil54 {fill:#EDE4DA}
    .fil62 {fill:#EDEBEB}
    .fil80 {fill:#EEE9E4}
    .fil68 {fill:#F2EDE6}
    .fil75 {fill:#F2EEE9}
    .fil4 {fill:#F3DDB3}
    .fil11 {fill:#F3DDB9}
    .fil31 {fill:#F3EADD}
    .fil69 {fill:#F3F2F3}
    .fil72 {fill:#F4E4BB}
    .fil6 {fill:#F4E4C3}
    .fil44 {fill:#F5F1E4}
    .fil76 {fill:#F5FAF5}
    .fil18 {fill:#F6E8C8}
    .fil30 {fill:#F6EAD4}
    .fil23 {fill:#F6F3DA}
    .fil40 {fill:#F6F5F2}
    .fil71 {fill:#F7F4EF}
    .fil1 {fill:#F9F4EE}
    .fil38 {fill:#F9F7F8}
    .fil59 {fill:#F9F9F5}
    .fil70 {fill:#FAEDCA}
    .fil34 {fill:#FAF6E9}
    .fil14 {fill:#FAFAFA}
    .fil3 {fill:#FBF1CC}
    .fil2 {fill:#FDF9ED}
    .fil0 {fill:#FDFBFD}
   ]]>
  </style>
 </defs>
 <g id="Ebene_x0020_1">
  <metadata id="CorelCorpID_0Corel-Layer"/>
  <g id="_3093989517008">
   <path class="fil0" d="M1608 0c7,112 16,254 47,305 4,2 8,5 11,6l39 11c49,167 19,19 31,217 -93,-33 -66,-114 -64,-166l-3 66c20,113 41,115 46,159 13,95 6,170 12,275 3,50 6,101 4,148 -2,32 -9,47 -8,85 0,42 8,206 2,253 31,33 10,81 29,170 16,74 14,187 41,329 10,55 10,105 16,164 21,20 3,-25 21,23l47 -17c120,-26 110,63 111,194 -32,26 -37,23 -45,78 -76,4 -31,7 -90,32 -4,8 -4,11 -9,20 -1,3 -6,21 -8,15 -1,-1 -4,6 -5,9l0 204c39,25 55,28 67,65 43,56 47,436 43,448 -15,53 -4,54 -2,131 -20,14 -20,1 -20,30 -28,24 -3,-22 -13,18 -12,45 21,38 -28,68 31,30 27,40 21,147 -25,416 -115,261 -103,453l-39 4c14,123 11,218 11,352l15 1003c0,83 9,161 9,236 -1,59 13,141 13,213 12,70 14,148 0,213 24,20 8,-20 16,40l10 439c3,49 26,80 33,127 14,89 33,192 41,279 1,16 3,34 4,51l24633 0 4 -21c8,-75 0,-156 6,-228l24 -606c8,-72 2,-152 5,-225 -11,-56 -31,-47 -16,-127 -41,-47 17,-83 -38,-161 -7,-113 -31,-272 -9,-380l9 -273 -50 7c-2,-48 9,-56 2,-82 -14,-52 -12,-28 -37,-7 -16,-135 -53,-126 14,-154 -34,-21 -23,2 -34,-45 -5,-20 -20,-21 8,-38 41,-25 22,-5 35,1 4,-35 -23,-30 75,-55l14 -7c-19,-79 19,-291 8,-396l7 -84 0 -58 -2 -127c10,-64 -15,-259 21,-282 -13,-64 15,-576 21,-705 10,-202 54,-450 72,-641l89 -659c33,-215 50,-438 84,-659 8,-23 16,-107 15,-137l45 -363c22,-105 17,-175 14,-284 21,-18 19,-12 32,-23l2 -78 -25356 0z"/>
   <path class="fil1" d="M27426 505c-28,99 -11,78 7,133 18,56 38,248 46,317 9,82 22,88 -10,149l50 243c10,48 23,201 35,233 10,43 11,83 21,138l113 623c19,116 49,232 51,366l29 395c10,41 20,72 28,110 20,93 32,150 43,232 13,91 50,159 0,170 -29,6 -43,-19 -48,-23 -45,7 -31,8 -65,-13l-46 23c-18,-12 -42,-36 -57,-54 14,-176 -132,-569 -122,-718 -26,-25 -46,-242 -66,-329l-127 -658c-14,-105 -51,-209 -55,-323 -13,-66 -57,-185 -8,-244 -30,-41 -28,-139 -36,-195 -11,-80 -25,-116 -36,-197 -4,-3 -8,-8 -10,-10l-17 -15c-1,-4 -5,-2 -8,-4 -46,30 -20,15 -29,73 -9,40 26,172 27,234 2,106 27,149 23,243l23 103c46,137 41,229 55,381 13,144 26,258 27,415 0,134 -10,26 10,184 9,70 27,118 31,183l21 183c3,11 11,20 14,34 0,2 4,34 4,38 5,26 13,56 17,83 17,100 30,255 53,379 22,117 46,244 66,372l121 687c26,102 50,167 61,296 7,84 31,72 0,119l31 11c12,56 -3,59 16,108 22,58 21,62 10,125l4 7c49,59 -7,37 46,94l-25 106 -6 0c27,4 41,1 44,36 4,45 -46,-4 -5,109l7 30c-1,8 -6,16 -8,40 -2,22 3,8 -8,29l35 149c1,44 5,56 2,94 -6,71 27,119 25,205l45 -1c-27,24 -22,-4 -29,38 -6,34 -1,3 6,31 1,3 2,6 2,10 13,49 26,52 8,83 49,44 31,78 37,147l27 137c25,49 4,-23 6,47 1,18 26,97 30,162 12,49 27,101 32,162 3,36 6,57 9,77l501 0c-3,-9 -5,-19 -8,-30 -10,-34 -19,-67 -27,-110l-27 -155c-4,-26 -6,-21 -10,-59 -9,-81 -10,-192 -22,-257 -17,-88 -34,-156 -31,-222 -26,-19 -7,-9 -26,-99l-97 -540c-9,-75 -28,-137 -36,-207 -9,-77 -16,-157 -24,-230l-84 -490c-5,-23 -1,-17 -4,-36 -5,-38 -11,-61 -15,-102 -20,-66 -43,-210 -47,-294 -11,-231 -126,-730 -163,-1007l-78 -434c-21,-115 -47,-506 -39,-616 -24,-26 -19,19 -19,-23 16,-23 1,-173 -5,-221 -9,-74 -12,-163 -14,-234 -2,-48 1,-83 -2,-105l-59 -320c-17,-75 -21,-146 -34,-219l-32 -199c-28,-137 -40,-297 -77,-421 -10,-44 -17,-35 -21,-96 -3,-42 4,-35 -18,-82 -12,-26 -22,-57 -29,-89l-13 0c1,77 2,148 -9,222 -13,94 -13,192 -8,283z"/>
   <path class="fil2" d="M308 4584c3,79 -23,212 -39,291 -15,78 -26,192 -37,274l-9 62 -15 139 -74 507c-18,116 -77,714 -102,1040l504 0 49 -489c2,-451 -20,-607 55,-1071 8,-49 18,-108 26,-163 13,-85 17,-118 54,-140l261 -1889c15,-58 27,-135 41,-201 18,-79 26,-136 46,-218 43,-176 60,-415 92,-579 32,-165 83,-545 121,-671 29,-95 12,-91 40,-105 -6,-47 3,-50 13,-98 7,-29 14,-64 19,-99 8,-51 28,-143 19,-197 -10,-11 -49,19 -7,-104 -25,-38 -19,-12 -48,-70 -1,-3 -8,-13 -9,-18 -1,-5 -3,-6 -5,-9 -1,3 -7,16 -8,18l-15 22c-4,34 5,58 27,81l-26 111c-12,49 -23,90 -37,142 -15,58 -11,152 -32,213l-134 614c-1,-2 -3,6 -5,9 13,105 -43,276 -67,377 -27,115 -50,236 -78,354 -4,74 -36,186 -47,217 -19,156 -37,208 -54,382 -4,42 -76,58 -112,59l-39 165c-9,76 -62,50 -33,131 -56,0 -46,-24 -43,-90 2,-52 20,-47 -22,-80 30,-60 30,-46 18,-103 -11,-53 -4,-22 8,-53 8,-22 7,-31 12,-56 10,36 3,11 24,27 -2,-79 14,-173 33,-248 9,-35 31,-206 29,-236 2,-59 36,-364 62,-414 6,-68 7,-178 55,-232 -15,-48 52,-250 64,-301l80 -391c12,-101 29,-131 42,-195 14,-69 21,-106 31,-184l-61 -377c-2,-33 -7,-86 -11,-126 -46,70 -121,854 -155,1011 -33,149 -52,352 -74,517 -23,164 -51,326 -84,490l-312 1727c-16,96 -15,138 -31,227z"/>
   <path class="fil3" d="M26800 2068l-11 62c26,24 -18,0 31,23 9,84 0,188 2,276l-14 7c-2,0 -5,2 -7,2l11 141c82,72 -43,114 52,151l-16 41c72,20 33,43 35,100l39 -12 30 23 -5 102c24,18 17,-12 18,56 1,30 0,24 4,54 4,33 8,56 2,89 -21,111 44,83 -59,150l-15 127 27 -59c12,32 14,52 24,88l37 58 -19 69c3,1 7,4 10,6 1,1 6,4 7,5 15,13 1,12 6,12 26,20 5,-13 30,29 10,18 2,9 8,26 1,3 3,6 4,8 0,2 2,5 3,7 17,46 -12,74 -68,78 -5,-9 -11,-2 -10,-30 0,-26 13,-24 23,-59l-65 8 23 169c14,22 27,94 28,133 1,72 9,90 12,155l25 64c2,32 16,95 25,134 11,48 12,103 22,154l21 196c8,67 2,50 -7,56 26,45 91,593 102,621 25,70 38,305 80,363 17,-47 2,-43 20,-75 73,14 -1,-31 63,83 -16,52 -1,31 -35,52 65,-4 17,18 60,141 14,40 37,-4 37,141l49 212c0,2 11,32 11,33 1,3 2,5 4,8l19 36c-17,11 -8,-11 -19,40l21 1c37,-48 -20,-124 38,-137 2,-1 5,-1 7,-1 0,0 30,2 38,2 -13,45 17,27 21,95l-50 34c1,1 5,5 6,6 1,1 4,4 6,6 -60,-5 -5,-4 -25,13 21,18 60,136 71,172 30,96 22,156 25,242 1,33 -10,22 9,30 83,1 -29,-9 30,-1 25,3 49,2 75,13l230 0c-22,-124 -39,-228 -39,-252 -27,0 -53,-219 -59,-246l-133 -744c-8,-49 -23,-80 -28,-126l-41 -324c-15,-128 -69,-493 -67,-568 -25,-17 -34,-162 -37,-204l-38 -173c0,-34 -6,-64 -9,-103 -4,-45 1,-51 -26,-77 3,20 1,24 0,27 -14,-62 2,-43 -38,-53 4,-85 7,-130 -40,-175l14 -67 -70 6c-30,-63 -24,-21 -55,-66 -28,-42 15,-35 30,-44 4,-81 -14,-47 -17,-62 -1,-5 -4,-5 -6,-7 7,-34 3,-24 22,-48l-24 -36 50 -31c-32,-24 -27,-8 -55,-23 17,-32 11,-33 53,-9 -7,-71 -15,-62 -26,-104 -8,-30 -2,-50 -11,-94 -28,-137 6,-202 -41,-231 20,-71 7,-79 3,-152l23 -9c-34,-135 -67,-373 -79,-503l-7 -316c0,-94 -29,-182 -24,-321 2,-54 -19,-86 -15,-142 -45,-41 -26,-51 -38,-113 -29,-38 -14,43 -24,-41 -74,-4 -15,17 -64,-23l-53 -38c-1,-5 -7,-3 -10,-4 -11,38 1,35 -7,72l-55 233c-15,60 -5,99 -15,162 -10,63 -27,94 -27,158l-73 42z"/>
   <path class="fil4" d="M1328 3478l21 -2c-8,50 -7,34 7,59 30,54 25,42 54,58l-48 23 9 68c-25,18 -30,15 -56,30l11 6c8,40 -2,39 -8,73l-22 -4c-21,136 -7,246 -28,369l-99 679c-7,66 0,140 -12,199 -12,60 -28,111 -22,174 33,7 15,5 31,15 61,37 68,9 88,50 -25,20 -6,13 -47,18 -5,55 -2,47 -19,71 -42,-31 -28,2 -32,-54 -4,-47 28,-29 -38,-53l-15 337 94 84c-17,14 -10,-2 -9,47l-41 9c2,4 6,3 7,6 0,3 5,3 6,4l27 39c-10,6 -9,9 -32,15 -5,2 -29,4 -39,6 29,55 46,-2 26,81 -56,1 -50,-8 -35,-46l-26 12c-17,33 -27,261 -28,312 -4,108 -33,207 -49,300 -10,73 -24,123 16,157 11,-34 4,-26 41,-31 29,38 53,155 23,194l30 76 23 -44c51,27 51,47 62,82l670 0c0,-8 0,-14 0,-19 -3,-30 -10,-60 -10,-114l-8 -3c-10,-3 -30,-1 -41,-11l-54 10c17,-62 -23,-19 38,-56 -8,-5 -4,-2 -20,-9l-18 -8c-2,-2 -6,-4 -9,-6 3,-1 7,-7 9,-4l28 -19c-21,-29 -9,-120 -4,-138 10,-37 -10,-9 20,-30 -7,-90 -15,-129 -9,-216 4,-61 -4,-150 -12,-227 -5,-46 -12,-186 -20,-217 -9,-33 -34,-43 -31,-94 2,-50 23,-45 35,-89 -27,-26 -26,-129 -23,-175l-8 -60 -26 2c-2,-13 -4,-29 -10,-38 -2,-3 1,-10 -31,-20l-5 -54c-2,-2 -6,-4 -7,-5l-38 -68c3,-2 7,-5 9,-6l41 -17c-10,-29 -10,-7 -18,-37 -9,-39 5,-22 5,-21l-57 -15c31,-63 4,-9 40,-47 9,-9 14,-23 14,-29 0,0 -9,-36 -9,-38l-16 -46c-25,12 -18,10 -56,-6 -48,44 -9,50 -58,31 -11,-24 -2,-29 2,-66l61 -22c-6,-44 -22,-64 -6,-95l-28 -29 52 -1 23 46c2,-3 4,-7 5,-10 36,-99 36,-38 38,-96 -77,-8 -61,6 -83,13 3,-3 5,31 7,-9 1,-33 -42,-38 -10,-75l56 -58c-12,-14 -7,-8 -17,-20l-16 -3c-14,6 -33,9 -49,23 -24,22 -15,12 -22,48 -3,-2 -7,-4 -9,-5 -2,-1 -6,-3 -8,-5 -3,-1 -12,-8 -16,-10 -5,-2 -18,-6 -22,-7 -18,-3 -37,-1 -43,0l47 -10 -1 -46c-20,-12 -2,-7 -27,-11 -3,-1 -17,4 -21,5 -6,-77 14,8 44,-77 21,9 18,6 28,22 14,-36 25,-54 52,-64 -2,-2 -6,-4 -8,-6l-15 -9c-27,-14 -1,4 -19,-10 5,-31 17,-42 -11,-64l25 -37c-2,-1 -6,-1 -8,-2 -21,-5 -11,22 -18,0 -1,-1 -3,0 -4,0 13,-25 -4,-2 14,-18 1,-1 13,-5 14,-9 1,-4 5,-2 7,-4 30,9 28,40 50,3 13,-22 11,-73 -17,-81 -1,-1 -5,-2 -6,-2 -5,-1 -8,11 -12,-2 -1,-3 -16,7 -19,-45l-63 -8c-1,-2 -8,-7 -10,-9l-14 -7c0,-2 -3,-2 -5,-3l7 -28c144,44 12,4 87,38l9 -106 60 -17 34 32c-9,-71 -32,-51 -39,-105 -18,13 -14,-20 -19,24l1 46c-46,1 -41,-5 -57,23 -12,22 -13,34 -19,52 -3,-2 -7,-6 -9,-7l-35 -9c-27,1 -15,3 -27,-24 2,-1 5,-4 6,-4 65,-35 34,10 72,-61 -13,-26 -8,-12 -16,-24 -53,-82 -16,-133 -16,-133 1,-3 3,-4 3,-6 -31,-38 3,-29 -50,-35 18,-17 -18,-7 35,-19l-11 -43c24,-28 8,28 20,-13 2,-6 9,-4 12,-7 -5,-46 -35,-97 -51,-150l-53 -129c0,-4 -3,-5 -4,-7l0 35c-45,17 -18,-1 -40,32z"/>
   <path class="fil5" d="M1134 0c3,25 6,48 10,76 14,10 26,15 43,25l-17 222c-3,61 27,7 -2,71 3,31 16,62 10,99 -6,39 -18,33 -13,82 -5,121 -10,83 -23,103 -28,-35 -23,-26 -23,-79 8,46 -6,29 1,69 7,37 17,30 -18,54 28,30 32,19 9,105 -10,63 4,83 5,150 1,30 6,55 7,81 0,33 -6,43 -6,78 25,16 23,6 41,37l-37 32c-12,-16 -9,-7 -18,-30 -1,-4 -3,-15 -4,-19 -5,-17 -8,-30 -12,-44 -28,16 -17,-21 -25,22 -4,-18 17,-2 -26,-19 -10,78 -17,115 -31,184 -13,64 -30,94 -42,195l-80 391c30,9 31,10 58,-4 -4,56 -15,34 -22,92 -6,57 -8,39 -19,77l-35 117c-5,18 -7,30 -12,48 -2,52 -3,43 -14,88 -7,29 -14,64 -19,100l-18 171c5,118 -32,14 -26,181l-1 154c-1,9 -5,33 -7,36 -16,40 -8,22 -41,49l-7 -192c5,62 2,5 -18,30 2,30 -20,201 -29,236 -19,75 -35,169 -33,248 -5,40 -5,65 11,89 37,-13 22,-16 64,-30 36,-1 108,-17 112,-59 17,-174 35,-226 54,-382l-21 -21c-1,22 -12,60 -23,94 -12,40 -7,73 -18,114 -35,-29 -51,4 -5,-183 16,-63 12,-28 33,-75 18,-40 14,-45 11,-73 17,20 1,7 32,11l4 -72 34 -12c28,-118 51,-239 78,-354 24,-101 80,-272 67,-377 -14,-74 -3,-202 14,-265 4,-14 21,-52 23,-63 0,-1 3,-32 5,-42 19,-79 43,-197 44,-283l15 40 38 -10c21,-61 17,-155 32,-213l-34 -10c14,-34 18,-7 1,-33 -13,27 8,16 -22,22 -54,9 -14,-3 -27,-14 10,-47 -6,-6 21,-31l24 -118c34,11 13,5 37,25 32,26 4,10 37,17l26 -111c-22,-23 -31,-47 -27,-81 0,-58 57,-353 76,-385l31 -30c-12,-100 49,-248 52,-265 8,-39 4,-77 28,-136l-333 0zm387 0c-16,50 -16,107 -23,168l-73 554c-19,161 -32,161 -53,255 9,54 -11,146 -19,197 -5,35 -12,70 -19,99 -10,48 -19,51 -13,98l5 21 11 0c6,-61 44,-183 59,-267 13,-140 50,-254 73,-396 12,-70 -6,-147 22,-209 55,-123 24,-21 41,-160 9,-67 24,-63 13,-116 14,-46 15,-94 8,-150 14,15 17,10 26,33l8 116c4,29 -2,42 27,67l-13 18c25,115 -24,25 42,241 5,17 5,31 9,56l25 329c-9,23 -9,23 -11,55l3 14c-3,4 -10,35 -10,35 2,53 -11,-10 -4,59l2 33 33 22c-11,40 3,63 -10,87l-6 44c21,38 22,26 25,83 -18,-71 4,-21 30,-40l-4 13c6,-47 -2,-211 -2,-253 -1,-38 6,-53 8,-85 2,-47 -1,-98 -4,-148 -6,-105 1,-180 -12,-275 -5,-44 -26,-46 -46,-159l3 -66c-18,-35 -13,-24 -17,-68 -31,-51 -40,-193 -47,-305l-87 0z"/>
   <path class="fil6" d="M26755 4614c-8,30 -12,67 -14,98 -3,37 7,3 -3,39 -12,41 -10,24 -20,35 13,91 -13,276 -23,383 -10,118 -36,251 -47,373 38,0 22,94 13,120 -16,43 -12,45 -19,98l-3 60c40,-2 43,1 71,20l-11 60c-1,3 -3,6 -4,9 19,18 24,36 34,58 -24,33 -15,-2 -26,53 -15,78 25,-9 -8,209 -55,-31 -38,-11 -23,-59 -25,10 -19,7 -40,16 0,36 -10,97 -13,138 -4,58 -4,116 -5,173 0,64 -10,235 0,265 2,2 6,2 7,6l38 77c7,22 9,38 9,52l417 0c-3,-3 -3,-4 -11,-20l41 -34 -38 -23c9,-93 21,-128 83,-184l-9 -58 -48 12c1,-51 20,-84 6,-133 -8,-28 -12,19 -8,-48 3,-42 6,-22 -8,-62 15,-22 14,-17 26,-46 -40,-80 6,-75 25,-152 -72,26 -20,22 -80,41l3 -75c44,16 47,45 53,-41 -88,-41 -74,-17 -89,-19 -45,-7 -8,2 -26,-19 30,-16 8,-10 65,-10l23 -36c26,16 12,14 42,20 -2,-73 11,-42 17,-72 11,-53 -18,21 -2,-29 12,-35 9,-17 36,-24 -3,56 -7,58 22,82 -9,-96 -35,-177 -53,-291 -7,-46 -14,-110 -26,-138 -16,-36 -20,-104 -30,-145 -9,-39 -3,-2 -8,-37 -2,-10 -4,-29 -4,-38l-32 -238c-5,-37 -12,-30 -19,-70l-10 -46c-7,-41 -16,-88 1,-124l-25 -14 12 -88 -38 -11 15 -71c0,-4 3,-4 5,-6 -1,-48 -14,-142 -20,-170 -56,-19 -32,-4 -57,-45 -15,9 -7,3 -21,8 -33,14 -21,21 -46,35l10 -67c45,-9 54,3 82,-9l7 -41 5 -19 -2 -8c-30,18 -16,-29 -29,40 -15,-10 8,-16 -31,-2 0,0 -37,21 -38,21 -43,33 -7,35 -66,49l-35 172z"/>
   <path class="fil7" d="M26964 0l-2 78c-13,11 -11,5 -32,23 3,109 8,179 -14,284 14,9 15,-2 26,15l2 103c-5,-39 -1,-3 20,-21 7,-38 -1,-17 22,-39 26,17 19,-19 29,19 20,-90 25,-42 -11,-153l45 0c2,-30 5,-40 15,-67 12,224 26,179 55,318 5,27 10,59 14,77l40 246c11,81 25,117 36,197 8,56 6,154 36,195l25 5c0,-2 0,-6 0,-9 2,-65 -10,-26 3,-45l26 -30c-11,-26 -16,-107 -57,-58l29 -52 -5 -201c2,-131 56,-546 29,-672 -11,-46 -7,-62 6,-108 -50,16 3,8 -67,19 1,-21 -1,-77 3,-124l-273 0z"/>
   <path class="fil4" d="M990 3304c-24,62 -18,118 -33,177 33,35 8,52 2,147 -14,195 -69,558 -99,764 -51,362 -69,659 -89,1023 -1,18 1,45 -4,79 -5,38 -12,28 -14,59 -5,60 -31,283 -51,342 -9,29 -9,21 -26,37 0,31 -5,68 -10,101 -6,34 -3,53 -7,93l51 -6c25,48 4,4 8,66l21 9c24,13 2,-3 22,14 -12,54 -30,68 -29,101 2,72 -6,9 -20,95l43 28c-21,0 -17,-9 -37,4 44,47 54,38 59,42 -28,34 -23,58 -16,136 38,3 20,4 38,-3l-7 -57c14,-37 15,-61 38,-79 36,4 18,-24 41,38l48 -5c34,-50 29,20 47,-54 -16,-62 55,-249 40,-339 -44,4 -2,2 -13,-44 -59,-267 19,-392 29,-510 5,-57 -5,-49 40,-58 13,-75 13,-174 20,-240 9,-90 33,-194 35,-264 4,-96 7,-191 21,-285l29 -196c1,-14 5,-30 6,-50 -14,16 -32,-25 -14,30 -75,-143 26,-317 18,-461l36 -174c19,-55 5,-15 24,-37l8 -73c6,-96 19,-193 11,-288 -6,-64 4,-81 11,-140 5,-42 -11,-105 18,-123 -8,-51 10,-96 25,-142 -39,2 -62,-9 -76,-13 -32,-11 -37,-11 -69,-24 -22,26 -16,32 -52,34 -30,2 -19,7 -36,-18 -7,57 -25,106 -35,166l-34 116c-19,34 -9,15 -23,30l5 -48z"/>
   <path class="fil8" d="M26590 3549c-36,23 -11,218 -21,282l36 -5c-4,23 -13,51 -12,54 3,15 8,6 23,10 0,-23 -6,-49 -5,-67 2,-34 4,-34 19,-48 -9,-61 -32,-130 30,-163l-18 173c4,7 11,20 12,24 -25,42 -10,52 -32,118 0,2 -1,5 -2,6l-13 35c-5,-2 -15,-5 -36,-10l0 58 43 9c-4,12 -10,30 -15,39 -21,38 21,26 -35,36 11,105 -27,317 -8,396l10 25c10,-38 -5,-11 16,-33 2,-2 11,-7 14,-9 2,-2 14,-9 16,-10 17,-62 13,-163 30,-266l31 -188c10,-47 12,-42 35,-62 -12,101 -57,453 -77,504l22 18 26 -7 29 -241 28 -97c-4,-92 26,-226 46,-320 11,-53 30,-109 32,-159 2,-68 0,-101 24,-160 4,43 -7,122 -11,172l-64 473 -25 102c2,41 12,35 2,81 -10,45 -10,45 -14,97l-6 7 9 22c1,3 6,18 6,21 3,-3 5,-12 7,-10 2,5 3,-17 31,-35l93 -684c10,57 10,77 13,132 4,70 16,17 -4,83l18 8c12,11 10,-6 26,32 15,-23 5,-89 -8,-116l26 -1 -23 -169 -5 -12c-8,-21 -11,-34 -22,-57 -10,-25 -10,-10 -6,-47 4,-44 7,-82 16,-130l15 -127 12 -37c1,-2 2,-5 3,-8l22 -44 -30 -15c0,-23 5,-52 4,-60 0,-1 -11,-23 -15,-37l42 -23c-28,-23 -3,-4 -23,-23l20 -102 5 -102 -30 -23 -39 12c-68,25 -25,-18 -101,-5 10,-54 11,-101 17,-153l13 -134 -11 -141c2,0 5,-2 7,-2l14 -7c-2,-88 7,-192 -2,-276 -49,-23 -5,1 -31,-23l11 -62c-6,-72 19,-183 20,-272l85 -819c-14,-49 -12,-39 3,-80 -77,-19 23,13 -52,-12 -34,221 -51,444 -84,659l-89 659c-18,191 -62,439 -72,641 -6,129 -34,641 -21,705z"/>
   <path class="fil9" d="M27271 1086l-29 52c41,-49 46,32 57,58l-26 30c-13,19 -1,-20 -3,45 0,3 0,7 0,9l-25 -5c-49,59 -5,178 8,244l16 0c19,54 11,48 18,92 1,3 2,6 2,9 1,3 2,6 3,9 32,116 20,118 62,133l-20 56c24,25 9,21 35,37 -41,85 -9,29 12,119 11,45 -5,29 9,64 11,26 18,38 24,71l46 211c14,47 38,92 29,136 0,41 -11,8 10,43 -20,69 -14,-3 -2,43 14,52 9,157 14,209 3,29 21,67 -10,78 -10,149 136,542 122,718 15,18 39,42 57,54l46 -23c34,21 20,20 65,13 24,-12 24,3 6,-28l-65 -67c64,-55 -92,-107 -6,-162l9 50c47,-24 32,19 49,56 0,0 25,-7 14,-66 -7,-34 -13,-20 -42,-37l7 -147c-56,-24 2,29 -20,-10l-10 -133 -27 3c37,-15 7,-5 25,-24 -38,-18 -21,-5 -48,-32l15 -41c-26,-67 -33,-67 0,-109l-22 -62c-8,-26 -19,-65 -29,-99l10 -69c26,-26 -8,-11 37,-14l0 -36 -35 -19c19,-30 32,-62 19,-113 -8,-29 -21,-77 -30,-90l-29 0c-10,-42 -31,-69 -28,-119 2,-46 21,8 -1,-49 -18,-49 -46,-55 -32,-155 12,-88 -4,-64 -14,-111 22,-18 -3,-5 30,-18l-23 3 0 -65 -37 2c6,-88 16,-56 26,-104 1,-3 3,-38 3,-41 -2,4 -5,7 -6,10l-8 -81c19,-61 2,-6 25,-34 -12,-32 -25,-185 -35,-233l-50 -243c32,-61 19,-67 10,-149 -8,-69 -28,-261 -46,-317 -18,-55 -35,-34 -7,-133 -28,-8 -20,-5 -34,-17 -1,-34 -6,-29 -10,-87 0,-8 0,-81 -3,-81 -11,20 -27,469 -50,565 29,41 28,15 33,69l-18 10c-23,14 -31,13 -32,59 -1,50 12,77 -41,63z"/>
   <path class="fil10" d="M26583 5817c-3,73 3,153 -5,225l-24 606c-6,72 2,153 -6,228l-4 21 57 0c6,-45 4,-111 13,-135 -10,-30 0,-201 0,-265 1,-57 1,-115 5,-173 3,-41 13,-102 13,-138 -1,-57 7,-134 6,-182 0,-28 -4,-60 -3,-95 1,-45 5,-46 4,-89l3 -60c-28,20 -22,-25 -22,19 -27,-10 -3,-5 -37,38z"/>
   <path class="fil11" d="M27726 6897c-26,-11 -50,-10 -75,-13 -59,-8 53,2 -30,1l1 12 104 0z"/>
   <path class="fil12" d="M1699 1386c-8,140 26,273 28,408 2,3 4,6 5,8l24 224c3,76 14,128 18,195l-34 1375c14,-146 -6,-423 -12,-579l-17 -219c-4,-125 24,-77 -28,-94l-7 223c1,11 0,24 -3,33 -7,23 -5,11 -15,24l32 160c15,117 11,354 0,466 -8,-50 -11,-74 -34,-106 -52,-71 -2,-4 -34,-91l-75 -225c-14,-43 -27,-70 -40,-110 -48,-149 -75,-175 -85,-286 -6,-67 -26,45 -3,-171l-36 -8c-78,8 -36,16 -115,-5l-29 68c-22,45 -25,24 -13,37l-5 50 -8 12c-6,51 -17,71 -32,122 -15,52 -31,42 -41,99l25 28c32,13 37,13 69,24 14,4 37,15 76,13 -15,46 -33,91 -25,142 -7,51 -20,19 12,49 20,18 -11,-11 24,15 61,46 -39,-44 16,16l31 128c1,2 4,3 4,7l53 129c16,53 46,104 51,150 10,41 13,84 21,117 9,40 8,7 13,56 5,46 -9,17 8,55 9,-7 21,-13 24,-15 30,-16 21,-10 46,1l-2 26c7,54 30,34 39,105 33,44 -13,51 70,87l14 -17c-12,-94 -29,-75 -52,-149 -13,-44 3,-32 -22,-68 -18,-25 -18,-15 -27,-51 -24,-23 -27,-36 -34,-69 -9,-39 -13,-27 -15,-61l51 13c2,-75 -38,-110 -57,-170 -20,-64 -43,-103 -56,-164 -30,-33 -39,-70 -46,-124 -28,-27 -36,-69 -51,-107 -13,-33 -10,-26 -21,-61 -14,-44 3,-13 -21,-38l-32 -91c-5,2 -9,4 -13,6l-38 28c-23,-18 -29,-12 -76,-22 5,-15 10,-32 16,-53l18 -48 -6 -27c4,-1 8,-1 11,-2 2,-1 7,-1 9,-2 3,-1 7,-3 10,-4 24,-12 4,3 24,-22 12,-98 -4,-150 91,-157 -41,98 -36,-52 -19,174 48,21 29,14 35,49 5,64 55,134 58,209 31,27 16,15 31,65 16,52 51,97 61,181 29,27 26,68 43,106l105 288 43 358c-2,47 -3,98 0,145l13 697c-2,39 0,96 2,123 3,57 -12,49 -15,108l16 22c-5,3 -8,3 -9,6 -8,32 7,6 -25,7 -4,67 27,116 21,205l8 60c20,-8 3,0 24,-12l-6 -138 27 -23 -15 -1003c0,-134 3,-229 -11,-352l28 -83c-29,-83 -47,-116 -44,-222 18,14 26,22 59,31 2,-36 8,-60 27,-88 -36,-82 -21,-429 8,-484l-24 -7c10,-19 2,18 11,-28l4 -94c2,-42 -5,-87 -5,-126 1,-80 7,-178 10,-263l0 -204 -22 -354c-6,-59 -6,-109 -16,-164 -27,-142 -25,-255 -41,-329 -19,-89 2,-137 -29,-170l4 -13c-26,19 -48,-31 -30,40z"/>
   <path class="fil13" d="M27359 6427l-48 2c15,16 1,5 5,32l-4 52c-40,31 -70,129 -101,207l-81 177 48 0c10,-19 22,-36 34,-51 2,-22 1,-46 25,-56 2,-42 16,-57 33,-105 17,-49 24,-35 38,-99 19,21 4,-19 21,32 24,71 7,138 -34,171 -12,37 -12,50 -42,77 -2,10 -5,21 -8,31l53 0c18,-39 39,-75 60,-99l18 99 50 0c-10,-68 -32,-131 -18,-204 14,-33 70,-78 82,-111 33,43 59,99 61,169l-4 146 75 0 -1 -12c-19,-8 -8,3 -9,-30 -3,-86 5,-146 -25,-242 -11,-36 -50,-154 -71,-172 -21,-2 -41,4 -41,-18l-21 -1 -95 5z"/>
   <path class="fil4" d="M1396 1125c-15,84 -53,206 -59,267 -11,51 -25,99 -36,139 -11,38 -22,107 -27,130 -12,69 -44,224 -38,279 11,72 -19,47 -5,132 3,18 10,36 9,59 -1,60 -10,3 -12,56 -1,31 24,80 -29,207 -24,59 -22,157 -40,212 -14,40 -63,184 -20,200 0,0 16,2 26,6 1,-3 3,-11 4,-9l21 -56c12,11 8,9 31,16l5 -50c-12,-13 -9,8 13,-37l29 -68c79,21 37,13 115,5 9,-269 39,-215 85,-423l28 -200c11,-72 23,-155 20,-234 -1,-35 19,-91 18,-122 -1,-64 -10,10 -14,-46 0,-6 7,-17 5,-48 -4,-78 1,-218 8,-298l35 -12 0 -103c-9,1 -3,13 26,-12 -21,-15 -8,-4 -20,-20 -28,-36 8,-23 -57,-25 -44,-4 -76,-3 -89,-34l-32 89z"/>
   <path class="fil14" d="M977 0c1,20 2,42 4,67 37,510 11,470 106,1045 4,14 7,27 12,44 1,4 3,15 4,19 9,23 6,14 18,30l-4 -69c0,-35 6,-45 6,-78 -1,-26 -6,-51 -7,-81 -1,-67 -15,-87 -5,-150 -25,-38 -15,-106 -19,-172 -3,-41 -8,-79 -14,-134 -11,-110 -11,-229 -12,-339 0,-59 -2,-120 -4,-182l-85 0z"/>
   <path class="fil15" d="M932 0l20 366 -47 16c6,86 -40,561 -64,676 -58,282 -117,949 -154,1080 -21,74 -7,56 -11,130 -7,130 -162,920 -186,1020l-126 780c-21,148 -84,345 -89,533l33 -17c16,-89 15,-131 31,-227l312 -1727c33,-164 61,-326 84,-490 22,-165 41,-368 74,-517 34,-157 109,-941 155,-1011 4,40 9,93 11,126l61 377c43,17 22,1 26,19 8,-43 -3,-6 25,-22 -95,-575 -69,-535 -106,-1045 -2,-25 -3,-47 -4,-67l-45 0z"/>
   <path class="fil16" d="M720 5034l-30 369c-15,255 -80,746 -85,942 -1,76 -12,52 -20,63l-49 489 38 0c4,-46 8,-93 12,-135 23,-196 73,-457 73,-636 4,-40 1,-59 7,-93 5,-33 10,-70 10,-101 19,-111 18,-221 30,-330l52 -591c22,-258 103,-736 108,-934 5,-195 84,-458 91,-596 15,-59 9,-115 33,-177l187 -1025c8,-50 31,-298 59,-339 -6,-55 26,-210 38,-279 5,-23 16,-92 27,-130 11,-40 25,-88 36,-139l-11 0 -5 -21c-28,14 -11,10 -40,105 -38,126 -89,506 -121,671 -32,164 -49,403 -92,579 -20,82 -28,139 -46,218 -14,66 -26,143 -41,201l-261 1889z"/>
   <path class="fil14" d="M27316 0l-3 78c-1,36 5,121 -18,135 27,126 -27,541 -29,672l5 201c53,14 40,-13 41,-63 1,-46 9,-45 32,-59l18 -10c-5,-54 -4,-28 -33,-69 23,-96 39,-545 50,-565 -3,-75 6,-176 13,-254 2,-22 3,-44 4,-66l-80 0z"/>
   <path class="fil17" d="M1732 5412c6,-89 -25,-138 -21,-205l-22 -23 40 -12c3,-59 18,-51 15,-108 -2,-27 -4,-84 -2,-123l-13 -697 -14 -28 5 -93 -11 -11 -14 17c-83,-36 -37,-43 -70,-87l-34 -32 -60 17 -9 106c-75,-34 57,6 -87,-38l-7 28c2,1 5,1 5,3l14 7c2,2 9,7 10,9l63 8c3,52 18,42 19,45 4,13 7,1 12,2 1,0 5,1 6,2 28,8 30,59 17,81 -22,37 -20,6 -50,-3 -2,2 -6,0 -7,4 -1,4 -13,8 -14,9 -18,16 -1,-7 -14,18 1,0 3,-1 4,0 7,22 -3,-5 18,0 2,1 6,1 8,2l-25 37c28,22 16,33 11,64 18,14 -8,-4 19,10l15 9c2,2 6,4 8,6 -27,10 -38,28 -52,64 -10,-16 -7,-13 -28,-22 -30,85 -50,0 -44,77 4,-1 18,-6 21,-5 25,4 7,-1 27,11l1 46 -47 10c6,-1 25,-3 43,0 4,1 17,5 22,7 4,2 13,9 16,10 2,2 6,4 8,5 2,1 6,3 9,5 7,-36 -2,-26 22,-48 16,-14 35,-17 49,-23l16 3c10,12 5,6 17,20l-56 58c-32,37 11,42 10,75 -2,40 -4,6 -7,9 22,-7 6,-21 83,-13 -2,58 -2,-3 -38,96 -1,3 -3,7 -5,10l-23 -46 -52 1 28 29c-16,31 0,51 6,95l-61 22c-4,37 -13,42 -2,66 49,19 10,13 58,-31 38,16 31,18 56,6l16 46c0,2 9,38 9,38 0,6 -5,20 -14,29 -36,38 -9,-16 -40,47l57 15c0,-1 -14,-18 -5,21 8,30 8,8 18,37l-41 17c-2,1 -6,4 -9,6l38 68c1,1 5,3 7,5l5 54c32,10 29,17 31,20 6,9 8,25 10,38l26 -2z"/>
   <path class="fil18" d="M659 6126c0,179 -50,440 -73,636 -4,42 -8,89 -12,135l82 0c-3,-5 -7,-11 -12,-20 40,-14 29,-7 49,-35l8 -14c47,-65 2,-55 26,-100 13,-25 14,-12 30,-55 9,57 -4,12 29,31 0,-53 10,-57 13,-92 -18,7 0,6 -38,3 -7,-78 -12,-102 16,-136 -5,-4 -15,5 -59,-42 20,-13 16,-4 37,-4l-43 -28c14,-86 22,-23 20,-95 -1,-33 17,-47 29,-101 -20,-17 2,-1 -22,-14l-21 -9c-4,-62 17,-18 -8,-66l-51 6z"/>
   <path class="fil19" d="M32 6897c25,-326 84,-924 102,-1040 -17,-47 -8,-27 -12,-64 -2,-26 35,-30 -9,-30 -42,91 -89,885 -105,1044l-6 90 30 0z"/>
   <path class="fil20" d="M26964 482c-8,90 -21,178 -31,265l-19 173c-2,32 14,57 -9,57l-85 819c-1,89 -26,200 -20,272l73 -42c0,-64 17,-95 27,-158 10,-63 0,-102 15,-162l55 -233c8,-37 -4,-34 7,-72 3,1 9,-1 10,4l53 38c49,40 -10,19 64,23 10,84 -5,3 24,41 -2,-27 -8,-41 -11,-60 -2,-19 -1,-40 -1,-60 -33,-53 -67,-363 -86,-463l-23 -243c-27,-123 -34,-102 -21,-238 -23,22 -15,1 -22,39z"/>
   <path class="fil11" d="M1611 2100l-66 62c-4,58 -36,18 -4,97l-27 59c-2,1 -9,6 -12,7 -6,52 -4,72 -46,101 -28,54 -27,100 -34,164l9 0c41,154 11,96 22,185l17 -64c18,21 8,-3 19,29 0,0 4,25 5,29l49 1c4,38 11,44 21,74l-25 35c30,32 7,21 42,41 77,42 -17,-16 24,11 -16,64 -5,29 -43,44l59 13c-1,68 8,84 2,137 23,-11 -1,-11 47,-11 3,22 9,18 20,30l-32 -160c10,-13 8,-1 15,-24 3,-9 4,-22 3,-33l7 -223c32,-25 -45,-22 49,-21 -8,-10 -12,-15 -23,-26 -64,-59 6,-14 -28,-147 8,-10 17,-21 29,-35 -53,-41 -5,-43 -29,-161 55,-77 8,-61 62,-69 -49,-23 -16,3 -39,-33l-23 -48c2,-2 6,-3 7,-5l26 -17c2,-6 6,-5 9,-8 -24,-7 -13,-4 -31,-14 -3,-2 -18,-11 -21,-13 -36,-27 -12,2 -30,-41 -17,51 -9,20 -30,34z"/>
   <path class="fil21" d="M26668 6897c0,-14 -2,-30 -9,-52l-38 -77c-1,-4 -5,-4 -7,-6 -9,24 -7,90 -13,135l67 0z"/>
   <path class="fil22" d="M27166 1620c-4,56 17,88 15,142 -5,139 24,227 24,321l7 316c12,130 45,368 79,503l169 1013c13,56 27,106 19,165 27,26 22,32 26,77 3,39 9,69 9,103l38 173c30,16 22,-18 24,23 34,-6 -1,10 25,-10l-121 -687c-20,-128 -44,-255 -66,-372 -23,-124 -36,-279 -53,-379 -4,-27 -12,-57 -17,-83 0,-4 -4,-36 -4,-38 -3,-14 -11,-23 -14,-34l-21 -183c-4,-65 -22,-113 -31,-183 -20,-158 -10,-50 -10,-184 -1,-157 -14,-271 -27,-415 -14,-152 -9,-244 -55,-381 -31,-10 -5,-14 -22,0 -2,31 -4,36 3,64 10,40 3,18 17,37l-14 12z"/>
   <path class="fil23" d="M27130 6897l81 -177c31,-78 61,-176 101,-207l4 -52c-39,-24 0,-22 -27,-113 -31,-101 -9,-53 -21,-108 -15,-66 -36,-155 -40,-222l-20 -51c-29,-24 -25,-26 -22,-82 -27,7 -24,-11 -36,24 -16,50 13,-24 2,29 -6,30 -19,-1 -17,72 -30,-6 -16,-4 -42,-20l-23 36c-57,0 -35,-6 -65,10 18,21 -19,12 26,19 15,2 1,-22 89,19 -6,86 -9,57 -53,41l-3 75c60,-19 8,-15 80,-41 -19,77 -65,72 -25,152 -12,29 -11,24 -26,46 14,40 11,20 8,62 -4,67 0,20 8,48 14,49 -5,82 -6,133l48 -12 9 58c-62,56 -74,91 -83,184l38 23 -41 34c8,16 8,17 11,20l45 0z"/>
   <path class="fil24" d="M27917 6645l5 -22c16,39 -7,8 40,35 -4,-65 -29,-144 -30,-162 -2,-70 19,2 -6,-47l-27 -137c-6,-69 12,-103 -37,-147 18,-31 5,-34 -8,-83 0,-4 -1,-7 -2,-10 -7,-28 -12,3 -6,-31 7,-42 2,-14 29,-38l-45 1c2,-86 -31,-134 -25,-205 3,-38 -1,-50 -2,-94l-35 -149c-2,-2 -4,-6 -5,-8 -31,-89 8,46 -7,-61 -10,-72 -37,-73 -4,-154 -29,0 -3,5 -14,-21l6 0 -27 -63c-4,-29 2,-36 10,-54 -16,-41 -34,-10 -4,-83l-4 -7c-2,-3 -6,-6 -7,-7 -1,-2 -5,-5 -6,-7 -23,-37 -8,-41 -24,-116 -2,-12 -6,-30 -9,-40l-11 -74c31,-47 7,-35 0,-119 -11,-129 -35,-194 -61,-296 -26,20 9,4 -25,10 -2,-41 6,-7 -24,-23 3,42 12,187 37,204 -2,75 52,440 67,568l41 324c5,46 20,77 28,126l133 744c6,27 32,246 59,246z"/>
   <path class="fil25" d="M1532 360c-17,139 14,37 -41,160 -28,62 -10,139 -22,209 -23,142 -60,256 -73,396l32 -89c13,31 45,30 89,34 53,-32 41,-4 49,-52 19,16 12,-18 20,28 30,-8 47,-15 66,-25 -31,75 -7,7 7,37 0,0 7,-31 10,-35l-3 -14 -64 12 -15 -53c43,10 32,7 61,-28 9,17 5,4 29,14l-25 -329c-4,-25 -4,-39 -9,-56 -66,-216 -17,-126 -42,-241 -15,9 -31,19 -38,23 -22,13 -2,13 -31,9z"/>
   <path class="fil15" d="M1111 827c23,-86 19,-75 -9,-105 35,-24 25,-17 18,-54 -7,-40 7,-23 -1,-69 0,53 -5,44 23,79 13,-20 18,18 23,-103 -48,-5 -33,-37 -29,-88 -33,-14 -16,-162 -18,-201 -2,-69 1,-161 -5,-202 -3,-16 -6,-46 -10,-84l-41 0c2,62 4,123 4,182 1,110 1,229 12,339 6,55 11,93 14,134 4,66 -6,134 19,172z"/>
   <path class="fil13" d="M27237 0c-4,47 -2,103 -3,124 70,-11 17,-3 67,-19 -13,46 -17,62 -6,108 23,-14 17,-99 18,-135l3 -78 -79 0z"/>
   <path class="fil8" d="M1245 3754l-8 73c8,98 2,273 -17,363 -19,92 -25,183 -47,279 -1,20 -5,36 -6,50l-29 196c-14,94 -17,189 -21,285 -2,70 -26,174 -35,264 -7,66 -7,165 -20,240 5,53 -39,559 -56,612 15,90 -56,277 -40,339l38 8c16,-93 45,-192 49,-300 1,-51 11,-279 28,-312l22 -257 15 -337c5,-45 -5,-22 17,-47 -6,-63 10,-114 22,-174 12,-59 5,-133 12,-199l99 -679c21,-123 7,-233 28,-369l-1 -93 8 -11 -22 -17c9,81 8,19 -9,50l-27 36z"/>
   <path class="fil26" d="M1280 816l15 -22c1,-2 7,-15 8,-18 2,3 4,4 5,9 1,5 8,15 9,18 29,58 23,32 48,70 -42,123 -3,93 7,104 21,-94 34,-94 53,-255l73 -554c7,-61 7,-118 23,-168l-54 0c-24,59 -20,97 -28,136 -3,17 -64,165 -52,265l-31 30c-19,32 -76,327 -76,385z"/>
   <path class="fil27" d="M27917 6645c0,24 17,128 39,252l47 0c-3,-20 -6,-41 -9,-77 -5,-61 -20,-113 -32,-162 -47,-27 -24,4 -40,-35l-5 22z"/>
   <path class="fil28" d="M27766 2009c-8,110 18,501 39,616l78 434c37,277 152,776 163,1007 4,84 27,228 47,294 19,-11 21,-14 40,-25 -42,-189 -60,-396 -88,-590l-144 -857c-33,-165 -105,-775 -86,-918l3 21c-62,6 -10,-8 -52,18z"/>
   <path class="fil29" d="M27524 267c37,124 49,284 77,421l32 199c13,73 17,144 34,219l59 320c3,22 0,57 2,105 2,71 5,160 14,234 6,48 21,198 5,221 0,42 -5,-3 19,23 42,-26 -10,-12 52,-18l-3 -21c-15,-173 -11,-291 -25,-463 -4,-51 -2,-66 -10,-114 -5,-31 -4,-72 -12,-114 -12,-66 -31,-130 -43,-208 -4,-25 -5,-23 -11,-49 -30,-130 -23,-213 -55,-373 -19,-92 -54,-381 -88,-416l-9 28c0,2 -2,9 -2,8 -1,-2 -2,5 -3,9l-33 -11z"/>
   <path class="fil30" d="M1419 2621c-23,216 -3,104 3,171 10,111 37,137 85,286 13,40 26,67 40,110l75 225c32,87 -18,20 34,91 23,32 26,56 34,106 11,-112 15,-349 0,-466 -11,-12 -17,-8 -20,-30 -48,0 -24,0 -47,11 6,-53 -3,-69 -2,-137l-59 -13c38,-15 27,20 43,-44 -41,-27 53,31 -24,-11 -35,-20 -12,-9 -42,-41l25 -35c-10,-30 -17,-36 -21,-74l-49 -1c-1,-4 -5,-29 -5,-29 -11,-32 -1,-8 -19,-29l-17 64c-11,-89 19,-31 -22,-185l-9 0 -3 31z"/>
   <path class="fil31" d="M1837 3098c-29,55 -44,402 -8,484 -19,28 -25,52 -27,88 -33,-9 -41,-17 -59,-31 -3,106 15,139 44,222l-28 83 39 -4c-12,-192 78,-37 103,-453 6,-107 10,-117 -21,-147 49,-30 16,-23 28,-68 10,-40 -15,6 13,-18 0,-29 0,-16 20,-30 -2,-77 -13,-78 2,-131 4,-12 0,-392 -43,-448 -2,14 -4,29 -9,41l-12 20c28,27 35,39 34,92 -1,26 -1,25 -12,47 -14,28 2,11 -26,27 5,15 14,39 19,50l8 92 -36 -9 -16 49c-4,14 -9,30 -13,44z"/>
   <path class="fil32" d="M1577 1957c13,-10 7,26 19,-14 2,-8 12,-3 18,-7 14,30 -3,11 36,32l-36 59 -61 -3c-23,21 24,-6 -22,14l-3 14c66,14 17,27 85,22l-2 26c21,-14 13,17 30,-34 18,43 -6,14 30,41 3,2 18,11 21,13 18,10 7,7 31,14 -3,3 -7,2 -9,8l-26 17c-1,2 -5,3 -7,5l23 48c23,36 -10,10 39,33 -54,8 -7,-8 -62,69 24,118 -24,120 29,161 -12,14 -21,25 -29,35 34,133 -36,88 28,147 11,11 15,16 23,26 -94,-1 -17,-4 -49,21 52,17 24,-31 28,94l17 219c6,156 26,433 12,579l34 -1375c-4,-67 -15,-119 -18,-195 -33,-4 -30,3 -54,-22 13,-45 38,-28 -9,-105 -10,-17 -2,-4 -12,-19 -19,-28 -10,-7 -23,-38 73,-16 33,-30 54,22l8 -42 -71 14c-25,72 -9,36 -72,121z"/>
   <path class="fil33" d="M28093 4360c4,41 10,64 15,102 3,19 -1,13 4,36l84 490c8,73 15,153 24,230 8,70 27,132 36,207l97 540c19,90 0,80 26,99l4 -59c1,1 -9,17 13,-4 -4,23 -3,1 18,12 0,0 -5,-35 -4,-39 1,-11 4,-17 6,-22 1,-2 18,-28 20,-31l-41 -13c-2,-42 -12,-57 -18,-93 -6,-49 -12,-72 -16,-120 -17,-7 -6,-48 -13,-82 -8,-34 -4,16 -10,-39 -2,-15 0,-33 -1,-46 -25,-26 -7,24 -18,-26 -5,-21 -1,-16 0,-39l-15 -49c-8,-19 -17,-63 -20,-84 -3,-18 -6,-37 -5,-56 1,-27 2,-23 8,-36 10,-33 -1,4 -9,-50 -22,-135 -5,-163 -66,-377 -23,-79 -20,-153 -34,-237 -10,-66 -26,-178 -45,-239 -19,11 -21,14 -40,25z"/>
   <path class="fil23" d="M676 5932c17,-16 17,-8 26,-37 20,-59 46,-282 51,-342 2,-31 9,-21 14,-59 5,-34 3,-61 4,-79 20,-364 38,-661 89,-1023 30,-206 85,-569 99,-764 6,-95 31,-112 -2,-147 -7,138 -86,401 -91,596 -5,198 -86,676 -108,934l-52 591c-12,109 -11,219 -30,330z"/>
   <path class="fil15" d="M27027 4840c-17,36 -8,83 -1,124l10 46c7,40 14,33 19,70l32 238c0,9 2,28 4,38 5,35 -1,-2 8,37 10,41 14,109 30,145 12,28 19,92 26,138 18,114 44,195 53,291l20 51c33,-7 23,-13 23,24l13 -15c12,-9 -7,0 23,-14 -17,-37 -53,-205 -42,-262 -42,-58 -55,-293 -80,-363 -11,-28 -76,-576 -102,-621 -36,-40 38,28 -19,-17 -21,-17 -8,-6 -17,-9l0 99z"/>
   <path class="fil23" d="M990 3304l-5 48c14,-15 4,4 23,-30l34 -116c10,-60 28,-109 35,-166 17,25 6,20 36,18 36,-2 30,-8 52,-34l-25 -28c10,-57 26,-47 41,-99 15,-51 26,-71 32,-122l8 -12c-23,-7 -19,-5 -31,-16l-21 56c-1,-2 -3,6 -4,9 -10,-4 -26,-6 -26,-6 -43,-16 6,-160 20,-200 18,-55 16,-153 40,-212 53,-127 28,-176 29,-207 2,-53 11,4 12,-56 1,-23 -6,-41 -9,-59 -14,-85 16,-60 5,-132 -28,41 -51,289 -59,339l-187 1025z"/>
   <path class="fil15" d="M1516 1756c3,79 -9,162 -20,234l-28 200c-46,208 -76,154 -85,423l36 8 3 -31c7,-64 6,-110 34,-164 25,-185 23,-9 41,-170 6,-53 10,-142 37,-180l-6 -24 3 -14 21 -90 3 -92c2,-16 4,-44 7,-58 0,-4 6,-24 7,-27 9,-19 7,-10 16,-22l11 -31c9,-85 18,-74 33,-152 18,-95 24,-90 18,-184 -2,-72 13,-34 0,-112 12,-14 6,-2 33,-11 13,-24 -1,-47 10,-87l-33 -22 -2 -33c-16,17 -15,-14 -22,55 -8,75 -31,129 -39,254 -4,54 -6,124 -19,182 -10,46 -35,119 -59,148z"/>
   <path class="fil34" d="M27479 4080c8,-59 -6,-109 -19,-165l-169 -1013 -23 9c4,73 17,81 -3,152 47,29 13,94 41,231 9,44 3,64 11,94 11,42 19,33 26,104 -42,-24 -36,-23 -53,9 28,15 23,-1 55,23l-50 31 24 36c-19,24 -15,14 -22,48 2,2 5,2 6,7 3,15 21,-19 17,62 -15,9 -58,2 -30,44 31,45 25,3 55,66l70 -6 -14 67c47,45 44,90 40,175 40,10 24,-9 38,53 1,-3 3,-7 0,-27z"/>
   <path class="fil30" d="M585 6408c8,-11 19,13 20,-63 5,-196 70,-687 85,-942l30 -369c-37,22 -41,55 -54,140 -8,55 -18,114 -26,163 -75,464 -53,620 -55,1071z"/>
   <path class="fil34" d="M27245 5751c-11,57 25,225 42,262l72 414 95 -5c11,-51 2,-29 19,-40l-19 -36c-2,-3 -3,-5 -4,-8 0,-1 -11,-31 -11,-33l-49 -212c0,-145 -23,-101 -37,-141 -43,-123 5,-145 -60,-141 34,-21 19,0 35,-52 -64,-114 10,-69 -63,-83 -18,32 -3,28 -20,75z"/>
   <path class="fil22" d="M27791 3591c5,4 19,29 48,23 50,-11 13,-79 0,-170 -11,-82 -23,-139 -43,-232 -8,-38 -18,-69 -28,-110l-29 -395c-17,-18 -2,18 -21,-28 -7,-18 -3,-13 -6,-29 -5,-21 1,-7 -6,-27 -8,-26 1,-3 -12,-23 -45,3 -11,-12 -37,14l-10 69c10,34 21,73 29,99l22 62c-33,42 -26,42 0,109l-15 41c27,27 10,14 48,32 -18,19 12,9 -25,24l27 -3 10 133c22,39 -36,-14 20,10l-7 147c29,17 35,3 42,37 11,59 -14,66 -14,66 -17,-37 -2,-80 -49,-56l-9 -50c-86,55 70,107 6,162l65 67c18,31 18,16 -6,28z"/>
   <path class="fil8" d="M26986 443c-13,136 -6,115 21,238l23 243c19,100 53,410 86,463 39,21 19,-2 37,34l6 -17c4,-94 -21,-137 -23,-243 -1,-62 -36,-194 -27,-234 -23,-25 -15,-32 -24,-70 -27,-106 -25,-265 -38,-332 -13,-67 -10,-151 2,-216l-45 0c36,111 31,63 11,153 -10,-38 -3,-2 -29,-19z"/>
   <path class="fil15" d="M27253 1519c4,114 41,218 55,323l127 658c20,87 40,304 66,329 31,-11 13,-49 10,-78 -5,-52 0,-157 -14,-209 -12,-46 -18,26 2,-43l-27 -9c-5,-66 -3,-9 17,-34 9,-44 -15,-89 -29,-136l-46 -211c-6,-33 -13,-45 -24,-71 -14,-35 2,-19 -9,-64 -21,-90 -53,-34 -12,-119 -26,-16 -11,-12 -35,-37l20 -56c-42,-15 -30,-17 -62,-133 -1,-3 -2,-6 -3,-9 0,-3 -1,-6 -2,-9 -7,-44 1,-38 -18,-92l-16 0z"/>
   <path class="fil8" d="M792 6555l7 57c-3,35 -13,39 -13,92 6,65 -10,140 -20,193l38 0 40 -211c26,28 62,112 66,157 0,9 -2,30 -5,54l92 0 -3 -20c-29,-28 -35,-74 -30,-121l23 5 -55 -51 -4 36 -60 -175c-17,-29 -22,38 -8,-59 -59,37 -25,36 -68,43z"/>
   <path class="fil15" d="M27396 0c-1,22 -2,44 -4,66 -7,78 -16,179 -13,254 3,0 3,73 3,81 4,58 9,53 10,87 14,12 6,9 34,17 -5,-91 -5,-189 8,-283 11,-74 10,-145 9,-222l-47 0zm60 0c7,32 17,63 29,89 22,47 15,40 18,82 4,61 11,52 21,96l33 11c1,-4 2,-11 3,-9 0,1 2,-6 2,-8l9 -28c7,-82 -39,-160 -54,-232l0 -1 -61 0z"/>
   <path class="fil35" d="M26773 4421c-10,71 -19,124 -18,193l35 -172c59,-14 23,-16 66,-49 1,0 38,-21 38,-21 39,-14 16,-8 31,2 13,-69 -1,-22 29,-40l2 8 -3 -34c-6,-34 -18,-56 -32,-74l-28 0c26,-94 -25,-9 -11,-93 0,-3 2,-14 3,-17l21 -79 1 -12c-8,-38 -6,-27 -14,-73l-18 -8c20,-66 8,-13 4,-83 -3,-55 -3,-75 -13,-132l-93 684z"/>
   <path class="fil8" d="M1779 6047c8,77 16,166 12,227 -6,87 2,126 9,216 13,138 43,140 51,271l8 3c0,54 7,84 10,114 0,5 0,11 0,19l42 0c-1,-17 -3,-35 -4,-51 -8,-87 -27,-190 -41,-279 -7,-47 -30,-78 -33,-127l-10 -439c-8,-60 8,-20 -16,-40l-28 86z"/>
   <path class="fil34" d="M766 6897c10,-53 26,-128 20,-193 -33,-19 -20,26 -29,-31 -16,43 -17,30 -30,55 -24,45 21,35 -26,100l-8 14c-20,28 -9,21 -49,35 5,9 9,15 12,20l110 0z"/>
   <path class="fil36" d="M1647 1382c6,94 0,89 -18,184 -15,78 -24,67 -33,152l-11 31 11 17c-11,49 -16,61 -41,90l-3 92c7,60 -2,20 18,34l7 -25c63,-85 47,-49 72,-121l71 -14 7 -28c-2,-135 -36,-268 -28,-408 -17,-11 -13,5 -27,-41l-25 37z"/>
   <path class="fil8" d="M26677 4803l-15 34c14,85 -29,256 -24,341 8,44 -11,185 -15,246 0,2 -3,30 -3,36l-42 -43c-1,-4 -3,-5 -6,-7 -8,52 -9,21 -20,51 -14,39 2,30 -23,68 55,78 -3,114 38,161l17 -126c-18,3 -5,8 -3,-12 3,-27 -1,-7 7,-41l12 35 48 -4c11,-122 37,-255 47,-373 10,-107 36,-292 23,-383 -16,-2 -6,-6 -15,10l-26 7z"/>
   <path class="fil5" d="M919 6509l-29 51 34 6c7,38 19,40 12,73 -8,42 -4,17 -4,71l55 51c4,57 30,72 32,122 12,9 12,6 17,14l89 0c-4,-8 -7,-16 -11,-38l-30 -76c-23,-51 -61,-111 -64,-163 -40,-34 -26,-84 -16,-157l-38 -8c-18,74 -13,4 -47,54z"/>
   <path class="fil32" d="M1517 1070c65,2 29,-11 57,25 12,16 -1,5 20,20 -29,25 -35,13 -26,12l0 103 -35 12c-7,80 -12,220 -8,298 2,31 -5,42 -5,48 4,56 13,-18 14,46 1,31 -19,87 -18,122 24,-29 49,-102 59,-148 13,-58 15,-128 19,-182 8,-125 31,-179 39,-254 7,-69 6,-38 22,-55 -7,-69 6,-6 4,-59 -14,-30 -38,38 -7,-37 -19,10 -36,17 -66,25 -8,-46 -1,-12 -20,-28 -8,48 4,20 -49,52z"/>
   <path class="fil37" d="M1497 3393c13,61 36,100 56,164 19,60 59,95 57,170 14,93 39,84 40,82 0,-1 2,-2 4,-3 -21,20 -32,29 -46,38 9,36 9,26 27,51 25,36 9,24 22,68 23,74 40,55 52,149l11 11 -5 93 14 28c-3,-47 -2,-98 0,-145l-43 -358 -105 -288c-17,-38 -14,-79 -43,-106l-4 64c-1,-1 -32,-15 -37,-18z"/>
   <path class="fil38" d="M27547 6897l4 -146c-2,-70 -28,-126 -61,-169 -12,33 -68,78 -82,111 -14,73 8,136 18,204l121 0z"/>
   <path class="fil39" d="M28379 6064c-3,66 14,134 31,222 12,65 13,176 22,257 4,38 6,33 10,59l27 155c8,43 17,76 27,110 3,11 5,21 8,30l68 0c-30,-86 -57,-127 -62,-181 -4,-50 -29,-179 -41,-237l-55 -466c-21,-11 -22,11 -18,-12 -22,21 -12,5 -13,4l-4 59z"/>
   <path class="fil30" d="M1114 6859c4,22 7,30 11,38l74 0c-11,-35 -11,-55 -62,-82l-23 44z"/>
   <path class="fil40" d="M27376 6897l-18 -99c-21,24 -42,60 -60,99l78 0z"/>
   <path class="fil41" d="M27049 309c-12,65 -15,149 -2,216 13,67 11,226 38,332 9,38 1,45 24,70 9,-58 -17,-43 29,-73 3,2 7,0 8,4l17 15c2,2 6,7 10,10l-40 -246c-4,-18 -9,-50 -14,-77 -29,-139 -43,-94 -55,-318 -10,27 -13,37 -15,67z"/>
   <path class="fil42" d="M27551 1828l15 -21c18,60 20,80 19,149 25,-2 -15,-25 6,17 9,18 15,21 23,30 -1,3 -2,8 -3,10 -1,3 -2,7 -3,10 0,3 -2,6 -3,9 -16,72 33,86 26,190 -16,7 -12,-1 -28,27l54 19 -7 64c0,-2 -1,6 -2,10 9,13 22,61 30,90 13,51 0,83 -19,113l35 19 0 36c13,20 4,-3 12,23 7,20 1,6 6,27 3,16 -1,11 6,29 19,46 4,10 21,28 -2,-134 -32,-250 -51,-366l-113 -623c-10,-55 -11,-95 -21,-138 -23,28 -6,-27 -25,34l8 81c1,-3 4,-6 6,-10 0,3 -2,38 -3,41 -10,48 -20,16 -26,104l37 -2z"/>
   <path class="fil43" d="M994 6877l3 20 15 0c-2,-3 -5,-8 -6,-11 -1,-6 -8,-5 -12,-9zm42 20c-5,-8 -5,-5 -17,-14l-3 14 20 0z"/>
   <path class="fil39" d="M26520 5149c-22,108 2,267 9,380 25,-38 9,-29 23,-68 11,-30 12,1 20,-51 3,2 5,3 6,7l42 43c0,-6 3,-34 3,-36 4,-61 23,-202 15,-246l-31 9 -1 -107c-22,29 -21,16 -21,76 -21,-19 -7,-13 -15,-3l-50 -4z"/>
   <path class="fil15" d="M702 2832c20,-25 23,32 18,-30l7 192c33,-27 25,-9 41,-49 2,-3 6,-27 7,-36l1 -154c-6,-167 31,-63 26,-181l18 -171c-5,31 -7,32 -13,61 -32,-28 -48,48 -25,-69l-18 23c-26,50 -60,355 -62,414z"/>
   <path class="fil44" d="M1173 4469c22,-96 28,-187 47,-279 19,-90 25,-265 17,-363 -19,22 -5,-18 -24,37l-36 174c8,144 -93,318 -18,461 -18,-55 0,-14 14,-30z"/>
   <path class="fil45" d="M26529 4876l3 -4 10 -369c-98,25 -71,20 -75,55 -13,-6 6,-26 -35,-1 -28,17 -13,18 -8,38 11,47 0,24 34,45 -67,28 -30,19 -14,154 25,-21 23,-45 37,7 7,26 -4,34 -2,82l50 -7z"/>
   <path class="fil46" d="M26673 2688c-11,104 -32,262 -22,381 57,7 61,-161 61,-162l7 41c25,0 18,-58 19,-81 2,-43 1,-55 5,-93 5,-67 19,-140 1,-203l-71 117z"/>
   <path class="fil17" d="M1837 3098c4,-14 9,-30 13,-44l16 -49 36 9 -8 -92c-5,-11 -14,-35 -19,-50 28,-16 12,1 26,-27 11,-22 11,-21 12,-47 1,-53 -6,-65 -34,-92l12 -20c5,-12 7,-27 9,-41 -12,-37 -28,-40 -67,-65 -3,85 -9,183 -10,263 0,39 7,84 5,126l-4 94c-9,46 -1,9 -11,28l24 7z"/>
   <path class="fil47" d="M26953 4308l3 34 -5 19c6,11 2,-6 14,26 5,12 6,16 7,27 3,18 2,45 4,66 6,28 19,122 20,170 18,16 7,-20 17,37 5,29 1,25 1,51l-12 88 25 14 0 -99c9,3 -4,-8 17,9 57,45 -17,-23 19,17 9,-6 15,11 7,-56l-21 -196c-10,-51 -11,-106 -22,-154 -9,-39 -23,-102 -25,-134 -18,18 -6,77 -5,108 -3,-2 -18,-12 -21,-14l-23 -13z"/>
   <path class="fil31" d="M1006 6116c17,-53 61,-559 56,-612 -45,9 -35,1 -40,58 -10,118 -88,243 -29,510 11,46 -31,48 13,44z"/>
   <path class="fil48" d="M26856 885c75,25 -25,-7 52,12 -15,41 -17,31 -3,80 23,0 7,-25 9,-57l19 -173c10,-87 23,-175 31,-265 -21,18 -25,-18 -20,21l-2 -103c-11,-17 -12,-6 -26,-15l-45 363c1,30 -7,114 -15,137z"/>
   <path class="fil49" d="M275 4601c-26,48 -72,403 -102,501l31 10 -14 66 42 -29c11,-82 22,-196 37,-274 16,-79 42,-212 39,-291l-33 17z"/>
   <path class="fil50" d="M1136 487c7,-33 4,-39 0,-75 -12,-100 -15,-51 15,-56 30,19 11,-1 17,38 29,-64 -1,-10 2,-71l17 -222c-17,-10 -29,-15 -43,-25 -4,-28 -7,-51 -10,-76l-31 0c4,38 7,68 10,84 6,41 3,133 5,202 2,39 -15,187 18,201z"/>
   <path class="fil17" d="M1833 2376c1,-3 4,-10 5,-9 2,6 7,-12 8,-15 5,-9 5,-12 9,-20 12,-76 -21,-67 75,-110 -1,-101 48,-128 12,-162 -14,-5 -28,-6 -29,-6 -38,-17 -12,3 -34,-26l-47 17c-18,-48 0,-3 -21,-23l22 354z"/>
   <path class="fil51" d="M26639 5820c1,43 -3,44 -4,89 -1,35 3,67 3,95 1,48 -7,125 -6,182 21,-9 15,-6 40,-16 -15,48 -32,28 23,59 33,-218 -7,-131 8,-209 11,-55 2,-20 26,-53 -10,-22 -15,-40 -34,-58 1,-3 3,-6 4,-9l11 -60c-28,-19 -31,-22 -71,-20z"/>
   <path class="fil14" d="M905 6897c3,-24 5,-45 5,-54 -4,-45 -40,-129 -66,-157l-40 211 101 0z"/>
   <path class="fil52" d="M1245 3754l27 -36c17,-31 18,31 9,-50l22 17c45,-14 37,-27 33,-31 -36,-37 16,19 -36,-15 36,-85 -5,-60 19,-144l-11 -31c0,-33 1,-62 2,-94 0,-14 -1,-41 2,-54 10,-34 -2,-22 25,-33 -55,-60 45,30 -16,-16 -35,-26 -4,3 -24,-15 -32,-30 -19,2 -12,-49 -29,18 -13,81 -18,123 -7,59 -17,76 -11,140 8,95 -5,192 -11,288z"/>
   <path class="fil53" d="M27316 6461c-4,-27 10,-16 -5,-32l48 -2 -72 -414c-30,14 -11,5 -23,14l-13 15c0,-37 10,-31 -23,-24 4,67 25,156 40,222 12,55 -10,7 21,108 27,91 -12,89 27,113z"/>
   <path class="fil9" d="M26532 4872l-3 4 -9 273 50 4c8,-10 -6,-16 15,3 0,-60 -1,-47 21,-76l9 -140 13 -10c-14,-23 -10,31 -15,-45 -2,-28 5,-32 9,-48 -48,16 -42,6 -90,35z"/>
   <path class="fil54" d="M715 3375c-42,14 -27,17 -64,30 -16,-24 -16,-49 -11,-89 -21,-16 -14,9 -24,-27 -5,25 -4,34 -12,56 -12,31 -19,0 -8,53 12,57 12,43 -18,103 42,33 24,28 22,80 -3,66 -13,90 43,90 -29,-81 24,-55 33,-131l39 -165z"/>
   <path class="fil55" d="M1073 1986c2,-3 4,-11 5,-9l134 -614 -38 10 -15 -40c-1,86 -25,204 -44,283 -2,10 -5,41 -5,42 -2,11 -19,49 -23,63 -17,63 -28,191 -14,265z"/>
   <path class="fil42" d="M113 5763c44,0 7,4 9,30 4,37 -5,17 12,64l74 -507c-25,-15 -12,-19 -23,-5l-36 0c-11,121 -47,299 -36,418z"/>
   <path class="fil56" d="M26708 4227l-29 241c-9,91 -17,117 -32,195 -9,49 -10,120 -11,175 13,-16 18,11 18,-26l8 25 15 -34 -4 -46c10,-30 24,-140 26,-174 4,-66 12,-84 21,-160l6 -7c4,-52 4,-52 14,-97 10,-46 0,-40 -2,-81 -27,-32 42,-23 -26,-23l-4 12z"/>
   <path class="fil47" d="M26556 4496l-14 7 -10 369c48,-29 42,-19 90,-35l-25 -45c16,1 4,-5 34,-25l-41 -22c0,0 -1,-262 18,-267l4 -9c-2,1 -14,8 -16,10 -3,2 -12,7 -14,9 -21,22 -6,-5 -16,33l-10 -25z"/>
   <path class="fil33" d="M26608 4478c-19,5 -18,267 -18,267l41 22c-30,20 -18,26 -34,25l25 45c-4,16 -11,20 -9,48 5,76 1,22 15,45l8 -92c1,-55 2,-126 11,-175 15,-78 23,-104 32,-195l-26 7 -22 -18c-12,35 0,14 -23,21z"/>
   <path class="fil57" d="M26567 5690c-15,80 5,71 16,127 34,-43 10,-48 37,-38 0,-44 -6,1 22,-19 7,-53 3,-55 19,-98 9,-26 25,-120 -13,-120l-48 4 -12 -35c-8,34 -4,14 -7,41 -2,20 -15,15 3,12l-17 126z"/>
   <path class="fil19" d="M27551 1828l0 65 23 -3c-33,13 -8,0 -30,18 10,47 26,23 14,111 -14,100 14,106 32,155 22,57 3,3 1,49 -3,50 18,77 28,119l29 0c1,-4 2,-12 2,-10l7 -64 -54 -19c16,-28 12,-20 28,-27 7,-104 -42,-118 -26,-190 1,-3 3,-6 3,-9 1,-3 2,-7 3,-10 1,-2 2,-7 3,-10 -8,-9 -14,-12 -23,-30 -21,-42 19,-19 -6,-17 1,-69 -1,-89 -19,-149l-15 21z"/>
   <path class="fil39" d="M26720 4423c-9,76 -17,94 -21,160 -2,34 -16,144 -26,174l4 46 26 -7c9,-16 -1,-12 15,-10 10,-11 8,6 20,-35 10,-36 0,-2 3,-39 2,-31 6,-68 14,-98 -1,-69 8,-122 18,-193 -28,18 -29,40 -31,35 -2,-2 -4,7 -7,10 0,-3 -5,-18 -6,-21l-9 -22z"/>
   <path class="fil32" d="M1567 3961c-37,-6 -15,1 -33,-10 -24,-17 -1,-6 -16,-26 -17,-38 -3,-9 -8,-55 -5,-49 -4,-16 -13,-56 -8,-33 -11,-76 -21,-117 -3,3 -10,1 -12,7 -12,41 4,-15 -20,13l11 43c-53,12 -17,2 -35,19 53,6 19,-3 50,35 0,2 -2,3 -3,6 0,0 -37,51 16,133 8,12 3,-2 16,24 -38,71 -7,26 -72,61 -1,0 -4,3 -6,4 12,27 0,25 27,24l35 9c2,1 6,5 9,7 6,-18 7,-30 19,-52 16,-28 11,-22 57,-23l-1 -46z"/>
   <path class="fil58" d="M1081 5851l26 -12c-15,38 -21,47 35,46 20,-83 3,-26 -26,-81 10,-2 34,-4 39,-6 23,-6 22,-9 32,-15l-27 -39c-1,-1 -6,-1 -6,-4 -1,-3 -5,-2 -7,-6l41 -9c-1,-49 -8,-33 9,-47l-94 -84 -22 257z"/>
   <path class="fil58" d="M1240 4596c31,15 17,-1 47,11 -10,15 -17,27 -28,57l50 17c-26,18 -1,-4 -15,24 -4,-25 5,-10 -26,-16l0 45c-4,-7 -5,-15 -16,-17 -18,-3 -7,-1 -21,7l2 43c55,5 25,20 42,-19 9,65 22,45 12,130 2,-3 5,-11 6,-9l9 -31c27,-121 -1,-98 43,-118 -8,-81 -15,-56 21,-101l-17 -11c-1,-1 -5,-3 -6,-4l-10 -12c-32,-42 -45,-47 -93,-47l0 51z"/>
   <path class="fil59" d="M1358 3063c24,25 7,-6 21,38 11,35 8,28 21,61 15,38 23,80 51,107 13,-20 9,10 11,-28 0,-4 -4,-34 -4,-39 -6,-42 -12,-61 -12,-101 -3,-75 -53,-145 -58,-209 -16,15 -7,-10 -18,33 -1,7 -3,34 -5,43 -4,34 -6,55 -7,95z"/>
   <path class="fil5" d="M1779 6047l28 -86c14,-65 12,-143 0,-213l-16 -16c-36,-47 17,-160 -28,-85 -12,44 -33,39 -35,89 -3,51 22,61 31,94 8,31 15,171 20,217z"/>
   <path class="fil55" d="M819 2186l0 58 1 -57c95,0 -7,-12 33,28 5,-18 7,-30 12,-48l35 -117c11,-38 13,-20 19,-77 7,-58 18,-36 22,-92 -27,14 -28,13 -58,4 -12,51 -79,253 -64,301z"/>
   <path class="fil44" d="M1879 2028c22,29 -4,9 34,26 1,0 15,1 29,6 36,34 -13,61 -12,162 -96,43 -63,34 -75,110 59,-25 14,-28 90,-32 8,-55 13,-52 45,-78 -1,-131 9,-220 -111,-194z"/>
   <path class="fil40" d="M26651 3069c-5,54 -2,98 -6,155 -3,39 -17,119 -1,151 32,-112 103,-300 75,-427l-7 -41c0,1 -4,169 -61,162z"/>
   <path class="fil60" d="M881 2934c11,-31 43,-143 47,-217l-34 12 -4 72c-31,-4 -15,9 -32,-11 3,28 7,33 -11,73 -21,47 -17,12 -33,75 -46,187 -30,154 5,183 11,-41 6,-74 18,-114 11,-34 22,-72 23,-94l21 21z"/>
   <path class="fil61" d="M26698 3783c2,-37 52,-170 67,-230 21,-86 37,-183 53,-272 -43,40 -44,114 -72,163 -32,56 -13,-12 -28,55 -6,24 -23,251 -20,284z"/>
   <path class="fil34" d="M26883 2871c-2,-57 37,-80 -35,-100l16 -41c-95,-37 30,-79 -52,-151l-13 134c-6,52 -7,99 -17,153 76,-13 33,30 101,5z"/>
   <path class="fil62" d="M26736 4130l3 29c12,-47 1,-5 24,-23l64 -473c4,-50 15,-129 11,-172 -24,59 -22,92 -24,160 -2,50 -21,106 -32,159 -20,94 -50,228 -46,320z"/>
   <path class="fil39" d="M1740 5472c-3,46 -4,149 23,175 45,-75 -8,38 28,85l16 16c0,-72 -14,-154 -13,-213 0,-75 -9,-153 -9,-236l-27 23 6 138c-21,12 -4,4 -24,12z"/>
   <path class="fil16" d="M1233 2883l22 7 20 116 38 -28c4,-2 8,-4 13,-6l32 91c1,-40 3,-61 7,-95 2,-9 4,-36 5,-43 11,-43 2,-18 18,-33 -6,-35 13,-28 -35,-49 -27,36 -15,53 -32,106l-40 -123c-20,25 0,10 -24,22 -3,1 -7,3 -10,4 -2,1 -7,1 -9,2 -3,1 -7,1 -11,2l6 27z"/>
   <path class="fil59" d="M26897 3460c-9,48 -12,86 -16,130 -4,37 -4,22 6,47 11,23 14,36 22,57l8 -21 2 -70 42 10 5 3 19 -69 -37 -58c-10,-36 -12,-56 -24,-88l-27 59z"/>
   <path class="fil63" d="M1504 6897c-4,-11 -9,-12 -28,-28l-5 28 33 0z"/>
   <path class="fil47" d="M764 2418l18 -23c-23,117 -7,41 25,69 6,-29 8,-30 13,-61 5,-36 12,-71 19,-100 11,-45 12,-36 14,-88 -40,-40 62,-28 -33,-28l-1 57 0 -58c-48,54 -49,164 -55,232z"/>
   <path class="fil15" d="M26907 4033l-1 12 15 189c14,18 26,40 32,74l23 13c3,2 18,12 21,14 -1,-31 -13,-90 5,-108l-25 -64c-44,-53 -31,-93 -46,-156 -21,42 -6,7 -24,26z"/>
   <path class="fil40" d="M26826 3052c-62,53 -82,169 -85,282l45 -93c12,-33 20,-73 33,-107 18,-51 73,-152 54,-201 -24,9 -7,-4 -24,12 -1,1 -17,28 -18,29 -8,26 -5,52 -5,78z"/>
   <path class="fil64" d="M26612 4469l-4 9c23,-7 11,14 23,-21 20,-51 65,-403 77,-504 -23,20 -25,15 -35,62l-31 188c-17,103 -13,204 -30,266z"/>
   <path class="fil65" d="M1303 3685l-8 11 1 93 22 4c6,-34 16,-33 8,-73l-11 -6c26,-15 31,-12 56,-30l-9 -68 48 -23c-29,-16 -24,-4 -54,-58 -14,-25 -15,-9 -7,-59l-21 2c-21,-10 -12,8 -20,-14l11 31c-24,84 17,59 -19,144 52,34 0,-22 36,15 4,4 12,17 -33,31z"/>
   <path class="fil66" d="M1851 6761c-8,-131 -38,-133 -51,-271 -30,21 -10,-7 -20,30 -5,18 -17,109 4,138l-28 19c-2,-3 -6,3 -9,4 3,2 7,4 9,6l18 8c16,7 12,4 20,9 -61,37 -21,-6 -38,56l54 -10c11,10 31,8 41,11z"/>
   <path class="fil67" d="M1451 3269c7,54 16,91 46,124 5,3 36,17 37,18l4 -64c-10,-84 -45,-129 -61,-181 -15,-50 0,-38 -31,-65 0,40 6,59 12,101 0,5 4,35 4,39 -2,38 2,8 -11,28z"/>
   <path class="fil68" d="M1281 2826l40 123c17,-53 5,-70 32,-106 -17,-226 -22,-76 19,-174 -95,7 -79,59 -91,157z"/>
   <path class="fil69" d="M26636 4838l-8 92 -13 10 -9 140 1 107 31 -9c-5,-85 38,-256 24,-341l-8 -25c0,37 -5,10 -18,26z"/>
   <path class="fil21" d="M26704 2395c-2,99 -19,194 -31,293l71 -117 27 -206c-6,15 -3,17 -7,29 -13,33 1,6 -18,25l-42 -24z"/>
   <path class="fil29" d="M26912 3333c103,-67 38,-39 59,-150 6,-33 2,-56 -2,-89 -4,-30 -3,-24 -4,-54 -1,-68 6,-38 -18,-56l-20 102c20,19 -5,0 23,23l-42 23c4,14 15,36 15,37 1,8 -4,37 -4,60l30 15 -22 44c-1,3 -2,6 -3,8l-12 37z"/>
   <path class="fil53" d="M1244 1150c14,-52 25,-93 37,-142 -33,-7 -5,9 -37,-17 -24,-20 -3,-14 -37,-25l-24 118c-27,25 -11,-16 -21,31 13,11 -27,23 27,14 30,-6 9,5 22,-22 17,26 13,-1 -1,33l34 10z"/>
   <path class="fil70" d="M1672 373c-2,52 -29,133 64,166 -12,-198 18,-50 -31,-217l-39 -11c-3,-1 -7,-4 -11,-6 4,44 -1,33 17,68z"/>
   <path class="fil71" d="M27237 6790l58 -1c41,-33 58,-100 34,-171 -17,-51 -2,-11 -21,-32 -14,64 -21,50 -38,99 -17,48 -31,63 -33,105z"/>
   <path class="fil21" d="M27245 6897c3,-10 6,-21 8,-31 0,0 12,16 -14,-8 -37,-33 15,29 -11,-17l-10 14c-1,0 2,9 -6,-9 -12,15 -24,32 -34,51l67 0z"/>
   <path class="fil72" d="M27475 6423c0,22 20,16 41,18 20,-17 -35,-18 25,-13 -2,-2 -5,-5 -6,-6 -1,-1 -5,-5 -6,-6l50 -34c-4,-68 -34,-50 -21,-95 -8,0 -38,-2 -38,-2 -2,0 -5,0 -7,1 -58,13 -1,89 -38,137z"/>
   <path class="fil73" d="M1456 2426c42,-29 40,-49 46,-101 3,-1 10,-6 12,-7l27 -59c-32,-79 0,-39 4,-97 12,-60 -19,-9 -11,-86 -27,38 -31,127 -37,180 -18,161 -16,-15 -41,170z"/>
   <path class="fil58" d="M1118 5257c66,24 34,6 38,53 4,56 -10,23 32,54 17,-24 14,-16 19,-71 41,-5 22,2 47,-18 -20,-41 -27,-13 -88,-50 -16,-10 2,-8 -31,-15 -22,25 -12,2 -17,47z"/>
   <path class="fil11" d="M26955 3677l-12 9c-10,-7 -18,-4 -26,-13l-8 21 5 12 65 -8c-10,35 -23,33 -23,59 -1,28 5,21 10,30 56,-4 85,-32 68,-78 -1,-2 -3,-5 -3,-7 -1,-2 -3,-5 -4,-8 -6,-17 2,-8 -8,-26 -25,-42 -4,-9 -30,-29l-7 30 -27 8z"/>
   <path class="fil74" d="M26893 3960c8,46 6,35 14,73 18,-19 3,16 24,-26 15,63 2,103 46,156 -3,-65 -11,-83 -12,-155 -1,-39 -14,-111 -28,-133l-26 1c13,27 23,93 8,116 -16,-38 -14,-21 -26,-32z"/>
   <path class="fil25" d="M1720 1822l-8 42c-21,-52 19,-38 -54,-22 13,31 4,10 23,38 10,15 2,2 12,19 47,77 22,60 9,105 24,25 21,18 54,22l-24 -224c-1,-2 -3,-5 -5,-8l-7 28z"/>
   <path class="fil59" d="M1020 6620c3,52 41,112 64,163 30,-39 6,-156 -23,-194 -37,5 -30,-3 -41,31z"/>
   <path class="fil75" d="M27448 6542c6,-54 -1,-16 15,-36 -30,-20 -64,-19 -104,-21l14 107c12,37 10,23 19,33 26,-27 29,-47 56,-83z"/>
   <path class="fil29" d="M26569 3831l2 127c21,5 31,8 36,10l13 -35c1,-1 2,-4 2,-6 22,-66 7,-76 32,-118 -1,-4 -8,-17 -12,-24 -14,19 -4,14 -12,-10 -15,14 -17,14 -19,48 -1,18 5,44 5,67 -15,-4 -20,5 -23,-10 -1,-3 8,-31 12,-54l-36 5z"/>
   <path class="fil76" d="M1308 3464c8,22 -1,4 20,14 22,-33 -5,-15 40,-32l0 -35 -31 -128c-27,11 -15,-1 -25,33 -3,13 -2,40 -2,54 -1,32 -2,61 -2,94z"/>
   <path class="fil24" d="M27128 1507c12,62 -7,72 38,113l14 -12c-14,-19 -7,3 -17,-37 -7,-28 -5,-33 -3,-64 17,-14 -9,-10 22,0l-23 -103 -6 17c-18,-36 2,-13 -37,-34 0,20 -1,41 1,60 3,19 9,33 11,60z"/>
   <path class="fil49" d="M149 5345l36 0c11,-14 -2,-10 23,5l15 -139c-22,-6 2,-8 -24,-2l-31 16 -2 -32c-7,44 -13,95 -17,152z"/>
   <path class="fil59" d="M1136 487c-4,51 -19,83 29,88 -5,-49 7,-43 13,-82 6,-37 -7,-68 -10,-99 -6,-39 13,-19 -17,-38 -30,5 -27,-44 -15,56 4,36 7,42 0,75z"/>
   <path class="fil77" d="M1614 6311l-17 -16c-16,-15 0,-9 -25,-16 3,58 16,6 17,81 3,-2 7,-9 8,-6l13 -13c30,-31 4,-16 36,-28l-8 37c0,3 -1,6 -1,9 -2,16 -2,41 -5,62l19 -12c37,-34 22,-27 16,-70 32,3 12,14 18,-12 7,-27 7,-29 6,-60 -42,7 -52,25 -77,44z"/>
   <path class="fil78" d="M28361 5695c4,48 10,71 16,120 6,36 16,51 18,93l41 13c-4,-25 -3,-58 -9,-78l-19 -38c-1,-3 -2,-7 -3,-9 -52,-127 -19,-30 -12,-107l-32 6z"/>
   <path class="fil79" d="M26976 4480c-2,-21 -1,-48 -4,-66 -1,-11 -2,-15 -7,-27 -12,-32 -8,-15 -14,-26l-7 41c-28,12 -37,0 -82,9l-10 67c25,-14 13,-21 46,-35 14,-5 6,1 21,-8 25,41 1,26 57,45z"/>
   <path class="fil80" d="M932 6710c0,-54 -4,-29 4,-71 7,-33 -5,-35 -12,-73l-34 -6c-38,-5 -16,-6 -22,11l60 175 4 -36z"/>
   <path class="fil81" d="M27719 5105c11,-63 12,-67 -10,-125 -19,-49 -4,-52 -16,-108l-31 -11 11 74c3,10 7,28 9,40 16,75 1,79 24,116 1,2 5,5 6,7 1,1 5,4 7,7z"/>
   <path class="fil82" d="M1577 1957l-7 25c-20,-14 -11,26 -18,-34l-21 90c46,-20 -1,7 22,-14l61 3 36 -59c-39,-21 -22,-2 -36,-32 -6,4 -16,-1 -18,7 -12,40 -6,4 -19,14z"/>
   <path class="fil62" d="M26704 2395l42 24c19,-19 5,8 18,-25 4,-12 1,-14 7,-29l-32 -113c-1,-2 -4,-5 -5,-7l-30 150z"/>
   <path class="fil83" d="M27768 5556c11,-21 6,-7 8,-29 2,-24 7,-32 8,-40l-7 -30c-41,-113 9,-64 5,-109 -3,-35 -17,-32 -44,-36 11,26 -15,21 14,21 -33,81 -6,82 4,154 15,107 -24,-28 7,61 1,2 3,6 5,8z"/>
   <path class="fil84" d="M27744 5312l25 -106c-53,-57 3,-35 -46,-94 -30,73 -12,42 4,83 -8,18 -14,25 -10,54l27 63z"/>
   <path class="fil61" d="M1532 360c29,4 9,4 31,-9 7,-4 23,-14 38,-23l13 -18c-29,-25 -23,-38 -27,-67 -27,-8 3,-9 -42,1 11,53 -4,49 -13,116z"/>
   <path class="fil65" d="M1608 3844c14,-9 25,-18 46,-38 -2,1 -4,2 -4,3 -1,2 -26,11 -40,-82l-51 -13c2,34 6,22 15,61 7,33 10,46 34,69z"/>
   <path class="fil48" d="M792 6555c43,-7 9,-6 68,-43 -14,97 -9,30 8,59 6,-17 -16,-16 22,-11l29 -51 -48 5c-23,-62 -5,-34 -41,-38 -23,18 -24,42 -38,79z"/>
   <path class="fil85" d="M1275 3006l-20 -116 -22 -7 -18 48c-6,21 -11,38 -16,53 47,10 53,4 76,22z"/>
   <path class="fil78" d="M1280 551c30,-45 60,-169 27,-214 -11,45 -45,178 -27,214z"/>
   <path class="fil82" d="M1534 2076c-8,77 23,26 11,86l66 -62 2 -26c-68,5 -19,-8 -85,-22l6 24z"/>
   <polygon class="fil80" points="19736,6897 19736,6896 19699,6897 "/>
   <path class="fil86" d="M26630 3775c8,24 -2,29 12,10l18 -173c-62,33 -39,102 -30,163z"/>
   <path class="fil46" d="M27212 6846c8,18 5,9 6,9l10 -14c26,46 -26,-16 11,17 26,24 14,8 14,8 30,-27 30,-40 42,-77l-58 1c-24,10 -23,34 -25,56z"/>
   <path class="fil87" d="M26921 4234l-15 -189 -21 79c-1,3 -3,14 -3,17 -14,84 37,-1 11,93l28 0z"/>
   <path class="fil62" d="M994 6877c4,4 11,3 12,9 1,3 4,8 6,11l4 0 3 -14c-2,-50 -28,-65 -32,-122l-23 -5c-5,47 1,93 30,121z"/>
   <path class="fil81" d="M166 5193l2 32 31 -16c26,-6 2,-4 24,2l9 -62 -42 29 14 -66 -31 -10c12,26 3,45 -7,91z"/>
   <path class="fil63" d="M1292 4480c-37,-14 -41,5 -29,53 15,-51 -6,-21 28,-43l12 15c24,39 5,24 41,38l-30 -121c-19,22 -21,19 -22,58z"/>
   <path class="fil32" d="M1666 1009c2,-32 2,-32 11,-55 -24,-10 -20,3 -29,-14 -29,35 -18,38 -61,28l15 53 64 -12z"/>
   <path class="fil78" d="M28304 5414c18,15 1,10 28,7 -47,-155 -25,-119 -33,-159 -7,-32 12,-4 -12,-24 -6,13 -7,9 -8,36 -1,19 2,38 5,56 3,21 12,65 20,84z"/>
   <path class="fil88" d="M1647 1382l25 -37c14,46 10,30 27,41 -3,-57 -4,-45 -25,-83l6 -44c-27,9 -21,-3 -33,11 13,78 -2,40 0,112z"/>
   <path class="fil49" d="M1545 244c45,-10 15,-9 42,-1l-8 -116c-9,-23 -12,-18 -26,-33 7,56 6,104 -8,150z"/>
   <path class="fil50" d="M7078 5368c24,10 33,15 64,8 22,-4 12,2 33,-12 21,-14 19,-19 28,-33 -44,2 -73,5 -113,27l-12 10z"/>
   <path class="fil57" d="M26590 3549l3 79c37,-10 21,6 32,-31 3,-7 12,-56 15,-72l-50 24z"/>
   <path class="fil47" d="M26917 3673c8,9 16,6 26,13l12 -9 2 -40c-11,-9 -8,5 4,-24l-42 -10 -2 70z"/>
   <path class="fil52" d="M1518 3925c15,20 -8,9 16,26 18,11 -4,4 33,10 5,-44 1,-11 19,-24l2 -26c-25,-11 -16,-17 -46,-1 -3,2 -15,8 -24,15z"/>
   <path class="fil74" d="M26564 4100c56,-10 14,2 35,-36 5,-9 11,-27 15,-39l-43 -9 -7 84z"/>
   <path class="fil8" d="M27011 4611c14,-8 27,2 28,-37 1,-50 -23,-35 -47,-39l19 76z"/>
   <path class="fil89" d="M1580 2541c57,6 44,-6 58,-20 -9,-38 -7,-27 -36,-46l-22 66z"/>
   <path class="fil81" d="M26708 4227l4 -12c68,0 -1,-9 26,23l25 -102c-23,18 -12,-24 -24,23l-3 -29 -28 97z"/>
   <path class="fil90" d="M27014 4738c0,-26 4,-22 -1,-51 -10,-57 1,-21 -17,-37 -2,2 -5,2 -5,6l-15 71 38 11z"/>
   <path class="fil87" d="M1555 1856c25,-29 30,-41 41,-90l-11 -17c-9,12 -7,3 -16,22 -1,3 -7,23 -7,27 -3,14 -5,42 -7,58z"/>
   <path class="fil64" d="M26827 3234c47,-3 30,17 41,-26 2,-7 3,-52 3,-63l-44 89z"/>
   <path class="fil91" d="M26955 3677l27 -8 7 -30c-5,0 9,1 -6,-12 -1,-1 -6,-4 -7,-5 -3,-2 -7,-5 -10,-6l-5 -3c-12,29 -15,15 -4,24l-2 40z"/>
   <path class="fil47" d="M1121 1205l37 -32c-18,-31 -16,-21 -41,-37l4 69z"/>
   <path class="fil78" d="M1342 3233c28,-34 33,41 15,-49 0,-1 -16,-39 -17,-42 -18,34 2,28 2,91z"/>
   <path class="fil65" d="M1711 5207c32,-1 17,25 25,-7 1,-3 4,-3 9,-6l-16 -22 -40 12 22 23z"/>
   <path class="fil78" d="M28337 5528c-2,-56 0,-31 10,-43l-28 -22c-1,23 -5,18 0,39 11,50 -7,0 18,26z"/>
   <path class="fil92" d="M27433 911l-18 -65c0,0 -16,-4 -7,32 10,34 5,14 25,33z"/>
   <path class="fil81" d="M27448 6542l36 -2c-2,-4 -7,-11 -8,-13 -10,-15 -1,-2 -13,-21 -16,20 -9,-18 -15,36z"/>
   <path class="fil93" d="M27499 2499c-21,-35 -10,-2 -10,-43 -20,25 -22,-32 -17,34l27 9z"/>
   <path class="fil94" d="M17402 6300c-13,-33 4,-10 -28,-25 15,34 -11,19 28,25z"/>
   <path class="fil73" d="M3379 1326c16,-13 40,8 10,-34l-10 34z"/>
   <path class="fil94" d="M4656 3040c30,-8 13,4 23,-23 -49,17 -4,3 -23,23z"/>
   <path class="fil49" d="M4194 1500l25 0c-2,-6 -5,-12 -6,-9l-19 9z"/>
   <line class="fil78" x1="946" y1="501" x2="946" y2= "501" />
  </g>
 </g>
</svg>
