<?xml version="1.0" encoding="UTF-8"?>
<!DOCTYPE svg PUBLIC "-//W3C//DTD SVG 1.1//EN" "http://www.w3.org/Graphics/SVG/1.1/DTD/svg11.dtd">
<!-- Creator: CorelDRAW X8 -->
<svg xmlns="http://www.w3.org/2000/svg" xml:space="preserve" width="207.284mm" height="58.628mm" version="1.1" style="shape-rendering:geometricPrecision; text-rendering:geometricPrecision; image-rendering:optimizeQuality; fill-rule:evenodd; clip-rule:evenodd"
viewBox="0 0 20728 5863"
 xmlns:xlink="http://www.w3.org/1999/xlink">
 <defs>
  <style type="text/css">
   <![CDATA[
    .fil57 {fill:#26191B}
    .fil7 {fill:#281C25}
    .fil5 {fill:#2C2328}
    .fil9 {fill:#33242C}
    .fil10 {fill:#352B33}
    .fil12 {fill:#3B2C34}
    .fil8 {fill:#43333C}
    .fil22 {fill:#443442}
    .fil13 {fill:#453943}
    .fil15 {fill:#4B3B44}
    .fil28 {fill:#4C3C4B}
    .fil19 {fill:#4C4249}
    .fil16 {fill:#533C48}
    .fil55 {fill:#53434C}
    .fil27 {fill:#544453}
    .fil48 {fill:#574648}
    .fil53 {fill:#584751}
    .fil39 {fill:#594956}
    .fil60 {fill:#5C5259}
    .fil52 {fill:#634B58}
    .fil47 {fill:#66565A}
    .fil29 {fill:#675966}
    .fil42 {fill:#6B636A}
    .fil24 {fill:#6F6460}
    .fil74 {fill:#766668}
    .fil33 {fill:#776A75}
    .fil49 {fill:#7B737A}
    .fil91 {fill:#867779}
    .fil73 {fill:#867A85}
    .fil88 {fill:#8D736D}
    .fil83 {fill:#9395A9}
    .fil90 {fill:#968889}
    .fil81 {fill:#9B9399}
    .fil87 {fill:#A69899}
    .fil93 {fill:#A69CA4}
    .fil65 {fill:#AB958B}
    .fil84 {fill:#ABA3A8}
    .fil78 {fill:#B1ACB2}
    .fil92 {fill:#B3B7C7}
    .fil86 {fill:#B7A9A8}
    .fil82 {fill:#B8A599}
    .fil94 {fill:#BBB4B7}
    .fil56 {fill:#C5BCC5}
    .fil85 {fill:#C7B6A9}
    .fil61 {fill:#CBC4C7}
    .fil43 {fill:#CCC2BC}
    .fil25 {fill:#CDB295}
    .fil37 {fill:#CDB7AA}
    .fil41 {fill:#D5CAC7}
    .fil21 {fill:#D8C8B9}
    .fil32 {fill:#D9C8AD}
    .fil50 {fill:#DAD6D9}
    .fil36 {fill:#DCD4D3}
    .fil77 {fill:#DEC291}
    .fil51 {fill:#E2CDB6}
    .fil20 {fill:#E3D4C4}
    .fil45 {fill:#E3DDE3}
    .fil89 {fill:#E5CCA6}
    .fil26 {fill:#E5D9D7}
    .fil46 {fill:#E5DBD2}
    .fil63 {fill:#E6C895}
    .fil66 {fill:#E7D9CA}
    .fil64 {fill:#E7E4E7}
    .fil67 {fill:#EADED3}
    .fil58 {fill:#EBCD9A}
    .fil35 {fill:#EBE5E3}
    .fil79 {fill:#ECD7A9}
    .fil17 {fill:#EDE2C9}
    .fil54 {fill:#EDE4DA}
    .fil62 {fill:#EDEBEB}
    .fil80 {fill:#EEE9E4}
    .fil68 {fill:#F2EDE6}
    .fil75 {fill:#F2EEE9}
    .fil4 {fill:#F3DDB3}
    .fil11 {fill:#F3DDB9}
    .fil31 {fill:#F3EADD}
    .fil69 {fill:#F3F2F3}
    .fil72 {fill:#F4E4BB}
    .fil6 {fill:#F4E4C3}
    .fil44 {fill:#F5F1E4}
    .fil76 {fill:#F5FAF5}
    .fil18 {fill:#F6E8C8}
    .fil30 {fill:#F6EAD4}
    .fil23 {fill:#F6F3DA}
    .fil40 {fill:#F6F5F2}
    .fil71 {fill:#F7F4EF}
    .fil1 {fill:#F9F4EE}
    .fil38 {fill:#F9F7F8}
    .fil59 {fill:#F9F9F5}
    .fil70 {fill:#FAEDCA}
    .fil34 {fill:#FAF6E9}
    .fil14 {fill:#FAFAFA}
    .fil3 {fill:#FBF1CC}
    .fil2 {fill:#FDF9ED}
    .fil0 {fill:#FDFBFD}
   ]]>
  </style>
 </defs>
 <g id="Ebene_x0020_1">
  <metadata id="CorelCorpID_0Corel-Layer"/>
  <g id="mitte.cdr">
   <path class="fil0" d="M1220 -2c6,95 12,216 34,259 3,2 6,4 8,5l29 9c35,142 14,16 22,185 -68,-29 -48,-97 -46,-142l-2 56c14,97 29,98 33,135 9,82 4,145 8,235 2,41 5,84 3,124 -1,28 -6,41 -6,73 1,36 6,175 2,215 23,28 7,68 21,144 11,63 10,159 29,279 8,47 8,90 12,140 15,17 2,-22 15,19l34 -14c87,-22 80,53 81,164 -24,23 -27,20 -33,66 -55,4 -22,7 -65,28 -3,7 -3,9 -6,17 -1,2 -5,18 -7,13 0,-2 -2,4 -3,7l0 174c28,20 40,23 49,55 30,47 33,370 31,380 -12,45 -4,46 -2,111 -14,12 -14,1 -15,25 -20,21 -1,-18 -9,16 -9,38 16,32 -20,58 23,25 20,33 15,124 -18,353 -83,222 -75,385l-28 4c10,104 8,184 8,298l11 851c-1,71 6,137 6,201 -1,50 9,120 9,181 9,59 11,125 0,181 18,17 6,-18 12,33l7 373c3,42 19,69 24,108 10,76 24,163 29,237 2,14 3,28 4,43l17872 7 3 -18c6,-63 0,-132 4,-194l18 -514c6,-61 1,-129 4,-191 -8,-48 -23,-40 -12,-107 -30,-40 12,-71 -28,-138 -5,-96 -22,-231 -6,-322l7 -232 -37 6c-1,-41 7,-48 2,-69 -10,-45 -9,-24 -27,-7 -12,-114 -38,-106 10,-131 -24,-17 -17,3 -25,-38 -3,-16 -14,-17 6,-32 30,-21 16,-4 25,2 4,-31 -16,-26 55,-47l10 -7c-13,-66 14,-246 6,-336l5 -71 0 -49 -1 -108c7,-54 -11,-220 15,-239 -9,-54 11,-489 16,-599 7,-171 39,-382 52,-544l65 -559c24,-183 36,-372 60,-560 7,-20 12,-91 12,-117l33 -308c15,-88 11,-148 9,-240 16,-16 14,-11 24,-20l1 -66 -18397 -7z"/>
   <path class="fil1" d="M19952 433c-20,85 -8,67 5,114 14,47 28,210 34,268 6,70 16,75 -8,127l36 207c8,41 17,170 26,197 7,37 8,70 15,118l82 528c14,99 35,197 37,311l21 336c7,34 14,61 20,93 15,79 23,127 31,197 10,77 37,134 0,144 -21,5 -31,-16 -34,-19 -34,6 -23,6 -48,-11l-33 19c-13,-10 -31,-31 -42,-46 11,-149 -95,-483 -88,-609 -19,-21 -33,-206 -48,-279l-91 -559c-11,-89 -38,-178 -40,-275 -10,-56 -42,-156 -6,-207 -22,-35 -21,-118 -26,-165 -8,-68 -18,-98 -27,-167 -2,-3 -5,-7 -7,-9l-12 -13c-1,-3 -4,-2 -5,-3 -34,25 -15,12 -21,62 -7,34 18,146 19,199 1,89 19,126 16,206l17 87c34,116 30,194 40,324 9,122 18,219 19,352 1,113 -7,22 7,156 7,60 20,100 23,156l15 155c3,10 8,17 10,29 0,1 3,29 3,32 4,22 9,48 13,70 12,86 21,217 38,322 16,100 33,208 48,316l88 584c18,86 35,141 43,251 5,71 23,61 0,100l23 10c9,48 -2,50 12,92 15,49 15,52 7,106l2 6c36,50 -4,31 34,80l-18 90 -5 -1c20,4 30,2 32,31 3,39 -33,-3 -3,93l5 25c-1,7 -4,13 -6,34 -2,19 2,7 -5,25l24 126c1,38 4,48 2,80 -5,61 20,101 18,174l33 -1c-20,20 -16,-3 -21,32 -4,30 -1,3 4,27 1,3 1,5 2,8 9,42 18,45 5,71 36,37 23,66 27,124l20 117c18,41 2,-20 4,40 1,15 19,82 22,138 9,41 20,85 23,137 2,30 4,49 6,65l364 1c-2,-9 -4,-16 -6,-26 -7,-29 -14,-57 -20,-94l-19 -131c-3,-23 -4,-18 -7,-50 -6,-69 -8,-163 -16,-218 -12,-75 -25,-133 -22,-189 -19,-16 -6,-8 -19,-84l-70 -458c-7,-64 -21,-117 -27,-176 -6,-66 -11,-134 -17,-195l-61 -416c-4,-20 -1,-15 -3,-31 -3,-32 -8,-52 -10,-86 -15,-57 -32,-179 -35,-250 -8,-196 -91,-620 -118,-855l-56 -369c-16,-97 -34,-429 -28,-522 -18,-22 -14,16 -14,-20 12,-19 0,-146 -4,-188 -6,-62 -9,-138 -10,-198 -1,-41 1,-71 -2,-90l-42 -271c-13,-64 -15,-124 -25,-186l-23 -169c-20,-116 -29,-252 -55,-357 -8,-37 -13,-30 -16,-82 -2,-36 3,-30 -13,-70 -9,-22 -16,-48 -21,-75l-9 0c0,65 1,126 -7,188 -10,80 -10,164 -6,240z"/>
   <path class="fil2" d="M276 3889c2,67 -17,181 -28,248 -11,65 -19,163 -27,231l-7 53 -11 119 -53 430c-14,98 -57,606 -75,883l366 0 35 -415c2,-383 -14,-516 41,-910 6,-41 13,-91 19,-138 9,-72 12,-100 39,-118l190 -1605c11,-49 19,-114 30,-170 12,-67 19,-115 33,-185 31,-150 44,-352 67,-492 23,-139 60,-462 88,-569 21,-81 8,-77 29,-89 -5,-40 2,-42 9,-83 5,-25 10,-55 14,-84 6,-43 20,-122 14,-168 -8,-9 -36,16 -5,-88 -18,-32 -14,-10 -35,-59 -1,-3 -6,-11 -7,-16 0,-4 -2,-5 -3,-8 -1,4 -5,14 -6,16l-11 18c-3,30 4,50 19,69l-18 95c-9,41 -17,76 -27,120 -11,50 -8,129 -24,181l-97 521c0,-2 -2,5 -3,7 9,90 -32,235 -49,321 -20,97 -37,200 -57,300 -3,63 -26,158 -34,185 -14,132 -27,176 -39,324 -3,35 -55,49 -81,50l-29 140c-6,64 -44,42 -23,112 -41,-1 -34,-21 -32,-77 2,-44 15,-40 -16,-68 22,-51 22,-39 13,-88 -7,-44 -2,-18 6,-45 6,-18 5,-26 9,-47 7,30 2,9 17,23 -2,-67 11,-147 24,-211 7,-29 23,-175 21,-200 2,-50 27,-309 45,-352 5,-57 6,-151 40,-196 -10,-41 38,-213 47,-256l58 -332c9,-85 21,-111 30,-165 11,-59 15,-90 23,-156l-44 -321c-2,-28 -5,-73 -8,-107 -33,60 -88,725 -113,858 -24,127 -37,299 -54,439 -16,140 -37,277 -61,417l-227 1465c-11,82 -10,118 -22,193z"/>
   <path class="fil3" d="M19498 1760l-8 53c18,20 -13,0 22,19 7,72 0,160 2,235l-11 6c-1,0 -3,1 -4,2l7 120c60,61 -31,96 38,127l-12 35c53,17 25,37 26,85l28 -10 22 19 -4 87c17,15 12,-10 13,47 1,26 0,21 3,46 3,28 6,48 1,76 -15,94 33,71 -42,128l-11 107 20 -50c8,27 9,44 17,75l27 49 -14 58c2,2 5,4 7,5 1,1 4,4 5,5 11,11 1,10 5,10 18,17 3,-11 21,25 8,15 1,8 6,22 1,2 2,5 3,7 0,2 2,4 2,6 13,38 -8,62 -50,66 -3,-8 -7,-2 -7,-26 1,-22 10,-20 17,-50l-47 7 17 143c10,19 19,80 20,113 1,61 7,77 9,132l18 54c2,28 11,81 18,114 8,41 8,87 16,130l15 168c6,56 1,41 -5,47 19,38 66,503 73,527 19,59 28,259 59,308 12,-40 2,-36 14,-64 53,12 -1,-26 46,71 -12,44 -1,27 -25,44 46,-3 12,16 43,120 10,34 27,-3 27,120l35 180c1,1 8,27 8,28 1,2 2,4 3,7l14 30c-12,9 -6,-9 -13,34l14 0c27,-40 -14,-104 28,-116 2,0 4,-1 5,-1 0,0 22,2 28,2 -10,39 12,24 15,81l-36 29c1,1 3,4 4,5 1,1 3,3 4,5 -43,-4 -4,-3 -18,11 15,16 44,115 52,146 21,81 16,133 18,206 1,27 -7,18 6,25 61,1 -21,-7 22,-1 18,3 36,2 54,11l167 0c-16,-105 -28,-194 -28,-214 -19,0 -39,-186 -43,-209l-96 -631c-5,-42 -16,-68 -20,-107l-30 -276c-11,-108 -50,-418 -49,-481 -17,-15 -24,-138 -26,-174l-28 -146c0,-30 -4,-55 -7,-88 -2,-38 1,-43 -18,-65 2,16 1,20 0,23 -10,-53 2,-37 -27,-45 2,-72 4,-111 -30,-149l10 -57 -50 5c-22,-53 -18,-17 -40,-56 -21,-36 11,-30 22,-37 3,-69 -11,-40 -13,-53 0,-4 -3,-4 -4,-6 5,-29 2,-21 16,-40l-17 -31 36 -26c-24,-21 -20,-7 -40,-20 12,-27 8,-28 38,-7 -5,-60 -11,-53 -18,-89 -6,-26 -2,-42 -8,-79 -20,-117 4,-172 -30,-197 15,-60 5,-67 2,-129l17 -8c-25,-114 -49,-316 -58,-426l-4 -269c-1,-79 -21,-155 -18,-272 2,-46 -14,-73 -11,-121 -32,-35 -18,-43 -27,-96 -21,-32 -11,36 -18,-35 -53,-3 -11,15 -46,-19l-38 -33c-1,-3 -5,-2 -8,-3 -8,32 1,30 -5,62l-40 197c-11,51 -3,84 -11,137 -7,54 -19,80 -20,135l-52 35z"/>
   <path class="fil4" d="M1016 2950l16 -1c-6,42 -5,29 5,50 21,46 18,35 38,49l-34 20 7 58c-19,15 -23,12 -41,25l8 5c6,34 -2,33 -6,62l-16 -4c-15,116 -5,209 -21,313l-71 577c-5,57 0,119 -9,169 -9,51 -21,94 -16,148 24,6 11,4 22,13 45,31 50,8 65,42 -19,17 -5,11 -35,15 -4,47 -1,40 -14,61 -30,-27 -20,1 -23,-46 -3,-40 20,-25 -27,-45l-12 286 69 71c-13,12 -7,-1 -7,40l-30 8c2,3 5,2 5,5 1,2 4,2 5,3l19 33c-7,5 -6,8 -23,13 -4,1 -21,3 -28,5 21,46 33,-1 18,69 -40,1 -36,-7 -24,-39l-19 10c-13,28 -20,222 -21,265 -3,91 -24,176 -35,254 -8,63 -18,105 11,134 8,-29 3,-22 30,-27 21,33 38,132 16,166l23 64 16 -38c37,24 37,41 45,70l486 0c0,-6 0,-12 0,-16 -2,-25 -7,-51 -7,-96l-6 -3c-7,-2 -22,-2 -30,-9l-39 8c12,-52 -17,-16 28,-47 -6,-5 -3,-2 -15,-8l-13 -7c-1,-1 -4,-3 -6,-5 2,-1 5,-6 6,-4l21 -15c-16,-25 -7,-102 -4,-118 8,-31 -6,-7 15,-26 -5,-76 -11,-108 -6,-183 3,-52 -3,-127 -9,-193 -4,-39 -9,-157 -15,-184 -6,-27 -24,-36 -22,-79 2,-43 17,-39 26,-76 -20,-22 -19,-110 -17,-148l-6 -51 -19 1c-2,-11 -3,-24 -7,-32 -1,-2 1,-9 -23,-17l-3 -46c-2,-1 -4,-3 -6,-4l-27 -58c2,-1 5,-4 7,-5l29 -14c-7,-25 -7,-6 -12,-32 -7,-33 3,-18 3,-18l-41 -12c22,-54 3,-8 29,-40 6,-8 10,-20 10,-25 0,0 -6,-30 -7,-32l-11 -39c-19,10 -14,9 -41,-5 -35,37 -6,42 -42,26 -8,-20 -1,-24 1,-56l44 -19c-4,-37 -15,-54 -3,-81l-21 -24 38 -1 16 39c2,-3 4,-6 4,-8 26,-84 26,-33 27,-82 -55,-7 -44,6 -59,11 2,-2 3,27 4,-7 1,-29 -30,-33 -6,-64l40 -50c-9,-12 -5,-6 -13,-16l-11 -3c-10,5 -24,7 -35,20 -18,18 -12,10 -16,40 -3,-1 -5,-3 -7,-4 -1,-1 -4,-3 -6,-4 -2,-1 -9,-7 -11,-8 -4,-3 -14,-6 -16,-6 -13,-3 -28,-2 -31,-1l34 -8 -1 -39c-14,-10 -2,-6 -20,-10 -2,0 -12,4 -15,5 -4,-65 10,6 32,-65 15,7 13,5 20,18 10,-31 18,-45 38,-54 -2,-2 -4,-4 -6,-5l-11 -7c-19,-13 0,3 -14,-9 4,-27 13,-36 -8,-54l19 -32c-2,-1 -5,-1 -6,-2 -15,-4 -8,19 -13,0 -1,-1 -2,0 -3,0 10,-21 -3,-2 10,-15 1,-1 9,-4 10,-8 1,-3 4,-2 6,-3 21,8 20,34 35,3 10,-20 9,-62 -12,-70 -1,0 -4,-1 -4,-1 -3,-1 -6,10 -9,-2 -1,-3 -11,6 -14,-38l-45 -7c-1,-1 -6,-6 -7,-7l-11 -7c0,-1 -2,-1 -4,-2l6 -23c104,37 8,3 63,32l6 -90 44 -15 25 28c-7,-61 -23,-44 -29,-90 -13,11 -10,-17 -13,21l0 39c-33,1 -30,-4 -41,19 -9,19 -10,29 -14,45 -2,-3 -5,-6 -7,-7l-25 -7c-19,0 -10,2 -20,-20 2,-2 4,-4 5,-4 47,-30 25,8 52,-52 -9,-22 -5,-10 -11,-20 -39,-70 -12,-113 -12,-113 0,-3 2,-4 3,-5 -23,-33 1,-24 -37,-30 13,-14 -13,-6 25,-16l-7 -36c17,-24 5,24 14,-12 1,-5 6,-3 8,-6 -3,-38 -25,-82 -36,-127l-38 -110c-1,-3 -3,-4 -4,-5l1 29c-33,15 -13,-1 -30,27z"/>
   <path class="fil5" d="M877 -2c2,21 3,40 7,65 10,7 18,12 31,21l-13 188c-2,52 20,6 -1,60 2,27 12,53 7,84 -4,33 -13,29 -10,70 -3,103 -7,70 -16,87 -21,-29 -17,-22 -17,-67 6,39 -4,25 1,59 5,31 12,25 -13,46 21,25 23,16 7,89 -8,53 2,71 3,127 1,25 4,47 5,69 0,28 -4,36 -4,66 18,14 16,5 30,32l-28 27c-8,-14 -6,-6 -12,-26 -1,-3 -3,-13 -3,-16 -4,-14 -6,-26 -9,-37 -20,13 -12,-18 -18,19 -3,-16 12,-2 -19,-16 -8,66 -12,97 -23,156 -9,54 -21,80 -30,165l-58 332c21,8 22,8 42,-3 -3,48 -11,29 -16,78 -5,48 -6,33 -14,65l-25 99c-4,16 -6,26 -9,41 -1,44 -2,37 -10,75 -6,25 -11,55 -14,85l-13 145c3,100 -23,12 -19,153l-1 132c-1,7 -4,27 -5,30 -11,34 -5,19 -30,41l-5 -163c4,53 2,4 -13,26 2,25 -14,171 -21,200 -13,64 -26,144 -24,211 -4,34 -3,55 8,75 27,-11 16,-13 47,-25 26,-1 78,-15 81,-50 12,-148 25,-192 39,-324l-15 -18c-1,18 -9,51 -16,79 -9,34 -6,63 -14,97 -25,-24 -37,3 -3,-155 11,-54 8,-24 24,-64 13,-33 9,-38 8,-61 11,16 0,6 23,9l3 -62 24 -10c20,-100 37,-203 57,-300 17,-86 58,-231 49,-321 -11,-62 -3,-171 10,-224 3,-12 15,-45 17,-54 0,0 1,-26 3,-35 14,-68 32,-168 32,-241l11 34 27 -8c16,-52 13,-131 24,-181l-25 -8c10,-29 13,-7 1,-29 -10,24 6,14 -16,19 -39,8 -10,-2 -20,-11 8,-41 -4,-6 16,-27l17 -100c25,9 10,4 27,21 23,23 3,9 27,15l18 -95c-15,-19 -22,-39 -19,-69 0,-49 42,-299 56,-326l22 -26c-9,-85 36,-210 38,-225 5,-33 3,-65 20,-115l-241 0zm280 0c-11,42 -11,91 -17,143l-53 470c-13,136 -23,136 -38,216 6,46 -8,125 -14,168 -4,29 -9,59 -14,84 -7,41 -14,43 -9,83l4 18 7 0c5,-53 33,-156 43,-227 10,-119 36,-216 53,-336 9,-59 -4,-125 16,-177 40,-105 18,-19 30,-137 7,-57 17,-53 9,-98 10,-39 11,-80 6,-127 11,12 13,8 19,28l6 98c3,24 -1,36 20,57l-10 16c18,97 -18,21 30,204 4,15 4,27 7,48l18 279c-6,20 -6,19 -8,46l2 13c-2,3 -7,29 -7,29 1,45 -8,-8 -3,50l2 28 23 19c-7,34 3,54 -7,74l-4 38c15,31 16,22 18,70 -13,-60 3,-18 22,-34l-3 11c4,-40 -1,-179 -2,-215 0,-32 5,-45 6,-73 2,-40 -1,-83 -3,-124 -4,-90 1,-153 -8,-235 -4,-37 -19,-38 -33,-135l2 -56c-13,-29 -10,-19 -13,-57 -22,-43 -28,-164 -34,-259l-63 0z"/>
   <path class="fil6" d="M19464 3921c-6,26 -8,58 -10,84 -2,32 5,2 -2,33 -8,35 -7,21 -14,30 9,77 -10,234 -17,325 -8,100 -26,213 -34,316 27,1 16,80 9,102 -11,37 -8,39 -13,83l-3 51c29,-1 31,1 51,18l-7 51c-1,2 -3,5 -4,7 14,16 18,31 26,49 -18,29 -11,-1 -19,45 -11,66 18,-8 -7,178 -40,-27 -27,-9 -16,-50 -18,8 -14,5 -29,13 0,31 -7,82 -9,117 -3,50 -4,99 -4,147 0,55 -7,199 -1,225 2,2 5,2 6,6l28 64c5,19 6,33 6,45l302 0c-2,-3 -2,-3 -7,-17l30 -29 -28 -20c6,-79 15,-108 60,-156l-7 -49 -34 10c0,-43 14,-71 4,-113 -6,-24 -9,17 -6,-40 2,-36 5,-19 -5,-53 10,-19 10,-14 18,-39 -29,-68 4,-64 19,-129 -53,22 -15,19 -59,35l3 -64c31,14 34,38 38,-34 -64,-35 -54,-15 -64,-17 -33,-6 -6,2 -19,-16 22,-14 6,-9 47,-8l16 -31c19,14 9,12 31,17 -2,-62 8,-36 12,-61 8,-45 -13,18 -1,-25 8,-29 7,-14 26,-20 -3,47 -5,49 16,69 -6,-81 -26,-150 -39,-246 -5,-40 -10,-94 -18,-118 -12,-31 -15,-88 -22,-123 -7,-33 -2,-1 -6,-32 -1,-8 -2,-24 -3,-31l-23 -202c-3,-32 -9,-26 -13,-60l-8 -39c-5,-35 -12,-75 1,-105l-19 -12 9 -75 -27 -9 10 -61c1,-3 3,-3 4,-5 0,-41 -10,-121 -14,-144 -41,-16 -23,-3 -41,-39 -11,8 -6,3 -15,8 -25,11 -16,18 -34,30l7 -58c33,-7 39,3 59,-7l6 -35 3 -16 -1 -7c-22,16 -11,-25 -21,34 -11,-9 6,-14 -22,-2 0,0 -28,18 -28,19 -31,27 -5,29 -48,41l-26 145z"/>
   <path class="fil7" d="M19617 5l-1 66c-10,9 -8,4 -24,20 2,92 6,152 -9,240 9,8 10,-1 18,13l2 88c-4,-34 -1,-3 14,-18 5,-32 0,-15 16,-33 19,14 14,-16 21,16 15,-77 18,-35 -8,-130l32 0c2,-26 5,-34 12,-57 8,191 18,152 39,271 4,22 8,50 10,65l29 209c9,69 19,99 27,167 5,47 4,130 26,165l18 4c0,-2 0,-5 0,-7 1,-55 -8,-22 2,-38l19 -26c-8,-22 -11,-91 -41,-49l21 -44 -4 -171c1,-111 41,-463 21,-570 -8,-39 -5,-53 5,-92 -37,14 2,7 -49,16 1,-18 0,-66 3,-105l-199 0z"/>
   <path class="fil4" d="M771 2803c-17,52 -13,100 -24,150 24,30 6,44 1,125 -10,165 -50,474 -71,649 -38,307 -51,559 -66,868 0,15 2,38 -2,67 -4,32 -9,24 -11,50 -3,51 -22,240 -36,290 -7,24 -7,18 -20,32 1,26 -3,57 -7,85 -4,29 -2,45 -5,79l37 -5c18,41 3,4 6,56l15 8c17,11 2,-2 16,12 -9,45 -22,57 -21,85 2,62 -4,8 -15,81l32 24c-15,0 -12,-7 -27,4 32,39 39,32 43,35 -20,29 -17,49 -12,116 28,2 15,3 28,-3l-5 -49c10,-31 11,-51 28,-66 26,3 13,-21 29,32l35 -4c24,-43 21,16 34,-46 -11,-53 40,-212 29,-288 -32,4 -2,1 -9,-38 -43,-226 13,-332 21,-432 4,-49 -4,-42 29,-50 9,-63 9,-147 14,-204 7,-76 24,-164 26,-224 3,-81 5,-162 15,-241l21 -167c1,-12 4,-25 5,-42 -10,13 -24,-22 -11,25 -54,-121 19,-269 13,-391l27 -147c14,-47 4,-13 17,-32l6 -62c4,-81 14,-164 8,-244 -4,-55 3,-70 8,-120 3,-35 -8,-89 13,-104 -5,-44 8,-81 18,-121 -28,2 -44,-7 -55,-11 -23,-9 -27,-9 -50,-20 -16,23 -12,27 -37,29 -23,2 -14,6 -27,-16 -5,49 -18,91 -25,141l-25 99c-14,29 -7,13 -16,25l3 -40z"/>
   <path class="fil8" d="M19345 3018c-26,19 -8,185 -15,239l26 -4c-3,19 -9,43 -9,45 3,13 6,6 17,9 0,-19 -5,-42 -4,-57 2,-29 3,-28 14,-40 -7,-52 -23,-111 22,-139l-13 147c3,6 8,17 9,20 -19,36 -8,45 -24,101 0,1 -1,3 -1,5l-10 29c-3,-1 -11,-4 -26,-8l0 49 31 8c-2,10 -7,25 -11,33 -15,32 16,22 -25,30 8,90 -19,270 -6,336l7 22c7,-32 -3,-10 12,-28 1,-2 8,-6 10,-8 2,-1 10,-8 12,-9 12,-52 10,-138 21,-225l23 -160c7,-39 9,-35 25,-52 -8,86 -41,384 -56,427l17 16 18 -6 22 -205 20 -82c-3,-78 18,-192 33,-271 8,-46 22,-94 24,-136 1,-57 -1,-85 17,-135 3,36 -5,103 -8,145l-46 402 -19 87c2,35 9,30 1,68 -7,39 -6,39 -9,83l-5 5 7 20c0,2 4,14 4,17 2,-2 4,-10 5,-8 2,4 2,-15 23,-30l68 -581c7,49 6,65 9,112 3,60 12,14 -3,71l13 7c9,9 7,-5 19,27 11,-19 3,-76 -6,-98l19 -2 -17 -143 -4 -10c-5,-18 -8,-29 -15,-49 -8,-21 -8,-8 -5,-40 3,-37 5,-69 12,-110l11 -107 8 -32c1,-2 2,-5 3,-7l15 -37 -21 -13c0,-20 3,-44 3,-51 -1,-1 -8,-19 -11,-31l30 -20c-20,-19 -2,-3 -16,-19l14 -87 4 -87 -22 -19 -28 10c-50,21 -18,-15 -74,-5 8,-45 8,-85 13,-129l9 -113 -7 -120c1,-1 3,-2 4,-2l11 -6c-2,-75 5,-163 -2,-235 -35,-19 -4,1 -22,-19l8 -53c-4,-61 13,-155 14,-231l62 -695c-10,-42 -9,-33 2,-68 -55,-16 17,11 -38,-10 -24,188 -36,377 -60,560l-65 559c-13,162 -45,373 -53,544 -4,110 -24,545 -15,599z"/>
   <path class="fil9" d="M19840 927l-21 44c30,-42 33,27 41,49l-19 26c-10,16 -1,-17 -2,38 0,2 0,5 0,7l-18 -4c-36,51 -4,151 6,207l11 0c14,46 8,41 14,78 0,3 0,6 1,8 0,3 1,5 2,7 23,99 15,101 45,114l-15 47c17,22 7,18 26,32 -30,72 -7,25 8,100 8,39 -3,26 7,55 8,22 13,33 17,60l34 179c10,40 27,79 21,116 0,35 -9,7 7,37 -14,58 -10,-3 -2,36 10,44 6,133 11,177 2,25 14,57 -8,67 -7,126 99,460 88,609 11,15 29,36 42,46l33 -19c25,17 14,17 48,11 16,-11 17,2 4,-24l-47 -57c46,-47 -67,-91 -5,-138l7 43c34,-20 23,16 35,47 0,0 18,-6 10,-56 -4,-28 -9,-17 -30,-31l5 -125c-40,-20 1,25 -15,-9l-7 -113 -19 3c26,-12 5,-4 18,-20 -28,-15 -15,-4 -35,-27l11 -35c-19,-57 -24,-57 0,-93l-16 -52c-6,-23 -14,-55 -21,-85l7 -58c19,-22 -5,-9 27,-12l0 -31 -25 -16c14,-25 23,-52 13,-95 -5,-25 -15,-65 -21,-77l-21 0c-7,-36 -23,-58 -21,-101 2,-39 16,7 0,-42 -13,-41 -33,-46 -23,-131 9,-75 -3,-54 -11,-94 16,-16 -2,-4 23,-16l-18 3 1 -55 -27 2c4,-75 12,-48 19,-89 0,-3 2,-32 2,-34 -2,2 -4,6 -5,8l-6 -69c15,-52 2,-5 19,-29 -9,-27 -18,-156 -26,-197l-36 -207c24,-52 14,-57 8,-127 -6,-58 -20,-221 -34,-268 -13,-47 -25,-29 -5,-114 -20,-6 -14,-3 -24,-14 -1,-29 -5,-24 -7,-73 -1,-8 0,-69 -3,-69 -8,17 -19,398 -37,479 22,35 21,13 25,59l-13 8c-17,12 -23,11 -24,51 0,41 9,65 -29,53z"/>
   <path class="fil10" d="M19340 4943c-3,62 2,130 -4,191l-18 514c-4,62 2,131 -4,194l-3 18 42 0c3,-38 2,-94 8,-115 -6,-26 1,-170 1,-225 0,-48 1,-97 4,-147 2,-35 9,-86 9,-117 -1,-48 5,-113 4,-154 0,-24 -3,-51 -2,-81 1,-38 4,-39 3,-76l3 -51c-21,18 -17,-21 -17,17 -19,-9 -2,-4 -26,32z"/>
   <path class="fil11" d="M20168 5860c-18,-9 -36,-8 -54,-11 -43,-6 39,2 -22,1l1 10 75 0z"/>
   <path class="fil12" d="M1286 1175c-6,119 18,231 21,346 1,2 2,5 3,7l17 190c3,65 11,109 13,166l-24 1167c9,-124 -5,-360 -9,-492l-13 -186c-3,-105 17,-65 -20,-79l-5 189c1,9 0,21 -2,28 -6,19 -4,9 -11,20l23 136c11,99 8,301 0,396 -6,-43 -8,-63 -25,-90 -37,-61 -1,-4 -25,-78l-54 -191c-10,-36 -19,-59 -29,-93 -35,-127 -54,-149 -61,-243 -5,-57 -19,38 -2,-145l-27 -7c-56,7 -26,14 -83,-4l-21 58c-16,38 -18,20 -10,31l-3 43 -6 10c-4,43 -12,60 -23,103 -11,45 -22,36 -30,84l18 24c23,11 27,11 50,20 11,4 27,13 55,11 -10,40 -23,77 -18,121 -5,44 -14,16 9,41 14,16 -8,-9 17,13 44,39 -28,-37 12,14l22 109c1,1 3,2 4,5l38 110c11,45 33,89 36,127 8,36 10,72 16,100 6,34 6,6 10,48 3,38 -7,14 5,46 7,-6 15,-11 17,-12 22,-14 16,-9 34,0l-2 22c6,46 22,29 29,90 24,37 -10,43 50,74l11 -16c-9,-79 -21,-63 -38,-125 -10,-38 2,-28 -16,-58 -13,-21 -13,-13 -20,-44 -17,-19 -19,-30 -24,-58 -7,-33 -10,-23 -11,-52l37 11c2,-63 -28,-93 -41,-144 -15,-55 -31,-87 -41,-140 -22,-27 -28,-59 -33,-105 -20,-22 -27,-58 -37,-91 -10,-28 -8,-22 -16,-51 -9,-38 2,-12 -15,-33l-23 -77c-3,1 -7,3 -9,5l-28 24c-17,-15 -21,-10 -55,-19 3,-13 7,-27 11,-45l14 -41 -5 -23c3,-1 6,-1 8,-1 2,-1 5,-1 7,-2 2,-1 5,-2 7,-3 17,-10 3,2 17,-19 9,-84 -2,-128 66,-134 -29,84 -26,-43 -14,148 35,18 22,12 26,42 3,54 40,114 42,177 22,23 11,13 22,55 12,45 37,83 45,155 21,22 19,57 31,89l76 245 31 304c-1,40 -2,83 0,123l9 592c-1,33 0,81 2,104 2,49 -9,42 -11,91l11 19c-3,3 -5,3 -6,6 -6,27 5,5 -18,6 -3,56 19,98 15,174l6 51c14,-8 2,0 17,-11l-4 -117 20 -20 -11 -851c0,-114 2,-194 -8,-298l20 -71c-21,-71 -34,-99 -31,-189 12,12 18,19 42,26 2,-30 6,-50 20,-74 -26,-70 -16,-365 6,-411l-18 -6c7,-16 2,16 8,-24l3 -80c1,-35 -3,-74 -3,-106 0,-68 5,-151 7,-223l0 -174 -16 -300c-4,-50 -4,-93 -12,-140 -19,-120 -18,-216 -29,-279 -14,-76 2,-116 -21,-144l3 -11c-19,16 -35,-26 -22,34z"/>
   <path class="fil13" d="M19902 5461l-34 1c10,14 1,5 3,28l-3 44c-29,26 -51,109 -73,176l-59 150 35 0c7,-16 16,-31 25,-43 1,-19 0,-40 18,-47 1,-36 12,-49 24,-90 12,-41 17,-29 27,-84 14,18 3,-16 16,27 17,61 4,117 -25,145 -9,31 -9,43 -31,66 -1,8 -3,17 -6,26l39 0c13,-33 28,-63 44,-84l12 84 37 0c-7,-57 -23,-111 -13,-173 10,-28 51,-66 59,-95 24,38 43,85 44,144l-2 124 54 0 -1 -10c-13,-7 -5,2 -6,-25 -2,-73 3,-125 -18,-206 -8,-31 -37,-130 -52,-146 -15,-2 -30,3 -30,-16l-14 0 -70 4z"/>
   <path class="fil4" d="M1066 953c-10,71 -38,174 -43,227 -8,43 -18,83 -26,117 -8,33 -16,92 -19,111 -9,58 -32,190 -28,237 8,61 -14,40 -4,112 3,15 8,31 7,50 -1,51 -8,2 -9,47 -1,27 17,69 -21,176 -18,50 -16,133 -29,180 -10,34 -46,157 -15,170 0,0 12,2 19,5 1,-2 2,-9 3,-8l16 -47c8,9 5,7 22,14l3 -43c-8,-11 -6,7 10,-31l21 -58c57,18 27,11 83,4 7,-228 28,-182 62,-359l20 -170c8,-61 17,-131 15,-199 0,-29 14,-76 14,-103 -2,-54 -8,9 -11,-39 0,-5 5,-15 4,-40 -4,-67 1,-185 6,-253l25 -11 0 -87c-7,1 -2,11 18,-10 -14,-13 -5,-4 -14,-18 -20,-30 6,-19 -41,-21 -32,-3 -55,-3 -64,-28l-24 75z"/>
   <path class="fil14" d="M762 -2c1,17 2,35 3,57 27,433 8,399 77,887 3,11 5,23 9,37 0,3 2,13 3,16 6,20 4,12 12,26l-2 -59c0,-30 4,-38 4,-66 -1,-22 -4,-44 -5,-69 -1,-56 -11,-74 -3,-127 -19,-32 -11,-90 -14,-146 -3,-35 -6,-67 -10,-114 -8,-93 -8,-194 -9,-288 0,-50 -1,-102 -3,-154l-62 0z"/>
   <path class="fil15" d="M730 -2l14 311 -34 13c4,73 -29,476 -46,574 -43,239 -86,805 -112,917 -15,62 -5,48 -8,110 -6,110 -119,781 -136,866l-91 662c-15,126 -61,293 -65,452l24 -14c12,-75 11,-111 22,-193l227 -1465c24,-140 45,-277 61,-417 17,-140 30,-312 54,-439 25,-133 80,-798 113,-858 3,34 6,79 8,107l44 321c31,14 16,0 19,16 6,-37 -2,-6 18,-19 -69,-488 -50,-454 -77,-887 -1,-22 -2,-40 -3,-57l-32 0z"/>
   <path class="fil16" d="M575 4272l-22 312c-11,217 -59,634 -62,800 -1,64 -9,45 -15,54l-35 415 28 0c2,-39 5,-79 8,-115 17,-166 54,-388 53,-540 3,-34 1,-50 5,-79 4,-28 8,-59 7,-85 14,-94 14,-188 23,-281l37 -501c16,-219 75,-625 79,-793 4,-166 61,-389 66,-506 11,-50 7,-98 24,-150l136 -870c6,-43 22,-253 43,-288 -4,-47 19,-179 28,-237 3,-19 11,-78 19,-111 8,-34 18,-74 26,-117l-7 0 -4 -18c-21,12 -8,8 -29,89 -28,107 -65,430 -88,569 -23,140 -36,342 -67,492 -14,70 -21,118 -33,185 -11,56 -19,121 -30,170l-190 1605z"/>
   <path class="fil14" d="M19873 5l-2 66c-1,30 3,103 -14,115 20,107 -20,459 -21,570l4 171c38,12 29,-12 29,-53 1,-40 7,-39 24,-51l13 -8c-4,-46 -3,-24 -25,-59 18,-81 29,-462 37,-479 -2,-64 5,-149 10,-216 1,-18 2,-37 3,-56l-58 0z"/>
   <path class="fil17" d="M1309 4593c4,-76 -18,-118 -15,-174l-16 -20 29 -11c2,-49 13,-42 11,-91 -2,-23 -3,-71 -2,-104l-9 -592 -10 -24 4 -79 -8 -10 -11 16c-60,-31 -26,-37 -50,-74l-25 -28 -44 15 -6 90c-55,-29 41,5 -63,-32l-6 23c2,1 4,1 4,2l11 7c1,1 6,6 7,7l45 7c3,44 13,35 14,38 3,12 6,1 9,2 0,0 3,1 4,1 21,8 22,50 12,70 -15,31 -14,5 -35,-3 -2,1 -5,0 -6,3 -1,4 -9,7 -10,8 -13,13 0,-6 -10,15 1,0 2,-1 3,0 5,19 -2,-4 13,0 1,1 4,1 6,2l-19 32c21,18 12,27 8,54 14,12 -5,-4 14,9l11 7c2,1 4,3 6,5 -20,9 -28,23 -38,54 -7,-13 -5,-11 -20,-18 -22,71 -36,0 -32,65 3,-1 13,-5 15,-5 18,4 6,0 20,10l1 39 -34 8c3,-1 18,-2 31,1 2,0 12,3 16,6 2,1 9,7 11,8 2,1 5,3 6,4 2,1 4,3 7,4 4,-30 -2,-22 16,-40 11,-13 25,-15 35,-20l11 3c8,10 4,4 13,16l-40 50c-24,31 7,35 6,64 -1,34 -2,5 -4,7 15,-5 4,-18 59,-11 -1,49 -1,-2 -27,82 0,2 -2,5 -4,8l-16 -39 -38 1 21 24c-12,27 -1,44 3,81l-44 19c-2,32 -9,36 -1,56 36,16 7,11 42,-26 27,14 22,15 41,5l11 39c1,2 7,32 7,32 0,5 -4,17 -10,25 -26,32 -7,-14 -29,40l41 12c0,0 -10,-15 -3,18 5,26 5,7 12,32l-29 14c-2,1 -5,4 -7,5l27 58c2,1 4,3 6,4l3 46c24,8 22,15 23,17 4,8 5,21 7,32l19 -1z"/>
   <path class="fil18" d="M530 5198c1,152 -36,374 -53,540 -3,36 -6,76 -8,115l59 0c-2,-4 -5,-10 -9,-17 29,-12 22,-6 36,-30l6 -11c34,-56 1,-47 19,-86 9,-21 10,-9 21,-47 7,49 -3,11 22,27 -1,-45 7,-48 9,-78 -13,6 0,5 -28,3 -5,-67 -8,-87 12,-116 -4,-3 -11,4 -43,-35 15,-11 12,-4 27,-4l-32 -24c11,-73 17,-19 15,-81 -1,-28 12,-40 21,-85 -14,-14 1,-1 -16,-12l-15 -8c-3,-52 12,-15 -6,-56l-37 5z"/>
   <path class="fil19" d="M75 5853c18,-277 61,-785 75,-883 -13,-40 -7,-23 -9,-54 -2,-23 25,-26 -7,-26 -30,77 -64,752 -76,886l-4 77 21 0z"/>
   <path class="fil20" d="M19617 414c-6,76 -15,151 -22,225l-14 147c-2,27 10,48 -7,48l-62 695c-1,76 -18,170 -14,231l52 -35c1,-55 13,-81 20,-135 8,-53 0,-86 11,-137l40 -197c6,-32 -3,-30 5,-62 3,1 7,0 8,3l38 33c35,34 -7,16 46,19 7,71 -3,3 18,35 -2,-22 -6,-35 -8,-51 -2,-16 -1,-34 -1,-51 -24,-45 -48,-308 -62,-393l-16 -206c-20,-104 -25,-87 -16,-202 -16,18 -11,1 -16,33z"/>
   <path class="fil11" d="M1222 1780l-48 53c-3,50 -26,16 -3,83l-20 50c-1,1 -6,5 -8,6 -4,44 -3,60 -34,85 -20,47 -19,85 -24,140l6 0c30,131 8,81 16,157l12 -55c13,18 6,-2 14,25 0,0 3,22 4,25l36 1c3,32 7,37 15,62l-19 30c22,27 5,18 31,34 56,37 -12,-13 17,11 -11,53 -3,24 -31,37l43 10c-1,58 6,72 1,117 17,-10 -1,-9 34,-9 3,18 7,15 15,25l-23 -136c7,-11 5,-1 11,-20 2,-7 3,-19 2,-28l5 -189c23,-22 -33,-19 35,-18 -5,-8 -8,-13 -16,-22 -46,-51 4,-12 -21,-125 6,-9 13,-18 22,-30 -38,-35 -4,-36 -22,-137 40,-65 6,-51 45,-58 -35,-20 -11,2 -28,-28l-17 -41c2,-1 5,-3 6,-4l19 -15c1,-4 4,-4 7,-6 -19,-6 -10,-3 -23,-12 -2,-2 -13,-10 -15,-12 -27,-22 -9,3 -22,-34 -13,43 -7,17 -22,28z"/>
   <path class="fil21" d="M19401 5860c0,-12 -1,-26 -6,-45l-28 -64c-1,-4 -4,-4 -6,-6 -6,21 -5,77 -8,115l48 0z"/>
   <path class="fil22" d="M19763 1380c-3,48 13,75 11,121 -3,117 17,193 18,272l4 269c9,110 33,312 58,426l122 861c9,47 20,89 14,140 19,22 16,27 18,65 3,33 7,58 7,88l28 146c22,13 16,-15 17,20 25,-5 -1,8 19,-8l-88 -584c-15,-108 -32,-216 -48,-316 -17,-105 -26,-236 -38,-322 -4,-22 -9,-48 -13,-70 0,-3 -3,-31 -3,-32 -2,-12 -7,-19 -10,-29l-15 -155c-3,-56 -16,-96 -23,-156 -14,-134 -6,-43 -7,-156 -1,-133 -10,-230 -19,-352 -10,-130 -6,-208 -40,-324 -22,-8 -4,-11 -16,0 -2,26 -3,31 2,54 7,34 3,16 12,32l-10 10z"/>
   <path class="fil23" d="M19736 5860l59 -150c22,-67 44,-150 73,-176l3 -44c-28,-20 0,-19 -20,-96 -22,-86 -6,-45 -15,-92 -10,-56 -26,-132 -29,-188l-14 -44c-21,-20 -19,-22 -16,-69 -19,6 -18,-9 -26,20 -12,43 9,-20 1,25 -4,25 -14,-1 -12,61 -22,-5 -12,-3 -31,-17l-16 31c-41,-1 -25,-6 -47,8 13,18 -14,10 19,16 10,2 0,-18 64,17 -4,72 -7,48 -38,34l-3 64c44,-16 6,-13 59,-35 -15,65 -48,61 -19,129 -8,25 -8,20 -18,39 10,34 7,17 5,53 -3,57 0,16 6,40 10,42 -4,70 -4,113l34 -10 7 49c-45,48 -54,77 -60,156l28 20 -30 29c5,14 5,14 7,17l33 0z"/>
   <path class="fil24" d="M20307 5646l4 -18c11,33 -5,6 29,30 -3,-56 -21,-123 -22,-138 -2,-60 14,1 -4,-40l-20 -117c-4,-58 9,-87 -27,-124 13,-26 4,-29 -5,-71 -1,-3 -1,-5 -2,-8 -5,-24 -8,3 -4,-27 5,-35 1,-12 21,-32l-33 1c2,-73 -23,-113 -18,-174 2,-32 -1,-42 -2,-80l-24 -126c-2,-2 -4,-5 -4,-7 -23,-75 5,39 -5,-52 -8,-61 -27,-62 -3,-130 -21,-1 -2,3 -11,-19l5 1 -19 -54c-4,-25 1,-31 7,-46 -12,-35 -25,-9 -4,-70l-2 -6c-2,-2 -4,-5 -5,-6 -1,-2 -4,-4 -5,-6 -17,-32 -5,-35 -17,-98 -2,-11 -5,-26 -6,-35l-9 -63c23,-39 5,-29 0,-100 -8,-110 -25,-165 -43,-251 -20,16 6,3 -19,8 -1,-35 5,-7 -17,-20 2,36 9,159 26,174 -1,63 38,373 49,481l30 276c4,39 15,65 20,107l96 631c4,23 24,209 43,209z"/>
   <path class="fil25" d="M1165 303c-12,118 10,32 -30,137 -20,52 -7,118 -16,177 -17,120 -43,217 -53,336l24 -75c9,25 32,25 64,28 39,-27 29,-3 35,-44 14,14 9,-15 15,24 22,-7 34,-13 48,-21 -23,63 -5,6 5,31 0,0 5,-26 7,-29l-2 -13 -46 11 -11 -45c31,9 23,6 44,-24 7,15 4,3 21,12l-18 -279c-3,-21 -3,-33 -7,-48 -48,-183 -12,-107 -30,-204 -10,7 -23,15 -28,19 -16,11 -1,11 -22,7z"/>
   <path class="fil15" d="M860 700c16,-73 14,-64 -7,-89 25,-21 18,-15 13,-46 -5,-34 5,-20 -1,-59 0,45 -4,38 17,67 9,-17 13,16 16,-87 -34,-4 -23,-31 -20,-75 -24,-12 -12,-137 -13,-171 -2,-58 0,-136 -4,-171 -2,-13 -4,-39 -7,-71l-30 0c2,52 3,104 3,154 1,94 1,195 9,288 4,47 7,79 10,114 3,56 -5,114 14,146z"/>
   <path class="fil13" d="M19816 5c-3,39 -2,87 -3,105 51,-9 12,-2 49,-16 -10,39 -13,53 -5,92 17,-12 13,-85 14,-115l2 -66 -57 0z"/>
   <path class="fil8" d="M956 3185l-6 62c6,83 2,232 -12,308 -14,78 -18,155 -34,237 -1,17 -4,30 -5,42l-21 167c-10,79 -12,160 -15,241 -2,60 -19,148 -26,224 -5,57 -5,141 -14,204 3,45 -29,475 -41,520 11,76 -40,235 -29,288l28 6c11,-78 32,-163 35,-254 1,-43 8,-237 21,-265l15 -218 12 -286c3,-38 -4,-19 12,-40 -5,-54 7,-97 16,-148 9,-50 4,-112 9,-169l71 -577c16,-104 6,-197 21,-313l-1 -78 6 -10 -16 -14c7,69 6,16 -6,42l-20 31z"/>
   <path class="fil26" d="M982 690l11 -18c1,-2 5,-12 6,-16 1,3 3,4 3,8 1,5 6,13 7,16 21,49 17,27 35,59 -31,104 -3,79 5,88 15,-80 25,-80 38,-216l53 -470c6,-52 6,-101 17,-143l-39 0c-17,50 -15,82 -20,115 -2,15 -47,140 -38,225l-22 26c-14,27 -56,277 -56,326z"/>
   <path class="fil27" d="M20307 5646c0,20 12,109 28,214l34 0c-2,-16 -4,-35 -6,-65 -3,-52 -14,-96 -23,-137 -34,-24 -18,3 -29,-30l-4 18z"/>
   <path class="fil28" d="M20199 1711c-6,93 12,425 28,522l56 369c27,235 110,659 118,855 3,71 20,193 35,250 13,-10 14,-12 29,-22 -31,-160 -44,-336 -65,-501l-104 -727c-24,-140 -75,-658 -61,-779l2 17c-46,5 -8,-6 -38,16z"/>
   <path class="fil29" d="M20024 232c26,105 35,241 55,357l23 169c10,62 12,122 25,186l42 271c3,19 1,49 2,90 1,60 4,136 10,198 4,42 16,169 4,188 0,36 -4,-2 14,20 30,-22 -8,-11 38,-16l-2 -17c-12,-147 -8,-247 -19,-394 -3,-43 -1,-55 -7,-96 -4,-27 -3,-61 -9,-97 -9,-56 -22,-111 -31,-177 -3,-21 -3,-19 -8,-41 -22,-110 -16,-182 -40,-317 -13,-78 -39,-323 -63,-353l-7 24c0,1 -2,7 -2,6 0,-1 -1,4 -2,8l-23 -9z"/>
   <path class="fil30" d="M1083 2223c-17,183 -3,88 2,145 7,94 26,116 61,243 10,34 19,57 29,93l54 191c24,74 -12,17 25,78 17,27 19,47 25,90 8,-95 11,-297 0,-396 -8,-10 -12,-7 -15,-25 -35,0 -17,-1 -34,9 5,-45 -2,-59 -1,-117l-43 -10c28,-13 20,16 31,-37 -29,-24 39,26 -17,-11 -26,-16 -9,-7 -31,-34l19 -30c-8,-25 -12,-30 -15,-62l-36 -1c-1,-3 -4,-25 -4,-25 -8,-27 -1,-7 -14,-25l-12 55c-8,-76 14,-26 -16,-157l-6 0 -2 26z"/>
   <path class="fil31" d="M1386 2628c-22,46 -32,341 -6,411 -14,24 -18,44 -20,74 -24,-7 -30,-14 -42,-26 -3,90 10,118 31,189l-20 71 28 -4c-8,-163 57,-32 75,-385 5,-91 8,-99 -15,-124 36,-26 11,-20 20,-58 8,-34 -11,5 9,-16 1,-24 1,-13 15,-25 -2,-65 -10,-66 2,-111 2,-10 -1,-333 -31,-380 -2,11 -4,24 -7,34l-9 17c20,23 26,33 25,78 -1,23 -1,21 -9,41 -10,23 2,9 -19,23 4,12 10,33 14,42l6 78 -26 -8 -12 42c-3,11 -7,25 -9,37z"/>
   <path class="fil32" d="M1197 1660c10,-9 6,21 14,-12 2,-7 9,-3 13,-6 10,25 -2,9 26,27l-26 50 -44 -3c-17,18 17,-5 -16,12l-2 12c47,12 12,23 62,19l-2 21c15,-11 9,15 22,-28 13,37 -5,12 22,34 2,2 13,10 15,12 13,9 4,6 23,12 -3,2 -6,2 -7,6l-19 15c-1,1 -4,3 -6,4l17 41c17,30 -7,8 28,28 -39,7 -5,-7 -45,58 18,101 -16,102 22,137 -9,12 -16,21 -22,30 25,113 -25,74 21,125 8,9 11,14 16,22 -68,-1 -12,-4 -35,18 37,14 17,-26 20,79l13 186c4,132 18,368 9,492l24 -1167c-2,-57 -10,-101 -13,-166 -24,-4 -22,3 -39,-19 9,-38 28,-23 -6,-89 -8,-14 -2,-3 -10,-16 -13,-24 -6,-6 -16,-32 53,-14 24,-26 39,19l6 -36 -52 12c-17,61 -6,30 -52,103z"/>
   <path class="fil33" d="M20436 3707c2,34 7,54 10,86 2,16 -1,11 3,31l61 416c6,61 11,129 17,195 6,59 20,112 27,176l70 458c13,76 0,68 19,84l3 -50c0,1 -7,15 9,-3 -3,19 -2,1 13,10 0,0 -4,-30 -3,-33 0,-9 3,-14 5,-19 0,-2 12,-24 14,-26l-30 -12c-1,-35 -9,-47 -13,-78 -5,-42 -8,-61 -11,-102 -12,-6 -5,-41 -10,-70 -6,-28 -3,14 -7,-33 -1,-12 0,-28 -1,-39 -18,-22 -5,20 -13,-22 -3,-18 -1,-13 0,-33l-11 -41c-5,-17 -12,-54 -14,-72 -2,-16 -4,-31 -4,-47 1,-24 2,-20 6,-31 7,-28 -1,3 -7,-42 -15,-115 -4,-139 -47,-320 -17,-68 -15,-130 -25,-202 -7,-56 -19,-151 -32,-203 -15,10 -16,12 -29,22z"/>
   <path class="fil23" d="M542 5034c13,-14 13,-8 20,-32 14,-50 33,-239 36,-290 2,-26 7,-18 11,-50 4,-29 2,-52 2,-67 15,-309 28,-561 66,-868 21,-175 61,-484 71,-649 5,-81 23,-95 -1,-125 -5,117 -62,340 -66,506 -4,168 -63,574 -79,793l-37 501c-9,93 -9,187 -23,281z"/>
   <path class="fil15" d="M19662 4114c-13,30 -6,70 -1,105l8 39c4,34 10,28 13,60l23 202c1,7 2,23 3,31 4,31 -1,-1 6,32 7,35 10,92 22,123 8,24 13,78 18,118 13,96 33,165 39,246l14 44c25,-6 17,-11 17,20l9 -12c10,-8 -5,0 17,-12 -12,-32 -38,-174 -30,-223 -31,-49 -40,-249 -59,-308 -7,-24 -54,-489 -73,-527 -26,-35 27,23 -14,-15 -15,-14 -6,-5 -12,-8l0 85z"/>
   <path class="fil23" d="M771 2803l-3 40c9,-12 2,4 16,-25l25 -99c7,-50 20,-92 25,-141 13,22 4,18 27,16 25,-2 21,-6 37,-29l-18 -24c8,-48 19,-39 30,-84 11,-43 19,-60 23,-103l6 -10c-17,-7 -14,-5 -22,-14l-16 47c-1,-1 -2,6 -3,8 -7,-3 -19,-5 -19,-5 -31,-13 5,-136 15,-170 13,-47 11,-130 29,-180 38,-107 20,-149 21,-176 1,-45 8,4 9,-47 1,-19 -4,-35 -7,-50 -10,-72 12,-51 4,-112 -21,35 -37,245 -43,288l-136 870z"/>
   <path class="fil15" d="M1153 1488c2,68 -7,138 -15,199l-20 170c-34,177 -55,131 -62,359l27 7 2 -26c5,-55 4,-93 24,-140 19,-157 17,-7 30,-144 4,-45 7,-121 27,-153l-4 -20 2 -12 15 -76 2 -79c2,-13 3,-37 5,-49 1,-3 5,-20 6,-22 6,-17 4,-9 11,-19l8 -27c6,-72 13,-63 24,-128 14,-81 18,-77 13,-156 -1,-62 10,-30 0,-96 9,-12 4,-2 24,-9 10,-20 0,-40 7,-74l-23 -19 -2 -28c-11,15 -11,-11 -16,47 -6,64 -22,110 -28,216 -3,45 -5,105 -14,154 -7,39 -26,101 -43,125z"/>
   <path class="fil34" d="M19990 3469c6,-51 -5,-93 -14,-140l-122 -861 -17 8c3,62 13,69 -2,129 34,25 10,80 30,197 6,37 2,53 8,79 7,36 13,29 18,89 -30,-21 -26,-20 -38,7 20,13 16,-1 40,20l-36 26 17 31c-14,19 -11,11 -16,40 1,2 4,2 4,6 2,13 16,-16 13,53 -11,7 -43,1 -22,37 22,39 18,3 40,56l50 -5 -10 57c34,38 32,77 30,149 29,8 17,-8 27,45 1,-3 2,-7 0,-23z"/>
   <path class="fil30" d="M476 5438c6,-9 14,10 15,-54 3,-166 51,-583 62,-800l22 -312c-27,18 -30,46 -39,118 -6,47 -13,97 -19,138 -55,394 -39,526 -41,910z"/>
   <path class="fil34" d="M19820 4887c-8,49 18,191 30,223l52 351 70 -4c7,-43 1,-25 13,-34l-14 -30c-1,-3 -2,-5 -3,-7 0,-1 -7,-27 -8,-28l-35 -180c0,-123 -17,-86 -27,-120 -31,-104 3,-123 -43,-120 24,-17 13,0 25,-44 -47,-97 7,-59 -46,-71 -12,28 -2,24 -14,64z"/>
   <path class="fil22" d="M20217 3054c3,3 13,24 34,19 37,-10 10,-67 0,-144 -8,-70 -16,-118 -31,-197 -6,-32 -13,-59 -20,-93l-21 -336c-13,-15 -2,15 -15,-23 -6,-16 -2,-12 -5,-25 -3,-18 1,-6 -4,-24 -6,-21 1,-2 -9,-19 -32,3 -8,-10 -27,12l-7 58c7,30 15,62 21,85l16 52c-24,36 -19,36 0,93l-11 35c20,23 7,12 35,27 -13,16 8,8 -18,20l19 -3 7 113c16,34 -25,-11 15,9l-5 125c21,14 26,3 30,31 8,50 -10,56 -10,56 -12,-31 -1,-67 -35,-47l-7 -43c-62,47 51,91 5,138l47 57c13,26 12,13 -4,24z"/>
   <path class="fil8" d="M19633 381c-9,115 -4,98 16,202l16 206c14,85 38,348 62,393 29,18 14,-1 27,29l4 -14c3,-80 -15,-117 -16,-206 -1,-53 -26,-165 -19,-199 -17,-22 -12,-27 -19,-59 -19,-91 -18,-226 -27,-283 -9,-56 -7,-128 1,-183l-32 0c26,95 23,53 8,130 -7,-32 -2,-2 -21,-16z"/>
   <path class="fil15" d="M19827 1294c2,97 29,186 40,275l91 559c15,73 29,258 48,279 22,-10 10,-42 8,-67 -5,-44 -1,-133 -11,-177 -8,-39 -12,22 2,-36l-20 -8c-4,-56 -2,-8 13,-29 6,-37 -11,-76 -21,-116l-34 -179c-4,-27 -9,-38 -17,-60 -10,-29 1,-16 -7,-55 -15,-75 -38,-28 -8,-100 -19,-14 -9,-10 -26,-32l15 -47c-30,-13 -22,-15 -45,-114 -1,-2 -2,-4 -2,-7 -1,-2 -1,-5 -1,-8 -6,-37 0,-32 -14,-78l-11 0z"/>
   <path class="fil8" d="M627 5562l5 49c-2,30 -10,33 -9,78 4,55 -8,119 -15,164l27 0 29 -179c19,24 45,95 48,133 0,8 -1,25 -3,46l66 0 -2 -17c-21,-23 -25,-63 -22,-103l17 4 -40 -43 -2 31 -44 -149c-12,-24 -16,32 -6,-50 -43,32 -18,30 -49,36z"/>
   <path class="fil15" d="M19931 5c-1,19 -2,38 -3,56 -5,67 -12,152 -10,216 3,0 2,61 3,69 2,49 6,44 7,73 10,11 4,8 24,14 -4,-76 -4,-160 6,-240 8,-62 7,-123 7,-188l-34 0zm43 0c5,27 12,53 21,75 16,40 11,34 13,70 3,52 8,45 16,82l23 9c1,-4 2,-9 2,-8 0,1 2,-5 2,-6l7 -24c5,-70 -29,-136 -40,-197l0 -1 -44 0z"/>
   <path class="fil35" d="M19478 3758c-8,60 -14,105 -14,163l26 -145c43,-12 17,-14 48,-41 0,-1 28,-19 28,-19 28,-12 11,-7 22,2 10,-59 -1,-18 21,-34l1 7 -2 -29c-4,-28 -13,-48 -23,-63l-21 0c20,-80 -17,-7 -7,-79 0,-2 1,-11 2,-14l15 -67 1 -11c-6,-32 -4,-23 -10,-61l-13 -7c15,-57 6,-11 3,-71 -3,-47 -2,-63 -9,-112l-68 581z"/>
   <path class="fil8" d="M1343 5131c6,66 12,141 9,193 -5,75 1,107 6,183 10,118 31,120 37,231l6 3c0,45 5,71 7,96 0,4 0,10 0,16l31 0c-1,-15 -2,-29 -4,-43 -5,-74 -19,-161 -29,-237 -5,-39 -21,-66 -24,-108l-7 -373c-6,-51 6,-16 -12,-33l-20 72z"/>
   <path class="fil34" d="M608 5853c7,-45 19,-109 15,-164 -25,-16 -15,22 -22,-27 -11,38 -12,26 -21,47 -18,39 15,30 -19,86l-6 11c-14,24 -7,18 -36,30 4,7 7,13 9,17l80 0z"/>
   <path class="fil36" d="M1248 1172c5,79 1,75 -13,156 -11,65 -18,56 -24,128l-8 27 8 14c-8,42 -11,52 -30,76l-2 79c6,50 -1,17 14,29l4 -21c46,-73 35,-42 52,-103l52 -12 6 -24c-3,-115 -27,-227 -21,-346 -13,-10 -9,4 -19,-35l-19 32z"/>
   <path class="fil8" d="M19408 4082l-11 29c10,72 -21,218 -17,290 5,37 -8,156 -11,208 0,2 -3,25 -3,31l-30 -36c-1,-4 -3,-5 -4,-7 -6,45 -7,18 -15,44 -10,33 2,25 -17,57 40,67 -2,98 28,138l13 -108c-14,3 -4,7 -3,-10 2,-23 -1,-6 5,-34l9 29 35 -4c8,-103 26,-216 34,-316 7,-91 26,-248 17,-325 -12,-2 -5,-5 -12,9l-18 5z"/>
   <path class="fil5" d="M719 5524l-21 43 24 5c6,32 14,34 9,62 -6,35 -3,14 -3,60l40 43c3,49 22,62 24,104 8,8 8,5 12,12l65 0c-3,-7 -6,-14 -8,-32l-23 -64c-16,-44 -44,-95 -46,-139 -29,-29 -19,-71 -11,-134l-28 -6c-13,62 -10,3 -34,46z"/>
   <path class="fil32" d="M1154 906c47,2 21,-9 41,21 9,14 0,5 14,18 -20,21 -25,11 -18,10l0 87 -25 11c-5,68 -10,186 -6,253 1,25 -4,35 -4,40 3,48 9,-15 11,39 0,27 -14,74 -14,103 17,-24 36,-86 43,-125 9,-49 11,-109 14,-154 6,-106 22,-152 28,-216 5,-58 5,-32 16,-47 -5,-58 4,-5 3,-50 -10,-25 -28,32 -5,-31 -14,8 -26,14 -48,21 -6,-39 -1,-10 -15,-24 -6,41 4,17 -35,44z"/>
   <path class="fil37" d="M1139 2878c10,53 26,85 41,140 13,51 43,81 41,144 10,79 28,71 29,70 0,-2 2,-2 2,-3 -14,17 -22,24 -33,32 7,31 7,23 20,44 18,30 6,20 16,58 17,62 29,46 38,125l8 10 -4 79 10 24c-2,-40 -1,-83 0,-123l-31 -304 -76 -245c-12,-32 -10,-67 -31,-89l-3 53c-1,0 -23,-12 -27,-15z"/>
   <path class="fil38" d="M20039 5860l2 -124c-1,-59 -20,-106 -44,-144 -8,29 -49,67 -59,95 -10,62 6,116 13,173l88 0z"/>
   <path class="fil39" d="M20643 5153c-3,56 10,114 22,189 8,55 10,149 16,218 3,32 4,27 7,50l19 131c6,37 13,65 20,94 2,10 4,17 6,26l49 0c-21,-73 -41,-108 -44,-154 -3,-43 -21,-152 -30,-201l-40 -396c-15,-9 -16,9 -13,-10 -16,18 -9,4 -9,3l-3 50z"/>
   <path class="fil30" d="M861 5821c2,18 5,25 8,32l53 0c-8,-29 -8,-46 -45,-70l-16 38z"/>
   <path class="fil40" d="M19914 5860l-12 -84c-16,21 -31,51 -44,84l56 0z"/>
   <path class="fil41" d="M19678 267c-8,55 -10,127 -1,183 9,57 8,192 27,283 7,32 2,37 19,59 6,-50 -13,-37 21,-62 1,1 4,0 5,3l12 13c2,2 5,6 7,9l-29 -209c-2,-15 -6,-43 -10,-65 -21,-119 -31,-80 -39,-271 -7,23 -10,31 -12,57z"/>
   <path class="fil42" d="M20043 1557l10 -18c13,51 15,68 14,127 18,-2 -11,-22 5,14 6,15 10,18 16,25 0,3 -1,7 -2,9 0,2 -1,6 -2,9 0,2 -1,5 -2,7 -12,61 24,73 19,161 -12,6 -9,-1 -21,24l39 15 -4 55c-1,-2 -2,5 -2,8 6,12 16,52 21,77 10,43 1,70 -13,95l25 16 0 31c10,17 3,-2 9,19 5,18 1,6 4,24 3,13 -1,9 5,25 13,38 2,8 15,23 -2,-114 -23,-212 -37,-311l-82 -528c-7,-48 -8,-81 -15,-118 -17,24 -4,-23 -19,29l6 69c1,-2 3,-6 5,-8 0,2 -2,31 -2,34 -7,41 -15,14 -19,89l27 -2z"/>
   <path class="fil43" d="M773 5836l2 17 11 0c-1,-3 -4,-7 -4,-9 -1,-6 -6,-5 -9,-8zm31 17c-4,-7 -4,-4 -12,-12l-3 12 15 0z"/>
   <path class="fil39" d="M19294 4376c-16,91 1,226 6,322 19,-32 7,-24 17,-57 8,-26 9,1 15,-44 1,2 3,3 4,7l30 36c0,-6 3,-29 3,-31 3,-52 16,-171 11,-208l-23 7 -1 -91c-15,25 -15,14 -15,65 -15,-16 -5,-11 -11,-3l-36 -3z"/>
   <path class="fil15" d="M562 2402c15,-22 17,27 13,-26l5 163c25,-22 19,-7 30,-41 1,-3 4,-23 5,-30l1 -132c-4,-141 22,-53 19,-153l13 -145c-3,26 -5,27 -9,51 -24,-23 -35,41 -18,-58l-14 19c-18,43 -43,302 -45,352z"/>
   <path class="fil44" d="M904 3792c16,-82 20,-159 34,-237 14,-76 18,-225 12,-308 -13,19 -3,-15 -17,32l-27 147c6,122 -67,270 -13,391 -13,-47 1,-12 11,-25z"/>
   <path class="fil45" d="M19301 4144l2 -3 7 -313c-71,21 -51,16 -55,47 -9,-6 5,-23 -25,-2 -20,15 -9,16 -6,32 8,41 1,21 25,38 -48,25 -22,17 -10,131 18,-17 17,-38 27,7 5,21 -3,28 -2,69l37 -6z"/>
   <path class="fil46" d="M19406 2286c-8,89 -24,223 -17,324 42,6 45,-137 45,-137l5 35c18,0 13,-50 14,-69 1,-37 1,-47 3,-79 4,-57 14,-119 1,-173l-51 99z"/>
   <path class="fil17" d="M1386 2628c2,-12 6,-26 9,-37l12 -42 26 8 -6 -78c-4,-9 -10,-30 -14,-42 21,-14 9,0 19,-23 8,-20 8,-18 9,-41 1,-45 -5,-55 -25,-78l9 -17c3,-10 5,-23 7,-34 -9,-32 -21,-35 -49,-55 -2,72 -7,155 -7,223 0,32 4,71 3,106l-3 80c-6,40 -1,8 -8,24l18 6z"/>
   <path class="fil47" d="M19608 3662l2 29 -3 16c4,9 1,-5 10,22 4,10 4,14 5,23 2,15 1,38 3,56 4,23 14,103 14,144 13,14 5,-17 13,32 3,25 1,21 0,43l-9 75 19 12 0 -85c6,3 -3,-6 12,8 41,38 -12,-20 14,15 6,-6 11,9 5,-47l-15 -168c-8,-43 -8,-89 -16,-130 -7,-33 -16,-86 -18,-114 -13,15 -4,66 -4,92 -2,-2 -13,-10 -15,-12l-17 -11z"/>
   <path class="fil31" d="M782 5190c12,-45 44,-475 41,-520 -33,8 -25,1 -29,50 -8,100 -64,206 -21,432 7,39 -23,42 9,38z"/>
   <path class="fil48" d="M19538 756c55,21 -17,-6 38,10 -11,35 -12,26 -2,68 17,0 5,-21 7,-48l14 -147c7,-74 16,-149 22,-225 -15,15 -18,-16 -14,18l-2 -88c-8,-14 -9,-5 -18,-13l-33 308c0,26 -5,97 -12,117z"/>
   <path class="fil49" d="M252 3903c-19,41 -52,343 -74,426l22 8 -10 57 31 -26c8,-68 16,-166 27,-231 11,-68 30,-181 28,-248l-24 14z"/>
   <path class="fil50" d="M878 411c5,-28 3,-33 0,-63 -9,-86 -11,-44 11,-48 22,16 7,-1 12,32 21,-54 -1,-8 1,-60l13 -188c-13,-9 -21,-14 -31,-21 -4,-25 -5,-44 -7,-65l-23 0c3,32 5,58 7,71 4,35 2,113 4,171 1,34 -11,159 13,171z"/>
   <path class="fil17" d="M1383 2015c1,-3 3,-9 3,-7 2,5 6,-11 7,-13 3,-8 3,-10 6,-17 8,-65 -16,-57 55,-94 -2,-86 34,-109 8,-137 -10,-5 -20,-5 -21,-6 -28,-14 -9,3 -25,-21l-34 14c-13,-41 0,-2 -15,-19l16 300z"/>
   <path class="fil51" d="M19380 4946c1,36 -2,37 -3,75 -1,30 2,57 2,81 1,41 -5,106 -4,154 15,-8 11,-5 29,-13 -11,41 -24,23 16,50 25,-186 -4,-112 7,-178 8,-46 1,-16 19,-45 -8,-18 -12,-33 -26,-49 1,-2 3,-5 4,-7l7 -51c-20,-17 -22,-19 -51,-17z"/>
   <path class="fil14" d="M709 5853c2,-21 3,-38 3,-46 -3,-38 -29,-109 -48,-133l-29 179 74 0z"/>
   <path class="fil52" d="M956 3185l20 -31c12,-26 13,27 6,-42l16 14c33,-12 27,-23 24,-26 -26,-31 11,16 -26,-13 26,-72 -4,-50 14,-122l-8 -26c0,-28 1,-53 1,-80 0,-12 -1,-35 2,-46 7,-29 -2,-19 18,-28 -40,-51 32,25 -12,-14 -25,-22 -3,3 -17,-13 -23,-25 -14,3 -9,-41 -21,15 -10,69 -13,104 -5,50 -12,65 -8,120 6,80 -4,163 -8,244z"/>
   <path class="fil53" d="M19871 5490c-2,-23 7,-14 -3,-28l34 -1 -52 -351c-22,12 -7,4 -17,12l-9 12c0,-31 8,-26 -17,-20 3,56 19,132 29,188 9,47 -7,6 15,92 20,77 -8,76 20,96z"/>
   <path class="fil9" d="M19303 4141l-2 3 -7 232 36 3c6,-8 -4,-13 11,3 0,-51 0,-40 15,-65l7 -119 10 -8c-11,-20 -8,26 -11,-38 -2,-24 3,-27 6,-41 -35,14 -30,5 -65,30z"/>
   <path class="fil54" d="M572 2863c-31,12 -20,14 -47,25 -11,-20 -12,-41 -8,-75 -15,-14 -10,7 -17,-23 -4,21 -3,29 -9,47 -8,27 -13,1 -6,45 9,49 9,37 -13,88 31,28 18,24 16,68 -2,56 -9,76 32,77 -21,-70 17,-48 23,-112l29 -140z"/>
   <path class="fil55" d="M832 1683c1,-2 3,-9 3,-7l97 -521 -27 8 -11 -34c0,73 -18,173 -32,241 -2,9 -3,35 -3,35 -2,9 -14,42 -17,54 -13,53 -21,162 -10,224z"/>
   <path class="fil42" d="M134 4890c32,0 5,3 7,26 2,31 -4,14 9,54l53 -430c-18,-14 -9,-17 -16,-5l-27 0c-8,103 -33,254 -26,355z"/>
   <path class="fil56" d="M19431 3593l-22 205c-6,77 -12,99 -23,166 -6,41 -7,101 -8,148 10,-13 13,10 13,-22l6 21 11 -29 -3 -39c7,-25 18,-118 19,-147 3,-57 9,-72 15,-137l5 -5c3,-44 2,-44 9,-83 8,-38 1,-33 -1,-68 -19,-27 31,-20 -18,-20l-3 10z"/>
   <path class="fil47" d="M19320 3821l-10 7 -7 313c35,-25 30,-16 65,-30l-18 -39c11,2 2,-3 24,-21l-30 -18c0,0 0,-223 14,-226l3 -9c-2,1 -10,8 -12,9 -2,2 -9,6 -10,8 -15,18 -5,-4 -12,28l-7 -22z"/>
   <path class="fil33" d="M19358 3807c-14,3 -14,226 -14,226l30 18c-22,18 -13,23 -24,21l18 39c-3,14 -8,17 -6,41 3,64 0,18 11,38l5 -78c1,-47 2,-107 8,-148 11,-67 17,-89 23,-166l-18 6 -17 -16c-8,30 1,12 -16,19z"/>
   <path class="fil57" d="M19328 4836c-11,67 4,59 12,107 24,-36 7,-41 26,-32 0,-38 -4,1 17,-17 5,-44 2,-46 13,-83 7,-22 18,-101 -9,-102l-35 4 -9 -29c-6,28 -3,11 -5,34 -1,17 -11,13 3,10l-13 108z"/>
   <path class="fil19" d="M20043 1557l-1 55 18 -3c-25,12 -7,0 -23,16 8,40 20,19 11,94 -10,85 10,90 23,131 16,49 2,3 0,42 -2,43 14,65 21,101l21 0c0,-3 1,-10 2,-8l4 -55 -39 -15c12,-25 9,-18 21,-24 5,-88 -31,-100 -19,-161 1,-2 2,-5 2,-7 1,-3 2,-7 2,-9 1,-2 2,-6 2,-9 -6,-7 -10,-10 -16,-25 -16,-36 13,-16 -5,-14 1,-59 -1,-76 -14,-127l-10 18z"/>
   <path class="fil39" d="M19439 3759c-6,65 -12,80 -15,137 -1,29 -12,122 -19,147l3 39 18 -5c7,-14 0,-11 12,-9 7,-9 6,5 14,-30 7,-31 0,-1 2,-33 2,-26 4,-58 10,-84 0,-58 6,-103 14,-163 -21,15 -21,34 -23,30 -1,-2 -3,6 -5,8 0,-3 -4,-15 -4,-17l-7 -20z"/>
   <path class="fil32" d="M1190 3361c-27,-6 -11,1 -24,-9 -18,-14 -1,-5 -12,-22 -12,-32 -2,-8 -5,-46 -4,-42 -4,-14 -10,-48 -6,-28 -8,-64 -16,-100 -2,3 -7,1 -8,6 -9,36 3,-12 -14,12l7 36c-38,10 -12,2 -25,16 38,6 14,-3 37,30 -1,1 -3,2 -3,5 0,0 -27,43 12,113 6,10 2,-2 11,20 -27,60 -5,22 -52,52 -1,0 -3,2 -5,4 10,22 1,20 20,20l25 7c2,1 5,4 7,7 4,-16 5,-26 14,-45 11,-23 8,-18 41,-19l0 -39z"/>
   <path class="fil58" d="M837 4965l19 -10c-12,32 -16,40 24,39 15,-70 3,-23 -18,-69 7,-2 24,-4 28,-5 17,-5 16,-8 23,-13l-19 -33c-1,-1 -4,-1 -5,-3 0,-3 -3,-2 -5,-5l30 -8c0,-41 -6,-28 7,-40l-69 -71 -15 218z"/>
   <path class="fil58" d="M953 3899c21,14 12,0 34,10 -8,12 -13,23 -21,48l36 15c-19,15 0,-4 -11,21 -3,-22 4,-10 -19,-15l0 39c-3,-6 -3,-13 -11,-15 -13,-2 -5,0 -15,7l1 35c40,5 18,18 31,-15 6,55 16,38 9,110 1,-2 3,-9 4,-7l6 -27c20,-102 0,-83 32,-100 -7,-69 -12,-48 15,-86l-12 -9c-1,-1 -4,-3 -5,-4l-7 -10c-24,-35 -33,-39 -68,-39l1 42z"/>
   <path class="fil59" d="M1038 2598c17,21 6,-5 15,33 8,29 6,23 16,51 10,33 17,69 37,91 9,-17 6,8 7,-24 0,-3 -2,-29 -3,-33 -4,-35 -8,-52 -8,-86 -2,-63 -39,-123 -42,-177 -12,13 -5,-8 -13,28 -1,6 -3,29 -4,37 -3,29 -4,46 -5,80z"/>
   <path class="fil5" d="M1343 5131l20 -72c11,-56 9,-122 0,-181l-12 -14c-25,-40 13,-136 -19,-72 -9,37 -24,33 -26,76 -2,43 16,52 22,79 6,27 11,145 15,184z"/>
   <path class="fil55" d="M647 1854l0 48 1 -47c69,0 -5,-11 24,23 3,-15 5,-25 9,-41l25 -99c8,-32 9,-17 14,-65 5,-49 13,-30 16,-78 -20,11 -21,11 -42,3 -9,43 -57,215 -47,256z"/>
   <path class="fil44" d="M1416 1720c16,24 -3,7 25,21 1,1 11,1 21,6 26,28 -10,51 -8,137 -71,37 -47,29 -55,94 43,-21 10,-24 65,-28 6,-46 9,-43 33,-66 -1,-111 6,-186 -81,-164z"/>
   <path class="fil40" d="M19389 2610c-3,46 -1,83 -4,132 -2,33 -13,101 0,128 22,-95 74,-255 54,-362l-5 -35c0,0 -3,143 -45,137z"/>
   <path class="fil60" d="M692 2489c8,-27 31,-122 34,-185l-24 10 -3 62c-23,-3 -12,7 -23,-9 1,23 5,28 -8,61 -16,40 -13,10 -24,64 -34,158 -22,131 3,155 8,-34 5,-63 14,-97 7,-28 15,-61 16,-79l15 18z"/>
   <path class="fil61" d="M19423 3216c2,-31 38,-144 49,-195 15,-73 27,-156 39,-231 -32,34 -32,97 -53,138 -23,48 -9,-10 -20,47 -4,21 -17,213 -15,241z"/>
   <path class="fil34" d="M19558 2442c-1,-48 27,-68 -26,-85l12 -35c-69,-31 22,-66 -38,-127l-9 113c-5,44 -5,84 -13,129 56,-10 24,26 74,5z"/>
   <path class="fil62" d="M19451 3511l2 25c8,-41 0,-5 18,-20l46 -402c3,-42 11,-109 8,-145 -18,50 -16,78 -17,135 -2,42 -16,90 -24,136 -15,79 -36,193 -33,271z"/>
   <path class="fil39" d="M1315 4644c-2,38 -3,126 17,148 32,-64 -6,32 19,72l12 14c0,-61 -10,-131 -9,-181 0,-64 -7,-130 -6,-201l-20 20 4 117c-15,11 -3,3 -17,11z"/>
   <path class="fil16" d="M948 2445l15 6 15 99 28 -24c2,-2 6,-4 9,-5l23 77c1,-34 2,-51 5,-80 1,-8 3,-31 4,-37 8,-36 1,-15 13,-28 -4,-30 9,-24 -26,-42 -19,31 -10,45 -23,91l-29 -105c-14,21 0,9 -17,19 -2,1 -5,2 -7,3 -2,1 -5,1 -7,2 -2,0 -5,0 -8,1l5 23z"/>
   <path class="fil59" d="M19568 2942c-7,41 -9,73 -12,110 -3,32 -3,19 5,40 7,20 10,31 15,49l6 -18 2 -59 30 8 4 2 14 -58 -27 -49c-8,-31 -9,-48 -17,-75l-20 50z"/>
   <path class="fil63" d="M1143 5853c-2,-9 -6,-10 -20,-24l-4 24 24 0z"/>
   <path class="fil47" d="M607 2050l14 -19c-17,99 -6,35 18,58 4,-24 6,-25 9,-51 3,-30 8,-60 14,-85 8,-38 9,-31 10,-75 -29,-34 45,-23 -24,-23l-1 47 0 -48c-34,45 -35,139 -40,196z"/>
   <path class="fil15" d="M19575 3428l-1 11 11 160c10,15 19,35 23,63l17 11c2,2 13,10 15,12 0,-26 -9,-77 4,-92l-18 -54c-32,-45 -23,-79 -33,-132 -16,35 -5,6 -18,21z"/>
   <path class="fil40" d="M19516 2596c-45,45 -59,143 -62,239l33 -79c9,-28 15,-62 24,-90 13,-44 53,-130 40,-171 -18,7 -6,-4 -18,10 -1,1 -13,23 -13,25 -6,22 -4,43 -4,66z"/>
   <path class="fil64" d="M19361 3798l-3 9c17,-7 8,11 16,-19 15,-43 48,-341 56,-427 -16,17 -18,13 -25,52l-23 160c-11,87 -9,173 -21,225z"/>
   <path class="fil65" d="M998 3126l-6 10 1 78 16 4c4,-29 12,-28 6,-62l-8 -6c18,-12 22,-9 41,-24l-7 -58 34 -20c-20,-14 -17,-3 -38,-49 -10,-21 -11,-8 -5,-50l-16 1c-15,-8 -8,7 -14,-11l8 26c-18,72 12,50 -14,122 37,29 0,-18 26,13 3,3 9,14 -24,26z"/>
   <path class="fil66" d="M1395 5738c-6,-111 -27,-113 -37,-231 -21,19 -7,-5 -15,26 -3,16 -12,93 4,118l-21 15c-1,-2 -4,3 -6,4 2,2 5,4 6,5l13 7c12,6 9,3 15,8 -45,31 -16,-5 -28,47l39 -8c8,7 23,7 30,9z"/>
   <path class="fil67" d="M1106 2773c5,46 11,78 33,105 4,3 26,15 27,15l3 -53c-8,-72 -33,-110 -45,-155 -11,-42 0,-32 -22,-55 0,34 4,51 8,86 1,4 3,30 3,33 -1,32 2,7 -7,24z"/>
   <path class="fil68" d="M982 2397l29 105c13,-46 4,-60 23,-91 -12,-191 -15,-64 14,-148 -68,6 -57,50 -66,134z"/>
   <path class="fil69" d="M19378 4112l-5 78 -10 8 -7 119 1 91 23 -7c-4,-72 27,-218 17,-290l-6 -21c0,32 -3,9 -13,22z"/>
   <path class="fil21" d="M19428 2038c-2,84 -14,164 -22,248l51 -99 19 -175c-4,13 -1,15 -5,25 -9,28 1,5 -12,21l-31 -20z"/>
   <path class="fil29" d="M19579 2835c75,-57 27,-34 42,-128 5,-28 2,-48 -1,-76 -3,-25 -2,-20 -3,-46 -1,-57 4,-32 -13,-47l-14 87c14,16 -4,0 16,19l-30 20c3,12 10,30 11,31 0,7 -3,31 -3,51l21 13 -15 37c-1,2 -2,5 -3,7l-8 32z"/>
   <path class="fil53" d="M956 974c10,-44 18,-79 27,-120 -24,-6 -4,8 -27,-15 -17,-17 -2,-12 -27,-21l-17 100c-20,21 -8,-14 -16,27 10,9 -19,19 20,11 22,-5 6,5 16,-19 12,22 9,0 -1,29l25 8z"/>
   <path class="fil70" d="M1267 314c-2,45 -22,113 46,142 -8,-169 13,-43 -22,-185l-29 -9c-2,-1 -5,-3 -8,-5 3,38 0,28 13,57z"/>
   <path class="fil71" d="M19814 5770l42 -2c29,-28 42,-84 25,-145 -13,-43 -2,-9 -16,-27 -10,55 -15,43 -27,84 -12,41 -23,54 -24,90z"/>
   <path class="fil21" d="M19819 5860c3,-9 5,-18 6,-26 0,0 9,13 -10,-7 -27,-28 11,25 -8,-14l-7 11c-1,1 1,8 -4,-7 -9,12 -18,27 -25,43l48 0z"/>
   <path class="fil72" d="M19986 5457c0,19 15,14 30,16 14,-14 -25,-15 18,-11 -1,-2 -3,-4 -4,-5 -1,-1 -3,-4 -4,-5l36 -29c-3,-57 -25,-42 -15,-81 -6,0 -28,-2 -28,-2 -1,0 -3,1 -5,1 -42,12 -1,76 -28,116z"/>
   <path class="fil73" d="M1109 2057c31,-25 30,-41 34,-85 2,-1 7,-5 8,-6l20 -50c-23,-67 0,-33 3,-83 9,-50 -14,-7 -8,-73 -20,32 -23,108 -27,153 -13,137 -11,-13 -30,144z"/>
   <path class="fil58" d="M864 4461c47,20 24,5 27,45 3,47 -7,19 23,46 13,-21 10,-14 14,-61 30,-4 16,2 35,-15 -15,-34 -20,-11 -65,-42 -11,-9 2,-7 -22,-13 -16,21 -9,2 -12,40z"/>
   <path class="fil11" d="M19610 3127l-9 7c-7,-6 -13,-4 -19,-11l-6 18 4 10 47 -7c-7,30 -16,28 -17,50 0,24 4,18 7,26 42,-4 63,-28 50,-66 0,-2 -2,-4 -2,-6 -1,-2 -2,-5 -3,-7 -5,-14 2,-7 -6,-22 -18,-36 -3,-8 -21,-25l-6 26 -19 7z"/>
   <path class="fil74" d="M19565 3367c6,38 4,29 10,61 13,-15 2,14 18,-21 10,53 1,87 33,132 -2,-55 -8,-71 -9,-132 -1,-33 -10,-94 -20,-113l-19 2c9,22 17,79 6,98 -12,-32 -10,-18 -19,-27z"/>
   <path class="fil25" d="M1301 1545l-6 36c-15,-45 14,-33 -39,-19 10,26 3,8 16,32 8,13 2,2 10,16 34,66 15,51 6,89 17,22 15,15 39,19l-17 -190c-1,-2 -2,-5 -3,-7l-6 24z"/>
   <path class="fil59" d="M792 5618c2,44 30,95 46,139 22,-34 5,-133 -16,-166 -27,5 -22,-2 -30,27z"/>
   <path class="fil75" d="M19967 5558c4,-45 -1,-13 10,-30 -21,-16 -46,-16 -75,-17l11 90c8,32 7,20 13,28 19,-23 21,-39 41,-71z"/>
   <path class="fil29" d="M19330 3257l1 108c15,4 23,7 26,8l10 -29c0,-2 1,-4 1,-5 16,-56 5,-65 24,-101 -1,-3 -6,-14 -9,-20 -11,16 -3,12 -9,-8 -11,12 -12,11 -14,40 -1,15 4,38 4,57 -11,-3 -14,4 -17,-9 0,-2 6,-26 9,-45l-26 4z"/>
   <path class="fil76" d="M1002 2939c6,18 -1,3 14,11 17,-28 -3,-12 30,-27l-1 -29 -22 -109c-20,9 -11,-1 -18,28 -3,11 -2,34 -2,46 0,27 -1,52 -1,80z"/>
   <path class="fil24" d="M19736 1284c9,53 -5,61 27,96l10 -10c-9,-16 -5,2 -12,-32 -5,-23 -4,-28 -2,-54 12,-11 -6,-8 16,0l-17 -87 -4 14c-13,-30 2,-11 -27,-29 0,17 -1,35 1,51 2,16 6,29 8,51z"/>
   <path class="fil49" d="M160 4535l27 0c7,-12 -2,-9 16,5l11 -119c-16,-5 2,-6 -17,-2l-23 15 -1 -28c-5,37 -10,81 -13,129z"/>
   <path class="fil59" d="M878 411c-3,44 -14,71 20,75 -3,-41 6,-37 10,-70 5,-31 -5,-57 -7,-84 -5,-33 10,-16 -12,-32 -22,4 -20,-38 -11,48 3,30 5,35 0,63z"/>
   <path class="fil77" d="M1223 5356l-12 -14c-12,-13 0,-7 -18,-13 2,49 11,5 12,68 2,-2 5,-7 6,-5l9 -11c22,-26 3,-13 27,-24l-6 31c0,3 -1,6 -1,9 -2,13 -2,34 -4,52l14 -10c27,-29 16,-23 11,-60 24,3 9,13 14,-10 4,-23 5,-24 4,-51 -30,6 -38,22 -56,38z"/>
   <path class="fil78" d="M20630 4840c3,41 6,60 11,102 4,31 12,43 13,78l30 12c-3,-21 -2,-50 -7,-66l-14 -33c0,-2 -1,-5 -2,-7 -37,-108 -13,-26 -8,-91l-23 5z"/>
   <path class="fil79" d="M19625 3808c-2,-18 -1,-41 -3,-56 -1,-9 -1,-13 -5,-23 -9,-27 -6,-13 -10,-22l-6 35c-20,10 -26,0 -59,7l-7 58c18,-12 10,-19 34,-30 9,-5 4,0 15,-8 18,36 0,23 41,39z"/>
   <path class="fil80" d="M728 5694c0,-46 -3,-25 3,-60 5,-28 -3,-30 -9,-62l-24 -5c-28,-5 -12,-6 -16,9l44 149 2 -31z"/>
   <path class="fil81" d="M20164 4339c8,-54 8,-57 -7,-106 -14,-42 -3,-44 -12,-92l-23 -10 9 63c1,9 4,24 6,35 12,63 0,66 17,98 1,2 4,4 5,6 1,1 3,4 5,6z"/>
   <path class="fil82" d="M1197 1660l-4 21c-15,-12 -8,21 -14,-29l-15 76c33,-17 -1,6 16,-12l44 3 26 -50c-28,-18 -16,-2 -26,-27 -4,3 -11,-1 -13,6 -8,33 -4,3 -14,12z"/>
   <path class="fil62" d="M19428 2038l31 20c13,-16 3,7 12,-21 4,-10 1,-12 5,-25l-22 -96c-2,-1 -3,-4 -4,-5l-22 127z"/>
   <path class="fil83" d="M20200 4722c7,-18 3,-6 5,-25 2,-21 5,-27 6,-34l-5 -25c-30,-96 6,-54 3,-93 -2,-29 -12,-27 -32,-31 9,22 -10,18 11,19 -24,68 -5,69 3,130 10,91 -18,-23 5,52 0,2 2,5 4,7z"/>
   <path class="fil84" d="M20182 4515l18 -90c-38,-49 2,-30 -34,-80 -21,61 -8,35 4,70 -6,15 -11,21 -7,46l19 54z"/>
   <path class="fil61" d="M1165 303c21,4 6,4 22,-7 5,-4 18,-12 28,-19l10 -16c-21,-21 -17,-33 -20,-57 -19,-7 2,-7 -31,1 8,45 -2,41 -9,98z"/>
   <path class="fil65" d="M1219 3261c11,-8 19,-15 33,-32 0,1 -2,1 -2,3 -1,1 -19,9 -29,-70l-37 -11c1,29 4,19 11,52 5,28 7,39 24,58z"/>
   <path class="fil48" d="M627 5562c31,-6 6,-4 49,-36 -10,82 -6,26 6,50 4,-15 -12,-14 16,-9l21 -43 -35 4c-16,-53 -3,-29 -29,-32 -17,15 -18,35 -28,66z"/>
   <path class="fil85" d="M978 2550l-15 -99 -15 -6 -14 41c-4,18 -8,32 -11,45 34,9 38,4 55,19z"/>
   <path class="fil78" d="M982 465c22,-37 44,-142 20,-181 -8,38 -33,151 -20,181z"/>
   <path class="fil82" d="M1166 1760c-6,66 17,23 8,73l48 -53 2 -21c-50,4 -15,-7 -62,-19l4 20z"/>
   <polygon class="fil80" points="14371,5858 14372,5857 14345,5858 "/>
   <path class="fil86" d="M19374 3210c6,20 -2,24 9,8l13 -147c-45,28 -29,87 -22,139z"/>
   <path class="fil46" d="M19796 5817c5,15 3,8 4,7l7 -11c19,39 -19,-14 8,14 19,20 10,7 10,7 22,-23 22,-35 31,-66l-42 2c-18,7 -17,28 -18,47z"/>
   <path class="fil87" d="M19585 3599l-11 -160 -15 67c-1,3 -2,12 -2,14 -10,72 27,-1 7,79l21 0z"/>
   <path class="fil62" d="M773 5836c3,3 8,2 9,8 0,2 3,6 4,9l3 0 3 -12c-2,-42 -21,-55 -24,-104l-17 -4c-3,40 1,80 22,103z"/>
   <path class="fil81" d="M173 4406l1 28 23 -15c19,-4 1,-3 17,2l7 -53 -31 26 10 -57 -22 -8c8,22 2,38 -5,77z"/>
   <path class="fil63" d="M990 3801c-27,-12 -30,5 -21,45 11,-43 -4,-17 20,-36l9 12c18,33 4,21 30,33l-22 -103c-14,19 -15,16 -16,49z"/>
   <path class="fil32" d="M1262 854c2,-27 2,-26 8,-46 -17,-9 -14,3 -21,-12 -21,30 -13,33 -44,24l11 45 46 -11z"/>
   <path class="fil78" d="M20588 4602c14,12 1,7 20,5 -33,-131 -18,-101 -23,-135 -5,-27 9,-3 -9,-20 -4,11 -5,7 -6,31 0,16 2,31 4,47 2,18 9,55 14,72z"/>
   <path class="fil88" d="M1248 1172l19 -32c10,39 6,25 19,35 -2,-48 -3,-39 -18,-70l4 -38c-20,7 -15,-3 -24,9 10,66 -1,34 0,96z"/>
   <path class="fil49" d="M1174 205c33,-8 12,-8 31,-1l-6 -98c-6,-20 -8,-16 -19,-28 5,47 4,88 -6,127z"/>
   <path class="fil50" d="M5187 4556c18,9 25,13 48,8 15,-4 8,1 23,-11 16,-12 14,-16 21,-28 -32,2 -54,4 -82,23l-10 8z"/>
   <path class="fil57" d="M19345 3018l2 67c27,-9 15,5 24,-27 1,-6 8,-47 10,-61l-36 21z"/>
   <path class="fil47" d="M19582 3123c6,7 12,5 19,11l9 -7 1 -35c-8,-8 -5,5 3,-20l-30 -8 -2 59z"/>
   <path class="fil52" d="M1154 3330c11,17 -6,8 12,22 13,10 -3,3 24,9 3,-38 0,-10 13,-21l2 -22c-18,-9 -12,-14 -34,0 -2,1 -10,6 -17,12z"/>
   <path class="fil74" d="M19326 3485c41,-8 10,2 25,-30 4,-8 9,-23 11,-33l-31 -8 -5 71z"/>
   <path class="fil8" d="M19650 3919c10,-7 19,2 20,-31 1,-43 -16,-30 -33,-33l13 64z"/>
   <path class="fil89" d="M1200 2155c41,6 31,-5 42,-17 -7,-32 -6,-22 -26,-38l-16 55z"/>
   <path class="fil81" d="M19431 3593l3 -10c49,0 -1,-7 18,20l19 -87c-18,15 -10,-21 -18,20l-2 -25 -20 82z"/>
   <path class="fil90" d="M19652 4027c1,-22 3,-18 0,-43 -8,-49 0,-18 -13,-32 -1,2 -3,2 -4,5l-10 61 27 9z"/>
   <path class="fil87" d="M1181 1573c19,-24 22,-34 30,-76l-8 -14c-7,10 -5,2 -11,19 -1,2 -5,19 -6,22 -2,12 -3,36 -5,49z"/>
   <path class="fil64" d="M19517 2750c34,-2 22,14 30,-22 1,-6 2,-44 2,-53l-32 75z"/>
   <path class="fil91" d="M19610 3127l19 -7 6 -26c-4,0 6,1 -5,-10 -1,-1 -4,-4 -5,-5 -2,-1 -5,-3 -7,-5l-4 -2c-8,25 -11,12 -3,20l-1 35z"/>
   <path class="fil47" d="M866 1021l28 -27c-14,-27 -12,-18 -30,-32l2 59z"/>
   <path class="fil78" d="M1027 2742c20,-28 23,35 10,-41 0,-1 -11,-33 -12,-36 -13,29 1,24 2,77z"/>
   <path class="fil65" d="M1294 4419c23,-1 12,21 18,-6 1,-3 3,-3 6,-6l-11 -19 -29 11 16 20z"/>
   <path class="fil78" d="M20612 4698c-1,-48 0,-26 8,-37l-21 -18c-1,20 -3,15 0,33 8,42 -5,0 13,22z"/>
   <path class="fil92" d="M19957 778l-13 -55c0,0 -12,-3 -5,27 7,29 4,12 18,28z"/>
   <path class="fil81" d="M19967 5558l26 -1c-2,-4 -5,-9 -6,-11 -7,-13 -1,-1 -10,-18 -11,17 -6,-15 -10,30z"/>
   <path class="fil93" d="M20005 2127c-16,-30 -7,-2 -7,-37 -15,21 -17,-27 -13,29l20 8z"/>
   <path class="fil94" d="M12678 5351c-9,-28 3,-9 -21,-22 11,29 -7,17 21,22z"/>
   <path class="fil73" d="M2505 1124c11,-11 29,7 7,-28l-7 28z"/>
   <path class="fil94" d="M3431 2579c22,-6 9,4 16,-19 -35,14 -2,3 -16,19z"/>
   <path class="fil49" d="M3096 1272l19 0c-2,-5 -4,-10 -5,-8l-14 8z"/>
   <line class="fil78" x1="740" y1="423" x2="740" y2= "423" />
  </g>
 </g>
</svg>
