<?xml version="1.0" encoding="UTF-8"?>
<!DOCTYPE svg PUBLIC "-//W3C//DTD SVG 1.1//EN" "http://www.w3.org/Graphics/SVG/1.1/DTD/svg11.dtd">
<!-- Creator: CorelDRAW X8 -->
<svg xmlns="http://www.w3.org/2000/svg" xml:space="preserve" width="210mm" height="297mm" version="1.1" style="shape-rendering:geometricPrecision; text-rendering:geometricPrecision; image-rendering:optimizeQuality; fill-rule:evenodd; clip-rule:evenodd"
viewBox="0 0 21000 29700"
 xmlns:xlink="http://www.w3.org/1999/xlink">
 <defs>
  <style type="text/css">
   <![CDATA[
    .fil2 {fill:#2A292E}
    .fil3 {fill:#2D262D}
    .fil0 {fill:#2D2A31}
    .fil5 {fill:#443A3B}
    .fil8 {fill:#493836}
    .fil4 {fill:#4C4244}
    .fil7 {fill:#57453A}
    .fil10 {fill:#68554A}
    .fil11 {fill:#755A56}
    .fil6 {fill:#786766}
    .fil9 {fill:#E7E2DE}
    .fil1 {fill:#FDFDFD}
   ]]>
  </style>
 </defs>
 <g id="Ebene_x0020_1">
  <metadata id="CorelCorpID_0Corel-Layer"/>
  <g id="_1565586429408">
   <path class="fil0" d="M15380 5806c8,-13 11,11 -2,-24 -8,-23 1,-9 -15,-22 -1,-1 -3,-2 -3,-2l-87 -111c-6,-11 -6,-12 -16,-24 -36,-42 -13,-48 -11,-30 0,2 6,17 29,32 5,4 22,14 25,15 17,4 10,2 28,0 -4,3 -41,10 24,47l20 10c0,0 4,-23 -4,1l0 4c1,6 9,17 12,20l23 14c10,2 -25,14 29,-3l-17 13c-19,20 1,-11 -3,11 54,43 39,41 68,69l27 32c34,43 6,-25 11,10 2,17 -2,1 -6,17 47,9 24,2 36,-4 14,5 51,27 57,31 9,6 30,28 20,42l9 -10c0,-1 2,-3 2,-3l5 -5c21,-13 61,21 90,26l-14 9c-7,6 6,-13 -5,5 -7,13 -4,4 5,12l11 -25c22,19 7,2 16,27 6,16 -8,4 4,15 10,10 6,-5 11,-15 26,17 10,21 29,24 35,5 6,5 11,-12l1 -5c12,46 27,22 58,20 14,-1 26,1 48,1 16,0 16,-18 6,15 20,-4 33,-8 47,1 1,0 2,2 2,2l18 8c39,8 30,0 74,45l23 35c10,20 3,13 17,32l16 16c0,-1 2,1 3,2 13,24 7,7 6,37 32,-3 13,-6 55,9l13 4c15,3 -8,2 10,0 1,0 24,-3 27,-3l21 -8c1,-1 3,-1 4,-2 14,-4 17,-3 33,-5 17,-2 47,-2 74,-1l20 -27c1,0 2,0 3,-1 9,-5 -1,22 7,-6 -14,-11 -24,-11 -46,-15 34,-17 41,6 57,0 1,-2 0,-5 0,-5l-4 -12c-14,-29 -1,19 -14,-24 2,1 4,1 5,4 9,28 66,4 94,27 26,23 5,16 32,20 -11,24 -22,14 1,28 18,-2 20,-1 30,-18 5,-10 9,-12 9,-12 3,-3 15,-12 2,0 0,-61 9,-44 15,-46 -1,-17 -5,-11 -7,-16 -2,-4 -8,-2 3,-5l7 -1c0,0 11,-4 13,-4 40,-16 30,-32 35,-45 6,-13 16,-17 26,-28 2,13 0,13 -6,16l-16 7c12,19 11,22 12,46 1,-1 3,-6 4,-5l11 -11c4,-2 -6,-20 18,2l9 21c1,1 1,3 1,4 2,33 -12,-16 -1,9 28,-5 35,29 84,79 12,13 24,28 41,44 29,29 63,48 95,76 18,15 34,21 56,30 106,46 125,29 198,56 26,9 191,10 231,2 53,-10 86,-19 133,-38 94,-36 25,0 120,-53 -18,-17 7,-10 -35,-10 -17,0 -27,3 -42,8 23,4 17,3 35,7l-21 10c-26,10 -48,20 -76,18 4,-5 11,-8 7,-17 0,-2 -1,-3 -2,-5l-12 -16c43,2 15,7 54,12l-29 -26c21,-6 -8,7 13,-3 13,-7 9,-10 11,-26l96 -17c30,-9 -9,2 7,-1 22,-5 20,-12 15,-28l-4 -18c-13,3 -24,2 -37,-6l-27 -15c32,-20 10,5 33,12 37,10 4,4 23,-5 2,0 4,-1 5,-2l33 -22c13,-5 16,-4 29,-6l-7 -4c-3,-4 -10,-1 0,-8 23,-18 2,8 27,8 11,0 8,0 13,-5 22,-21 10,22 3,-11 -3,-13 -2,-7 -9,-11 21,9 21,17 42,24 2,0 21,3 23,4 9,5 1,-1 3,-2l7 -6c17,-12 5,-2 14,-11 8,-10 26,-25 42,-14 -10,13 -10,-9 -3,-19 20,-29 18,13 3,-34 3,1 7,-1 8,3 3,4 27,16 27,-10 0,-1 -1,-3 -1,-4 -1,-29 9,-28 28,-53l5 -6c14,-13 25,-17 33,-34 18,-37 -9,-27 18,-34 3,-8 -9,-2 13,-11l25 -8c20,-6 30,2 50,-4l-3 26c0,25 -7,-1 3,17l37 -47c1,-1 3,-2 3,-3 1,-1 3,-2 4,-3 44,-41 54,-67 81,-117 19,-37 21,-10 39,-60 32,-93 36,-75 63,-134 24,-54 43,-85 52,-149l-4 -18c-5,23 -1,13 -21,19 -5,-43 -13,-148 25,-180 1,-1 3,-2 4,-3 1,-1 3,-2 4,-3 8,-6 5,-4 14,-9 4,2 20,7 21,7l6 -37 51 -13 12 -59c-14,-15 -24,-22 -46,-38 -69,-51 -41,-182 -57,-199 -46,-26 -51,19 -61,52 -9,30 -30,62 -36,86 -42,-12 -101,-31 -145,-47 -37,-13 -16,-24 -58,-34 -41,-11 -40,3 -63,-24l-6 -10c-132,20 -172,-15 -256,-9l-167 16c-68,6 -16,2 -51,21 -47,-20 -89,-3 -139,7 -26,6 -40,10 -66,20 -10,4 -17,8 -28,11 -76,24 -143,51 -208,95 -19,13 -40,19 -59,33l-141 116c-11,10 -11,8 -22,17 -44,37 -104,118 -135,168 -16,26 -21,40 -44,49 -14,-19 -13,-20 -26,-34 -11,-13 -20,-21 -33,-34 -13,-13 -20,-22 -29,-29 -8,-7 -29,-19 -39,-28 -23,-18 -12,-12 -26,-32 -21,-30 -80,-61 -104,-88 -32,-36 -81,-73 -121,-96l-21 -12c-34,-15 -53,-26 -87,-38 -40,-15 -71,-15 -108,-24 -144,-35 -118,-28 -264,-46l-99 -4c-20,3 -33,10 -52,14 -63,15 -49,-10 -92,-6 -22,3 -27,8 -49,4 -21,-3 -21,-10 -49,-13 -59,-7 -64,-10 -116,6 -7,2 -107,14 -109,14 -25,-19 -12,-14 -30,-43l-34 -48c-19,13 -20,27 -25,44 -16,50 -29,126 -30,179l-9 -8c-30,-36 -4,-19 -29,-37 23,93 11,158 26,221 8,31 20,70 27,98 24,98 64,171 116,252 15,25 35,44 54,71 16,23 37,52 62,61z"/>
   <path class="fil1" d="M16813 5685c22,3 6,-6 40,0l23 36c26,34 17,3 36,43 19,40 68,63 115,102 16,14 67,47 91,46l183 -31c133,-18 211,-48 333,-101l251 -104c18,-8 34,-20 47,-25 48,-21 63,-20 87,-58 16,-25 33,-60 49,-90 29,-56 77,-148 79,-207 1,-69 -10,-58 -27,-112l-220 -13c-48,-5 -175,-23 -216,-18 -19,3 -27,10 -44,16 -100,35 -238,51 -337,77 -154,40 -155,29 -262,107l-25 14c-56,37 -65,72 -81,96l-48 70c-17,24 -3,23 -31,55 -41,47 -51,44 -43,97z"/>
   <path class="fil1" d="M15266 5129c-62,7 -30,34 -27,55 9,69 -6,23 19,122 20,81 39,115 85,171 78,95 166,171 278,235 51,28 114,60 177,80 104,34 46,10 105,21 23,4 69,22 102,28 182,35 102,38 201,57 69,14 56,-7 186,-51 47,-15 29,-25 51,-73 44,-93 66,-128 18,-177 -16,-16 -47,-50 -67,-65 -34,-25 -50,-21 -87,-38l-172 -84c-101,-41 -85,-15 -188,-70 -26,-14 -66,-25 -95,-36 -26,-9 -60,-29 -85,-40 -31,-15 -65,-22 -95,-36 -30,-15 -51,-24 -88,-38 -34,-14 -49,-27 -94,-37 -70,-16 -146,-32 -224,-24z"/>
   <path class="fil2" d="M17302 5283l-119 61 -33 59c-8,27 -5,51 3,74 16,49 -7,30 10,68 19,41 21,26 51,43 31,17 -9,7 58,33l66 20c31,0 74,8 99,-18 11,-11 0,3 8,-12 25,-48 53,-84 34,-163 -8,-35 -11,-38 -28,-64 -23,-34 -33,-92 -80,-104l-69 3z"/>
   <path class="fil3" d="M16044 5615c-45,2 -30,11 -78,5l45 -21 -12 -32c8,-3 20,-6 28,-13 12,-10 7,-5 15,-15l15 -19c-19,-8 -17,-9 -34,-13 9,-5 26,-14 34,-20 -10,-3 -11,-5 -14,-7 -37,-20 -22,-12 -25,-31 -5,-27 4,4 -6,-7l-25 -33c60,-4 40,22 52,0 -21,-26 -81,-24 -101,-33 -61,-29 -38,-42 -111,-21 -70,20 -89,89 -88,152 1,56 -5,29 -18,59 32,16 27,14 40,48l46 -2c25,38 -4,15 36,24 24,5 37,17 49,29 66,-23 12,5 65,-19 39,-18 47,9 87,-31z"/>
   <path class="fil4" d="M15380 5806c15,28 35,39 57,58 133,114 181,101 263,145 23,13 16,13 34,25 17,12 53,22 79,38 41,26 99,71 148,88 -3,-5 -3,0 -3,-10 0,-1 0,-3 0,-4 4,-23 6,-17 13,-24l7 5c0,1 2,3 3,3 14,15 10,18 42,5l1 11c8,25 11,18 26,27 19,11 1,9 27,29 17,-27 -4,-21 35,-28 -1,-1 -3,-3 -3,-2l-16 -16c-14,-19 -7,-12 -17,-32l-23 -35c-44,-45 -35,-37 -74,-45l-18 -8c0,0 -1,-2 -2,-2 -14,-9 -27,-5 -47,-1 10,-33 10,-15 -6,-15 -22,0 -34,-2 -48,-1 -31,2 -46,26 -58,-20l-1 5c-5,17 24,17 -11,12 -19,-3 -3,-7 -29,-24 -5,10 -1,25 -11,15 -12,-11 2,1 -4,-15 -9,-25 6,-8 -16,-27l-11 25c-9,-8 -12,1 -5,-12 11,-18 -2,1 5,-5l14 -9c-29,-5 -69,-39 -90,-26l-5 5c0,0 -2,2 -2,3l-9 10c10,-14 -11,-36 -20,-42 -6,-4 -43,-26 -57,-31 -12,6 11,13 -36,4 4,-16 8,0 6,-17 -5,-35 23,33 -11,-10l-27 -32c-29,-28 -14,-26 -68,-69 4,-22 -16,9 3,-11l17 -13c-54,17 -19,5 -29,3l-23 -14c-3,-3 -11,-14 -12,-20l0 -4c8,-24 4,-1 4,-1l-20 -10c-65,-37 -28,-44 -24,-47 -18,2 -11,4 -28,0 -3,-1 -20,-11 -25,-15 -23,-15 -29,-30 -29,-32 -2,-18 -25,-12 11,30 10,12 10,13 16,24l87 111c0,0 2,1 3,2 16,13 7,-1 15,22 13,35 10,11 2,24z"/>
   <path class="fil5" d="M17633 6304l124 -72c58,-26 23,-3 63,-36 19,-16 47,-25 64,-41l95 -96c25,-26 85,-64 94,-118 -10,-18 -3,8 -3,-17l3 -26c-20,6 -30,-2 -50,4l-25 8c-22,9 -10,3 -13,11 -27,7 0,-3 -18,34 -8,17 -19,21 -33,34l-5 6c-19,25 -29,24 -28,53 0,1 1,3 1,4 0,26 -24,14 -27,10 -1,-4 -5,-2 -8,-3 15,47 17,5 -3,34 -7,10 -7,32 3,19 -16,-11 -34,4 -42,14 -9,9 3,-1 -14,11l-7 6c-2,1 6,7 -3,2 -2,-1 -21,-4 -23,-4 -21,-7 -21,-15 -42,-24 7,4 6,-2 9,11 7,33 19,-10 -3,11 -5,5 -2,5 -13,5 -25,0 -4,-26 -27,-8 -10,7 -3,4 0,8l7 4c-13,2 -16,1 -29,6l-33 22c-1,1 -3,2 -5,2 -19,9 14,15 -23,5 -23,-7 -1,-32 -33,-12l27 15c13,8 24,9 37,6l4 18c5,16 7,23 -15,28 -16,3 23,-8 -7,1l-96 17c-2,16 2,19 -11,26 -21,10 8,-3 -13,3l29 26c-39,-5 -11,-10 -54,-12l12 16c1,2 2,3 2,5 4,9 -3,12 -7,17 28,2 50,-8 76,-18l21 -10c-18,-4 -12,-3 -35,-7 15,-5 25,-8 42,-8 42,0 17,-7 35,10z"/>
   <path class="fil6" d="M15961 6160c12,10 21,20 38,30 207,122 153,60 390,63 10,-24 6,-9 10,-33 -19,-10 1,0 -22,-9 -17,-6 0,-3 -22,-6 -27,-1 -57,-1 -74,1 -16,2 -19,1 -33,5 -1,1 -3,1 -4,2l-21 8c-3,0 -26,3 -27,3 -18,2 5,3 -10,0l-13 -4c-42,-15 -23,-12 -55,-9 1,-30 7,-13 -6,-37 -39,7 -18,1 -35,28 -26,-20 -8,-18 -27,-29 -15,-9 -18,-2 -26,-27l-1 -11c-32,13 -28,10 -42,-5 -1,0 -3,-2 -3,-3l-7 -5c-7,7 -9,1 -13,24 0,1 0,3 0,4 0,10 0,5 3,10z"/>
   <path class="fil7" d="M16044 5615c15,-10 26,-22 34,-43 16,-39 -3,-20 6,-58 13,-54 7,-93 -45,-105 -12,22 8,-4 -52,0l25 33c10,11 1,-20 6,7 3,19 -12,11 25,31 3,2 4,4 14,7 -8,6 -25,15 -34,20 17,4 15,5 34,13l-15 19c-8,10 -3,5 -15,15 -8,7 -20,10 -28,13l12 32 -45 21c48,6 33,-3 78,-5z"/>
   <path class="fil8" d="M16355 6205c22,3 5,0 22,6 23,9 3,-1 22,9 -4,24 0,9 -10,33 29,-8 14,-6 32,-15 34,-17 46,-3 82,-37l7 -7c-23,-14 -12,-4 -1,-28 -27,-4 -6,3 -32,-20 -28,-23 -85,1 -94,-27 -1,-3 -3,-3 -5,-4 13,43 0,-5 14,24l4 12c0,0 1,3 0,5 -16,6 -23,-17 -57,0 22,4 32,4 46,15 -8,28 2,1 -7,6 -1,1 -2,1 -3,1l-20 27z"/>
   <path class="fil9" d="M19053 7255c24,0 44,-2 58,-9 18,22 6,14 20,19 19,-12 26,-29 40,-48 -12,-29 -10,-29 -8,-60 -23,-11 0,2 -14,-1 -21,-6 -20,-17 -64,-30 -1,2 -2,3 -2,6l-30 123z"/>
   <path class="fil10" d="M16540 6176c48,2 74,-14 113,-36 18,-10 16,-14 22,-32 -11,-25 3,24 1,-9 0,-1 0,-3 -1,-4l-9 -21c-24,-22 -14,-4 -18,-2l-11 11c-1,-1 -3,4 -4,5 -1,-24 0,-27 -12,-46l16 -7c6,-3 8,-3 6,-16 -10,11 -20,15 -26,28 -5,13 5,29 -35,45 -2,0 -13,4 -13,4l-7 1c-11,3 -5,1 -3,5 2,5 6,-1 7,16 -6,2 -15,-15 -15,46 13,-12 1,-3 -2,0 0,0 -4,2 -9,12z"/>
   <path class="fil11" d="M18352 5428c28,-37 1,-36 19,-69l5 -8c1,-1 2,-2 2,-4 8,-18 17,-82 17,-106 -1,0 -17,-5 -21,-7 -9,5 -6,3 -14,9 -1,1 -3,2 -4,3 -1,1 -3,2 -4,3 -38,32 -30,137 -25,180 20,-6 16,4 21,-19l4 18z"/>
  </g>
 </g>
</svg>
