<?xml version="1.0" encoding="UTF-8" standalone="no"?>
<!-- Creator: CorelDRAW X8 -->

<svg
   xmlns:dc="http://purl.org/dc/elements/1.1/"
   xmlns:cc="http://creativecommons.org/ns#"
   xmlns:rdf="http://www.w3.org/1999/02/22-rdf-syntax-ns#"
   xmlns:svg="http://www.w3.org/2000/svg"
   xmlns="http://www.w3.org/2000/svg"
   xmlns:sodipodi="http://sodipodi.sourceforge.net/DTD/sodipodi-0.dtd"
   xmlns:inkscape="http://www.inkscape.org/namespaces/inkscape"
   xml:space="preserve"
   width="189mm"
   height="73mm"
   version="1.1"
   style="clip-rule:evenodd;fill-rule:evenodd;image-rendering:optimizeQuality;shape-rendering:geometricPrecision;text-rendering:geometricPrecision"
   viewBox="0 0 18900 7300"
   id="svg730"
   sodipodi:docname="btn-shd-w-rt.svg"
   inkscape:version="0.92.3 (2405546, 2018-03-11)"><metadata
   id="metadata734"><rdf:RDF><cc:Work
       rdf:about=""><dc:format>image/svg+xml</dc:format><dc:type
         rdf:resource="http://purl.org/dc/dcmitype/StillImage" /><dc:title></dc:title></cc:Work></rdf:RDF></metadata><sodipodi:namedview
   pagecolor="#ffffff"
   bordercolor="#666666"
   borderopacity="1"
   objecttolerance="10"
   gridtolerance="10"
   guidetolerance="10"
   inkscape:pageopacity="0"
   inkscape:pageshadow="2"
   inkscape:window-width="1920"
   inkscape:window-height="1017"
   id="namedview732"
   showgrid="false"
   inkscape:zoom="0.75722503"
   inkscape:cx="396.85039"
   inkscape:cy="455.61093"
   inkscape:window-x="-4"
   inkscape:window-y="-4"
   inkscape:window-maximized="1"
   inkscape:current-layer="svg730" />
 <defs
   id="defs375">
  <style
   type="text/css"
   id="style373">
   <![CDATA[
    .fil74 {fill:#0E1030}
    .fil71 {fill:#0E1449}
    .fil23 {fill:#261825}
    .fil52 {fill:#28181B}
    .fil67 {fill:#2B1C24}
    .fil81 {fill:#2B2635}
    .fil15 {fill:#2D232A}
    .fil58 {fill:#2F304F}
    .fil10 {fill:#332531}
    .fil60 {fill:#351B28}
    .fil8 {fill:#352933}
    .fil82 {fill:#36181B}
    .fil40 {fill:#3A242C}
    .fil41 {fill:#3B2433}
    .fil6 {fill:#3B2B34}
    .fil43 {fill:#3C2C3A}
    .fil4 {fill:#3D323B}
    .fil34 {fill:#422C34}
    .fil50 {fill:#432D3B}
    .fil5 {fill:#43333C}
    .fil7 {fill:#443442}
    .fil78 {fill:#45282A}
    .fil26 {fill:#47364A}
    .fil19 {fill:#4A343C}
    .fil11 {fill:#4B3443}
    .fil56 {fill:#4B3B44}
    .fil38 {fill:#4C3C4B}
    .fil54 {fill:#4C424C}
    .fil86 {fill:#4C4555}
    .fil18 {fill:#533C4B}
    .fil46 {fill:#53434C}
    .fil16 {fill:#544453}
    .fil20 {fill:#544B53}
    .fil14 {fill:#563C54}
    .fil73 {fill:#594A65}
    .fil9 {fill:#5B4454}
    .fil13 {fill:#5C4C5A}
    .fil27 {fill:#634C5C}
    .fil45 {fill:#63535C}
    .fil33 {fill:#645463}
    .fil30 {fill:#654857}
    .fil29 {fill:#664C64}
    .fil66 {fill:#68575A}
    .fil21 {fill:#6B5464}
    .fil35 {fill:#6C5B6B}
    .fil76 {fill:#6C6673}
    .fil47 {fill:#705772}
    .fil42 {fill:#735B6C}
    .fil70 {fill:#747089}
    .fil75 {fill:#755867}
    .fil85 {fill:#75656B}
    .fil36 {fill:#786776}
    .fil61 {fill:#846979}
    .fil64 {fill:#887886}
    .fil79 {fill:#8C8389}
    .fil62 {fill:#8D8696}
    .fil59 {fill:#947A88}
    .fil28 {fill:#95878A}
    .fil65 {fill:#978995}
    .fil57 {fill:#9B9399}
    .fil55 {fill:#A28778}
    .fil83 {fill:#A6989A}
    .fil68 {fill:#ABA4A8}
    .fil69 {fill:#B298A9}
    .fil80 {fill:#B6ABB5}
    .fil22 {fill:#B7A9A8}
    .fil72 {fill:#B8D1EB}
    .fil44 {fill:#BBB4B8}
    .fil63 {fill:#C5B5AB}
    .fil25 {fill:#C6B9B8}
    .fil17 {fill:#CBBCB4}
    .fil77 {fill:#CBCCD4}
    .fil39 {fill:#CCC3BA}
    .fil37 {fill:#D5CBC3}
    .fil3 {fill:#DACDC4}
    .fil49 {fill:#DACECB}
    .fil31 {fill:#E2D6D2}
    .fil24 {fill:#E2DDDA}
    .fil84 {fill:#E4D5DA}
    .fil2 {fill:#E5DED9}
    .fil32 {fill:#E9E2DE}
    .fil1 {fill:#EAE5E1}
    .fil53 {fill:#EBEAE5}
    .fil48 {fill:#EDEBE9}
    .fil51 {fill:#F0EDE9}
    .fil12 {fill:#FAFAFA}
    .fil0 {fill:#FEFEFE}
   ]]>
  </style>
 </defs>
 <g
   id="Ebene_x0020_1"
   transform="translate(0,-5663.1764)">
  <metadata
   id="CorelCorpID_0Corel-Layer" />
  <g
   id="_1565570144368">
   <path
   class="fil0"
   d="m 8333,6067 -219,6 -20,14 c -217,-19 -417,54 -613,3 0,0 3,23 -13,39 -112,-39 -283,14 -428,15 -78,1 -169,-13 -237,-6 -62,7 -94,24 -171,18 l -433,5 -549,20 -441,-20 c -32,7 -186,21 -182,-22 -136,-8 -282,23 -359,-33 -40,20 -5,38 -143,32 -258,-10 -275,-39 -408,31 -112,-53 -226,-31 -359,-43 l 24,-1 c -121,-14 -310,-24 -429,-10 l -3,-1 -76,-8 c -30,75 21,15 -67,77 -156,-40 -238,21 -407,23 l -898,39 c -379,84 -166,69 -306,132 -4,5 -11,11 -14,14 l -134,165 -57,18 c -32,211 -69,171 -62,282 4,68 10,243 -17,268 l -7,126 151,-35 c 27,39 42,57 61,86 26,5 77,-76 -44,216 l -28,48 c -53,106 2,49 -81,105 l 2,48 -16,48 -46,43 c 1,103 -51,145 -61,245 l -9,95 -45,68 29,52 -41,103 c -7,88 3,1 -53,41 -12,99 18,49 -56,96 l -2,91 -38,98 c -1,2 -5,7 -8,10 l -16,128 14,32 c -7,11 -26,53 -27,56 -35,61 2,20 -45,51 -10,67 -12,59 36,108 -100,102 -13,62 -99,139 v 54 l 37,18 c -75,72 -70,171 -122,254 -60,96 -30,2 -47,96 l 39,12 c -31,60 -22,90 -53,146 l -6,136 c -21,83 -6,3 -27,26 -94,97 10,462 10,462 6,49 -3,133 -2,191 22,67 29,157 53,215 31,71 97,109 97,201 l 5,48 19,71 262,134 c 106,65 194,73 286,130 132,-24 122,-19 237,14 171,48 92,19 242,0 l 57,55 33,-66 c 315,82 152,5 281,31 70,14 10,16 120,10 267,-14 -138,107 322,-8 218,-55 256,49 553,-55 6,-5 52,-62 80,-77 52,-27 87,-11 135,-73 89,13 85,4 160,49 l 70,54 35,10 c 49,-42 109,-59 182,-72 48,-36 299,-62 397,-53 299,44 357,119 713,100 55,19 0,66 155,18 l 106,1 c 101,6 26,-5 56,36 139,-74 293,-27 458,-57 l 386,3 c 66,-16 135,-43 214,-35 8,0 46,-4 52,-5 l 249,-15 c 55,6 63,20 128,31 -7,-51 61,-33 89,-34 50,-7 272,-25 335,-25 91,7 131,22 188,23 52,1 116,-16 196,-18 l 163,-4 c 57,45 1,9 74,32 l 75,-2 c 107,-21 90,9 183,10 62,0 149,-11 223,-7 106,7 285,12 371,20 73,-3 100,-18 136,-21 54,-5 82,12 146,20 l 162,10 22,17 c 102,-30 56,16 178,-6 l 87,2 48,-19 47,25 c 111,46 439,-15 600,95 68,-69 79,-46 334,6 122,24 168,-28 275,7 250,82 300,39 582,54 l 23,51 c 35,-79 81,-43 416,-42 98,0 103,24 149,33 13,2 129,-1 162,-2 l 437,22 c 74,-11 91,-36 148,14 130,20 99,-1 205,-39 6,4 15,4 18,13 20,50 208,33 245,31 68,-14 139,9 216,7 155,-5 86,-27 225,28 33,-79 96,-41 145,-21 l 61,-54 c 173,93 4,5 201,44 7,-33 -20,-51 66,-77 17,-6 108,-10 132,-11 22,-6 220,35 368,-84 35,14 60,26 119,22 134,-7 21,-6 113,-34 88,-26 23,6 97,-5 15,-2 84,-31 104,-34 50,-9 100,3 140,-1 79,-9 14,-15 109,-41 23,-6 503,-65 700,-133 137,-48 316,-114 462,-162 10,-11 229,-179 236,-184 l 140,-109 65,-129 c 170,-12 161,-80 317,-305 54,-77 10,-117 79,-123 l 52,-109 85,-225 c 22,-48 33,-45 50,-89 22,-55 1,-59 47,-105 l 80,-393 c 1,-101 -3,-122 44,-199 v -46 l 2,-174 c 19,-29 8,-39 28,-59 -60,0 1,9 -30,-39 l 11,-4 c -38,-30 -20,48 -40,-75 -6,-35 -1,-84 0,-122 -18,-81 -13,-76 -15,-170 -2,-46 -2,-132 -6,-166 -7,-102 -44,-303 40,-372 -27,-56 -62,-136 -9,-184 v -84 c -54,-14 -11,-101 -3,-151 l 14,-71 c -59,-81 -29,5 -18,-98 9,-77 14,-30 0,-113 l -42,-28 18,-68 c -8,-92 -15,-94 -71,-158 -92,-86 0,-48 -117,-179 -3,-3 -9,-9 -11,-12 -2,-2 -8,-5 -10,-12 -1,-7 -5,-9 -8,-13 -49,-14 -75,-20 -129,-44 -131,-57 99,48 -35,-16 -186,-89 -238,-65 -315,-123 -88,0 -488,-36 -509,-82 -178,30 -895,-103 -972,-1 -83,-21 -74,-37 -165,-34 -243,8 -258,-41 -356,3 -12,5 -31,24 -34,18 -3,-5 -12,7 -18,9 -113,-66 -234,-28 -383,-27 -158,-20 -272,23 -384,-39 -36,33 31,16 -70,31 0,0 -69,0 -73,0 -53,-1 -125,16 -125,-27 -93,7 -157,18 -259,8 -104,-10 -125,-23 -230,-17 -106,-7 -125,23 -201,-44 l -56,29 c -2,-5 -10,8 -17,15 l -27,-29 c -153,-14 -298,-46 -451,-74 -154,-29 -294,-21 -447,-45 l -223,-6 -134,-20 c -93,-8 -272,19 -322,9 -63,-20 -268,-24 -315,-23 -47,1 -105,-4 -166,-4 -79,0 -89,21 -111,-19 l -79,30 -151,-27 -99,36 c -112,-15 -230,-50 -347,-50 -125,1 -244,15 -376,-12 l -176,7 c -180,-12 -360,-35 -527,-26 l -465,-7 -163,-3 z"
   id="path378"
   inkscape:connector-curvature="0"
   style="fill:#fefefe" />
   <path
   class="fil1"
   d="m 8204,11541 c -64,7 -107,-1 -181,-9 -88,-10 -112,-1 -197,-9 24,50 -23,58 27,41 -301,31 -220,7 -238,-37 -11,6 -21,12 -31,17 -10,5 -18,10 -28,15 -8,3 -14,6 -22,9 -58,18 -357,-19 -422,-25 -63,76 -43,29 -105,49 -72,22 -37,35 -134,53 -172,33 -285,15 -478,19 -55,1 -115,1 -171,4 -143,8 -159,56 -247,65 -74,8 -276,2 -349,-13 -112,-23 -159,-109 -256,-19 -130,-79 -102,-39 -249,-31 -134,7 -143,-29 -219,56 l -52,-69 c -246,26 -194,21 -225,79 -90,-69 -185,-35 -385,-65 65,0 39,3 93,-12 l 46,-33 c -41,3 -235,29 -216,-25 -229,-19 -110,-8 -215,65 -115,-59 -239,7 -405,10 -31,41 -83,38 -145,43 -105,8 -76,-9 -193,17 -72,-32 -157,9 -284,2 l 159,105 c 5,2 11,4 16,7 l 62,35 c 4,3 9,7 14,10 129,83 115,106 118,99 2,-4 7,10 11,15 213,-5 284,74 414,157 l 161,143 c 134,-33 74,3 188,-4 l -28,-76 -159,40 c 40,-90 53,-94 172,-96 51,50 31,58 90,100 l 85,-65 c 2,-8 7,-10 11,-15 l 85,65 c 2,-5 10,7 16,12 -14,66 -8,35 -21,85 80,-6 28,23 69,-33 33,-46 8,-6 24,-72 36,61 9,23 48,63 -17,-117 -18,-100 19,-191 151,20 131,67 202,184 95,7 123,7 181,-18 106,82 19,47 198,78 39,6 36,8 89,15 72,-98 140,-21 262,-37 l 11,-61 159,14 c -7,-123 26,-63 -4,-166 -17,-57 -34,-88 -49,-173 l 85,-145 c -17,94 -19,194 -18,269 76,-67 107,20 118,28 -80,20 -4,-26 -42,25 l -33,62 c 40,-20 31,-16 62,-49 73,108 -68,0 48,29 36,9 12,-2 47,23 -5,5 1,53 -86,40 l -65,-20 c 24,144 7,64 -21,102 5,3 13,7 17,9 l 173,51 c -19,-53 -32,-23 -72,-89 36,-22 -35,-15 78,-30 26,-3 53,2 73,2 88,0 51,10 132,-27 95,-44 125,-65 203,3 159,-136 115,113 409,-26 l 135,69 c 60,-82 18,-84 79,-162 3,5 7,12 9,15 1,2 5,11 6,13 l 24,-24 c 217,-1 38,-21 280,-82 l 4,98 -129,32 c 49,24 70,9 130,12 46,-98 14,-45 66,-88 -3,113 5,185 -29,254 l 39,-3 23,59 c 19,-32 29,44 2,-81 -24,-111 -26,60 -24,-83 2,-149 103,1 2,-223 97,14 97,22 113,121 3,-53 -8,0 35,-21 14,-27 19,-39 24,-91 l -179,-31 c -93,-13 -164,-49 -253,-33 5,-4 11,-8 15,-11 3,-2 11,-7 15,-10 5,-3 24,-15 30,-19 23,-14 39,-26 61,-41 l 39,36 c 11,5 15,38 109,-35 -12,-54 16,10 -18,-56 l -36,-43 c 84,2 58,3 121,17 l 17,38 c 3,7 10,33 13,40 12,36 10,38 24,68 62,-9 89,-8 105,-64 l -91,-24 c 47,-81 29,-57 124,-31 l -2,-92 104,-23 c 7,65 3,21 23,68 9,20 7,-5 21,54 -23,13 -14,8 -33,13 -9,3 -5,-3 -36,7 4,3 11,7 14,9 l 143,121 c 26,22 28,19 57,42 -10,28 28,32 -38,57 79,53 39,46 86,125 l 39,-62 c -4,-3 -11,-7 -13,-8 l -44,-31 c -3,-9 -11,-9 -16,-13 l 114,-20 c -62,-98 -168,-131 -176,-241 82,43 66,15 113,94 26,-115 -8,-19 99,-98 4,5 9,12 12,15 l 52,53 c 83,10 115,13 174,-19 -7,98 10,16 -23,105 l -65,-47 c 77,108 62,44 150,103 3,-105 36,-22 -48,-76 l 32,-92 c 5,6 10,14 13,17 37,44 9,71 97,37 -12,120 -36,71 22,141 72,-145 -72,112 36,-46 22,-32 20,-9 24,-66 l -12,-68 c 4,-4 9,-9 14,-12 47,-32 154,-17 84,86 -21,31 1,-4 -30,23 l -31,20 c 167,4 -1,-14 130,61 38,21 48,3 133,10 l 20,-128 c 103,20 42,7 91,41 35,26 3,20 55,30 12,-109 -4,-28 28,-66 159,-10 43,-26 171,-69 l 48,149 -95,-23 v 74 l -123,-17 c -3,0 -9,3 -12,4 -3,1 -9,6 -12,6 -2,1 -8,5 -11,6 l -92,21 c 72,25 127,21 177,-9 -24,59 -9,40 -66,66 116,12 146,-14 242,-16 -5,5 -12,12 -14,15 -3,3 -11,11 -13,15 l -25,38 c 103,-13 6,-3 75,-31 l 37,-14 c 8,-2 18,-2 24,-3 7,-2 48,-3 56,-3 -17,81 -25,127 16,196 66,-10 140,-29 161,-85 -124,76 -133,8 -162,-26 67,-49 34,15 148,-73 57,-43 29,9 71,-28 19,-17 26,-49 39,-74 l 54,53 c 1,-4 6,9 9,13 74,-22 15,-33 97,-18 l 63,184 28,56 c 56,120 -23,-30 20,45 l 87,-66 c -31,-31 -24,-16 -38,-76 130,-130 76,-31 226,-84 l -5,59 c 7,-2 45,-12 48,-12 45,0 27,6 51,18 -25,24 1,16 -62,44 -11,5 -45,12 -65,20 66,25 100,26 157,49 -41,-106 -29,-93 56,-140 l 85,139 c 11,-40 8,-32 24,-52 -72,-9 -26,1 -66,-43 l 1,-95 c 136,-2 129,-52 339,-28 l 49,-68 23,76 95,-17 9,132 187,4 c -2,-5 -7,-11 -9,-14 -2,-3 -8,-10 -10,-14 l -20,-28 c -36,-88 13,10 -5,-78 -19,-86 -66,2 -11,-135 l 24,32 c 2,3 8,12 10,14 3,4 13,18 17,25 2,-3 21,-31 24,-35 l 145,39 93,-22 c 60,-18 23,10 54,-47 l 28,91 71,-51 c 14,50 -1,33 25,59 60,62 -43,-65 44,19 75,71 -43,103 89,117 -12,-25 -134,-165 98,-145 127,11 40,8 73,32 -18,8 -16,5 -38,8 l -94,27 c 99,90 -22,103 91,93 -23,-73 -13,20 -22,-43 -11,-72 -12,-21 23,-61 l 111,111 c 3,-6 14,-43 -7,-62 l 128,-25 c 74,157 17,57 136,190 -94,39 -92,129 -147,15 l -58,84 73,94 c -5,3 -13,7 -16,9 -3,2 -12,7 -15,10 l -43,29 c 5,2 -17,46 50,5 77,-46 15,-85 119,-101 -40,77 -26,17 -44,90 117,8 83,-21 130,-119 l 48,77 c 24,-55 1,-108 -21,-143 -15,-24 -6,4 -27,-55 l 143,-14 -64,-74 c -18,-26 -36,-63 -45,-83 -55,-14 -43,-12 -75,-42 85,-41 43,2 113,-25 -91,-54 -69,3 -93,-75 119,-30 175,56 334,52 l -49,50 c -25,29 -22,33 -34,60 -67,-14 -21,17 -71,-24 -1,22 -6,32 -3,61 4,51 6,24 17,43 l 120,-143 47,164 c 0,3 0,11 0,13 l 120,-61 c 7,3 14,8 18,10 60,41 47,50 134,42 l -8,49 c 120,-42 120,-4 170,99 l 60,-45 c 9,13 -3,2 25,30 50,51 2,-15 56,55 54,-39 35,-13 54,-86 l 58,61 129,-118 70,55 c -26,55 -58,63 -130,85 74,22 24,17 101,9 l 37,122 -75,45 c 124,-6 54,-6 83,-27 52,-37 -58,7 57,-40 119,156 39,51 162,101 l 169,85 58,-39 c 2,-8 4,-35 5,-43 l 71,56 c 55,-41 41,-11 101,-42 l -109,-71 c 74,11 105,19 162,50 80,45 61,54 99,115 111,-84 -15,37 18,-120 l 142,113 c 13,-176 55,-157 68,-221 2,-9 8,-10 12,-15 53,29 62,42 120,68 l 46,-69 c 17,61 2,44 50,72 50,-15 56,-22 95,-43 l 23,61 c 0,-2 0,6 1,8 75,23 10,12 93,20 -35,-42 -26,-77 3,-113 l 84,108 c 88,10 63,18 132,-12 19,-8 73,-36 91,-47 -28,-100 -26,-25 -67,-127 91,30 88,46 162,-10 -49,-42 -27,-28 -47,-74 -44,54 -36,-67 -37,62 10,-107 4,-58 -65,-90 -31,49 -43,89 -81,137 l 33,-78 c -8,3 -40,15 -47,17 -7,1 -14,4 -22,5 l -89,-18 c -167,-53 97,15 -47,-12 -27,26 -34,4 -48,52 -92,3 -9,19 -94,-19 l -17,94 -54,-29 c -5,-1 -46,-5 -52,-6 2,-8 30,30 -5,-16 -50,-65 -48,-14 -65,-128 l 127,-46 c 103,-32 51,-48 160,-35 l 48,-81 c 122,30 204,-26 297,-51 l 15,44 c 43,-43 67,-51 59,-128 -59,13 -1,4 -84,35 12,-64 7,-38 24,-102 -105,84 -67,68 -235,97 70,-159 -175,-127 -200,-116 34,85 -46,-29 17,31 2,2 9,6 11,8 2,1 9,2 11,3 33,22 11,-30 30,38 l -79,2 -12,-104 c -106,-15 -27,10 -66,-32 l -118,26 c -4,-3 -10,-7 -15,-9 l -112,-13 c 3,8 14,31 16,38 l 7,80 c -54,-59 -40,-46 -240,24 22,70 12,46 73,76 -53,32 -32,39 -87,-4 -68,-55 -6,-94 -167,-53 -15,-35 -27,-90 -47,-155 -48,8 -126,19 -129,23 -36,-76 -6,-50 16,-115 l -26,50 -85,-42 c -51,104 6,49 -57,77 -2,1 -100,3 -39,49 -70,34 88,68 -85,12 -17,-5 -36,-36 -47,-50 -71,36 -42,49 -137,5 -15,116 29,-43 -126,175 1,-90 8,-15 -8,-72 l -29,-38 c -31,4 38,14 -47,3 l -136,-33 c 28,-96 21,-32 17,-125 -103,15 -68,-1 -148,-13 -77,-12 -93,11 -165,11 l -647,-29 c -96,-4 -174,-67 -286,3 l -58,-33 c -2,-8 -9,-8 -14,-13 -152,9 -157,22 -289,10 -348,-33 -176,12 -606,-57 -278,-44 -138,0 -256,10 -88,8 -207,-54 -283,-53 -238,4 -82,4 -251,-34 -54,-11 -71,14 -136,9 -84,-7 -35,-33 -113,-34 -68,0 -19,20 -133,-4 -89,-19 -75,-19 -161,-2 -30,-22 -44,-30 -72,-53 -77,26 -98,55 -197,27 -100,-27 -55,7 -167,-11 l -163,-47 -239,-17 c -90,30 -118,8 -206,-21 -116,-35 -108,-20 -235,11 z"
   id="path380"
   inkscape:connector-curvature="0"
   style="fill:#eae5e1" />
   <path
   class="fil2"
   d="m 17851,8236 c -31,36 -12,1 -34,56 -2,5 -3,41 -4,49 l 54,13 72,-219 c 121,18 19,-13 101,33 -34,-44 -54,17 -21,-60 21,-48 99,-36 113,-35 45,5 37,5 76,25 -53,36 72,34 -101,26 32,164 -50,-26 -55,193 l 117,49 -17,125 c -60,-24 -44,-36 -71,-58 -15,-12 -27,-14 -53,-20 -34,67 21,44 -81,75 11,65 5,22 17,93 -113,-34 -40,-12 -129,5 l 3,66 31,37 c -10,69 -18,71 -36,134 l 66,93 c -5,22 -37,109 -37,111 -2,10 25,129 -33,353 8,42 11,52 22,87 -32,29 -34,28 -48,69 l -23,61 c 119,-3 33,-11 96,8 36,11 21,17 37,29 -80,63 -25,11 -70,100 l -99,-13 c 19,90 -7,2 75,105 l -102,80 c -3,-5 -12,9 -18,14 l -47,21 c 0,0 -45,142 -46,145 -34,74 -41,15 -69,125 -16,61 -6,67 -47,124 l -104,114 2,91 c 32,90 -9,92 103,94 l -79,244 c -88,38 -10,23 -77,-19 l -70,-27 c 24,-68 36,-52 6,-110 -40,21 -20,-14 -46,43 -15,34 -5,51 -5,58 l -67,120 34,102 61,-9 -7,130 c 63,-90 -1,-60 147,-70 l -63,130 c 53,12 76,22 85,71 6,34 -42,44 -93,86 l 61,41 c 0,1 -4,3 -3,4 6,37 -19,25 23,45 l -57,27 -87,-42 c -5,0 -13,-1 -17,-1 l -48,47 c -40,-88 23,5 -55,-68 -21,90 -56,95 -60,160 -6,83 40,94 32,181 l -101,-3 -48,83 c -22,-15 -29,-17 -72,-36 -75,48 -26,65 -143,20 l 1,118 c -118,62 -52,48 -187,19 -29,29 -40,19 -188,46 l -10,-2 c -43,44 3,5 -49,34 l -56,34 c -67,51 -48,26 -53,92 97,50 52,-31 135,64 -64,16 -51,-20 -119,-17 -71,3 -17,37 -147,-2 -40,50 -29,58 -114,60 61,-73 44,-11 41,-136 l -106,49 -83,-86 -85,84 c 51,115 11,29 71,95 l -9,49 c 66,31 50,-54 56,38 82,-9 20,-9 123,-21 41,38 44,36 84,88 216,-52 197,-180 479,-92 9,-10 50,-53 51,-54 l 45,-90 38,96 c 39,-76 39,-27 112,-102 l 59,-83 249,-28 c 53,-72 71,-110 144,-84 0,-153 -36,-6 70,-124 3,-3 9,-6 11,-15 2,-9 8,-11 12,-16 4,4 11,10 14,12 2,2 10,10 13,12 l 38,-142 118,-3 c -21,-33 -17,-5 -14,-60 11,-198 -10,-52 -24,-133 -2,-11 -8,-13 -11,-19 115,-1 65,7 122,-48 80,-77 125,-153 185,-271 l -140,12 c 51,-109 54,-2 109,-91 50,17 31,6 61,38 9,-83 -8,-32 31,-90 l 53,-65 c 58,-83 21,-70 57,-151 -22,-26 -7,-5 -29,-31 -8,-10 -20,-7 -25,-33 -3,-11 -10,-13 -14,-20 134,14 113,34 152,-79 26,-74 43,-92 62,-152 21,-63 11,-40 41,-84 41,-60 41,-134 14,-227 118,3 56,11 145,-28 l 61,-145 c 32,-68 21,-64 1,-135 36,-59 -5,-16 64,-72 -2,-8 -12,-32 -13,-38 -1,-4 -4,-12 -4,-17 l 5,-56 c -118,44 95,-45 -38,20 -15,8 5,5 -55,23 59,-199 54,-72 68,-204 l 28,27 c 57,32 88,-294 91,-330 29,-385 31,-246 -24,-463 113,-78 105,-34 75,-216 108,46 53,-6 111,92 15,-58 33,-32 -20,-94 80,7 94,12 153,24 v -151 c -71,36 -102,24 -199,28 26,-35 -19,-15 52,-63 69,-47 29,35 112,-43 -55,-80 -27,-4 -74,-77 -39,-61 65,7 -64,-62 l 22,-164 c -16,-2 -45,-7 -61,-12 -79,-26 -43,-112 -13,-164 -163,-195 -14,-34 -92,-182 -100,-191 -104,-248 -191,-223 22,-109 20,-82 -50,-139 -119,-97 -182,-235 -311,-272 20,95 43,79 44,173 0,54 -13,133 -12,211 -28,32 66,-38 -11,6 l -30,18 c 97,230 -22,151 -7,302 l 3,31 c 11,80 -2,41 49,73 -5,4 -13,8 -15,11 -3,3 -12,8 -14,12 -3,3 -9,8 -11,11 -28,45 -7,82 -14,165 -9,103 -63,136 -23,188 z"
   id="path382"
   inkscape:connector-curvature="0"
   style="fill:#e5ded9" />
   <path
   class="fil3"
   d="m 16985,11084 c -61,19 1,-21 -63,50 -71,80 -78,56 -120,71 -47,15 -48,25 -53,29 39,70 1,19 86,82 -64,17 -26,-6 -82,26 -47,28 12,-19 -35,41 -17,217 6,-13 30,122 1,-15 73,30 -12,-27 l -37,-11 c -78,-4 -27,-4 -100,22 -47,205 -20,164 36,245 -100,-2 -37,-9 -109,18 l 5,-17 c 1,0 72,-89 -52,-90 -41,0 -44,-12 -57,64 -7,-2 -52,-9 -62,-12 -68,-17 -5,6 -50,-19 -54,41 -16,62 -119,29 -65,-20 -67,-41 -81,-94 3,57 8,2 -34,19 l -101,-23 c -28,19 -71,51 -76,53 l -189,104 c 4,4 12,9 15,12 3,2 11,8 15,10 3,3 10,8 13,11 44,40 -1,-21 29,39 -113,49 -65,22 -101,120 l -11,24 -152,11 c -27,-35 -17,-52 -103,-77 -93,-28 -82,7 -163,3 l -1,-81 c -71,-41 -10,-25 -73,-45 -10,-4 -39,-4 -45,-5 l -29,-3 c -163,-6 -56,63 -200,5 140,-179 36,94 129,-107 -258,29 -151,18 -198,-8 l -34,69 c -131,-64 -1,-29 -145,37 l -47,-28 c -75,27 -155,65 -239,46 -60,-13 -26,4 -57,-34 -32,57 -19,53 -87,65 l -241,20 -18,41 c -72,-24 -50,-27 -133,-21 -22,65 -52,39 -16,115 3,-4 81,-15 129,-23 20,65 32,120 47,155 161,-41 99,-2 167,53 55,43 34,36 87,4 -61,-30 -51,-6 -73,-76 200,-70 186,-83 240,-24 l -7,-80 c -2,-7 -13,-30 -16,-38 l 112,13 c 5,2 11,6 15,9 l 118,-26 c 39,42 -40,17 66,32 l 12,104 79,-2 c -19,-68 3,-16 -30,-38 -2,-1 -9,-2 -11,-3 -2,-2 -9,-6 -11,-8 -63,-60 17,54 -17,-31 25,-11 270,-43 200,116 168,-29 130,-13 235,-97 -17,64 -12,38 -24,102 83,-31 25,-22 84,-35 8,77 -16,85 -59,128 l -15,-44 c -93,25 -175,81 -297,51 l -48,81 c -109,-13 -57,3 -160,35 l -127,46 c 17,114 15,63 65,128 35,46 7,8 5,16 6,1 47,5 52,6 l 54,29 17,-94 c 85,38 2,22 94,19 14,-48 21,-26 48,-52 144,27 -120,-41 47,12 l 89,18 c 8,-1 15,-4 22,-5 7,-2 39,-14 47,-17 l -33,78 c 38,-48 50,-88 81,-137 69,32 75,-17 65,90 1,-129 -7,-8 37,-62 l 26,-32 c 97,-154 31,53 217,-89 l 49,81 c 88,-28 195,-39 294,-18 l -6,-18 9,-49 c -60,-66 -20,20 -71,-95 l 85,-84 83,86 106,-49 c 3,125 20,63 -41,136 85,-2 74,-10 114,-60 130,39 76,5 147,2 68,-3 55,33 119,17 -83,-95 -38,-14 -135,-64 5,-66 -14,-41 53,-92 l 56,-34 c 52,-29 6,10 49,-34 l -164,-23 75,-82 c 4,-4 12,-9 17,-14 49,60 26,44 100,79 l -18,42 c 148,-27 159,-17 188,-46 135,29 69,43 187,-19 l -1,-118 c 117,45 68,28 143,-20 43,19 50,21 72,36 l 48,-83 101,3 c 8,-87 -38,-98 -32,-181 4,-65 39,-70 60,-160 78,73 15,-20 55,68 l 48,-47 c 4,0 12,1 17,1 l 87,42 57,-27 c -42,-20 -17,-8 -23,-45 -1,-1 3,-3 3,-4 l -61,-41 c 51,-42 99,-52 93,-86 -9,-49 -32,-59 -85,-71 l 63,-130 c -148,10 -84,-20 -147,70 l 7,-130 -61,9 -161,90 z"
   id="path384"
   inkscape:connector-curvature="0"
   style="fill:#dacdc4" />
   <path
   class="fil4"
   d="m 9396,11327 -14,91 -150,-17 c -63,201 4,-72 -69,95 -6,6 -26,28 -31,34 -5,6 -21,30 -26,36 -18,21 -48,42 -59,49 112,18 67,-16 167,11 99,28 120,-1 197,-27 28,23 42,31 72,53 86,-17 72,-17 161,2 114,24 65,4 133,4 78,1 29,27 113,34 65,5 82,-20 136,-9 169,38 13,38 251,34 76,-1 195,61 283,53 118,-10 -22,-54 256,-10 430,69 258,24 606,57 132,12 137,-1 289,-10 5,5 12,5 14,13 l 58,33 c 112,-70 190,-7 286,-3 l 647,29 c 72,0 88,-23 165,-11 80,12 45,28 148,13 163,15 307,12 467,17 -30,-106 -79,-98 -121,-132 4,-43 -16,-11 23,-71 l -58,-96 c 227,101 72,64 111,139 23,43 72,16 128,5 -54,171 -48,33 0,141 l -23,8 110,63 c 63,-28 6,27 57,-77 l 85,42 26,-50 c 25,-38 35,-54 57,-85 l 48,91 46,-26 241,-20 -96,-159 c -7,-2 -66,-11 -74,-11 -93,-3 -5,-6 -68,11 l 32,-89 c -197,-39 -28,49 -201,-44 l -61,54 c -29,38 -17,30 -51,61 l -47,34 c -2,-5 -12,8 -18,12 l 56,-123 -85,37 c -139,-55 -70,-33 -225,-28 -77,2 -148,-21 -216,-7 -57,33 -42,75 -210,4 6,58 34,82 -44,123 -11,6 -22,3 -108,21 -28,-124 -2,-87 -106,-153 -57,-50 -74,-25 -148,-14 l -437,-22 c -33,1 -149,4 -162,2 -46,-9 -51,-33 -149,-33 -335,-1 -381,-37 -416,42 l -23,-51 c -282,-15 -332,28 -582,-54 -107,-35 -153,17 -275,-7 -255,-52 -266,-75 -334,-6 -161,-110 -489,-49 -600,-95 l -71,-21 c 28,112 55,71 -24,89 v -74 z"
   id="path386"
   inkscape:connector-curvature="0"
   style="fill:#3d323b" />
   <path
   class="fil5"
   d="m 726,8811 c 38,45 57,-75 26,91 l -55,-34 c -36,113 -131,337 -123,462 74,37 59,9 97,102 l -126,-28 -60,111 c 4,230 -30,134 -85,374 -18,79 -34,75 -17,271 -11,147 14,157 45,289 l -48,-6 c 27,79 53,161 72,222 15,51 18,212 62,224 l 46,39 57,-65 c -122,26 -43,28 -73,-31 19,-92 -9,-62 74,-55 3,-34 -6,-18 49,-17 l -55,-200 c 118,31 42,-20 100,57 -1,-58 8,-142 2,-191 0,0 -104,-365 -10,-462 21,-23 6,57 27,-26 l 6,-136 -55,5 c -39,-72 -18,-35 -27,-138 -9,140 -10,24 48,72 17,-121 2,-63 48,-97 17,-94 -13,0 47,-96 52,-83 47,-182 122,-254 l -37,-18 -89,37 c 96,-162 -36,-111 89,-140 v 49 c 86,-77 -1,-37 99,-139 -48,-49 -46,-41 -36,-108 l -42,-36 c 61,-82 51,-17 50,-147 16,85 9,10 50,44 l 16,-128 -52,-5 c 2,-4 7,-10 9,-15 21,-49 -26,-29 29,-111 l 60,23 2,-91 -50,11 c 72,-64 27,-62 54,-155 27,-16 -35,-43 46,0 13,-140 -43,-44 100,-96 l -29,-52 45,-68 9,-95 -54,25 c -4,-5 -14,7 -18,13 -31,-51 -19,-8 -30,-87 -38,30 -26,30 -42,96 -94,24 -7,123 -87,23 -22,-27 -17,-71 -17,-94 -1,-41 84,-16 -9,-37 -33,23 -23,-14 -58,84 -13,37 -24,77 -33,114 -38,155 21,88 -55,205 -51,77 -93,310 -114,415 z"
   id="path388"
   inkscape:connector-curvature="0"
   style="fill:#43333c" />
   <path
   class="fil6"
   d="m 14218,11494 c -28,46 -34,29 8,129 -75,6 -86,32 -123,11 -49,-26 10,-35 -83,-52 l -32,89 c 63,-17 -25,-14 68,-11 8,0 67,9 74,11 l 96,159 c 68,-12 55,-8 87,-65 21,-25 14,-13 35,-42 33,-49 8,-50 94,-104 l 17,32 c 3,4 9,13 13,18 l 36,42 c 48,-78 89,-19 101,42 l 47,28 c 144,-66 14,-101 145,-37 l 34,-69 c 47,26 -60,37 198,8 l 76,-62 c 86,11 40,-15 74,52 l 28,-24 c 49,-25 6,-11 93,-3 l 57,-2 9,-38 57,17 c 23,-49 -4,-41 80,-58 104,-22 66,11 78,45 l 79,-5 27,-50 189,-31 -1,-44 c 60,-58 -74,-49 69,-49 -106,11 -27,18 -91,-48 118,5 15,-13 117,-27 83,-11 39,24 113,-26 l 22,53 c -2,1 -6,2 -6,2 -1,0 -7,1 -8,2 -65,29 -49,51 -54,41 -4,-7 -12,18 -18,26 l 103,-30 c 99,21 467,-105 493,-121 l 90,-78 c -2,-55 -63,-110 -113,-135 l -166,-68 c -146,48 -325,114 -462,162 -197,68 -677,127 -700,133 -95,26 -30,32 -109,41 -40,4 -90,-8 -140,1 -20,3 -89,32 -104,34 -74,11 -9,-21 -97,5 -92,28 21,27 -113,34 -59,4 -84,-8 -119,-22 -148,119 -346,78 -368,84 z"
   id="path390"
   inkscape:connector-curvature="0"
   style="fill:#3b2b34" />
   <path
   class="fil5"
   d="m 2440,5814 c -171,-13 -64,45 -215,39 -50,-3 -111,-20 -181,-24 -14,13 5,21 -48,36 -65,20 -13,19 -52,-17 -111,-23 -44,-12 -94,6 l 17,110 c 66,-45 123,-58 262,-66 -75,85 96,71 -95,71 l 45,41 c 44,56 1,-58 4,10 l -138,-41 c -135,50 -168,17 -295,14 l -7,-68 c 0,-5 6,-9 7,-21 0,-11 6,-13 9,-21 l -58,7 -70,7 c 14,81 23,41 -11,111 -26,-47 -12,-53 -90,3 l -80,71 c -3,-4 -10,9 -14,14 102,2 62,-30 146,-7 l -191,116 95,76 c -62,35 9,-4 -95,28 l 119,-6 -57,127 c 114,-18 76,3 117,-39 2,-2 8,-10 12,-14 h 114 c 140,-63 -73,-48 306,-132 l 898,-39 c 169,-2 251,-63 407,-23 88,-62 37,-2 67,-77 l 76,8 c -82,-76 -44,-52 -147,-63 93,-10 97,5 139,-88 6,-16 22,-58 32,-81 l -125,6 -74,19 9,37 c -17,79 -21,42 1,100 -76,-61 -130,-24 -141,-44 -4,-8 -14,-4 -26,-9 l 45,-74 c -44,-5 -44,42 -76,-8 -9,-14 -12,-24 -19,-38 l 148,31 c -30,-30 11,-11 -52,-21 -36,-6 -45,-1 -97,-11 l -34,-54 c -92,62 -37,56 -34,76 1,5 17,46 20,53 -85,-21 -67,-22 -141,-21 -32,103 7,9 -43,77 -29,39 -21,24 -38,58 l -45,-53 c -2,-7 -7,-8 -10,-13 l 86,-48 c -124,-27 -117,32 -171,74 -42,32 -13,19 -61,12 57,-38 27,-20 56,-66 l -217,-44 c 59,-69 -30,-37 105,-34 z"
   id="path392"
   inkscape:connector-curvature="0"
   style="fill:#43333c" />
   <path
   class="fil7"
   d="m 669,10994 11,78 -87,48 -15,25 c 56,87 -6,32 54,72 36,-65 -55,22 60,-74 l 76,53 c 15,10 21,13 41,20 47,14 13,-4 18,-7 -14,69 -9,44 -98,58 l 22,46 -20,74 c 152,41 24,27 114,79 l 379,142 523,95 c 138,1 64,1 186,45 l 124,-30 c 98,-13 85,-47 85,-47 -78,-71 77,-39 -107,-48 7,-6 18,-23 21,-18 2,4 13,-13 17,-18 l 20,-39 c 2,-5 3,-14 4,-21 4,8 8,11 11,24 l 45,69 c 40,26 96,21 104,-71 l -8,-46 c -27,-8 49,-73 -144,24 -69,-28 -78,-28 -135,-42 l -57,-55 c -150,19 -71,48 -242,0 -115,-33 -105,-38 -237,-14 -92,-57 -180,-65 -286,-130 l -262,-134 c -72,13 -64,2 -96,-10 l 77,-61 -5,-48 -27,-81 c -233,69 21,123 -135,10 z"
   id="path394"
   inkscape:connector-curvature="0"
   style="fill:#443442" />
   <path
   class="fil4"
   d="m 3279,11397 c -297,104 -335,0 -553,55 -460,115 -55,-6 -322,8 -110,6 -50,4 -120,-10 -129,-26 34,51 -281,-31 l -33,66 c 57,14 66,14 135,42 193,-97 117,-32 144,-24 l 8,46 c -8,92 -64,97 -104,71 l -45,-69 c -3,-13 -7,-16 -11,-24 -1,7 -2,16 -4,21 l -20,39 c -4,5 -15,22 -17,18 -3,-5 -14,12 -21,18 184,9 29,-23 107,48 0,0 13,34 -85,47 l 63,37 c 205,-54 219,-1 390,-22 163,-20 244,9 413,5 127,7 212,-34 284,-2 117,-26 88,-9 193,-17 62,-5 114,-2 145,-43 l -60,-49 c -2,-6 -9,-3 -13,-4 17,-14 9,-26 50,-31 65,-7 59,39 126,51 -79,-121 -116,12 -51,-166 -7,3 -17,7 -22,9 l -77,41 c -7,-189 8,-8 -53,-149 z"
   id="path396"
   inkscape:connector-curvature="0"
   style="fill:#3d323b" />
   <path
   class="fil8"
   d="m 1001,7161 c -25,76 -39,90 -59,139 -80,194 -22,266 -85,413 l 60,77 c 16,-119 15,-39 34,-72 9,163 -7,53 52,96 6,-7 15,-25 18,-20 3,4 13,-14 16,-20 l 38,-71 61,74 -79,110 c 84,2 60,25 84,118 11,79 -1,36 30,87 4,-6 14,-18 18,-13 l 54,-25 c 10,-100 62,-142 61,-245 l -1,-80 c -70,14 -46,5 -85,39 -40,34 12,19 -44,42 -15,-32 -13,-5 -14,-58 0,-22 5,-37 6,-85 l 29,20 c 55,29 -19,10 20,7 94,-165 -26,-32 75,-197 41,53 34,63 45,125 -30,-38 -4,-17 -1,-8 0,1 4,8 5,9 13,49 -12,44 27,95 l -2,-48 c 83,-56 28,1 81,-105 l 28,-48 c 121,-292 70,-211 44,-216 l -125,82 c 10,53 22,29 -3,101 l -132,1 c 31,-61 19,-21 60,-60 121,-116 34,-56 36,-71 1,-11 4,-15 6,-22 l -100,67 c -6,-60 6,-102 5,-122 -3,-86 -9,-2 -35,-134 60,-15 20,6 83,-19 27,-25 21,-200 17,-268 -7,-111 30,-71 62,-282 l 57,-18 c -61,-72 123,-51 -53,-51 -24,-23 -48,-32 -83,-39 l 21,49 c -171,-44 90,129 -150,18 36,34 28,9 30,51 0,1 -17,72 7,152 -92,49 -75,19 -75,159 l -18,96 c 76,-21 21,-30 57,32 -51,45 80,22 -61,39 21,7 8,-9 15,27 24,121 1,87 -23,113 -61,-13 -33,21 -41,-61 z"
   id="path398"
   inkscape:connector-curvature="0"
   style="fill:#352933" />
   <path
   class="fil9"
   d="m 4093,11399 c 63,53 -77,64 72,41 49,59 39,11 49,64 l -20,-4 20,73 c 14,-5 40,-12 50,-17 l 32,-17 c 79,-43 25,-33 106,-31 144,3 27,41 211,47 -8,3 -18,3 -22,15 -3,13 -17,15 -21,19 -5,4 -14,16 -22,23 l 599,-2 19,-69 c 118,-2 35,3 67,-29 86,38 35,36 136,30 l -29,56 198,8 c 31,-133 29,-95 165,-75 7,1 12,0 20,1 115,17 6,-27 143,43 -44,-87 -8,-44 -63,-107 200,73 48,25 108,-37 l -30,-30 c -19,-22 -36,-46 -55,-68 -165,30 -319,-17 -458,57 -30,-41 45,-30 -56,-36 l 5,118 c -169,5 -112,-6 -147,-49 28,-12 15,-1 36,-70 -155,48 -100,1 -155,-18 -356,19 -414,-56 -713,-100 v 46 c -8,-9 56,-33 -25,-12 -39,11 -17,33 -55,90 -73,0 -165,-25 -165,40 z"
   id="path400"
   inkscape:connector-curvature="0"
   style="fill:#5b4454" />
   <path
   class="fil10"
   d="m 17267,10172 c -69,6 -25,46 -79,123 -156,225 -147,293 -317,305 l -65,129 c 29,86 -8,37 50,88 l -111,15 -4,119 c -100,-50 10,-7 -75,-113 -7,5 -226,173 -236,184 l 166,68 c 50,25 111,80 113,135 l 40,9 c 5,-4 6,-14 53,-29 42,-15 49,9 120,-71 64,-71 2,-31 63,-50 l 25,-108 c 8,-1 23,1 71,9 7,-65 9,-91 139,-162 0,-7 -10,-24 5,-58 26,-57 6,-22 46,-43 53,-184 89,-126 100,-165 3,-11 12,-11 17,-17 l -2,-91 h -52 c 2,-5 5,-12 7,-15 57,-95 20,47 44,-62 3,-11 10,-12 14,-19 -42,-47 6,-30 -48,-46 45,-41 -6,-30 54,-27 l 58,24 -20,-238 -98,54 c 60,212 32,69 -4,126 z"
   id="path402"
   inkscape:connector-curvature="0"
   style="fill:#332531" />
   <path
   class="fil11"
   d="m 14507,6224 -65,9 c 38,95 44,42 0,124 149,-1 270,-39 383,27 6,-2 15,-14 18,-9 3,6 22,-13 34,-18 98,-44 113,5 356,-3 91,-3 82,13 165,34 77,-102 794,31 972,1 93,-9 15,-24 108,30 4,-7 9,-27 12,-22 l 43,-42 c 60,-66 30,78 28,-61 48,-40 26,16 3,-29 l -21,-31 c -25,-55 -8,1 -17,-65 l -24,-39 c -148,13 -112,23 -242,-19 -1,222 -32,167 -117,194 -19,-155 -21,-42 32,-128 -83,30 -103,22 -139,92 -31,-82 3,-30 -70,-59 l 13,95 c -96,-30 -8,-38 -139,-5 -20,-114 30,-61 -52,-53 l 24,-83 c 0,0 -80,-13 76,-25 -23,146 -40,39 0,97 l 16,-101 181,-23 -278,-20 -63,87 c -32,40 -8,18 -56,41 l 26,-68 c -107,28 -73,9 -146,73 -69,-28 -49,-13 -75,-58 l 21,81 c -135,-27 -124,-8 -162,-78 -151,92 -83,15 -96,9 -1,-8 -3,-19 -3,-23 0,-4 -1,-16 -1,-19 1,-2 3,-11 4,-12 24,-61 19,6 24,12 -40,0 -23,7 -23,-45 l -241,-3 -180,16 c 30,25 25,29 66,44 l -84,113 c -5,-2 -14,-8 -18,-10 l -47,-43 c 58,11 -5,18 30,-6 59,-41 32,-29 -3,-31 l 9,-97 -73,-1 6,96 c 64,59 -6,-50 9,22 9,43 31,100 -46,90 -71,-9 -25,-3 -51,-50 l -33,35 c -1,-5 -11,8 -15,13 -33,-47 -23,-35 -79,-56 z"
   id="path404"
   inkscape:connector-curvature="0"
   style="fill:#4b3443" />
   <path
   class="fil11"
   d="m 3353,6115 c 119,-14 308,-4 429,10 -26,-68 32,-60 -27,-60 0,-8 1,-24 -3,-35 -27,-67 2,-11 -24,-25 76,-35 15,13 65,-63 195,5 84,-76 228,3 -1,12 6,4 -14,28 -38,50 -9,15 -58,63 l -68,-89 c -4,-14 -16,-11 -24,-17 -13,89 2,61 -37,90 -42,31 8,-42 -26,19 -27,50 6,21 11,26 -68,0 -47,-15 -47,61 133,12 247,-10 359,43 133,-70 150,-41 408,-31 138,6 103,-12 143,-32 77,56 223,25 359,33 -48,-60 65,-50 -67,-50 99,6 72,-10 116,-94 4,-7 7,-17 12,-26 l -27,-28 c -108,-31 -143,-56 -248,-49 -135,10 -183,6 -315,-8 38,23 34,29 65,61 -7,10 10,48 -68,58 l -72,-19 c -3,-1 -10,0 -14,0 l -32,5 c -59,2 -28,4 -87,-8 63,-104 -15,-19 80,-60 -49,-1 -89,22 -150,-49 l -53,17 c 3,9 17,64 22,80 l -96,21 -51,-116 c -131,14 -100,0 -235,-1 -98,-1 -193,2 -289,-3 -93,41 -108,31 -160,75 52,124 38,30 93,120 -185,5 -39,-2 -98,50 z"
   id="path406"
   inkscape:connector-curvature="0"
   style="fill:#4b3443" />
   <path
   class="fil12"
   d="m 6776,11523 -144,19 -239,7 -855,57 -198,-8 -193,12 -599,2 -167,14 -46,33 c -54,15 -28,12 -93,12 200,30 295,-4 385,65 31,-58 -21,-53 225,-79 l 52,69 c 76,-85 85,-49 219,-56 147,-8 119,-48 249,31 97,-90 144,-4 256,19 73,15 275,21 349,13 88,-9 104,-57 247,-65 56,-3 116,-3 171,-4 193,-4 306,14 478,-19 97,-18 62,-31 134,-53 62,-20 42,27 105,-49 65,6 364,43 422,25 8,-3 14,-6 22,-9 10,-5 18,-10 28,-15 10,-5 20,-11 31,-17 18,44 -63,68 238,37 -50,17 -3,9 -27,-41 -101,-26 -214,13 -338,-14 l -281,2 -33,5 -169,-5 z"
   id="path408"
   inkscape:connector-curvature="0"
   style="fill:#fafafa" />
   <path
   class="fil13"
   d="m 12487,6044 c 5,4 15,2 17,11 3,9 14,10 17,13 3,2 23,19 28,25 l 129,-1 c 144,80 66,-29 204,21 35,12 122,40 144,57 21,15 31,24 26,48 -15,76 7,23 -52,66 l 27,29 c 7,-7 15,-20 17,-15 l 56,-29 c 76,67 95,37 201,44 l -9,-39 c 46,-60 7,4 22,-77 5,6 14,5 17,14 l 31,26 c 3,2 9,7 14,11 -69,-113 -12,-12 -1,-56 107,-18 108,-27 150,-92 l -36,86 c 32,47 37,45 67,103 92,-40 8,-17 89,-18 -26,-29 -48,-60 -72,-92 60,31 45,30 102,72 6,-4 15,-18 18,-12 3,8 25,-12 30,-12 52,5 8,-3 52,35 l 46,-75 c 28,44 34,33 65,48 l 64,70 -160,17 c 0,43 72,26 125,27 4,0 73,0 73,0 101,-15 34,2 70,-31 -62,-7 -74,3 -88,-50 -36,-129 -1,-48 34,-103 58,20 42,14 60,32 l 43,60 c 4,-9 14,-28 15,-24 1,4 9,-18 10,-24 1,-6 -1,-40 -2,-48 l -143,24 c -13,-170 -12,-97 -144,-48 l 48,-71 c -154,38 -1035,-111 -1318,-117 0,1 -40,47 -43,50 -7,8 -13,56 -28,30 -3,-4 -10,10 -15,15 z"
   id="path410"
   inkscape:connector-curvature="0"
   style="fill:#5c4c5a" />
   <path
   class="fil14"
   d="m 7950,5814 c 33,85 -17,34 60,84 l -139,15 -41,43 c -105,-48 -56,13 -99,-82 l -56,42 -24,-43 -108,-14 -15,54 2,53 -95,40 c 93,-17 70,-11 46,84 196,51 396,-22 613,-3 l -47,-31 c -122,-39 104,10 -67,-15 59,-30 35,8 57,-50 26,-69 4,-30 -15,-46 44,58 34,13 50,98 143,-22 149,-5 172,-116 41,53 3,33 67,48 4,1 13,-1 17,0 3,0 11,-2 14,-2 l 13,-4 c -44,52 -23,-44 -22,98 l 115,-17 c 30,-55 -46,-40 51,-47 -62,-100 1,-46 2,-47 71,46 40,6 95,75 5,5 9,15 15,22 l 465,7 c 0,-94 -27,-24 -70,-33 -12,-2 -17,-2 -30,-4 -14,-2 -21,-1 -33,-3 -13,-2 -23,-1 -35,-3 -64,-91 -41,-27 -102,0 2,-44 1,-74 0,-79 l -24,-52 c -3,-4 -7,-11 -9,-15 0,-1 -28,-58 -33,-69 -144,81 -7,55 -191,71 l 16,-67 c 1,-1 6,-4 8,-7 -114,41 -148,-3 -263,31 -129,37 -19,7 -145,-8 -113,-14 -42,11 -143,20 -6,-62 11,-14 -72,-28 z"
   id="path412"
   inkscape:connector-curvature="0"
   style="fill:#563c54" />
   <path
   class="fil15"
   d="m 17636,8730 -11,4 c 88,23 40,6 77,38 -36,73 35,24 -75,60 l -2,174 c 77,-13 22,4 99,-30 8,45 -1,162 32,132 l -13,143 c -17,-35 -47,-2 -7,-7 l -155,7 -80,393 c 90,23 53,19 15,98 l -32,60 c 61,12 41,1 59,12 2,1 5,4 6,5 115,86 8,83 103,55 v 67 l 47,-21 c 7,-241 -10,-209 65,-229 -32,-60 -23,73 -21,-77 0,-18 13,-56 19,-78 l -25,-32 c 28,-49 57,-87 92,-124 58,-224 31,-343 33,-353 0,-2 32,-89 37,-111 l -66,-93 c 18,-63 26,-65 36,-134 l -31,-37 -40,-61 c -28,-50 23,13 -20,-44 l -53,-45 c -34,62 9,56 1,127 -2,26 1,43 -36,68 -97,66 -47,4 -62,2 29,1 20,-7 8,31 z"
   id="path414"
   inkscape:connector-curvature="0"
   style="fill:#2d232a" />
   <path
   class="fil16"
   d="m 10607,5995 142,-50 c 5,3 12,0 15,6 12,37 18,6 30,10 117,40 115,65 126,152 l -89,-11 c 22,40 32,19 111,19 61,0 119,5 166,4 47,-1 252,3 315,23 l 107,-68 c -2,-8 -5,-20 -5,-25 2,-68 0,-61 48,-89 l -6,-72 c -9,-9 12,-5 -33,-12 -207,-31 -772,15 -910,-31 -1,8 0,18 0,24 z"
   id="path416"
   inkscape:connector-curvature="0"
   style="fill:#544453" />
   <path
   class="fil17"
   d="m 16126,11424 c 0,40 8,24 -42,27 l 90,54 c 3,2 9,7 12,9 22,19 -25,0 46,45 -15,10 -35,44 -111,38 -44,-4 -77,-25 -118,-43 12,16 38,69 73,78 42,-17 37,38 34,-19 14,53 16,74 81,94 103,33 65,12 119,-29 45,25 -18,2 50,19 10,3 55,10 62,12 13,-76 16,-64 57,-64 124,1 53,90 52,90 l -5,17 c 72,-27 9,-20 109,-18 -56,-81 -83,-40 -36,-245 73,-26 22,-26 100,-22 l 37,11 c 85,57 13,12 12,27 -24,-135 -47,95 -30,-122 47,-60 -12,-13 35,-41 56,-32 18,-9 82,-26 -85,-63 -47,-12 -86,-82 l -40,-9 -90,78 c -26,16 -394,142 -493,121 z"
   id="path418"
   inkscape:connector-curvature="0"
   style="fill:#cbbcb4" />
   <path
   class="fil11"
   d="m 10202,5850 c -24,56 27,47 -24,47 68,40 35,-56 44,91 -158,-17 -150,-58 -235,40 -72,-90 -66,-6 -97,-91 -44,38 4,-19 -28,50 -52,112 79,-45 -20,30 -138,0 -24,-13 -63,62 132,27 251,13 376,12 117,0 235,35 347,50 -24,-117 -2,-59 7,-82 49,-8 -13,-9 92,46 l 151,27 79,-30 89,11 c -11,-87 -9,-112 -126,-152 -12,-4 -18,27 -30,-10 -3,-6 -10,-3 -15,-6 l -142,50 c -38,22 42,35 -49,16 l 29,-87 c -55,33 -56,27 -122,11 -77,68 -41,48 -78,43 64,-131 -31,-42 91,-135 -69,-4 -99,-23 -153,-18 -3,0 -103,22 -123,25 z"
   id="path420"
   inkscape:connector-curvature="0"
   style="fill:#4b3443" />
   <path
   class="fil18"
   d="m 1001,7161 73,-20 c 8,82 -20,48 41,61 24,-26 47,8 23,-113 -7,-36 6,-20 -15,-27 141,-17 10,6 61,-39 -36,-62 19,-53 -57,-32 l 18,-96 c 0,-140 -17,-110 75,-159 -24,-80 -7,-151 -7,-152 -2,-42 6,-17 -30,-51 240,111 -21,-62 150,-18 l -21,-49 c 35,7 59,16 83,39 176,0 -8,-21 53,51 l 134,-165 c 3,-3 10,-9 14,-14 h -114 c -4,4 -10,12 -12,14 -41,42 -3,21 -117,39 l 57,-127 -119,6 c 104,-32 33,7 95,-28 l -95,-76 5,11 -216,262 c -9,18 -74,428 -67,542 6,96 15,24 -12,141 z"
   id="path422"
   inkscape:connector-curvature="0"
   style="fill:#533c4b" />
   <path
   class="fil18"
   d="m 9076,6060 c 167,-9 347,14 527,26 21,-52 -27,-45 32,-53 l 16,8 c -5,-42 -4,-36 19,-65 l -112,17 c 5,-7 54,20 -2,-13 -33,-19 -32,-3 -34,-2 35,-35 26,2 32,-77 l -132,19 7,-100 -99,2 -25,36 c 90,-7 85,-12 105,67 -146,-21 -133,25 -195,-4 7,-127 -26,7 52,-132 -103,13 -255,21 -359,25 -121,4 -198,-25 -335,-15 -2,3 -7,6 -8,7 l -16,67 c 184,-16 47,10 191,-71 5,11 33,68 33,69 2,4 6,11 9,15 l 24,52 c 1,5 2,35 0,79 61,-27 38,-91 102,0 12,2 22,1 35,3 12,2 19,1 33,3 13,2 18,2 30,4 43,9 70,-61 70,33 z"
   id="path424"
   inkscape:connector-curvature="0"
   style="fill:#533c4b" />
   <path
   class="fil19"
   d="m 6369,5921 c -51,42 -45,48 -137,48 30,106 29,51 -31,96 l -65,-4 c -4,-1 -36,-27 -41,-33 -25,-33 -19,-40 -27,-89 -69,-10 -207,-25 -268,30 -53,-26 -49,-37 -126,-39 -51,-2 -68,0 -114,14 114,78 90,21 108,118 -29,-15 -115,-69 -115,2 l -69,73 c 37,1 62,-4 96,6 99,30 40,18 70,38 l 549,-20 26,-74 c 8,-2 19,-3 25,-4 63,-12 92,-10 93,-112 l 170,-13 48,80 48,-139 -17,24 z"
   id="path426"
   inkscape:connector-curvature="0"
   style="fill:#4a343c" />
   <path
   class="fil11"
   d="m 5538,11606 855,-57 c 29,-3 -58,-41 96,2 -31,-94 -20,-34 -15,-84 l 39,-84 c -68,19 -50,-10 -73,20 -56,14 -31,29 -91,6 -68,-27 -31,-7 -54,-68 l -62,40 -21,-45 -386,-3 c 19,22 36,46 55,68 l 30,30 c -60,62 92,110 -108,37 55,63 19,20 63,107 -137,-70 -28,-26 -143,-43 -8,-1 -13,0 -20,-1 -136,-20 -134,-58 -165,75 z"
   id="path428"
   inkscape:connector-curvature="0"
   style="fill:#4b3443" />
   <path
   class="fil20"
   d="m 3445,11378 c 61,141 46,-40 53,149 l 77,-41 c 5,-2 15,-6 22,-9 -65,178 -28,45 51,166 -67,-12 -61,-58 -126,-51 -41,5 -33,17 -50,31 4,1 11,-2 13,4 l 60,49 c 166,-3 290,-69 405,-10 105,-73 -14,-84 215,-65 -20,-89 -24,-65 -40,-85 l -86,28 c -18,-90 19,-54 -50,-79 l -13,-70 c -34,57 1,17 -26,78 -102,-31 -90,-19 -88,-134 -41,44 -4,-45 -39,50 -29,-27 -14,-17 -64,-29 l -35,-10 z"
   id="path430"
   inkscape:connector-curvature="0"
   style="fill:#544b53" />
   <path
   class="fil5"
   d="m 6944,6028 c -3,-1 -5,5 -6,6 -1,0 -6,5 -8,5 -3,1 -10,4 -13,4 l -86,-2 c 8,-11 55,-57 4,-52 -124,12 0,22 -112,52 -119,33 -37,-46 -193,48 -4,-2 -69,-34 -72,-34 -32,0 -1,-24 -37,19 -63,75 -10,3 1,39 31,44 -88,25 89,32 11,1 16,-5 26,-5 43,0 95,-86 95,16 77,6 109,-11 171,-18 68,-7 159,7 237,6 145,-1 316,-54 428,-15 16,-16 13,-39 13,-39 24,-95 47,-101 -46,-84 l -37,-31 c 41,-55 8,-16 47,-50 l 83,-12 15,-54 -288,15 c 70,80 -12,-92 56,68 2,5 4,14 6,18 l 6,51 c -158,3 6,-53 -187,-113 28,73 4,24 38,75 l 57,65 c -127,-17 -93,33 -93,32 -1,-2 -1,6 -2,8 l -94,-90 c -55,65 -12,29 -98,40 z"
   id="path432"
   inkscape:connector-curvature="0"
   style="fill:#43333c" />
   <path
   class="fil6"
   d="m 12102,6165 c 153,24 293,16 447,45 153,28 298,60 451,74 59,-43 37,10 52,-66 5,-24 -5,-33 -26,-48 -22,-17 -109,-45 -144,-57 -138,-50 -60,59 -204,-21 l -129,1 c -5,-6 -25,-23 -28,-25 -3,-3 -14,-4 -17,-13 -2,-9 -12,-7 -17,-11 h -21 c -10,17 -12,82 -100,37 -77,-40 -40,-19 -38,-92 -45,74 10,17 -66,52 -25,-29 -44,-24 -50,-71 l -30,68 c -67,-20 -26,-10 -108,-34 47,111 55,64 -4,86 z"
   id="path434"
   inkscape:connector-curvature="0"
   style="fill:#3b2b34" />
   <path
   class="fil21"
   d="m 7975,11284 1,99 140,-4 19,93 c 7,-2 -31,-19 16,-26 101,-16 -24,-24 38,10 l 15,85 c 127,-31 119,-46 235,-11 l -8,-111 c 48,24 73,18 94,60 154,0 -4,-15 120,-107 22,42 2,16 22,37 l 30,27 c 5,4 13,10 20,15 84,-52 35,4 59,-84 55,24 40,55 94,-22 7,-9 10,-22 14,-34 -171,24 -73,67 -144,55 38,-23 1,19 12,-59 -86,-8 -265,-13 -371,-20 -74,-4 -161,7 -223,7 -93,-1 -76,-31 -183,-10 z"
   id="path436"
   inkscape:connector-curvature="0"
   style="fill:#6b5464" />
   <path
   class="fil22"
   d="m 15879,11480 1,44 -189,31 -27,50 c -58,80 -54,28 -24,125 -171,32 -2,78 -211,19 14,133 -12,64 -29,112 42,-25 5,-19 71,-26 56,-5 44,1 93,6 56,75 -21,71 117,117 36,-98 -12,-71 101,-120 -30,-60 15,1 -29,-39 -3,-3 -10,-8 -13,-11 -4,-2 -12,-8 -15,-10 -3,-3 -11,-8 -15,-12 l 189,-104 c 5,-2 48,-34 76,-53 l 101,23 c -35,-9 -61,-62 -73,-78 41,18 74,39 118,43 76,6 96,-28 111,-38 -71,-45 -24,-26 -46,-45 -3,-2 -9,-7 -12,-9 l -90,-54 z"
   id="path438"
   inkscape:connector-curvature="0"
   style="fill:#b7a9a8" />
   <path
   class="fil18"
   d="m 14058,6318 c 112,62 226,19 384,39 44,-82 38,-29 0,-124 l 65,-9 c -4,-3 -11,-5 -14,-7 -3,-2 -12,-6 -15,-9 -84,-64 -10,38 -60,-71 179,-7 143,1 162,49 16,-84 22,-16 -11,-89 -3,-5 27,-47 -74,-34 -121,14 16,-25 -77,40 -51,-26 -51,-29 -120,-23 -21,82 24,101 -96,99 l 24,-76 c -126,-30 -199,-31 -335,-37 l -48,71 c 132,-49 131,-122 144,48 l 143,-24 c 1,8 3,42 2,48 -1,6 -9,28 -10,24 -1,-4 -11,15 -15,24 l -43,-60 c -18,-18 -2,-12 -60,-32 -35,55 -70,-26 -34,103 14,53 26,43 88,50 z"
   id="path440"
   inkscape:connector-curvature="0"
   style="fill:#533c4b" />
   <path
   class="fil11"
   d="m 7488,11509 c 124,27 237,-12 338,14 85,8 109,-1 197,9 74,8 117,16 181,9 l -15,-85 c -62,-34 63,-26 -38,-10 -47,7 -9,24 -16,26 l -19,-93 -140,4 -1,-99 -75,2 -27,30 c 93,-6 97,22 124,90 -154,-46 -120,3 -238,-3 l -14,-71 75,-5 6,-73 -163,4 -41,21 c 78,88 43,10 64,152 -72,-19 -106,36 -123,-143 -37,39 -131,129 -187,143 15,10 1,9 47,24 0,0 46,10 57,13 z"
   id="path442"
   inkscape:connector-curvature="0"
   style="fill:#4b3443" />
   <path
   class="fil11"
   d="m 16879,6471 c 77,58 129,34 315,123 134,64 -96,-41 35,16 54,24 80,30 129,44 4,-3 11,-13 12,-9 l 63,-29 c 72,-75 14,1 7,-29 l 66,85 c 4,3 11,10 15,15 l -4,-83 c 100,14 87,33 87,-35 -8,-26 -4,-10 -30,-36 -97,-95 -42,-117 -142,-111 l -52,40 c -5,3 -12,6 -18,9 -5,3 -13,5 -17,7 -42,20 -20,-15 -52,42 -74,-39 -31,-29 -112,-68 -4,-2 -11,-4 -15,-7 l -90,-34 c 0,1 -13,109 -136,-34 172,-146 60,35 89,-47 1,-4 7,0 11,-1 -122,-1 -8,10 -59,-50 l 4,-57 -90,25 c 23,67 -1,3 3,53 12,128 36,101 -19,171 z"
   id="path444"
   inkscape:connector-curvature="0"
   style="fill:#4b3443" />
   <path
   class="fil23"
   d="m 17319,10063 77,-81 c 75,44 41,3 47,84 l 20,238 -58,-24 c -60,-3 -9,-14 -54,27 54,16 6,-1 48,46 -4,7 -11,8 -14,19 -24,109 13,-33 -44,62 -2,3 -5,10 -7,15 h 52 l 104,-114 c 41,-57 31,-63 47,-124 28,-110 35,-51 69,-125 1,-3 46,-145 46,-145 v -67 c -95,28 12,31 -103,-55 -1,-1 -4,-4 -6,-5 -18,-11 2,0 -59,-12 l 32,-60 c 38,-79 75,-75 -15,-98 -46,46 -25,50 -47,105 -17,44 -28,41 -50,89 z"
   id="path446"
   inkscape:connector-curvature="0"
   style="fill:#261825" />
   <path
   class="fil24"
   d="m 2120,11755 -63,-37 -124,30 c -122,-44 -48,-44 -186,-45 l -523,-95 c -31,41 2,64 -148,40 -201,-32 -111,-20 -169,46 60,18 65,11 136,39 130,52 306,34 463,33 202,-2 433,5 614,-11 z"
   id="path448"
   inkscape:connector-curvature="0"
   style="fill:#e2ddda" />
   <path
   class="fil25"
   d="m 17813,8341 c 6,97 15,176 22,245 89,-17 16,-39 129,-5 -12,-71 -6,-28 -17,-93 102,-31 47,-8 81,-75 26,6 38,8 53,20 27,22 11,34 71,58 l 17,-125 -117,-49 c 5,-219 87,-29 55,-193 173,8 48,10 101,-26 -39,-20 -31,-20 -76,-25 -14,-1 -92,-13 -113,35 -33,77 -13,16 21,60 -82,-46 20,-15 -101,-33 l -72,219 z"
   id="path450"
   inkscape:connector-curvature="0"
   style="fill:#c6b9b8" />
   <path
   class="fil26"
   d="m 17575,8197 c 4,34 4,120 6,166 2,94 -3,89 15,170 66,0 66,15 40,-24 12,-125 -28,-168 -32,-312 89,65 48,-56 81,111 16,82 -13,55 55,105 -8,1 -44,3 -48,6 -42,30 -2,-32 -27,42 53,76 -21,14 60,41 l 53,45 c 43,57 -8,-6 20,44 l 40,61 -3,-66 c -7,-69 -16,-148 -22,-245 1,-8 2,-44 4,-49 22,-55 3,-20 34,-56 -31,-110 -27,-32 -59,-135 30,-127 45,-21 41,-134 -68,12 -61,-41 -61,15 l -20,-23 c -3,-1 -12,0 -15,-1 -48,-14 -14,1 -37,-15 l -20,-33 c 1,50 30,178 -28,123 75,109 33,24 48,116 -65,8 -59,16 -125,48 z"
   id="path452"
   inkscape:connector-curvature="0"
   style="fill:#47364a" />
   <path
   class="fil27"
   d="m 17504,6870 c 56,64 63,66 71,158 l 71,19 c -13,64 -6,35 -47,77 14,83 9,36 0,113 -11,103 -41,17 18,98 l -14,71 c 65,0 49,17 49,-47 l 70,-11 c 7,-2 16,-9 24,-13 -4,-8 -10,-27 -13,-23 -1,5 -9,-16 -11,-20 -60,-113 -8,-141 36,-173 39,94 -6,-2 61,46 l 10,-69 c -82,-51 -11,-6 -101,-25 -2,-61 -32,-9 55,-120 l -6,-48 c -1,-8 -2,-18 -4,-27 l -8,-56 c -2,-5 -4,-11 -5,-13 l -48,-92 18,68 c -96,-26 -101,-16 -150,31 l -120,-78 c 67,86 96,87 124,150 z"
   id="path454"
   inkscape:connector-curvature="0"
   style="fill:#634c5c" />
   <path
   class="fil13"
   d="m 16526,6169 c 9,66 -8,10 17,65 l 21,31 c 23,45 45,-11 -3,29 2,139 32,-5 -28,61 l -43,42 c -3,-5 -8,15 -12,22 -93,-54 -15,-39 -108,-30 21,46 421,82 509,82 55,-70 31,-43 19,-171 -4,-50 20,14 -3,-53 -74,-105 -100,-6 -155,-74 l -85,-1 c 6,6 15,6 18,19 4,12 13,13 18,19 l 43,57 -110,28 9,-142 -49,-6 c 0,47 8,26 -58,22 z"
   id="path456"
   inkscape:connector-curvature="0"
   style="fill:#5c4c5a" />
   <path
   class="fil27"
   d="m 6715,5899 c 25,109 9,-38 30,101 l -128,2 c 3,-6 26,-62 27,-64 15,-43 -2,15 9,-43 l -44,4 -48,139 -48,-80 -170,13 c -1,102 -30,100 -93,112 -6,1 -17,2 -25,4 l -26,74 433,-5 c 0,-102 -52,-16 -95,-16 -10,0 -15,6 -26,5 -177,-7 -58,12 -89,-32 -11,-36 -64,36 -1,-39 36,-43 5,-19 37,-19 3,0 68,32 72,34 156,-94 74,-15 193,-48 112,-30 -12,-40 112,-52 51,-5 4,41 -4,52 l 86,2 c 3,0 10,-3 13,-4 2,0 7,-5 8,-5 1,-1 3,-7 6,-6 17,-99 57,-101 131,-83 l 13,-73 c -62,9 -176,16 -237,34 -105,32 1,-9 -136,-7 z"
   id="path458"
   inkscape:connector-curvature="0"
   style="fill:#634c5c" />
   <path
   class="fil21"
   d="m 9651,6041 -16,-8 c -59,8 -11,1 -32,53 l 176,-7 c 39,-75 -75,-62 63,-62 99,-75 -32,82 20,-30 32,-69 -16,-12 28,-50 31,85 25,1 97,91 85,-98 77,-57 235,-40 -9,-147 24,-51 -44,-91 51,0 0,9 24,-47 -148,-6 -342,-37 -503,-23 l 48,94 c -150,-48 11,-17 -72,-19 -9,0 -19,25 -26,15 -9,-11 -14,19 -22,28 18,11 47,22 71,40 6,5 13,11 18,16 5,4 12,24 16,19 4,-5 10,14 15,21 -42,35 -8,5 -96,0 z"
   id="path460"
   inkscape:connector-curvature="0"
   style="fill:#6b5464" />
   <path
   class="fil9"
   d="m 11946,5910 c -17,33 -23,51 -44,88 l -82,4 -15,63 c 75,-29 51,-45 122,3 33,-112 18,-48 46,-82 54,120 66,55 87,97 39,77 2,20 -8,41 -6,-6 -31,-29 -36,-31 l -33,-1 c -151,-9 -73,-36 -153,0 45,39 -2,31 96,12 l -47,55 223,6 -32,-75 c 59,-22 51,25 4,-86 82,24 41,14 108,34 l 30,-68 c 6,47 25,42 50,71 76,-35 21,22 66,-52 -2,73 -39,52 38,92 88,45 90,-20 100,-37 -44,-39 -23,58 -36,-47 l 57,-49 c -187,48 -55,15 -105,-22 l -196,-28 c -5,1 -62,6 -67,7 -65,3 -102,-3 -173,5 z"
   id="path462"
   inkscape:connector-curvature="0"
   style="fill:#5b4454" />
   <path
   class="fil28"
   d="m 15427,11623 c 87,-46 23,-29 117,-24 -23,52 -164,122 -193,131 l 10,-86 -57,2 45,120 c -65,40 76,60 -131,21 l 33,51 1,81 c 81,4 70,-31 163,-3 86,25 76,42 103,77 l 152,-11 11,-24 c -138,-46 -61,-42 -117,-117 -49,-5 -37,-11 -93,-6 -66,7 -29,1 -71,26 17,-48 43,21 29,-112 209,59 40,13 211,-19 -30,-97 -34,-45 24,-125 l -79,5 c -12,-34 26,-67 -78,-45 -84,17 -57,9 -80,58 z"
   id="path464"
   inkscape:connector-curvature="0"
   style="fill:#95878a" />
   <path
   class="fil29"
   d="m 7207,11511 281,-2 -8,-41 c -11,-3 -57,-13 -57,-13 -46,-15 -32,-14 -47,-24 56,-14 150,-104 187,-143 17,179 51,124 123,143 -21,-142 14,-64 -64,-152 l 41,-21 c -80,2 -144,19 -196,18 -57,-1 -97,-16 -188,-23 l -72,106 c 26,29 6,33 86,48 -38,17 -64,-5 -109,-24 l 31,95 c 1,7 -5,26 -8,33 z"
   id="path466"
   inkscape:connector-curvature="0"
   style="fill:#664c64" />
   <path
   class="fil9"
   d="m 5209,6161 441,20 c -30,-20 29,-8 -70,-38 -34,-10 -59,-5 -96,-6 l 69,-73 c -95,4 -80,38 -156,1 45,-39 36,36 52,-19 2,-6 11,-3 16,-5 -4,-5 -10,-12 -12,-15 l -34,-43 c -1,-8 -6,-9 -9,-14 4,-1 49,-20 54,-23 l 42,-28 c -144,-4 -239,-9 -378,-1 l -25,130 c 144,-4 86,49 260,22 z"
   id="path468"
   inkscape:connector-curvature="0"
   style="fill:#5b4454" />
   <path
   class="fil7"
   d="m 17603,7406 c -8,50 -51,137 3,151 l 54,-71 c 0,-1 1,-6 1,-7 0,-1 -1,-4 -1,-6 8,1 35,5 40,7 l 56,22 c -15,45 3,10 -21,52 l -41,62 c 106,-7 71,-5 115,30 -31,159 24,-20 -13,53 -61,76 -49,60 -37,136 l 93,-23 -14,-192 c -13,-215 -17,-64 -36,-198 l -54,9 -9,-91 c 75,-9 51,-3 108,-27 l -28,-148 c -67,-48 -22,48 -61,-46 -44,32 -96,60 -36,173 2,4 10,25 11,20 3,-4 9,15 13,23 -8,4 -17,11 -24,13 l -70,11 c 0,64 16,47 -49,47 z"
   id="path470"
   inkscape:connector-curvature="0"
   style="fill:#443442" />
   <path
   class="fil30"
   d="m 6426,11301 14,102 c 23,-30 5,-1 73,-20 l -39,84 c -5,50 -16,-10 15,84 -154,-43 -67,-5 -96,-2 l 239,-7 -69,-39 36,-88 73,87 c 51,-47 55,77 27,-98 4,4 9,6 11,15 l 84,70 c -9,-104 -5,-15 5,-116 49,65 0,41 93,63 -27,-59 -4,-36 -63,-59 l 26,-65 c -65,-11 -73,-25 -128,-31 l -249,15 c -6,1 -44,5 -52,5 z"
   id="path472"
   inkscape:connector-curvature="0"
   style="fill:#654857" />
   <path
   class="fil31"
   d="m 13627,12004 -82,3 c 22,-85 34,-42 11,-115 l 23,-8 -83,14 c -160,-5 -304,-2 -467,-17 4,93 11,29 -17,125 l 136,33 c 85,11 16,1 47,-3 l 29,38 c 16,57 9,-18 8,72 155,-218 111,-59 126,-175 95,44 66,31 137,-5 11,14 30,45 47,50 173,56 15,22 85,-12 z"
   id="path474"
   inkscape:connector-curvature="0"
   style="fill:#e2d6d2" />
   <path
   class="fil18"
   d="m 8752,11307 c -11,78 26,36 -12,59 71,12 -27,-31 144,-55 -4,12 -7,25 -14,34 -54,77 -39,46 -94,22 -24,88 25,32 -59,84 -7,-5 -15,-11 -20,-15 l -30,-27 c -20,-21 0,5 -22,-37 -124,92 34,107 -120,107 -34,-41 -1,-35 -24,48 155,-46 48,-69 189,-69 -24,91 15,-3 -45,93 l 239,17 c 50,-45 -79,-50 96,-30 -23,-32 -23,-24 -31,-62 -23,-114 4,-91 7,-93 38,-93 -9,-6 40,-57 55,-57 20,16 38,-20 -64,-8 -92,-25 -146,-20 -36,3 -63,18 -136,21 z"
   id="path476"
   inkscape:connector-curvature="0"
   style="fill:#533c4b" />
   <path
   class="fil32"
   d="m 8343,12597 c 106,29 113,15 206,68 6,-3 15,-16 18,-11 3,4 13,-9 17,-12 129,-87 34,-7 161,-5 148,2 0,34 126,26 25,-102 31,-62 -62,-103 -52,-23 -106,-25 -172,-9 20,-48 10,-35 49,-59 l -137,18 c -41,-37 -111,-67 -162,-59 -35,5 -36,14 -40,49 z"
   id="path478"
   inkscape:connector-curvature="0"
   style="fill:#e9e2de" />
   <path
   class="fil16"
   d="m 6944,11278 -29,219 c 1,9 3,20 5,30 -8,-3 -61,-21 -69,-21 -72,2 -28,-5 -75,17 l 229,-12 c -44,-22 -3,-9 -32,-67 97,0 40,30 62,-48 l 139,120 33,-5 c 3,-7 9,-26 8,-33 l -31,-95 c 45,19 71,41 109,24 -80,-15 -60,-19 -86,-48 l 72,-106 c -63,0 -285,18 -335,25 z"
   id="path480"
   inkscape:connector-curvature="0"
   style="fill:#544453" />
   <path
   class="fil33"
   d="m 11567,5894 6,72 c -48,28 -46,21 -48,89 0,5 3,17 5,25 l -107,68 c 50,10 229,-17 322,-9 l -34,-11 c 75,-75 -91,-14 99,-63 -17,-61 3,-29 -37,-72 l 47,9 -50,-57 c 11,-10 24,-40 35,-50 -67,-16 -161,-9 -238,-1 z"
   id="path482"
   inkscape:connector-curvature="0"
   style="fill:#645463" />
   <path
   class="fil34"
   d="m 13301,6313 c 105,-6 126,7 230,17 102,10 166,-1 259,-8 l 160,-17 -64,-70 c -31,-15 -37,-4 -65,-48 l -46,75 c -44,-38 0,-30 -52,-35 -5,0 -27,20 -30,12 -3,-6 -12,8 -18,12 -57,-42 -42,-41 -102,-72 24,32 46,63 72,92 -81,1 3,-22 -89,18 -30,-58 -35,-56 -67,-103 l 36,-86 c -42,65 -43,74 -150,92 -11,44 -68,-57 1,56 -5,-4 -11,-9 -14,-11 l -31,-26 c -3,-9 -12,-8 -17,-14 -15,81 24,17 -22,77 z"
   id="path484"
   inkscape:connector-curvature="0"
   style="fill:#422c34" />
   <path
   class="fil33"
   d="m 15807,6092 c -194,0 -348,-21 -550,0 0,52 -17,45 23,45 -5,-6 0,-73 -24,-12 -1,1 -3,10 -4,12 0,3 1,15 1,19 0,4 2,15 3,23 13,6 -55,83 96,-9 38,70 27,51 162,78 l -21,-81 c 26,45 6,30 75,58 73,-64 39,-45 146,-73 l -26,68 c 48,-23 24,-1 56,-41 z"
   id="path486"
   inkscape:connector-curvature="0"
   style="fill:#645463" />
   <path
   class="fil21"
   d="m 16260,6111 -175,1 -181,23 -16,101 c -40,-58 -23,49 0,-97 -156,12 -76,25 -76,25 l -24,83 c 82,-8 32,-61 52,53 131,-33 43,-25 139,5 l -13,-95 c 73,29 39,-23 70,59 36,-70 56,-62 139,-92 -53,86 -51,-27 -32,128 85,-27 116,28 117,-194 z"
   id="path488"
   inkscape:connector-curvature="0"
   style="fill:#6b5464" />
   <path
   class="fil35"
   d="m 17432,6422 c -144,-24 -154,-162 -451,-143 51,60 -63,49 59,50 -4,1 -10,-3 -11,1 -29,82 83,-99 -89,47 123,143 136,35 136,34 l 90,34 c 4,3 11,5 15,7 81,39 38,29 112,68 32,-57 10,-22 52,-42 4,-2 12,-4 17,-7 6,-3 13,-6 18,-9 z"
   id="path490"
   inkscape:connector-curvature="0"
   style="fill:#6c5b6b" />
   <path
   class="fil35"
   d="m 2736,5836 c 24,40 28,-4 5,74 -3,-4 -5,-10 -8,-12 -39,-25 4,-26 -128,-29 -40,0 -75,15 -142,28 l 30,-71 -53,-12 v 73 c -135,-3 -46,-35 -105,34 l 217,44 c -29,46 1,28 -56,66 48,7 19,20 61,-12 54,-42 47,-101 171,-74 l -86,48 c 3,5 8,6 10,13 l 45,53 c 17,-34 9,-19 38,-58 50,-68 11,26 43,-77 74,-1 56,0 141,21 -3,-7 -19,-48 -20,-53 -3,-20 -58,-14 34,-76 -37,-36 -197,-15 -197,20 z"
   id="path492"
   inkscape:connector-curvature="0"
   style="fill:#6c5b6b" />
   <path
   class="fil5"
   d="m 3941,11288 -79,51 c -2,115 -14,103 88,134 27,-61 -8,-21 26,-78 112,-4 34,34 93,-24 8,3 23,5 26,6 l -2,22 c 0,-65 92,-40 165,-40 38,-57 16,-79 55,-90 81,-21 17,3 25,12 v -46 c -98,-9 -349,17 -397,53 z"
   id="path494"
   inkscape:connector-curvature="0"
   style="fill:#43333c" />
   <path
   class="fil22"
   d="m 15033,11683 c -93,201 11,-72 -129,107 144,58 37,-11 200,-5 l 29,3 c 6,1 35,1 45,5 63,20 2,4 73,45 l -33,-51 c 207,39 66,19 131,-21 l -45,-120 c -87,-8 -44,-22 -93,3 l -28,24 c -34,-67 12,-41 -74,-52 z"
   id="path496"
   inkscape:connector-curvature="0"
   style="fill:#b7a9a8" />
   <path
   class="fil15"
   d="m 618,10777 c 9,64 -8,13 34,92 l -35,-6 -57,65 -46,-39 c 5,4 13,3 16,11 l 64,28 c 51,27 39,27 75,66 l 31,-32 c 156,113 -98,59 135,-10 l 27,81 c 0,-92 -66,-130 -97,-201 -24,-58 -31,-148 -53,-215 -58,-77 18,-26 -100,-57 l 55,200 c -55,-1 -46,-17 -49,17 z"
   id="path498"
   inkscape:connector-curvature="0"
   style="fill:#2d232a" />
   <path
   class="fil9"
   d="m 17575,8197 c 66,-32 60,-40 125,-48 -15,-92 27,-7 -48,-116 58,55 29,-73 28,-123 l 20,33 c 23,16 -11,1 37,15 3,1 12,0 15,1 l 20,23 c 0,-56 -7,-3 61,-15 0,-54 -7,-16 26,-87 l -82,1 -31,42 v -91 l -116,37 -15,-44 c -84,69 -47,270 -40,372 z"
   id="path500"
   inkscape:connector-curvature="0"
   style="fill:#5b4454" />
   <path
   class="fil36"
   d="m 1601,5890 58,-7 c -3,8 -9,10 -9,21 -1,12 -7,16 -7,21 l 7,68 c 127,3 160,36 295,-14 l 138,41 c -3,-68 40,46 -4,-10 l -45,-41 c 191,0 20,14 95,-71 -139,8 -196,21 -262,66 l -17,-110 c 23,-27 13,-8 -24,-15 -13,96 39,20 -32,70 -55,-34 -40,4 -25,-55 -92,12 -120,-1 -195,-15 25,47 -14,36 27,51 z"
   id="path502"
   inkscape:connector-curvature="0"
   style="fill:#786776" />
   <path
   class="fil37"
   d="m 5409,12344 c 95,-8 133,-26 212,-22 28,-38 45,42 21,-102 l 65,20 c 87,13 81,-35 86,-40 -35,-25 -11,-14 -47,-23 -116,-29 25,79 -48,-29 -31,33 -22,29 -62,49 l 33,-62 c 38,-51 -38,-5 42,-25 -11,-8 -42,-95 -118,-28 -1,-75 1,-175 18,-269 l -85,145 c 15,85 32,116 49,173 30,103 -3,43 4,166 l -159,-14 z"
   id="path504"
   inkscape:connector-curvature="0"
   style="fill:#d5cbc3" />
   <path
   class="fil38"
   d="m 1517,7301 c -19,-29 -34,-47 -61,-86 l -151,35 7,-126 c -63,25 -23,4 -83,19 26,132 32,48 35,134 1,20 -11,62 -5,122 l 100,-67 c -2,7 -5,11 -6,22 -2,15 85,-45 -36,71 -41,39 -29,-1 -60,60 l 132,-1 c 25,-72 13,-48 3,-101 z"
   id="path506"
   inkscape:connector-curvature="0"
   style="fill:#4c3c4b" />
   <path
   class="fil39"
   d="m 17271,10722 c 30,58 18,42 -6,110 l 70,27 c 67,42 -11,57 77,19 l 79,-244 c -112,-2 -71,-4 -103,-94 -5,6 -14,6 -17,17 -11,39 -47,-19 -100,165 z"
   id="path508"
   inkscape:connector-curvature="0"
   style="fill:#ccc3ba" />
   <path
   class="fil1"
   d="m 15230,12386 c 50,35 33,3 56,72 137,-43 -16,9 168,-12 113,-12 112,8 186,-63 l 36,19 c 53,27 -8,0 29,17 33,15 7,7 47,10 13,-26 14,-38 38,-69 -99,-21 -206,-10 -294,18 l -49,-81 c -186,142 -120,-65 -217,89 z"
   id="path510"
   inkscape:connector-curvature="0"
   style="fill:#eae5e1" />
   <path
   class="fil30"
   d="m 17596,8533 c -1,38 -6,87 0,122 20,123 2,45 40,75 12,-38 21,-30 -8,-31 15,2 -35,64 62,-2 37,-25 34,-42 36,-68 8,-71 -35,-65 -1,-127 -81,-27 -7,35 -60,-41 25,-74 -15,-12 27,-42 4,-3 40,-5 48,-6 -68,-50 -39,-23 -55,-105 -33,-167 8,-46 -81,-111 4,144 44,187 32,312 26,39 26,24 -40,24 z"
   id="path512"
   inkscape:connector-curvature="0"
   style="fill:#654857" />
   <path
   class="fil40"
   d="m 4165,11601 c -19,54 175,28 216,25 l 167,-14 c 8,-7 17,-19 22,-23 4,-4 18,-6 21,-19 4,-12 14,-12 22,-15 -184,-6 -67,-44 -211,-47 -81,-2 -27,-12 -106,31 l -32,17 c -10,5 -36,12 -50,17 l -20,-73 -69,16 c 16,20 20,-4 40,85 z"
   id="path514"
   inkscape:connector-curvature="0"
   style="fill:#3a242c" />
   <path
   class="fil9"
   d="m 8884,11568 163,47 c 11,-7 41,-28 59,-49 5,-6 21,-30 26,-36 5,-6 25,-28 31,-34 -49,-58 100,-41 -39,-39 l 38,-77 c -68,27 -111,37 -206,3 -3,2 -30,-21 -7,93 8,38 8,30 31,62 -175,-20 -46,-15 -96,30 z"
   id="path516"
   inkscape:connector-curvature="0"
   style="fill:#5b4454" />
   <path
   class="fil41"
   d="m 17358,6654 c 3,4 7,6 8,13 2,7 8,10 10,12 2,3 8,9 11,12 117,131 25,93 117,179 l 80,16 c -28,-63 -57,-64 -124,-150 l 120,78 c 49,-47 54,-57 150,-31 l -18,-68 c 1,-35 25,-38 -10,-27 l -60,-32 c -8,53 11,21 -14,54 -3,4 -9,10 -12,14 l -36,25 c -23,-41 -18,-41 -59,-62 -4,-5 -11,-12 -15,-15 l -66,-85 c 7,30 65,-46 -7,29 l -63,29 c -1,-4 -8,6 -12,9 z"
   id="path518"
   inkscape:connector-curvature="0"
   style="fill:#3b2433" />
   <path
   class="fil42"
   d="m 14507,6224 c 56,21 46,9 79,56 4,-5 14,-18 15,-13 l 33,-35 c 26,47 -20,41 51,50 77,10 55,-47 46,-90 -15,-72 55,37 -9,-22 l -6,-96 -147,23 c 33,73 27,5 11,89 -19,-48 17,-56 -162,-49 50,109 -24,7 60,71 3,3 12,7 15,9 3,2 10,4 14,7 z"
   id="path520"
   inkscape:connector-curvature="0"
   style="fill:#735b6c" />
   <path
   class="fil43"
   d="m 6632,11542 144,-19 c 47,-22 3,-15 75,-17 8,0 61,18 69,21 -2,-10 -4,-21 -5,-30 l 29,-219 c -28,1 -96,-17 -89,34 l -26,65 c 59,23 36,0 63,59 -93,-22 -44,2 -93,-63 -10,101 -14,12 -5,116 l -84,-70 c -2,-9 -7,-11 -11,-15 28,175 24,51 -27,98 l -73,-87 -36,88 z"
   id="path522"
   inkscape:connector-curvature="0"
   style="fill:#3c2c3a" />
   <path
   class="fil42"
   d="m 8956,11383 c 95,34 138,24 206,-3 l -38,77 c 139,-2 -10,-19 39,39 73,-167 6,106 69,-95 l 150,17 14,-91 c -122,22 -76,-24 -178,6 -22,34 29,38 -22,28 -20,-27 -50,28 0,-45 l -162,-10 c -18,36 17,-37 -38,20 -49,51 -2,-36 -40,57 z"
   id="path524"
   inkscape:connector-curvature="0"
   style="fill:#735b6c" />
   <path
   class="fil42"
   d="m 9651,6041 c 88,5 54,35 96,0 -5,-7 -11,-26 -15,-21 -4,5 -11,-15 -16,-19 -5,-5 -12,-11 -18,-16 -24,-18 -53,-29 -71,-40 8,-9 13,-39 22,-28 7,10 17,-15 26,-15 83,2 -78,-29 72,19 l -48,-94 -270,-7 -7,100 132,-19 c -6,79 3,42 -32,77 2,-1 1,-17 34,2 56,33 7,6 2,13 l 112,-17 c -23,29 -24,23 -19,65 z"
   id="path526"
   inkscape:connector-curvature="0"
   style="fill:#735b6c" />
   <path
   class="fil9"
   d="m 578,11145 c -37,-52 -22,23 -21,-45 1,-36 11,-22 32,-46 l 4,66 87,-48 -11,-78 c -36,-39 -24,-39 -75,-66 l -64,-28 c -3,-8 -11,-7 -16,-11 l -44,63 c 35,72 -1,5 14,72 l 22,54 c 65,243 0,115 84,171 z"
   id="path528"
   inkscape:connector-curvature="0"
   style="fill:#5b4454" />
   <path
   class="fil42"
   d="m 6944,6028 c 86,-11 43,25 98,-40 l 94,90 c 1,-2 1,-10 2,-8 0,1 -34,-49 93,-32 l -57,-65 c -34,-51 -10,-2 -38,-75 193,60 29,116 187,113 l -6,-51 c -2,-4 -4,-13 -6,-18 -68,-160 14,12 -56,-68 l -147,23 -20,-25 -13,73 c -74,-18 -114,-16 -131,83 z"
   id="path530"
   inkscape:connector-curvature="0"
   style="fill:#735b6c" />
   <path
   class="fil37"
   d="m 17999,9007 53,40 -65,60 c 66,52 53,103 72,131 l 105,-24 c -19,-163 -13,-26 -41,-108 l -31,-138 59,-68 -68,-56 c -4,8 -11,9 -13,23 -2,13 -8,16 -11,23 l -22,62 c -3,6 -6,12 -10,18 z"
   id="path532"
   inkscape:connector-curvature="0"
   style="fill:#d5cbc3" />
   <path
   class="fil44"
   d="m 17699,9920 c 6,-5 15,-19 18,-14 l 102,-80 c -82,-103 -56,-15 -75,-105 l 99,13 c 45,-89 -10,-37 70,-100 -16,-12 -1,-18 -37,-29 -63,-19 23,-11 -96,-8 l 23,-61 h -41 c -6,22 -19,60 -19,78 -2,150 -11,17 21,77 -75,20 -58,-12 -65,229 z"
   id="path534"
   inkscape:connector-curvature="0"
   style="fill:#bbb4b8" />
   <path
   class="fil24"
   d="m 3279,11397 166,-19 279,-28 -70,-54 c -75,-45 -71,-36 -160,-49 -48,62 -83,46 -135,73 -28,15 -74,72 -80,77 z"
   id="path536"
   inkscape:connector-curvature="0"
   style="fill:#e2ddda" />
   <path
   class="fil27"
   d="m 12704,11573 c 104,66 78,29 106,153 86,-18 97,-15 108,-21 78,-41 50,-65 44,-123 168,71 153,29 210,-4 -37,2 -225,19 -245,-31 -3,-9 -12,-9 -18,-13 -106,38 -75,59 -205,39 z"
   id="path538"
   inkscape:connector-curvature="0"
   style="fill:#634c5c" />
   <path
   class="fil6"
   d="m 5061,5941 27,28 c -5,9 -8,19 -12,26 -44,84 -17,100 -116,94 132,0 19,-10 67,50 -4,43 150,29 182,22 l 154,-92 c -174,27 -116,-26 -260,-22 l 25,-130 z"
   id="path540"
   inkscape:connector-curvature="0"
   style="fill:#3b2b34" />
   <path
   class="fil45"
   d="m 17606,7557 v 84 c 90,-28 20,-13 48,13 -30,54 -16,70 -1,137 4,-5 10,-19 12,-16 8,21 -10,-44 83,-93 -30,28 -22,-1 48,17 37,-73 -18,106 13,-53 -44,-35 -9,-37 -115,-30 l 41,-62 c 24,-42 6,-7 21,-52 l -56,-22 c -5,-2 -32,-6 -40,-7 0,2 1,5 1,6 0,1 -1,6 -1,7 z"
   id="path542"
   inkscape:connector-curvature="0"
   style="fill:#63535c" />
   <path
   class="fil46"
   d="m 14313,11765 c 31,38 -3,21 57,34 84,19 164,-19 239,-46 -12,-61 -53,-120 -101,-42 l -36,-42 c -4,-5 -10,-14 -13,-18 l -17,-32 c -86,54 -61,55 -94,104 -21,29 -14,17 -35,42 z"
   id="path544"
   inkscape:connector-curvature="0"
   style="fill:#53434c" />
   <path
   class="fil46"
   d="m 1304,7809 46,-43 16,-48 c -39,-51 -14,-46 -27,-95 -1,-1 -5,-8 -5,-9 -3,-9 -29,-30 1,8 -11,-62 -4,-72 -45,-125 -101,165 19,32 -75,197 -39,3 35,22 -20,-7 l -29,-20 c -1,48 -6,63 -6,85 1,53 -1,26 14,58 56,-23 4,-8 44,-42 39,-34 15,-25 85,-39 z"
   id="path546"
   inkscape:connector-curvature="0"
   style="fill:#53434c" />
   <path
   class="fil44"
   d="m 16985,11084 41,51 161,-90 -34,-102 67,-120 c -130,71 -132,97 -139,162 -48,-8 -63,-10 -71,-9 z"
   id="path548"
   inkscape:connector-curvature="0"
   style="fill:#bbb4b8" />
   <path
   class="fil47"
   d="m 4498,5884 c -57,-22 -196,-4 -278,-12 61,71 101,48 150,49 -95,41 -17,-44 -80,60 59,12 28,10 87,8 l 32,-5 c 4,0 11,-1 14,0 l 72,19 c 78,-10 61,-48 68,-58 -31,-32 -27,-38 -65,-61 z"
   id="path550"
   inkscape:connector-curvature="0"
   style="fill:#705772" />
   <path
   class="fil48"
   d="m 11209,12073 3,63 c -84,34 -45,-1 -64,62 78,35 31,2 111,-18 36,-10 36,-6 72,-6 l -34,116 c 68,-17 64,-27 150,-20 -29,-115 -3,-92 -92,-83 l 47,-60 -132,-42 c -45,-14 -13,-7 -61,-12 z"
   id="path552"
   inkscape:connector-curvature="0"
   style="fill:#edebe9" />
   <path
   class="fil49"
   d="m 18418,8508 -139,-35 c -1,10 -2,36 -1,41 0,4 2,14 2,18 10,80 31,19 -10,99 194,-26 -110,-3 53,-4 l 170,7 c 12,-33 31,-114 -3,-78 -36,-46 -34,10 -48,-111 -59,27 16,-17 -24,63 z"
   id="path554"
   inkscape:connector-curvature="0"
   style="fill:#dacecb" />
   <path
   class="fil45"
   d="m 997,7909 -11,84 c 93,21 8,-4 9,37 0,23 -5,67 17,94 80,100 -7,1 87,-23 16,-66 4,-66 42,-96 -24,-93 0,-116 -84,-118 l -5,46 c -19,-31 -11,-3 -55,-24 z"
   id="path556"
   inkscape:connector-curvature="0"
   style="fill:#63535c" />
   <path
   class="fil34"
   d="m 17615,7825 15,44 116,-37 v 91 l 31,-42 -18,-46 c -12,-76 -24,-60 37,-136 -70,-18 -78,11 -48,-17 -93,49 -75,114 -83,93 -2,-3 -8,11 -12,16 -15,-67 -29,-83 1,-137 -28,-26 42,-41 -48,-13 -53,48 -18,128 9,184 z"
   id="path558"
   inkscape:connector-curvature="0"
   style="fill:#422c34" />
   <path
   class="fil19"
   d="m 17581,9251 155,-7 c -40,5 -10,-28 7,7 l 13,-143 c -74,7 -18,-12 -131,-56 -47,77 -43,98 -44,199 z"
   id="path560"
   inkscape:connector-curvature="0"
   style="fill:#4a343c" />
   <path
   class="fil33"
   d="m 6068,5939 c 8,49 2,56 27,89 5,6 37,32 41,33 l 65,4 c 60,-45 61,10 31,-96 92,0 86,-6 137,-48 l -276,-2 z"
   id="path562"
   inkscape:connector-curvature="0"
   style="fill:#645463" />
   <path
   class="fil48"
   d="m 11189,12437 c 42,23 156,9 203,10 62,1 21,20 80,-10 -10,-102 18,-49 -64,-81 -46,-19 -85,-28 -128,-39 l -41,58 c -19,27 -35,45 -50,62 z"
   id="path564"
   inkscape:connector-curvature="0"
   style="fill:#edebe9" />
   <path
   class="fil13"
   d="m 13496,11898 83,-14 c -48,-108 -54,30 0,-141 -56,11 -105,38 -128,-5 -39,-75 116,-38 -111,-139 l 58,96 c -39,60 -19,28 -23,71 42,34 91,26 121,132 z"
   id="path566"
   inkscape:connector-curvature="0"
   style="fill:#5c4c5a" />
   <path
   class="fil50"
   d="m 11745,6139 134,20 47,-55 c -98,19 -51,27 -96,-12 80,-36 2,-9 153,0 l 33,1 c 5,2 30,25 36,31 10,-21 47,36 8,-41 -21,-42 -33,23 -87,-97 -28,34 -13,-30 -46,82 -71,-48 -47,-32 -122,-3 l 15,-63 -47,-9 c 40,43 20,11 37,72 -190,49 -24,-12 -99,63 z"
   id="path568"
   inkscape:connector-curvature="0"
   style="fill:#432d3b" />
   <path
   class="fil36"
   d="m 5553,6064 c 0,-71 86,-17 115,-2 -18,-97 6,-40 -108,-118 l -54,-26 -42,28 c -5,3 -50,22 -54,23 3,5 8,6 9,14 l 34,43 c 2,3 8,10 12,15 -5,2 -14,-1 -16,5 -16,55 -7,-20 -52,19 76,37 61,3 156,-1 z"
   id="path570"
   inkscape:connector-curvature="0"
   style="fill:#786776" />
   <path
   class="fil51"
   d="m 8952,12320 c 75,-34 19,-27 83,-12 29,85 41,75 113,97 l 57,-139 c -10,0 -81,4 -82,4 l -143,-25 c -56,-11 -27,4 -64,-20 z"
   id="path572"
   inkscape:connector-curvature="0"
   style="fill:#f0ede9" />
   <path
   class="fil36"
   d="m 10607,5995 17,-120 c 0,-6 -1,-16 0,-24 l -146,-8 c -122,93 -27,4 -91,135 37,5 1,25 78,-43 66,16 67,22 122,-11 l -29,87 c 91,19 11,6 49,-16 z"
   id="path574"
   inkscape:connector-curvature="0"
   style="fill:#786776" />
   <path
   class="fil52"
   d="m 917,7790 c 12,62 38,71 80,119 44,21 36,-7 55,24 l 5,-46 79,-110 -61,-74 -38,71 c -3,6 -13,24 -16,20 -3,-5 -12,13 -18,20 -59,-43 -43,67 -52,-96 -19,33 -18,-47 -34,72 z"
   id="path576"
   inkscape:connector-curvature="0"
   style="fill:#28181b" />
   <path
   class="fil53"
   d="m 8288,12175 c -21,46 -22,40 -41,86 59,39 11,-1 59,50 l 77,-116 c -4,-3 -11,-15 -13,-11 l -37,-33 c -80,-66 -71,-50 -210,-48 31,69 82,71 165,72 z"
   id="path578"
   inkscape:connector-curvature="0"
   style="fill:#ebeae5" />
   <path
   class="fil6"
   d="m 8094,6087 20,-14 219,-6 c -1,-142 -22,-46 22,-98 l -13,4 c -3,0 -11,2 -14,2 -4,-1 -13,1 -17,0 -64,-15 -26,5 -67,-48 -23,111 -29,94 -172,116 -16,-85 -6,-40 -50,-98 19,16 41,-23 15,46 -22,58 2,20 -57,50 171,25 -55,-24 67,15 z"
   id="path580"
   inkscape:connector-curvature="0"
   style="fill:#3b2b34" />
   <path
   class="fil33"
   d="m 14020,11582 c 93,17 34,26 83,52 37,21 48,-5 123,-11 -42,-100 -36,-83 -8,-129 -24,1 -115,5 -132,11 -86,26 -59,44 -66,77 z"
   id="path582"
   inkscape:connector-curvature="0"
   style="fill:#645463" />
   <path
   class="fil54"
   d="m 15879,11480 205,-29 c 50,-3 42,13 42,-27 l -103,30 c 6,-8 14,-33 18,-26 5,10 -11,-12 54,-41 1,-1 7,-2 8,-2 0,0 4,-1 6,-2 l -22,-53 c -74,50 -30,15 -113,26 -102,14 1,32 -117,27 64,66 -15,59 91,48 -143,0 -9,-9 -69,49 z"
   id="path584"
   inkscape:connector-curvature="0"
   style="fill:#4c424c" />
   <path
   class="fil51"
   d="m 7592,12102 c 39,26 -22,24 93,21 -16,56 -24,56 -24,126 h 137 c -22,-74 -30,-44 -61,-104 -23,-43 -13,-58 -50,-109 -107,18 -49,-19 -95,66 z"
   id="path586"
   inkscape:connector-curvature="0"
   style="fill:#f0ede9" />
   <path
   class="fil36"
   d="m 3976,11395 13,70 c 69,25 32,-11 50,79 l 86,-28 69,-16 20,4 c -10,-53 0,-5 -49,-64 -149,23 -9,12 -72,-41 l 2,-22 c -3,-1 -18,-3 -26,-6 -59,58 19,20 -93,24 z"
   id="path588"
   inkscape:connector-curvature="0"
   style="fill:#786776" />
   <path
   class="fil55"
   d="m 380,10443 48,6 c -31,-132 -56,-142 -45,-289 -61,12 -18,-16 -56,26 l -18,221 z"
   id="path590"
   inkscape:connector-curvature="0"
   style="fill:#a28778" />
   <path
   class="fil56"
   d="m 17319,10063 -52,109 74,74 c 36,-57 64,86 4,-126 l 98,-54 c -6,-81 28,-40 -47,-84 z"
   id="path592"
   inkscape:connector-curvature="0"
   style="fill:#4b3b44" />
   <path
   class="fil41"
   d="m 8439,11530 c 88,29 116,51 206,21 60,-96 21,-2 45,-93 -141,0 -34,23 -189,69 23,-83 -10,-89 24,-48 -21,-42 -46,-36 -94,-60 z"
   id="path594"
   inkscape:connector-curvature="0"
   style="fill:#3b2433" />
   <path
   class="fil36"
   d="m 7900,11286 c -73,-23 -17,13 -74,-32 l -6,73 -75,5 14,71 c 118,6 84,-43 238,3 -27,-68 -31,-96 -124,-90 z"
   id="path596"
   inkscape:connector-curvature="0"
   style="fill:#786776" />
   <path
   class="fil57"
   d="m 3063,5917 121,27 -9,-37 74,-19 c -34,-54 53,-23 -65,-40 -18,-3 -105,18 -188,-4 l -63,-28 34,54 c 52,10 61,5 97,11 63,10 22,-9 52,21 l -148,-31 c 7,14 10,24 19,38 32,50 32,3 76,8 z"
   id="path598"
   inkscape:connector-curvature="0"
   style="fill:#9b9399" />
   <path
   class="fil30"
   d="m 632,11217 16,68 103,28 -22,-46 c 89,-14 84,11 98,-58 -5,3 29,21 -18,7 -20,-7 -26,-10 -41,-20 l -76,-53 c -115,96 -24,9 -60,74 z"
   id="path600"
   inkscape:connector-curvature="0"
   style="fill:#654857" />
   <path
   class="fil48"
   d="m 7399,12121 c 46,64 85,41 152,21 l 29,-148 c -89,-6 -137,27 -132,127 z"
   id="path602"
   inkscape:connector-curvature="0"
   style="fill:#edebe9" />
   <path
   class="fil58"
   d="m 17829,7096 c 2,-12 -1,-119 1,-157 2,-57 8,-98 -65,-119 l 8,56 c 2,9 3,19 4,27 l 6,48 c -87,111 -57,59 -55,120 90,19 19,-26 101,25 z"
   id="path604"
   inkscape:connector-curvature="0"
   style="fill:#2f304f" />
   <path
   class="fil59"
   d="m 6212,11336 21,45 62,-40 c 23,61 -14,41 54,68 60,23 35,8 91,-6 l -14,-102 c -79,-8 -148,19 -214,35 z"
   id="path606"
   inkscape:connector-curvature="0"
   style="fill:#947a88" />
   <path
   class="fil60"
   d="m 3374,5882 c -10,23 -26,65 -32,81 -42,93 -46,78 -139,88 103,11 65,-13 147,63 l 3,1 c 59,-52 -87,-45 98,-50 -55,-90 -41,4 -93,-120 52,-44 67,-34 160,-75 l -28,-8 z"
   id="path608"
   inkscape:connector-curvature="0"
   style="fill:#351b28" />
   <path
   class="fil33"
   d="m 3782,6125 -24,1 c 0,-76 -21,-61 47,-61 -5,-5 -38,24 -11,-26 34,-61 -16,12 26,-19 39,-29 24,-1 37,-90 8,6 20,3 24,17 l 68,89 c 49,-48 20,-13 58,-63 20,-24 13,-16 14,-28 -144,-79 -33,2 -228,-3 -50,76 11,28 -65,63 26,14 -3,-42 24,25 4,11 3,27 3,35 59,0 1,-8 27,60 z"
   id="path610"
   inkscape:connector-curvature="0"
   style="fill:#645463" />
   <path
   class="fil61"
   d="m 9330,5822 -63,-33 c -78,139 -45,5 -52,132 62,29 49,-17 195,4 -20,-79 -15,-74 -105,-67 z"
   id="path612"
   inkscape:connector-curvature="0"
   style="fill:#846979" />
   <path
   class="fil62"
   d="m 17838,7620 c 45,-54 29,-80 17,-152 -1,-7 -3,-13 -4,-20 -1,-7 -2,-12 -3,-20 l -1,-115 c -57,24 -33,18 -108,27 l 9,91 54,-9 c 19,134 23,-17 36,198 z"
   id="path614"
   inkscape:connector-curvature="0"
   style="fill:#8d8696" />
   <path
   class="fil63"
   d="m 15344,12197 c -33,77 -25,19 11,101 207,-121 98,33 181,-100 -52,-40 -111,-39 -192,-1 z"
   id="path616"
   inkscape:connector-curvature="0"
   style="fill:#c5b5ab" />
   <path
   class="fil33"
   d="m 17521,6687 c 41,21 36,21 59,62 l 36,-25 c 3,-4 9,-10 12,-14 25,-33 6,-1 14,-54 l 60,32 c -39,-74 -27,-64 -98,-119 0,68 13,49 -87,35 z"
   id="path618"
   inkscape:connector-curvature="0"
   style="fill:#645463" />
   <path
   class="fil35"
   d="m 15016,6089 -227,-14 -9,97 c 35,2 62,-10 3,31 -35,24 28,17 -30,6 l 47,43 c 4,2 13,8 18,10 l 84,-113 c -41,-15 -36,-19 -66,-44 z"
   id="path620"
   inkscape:connector-curvature="0"
   style="fill:#6c5b6b" />
   <path
   class="fil59"
   d="m 7651,5873 24,43 56,-42 c 43,95 -6,34 99,82 l 41,-43 -1,-68 c -85,-17 -151,13 -219,28 z"
   id="path622"
   inkscape:connector-curvature="0"
   style="fill:#947a88" />
   <path
   class="fil43"
   d="m 2493,5826 -30,71 c 67,-13 102,-28 142,-28 132,3 89,4 128,29 3,2 5,8 8,12 23,-78 19,-34 -5,-74 -146,-36 -83,-14 -243,-10 z"
   id="path624"
   inkscape:connector-curvature="0"
   style="fill:#3c2c3a" />
   <path
   class="fil64"
   d="m 11805,5895 c -11,10 -24,40 -35,50 l 50,57 82,-4 c 21,-37 27,-55 44,-88 -37,-42 10,-18 -50,-21 -5,0 -69,7 -91,6 z"
   id="path626"
   inkscape:connector-curvature="0"
   style="fill:#887886" />
   <path
   class="fil65"
   d="m 5312,11354 -106,-1 c -21,69 -8,58 -36,70 35,43 -22,54 147,49 z"
   id="path628"
   inkscape:connector-curvature="0"
   style="fill:#978995" />
   <path
   class="fil66"
   d="m 16666,10838 c 85,106 -25,63 75,113 l 4,-119 111,-15 c -58,-51 -21,-2 -50,-88 z"
   id="path630"
   inkscape:connector-curvature="0"
   style="fill:#68575a" />
   <path
   class="fil67"
   d="m 5147,11610 193,-12 29,-56 c -101,6 -50,8 -136,-30 -32,32 51,27 -67,29 z"
   id="path632"
   inkscape:connector-curvature="0"
   style="fill:#2b1c24" />
   <path
   class="fil68"
   d="m 15427,11623 -57,-17 -9,38 -10,86 c 29,-9 170,-79 193,-131 -94,-5 -30,-22 -117,24 z"
   id="path634"
   inkscape:connector-curvature="0"
   style="fill:#aba4a8" />
   <path
   class="fil45"
   d="m 3184,5944 -121,-27 -45,74 c 12,5 22,1 26,9 11,20 65,-17 141,44 -22,-58 -18,-21 -1,-100 z"
   id="path636"
   inkscape:connector-curvature="0"
   style="fill:#63535c" />
   <path
   class="fil41"
   d="m 7005,11511 169,5 -139,-120 c -22,78 35,48 -62,48 29,58 -12,45 32,67 z"
   id="path638"
   inkscape:connector-curvature="0"
   style="fill:#3b2433" />
   <path
   class="fil22"
   d="m 16358,12022 10,2 18,-42 c -74,-35 -51,-19 -100,-79 -5,5 -13,10 -17,14 l -75,82 z"
   id="path640"
   inkscape:connector-curvature="0"
   style="fill:#b7a9a8" />
   <path
   class="fil36"
   d="m 12466,6044 h 21 c 5,-5 12,-19 15,-15 15,26 21,-22 28,-30 3,-3 43,-49 43,-50 l -191,-23 c 50,37 -82,70 105,22 l -57,49 c 13,105 -8,8 36,47 z"
   id="path642"
   inkscape:connector-curvature="0"
   style="fill:#786776" />
   <path
   class="fil10"
   d="m 737,9802 c 31,-56 22,-86 53,-146 l -39,-12 c -46,34 -31,-24 -48,97 -58,-48 -57,68 -48,-72 9,103 -12,66 27,138 z"
   id="path644"
   inkscape:connector-curvature="0"
   style="fill:#332531" />
   <path
   class="fil65"
   d="m 4167,5889 -125,-15 51,116 96,-21 c -5,-16 -19,-71 -22,-80 z"
   id="path646"
   inkscape:connector-curvature="0"
   style="fill:#978995" />
   <path
   class="fil28"
   d="m 1336,6096 -50,37 10,83 -5,-11 191,-116 c -84,-23 -44,9 -146,7 z"
   id="path648"
   inkscape:connector-curvature="0"
   style="fill:#95878a" />
   <path
   class="fil69"
   d="m 6715,5899 -62,-4 c -11,58 6,0 -9,43 -1,2 -24,58 -27,64 l 128,-2 c -21,-139 -5,8 -30,-101 z"
   id="path650"
   inkscape:connector-curvature="0"
   style="fill:#b298a9" />
   <path
   class="fil40"
   d="m 8448,6050 163,3 c -6,-7 -10,-17 -15,-22 -55,-69 -24,-29 -95,-75 -1,1 -64,-53 -2,47 -97,7 -21,-8 -51,47 z"
   id="path652"
   inkscape:connector-curvature="0"
   style="fill:#3a242c" />
   <path
   class="fil70"
   d="m 17762,9536 h 41 c 14,-41 16,-40 48,-69 -11,-35 -14,-45 -22,-87 -35,37 -64,75 -92,124 z"
   id="path654"
   inkscape:connector-curvature="0"
   style="fill:#747089" />
   <path
   class="fil45"
   d="m 17625,9006 v 46 c 113,44 57,63 131,56 -33,30 -24,-87 -32,-132 -77,34 -22,17 -99,30 z"
   id="path656"
   inkscape:connector-curvature="0"
   style="fill:#63535c" />
   <path
   class="fil71"
   d="m 1068,8509 c 74,-47 44,3 56,-96 l -6,-48 c -81,-43 -19,-16 -46,0 -27,93 18,91 -54,155 z"
   id="path658"
   inkscape:connector-curvature="0"
   style="fill:#0e1449" />
   <path
   class="fil72"
   d="m 1118,8365 6,48 c 56,-40 46,47 53,-41 l 41,-103 c -143,52 -87,-44 -100,96 z"
   id="path660"
   inkscape:connector-curvature="0"
   style="fill:#b8d1eb" />
   <path
   class="fil73"
   d="m 17197,10448 c 2,-3 43,-26 48,-61 24,-164 45,-38 -72,-82 3,86 -7,86 24,143 z"
   id="path662"
   inkscape:connector-curvature="0"
   style="fill:#594a65" />
   <path
   class="fil74"
   d="m 946,8975 c 47,-31 10,10 45,-51 1,-3 20,-45 27,-56 l -14,-32 c -41,-34 -34,41 -50,-44 1,130 11,65 -50,147 z"
   id="path664"
   inkscape:connector-curvature="0"
   style="fill:#0e1030" />
   <path
   class="fil70"
   d="m 16655,6172 -22,-19 -9,142 110,-28 -43,-57 c -5,-6 -14,-7 -18,-19 -3,-13 -12,-13 -18,-19 z"
   id="path666"
   inkscape:connector-curvature="0"
   style="fill:#747089" />
   <path
   class="fil45"
   d="m 617,10863 35,6 c -42,-79 -25,-28 -34,-92 -83,-7 -55,-37 -74,55 30,59 -49,57 73,31 z"
   id="path668"
   inkscape:connector-curvature="0"
   style="fill:#63535c" />
   <path
   class="fil23"
   d="m 1020,8708 c 3,-3 7,-8 8,-10 l 38,-98 -60,-23 c -55,82 -8,62 -29,111 -2,5 -7,11 -9,15 z"
   id="path670"
   inkscape:connector-curvature="0"
   style="fill:#261825" />
   <path
   class="fil36"
   d="m 7435,6006 95,-40 -2,-53 -83,12 c -39,34 -6,-5 -47,50 z"
   id="path672"
   inkscape:connector-curvature="0"
   style="fill:#786776" />
   <path
   class="fil35"
   d="m 11874,11750 c -24,-136 -12,-109 -154,-108 z"
   id="path674"
   inkscape:connector-curvature="0"
   style="fill:#6c5b6b" />
   <path
   class="fil75"
   d="m 7871,5913 139,-15 c -77,-50 -27,1 -60,-84 -41,55 4,15 -80,31 z"
   id="path676"
   inkscape:connector-curvature="0"
   style="fill:#755867" />
   <path
   class="fil76"
   d="m 13758,11592 c -49,-20 -112,-58 -145,21 l 85,-37 -56,123 c 6,-4 16,-17 18,-12 l 47,-34 c 34,-31 22,-23 51,-61 z"
   id="path678"
   inkscape:connector-curvature="0"
   style="fill:#6c6673" />
   <path
   class="fil69"
   d="m 545,9404 126,28 c -38,-93 -23,-65 -97,-102 z"
   id="path680"
   inkscape:connector-curvature="0"
   style="fill:#b298a9" />
   <path
   class="fil23"
   d="m 883,9276 v -54 -49 c -125,29 7,-22 -89,140 z"
   id="path682"
   inkscape:connector-curvature="0"
   style="fill:#261825" />
   <path
   class="fil75"
   d="m 14226,6103 -24,76 c 120,2 75,-17 96,-99 z"
   id="path684"
   inkscape:connector-curvature="0"
   style="fill:#755867" />
   <path
   class="fil61"
   d="m 5988,11428 c 39,32 -25,38 42,24 85,-17 49,-35 59,-45 -49,-62 -60,-32 -75,-23 -4,2 -13,8 -16,11 l -12,23 c 0,1 1,7 2,10 z"
   id="path686"
   inkscape:connector-curvature="0"
   style="fill:#846979" />
   <path
   class="fil22"
   d="m 13627,12004 c -61,-46 37,-48 39,-49 l -110,-63 c 23,73 11,30 -11,115 z"
   id="path688"
   inkscape:connector-curvature="0"
   style="fill:#b7a9a8" />
   <path
   class="fil77"
   d="m 7681,6640 c 19,7 -13,27 58,5 88,-28 49,-31 63,-53 -70,-32 -88,-7 -121,48 z"
   id="path690"
   inkscape:connector-curvature="0"
   style="fill:#cbccd4" />
   <path
   class="fil16"
   d="m 13082,11695 63,52 c 13,-45 42,47 3,-100 -64,9 -68,-13 -66,48 z"
   id="path692"
   inkscape:connector-curvature="0"
   style="fill:#544453" />
   <path
   class="fil78"
   d="m 17599,7124 c 41,-42 34,-13 47,-77 l -71,-19 -18,68 z"
   id="path694"
   inkscape:connector-curvature="0"
   style="fill:#45282a" />
   <path
   class="fil79"
   d="m 13834,11870 c 83,-6 61,-3 133,21 l 18,-41 -46,26 -48,-91 c -22,31 -32,47 -57,85 z"
   id="path696"
   inkscape:connector-curvature="0"
   style="fill:#8c8389" />
   <path
   class="fil64"
   d="m 10502,6141 99,-36 c -105,-55 -43,-54 -92,-46 -9,23 -31,-35 -7,82 z"
   id="path698"
   inkscape:connector-curvature="0"
   style="fill:#887886" />
   <polygon
   class="fil80"
   points="17852,7812 17759,7835 17777,7881 17859,7880 "
   id="polygon700"
   style="fill:#b6abb5" />
   <path
   class="fil65"
   d="m 3759,11360 c 50,12 35,2 64,29 35,-95 -2,-6 39,-50 l 79,-51 c -73,13 -133,30 -182,72 z"
   id="path702"
   inkscape:connector-curvature="0"
   style="fill:#978995" />
   <path
   class="fil28"
   d="m 17627,8832 c 110,-36 39,13 75,-60 -37,-32 11,-15 -77,-38 31,48 -30,39 30,39 -20,20 -9,30 -28,59 z"
   id="path704"
   inkscape:connector-curvature="0"
   style="fill:#95878a" />
   <path
   class="fil57"
   d="m 2044,5829 c -90,-5 -105,-45 -100,19 39,36 -13,37 52,17 53,-15 34,-23 48,-36 z"
   id="path706"
   inkscape:connector-curvature="0"
   style="fill:#9b9399" />
   <path
   class="fil81"
   d="m 886,11152 -19,-71 -77,61 c 32,12 24,23 96,10 z"
   id="path708"
   inkscape:connector-curvature="0"
   style="fill:#2b2635" />
   <path
   class="fil79"
   d="m 13199,7786 c 81,-148 12,-73 -3,-89 -43,58 -51,36 3,89 z"
   id="path710"
   inkscape:connector-curvature="0"
   style="fill:#8c8389" />
   <path
   class="fil82"
   d="m 697,8868 55,34 c 31,-166 12,-46 -26,-91 z"
   id="path712"
   inkscape:connector-curvature="0"
   style="fill:#36181b" />
   <path
   class="fil79"
   d="m 9483,11329 v 74 c 79,-18 52,23 24,-89 l 71,21 -47,-25 z"
   id="path714"
   inkscape:connector-curvature="0"
   style="fill:#8c8389" />
   <path
   class="fil60"
   d="m 1826,5839 -57,15 c -15,59 -30,21 25,55 71,-50 19,26 32,-70 z"
   id="path716"
   inkscape:connector-curvature="0"
   style="fill:#351b28" />
   <polygon
   class="fil83"
   points="7197,12395 7271,12408 7248,12349 7209,12352 "
   id="polygon718"
   style="fill:#a6989a" />
   <path
   class="fil84"
   d="m 578,11145 15,-25 -4,-66 c -21,24 -31,10 -32,46 -1,68 -16,-7 21,45 z"
   id="path720"
   inkscape:connector-curvature="0"
   style="fill:#e4d5da" />
   <path
   class="fil85"
   d="m 17749,10138 c 111,83 42,13 65,0 -66,-44 94,-54 -36,-20 z"
   id="path722"
   inkscape:connector-curvature="0"
   style="fill:#75656b" />
   <path
   class="fil86"
   d="m 593,11314 c 30,-42 26,-38 4,-76 -29,49 -49,-3 -4,76 z"
   id="path724"
   inkscape:connector-curvature="0"
   style="fill:#4c4555" />
   <path
   class="fil23"
   d="m 9218,11333 -22,-17 c -50,73 -20,18 0,45 51,10 0,6 22,-28 z"
   id="path726"
   inkscape:connector-curvature="0"
   style="fill:#261825" />
  </g>
 </g>
</svg>