<?xml version="1.0" encoding="UTF-8" standalone="no"?>
<!-- Creator: CorelDRAW X8 -->

<svg
   xmlns:dc="http://purl.org/dc/elements/1.1/"
   xmlns:cc="http://creativecommons.org/ns#"
   xmlns:rdf="http://www.w3.org/1999/02/22-rdf-syntax-ns#"
   xmlns:svg="http://www.w3.org/2000/svg"
   xmlns="http://www.w3.org/2000/svg"
   xmlns:sodipodi="http://sodipodi.sourceforge.net/DTD/sodipodi-0.dtd"
   xmlns:inkscape="http://www.inkscape.org/namespaces/inkscape"
   xml:space="preserve"
   width="185mm"
   height="174mm"
   version="1.1"
   style="clip-rule:evenodd;fill-rule:evenodd;image-rendering:optimizeQuality;shape-rendering:geometricPrecision;text-rendering:geometricPrecision"
   viewBox="0 0 18500 17400"
   id="svg586"
   sodipodi:docname="btn-shd-rd-rt.svg"
   inkscape:version="0.92.3 (2405546, 2018-03-11)"><metadata
   id="metadata590"><rdf:RDF><cc:Work
       rdf:about=""><dc:format>image/svg+xml</dc:format><dc:type
         rdf:resource="http://purl.org/dc/dcmitype/StillImage" /><dc:title></dc:title></cc:Work></rdf:RDF></metadata><sodipodi:namedview
   pagecolor="#ffffff"
   bordercolor="#666666"
   borderopacity="1"
   objecttolerance="10"
   gridtolerance="10"
   guidetolerance="10"
   inkscape:pageopacity="0"
   inkscape:pageshadow="2"
   inkscape:window-width="771"
   inkscape:window-height="556"
   id="namedview588"
   showgrid="false"
   inkscape:zoom="0.26771948"
   inkscape:cx="270.66126"
   inkscape:cy="497.57789"
   inkscape:window-x="161"
   inkscape:window-y="66"
   inkscape:window-maximized="0"
   inkscape:current-layer="svg586" />
 <defs
   id="defs303">
  <style
   type="text/css"
   id="style301">
   <![CDATA[
    .fil55 {fill:#1A2633}
    .fil64 {fill:#271A27}
    .fil30 {fill:#281719}
    .fil56 {fill:#2A2946}
    .fil27 {fill:#2B2736}
    .fil57 {fill:#2C1935}
    .fil46 {fill:#361818}
    .fil39 {fill:#361B27}
    .fil38 {fill:#362736}
    .fil11 {fill:#372729}
    .fil44 {fill:#382B45}
    .fil10 {fill:#3B333B}
    .fil3 {fill:#43333C}
    .fil4 {fill:#443443}
    .fil20 {fill:#443A44}
    .fil32 {fill:#452B36}
    .fil7 {fill:#4B3B44}
    .fil5 {fill:#4C3C4A}
    .fil9 {fill:#544453}
    .fil16 {fill:#553A48}
    .fil17 {fill:#573C55}
    .fil35 {fill:#584A64}
    .fil45 {fill:#594649}
    .fil15 {fill:#594857}
    .fil33 {fill:#595459}
    .fil36 {fill:#654957}
    .fil40 {fill:#654B64}
    .fil29 {fill:#67555A}
    .fil23 {fill:#685766}
    .fil48 {fill:#686676}
    .fil59 {fill:#706C71}
    .fil47 {fill:#71718B}
    .fil34 {fill:#755967}
    .fil62 {fill:#778595}
    .fil41 {fill:#78656A}
    .fil58 {fill:#786876}
    .fil37 {fill:#877579}
    .fil53 {fill:#8B7788}
    .fil31 {fill:#8C6D70}
    .fil50 {fill:#928992}
    .fil65 {fill:#9293AB}
    .fil63 {fill:#99A6B2}
    .fil60 {fill:#99ABCC}
    .fil49 {fill:#A3788B}
    .fil51 {fill:#A79998}
    .fil61 {fill:#AD908E}
    .fil52 {fill:#ADA9B2}
    .fil28 {fill:#B8AAA6}
    .fil25 {fill:#BAB6B8}
    .fil21 {fill:#BBB3AA}
    .fil54 {fill:#C6BBC5}
    .fil18 {fill:#C7BAB6}
    .fil24 {fill:#CAC3B7}
    .fil14 {fill:#CBC6C6}
    .fil43 {fill:#CDC3BB}
    .fil6 {fill:#D2C5BD}
    .fil19 {fill:#D4CABE}
    .fil8 {fill:#D5CBC3}
    .fil12 {fill:#D9CEC6}
    .fil26 {fill:#DACDC4}
    .fil13 {fill:#E4DCDA}
    .fil1 {fill:#E5DBD5}
    .fil22 {fill:#EAE5E1}
    .fil42 {fill:#F1E6DD}
    .fil2 {fill:#F1EDE9}
    .fil0 {fill:#FEFEFE}
   ]]>
  </style>
 </defs>
 <g
   id="Ebene_x0020_1"
   transform="translate(-592.97143,-3899.5716)">
  <metadata
   id="CorelCorpID_0Corel-Layer" />
  <g
   id="_1565600234912">
   <path
   class="fil0"
   d="m 8353,4525 c 164,4 216,-43 349,-26 61,8 97,26 175,23 105,-5 139,31 111,-49 l 133,27 c 316,56 524,21 647,38 112,16 598,55 625,134 l -116,17 25,15 c -519,98 -253,-140 -597,-73 -44,9 -40,11 -81,61 l -107,-5 -73,-35 c -54,65 -55,44 -84,63 -61,41 -33,5 -75,70 8,28 -1,176 263,122 47,36 27,53 208,81 110,16 107,20 210,47 157,42 317,-1 478,12 70,91 -20,10 54,65 47,34 12,13 75,33 5,1 112,20 136,25 135,28 372,145 542,178 161,32 49,66 298,78 119,120 177,93 285,155 195,112 116,94 352,149 17,21 12,32 64,57 67,32 43,12 84,13 l 96,98 10,86 c 214,42 119,87 264,165 94,52 168,50 263,119 221,105 53,95 267,171 l 34,162 c 185,32 74,24 293,156 l 82,49 c 1,1 57,53 60,57 l 51,92 125,29 c 96,186 76,93 206,230 156,162 340,517 380,568 l 145,185 c 39,114 145,261 235,307 31,209 177,406 274,618 110,239 7,127 189,466 l 296,745 c 58,228 13,518 65,772 -15,258 -1,254 51,473 25,106 55,194 66,304 17,114 28,152 52,244 16,62 9,66 41,134 60,124 2,23 61,80 -30,309 49,292 65,566 6,102 3,222 5,328 3,172 -21,120 -41,271 11,110 -6,175 53,243 -39,249 12,274 -5,500 2,141 -38,100 -13,272 -87,33 -55,49 -80,153 l -11,24 -68,107 c -112,197 -48,1 -107,295 -9,5 -21,4 -25,16 l -329,394 c -5,6 -11,14 -15,20 -34,51 -1,53 -87,143 -95,101 -70,29 -102,177 -130,15 -51,-6 -77,52 -168,123 -157,208 -262,311 -98,96 -66,9 -82,133 -160,77 -64,-2 -167,142 -51,72 -107,103 -164,148 -6,6 -15,7 -17,19 -3,12 -14,15 -17,20 -38,62 -12,16 -37,73 -96,60 -78,55 -112,168 -112,46 -56,49 -156,109 -93,55 -115,43 -181,115 l -95,103 c -133,132 -86,65 -226,152 l -94,-11 c -86,94 -44,2 -117,134 -8,25 -24,80 -32,101 l -9,-31 -155,-7 -91,169 -17,32 c -182,54 -136,24 -184,99 -4,5 -10,15 -13,20 -4,6 -11,15 -15,21 -4,7 -24,32 -31,41 l -41,-14 c -80,62 -48,35 -120,76 -73,42 -56,24 -97,82 l 9,10 c -114,41 -70,-18 -103,103 -123,-36 -120,-63 -188,23 l -74,33 -119,123 c -84,65 -103,41 -212,13 l -6,196 7,66 c -50,16 -36,-1 -80,19 -84,39 -33,2 -99,74 -38,-61 -78,28 -153,69 -137,75 -120,-6 -183,140 l -82,-11 -229,130 c -127,59 -322,119 -480,177 -133,49 -298,64 -498,71 -125,28 -82,4 -172,77 l -154,-17 c -18,2 -82,0 -82,0 -76,7 -32,-4 -78,26 -144,-16 -526,47 -633,43 l -577,-26 -750,-54 -1425,-338 -643,-252 c -127,-58 -459,-204 -604,-199 l -63,-134 -158,-1 c -67,-143 -181,-181 -336,-159 -66,-152 -279,-281 -442,-319 -19,-96 -26,-93 -82,-142 -93,-83 -18,55 -95,-108 -62,-40 -116,-93 -200,-149 -83,-55 -129,-131 -214,-186 -24,-75 -30,-77 -87,-144 -240,-317 -91,-94 -272,-212 -40,-126 7,-84 -73,-114 l -90,-87 c -40,-172 -53,-99 -126,-196 -78,-103 -23,-100 -146,-191 -55,-128 8,-76 -89,-108 -94,-62 11,45 -42,-46 -29,-51 17,2 -30,-64 -26,-37 -72,-64 -110,-92 -14,-272 -333,-497 -322,-756 -61,-52 -130,-54 -117,-328 -122,-131 -48,-43 -117,-181 l -47,-86 c -1,-2 -28,-123 -30,-135 -37,-158 -34,-104 -76,-222 l -76,-398 c -7,-100 -27,-58 -40,-132 -18,-102 22,-28 -7,-154 -7,-31 -94,-125 -22,-394 -158,-131 -77,-202 -76,-198 l 9,-97 -13,-98 c 51,-142 47,-1043 69,-1140 12,-55 43,-5 27,-140 l 53,-30 c -17,-136 51,-293 81,-455 59,-181 -21,-8 4,-160 3,-21 44,-114 61,-170 45,-146 87,-187 119,-354 l 38,-90 35,-79 c 21,-33 6,24 33,-70 9,-32 5,-56 13,-86 21,-83 18,-59 58,-109 l 55,-167 c 40,-138 -20,-33 72,-127 86,-87 20,29 89,-108 25,-51 28,-66 42,-127 l 91,-29 13,-88 c 12,-132 27,-115 84,-212 l 318,-575 c 49,-134 36,-39 111,-135 54,-68 37,-114 64,-210 76,-26 83,-14 142,-76 l 58,-80 c 4,-6 8,-15 12,-22 l 392,-483 c 102,-110 121,-38 164,-227 76,1 54,21 136,-21 110,-57 44,-20 76,-80 25,-20 -20,26 42,-34 77,-74 -4,8 38,-46 57,-37 15,0 86,-63 19,-17 28,-28 48,-49 73,-73 58,-26 85,-117 38,-99 -36,-29 101,-50 34,-33 41,-43 64,-72 65,-81 102,-132 203,-191 216,-124 580,-474 900,-665 120,-71 65,-54 135,-129 l 495,-289 c 317,-180 178,-149 311,-211 66,-30 279,-151 320,-193 72,-1 21,8 34,-32 l 174,-30 58,-28 c 84,-37 102,-72 176,-94 88,-26 348,-57 509,-178 2,-1 510,-103 526,-103 l 71,-41 c 71,11 6,-6 58,21 5,2 8,72 25,19 1,-4 6,6 10,9 z"
   id="path306"
   inkscape:connector-curvature="0"
   style="fill:#fefefe" />
   <path
   class="fil1"
   d="m 17952,10507 c -50,183 -38,-85 -62,267 -4,51 -5,38 -15,66 l -38,67 c 120,178 90,282 281,277 -169,127 101,149 185,247 -64,30 71,17 -68,23 -58,3 -85,-6 -138,-13 32,324 -22,235 85,547 l -89,131 73,54 c 98,56 69,81 174,142 -24,68 34,37 -102,36 95,165 -63,38 72,98 -113,66 -165,101 -138,248 2,12 12,16 15,21 l 38,66 c 63,96 -34,28 107,88 -114,82 -90,147 -127,290 94,41 61,25 105,103 -20,36 -1,44 -94,93 83,30 62,19 134,55 -47,96 27,21 -82,114 l 116,27 c 2,0 11,3 16,5 -14,25 -40,104 -66,134 -56,66 -83,44 -119,151 105,56 81,75 238,55 -17,103 3,58 -73,102 38,119 7,39 60,148 -8,5 -90,62 -93,63 -94,33 -52,-17 -127,52 88,46 134,115 191,212 -107,197 -237,92 -164,349 159,-58 35,16 130,-101 -12,78 -40,44 -56,140 -21,130 68,-27 -21,142 l -149,-27 c 11,136 93,196 32,292 l -99,-99 c -6,97 -13,99 -28,188 l 74,76 c 4,5 9,31 8,58 -5,-7 95,-37 -19,-17 -74,14 -21,-25 -66,21 -121,125 -13,189 -13,189 17,3 -45,91 93,0 64,-42 22,-15 36,-66 -41,44 8,142 -136,250 l -110,87 c -94,82 -86,70 -207,57 l -4,196 c -153,83 -15,34 -93,101 l -188,96 c 59,65 77,71 78,163 l -128,21 c 0,105 -15,113 -40,191 -102,-17 -61,-32 -137,-3 -47,18 35,-38 -36,21 l 46,130 c 176,-26 14,0 108,66 -17,-15 42,-58 -86,-35 -74,13 -27,7 -92,49 -164,107 -38,-24 -101,154 -10,3 -42,16 -49,18 l -75,28 c -56,12 -120,2 -192,0 l -139,179 146,37 c 62,11 65,19 86,28 -53,109 -102,92 -46,201 -59,-36 -12,-22 -120,-35 -11,-88 -74,-76 -179,-61 v 214 c -103,-44 -152,24 -90,-124 -83,-20 -54,-10 -133,-3 6,-236 12,-66 -53,-134 -27,38 -42,64 -70,106 l 201,318 -217,-36 c 52,-71 24,-1 41,-132 l -127,60 c 39,121 -105,59 -197,55 l 97,55 c 8,3 18,3 27,6 101,30 85,6 126,102 -55,25 -14,54 -122,-4 l -46,-31 c -6,-4 -17,-11 -25,-16 -94,50 -62,49 -130,116 l -39,-159 c -3,-7 -10,-18 -12,-24 -3,-6 -10,-15 -15,-23 -137,25 -112,-14 -95,139 l 88,-32 c -1,107 -1,89 54,156 5,6 15,15 19,19 4,5 13,13 18,20 l -205,8 c 4,118 48,27 -89,67 50,144 3,17 39,91 55,109 5,-42 46,96 -40,72 -6,37 -66,76 -41,27 -46,21 -82,31 -76,24 -144,78 -221,60 l -80,-68 c -2,-3 -4,-12 -6,-19 50,-54 -4,-33 77,-40 5,0 63,10 81,10 -3,-3 -6,-12 -7,-9 l -60,-62 c -172,44 -231,37 -339,96 -55,-142 33,-79 -85,-147 -10,16 -74,-7 6,122 l 62,99 c -118,17 -127,34 -221,98 -88,61 -75,-13 -137,81 47,46 -31,30 63,42 49,7 49,-2 98,-10 l -17,114 c 18,117 35,299 -158,335 -33,7 -89,-3 -119,-23 -61,-42 -98,-153 -174,-42 -68,98 1,51 -55,114 -69,78 -59,5 -176,157 l -61,75 c -68,59 -134,137 -152,221 l -146,33 c 24,38 12,9 29,53 -172,-18 -114,46 -233,20 -86,-19 78,-10 -77,-18 -37,96 -22,64 -101,140 l 86,33 -80,193 c -53,-24 -22,-5 -63,-35 -4,-3 -13,-10 -17,-14 -89,-66 -135,-28 -216,16 l -163,-84 c -39,29 -46,44 -69,78 -14,-4 -32,-24 -40,-13 l -236,-145 c -3,-3 -10,-12 -14,-19 -37,24 -39,28 -91,38 18,-63 57,-95 34,-174 -29,-97 -88,-85 -175,-76 l 40,-96 c -77,-12 -154,67 -208,126 -21,22 -37,207 -193,18 l -21,106 c -146,-22 -23,38 -125,-68 -102,-107 11,-37 -109,-82 -96,45 -33,27 -131,73 l -19,-94 c -123,22 -127,20 -216,-20 22,114 35,88 49,208 -96,-13 -106,-27 -220,-57 9,-241 4,14 -67,-192 l -122,123 -118,-110 c -46,62 -60,57 -129,76 -11,4 -83,22 -84,22 l -6,260 -63,-268 c -129,40 -47,-38 -125,106 -108,-35 -161,22 -271,-20 -9,-4 -20,-13 -30,-19 39,250 -142,186 -307,99 -53,207 10,45 -85,133 l -66,-75 c 24,157 20,66 -100,110 l 4,-240 c -102,9 -160,64 -297,35 18,121 3,76 0,214 l -127,-9 c -98,-44 -24,21 -65,-91 51,-100 -22,-14 50,-67 l 69,-32 c -64,-69 -122,31 -213,77 l -26,-125 -162,-7 c 6,-6 18,-27 20,-21 l 38,-63 c 3,-87 -7,-32 -51,-57 l -48,84 c -4,9 -17,37 -21,44 l -75,-193 176,-99 c -189,82 -51,58 -207,33 20,179 3,83 -26,123 -2,4 -12,8 -14,11 l -69,-86 c -65,-49 -37,-14 -108,-81 -76,0 -6,7 0,-70 150,15 75,-24 221,2 9,2 18,6 26,8 7,2 19,6 24,8 6,1 16,5 24,7 35,50 -40,24 93,38 27,3 138,1 166,2 83,-2 104,-15 166,-27 118,-23 33,15 150,15 125,0 250,9 372,0 l 122,53 c 4,0 56,-4 67,-3 -68,38 -18,89 -173,5 l -43,100 122,37 c 1,-2 2,-5 2,-4 l 20,-38 c 1,-3 7,-15 11,-23 l 203,51 c 80,13 133,-14 231,-23 -43,-96 -36,-53 -22,-201 63,-74 9,-26 121,-60 55,-17 85,-29 152,-45 110,-27 217,-38 313,-66 66,28 59,14 102,51 -20,55 -44,36 -24,96 136,-11 93,66 106,-129 l 155,-16 v -123 c 101,-25 146,-56 227,-91 l 201,-92 c 73,-40 157,-87 220,-121 48,-25 21,-9 68,-30 l 66,-29 c 75,-33 83,-33 147,-46 0,0 10,43 122,-20 80,93 -16,34 124,111 86,-83 51,-79 163,-119 l 97,105 c -61,81 24,23 -68,71 -43,23 -56,12 -87,13 81,29 87,12 144,68 l 29,-201 c 175,25 156,69 226,-82 l -113,-131 -93,56 c -2,1 -2,8 -4,12 8,-33 2,-30 18,-55 64,-105 127,-106 140,-114 l 37,-158 2,-60 86,-5 11,94 c 174,-23 141,-68 134,6 196,10 147,24 239,92 109,82 23,-12 132,37 l 117,-45 c 71,-125 111,-147 246,-202 l -65,-37 c -3,-3 -11,-10 -14,-14 l -23,-34 c -4,-5 -8,-15 -12,-20 -3,-6 -9,-17 -12,-22 -3,-5 -9,-15 -15,-22 7,-3 58,-33 58,-36 23,-128 30,-6 -36,-160 l 124,18 c -189,23 -36,-62 -36,-62 l 103,-58 c 106,-57 61,54 98,-93 0,0 -5,-133 -5,-146 114,48 57,-34 104,120 69,-62 18,66 68,-77 l 39,30 c 4,3 13,10 18,12 74,37 116,2 209,13 l 55,-151 c 1,0 100,-31 71,-131 35,3 44,6 98,19 124,-111 129,-36 154,-215 -39,144 17,62 95,94 l 56,-103 c -109,-187 -132,-84 -137,-84 46,-103 -7,-37 -15,-38 137,-6 92,32 186,-33 -42,-49 -68,-92 -210,-131 49,-109 40,-55 162,-36 l 94,5 c 7,-13 26,-2 39,-2 l -49,-70 c -6,-7 -14,-17 -19,-24 -5,-6 -17,-17 -25,-24 27,-30 24,-9 64,-77 l -80,-164 14,-50 c 32,-17 104,-51 154,-77 95,53 91,69 177,40 12,-37 52,-43 -40,-95 177,-11 -15,24 293,50 -91,-190 -3,-15 -64,-94 l -82,-118 c -57,-76 24,5 -48,-33 129,22 14,5 56,-37 -54,-100 6,-36 -61,-80 37,-32 24,-63 41,-96 l 60,3 c 300,-395 245,-101 288,-363 l -9,3 c 7,-7 15,-16 19,-21 4,-5 13,-15 18,-20 5,-6 11,-15 16,-21 l 63,-71 c 86,-88 44,35 60,-99 l 183,-43 c 32,44 9,2 34,69 l 31,-241 c -2,-13 -11,-16 -19,-21 l -36,-160 110,-21 77,-61 c 38,-29 48,-31 79,-46 -28,-26 -15,-19 -57,-46 -25,-16 -44,-19 -62,-27 l -1,-90 c 45,54 70,115 140,65 -31,-39 -19,-24 -34,-106 63,-50 11,17 48,-58 24,-49 0,-29 24,-98 19,-52 24,-16 21,-100 -2,-76 -6,-53 -35,-97 63,-64 97,-42 127,-214 10,-192 6,-124 80,-282 l -85,-93 -5,-89 c 29,-139 84,-146 33,-306 -52,-163 7,-358 -10,-471 -13,-88 -64,-250 27,-423 10,-18 29,-9 36,-42 3,-14 14,-14 21,-21 -107,-33 -126,-33 -132,-194 -13,-345 -81,-399 -97,-488 -18,-94 8,-156 -12,-263 l 33,-93 -41,-62 c -68,-51 -79,-60 -82,-164 -3,-136 15,26 5,-90 0,-1 -15,-68 -17,-85 101,-87 52,-143 98,-11 l 9,-104 c 11,0 88,10 94,-1 6,-9 15,12 23,17 31,-35 7,-27 53,-24 -37,75 41,98 41,99 -88,57 -73,25 -105,144 l 60,23 c 8,1 21,1 29,0 137,-6 -3,-91 59,-26 276,7 23,62 298,103 l -85,-169 c 68,-58 -8,-7 87,-48 l 57,66 c 116,150 12,41 128,116 58,-75 85,-55 27,-130 254,-24 117,5 226,37 108,33 11,23 74,-21 -137,-45 -175,8 -217,-161 l 111,14 c 31,-121 62,-114 151,-174 -115,-243 76,-217 69,-495 -85,-34 -70,-37 -159,0 20,-94 26,-114 -10,-157 -26,30 -44,54 -67,99 -34,65 8,48 -49,67 51,-94 28,-58 -13,-165 l -65,-55 c -11,4 -25,7 -33,11 -7,3 -23,10 -30,14 -7,3 -45,32 -43,40 l 7,-143 c -95,112 3,35 -109,83 l -107,-82 c -53,117 -32,98 -150,79 l -6,141 -133,37 v -220 l -142,112 -6,150 c -89,-89 -45,-29 -187,-44 8,-95 42,-88 92,-232 l 1,-30 c 37,-169 46,-16 6,-196 103,-86 89,-119 191,-172 l -58,-136 c -39,-75 -8,9 -12,13 -48,-222 25,-150 -131,-187 l 1,46 c 7,75 115,12 -20,66 -84,33 -51,-28 -118,43 -3,-148 -17,-76 -20,-107 -21,-193 97,-131 99,-132 66,-17 50,-17 91,-56 l -101,-94 c -49,-28 -72,-22 -139,-39 43,-4 43,-8 72,-13 223,-44 150,92 226,-181 -130,24 -126,57 -221,72 -125,-160 14,-123 -7,-195 -21,-71 -41,-44 -91,-74 l -137,393 c -4,-2 44,-40 -124,6 l -32,-71 c -83,25 -53,10 -98,49 l -75,-24 21,-22 100,-125 c 6,-5 20,-6 25,-20 4,-16 17,-15 26,-22 -128,-192 -128,-115 -130,-115 40,20 69,8 163,10 l -94,-104 c -48,-39 -48,-24 -69,-37 53,32 26,1 49,-77 0,52 7,48 43,90 39,-64 45,-83 10,-138 l 126,93 c 96,-57 81,-30 73,-83 l -34,-136 c -84,53 -111,52 -234,-27 -38,-301 38,14 14,-215 -208,27 -106,167 -171,81 -6,-8 -20,13 -30,19 l -74,-146 c -145,86 42,25 -145,69 l -134,-12 3,-91 c -76,-49 -174,-91 -216,-165 -59,-106 13,-220 -111,-239 -64,-91 -35,-101 -117,-214 l -53,-68 c -277,-324 -160,-17 -318,-415 -5,-1 -82,-12 -84,-13 -60,-21 -30,-12 -62,-36 l -107,-90 c -118,-99 -69,-142 -246,-136 l -11,-116 194,82 c -49,-87 -26,-6 -27,-131 l -97,45 c 29,-116 46,-69 -14,-160 -4,-5 -12,-12 -16,-18 -39,-57 -14,-17 -33,-61 35,-22 -13,-28 56,-22 50,4 21,2 73,25 10,-149 -45,-52 62,-117 149,157 -71,53 358,249 114,52 46,32 102,94 100,111 177,66 205,224 89,-46 6,-16 133,-46 47,100 145,111 239,190 97,82 144,106 248,172 l 799,674 c 137,175 54,53 217,209 35,34 23,17 50,46 32,34 30,36 58,76 71,100 108,164 198,259 71,74 120,150 187,235 153,193 10,90 172,257 230,238 157,140 359,483 l 191,340 c 195,243 224,353 301,445 80,96 128,161 164,300 -15,10 47,91 -82,15 29,111 23,39 -10,142 l 130,-75 c 2,171 10,65 -37,188 z"
   id="path308"
   inkscape:connector-curvature="0"
   style="fill:#e5dbd5" />
   <path
   class="fil2"
   d="m 5417,18932 c 120,28 186,44 313,81 158,45 52,-27 184,20 13,99 61,100 155,116 l 131,3 33,72 c 147,-19 117,-34 238,35 l 120,-15 c 122,27 53,-1 120,50 4,3 -9,36 86,52 165,28 62,13 98,-33 l 55,82 163,-8 v 164 c 211,-53 -1,74 261,32 9,8 20,-13 0,12 -88,108 -62,31 -126,38 -117,13 20,-2 -191,95 -3,1 -76,36 -69,35 l 41,163 c 141,-32 151,-39 182,-175 l 196,-24 c 39,196 -5,36 65,110 106,-3 105,52 145,-40 36,-84 19,8 -25,-72 l -31,-47 c 162,52 177,69 302,-26 21,15 45,33 70,51 10,9 36,37 39,31 3,-7 14,10 22,16 53,-6 73,-12 131,-25 61,-14 24,-18 107,-16 l 43,116 88,-96 c -7,-7 -15,-17 -20,-22 -5,-5 -14,-16 -20,-21 -39,-32 16,-53 -168,-44 l 34,-97 98,1 c -6,77 -76,70 0,70 71,67 43,32 108,81 l 69,86 c 2,-3 12,-7 14,-11 29,-40 46,56 26,-123 156,25 18,49 207,-33 l -176,99 75,193 c 4,-7 17,-35 21,-44 l 48,-84 c 44,25 54,-30 51,57 l -38,63 c -2,-6 -14,15 -20,21 l 162,7 26,125 c 91,-46 149,-146 213,-77 l -69,32 c -72,53 1,-33 -50,67 41,112 -33,47 65,91 l 127,9 c 3,-138 18,-93 0,-214 137,29 195,-26 297,-35 l -4,240 c 120,-44 124,47 100,-110 l 66,75 c 95,-88 32,74 85,-133 165,87 346,151 307,-99 10,6 21,15 30,19 110,42 163,-15 271,20 78,-144 -4,-66 125,-106 l 63,268 6,-260 c 1,0 73,-18 84,-22 69,-19 83,-14 129,-76 l 118,110 122,-123 c 71,206 76,-49 67,192 114,30 124,44 220,57 -14,-120 -27,-94 -49,-208 89,40 93,42 216,20 l 19,94 c 98,-46 35,-28 131,-73 120,45 7,-25 109,82 102,106 -21,46 125,68 l 21,-106 c 156,189 172,4 193,-18 54,-59 131,-138 208,-126 l -40,96 c 87,-9 146,-21 175,76 23,79 -16,111 -34,174 52,-10 54,-14 91,-38 4,7 11,16 14,19 l 236,145 c 8,-11 26,9 40,13 23,-34 30,-49 69,-78 l 163,84 c 81,-44 127,-82 216,-16 4,4 13,11 17,14 41,30 10,11 63,35 l 80,-193 -86,-33 c 79,-76 64,-44 101,-140 155,8 -9,-1 77,18 119,26 61,-38 233,-20 -17,-44 -5,-15 -29,-53 l 146,-33 c 18,-84 84,-162 152,-221 l 61,-75 c 117,-152 107,-79 176,-157 56,-63 -13,-16 55,-114 76,-111 113,0 174,42 30,20 86,30 119,23 193,-36 176,-218 158,-335 l 17,-114 c -49,8 -49,17 -98,10 -94,-12 -16,4 -63,-42 62,-94 49,-20 137,-81 94,-64 103,-81 221,-98 l -62,-99 c -80,-129 -16,-106 -6,-122 118,68 30,5 85,147 108,-59 167,-52 339,-96 l 60,62 c 1,-3 4,6 7,9 -18,0 -76,-10 -81,-10 -81,7 -27,-14 -77,40 2,7 4,16 6,19 l 80,68 c 77,18 145,-36 221,-60 36,-10 41,-4 82,-31 60,-39 26,-4 66,-76 -41,-138 9,13 -46,-96 -36,-74 11,53 -39,-91 137,-40 93,51 89,-67 l 205,-8 c -5,-7 -14,-15 -18,-20 -4,-4 -14,-13 -19,-19 -55,-67 -55,-49 -54,-156 l -88,32 c -17,-153 -42,-114 95,-139 5,8 12,17 15,23 2,6 9,17 12,24 l 39,159 c 68,-67 36,-66 130,-116 8,5 19,12 25,16 l 46,31 c 108,58 67,29 122,4 -41,-96 -25,-72 -126,-102 -9,-3 -19,-3 -27,-6 l -97,-55 c 92,4 236,66 197,-55 l 127,-60 c -17,131 11,61 -41,132 l 217,36 -201,-318 c 28,-42 43,-68 70,-106 65,68 59,-102 53,134 79,-7 50,-17 133,3 -62,148 -13,80 90,124 v -214 c 105,-15 168,-27 179,61 108,13 61,-1 120,35 -56,-109 -7,-92 46,-201 -21,-9 -24,-17 -86,-28 l -146,-37 139,-179 c 72,2 136,12 192,0 l 75,-28 c 7,-2 39,-15 49,-18 63,-178 -63,-47 101,-154 65,-42 18,-36 92,-49 128,-23 69,20 86,35 -94,-66 68,-92 -108,-66 l -46,-130 c 71,-59 -11,-3 36,-21 76,-29 35,-14 137,3 25,-78 40,-86 40,-191 l 128,-21 c -1,-92 -19,-98 -78,-163 l 188,-96 c 78,-67 -60,-18 93,-101 l 4,-196 c 121,13 113,25 207,-57 l 110,-87 c 144,-108 95,-206 136,-250 -14,51 28,24 -36,66 -138,91 -76,3 -93,0 0,0 -108,-64 13,-189 45,-46 -8,-7 66,-21 114,-20 14,10 19,17 1,-27 -4,-53 -8,-58 l -74,-76 c 15,-89 22,-91 28,-188 l 99,99 c 61,-96 -21,-156 -32,-292 l 149,27 c 89,-169 0,-12 21,-142 16,-96 44,-62 56,-140 -95,117 29,43 -130,101 -73,-257 57,-152 164,-349 -57,-97 -103,-166 -191,-212 75,-69 33,-19 127,-52 3,-1 85,-58 93,-63 -53,-109 -22,-29 -60,-148 76,-44 56,1 73,-102 -157,20 -133,1 -238,-55 36,-107 63,-85 119,-151 26,-30 52,-109 66,-134 -5,-2 -14,-5 -16,-5 l -116,-27 c 109,-93 35,-18 82,-114 -72,-36 -51,-25 -134,-55 93,-49 74,-57 94,-93 -44,-78 -11,-62 -105,-103 37,-143 13,-208 127,-290 -141,-60 -44,8 -107,-88 l -38,-66 c -3,-5 -13,-9 -15,-21 -27,-147 25,-182 138,-248 -135,-60 23,67 -72,-98 136,1 78,32 102,-36 -105,-61 -76,-86 -174,-142 l -73,-54 89,-131 c -107,-312 -53,-223 -85,-547 53,7 80,16 138,13 139,-6 4,7 68,-23 -84,-98 -354,-120 -185,-247 -191,5 -161,-99 -281,-277 l 38,-67 c 10,-28 11,-15 15,-66 24,-352 12,-84 62,-267 79,69 1,-32 58,62 26,43 -5,16 31,70 35,53 58,51 108,92 58,96 22,221 119,340 93,115 120,133 178,280 l 53,-11 c 5,114 -3,116 34,212 l 72,189 c 47,118 -9,252 -29,378 8,6 21,7 24,20 l 71,45 c -13,172 -73,473 94,566 l -34,114 c -27,101 4,-10 -31,91 -36,107 -26,102 -26,244 8,8 21,7 25,21 19,75 125,16 21,152 -73,96 14,308 14,393 l -126,56 35,373 c 4,243 48,155 3,381 -30,154 35,373 -70,469 -1,189 47,445 -104,585 l -39,26 c 49,48 36,28 66,102 -113,40 -76,10 -75,182 -170,46 -122,6 -127,138 -147,-69 -126,14 -115,111 14,115 10,188 9,303 l -272,21 c -17,75 -33,98 -45,190 l -292,30 c 3,133 -37,165 -2,265 40,111 28,-53 38,132 13,242 -198,206 -396,199 19,184 -12,13 42,121 24,47 37,87 55,135 -123,-1 -149,-37 -227,-90 -19,94 14,88 39,163 -136,-33 -131,-125 -261,-66 l 102,94 c -82,63 -163,66 -264,71 45,131 -72,210 -198,205 15,110 -6,-2 26,109 -139,-55 -157,65 -356,103 -15,173 -139,160 -98,134 -15,83 -30,179 -111,221 l -54,16 c -9,1 -23,-2 -30,-2 -9,0 -22,-4 -33,-6 43,24 27,-19 33,45 l 141,-54 12,159 -284,97 c -46,-54 -29,-14 -65,-96 l 100,162 -79,14 c 83,86 35,-5 61,146 -225,-16 -64,48 -180,-94 -141,58 79,74 -213,67 48,48 27,32 69,98 -192,18 -88,150 -302,152 78,72 41,14 67,134 -242,2 -39,10 -208,-73 -95,18 -87,35 -165,38 -177,6 2,-58 -133,-8 -154,58 23,128 -278,138 -13,269 -71,230 -88,280 l -76,14 c -14,1 -106,12 -155,9 -22,101 -24,150 -116,198 -50,-72 -39,-91 -15,-173 -44,20 -7,0 -46,30 l -137,100 c -60,18 -62,7 -122,-1 4,23 34,99 34,102 21,208 -6,87 -66,145 -72,-115 -143,-165 -58,-231 -34,18 -87,129 -106,190 -28,-24 -63,-101 -47,-23 -85,69 -81,169 -90,304 l -97,-98 c -394,128 -658,-31 -946,170 l -37,-33 c -31,-23 -5,-9 -50,-34 l -105,90 c 33,20 13,8 66,24 134,43 -78,-34 55,15 77,28 68,80 79,161 -229,81 -242,1 -465,153 -270,-165 -433,82 -714,16 -423,-98 -405,-3 -789,23 l -8,154 c -197,-13 -269,6 -336,-82 l -32,62 c -124,-5 -246,-10 -372,-16 -71,-3 -162,9 -228,-25 -6,-4 -14,-11 -20,-14 l -272,1 c -8,-10 -19,-31 -22,-24 l -70,-48 c -145,68 -157,10 -309,9 -137,-1 -134,74 -252,-42 l -163,28 -79,-126 c -229,25 -203,-76 -409,-67 -160,7 -295,17 -423,-32 -7,-3 -15,-8 -22,-12 l -489,-291 c -54,-37 -43,-21 -105,-70 -142,-112 -474,-234 -664,-411 l -297,-296 c -71,-98 -77,-37 -167,-124 -107,-106 -134,-259 -215,-374 l 32,-67 c 17,-70 17,9 0,-93 z"
   id="path310"
   inkscape:connector-curvature="0"
   style="fill:#f1ede9" />
   <path
   class="fil3"
   d="m 14024,7032 c 31,57 28,67 116,78 l 6,65 c 247,114 157,253 278,274 52,9 92,11 93,-65 l 180,107 c 124,19 52,133 111,239 42,74 140,116 216,165 l -3,91 15,141 c 48,36 47,33 108,61 l 3,33 c -55,51 24,-17 -43,35 l -37,27 c 278,162 51,88 243,221 l -1,97 c 49,47 66,52 127,80 8,151 -6,119 71,200 l -21,22 c 19,89 -2,127 63,127 l 25,37 c 94,209 -64,206 148,241 -47,92 -23,106 65,165 -19,148 -63,87 50,190 -17,44 -20,56 -34,99 106,98 20,65 100,212 l 37,62 c 87,154 36,158 -10,193 94,67 60,18 90,143 20,80 27,109 28,193 -51,113 0,83 -126,88 9,10 22,11 26,30 l 69,151 108,-13 -19,111 c 2,17 17,84 17,85 10,116 -8,-46 -5,90 3,104 14,113 82,164 -20,137 5,62 -52,92 l 60,63 c 20,107 -6,169 12,263 16,89 84,143 97,488 6,161 25,161 132,194 -7,7 -18,7 -21,21 -7,33 -26,24 -36,42 -91,173 -40,335 -27,423 17,113 -42,308 10,471 51,160 -4,167 -33,306 l -48,49 c -137,-85 -43,-30 -114,-28 -60,106 -19,-71 -21,199 -111,-45 -38,-45 -79,0 9,296 4,78 -63,164 17,-226 -34,-251 5,-500 l -20,-89 c 8,-8 19,-28 22,-22 l 71,-77 c -115,-38 -49,-10 -126,-55 20,-151 44,-99 41,-271 -2,-106 1,-226 -5,-328 -16,-274 -95,-257 -65,-566 l 36,-88 c -11,-8 -21,-29 -26,-22 l -96,-78 c 49,-172 13,-28 65,-163 -98,-153 11,-233 -65,-424 -107,96 -55,-50 -82,98 -28,147 -9,-18 20,83 50,168 102,100 -6,136 -11,-110 -41,-198 -66,-304 216,20 44,17 125,-48 -30,-65 -52,-150 -104,-36 -16,-355 5,-29 -40,-266 13,4 43,11 46,10 67,-20 32,-17 59,-35 -38,-64 37,-21 -56,-78 l -36,-11 c -6,-2 -34,-6 -45,-9 -52,-254 -7,-544 -65,-772 l -296,-745 c -182,-339 -79,-227 -189,-466 -97,-212 -243,-409 -274,-618 61,-61 71,62 35,-70 -37,79 -40,-24 -78,-75 -70,-95 42,-78 -114,-37 l -8,-164 c -82,-16 -29,-26 -70,39 l -145,-185 c -40,-51 -224,-406 -380,-568 -130,-137 -110,-44 -206,-230 51,-89 -96,-71 51,-71 z"
   id="path312"
   inkscape:connector-curvature="0"
   style="fill:#43333c" />
   <path
   class="fil4"
   d="m 1470,11461 c 16,135 -15,85 -27,140 -22,97 -18,998 -69,1140 -85,55 -59,23 -99,127 -29,-40 -48,-17 -51,-98 l -56,4 c 32,55 4,92 -8,150 6,-1 15,-3 18,-4 l 209,-81 -9,97 c -1,-4 -82,67 76,198 -72,269 15,363 22,394 29,126 -11,52 7,154 13,74 33,32 40,132 l 76,398 c 42,118 39,64 76,222 2,12 29,133 30,135 l 47,86 c 69,138 -5,50 117,181 -13,274 56,276 117,328 -11,259 308,484 322,756 -26,73 -6,77 -47,38 -76,-79 -28,-30 -57,-103 -76,74 -22,-3 -81,67 l -18,33 c -3,5 -5,15 -8,19 l -25,37 c -3,3 -12,11 -19,16 -101,-89 -153,-309 -176,-352 -54,-98 -68,-71 -106,-158 -19,-44 -7,-41 -35,-96 l -212,-514 c -10,-25 -17,-65 -28,-97 -27,-76 4,-1 -17,-46 -112,-240 -53,-200 -159,-249 l 8,-104 142,58 c -42,-111 -5,-107 -165,-202 80,-82 42,-9 58,-112 l -91,-24 -34,-12 c 18,-198 -28,-138 -39,-307 l -22,-121 c 12,8 25,17 37,26 l 114,85 c -18,-173 10,-104 -180,-177 -12,-92 37,-215 -63,-635 -50,-210 29,-1079 86,-1185 60,-6 90,21 109,-50 l -33,-115 153,20 c -96,-145 -111,-150 -28,-310 z"
   id="path314"
   inkscape:connector-curvature="0"
   style="fill:#443443" />
   <path
   class="fil3"
   d="m 11220,19044 1,126 c -81,35 -126,66 -227,91 l -75,60 c -5,-7 -16,14 -22,22 -264,-57 -221,23 -242,39 -96,28 -203,39 -313,66 -67,16 -97,28 -152,45 -112,34 -58,-14 -121,60 -61,-27 -49,6 -86,-39 -85,21 -76,18 -164,31 -93,13 -88,18 -195,47 -22,-22 -30,-21 -50,-56 -35,20 -26,37 -45,63 -122,9 -247,0 -372,0 -117,0 -32,-38 -150,-15 -62,12 -83,25 -166,27 l -126,-164 c 48,41 6,4 36,-39 -160,21 -124,-5 -269,13 58,66 144,96 248,131 l -148,19 c -8,-2 -18,-6 -24,-7 -5,-2 -17,-6 -24,-8 -8,-2 -17,-6 -26,-8 -146,-26 -71,13 -221,-2 -5,-8 -13,-30 -15,-23 -3,8 -3,-9 -28,-34 -75,-77 33,62 -22,-17 50,-81 88,-67 195,-87 l -29,-146 c -1,-4 -4,-16 -3,-24 l 577,26 c 107,4 489,-59 633,-43 176,-47 33,-17 70,30 l 48,183 c 41,-201 92,57 122,-155 l -80,-84 154,17 50,28 c -37,56 5,84 85,79 132,-9 44,-5 91,-40 -2,-6 -6,-13 -8,-16 l -46,-128 c 200,-7 365,-22 498,-71 158,-58 353,-118 480,-177 -53,134 -79,19 1,64 31,-39 43,-80 94,-88 229,-37 79,14 134,56 -7,8 -16,18 -22,23 -108,87 -130,46 -130,170 z"
   id="path316"
   inkscape:connector-curvature="0"
   style="fill:#43333c" />
   <path
   class="fil5"
   d="m 3787,17509 -34,110 c -2,9 -6,18 -8,26 -27,79 -19,-10 -24,72 288,2 26,62 243,42 163,38 376,167 442,319 155,-22 269,16 336,159 l 158,1 63,134 c 145,-5 477,141 604,199 -58,54 -45,114 21,158 7,5 16,11 23,14 132,59 38,19 67,-11 -74,0 -3,-9 -24,81 l 43,148 c 5,4 15,12 22,18 l -28,-125 117,11 c -40,-166 -90,-110 41,-135 28,33 103,-110 24,166 -97,47 -96,-37 -35,16 67,59 30,-14 3,17 l 130,-129 c 85,128 126,65 133,63 -1,3 75,71 -144,98 l 33,-6 c 69,71 -23,-74 43,72 -76,14 -111,9 -122,6 -132,-47 -26,25 -184,-20 -127,-37 -193,-53 -313,-81 -97,-55 -196,-133 -301,-166 l -26,-197 c -116,32 -52,51 -119,-14 l -52,-86 -89,46 c 0,3 0,15 -1,18 -10,64 60,-58 -24,53 -251,-28 -376,-159 -585,-293 l -151,-111 c -21,-50 23,-48 -63,-96 -89,-50 -17,-49 -56,26 l -457,-391 c -136,-152 -161,-108 -246,-266 43,-27 25,-12 50,-50 l 32,69 c 42,-71 19,-96 0,-159 -83,-66 104,-56 -104,-54 l -22,-68 14,19 33,-49 c 70,39 13,-30 86,62 72,-32 123,46 37,-51 85,55 131,131 214,186 84,56 138,109 200,149 z"
   id="path318"
   inkscape:connector-curvature="0"
   style="fill:#4c3c4a" />
   <path
   class="fil6"
   d="m 16213,10817 65,-171 c -72,-4 -24,-72 -32,-131 27,-23 93,-28 105,-33 6,8 16,8 19,22 l 71,90 c 44,-74 15,-102 12,-177 l 157,137 c 102,-70 74,7 127,-190 26,-100 -15,65 22,-111 -89,43 -89,45 -168,76 -3,-7 -8,-26 -10,-21 l -27,-42 c -4,-5 -14,-16 -17,-20 -4,-5 -13,-14 -19,-21 -78,43 -84,40 -207,-103 -71,-1 -2,11 -27,-74 l 142,-112 v 220 l 133,-37 6,-141 c 118,19 97,38 150,-79 l 107,82 c 112,-48 14,29 109,-83 l -7,143 c -2,-8 36,-37 43,-40 7,-4 23,-11 30,-14 8,-4 22,-7 33,-11 l 65,55 c 41,107 64,71 13,165 57,-19 15,-2 49,-67 23,-45 41,-69 67,-99 36,43 30,63 10,157 89,-37 74,-34 159,0 7,278 -184,252 -69,495 -89,60 -120,53 -151,174 l -111,-14 c 42,169 80,116 217,161 -63,44 34,54 -74,21 -109,-32 28,-61 -226,-37 58,75 31,55 -27,130 -116,-75 -12,34 -128,-116 l -57,-66 c -95,41 -19,-10 -87,48 l 85,169 c -275,-41 -22,-96 -298,-103 -62,-65 78,20 -59,26 -8,1 -21,1 -29,0 l -60,-23 c 32,-119 17,-87 105,-144 0,-1 -78,-24 -41,-99 -46,-3 -22,-11 -53,24 -8,-5 -17,-26 -23,-17 -6,11 -83,1 -94,1 z"
   id="path320"
   inkscape:connector-curvature="0"
   style="fill:#d2c5bd" />
   <path
   class="fil5"
   d="m 6678,4901 -45,81 h 79 c -41,42 -254,163 -320,193 -133,62 6,31 -311,211 l -495,289 c -70,75 -15,58 -135,129 -320,191 -684,541 -900,665 -101,59 -138,110 -203,191 -23,29 -30,39 -64,72 47,-181 -51,-87 -78,-244 -230,-1 11,27 -74,-66 142,-143 51,-4 270,-202 l 279,-204 29,119 c 170,-45 99,-108 200,-59 6,3 16,13 25,19 23,-240 -17,-84 54,-146 -83,-62 102,-87 -152,-15 l 47,-54 c 20,-39 -5,-24 34,-59 35,-31 19,-10 58,-34 107,-67 28,-6 104,-95 29,-35 53,-62 98,-100 156,-131 6,39 232,-156 228,-196 493,-229 682,-430 17,-18 18,-26 51,-51 47,-35 75,-35 132,-62 117,-54 430,-219 540,-293 133,36 29,-63 71,54 -121,88 -126,225 -141,200 -4,-7 -16,20 -23,29 -25,-71 -21,-77 -98,-129 -127,209 8,140 54,147 z"
   id="path322"
   inkscape:connector-curvature="0"
   style="fill:#4c3c4a" />
   <path
   class="fil7"
   d="m 12809,5758 c 96,63 83,14 186,123 45,28 76,53 110,80 l 121,38 c -49,80 -56,83 -8,159 110,-65 2,-23 157,-47 38,132 213,272 324,292 l 11,116 c 177,-6 128,37 246,136 l 107,90 c 32,24 2,15 62,36 2,1 79,12 84,13 158,398 41,91 318,415 l -75,65 65,110 c -1,76 -41,74 -93,65 -121,-21 -31,-160 -278,-274 l -6,-65 c -9,-131 58,1 -21,-131 -50,12 -35,8 -64,24 -20,11 -23,22 -31,29 l -94,-119 c -147,0 0,-18 -51,71 l -125,-29 21,-155 -132,6 -82,-49 c -219,-132 -108,-124 -293,-156 l -34,-162 c 4,-5 172,78 17,-115 l -105,-56 c -5,-3 -14,-7 -18,-10 l -41,-26 c -70,-70 -15,-5 -38,-72 -115,65 -115,-97 -82,108 -95,-69 -169,-67 -263,-119 -145,-78 -50,-123 -264,-165 l -10,-86 c 67,-73 -91,-54 59,-54 20,102 -46,26 93,111 2,-84 30,-158 -56,-197 -166,-74 -98,86 -98,109 l -94,-67 c -41,-1 -17,19 -84,-13 -52,-25 -47,-36 -64,-57 l 15,-61 c 257,-1 37,22 130,-98 -127,-28 -31,-49 -183,-62 -7,-1 -47,6 -57,7 -49,-161 -19,-48 -20,-191 198,18 305,177 385,217 121,60 239,61 266,224 z"
   id="path324"
   inkscape:connector-curvature="0"
   style="fill:#4b3b44" />
   <path
   class="fil4"
   d="m 8385,19215 c -1,8 2,20 3,24 l 29,146 c -107,20 -145,6 -195,87 55,79 -53,-60 22,17 25,25 25,42 28,34 2,-7 10,15 15,23 l -98,-1 -66,25 c -108,-45 -10,-34 -157,-46 l -6,-70 c 99,27 50,27 118,-68 l -191,-70 c 2,90 1,37 11,137 -132,4 -21,-12 -67,56 -86,10 -167,-51 -338,-45 -128,5 -291,-46 -380,-77 l -163,8 -55,-82 -108,-130 -76,111 c -67,-51 2,-23 -120,-50 l -65,-88 c -28,28 -29,-24 -55,103 -121,-69 -91,-54 -238,-35 l -33,-72 c -37,-70 42,-59 -38,-59 75,-40 78,36 56,-117 l -172,52 23,121 c -94,-16 -142,-17 -155,-116 11,3 46,8 122,-6 -66,-146 26,-1 -43,-72 l -33,6 c 219,-27 143,-95 144,-98 -7,2 -48,65 -133,-63 l -130,129 c 27,-31 64,42 -3,-17 -61,-53 -62,31 35,-16 79,-276 4,-133 -24,-166 -131,25 -81,-31 -41,135 l -117,-11 -37,-41 c 21,-90 -50,-81 24,-81 -29,30 65,70 -67,11 -7,-3 -16,-9 -23,-14 -66,-44 -79,-104 -21,-158 l 643,252 1425,338 z"
   id="path326"
   inkscape:connector-curvature="0"
   style="fill:#443443" />
   <path
   class="fil8"
   d="m 16284,10048 c 25,85 -44,73 27,74 123,143 129,146 207,103 l -47,98 c -88,-41 -71,-39 -149,-79 17,62 -25,29 56,114 5,5 17,10 21,14 4,4 15,7 22,12 l -50,20 c -2,1 -15,5 -17,6 -3,1 -13,4 -19,6 l 16,66 c -12,5 -78,10 -105,33 8,59 -40,127 32,131 l -65,171 -9,104 c -46,-132 3,-76 -98,11 l 19,-111 c -6,-54 7,-36 -57,-36 2,-11 18,-103 18,-108 -7,-118 22,-54 -38,-112 -1,-84 -8,-113 -28,-193 -30,-125 4,-76 -90,-143 46,-35 97,-39 10,-193 l -37,-62 c -80,-147 6,-114 -100,-212 14,-43 17,-55 34,-99 -113,-103 -69,-42 -50,-190 -88,-59 -112,-73 -65,-165 -212,-35 -54,-32 -148,-241 l -25,-37 c 49,-39 27,-15 65,-33 66,-31 29,-5 77,-48 168,-46 120,-8 124,-6 l 137,-393 c 50,30 70,3 91,74 21,72 -118,35 7,195 95,-15 91,-48 221,-72 -76,273 -3,137 -226,181 -29,5 -29,9 -72,13 67,17 90,11 139,39 l 101,94 c -41,39 -25,39 -91,56 -2,1 -120,-61 -99,132 3,31 17,-41 20,107 67,-71 34,-10 118,-43 135,-54 27,9 20,-66 l -1,-46 c 156,37 83,-35 131,187 4,-4 -27,-88 12,-13 l 58,136 c -102,53 -88,86 -191,172 40,180 31,27 -6,196 l -1,30 c -50,144 -84,137 -92,232 142,15 98,-45 187,44 z"
   id="path328"
   inkscape:connector-curvature="0"
   style="fill:#d5cbc3" />
   <path
   class="fil9"
   d="m 3884,7091 c -32,60 34,23 -76,80 -82,42 -60,22 -136,21 -43,189 -62,117 -164,227 l -392,483 c -4,7 -8,16 -12,22 l -58,80 c -59,62 -66,50 -142,76 -27,96 -10,142 -64,210 -75,96 -62,1 -111,135 l -17,-137 c -155,132 -40,94 -35,99 l -14,-44 c -2,-3 -14,-13 -19,-22 l -130,66 c 34,48 72,-99 5,55 -2,5 -9,14 -12,20 l -29,40 c -4,8 -8,16 -11,24 -43,104 32,130 -135,188 2,9 3,12 4,27 l 47,136 c -143,3 -71,-3 -99,21 l -96,110 c 28,-31 -40,-41 65,-21 -30,45 98,20 -163,120 39,-98 -37,-67 98,-131 l -72,-105 c 108,-177 91,-211 181,-340 42,-61 23,-47 46,-81 91,-142 110,-26 134,-293 153,-73 160,-218 279,-317 40,-34 43,-20 73,-57 96,-118 -1,-173 225,-270 l 39,28 c 56,-35 43,-34 126,-47 l -28,-88 c 7,-8 33,-32 40,-37 l 40,-31 c 52,-50 20,-11 51,-71 96,-180 172,-71 53,-106 75,-116 109,-72 198,-231 l -15,114 c 10,-4 65,-27 76,-29 10,-2 19,-5 29,-6 z"
   id="path330"
   inkscape:connector-curvature="0"
   style="fill:#544453" />
   <path
   class="fil10"
   d="m 13380,17831 c -62,99 -130,105 -240,141 l -56,-37 c -8,98 30,-2 -87,122 l -65,71 c -38,58 -18,32 -76,83 -9,8 -51,44 -52,45 -53,37 2,7 -58,31 l -70,-5 c 46,-54 37,-1 9,-65 -51,77 9,42 -108,49 l -51,1 c -240,28 184,-47 -60,9 l -59,22 c 0,6 0,10 1,18 7,72 63,57 54,150 l -211,122 -14,98 -21,-13 c -38,18 -50,0 -79,33 -1,-168 34,-109 -66,-154 -57,146 44,53 -7,124 -186,-2 -12,-14 -90,78 l -258,17 c 27,-210 23,-174 94,-203 -113,-146 65,-54 -104,-32 66,-72 15,-35 99,-74 44,-20 30,-3 80,-19 l -7,-66 147,25 c 39,-234 195,-153 330,-259 l 65,-100 c 128,-35 93,-22 199,-96 -19,-42 0,-27 -39,-61 l -9,-10 c 134,8 83,37 216,69 -59,-181 8,45 1,-227 l 41,14 91,63 152,-244 17,-32 c 20,7 59,2 86,26 l 88,-48 c 117,-4 34,19 135,-25 -53,109 -22,117 -159,147 63,35 37,30 41,145 l 162,-12 z"
   id="path332"
   inkscape:connector-curvature="0"
   style="fill:#3b333b" />
   <path
   class="fil11"
   d="m 16352,14098 c -30,172 -64,150 -127,214 29,44 33,21 35,97 3,84 -2,48 -21,100 l -127,32 c 35,112 4,11 30,67 11,25 11,6 25,57 l -140,-15 c -28,221 2,114 35,146 -28,98 -24,74 -37,180 -103,-61 -66,-54 -171,24 l -127,144 c -17,3 -33,-2 -38,11 -16,38 -96,-28 -128,41 -8,136 57,66 0,229 -10,1 -25,-6 -29,2 -39,67 -1,31 -119,-67 18,194 101,210 -34,197 l 167,68 9,-3 c -66,13 -214,48 -288,-17 l -87,14 c 32,-148 7,-76 102,-177 86,-90 53,-92 87,-143 4,-6 10,-14 15,-20 l 329,-394 c 4,-12 16,-11 25,-16 59,-294 -5,-98 107,-295 l 111,-32 c -4,-139 10,-37 -43,-75 l 11,-24 c 116,-34 56,0 123,-32 -16,-91 13,-61 -67,-66 l 24,-55 c -25,-172 15,-131 13,-272 67,-86 72,132 63,-164 41,-45 -32,-45 79,0 2,-270 -39,-93 21,-199 71,-2 -23,-57 114,28 l 44,390 c 2,-5 9,17 14,25 z"
   id="path334"
   inkscape:connector-curvature="0"
   style="fill:#372729" />
   <path
   class="fil3"
   d="m 15555,15622 c -43,262 12,-32 -288,363 l -60,-3 c -106,52 -37,-1 -101,60 24,70 20,59 65,114 -107,19 -87,55 -134,121 l -102,168 c -50,26 -122,60 -154,77 -83,-13 -66,-34 -66,45 -24,-127 45,-47 -123,-92 35,154 -29,167 121,126 v 60 c -101,116 -93,-29 -191,130 -93,-86 -15,-34 -101,-56 -27,53 -128,122 -192,142 257,143 70,-25 170,107 -174,-132 -46,-21 -82,20 l -10,68 -78,23 -75,-76 c -7,-6 -19,-14 -28,-22 l -57,25 c -25,10 -40,17 -80,31 l 26,-90 c -62,-93 26,-26 -107,-54 66,-72 88,-60 181,-115 100,-60 44,-63 156,-109 l 86,21 c 40,-84 20,-45 79,-107 l 117,-95 c -53,-37 18,-26 -78,2 -11,-95 15,-39 -21,-101 57,-45 113,-76 164,-148 103,-144 7,-65 167,-142 l 20,39 c 18,-42 56,-15 116,15 6,2 16,9 25,14 1,-96 44,-158 80,-242 87,-202 30,-94 177,-188 -50,-49 -27,-23 -74,-82 26,-58 -53,-37 77,-52 l 87,-14 c 74,65 222,30 288,17 z"
   id="path336"
   inkscape:connector-curvature="0"
   style="fill:#43333c" />
   <path
   class="fil12"
   d="m 13697,17878 -103,58 c 0,0 -153,85 36,62 l -124,-18 c 66,154 59,32 36,160 0,3 -51,33 -58,36 6,7 12,17 15,22 3,5 9,16 12,22 4,5 8,15 12,20 l 23,34 c 3,4 11,11 14,14 l 65,37 c -135,55 -175,77 -246,202 l -117,45 c -109,-49 -23,45 -132,-37 -92,-68 -43,-82 -239,-92 7,-74 40,-29 -134,-6 l -11,-94 v -56 c 60,-24 5,6 58,-31 1,-1 43,-37 52,-45 58,-51 38,-25 76,-83 l 195,-32 13,-124 c 110,-36 178,-42 240,-141 95,-50 189,-115 241,-182 l 91,-9 c -24,88 81,58 -40,77 l -67,124 z"
   id="path338"
   inkscape:connector-curvature="0"
   style="fill:#d9cec6" />
   <path
   class="fil7"
   d="m 10499,4420 c -28,27 -31,69 -32,70 72,62 54,82 152,105 -83,134 44,23 -87,59 l -139,18 c -27,-79 -513,-118 -625,-134 -123,-17 -331,18 -647,-38 l 7,-140 -156,-33 c 34,52 -15,74 -62,133 l 78,13 -90,-15 c -14,-50 -8,-69 -13,-93 -32,-149 -43,89 -43,-153 97,35 69,-26 98,39 695,-49 863,71 1386,129 z"
   id="path340"
   inkscape:connector-curvature="0"
   style="fill:#4b3b44" />
   <path
   class="fil5"
   d="m 11503,5120 15,58 c -215,-28 -68,-49 -132,98 111,19 66,26 194,1 l -41,33 c -5,3 -20,13 -24,16 -5,3 -17,11 -26,16 l 60,84 c -249,-12 -137,-46 -298,-78 -170,-33 -407,-150 -542,-178 -24,-5 -131,-24 -136,-25 -63,-20 -28,1 -75,-33 -74,-55 16,26 -54,-65 l -69,-131 145,-48 c 169,51 131,5 148,-51 108,24 365,88 457,77 92,133 184,135 379,145 z"
   id="path342"
   inkscape:connector-curvature="0"
   style="fill:#4c3c4a" />
   <path
   class="fil4"
   d="m 10302,4704 c 118,86 194,73 341,82 l 25,31 c -17,56 21,102 -148,51 l -145,48 69,131 c -161,-13 -321,30 -478,-12 -103,-27 -100,-31 -210,-47 -181,-28 -161,-45 -208,-81 l 62,-17 c -113,-15 -79,7 -181,-72 45,-147 -10,-38 88,-131 l 107,5 c 41,-50 37,-52 81,-61 344,-67 78,171 597,73 z"
   id="path344"
   inkscape:connector-curvature="0"
   style="fill:#443443" />
   <path
   class="fil8"
   d="m 14283,17586 c -60,-119 97,-98 -92,-98 -46,-16 -15,9 10,-53 l 55,-143 c -122,41 -27,-44 -85,34 -101,137 -23,32 -13,73 -1,-2 -32,-114 -33,-117 -29,-45 1,-48 65,-132 7,-8 14,-19 20,-26 5,-8 13,-19 19,-29 l 78,-23 10,-68 102,-6 c 45,-77 81,-106 103,-207 98,-159 90,-14 191,-130 78,-23 63,31 54,-89 l 80,164 c -40,68 -37,47 -64,77 8,7 20,18 25,24 5,7 13,17 19,24 l 49,70 c -13,0 -32,-11 -39,2 l -94,-5 c -122,-19 -113,-73 -162,36 142,39 168,82 210,131 -94,65 -49,27 -186,33 8,1 61,-65 15,38 5,0 28,-103 137,84 l -56,103 c -78,-32 -134,50 -95,-94 -25,179 -30,104 -154,215 -54,-13 -63,-16 -98,-19 29,100 -70,131 -71,131 z"
   id="path346"
   inkscape:connector-curvature="0"
   style="fill:#d5cbc3" />
   <path
   class="fil13"
   d="m 7831,19509 135,15 c 147,12 49,1 157,46 l 66,-25 -34,97 c 184,-9 129,12 168,44 6,5 15,16 20,21 5,5 13,15 20,22 l -88,96 -43,-116 c -83,-2 -46,2 -107,16 -58,13 -78,19 -131,25 -8,-6 -19,-23 -22,-16 -3,6 -29,-22 -39,-31 -25,-18 -49,-36 -70,-51 -125,95 -140,78 -302,26 l 31,47 c 44,80 61,-12 25,72 -40,92 -39,37 -145,40 -70,-74 -26,86 -65,-110 l -196,24 c -31,136 -41,143 -182,175 l -41,-163 c -7,1 66,-34 69,-35 211,-97 74,-82 191,-95 64,-7 38,70 126,-38 20,-25 9,-4 0,-12 -262,42 -50,-85 -261,-32 v -164 c 89,31 252,82 380,77 171,-6 252,55 338,45 z"
   id="path348"
   inkscape:connector-curvature="0"
   style="fill:#e4dcda" />
   <path
   class="fil14"
   d="m 15507,8881 c -77,-81 -63,-49 -71,-200 -61,-28 -78,-33 -127,-80 l 1,-97 -2,-118 c -57,-59 -82,-112 -161,-165 l -3,-33 c 10,-228 67,-7 11,-190 187,-44 0,17 145,-69 l 74,146 c 10,-6 24,-27 30,-19 65,86 -37,-54 171,-81 24,229 -52,-86 -14,215 123,79 150,80 234,27 l 34,136 c 8,53 23,26 -73,83 l -126,-93 c 35,55 29,74 -10,138 -36,-42 -43,-38 -43,-90 -23,78 4,109 -49,77 21,13 21,-2 69,37 l 94,104 c -94,-2 -123,10 -163,-10 2,0 2,-77 130,115 -9,7 -22,6 -26,22 -5,14 -19,15 -25,20 z"
   id="path350"
   inkscape:connector-curvature="0"
   style="fill:#cbc6c6" />
   <path
   class="fil15"
   d="m 7663,4620 c -161,121 -421,152 -509,178 -74,22 -92,57 -176,94 l -58,28 -174,30 26,-79 -94,30 c -46,-7 -181,62 -54,-147 77,52 73,58 98,129 7,-9 19,-36 23,-29 15,25 20,-112 141,-200 -42,-117 62,-18 -71,-54 l 99,-49 89,-10 c 2,99 -25,57 34,101 l -5,-123 c 76,-45 65,-14 140,-33 57,-14 90,-37 140,-62 138,-66 190,-49 355,-71 l -97,250 c 55,42 -84,86 93,17 z"
   id="path352"
   inkscape:connector-curvature="0"
   style="fill:#594857" />
   <path
   class="fil16"
   d="m 2037,9356 96,-2 c -30,71 23,41 -68,92 -47,25 -85,21 -138,29 19,252 15,153 -51,362 l 89,21 c -40,50 -37,26 -58,109 -8,30 -4,54 -13,86 -27,94 -12,37 -33,70 l 39,-131 c -93,59 -73,2 -123,90 -27,45 -13,77 -17,118 l 66,2 -38,90 c 18,-154 -21,-39 -134,19 -62,33 14,1 -86,40 -63,-53 -38,3 -72,-85 l 323,-842 c 56,-125 -63,-44 67,-100 l 74,79 c 32,-16 27,21 77,-47 z"
   id="path354"
   inkscape:connector-curvature="0"
   style="fill:#553a48" />
   <path
   class="fil15"
   d="m 11679,5164 18,113 c -61,-1 -59,-5 -70,-1 38,21 89,48 144,67 106,34 42,-54 86,53 23,-29 -2,-56 94,-72 l 135,18 -15,-17 c 1,143 -29,30 20,191 10,-1 50,-8 57,-7 152,13 56,34 183,62 -93,120 127,97 -130,98 l -15,61 c -236,-55 -157,-37 -352,-149 -108,-62 -166,-35 -285,-155 l -60,-84 c 9,-5 21,-13 26,-16 4,-3 19,-13 24,-16 l 41,-33 c -128,25 -83,18 -194,-1 64,-147 -83,-126 132,-98 l -15,-58 184,33 z"
   id="path356"
   inkscape:connector-curvature="0"
   style="fill:#594857" />
   <path
   class="fil17"
   d="m 1604,10976 c -30,162 -98,319 -81,455 l -53,30 -98,-111 c -83,160 -68,165 28,310 l -153,-20 33,115 c -19,71 -49,44 -109,50 -47,-164 -1,-173 -5,-339 -3,-120 -27,-33 6,-137 42,-133 2,-115 102,-162 -52,139 -78,22 1,68 42,-133 1,-39 65,-92 l 94,90 c 39,-47 23,-20 45,-96 l -172,-66 c 53,-197 33,-18 81,-169 35,-112 42,-118 -42,-142 36,-68 7,-5 29,-114 l 100,60 c 1,116 1,91 -19,201 z"
   id="path358"
   inkscape:connector-curvature="0"
   style="fill:#573c55" />
   <path
   class="fil7"
   d="m 2490,16122 -33,109 122,-1 c 123,91 68,88 146,191 73,97 86,24 126,196 34,143 -117,115 -174,118 l -32,-144 c -112,-158 150,55 -60,-42 l -25,133 c -112,-61 -98,-105 -189,-195 -111,-110 -96,-79 -168,-250 115,-12 50,-2 85,-21 19,82 -38,64 63,192 32,-51 97,0 -19,-249 l -42,-62 -29,-139 c 41,39 21,35 47,-38 38,28 84,55 110,92 47,66 1,13 30,64 53,91 -52,-16 42,46 z"
   id="path360"
   inkscape:connector-curvature="0"
   style="fill:#4b3b44" />
   <path
   class="fil5"
   d="m 2729,8425 -318,575 c -57,97 -72,80 -84,212 l -99,84 -139,-2 -3,-99 -83,-62 c 25,-93 13,-14 51,-128 39,-118 -25,-31 62,-134 l 72,105 c -135,64 -59,33 -98,131 261,-100 133,-75 163,-120 -105,-20 -37,-10 -65,21 l 96,-110 c 28,-24 -44,-18 99,-21 l -47,-136 c -1,-15 -2,-18 -4,-27 167,-58 92,-84 135,-188 3,-8 7,-16 11,-24 l 29,-40 c 3,-6 10,-15 12,-20 67,-154 29,-7 -5,-55 l 130,-66 c 5,9 17,19 19,22 l 14,44 c -5,-5 -120,33 35,-99 z"
   id="path362"
   inkscape:connector-curvature="0"
   style="fill:#4c3c4a" />
   <path
   class="fil11"
   d="m 11974,18754 58,19 c -48,36 -22,12 -57,36 -80,54 11,-24 -52,43 -64,13 -72,13 -147,46 l -66,29 c -47,21 -20,5 -68,30 -63,34 -147,81 -220,121 -163,9 -77,21 -202,-34 l -84,45 c 0,-124 22,-83 130,-170 6,-5 15,-15 22,-23 -55,-42 95,-93 -134,-56 -51,8 -63,49 -94,88 -80,-45 -54,70 -1,-64 l 229,-130 c 47,180 -11,16 14,162 l 177,23 c -64,-213 15,-20 4,-199 -56,47 93,65 -113,25 63,-146 46,-65 183,-140 75,-41 115,-130 153,-69 169,-22 -9,-114 104,32 -71,29 -67,-7 -94,203 z"
   id="path364"
   inkscape:connector-curvature="0"
   style="fill:#372729" />
   <path
   class="fil18"
   d="m 14283,17586 -55,151 c -93,-11 -135,24 -209,-13 -5,-2 -14,-9 -18,-12 l -39,-30 c -50,143 1,15 -68,77 -47,-154 10,-72 -104,-120 0,13 5,146 5,146 -37,147 8,36 -98,93 l -92,-37 67,-124 c 121,-19 16,11 40,-77 l 17,-108 396,-250 c 1,3 32,115 33,117 -10,-41 -88,64 13,-73 58,-78 -37,7 85,-34 l -55,143 c -25,62 -56,37 -10,53 189,0 32,-21 92,98 z"
   id="path366"
   inkscape:connector-curvature="0"
   style="fill:#c7bab6" />
   <path
   class="fil9"
   d="m 2851,16617 90,87 c -57,49 -94,-41 -25,107 51,109 61,69 103,95 181,91 26,-26 147,133 l 73,-4 c 121,-6 1,-16 41,60 -7,6 -19,3 -22,16 l -41,101 -14,-19 22,68 c 208,-2 21,-12 104,54 l -142,44 c -3,1 -14,-2 -20,-2 -47,-9 -23,-3 -66,-29 -14,-8 -79,-52 -80,-53 -51,-47 -62,-85 -83,-164 108,-60 12,35 98,-81 l -153,-87 53,166 -103,-4 c 3,-237 -192,-173 -273,-423 l 25,-133 c 210,97 -52,-116 60,42 l 32,144 c 57,-3 208,25 174,-118 z"
   id="path368"
   inkscape:connector-curvature="0"
   style="fill:#544453" />
   <path
   class="fil4"
   d="m 8445,4261 c -71,73 -34,34 -57,145 -7,32 21,-7 -35,119 -4,-3 -9,-13 -10,-9 -17,53 -20,-17 -25,-19 -52,-27 13,-10 -58,-21 -43,-62 35,-66 -71,-45 v 86 c -16,0 -524,102 -526,103 -177,69 -38,25 -93,-17 l 97,-250 15,-14 65,1 181,159 186,-64 -251,-151 c 184,-71 386,-56 600,-62 z"
   id="path370"
   inkscape:connector-curvature="0"
   style="fill:#443443" />
   <path
   class="fil7"
   d="m 14229,17095 c -6,10 -14,21 -19,29 -6,7 -13,18 -20,26 -64,84 -94,87 -65,132 l -396,250 -32,39 c -28,-108 4,-73 -103,-150 -7,-4 -25,-12 -33,-19 55,-94 40,-78 172,-75 20,-175 -34,-49 100,-163 58,-49 113,-64 72,-96 l 84,-15 c 40,-14 55,-21 80,-31 l 57,-25 c 9,8 21,16 28,22 z"
   id="path372"
   inkscape:connector-curvature="0"
   style="fill:#4b3b44" />
   <path
   class="fil3"
   d="m 1604,10976 -148,-69 c 20,-110 20,-85 19,-201 l -100,-60 121,-380 c 34,88 9,32 72,85 100,-39 24,-7 86,-40 113,-58 152,-173 134,-19 -32,167 -74,208 -119,354 -17,56 -58,149 -61,170 -25,152 55,-21 -4,160 z"
   id="path374"
   inkscape:connector-curvature="0"
   style="fill:#43333c" />
   <path
   class="fil11"
   d="m 13989,17053 -84,15 c 41,32 -14,47 -72,96 -134,114 -80,-12 -100,163 -132,-3 -117,-19 -172,75 l -4,71 c -36,-26 -25,-18 -66,-15 -121,11 11,14 -93,14 -101,44 -18,21 -135,25 43,-114 3,-40 72,-140 l 9,31 c 106,-46 90,-40 153,-130 l 90,-94 c 140,-87 93,-20 226,-152 l 95,-103 c 133,28 45,-39 107,54 z"
   id="path376"
   inkscape:connector-curvature="0"
   style="fill:#372729" />
   <path
   class="fil15"
   d="m 8842,4212 c 0,242 11,4 43,153 5,24 -1,43 13,93 l 90,15 c 28,80 -6,44 -111,49 -78,3 -114,-15 -175,-23 -133,-17 -185,30 -349,26 56,-126 28,-87 35,-119 23,-111 -14,-72 57,-145 -3,121 -2,156 44,230 49,-31 7,77 51,-46 23,-64 -20,-59 17,-151 -29,-20 -28,-42 -50,-72 z"
   id="path378"
   inkscape:connector-curvature="0"
   style="fill:#594857" />
   <path
   class="fil8"
   d="m 12463,18735 c 2,-4 2,-11 4,-12 l 93,-56 113,131 c -70,151 -51,107 -226,82 l -29,201 c -57,-56 -63,-39 -144,-68 31,-1 44,10 87,-13 92,-48 7,10 68,-71 l -97,-105 c -112,40 -77,36 -163,119 -140,-77 -44,-18 -124,-111 -112,63 -122,20 -122,20 63,-67 -28,11 52,-43 35,-24 9,0 57,-36 81,-30 69,-21 169,-10 l 15,-90 21,13 c 235,92 -18,122 226,49 z"
   id="path380"
   inkscape:connector-curvature="0"
   style="fill:#d5cbc3" />
   <path
   class="fil19"
   d="m 10069,19553 c -14,148 -21,105 22,201 -98,9 -151,36 -231,23 l -203,-51 c -4,8 -10,20 -11,23 l -20,38 c 0,-1 -1,2 -2,4 l -122,-37 43,-100 c 155,84 105,33 173,-5 -11,-1 -63,3 -67,3 l -122,-53 c 19,-26 10,-43 45,-63 20,35 28,34 50,56 107,-29 102,-34 195,-47 88,-13 79,-10 164,-31 37,45 25,12 86,39 z"
   id="path382"
   inkscape:connector-curvature="0"
   style="fill:#d4cabe" />
   <path
   class="fil9"
   d="m 4183,6782 c -27,91 -12,44 -85,117 -20,21 -29,32 -48,49 -71,63 -29,26 -86,63 -10,-5 -27,-12 -32,-15 -145,-96 -50,-96 -149,-52 l 27,-76 c 155,-154 -68,-121 204,-154 -62,-145 -31,-71 -32,-160 l 76,-14 68,16 c 2,-1 10,1 12,-4 0,-3 4,1 7,1 40,35 83,-61 42,86 l -93,90 z"
   id="path384"
   inkscape:connector-curvature="0"
   style="fill:#544453" />
   <path
   class="fil9"
   d="m 13729,17532 -17,108 -91,9 c -52,67 -146,132 -241,182 l 62,-79 -162,12 c -4,-115 22,-110 -41,-145 137,-30 106,-38 159,-147 104,0 -28,-3 93,-14 41,-3 30,-11 66,15 l 4,-71 c 8,7 26,15 33,19 107,77 75,42 103,150 z"
   id="path386"
   inkscape:connector-curvature="0"
   style="fill:#544453" />
   <path
   class="fil20"
   d="m 15722,15393 c -16,134 26,11 -60,99 l -63,71 c -5,6 -11,15 -16,21 -5,5 -14,15 -18,20 -4,5 -12,14 -19,21 l -167,-68 c 135,13 52,-3 34,-197 118,98 80,134 119,67 4,-8 19,-1 29,-2 57,-163 -8,-93 0,-229 32,-69 112,-3 128,-41 5,-13 21,-8 38,-11 l 127,-144 -25,163 c -164,26 87,66 -211,83 9,7 21,4 25,20 8,28 45,7 79,127 z"
   id="path388"
   inkscape:connector-curvature="0"
   style="fill:#443a44" />
   <path
   class="fil21"
   d="m 16351,10482 -16,-66 c 6,-2 16,-5 19,-6 2,-1 15,-5 17,-6 l 50,-20 c -7,-5 -18,-8 -22,-12 -4,-4 -16,-9 -21,-14 -81,-85 -39,-52 -56,-114 78,40 61,38 149,79 l 47,-98 c 6,7 15,16 19,21 3,4 13,15 17,20 l 27,42 c 2,-5 7,14 10,21 79,-31 79,-33 168,-76 -37,176 4,11 -22,111 -53,197 -25,120 -127,190 l -157,-137 c 3,75 32,103 -12,177 l -71,-90 c -3,-14 -13,-14 -19,-22 z"
   id="path390"
   inkscape:connector-curvature="0"
   style="fill:#bbb3aa" />
   <path
   class="fil22"
   d="m 12995,5881 c -103,-109 -90,-60 -186,-123 l 121,-19 c -40,-50 -22,-31 -71,-74 l -165,-290 c 150,34 30,8 115,77 l 190,136 c 95,30 32,-25 160,48 -36,169 30,-14 -29,79 -6,9 -34,42 -38,47 -105,137 -39,-3 -97,119 z"
   id="path392"
   inkscape:connector-curvature="0"
   style="fill:#eae5e1" />
   <path
   class="fil23"
   d="m 10959,4700 -2,-134 c -89,-3 -92,11 -163,55 4,10 8,15 9,28 l 22,72 -293,-67 c 131,-36 4,75 87,-59 -98,-23 -80,-43 -152,-105 1,-1 4,-43 32,-70 94,33 153,25 291,79 153,60 195,-16 237,155 z"
   id="path394"
   inkscape:connector-curvature="0"
   style="fill:#685766" />
   <path
   class="fil24"
   d="m 14935,16445 102,-168 c 47,-66 27,-102 134,-121 l 56,2 c -42,42 73,59 -56,37 72,38 -9,-43 48,33 l 82,118 c 61,79 -27,-96 64,94 -308,-26 -116,-61 -293,-50 92,52 52,58 40,95 -86,29 -82,13 -177,-40 z"
   id="path396"
   inkscape:connector-curvature="0"
   style="fill:#cac3b7" />
   <path
   class="fil25"
   d="m 12463,18735 c -244,73 9,43 -226,-49 l 14,-98 211,-122 97,4 99,-62 -37,158 c -13,8 -76,9 -140,114 -16,25 -10,22 -18,55 z"
   id="path398"
   inkscape:connector-curvature="0"
   style="fill:#bab6b8" />
   <path
   class="fil26"
   d="m 18017,14574 -108,212 -315,-179 118,-171 c 143,48 95,129 305,138 z"
   id="path400"
   inkscape:connector-curvature="0"
   style="fill:#dacdc4" />
   <path
   class="fil27"
   d="m 1965,9858 -89,-21 c 66,-209 70,-110 51,-362 53,-8 91,-4 138,-29 91,-51 38,-21 68,-92 l -96,2 52,-62 139,2 -5,33 c -14,61 -17,76 -42,127 -69,137 -3,21 -89,108 -92,94 -32,-11 -72,127 z"
   id="path402"
   inkscape:connector-curvature="0"
   style="fill:#2b2736" />
   <path
   class="fil28"
   d="m 11878,18377 6,-196 c 109,28 128,52 212,-13 l 119,-123 c 12,13 -66,223 64,2 118,0 88,-27 76,96 -135,106 -291,25 -330,259 z"
   id="path404"
   inkscape:connector-curvature="0"
   style="fill:#b8aaa6" />
   <path
   class="fil29"
   d="m 2261,15958 c -53,4 -94,-43 -83,86 5,56 5,44 47,96 l 65,-43 42,62 c 116,249 51,198 19,249 -101,-128 -44,-110 -63,-192 -35,19 30,9 -85,21 -45,0 -18,30 -65,-5 -27,-123 -30,-90 -85,-205 7,-5 16,-13 19,-16 l 25,-37 c 3,-4 5,-14 8,-19 l 18,-33 c 59,-70 5,7 81,-67 29,73 -19,24 57,103 z"
   id="path406"
   inkscape:connector-curvature="0"
   style="fill:#67555a" />
   <path
   class="fil30"
   d="m 14759,16115 c 16,-124 -16,-37 82,-133 105,-103 94,-188 262,-311 47,59 24,33 74,82 -147,94 -90,-14 -177,188 -36,84 -79,146 -80,242 -9,-5 -19,-12 -25,-14 -60,-30 -98,-57 -116,-15 z"
   id="path408"
   inkscape:connector-curvature="0"
   style="fill:#281719" />
   <path
   class="fil31"
   d="m 15940,12110 c -59,-57 -1,44 -61,-80 -32,-68 -25,-72 -41,-134 -24,-92 -35,-130 -52,-244 108,-36 56,32 6,-136 -29,-101 -48,64 -20,-83 27,-148 -25,-2 82,-98 76,191 -33,271 65,424 -52,135 -16,-9 -65,163 l 96,78 c 5,-7 15,14 26,22 z"
   id="path410"
   inkscape:connector-curvature="0"
   style="fill:#8c6d70" />
   <path
   class="fil32"
   d="m 3810,6868 -27,76 c 99,-44 4,-44 149,52 5,3 22,10 32,15 -42,54 39,-28 -38,46 -62,60 -17,14 -42,34 l -221,-82 c -10,1 -19,4 -29,6 -11,2 -66,25 -76,29 l 15,-114 c 134,-23 95,-9 148,-86 7,-11 16,-23 21,-31 l 69,-95 c -40,151 -56,33 -1,150 z"
   id="path412"
   inkscape:connector-curvature="0"
   style="fill:#452b36" />
   <path
   class="fil33"
   d="m 15951,15157 -58,17 -25,129 c -171,76 -55,-21 -146,90 -34,-120 -71,-99 -79,-127 -4,-16 -16,-13 -25,-20 298,-17 47,-57 211,-83 l 25,-163 c 105,-78 68,-85 171,-24 l -110,21 z"
   id="path414"
   inkscape:connector-curvature="0"
   style="fill:#595459" />
   <path
   class="fil34"
   d="m 4681,6016 c 55,-77 47,-47 84,-145 l 119,9 -47,54 c 254,-72 69,-47 152,15 -71,62 -31,-94 -54,146 -9,-6 -19,-16 -25,-19 -101,-49 -30,14 -200,59 z"
   id="path416"
   inkscape:connector-curvature="0"
   style="fill:#755967" />
   <path
   class="fil35"
   d="m 12746,18287 v 56 l -86,5 -2,60 -99,62 -97,-4 c 9,-93 -47,-78 -54,-150 -1,-8 -1,-12 -1,-18 l 59,-22 c 244,-56 -180,19 60,-9 l 51,-1 c 117,-7 57,28 108,-49 28,64 37,11 -9,65 z"
   id="path418"
   inkscape:connector-curvature="0"
   style="fill:#584a64" />
   <path
   class="fil36"
   d="m 5116,18766 c -102,-43 -75,-40 -179,-76 -125,-43 -74,16 -132,-104 84,-111 14,11 24,-53 1,-3 1,-15 1,-18 l 89,-46 52,86 c 67,65 3,46 119,14 z"
   id="path420"
   inkscape:connector-curvature="0"
   style="fill:#654957" />
   <path
   class="fil37"
   d="m 15720,11348 c -52,-219 -66,-215 -51,-473 11,3 39,7 45,9 l 36,11 c 93,57 18,14 56,78 -27,18 8,15 -59,35 -3,1 -33,-6 -46,-10 45,237 24,-89 40,266 52,-114 74,-29 104,36 -81,65 91,68 -125,48 z"
   id="path422"
   inkscape:connector-curvature="0"
   style="fill:#877579" />
   <path
   class="fil38"
   d="m 12086,5342 -135,-18 c -96,16 -71,43 -94,72 -44,-107 20,-19 -86,-53 -55,-19 -106,-46 -144,-67 11,-4 9,0 70,1 l -18,-113 104,15 54,88 218,-13 z"
   id="path424"
   inkscape:connector-curvature="0"
   style="fill:#362736" />
   <path
   class="fil39"
   d="m 13234,6439 c -214,-76 -46,-66 -267,-171 -33,-205 -33,-43 82,-108 23,67 -32,2 38,72 l 41,26 c 4,3 13,7 18,10 l 105,56 c 155,193 -13,110 -17,115 z"
   id="path426"
   inkscape:connector-curvature="0"
   style="fill:#361b27" />
   <path
   class="fil9"
   d="m 14522,16791 c -22,101 -58,130 -103,207 l -102,6 c 36,-41 -92,-152 82,-20 -100,-132 87,36 -170,-107 64,-20 165,-89 192,-142 86,22 8,-30 101,56 z"
   id="path428"
   inkscape:connector-curvature="0"
   style="fill:#544453" />
   <path
   class="fil32"
   d="m 1274,11167 c -19,-113 4,-101 24,-204 8,-44 9,-96 14,-122 15,-82 -22,-63 34,-81 84,24 77,30 42,142 -48,151 -28,-28 -81,169 l 172,66 c -22,76 -6,49 -45,96 l -94,-90 c -64,53 -23,-41 -65,92 -79,-46 -53,71 -1,-68 z"
   id="path430"
   inkscape:connector-curvature="0"
   style="fill:#452b36" />
   <path
   class="fil40"
   d="m 7747,4340 c 0,-54 65,-45 116,-56 l 251,151 -186,64 z"
   id="path432"
   inkscape:connector-curvature="0"
   style="fill:#654b64" />
   <path
   class="fil28"
   d="m 10655,19382 c 21,-16 -22,-96 242,-39 6,-8 17,-29 22,-22 l 75,-60 v 123 l -155,16 c -13,195 30,118 -106,129 -20,-60 4,-41 24,-96 -43,-37 -36,-23 -102,-51 z"
   id="path434"
   inkscape:connector-curvature="0"
   style="fill:#b8aaa6" />
   <path
   class="fil30"
   d="m 9548,4907 c -264,54 -255,-94 -263,-122 42,-65 14,-29 75,-70 29,-19 30,2 84,-63 l 73,35 c -98,93 -43,-16 -88,131 102,79 68,57 181,72 z"
   id="path436"
   inkscape:connector-curvature="0"
   style="fill:#281719" />
   <path
   class="fil41"
   d="m 2089,9294 -52,62 c -50,68 -45,31 -77,47 l -74,-79 c 29,-62 24,-57 42,-155 17,-18 73,-35 75,-36 l 83,62 z"
   id="path438"
   inkscape:connector-curvature="0"
   style="fill:#78656a" />
   <path
   class="fil26"
   d="m 16848,15327 c -77,6 -152,-14 -258,-35 48,-91 35,-77 -23,-127 78,-31 115,-67 213,23 5,5 12,11 17,16 75,87 47,98 51,123 z"
   id="path440"
   inkscape:connector-curvature="0"
   style="fill:#dacdc4" />
   <path
   class="fil15"
   d="m 8841,19611 c -28,-1 -139,1 -166,-2 -133,-14 -58,12 -93,-38 l 148,-19 c -104,-35 -190,-65 -248,-131 145,-18 109,8 269,-13 -30,43 12,80 -36,39 z"
   id="path442"
   inkscape:connector-curvature="0"
   style="fill:#594857" />
   <path
   class="fil34"
   d="m 4284,6732 c -137,21 -63,-49 -101,50 l -89,-53 93,-90 c 41,-147 -2,-51 -42,-86 -3,0 -7,-4 -7,-1 -2,5 -10,3 -12,4 l -68,-16 c 28,-48 45,-73 74,-118 85,93 -156,65 74,66 27,157 125,63 78,244 z"
   id="path444"
   inkscape:connector-curvature="0"
   style="fill:#755967" />
   <path
   class="fil42"
   d="m 16278,10421 c -99,25 -93,40 -195,28 -61,-202 15,-125 130,-218 z"
   id="path446"
   inkscape:connector-curvature="0"
   style="fill:#f1e6dd" />
   <path
   class="fil43"
   d="m 14089,18007 c -1,139 -11,56 33,158 -9,-1 -21,-11 -25,-4 -67,131 48,-33 -156,-13 -31,-70 -49,-95 -77,-136 4,-3 11,-12 13,-8 l 83,-59 c 40,83 -43,72 129,62 z"
   id="path448"
   inkscape:connector-curvature="0"
   style="fill:#cdc3bb" />
   <path
   class="fil31"
   d="m 3810,6868 c -55,-117 -39,1 1,-150 l -69,95 c -5,8 -14,20 -21,31 l 14,-112 c 120,-42 163,-99 247,-178 1,89 -30,15 32,160 -272,33 -49,0 -204,154 z"
   id="path450"
   inkscape:connector-curvature="0"
   style="fill:#8c6d70" />
   <path
   class="fil44"
   d="m 3964,17759 c -217,20 45,-40 -243,-42 5,-82 -3,7 24,-72 2,-8 6,-17 8,-26 l 34,-110 c 77,163 2,25 95,108 56,49 63,46 82,142 z"
   id="path452"
   inkscape:connector-curvature="0"
   style="fill:#382b45" />
   <path
   class="fil36"
   d="m 9909,19189 c 90,-73 47,-49 172,-77 l 46,128 c 2,3 6,10 8,16 -47,35 41,31 -91,40 -80,5 -122,-23 -85,-79 z"
   id="path454"
   inkscape:connector-curvature="0"
   style="fill:#654957" />
   <path
   class="fil45"
   d="m 11288,18734 82,11 c 206,40 57,22 113,-25 11,179 -68,-14 -4,199 l -177,-23 c -25,-146 33,18 -14,-162 z"
   id="path456"
   inkscape:connector-curvature="0"
   style="fill:#594649" />
   <path
   class="fil28"
   d="m 13335,17357 c -69,100 -29,26 -72,140 l -88,48 c -27,-24 -66,-19 -86,-26 l 91,-169 z"
   id="path458"
   inkscape:connector-curvature="0"
   style="fill:#b8aaa6" />
   <path
   class="fil29"
   d="m 12216,18673 -15,90 c -100,-11 -88,-20 -169,10 l -58,-19 c 78,-92 -96,-80 90,-78 51,-71 -50,22 7,-124 100,45 65,-14 66,154 29,-33 41,-15 79,-33 z"
   id="path460"
   inkscape:connector-curvature="0"
   style="fill:#67555a" />
   <path
   class="fil40"
   d="m 7966,19524 -135,-15 c 46,-68 -65,-52 67,-56 -10,-100 -9,-47 -11,-137 l 191,70 c -68,95 -19,95 -118,68 z"
   id="path462"
   inkscape:connector-curvature="0"
   style="fill:#654b64" />
   <path
   class="fil46"
   d="m 14845,8274 c -90,-46 -196,-193 -235,-307 41,-65 -12,-55 70,-39 l 8,164 c 156,-41 44,-58 114,37 38,51 41,154 78,75 36,132 26,9 -35,70 z"
   id="path464"
   inkscape:connector-curvature="0"
   style="fill:#361818" />
   <path
   class="fil47"
   d="m 16352,14098 c -5,-8 -12,-30 -14,-25 l -44,-390 48,-49 5,89 85,93 c -74,158 -70,90 -80,282 z"
   id="path466"
   inkscape:connector-curvature="0"
   style="fill:#71718b" />
   <path
   class="fil46"
   d="m 14245,16685 c 34,-113 16,-108 112,-168 l 92,-11 c 96,-28 25,-39 78,-2 l -117,95 c -59,62 -39,23 -79,107 z"
   id="path468"
   inkscape:connector-curvature="0"
   style="fill:#361818" />
   <path
   class="fil48"
   d="m 3286,17030 -47,5 -73,4 c -121,-159 34,-42 -147,-133 l -5,-88 c 181,118 32,-105 272,212 z"
   id="path470"
   inkscape:connector-curvature="0"
   style="fill:#686676" />
   <path
   class="fil40"
   d="m 12430,5898 -96,-98 94,67 c 0,-23 -68,-183 98,-109 86,39 58,113 56,197 -139,-85 -73,-9 -93,-111 -150,0 8,-19 -59,54 z"
   id="path472"
   inkscape:connector-curvature="0"
   style="fill:#654b64" />
   <path
   class="fil48"
   d="m 16125,10821 -108,13 -69,-151 c -4,-19 -17,-20 -26,-30 126,-5 75,25 126,-88 60,58 31,-6 38,112 0,5 -16,97 -18,108 64,0 51,-18 57,36 z"
   id="path474"
   inkscape:connector-curvature="0"
   style="fill:#686676" />
   <path
   class="fil36"
   d="m 9755,19172 80,84 c -30,212 -81,-46 -122,155 l -48,-183 c -37,-47 106,-77 -70,-30 46,-30 2,-19 78,-26 0,0 64,2 82,0 z"
   id="path476"
   inkscape:connector-curvature="0"
   style="fill:#654957" />
   <path
   class="fil48"
   d="m 14697,7491 -180,-107 -65,-110 75,-65 53,68 c 82,113 53,123 117,214 z"
   id="path478"
   inkscape:connector-curvature="0"
   style="fill:#686676" />
   <path
   class="fil48"
   d="m 15310,8504 c -192,-133 35,-59 -243,-221 l 37,-27 c 67,-52 -12,16 43,-35 79,53 104,106 161,165 z"
   id="path480"
   inkscape:connector-curvature="0"
   style="fill:#686676" />
   <path
   class="fil49"
   d="m 12829,17732 c 7,-9 27,-34 31,-41 4,-6 11,-15 15,-21 3,-5 9,-15 13,-20 48,-75 2,-45 184,-99 l -152,244 z"
   id="path482"
   inkscape:connector-curvature="0"
   style="fill:#a3788b" />
   <path
   class="fil18"
   d="m 12571,17876 c 41,-58 24,-40 97,-82 72,-41 40,-14 120,-76 7,272 -60,46 -1,227 -133,-32 -82,-61 -216,-69 z"
   id="path484"
   inkscape:connector-curvature="0"
   style="fill:#c7bab6" />
   <path
   class="fil40"
   d="m 9121,4500 -133,-27 -78,-13 c 47,-59 96,-81 62,-133 l 156,33 z"
   id="path486"
   inkscape:connector-curvature="0"
   style="fill:#654b64" />
   <path
   class="fil50"
   d="m 8445,4261 18,-39 h 44 c 22,30 21,52 50,72 -37,92 6,87 -17,151 -44,123 -2,15 -51,46 -46,-74 -47,-109 -44,-230 z"
   id="path488"
   inkscape:connector-curvature="0"
   style="fill:#928992" />
   <path
   class="fil34"
   d="m 1328,14411 25,-65 c -9,-6 -22,-22 -24,-16 -3,6 -17,-11 -20,-16 -3,-5 -14,-13 -17,-19 l -20,-164 91,24 c -16,103 22,30 -58,112 160,95 123,91 165,202 z"
   id="path490"
   inkscape:connector-curvature="0"
   style="fill:#755967" />
   <path
   class="fil36"
   d="m 6200,19152 -131,-3 -23,-121 172,-52 c 22,153 19,77 -56,117 80,0 1,-11 38,59 z"
   id="path492"
   inkscape:connector-curvature="0"
   style="fill:#654957" />
   <path
   class="fil43"
   d="m 15722,15393 c 91,-111 -25,-14 146,-90 l 25,-129 58,-17 c 8,5 17,8 19,21 l -31,241 c -25,-67 -2,-25 -34,-69 z"
   id="path494"
   inkscape:connector-curvature="0"
   style="fill:#cdc3bb" />
   <path
   class="fil23"
   d="m 14781,16522 -14,50 c 9,120 24,66 -54,89 v -60 c -150,41 -86,28 -121,-126 168,45 99,-35 123,92 0,-79 -17,-58 66,-45 z"
   id="path496"
   inkscape:connector-curvature="0"
   style="fill:#685766" />
   <path
   class="fil48"
   d="m 15144,8188 c -61,-28 -60,-25 -108,-61 l -15,-141 134,12 c 56,183 -1,-38 -11,190 z"
   id="path498"
   inkscape:connector-curvature="0"
   style="fill:#686676" />
   <path
   class="fil51"
   d="m 3191,7406 28,88 c -83,13 -70,12 -126,47 l -39,-28 12,-142 96,-26 c -5,78 -31,76 29,61 z"
   id="path500"
   inkscape:connector-curvature="0"
   style="fill:#a79998" />
   <path
   class="fil50"
   d="m 10959,4700 -134,21 -22,-72 c -1,-13 -5,-18 -9,-28 71,-44 74,-58 163,-55 z"
   id="path502"
   inkscape:connector-curvature="0"
   style="fill:#928992" />
   <path
   class="fil21"
   d="m 15691,8949 c -48,43 -11,17 -77,48 -38,18 -16,-6 -65,33 -65,0 -44,-38 -63,-127 l 75,24 c 45,-39 15,-24 98,-49 z"
   id="path504"
   inkscape:connector-curvature="0"
   style="fill:#bbb3aa" />
   <path
   class="fil15"
   d="m 1374,12741 13,98 -209,81 c -3,1 -12,3 -18,4 12,-58 40,-95 8,-150 l 56,-4 c 3,81 22,58 51,98 40,-104 14,-72 99,-127 z"
   id="path506"
   inkscape:connector-curvature="0"
   style="fill:#594857" />
   <path
   class="fil52"
   d="m 16167,14665 c 15,82 3,67 34,106 -70,50 -95,-11 -140,-65 l 1,90 c -33,-32 -63,75 -35,-146 z"
   id="path508"
   inkscape:connector-curvature="0"
   style="fill:#ada9b2" />
   <path
   class="fil53"
   d="m 6895,19313 c -36,46 67,61 -98,33 -95,-16 -82,-49 -86,-52 l 76,-111 z"
   id="path510"
   inkscape:connector-curvature="0"
   style="fill:#8b7788" />
   <path
   class="fil54"
   d="m 12420,18043 c 4,-113 -64,-56 -131,-31 68,-86 65,-59 188,-23 33,-121 -11,-62 103,-103 39,34 20,19 39,61 -106,74 -71,61 -199,96 z"
   id="path512"
   inkscape:connector-curvature="0"
   style="fill:#c6bbc5" />
   <path
   class="fil37"
   d="m 3247,17455 c -61,0 -50,18 -50,-35 l -30,-63 c 6,0 17,3 20,2 l 142,-44 c 19,63 42,88 0,159 l -32,-69 c -25,38 -7,23 -50,50 z"
   id="path514"
   inkscape:connector-curvature="0"
   style="fill:#877579" />
   <path
   class="fil48"
   d="m 13140,17972 -13,124 -195,32 65,-71 c 117,-124 79,-24 87,-122 z"
   id="path516"
   inkscape:connector-curvature="0"
   style="fill:#686676" />
   <path
   class="fil39"
   d="m 3191,7406 c -60,15 -34,17 -29,-61 91,-38 42,-13 92,-80 30,-40 -12,-8 41,-60 78,-77 13,-17 80,-44 119,35 43,-74 -53,106 -31,60 1,21 -51,71 l -40,31 c -7,5 -33,29 -40,37 z"
   id="path518"
   inkscape:connector-curvature="0"
   style="fill:#361b27" />
   <path
   class="fil55"
   d="m 3014,16818 5,88 c -42,-26 -52,14 -103,-95 -69,-148 -32,-58 25,-107 80,30 33,-12 73,114 z"
   id="path520"
   inkscape:connector-curvature="0"
   style="fill:#1a2633" />
   <path
   class="fil56"
   d="m 1861,10123 -35,79 -66,-2 c 4,-41 -10,-73 17,-118 50,-88 30,-31 123,-90 z"
   id="path522"
   inkscape:connector-curvature="0"
   style="fill:#2a2946" />
   <path
   class="fil51"
   d="m 16409,10842 c 76,-62 -40,-20 82,-56 28,-9 58,-5 89,-6 -9,24 -35,102 -50,110 -145,73 -118,-46 -121,-48 z"
   id="path524"
   inkscape:connector-curvature="0"
   style="fill:#a79998" />
   <path
   class="fil52"
   d="m 13375,6111 c -155,24 -47,-18 -157,47 -48,-76 -41,-79 8,-159 l -121,-38 107,7 c 105,90 29,69 163,143 z"
   id="path526"
   inkscape:connector-curvature="0"
   style="fill:#ada9b2" />
   <path
   class="fil50"
   d="m 2290,16097 -65,43 c -42,-52 -42,-40 -47,-96 -11,-129 30,-82 83,-86 z"
   id="path528"
   inkscape:connector-curvature="0"
   style="fill:#928992" />
   <path
   class="fil37"
   d="m 12355,18143 c 12,-123 42,-96 -76,-96 -130,221 -52,11 -64,-2 l 74,-33 c 67,-25 135,-82 131,31 z"
   id="path530"
   inkscape:connector-curvature="0"
   style="fill:#877579" />
   <path
   class="fil57"
   d="m 3373,17174 c 86,97 35,19 -37,51 -73,-92 -16,-23 -86,-62 l -33,49 41,-101 c 3,-13 15,-10 22,-16 -40,-76 80,-66 -41,-60 l 47,-5 c 57,67 63,69 87,144 z"
   id="path532"
   inkscape:connector-curvature="0"
   style="fill:#2c1935" />
   <path
   class="fil31"
   d="m 1199,13812 -51,-187 c 190,73 162,4 180,177 l -114,-85 c -12,-9 -25,-18 -37,-26 z"
   id="path534"
   inkscape:connector-curvature="0"
   style="fill:#8c6d70" />
   <path
   class="fil21"
   d="m 16025,14976 c 13,-106 9,-82 37,-180 18,8 37,11 62,27 42,27 29,20 57,46 -31,15 -41,17 -79,46 z"
   id="path536"
   inkscape:connector-curvature="0"
   style="fill:#bbb3aa" />
   <path
   class="fil13"
   d="m 13587,17164 -90,94 -121,29 c 73,-132 31,-40 117,-134 z"
   id="path538"
   inkscape:connector-curvature="0"
   style="fill:#e4dcda" />
   <path
   class="fil58"
   d="m 2938,17111 -2,-2 -53,-166 153,87 c -86,116 10,21 -98,81 z"
   id="path540"
   inkscape:connector-curvature="0"
   style="fill:#786876" />
   <path
   class="fil49"
   d="m 16022,13518 c -59,-68 -42,-133 -53,-243 77,45 11,17 126,55 l -71,77 c -3,-6 -14,14 -22,22 z"
   id="path542"
   inkscape:connector-curvature="0"
   style="fill:#a3788b" />
   <path
   class="fil59"
   d="m 14140,7110 c -88,-11 -85,-21 -116,-78 8,-7 11,-18 31,-29 29,-16 14,-12 64,-24 79,132 12,0 21,131 z"
   id="path544"
   inkscape:connector-curvature="0"
   style="fill:#706c71" />
   <path
   class="fil34"
   d="m 15924,14443 c 25,-104 -7,-120 80,-153 l -24,55 c 80,5 51,-25 67,66 -67,32 -7,-2 -123,32 z"
   id="path546"
   inkscape:connector-curvature="0"
   style="fill:#755967" />
   <path
   class="fil48"
   d="m 16167,14665 c -14,-51 -14,-32 -25,-57 -26,-56 5,45 -30,-67 l 127,-32 c -24,69 0,49 -24,98 -37,75 15,8 -48,58 z"
   id="path548"
   inkscape:connector-curvature="0"
   style="fill:#686676" />
   <path
   class="fil58"
   d="m 15227,16158 -56,-2 c -45,-55 -41,-44 -65,-114 64,-61 -5,-8 101,-60 -17,33 -4,64 -41,96 67,44 7,-20 61,80 z"
   id="path550"
   inkscape:connector-curvature="0"
   style="fill:#786876" />
   <path
   class="fil50"
   d="m 11422,19078 -201,92 -1,-126 c 125,55 39,43 202,34 z"
   id="path552"
   inkscape:connector-curvature="0"
   style="fill:#928992" />
   <path
   class="fil60"
   d="m 2579,16230 -122,1 33,-109 c 97,32 34,-20 89,108 z"
   id="path554"
   inkscape:connector-curvature="0"
   style="fill:#99abcc" />
   <path
   class="fil57"
   d="m 6746,4950 c -13,40 38,31 -34,32 h -79 l 45,-81 94,-30 z"
   id="path556"
   inkscape:connector-curvature="0"
   style="fill:#2c1935" />
   <path
   class="fil61"
   d="m 13754,6955 -51,-92 c -3,-4 -59,-56 -60,-57 l 132,-6 z"
   id="path558"
   inkscape:connector-curvature="0"
   style="fill:#ad908e" />
   <path
   class="fil30"
   d="m 4069,18182 -84,-11 -35,-59 c 39,-75 -33,-76 56,-26 86,48 42,46 63,96 z"
   id="path560"
   inkscape:connector-curvature="0"
   style="fill:#281719" />
   <path
   class="fil49"
   d="m 13344,17388 c 8,-21 24,-76 32,-101 l 121,-29 c -63,90 -47,84 -153,130 z"
   id="path562"
   inkscape:connector-curvature="0"
   style="fill:#a3788b" />
   <path
   class="fil58"
   d="m 10280,4963 c -45,37 -48,42 -132,19 l 88,-103 z"
   id="path564"
   inkscape:connector-curvature="0"
   style="fill:#786876" />
   <path
   class="fil50"
   d="m 6591,19244 -120,15 c 26,-127 27,-75 55,-103 z"
   id="path566"
   inkscape:connector-curvature="0"
   style="fill:#928992" />
   <path
   class="fil50"
   d="m 15845,14574 68,-107 c 53,38 39,-64 43,75 z"
   id="path568"
   inkscape:connector-curvature="0"
   style="fill:#928992" />
   <path
   class="fil61"
   d="m 14449,16506 -92,11 c 25,-57 -1,-11 37,-73 3,-5 14,-8 17,-20 2,-12 11,-13 17,-19 36,62 10,6 21,101 z"
   id="path570"
   inkscape:connector-curvature="0"
   style="fill:#ad908e" />
   <path
   class="fil62"
   d="m 16208,11426 -60,-63 c 57,-30 32,45 52,-92 l 41,62 z"
   id="path572"
   inkscape:connector-curvature="0"
   style="fill:#778595" />
   <polygon
   class="fil63"
   points="2314,9300 2223,9329 2228,9296 2327,9212 "
   id="polygon574"
   style="fill:#99a6b2" />
   <path
   class="fil64"
   d="m 8189,4517 v -86 c 106,-21 28,-17 71,45 z"
   id="path576"
   inkscape:connector-curvature="0"
   style="fill:#271a27" />
   <path
   class="fil50"
   d="m 6914,4551 118,-32 5,123 c -59,-44 -32,-2 -34,-101 z"
   id="path578"
   inkscape:connector-curvature="0"
   style="fill:#928992" />
   <path
   class="fil34"
   d="m 5691,18854 28,125 c -7,-6 -17,-14 -22,-18 l -43,-148 z"
   id="path580"
   inkscape:connector-curvature="0"
   style="fill:#755967" />
   <polygon
   class="fil65"
   points="6920,4920 6978,4892 "
   id="polygon582"
   style="fill:#9293ab" />
  </g>
 </g>
</svg>