<?xml version="1.0" encoding="UTF-8"?>
<!DOCTYPE svg PUBLIC "-//W3C//DTD SVG 1.1//EN" "http://www.w3.org/Graphics/SVG/1.1/DTD/svg11.dtd">
<!-- Creator: CorelDRAW X8 -->
<svg xmlns="http://www.w3.org/2000/svg" xml:space="preserve" width="210mm" height="297mm" version="1.1" style="shape-rendering:geometricPrecision; text-rendering:geometricPrecision; image-rendering:optimizeQuality; fill-rule:evenodd; clip-rule:evenodd"
viewBox="0 0 21000 29700"
 xmlns:xlink="http://www.w3.org/1999/xlink">
 <defs>
  <style type="text/css">
   <![CDATA[
    .fil93 {fill:#232052}
    .fil101 {fill:#250B17}
    .fil73 {fill:#261825}
    .fil80 {fill:#28171A}
    .fil77 {fill:#2B1C24}
    .fil102 {fill:#2B2635}
    .fil10 {fill:#2C1D2B}
    .fil69 {fill:#2F304D}
    .fil71 {fill:#331C2B}
    .fil15 {fill:#33242C}
    .fil85 {fill:#342533}
    .fil79 {fill:#35181A}
    .fil8 {fill:#352A33}
    .fil82 {fill:#371C33}
    .fil56 {fill:#3A242D}
    .fil104 {fill:#3A3436}
    .fil49 {fill:#3B2533}
    .fil7 {fill:#3B2B34}
    .fil4 {fill:#3D323B}
    .fil16 {fill:#432C3B}
    .fil5 {fill:#43333C}
    .fil28 {fill:#443443}
    .fil87 {fill:#45282A}
    .fil23 {fill:#453A44}
    .fil25 {fill:#4A333D}
    .fil3 {fill:#4B3443}
    .fil100 {fill:#4B4555}
    .fil24 {fill:#4C3C4A}
    .fil13 {fill:#533C4B}
    .fil12 {fill:#53434C}
    .fil9 {fill:#544452}
    .fil35 {fill:#554A53}
    .fil27 {fill:#563C53}
    .fil81 {fill:#58465A}
    .fil63 {fill:#5A4A64}
    .fil19 {fill:#5B4454}
    .fil14 {fill:#5B4B55}
    .fil17 {fill:#5C4C5B}
    .fil46 {fill:#634C5B}
    .fil30 {fill:#63535D}
    .fil42 {fill:#64464A}
    .fil36 {fill:#645363}
    .fil59 {fill:#654857}
    .fil26 {fill:#654C63}
    .fil43 {fill:#675867}
    .fil78 {fill:#6A6673}
    .fil21 {fill:#6B5464}
    .fil89 {fill:#6B5B64}
    .fil91 {fill:#6B6369}
    .fil40 {fill:#6C5B6B}
    .fil76 {fill:#725354}
    .fil47 {fill:#735B6B}
    .fil58 {fill:#745867}
    .fil50 {fill:#75656B}
    .fil83 {fill:#757187}
    .fil51 {fill:#765D73}
    .fil92 {fill:#768AA0}
    .fil53 {fill:#776876}
    .fil67 {fill:#7B737A}
    .fil99 {fill:#7D766C}
    .fil48 {fill:#846979}
    .fil61 {fill:#85767B}
    .fil96 {fill:#877885}
    .fil74 {fill:#8B738B}
    .fil62 {fill:#8B838A}
    .fil70 {fill:#8F8494}
    .fil66 {fill:#937989}
    .fil72 {fill:#95868A}
    .fil64 {fill:#978995}
    .fil75 {fill:#9B9399}
    .fil60 {fill:#9E8577}
    .fil94 {fill:#A6989A}
    .fil97 {fill:#A79AA4}
    .fil31 {fill:#A99093}
    .fil88 {fill:#B097AA}
    .fil20 {fill:#B6A9A8}
    .fil95 {fill:#B7ABB5}
    .fil86 {fill:#B8CBDB}
    .fil34 {fill:#BAB5B8}
    .fil39 {fill:#C5B6AC}
    .fil103 {fill:#C7BBC4}
    .fil90 {fill:#CACAD4}
    .fil37 {fill:#CBC3BA}
    .fil84 {fill:#D2C5BC}
    .fil6 {fill:#D4CAC4}
    .fil18 {fill:#D4CCCB}
    .fil38 {fill:#D6C8BC}
    .fil41 {fill:#DACECB}
    .fil22 {fill:#DBD1C6}
    .fil68 {fill:#DCD3CC}
    .fil44 {fill:#DCD5D2}
    .fil55 {fill:#E0DAD5}
    .fil29 {fill:#E2DDDB}
    .fil98 {fill:#E4D4D9}
    .fil2 {fill:#E5DED9}
    .fil32 {fill:#E5E3E2}
    .fil1 {fill:#EAE5DE}
    .fil33 {fill:#EAE5E1}
    .fil57 {fill:#EBE9E5}
    .fil45 {fill:#EDE5DE}
    .fil54 {fill:#EDEAE9}
    .fil65 {fill:#EDECEB}
    .fil11 {fill:#F9F9F8}
    .fil52 {fill:#FBF5F3}
    .fil0 {fill:white}
   ]]>
  </style>
 </defs>
 <g id="Ebene_x0020_1">
  <metadata id="CorelCorpID_0Corel-Layer"/>
  <g id="_1605624292960">
   <path class="fil0" d="M9125 7402l455 33 54 -12 14 27c82,-28 198,10 302,11 54,0 118,-10 166,-4 44,5 67,17 120,12l312 3 378 14 310 -14c54,11 98,7 138,-15l158 3c53,-5 51,-1 84,-26 75,44 9,27 100,22 79,-4 204,-22 258,8 60,33 37,-12 130,-17 60,-4 86,6 152,-2 79,-2 171,-12 252,-12l34 6 53 -6c22,53 -11,13 48,54l504 22c240,23 207,0 338,8 82,5 63,30 140,15 199,-38 106,-28 337,-25 35,-9 28,11 32,-42 44,-25 82,-19 147,-12 25,-1 111,6 111,-24l195 1 392 1 115 -4 417 34 201 7 60 -12c0,1 -3,16 9,19l184 12c112,18 193,1 302,1l102 13 319 4 488 8 202 -8c18,5 120,13 118,-15 98,-6 197,16 253,-23 67,33 57,24 100,22 41,-1 78,-2 119,-2 133,-1 53,-31 168,25 114,-54 478,-30 572,-44l68 53c108,-27 167,15 285,16 117,1 221,17 320,20 105,4 211,-17 300,2 262,56 136,61 226,98 3,4 8,8 10,10l45 45c1,3 2,9 4,12 29,48 21,37 72,64l48 128c17,54 8,91 -8,146 43,57 10,14 30,67 -16,34 -22,29 0,54l3 87 -108 -20 -31 38c-48,30 -16,-3 -34,44l16 16c37,70 30,115 81,191 2,2 6,6 7,8 2,3 7,6 9,8l19 44c14,41 3,46 43,65 -2,75 37,101 43,173l6 66 28 52 -16 33 32 70c1,63 -6,6 32,31 8,98 -12,14 42,85l-18 67c47,34 24,49 66,92 -21,92 -27,126 44,172 -12,29 -18,38 -33,56 33,34 61,87 56,131l-16 20c4,5 13,14 15,18l40 61 26 88c21,36 19,27 44,52l-24 42c-1,-3 -5,8 -8,12 24,29 6,-9 24,44 23,66 16,92 9,151 62,2 44,-12 48,70 14,274 -20,80 -24,389 -16,54 -26,48 -12,109 -23,24 -41,65 -60,93 -25,38 -43,57 -34,118 -24,32 -12,30 -31,66 -75,23 -65,31 -148,72 -34,17 -154,94 -240,99 -215,10 -197,63 -303,9l-49 36 -47 -42c-71,37 -45,32 -123,27l-169 4c-70,8 2,1 -46,19 -38,14 -33,12 -97,-7 -250,-72 -232,26 -428,-51l-144 -90c-85,-29 -126,1 -178,51 -72,13 -98,-14 -149,-41 -49,-27 -126,-23 -193,-32 -108,-14 -280,22 -363,67l-286 25c-5,1 -50,-9 -63,-11l-72 -2c-91,34 -9,17 -101,4 -69,-10 -59,-3 -120,-20l-45 16 -62 -2 -25 -11 -273 0c-53,-11 -101,-31 -166,-15l-49 -31c-137,67 -38,-40 -219,30 -39,-24 -249,-42 -320,-42l17 1c-79,6 -102,14 -169,16l-117 -15 -118 -4 -44 23 -65 -1c-65,-14 -61,7 -122,8 -40,0 -119,-7 -171,-7l-9 8c-72,-9 -66,-21 -126,8l-2 3 -194 -23 -48 1 -92 23 -120 -3 -18 -26c-86,-9 -372,25 -413,35 -210,56 -67,7 -197,34 -102,22 -106,51 -197,3l-50 36c-40,-46 -4,-15 -51,-37 -113,53 -99,6 -186,25 -56,12 -39,0 -88,1 -146,1 64,72 -213,-4 -96,-26 -71,4 -170,-7l16 -11 -76 17c-93,-4 -70,-5 -142,-34 -3,-4 -9,-16 -11,-12l-52 -41c-14,-7 -71,-28 -81,-32 -74,-27 -84,-33 -168,35 -3,3 -8,7 -11,11l-30 12c-35,-34 -76,-45 -129,-56l-77 -6c0,-62 -297,-10 -340,0 -165,37 -167,52 -363,42 -3,3 -8,3 -10,9 -9,32 -72,12 -101,4l-73 2c-44,12 -25,-5 -43,34 -30,-52 -44,-33 -126,-38 -56,-20 -42,-11 -102,4 -101,-9 -128,-26 -243,-8 -14,-28 -47,-12 -91,-7l-21 -3 -9 2c-44,-10 -93,-28 -149,-22l-210 -14c-22,2 -54,16 -68,21 -97,-57 -117,-4 -219,-38 -48,-2 -87,-4 -135,1 -53,5 -56,16 -113,13 -53,-4 -156,-17 -224,-11l-35 10 -31 -1c-86,5 -112,-12 -182,32 -33,-46 -128,-21 -212,-22 -55,-1 -164,10 -203,12 -61,-2 -65,-12 -97,-16 -50,-5 -43,9 -105,15l-110 8 -17 11c-70,-23 -37,11 -123,-4l-62 2c-49,-15 -22,-20 -67,1 -58,31 -4,6 -64,25 -6,-31 -154,-2 -189,7 -95,1 -112,17 -193,39l-2 -38c-68,16 -142,28 -208,41 -86,17 -117,-20 -193,5 -244,80 -265,-1 -410,49l-27 31c-4,-58 43,-36 -281,-36 -131,1 12,28 -218,23l-307 15c-52,-8 -64,-26 -104,9 -88,15 -73,-2 -144,-27 -5,3 -11,3 -13,9 -15,39 -124,25 -160,17l-57 2 -174 3c-56,-8 -33,6 -41,14 -76,-9 -97,-20 -161,-1l-34 -40c-69,39 -50,16 -130,29 -21,-32 5,0 -25,-35 0,0 -21,-20 -22,-21l-75 0c-72,-10 -1,-15 -64,-9 -55,4 -18,30 -119,-9 -43,-17 -62,-15 -99,-50 -110,49 -149,2 -168,-4 -66,-20 -12,5 -68,-3 -49,-8 -33,-20 -86,-24l-304 -50c-448,-90 -256,-50 -675,-188 -28,-33 -49,-33 -87,-63 -29,-23 -51,-46 -77,-70 -3,-3 -7,-7 -10,-8l-87 -66 -47 -91c-38,-1 -87,-15 -109,-38l-161 -255c-1,-3 -2,-8 -3,-10l-47 -72c-10,-78 -6,-45 -36,-110 -10,-20 -8,-20 -15,-37 -24,-55 -30,-47 -56,-127l-74 -298c-1,-73 2,-83 -29,-143l-2 -31 -1 -121c-7,-13 -9,-30 -20,-40 30,0 21,6 23,-27l-9 -5c25,-28 18,44 30,-105l13 -180c4,-63 -3,-21 -4,-89 9,-46 26,-241 -25,-262 11,-21 51,-117 9,-126l-2 -62c39,-33 10,-56 3,-106l-10 -51c25,-32 20,-7 16,-54 -4,-47 -13,-30 -9,-97 31,-11 7,2 34,-17l-11 -55 11 -85c43,5 20,13 37,-28 58,-19 21,-21 48,-69 11,-20 10,-15 29,-37 19,-23 16,-17 26,-36l101 -35 52 -3 12 -48c49,5 93,5 117,-24 122,-26 312,-52 438,-67 107,-17 172,-9 281,-20 46,-5 104,-17 156,-18 44,-2 104,4 135,4 89,-7 66,22 130,13 21,-4 -9,-9 56,-13 1,0 53,4 62,4l145 -18c24,4 25,3 47,12l48 25c78,-47 178,-20 286,-24 60,-2 177,8 245,-14 108,28 210,-14 294,4l248 -18c39,-3 69,1 101,-8 36,-11 9,-18 78,-25 -1,40 -23,6 11,28 37,-17 359,-77 421,-84 172,-17 329,-8 481,-34 65,-5 190,14 225,7 124,-39 363,-1 487,-17 29,-3 56,-21 96,-16 66,8 47,27 104,23 79,-5 153,-30 254,-29l214 -10 125 5c80,-6 183,-11 254,-19 72,-8 149,10 224,-8l219 6 114 -4 165 8z"/>
   <path class="fil1" d="M9159 11257l179 -10 57 -7c-20,43 31,29 -19,35l247 10c84,-9 192,-10 259,-32 5,3 10,8 12,10 41,32 218,90 342,85 496,-19 362,59 521,51 151,-7 286,-53 305,-53 53,-1 33,20 93,6 131,-29 252,19 327,0 75,-20 321,40 437,-6 -97,0 -74,-10 -101,-29 27,1 170,20 152,-19l107 -11c9,17 15,31 28,57l84 -21 168 21c63,13 96,37 186,39 166,2 68,36 170,59l-10 54 43 -8c40,7 95,-5 116,-6 18,71 -11,33 6,108l54 6c8,-42 8,-31 -8,-69l59 5c-53,-43 -21,10 -18,-54l333 -17c68,8 50,3 112,0 235,-13 324,30 419,-40l48 16c27,-4 51,-6 78,-16 58,-23 23,-11 43,-30 17,-4 188,-10 237,-10 100,0 166,-12 232,-58 37,36 -51,21 52,26 19,1 47,-11 70,-18 12,13 6,-31 17,37 157,-13 104,53 250,-19 3,-2 50,-19 51,-20 -123,0 -87,-9 -116,-31 90,15 97,16 179,-16 76,-25 80,-14 163,7l204 -7 63 -8c-29,49 40,20 -25,37 147,-8 382,18 510,-23 23,21 22,-2 37,55 21,-23 9,-17 46,-24 113,84 247,53 371,54 141,1 222,-10 316,48 31,19 -3,33 14,3 84,11 156,9 243,-2 66,-9 125,-52 175,-42 9,1 39,11 44,11 56,-2 -24,2 37,-10 89,-18 62,8 154,3 14,0 6,-5 45,-2l74 27c2,-3 6,6 9,8 39,-27 45,-46 118,-36 57,7 55,15 84,45 60,-31 75,-11 131,19 -14,-36 12,-19 -35,-28 49,-31 23,-14 105,-24 23,-3 54,-10 68,-13 -96,0 -73,-10 -100,-30 77,6 109,16 170,-16l87 -11 24 49 24 -8 261 21c118,34 149,39 284,31 33,-1 110,16 175,12l-2 34c-65,8 -44,5 -90,28 -4,2 -8,4 -12,6l-114 65c-35,25 -36,59 -42,46 -1,-2 -5,8 -8,11 -202,-12 -209,102 -334,117 -9,112 -65,39 -112,126 -16,-59 -4,-37 -87,-31 4,-37 4,-34 18,-57 52,29 69,29 115,26l-39 -63c-87,-8 -67,14 -112,-38 -10,-11 -1,-27 -46,-42 -65,-20 -35,5 -44,10 30,58 -5,5 82,70l-30 66c-65,-15 -28,-8 -75,-59l-64 58 18 61c-55,-2 -38,21 -52,-56l-40 17c-1,-3 -6,6 -9,9 26,-167 -42,-136 -60,-144 -30,55 -28,76 -70,57 -8,70 -21,118 -153,71l-31 23c-4,3 -17,12 -23,14 -54,23 -14,4 -42,10 -6,1 -10,1 -15,2 -5,1 -9,1 -14,2 -140,21 -43,-31 -174,-32l-4 -10c-18,7 -33,11 -67,16l-13 -26c-27,-52 -15,-33 -65,-43l-3 -82c-20,87 13,15 -57,80 7,-84 -3,-51 34,-120 -40,-16 -44,2 -55,4l-74 4 29 55c18,34 10,23 20,36l-46 -16c-11,11 -2,-25 -55,16 48,64 17,52 98,18l29 70 -15 24c-144,-27 -28,7 -126,20 24,-51 20,-9 52,-63 -54,-34 -22,-18 -107,-21 -156,-5 -118,-87 -235,-18 -47,-40 -3,-11 -59,-36 -64,61 -139,66 -228,21 -30,17 -54,31 -101,40 -25,-43 -8,-17 -25,-62 -18,-46 -10,-26 -25,-46 -2,4 -6,9 -6,11 -1,2 -5,8 -6,10l-12 -19c-176,3 -51,-33 -202,-51 9,104 21,55 90,87 -35,16 -51,6 -92,10 -30,-89 -9,-37 -47,-65 3,82 -5,124 21,180l-28 -3 -16 43c-19,-33 16,-84 16,-116 0,-94 -58,-13 0,-157 -75,8 -81,34 -122,90l-93 -6 -17 -104c50,3 58,13 93,46 70,-80 201,-11 275,-87 -25,-29 -6,-34 -49,-25 -4,0 -17,10 -20,11l-21 13c-63,-29 -21,-27 -86,-27l74 -79 -89 15c-2,4 -5,10 -7,13l-16 41c-6,21 -6,28 -12,54 -69,-23 -71,-3 -74,-57 6,3 -18,29 38,7 49,-19 7,11 23,-33 -16,-10 -6,-12 -36,-17 -51,-7 -4,-4 -34,11 -13,-16 -6,-8 -23,-30l-20 -27c-12,32 14,-3 -32,16 -40,16 -22,7 -45,30l50 34 -168 123 46 37c-41,23 -35,47 -63,85l-25 -43c60,-31 18,-6 50,-39l-80 -12 20 -36c45,-59 100,-50 103,-134 -44,26 -54,22 -80,66 -14,-40 -41,-45 -71,-71l-49 55c-53,1 -84,-1 -123,-15l18 75 48 -35c-52,76 -34,26 -103,71 0,-108 50,42 12,-115 -3,3 -8,8 -10,10l-67 43c0,37 10,43 -14,82 -26,-42 -44,-40 -40,-93 9,25 13,21 25,36l16 -56c-100,-53 -181,-29 -84,52l18 15c-22,3 -76,17 -108,61l-75 -11c-6,-91 9,-81 -73,-88 20,37 -24,19 50,47 -110,3 12,-26 -91,3 -11,-76 2,-19 -21,-49 -107,-7 -32,-16 -117,-49l-32 92c-1,-3 -4,9 -5,15l63 -17c13,78 -3,18 23,49l81 0c2,0 6,3 9,3 2,1 7,2 9,2l68 11c-121,10 -50,5 -101,31 -37,18 -62,13 -90,8l-31 -8c-47,-9 46,-2 -39,-2l20 22c1,2 6,8 7,9 1,2 5,10 6,8 1,-2 3,5 5,7 -76,-9 6,2 -65,-24 -23,-9 -42,-10 -62,-17 -2,75 24,79 -19,145 -42,-5 -98,-24 -114,-55 99,59 108,-15 114,-25 -47,-34 -59,6 -108,-58l21 -37c-86,-4 -26,-29 -60,46 -12,-29 -18,-45 -32,-72 -4,3 -8,8 -11,10 -2,2 -8,7 -10,10l-27 27c-56,-12 1,-6 -37,-13 -20,-5 -11,-3 -30,3 -20,65 17,15 -22,99l63 37c-64,-5 -51,-4 -101,-19l-16 78c-21,-15 -46,-25 -62,-54 48,-26 15,-55 -16,-94l-107 -2c-8,14 -48,-25 -6,32l-71 7 88 46c-40,14 -68,19 -111,35 45,-72 25,-66 -35,-100 -24,37 5,65 -52,97l-26 -32c43,-11 23,-6 50,-35 -19,-22 -17,8 -1,-63 -71,-4 -42,-12 -78,-21l-44 -1c-72,-4 -35,-18 -118,2 -2,-3 -20,-27 -20,-28l-31 30 -68 -13 -4 94c-67,1 -78,16 -130,-10l37 -34c-32,-90 15,-40 11,-113 -1,-4 -11,-41 -12,-44l-36 67 -38 -49 -67 51c-2,2 -7,13 -8,10 -2,-3 -6,7 -9,10 26,53 -8,14 48,52l-27 26c-38,-10 -35,-29 -106,-31 13,56 6,68 46,79 -76,5 -29,-15 -123,-10 18,-74 5,-58 71,-47 -13,-26 9,-19 -32,-45l99 -61c-95,-1 -51,12 -75,-34l-18 67c-41,-49 4,-11 -53,-33 -11,40 16,7 -17,38l-44 44c-1,4 24,38 -46,50l40 -64c-53,-24 -10,-7 -39,-20 -37,-16 -91,-19 -124,6l82 17c-3,13 -14,55 -20,63 -15,21 -2,13 -38,13 31,-56 20,-7 28,-81 -62,31 -51,47 -102,83 -1,-1 -13,-34 6,-44l-93 -18c-26,53 15,-32 -12,36 -24,58 -38,13 -61,103l42 34c85,-32 -41,40 22,-10 47,-38 9,-10 11,-12l4 -21c15,35 23,48 41,73l-50 67c4,3 10,6 12,8l39 26c-85,40 -1,-50 -114,-70 24,70 13,4 27,62 -82,15 -37,-8 -93,-76l-32 48c-24,-76 17,-83 37,-138 -34,-3 -47,-9 -61,-10 -66,-5 -24,0 -36,9 11,-42 51,-57 66,-121 80,-7 35,-2 62,-25 -44,-22 -60,-12 -126,-21l-15 120c-48,-21 -91,0 -136,-20 0,0 7,39 7,43 0,17 5,2 -11,23 -8,-28 -29,-29 -56,-46 -3,-2 -9,-5 -11,-7l-25 -12c-11,13 -12,11 -25,33 -3,5 -10,28 -12,33 -19,-28 2,-22 -34,-17 -79,13 -96,0 -133,87 -33,-56 10,-32 -48,-61 -16,25 -18,-2 5,54 -67,23 -20,-7 -62,42l-25 -55c-29,18 -24,19 -65,22l-74 -72 -53 31c23,52 24,44 90,73 -39,13 -22,6 -68,2l-22 86 50 31c-93,-9 -17,-6 -96,-48 -73,94 -16,34 -115,71 -44,17 -6,12 -59,39 -37,19 -89,21 -102,-26l-6 -26c-1,-4 -3,-5 -4,-8l-40 63c-41,-27 -34,-8 -72,-29l79 -47c-128,18 -146,52 -186,112 -85,-63 20,23 -15,-85l-98 84c-2,-75 -11,-114 -55,-169 -28,17 -49,36 -90,51l-20 -56c-19,53 -3,23 -29,55 -44,-7 -43,-16 -80,-31 -4,6 -44,-25 -6,46l-71 17c13,-19 49,-4 -7,-80 -112,10 -22,-17 -68,80l-147 -44c17,-63 20,-20 47,-88 -54,14 -57,24 -114,-1 51,-47 12,-6 34,-61 29,37 29,-45 24,42 -12,-84 3,-30 25,-59l64 36 75 -72c1,1 39,18 49,19 106,9 12,7 56,-18l-122 -51c-37,-7 -83,-4 -125,-1 -74,-92 -93,-27 -116,-4 -22,-92 -34,-29 -42,-122l-8 16c0,2 -4,9 -5,10l-14 24c-180,-76 -34,-54 -136,-70 55,67 15,-12 45,70 -99,18 3,-19 -152,6l6 86 66 5c40,55 -9,12 45,54 38,-40 46,7 81,-81 5,4 11,7 15,10l52 55c20,-13 -26,-35 54,-8 38,12 23,1 43,36 -75,37 -4,26 -61,39l-44 4c-128,5 -137,-27 -210,-49 -15,29 -5,21 -40,33 -31,-44 3,-15 -51,-47 -24,13 -18,-2 -50,13 19,-95 44,-70 53,-146 -25,-16 -11,1 -30,-24 -34,-44 -14,-16 -6,-32 -5,2 -21,11 -47,16 -55,11 -48,-11 -130,-8 7,-42 5,-81 1,-104l33 -32c16,42 22,47 43,77 47,-35 16,10 54,-50 -49,-84 -72,-21 -66,-81 2,2 -42,18 27,10 62,-7 12,1 44,-25 -13,-15 -16,-30 -45,-40 -84,-28 -5,-6 -35,12l3 -56 -121 58 65 26c-48,35 -85,26 -95,34l-20 34c-1,0 -4,3 -5,4l-17 6c-35,24 -13,-6 -28,24l-1 30c-1,-3 2,12 3,18 28,13 -42,30 49,11l79 -35c1,4 3,10 4,13 1,3 3,9 4,13 1,3 3,9 4,13 4,16 5,6 9,41 -26,-18 -9,-17 -55,-8 31,31 12,8 8,78l-85 9c-27,-30 -11,3 -28,-42l-48 11 43 69 83 -29c21,23 17,-15 34,54 47,7 35,7 87,14 6,1 22,3 27,4l52 5 -48 50c-12,11 -22,18 -35,28 -142,-73 -123,-41 -150,-28l-17 -54 -123 3c1,5 2,12 3,15l6 26c1,3 5,15 7,21 -38,-24 -22,-24 -48,-53 -18,-18 -26,-22 -36,-35l-21 -34c-1,-6 -4,-8 -7,-12 -21,27 -14,-1 -29,52 -18,-40 -3,-11 -34,-36 -18,-15 -8,10 -34,-34 -41,17 -34,11 -52,37 -24,-56 35,28 -10,-17l-14 -9c0,0 -31,2 -9,-73 -58,-10 -69,-16 -138,-21 -45,-47 -45,-50 -117,-46l-14 -60c-30,17 -27,17 -71,26l28 -22c19,-18 8,-6 20,-26 -96,3 -5,-15 -81,45 -11,-19 -16,28 -12,-52 -121,2 -51,-12 -140,-48 -25,56 -5,27 -12,52 -9,28 -4,3 -25,52 49,-5 26,-1 66,-12 10,79 0,24 22,50 131,-15 28,-7 134,2 47,3 3,-7 28,11 -27,8 28,-8 -12,3l-34 9c-70,9 -46,7 -87,-17 24,60 -18,27 45,48 -191,9 -35,-20 -164,-15 3,5 7,10 9,13l27 39c-86,-13 -11,-30 -136,-36 15,67 17,88 -12,136 -38,-6 -46,-10 -74,-23 -39,-18 -27,2 -35,-32 3,2 -14,25 57,15 71,-10 20,17 51,-39 -3,-3 -8,-6 -10,-7 -93,-37 -32,20 -77,-25 -43,-43 7,-27 -13,-70 -43,15 -32,-31 -40,60l-44 -67 -97 30c-2,-4 -8,3 -12,5 -1,3 -2,8 -2,10l-41 106 -34 70c-19,-14 -36,-27 -61,-45 21,-21 17,-13 31,-56 -37,-32 -42,-48 -115,-47 -81,2 -32,-18 -57,31 -27,-10 -22,-14 -58,5 52,50 35,18 88,47l-111 33c32,-71 21,-81 -58,-98 15,52 15,23 12,76l-67 -17c68,-6 25,-7 50,-94 -71,-5 -57,-18 -90,-24l-153 3c-1,-2 -18,-28 -18,-28l-28 35 -73 -19 -6 99 -135 -7 45 -40c-32,-78 -4,-39 6,-75l-16 -81 -27 66c-48,-69 -69,-16 -115,2 -23,-12 15,0 -39,-13 -5,-1 -25,-1 -30,-2 -44,-15 -17,8 -36,-37 -13,20 -22,-25 -19,69 -40,-40 3,-10 -49,-33 -20,50 -45,40 -83,69 -23,-21 -27,-32 -68,-38 -36,-6 -64,7 -84,22 26,16 55,5 83,17 -8,29 -17,54 -32,80 -21,-27 -2,-41 3,-83 -47,21 -97,75 -97,75 -1,-3 -5,5 -8,8 -8,-15 -24,17 5,-49l-91 -3 -21 49c-37,58 33,-49 -25,27 -82,108 31,64 72,73l23 42c-12,13 -16,15 -30,33 -17,20 -8,10 -23,35l53 33c-43,22 -39,-8 -66,-44 -19,-26 -6,-10 -30,-25l10 62c-77,15 -49,-7 -90,-79l-38 45c-14,-33 -16,-23 -1,-60l37 -72 -98 -10c4,-4 12,-12 15,-15l116 -124c-61,-31 -39,-4 -79,-19 33,-17 -16,8 29,-11 24,-10 25,-11 36,-18 -57,-69 -114,17 -238,15l62 78c52,-18 16,6 49,-22l-12 73 -65 -80 -53 118 -76 -41 -108 53c0,-1 0,4 -1,6 -81,-37 -94,-3 -122,67 -1,-2 -19,-23 -21,-24 -22,-16 -60,35 -82,57l-28 -65c-14,15 -32,33 -44,45 -16,-19 -23,-22 -35,-34l-24 -28c-37,-29 -16,-30 -67,1 0,75 3,47 73,82 -55,15 1,8 -68,-1l-25 87 52 30c-117,-8 -1,-3 -97,-45 -40,48 2,35 -58,57 -42,17 -28,-4 -79,25 -86,48 -39,44 -143,27 0,-8 2,-35 2,-36 -2,-26 2,-7 -9,-25l-41 55 -69 -20c23,-17 46,-24 77,-48 -32,2 -46,3 -70,11 -49,15 -76,41 -104,83l-11 19c-76,-65 22,19 -13,-86l-100 83c-3,-73 -10,-114 -56,-168 -75,46 -138,56 -219,21 -5,7 -44,-27 -6,45l-72 17c4,-6 41,-4 14,-58 -21,-41 6,-15 -53,-24l-25 79c-59,5 -57,9 -105,-15l-51 -27c20,-68 21,-10 45,-90 -66,23 -57,33 -111,-6 42,-33 16,-11 32,-55 29,39 31,-48 23,44 -9,-73 -4,-32 22,-59l69 36 48 -45c27,-32 36,-19 137,-11 -41,-45 29,-18 -72,-54l-181 -17c-19,-21 -21,-21 -39,-40 -27,-28 -13,-18 -41,-38 39,-71 -13,-33 59,-44l-30 -34c-1,-2 -3,-6 -3,-9l-11 -78 3 -60c29,-21 23,23 23,-20 4,4 9,9 11,13 3,2 8,8 11,12 2,2 6,8 7,11 2,2 5,13 6,10 1,-2 3,7 10,12l28 -64c24,10 53,15 93,22 -36,39 -50,16 -24,75 31,-33 29,-29 43,-63l52 36c1,1 6,1 8,1l38 21c3,2 10,13 12,9 2,-4 9,7 14,10 31,-21 15,14 41,-42 14,93 -7,32 47,48 19,-67 30,-43 -8,-104 24,-5 20,-19 37,-33l-16 -6c58,24 31,-38 50,27 40,1 70,3 118,7 70,4 44,10 118,20 14,-1 125,6 149,10 31,58 -8,22 47,25 4,0 36,-10 53,-10l75 14c2,-7 8,-6 12,-9 37,71 11,40 42,55 51,33 27,44 109,35 -21,-43 -19,-31 -53,-51l20 -29 -16 -5 58 8 76 1 56 33c3,-4 8,6 12,9 -77,14 -26,2 -43,25 9,33 39,43 33,62l-1 -25c22,24 4,0 31,39l13 28c9,-48 -1,-13 14,-50l20 -28c14,0 39,-1 52,1 31,6 33,13 45,20l-18 -38c58,-12 18,2 45,-33 -20,-27 -13,-11 -7,-55 73,11 47,0 105,-9 57,-9 62,7 115,8 119,1 586,-55 656,-21 130,-68 98,-8 199,-13l406 -27c27,-5 162,-36 177,-42 94,25 92,36 207,5 105,-28 113,11 212,-25 76,-28 15,-16 98,-10 41,2 211,-50 320,-24l47 -40c19,6 129,62 135,12 79,3 95,9 168,-11 15,17 8,-12 17,35 134,-1 98,15 149,22 4,1 21,-2 25,-2 53,-9 79,-36 128,-56 -65,0 -128,24 -102,-33 88,15 87,10 164,-16 78,-24 109,-8 192,10z"/>
   <path class="fil2" d="M2191 8992c-68,34 -62,13 -55,108 61,-25 3,-1 41,-23 4,-2 7,-5 11,-7l52 -18 49 53c-7,50 -1,17 -13,65 66,-16 16,-17 88,6l-2 48c-17,25 -45,63 -2,73l-1 72 -37 23c4,45 24,92 25,104 1,42 -9,-23 -9,48 1,51 43,176 32,255l50 10c-13,30 -12,-35 -10,37 1,35 17,30 12,81l4 38 0 34c-94,16 -16,6 -60,24 -18,7 -32,10 -54,13 0,3 3,61 3,62 -1,7 -1,10 -1,17l-5 82c1,3 24,95 32,114 35,-7 35,29 27,-19l9 83 50 -31c14,53 5,35 32,58 18,-46 8,-26 26,-50 37,41 12,-23 21,33 9,50 -10,21 -17,29l31 25c28,29 18,36 57,59 5,-2 11,-4 14,-6l63 -27 32 44c4,35 -5,19 12,56l67 105 -25 -6c-2,-5 -7,6 -11,9 23,60 -30,-22 16,16 -18,-64 14,-69 -118,-75l-17 97c-88,16 -57,-5 -69,66l69 7c11,62 8,83 34,115 17,-35 -20,-43 23,-86l58 -43c30,-13 -7,-14 44,5l-24 -102 51 53 -4 28 -43 53c83,89 -50,20 71,95 -83,39 -46,8 -33,84l-106 -52 25 79c0,-2 3,9 4,13 -54,28 -27,-7 -45,68l77 39c2,-4 6,8 8,11 -30,26 17,-1 -39,27 -35,17 2,1 -33,6l12 -3c0,0 2,5 2,6 0,1 -1,7 -1,8l-19 17c45,11 28,-1 49,-9 2,0 7,-2 9,-3l127 -13c9,120 18,11 40,102 14,55 -15,18 22,64 -4,4 -9,7 -12,10 -30,26 -32,16 -31,64l57 -6c3,-1 9,-5 12,-6 2,-2 9,-3 11,-8 2,-6 8,-6 11,-9l14 83c26,-22 17,-14 50,-35 4,3 9,8 12,10l40 37 33 -52c44,41 23,45 79,79 -36,23 -27,6 -30,60l113 -23c-4,59 -24,12 34,36 48,19 -19,16 82,8l12 1c3,3 8,7 10,8l58 39c2,1 4,4 6,5 1,1 5,3 6,4l42 16c-31,104 -41,9 -109,84l188 -18c27,32 22,42 75,46 -48,-42 -44,-26 -12,-98 47,4 38,-1 70,34l25 -33 -69 -32 -5 -154 92 -11 9 72c13,6 12,3 26,24l-46 48c36,23 21,43 81,-10 5,3 23,17 27,18l64 39c-1,-3 -6,1 -9,2 -8,49 -5,3 8,72 -62,-47 -4,-35 -70,-62 -48,53 -2,7 -36,59 -19,29 1,10 -40,38l14 46c-27,-19 -21,32 -21,-18 -4,3 -8,8 -11,10 -26,18 -5,41 -74,-1 -25,15 -46,25 -62,36 -19,15 -16,17 -39,34l-153 -76c-115,-27 -73,31 -213,-21 -3,-85 -13,-55 59,-108 -50,-30 -103,-15 -145,13l65 22c-30,29 -25,-17 -22,74 -22,-37 -31,-23 -68,-57 -1,0 -14,-14 -17,-17l-38 -61c-202,3 -185,-45 -223,-68 -65,-38 -27,-12 -48,0 -17,-131 25,5 -73,-118l-27 24c-52,39 27,-11 -15,7l-3 -113 -85 -3 -1 -77c15,-36 19,-36 36,-70 -75,-4 -100,-27 -152,-119 -37,-66 -38,-42 -37,-109 70,7 23,9 46,14 26,6 -4,10 27,-3 -21,-41 5,-24 -40,-40 -9,-3 -57,-2 -68,-2l-65 -94c-44,-64 -20,-51 -46,-116l48 -56c-106,6 -67,39 -138,-129 -13,-31 1,1 -12,-37 -23,-71 33,-22 -48,-65l0 -157c-32,32 -8,-2 -30,39 -1,3 -6,32 -8,37 -5,-136 1,18 -73,-149 -54,-122 -33,-43 -28,-160l-39 -53c2,-4 8,-15 9,-19 7,-30 5,-3 -5,-36 43,15 -2,-1 28,14 13,6 4,5 41,17 -19,-51 -4,-40 -23,-73 -28,-50 -19,8 -26,-73l-30 26c-15,4 -5,8 -17,-11l-38 -227c-21,-341 -10,-183 14,-324l-66 -44c5,-55 10,-59 15,-109 -78,37 -34,-5 -76,66 -7,-32 -8,-29 -20,-57l-74 5 0 -105c84,44 102,24 138,-8 -51,-18 -23,-14 -66,-26 -33,-8 -2,21 -48,-21 42,-48 29,-11 54,-53 27,-46 -41,0 42,-46l-16 -104c48,-28 47,-3 55,-26 27,-80 46,20 3,-108 76,-96 3,-26 90,-171 24,-41 16,-135 102,-114 -8,-91 21,-85 76,-121l56 53c12,2 44,2 52,2 -31,75 -25,30 -51,52l-10 97c-21,41 -12,58 -17,115 -6,70 10,87 13,120 5,35 -15,-4 4,46 26,68 45,39 45,39l-1 0c-28,-30 -19,-30 -61,-25 -47,5 -49,24 -50,25 0,4 -1,11 0,14l8 32c14,46 -10,-27 -14,122l68 -76c1,2 11,17 17,25 22,29 -7,-7 19,19l-19 36z"/>
   <path class="fil3" d="M20537 10899l19 26c-29,31 -21,23 -30,71 -17,97 -10,57 -50,86l8 -71 -10 9c-26,22 -3,-1 -37,40 0,0 -9,-74 -58,-21 -1,2 -6,7 -7,9 -2,2 -8,7 -9,9l-20 19c62,34 27,25 47,44 -36,42 -3,15 -27,49 -17,25 -13,15 -33,35 -57,58 -214,110 -304,132 -31,12 -71,28 -102,36l-127 26c-202,21 -94,-25 -252,31 -55,-28 -91,-31 -145,11 -62,-16 -86,-29 -150,-17 -110,20 -54,3 -135,-2 -102,-6 -170,10 -279,7 -65,4 -142,-13 -175,-12 -135,8 -166,3 -284,-31l-261 -21c-26,-3 -17,4 -17,-26 106,52 21,15 56,-8l-24 -72c-49,17 -49,15 -63,65l13 -100c1,-7 6,-8 9,-11l-52 -29c-22,-9 -26,-10 -58,-13 -6,-1 -70,1 -70,1 -28,7 -49,-52 -49,32l0 25c-73,-9 -127,-16 -217,-16 18,-60 36,-51 -18,-51l-33 77c-16,-13 -17,-38 -85,-26 9,67 -4,37 53,84 3,-2 7,-5 8,-6l79 14c5,1 25,10 29,14 5,4 11,8 16,13 6,4 11,10 17,15l-859 -17c-164,-23 -665,-32 -724,-52 -33,-16 -30,-23 -100,2 2,-17 18,-42 -17,-67l31 -5c51,-11 25,12 36,-29l53 63 151 11 34 -52c0,-2 -4,-7 -5,-9l-6 -14c0,-2 2,-10 4,-15 3,-1 7,-3 9,-4l45 -28c-4,83 -3,26 16,71 5,12 14,32 15,36l135 -92 273 0 -68 82c76,27 82,11 93,-71l62 2c0,6 -1,13 -2,17 -1,4 -2,12 -3,16 -13,104 48,42 56,37 1,4 -19,21 27,22 99,2 16,-1 47,-22 -59,-76 -53,-26 -80,-86 61,17 51,10 120,20 92,13 10,30 101,-4l-9 76c23,31 5,20 59,26 11,1 28,-5 46,-4 42,5 48,21 67,40l6 -15c42,-71 5,36 15,-22 1,-7 6,-8 9,-13 73,51 7,27 108,42l-40 -35c-21,-15 -14,-6 -34,-14 28,-54 12,-1 26,-61 45,52 0,29 101,34l7 -40c4,-2 34,4 60,-26 83,-45 255,-81 363,-67 67,9 144,5 193,32 51,27 77,54 149,41 97,-1 215,27 322,39 196,77 178,-21 428,51 64,19 59,21 97,7 48,-18 -24,-11 46,-19l169 -4c78,5 52,10 123,-27l47 42 49 -36c106,54 88,1 303,-9 86,-5 206,-82 240,-99 83,-41 73,-49 148,-72 19,-36 7,-34 31,-66 4,-5 7,-11 10,-15l59 -69c49,80 4,78 68,128 -12,-60 -16,-70 0,-128 42,-19 30,-9 50,-34l34 67c0,-36 -6,-1 33,-9z"/>
   <path class="fil4" d="M8295 11104l10 62 88 -10c24,100 49,28 93,125 -127,-7 -30,-1 -68,27 -6,50 -116,-6 -135,-12l-47 40c-109,-26 -279,26 -320,24 -83,-6 -22,-18 -98,10 -99,36 -107,-3 -212,25 -115,31 -113,20 -207,-5 -15,6 -150,37 -177,42l-406 27c-101,5 -69,-55 -199,13 -70,-34 -537,22 -656,21 -53,-1 -58,-17 -115,-8 -58,9 -32,20 -105,9 -103,9 -150,1 -252,12l-76 -1c-12,-60 14,-33 76,-58 -5,-55 -1,-20 13,-33l-7 -55c3,-33 35,-1 -6,-46 87,-16 42,7 107,-35l57 -2c46,56 77,31 136,8l-49 70c5,0 12,-7 13,-2 24,54 -22,-26 65,17 62,30 -1,3 77,15l13 -72c72,-14 52,-26 62,-35 40,-35 52,-17 104,-9l307 -15c230,5 87,-22 218,-23 324,0 277,-22 281,36 -122,51 -65,53 -67,80 68,48 94,28 141,-17 2,3 6,4 8,9 1,8 12,16 15,19 27,25 52,37 103,17 -33,-58 16,-44 -88,-44l-4 -41c1,-1 3,-7 4,-8l23 -29c-113,51 -93,10 -108,-17 145,-50 166,31 410,-49 76,-25 107,12 193,-5 66,-13 140,-25 208,-41l2 38c-7,63 -13,28 8,84 44,1 82,1 111,-12 60,-26 58,-100 124,4l49 -76 -116 10c38,-129 -6,1 17,-49 35,-9 183,-38 189,-7 -4,34 -15,29 13,29 26,40 -6,11 54,27l-22 29c7,-2 39,-15 41,-15 57,-7 52,6 58,6l-26 -49c26,-17 21,-3 13,-53l62 -2z"/>
   <path class="fil3" d="M14394 11125c5,3 10,9 14,11l53 22c60,98 32,48 30,87 -4,132 -32,79 -34,78 -66,46 -132,58 -232,58 -49,0 -220,6 -237,10l-56 14c-4,-56 -16,-34 15,-68l41 -38c-105,-9 -64,-4 -92,14 1,42 12,47 27,70 -73,22 -30,-6 -56,54l-48 -16c-95,70 -184,27 -419,40 -62,3 -44,8 -112,0l-333 17 -93 4c-21,1 -76,13 -116,6l2 -51 -35 5c-102,-23 -4,-57 -170,-59 -90,-2 -123,-26 -186,-39 -33,-62 -27,-91 -101,-61 22,-23 7,9 21,-34 18,-54 0,-11 -4,-12l53 24c60,19 -45,27 45,6 57,-14 -4,9 19,-22 -31,-42 -31,-61 -75,-18 -37,-68 -30,-15 -68,-99l9 2 30 -12 323 39c72,29 49,30 142,34l-18 63c104,1 40,9 101,-27 9,107 12,41 -12,63l-11 -105c99,11 74,-19 170,7 277,76 67,5 213,4 49,-1 32,11 88,-1 87,-19 73,28 186,-25 47,22 11,-9 51,37l50 -36c91,48 95,19 197,-3 130,-27 -13,22 197,-34 41,-10 327,-44 413,-35l18 26z"/>
   <path class="fil5" d="M19187 7270l37 -14c107,57 107,24 231,16 7,7 2,16 31,25 47,15 9,15 37,-12 18,-3 20,-1 39,-1 39,1 -1,17 27,-2l73 -2c-19,59 11,20 -33,55l9 2c-87,0 -12,-7 -28,34 56,30 126,31 152,26 54,-9 24,3 46,-28l14 30c10,-21 -11,-65 90,25l39 37 -103 -6c36,57 -8,3 27,36 47,44 56,36 104,54 44,25 44,39 75,95 28,52 40,48 74,90l45 324c-61,-17 -26,11 -58,-47 -2,-2 -2,-8 -3,-12 -6,57 -11,41 5,112 -23,-9 -38,-11 -44,-12 9,36 -14,22 30,27l-3 57c-1,1 -3,1 -3,3 0,2 -3,3 -4,4l-16 15c-1,2 -6,8 -10,11 -20,-98 4,-1 -46,-105 -2,-4 -4,-10 -6,-14l-15 -29c-9,58 6,28 -32,65 -20,-53 13,-10 -30,-67 16,-55 25,-92 8,-146l-48 -128c-66,-88 -17,-19 -9,-43 11,-32 50,-37 71,-46l22 -64 -74 -17c29,37 23,-9 23,42 0,63 -2,18 -16,47 -50,-9 -35,-6 -71,-37l-77 -13c-90,-37 36,-42 -226,-98 -89,-19 -195,2 -300,-2 -99,-3 -203,-19 -320,-20 -118,-1 -177,-43 -285,-16l-68 -53c-94,14 -458,-10 -572,44 -115,-56 -35,-26 -168,-25 -41,0 -78,1 -119,2 -43,2 -33,11 -100,-22 -56,39 -155,17 -253,23 39,-48 -49,-33 34,-35 -2,3 50,21 -10,7 -22,-5 -29,-6 -34,-12 -37,-36 -22,-39 -23,-101 74,-11 100,-38 168,-33 103,7 137,8 238,-6 -34,27 -26,14 -44,68 63,24 19,11 86,8l32 0c3,0 9,2 12,1 4,0 9,0 13,-1 81,-25 -9,-49 -9,-49 1,0 42,-2 43,-2 55,-15 24,10 57,-33l42 11c-5,14 -11,43 -15,58l67 14 37 -81 30 6c11,50 6,3 -5,42 -6,21 -10,13 -9,53l64 -3c37,-32 -8,-1 49,-29 20,45 12,59 70,83l31 -64 69 12c-28,-29 4,-1 36,-9l72 -36c-16,-44 4,-37 -46,-55l29 -16c44,23 120,30 163,31 44,5 53,-1 48,38l18 58c27,-24 10,-8 49,-17 147,-31 -70,46 50,-12l-31 -48 53 14c73,-65 9,-12 8,-33 -1,-30 -9,14 6,-24 3,-8 15,-24 22,-42l12 -4 34 168 49 -12 -16 -68c43,21 23,11 39,27 3,3 6,7 9,11l52 63 30 -50c-20,-12 -15,-8 -34,-18 -3,-1 -11,-1 -14,-8 -2,-7 -10,-5 -15,-8 204,-10 -30,75 208,11 30,-9 53,-7 73,-35l-66 -60z"/>
   <path class="fil6" d="M2841 10801l-5 125c84,8 12,-25 83,41 48,-39 -21,1 42,-33 44,12 7,-8 38,25 49,52 8,43 134,69l13 33 51 3 36 40 64 10 122 100c-25,-14 -40,-21 -67,-33 -17,33 -14,19 -18,28l-7 25c27,76 45,2 114,2 9,37 -11,49 -23,96 62,5 73,-11 120,-25 -26,61 -28,33 -68,56 44,3 -27,-6 33,-1 71,6 1,-10 22,9 25,-43 27,-29 34,-81 40,15 34,13 81,16 73,6 51,-6 91,37l43 -15c15,56 -24,7 84,86 -27,28 31,10 -52,33 96,77 45,3 72,101l7 21c124,13 82,6 158,-36 78,-43 65,-7 152,-13l11 78c0,3 2,7 3,9l30 34c-72,11 -20,-27 -59,44 28,20 14,10 41,38 18,19 20,19 39,40l181 17c101,36 31,9 72,54 -101,-8 -110,-21 -137,11l-48 45 -69 -36c-26,27 -31,-14 -22,59 8,-92 6,-5 -23,-44l-21 -12c-3,-85 16,-2 -168,-71 -24,60 -10,25 -39,53 -8,-23 -136,-17 -175,-8l-14 -46c41,-28 21,-9 40,-38 34,-52 -12,-6 36,-59 66,27 8,15 70,62 -13,-69 -16,-23 -8,-72 3,-1 8,-5 9,-2l-64 -39c-4,-1 -22,-15 -27,-18 -60,53 -45,33 -81,10l46 -48c-14,-21 -13,-18 -26,-24l-9 -72 -92 11 5 154 69 32 -25 33c-32,-35 -23,-30 -70,-34 -32,72 -36,56 12,98 -53,-4 -48,-14 -75,-46l-188 18c68,-75 78,20 109,-84l-42 -16c-1,-1 -5,-3 -6,-4 -2,-1 -4,-4 -6,-5l-58 -39c-2,-1 -7,-5 -10,-8 19,5 9,7 29,6l91 -23c-19,-44 -12,-17 -15,-44l-8 -61c-29,35 -40,-62 -19,66 8,-84 2,-9 -32,-38 -3,4 -8,5 -9,13 -2,7 -8,9 -10,12l-39 68c-101,8 -34,11 -82,-8 -58,-24 -38,23 -34,-36l-113 23c3,-54 -6,-37 30,-60 -56,-34 -35,-38 -79,-79l-33 52 -40 -37c-3,-2 -8,-7 -12,-10 -33,21 -24,13 -50,35l-14 -83c-3,3 -9,3 -11,9 -2,5 -9,6 -11,8 -3,1 -9,5 -12,6l-57 6c-1,-48 1,-38 31,-64 3,-3 8,-6 12,-10 -37,-46 -8,-9 -22,-64 -22,-91 -31,18 -40,-102l-127 13c-2,1 -7,3 -9,3 -21,8 -4,20 -49,9l19 -17c0,-1 1,-7 1,-8 0,-1 -2,-6 -2,-6l-12 3c35,-5 -2,11 33,-6 56,-28 9,-1 39,-27 -2,-3 -6,-15 -8,-11l-77 -39c18,-75 -9,-40 45,-68 -1,-4 -4,-15 -4,-13l-25 -79 106 52c-13,-76 -50,-45 33,-84 -121,-75 12,-6 -71,-95l43 -53c20,9 51,9 49,47z"/>
   <path class="fil7" d="M4934 11227l-34 86c85,7 63,40 125,-34l31 4c80,-13 61,10 130,-29l34 40c39,72 57,96 143,93l-71 39c55,39 5,30 91,19l-28 52 16 5 -76 45c-31,-15 -5,16 -42,-55 -4,3 -10,2 -12,9l-75 -14 -25 -63 -39 66 -36 -18c-24,-4 -135,-11 -149,-10 -42,-37 55,-31 -56,-31l39 -51c-55,-41 1,-16 -55,-16 -34,-1 -42,-15 -61,-37l-20 20c-36,26 -21,21 -132,1l-1 60 16 6c-165,24 -28,-66 -151,-17l-24 -49c-33,19 26,19 -58,17 -12,0 -69,-9 -86,-10 -9,-3 -28,-20 -51,-40 -56,5 -26,-9 -49,35 -54,-47 -35,-22 -86,-20l-41 0 2 -28c-68,11 -21,-10 -99,-18 -26,-27 -20,-17 -61,-2 -154,56 89,-15 -43,17 -53,-47 -208,-84 -284,-101 -53,-11 -98,-21 -148,-34 -27,-8 -52,-16 -73,-22 -58,-17 -30,13 -72,-40l-26 12 -64 -10 -36 -40 -3 -66 -11 -39c26,-4 60,-17 84,0 24,-42 34,-55 84,-69 419,138 227,98 675,188l304 50c53,4 37,16 86,24 56,8 2,-17 68,3 19,6 58,53 168,4 37,35 56,33 99,50 101,39 64,13 119,9 63,-6 -8,-1 64,9z"/>
   <path class="fil5" d="M20322 9180c6,7 10,5 23,35 13,32 7,18 15,55 7,31 11,62 19,97 -23,30 -35,-56 -20,65l40 -23c25,79 93,240 87,326 -55,25 -41,4 -69,70l89 -18 -2 43c4,3 18,12 20,14l24 20c-1,50 1,78 10,118 20,85 69,52 62,322 -4,120 -6,105 -32,217l34 -4c-22,63 -50,146 -61,196 -34,160 1,154 -24,186 -39,8 -33,-27 -33,9l-34 -67c-20,25 -8,15 -50,34 -16,58 -12,68 0,128 -64,-50 -19,-48 -68,-128l-59 69c-3,4 -6,10 -10,15 -9,-61 9,-80 34,-118 19,-28 37,-69 60,-93l11 51c20,-32 16,-40 27,-78 25,-89 -4,-38 41,-65l-19 -51c-24,49 -15,19 -48,34 4,-309 38,-115 24,-389 -4,-82 14,-68 -48,-70 7,-59 14,-85 -9,-151 -18,-53 0,-15 -24,-44 3,-4 7,-15 8,-12l24 -42c-25,-25 -23,-16 -44,-52l-26 -88 1 -62c-3,-1 -6,-4 -7,-5 -2,-1 -7,-5 -8,-6 -1,-1 -6,-6 -8,-7 -1,-2 -7,-4 -8,-9 -1,-6 -6,-7 -9,-10 5,-44 -23,-97 -56,-131 15,-18 21,-27 33,-56 -71,-46 -65,-80 -44,-172 -42,-43 -19,-58 -66,-92l18 -67c-54,-71 -34,13 -42,-85l5 -34 47 -33c-24,-74 -37,-34 17,-68 62,55 -2,73 72,88 -4,4 -31,35 -32,38 -32,52 13,-57 -23,60 35,6 49,-8 102,50l36 -10z"/>
   <path class="fil5" d="M13182 7228l50 -5c101,56 111,24 232,15 6,6 21,21 31,24 39,13 9,12 35,-9 78,-18 29,-11 67,5l-11 79c-48,-49 15,-15 -77,-35 -42,-10 -50,-12 -108,-15l67 81c-76,-12 -25,1 -63,-31l-30 -33c16,67 10,59 -2,132 31,-57 0,-50 95,-29l59 -40c59,-15 223,0 294,4 -1,-1 -4,-3 -4,-3l29 -14c62,26 54,33 108,-5l-8 76 -74 -4c37,55 25,61 90,86 -231,-3 -138,-13 -337,25 -77,15 -58,-10 -140,-15 -131,-8 -98,15 -338,-8l-504 -22c-59,-41 -26,-1 -48,-54l-53 6c53,-41 -68,-34 67,-34 -58,-39 -50,-41 -67,-102 -62,0 -84,25 -84,-33 53,2 100,18 135,8l67 19 18 44 -17 46c36,-28 0,-9 48,-19 6,-1 30,-3 34,-3l37 -13 -36 -50c35,-4 35,44 67,-35l-102 23c25,-27 28,-7 104,-21l20 -50 12 -4 0 55c22,4 14,-16 28,45l2 51c0,-2 2,7 5,17l49 -12c-8,-25 12,-9 -50,-67 63,7 14,-13 62,15 6,3 16,17 20,21l38 62 44 -48 -63 -34c176,-15 55,82 166,63l-34 -31c-2,-7 -7,-9 -11,-13l157 -36c-30,-57 28,-37 -76,-28l0 -47z"/>
   <path class="fil8" d="M3090 10683c-18,62 5,26 -32,64 64,8 57,-8 84,51l45 -41c26,24 48,47 77,70 38,30 59,30 87,63 -50,14 -60,27 -84,69 -24,-17 -58,-4 -84,0l11 39c-41,37 -15,21 -61,30 -126,-26 -85,-17 -134,-69 -31,-33 6,-13 -38,-25 -12,-28 -15,-34 -18,-76 -6,-1 -19,2 -50,8 -4,-58 10,-46 -52,-65 2,-38 -29,-38 -49,-47l4 -28 -31 -56 -67 -105c-17,-37 -8,-21 -12,-56 44,-22 31,-13 93,12 -9,-62 18,-19 -17,-67 64,-43 -61,-75 34,-85 -51,-78 -20,-34 -23,-70l161 255c22,23 71,37 109,38l47 91z"/>
   <path class="fil9" d="M15359 7280l-1 68 62 10 17 -4c-27,83 10,33 -47,58 51,10 27,7 59,38 -142,-52 -37,-15 -78,11l-417 -34c-22,-38 33,-35 -39,-28 46,-75 7,-33 -3,-47 -3,3 -7,3 -9,8 -1,5 -7,6 -8,7 -50,42 7,-11 -18,14 -39,38 -19,23 -38,50l-392 -1c0,-88 0,-20 -30,-48 -111,-101 26,52 -36,-31 36,-8 19,5 35,-31l-39 -76c318,37 276,2 421,2 51,0 79,15 121,19 50,4 57,-12 108,-1 79,17 -2,30 94,11 68,-13 164,3 238,5z"/>
   <path class="fil10" d="M2429 9458l4 16 -8 52c-52,26 14,-29 -3,119l120 0 74 298c26,80 32,72 56,127 7,17 5,17 15,37 30,65 26,32 36,110l-11 34c-25,-55 -15,-45 -17,-101 0,0 -58,-19 -70,86 -1,4 -3,31 -2,34 0,2 2,6 3,8l15 17c2,3 7,9 9,11 3,3 8,8 11,13l-21 51c8,-5 -22,-19 39,-15 85,5 -25,-30 33,14 -4,40 -11,35 -45,66 49,19 44,26 31,2l64 17c35,48 8,5 17,67 -62,-25 -49,-34 -93,-12l-32 -44c-24,-45 -57,-63 -70,-103 -14,-42 -1,-36 -14,-70 -19,-48 -26,-24 -44,-61 -18,-38 5,-18 -17,-64 -33,-71 -45,-4 -54,-118 -9,-106 16,-47 -29,-84l-4 -38c5,-51 -11,-46 -12,-81 -2,-72 -3,-7 10,-37l-50 -10c11,-79 -31,-204 -32,-255 0,-71 10,-6 9,-48 -1,-12 -21,-59 -25,-104l37 -23c91,-89 67,64 70,89z"/>
   <path class="fil11" d="M16127 11277c59,20 560,29 724,52l859 17 101 4c27,20 4,30 100,30 -14,3 -45,10 -68,13 -82,10 -56,-7 -105,24 47,9 21,-8 35,28 -56,-30 -71,-50 -131,-19 -29,-30 -27,-38 -84,-45 -73,-10 -79,9 -118,36 -3,-2 -7,-11 -9,-8l-74 -27c-39,-3 -31,2 -45,2 -92,5 -65,-21 -154,-3 -61,12 19,8 -37,10 -5,0 -35,-10 -44,-11 -50,-10 -109,33 -175,42 -87,11 -159,13 -243,2 -17,30 17,16 -14,-3 -94,-58 -175,-47 -316,-48 -124,-1 -258,30 -371,-54 -37,7 -25,1 -46,24 -15,-57 -14,-34 -37,-55 -128,41 -363,15 -510,23 65,-17 -4,12 25,-37l61 -8 397 4 110 -3 169 10z"/>
   <path class="fil11" d="M10404 11260l74 -5c23,22 23,18 77,21 40,2 59,-4 89,-13l15 27c52,-17 114,-10 168,-1 73,13 111,12 184,12l132 -6 103 12 84 3 51 -1 179 3 258 5c27,19 4,29 101,29 -116,46 -362,-14 -437,6 -75,19 -196,-29 -327,0 -60,14 -40,-7 -93,-6 -19,0 -154,46 -305,53 -159,8 -25,-70 -521,-51 -124,5 -301,-53 -342,-85 -2,-2 -7,-7 -12,-10 -67,22 -175,23 -259,32l-247 -10c50,-6 -1,8 19,-35l60 -8 182 -1 219 7 117 -4 431 26z"/>
   <path class="fil12" d="M4900 7433c23,31 12,50 123,22 17,63 24,20 -39,134l26 4c-68,22 -185,12 -245,14 -108,4 -208,-23 -286,24l-48 -25c-22,-9 -23,-8 -47,-12 22,-76 11,-18 -55,-46 -35,-15 -32,-11 -66,-17 -10,28 -16,47 -24,81 -9,0 -61,-4 -62,-4 -65,4 -35,9 -56,13 -64,9 -41,-20 -130,-13 46,-53 34,-21 4,-88 -1,-3 -3,-9 -4,-14 21,-25 -26,-14 17,-17 -25,33 45,43 -65,30 -48,-6 -3,-18 -87,-30l65 -36c53,-24 17,13 53,-35l379 3c61,18 59,-1 121,29l-42 5 4 66 91 -15 -34 -26c2,-20 1,-3 10,-8l1 -61 52 0 6 77c-78,-18 55,4 -39,45 33,17 20,-13 40,24 30,-11 6,4 35,-18 2,-2 12,-17 20,-26l30 33c31,-44 14,-62 118,-40 15,-37 -5,-11 31,-35l-22 -31c26,-44 -25,-16 19,-33l106 26z"/>
   <path class="fil13" d="M7728 7253c16,40 -2,24 17,41 -72,1 29,-21 -101,-41 37,90 15,33 57,55l44 42c26,-11 112,-58 108,1l-78 9 35 64c-101,-1 -175,24 -254,29 -57,4 -38,-15 -104,-23 -40,-5 -67,13 -96,16 -124,16 -363,-22 -487,17l-67 -25c5,-4 11,-16 17,-17 -61,18 -42,43 -66,-1 -13,-23 -37,1 17,-28l131 -55 19 -65 363 -5c8,33 -11,25 29,50 48,31 84,-12 105,-24 15,36 20,48 42,76 17,-29 12,-6 -2,-64 44,22 57,13 59,13 3,-1 21,-8 27,-10 4,4 9,8 12,11l39 41c-10,-120 11,-62 -60,-111 47,-5 61,-17 91,-16 12,0 83,16 103,20z"/>
   <path class="fil13" d="M16313 11099l-5 63c-2,5 -4,13 -4,15l6 14c1,2 5,7 5,9l-34 52 -151 -11 -53 -63c-11,41 15,18 -36,29l-31 5c35,25 19,50 17,67 70,-25 67,-18 100,-2l-169 -10c11,-11 9,-24 20,-37 -51,-12 -21,9 -36,-37 -43,33 -15,7 -42,25l-52 52 -397 -4c-11,-28 -5,-51 -59,-46 -81,9 -55,31 -65,62l-204 7c-5,-37 -3,-56 35,-69 68,-23 -28,6 57,-5 -36,-21 -11,20 -34,-37l100 0 -3 -71 65 1 18 27c-73,-7 -45,-5 -80,49 69,-11 46,-8 102,-2 46,5 27,10 55,-21 -56,-51 -47,30 -51,-76l118 4 33 5c-37,61 -54,60 -17,118l70 -111 38 70c5,-3 12,-8 14,-10l28 -26c-85,12 -28,2 -49,-31 67,-2 90,-10 169,-16l-44 63 72 69c5,-6 15,6 22,8 -22,-114 -9,-63 -67,-141 71,0 281,18 320,42 181,-70 82,37 219,-30z"/>
   <path class="fil14" d="M12051 11157l-47 -31 2 44c-91,16 -83,-11 -139,8 -5,2 -27,14 -32,17 -50,-19 -130,-15 -199,-38 14,83 8,33 44,120 -61,-20 -37,-5 -81,-39 -17,45 -2,24 -61,24 2,2 18,42 22,50l-179 -3c1,-5 5,29 7,-25 3,-53 17,-1 -9,-43 -105,11 -52,57 -49,69l-84 -3c18,-17 3,-27 36,-36 -27,-13 -57,-21 -87,-33 -72,61 -72,-36 -52,57l-132 6c0,-44 14,-39 -18,-39 -20,-38 -12,-21 -50,-49 -29,-2 -17,4 -17,-35 4,4 28,25 34,26 15,3 -13,12 66,1l-30 -40c-17,-38 -11,-1 -2,-44 82,5 96,-14 126,38 18,-39 -1,-22 43,-34l-1 83c132,0 87,-8 100,-38l-18 -30c-2,-4 -6,-11 -8,-17 29,8 92,28 101,-4 2,-6 7,-6 10,-9 196,10 198,-5 363,-42 43,-10 340,-62 340,0l-103 11c2,4 6,5 7,11l17 52 70 -32 10 47z"/>
   <path class="fil15" d="M20100 8179l24 32c1,-3 7,8 10,13l32 -45c93,78 78,377 129,412 -28,22 -9,-2 -25,28l-80 122c-34,0 -29,-11 -29,17 -47,-58 2,-24 -57,-42l-17 87c17,53 8,26 0,50l-33 3c-10,-31 2,-4 -38,-19 -6,-72 -45,-98 -43,-173 14,-37 3,-18 26,-47 61,66 7,39 76,57 12,-35 12,-12 -5,-107 -21,-8 -37,76 -48,-51 30,17 -18,25 59,6 -44,-30 0,-6 -46,-40l-33 -16c6,-79 9,-31 35,-101 -2,-4 -4,-10 -6,-13 -1,-2 -4,-9 -6,-11l-32 -33 40 -112c-111,-27 27,18 -65,-13 -22,-25 -16,-20 0,-54 38,-37 23,-7 32,-65l15 29c2,4 4,10 6,14 50,104 26,7 46,105 4,-3 9,-9 10,-11l16 -15c1,-1 4,-2 4,-4 0,-2 2,-2 3,-3z"/>
   <path class="fil16" d="M6364 7293c36,23 -55,35 68,24 -3,51 2,6 -10,12 -17,7 -15,11 -16,6 -1,-4 -7,3 -3,3l28 65c64,-45 24,12 46,-59 43,43 13,-42 42,59l31 -33 117 52c-33,46 33,14 -23,34 -152,26 -309,17 -481,34 -62,7 -384,67 -421,84 -34,-22 -12,12 -11,-28 17,-66 -9,-48 -63,-48 36,-30 39,-77 23,-9 71,-16 139,-39 170,-74 62,25 26,31 93,25 101,-10 24,20 74,-47 76,53 42,15 77,9 69,-11 33,45 134,-14l-31 -76c-1,-2 -4,-6 -5,-9 36,-14 45,-15 77,-35l40 17c26,8 19,5 44,8z"/>
   <path class="fil17" d="M5731 7546c-69,7 -42,14 -78,25 -32,9 -62,5 -101,8 -10,-71 2,-61 -67,-83 -60,-19 -87,-20 -87,-64l-92 -20c2,-29 57,-15 99,-19 114,-12 107,-28 253,-27 111,1 10,-16 202,-21l343 -42c1,3 4,7 5,9l31 76c-101,59 -65,3 -134,14 -35,6 -1,44 -77,-9 -50,67 27,37 -74,47 -67,6 -31,0 -93,-25 -31,35 -99,58 -170,74 16,-68 13,-21 -23,9 54,0 80,-18 63,48z"/>
   <path class="fil18" d="M2357 8929c18,19 16,4 22,43 10,78 -7,52 -9,61 -46,-3 -52,-33 -61,-81 -1,-3 -3,-43 -3,-44 -11,-36 -2,-18 -32,-40 -10,12 -57,-2 -7,64 -54,16 -27,34 -76,60l19 -36c-26,-26 3,10 -19,-19 -6,-8 -16,-23 -17,-25l-68 76c4,-149 28,-76 14,-122l-8 -32c-1,-3 0,-10 0,-14 1,-1 3,-20 50,-25 42,-5 33,-5 61,25l1 0c0,0 -19,29 -45,-39 -19,-50 1,-11 -4,-46 -3,-33 -19,-50 -13,-120 5,-57 -4,-74 17,-115l10 -97c26,-22 20,23 51,-52 -8,0 -40,0 -52,-2l-56 -53 15 -43c116,-43 35,-72 157,-118 -12,66 -31,41 -30,128l6 236c3,52 28,69 17,144 -9,61 24,18 -32,59l45 30c5,99 12,179 41,253l6 -56z"/>
   <path class="fil19" d="M10379 11087l-9 74 -43 -2c3,4 28,34 29,38 5,78 53,-65 -15,38 -2,3 -10,6 -14,9l62 10c4,1 10,5 15,6l-431 -26 22 -13c-4,-5 -11,-20 -13,-16 -3,3 -10,-12 -12,-16l-20 -45c-45,51 -37,16 -68,49l-18 28c-3,4 -5,11 -8,17l-219 -7 10 -27c69,-21 -5,-27 79,0 -13,-71 6,-103 72,-127 59,53 -3,24 101,33 -17,-60 16,-44 -17,-54 102,34 122,-19 219,38 14,-5 46,-19 68,-21l210 14z"/>
   <path class="fil9" d="M2375 8579l0 55c47,-43 4,-24 42,-38l7 54 94 -8c51,21 34,216 25,262 -131,49 -36,60 -115,151l63 17c-6,15 -18,32 -19,35l-3 20c-15,92 23,37 -30,64 31,-109 10,-32 -14,-61 -95,47 11,-5 -63,94l2 -48c4,-41 7,-75 16,-131l-10 -12c2,-9 19,17 9,-61 -6,-39 -4,-24 -22,-43 15,-69 49,-47 30,-118 -16,-56 -8,9 -23,-59 -8,-32 0,-23 -16,-71 71,-1 24,14 57,-13 -23,-34 1,-18 -52,-36 -9,-53 -6,-124 -5,-183 2,-79 8,-33 13,-83 2,-24 -1,-78 -2,-102 91,35 85,10 100,117 -29,14 -50,27 -84,34l0 164z"/>
   <path class="fil13" d="M9637 11231l-182 1 -13 -32c-29,-5 -30,-15 -63,-6 -90,26 -28,1 -41,53l-179 10c-52,-60 -24,4 -28,-73 6,-1 25,-2 27,-2 13,2 23,7 26,7 1,0 4,1 5,1l35 -12 -62 -64c-10,-13 -24,11 0,-14 70,-44 96,-27 182,-32 -4,5 -9,6 -11,16l-41 60c72,4 58,-3 135,15 6,-78 -8,-25 -17,-100 68,-6 171,7 224,11 57,3 60,-8 113,-13 48,-5 87,-3 135,-1 33,10 0,-6 17,54 -104,-9 -42,20 -101,-33 -66,24 -85,56 -72,127 -84,-27 -10,-21 -79,0l-10 27z"/>
   <path class="fil20" d="M3900 11299c13,19 15,18 24,43l9 29c0,-3 3,7 5,11 46,73 47,23 101,49 -22,54 39,14 -87,24 -18,55 -9,59 -74,93 -27,-98 24,-24 -72,-101 83,-23 25,-5 52,-33 -108,-79 -69,-30 -84,-86l-43 15c-40,-43 -18,-31 -91,-37 -47,-3 -41,-1 -81,-16 -7,52 -9,38 -34,81 -21,-19 49,-3 -22,-9 -60,-5 11,4 -33,1 40,-23 42,5 68,-56 -47,14 -58,30 -120,25 12,-47 32,-59 23,-96 -69,0 -87,74 -114,-2l7 -25c4,-9 1,5 18,-28 27,12 42,19 67,33l-122 -100 26 -12c42,53 14,23 72,40 21,6 46,14 73,22 50,13 95,23 148,34 76,17 231,54 284,101z"/>
   <path class="fil21" d="M14192 7273c-47,36 63,30 -66,30 77,32 39,-14 43,65l-76 8c3,3 6,7 8,9 59,82 40,1 40,68 -65,-7 -103,-13 -147,12 -43,8 -38,21 -38,-10 -36,0 -3,4 -10,-30l8 -76c-54,38 -46,31 -108,5l-29 14c0,0 3,2 4,3 -71,-4 -235,-19 -294,-4l-59 40c-95,-21 -64,-28 -95,29 12,-73 18,-65 2,-132l30 33c38,32 -13,19 63,31l-67 -81c58,3 66,5 108,15 92,20 29,-14 77,35l11 -79 -6 -14c107,2 101,40 180,4l6 16c21,38 -34,-33 11,16l404 -7z"/>
   <path class="fil14" d="M10157 7284c-2,25 -2,29 0,52l95 28 -24 -77c100,15 342,8 407,30l0 37c-24,47 -43,66 -105,67 15,30 2,28 18,51l-312 -3c0,-92 86,48 150,-23 51,-57 -2,-56 -2,-58l-36 10c-45,27 -20,17 -35,29 -31,-20 -12,-24 -64,-38 -45,-13 -43,-2 -101,1 -42,-57 -19,-35 -80,-31 3,2 8,6 10,7l23 23c-48,2 -25,-8 -50,14 -4,-1 -9,-7 -11,-4 -1,3 -7,-3 -10,-4 -2,0 -7,-3 -10,-4 -3,0 -8,-2 -12,-3 -30,-9 -38,-7 -75,-20 -2,9 -18,16 -26,58 -42,-25 -29,-11 -49,-30l-43 -59 59 -16c4,-1 9,-5 14,-8l-20 -28c72,-9 90,-12 167,-1 101,15 36,21 122,0z"/>
   <path class="fil13" d="M3503 7570c-90,-7 -61,-33 -84,72 -126,15 -316,41 -438,67l50 -43c5,-3 11,-6 17,-9 -46,-3 -58,-13 -96,6 -29,15 -7,32 -38,28 -37,-44 3,-15 -63,-30l40 -16c35,25 -23,23 40,20 52,-2 14,11 62,-41l-65 -33c-2,0 -6,0 -9,-1 94,0 5,7 45,-35l-5 -40 64 17c4,8 8,15 18,28l54 60c7,-55 -1,-15 9,-42 1,-4 4,-9 5,-13l-55 -64c76,-3 65,-4 135,-20l-53 68c3,2 8,2 10,7l74 16 -11 -107c9,0 37,6 43,5 82,-6 -21,-7 66,-17 80,-8 66,8 157,-16l-5 68 33 65z"/>
   <path class="fil22" d="M9731 11880c-14,-31 -13,-10 0,-50l-53 22 -52 -5c-5,-1 -21,-3 -27,-4 -52,-7 -40,-7 -87,-14 -17,-69 -13,-31 -34,-54l-83 29 -43 -69 48 -11c17,45 1,12 28,42l85 -9c4,-70 23,-47 -8,-78 46,-9 29,-10 55,8 -4,-35 -5,-25 -9,-41 -1,-4 -3,-10 -4,-13 -1,-4 -3,-10 -4,-13 -1,-3 -3,-9 -4,-13l-79 35c-91,19 -21,2 -49,-11 -1,-6 -4,-21 -3,-18l1 -30c15,-30 -7,0 28,-24l17 -6c1,-1 4,-4 5,-4l20 -34c10,-8 47,1 95,-34l-65 -26 121 -58 -3 56c30,-18 -49,-40 35,-12 29,10 32,25 45,40 -32,26 18,18 -44,25 -69,8 -25,-8 -27,-10 -6,60 17,-3 66,81 -38,60 -7,15 -54,50 -21,-30 -27,-35 -43,-77l-33 32c4,23 6,62 -1,104 82,-3 75,19 130,8 26,-5 42,-14 47,-16 -8,16 -28,-12 6,32 19,25 5,8 30,24 -9,76 -34,51 -53,146z"/>
   <path class="fil13" d="M8627 7392c-75,18 -152,0 -224,8 -71,8 -174,13 -254,19 -61,-57 -17,-7 -34,-65 55,-24 -31,-19 71,-18 -19,-90 26,-31 -48,-66 122,0 15,5 61,-30l141 -6 19 26c-82,5 -46,-13 -79,51 147,-29 100,37 159,-29 -84,-45 -50,27 -55,-71l118 6 34 2c-40,69 -37,40 -33,117 75,-29 40,-40 84,-109 29,45 -1,5 24,38 34,46 -9,-4 26,24 35,-20 13,-4 29,-23l19 -37 103 -15c-51,46 -23,11 -57,74l-16 78c-29,-4 -60,-33 -88,26z"/>
   <path class="fil13" d="M16397 7326l44 54c3,4 5,8 7,12 47,90 -18,27 83,46 10,41 3,28 17,67l-319 -4c30,-32 -30,-24 32,-33 -16,-31 -29,31 -4,-11 10,-17 8,-4 10,-4 -83,-25 -93,3 -158,-4l18 39c-109,0 -190,17 -302,-1 20,-9 6,1 36,-32l54 -74c48,23 40,19 95,33l-24 -56c-14,-37 -9,5 -10,-43 85,7 89,-12 121,38 18,-30 9,-21 45,-34l4 87 101 -18c9,-55 -12,-15 -17,-56 -1,-8 -4,-10 -6,-15 104,35 81,12 173,9z"/>
   <path class="fil3" d="M12046 7336c17,18 25,10 25,35 -60,4 -59,-6 -51,34 -86,22 -12,-9 -67,49l21 10c-54,-30 -179,-12 -258,-8 -91,5 -25,22 -100,-22 -33,25 -31,21 -84,26l-16 -22c-11,0 -34,1 -53,-2 -6,-1 -11,-2 -17,-3 -6,-2 -11,-4 -16,-6 -5,-1 -10,-4 -16,-6 51,-24 61,-19 74,-84 -69,-43 -19,-30 -107,-7l8 -30c75,-18 17,-15 75,-20 16,-1 65,4 85,5 84,6 108,1 190,-8 -35,26 -28,16 -47,67 68,28 16,-3 167,13 -22,-51 3,-16 -35,-54 23,0 39,3 62,-5 33,-10 26,-15 43,-29l40 12c-2,5 -6,11 -7,14 -1,1 -5,9 -6,10 0,1 -2,6 -3,7l1 1c58,70 45,33 92,23z"/>
   <path class="fil6" d="M2654 10465l-63 27c-3,2 -9,4 -14,6 -39,-23 -29,-30 -57,-59l-31 -25c7,-8 26,21 17,-29 -9,-56 16,8 -21,-33 -18,24 -8,4 -26,50 -27,-23 -18,-5 -32,-58l-50 31 -9 -83c8,48 8,12 -27,19 -8,-19 -31,-111 -32,-114l5 -82c0,-7 0,-10 1,-17 0,-1 -3,-59 -3,-62 22,-3 36,-6 54,-13 44,-18 -34,-8 60,-24l0 -34c45,37 20,-22 29,84 9,114 21,47 54,118 22,46 -1,26 17,64 18,37 25,13 44,61 13,34 0,28 14,70 13,40 46,58 70,103z"/>
   <path class="fil3" d="M9868 7285l20 28c-5,3 -10,7 -14,8l-59 16 43 59c20,19 7,5 49,30 8,-42 24,-49 26,-58 37,13 45,11 75,20 4,1 9,3 12,3 3,1 8,4 10,4 3,1 9,7 10,4 2,-3 7,3 11,4 25,-22 2,-12 50,-14l-23 -23c-2,-1 -7,-5 -10,-7 61,-4 38,-26 80,31 58,-3 56,-14 101,-1 52,14 33,18 64,38 15,-12 -10,-2 35,-29l36 -10c0,2 53,1 2,58 -64,71 -150,-69 -150,23 -53,5 -76,-7 -120,-12 -48,-6 -112,4 -166,4 -104,-1 -220,-39 -302,-11l-14 -27 -19 -52c64,-47 38,39 66,-16 3,-6 11,0 16,-1 0,-5 -1,-12 -2,-16l-24 -43c-1,-2 -4,-5 -4,-10 -1,-5 -3,-7 -3,-11 -124,42 -33,20 -68,-15l272 26z"/>
   <path class="fil6" d="M10207 11904l-20 -17c-20,-35 -5,-24 -43,-36 -80,-27 -34,-5 -54,8l-52 -55c-4,-3 -10,-6 -15,-10 -35,88 -43,41 -81,81 -54,-42 -5,1 -45,-54l-66 -5 -6 -86c155,-25 53,12 152,-6 -30,-82 10,-3 -45,-70 102,16 -44,-6 136,70l14 -24c1,-1 5,-8 5,-10l8 -16c8,93 20,30 42,122 23,-23 42,-88 116,4 42,-3 88,-6 125,1l122 51c-44,25 50,27 -56,18 -10,-1 -48,-18 -49,-19l-75 72 -64 -36c-22,29 -37,-25 -25,59 5,-87 5,-5 -24,-42z"/>
   <path class="fil23" d="M19973 8664c-40,-19 -29,-24 -43,-65l-19 -44c-2,-2 -7,-5 -9,-8 -1,-2 -5,-6 -7,-8 -51,-76 -44,-121 -81,-191 53,16 10,25 33,1l-15 -61 31 -38 108 20 -3 -87c92,31 -46,-14 65,13l-40 112 32 33c2,2 5,9 6,11 2,3 4,9 6,13 -26,70 -29,22 -35,101l33 16c46,34 2,10 46,40 -77,19 -29,11 -59,-6 11,127 27,43 48,51 17,95 17,72 5,107 -69,-18 -15,9 -76,-57 -23,29 -12,10 -26,47z"/>
   <path class="fil5" d="M16978 7443c35,93 58,-50 58,70l-488 -8c-14,-39 -7,-26 -17,-67 -101,-19 -36,44 -83,-46 -2,-4 -4,-8 -7,-12l-44 -54 17 11c29,24 5,13 52,32 9,3 40,2 46,2 -24,50 -38,25 56,84 32,-67 52,-16 58,-105 47,-7 146,-18 186,22 56,-27 19,-23 74,-28 32,-4 66,0 97,9l-32 15c-69,35 -42,2 -49,69l76 6z"/>
   <path class="fil24" d="M5304 7597c-84,-18 -186,24 -294,-4l-26 -4c63,-114 56,-71 39,-134 -111,28 -100,9 -123,-22 64,-17 207,-46 272,-13 19,35 23,47 45,92l15 -1c1,-1 6,-1 8,-1l31 2c4,0 19,4 24,4 13,-26 13,-21 18,-29l-7 -75 92 20c28,22 41,39 26,85 -23,71 -49,52 -120,30l0 50z"/>
   <path class="fil25" d="M10977 7377c6,23 8,41 16,61l52 9c-67,19 -48,-6 -119,39l-378 -14c-16,-23 -3,-21 -18,-51 62,-1 81,-20 105,-67l0 -37c44,-11 146,-17 185,20 54,-27 17,-22 73,-27 33,-3 67,0 96,10 -3,2 -7,5 -9,6 -2,1 -7,5 -10,6l-40 25c-40,44 -17,12 -9,40l56 -20z"/>
   <path class="fil5" d="M3991 7608c-31,0 -91,-6 -135,-4 -52,1 -110,13 -156,18 -109,11 -174,3 -281,20 23,-105 -6,-79 84,-72l67 -65c51,25 35,5 53,46 36,-48 -9,-13 48,-43l-9 65 50 -8c4,-1 9,-1 13,-2 5,-1 10,-2 14,-3 53,-16 23,-26 67,-26 -18,-79 8,-52 -25,-72l-53 -12c12,92 23,36 10,68 -12,-32 -24,-54 -40,-87l276 -13c-36,48 0,11 -53,35l-65 36c84,12 39,24 87,30 110,13 40,3 65,-30 -43,3 4,-8 -17,17 1,5 3,11 4,14 30,67 42,35 -4,88z"/>
   <path class="fil12" d="M8747 11090c6,42 -31,37 8,37 -23,34 -26,-40 -17,42 96,24 145,-51 127,21l-60 7c-1,5 -4,11 -5,14l3 52 -209 17 -8 17c-73,20 -89,14 -168,11 38,-28 -59,-34 68,-27 -44,-97 -69,-25 -93,-125 36,-31 15,-48 76,48 22,-32 13,11 -5,-61 52,23 59,15 134,18l-53 -72c62,-6 55,-20 105,-15 32,4 36,14 97,16z"/>
   <path class="fil21" d="M8149 7419l-125 -5c-4,-5 -10,-20 -13,-16 -2,3 -15,-22 -52,-27 1,-78 -1,-41 -12,-55l-27 30c-56,47 6,-40 -36,36l-31 -31c4,-59 -82,-12 -108,-1l-44 -42c-42,-22 -20,35 -57,-55 130,20 29,42 101,41 -19,-17 -1,-1 -17,-41 92,0 128,-15 218,-14 78,1 176,4 253,1 -46,35 61,30 -61,30 74,35 29,-24 48,66 -102,-1 -16,-6 -71,18 17,58 -27,8 34,65z"/>
   <path class="fil21" d="M9159 11257c-83,-18 -114,-34 -192,-10l3 -92c-44,46 -37,25 -60,40 -51,33 62,10 -30,35 -23,-32 -8,-20 -15,-40 18,-72 -31,3 -127,-21 -9,-82 -6,-8 17,-42 -39,0 -2,5 -8,-37 39,-2 148,-13 203,-12 84,1 179,-24 212,22 -24,25 -10,1 0,14l62 64 -35 12c-1,0 -4,-1 -5,-1 -3,0 -13,-5 -26,-7 -2,0 -21,1 -27,2 4,77 -24,13 28,73z"/>
   <path class="fil12" d="M12508 7433c-81,0 -173,10 -252,12l-34 -35c-4,-5 -9,-16 -17,-22 53,-4 -18,46 -33,-58l-21 7c-20,-59 48,-65 -55,-39l5 -15c115,-20 202,-12 323,-16 38,21 12,37 105,26 -14,105 -24,45 -64,112 91,0 5,-6 43,28z"/>
   <path class="fil26" d="M6869 7463c-35,7 -160,-12 -225,-7 56,-20 -10,12 23,-34l-117 -52 -31 33c-29,-101 1,-16 -42,-59 -22,71 18,14 -46,59l-28 -65c-4,0 2,-7 3,-3 1,5 -1,1 16,-6 12,-6 7,39 10,-12 -123,11 -32,-1 -68,-24l139 1 35 63c68,-12 22,-12 88,-5 -13,-47 -3,-38 -25,-67 52,-11 78,-5 124,-5 61,-1 119,-13 195,-8l-19 65 -131 55c-54,29 -30,5 -17,28 24,44 5,19 66,1 -6,1 -12,13 -17,17l67 25z"/>
   <path class="fil3" d="M20322 9180l-36 10c-53,-58 -67,-44 -102,-50 36,-117 -9,-8 23,-60 1,-3 28,-34 32,-38 -74,-15 -10,-33 -72,-88 -54,34 -41,-6 -17,68l-47 33c-7,-98 34,-31 -69,-67l16 -33 -28 -52 -6 -66c40,15 28,-12 38,19l33 -3c8,-24 17,3 0,-50 35,23 28,28 29,75 5,-3 19,-8 23,-9 160,-58 -39,-64 57,-77 31,24 -1,-30 32,35 63,127 6,217 99,268l-5 85z"/>
   <path class="fil27" d="M9222 7251l-18 24 55 45c-46,40 -27,1 -36,57 -110,1 -96,4 -119,-72l-89 32c48,42 21,-8 9,67 5,-1 43,-14 48,-14 52,1 19,-4 53,12l-165 -8c16,-13 21,-41 23,-44l-31 -8c-3,-2 -10,-5 -14,-7l-22 -21c-19,28 20,7 -43,30 -21,-40 -41,-70 -68,-91 -74,0 2,10 -33,-41 85,0 142,16 223,16 120,0 32,45 197,-4l30 27z"/>
   <path class="fil5" d="M11995 11228c-4,16 -6,22 9,18l-34 52c18,39 -125,20 -152,19l-258 -5c-4,-8 -20,-48 -22,-50 59,0 44,21 61,-24 44,34 20,19 81,39 -36,-87 -30,-37 -44,-120 69,23 149,19 199,38 5,-3 27,-15 32,-17 56,-19 48,8 139,-8 -23,5 -27,-1 -47,12 -53,34 -17,14 -38,49l74 -3z"/>
   <path class="fil28" d="M2981 7709c-24,29 -68,29 -117,24l-54 7 -10 44 -101 35c-24,-16 26,-31 -57,15l-9 -42c-12,25 1,2 -45,14 -48,-18 -12,-18 -55,3l-8 60 -49 7c0,-61 11,-23 -17,-34 33,-58 123,-175 184,-186l66 39c38,17 6,-20 36,31 39,-21 28,-20 57,-36 57,-32 3,16 49,-29 66,15 26,-14 63,30 31,4 9,-13 38,-28 38,-19 50,-9 96,-6 -6,3 -12,6 -17,9l-50 43z"/>
   <path class="fil24" d="M10892 11125l-5 49c0,3 -1,9 -1,12 -3,54 41,29 57,27 38,28 30,11 50,49 32,0 18,-5 18,39 -73,0 -111,1 -184,-12 -54,-9 -116,-16 -168,1l-15 -27c-30,-45 -12,1 -25,-68l37 1c48,-6 20,-1 51,-18 -24,-31 -6,-31 -52,-48l-31 -2c-3,-7 -12,0 -17,0l42 -11c115,-18 142,-1 243,8z"/>
   <path class="fil29" d="M19400 11440c54,-42 90,-39 145,-11 158,-56 50,-10 252,-31l127 -26c31,-8 71,-24 102,-36 28,36 -43,32 59,40 14,1 82,-31 200,-26 -33,43 -5,26 -53,53l-60 19c-145,49 -632,27 -772,18z"/>
   <path class="fil30" d="M19187 7270l66 60c-20,28 -43,26 -73,35 -238,64 -4,-21 -208,-11 5,3 13,1 15,8 3,7 11,7 14,8 19,10 14,6 34,18l-30 50 -52 -63c-3,-4 -6,-8 -9,-11 -16,-16 4,-6 -39,-27l16 68 -49 12 -34 -168c63,9 128,16 176,11 52,-5 110,7 173,10z"/>
   <path class="fil5" d="M17981 11334c-61,32 -93,22 -170,16l-101 -4c-6,-5 -11,-11 -17,-15 -5,-5 -11,-9 -16,-13 -4,-4 -24,-13 -29,-14l-9 -59c-18,-61 -1,-16 5,-33 90,0 144,7 217,16l0 -25 141 9c-75,0 -60,5 -88,56 73,-14 64,-17 115,28 -3,2 -8,5 -10,7 -2,1 -8,5 -10,7l-28 24z"/>
   <path class="fil30" d="M13182 7228l0 47c104,-9 46,-29 76,28l-157 36c4,4 9,6 11,13l34 31c-111,19 10,-78 -166,-63l63 34 -44 48 -38 -62c-4,-4 -14,-18 -20,-21 -48,-28 1,-8 -62,-15 62,58 42,42 50,67l-49 12c-3,-10 -5,-19 -5,-17l-2 -51c-14,-61 -6,-41 -28,-45l0 -55c62,9 298,23 337,13z"/>
   <path class="fil21" d="M15278 11107l3 71 -100 0c23,57 -2,16 34,37 -85,11 11,-18 -57,5 -38,13 -40,32 -35,69 -83,-21 -87,-32 -163,-7 0,-1 8,-52 8,-54 -2,-43 0,-27 -16,-46 -28,-25 31,-21 -36,-21l69 -53c52,0 131,7 171,7 61,-1 57,-22 122,-8z"/>
   <path class="fil31" d="M4198 11460l-3 60c-87,6 -74,-30 -152,13 -76,42 -34,49 -158,36l-7 -21c65,-34 56,-38 74,-93 126,-10 65,30 87,-24 -54,-26 -55,24 -101,-49l73 -27 68 7c4,2 17,16 17,18l5 -50 41 0 -16 113c85,-37 19,-26 71,-10l1 27z"/>
   <path class="fil3" d="M14788 11218c48,-16 25,-28 71,25 50,-18 65,-33 93,-61 16,19 14,3 16,46 0,2 -8,53 -8,54 -82,32 -89,31 -179,16l-135 12c-34,-32 51,-40 -58,-20l28 -111 -28 3c-27,-32 1,-25 -59,-39 66,-4 47,0 77,-38l48 -1 -14 57c52,52 9,3 53,21l44 29c2,-3 6,7 10,11l41 -4z"/>
   <path class="fil16" d="M9580 7435l-455 -33c-34,-16 -1,-11 -53,-12 -5,0 -43,13 -48,14 12,-75 39,-25 -9,-67l89 -32c23,76 9,73 119,72 9,-56 -10,-17 36,-57l17 63c37,-18 15,51 37,-33 18,-69 0,-21 -16,-43l65 1 16 13 -9 55c43,-15 26,7 56,-30 38,-49 5,-4 -8,-25 41,-18 29,-4 50,-44l0 24 24 57c32,-1 11,0 25,-5 8,-3 11,25 25,-13 2,-7 9,-6 15,-9 7,51 -14,40 40,40 2,57 21,20 -16,64z"/>
   <path class="fil3" d="M15824 7330c98,-21 22,-12 43,24 -29,37 -3,18 -59,17 36,44 50,43 53,84 -30,33 -16,23 -36,32l-184 -12c-12,-3 -9,-18 -9,-19 -6,-11 -69,-121 6,-69 50,-4 14,14 52,-15 -24,-44 -36,-43 -89,-39l-12 -40 242 18 -7 19z"/>
   <path class="fil19" d="M11295 7301l17 69 -68 30c-83,24 -29,20 -115,10l107 62 -310 14c71,-45 52,-20 119,-39l-52 -9c-8,-20 -10,-38 -16,-61 31,7 53,65 126,28l-21 -48 -55 -56 268 0z"/>
   <path class="fil32" d="M15025 12029c-70,27 -78,17 -143,52l-35 -27c-2,-2 -7,-7 -8,-9 -2,-2 -5,-7 -8,-10l-168 46 -34 -53c-26,35 -37,53 -80,26 38,-31 29,-12 64,-49 131,52 54,-52 206,-4 -13,-37 5,-22 -30,-41 68,-8 29,1 93,12 20,-19 19,-22 51,-34 46,-17 85,-21 91,24 0,1 1,62 1,67z"/>
   <path class="fil9" d="M5413 11505l-58 -8 28 -52c-86,11 -36,20 -91,-19l71 -39c-86,3 -104,-21 -143,-93 64,-19 85,-8 161,1l7 83c13,27 5,6 5,39 4,-3 28,-16 31,-17 4,-2 12,-1 15,-8 3,-7 10,-5 14,-8 -37,-22 -21,-1 -17,-60l64 -11c-143,-2 -35,5 -78,-32l174 -3c-65,42 -20,19 -107,35 41,45 9,13 6,46l7 55c-14,13 -18,-22 -13,33 -62,25 -88,-2 -76,58z"/>
   <path class="fil13" d="M17292 7335l21 100 -99 2c-8,-31 1,-39 -39,-57 -53,-25 -16,-14 -60,6 32,45 15,34 71,48 0,53 82,14 120,4 -32,23 5,16 -48,25 -4,0 -65,0 -79,1l59 41 -202 8c0,-120 -23,23 -58,-70 66,6 54,21 118,5 -9,-48 -5,-15 -41,-27l-35 -85 272 -1z"/>
   <path class="fil33" d="M9039 12000c-175,49 -161,59 -200,3 -73,22 -20,18 -92,23 -79,5 -11,16 -86,21 -9,-73 -12,-49 47,-76 42,-19 73,-20 116,-4 -11,-35 -1,-23 -30,-42 48,-5 54,5 95,12 2,-3 4,-11 4,-9 0,2 3,-6 4,-7 26,-27 87,-23 127,-21l6 61c1,1 8,32 9,39z"/>
   <path class="fil34" d="M2370 9033l10 12c-9,56 -12,90 -16,131 -72,-23 -22,-22 -88,-6 12,-48 6,-15 13,-65l-49 -53 -52 18c-4,2 -7,5 -11,7 -38,22 20,-2 -41,23 -7,-95 -13,-74 55,-108 49,-26 22,-44 76,-60 -50,-66 -3,-52 7,-64 30,22 21,4 32,40 0,1 2,41 3,44 9,48 15,78 61,81z"/>
   <path class="fil35" d="M12357 11344l-168 -21c-59,-29 -26,-36 -75,-98 10,-11 0,-12 38,-34 27,-16 17,-4 18,-5l13 -46c40,6 20,4 32,2l32 -14c38,84 31,31 68,99 44,-43 44,-24 75,18 -23,31 38,8 -19,22 -90,21 15,13 -45,-6l-53 -24c4,1 22,-42 4,12 -14,43 1,11 -21,34 74,-30 68,-1 101,61z"/>
   <path class="fil36" d="M3503 7570l-33 -65 5 -68 223 -6c16,33 28,55 40,87 13,-32 2,24 -10,-68l53 12c33,20 7,-7 25,72 -44,0 -14,10 -67,26 -4,1 -9,2 -14,3 -4,1 -9,1 -13,2l-50 8 9 -65c-57,30 -12,-5 -48,43 -18,-41 -2,-21 -53,-46l-67 65z"/>
   <path class="fil37" d="M4647 11414c-17,14 -13,28 -37,33 38,61 27,37 8,104 -54,-16 -33,45 -47,-48 -26,56 -10,21 -41,42 -5,-3 -12,-14 -14,-10 -2,4 -9,-7 -12,-9l-38 -21c-2,0 -7,0 -8,-1l-52 -36 23 -71c-70,0 -101,23 -101,-42 17,1 74,10 86,10 84,2 25,2 58,-17l24 49c123,-49 -14,41 151,17z"/>
   <path class="fil38" d="M2765 10670l31 56 -51 -53 24 102c-51,-19 -14,-18 -44,-5l-58 43c-43,43 -6,51 -23,86 -26,-32 -23,-53 -34,-115l-69 -7c12,-71 -19,-50 69,-66l17 -97c132,6 100,11 118,75 -46,-38 7,44 -16,-16 4,-3 9,-14 11,-9l25 6z"/>
   <path class="fil9" d="M18130 7402l17 -93c74,-22 184,-7 264,-5 50,18 30,11 46,55l-72 36c-32,8 -64,-20 -36,9l-69 -12 -31 64c-58,-24 -50,-38 -70,-83 -57,28 -12,-3 -49,29z"/>
   <path class="fil21" d="M2559 7989l-11 85 -50 8c2,52 9,22 -7,64 20,14 -23,36 34,0 -4,67 5,50 9,97 4,47 9,22 -16,54l10 51c-42,-34 -35,43 -35,-42l-64 -9c7,-6 98,-45 -8,-156 -4,5 -12,2 -14,9 -15,43 4,-5 -33,19l-7 -39c78,-35 10,29 89,-35 -21,-27 -38,-42 -57,-59l15 -67 12 76c5,-6 11,-11 16,-17 4,-6 9,-11 13,-17l21 -46 83 24z"/>
   <path class="fil39" d="M4328 11355c0,65 31,42 101,42l-23 71c-14,34 -12,30 -43,63 -26,-59 -12,-36 24,-75 -40,-7 -69,-12 -93,-22l-28 64c-7,-5 -9,-14 -10,-12 -1,3 -4,-8 -6,-10 -1,-3 -5,-9 -7,-11 -3,-4 -8,-10 -11,-12 -2,-4 -7,-9 -11,-13 0,43 6,-1 -23,20l-1 -27c-52,-16 14,-27 -71,10l16 -113c51,-2 32,-27 86,20 23,-44 -7,-30 49,-35 23,20 42,37 51,40z"/>
   <path class="fil40" d="M2851 7661c-46,45 8,-3 -49,29 -29,16 -18,15 -57,36 -30,-51 2,-14 -36,-31l-66 -39c50,-7 88,-43 135,-67 85,-44 88,-36 186,-34 -40,42 49,35 -45,35 3,1 7,1 9,1l65 33c-48,52 -10,39 -62,41 -63,3 -5,5 -40,-20l-40 16z"/>
   <path class="fil41" d="M11021 11565c-87,244 -32,70 -31,191 0,3 1,9 1,11 -1,3 -1,8 -3,11 -12,24 -20,18 -45,26 -35,-50 -15,19 -22,-71 -4,2 -10,1 -12,6l-32 17c-90,-2 -26,-13 -48,-39 42,-35 -21,-15 37,-28 47,-11 6,-9 45,11 -23,-95 -64,-26 -78,-20 -69,28 -55,-12 -57,-14 2,0 5,-4 5,-2l34 -23c40,-22 41,-14 107,-16 62,-1 12,-24 41,12l-8 -206c26,16 23,48 28,65l38 69z"/>
   <path class="fil28" d="M2528 8348c7,50 36,73 -3,106 -75,-47 -7,-46 -102,-51l44 95 -70 -4 -6 53 -16 32 0 -164c34,-7 55,-20 84,-34 -15,-107 -9,-82 -100,-117l15 -95c37,-24 18,24 33,-19 2,-7 10,-4 14,-9 106,111 15,150 8,156l64 9c0,85 -7,8 35,42z"/>
   <path class="fil41" d="M17175 11835c-38,37 -185,5 -229,2l-29 -70c-81,34 -50,46 -98,-18 53,-41 44,-5 55,-16l46 16c-10,-13 -2,-2 -20,-36l-29 -55 74 -4c11,-2 15,-20 55,-4 -37,69 -27,36 -34,120 70,-65 37,7 57,-80l3 82c50,10 38,-9 65,43l13 26c34,-5 49,-9 67,-16l4 10z"/>
   <path class="fil4" d="M2723 10217l47 72c1,2 2,7 3,10 3,36 -28,-8 23,70 -95,10 30,42 -34,85l-64 -17c13,24 18,17 -31,-2 34,-31 41,-26 45,-66 -58,-44 52,-9 -33,-14 -61,-4 -31,10 -39,15l21 -51c-3,-5 -8,-10 -11,-13 -2,-2 -7,-8 -9,-11l-15 -17c-1,-2 -3,-6 -3,-8 -1,-3 1,-30 2,-34 12,-105 70,-86 70,-86 2,56 -8,46 17,101l11 -34z"/>
   <path class="fil42" d="M2504 9278c-4,-33 -11,-24 6,-4 -59,-35 -63,-21 -71,-83 53,-27 15,28 30,-64l3 -20c1,-3 13,-20 19,-35l-63 -17c79,-91 -16,-102 115,-151 1,68 8,26 4,89l-13 180c-12,149 -5,77 -30,105z"/>
   <path class="fil43" d="M17145 11234l110 4c-3,-6 -6,-13 -8,-18 -2,-5 -5,-12 -7,-17 -2,-5 -4,-12 -6,-16 -1,-4 -3,-6 -4,-14 -1,-7 -3,-9 -4,-13 13,2 58,12 63,11l286 -25c-26,30 -56,24 -60,26l-7 40c-101,-5 -56,18 -101,-34 -14,60 2,7 -26,61 20,8 13,-1 34,14l40 35c-101,-15 -35,9 -108,-42 -3,5 -8,6 -9,13 -10,58 27,-49 -15,22l-6 15c-19,-19 -25,-35 -67,-40 -18,-1 -35,5 -46,4 -54,-6 -36,5 -59,-26z"/>
   <path class="fil44" d="M5489 11506c102,-11 149,-3 252,-12 -6,44 -13,28 7,55 -27,35 13,21 -45,33l18 38c-12,-7 -14,-14 -45,-20 -13,-2 -38,-1 -52,-1l-20 28c-15,37 -5,2 -14,50l-13 -28c-27,-39 -9,-15 -31,-39l1 25c6,-19 -24,-29 -33,-62 17,-23 -34,-11 43,-25 -4,-3 -9,-13 -12,-9l-56 -33z"/>
   <path class="fil16" d="M12096 7298l-27 41 52 34c34,-36 4,34 30,-36l21 -7c15,104 86,54 33,58 8,6 13,17 17,22l34 35c-66,8 -92,-2 -152,2 -93,5 -70,50 -130,17l-21 -10c55,-58 -19,-27 67,-49 -8,-40 -9,-30 51,-34 0,-25 -8,-17 -25,-35l-13 -33c5,-2 15,-13 17,-20 1,-7 5,-9 9,-13l42 13 -5 15z"/>
   <path class="fil45" d="M4193 11857c-49,21 -28,64 -195,33 -2,0 -50,-12 -52,-12l-21 -13c-2,-1 -8,-3 -9,-8 -2,-6 -6,-7 -9,-10l-27 12c-3,1 -8,4 -11,6 -47,23 32,-9 -30,15l-28 -49c39,-9 167,-15 175,8 29,-28 15,7 39,-53 184,69 165,-14 168,71z"/>
   <path class="fil16" d="M10478 11255l-74 5c-5,-1 -11,-5 -15,-6l-62 -10c4,-3 12,-6 14,-9 68,-103 20,40 15,-38 -1,-4 -26,-34 -29,-38l43 2c40,6 18,18 64,0 53,-22 14,4 41,-41l2 24 72 35c2,-7 9,-7 14,-10 13,61 25,28 60,110 -58,-12 -86,-31 -145,-24z"/>
   <path class="fil19" d="M14588 11182l28 -3 -28 111c109,-20 24,-12 58,20l-67 21c-23,7 -51,19 -70,18 -103,-5 -15,10 -52,-26 2,1 30,54 34,-78 2,-39 30,11 -30,-87l-53 -22c-4,-2 -9,-8 -14,-11l120 3 -6 48 80 6z"/>
   <path class="fil19" d="M14314 7336l-51 54c-8,9 -2,22 -54,31l43 8c0,30 -86,23 -111,24 0,-67 19,14 -40,-68 -2,-2 -5,-6 -8,-9l76 -8c-4,-79 34,-33 -43,-65 129,0 19,6 66,-30l143 -6 -61 58c20,17 -31,21 40,11z"/>
   <path class="fil24" d="M7720 11178c81,-22 98,-38 193,-39 -23,50 21,-80 -17,49l116 -10 -49 76c-66,-104 -64,-30 -124,-4 -29,13 -67,13 -111,12 -21,-56 -15,-21 -8,-84z"/>
   <path class="fil9" d="M4917 11462c-74,-10 -48,-16 -118,-20 -48,-4 -78,-6 -118,-7 -19,-65 8,-3 -50,-27l1 -60c111,20 96,25 132,-1l20 -20c19,22 27,36 61,37 56,0 0,-25 55,16l-39 51c111,0 14,-6 56,31z"/>
   <path class="fil46" d="M8873 7344l1 2c-5,3 -10,10 -11,12 -2,3 -8,21 -10,17 -2,-5 -3,16 -7,23l-219 -6c28,-59 59,-30 88,-26l16 -78c34,-63 6,-28 57,-74l-16 -2c35,51 -41,41 33,41 27,21 47,51 68,91z"/>
   <path class="fil9" d="M6880 11266l27 -31c15,27 -5,68 108,17l-23 29c-1,1 -3,7 -4,8l4 41c104,0 55,-14 88,44 -51,20 -76,8 -103,-17 -3,-3 -14,-11 -15,-19 -2,-5 -6,-6 -8,-9 -47,45 -73,65 -141,17 2,-27 -55,-29 67,-80z"/>
   <path class="fil47" d="M4775 7440l22 31c-36,24 -16,-2 -31,35 -104,-22 -87,-4 -118,40l-30 -33c-8,9 -18,24 -20,26 -29,22 -5,7 -35,18 -20,-37 -7,-7 -40,-24 94,-41 -39,-63 39,-45l-6 -77 104 16c-16,65 -24,6 4,26l55 -3c27,-28 44,42 14,-47l42 37z"/>
   <path class="fil48" d="M18068 11323l-87 11 28 -24c2,-2 8,-6 10,-7 2,-2 7,-5 10,-7 -51,-45 -42,-42 -115,-28 28,-51 13,-56 88,-56l-141 -9c0,-84 21,-25 49,-32 0,0 64,-2 70,-1 32,3 36,4 58,13l52 29c-3,3 -8,4 -9,11l-13 100z"/>
   <path class="fil49" d="M11346 7314l-11 37c12,18 19,37 33,50l18 15c3,2 9,4 11,6l24 12c-95,4 -10,-3 -47,23 -40,22 -84,26 -138,15l-107 -62c86,10 32,14 115,-10l68 -30 -17 -69 51 13z"/>
   <path class="fil17" d="M9634 7423l-54 12c37,-44 18,-7 16,-64 -54,0 -33,11 -40,-40 -6,3 -13,2 -15,9 -14,38 -17,10 -25,13 -14,5 7,4 -25,5l-24 -57c87,2 33,11 51,-32l78 -10c35,35 -56,57 68,15 0,4 2,6 3,11 0,5 3,8 4,10l24 43c1,4 2,11 2,16 -5,1 -13,-5 -16,1 -28,55 -2,-31 -66,16l19 52z"/>
   <path class="fil6" d="M2207 9443c22,-3 24,6 40,17 -48,45 66,108 -67,139 39,14 23,-7 32,34l-75 -22c2,-43 -3,-14 10,-41l35 -93c-17,-36 -22,-34 -28,-48 -39,-93 -3,-44 2,-54 0,0 94,-41 51,68z"/>
   <path class="fil46" d="M5970 11277c-10,9 10,21 -62,35l-13 72c-78,-12 -15,15 -77,-15 -87,-43 -41,37 -65,-17 -1,-5 -8,2 -13,2l49 -70c-59,23 -90,48 -136,-8 36,8 145,22 160,-17 2,-6 8,-6 13,-9 71,25 56,42 144,27z"/>
   <path class="fil50" d="M19769 7318l51 -4c-7,42 -8,45 -12,55 -22,31 8,19 -46,28 -26,5 -96,4 -152,-26 16,-41 -59,-34 28,-34l-9 -2c44,-35 14,4 33,-55 46,25 74,9 121,1 -12,19 -11,30 -14,37z"/>
   <path class="fil51" d="M7283 7267l126 1c27,23 -42,30 36,17l-20 -29 109 -7c71,49 50,-9 60,111l-39 -41c-3,-3 -8,-7 -12,-11 -6,2 -24,9 -27,10 -2,0 -15,9 -59,-13 14,58 19,35 2,64 -22,-28 -27,-40 -42,-76 -21,12 -57,55 -105,24 -40,-25 -21,-17 -29,-50z"/>
   <path class="fil7" d="M12127 11074c3,5 8,11 10,14l29 29c21,22 7,5 17,23l-13 46c-1,1 9,-11 -18,5 -38,22 -28,23 -38,34l4 0 -14 -73 -53 5 -10 -47 -70 32 -17 -52c-1,-6 -5,-7 -7,-11l103 -11 77 6z"/>
   <path class="fil49" d="M2699 7819c-10,19 -7,13 -26,36 -19,22 -18,17 -29,37 -27,48 10,50 -48,69 -100,65 -20,24 -53,-15 70,-26 34,2 84,-70 -56,20 -49,-24 -74,51 -42,-26 -45,-40 -113,-18l10 -48c-1,-24 -22,-28 9,-19 28,11 17,-27 17,34l49 -7c21,15 -27,26 20,11l43 -74c46,-12 33,11 45,-14l9 42c83,-46 33,-31 57,-15z"/>
   <path class="fil29" d="M12609 11157l-323 -39c3,-4 8,-8 11,-11 84,-68 94,-62 168,-35 10,4 67,25 81,32l52 41c2,-4 8,8 11,12z"/>
   <path class="fil52" d="M8586 11297l8 -17 209 -17c-26,57 37,33 102,33 -49,20 -75,47 -128,56 -4,0 -21,3 -25,2 -51,-7 -15,-23 -149,-22 -9,-47 -2,-18 -17,-35z"/>
   <path class="fil5" d="M2504 9278l9 5 -53 12 22 43c-15,22 -20,42 -25,54l18 74 -46 -8c-3,-25 21,-178 -70,-89l1 -72c40,2 12,11 32,-8 2,-2 5,-6 7,-9 16,-25 9,-42 7,-74l33 -15c8,62 12,48 71,83 -17,-20 -10,-29 -6,4z"/>
   <path class="fil46" d="M10644 11263c-30,9 -49,15 -89,13 -54,-3 -54,1 -77,-21 59,-7 87,12 145,24 -35,-82 -47,-49 -60,-110 -5,3 -12,3 -14,10l-72 -35c87,-2 33,9 51,-35l9 -2c9,53 -16,16 19,40 13,-22 28,22 2,-37 44,-5 77,-21 91,7l-42 11c5,0 14,-7 17,0l31 2c46,17 28,17 52,48 -31,17 -3,12 -51,18l-37 -1c13,69 -5,23 25,68z"/>
   <path class="fil19" d="M11532 7460l-158 -3c37,-26 -48,-19 47,-23l-24 -12c-2,-2 -8,-4 -11,-6l-18 -15c-14,-13 -21,-32 -33,-50l11 -37 43 -14 -8 30c88,-23 38,-36 107,7 -13,65 -23,60 -74,84 6,2 11,5 16,6 5,2 10,4 16,6 6,1 11,2 17,3 19,3 42,2 53,2l16 22z"/>
   <path class="fil19" d="M2596 7961c-17,41 6,33 -37,28l-83 -24 -21 46c-4,6 -9,11 -13,17 -5,6 -11,11 -16,17l-12 -76c-8,-16 46,-48 -38,1 3,-4 7,-15 9,-12 1,3 6,-9 8,-11l50 -76c1,-2 4,-6 7,-10l-10 48c68,-22 71,-8 113,18 25,-75 18,-31 74,-51 -50,72 -14,44 -84,70 33,39 -47,80 53,15z"/>
   <path class="fil53" d="M8393 11156l-88 10 -10 -62c86,15 53,-19 123,4 29,26 -46,27 40,21l-23 -32 110 -8 53 72c-75,-3 -82,5 -134,-18 18,72 27,29 5,61 -61,-96 -40,-79 -76,-48z"/>
   <path class="fil21" d="M2525 8454l2 62c-63,-29 -17,-12 -34,2 22,41 9,41 0,100l-102 -71 6 -53 70 4 -44 -95c95,5 27,4 102,51z"/>
   <path class="fil11" d="M14579 11331l67 -21 135 -12c29,22 -7,31 116,31 -1,1 -48,18 -51,20 -146,72 -93,6 -250,19 -11,-68 -5,-24 -17,-37z"/>
   <path class="fil54" d="M7024 11629l-5 36c46,27 34,6 51,50 -76,37 -12,-12 -138,-17 20,63 7,62 50,78 -45,7 -93,-1 -128,-25 29,-76 -7,-55 60,-36 -17,-31 -6,-21 -28,-50 43,-5 18,2 51,-12 70,-27 -19,-23 87,-24z"/>
   <path class="fil25" d="M2513 9502c31,60 28,70 29,143l-120 0c17,-148 -49,-93 3,-119l8 -52c20,18 26,-33 11,51 -4,26 1,7 -17,38l86 -61z"/>
   <path class="fil7" d="M15572 7468l-201 -7c41,-26 -64,-63 78,-11 -32,-31 -8,-28 -59,-38 57,-25 20,25 47,-58l-17 4c27,-23 20,-9 39,-46l0 23c3,3 7,7 8,8l11 56c31,-4 10,2 33,-9 6,-3 18,-3 22,-17 2,-6 8,-6 12,-10 3,67 36,67 36,66 2,-3 8,6 14,11l-23 28z"/>
   <path class="fil47" d="M14848 11127l-23 25c-43,48 -23,2 -37,66l-41 4c-4,-4 -8,-14 -10,-11l-44 -29c-44,-18 -1,31 -53,-21l14 -57 194 23z"/>
   <path class="fil55" d="M18602 11191c-107,-12 -225,-40 -322,-39 52,-50 93,-80 178,-51l144 90z"/>
   <path class="fil56" d="M5552 7579l-248 18 0 -50c71,22 97,41 120,-30 15,-46 2,-63 -26,-85 0,44 27,45 87,64 69,22 57,12 67,83z"/>
   <path class="fil51" d="M17729 7310c12,-15 155,-4 190,-8 -33,43 -2,18 -57,33 -1,0 -42,2 -43,2 0,0 90,24 9,49 -4,1 -9,1 -13,1 -3,1 -9,-1 -12,-1l-32 0c-67,3 -23,16 -86,-8 18,-54 10,-41 44,-68z"/>
   <path class="fil43" d="M15976 7315c1,48 -4,6 10,43l24 56c-55,-14 -47,-10 -95,-33l-54 74c-3,-41 -17,-40 -53,-84 56,1 30,20 59,-17 -21,-36 55,-45 -43,-24l7 -19c71,7 92,-11 145,4z"/>
   <path class="fil19" d="M15638 7387c-75,-52 -12,58 -6,69l-60 12 23 -28c-6,-5 -12,-14 -14,-11 0,1 -33,1 -36,-66 -4,4 -10,4 -12,10 -4,14 -16,14 -22,17 -23,11 -2,5 -33,9l-11 -56c-1,-1 -5,-5 -8,-8 91,3 34,11 54,-32l76 -10 12 40c9,34 4,29 37,54z"/>
   <path class="fil49" d="M14381 7351c62,83 -75,-70 36,31 30,28 30,-40 30,48l-195 -1 -43 -8c52,-9 46,-22 54,-31l51 -54 67 15z"/>
   <path class="fil49" d="M8024 7414l-214 10 -35 -64 78 -9 31 31c42,-76 -20,11 36,-36l27 -30c11,14 13,-23 12,55 37,5 50,30 52,27 3,-4 9,11 13,16z"/>
   <path class="fil36" d="M16626 7350c-6,89 -26,38 -58,105 -94,-59 -80,-34 -56,-84 -6,0 -37,1 -46,-2 -47,-19 -23,-8 -52,-32l196 -1 16 14z"/>
   <path class="fil51" d="M11739 7277c9,-13 158,-5 190,-8 -17,14 -10,19 -43,29 -23,8 -39,5 -62,5 38,38 13,3 35,54 -151,-16 -99,15 -167,-13 19,-51 12,-41 47,-67z"/>
   <path class="fil51" d="M16978 7443l-76 -6c7,-67 -20,-34 49,-69l32 -15c48,-10 17,11 37,-17l35 85c36,12 32,-21 41,27 -64,16 -52,1 -118,-5z"/>
   <path class="fil57" d="M13031 11934c-65,-19 -145,-11 -202,0 -1,-93 -14,-48 45,-69 40,-15 57,-19 89,-28 13,20 57,75 68,97z"/>
   <path class="fil58" d="M9377 7245l-15 63 -65 -1c16,22 34,-26 16,43 -22,84 0,15 -37,33l-17 -63 -55 -45 18 -24 43 4c5,37 -13,12 15,28l25 -53c29,28 15,10 72,15z"/>
   <path class="fil59" d="M20173 8054l13 58c-24,32 -13,17 -20,67l-32 45c-3,-5 -9,-16 -10,-13l-24 -32 3 -57c-44,-5 -21,9 -30,-27 6,1 21,3 44,12 -16,-71 -11,-55 -5,-112 1,4 1,10 3,12 32,58 -3,30 58,47z"/>
   <path class="fil60" d="M20622 10517l-34 4c26,-112 28,-97 32,-217l37 9 20 196 -55 8z"/>
   <path class="fil15" d="M17323 7349c1,62 -14,65 23,101 5,6 12,7 34,12 60,14 8,-4 10,-7 -83,2 5,-13 -34,35 2,28 -100,20 -118,15l-59 -41c14,-1 75,-1 79,-1 53,-9 16,-2 48,-25 -38,10 -120,49 -120,-4l28 3 99 -2 -21 -100 31 14z"/>
   <path class="fil30" d="M20190 8741l6 51c-96,13 103,19 -57,77 -4,1 -18,6 -23,9 -1,-47 6,-52 -29,-75l17 -87c59,18 10,-16 57,42 0,-28 -5,-17 29,-17z"/>
   <path class="fil53" d="M10977 7377l-56 20c-8,-28 -31,4 9,-40l40 -25c3,-1 8,-5 10,-6 2,-1 6,-4 9,-6l38 -19 55 56 21 48c-73,37 -95,-21 -126,-28z"/>
   <path class="fil34" d="M2961 10934c-63,34 6,-6 -42,33 -71,-66 1,-33 -83,-41l5 -125c62,19 48,7 52,65 31,-6 44,-9 50,-8 3,42 6,48 18,76z"/>
   <path class="fil49" d="M8967 11247c-77,26 -76,31 -164,16l-3 -52c1,-3 4,-9 5,-14l60 -7c7,20 -8,8 15,40 92,-25 -21,-2 30,-35 23,-15 16,6 60,-40l-3 92z"/>
   <path class="fil21" d="M17648 11304l-79 -14c-1,1 -5,4 -8,6 -57,-47 -44,-17 -53,-84 68,-12 69,13 85,26l33 -77c54,0 36,-9 18,51 -6,17 -23,-28 -5,33l9 59z"/>
   <path class="fil56" d="M2518 8642l-94 8 -7 -54c-38,14 5,-5 -42,38l0 -55 16 -32 102 71c9,-59 22,-59 0,-100 17,-14 -29,-31 34,-2 42,9 2,105 -9,126z"/>
   <path class="fil48" d="M19610 7371c34,68 -3,11 -79,21 -130,17 -9,10 -87,43 -27,-39 -21,-30 2,-53 3,-2 9,-7 13,-11 -133,0 -14,10 -66,-51 52,4 26,2 67,10 5,1 9,2 15,3 5,1 9,2 14,3l121 35z"/>
   <path class="fil36" d="M5172 7420c46,-9 96,-4 134,-8l7 75c-5,8 -5,3 -18,29 -5,0 -20,-4 -24,-4l-31 -2c-2,0 -7,0 -8,1l-15 1c-22,-45 -26,-57 -45,-92z"/>
   <path class="fil53" d="M12104 11152l-14 55c-55,13 10,-18 -53,38 -48,-23 -24,-21 -42,-17l-74 3c21,-35 -15,-15 38,-49 20,-13 24,-7 47,-12l-2 -44 47 31 53 -5z"/>
   <path class="fil61" d="M16528 11145l-135 92c-1,-4 -10,-24 -15,-36 -19,-45 -20,12 -16,-71 65,-16 113,4 166,15z"/>
   <path class="fil62" d="M18737 7338c-38,-7 -55,10 -86,19 5,-39 -4,-33 -48,-38 25,-55 10,-31 82,-30 41,0 59,2 102,-1 1,-1 32,-28 39,-35 -7,18 -19,34 -22,42 -15,38 -7,-6 -6,24 1,21 65,-32 -8,33l-53 -14z"/>
   <path class="fil54" d="M15553 11683c-29,19 33,13 -64,15 10,42 16,38 19,87 -74,-2 -59,14 -105,-3 45,-80 -17,-26 64,-59 -17,-32 -3,-40 8,-85 68,15 39,-9 78,45z"/>
   <path class="fil40" d="M10994 11121c-9,43 -15,6 2,44l30 40c-79,11 -51,2 -66,-1 -6,-1 -30,-22 -34,-26 0,39 -12,33 17,35 -16,2 -60,27 -57,-27 0,-3 1,-9 1,-12l5 -49c60,-15 46,-24 102,-4z"/>
   <path class="fil63" d="M19898 7788c-51,-27 -43,-16 -72,-64 -2,-3 -3,-9 -4,-12l-45 -45c-2,-2 -7,-6 -10,-10l77 13c36,31 21,28 71,37 14,-29 16,16 16,-47 0,-51 6,-5 -23,-42l74 17 -22 64c-21,9 -60,14 -71,46 -8,24 -57,-45 9,43z"/>
   <path class="fil64" d="M12744 7302l-34 -11c-12,20 -21,31 -8,53l-24 -3 -18 -44 -67 -19 32 -26 170 4 38 -37 -20 50c-76,14 -79,-6 -104,21l102 -23c-32,79 -32,31 -67,35z"/>
   <path class="fil65" d="M14603 11801c-22,32 0,12 -21,20l-121 77 -38 -94c76,-5 47,15 93,-2 69,-24 -29,-9 33,-17 91,-12 44,10 54,16z"/>
   <path class="fil47" d="M8685 7229l-19 37c-16,19 6,3 -29,23 -35,-28 8,22 -26,-24 -25,-33 5,7 -24,-38 -44,69 -9,80 -84,109 -4,-77 -7,-48 33,-117l-34 -2c41,-4 41,-2 81,2 35,4 56,4 102,10z"/>
   <path class="fil36" d="M5056 11283l-31 -4c-62,74 -40,41 -125,34l34 -86 75 0c1,1 22,21 22,21 30,35 4,3 25,35z"/>
   <path class="fil57" d="M15179 11700c-36,27 -61,34 -116,34 12,30 17,36 31,57 -25,15 -24,15 -37,39 -22,-53 -23,-41 -55,-77 44,-46 97,-107 177,-53z"/>
   <path class="fil51" d="M16888 11158l45 -16c27,60 21,10 80,86 -31,21 52,24 -47,22 -46,-1 -26,-18 -27,-22 -8,5 -69,67 -56,-37 1,-4 2,-12 3,-16 1,-4 2,-11 2,-17z"/>
   <path class="fil54" d="M7034 11885c-30,18 -181,9 -198,0l134 -82c27,37 30,49 64,82z"/>
   <path class="fil39" d="M3406 11595l-12 -1 39 -68c2,-3 8,-5 10,-12 1,-8 6,-9 9,-13 34,29 40,-46 32,38 -21,-128 -10,-31 19,-66l8 61c3,27 -4,0 15,44l-91 23c-20,1 -10,-1 -29,-6z"/>
   <path class="fil66" d="M10528 11109c-18,44 36,33 -51,35l-2 -24c-27,45 12,19 -41,41 -46,18 -24,6 -64,0l9 -74c56,-6 105,12 149,22z"/>
   <path class="fil12" d="M8220 11159l26 49c-6,0 -1,-13 -58,-6 -2,0 -34,13 -41,15l22 -29c-60,-16 -28,13 -54,-27 -28,0 -17,5 -13,-29 60,-19 6,6 64,-25l50 -13c-39,114 -19,42 4,65z"/>
   <path class="fil53" d="M14985 11108l-69 53c67,0 8,-4 36,21 -28,28 -43,43 -93,61 -4,-87 -35,-55 40,-82 -42,-56 15,-12 -49,-37 60,-29 54,-17 126,-8l9 -8z"/>
   <path class="fil67" d="M14381 7351l-67 -15c-71,10 -20,6 -40,-11l61 -58 42 -23 39 76c-16,36 1,23 -35,31z"/>
   <path class="fil10" d="M2439 9191l-33 15c2,32 9,49 -7,74 -2,3 -5,7 -7,9 -20,19 8,10 -32,8 -43,-10 -15,-48 2,-73 74,-99 -32,-47 63,-94 24,29 45,-48 14,61z"/>
   <path class="fil48" d="M9344 11068l31 1 35 -10c9,75 23,22 17,100 -77,-18 -63,-11 -135,-15l41 -60c2,-10 7,-11 11,-16z"/>
   <path class="fil66" d="M15513 7303c-20,43 37,35 -54,32l0 -23c-19,37 -12,23 -39,46l-62 -10 1 -68c58,-6 108,12 154,23z"/>
   <path class="fil66" d="M9518 7269c-18,43 36,34 -51,32l0 -24c-21,40 -9,26 -50,44l-39 0 -16 -13 15 -63c47,-4 101,15 141,24z"/>
   <path class="fil68" d="M12862 11482l93 -4c-3,64 -35,11 18,54l-59 -5c16,38 16,27 8,69l-54 -6c-17,-75 12,-37 -6,-108z"/>
   <path class="fil7" d="M4384 7594l-145 18c8,-34 14,-53 24,-81 34,6 31,2 66,17 66,28 77,-30 55,46z"/>
   <path class="fil14" d="M12118 11225c-29,47 -19,18 -41,62l-107 11 34 -52c-15,4 -13,-2 -9,-18 18,-4 -6,-6 42,17 63,-56 -2,-25 53,-38l14 -55 14 73z"/>
   <path class="fil69" d="M2367 8130l9 -160c84,-49 30,-17 38,-1l-15 67c19,17 36,32 57,59 -79,64 -11,0 -89,35z"/>
   <path class="fil20" d="M4101 11330l-5 50c0,-2 -13,-16 -17,-18l-68 -7c-45,-36 -25,-11 -47,-59l40 -12c78,8 31,29 99,18l-2 28z"/>
   <path class="fil47" d="M4353 7421l151 -10 -1 61c-9,5 -8,-12 -10,8l34 26 -91 15 -4 -66 42 -5c-62,-30 -60,-11 -121,-29z"/>
   <path class="fil70" d="M16142 7319l82 -2c2,5 5,7 6,15 5,41 26,1 17,56l-101 18 -4 -87z"/>
   <path class="fil70" d="M11163 11125l73 -2c2,6 6,13 8,17l18 30c-13,30 32,38 -100,38l1 -83z"/>
   <path class="fil67" d="M15343 11108l44 -23c4,106 -5,25 51,76 -28,31 -9,26 -55,21 -56,-6 -33,-9 -102,2 35,-54 7,-56 80,-49l-18 -27z"/>
   <path class="fil30" d="M13988 11391c-20,19 15,7 -43,30 -27,10 -51,12 -78,16 26,-60 -17,-32 56,-54 -15,-23 -26,-28 -27,-70 28,-18 -13,-23 92,-14l-41 38c-31,34 -19,12 -15,68l56 -14z"/>
   <path class="fil48" d="M8340 7234l44 -23c5,98 -29,26 55,71 -59,66 -12,0 -159,29 33,-64 -3,-46 79,-51l-19 -26z"/>
   <path class="fil71" d="M12458 7270c0,58 22,33 84,33 17,61 9,63 67,102 -135,0 -14,-7 -67,34l-34 -6c-38,-34 48,-28 -43,-28 40,-67 50,-7 64,-112 -93,11 -67,-5 -105,-26l34 3z"/>
   <path class="fil47" d="M15622 11104c21,33 -36,43 49,31l-28 26c-2,2 -9,7 -14,10l-38 -70 -70 111c-37,-58 -20,-57 17,-118l-33 -5 117 15z"/>
   <path class="fil72" d="M19951 7461l32 28 -4 56c-48,-18 -57,-10 -104,-54 -35,-33 9,21 -27,-36l103 6z"/>
   <path class="fil73" d="M20377 10748c-14,-61 -4,-55 12,-109 33,-15 24,15 48,-34l19 51c-45,27 -16,-24 -41,65 -11,38 -7,46 -27,78l-11 -51z"/>
   <path class="fil49" d="M9973 11234l-117 4c3,-6 5,-13 8,-17l18 -28c31,-33 23,2 68,-49l20 45c2,4 9,19 12,16 2,-4 9,11 13,16l-22 13z"/>
   <path class="fil49" d="M8960 7394l-114 4c4,-7 5,-28 7,-23 2,4 8,-14 10,-17 1,-2 6,-9 11,-12l-1 -2c63,-23 24,-2 43,-30l22 21c4,2 11,5 14,7l31 8c-2,3 -7,31 -23,44z"/>
   <path class="fil74" d="M6601 7285c22,29 12,20 25,67 -66,-7 -20,-7 -88,5l-35 -63c18,-33 0,-13 35,-13 9,-1 45,4 63,4z"/>
   <path class="fil75" d="M17145 11234l9 -76 72 2c1,4 3,6 4,13 1,8 3,10 4,14 2,4 4,11 6,16 2,5 5,12 7,17 2,5 5,12 8,18l-110 -4z"/>
   <path class="fil76" d="M20390 11120c-20,-19 15,-10 -47,-44l20 -19c1,-2 7,-7 9,-9 1,-2 6,-7 7,-9 49,-53 58,21 58,21 34,-41 11,-18 37,-40 -19,74 1,9 -27,52 -4,6 -24,37 -27,43l-30 5z"/>
   <path class="fil61" d="M4011 11355l-73 27c-2,-4 -5,-14 -5,-11l-9 -29c-9,-25 -11,-24 -24,-43 132,-32 -111,39 43,-17 41,-15 35,-25 61,2l-40 12c22,48 2,23 47,59z"/>
   <path class="fil7" d="M5381 11295c8,-8 -15,-22 41,-14 43,37 -65,30 78,32l-64 11c-4,59 -20,38 17,60 -4,3 -11,1 -14,8 -3,7 -11,6 -15,8 -3,1 -27,14 -31,17 0,-33 8,-12 -5,-39l-7 -83z"/>
   <path class="fil77" d="M16229 7501l-102 -13 -18 -39c65,7 75,-21 158,4 -2,0 0,-13 -10,4 -25,42 -12,-20 4,11 -62,9 -2,1 -32,33z"/>
   <path class="fil77" d="M11246 11307l-103 -12c-20,-93 -20,4 52,-57 30,12 60,20 87,33 -33,9 -18,19 -36,36z"/>
   <path class="fil78" d="M18116 11364l-24 8 -24 -49c14,-50 14,-48 63,-65l24 72c-35,23 50,60 -56,8 0,30 -9,23 17,26z"/>
   <path class="fil53" d="M18130 7402l-64 3c-1,-40 3,-32 9,-53 11,-39 16,8 5,-42l67 -1 -17 93z"/>
   <path class="fil78" d="M12189 11323l-84 21c-13,-26 -19,-40 -28,-57 22,-44 12,-15 41,-62l-4 0c49,62 16,69 75,98z"/>
   <path class="fil37" d="M9154 11592c54,-31 4,-51 72,-84 32,43 24,-42 23,42 -1,79 -67,54 -95,42z"/>
   <path class="fil79" d="M15451 11266l-61 8 -63 8c10,-31 -16,-53 65,-62 54,-5 48,18 59,46z"/>
   <path class="fil58" d="M3187 10757l-45 41c-27,-59 -20,-43 -84,-51 37,-38 14,-2 32,-64l87 66c3,1 7,5 10,8z"/>
   <path class="fil80" d="M2511 9471l-36 -5 -18 -74c5,-12 10,-32 25,-54l28 12 1 121z"/>
   <path class="fil70" d="M12046 7336c-47,10 -34,47 -92,-23l-1 -1c1,-1 3,-6 3,-7 1,-1 5,-9 6,-10 1,-3 5,-9 7,-14l90 -11c-4,4 -8,6 -9,13 -2,7 -12,18 -17,20l13 33z"/>
   <path class="fil64" d="M17961 7313l89 -9 -37 81 -67 -14c4,-15 10,-44 15,-58z"/>
   <path class="fil21" d="M15791 11088l-17 -1c58,78 45,27 67,141 -7,-2 -17,-14 -22,-8l-72 -69 44 -63z"/>
   <path class="fil30" d="M18651 7357c31,-9 48,-26 86,-19l31 48c-120,58 97,-19 -50,12 -39,9 -22,-7 -49,17l-18 -58z"/>
   <path class="fil72" d="M13994 7465c-4,53 3,33 -32,42 -65,-25 -53,-31 -90,-86l74 4c7,34 -26,30 10,30 0,31 -5,18 38,10z"/>
   <path class="fil81" d="M14859 11243c-46,-53 -23,-41 -71,-25 14,-64 -6,-18 37,-66l23 -25 2 -3c64,25 7,-19 49,37 -75,27 -44,-5 -40,82z"/>
   <path class="fil75" d="M10157 7284l71 3 24 77 -95 -28c-2,-23 -2,-27 0,-52z"/>
   <path class="fil17" d="M12678 7341l24 3c-13,-22 -4,-33 8,-53l34 11 36 50 -37 13c-4,0 -28,2 -34,3 -48,10 -12,-9 -48,19l17 -46z"/>
   <path class="fil56" d="M15958 11267l-110 3 52 -52c27,-18 -1,8 42,-25 15,46 -15,25 36,37 -11,13 -9,26 -20,37z"/>
   <path class="fil82" d="M14954 7427l-115 4c19,-27 -1,-12 38,-50 25,-25 -32,28 18,-14 1,-1 7,-2 8,-7 2,-5 6,-5 9,-8 10,14 49,-28 3,47 72,-7 17,-10 39,28z"/>
   <path class="fil83" d="M3189 7481c7,-27 -3,-3 20,-16l11 107 -74 -16c-2,-5 -7,-5 -10,-7l53 -68z"/>
   <path class="fil80" d="M9455 11232l-60 8 -57 7c13,-52 -49,-27 41,-53 33,-9 34,1 63,6l13 32z"/>
   <path class="fil21" d="M16801 11145l25 11c-11,82 -17,98 -93,71l68 -82z"/>
   <path class="fil53" d="M12096 7298c103,-26 35,-20 55,39 -26,70 4,0 -30,36l-52 -34 27 -41z"/>
   <path class="fil84" d="M9439 11496l-139 76c-1,-30 -8,-37 11,-56 43,-42 46,-5 64,20 1,-8 -12,-73 64,-40z"/>
   <path class="fil53" d="M3023 7532l31 -31 55 64c-1,4 -4,9 -5,13 -10,27 -2,-13 -9,42l-54 -60c-10,-13 -14,-20 -18,-28z"/>
   <path class="fil85" d="M11381 11309l-51 1c-3,-12 -56,-58 49,-69 26,42 12,-10 9,43 -2,54 -6,20 -7,25z"/>
   <path class="fil51" d="M15824 7330c-25,48 -31,63 -79,72 26,-148 48,-86 79,-72z"/>
   <path class="fil30" d="M2511 9471l2 31 -86 61c18,-31 13,-12 17,-38 15,-84 9,-33 -11,-51l-4 -16 46 8 36 5z"/>
   <path class="fil51" d="M17214 7437l-28 -3c-56,-14 -39,-3 -71,-48 44,-20 7,-31 60,-6 40,18 31,26 39,57z"/>
   <path class="fil34" d="M5295 11547l76 -45 -20 29c34,20 32,8 53,51 -82,9 -58,-2 -109,-35z"/>
   <path class="fil53" d="M16695 11191c-6,28 -8,28 -25,51 -82,-46 -45,-2 -57,-64 42,-13 49,-12 82,13z"/>
   <path class="fil86" d="M20103 9055l-5 34c-38,-25 -31,32 -32,-31l-32 -70c103,36 62,-31 69,67z"/>
   <path class="fil62" d="M14588 11182l-80 -6 6 -48 92 -23c-30,38 -11,34 -77,38 60,14 32,7 59,39z"/>
   <path class="fil17" d="M12811 11185l11 105c24,-22 21,44 12,-63 -61,36 3,28 -101,27l18 -63 76 -17 -16 11z"/>
   <path class="fil87" d="M2525 8146c-57,36 -14,14 -34,0 16,-42 9,-12 7,-64l50 -8 11 55c-27,19 -3,6 -34,17z"/>
   <path class="fil9" d="M5052 11409c-76,15 -40,-8 -102,14 25,-51 39,-55 82,-71l20 57z"/>
   <path class="fil75" d="M12256 11130l-9 -2 -32 14c-12,2 8,4 -32,-2 -10,-18 4,-1 -17,-23l-29 -29c-2,-3 -7,-9 -10,-14 53,11 94,22 129,56z"/>
   <path class="fil5" d="M4660 7427c6,-35 28,-23 73,-24 30,89 13,19 -14,47l-55 3c-28,-20 -20,39 -4,-26z"/>
   <path class="fil53" d="M15638 7387c-33,-25 -28,-20 -37,-54 53,-4 65,-5 89,39 -38,29 -2,11 -52,15z"/>
   <path class="fil88" d="M20506 9787l-89 18c28,-66 14,-45 69,-70l20 52z"/>
   <path class="fil89" d="M6263 11409c-43,-69 -8,-79 62,-82l-55 74c-1,1 -4,5 -7,8z"/>
   <path class="fil53" d="M2525 7869l8 -60c43,-21 7,-21 55,-3l-43 74c-47,15 1,4 -20,-11z"/>
   <path class="fil40" d="M6280 7375c-32,-16 -29,-15 -46,-40 60,-28 -1,-10 68,-29 -1,39 14,-15 -2,31 -12,33 -7,20 -20,38z"/>
   <path class="fil62" d="M5166 11487c-17,0 -49,10 -53,10 -55,-3 -16,33 -47,-25l36 18 39 -66 25 63z"/>
   <path class="fil90" d="M9499 7809c-39,12 -63,4 -92,-39 108,-4 69,22 92,39z"/>
   <path class="fil91" d="M3197 11064l-51 -3 -13 -33c46,-9 20,7 61,-30l3 66z"/>
   <path class="fil36" d="M20504 10825l-66 -22c2,2 14,-10 17,-13l17 -19c5,-6 13,-17 25,-25l7 79z"/>
   <path class="fil36" d="M9378 7321l39 0c13,21 46,-24 8,25 -30,37 -13,15 -56,30l9 -55z"/>
   <polygon class="fil72" points="2800,7784 2810,7740 2864,7733 2852,7781 "/>
   <path class="fil40" d="M6553 11403l15 -65c11,-1 17,-9 20,-5l28 30c-37,28 -18,16 -63,40z"/>
   <path class="fil92" d="M20294 9791l-40 -61c-2,-4 -11,-13 -15,-18l16 -20c3,3 8,4 9,10 1,5 7,7 8,9 2,1 7,6 8,7 1,1 6,5 8,6 1,1 4,4 7,5l-1 62z"/>
   <path class="fil93" d="M19814 8348l-16 -16c18,-47 -14,-14 34,-44l15 61c-23,24 20,15 -33,-1z"/>
   <polygon class="fil94" points="12746,11488 12703,11496 12713,11442 12748,11437 "/>
   <path class="fil62" d="M5622 8615c-60,-106 -7,-53 2,-63 31,41 36,25 -2,63z"/>
   <path class="fil95" d="M2348 8681l5 -49c53,18 29,2 52,36 -33,27 14,12 -57,13z"/>
   <path class="fil79" d="M20399 9409l-40 23c-15,-121 -3,-35 20,-65l20 42z"/>
   <path class="fil72" d="M2510 9350l-28 -12 -22 -43 53 -12c-2,33 7,27 -23,27 11,10 13,27 20,40z"/>
   <path class="fil96" d="M8233 11106c8,50 13,36 -13,53 -23,-23 -43,49 -4,-65l-50 13c45,-21 18,-16 67,-1z"/>
   <path class="fil66" d="M17262 7409c-5,-4 -14,-13 -16,-8 -2,4 -9,-5 -24,-16 40,-48 -4,-15 56,-31l-16 55z"/>
   <path class="fil72" d="M16308 11162l5 -63 49 31 -45 28c-2,1 -6,3 -9,4z"/>
   <polygon class="fil97" points="15779,11899 15795,11856 15823,11859 15833,11891 "/>
   <path class="fil98" d="M20484 11011l-14 -66 36 28c7,71 3,10 -22,38z"/>
   <path class="fil75" d="M19455 7272c5,1 35,-1 39,1 4,1 12,4 16,5 3,1 9,4 13,7 -28,27 10,27 -37,12 -29,-9 -24,-18 -31,-25z"/>
   <path class="fil97" d="M13464 7238c5,0 34,-1 38,0 4,1 11,4 15,6 4,1 9,5 13,9 -26,21 4,22 -35,9 -10,-3 -25,-18 -31,-24z"/>
   <path class="fil99" d="M2368 10292c27,-46 -5,-28 28,-37 60,-17 7,-4 27,13l-55 24z"/>
   <path class="fil97" d="M9831 11816c-8,53 12,25 -43,44 32,-57 -4,-17 43,-44z"/>
   <path class="fil100" d="M20472 11129c-21,-29 -18,-27 -3,-53 23,36 34,2 3,53z"/>
   <path class="fil101" d="M10537 11107l21 3c26,59 11,15 -2,37 -35,-24 -10,13 -19,-40z"/>
   <path class="fil102" d="M9265 7255l40 -25 -25 53c-28,-16 -10,9 -15,-28z"/>
   <path class="fil103" d="M14105 11336c29,-58 -6,-33 58,-41l-58 41z"/>
   <path class="fil73" d="M8418 11108l17 -11 23 32c-86,6 -11,5 -40,-21z"/>
   <path class="fil73" d="M7409 7268l16 -12 20 29c-78,13 -9,6 -36,-17z"/>
   <path class="fil104" d="M14460 11093c13,-42 -3,-19 37,-35 -28,48 -23,22 -37,35z"/>
   <path class="fil101" d="M19769 7318c-12,35 34,8 -10,23 -19,6 -24,-1 -29,-4l39 -19z"/>
  </g>
 </g>
</svg>
