<?xml version="1.0" encoding="UTF-8"?>
<!DOCTYPE svg PUBLIC "-//W3C//DTD SVG 1.1//EN" "http://www.w3.org/Graphics/SVG/1.1/DTD/svg11.dtd">
<!-- Creator: CorelDRAW X8 -->
<svg xmlns="http://www.w3.org/2000/svg" xml:space="preserve" width="210mm" height="297mm" version="1.1" style="shape-rendering:geometricPrecision; text-rendering:geometricPrecision; image-rendering:optimizeQuality; fill-rule:evenodd; clip-rule:evenodd"
viewBox="0 0 21000 29700"
 xmlns:xlink="http://www.w3.org/1999/xlink">
 <defs>
  <style type="text/css">
   <![CDATA[
    .fil55 {fill:#1A2633}
    .fil64 {fill:#271A27}
    .fil30 {fill:#281719}
    .fil56 {fill:#2A2946}
    .fil27 {fill:#2B2736}
    .fil57 {fill:#2C1935}
    .fil46 {fill:#361818}
    .fil39 {fill:#361B27}
    .fil38 {fill:#362736}
    .fil11 {fill:#372729}
    .fil44 {fill:#382B45}
    .fil10 {fill:#3B333B}
    .fil3 {fill:#43333C}
    .fil4 {fill:#443443}
    .fil20 {fill:#443A44}
    .fil32 {fill:#452B36}
    .fil7 {fill:#4B3B44}
    .fil5 {fill:#4C3C4A}
    .fil9 {fill:#544453}
    .fil16 {fill:#553A48}
    .fil17 {fill:#573C55}
    .fil35 {fill:#584A64}
    .fil45 {fill:#594649}
    .fil15 {fill:#594857}
    .fil33 {fill:#595459}
    .fil36 {fill:#654957}
    .fil40 {fill:#654B64}
    .fil29 {fill:#67555A}
    .fil23 {fill:#685766}
    .fil48 {fill:#686676}
    .fil59 {fill:#706C71}
    .fil47 {fill:#71718B}
    .fil34 {fill:#755967}
    .fil62 {fill:#778595}
    .fil41 {fill:#78656A}
    .fil58 {fill:#786876}
    .fil37 {fill:#877579}
    .fil53 {fill:#8B7788}
    .fil31 {fill:#8C6D70}
    .fil50 {fill:#928992}
    .fil65 {fill:#9293AB}
    .fil63 {fill:#99A6B2}
    .fil60 {fill:#99ABCC}
    .fil49 {fill:#A3788B}
    .fil51 {fill:#A79998}
    .fil61 {fill:#AD908E}
    .fil52 {fill:#ADA9B2}
    .fil28 {fill:#B8AAA6}
    .fil25 {fill:#BAB6B8}
    .fil21 {fill:#BBB3AA}
    .fil54 {fill:#C6BBC5}
    .fil18 {fill:#C7BAB6}
    .fil24 {fill:#CAC3B7}
    .fil14 {fill:#CBC6C6}
    .fil43 {fill:#CDC3BB}
    .fil6 {fill:#D2C5BD}
    .fil19 {fill:#D4CABE}
    .fil8 {fill:#D5CBC3}
    .fil12 {fill:#D9CEC6}
    .fil26 {fill:#DACDC4}
    .fil13 {fill:#E4DCDA}
    .fil1 {fill:#E5DBD5}
    .fil22 {fill:#EAE5E1}
    .fil42 {fill:#F1E6DD}
    .fil2 {fill:#F1EDE9}
    .fil0 {fill:#FEFEFE}
   ]]>
  </style>
 </defs>
 <g id="Ebene_x0020_1">
  <metadata id="CorelCorpID_0Corel-Layer"/>
  <g id="_1565600296816">
   <path class="fil0" d="M11779 5116c-165,4 -217,-43 -351,-26 -60,8 -97,26 -175,23 -105,-5 -140,31 -112,-49l-133 27c-317,56 -526,21 -650,38 -112,16 -600,55 -626,134l115 17 -25 15c522,98 254,-140 599,-73 45,9 41,11 82,61l108 -5 72 -35c55,65 56,44 85,63 61,41 33,5 76,70 -9,28 0,176 -265,122 -47,36 -27,53 -209,81 -110,16 -107,20 -210,47 -157,42 -318,-1 -480,12 -70,91 20,10 -54,65 -48,34 -12,13 -76,33 -4,1 -112,20 -136,25 -136,28 -374,145 -544,178 -162,31 -49,66 -299,78 -120,120 -177,93 -286,155 -196,112 -116,93 -354,149 -17,21 -11,32 -64,57 -68,32 -43,12 -84,13l-96 98 -11 86c-214,42 -119,86 -264,165 -95,52 -169,50 -265,119 -222,105 -53,95 -267,171l-34 162c-186,32 -75,24 -295,156l-82 49c-1,1 -58,53 -61,57l-51 92 -125 29c-97,186 -76,93 -207,230 -157,162 -341,517 -382,568l-145 185c-39,114 -146,261 -236,307 -31,209 -178,406 -275,618 -110,239 -7,127 -189,466l-298 745c-58,228 -12,518 -65,772 15,258 1,254 -51,473 -25,106 -55,194 -66,304 -17,114 -28,152 -52,244 -17,62 -9,66 -42,134 -60,124 -2,23 -61,80 30,309 -49,292 -65,566 -6,102 -3,222 -5,328 -3,172 21,120 41,271 -11,110 7,175 -53,243 39,249 -12,274 5,500 -2,141 38,100 13,272 87,33 55,49 80,153l11 23 68 108c113,197 49,1 108,295 9,5 21,4 25,16l331 394c4,6 10,14 14,20 35,51 1,53 87,143 96,101 71,29 103,177 130,15 51,-6 78,52 168,123 157,208 262,311 99,96 66,9 82,133 161,77 64,-2 168,142 52,72 108,103 165,148 6,6 15,7 17,19 3,12 14,15 17,20 38,62 12,16 37,73 96,60 79,55 113,168 112,46 56,49 157,109 93,55 115,43 181,115l95 103c133,132 87,65 227,152l95 -11c85,94 44,2 117,134 8,25 24,80 32,101l9 -31 155 -7 92 169 17 32c183,54 137,24 185,99 3,5 9,15 13,20 4,6 11,15 14,21 5,7 25,32 31,41l42 -14c81,62 49,35 121,76 73,42 55,24 97,82l-10 10c115,41 71,-18 105,103 122,-36 119,-63 188,23l74 33 120 123c84,65 103,41 212,13l6 196 -6 66c49,16 36,-1 80,19 85,39 33,2 99,74 38,-61 79,28 154,69 137,75 120,-6 184,140l82 -11 229 130c128,59 324,119 482,177 134,49 300,64 500,71 126,28 83,4 173,77l154 -17c19,2 83,0 83,0 76,7 32,-5 78,26 145,-16 528,47 636,43l579 -26 753 -54 1429 -338 646 -252c128,-58 461,-204 607,-199l62 -134 159 -1c68,-143 182,-181 338,-159 66,-152 280,-281 443,-319 19,-96 27,-93 83,-142 93,-83 18,55 95,-108 62,-40 117,-93 200,-149 84,-55 130,-131 216,-186 23,-75 30,-77 87,-144 241,-317 91,-94 273,-212 40,-126 -7,-84 74,-114l90 -87c40,-172 53,-99 126,-196 79,-103 23,-100 147,-191 55,-128 -9,-76 89,-108 94,-62 -11,45 42,-46 30,-51 -17,2 30,-64 26,-37 73,-64 111,-92 14,-272 334,-497 323,-756 61,-52 130,-54 118,-328 121,-131 47,-43 117,-181l47 -86c1,-2 28,-123 30,-135 37,-158 35,-104 76,-222l77 -398c6,-100 27,-58 40,-132 18,-102 -23,-28 6,-154 8,-31 95,-125 23,-394 158,-131 77,-202 76,-198l-9 -97 14 -98c-52,-142 -48,-1043 -70,-1140 -12,-55 -43,-5 -28,-140l-52 -30c17,-136 -52,-293 -82,-455 -59,-182 22,-9 -3,-160 -4,-21 -45,-114 -62,-170 -45,-146 -87,-187 -119,-354l-38 -90 -36 -79c-21,-33 -6,24 -33,-70 -9,-32 -5,-56 -13,-86 -21,-83 -18,-59 -58,-109l-55 -167c-40,-138 20,-33 -73,-127 -86,-87 -19,29 -89,-108 -25,-51 -28,-66 -42,-127l-91 -29 -13 -88c-12,-132 -28,-115 -85,-212l-319 -575c-49,-134 -36,-39 -111,-135 -54,-68 -38,-114 -65,-210 -76,-26 -83,-14 -142,-76l-58 -80c-4,-6 -8,-15 -12,-22l-393 -483c-103,-110 -122,-38 -166,-227 -76,1 -53,21 -136,-21 -111,-57 -44,-20 -77,-80 -24,-20 21,26 -41,-34 -78,-74 3,8 -39,-46 -57,-37 -15,0 -86,-63 -20,-17 -28,-28 -49,-49 -72,-73 -58,-26 -85,-117 -38,-99 37,-29 -101,-50 -33,-33 -41,-43 -64,-72 -65,-81 -102,-132 -204,-191 -216,-124 -582,-475 -903,-665 -120,-71 -65,-54 -136,-129l-497 -289c-317,-180 -178,-149 -312,-211 -66,-30 -280,-151 -321,-193 -72,-1 -21,8 -34,-32l-175 -30 -58 -28c-84,-37 -103,-72 -177,-94 -88,-26 -349,-57 -511,-178 -2,-1 -511,-103 -528,-103l-70 -41c-72,11 -7,-6 -59,20 -5,3 -8,73 -25,20 -1,-4 -6,6 -10,9z"/>
   <path class="fil1" d="M2143 11098c51,183 38,-85 63,267 3,51 5,38 15,66l38 67c-120,178 -91,282 -282,277 169,127 -102,149 -186,247 64,30 -72,17 69,23 58,3 84,-6 138,-13 -32,324 22,235 -85,547l89 131 -74 54c-98,56 -69,81 -174,142 24,68 -34,37 102,36 -94,165 64,38 -72,98 114,66 166,101 139,248 -2,12 -12,16 -15,21l-38 66c-64,96 33,28 -108,88 115,82 91,147 127,290 -93,41 -61,25 -105,103 20,36 2,44 94,92 -83,31 -61,20 -134,56 48,96 -27,21 83,114l-117 27c-3,0 -11,3 -16,5 14,25 40,104 66,134 56,66 84,44 120,151 -106,56 -82,75 -239,55 16,103 -3,58 73,102 -38,119 -7,39 -61,148 9,5 91,62 94,63 94,33 53,-17 128,52 -89,46 -135,115 -193,212 109,197 238,92 166,349 -160,-58 -36,16 -131,-101 12,78 40,44 56,140 21,130 -68,-27 21,142l150 -27c-11,136 -94,196 -33,292l100 -99c6,97 13,99 28,188l-74 76c-4,5 -9,31 -8,58 5,-7 -96,-37 19,-17 75,14 21,-25 66,21 122,125 14,189 13,189 -17,3 45,91 -93,0 -64,-42 -22,-15 -36,-66 41,44 -8,142 136,250l110 87c95,82 87,70 208,57l4 196c154,83 16,34 94,101l188 96c-58,65 -77,71 -78,163l129 21c0,105 15,113 40,191 102,-17 61,-32 137,-3 47,18 -34,-38 36,21l-46 130c-177,-26 -14,0 -108,66 17,-15 -42,-58 86,-35 75,13 28,7 92,49 165,107 38,-24 102,154 10,3 42,16 50,18l74 28c57,12 121,2 193,0l140 179 -147 37c-62,11 -65,19 -86,28 53,109 102,92 46,201 59,-36 12,-22 120,-36 11,-87 74,-75 180,-60l0 214c103,-44 153,24 90,-124 83,-20 55,-10 134,-3 -6,-236 -12,-66 54,-134 27,38 42,64 69,106l-201 318 217 -36c-52,-71 -23,-1 -41,-132l128 60c-39,121 105,59 198,55l-97 55c-9,3 -19,3 -28,6 -101,30 -85,6 -126,102 55,25 13,54 122,-4l47 -31c6,-4 16,-11 25,-17 94,51 62,50 130,117l39 -159c3,-7 10,-18 12,-24 3,-6 10,-15 15,-23 137,25 112,-14 96,139l-89 -32c1,107 1,89 -54,156 -5,6 -15,14 -19,19 -4,5 -13,13 -18,20l205 8c-3,118 -48,27 90,67 -50,144 -3,17 -40,91 -54,109 -4,-42 -45,96 40,72 6,37 66,76 41,27 46,20 82,31 77,24 145,78 222,60l80 -68c2,-3 5,-13 7,-19 -51,-54 3,-33 -78,-40 -5,0 -63,10 -81,10 2,-3 6,-12 6,-9l61 -62c173,44 231,37 341,96 55,-142 -34,-79 85,-147 10,16 73,-7 -7,122l-62 99c119,17 128,34 222,98 88,61 76,-13 137,81 -47,46 31,30 -63,42 -48,7 -49,-2 -98,-10l17 114c-18,117 -35,299 159,335 33,7 89,-3 119,-23 62,-42 98,-153 175,-42 68,98 -2,51 55,114 69,78 59,5 177,157l61 75c69,59 134,137 152,221l147 33c-24,38 -12,9 -29,53 173,-18 114,46 234,20 86,-19 -79,-10 77,-18 37,96 23,64 101,140l-86 33 80 193c54,-24 22,-5 64,-35 4,-3 12,-10 17,-14 90,-66 136,-28 217,16l163 -84c39,29 46,44 69,78 14,-4 33,-24 41,-13l237 -145c3,-3 9,-12 14,-19 36,24 38,28 91,38 -18,-63 -57,-95 -34,-174 28,-97 88,-85 175,-76l-40 -96c77,-12 155,67 209,126 21,22 37,207 194,18l21 106c147,-22 23,38 125,-68 102,-107 -11,-37 110,-82 96,45 32,27 131,73l19 -94c124,22 127,20 217,-20 -22,114 -35,88 -49,208 96,-13 107,-27 221,-57 -10,-241 -5,14 67,-192l123 123 118 -110c46,62 60,57 130,76 11,4 83,22 84,22l6 260 63 -268c130,40 48,-38 125,106 109,-35 162,22 273,-20 9,-4 20,-13 30,-19 -39,250 143,186 308,99 53,207 -10,45 85,133l66 -75c-24,157 -20,66 100,110l-3 -240c102,9 161,64 298,34 -18,121 -4,77 0,215l128 -9c98,-44 23,21 64,-91 -51,-100 23,-14 -49,-67l-70 -32c64,-69 123,31 214,77l26 -125 162 -7c-6,-6 -17,-27 -20,-21l-37 -63c-4,-87 6,-32 51,-57l48 84c4,9 17,37 21,44l75 -193 -177 -99c190,82 52,58 209,33 -21,179 -4,83 25,123 3,4 12,8 15,11l68 -86c66,-49 37,-14 109,-81 77,0 6,7 0,-70 -150,15 -75,-24 -222,2 -8,2 -18,6 -26,8 -7,1 -19,6 -24,8 -6,1 -16,5 -24,7 -35,50 40,24 -94,38 -27,3 -138,1 -167,2 -82,-2 -103,-15 -165,-27 -119,-23 -34,15 -151,15 -126,0 -251,9 -374,0l-122 53c-4,0 -56,-4 -67,-3 68,38 18,89 174,5l42 100 -122 37c-1,-2 -2,-5 -2,-4l-20 -38c-1,-3 -7,-15 -11,-23l-204 51c-80,13 -133,-14 -232,-23 43,-96 36,-53 22,-201 -63,-74 -8,-26 -121,-60 -55,-17 -86,-29 -153,-45 -110,-27 -217,-38 -314,-66 -66,28 -59,14 -102,51 20,55 44,36 23,96 -136,-11 -93,65 -106,-129l-155 -16 0 -123c-102,-25 -147,-56 -228,-91l-202 -92c-73,-40 -157,-87 -221,-121 -48,-25 -21,-9 -68,-30l-66 -29c-75,-33 -84,-33 -148,-46 0,0 -9,43 -122,-20 -80,93 16,34 -124,111 -87,-83 -52,-79 -164,-119l-98 105c61,81 -24,23 68,71 44,23 57,12 88,13 -82,29 -87,12 -144,68l-30 -201c-176,25 -156,69 -226,-82l113 -131 94 56c1,1 1,8 3,12 -8,-33 -2,-30 -17,-55 -65,-105 -129,-106 -141,-114l-37 -158 -2 -60 -87 -5 -11 94c-175,-23 -142,-68 -134,6 -197,10 -148,24 -240,92 -110,82 -24,-12 -132,37l-118 -45c-71,-125 -111,-147 -247,-202l65 -37c3,-3 11,-10 15,-14l22 -34c4,-5 9,-15 12,-20 3,-6 10,-18 13,-22 3,-5 9,-15 14,-22 -7,-3 -58,-33 -58,-36 -23,-128 -30,-6 36,-160l-124 18c190,23 36,-62 36,-62l-103 -58c-107,-57 -62,54 -99,-93 0,0 5,-133 5,-146 -114,48 -56,-34 -104,120 -69,-62 -18,66 -69,-77l-38 30c-5,3 -14,10 -19,12 -74,37 -116,2 -210,13l-55 -151c-1,0 -100,-31 -71,-131 -35,3 -44,6 -98,19 -125,-111 -130,-36 -154,-215 38,144 -18,62 -97,94l-55 -103c109,-187 132,-84 137,-84 -46,-103 7,-37 15,-38 -137,-6 -92,32 -187,-33 43,-49 69,-92 211,-131 -49,-109 -40,-55 -163,-36l-93 5c-8,-13 -26,-2 -39,-2l49 -70c5,-7 14,-17 19,-24 5,-6 17,-17 25,-24 -27,-30 -25,-9 -65,-77l80 -164 -13 -50c-33,-17 -104,-51 -155,-77 -96,53 -91,69 -178,40 -12,-37 -52,-43 41,-95 -178,-11 15,24 -294,50 91,-190 2,-15 63,-94l83 -118c57,-76 -25,5 48,-34 -129,22 -14,6 -56,-36 54,-100 -6,-36 61,-80 -37,-32 -24,-63 -41,-96l-60 3c-302,-395 -246,-101 -289,-363l8 3c-6,-7 -14,-16 -19,-21 -4,-5 -13,-15 -17,-20 -5,-6 -11,-15 -16,-21l-64 -71c-86,-88 -43,35 -60,-99l-184 -43c-32,44 -8,2 -34,69l-31 -241c2,-13 11,-16 19,-21l36 -160 -110 -21 -77 -61c-39,-29 -49,-31 -80,-46 28,-26 15,-19 58,-46 24,-16 44,-19 61,-27l2 -90c-45,54 -71,115 -141,65 31,-39 20,-24 34,-106 -63,-50 -10,17 -48,-58 -24,-49 0,-29 -24,-98 -19,-52 -24,-16 -21,-100 2,-76 6,-53 35,-97 -63,-65 -97,-42 -128,-214 -10,-192 -6,-124 -80,-282l86 -93 5 -89c-29,-140 -85,-146 -33,-306 52,-163 -7,-358 10,-472 13,-87 64,-249 -28,-422 -9,-18 -28,-9 -36,-42 -2,-14 -14,-14 -20,-21 106,-33 126,-33 132,-194 13,-345 81,-399 97,-488 18,-94 -8,-156 12,-263l-33 -93 41 -62c68,-51 80,-60 82,-164 3,-136 -14,26 -4,-90 0,-1 15,-68 16,-85 -101,-87 -52,-143 -97,-11l-10 -104c-11,0 -88,10 -95,-1 -6,-9 -14,12 -22,17 -32,-35 -7,-27 -53,-24 37,75 -41,98 -42,99 89,57 73,25 106,144l-61 23c-8,1 -20,1 -28,0 -138,-6 2,-91 -60,-26 -277,7 -23,62 -299,103l86 -169c-69,-58 7,-7 -88,-48l-57 66c-117,150 -12,41 -129,116 -58,-75 -85,-55 -27,-130 -254,-24 -117,5 -227,37 -108,33 -10,23 -74,-21 137,-45 176,8 218,-161l-112 14c-30,-121 -62,-114 -151,-174 115,-243 -77,-217 -70,-495 86,-34 71,-37 161,0 -21,-94 -26,-114 9,-157 27,30 44,54 68,99 34,65 -9,48 49,67 -51,-94 -29,-58 13,-165l65 -55c11,4 25,7 33,11 7,3 23,10 30,14 7,3 45,31 44,40l-7 -143c95,112 -3,35 109,83l107 -82c53,117 32,98 151,79l6 141 134 37 0 -220 142 112 6 150c89,-89 45,-29 187,-44 -7,-95 -41,-88 -92,-232l-1 -30c-37,-169 -46,-16 -6,-196 -103,-86 -89,-119 -191,-172l58 -136c39,-75 8,9 12,13 48,-222 -25,-150 131,-187l0 46c-8,75 -116,12 19,66 85,33 51,-28 119,43 2,-148 16,-76 20,-107 21,-193 -97,-132 -99,-132 -67,-17 -50,-18 -92,-56l102 -94c49,-28 72,-22 139,-39 -43,-4 -43,-8 -72,-14 -224,-43 -151,93 -227,-180 130,24 126,57 222,72 125,-160 -14,-123 7,-195 21,-71 41,-44 91,-74l138 393c3,-2 -45,-40 124,6l33 -71c83,25 53,10 98,49l75 -24 -21 -22 -101 -125c-5,-5 -20,-6 -24,-20 -5,-16 -18,-15 -27,-22 129,-192 129,-115 131,-115 -40,20 -70,8 -164,9l94 -103c48,-39 49,-24 70,-37 -53,32 -26,1 -50,-77 1,52 -7,48 -42,89 -40,-63 -46,-82 -11,-137l-127 93c-95,-57 -81,-30 -72,-83l34 -136c84,53 111,52 235,-27 38,-301 -39,13 -14,-215 208,27 106,167 172,81 6,-8 19,13 30,19l74 -146c146,86 -42,25 145,69l134 -12 -2 -91c76,-49 175,-91 216,-165 60,-106 -13,-220 112,-239 64,-91 35,-101 118,-214l53 -68c277,-324 160,-17 318,-415 6,-1 83,-13 85,-13 61,-21 30,-12 63,-36l107 -90c118,-99 69,-142 247,-136l10 -116 -194 82c49,-87 26,-6 27,-131l97 45c-29,-116 -46,-69 15,-160 3,-5 12,-12 15,-18 40,-57 14,-17 34,-61 -36,-22 12,-28 -57,-22 -49,4 -21,2 -73,25 -10,-149 45,-52 -62,-117 -149,157 72,53 -359,249 -115,52 -47,32 -103,94 -100,111 -178,66 -205,224 -90,-46 -7,-16 -134,-46 -47,100 -145,111 -240,190 -98,82 -145,106 -249,172l-802 674c-137,175 -54,52 -217,209 -36,34 -24,17 -51,46 -33,34 -30,36 -58,76 -71,100 -108,164 -199,258 -71,75 -121,151 -188,236 -153,193 -9,90 -172,257 -231,238 -157,140 -361,483l-191 340c-196,243 -225,353 -303,445 -80,96 -128,161 -165,300 16,10 -46,91 83,15 -29,111 -23,39 10,142l-130 -75c-2,171 -11,65 37,188l-74 -16z"/>
   <path class="fil2" d="M14726 19523c-120,28 -187,44 -315,81 -158,45 -51,-27 -184,20 -13,99 -61,100 -156,116l-131 3 -33 72c-148,-19 -117,-34 -239,35l-120 -15c-123,27 -54,-1 -121,50 -4,3 9,36 -87,52 -165,28 -61,13 -97,-33l-56 82 -164 -8 0 164c-211,-54 1,74 -261,32 -10,8 -20,-13 0,12 88,108 62,31 126,38 118,13 -21,-2 192,95 2,1 76,36 69,35l-41 163c-142,-32 -152,-39 -183,-175l-196 -24c-40,196 4,36 -66,110 -106,-3 -105,52 -145,-40 -37,-84 -19,8 25,-72l31 -48c-162,53 -178,70 -304,-25 -20,15 -45,33 -69,51 -11,9 -37,37 -40,31 -3,-7 -14,10 -21,16 -54,-6 -74,-12 -132,-25 -61,-14 -25,-18 -107,-16l-44 116 -88 -96c7,-7 15,-17 20,-22 5,-5 14,-16 20,-21 39,-32 -16,-53 169,-44l-35 -97 -98 1c6,77 77,70 0,70 -72,67 -43,32 -109,81l-68 86c-3,-3 -12,-7 -15,-11 -29,-40 -46,56 -25,-123 -157,25 -19,49 -209,-33l177 99 -75 193c-4,-7 -17,-35 -21,-44l-48 -84c-45,25 -55,-30 -51,57l37 63c3,-6 14,15 20,21l-162 7 -26 125c-91,-46 -150,-146 -214,-77l70 32c72,53 -2,-33 49,67 -41,112 34,47 -64,91l-128 9c-4,-138 -18,-94 0,-215 -137,30 -196,-25 -298,-34l3 240c-120,-44 -124,47 -100,-110l-66 75c-95,-88 -32,74 -85,-133 -165,87 -347,151 -308,-99 -10,6 -21,15 -30,19 -111,42 -164,-15 -273,20 -77,-144 5,-66 -125,-106l-63 268 -6 -260c-1,0 -73,-18 -84,-22 -70,-19 -84,-14 -130,-76l-118 110 -123 -123c-72,206 -77,-49 -67,192 -114,30 -125,44 -221,57 14,-120 27,-94 49,-208 -90,40 -93,42 -217,20l-19 94c-99,-46 -35,-28 -131,-73 -121,45 -8,-25 -110,82 -102,106 22,46 -125,68l-21 -106c-157,189 -173,4 -194,-18 -54,-59 -132,-138 -209,-126l40 96c-87,-9 -147,-21 -175,76 -23,79 16,111 34,174 -53,-10 -55,-14 -91,-38 -5,7 -11,16 -14,19l-237 145c-8,-11 -27,9 -41,13 -23,-34 -30,-49 -69,-78l-163 84c-81,-44 -127,-82 -217,-16 -5,4 -13,11 -17,14 -42,30 -10,11 -64,35l-80 -193 86 -33c-78,-76 -64,-44 -101,-140 -156,8 9,-1 -77,18 -120,26 -61,-38 -234,-20 17,-44 5,-15 29,-53l-147 -33c-18,-84 -83,-162 -152,-221l-61 -75c-118,-152 -108,-79 -177,-157 -57,-63 13,-16 -55,-114 -77,-111 -113,0 -175,42 -30,20 -86,30 -119,23 -194,-36 -177,-218 -159,-335l-17 -114c49,8 50,17 98,10 94,-12 16,4 63,-42 -61,-94 -49,-20 -137,-81 -94,-64 -103,-81 -222,-98l62 -99c80,-129 17,-106 7,-122 -119,68 -30,5 -85,147 -110,-59 -168,-52 -341,-96l-61 62c0,-3 -4,6 -6,9 18,0 76,-10 81,-10 81,7 27,-14 78,40 -2,6 -5,16 -7,19l-80 68c-77,18 -145,-36 -222,-60 -36,-11 -41,-4 -82,-31 -60,-39 -26,-4 -66,-76 41,-138 -9,13 45,-96 37,-74 -10,53 40,-91 -138,-40 -93,51 -90,-67l-205 -8c5,-7 14,-15 18,-20 4,-5 14,-13 19,-19 55,-67 55,-49 54,-156l89 32c16,-153 41,-114 -96,-139 -5,8 -12,17 -15,23 -2,6 -9,17 -12,24l-39 159c-68,-67 -36,-66 -130,-117 -9,6 -19,13 -25,17l-47 31c-109,58 -67,29 -122,4 41,-96 25,-72 126,-102 9,-3 19,-3 28,-6l97 -55c-93,4 -237,66 -198,-55l-128 -60c18,131 -11,61 41,132l-217 36 201 -318c-27,-42 -42,-68 -69,-106 -66,68 -60,-102 -54,134 -79,-7 -51,-17 -134,3 63,148 13,80 -90,124l0 -214c-106,-15 -169,-27 -180,60 -108,14 -61,0 -120,36 56,-109 7,-92 -46,-201 21,-9 24,-17 86,-28l147 -37 -140 -179c-72,2 -136,12 -193,0l-74 -28c-8,-2 -40,-15 -50,-18 -64,-178 63,-47 -102,-154 -64,-42 -17,-36 -92,-49 -128,-23 -69,20 -86,35 94,-66 -69,-92 108,-66l46 -130c-70,-59 11,-3 -36,-21 -76,-29 -35,-14 -137,3 -25,-78 -40,-86 -40,-191l-129 -21c1,-92 20,-98 78,-163l-188 -96c-78,-67 60,-18 -94,-101l-4 -196c-121,13 -113,25 -208,-57l-110 -87c-144,-108 -95,-206 -136,-250 14,51 -28,24 36,66 138,91 76,3 93,0 1,0 109,-64 -13,-189 -45,-46 9,-7 -66,-21 -115,-20 -14,10 -19,17 -1,-27 4,-53 8,-58l74 -76c-15,-89 -22,-91 -28,-188l-100 99c-61,-96 22,-156 33,-292l-150 27c-89,-169 0,-12 -21,-142 -16,-96 -44,-62 -56,-140 95,117 -29,43 131,101 72,-257 -57,-152 -166,-349 58,-97 104,-166 193,-212 -75,-69 -34,-19 -128,-52 -3,-1 -85,-58 -94,-63 54,-109 23,-29 61,-148 -76,-44 -57,1 -73,-102 157,20 133,1 239,-55 -36,-107 -64,-85 -120,-151 -26,-30 -52,-109 -66,-134 5,-2 13,-5 16,-5l117 -27c-110,-93 -35,-18 -83,-114 73,-36 51,-25 134,-56 -92,-48 -74,-56 -94,-92 44,-78 12,-62 105,-103 -36,-143 -12,-208 -127,-290 141,-60 44,8 108,-88l38 -66c3,-5 13,-9 15,-21 27,-147 -25,-182 -139,-248 136,-60 -22,67 72,-98 -136,1 -78,32 -102,-36 105,-61 76,-86 174,-142l74 -54 -89 -131c107,-312 53,-223 85,-547 -54,7 -80,16 -138,13 -141,-6 -5,7 -69,-23 84,-98 355,-120 186,-247 191,5 162,-99 282,-277l-38 -67c-10,-28 -12,-15 -15,-66 -25,-352 -12,-84 -63,-267 -78,68 -1,-32 -58,62 -26,43 6,16 -31,70 -35,53 -58,51 -108,92 -59,96 -23,221 -120,340 -93,115 -120,133 -178,280l-54 -11c-4,114 3,116 -34,212l-72 189c-47,118 9,252 29,378 -8,6 -21,7 -24,20l-72 45c14,172 74,473 -93,566l34 114c27,101 -4,-10 30,91 37,107 27,102 27,244 -8,8 -21,7 -25,21 -19,75 -125,16 -22,152 74,96 -13,308 -13,393l126 56 -36 373c-3,243 -47,155 -2,381 30,154 -35,373 71,469 1,189 -48,445 104,585l38 26c-48,48 -36,28 -65,102 113,40 75,10 75,182 170,46 122,6 127,138 148,-69 127,14 116,111 -14,115 -10,188 -10,303l273 21c17,75 34,98 46,190l293 30c-3,133 37,165 1,265 -39,111 -27,-53 -37,132 -13,242 198,206 397,199 -18,184 12,13 -42,121 -23,47 -37,87 -55,135 124,-1 149,-37 228,-90 19,94 -14,88 -39,163 136,-33 131,-125 261,-66l-102 94c83,63 164,66 266,71 -46,131 71,210 198,205 -15,110 6,-2 -26,109 140,-55 158,65 357,103 16,173 140,160 99,134 15,83 30,179 111,221l54 16c9,1 23,-3 31,-2 8,0 21,-4 32,-6 -43,24 -26,-19 -32,45l-142 -54 -12 159 284 97c47,-54 30,-14 66,-96l-101 162 80 14c-84,86 -36,-5 -61,146 225,-16 64,48 180,-94 142,58 -78,74 215,67 -49,48 -28,32 -70,98 193,18 89,150 303,152 -78,72 -41,14 -67,134 242,2 39,10 208,-73 97,18 88,35 167,38 177,6 -3,-58 133,-8 154,58 -23,128 279,138 13,269 71,230 88,280l77 14c13,1 106,12 155,9 22,101 24,150 116,198 51,-72 40,-92 15,-173 44,20 7,0 47,30l138 100c59,18 61,7 122,-1 -5,23 -35,99 -35,102 -20,208 7,87 67,145 72,-115 143,-165 58,-231 34,18 88,129 107,190 27,-24 63,-101 46,-23 86,69 82,169 91,304l97 -98c396,128 661,-31 950,170l37 -33c31,-23 6,-9 50,-34l106 90c-34,20 -14,8 -67,24 -135,43 78,-35 -55,15 -77,28 -68,80 -79,161 230,81 243,1 466,153 272,-165 436,82 717,16 425,-98 407,-3 792,23l9 154c197,-13 269,6 337,-82l32 62c124,-5 247,-10 373,-16 71,-3 163,9 229,-25 6,-4 14,-11 20,-14l273 1c8,-10 19,-31 22,-24l71 -48c145,68 157,10 309,9 138,-1 135,74 254,-42l163 28 80 -126c229,25 204,-76 410,-67 160,7 296,17 424,-32 8,-3 16,-8 23,-12l490 -291c54,-37 44,-22 106,-70 142,-113 476,-234 667,-411l297 -296c72,-98 78,-37 168,-124 108,-106 134,-259 216,-374l-32 -67c-18,-70 -18,9 0,-93z"/>
   <path class="fil3" d="M6087 7623c-32,57 -29,67 -117,77l-6 66c-248,114 -157,253 -279,274 -52,9 -93,11 -94,-65l-180 107c-125,19 -52,133 -112,239 -41,74 -140,116 -216,165l2 91 -14 141c-48,36 -48,33 -109,61l-3 33c55,51 -24,-17 43,35l37 27c-278,162 -51,88 -243,221l0 97c-48,47 -66,52 -126,80 -9,151 5,119 -72,200l21 22c-19,89 2,127 -63,127l-25 37c-95,209 63,206 -149,241 47,92 24,106 -66,165 20,148 64,87 -49,190 16,44 20,56 34,99 -107,98 -20,65 -100,212l-38 62c-87,154 -36,158 10,193 -94,67 -60,18 -91,143 -20,80 -26,109 -27,193 51,113 0,83 126,88 -8,10 -22,11 -26,30l-69 151 -108 -13 18 111c-1,17 -16,84 -16,85 -10,116 7,-46 4,90 -2,104 -14,113 -82,164 20,137 -5,62 52,92l-60 63c-20,107 6,169 -12,263 -16,89 -84,143 -97,488 -6,161 -26,161 -132,194 6,7 18,7 20,21 8,33 27,24 36,42 92,173 41,335 28,422 -17,114 42,309 -10,472 -52,160 4,166 33,306l48 49c137,-85 43,-30 114,-28 61,105 19,-71 21,199 112,-45 39,-45 80,0 -9,296 -4,78 63,164 -17,-226 34,-251 -5,-500l20 -89c-9,-8 -19,-28 -23,-22l-70 -77c116,-38 49,-10 126,-55 -20,-151 -44,-99 -41,-271 2,-106 -1,-226 5,-328 16,-274 95,-257 65,-566l-36 -88c11,-8 21,-29 26,-22l96 -78c-48,-172 -12,-28 -64,-163 98,-153 -12,-233 64,-424 108,96 56,-50 83,98 28,147 9,-18 -21,83 -49,168 -101,100 7,136 11,-110 41,-198 66,-304 -217,20 -44,17 -126,-48 31,-65 53,-150 105,-36 16,-355 -5,-29 40,-266 -13,4 -43,11 -46,10 -67,-20 -33,-17 -60,-35 39,-64 -36,-21 57,-78l36 -11c6,-2 35,-6 45,-9 53,-254 7,-544 65,-772l298 -745c182,-339 79,-227 189,-466 97,-212 244,-409 275,-618 -61,-61 -71,62 -35,-70 38,79 40,-24 79,-76 70,-94 -43,-77 113,-36l9 -164c82,-16 29,-27 70,39l145 -185c41,-51 225,-406 382,-568 131,-137 110,-44 207,-230 -51,-89 97,-71 -51,-71l-94 119z"/>
   <path class="fil4" d="M18687 12052c-15,135 16,85 28,140 22,97 18,998 70,1140 84,54 59,23 99,127 29,-40 48,-17 51,-98l56 4c-32,55 -4,92 8,150 -6,-1 -15,-3 -18,-4l-210 -81 9 97c1,-4 82,67 -76,198 72,269 -15,363 -23,394 -29,126 12,52 -6,154 -13,74 -34,32 -40,132l-77 398c-41,118 -39,64 -76,222 -2,12 -29,133 -30,135l-47 86c-70,138 4,50 -117,181 12,274 -57,276 -118,328 11,259 -309,484 -323,756 26,73 6,77 47,38 76,-79 28,-30 57,-103 76,74 23,-3 81,67l19 33c3,5 5,15 7,19l26 37c3,3 12,11 19,16 100,-89 153,-309 177,-353 53,-97 67,-70 105,-157 20,-44 8,-41 36,-96l212 -514c11,-25 18,-65 29,-97 27,-76 -4,-1 17,-46 113,-240 53,-200 159,-249l-8 -104 -142 58c42,-111 5,-107 165,-202 -80,-82 -42,-9 -58,-112l91 -24 34 -12c-17,-198 29,-138 40,-307l22 -121c-12,8 -25,17 -37,26l-114 85c17,-173 -11,-104 180,-177 12,-92 -37,-215 64,-635 50,-210 -29,-1079 -87,-1186 -61,-5 -90,21 -109,-49l33 -115 -154 20c97,-145 111,-150 28,-310l-99 111z"/>
   <path class="fil3" d="M8901 19635l-1 126c81,35 126,66 228,91l75 60c5,-7 16,14 23,22 265,-57 221,23 242,39 97,28 204,39 314,66 67,16 98,28 153,45 113,34 58,-14 121,60 62,-27 49,6 86,-39 86,21 77,18 165,31 94,13 88,18 196,47 22,-22 30,-21 50,-56 35,20 26,37 45,63 123,9 248,0 374,0 117,0 32,-38 151,-15 62,12 83,25 165,27l128 -164c-49,41 -7,4 -37,-39 161,21 125,-5 271,13 -59,66 -145,96 -249,131l148 19c8,-2 18,-6 24,-7 5,-2 17,-7 24,-8 8,-2 18,-6 26,-8 147,-26 72,13 222,-2 5,-8 13,-30 16,-23 2,8 2,-9 27,-34 75,-77 -33,62 22,-17 -50,-81 -88,-67 -196,-87l30 -146c0,-4 3,-16 3,-24l-579 26c-108,4 -491,-59 -636,-43 -176,-47 -33,-17 -70,30l-49 183c-41,-201 -91,57 -122,-155l80 -84 -154 17 -50 28c36,56 -5,84 -85,79 -133,-9 -45,-5 -92,-40 2,-6 6,-13 8,-16l46 -128c-200,-7 -366,-22 -500,-71 -158,-58 -354,-118 -482,-177 54,134 80,19 0,64 -31,-39 -44,-80 -95,-88 -230,-37 -79,14 -134,56 7,8 15,18 22,23 109,87 131,46 130,170l-84 -45z"/>
   <path class="fil5" d="M16362 18100l34 110c3,9 6,18 8,26 27,79 19,-10 25,72 -290,2 -27,62 -245,42 -163,38 -377,167 -443,319 -156,-22 -270,16 -338,159l-159 1 -62 134c-146,-5 -479,141 -607,199 58,54 46,114 -21,158 -6,5 -16,11 -22,14 -133,59 -38,19 -68,-11 74,0 3,-9 24,81l-43 148c-5,4 -15,12 -23,18l28 -125 -117 10c41,-165 91,-109 -41,-134 -28,33 -103,-110 -24,166 98,47 97,-37 35,16 -67,59 -30,-14 -3,17l-130 -129c-86,128 -127,65 -134,63 2,3 -75,71 145,98l-33 -6c-70,71 23,-74 -44,72 76,14 112,9 123,6 133,-47 26,25 184,-20 128,-37 195,-53 315,-81 97,-55 197,-133 302,-166l26 -197c117,32 52,51 119,-14l53 -86 89 46c1,3 0,15 1,18 10,64 -60,-58 25,53 251,-28 377,-159 586,-293l152 -111c21,-50 -23,-48 63,-96 90,-50 17,-49 56,26l460 -391c136,-152 161,-108 246,-266 -43,-27 -25,-12 -50,-50l-33 69c-41,-71 -18,-96 0,-159 84,-66 -104,-56 105,-54l22 -68 -14 19 -33 -49c-70,39 -13,-30 -87,61 -71,-31 -123,47 -36,-50 -86,55 -132,131 -216,186 -83,56 -138,109 -200,149z"/>
   <path class="fil6" d="M3889 11408l-66 -171c73,-4 25,-72 33,-131 -27,-23 -93,-28 -105,-33 -6,8 -16,8 -20,22l-71 90c-44,-74 -15,-102 -11,-177l-158 137c-103,-70 -75,7 -128,-190 -26,-100 15,65 -22,-111 90,43 90,45 169,76 3,-7 8,-26 10,-21l27 -42c3,-5 14,-16 17,-20 4,-5 13,-14 19,-21 78,43 85,40 208,-103 71,-1 2,11 27,-74l-142 -112 0 220 -134 -37 -6 -141c-119,19 -98,38 -151,-79l-107 82c-112,-48 -14,29 -109,-83l7 143c1,-9 -37,-37 -44,-40 -7,-4 -23,-11 -30,-14 -8,-4 -22,-7 -33,-11l-65 55c-42,107 -64,71 -13,165 -58,-19 -15,-2 -49,-67 -24,-45 -41,-69 -68,-99 -35,43 -30,63 -9,157 -90,-37 -75,-34 -161,0 -7,278 185,252 70,495 89,60 121,53 151,174l112 -14c-42,169 -81,116 -218,161 64,44 -34,54 74,21 110,-32 -27,-61 227,-37 -58,75 -31,55 27,130 117,-75 12,34 129,-116l57 -66c95,41 19,-10 88,48l-86 169c276,-41 22,-96 299,-103 62,-65 -78,20 60,26 8,1 20,1 28,0l61 -23c-33,-119 -17,-87 -106,-144 1,-1 79,-24 42,-99 46,-3 21,-11 53,24 8,-5 16,-26 22,-17 7,11 84,1 95,1z"/>
   <path class="fil5" d="M13460 5492l45 81 -79 0c41,42 255,163 321,193 134,62 -5,31 312,211l497 289c71,75 16,58 136,129 321,190 687,541 903,665 102,59 139,110 204,191 23,29 31,39 64,72 -47,-181 52,-87 78,-244 232,-1 -10,26 74,-66 -142,-143 -51,-4 -270,-202l-280 -204 -30 119c-170,-45 -98,-108 -201,-59 -5,3 -16,13 -24,19 -23,-240 17,-84 -54,-146 83,-62 -103,-87 152,-15l-47 -54c-20,-39 5,-24 -35,-59 -35,-31 -18,-10 -57,-34 -108,-67 -28,-6 -104,-95 -30,-35 -54,-62 -99,-100 -157,-131 -6,39 -233,-156 -229,-196 -495,-229 -684,-430 -18,-18 -18,-26 -52,-51 -47,-35 -75,-35 -132,-62 -117,-54 -432,-219 -543,-293 -132,36 -29,-63 -71,54 122,88 127,225 142,200 4,-7 15,19 23,29 25,-71 21,-77 99,-129 126,209 -9,140 -55,147z"/>
   <path class="fil7" d="M7306 6349c-97,63 -83,14 -187,123 -45,28 -76,53 -110,80l-122 38c50,80 57,83 8,159 -110,-65 -2,-23 -157,-47 -38,132 -214,272 -326,292l-10 116c-178,-6 -129,37 -247,136l-107 90c-33,24 -2,15 -63,36 -2,0 -79,12 -85,13 -158,398 -41,91 -318,415l75 65 -66 110c1,76 42,74 94,65 122,-21 31,-160 279,-274l6 -66c9,-130 -58,2 21,-130 51,12 35,8 64,24 21,11 24,22 32,29l94 -119c148,0 0,-18 51,71l125 -29 -20 -155 132 6 82 -49c220,-132 109,-124 295,-156l34 -162c-5,-5 -174,78 -17,-115l105 -56c5,-3 13,-7 18,-10l40 -26c72,-70 16,-5 39,-72 115,65 115,-97 82,108 96,-69 170,-67 265,-119 145,-79 50,-123 264,-165l11 -86c-68,-73 91,-54 -60,-54 -20,102 47,26 -93,111 -2,-84 -30,-158 56,-197 167,-74 98,86 98,109l95 -67c41,-1 16,19 84,-13 53,-25 47,-36 64,-57l-15 -61c-257,-2 -37,22 -131,-98 128,-28 32,-49 185,-62 7,-1 46,6 57,7 49,-161 19,-48 20,-191 -199,18 -306,177 -387,217 -122,60 -239,61 -267,224l-87 -8z"/>
   <path class="fil4" d="M11747 19806c0,8 -3,20 -3,24l-30 146c108,20 146,6 196,87 -55,79 53,-60 -22,17 -25,25 -25,42 -27,34 -3,-7 -11,15 -16,23l98 -1 66 25c109,-45 10,-34 158,-46l6 -70c-99,27 -50,27 -118,-68l191 -70c-2,90 0,37 -10,137 132,4 20,-12 67,56 86,10 167,-51 339,-45 129,5 292,-46 381,-77l164 8 56 -82 108 -130 76 111c67,-51 -2,-23 121,-50l65 -88c28,28 29,-24 55,103 122,-69 91,-54 239,-35l33 -72c37,-70 -42,-59 38,-59 -75,-40 -78,36 -56,-117l173 52 -24 121c95,-16 143,-17 156,-116 -11,3 -47,8 -123,-6 67,-146 -26,-1 44,-72l33 6c-220,-27 -143,-95 -145,-98 7,2 48,65 134,-63l130 129c-27,-31 -64,42 3,-17 62,-53 63,31 -35,-16 -79,-276 -4,-133 24,-166 132,25 82,-31 41,134l117 -10 38 -41c-21,-90 50,-81 -24,-81 30,30 -65,70 68,11 6,-3 16,-9 22,-14 67,-44 79,-104 21,-158l-646 252 -1429 338 -753 54z"/>
   <path class="fil8" d="M3818 10639c-25,85 44,73 -27,74 -123,143 -130,146 -208,103l47 98c88,-41 72,-39 150,-79 -17,62 25,29 -56,114 -5,5 -17,10 -22,14 -4,4 -15,7 -22,12l50 20c3,1 15,5 18,6 3,1 12,4 18,6l-15 66c12,5 78,10 105,33 -8,59 40,127 -33,131l66 171 10 104c45,-132 -4,-76 97,11l-18 -111c6,-54 -8,-36 56,-36 -1,-11 -18,-103 -17,-108 7,-118 -22,-54 38,-112 1,-84 7,-113 27,-193 31,-125 -3,-76 91,-143 -46,-35 -97,-39 -10,-193l38 -62c80,-147 -7,-114 100,-212 -14,-43 -18,-55 -34,-99 113,-103 69,-42 49,-190 90,-59 113,-73 66,-165 212,-35 54,-32 149,-241l25 -37c-49,-39 -27,-15 -65,-33 -66,-31 -30,-5 -78,-48 -169,-46 -121,-8 -124,-6l-138 -393c-50,30 -70,3 -91,74 -21,72 118,35 -7,195 -96,-15 -92,-48 -222,-72 76,273 3,137 227,180 29,6 29,10 72,14 -67,17 -90,11 -139,39l-102 94c42,38 25,39 92,56 2,0 120,-61 99,132 -4,31 -18,-41 -20,107 -68,-71 -34,-10 -119,-43 -135,-54 -27,9 -19,-66l0 -46c-156,37 -83,-35 -131,187 -4,-4 27,-88 -12,-13l-58 136c102,53 88,86 191,172 -40,180 -31,27 6,196l1 30c51,144 85,137 92,232 -142,15 -98,-45 -187,44l-6 -150z"/>
   <path class="fil9" d="M16264 7682c33,60 -34,23 77,80 83,42 60,22 136,21 44,189 63,117 166,227l393 483c4,7 8,16 12,22l58 80c59,62 66,50 142,76 27,96 11,142 65,210 75,96 62,1 111,135l17 -137c155,132 40,94 35,99l14 -44c2,-3 14,-14 19,-22l131 66c-35,48 -72,-99 -5,55 2,5 9,14 12,20l29 40c4,8 8,16 11,24 44,104 -32,130 136,188 -2,9 -3,12 -5,27l-47 136c144,3 72,-3 100,21l96 110c-28,-31 41,-41 -65,-21 30,45 -98,20 163,120 -38,-98 37,-67 -98,-131l72 -105c-108,-177 -91,-211 -181,-340 -43,-61 -24,-47 -46,-81 -92,-142 -111,-26 -135,-293 -154,-73 -161,-218 -280,-317 -40,-34 -43,-20 -74,-57 -95,-118 1,-173 -225,-270l-40 28c-56,-35 -42,-34 -126,-47l29 -88c-8,-8 -34,-32 -41,-37l-40 -31c-52,-50 -20,-11 -51,-71 -97,-180 -173,-71 -53,-106 -76,-116 -109,-72 -200,-231l16 114c-10,-4 -66,-27 -76,-29 -10,-2 -19,-5 -29,-6l-223 82z"/>
   <path class="fil10" d="M6733 18422c62,99 130,105 240,141l57 -37c8,98 -30,-2 87,122l66 71c38,58 18,32 76,83 9,8 51,44 52,45 53,37 -2,7 58,31l70 -5c-46,-54 -37,-1 -8,-65 51,77 -10,42 108,49l51 0c241,29 -184,-46 61,10l58 22c0,6 0,10 0,18 -8,72 -64,57 -55,150l212 122 14 98 21 -13c38,18 51,0 80,33 1,-168 -35,-109 66,-154 57,146 -45,53 7,124 186,-2 12,-15 90,78l259 17c-27,-210 -23,-174 -94,-203 113,-146 -65,-54 104,-32 -66,-72 -14,-35 -99,-74 -44,-20 -31,-3 -80,-19l6 -66 -147 25c-39,-234 -195,-153 -332,-259l-65 -100c-128,-35 -93,-22 -200,-96 20,-42 1,-27 39,-61l10 -10c-135,7 -83,37 -217,69 59,-181 -8,45 -1,-227l-42 14 -90 63 -153 -244 -17 -32c-21,7 -59,2 -87,26l-87 -48c-118,-4 -35,19 -136,-25 53,109 22,117 159,147 -63,35 -37,30 -41,145l-163 -12 63 79z"/>
   <path class="fil11" d="M3749 14689c31,172 65,149 128,214 -29,44 -33,21 -35,97 -3,84 2,48 21,100l127 32c-34,112 -3,11 -29,67 -12,25 -12,6 -26,57l141 -15c28,221 -2,114 -36,146 29,98 25,74 38,180 103,-61 66,-54 171,24l128 144c17,3 33,-2 38,11 16,38 97,-28 129,41 8,136 -58,66 0,229 10,1 24,-6 29,2 39,67 1,31 119,-67 -18,194 -102,210 35,197l-169 68 -8 -3c66,13 214,48 289,-17l87 14c-32,-148 -7,-76 -103,-177 -86,-90 -52,-92 -87,-143 -4,-6 -10,-14 -14,-20l-331 -394c-4,-12 -16,-11 -25,-16 -59,-294 5,-98 -108,-295l-111 -32c4,-139 -9,-37 43,-76l-11 -23c-116,-34 -56,0 -123,-32 16,-91 -13,-61 67,-66l-24 -55c25,-172 -15,-131 -13,-272 -67,-86 -72,132 -63,-164 -41,-45 32,-45 -80,0 -2,-270 40,-94 -21,-199 -71,-2 23,-57 -114,28l-44 390c-2,-5 -10,17 -15,25z"/>
   <path class="fil3" d="M4550 16213c43,262 -13,-32 289,363l60 -3c107,52 37,-1 102,60 -25,70 -21,58 -66,114 108,19 87,55 135,121l102 168c51,26 122,60 155,77 83,-13 66,-34 66,45 23,-127 -45,-47 123,-92 -35,154 29,167 -121,126l0 60c101,116 93,-29 191,130 94,-86 15,-34 101,-56 28,53 129,122 193,142 -257,143 -69,-25 -170,107 175,-132 46,-21 82,20l10 68 78 23 76 -76c7,-6 19,-14 28,-22l57 25c25,10 40,17 80,31l-25 -90c61,-93 -27,-26 107,-54 -66,-72 -88,-60 -181,-115 -101,-60 -45,-63 -157,-109l-87 21c-39,-84 -20,-45 -79,-107l-118 -95c54,-37 -17,-26 78,2 11,-95 -14,-39 22,-101 -57,-45 -113,-76 -165,-148 -104,-144 -7,-65 -168,-142l-20 39c-17,-42 -56,-15 -116,15 -6,2 -16,9 -25,14 -1,-96 -44,-158 -80,-242 -88,-202 -31,-94 -178,-188 51,-49 27,-23 75,-82 -27,-58 52,-37 -78,-52l-87 -14c-75,65 -223,30 -289,17z"/>
   <path class="fil12" d="M6415 18469l103 58c0,0 154,85 -36,62l124 -18c-66,154 -59,32 -36,160 0,3 51,33 58,36 -5,7 -11,17 -14,22 -3,4 -10,16 -13,22 -3,5 -8,15 -12,20l-22 34c-4,4 -12,11 -15,14l-65 37c136,55 176,77 247,202l118 45c108,-49 22,45 132,-37 92,-68 43,-82 240,-92 -8,-74 -41,-29 134,-6l11 -94 0 -56c-60,-24 -5,6 -58,-31 -1,-1 -43,-37 -52,-45 -58,-51 -38,-25 -76,-83l-197 -32 -13 -124c-110,-36 -178,-42 -240,-141 -96,-50 -190,-115 -242,-182l-91 -9c23,88 -82,58 39,77l68 124 -92 37z"/>
   <path class="fil7" d="M9624 5011c29,27 32,68 33,70 -72,62 -55,82 -153,105 83,134 -44,23 87,59l141 18c26,-79 514,-118 626,-134 124,-17 333,18 650,-38l-7 -140 156 -33c-33,52 16,74 63,133l-79 13 90 -15c14,-50 8,-69 14,-93 32,-149 43,89 43,-153 -97,35 -69,-26 -98,39 -698,-49 -867,71 -1392,129l-174 40z"/>
   <path class="fil5" d="M8617 5711l-16 57c217,-27 69,-48 133,99 -111,19 -66,26 -194,1l41 33c5,3 19,13 24,16 5,3 17,11 26,16l-60 84c250,-12 137,-47 299,-78 170,-33 408,-150 544,-178 24,-5 132,-24 136,-25 64,-20 28,1 76,-33 74,-55 -16,26 54,-65l69 -131 -145 -48c-170,51 -132,5 -149,-51 -108,24 -367,88 -458,77 -93,133 -186,135 -381,145l1 81z"/>
   <path class="fil4" d="M9822 5295c-118,86 -194,73 -342,82l-25 31c17,56 -21,102 149,51l145 48 -69 131c162,-13 323,30 480,-12 103,-27 100,-31 210,-47 182,-28 162,-45 209,-81l-62 -17c113,-15 79,7 182,-72 -46,-147 10,-38 -88,-131l-108 5c-41,-50 -37,-52 -82,-61 -345,-67 -77,171 -599,73z"/>
   <path class="fil8" d="M5826 18177c60,-119 -97,-98 93,-98 45,-16 14,9 -10,-53l-55 -143c122,41 27,-44 85,34 101,137 23,32 13,73 1,-2 32,-114 33,-117 29,-45 -1,-48 -66,-132 -6,-8 -14,-19 -19,-26 -6,-8 -13,-19 -20,-29l-78 -23 -10 -68 -102 -6c-45,-77 -82,-106 -104,-207 -98,-159 -90,-14 -191,-130 -79,-23 -64,31 -55,-89l-80 164c40,68 38,47 65,77 -8,7 -20,18 -25,24 -5,7 -14,17 -19,24l-49 70c13,0 31,-11 39,2l93 -5c123,-19 114,-73 163,36 -142,39 -168,82 -211,131 95,65 50,27 187,33 -8,1 -61,-65 -15,38 -5,0 -28,-103 -137,84l55 103c79,-32 135,50 97,-94 24,179 29,104 154,215 54,-13 63,-16 98,-19 -29,100 70,131 71,131z"/>
   <path class="fil13" d="M12303 20100l-136 15c-148,12 -49,1 -158,46l-66 -25 35 97c-185,-9 -130,12 -169,44 -6,5 -15,16 -20,21 -5,5 -13,15 -20,22l88 96 44 -116c82,-2 46,2 107,16 58,13 78,19 132,25 7,-6 18,-23 21,-16 3,6 29,-22 40,-31 24,-18 49,-36 69,-51 126,95 142,78 304,25l-31 48c-44,80 -62,-12 -25,72 40,92 39,37 145,40 70,-74 26,86 66,-110l196 24c31,136 41,143 183,175l41 -163c7,1 -67,-34 -69,-35 -213,-97 -74,-82 -192,-95 -64,-7 -38,70 -126,-38 -20,-25 -10,-4 0,-12 262,42 50,-86 261,-32l0 -164c-89,31 -252,82 -381,77 -172,-6 -253,55 -339,45z"/>
   <path class="fil14" d="M4598 9472c77,-81 63,-49 72,-200 60,-28 78,-33 126,-80l0 -97 1 -118c57,-59 83,-112 162,-165l3 -33c-10,-228 -67,-7 -11,-190 -187,-44 1,17 -145,-69l-74 146c-11,-6 -24,-27 -30,-19 -66,86 36,-54 -172,-81 -25,228 52,-86 14,215 -124,79 -151,80 -235,27l-34 136c-9,53 -23,26 72,83l127 -93c-35,55 -29,74 11,137 35,-41 43,-37 42,-89 24,78 -3,109 50,77 -21,13 -22,-2 -70,37l-94 103c94,-1 124,11 164,-9 -2,0 -2,-77 -131,115 9,7 22,6 27,22 4,14 19,15 24,20l101 125z"/>
   <path class="fil15" d="M12471 5211c162,121 423,152 511,178 74,22 93,57 177,94l58 28 175 30 -26 -79 94 30c46,-7 181,62 55,-147 -78,52 -74,58 -99,129 -8,-10 -19,-36 -23,-29 -15,25 -20,-112 -142,-200 42,-117 -61,-18 71,-54l-99 -49 -89 -10c-2,99 25,57 -34,101l5 -123c-77,-45 -66,-14 -140,-33 -58,-14 -91,-37 -142,-62 -138,-66 -190,-49 -356,-71l98 250c-56,42 84,86 -94,17z"/>
   <path class="fil16" d="M18119 9947l-96 -2c30,71 -24,41 68,92 46,25 85,21 138,29 -19,252 -15,153 51,362l-89 21c40,50 37,26 58,109 8,30 4,54 13,86 27,94 12,37 33,70l-39 -131c93,59 73,2 124,90 26,45 13,77 16,118l-65 2 38 90c-19,-154 21,-39 134,19 63,33 -14,1 86,40 64,-53 39,3 72,-85l-323 -842c-56,-125 63,-44 -68,-100l-74 79c-32,-16 -28,21 -77,-47z"/>
   <path class="fil15" d="M8440 5755l-18 113c61,-1 60,-5 70,-1 -38,21 -89,48 -145,67 -106,34 -41,-54 -85,53 -23,-29 1,-56 -95,-72l-135 18 15 -17c-1,143 29,30 -20,191 -11,-1 -50,-8 -57,-7 -153,13 -57,34 -185,62 94,120 -126,96 131,98l15 61c238,-56 158,-37 354,-149 109,-62 166,-35 286,-155l60 -84c-9,-5 -21,-13 -26,-16 -5,-3 -19,-13 -24,-16l-41 -33c128,25 83,18 194,-1 -64,-147 84,-126 -133,-99l16 -57 -185 33 8 11z"/>
   <path class="fil17" d="M18553 11567c30,162 99,319 82,455l52 30 99 -111c83,160 69,165 -28,310l154 -20 -33 115c19,70 48,44 109,49 47,-163 1,-172 5,-338 3,-120 28,-33 -6,-137 -42,-133 -2,-115 -103,-162 53,139 79,22 0,68 -43,-133 -1,-39 -66,-92l-94 90c-40,-47 -23,-20 -45,-96l172 -66c-52,-197 -33,-18 -80,-169 -36,-112 -43,-118 41,-142 -36,-68 -6,-5 -28,-114l-102 60c0,116 0,91 20,201l-149 69z"/>
   <path class="fil7" d="M17664 16713l33 109 -122 -1c-124,91 -68,88 -147,191 -73,97 -86,24 -126,196 -35,143 117,115 174,118l33 -144c112,-158 -151,55 60,-42l25 133c112,-61 98,-105 189,-195 111,-110 97,-79 169,-250 -115,-12 -50,-2 -85,-21 -20,82 38,64 -63,192 -33,-51 -98,0 19,-249l41 -62 30 -139c-41,39 -21,35 -47,-38 -38,28 -85,55 -111,92 -47,66 0,13 -30,64 -53,91 52,-16 -42,46z"/>
   <path class="fil5" d="M17424 9016l319 575c57,97 73,80 85,212l98 84 140 -2 4 -99 83 -62c-25,-93 -14,-14 -51,-128 -39,-118 25,-31 -63,-134l-72 105c135,64 60,33 98,131 -261,-100 -133,-75 -163,-120 106,-20 37,-10 65,21l-96 -110c-28,-24 44,-18 -100,-21l47 -136c2,-15 3,-18 5,-27 -168,-58 -92,-84 -136,-188 -3,-8 -7,-16 -11,-24l-29 -40c-3,-6 -10,-15 -12,-20 -67,-154 -30,-7 5,-55l-131 -66c-5,8 -17,19 -19,22l-14 44c5,-5 120,33 -35,-99l-17 137z"/>
   <path class="fil11" d="M8144 19345l-58 19c48,36 22,12 57,36 80,54 -10,-24 52,43 64,13 73,13 148,46l66 29c47,21 20,5 68,30 64,34 148,81 221,121 164,9 78,21 203,-34l84 45c1,-124 -21,-83 -130,-170 -7,-5 -15,-15 -22,-23 55,-42 -96,-93 134,-56 51,8 64,49 95,88 80,-45 54,70 0,-64l-229 -130c-47,180 11,16 -15,162l-177 23c64,-213 -15,-20 -4,-199 56,47 -94,65 114,25 -64,-146 -47,-65 -184,-140 -75,-41 -116,-130 -154,-69 -169,-22 9,-114 -104,32 71,29 67,-7 94,203l-259 -17z"/>
   <path class="fil18" d="M5826 18177l55 151c94,-11 136,24 210,-13 5,-2 14,-9 19,-12l38 -30c51,143 0,15 69,77 48,-154 -10,-72 104,-120 0,13 -5,146 -5,146 37,147 -8,36 99,93l92 -37 -68 -124c-121,-19 -16,11 -39,-77l-17 -108 -398 -250c-1,3 -32,115 -33,117 10,-41 88,64 -13,-73 -58,-78 37,7 -85,-34l55 143c24,62 55,37 10,53 -190,0 -33,-21 -93,98z"/>
   <path class="fil9" d="M17302 17208l-90 87c57,48 94,-41 24,107 -51,109 -61,69 -103,95 -182,91 -27,-26 -148,133l-72 -4c-123,-6 -2,-16 -42,60 7,6 20,3 22,16l41 101 14 -19 -22 68c-209,-2 -21,-12 -105,54l144 44c2,1 13,-2 20,-2 46,-9 23,-3 66,-29 13,-8 79,-52 80,-53 52,-47 62,-85 83,-164 -108,-60 -12,35 -98,-81l154 -87 -54 166 104 -4c-3,-238 193,-173 274,-423l-25 -133c-211,97 52,-116 -60,42l-33 144c-57,-3 -209,25 -174,-118z"/>
   <path class="fil4" d="M11686 4852c72,73 34,34 58,145 7,32 -21,-7 35,119 4,-3 9,-13 10,-9 17,53 20,-17 25,-20 52,-26 -13,-9 59,-20 42,-62 -36,-66 70,-45l0 86c17,0 526,102 528,103 178,69 38,25 94,-17l-98 -250 -15 -14 -65 1 -182 159 -187 -64 252 -151c-184,-71 -387,-56 -601,-62l17 39z"/>
   <path class="fil7" d="M5880 17686c7,10 14,21 20,29 5,7 13,18 19,26 65,84 95,87 66,132l398 250 32 39c27,-108 -5,-73 103,-150 7,-4 25,-12 33,-19 -55,-94 -40,-78 -173,-75 -20,-175 34,-49 -100,-163 -58,-49 -114,-64 -73,-96l-84 -15c-40,-14 -55,-21 -80,-31l-57 -25c-9,8 -21,16 -28,22l-76 76z"/>
   <path class="fil3" d="M18553 11567l149 -69c-20,-110 -20,-85 -20,-201l102 -60 -123 -380c-33,88 -8,32 -72,85 -100,-39 -23,-7 -86,-40 -113,-58 -153,-173 -134,-19 32,167 74,208 119,354 17,56 58,149 62,170 25,151 -56,-22 3,160z"/>
   <path class="fil11" d="M6121 17644l84 15c-41,32 15,47 73,96 134,114 80,-12 100,163 133,-3 118,-19 173,75l4 71c36,-26 25,-18 67,-15 120,11 -12,14 93,14 101,44 18,21 136,25 -44,-114 -4,-40 -73,-140l-9 31c-106,-46 -90,-40 -154,-130l-90 -94c-140,-87 -94,-20 -227,-152l-95 -103c-134,28 -46,-39 -107,54l25 90z"/>
   <path class="fil15" d="M11288 4803c0,242 -11,4 -43,153 -6,24 0,43 -14,93l-90 15c-28,80 7,44 112,49 78,3 115,-15 175,-23 134,-17 186,30 351,26 -56,-126 -28,-87 -35,-119 -24,-111 14,-72 -58,-145 3,121 3,156 -43,230 -50,-31 -7,77 -52,-46 -23,-64 20,-59 -17,-151 29,-20 28,-42 50,-72l-336 -10z"/>
   <path class="fil8" d="M7653 19326c-2,-4 -2,-11 -3,-12l-94 -56 -113 131c70,151 50,107 226,82l30 201c57,-56 62,-39 144,-68 -31,-1 -44,10 -88,-13 -92,-48 -7,10 -68,-71l98 -105c112,40 77,36 164,119 140,-77 44,-18 124,-111 113,63 122,20 122,20 -62,-67 28,11 -52,-43 -35,-24 -9,0 -57,-36 -81,-30 -69,-21 -169,-10l-16 -90 -21 13c-236,92 18,122 -227,49z"/>
   <path class="fil19" d="M10056 20144c14,148 21,105 -22,201 99,9 152,36 232,23l204 -51c4,8 10,20 11,23l20 38c0,-1 1,2 2,4l122 -37 -42 -100c-156,84 -106,33 -174,-5 11,-1 63,3 67,3l122 -53c-19,-26 -10,-43 -45,-63 -20,35 -28,34 -50,56 -108,-29 -102,-34 -196,-47 -88,-13 -79,-10 -165,-31 -37,45 -24,12 -86,39z"/>
   <path class="fil9" d="M15964 7373c27,91 13,44 85,117 21,21 29,32 49,49 71,63 29,26 86,63 10,-5 28,-12 33,-15 145,-96 50,-96 149,-52l-27 -76c-155,-154 69,-121 -205,-154 62,-145 32,-71 32,-160l-76 -14 -68 16c-2,-1 -10,1 -12,-4 -1,-3 -5,1 -7,1 -40,35 -84,-61 -42,86l93 90 -90 53z"/>
   <path class="fil9" d="M6383 18123l17 108 91 9c52,67 146,132 242,182l-63 -79 163 12c4,-115 -22,-110 41,-145 -137,-30 -106,-38 -159,-147 -105,0 27,-3 -93,-14 -42,-3 -31,-11 -67,15l-4 -71c-8,7 -26,15 -33,19 -108,77 -76,42 -103,150l-32 -39z"/>
   <path class="fil20" d="M4382 15984c17,134 -26,11 60,99l64 71c5,6 11,15 16,21 4,5 13,15 17,20 5,5 13,14 19,21l169 -68c-137,13 -53,-3 -35,-197 -118,98 -80,134 -119,67 -5,-8 -19,-1 -29,-2 -58,-163 8,-93 0,-229 -32,-69 -113,-3 -129,-41 -5,-13 -21,-8 -38,-11l-128 -144 25 163c165,26 -87,66 212,83 -8,7 -21,4 -25,20 -7,28 -45,7 -79,127z"/>
   <path class="fil21" d="M3751 11073l15 -66c-6,-2 -15,-5 -18,-6 -3,-1 -15,-5 -18,-6l-50 -20c7,-5 18,-8 22,-12 5,-4 17,-9 22,-14 81,-85 39,-52 56,-114 -78,40 -62,38 -150,79l-47 -98c-6,7 -15,16 -19,21 -3,4 -14,15 -17,20l-27 42c-2,-5 -7,14 -10,21 -79,-31 -79,-33 -169,-76 37,176 -4,11 22,111 53,197 25,120 128,190l158 -137c-4,75 -33,103 11,177l71 -90c4,-14 14,-14 20,-22z"/>
   <path class="fil22" d="M7119 6472c104,-109 90,-60 187,-123l-122 -19c40,-50 23,-31 72,-74l165 -290c-150,34 -29,7 -115,77l-190 136c-96,30 -33,-25 -162,48 37,169 -29,-14 30,79 5,9 34,42 38,47 105,137 39,-3 97,119z"/>
   <path class="fil23" d="M9163 5291l2 -134c90,-3 92,11 163,55 -4,9 -7,15 -8,28l-23 72 294 -67c-131,-36 -4,75 -87,-59 98,-23 81,-43 153,-105 -1,-2 -4,-43 -33,-70 -94,33 -153,25 -291,79 -154,60 -196,-16 -238,155l68 46z"/>
   <path class="fil24" d="M5172 17036l-102 -168c-48,-66 -27,-102 -135,-121l-56 2c42,42 -73,58 56,36 -73,39 9,-42 -48,34l-83 118c-61,79 28,-96 -63,94 309,-26 116,-61 294,-50 -93,52 -53,58 -41,95 87,29 82,13 178,-40z"/>
   <path class="fil25" d="M7653 19326c245,73 -9,43 227,-49l-14 -98 -212 -122 -97 4 -99 -62 37 158c12,8 76,9 141,114 15,25 9,22 17,55z"/>
   <path class="fil26" d="M2078 15165l109 212 316 -179 -119 -171c-143,48 -95,129 -306,138z"/>
   <path class="fil27" d="M18191 10449l89 -21c-66,-209 -70,-110 -51,-362 -53,-8 -92,-4 -138,-29 -92,-51 -38,-21 -68,-92l96 2 -53 -62 -140 2 6 33c14,61 17,76 42,127 70,137 3,21 89,108 93,94 33,-11 73,127l55 167z"/>
   <path class="fil28" d="M8240 18968l-6 -196c-109,28 -128,52 -212,-13l-120 -123c-12,13 67,223 -64,2 -118,0 -88,-27 -77,96 137,106 293,25 332,259l147 -25z"/>
   <path class="fil29" d="M17894 16549c53,4 94,-43 83,86 -5,56 -5,44 -47,96l-66 -43 -41 62c-117,249 -52,198 -19,249 101,-128 43,-110 63,-192 35,19 -30,9 85,21 45,0 19,30 66,-5 27,-123 30,-90 85,-205 -7,-5 -16,-13 -19,-16l-26 -37c-2,-4 -4,-14 -7,-19l-19 -33c-58,-70 -5,7 -81,-67 -29,73 19,24 -57,103z"/>
   <path class="fil30" d="M5348 16706c-16,-124 17,-37 -82,-133 -105,-103 -94,-188 -262,-311 -48,59 -24,33 -75,82 147,94 90,-14 178,188 36,84 79,146 80,242 9,-5 19,-12 25,-14 60,-30 99,-57 116,-15l20 -39z"/>
   <path class="fil31" d="M4163 12701c59,-57 1,44 61,-80 33,-68 25,-72 42,-134 24,-92 35,-130 52,-244 -108,-36 -56,32 -7,-136 30,-101 49,64 21,-83 -27,-148 25,-2 -83,-98 -76,191 34,271 -64,424 52,135 16,-9 64,163l-96 78c-5,-7 -15,14 -26,22l36 88z"/>
   <path class="fil32" d="M16339 7459l27 76c-99,-44 -4,-44 -149,52 -5,3 -23,10 -33,15 42,54 -39,-28 39,46 62,60 17,14 41,34l223 -82c10,1 19,4 29,6 10,2 66,25 76,29l-16 -114c-134,-23 -94,-10 -148,-86 -6,-11 -15,-23 -21,-31l-69 -95c40,151 56,33 1,150z"/>
   <path class="fil33" d="M4152 15748l59 16 25 130c171,76 54,-21 146,90 34,-120 72,-99 79,-127 4,-16 17,-13 25,-20 -299,-17 -47,-57 -212,-83l-25 -163c-105,-78 -68,-85 -171,-24l110 21 -36 160z"/>
   <path class="fil34" d="M15465 6607c-55,-77 -47,-47 -85,-145l-119 9 47 54c-255,-72 -69,-47 -152,15 71,62 31,-94 54,146 8,-6 19,-16 24,-19 103,-49 31,14 201,59l30 -119z"/>
   <path class="fil35" d="M7369 18878l0 56 87 5 2 60 99 62 97 -4c-9,-93 47,-78 55,-150 0,-8 0,-12 0,-18l-58 -22c-245,-56 180,19 -61,-10l-51 0c-118,-7 -57,28 -108,-49 -29,64 -38,11 8,65l-70 5z"/>
   <path class="fil36" d="M15028 19357c103,-43 76,-40 180,-76 125,-43 74,16 133,-104 -85,-111 -15,11 -25,-53 -1,-3 0,-15 -1,-18l-89 -46 -53 86c-67,65 -2,46 -119,14l-26 197z"/>
   <path class="fil37" d="M4384 11939c52,-219 66,-215 51,-473 -10,3 -39,7 -45,9l-36 11c-93,57 -18,14 -57,78 27,18 -7,15 60,35 3,1 33,-6 46,-10 -45,237 -24,-89 -40,266 -52,-114 -74,-29 -105,36 82,65 -91,68 126,48z"/>
   <path class="fil38" d="M8032 5933l135 -18c96,16 72,43 95,72 44,-107 -21,-19 85,-53 56,-19 107,-46 145,-67 -10,-4 -9,0 -70,1l18 -113 -105 15 -53 88 -219 -13 -31 88z"/>
   <path class="fil39" d="M6880 7030c214,-76 45,-66 267,-171 33,-205 33,-43 -82,-108 -23,67 33,2 -39,72l-40 26c-5,3 -13,7 -18,10l-105 56c-157,193 12,110 17,115z"/>
   <path class="fil9" d="M5586 17382c22,101 59,130 104,207l102 6c-36,-41 93,-152 -82,-20 101,-132 -87,36 170,-107 -64,-20 -165,-89 -193,-142 -86,22 -7,-30 -101,56z"/>
   <path class="fil32" d="M18884 11758c20,-113 -3,-101 -23,-204 -9,-44 -10,-96 -15,-122 -15,-82 22,-63 -34,-81 -84,24 -77,30 -41,142 47,151 28,-28 80,169l-172 66c22,76 5,49 45,96l94 -90c65,53 23,-41 66,92 79,-46 53,71 0,-68z"/>
   <path class="fil40" d="M12387 4931c0,-54 -65,-45 -117,-56l-252 151 187 64 182 -159z"/>
   <path class="fil28" d="M9468 19973c-21,-16 23,-96 -242,-39 -7,-8 -18,-29 -23,-22l-75 -60 0 123 155 16c13,194 -30,118 106,129 21,-60 -3,-41 -23,-96 43,-37 36,-23 102,-51z"/>
   <path class="fil30" d="M10579 5498c265,54 256,-94 265,-122 -43,-65 -15,-29 -76,-70 -29,-19 -30,2 -85,-63l-72 35c98,93 42,-16 88,131 -103,79 -69,57 -182,72l62 17z"/>
   <path class="fil41" d="M18066 9885l53 62c49,68 45,31 77,47l74 -79c-29,-62 -24,-57 -42,-155 -17,-18 -73,-35 -75,-36l-83 62 -4 99z"/>
   <path class="fil26" d="M3252 15918c77,6 152,-14 259,-35 -48,-91 -35,-77 23,-127 -79,-31 -116,-67 -214,23 -5,5 -12,11 -17,16 -76,87 -47,98 -51,123z"/>
   <path class="fil15" d="M11288 20202c29,-1 140,1 167,-2 134,-14 59,12 94,-38l-148 -19c104,-35 190,-65 249,-131 -146,-18 -110,8 -271,-13 30,43 -12,80 37,39l-128 164z"/>
   <path class="fil34" d="M15863 7323c138,21 63,-49 101,50l90 -53 -93 -90c-42,-147 2,-51 42,-86 2,0 6,-4 7,-1 2,5 10,3 12,4l68 -16c-28,-48 -45,-73 -75,-118 -84,92 158,65 -74,66 -26,157 -125,63 -78,244z"/>
   <path class="fil42" d="M3823 11012c100,25 94,40 197,28 61,-202 -15,-125 -131,-218l-66 190z"/>
   <path class="fil43" d="M6021 18598c1,139 11,56 -33,158 9,-1 21,-11 25,-4 68,131 -48,-33 157,-13 31,-70 49,-95 77,-136 -4,-3 -11,-12 -13,-8l-84 -59c-40,83 43,72 -129,62z"/>
   <path class="fil31" d="M16339 7459c55,-117 39,1 -1,-150l69 95c6,8 15,20 21,31l-14 -112c-120,-42 -163,-99 -248,-178 0,89 30,15 -32,160 274,33 50,0 205,154z"/>
   <path class="fil44" d="M16184 18350c218,20 -45,-40 245,-42 -6,-82 2,7 -25,-72 -2,-8 -5,-17 -8,-26l-34 -110c-77,163 -2,25 -95,108 -56,49 -64,46 -83,142z"/>
   <path class="fil36" d="M10217 19780c-90,-73 -47,-49 -173,-77l-46 128c-2,3 -6,10 -8,16 47,35 -41,31 92,40 80,5 121,-23 85,-79l50 -28z"/>
   <path class="fil45" d="M8833 19325l-82 11c-208,40 -58,22 -114,-25 -11,179 68,-14 4,199l177 -23c26,-146 -32,18 15,-162z"/>
   <path class="fil28" d="M6778 17948c69,100 29,26 73,140l87 48c28,-24 66,-19 87,-26l-92 -169 -155 7z"/>
   <path class="fil29" d="M7901 19264l16 90c100,-11 88,-20 169,10l58 -19c-78,-93 96,-80 -90,-78 -52,-71 50,22 -7,-124 -101,45 -65,-14 -66,154 -29,-33 -42,-15 -80,-33z"/>
   <path class="fil40" d="M12167 20115l136 -15c-47,-68 65,-52 -67,-56 10,-100 8,-47 10,-137l-191 70c68,95 19,95 118,68l-6 70z"/>
   <path class="fil46" d="M5262 8865c90,-46 197,-193 236,-307 -41,-66 12,-55 -70,-39l-9 164c-156,-41 -43,-58 -113,36 -39,52 -41,155 -79,76 -36,132 -26,9 35,70z"/>
   <path class="fil47" d="M3749 14689c5,-8 13,-30 15,-25l44 -390 -48 -49 -5 89 -86 93c74,158 70,90 80,282z"/>
   <path class="fil46" d="M5865 17276c-34,-113 -17,-108 -113,-168l-93 -11c-95,-28 -24,-39 -78,-2l118 95c59,62 40,23 79,107l87 -21z"/>
   <path class="fil48" d="M16865 17621l48 5 72 4c121,-159 -34,-42 148,-133l5 -88c-182,118 -32,-105 -273,212z"/>
   <path class="fil40" d="M7687 6489l96 -98 -95 67c0,-23 69,-183 -98,-109 -86,39 -58,113 -56,197 140,-85 73,-9 93,-111 151,0 -8,-19 60,54z"/>
   <path class="fil48" d="M3978 11412l108 13 69 -151c4,-19 18,-20 26,-30 -126,-5 -75,25 -126,-88 -60,58 -31,-6 -38,112 -1,5 16,97 17,108 -64,0 -50,-18 -56,36z"/>
   <path class="fil36" d="M10371 19763l-80 84c31,212 81,-46 122,155l49 -183c37,-47 -106,-77 70,-30 -46,-31 -2,-19 -78,-26 0,0 -64,2 -83,0z"/>
   <path class="fil48" d="M5411 8082l180 -107 66 -110 -75 -65 -53 68c-83,113 -54,123 -118,214z"/>
   <path class="fil48" d="M4796 9095c192,-133 -35,-59 243,-221l-37 -27c-67,-52 12,16 -43,-35 -79,53 -105,106 -162,165l-1 118z"/>
   <path class="fil49" d="M7285 18323c-6,-9 -26,-34 -31,-41 -3,-6 -10,-15 -14,-21 -4,-5 -10,-15 -13,-20 -48,-75 -2,-45 -185,-99l153 244 90 -63z"/>
   <path class="fil18" d="M7545 18467c-42,-58 -24,-40 -97,-82 -72,-41 -40,-14 -121,-76 -7,272 60,46 1,227 134,-32 82,-62 217,-69z"/>
   <path class="fil40" d="M11008 5091l133 -27 79 -13c-47,-59 -96,-81 -63,-133l-156 33 7 140z"/>
   <path class="fil50" d="M11686 4852l-17 -39 -45 0c-22,30 -21,52 -50,72 37,92 -6,87 17,151 45,123 2,15 52,46 46,-74 46,-109 43,-230z"/>
   <path class="fil34" d="M18830 15002l-24 -65c9,-6 21,-22 24,-16 2,5 17,-11 20,-16 3,-5 13,-13 16,-19l20 -164 -91 24c16,103 -22,30 58,112 -160,95 -123,91 -165,202l142 -58z"/>
   <path class="fil36" d="M13940 19743l131 -3 24 -121 -173 -52c-22,153 -19,77 56,117 -80,0 -1,-11 -38,59z"/>
   <path class="fil43" d="M4382 15984c-92,-111 25,-14 -146,-90l-25 -130 -59 -16c-8,5 -17,8 -19,21l31 241c26,-67 2,-25 34,-69l184 43z"/>
   <path class="fil23" d="M5327 17113l13 50c-9,120 -24,66 55,89l0 -60c150,41 86,28 121,-126 -168,45 -100,-35 -123,92 0,-79 17,-58 -66,-45z"/>
   <path class="fil48" d="M4962 8779c61,-28 61,-25 109,-61l14 -141 -134 12c-56,183 1,-38 11,190z"/>
   <path class="fil51" d="M16961 7997l-29 88c84,13 70,12 126,47l40 -28 -12 -142 -96 -26c5,78 31,76 -29,61z"/>
   <path class="fil50" d="M9163 5291l134 21 23 -72c1,-13 4,-19 8,-28 -71,-44 -73,-58 -163,-55l-2 134z"/>
   <path class="fil21" d="M4413 9540c48,43 12,17 78,48 38,18 16,-6 65,33 65,0 44,-38 63,-127l-75 24c-45,-39 -15,-24 -98,-49l-33 71z"/>
   <path class="fil15" d="M18785 13332l-14 98 210 81c3,1 12,3 18,4 -12,-58 -40,-95 -8,-150l-56 -4c-3,81 -22,58 -51,98 -40,-104 -15,-73 -99,-127z"/>
   <path class="fil52" d="M3935 15256c-14,82 -3,67 -34,106 70,50 96,-11 141,-65l-2 90c34,-32 64,75 36,-146l-141 15z"/>
   <path class="fil53" d="M13243 19904c36,46 -68,61 97,33 96,-16 83,-49 87,-52l-76 -111 -108 130z"/>
   <path class="fil54" d="M7696 18634c-3,-113 65,-56 132,-31 -69,-86 -66,-59 -188,-23 -34,-121 10,-62 -105,-103 -38,34 -19,19 -39,61 107,74 72,61 200,96z"/>
   <path class="fil37" d="M16904 18046c61,0 50,18 50,-35l31 -63c-7,0 -18,3 -20,2l-144 -44c-18,63 -41,88 0,159l33 -69c25,38 7,23 50,50z"/>
   <path class="fil48" d="M6973 18563l13 124 197 32 -66 -71c-117,-124 -79,-24 -87,-122l-57 37z"/>
   <path class="fil39" d="M16961 7997c60,15 34,17 29,-61 -91,-39 -43,-13 -93,-80 -30,-40 12,-8 -41,-60 -78,-77 -13,-17 -80,-44 -120,35 -44,-74 53,106 31,60 -1,21 51,71l40 31c7,5 33,29 41,37z"/>
   <path class="fil55" d="M17138 17409l-5 88c42,-26 52,14 103,-95 70,-148 33,-59 -24,-107 -81,30 -34,-12 -74,114z"/>
   <path class="fil56" d="M18295 10714l36 79 65 -2c-3,-41 10,-73 -16,-118 -51,-88 -31,-31 -124,-90l39 131z"/>
   <path class="fil51" d="M3693 11433c-76,-62 39,-20 -83,-56 -28,-9 -59,-5 -89,-6 8,24 34,102 50,110 146,73 118,-46 122,-48z"/>
   <path class="fil52" d="M6738 6702c155,24 47,-18 157,47 49,-76 42,-79 -8,-159l122 -38 -108 7c-105,90 -28,69 -163,143z"/>
   <path class="fil50" d="M17864 16688l66 43c42,-52 42,-40 47,-96 11,-129 -30,-82 -83,-86l-30 139z"/>
   <path class="fil37" d="M7761 18734c-11,-123 -41,-96 77,-96 131,221 52,11 64,-2l-74 -33c-67,-25 -135,-82 -132,31l65 100z"/>
   <path class="fil57" d="M16778 17765c-87,97 -35,19 36,50 74,-91 17,-22 87,-61l33 49 -41 -101c-2,-13 -15,-10 -22,-16 40,-76 -81,-66 42,-60l-48 -5c-57,67 -64,69 -87,144z"/>
   <path class="fil31" d="M18960 14403l51 -187c-191,73 -163,4 -180,177l114 -85c12,-9 25,-18 37,-26l-22 121z"/>
   <path class="fil21" d="M4078 15567c-13,-106 -9,-82 -38,-180 -17,8 -37,11 -61,27 -43,27 -30,20 -58,46 31,15 41,17 80,46l77 61z"/>
   <path class="fil13" d="M6525 17755l90 94 122 29c-73,-132 -32,-40 -117,-134l-95 11z"/>
   <path class="fil58" d="M17214 17702l2 -2 54 -166 -154 87c86,116 -10,21 98,81z"/>
   <path class="fil49" d="M4081 14109c60,-68 42,-133 53,-243 -77,45 -10,17 -126,55l70 77c4,-6 14,14 23,22l-20 89z"/>
   <path class="fil59" d="M5970 7700c88,-10 85,-20 117,-77 -8,-7 -11,-18 -32,-29 -29,-16 -13,-12 -64,-24 -79,132 -12,0 -21,130z"/>
   <path class="fil34" d="M4179 15034c-25,-104 7,-120 -80,-153l24 55c-80,5 -51,-25 -67,66 67,32 7,-2 123,32z"/>
   <path class="fil48" d="M3935 15256c14,-51 14,-32 26,-57 26,-56 -5,45 29,-67l-127 -32c24,69 0,49 24,98 38,75 -15,8 48,58z"/>
   <path class="fil58" d="M4879 16749l56 -2c45,-56 41,-44 66,-114 -65,-61 5,-8 -102,-60 17,33 4,64 41,96 -67,44 -7,-20 -61,80z"/>
   <path class="fil50" d="M8698 19669l202 92 1 -126c-125,55 -39,43 -203,34z"/>
   <path class="fil60" d="M17575 16821l122 1 -33 -109c-98,32 -34,-20 -89,108z"/>
   <path class="fil57" d="M13392 5541c13,40 -38,31 34,32l79 0 -45 -81 -94 -30 26 79z"/>
   <path class="fil61" d="M6357 7546l51 -92c3,-4 60,-56 61,-57l-132 -6 20 155z"/>
   <path class="fil30" d="M16079 18773l84 -11 35 -59c-39,-75 34,-76 -56,-26 -86,48 -42,46 -63,96z"/>
   <path class="fil49" d="M6769 17979c-8,-21 -24,-76 -32,-101l-122 -29c64,90 48,84 154,130z"/>
   <path class="fil58" d="M9844 5554c46,37 49,42 134,19l-90 -103 -44 84z"/>
   <path class="fil50" d="M13548 19835l120 15c-26,-127 -27,-75 -55,-103l-65 88z"/>
   <path class="fil50" d="M4258 15165l-68 -108c-52,39 -39,-63 -43,76l111 32z"/>
   <path class="fil61" d="M5659 17097l93 11c-25,-57 1,-11 -37,-73 -3,-5 -14,-8 -17,-20 -2,-12 -11,-13 -17,-19 -36,62 -11,6 -22,101z"/>
   <path class="fil62" d="M3894 12017l60 -63c-57,-30 -32,45 -52,-92l-41 62 33 93z"/>
   <polygon class="fil63" points="17932,9920 17926,9887 17828,9803 17841,9891 "/>
   <path class="fil64" d="M11943 5108l0 -86c-106,-21 -28,-17 -70,45l70 41z"/>
   <path class="fil50" d="M13223 5142l-118 -32 -5 123c59,-44 32,-2 34,-101l89 10z"/>
   <path class="fil34" d="M14450 19445l-28 125c8,-6 18,-14 23,-18l43 -148 -38 41z"/>
   <polygon class="fil65" points="13159,5483 13217,5511 "/>
  </g>
 </g>
</svg>
