<?xml version="1.0" encoding="UTF-8"?>
<!DOCTYPE svg PUBLIC "-//W3C//DTD SVG 1.1//EN" "http://www.w3.org/Graphics/SVG/1.1/DTD/svg11.dtd">
<!-- Creator: CorelDRAW X8 -->
<svg xmlns="http://www.w3.org/2000/svg" xml:space="preserve" width="210mm" height="297mm" version="1.1" style="shape-rendering:geometricPrecision; text-rendering:geometricPrecision; image-rendering:optimizeQuality; fill-rule:evenodd; clip-rule:evenodd"
viewBox="0 0 21000 29700"
 xmlns:xlink="http://www.w3.org/1999/xlink">
 <defs>
  <style type="text/css">
   <![CDATA[
    .fil9 {fill:#33242C}
    .fil3 {fill:#443442}
    .fil4 {fill:#453A44}
    .fil8 {fill:#6B5B64}
    .fil10 {fill:#8D788D}
    .fil13 {fill:#8E8495}
    .fil11 {fill:#978996}
    .fil12 {fill:#C5B9B9}
    .fil6 {fill:#E4DCDA}
    .fil7 {fill:#E5E2E3}
    .fil2 {fill:#E9E1DE}
    .fil5 {fill:#EAE5E2}
    .fil1 {fill:#FAFAFA}
    .fil0 {fill:#FDFFFE}
   ]]>
  </style>
 </defs>
 <g id="Ebene_x0020_1">
  <metadata id="CorelCorpID_0Corel-Layer"/>
  <g id="_1565598701216">
   <path class="fil0" d="M16626 9871l-10 142 -76 6 -26 78 -246 111c-12,9 -29,26 -42,31 -73,29 -84,-21 -94,38 -141,14 -243,-1 -326,2 -184,8 -199,27 -403,-9l-532 -54c-94,-19 -54,-18 -138,17 -49,-81 -60,-29 -128,-37 -63,-7 -64,-24 -147,-26 -86,-2 -58,-19 -158,-21 -60,-2 -120,-1 -179,-3l-931 -68c-281,-9 -314,-58 -506,-27 -105,17 -45,0 -122,-10 -175,-21 4,39 -283,-39l-56 42c-188,-57 -376,-37 -534,-36 -88,1 -60,-25 -129,-19 -82,7 -64,2 -141,-5 -238,-22 -235,12 -313,9 -101,-4 -94,-27 -288,8 -108,20 -136,-13 -263,-17 -123,-4 -431,-1 -532,-57 -98,49 -35,29 -142,17 -159,-17 -279,39 -425,-50 -77,21 -353,10 -479,9 -186,-1 -191,4 -378,-25l-526 -31 -1403 46c-257,8 -669,39 -894,23l-561 31c-3,0 -8,1 -12,2 -91,20 21,18 -59,21 -21,1 -77,-20 -110,-27l-31 69c-30,-66 -7,-12 -35,-47 -166,31 -348,8 -497,26 -54,7 -78,23 -121,22 -226,-9 -35,-9 -240,12 -73,7 -63,-6 -105,21l-49 -41c-98,77 -628,55 -780,71 -103,10 -334,15 -409,43 -59,21 -423,19 -557,46 -64,13 -456,28 -599,59 -71,15 -335,43 -383,16 -30,-17 -77,-82 -94,-116 -40,-78 -28,-93 -116,-104 21,-41 8,1 18,-68 -59,-44 4,-18 -66,-41 27,-126 -11,-85 -42,-220 -21,-87 13,-174 14,-266l52 -46c-16,-43 -56,-66 -9,-112 62,33 5,7 71,28l32 -101c63,54 24,100 101,128 17,-26 17,26 17,-50l3 -181c29,-22 -7,-17 62,-25l-32 -24 55 -40c-44,-23 -50,0 -68,-60 -22,-75 4,-58 29,-69l-33 -51c69,-9 49,18 51,-71l51 51c5,-75 11,-82 -13,-137l20 -17c2,-2 7,-6 9,-8 3,-3 7,-7 9,-10 24,-33 2,-4 16,-35 22,-46 16,-37 51,-72 -31,-31 -26,-11 -34,-71 4,-2 9,-4 12,-5l79 -55c42,13 38,17 84,20 14,-112 -15,-77 37,-158 70,2 147,37 195,-32l-16 -8c-30,-9 -22,7 -48,-24 57,-10 56,-13 103,-28 3,3 8,8 10,10l102 46c-29,30 44,34 -51,30l45 62c8,-14 3,-13 8,-30 1,-2 1,-8 2,-10l13 -69c-28,-22 -21,23 -37,-28 -3,-8 -9,-8 -14,-12 98,-4 115,-48 218,-68 -13,-63 8,-48 7,-137l42 29c3,2 7,6 10,7 37,18 2,17 55,-2 -11,58 -11,31 -21,90 81,-8 70,-22 71,-107l111 14c2,-4 14,-27 15,-29l49 31 106 -25c19,-26 5,-10 17,-29l30 -34 26 53c46,-55 77,-37 144,-15l35 -72c71,9 48,21 71,53 97,-23 36,-16 126,-4 126,17 98,-8 160,-14 83,-9 37,6 53,15 4,2 7,6 10,8 180,122 134,-75 236,115 23,-38 15,-29 17,-89 12,17 10,11 23,39 1,2 8,27 8,33 5,-88 17,-103 -32,-176 91,12 15,19 111,18l29 -179c71,20 24,19 96,2l-3 73c66,-17 39,-16 103,-1 11,-63 15,-71 59,-103 45,-31 50,-26 32,-93 91,26 159,-19 211,72 4,-87 -9,-71 38,-108 3,4 7,9 8,12 17,40 7,60 45,78 34,-48 17,-30 22,-103 45,37 31,76 67,122 60,-27 36,15 53,-51l36 50 35 -82c62,31 81,21 160,12 61,-6 60,27 86,-22l20 21c4,3 17,14 21,17 42,34 -10,-7 34,24 15,-80 15,-32 -3,-114 -32,35 -28,42 -71,24l73 -39c26,-4 73,-3 102,-4 9,-92 -1,-19 -18,-96 2,2 19,18 29,26 66,49 55,22 75,7 18,76 19,22 27,99 52,-61 90,-19 146,-27 91,-12 55,-46 153,-5 49,-46 41,-35 124,-21 5,-72 -8,-37 30,-77l41 79c30,-5 58,-9 65,-42 1,-6 5,-8 8,-11 15,29 19,9 7,45l-27 44c91,-17 14,-10 95,-40 -35,85 -147,141 30,146 2,-3 5,-8 6,-11l28 -54 143 35c2,-4 4,-9 5,-11l6 -22c0,-1 1,-7 2,-8l10 -13c31,-40 20,34 29,-58 40,17 72,20 108,40 6,-7 19,-20 29,-27l126 13c40,13 12,35 92,31 78,-4 6,7 53,-19l64 78c55,63 122,77 192,45 2,-85 1,-51 -19,-106 3,-2 8,-5 9,-6 2,-1 8,-4 10,-5l27 -151 50 33c2,-3 3,-9 5,-13 36,-75 116,-55 178,-40 37,-45 0,-16 55,-52 0,61 -7,82 16,125l18 -103c48,5 110,33 103,-32 -5,-44 -36,-57 -42,-93 51,-58 45,-30 99,-62 71,-41 -22,-33 94,-42l12 101c23,-10 56,-24 83,-34 76,-30 14,31 76,-51l18 -17 6 -47c212,31 237,-11 314,-17 126,-9 52,8 88,-21 68,61 143,5 226,5 20,0 114,9 146,11 50,3 92,-2 148,-1l3 -45c44,66 86,44 184,36 33,-3 123,2 180,9l19 -18c2,-2 11,-11 13,-15l311 19c55,-3 163,37 393,2 171,-26 123,0 169,4 21,3 97,-17 143,-20 77,-7 267,-25 318,5 160,-83 736,15 869,-79l36 44c145,-7 267,20 408,17 69,-1 42,3 95,7 58,5 -5,-15 78,-2l91 16c119,17 36,53 161,-9 35,50 19,36 88,43l438 41c40,11 67,10 112,9 139,-4 149,17 290,5l388 15c9,2 118,18 124,18 62,1 13,-21 94,-7l1145 46c134,22 344,27 443,24 42,-2 66,-7 97,-1 53,10 39,23 94,22l1156 100c65,6 32,-6 89,32 29,20 49,25 78,47 46,35 64,117 75,184 50,304 56,198 4,456 -24,119 -2,144 -10,252 -6,75 -24,160 -19,248l61 460c23,92 1,-12 25,59 22,65 -3,68 33,157 47,117 -13,91 17,217 41,172 83,268 78,472z"/>
   <path class="fil1" d="M17300 7430c2,52 8,66 24,100 -61,70 -21,3 -30,72 -36,278 33,260 53,531l-15 1c20,48 31,66 40,118 10,55 -7,54 35,94 -63,137 -14,131 -3,266 21,243 78,396 65,548 -31,353 82,230 -95,329l-74 81c0,0 104,73 53,159 -20,17 -7,12 -38,26 -1,0 -31,8 -36,10 -14,62 -19,39 -37,103 -12,43 3,75 2,109l-56 207c4,34 34,19 20,110 -10,71 -28,62 -52,93 -63,85 0,155 -121,183l16 80c-166,-88 -109,24 -153,-64 -22,131 -70,104 -102,107 18,-39 21,-35 33,-74 -38,10 -62,18 -117,19 -64,0 -83,-11 -141,-4 -48,6 -66,24 -126,23 -57,-1 -80,-22 -142,-19l9 71c-57,2 -85,-4 -115,-19l-54 38 -62 -51c-137,62 -43,-21 -150,34l-36 -54c-83,4 -55,-3 -124,-23 -22,15 -2,-4 -31,22l-29 27c-3,3 -7,7 -11,11l-5 -54c-89,1 -96,-58 -344,-30 -1,-5 -3,-17 -4,-14l-32 -37c14,28 -90,33 -137,39 -118,16 -80,-35 -127,22l-890 -19c-65,12 -45,27 -120,13 -226,-43 -846,6 -966,-64 -88,38 -446,-23 -674,-23l-268 36 -16 60c10,-19 -43,-25 -70,-27 -92,-9 -107,12 -127,14l-465 -2c-128,-20 -143,12 -263,3 -93,39 -171,15 -246,-41 -93,118 -589,59 -672,69 -108,13 -589,-20 -712,-13 -205,12 -145,-23 -248,-14 -65,7 -68,32 -143,26 -63,-4 -52,-24 -119,-18 -171,15 -160,20 -222,-18l-31 43c-38,-43 -14,-13 -35,-30 -68,32 -161,18 -233,-10l-69 37c-4,-2 -11,-5 -14,-7l-39 -23c-37,20 -40,34 -98,30 -46,-2 -92,-1 -134,-3l-211 -25c-110,-7 -231,29 -234,29 -91,8 -160,-15 -245,-11 -61,3 -184,15 -232,2 -18,-5 -183,-23 -209,-19 -236,38 -123,10 -235,10 -14,0 -70,24 -113,24 -60,0 -22,-6 -81,-28 -43,28 -363,28 -383,26 -75,-10 -46,3 -89,12 -79,16 -17,-8 -75,-5 -75,4 -171,45 -251,-18 -45,30 -82,33 -141,31 -78,-3 -91,-30 -125,-52 -62,34 -108,23 -160,-14 -25,38 -15,44 -37,82 -90,6 -337,-26 -483,17l-350 4c-95,-3 -30,-18 -107,22l-87 -40c-64,41 -22,35 -124,29 -44,-2 -89,-7 -125,-9 -45,-1 -120,-10 -156,-5 -158,22 -343,11 -516,18 -64,3 -92,11 -126,-8l-18 10c-179,-7 -237,16 -326,-7 -25,-6 -84,-6 -124,-2 -97,10 -27,-25 -124,-20 -232,11 -404,-20 -619,-14 -164,5 -391,-1 -615,28 -94,11 -43,22 -153,5 -117,-18 -266,48 -454,58 -29,-20 -54,-26 -93,-41l-82 -41c-136,-84 -74,-93 -171,-92 5,-84 -9,-79 -28,-150l-34 -7c-1,-1 -5,0 -8,1 3,-14 7,-28 10,-36 2,-3 13,-15 14,-23 12,-75 -46,-191 -42,-260 4,-83 44,-171 -11,-249l67 -219c22,-74 -1,-80 8,-151 4,-40 31,-96 31,-125 1,-70 -16,-26 9,-126l54 -172c23,-43 24,-78 10,-121 -15,-41 -4,-20 -23,-44 3,-1 6,-4 7,-5l6 -83c35,-23 23,-19 39,-36 -22,-21 18,-3 -37,-37l32 -12c-7,-71 0,-111 -1,-182 -1,-93 -4,-59 -37,-123 28,-47 35,-10 24,-90 -10,-79 12,-14 -32,-56l54 -32c-11,-51 -36,-171 -20,-223 16,-50 39,-49 22,-124l-19 -43c81,-140 46,-261 79,-396 95,19 68,8 162,-3 -20,67 -27,65 -7,141l-51 3 -8 69c-1,-2 -5,8 -8,11l25 41c1,-3 6,7 8,10 -51,81 -26,119 -42,224 47,29 21,3 50,60l-103 142 76 52 -33 54c36,90 17,44 8,133l37 365 -40 52c18,91 28,204 -6,266 12,17 20,29 32,53 -69,74 -3,77 -23,149l-42 118c-40,125 -28,239 3,354 48,27 21,6 59,40 -3,119 -49,66 67,292 20,38 12,34 34,70 55,87 92,95 107,212l58 -20c-4,62 -10,74 45,94 111,41 200,27 301,6l598 -48c93,8 201,-38 296,-51 76,-10 -26,21 87,1 131,-25 225,3 325,-12l112 -9c11,0 82,-28 318,-34l901 -78c81,5 363,-6 430,-35 25,11 36,18 53,29 132,-78 288,-7 432,-44 130,-34 340,-2 437,-17 82,-14 228,2 302,-45 56,27 74,12 141,11 109,-3 19,31 115,-31 57,62 155,21 241,17l624 -17c185,12 105,-2 245,-9l368 -15c82,5 28,14 110,-8 80,-21 28,-10 85,3 53,12 182,-9 223,11l38 -27c2,-6 7,-8 10,-11 90,28 304,50 408,47l346 23c75,-6 92,-8 162,15 146,49 351,-46 486,-9 5,1 9,3 14,5l92 -27c63,61 198,41 282,46l391 27c61,1 26,15 102,18 148,4 294,-4 444,15 106,13 301,23 377,-29 116,59 432,21 568,34 66,7 68,31 159,23 81,-7 73,-19 161,-3 140,26 179,-3 301,47 59,-21 93,-46 159,-28 105,28 107,-8 177,-7 117,3 248,69 356,14 119,57 375,36 522,57 175,26 369,-3 542,25 40,34 11,16 55,15l87 25c20,-15 33,-23 51,-38 42,38 290,56 367,55 59,-2 180,53 245,54 20,0 78,-5 100,-3 107,7 648,50 745,85 45,-32 -10,-7 62,-18 -18,38 102,3 133,3 203,-4 357,39 629,-119 72,-42 14,-39 97,-68 106,-37 223,-63 270,-155 47,-91 61,-66 101,-125 24,-35 -4,-17 41,-66 -2,-72 13,-185 -9,-238 -29,-68 -1,-26 -40,-64 31,-30 12,-4 40,-53 -29,-69 -26,-43 -33,-122l-71 -38c15,-42 7,3 16,-65 10,-88 -55,-167 -75,-264 -21,-103 1,-28 2,-114 -60,-66 -17,1 -43,-73 -11,-32 -30,-44 -4,-51 -40,-115 -49,-166 -45,-302l0 -67c-32,-171 -8,-136 12,-304 16,-136 -15,-292 48,-409 -34,-80 10,-94 -58,-146 3,-4 15,-19 18,-23l15 -26c-28,-89 -22,-13 -26,-107 -5,-92 -32,-103 -52,-176 -10,-35 -3,-37 -31,-76 -86,-118 -151,-97 -277,-161 -117,-60 -245,-67 -379,-70 -99,-3 -305,-48 -377,3 -59,-53 -103,-38 -183,-39 -88,0 -561,-73 -662,-14 -69,-32 -98,-56 -166,-6 -85,-54 -119,-36 -248,-36 -98,-1 -193,7 -284,-20 -38,37 -9,-34 -35,40l-24 -26c-1,-6 -8,-6 -12,-10 -101,11 -409,-36 -471,12l-125 -31c-75,-3 -50,18 -131,16 -69,-2 -86,-22 -136,-20 -110,3 -550,9 -648,-19 -142,-40 -342,-6 -444,-37 -133,-40 -291,-50 -423,-55 -100,-4 -183,-46 -265,19l-21 -33c-1,-2 -6,-5 -7,-11 -1,-6 -5,-7 -8,-10 -80,9 -155,-17 -233,-6 -137,18 -281,-22 -434,-5 -31,4 -77,12 -110,15 -68,7 2,21 -70,-17 -83,64 -141,-15 -270,47l-43 -34c-2,-7 -7,-8 -10,-12 -82,74 -238,26 -338,63 -72,-44 -130,-14 -230,-9 -77,4 -156,-5 -228,-1 -87,6 -327,50 -399,-16 -52,21 -32,16 -48,25 -113,66 55,-21 -35,22 -24,-24 -28,-27 -53,-48 -117,56 -264,9 -386,16 -79,4 -160,-21 -212,32 -119,-60 -316,20 -466,-2 -3,3 -8,8 -9,10l-29 38 -33 -45c-54,19 -88,31 -124,56l-21 -21c-2,-2 -12,-15 -15,-20 -58,8 -54,2 -107,2 -106,0 -34,6 -91,17 -105,19 -49,-25 -162,-8l-529 54c-133,48 -946,36 -1156,37 -162,0 -74,8 -140,17 -56,8 -72,-25 -174,4 -62,18 -239,48 -287,38 -90,-20 -64,-8 -157,-1 -117,8 -246,16 -372,24 -300,19 -610,71 -904,89 -41,3 -54,20 -75,24l-189 14c-88,14 -498,-33 -624,-34l-390 21c-63,-5 -96,9 -153,-2 -66,-13 -117,-55 -140,30l-50 -24c-4,-2 -25,-12 -30,-15 -74,46 -157,16 -246,22 -100,7 -108,-10 -206,16 -106,28 -170,-6 -276,4 -101,10 -129,39 -228,0l-6 -89 66 -20c-11,-61 -27,-66 36,-86 48,-16 53,-6 97,-25 149,-65 288,-56 347,-66 69,-12 101,1 193,-23l257 -52c21,0 105,50 255,-1 42,-14 98,-5 161,-8 56,-2 -21,25 79,2 61,-14 12,-13 74,-32 33,7 107,31 142,29 63,-3 43,-34 124,-34 78,0 214,37 310,11 182,-48 50,-14 137,-4 46,5 75,-19 138,-19 134,1 194,11 323,-14 86,-17 82,8 157,8 46,1 99,-13 141,-14 68,-1 97,6 177,-2l568 -16c84,-20 49,-24 125,6l44 -36c1,-7 7,-7 10,-11 38,39 33,30 126,8 46,-11 52,2 100,-3 79,-7 44,-25 139,-16 251,25 155,-40 326,-15 59,8 206,-13 284,-19 23,19 16,17 46,26 -3,-65 -9,-14 -20,-74 55,27 47,59 147,44 61,-9 6,-10 83,-4l430 -22c115,-7 259,-8 352,-16 106,-9 203,2 337,-16l345 -21c144,-10 261,-27 401,-5 53,9 11,6 70,-10 61,-16 116,7 254,-14 81,-13 -43,-22 181,-20 82,1 90,1 161,4l33 -46c74,42 233,15 338,15 96,0 112,-15 179,-22 54,-6 104,20 164,7 132,-26 230,-13 358,-30 94,-12 99,-8 186,-7 77,2 99,1 141,-36 99,63 443,-16 444,-16 92,42 315,2 425,3 68,0 142,-14 203,-12 210,6 118,-16 191,-28l333 13c242,-26 429,-20 661,-7l302 1c24,-2 40,0 77,-1l297 5c72,5 47,-7 85,-9l211 9c75,0 142,-19 204,-8 112,19 101,6 204,4 142,-2 248,11 390,6 137,-4 204,20 407,28l340 3c64,1 53,15 86,15 17,0 49,-21 86,-19 23,1 69,22 79,23 74,13 27,-5 87,-8l402 22c43,6 -21,22 60,10 63,-10 4,-6 85,2l549 32c57,-1 -29,-24 65,6 123,39 188,-7 362,73 76,-46 108,-3 178,9 78,14 112,-2 159,2 39,3 27,8 75,23 91,28 34,16 77,38 45,23 191,7 241,359 12,88 -24,26 15,160 24,81 -1,57 1,170l73 12c-59,96 23,30 -35,129z"/>
   <path class="fil2" d="M17094 11347c-27,38 57,31 -46,31 1,2 10,29 16,69 -81,-9 -39,-10 -104,5l-32 75 -36 -69c16,121 -3,46 -21,69l-89 -90c-76,42 -22,4 -106,8 -52,47 -18,34 -96,48 -12,-24 -17,-44 -28,-71 -36,15 -1,0 -28,16 -6,4 -14,11 -36,21 14,105 -24,70 -102,108 -54,26 -47,-5 -189,2 -3,3 -10,3 -11,10l-356 86c-71,15 -61,15 -66,-48 -5,3 -12,4 -15,11l-62 19c-3,0 -9,1 -13,1 -72,9 -71,8 -146,6 28,-11 20,-33 12,-52l-110 35c-37,21 -28,39 -85,53l-122 -103c-2,2 -7,4 -9,9 -7,34 -20,14 -26,13 -2,-40 -72,-26 -113,-6 -33,16 -28,32 -102,-35 -60,25 -74,39 -131,17l16 70 -263 10c-55,-6 -35,13 -89,-9 -1,29 6,42 -10,59 -22,24 -8,5 -43,-24l14 87c-181,-55 -133,0 -238,4l-570 26c-122,4 -90,-28 -167,-48 -39,-10 -68,10 -179,-13 -114,-23 -298,-63 -416,-49l-37 -35c-67,50 -183,22 -282,33 -80,9 -26,30 -141,18 -62,-6 -77,-8 -143,-26 -63,26 -75,6 -159,2 -83,-3 -114,-8 -160,-36 -47,52 -94,51 -178,34 -73,35 -197,4 -301,-7 -104,-10 -234,9 -320,-42 -145,44 -282,40 -426,51 -35,2 -63,-1 -99,-14 0,0 -33,-17 -36,-18 -87,-27 -3,-7 -51,-2 -82,10 -96,-7 -202,4l-13 -59c-73,21 -362,-6 -448,-15 -162,-15 -51,18 -178,34 -211,28 -299,-39 -412,-57l-635 -14c-146,8 -278,-27 -427,-33 -79,-2 -157,6 -231,4 -154,-3 -276,-81 -428,-21 -106,41 -374,-98 -582,13 -94,-79 -223,-58 -348,-37 -153,25 -194,-54 -397,31 -98,-52 -177,-44 -302,-40l-49 72c-27,-63 -13,-9 -38,-66l-108 -3c-56,-2 -58,31 -142,29 -30,-67 -9,-78 -111,-90 -53,136 -31,63 -95,83l-149 37c-49,5 -79,14 -102,50 22,-68 10,-10 -7,-54 -25,19 -86,-35 -36,52 -12,-42 -41,-42 -84,-75 -12,-8 -69,-87 -95,30 -1,3 3,9 5,14l-150 -38c-2,-2 -6,-7 -10,-10 -8,7 -17,11 -35,31 -31,-56 9,3 -44,-30 -67,51 -70,22 -154,22l-175 30c-3,-5 -10,-16 -12,-19 -2,-2 -6,-9 -8,-11l-22 -25c-7,73 -67,34 -146,13 -181,-49 -99,6 -210,-15 -44,-8 -81,3 -142,-5l-276 -25c-3,4 -7,5 -8,11l-27 40c-45,-69 -72,-25 -116,-54 -5,4 -13,2 -16,10l-46 42c-43,-15 -110,-51 -141,-55 -140,-16 -23,41 -157,-15 -66,-28 -290,-2 -376,-3l-35 -52c-75,5 -39,-6 -89,26l-60 -39c-3,1 -17,9 -22,10 -26,6 -34,0 -60,-8 -3,4 -7,6 -8,12 -6,24 -24,30 -45,38l-36 -51c-77,6 -63,18 -139,-19l-83 -55c-10,-9 -7,-9 -35,-22 18,-40 7,-8 20,-71l-53 -2c48,-26 22,-16 48,-40l-41 -37c-14,-19 -3,0 -10,-16l-8 -26c0,-2 -9,-27 -10,-30l-1 -66c-9,-67 0,-14 -14,-25l30 22c2,2 8,7 12,11 4,-5 9,-17 10,-14l115 -73 88 -28c180,72 104,-9 249,9 120,14 296,36 396,10 107,-28 99,11 165,7 6,0 22,-5 28,-5 20,-2 44,-5 67,-4 99,5 108,49 108,-5 58,3 123,16 160,19 34,2 50,-5 88,-3 131,7 15,-13 123,-16l210 16c37,-2 -5,-12 73,-15l515 20c41,-42 9,-25 56,-24l1017 -19c192,23 267,-29 341,-22 101,10 270,20 395,13 65,-4 62,-27 179,-20l336 -14c58,1 83,29 147,19 132,-21 229,-22 373,-16l31 -52c116,53 63,53 123,99 17,-24 23,14 -2,-73 84,28 308,24 410,6 149,-25 58,27 234,-3l45 47c54,-65 80,-29 176,-39 107,-12 439,-33 521,8 170,-61 83,3 198,-7 256,-23 254,14 464,-2 135,-11 84,63 225,-6 42,64 52,24 128,57l32 -39c91,12 55,10 127,-17l32 37c5,-2 11,-5 14,-6l184 1c2,1 7,3 8,3 2,1 6,5 8,6l17 19c167,-38 126,-12 265,-11 169,1 124,14 265,28 108,10 43,10 126,-17 57,23 31,15 89,14l123 0c74,14 -20,21 72,23 92,2 9,-33 144,-13 56,8 118,6 176,2 59,-3 267,37 488,31l289 27c140,24 49,-31 173,-2 40,9 124,39 153,43 49,5 247,-19 369,-7l249 21c84,-3 75,3 123,43 104,-79 63,-14 177,-15 66,-1 45,-12 125,4l354 31c65,6 40,18 108,23 71,5 370,-6 429,12 191,58 116,13 280,36 86,12 45,1 124,-2 62,-2 170,14 213,36 49,-22 246,-22 298,-12 200,39 1,30 284,43 82,4 6,32 121,19 121,-13 36,10 148,20 105,9 199,0 284,40 47,-32 19,-20 71,-42l53 47c157,-26 191,49 318,31 80,-10 239,-20 303,32l46 -11z"/>
   <path class="fil3" d="M16900 9740c13,114 17,25 -47,60 -5,-97 2,-109 -105,-116 5,142 6,91 24,123l19 29c-92,42 -37,-1 -60,53 -12,28 12,9 -11,41 -31,42 13,1 -44,30 -44,-51 -29,69 -36,-89l-14 0c5,-204 -37,-300 -78,-472 -30,-126 30,-100 -17,-217 -36,-89 -11,-92 -33,-157 -24,-71 -2,33 -25,-59l-61 -460c-5,-88 13,-173 19,-248 8,-108 -14,-133 10,-252 52,-258 46,-152 -4,-456 -11,-67 -29,-149 -75,-184 -29,-22 -49,-27 -78,-47 -57,-38 -24,-26 -89,-32l-1156 -100c-55,1 -41,-12 -94,-22 -31,-6 -55,-1 -97,1 -99,3 -309,-2 -443,-24l-1145 -46c-81,-14 -32,8 -94,7 -6,0 -115,-16 -124,-18l-388 -15c-141,12 -151,-9 -290,-5 -45,1 -72,2 -112,-9l-438 -41c-69,-7 -53,7 -88,-43 -125,62 -42,26 -161,9l-91 -16c-83,-13 -20,7 -78,2 -53,-4 -26,-8 -95,-7 -141,3 -263,-24 -408,-17l-36 -44c-133,94 -709,-4 -869,79 -51,-30 -241,-12 -318,-5 -46,3 -122,23 -143,20 -46,-4 2,-30 -169,-4 -230,35 -338,-5 -393,-2l-311 -19c-2,4 -11,13 -13,15l-19 18c-57,-7 -147,-12 -180,-9 -98,8 -140,30 -184,-36l-3 45c-56,-1 -98,4 -148,1 -32,-2 -126,-11 -146,-11 -83,0 -158,56 -226,-5 -36,29 38,12 -88,21 -77,6 -102,48 -314,17 -52,26 -70,20 -147,21 -76,1 -121,9 -188,1 -49,-6 -73,13 -151,20 -63,6 -91,-2 -141,35l-53 -32c-105,35 -81,54 -163,-3 -29,58 -105,49 -174,50 -12,-13 -21,-16 -36,-40 -30,57 -28,52 -175,45l-482 13c-111,-5 -177,-7 -247,32 -81,-47 -206,-16 -339,-4 -94,10 -58,-16 -94,40 -99,-48 -35,-61 -192,-29 -112,22 -149,-25 -227,37 -94,-20 -120,-34 -234,-4 -237,62 -321,39 -477,52 -126,10 -58,66 -229,20 -63,69 -58,22 -140,39 -87,18 -20,37 -144,20l-488 13c-55,10 -40,42 -159,7 -134,-41 -209,-8 -346,0l-33 -36c-14,34 -20,24 -38,40 -197,-28 -230,8 -494,0 -96,-3 -135,20 -163,22 -42,4 -11,-9 -68,-3 -38,4 -25,12 -57,14 -62,4 25,-11 -63,-2 -22,2 -44,8 -78,9 -149,4 -157,-41 -276,58 39,104 -52,324 -52,438 0,74 19,66 -24,130 32,59 33,67 18,164 -15,97 4,26 5,85 0,29 -18,69 -19,89 -2,69 14,-3 12,63 -5,147 34,235 -21,330l44 46c-8,6 -14,7 -15,13 -1,5 -8,8 -9,9 -3,2 -22,15 -24,17 10,31 39,82 43,101 8,42 -22,37 -8,129l-29 20c-3,1 -9,6 -12,7 -2,2 -8,6 -12,9 3,3 8,4 9,10 1,9 13,18 15,22 8,17 7,16 14,38 11,39 14,45 13,88 -47,46 -7,69 9,112l-52 46c-1,92 -35,179 -14,266 31,135 69,94 42,220 70,23 7,-3 66,41 -10,69 3,27 -18,68 88,11 76,26 116,104 17,34 64,99 94,116 48,27 312,-1 383,-16 143,-31 535,-46 599,-59 134,-27 498,-25 557,-46 75,-28 306,-33 409,-43 152,-16 682,6 780,-71l49 41c42,-27 32,-14 105,-21 205,-21 14,-21 240,-12 43,1 67,-15 121,-22 149,-18 331,5 497,-26 28,35 5,-19 35,47l31 -69c33,7 89,28 110,27 80,-3 -32,-1 59,-21 4,-1 9,-2 12,-2l561 -31c225,16 637,-15 894,-23l1403 -46 526 31c187,29 192,24 378,25 126,1 402,12 479,-9 146,89 266,33 425,50 107,12 44,32 142,-17 101,56 409,53 532,57 127,4 155,37 263,17 194,-35 187,-12 288,-8 78,3 75,-31 313,-9 77,7 59,12 141,5 69,-6 41,20 129,19 158,-1 346,-21 534,36l56 -42c287,78 108,18 283,39 77,10 17,27 122,10 192,-31 225,18 506,27l931 68c59,2 119,1 179,3 100,2 72,19 158,21 83,2 84,19 147,26 68,8 79,-44 128,37 84,-35 44,-36 138,-17l532 54c204,36 219,17 403,9 83,-3 185,12 326,-2 55,38 -5,19 78,20 -16,67 10,76 -64,84 -27,4 -46,-12 -91,-13 -9,57 3,-3 -25,39 -1,1 -3,4 -4,5l-15 38c-47,86 -210,-82 -276,51l-88 -41c-31,39 -20,-26 -9,48 -72,11 -17,-14 -62,18 -97,-35 -638,-78 -745,-85 -22,-2 -80,3 -100,3 -65,-1 -186,-56 -245,-54 -77,1 -325,-17 -367,-55 -18,15 -31,23 -51,38l-87 -25c-44,1 -15,19 -55,-15 -173,-28 -367,1 -542,-25 -147,-21 -403,0 -522,-57 -108,55 -239,-11 -356,-14 -70,-1 -72,35 -177,7 -66,-18 -100,7 -159,28 -122,-50 -161,-21 -301,-47 -88,-16 -80,-4 -161,3 -91,8 -93,-16 -159,-23 -136,-13 -452,25 -568,-34 -76,52 -271,42 -377,29 -150,-19 -296,-11 -444,-15 -76,-3 -41,-17 -102,-18l-391 -27c-84,-5 -219,15 -282,-46l-92 27c-5,-2 -9,-4 -14,-5 -135,-37 -340,58 -486,9 -70,-23 -87,-21 -162,-15l-346 -23c-104,3 -318,-19 -408,-47 -3,3 -8,5 -10,11l-38 27c-41,-20 -170,1 -223,-11 -57,-13 -5,-24 -85,-3 -82,22 -28,13 -110,8l-368 15c-140,7 -60,21 -245,9l-624 17c-86,4 -184,45 -241,-17 -96,62 -6,28 -115,31 -67,1 -85,16 -141,-11 -74,47 -220,31 -302,45 -97,15 -307,-17 -437,17 -144,37 -300,-34 -432,44 -17,-11 -28,-18 -53,-29 -67,29 -349,40 -430,35l-901 78c-236,6 -307,34 -318,34l-112 9c-100,15 -194,-13 -325,12 -113,20 -11,-11 -87,-1 -95,13 -203,59 -296,51l-598 48c-101,21 -190,35 -301,-6 -55,-20 -49,-32 -45,-94l-58 20c-15,-117 -52,-125 -107,-212 -22,-36 -14,-32 -34,-70 -116,-226 -70,-173 -67,-292 -38,-34 -11,-13 -59,-40 -31,-115 -43,-229 -3,-354l42 -118c20,-72 -46,-75 23,-149 -12,-24 -20,-36 -32,-53 34,-62 24,-175 6,-266l40 -52 -37 -365c9,-89 28,-43 -8,-133l33 -54 -76 -52 103 -142c-29,-57 -3,-31 -50,-60 16,-105 -9,-143 42,-224 -2,-3 -7,-13 -8,-10l-25 -41c3,-3 7,-13 8,-11l8 -69 51 -3c-20,-76 -13,-74 7,-141 -94,11 -67,22 -162,3 -33,135 2,256 -79,396l19 43c17,75 -6,74 -22,124 -16,52 9,172 20,223l-54 32c44,42 22,-23 32,56 11,80 4,43 -24,90 33,64 36,30 37,123 1,71 -6,111 1,182l-32 12c55,34 15,16 37,37 -16,17 -4,13 -39,36l-6 83c-1,1 -4,4 -7,5 19,24 8,3 23,44 14,43 13,78 -10,121l-54 172c-25,100 -8,56 -9,126 0,29 -27,85 -31,125 -9,71 14,77 -8,151l-67 219c55,78 15,166 11,249 -4,69 54,185 42,260 -1,8 -12,20 -14,23 -3,8 -7,22 -10,36 3,-1 7,-2 8,-1l34 7c19,71 33,66 28,150 97,-1 35,8 171,92l82 41c39,15 64,21 93,41l-9 91 118 -18c-36,88 30,38 -73,75 18,91 11,26 2,65l-224 -39c-28,-22 -25,-30 -43,-41 -39,-26 -26,-3 -61,-27 -37,-25 -12,-21 -44,-45 -18,-14 -39,-19 -58,-29l-26 -53c-50,-87 -30,1 -100,-141 -109,-223 -52,-453 -65,-535 -12,-72 -10,-45 -6,-129 4,-77 -19,-75 -32,-143 22,-40 62,-78 69,-126 7,-52 -4,-42 8,-101 23,-114 20,-282 84,-376l-22 -107 67 1c-15,-41 18,4 -43,-46 10,-71 1,-92 -18,-149l45 -53c-2,-51 4,-59 7,-95 7,-79 -62,-86 14,-171 -2,-4 -4,-13 -5,-11 -1,3 -4,-8 -6,-10l19 -101c-99,-112 14,-123 -35,-328 -24,-102 7,-75 14,-138l10 -158c5,-78 12,-95 20,-146l19 -279c7,-87 23,-66 41,-142l-52 -53c11,-78 27,-89 15,-131 -2,-4 -12,-23 -14,-29 34,-68 59,-101 60,-177 138,-78 1,-48 159,-107 22,25 15,18 44,35l8 -44 230 2c40,51 3,60 -43,61 31,56 17,64 72,71l-37 57c-44,19 -49,9 -97,25 -63,20 -47,25 -36,86l-66 20 6 89c99,39 127,10 228,0 106,-10 170,24 276,-4 98,-26 106,-9 206,-16 89,-6 172,24 246,-22 5,3 26,13 30,15l50 24c23,-85 74,-43 140,-30 57,11 90,-3 153,2l390 -21c126,1 536,48 624,34l189 -14c21,-4 34,-21 75,-24 294,-18 604,-70 904,-89 126,-8 255,-16 372,-24 93,-7 67,-19 157,1 48,10 225,-20 287,-38 102,-29 118,4 174,-4 66,-9 -22,-17 140,-17 210,-1 1023,11 1156,-37l529 -54c113,-17 57,27 162,8 57,-11 -15,-17 91,-17 53,0 49,6 107,-2 3,5 13,18 15,20l21 21c36,-25 70,-37 124,-56l33 45 29 -38c1,-2 6,-7 9,-10 150,22 347,-58 466,2 52,-53 133,-28 212,-32 122,-7 269,40 386,-16 25,21 29,24 53,48 90,-43 -78,44 35,-22 16,-9 -4,-4 48,-25 72,66 312,22 399,16 72,-4 151,5 228,1 100,-5 158,-35 230,9 100,-37 256,11 338,-63 3,4 8,5 10,12l43 34c129,-62 187,17 270,-47 72,38 2,24 70,17 33,-3 79,-11 110,-15 153,-17 297,23 434,5 78,-11 153,15 233,6 3,3 7,4 8,10 1,6 6,9 7,11l21 33c82,-65 165,-23 265,-19 132,5 290,15 423,55 102,31 302,-3 444,37 98,28 538,22 648,19 50,-2 67,18 136,20 81,2 56,-19 131,-16l125 31c62,-48 370,-1 471,-12 4,4 11,4 12,10l24 26c26,-74 -3,-3 35,-40 91,27 186,19 284,20 129,0 163,-18 248,36 68,-50 97,-26 166,6 101,-59 574,14 662,14 80,1 124,-14 183,39 72,-51 278,-6 377,-3 134,3 262,10 379,70 126,64 191,43 277,161 28,39 21,41 31,76 20,73 47,84 52,176 4,94 -2,18 26,107l-15 26c-3,4 -15,19 -18,23 68,52 24,66 58,146 -63,117 -32,273 -48,409 -20,168 -44,133 -12,304l0 67c-4,136 5,187 45,302 -26,7 -7,19 4,51 26,74 -17,7 43,73 -1,86 -23,11 -2,114 20,97 85,176 75,264 -9,68 -1,23 -16,65l71 38c7,79 4,53 33,122 -28,49 -9,23 -40,53 39,38 11,-4 40,64z"/>
   <path class="fil4" d="M17500 6923c12,64 10,56 -17,93 27,32 21,21 30,71l20 67c29,84 -27,13 32,110 26,98 -19,208 37,299 38,63 26,50 36,126 8,58 44,128 -15,178 23,24 -41,14 56,15 -34,86 -27,17 18,97 110,195 84,273 121,365 17,45 7,11 22,46l43 115c16,49 2,12 0,57 -5,118 90,127 60,263l52 29c-16,80 57,455 48,499l-31 39c74,45 41,-14 60,184 9,83 33,135 41,224l-41 36c22,70 26,29 0,124l38 37 -45 35 34 31c-28,61 -32,287 -44,373 -15,114 -6,18 5,127l-64 48 25 147c0,5 -1,10 -2,14l-8 24c-34,111 -36,58 -71,130 -9,19 -10,28 -18,51 -17,46 -31,66 -32,125 -96,21 -30,3 -64,38l-32 74 -148 5c-34,48 -58,56 -138,73 -177,38 -9,61 -280,33 -88,-9 -23,53 -127,-1l-7 23 -46 11c-64,-52 -223,-42 -303,-32 -127,18 -161,-57 -318,-31l-53 -47c-52,22 -24,10 -71,42 -85,-40 -179,-31 -284,-40 -112,-10 -27,-33 -148,-20 -115,13 -39,-15 -121,-19 -283,-13 -84,-4 -284,-43 -52,-10 -249,-10 -298,12 -43,-22 -151,-38 -213,-36 -79,3 -38,14 -124,2 -164,-23 -89,22 -280,-36 -59,-18 -358,-7 -429,-12 -68,-5 -43,-17 -108,-23l-354 -31c-80,-16 -59,-5 -125,-4 -114,1 -73,-64 -177,15 -48,-40 -39,-46 -123,-43l-249 -21c-122,-12 -320,12 -369,7 -29,-4 -113,-34 -153,-43 -124,-29 -33,26 -173,2l-289 -27c-221,6 -429,-34 -488,-31 -58,4 -120,6 -176,-2 -135,-20 -52,15 -144,13 -92,-2 2,-9 -72,-23l-123 0c-58,1 -32,9 -89,-14 -83,27 -18,27 -126,17 -141,-14 -96,-27 -265,-28 -139,-1 -98,-27 -265,11l-17 -19c-2,-1 -6,-5 -8,-6 -1,0 -6,-2 -8,-3l-184 -1c-3,1 -9,4 -14,6l-32 -37c-72,27 -36,29 -127,17l-32 39c-76,-33 -86,7 -128,-57 -141,69 -90,-5 -225,6 -210,16 -208,-21 -464,2 -115,10 -28,-54 -198,7 -82,-41 -414,-20 -521,-8 -96,10 -122,-26 -176,39l-45 -47c-176,30 -85,-22 -234,3 -102,18 -326,22 -410,-6 25,87 19,49 2,73 -60,-46 -7,-46 -123,-99l-31 52c-144,-6 -241,-5 -373,16 -64,10 -89,-18 -147,-19l-336 14c-117,-7 -114,16 -179,20 -125,7 -294,-3 -395,-13 -74,-7 -149,45 -341,22l-1017 19c-47,-1 -15,-18 -56,24l-515 -20c-78,3 -36,13 -73,15l-210 -16c-108,3 8,23 -123,16 -38,-2 -54,5 -88,3 -37,-3 -102,-16 -160,-19l-41 -11c-5,-122 7,-8 30,-116 3,-16 -10,8 9,-48l18 -10c34,19 62,11 126,8 173,-7 358,4 516,-18 36,-5 111,4 156,5 36,2 81,7 125,9 102,6 60,12 124,-29l87 40c77,-40 12,-25 107,-22l350 -4c146,-43 393,-11 483,-17 22,-38 12,-44 37,-82 52,37 98,48 160,14 34,22 47,49 125,52 59,2 96,-1 141,-31 80,63 176,22 251,18 58,-3 -4,21 75,5 43,-9 14,-22 89,-12 20,2 340,2 383,-26 59,22 21,28 81,28 43,0 99,-24 113,-24 112,0 -1,28 235,-10 26,-4 191,14 209,19 48,13 171,1 232,-2 85,-4 154,19 245,11 3,0 124,-36 234,-29l211 25c42,2 88,1 134,3 58,4 61,-10 98,-30l39 23c3,2 10,5 14,7l69 -37c72,28 165,42 233,10 21,17 -3,-13 35,30l31 -43c62,38 51,33 222,18 67,-6 56,14 119,18 75,6 78,-19 143,-26 103,-9 43,26 248,14 123,-7 604,26 712,13 83,-10 579,49 672,-69 75,56 153,80 246,41 -39,60 -62,11 -58,88 43,12 61,26 113,-53l58 33c59,36 10,-13 49,56 101,-39 188,-53 319,-18l-16 -56c36,20 25,21 52,38 60,41 29,-16 63,57 1,-15 -1,-22 4,-34 10,-29 12,-28 21,-42 44,12 46,23 85,4 31,31 12,0 36,48l56 -31c24,21 45,44 92,51 126,20 60,-52 185,6 5,2 50,18 61,22 120,-72 112,-20 193,-16 18,1 123,-6 144,-6 6,1 10,0 15,0l131 5c26,-18 1,-3 31,-19 88,54 47,5 60,77 22,-48 14,-29 44,-63 87,10 15,2 57,15 78,24 114,-7 176,37 73,-40 106,-15 184,11l40 3c-29,-54 -7,-36 0,-55 18,32 4,19 24,42 3,4 8,8 11,12l25 19c27,-15 52,-31 89,-43l22 21c29,26 4,5 31,27l116 -15c25,42 -28,9 38,39 36,-10 152,-40 183,-36 103,12 -15,12 92,23 94,10 82,-19 193,8 71,16 26,11 88,37l195 -44c14,18 26,36 67,32 88,-9 -40,-26 96,-25 18,-5 -27,-38 32,16l89 -39c49,43 25,12 44,87 162,-20 195,-1 366,10 79,5 27,21 104,26 125,10 448,32 540,13 17,32 -4,9 28,34l32 -59 36 49c95,6 91,-3 182,23l238 43c69,19 84,-4 152,-5 63,-1 71,20 139,18 86,-1 183,17 241,8 57,-10 58,5 105,13 55,9 48,-11 111,-21l92 42c67,-34 147,-19 223,-38 100,-25 82,-70 187,-74l14 -54 92 11c-30,-81 -27,-41 5,-95 12,-20 3,6 22,-39 24,-58 31,-110 41,-183l36 -10c-14,-190 14,-104 12,-154 -4,-78 38,67 -15,-36 -1,-4 -6,-9 -10,-13 107,-104 -17,-67 69,-178 -18,-100 -11,-34 -3,-142l-62 -35 49 -13 -2 -160c7,-80 0,-120 5,-199l23 -239c-15,-10 -40,-28 -62,-45l-6 -120c27,-72 39,-42 -12,-93l43 -61 -105 -308c-20,-63 -28,-80 -7,-128 -94,-114 -6,-168 -113,-226 3,-4 8,-15 9,-12l24 -38c-3,-3 -7,-11 -8,-9l-85 -235c-83,-164 -25,-156 -115,-224l-27 -263c-7,-65 -62,-178 -72,-257l-38 -24c58,-99 -24,-33 35,-129l-73 -12c-2,-113 23,-89 -1,-170 -39,-134 -3,-72 -15,-160 -50,-352 -196,-336 -241,-359 -43,-22 14,-10 -77,-38 -48,-15 -36,-20 -75,-23 -47,-4 -81,12 -159,-2 -70,-12 -102,-55 -178,-9 -174,-80 -239,-34 -362,-73 -94,-30 -8,-7 -65,-6l-549 -32c-81,-8 -22,-12 -85,-2 -81,12 -17,-4 -60,-10l-402 -22c-60,3 -13,21 -87,8 -10,-1 -56,-22 -79,-23 -37,-2 -69,19 -86,19 -33,0 -22,-14 -86,-15l-340 -3c-203,-8 -270,-32 -407,-28 -142,5 -248,-8 -390,-6 -103,2 -92,15 -204,-4 -62,-11 -129,8 -204,8l-211 -9c-38,2 -13,14 -85,9l-297 -5c-37,1 -53,-1 -77,1l-302 -1c-232,-13 -419,-19 -661,7l-333 -13c-73,12 19,34 -191,28 -61,-2 -135,12 -203,12 -110,-1 -333,39 -425,-3 -1,0 -345,79 -444,16 -42,37 -64,38 -141,36 -87,-1 -92,-5 -186,7 -128,17 -226,4 -358,30 -60,13 -110,-13 -164,-7 -67,7 -83,22 -179,22 -105,0 -264,27 -338,-15l-33 46c-71,-3 -79,-3 -161,-4 -224,-2 -100,7 -181,20 -138,21 -193,-2 -254,14 -59,16 -17,19 -70,10 -140,-22 -257,-5 -401,5l-345 21c-134,18 -231,7 -337,16 -93,8 -237,9 -352,16l-430 22c-77,-6 -22,-5 -83,4 -100,15 -92,-17 -147,-44 11,60 17,9 20,74 -30,-9 -23,-7 -46,-26 -78,6 -225,27 -284,19 -171,-25 -75,40 -326,15 -95,-9 -60,9 -139,16 -48,5 -54,-8 -100,3 -93,22 -88,31 -126,-8 -3,4 -9,4 -10,11l-44 36c-76,-30 -41,-26 -125,-6l-568 16c-80,8 -109,1 -177,2 -42,1 -95,15 -141,14 -75,0 -71,-25 -157,-8 -129,25 -189,15 -323,14 -63,0 -92,24 -138,19 -87,-10 45,-44 -137,4 -96,26 -232,-11 -310,-11 -81,0 -61,31 -124,34 -35,2 -109,-22 -142,-29 -62,19 -13,18 -74,32 -100,23 -23,-4 -79,-2 -63,3 -119,-6 -161,8 -150,51 -234,1 -255,1l-257 52c-92,24 -124,11 -193,23 -59,10 -198,1 -347,66l37 -57c-55,-7 -41,-15 -72,-71 46,-1 83,-10 43,-61 27,-35 8,-9 34,-39 11,-13 22,-28 29,-37 74,45 285,-17 378,-31 121,-17 162,12 445,-42 109,-21 77,12 261,4 199,-9 37,-23 284,-8 76,5 66,-21 140,-18 170,8 265,-22 338,-19 114,4 -11,17 66,12 57,-3 21,-28 116,-14l443 -11c4,0 13,-7 18,-7 79,-15 176,1 225,2l294 -8c69,3 63,-16 112,-16 22,-1 21,4 65,3l335 -7c79,-16 38,-28 134,-26 150,4 639,-53 728,-16l62 -29c104,17 18,-21 115,21 58,-31 11,8 54,-42 107,35 42,7 133,12 130,8 258,-22 352,-25 41,-1 92,12 152,6l178 -25c170,4 431,9 583,-16l766 -29c114,-5 267,-48 354,-27 61,14 84,5 176,-10 205,-35 125,-18 324,-15 52,0 129,-18 192,-24l1020 -52c54,-5 10,-16 73,-16l345 1c41,3 149,-10 195,-14 73,-6 134,12 172,8 33,-3 47,-17 76,-17 63,-2 -15,14 83,4 125,-13 447,-5 556,-58 46,45 49,23 124,25l1125 -6c65,-12 118,9 174,26 61,-53 38,-7 256,-24 339,-26 165,12 288,9 74,-2 186,-25 262,-9l233 -10c4,-1 10,-3 15,-5 83,61 251,25 342,22 159,-7 510,32 658,35 68,1 198,-17 259,4l28 15c40,19 78,-9 138,-5 55,4 23,16 106,20l389 5c32,3 78,17 126,13 110,-9 135,26 232,29 73,3 123,-16 220,4 213,44 78,-24 202,24 81,32 229,41 336,54 111,13 56,-17 92,47 27,-21 -15,-38 85,-14l216 108c79,71 153,167 150,282 62,47 60,105 72,139z"/>
   <path class="fil5" d="M985 9267c1,-43 -2,-49 -13,-88 -7,-22 -6,-21 -14,-38 -2,-4 -14,-13 -15,-22 -1,-6 -6,-7 -9,-10 4,-3 10,-7 12,-9 3,-1 9,-6 12,-7l29 -20c-14,-92 16,-87 8,-129 -4,-19 -33,-70 -43,-101 2,-2 21,-15 24,-17 1,-1 8,-4 9,-9 1,-6 7,-7 15,-13l-44 -46c55,-95 16,-183 21,-330 2,-66 -14,6 -12,-63 1,-20 19,-60 19,-89 -1,-59 -20,12 -5,-85 15,-97 14,-105 -18,-164 43,-64 24,-56 24,-130 0,-114 91,-334 52,-438 119,-99 127,-54 276,-58 34,-1 56,-7 78,-9 88,-9 1,6 63,2 32,-2 19,-10 57,-14 57,-6 26,7 68,3 28,-2 67,-25 163,-22 264,8 297,-28 494,0 18,-16 24,-6 38,-40l33 36c137,-8 212,-41 346,0 119,35 104,3 159,-7l488 -13c124,17 57,-2 144,-20 82,-17 77,30 140,-39 171,46 103,-10 229,-20 156,-13 240,10 477,-52 114,-30 140,-16 234,4 78,-62 115,-15 227,-37 157,-32 93,-19 192,29 36,-56 0,-30 94,-40 133,-12 258,-43 339,4 70,-39 136,-37 247,-32l482 -13c147,7 145,12 175,-45 15,24 24,27 36,40 69,-1 145,8 174,-50 82,57 58,38 163,3l53 32c50,-37 78,-29 141,-35 78,-7 102,-26 151,-20 67,8 112,0 188,-1 77,-1 95,5 147,-21l-6 47 -18 17c-62,82 0,21 -76,51 -27,10 -60,24 -83,34l-12 -101c-116,9 -23,1 -94,42 -54,32 -48,4 -99,62 6,36 37,49 42,93 7,65 -55,37 -103,32l-18 103c-23,-43 -16,-64 -16,-125 -55,36 -18,7 -55,52 -62,-15 -142,-35 -178,40 -2,4 -3,10 -5,13l-50 -33 -27 151c-2,1 -8,4 -10,5 -1,1 -6,4 -9,6 20,55 21,21 19,106 -70,32 -137,18 -192,-45l-64 -78c-47,26 25,15 -53,19 -80,4 -52,-18 -92,-31l-126 -13c-10,7 -23,20 -29,27 -36,-20 -68,-23 -108,-40 -9,92 2,18 -29,58l-10 13c-1,1 -2,7 -2,8l-6 22c-1,2 -3,7 -5,11l-143 -35 -28 54c-1,3 -4,8 -6,11 -177,-5 -65,-61 -30,-146 -81,30 -4,23 -95,40l27 -44c12,-36 8,-16 -7,-45 -3,3 -7,5 -8,11 -7,33 -35,37 -65,42l-41 -79c-38,40 -25,5 -30,77 -83,-14 -75,-25 -124,21 -98,-41 -62,-7 -153,5 -56,8 -94,-34 -146,27 -8,-77 -9,-23 -27,-99 -20,15 -9,42 -75,-7 -10,-8 -27,-24 -29,-26 17,77 27,4 18,96 -29,1 -76,0 -102,4l-73 39c43,18 39,11 71,-24 18,82 18,34 3,114 -44,-31 8,10 -34,-24 -4,-3 -17,-14 -21,-17l-20 -21c-26,49 -25,16 -86,22 -79,9 -98,19 -160,-12l-35 82 -36 -50c-17,66 7,24 -53,51 -36,-46 -22,-85 -67,-122 -5,73 12,55 -22,103 -38,-18 -28,-38 -45,-78 -1,-3 -5,-8 -8,-12 -47,37 -34,21 -38,108 -52,-91 -120,-46 -211,-72 18,67 13,62 -32,93 -44,32 -48,40 -59,103 -64,-15 -37,-16 -103,1l3 -73c-72,17 -25,18 -96,-2l-29 179c-96,1 -20,-6 -111,-18 49,73 37,88 32,176 0,-6 -7,-31 -8,-33 -13,-28 -11,-22 -23,-39 -2,60 6,51 -17,89 -102,-190 -56,7 -236,-115 -3,-2 -6,-6 -10,-8 -16,-9 30,-24 -53,-15 -62,6 -34,31 -160,14 -90,-12 -29,-19 -126,4 -23,-32 0,-44 -71,-53l-35 72c-67,-22 -98,-40 -144,15l-26 -53 -30 34c-12,19 2,3 -17,29l-106 25 -49 -31c-1,2 -13,25 -15,29l-111 -14c-1,85 10,99 -71,107 10,-59 10,-32 21,-90 -53,19 -18,20 -55,2 -3,-1 -7,-5 -10,-7l-42 -29c1,89 -20,74 -7,137 -103,20 -120,64 -218,68 5,4 11,4 14,12 16,51 9,6 37,28l-13 69c-1,2 -1,8 -2,10 -5,17 0,16 -8,30l-45 -62c95,4 22,0 51,-30l-102 -46c-2,-2 -7,-7 -10,-10 -47,15 -46,18 -103,28 26,31 18,15 48,24l16 8c-48,69 -125,34 -195,32 -52,81 -23,46 -37,158 -46,-3 -42,-7 -84,-20l-79 55c-3,1 -8,3 -12,5 8,60 3,40 34,71 -35,35 -29,26 -51,72 -14,31 8,2 -16,35 -2,3 -6,7 -9,10 -2,2 -7,6 -9,8l-20 17c24,55 18,62 13,137l-51 -51c-2,89 18,62 -51,71l33 51c-25,11 -51,-6 -29,69 18,60 24,37 68,60l-55 40 32 24c-69,8 -33,3 -62,25l-3 181c0,76 0,24 -17,50 -77,-28 -38,-74 -101,-128l-32 101c-66,-21 -9,5 -71,-28z"/>
   <path class="fil6" d="M17851 9712l-75 0 37 71 -91 0c65,160 17,10 44,160 23,123 37,28 46,90l-84 23 -1 92c-51,-17 -43,14 -49,-38 -14,71 -7,29 -27,52 -43,-34 -30,-29 -95,-33 34,13 18,13 67,-1l11 69c47,-51 27,-39 92,-51 -17,80 -13,70 9,143l-108 3c12,1 -18,-17 20,8 96,61 86,25 61,82 -36,78 -24,2 -127,23 31,119 38,-35 123,106 -28,23 -28,24 -45,45 -66,-27 -27,-15 -79,-40 -9,19 1,-3 -4,19 -8,28 -3,14 -10,30 66,27 32,-8 42,35 -52,10 -68,-3 -117,15 20,48 44,47 45,47 1,-3 8,5 12,7 -19,33 -10,20 -17,69l-3 17c-71,-5 -61,-17 -99,30l-61 -37c-7,4 -27,16 -30,18 -74,56 -23,46 -114,42l2 28c-7,-4 -16,-15 -19,-11l-39 -43c-73,24 65,-29 -31,16l-71 47c-28,-15 9,-16 -34,-12 -69,6 18,0 -48,18 -43,11 -63,-7 -95,-23l38 103c-79,18 -270,109 -308,107 -91,-6 -37,-14 -55,-29l79 -22c-43,-12 -33,-23 -82,-7 -126,40 -35,108 -195,-54 -15,-16 -7,-2 -27,-32 1,-9 -3,-1 9,30 -136,1 -119,4 -221,-38 17,77 34,55 66,67 -79,24 -57,24 -83,73 -91,-26 -87,-17 -182,-23l-36 -49 -32 59c-32,-25 -11,-2 -28,-34 -92,19 -415,-3 -540,-13 -77,-5 -25,-21 -104,-26 -171,-11 -204,-30 -366,-10 -19,-75 5,-44 -44,-87l-89 39c-59,-54 -14,-21 -32,-16 -136,-1 -8,16 -96,25 -41,4 -53,-14 -67,-32l-15 -94 -74 83c-42,-69 -20,-32 3,-106 -203,9 -191,55 -322,52 -107,-3 -60,-17 -146,-35l-85 -39c-61,0 -106,2 -142,16l-71 -87c-41,17 -63,28 -104,48l-22 76c-31,-12 -33,-11 -52,-44l-38 20c-75,40 56,-21 -39,20 -7,19 -29,1 0,55l-40 -3c-25,-67 -5,-85 -63,-63l-19 -29c-3,-4 -13,-20 -16,-25 -12,-17 -12,-18 -28,-39 -46,27 -69,22 -111,-4 -2,7 3,30 9,56 -44,-11 -47,-12 -77,-18 -43,-8 -14,9 -56,-23 -42,41 -17,-57 -36,47l-88 -99 -45 73 -160 -89c-2,-7 -8,-7 -10,-11l-16 46 -115 -1 -6 70c-5,-7 14,3 -30,-25 25,-21 19,-11 36,-59 -91,-3 -60,-17 -114,25 -70,54 1,56 -237,-2 -1,-47 9,-30 -48,-28l16 -60 268 -36c228,0 586,61 674,23 120,70 740,21 966,64 75,14 55,-1 120,-13l890 19c47,-57 9,-6 127,-22 47,-6 151,-11 137,-39l32 37c1,-3 3,9 4,14 248,-28 255,31 344,30l5 54c4,-4 8,-8 11,-11l29 -27c29,-26 9,-7 31,-22 69,20 41,27 124,23l36 54c107,-55 13,28 150,-34l62 51 54 -38c30,15 58,21 115,19l-9 -71c62,-3 85,18 142,19 60,1 78,-17 126,-23 58,-7 77,4 141,4 55,-1 79,-9 117,-19 -12,39 -15,35 -33,74 32,-3 80,24 102,-107 44,88 -13,-24 153,64l-16 -80c121,-28 58,-98 121,-183 24,-31 42,-22 52,-93 14,-91 -16,-76 -20,-110l56 -207c1,-34 -14,-66 -2,-109 18,-64 23,-41 37,-103 5,-2 35,-10 36,-10 31,-14 18,-9 38,-26 51,-86 -53,-159 -53,-159l74 -81c177,-99 64,24 95,-329 13,-152 -44,-305 -65,-548 -11,-135 -60,-129 3,-266 -42,-40 -25,-39 -35,-94 -9,-52 -20,-70 -40,-118l15 -1c-20,-271 -89,-253 -53,-531 9,-69 -31,-2 30,-72 -16,-34 -22,-48 -24,-100l38 24c10,79 65,192 72,257l27 263c90,68 32,60 115,224l85 235c1,-2 5,6 8,9l-24 38c-1,-3 -6,8 -9,12 107,58 19,112 113,226 -21,48 -13,65 7,128l105 308 -43 61c51,51 39,21 12,93l6 120c22,17 47,35 62,45l-23 239z"/>
   <path class="fil7" d="M17826 11140c34,-35 -32,-17 64,-38 1,-59 15,-79 32,-125 8,-23 9,-32 18,-51 35,-72 37,-19 71,-130l8 -24c1,-4 2,-9 2,-14l-25 -147 64 -48c-11,-109 -20,-13 -5,-127 12,-86 16,-312 44,-373l-34 -31 45 -35 -38 -37c26,-95 22,-54 0,-124l41 -36c-8,-89 -32,-141 -41,-224 -19,-198 14,-139 -60,-184l31 -39c9,-44 -64,-419 -48,-499l-52 -29c30,-136 -65,-145 -60,-263 2,-45 16,-8 0,-57l-43 -115c-15,-35 -5,-1 -22,-46 -37,-92 -11,-170 -121,-365 -45,-80 -52,-11 -18,-97 -97,-1 -33,9 -56,-15 59,-50 23,-120 15,-178 -10,-76 2,-63 -36,-126 -56,-91 -11,-201 -37,-299 -59,-97 -3,-26 -32,-110l-20 -67c-9,-50 -3,-39 -30,-71 27,-37 29,-29 17,-93l44 4c29,67 5,43 54,75l38 -75c-75,-142 -65,-114 69,-160 2,-88 -23,-56 -17,-176 56,16 75,7 144,20 -11,-59 -28,-60 14,-90 22,39 30,64 72,85l25 12c3,2 8,5 12,8l-66 99c-2,2 -8,5 -12,7l56 20c5,2 11,3 15,4 4,2 10,5 13,6 3,1 8,5 11,7 -44,11 -19,-6 -36,31 83,-2 62,1 123,20 -7,92 19,33 -38,53 18,48 21,25 55,72l-25 106 58 36 0 91c56,28 51,24 75,82 53,129 -12,170 22,253 49,52 10,3 20,51 2,11 23,65 23,75 4,44 -9,7 -8,86 2,114 -21,234 8,347 17,66 18,73 24,168l-37 0c25,47 7,42 68,21l-47 125c29,19 21,10 33,49l-29 39 46 6c1,80 -11,88 51,132 10,101 -2,120 69,192 -2,94 -43,82 3,375l-72 36 35 214 -66 -21 -73 195c-63,56 53,135 67,237 10,74 -8,-10 -7,83 25,-38 -1,-14 40,-44 91,-67 59,90 64,147 66,-9 35,-26 94,22 -22,56 19,39 -67,55 2,5 6,7 6,14 4,32 21,41 4,68 88,3 45,8 61,23 -11,87 3,127 -64,177l26 47c-37,13 -47,6 -62,41 56,12 38,14 109,12 -7,57 -22,68 -38,113l117 6c15,84 -13,70 -23,144 -11,72 22,88 -16,176l32 83c3,29 7,56 10,85 -49,-40 -68,54 -37,-56 0,43 6,19 -9,58 -1,5 -9,17 -11,21 -1,2 -4,6 -5,8 -1,1 -4,5 -5,7l-108 52c-2,-2 -73,4 -20,-72l2 91 -100 10c-4,2 -9,7 -11,9 -4,2 -9,7 -13,10 -34,-10 -71,-20 -99,-34 -40,-21 -46,-40 -78,-49 -22,28 -19,23 -29,59 -49,-4 -40,-4 -78,-10 -16,22 5,-15 -6,17l-44 5c-31,-14 -38,13 -74,-21l-17 -30c-18,-60 -3,-14 0,-19l-39 -8z"/>
   <path class="fil8" d="M3264 10721c-19,56 -6,32 -9,48 -23,108 -35,-6 -30,116l41 11c0,54 -9,10 -108,5 -23,-1 -47,2 -67,4 -6,0 -22,5 -28,5 -66,4 -58,-35 -165,-7 -100,26 -276,4 -396,-10 -145,-18 -69,63 -249,-9l-88 28c22,-41 23,-14 -143,-18 -106,-2 -54,-43 -151,-20 -174,42 -325,11 -460,55 -52,17 -122,10 -187,14l-337 39c9,-39 16,26 -2,-65 103,-37 37,13 73,-75l-118 18 9 -91c188,-10 337,-76 454,-58 110,17 59,6 153,-5 224,-29 451,-23 615,-28 215,-6 387,25 619,14 97,-5 27,30 124,20 40,-4 99,-4 124,2 89,23 147,0 326,7z"/>
   <path class="fil9" d="M16900 9740c22,53 7,166 9,238 -45,49 -17,31 -41,66 -40,59 -54,34 -101,125 -47,92 -164,118 -270,155 -83,29 -25,26 -97,68 -272,158 -426,115 -629,119 -31,0 -151,35 -133,-3 -11,-74 -22,-9 9,-48l88 41c66,-133 229,35 276,-51l15 -38c1,-1 3,-4 4,-5 28,-42 16,18 25,-39 45,1 64,17 91,13 74,-8 48,-17 64,-84 -83,-1 -23,18 -78,-20 10,-59 21,-9 94,-38 13,-5 30,-22 42,-31l246 -111 26 -78 76 -6 10 -142 14 0c7,158 -8,38 36,89 57,-29 13,12 44,-30 23,-32 -1,-13 11,-41 23,-54 -32,-11 60,-53l-19 -29c-18,-32 -19,19 -24,-123 107,7 100,19 105,116 64,-35 60,54 47,-60z"/>
   <path class="fil10" d="M13347 10821c-78,-26 -111,-51 -184,-11 -62,-44 -98,-13 -176,-37 -42,-13 30,-5 -57,-15 -30,34 -22,15 -44,63 -13,-72 28,-23 -60,-77 -30,16 -5,1 -31,19l-131 -5c-5,0 -9,1 -15,0 -21,0 -126,7 -144,6 -81,-4 -73,-56 -193,16 -11,-4 -56,-20 -61,-22 -125,-58 -59,14 -185,-6 -47,-7 -68,-30 -92,-51l-56 31c-24,-48 -5,-17 -36,-48 -39,19 -41,8 -85,-4 -9,14 -11,13 -21,42 -5,12 -3,19 -4,34 -34,-73 -3,-16 -63,-57 -27,-17 -16,-18 -52,-38l16 56c-131,-35 -218,-21 -319,18 -39,-69 10,-20 -49,-56l-58 -33c-52,79 -70,65 -113,53 -4,-77 19,-28 58,-88 120,9 135,-23 263,-3l465 2c20,-2 35,-23 127,-14 27,2 80,8 70,27 57,-2 47,-19 48,28 238,58 167,56 237,2 54,-42 23,-28 114,-25 -17,48 -11,38 -36,59 44,28 25,18 30,25l6 -70 115 1 16 -46c2,4 8,4 10,11l160 89 45 -73 88 99c19,-104 -6,-6 36,-47 42,32 13,15 56,23 30,6 33,7 77,18 -6,-26 -11,-49 -9,-56 42,26 65,31 111,4 16,21 16,22 28,39 3,5 13,21 16,25l19 29c58,-22 38,-4 63,63z"/>
   <path class="fil11" d="M17772 10652c-10,73 -17,125 -41,183 -19,45 -10,19 -22,39 -32,54 -35,14 -5,95l-92 -11 -14 54c-105,4 -87,49 -187,74 -76,19 -156,4 -223,38l-92 -42c25,-29 17,-30 48,-40l-81 -177c97,6 67,15 122,54 45,-19 9,2 41,-22l0 -61 -2 -28c91,4 40,14 114,-42 3,-2 23,-14 30,-18l61 37c38,-47 28,-35 99,-30l3 -17c4,-5 12,-6 13,-13 1,-8 9,-11 9,-18l29 53c42,-56 11,-20 66,-56 -65,-75 -24,-2 -62,-88 113,44 -5,-20 119,105 -2,-47 3,-100 67,-69z"/>
   <path class="fil12" d="M17226 10836l0 61c-32,24 4,3 -41,22 -55,-39 -25,-48 -122,-54l81 177c-31,10 -23,11 -48,40 -63,10 -56,30 -111,21 -47,-8 -48,-23 -105,-13 -58,9 -155,-9 -241,-8 -68,2 -76,-19 -139,-18 -68,1 -83,24 -152,5l-238 -43c26,-49 4,-49 83,-73 -32,-12 -49,10 -66,-67 102,42 85,39 221,38 -12,-31 -8,-39 -9,-30 20,30 12,16 27,32 160,162 69,94 195,54 49,-16 39,-5 82,7l-79 22c18,15 -36,23 55,29 38,2 229,-89 308,-107l-38 -103c32,16 52,34 95,23 66,-18 -21,-12 48,-18 43,-4 6,-3 34,12l71 -47c96,-45 -42,8 31,-16l39 43c3,-4 12,7 19,11z"/>
   <path class="fil12" d="M17772 10652c-64,-31 -69,22 -67,69 -124,-125 -6,-61 -119,-105 38,86 -3,13 62,88 -55,36 -24,0 -66,56l-29 -53c0,7 -8,10 -9,18 -1,7 -9,8 -13,13 7,-49 -2,-36 17,-69 -4,-2 -11,-10 -12,-7 -1,0 -25,1 -45,-47 49,-18 65,-5 117,-15 -10,-43 24,-8 -42,-35 7,-16 2,-2 10,-30 5,-22 -5,0 4,-19 52,25 13,13 79,40 17,-21 17,-22 45,-45 -85,-141 -92,13 -123,-106 103,-21 91,55 127,-23 25,-57 35,-21 -61,-82 -38,-25 -8,-7 -20,-8l108 -3c-22,-73 -26,-63 -9,-143 -65,12 -45,0 -92,51l-11 -69c-49,14 -33,14 -67,1 65,4 52,-1 95,33 20,-23 13,19 27,-52 6,52 -2,21 49,38l1 -92 84 -23c-9,-62 -23,33 -46,-90 -27,-150 21,0 -44,-160l91 0 -37 -71 75 0c-5,79 2,119 -5,199l2 160 -49 13 62 35c-8,108 -15,42 3,142 -86,111 38,74 -69,178 4,4 9,9 10,13 53,103 11,-42 15,36 2,50 -26,-36 -12,154l-36 10z"/>
   <path class="fil13" d="M14494 10859l-195 44c-62,-26 -17,-21 -88,-37 -111,-27 -99,2 -193,-8 -107,-11 11,-11 -92,-23 -31,-4 -147,26 -183,36 -66,-30 -13,3 -38,-39l-116 15c-27,-22 -2,-1 -31,-27l-22 -21c-37,12 -62,28 -89,43l-25 -19c-3,-4 -8,-8 -11,-12 -20,-23 -6,-10 -24,-42 95,-41 -36,20 39,-20l38 -20c19,33 21,32 52,44l22 -76c41,-20 63,-31 104,-48l71 87c36,-14 81,-16 142,-16l85 39c86,18 39,32 146,35 131,3 119,-43 322,-52 -23,74 -45,37 -3,106l74 -83 15 94z"/>
  </g>
 </g>
</svg>
