<?xml version="1.0" encoding="UTF-8"?>
<!DOCTYPE svg PUBLIC "-//W3C//DTD SVG 1.1//EN" "http://www.w3.org/Graphics/SVG/1.1/DTD/svg11.dtd">
<!-- Creator: CorelDRAW X8 -->
<svg xmlns="http://www.w3.org/2000/svg" xml:space="preserve" width="210mm" height="297mm" version="1.1" style="shape-rendering:geometricPrecision; text-rendering:geometricPrecision; image-rendering:optimizeQuality; fill-rule:evenodd; clip-rule:evenodd"
viewBox="0 0 21000 29700"
 xmlns:xlink="http://www.w3.org/1999/xlink">
 <defs>
  <style type="text/css">
   <![CDATA[
    .fil72 {fill:#0D0C2C}
    .fil99 {fill:#170918}
    .fil78 {fill:#190508}
    .fil21 {fill:#191629}
    .fil91 {fill:#191836}
    .fil29 {fill:#261B35}
    .fil39 {fill:#270B17}
    .fil35 {fill:#281A27}
    .fil59 {fill:#291619}
    .fil15 {fill:#292637}
    .fil38 {fill:#2A2529}
    .fil58 {fill:#313432}
    .fil62 {fill:#330D0B}
    .fil3 {fill:#362737}
    .fil74 {fill:#371919}
    .fil61 {fill:#371B26}
    .fil37 {fill:#372629}
    .fil98 {fill:#372B45}
    .fil27 {fill:#393956}
    .fil41 {fill:#3A3439}
    .fil5 {fill:#3B2D3B}
    .fil6 {fill:#44333C}
    .fil9 {fill:#443442}
    .fil2 {fill:#443A44}
    .fil17 {fill:#443B4B}
    .fil70 {fill:#462B37}
    .fil52 {fill:#484866}
    .fil18 {fill:#4A4557}
    .fil11 {fill:#4B343C}
    .fil7 {fill:#4B3443}
    .fil34 {fill:#4C3B44}
    .fil32 {fill:#4C3C4B}
    .fil87 {fill:#4C4F72}
    .fil10 {fill:#533C4B}
    .fil8 {fill:#53434C}
    .fil31 {fill:#534453}
    .fil45 {fill:#563B55}
    .fil44 {fill:#584A65}
    .fil73 {fill:#585358}
    .fil50 {fill:#586475}
    .fil24 {fill:#594649}
    .fil13 {fill:#594857}
    .fil64 {fill:#595875}
    .fil30 {fill:#5A5668}
    .fil16 {fill:#643B49}
    .fil33 {fill:#644B64}
    .fil46 {fill:#65484A}
    .fil47 {fill:#654A57}
    .fil36 {fill:#665A74}
    .fil12 {fill:#685767}
    .fil48 {fill:#696676}
    .fil90 {fill:#696986}
    .fil55 {fill:#72728E}
    .fil96 {fill:#744E4F}
    .fil68 {fill:#75585A}
    .fil40 {fill:#755A67}
    .fil25 {fill:#765672}
    .fil82 {fill:#77646A}
    .fil53 {fill:#776877}
    .fil22 {fill:#797788}
    .fil54 {fill:#866A77}
    .fil63 {fill:#877679}
    .fil67 {fill:#888698}
    .fil20 {fill:#8E768C}
    .fil75 {fill:#8E91AE}
    .fil80 {fill:#907070}
    .fil65 {fill:#958990}
    .fil92 {fill:#95AACC}
    .fil76 {fill:#977894}
    .fil49 {fill:#9798A8}
    .fil95 {fill:#A89698}
    .fil77 {fill:#AB9AA9}
    .fil69 {fill:#AF908F}
    .fil88 {fill:#AFB4CE}
    .fil86 {fill:#B18B78}
    .fil85 {fill:#B2AAB2}
    .fil56 {fill:#B5C7D5}
    .fil84 {fill:#B7A499}
    .fil14 {fill:#B7B8C7}
    .fil93 {fill:#CABAC9}
    .fil60 {fill:#CBC5CA}
    .fil97 {fill:#CCB2B1}
    .fil81 {fill:#CED5ED}
    .fil51 {fill:#D2D3D1}
    .fil23 {fill:#D4CDD3}
    .fil71 {fill:#D5C8B8}
    .fil42 {fill:#D5CACA}
    .fil57 {fill:#D7D4D5}
    .fil94 {fill:#DADAE6}
    .fil43 {fill:#DBD4D5}
    .fil19 {fill:#DCD6D9}
    .fil28 {fill:#E2DCDC}
    .fil79 {fill:#E2DEE0}
    .fil26 {fill:#E4E2DD}
    .fil1 {fill:#EAE5E6}
    .fil89 {fill:#EED4CE}
    .fil4 {fill:#EEEAEA}
    .fil83 {fill:#F5F2F5}
    .fil0 {fill:#F9F7F8}
    .fil66 {fill:#F9F9FB}
   ]]>
  </style>
 </defs>
 <g id="Ebene_x0020_1">
  <metadata id="CorelCorpID_0Corel-Layer"/>
  <g id="_1565578738800">
   <path class="fil0" d="M10195 5996c-36,189 78,45 -180,128 -100,33 -129,32 -222,51 -65,71 -112,130 -212,180 -90,44 -227,72 -347,94l-18 114c-233,21 -146,-30 -319,77l-78 -27c-48,69 -75,103 -136,154l-562 308 -103 277 -210 162 -221 94c-6,152 56,39 -71,177 -59,443 -156,227 -279,556 -24,119 -37,257 -87,365 -53,113 -76,59 -120,237 -52,211 -42,433 -142,592 -6,109 29,250 -87,250l-103 196c108,161 69,185 123,383l-99 69 -15 295 -29 60c8,681 190,343 -49,930 167,246 123,77 109,683 74,372 98,741 160,1145 71,470 78,198 210,476 84,178 76,327 216,427 100,292 184,493 350,768l119 -19 21 210c81,138 51,188 269,345l-36 121 138 244 57 18c182,83 65,7 220,144 171,152 -96,26 217,143l196 248 110 62 118 101c121,-13 96,-12 174,56 70,60 77,134 77,134l407 147c12,13 30,15 35,37 5,22 27,29 33,36 12,14 68,87 74,96 174,33 185,49 271,182l266 204c9,10 23,29 35,43 172,-5 267,-13 437,97 107,69 36,22 108,95 99,44 62,19 170,117 65,59 126,117 154,148 436,143 324,225 620,330 203,73 582,313 922,370l941 175c206,30 100,-28 198,80l235 -12c546,1 1035,-160 1489,-284l52 23c93,-25 236,-51 308,-71 180,-51 85,-44 322,-145 108,51 50,39 171,-12l17 -16 94 -50 -17 -9c20,-160 41,-112 190,-102 77,-67 -3,-5 102,-74 10,-7 31,-20 41,-27 14,-9 75,-46 91,-59 145,-117 15,-85 187,-66 237,-28 85,-10 303,-158l138 -18c34,-20 115,-55 146,-77 95,-67 52,-37 122,-121 125,-150 105,-131 261,-264 145,-259 18,112 475,-556l108 -211c6,-12 15,-34 24,-51l92 -14c140,-2 113,38 113,-87l70 -101 14 -67c-73,-99 -32,115 -68,-121 -21,-143 -4,-59 9,-171l161 3 151 -286 97 -106 -31 -249c274,-51 99,21 158,-141l-1 -111 151 -25 22 -958 64 -15c0,-534 38,-434 207,-792 -153,-457 -95,-449 -127,-925 -51,-200 3,-70 -105,-254 -14,-297 17,-529 -116,-810 -164,-144 -83,-110 -76,-399l-124 -20c111,-148 72,6 41,-212l-23 -26c-188,-221 -104,-161 -204,-456 -55,-95 -78,-111 -132,-195 -73,-115 -85,-149 -135,-239 -23,-23 -49,-49 -83,-83 -5,-6 -27,-14 -31,-34 -5,-21 -22,-24 -33,-35 14,-308 -277,-471 -429,-698l-119 -255c-87,-130 -216,-156 -310,-233 -122,-100 -152,-234 -600,-378 -65,-286 37,-29 -166,-233 -55,-55 -106,-113 -169,-185l-576 -429c-85,-38 -124,-33 -239,-89 -220,-87 -62,1 -136,-141l-46 -67 -8 -39c-70,-22 -172,-38 -195,-47 -172,-70 -72,-40 -139,-119l-126 15 -24 -124c-117,-57 -56,-18 -145,-77 -75,-50 -75,-71 -96,-91 -5,-3 -118,-54 -127,-58 -18,-6 -85,-18 -101,-25 -74,-29 -163,35 -118,-102 -114,-12 -251,14 -251,-90l-393 -96c-17,-6 -33,-11 -51,-16 -169,-54 -283,-70 -382,-203l-177 27 -253 -55 -178 5 -248 -29 -84 3c-114,-44 -93,-38 -235,-52l-537 -33 5 -7 -325 110c-333,110 -198,53 -226,-18 -288,74 -111,135 -385,83l-31 174 -192 -5 -89 174 -301 50c28,110 43,71 -81,88l-57 4c-101,188 -44,150 -189,155 -64,105 -65,118 -178,226 -144,136 0,47 -199,129 -18,290 -5,104 -85,172l-27 52c-59,131 -29,100 -141,212l20 121 -60 85 -96 135 -59 123c-104,309 72,300 -40,558 -172,-107 -127,15 -147,-288 -9,-140 11,-243 14,-392l-76 -114c87,-144 48,25 68,-261 -39,-97 64,-53 -61,-107 68,-124 -191,-66 142,-113 177,-84 25,-50 178,-247l-52 -190 207 -27 119 -196c56,-204 22,-190 222,-271l124 -68c-44,-149 -12,-45 41,-61 0,-99 -25,-76 72,-72 34,-27 48,-40 107,-80 26,-17 76,-45 118,-73l308 -80c108,-478 376,-18 376,-293l-193 -43c-213,47 -239,76 -428,166 -182,87 -130,40 -277,192l-218 15z"/>
   <path class="fil1" d="M10959 15338l268 -29c-18,-267 -2,-196 202,-264l124 -188 79 -199 227 -375c7,-13 13,-30 21,-43 8,-13 20,-29 28,-41 9,-12 28,-30 36,-40 8,-10 27,-25 40,-38l-143 -24c42,-76 30,-59 83,-119l204 -81 203 -34c35,-194 12,-120 143,-210 -12,-15 -31,-31 -38,-42l-95 -242 227 -17 38 -144 -176 -22c-25,-88 -144,129 -6,-139 48,-94 160,-73 231,-194l36 187 64 -28c33,-469 151,-820 512,-1098l127 -72c21,-81 34,-193 51,-254 27,-101 36,-92 64,-141l28 -202 101 -69c56,-115 65,-119 138,-245 64,-109 -27,-203 148,-171l37 -406 -6 53c-121,-61 -95,-38 -157,-116 116,-160 5,-123 275,-80 50,-53 70,-52 141,-84 -16,-164 -83,-230 55,-230l-5 -18c-99,-372 -47,-31 -7,-337 17,-130 7,-192 31,-305 133,-87 -149,-69 214,-62l18 -28c0,-138 153,-195 236,-238 -45,-156 -58,-171 7,-292l116 -254c3,-13 1,-38 1,-57l-333 -198c-313,105 -275,136 -428,20l-110 -9 19 -247c-335,29 -669,408 -1009,185 -237,89 99,-112 -95,84l-287 247c-109,89 -348,21 -486,11l2 273c-296,41 -184,-7 -313,196 -9,-12 -25,-46 -28,-36l-75 -102c-4,-5 -14,-21 -21,-32 -455,-30 -278,-25 -496,-138 -226,158 -297,318 -62,429 123,-212 69,-160 219,-222 -47,274 -91,229 -74,477 -198,-82 -157,-122 -263,175l209 236c-224,164 -344,236 -239,409l58 68c6,8 24,20 35,30l-650 67c-16,833 -32,257 103,729 66,227 -43,-58 32,151 39,110 44,90 73,134 61,-135 22,-11 7,-266 147,178 96,89 345,191l-84 262c-3,9 -13,26 -20,39 -72,0 -157,16 -233,-17l-139 -135c-12,13 -29,17 -36,41l-165 124c-15,-236 -28,-185 -174,-312 -368,203 -415,253 -866,84 -165,100 -90,33 -167,180 -80,-57 -78,-36 -143,-111l-104 158c-288,-74 -51,-8 -233,-109 -6,204 46,451 163,556 -47,192 46,128 -114,194 35,42 58,25 93,115 37,95 27,50 35,160 8,125 -22,257 -42,376 36,260 65,-259 169,666 25,221 -29,395 -5,716 -50,-229 -49,-175 376,-345 -9,289 49,506 -63,717 132,305 -137,-179 30,60 116,167 136,309 -42,429l-73 53c155,147 182,165 183,432 144,-73 63,-46 111,-72 393,-219 250,319 666,46 156,-102 -98,-50 233,-82l-27 -380 255 -38c-2,227 6,497 227,404 -29,-189 83,-24 -133,-176 -9,-6 -32,-14 -47,-24 36,-5 158,-28 162,-28 81,-8 53,-10 157,-3l-4 190z"/>
   <path class="fil2" d="M8303 16228c-16,23 -43,43 -65,54 -19,9 -41,30 -62,38l-159 -28c171,226 41,79 127,300 97,249 -58,72 174,205l-380 -52c208,232 116,-2 222,249 16,-12 134,-85 143,-96 13,31 32,35 33,128 1,12 -30,79 -37,98l85 27c84,-249 -38,-139 230,-207l-38 261c65,247 122,252 348,215 158,200 40,71 186,173l0 -165c248,204 103,56 324,26 -108,106 -58,54 -137,283 279,-65 132,-70 314,-18 293,83 -185,54 260,78l-3 258c529,29 374,110 556,224 178,111 100,-24 292,206 104,126 219,281 380,245l-259 -11 24 121c383,3 261,22 513,175 260,156 229,-49 412,267l195 28 33 -52c-153,-88 -187,211 -103,-166 181,83 48,-29 125,159l212 95 -158 40c171,135 176,35 263,254l219 -83c-75,-356 186,-8 372,-94l89 122c5,9 19,32 25,40 5,8 15,26 23,39 42,-163 -15,-93 110,-227 66,135 31,-10 33,223l-261 1 118 112c868,-4 1345,160 1987,54 290,-47 200,-135 557,-184 -54,-289 -68,-94 62,-180 110,96 38,-51 49,138 116,-42 725,-264 880,-269 -159,25 -116,56 -116,-111 -119,40 -23,35 -95,-77l-41 -205c233,-59 32,26 129,-168l-62 -79c-237,101 -142,94 -322,145 -72,20 -215,46 -308,71 28,151 28,129 31,211l-237 -88c197,-73 36,17 154,-146 -454,124 -943,285 -1489,284 73,65 14,111 153,147 -112,-4 -249,9 -344,-22 -230,-73 -51,-104 -44,-113 -98,-108 8,-50 -198,-80l-941 -175c-340,-57 -719,-297 -922,-370 -296,-105 -184,-187 -620,-330l-56 78c-163,-94 -127,-51 -233,-161 -111,-115 -71,-119 -213,-168l178 -14c-72,-73 -1,-26 -108,-95 -170,-110 -265,-102 -437,-97 -12,-14 -26,-33 -35,-43l-266 -204c-11,7 -33,152 -192,35 -146,-108 -133,43 -79,-217 -6,-9 -62,-82 -74,-96 -6,-7 -28,-14 -33,-36 -5,-22 -23,-24 -35,-37l-34 119c-128,-50 -213,-97 -377,-144l4 -122c0,0 -7,-74 -77,-134 -78,-68 -53,-69 -174,-56 -127,217 46,-119 193,406l-171 -141c-6,-6 -67,-88 -76,-109l-259 2c-181,-237 -53,-120 -90,-284 -45,-197 -96,-39 -21,-285 -313,-117 -46,9 -217,-143 -155,-137 -38,-61 -220,-144l61 92z"/>
   <path class="fil3" d="M6301 9698l-67 131c-3,-9 -19,19 -28,28 10,196 163,546 -61,450l-4 74c45,68 59,63 -63,67 12,17 21,224 64,101 5,-13 12,38 29,81l-213 26c-42,99 -56,78 -24,180l229 -38c-8,26 -25,37 -30,75l-55 295c-7,12 -23,34 -30,48l-50 124 193 9c-55,103 -93,61 -2,307l-146 121c21,127 0,149 -43,314l121 98 94 -6c122,447 89,401 -83,474l71 551c87,122 83,165 217,153l91 -22c114,-12 62,-22 179,12l20 91c0,13 -13,132 -16,152 -100,-83 -87,-94 -257,-76 -28,110 -103,94 7,276l39 210c-62,30 -1,-78 -83,73l-47 92 294 -17 61 314 24 231c92,20 -25,44 223,0 1,247 20,454 243,590 -52,200 -55,179 -87,412l64 -72c68,-21 34,-116 150,125l84 8c137,100 115,-6 186,223 137,-113 -77,62 88,-15l178 192c4,-252 19,-207 -120,-394 418,127 -51,1 358,357l-52 -249 36 -121c-218,-157 -188,-207 -269,-345 -189,184 -80,155 -351,116 93,-221 155,-163 211,-307l-65 159 -298 -183c-4,-19 -7,-68 -8,-56 -2,11 -5,-40 -7,-46 -35,-93 129,-21 -211,-111l-22 -389c-18,-18 -93,-97 -96,-108 -90,-323 -25,-69 33,-172 183,101 54,-59 150,220l174 -82c-140,-100 -132,-249 -216,-427 -132,-278 -139,-6 -210,-476 -62,-404 -86,-773 -160,-1145l-123 -133 11 -235c-287,-43 -161,89 -199,-190 79,-100 -12,-41 93,5 97,0 95,10 31,-132l-150 -122c95,-135 1,-78 189,-175 -76,-107 -51,-123 -186,-176 59,-170 34,-147 1,-294 -4,-15 -11,-38 -14,-50 -3,-12 -9,-32 -11,-49 3,0 -37,-177 175,23 87,83 44,106 39,178 -66,-493 -21,-110 84,-263l29 -60 -105 -7 -88 24 -258 -206 100 -111c191,-263 -31,-163 98,-503 144,-384 -104,-210 217,-750 -170,11 -194,6 -308,109 71,85 115,-83 40,215 -48,192 -84,170 -102,199z"/>
   <path class="fil4" d="M13081 19773l113 146c-182,-10 -227,-9 -368,-26 -263,-31 -63,-60 -234,-44l170 122c54,70 13,67 32,247l219 45c-91,105 -72,74 -130,212l287 -145 46 180 369 4c-17,178 -54,162 54,336 364,14 364,-248 869,-90l176 -191c57,-69 96,-156 134,-234 188,27 136,-13 178,-49 317,-271 223,73 443,-406 386,-131 237,-56 316,-230l-130 -7c-357,49 -267,137 -557,184 -642,106 -1119,-58 -1987,-54z"/>
   <path class="fil5" d="M13137 14528c-53,199 -65,154 -188,259l10 83 37 137c-103,69 -141,105 -298,186 -89,19 -52,-47 -75,118 -21,153 3,102 15,254 57,6 499,161 560,183l193 57c13,-18 37,-60 45,-46l89 -74c8,-7 30,-19 44,-30 149,-56 16,32 74,-118 -117,-94 -99,92 -49,-186l201 -641c242,37 84,-22 158,133 6,-5 125,-92 151,-115l40 -186c-212,203 19,14 -205,111l192 -209 -38 -301 103 -50c-17,-6 -40,-15 -49,-18l-307 -61 52 -317c3,-39 10,-44 15,-66l-576 574c-110,163 -100,-120 -79,299l-115 24z"/>
   <path class="fil6" d="M11553 14857l-124 188c151,234 -139,-254 75,148 -139,74 -142,11 -277,116 -12,161 -12,93 -39,225 -6,28 -17,28 -24,147l-164 -130 -168 268c-25,60 -6,47 -11,119l-138 104c-301,158 -150,98 -212,-58l4 19 -125 162c132,65 169,-74 69,145 181,332 123,331 538,413l19 -149c404,-71 155,-60 368,-323l181 89c16,8 41,21 62,32l-9 -170 168 -27 -27 -36c-5,-169 26,-98 -55,-207l213 25 35 21 32 -95c-52,-92 -99,-137 -148,-177l226 -78 -103 -1c-229,-88 -145,-8 -333,-386 133,-70 52,32 126,-150 7,15 17,38 20,48l227 178 107 9 24 -32 23 -151 82 -8 -22 -69c55,-145 -124,-120 73,-121 -53,-56 34,0 -54,-32 -76,-28 -16,6 -125,-24l-26 -183 -289 5c64,413 25,208 -55,305 -72,-292 7,-53 -144,-159z"/>
   <path class="fil7" d="M12088 5564c0,173 46,136 -116,136 38,16 72,-123 83,69 13,225 25,78 -91,224 -216,-89 -133,-47 -173,-237l-203 192c350,1 45,-22 153,115 28,71 -107,128 226,18l325 -110 -134 -209c127,-42 66,-44 157,19 29,103 140,-163 -28,197l537 33c0,-171 64,-102 226,-53l101 -53 -8 155 248 29 -25 -152 212 11c-5,-16 -5,-59 -9,-51l-48 -108c-8,-14 -25,-39 -40,-58l285 -70c156,114 206,118 338,163 -16,379 -109,47 -105,288 99,133 213,149 382,203 18,5 34,10 51,16l393 96c322,85 51,34 166,-59 -300,-42 -203,-19 -281,-105 64,-64 143,-102 170,-121 12,17 31,20 36,50 5,28 26,36 33,48l127 277c-45,137 44,73 118,102 16,7 83,19 101,25 9,4 122,55 127,58l139 -18 11 -93 -22 -330 0 -3 -172 -48c104,247 160,172 -125,289l30 -182c8,-16 30,-38 44,-58l-308 52c152,-153 -29,-124 243,-103l-37 -135c-186,-137 -191,-96 -422,-171 -149,-48 -315,-138 -448,-181 -343,-110 -626,-175 -997,-150 -218,116 -232,205 -241,188 -6,-12 -24,24 -36,36 -164,-73 -6,-30 -186,-43l-124 -191c-46,67 -75,14 -2,292l-290 -39 48 -281 -439 31z"/>
   <path class="fil7" d="M17748 18101c-61,143 33,86 -138,130l0 -112c-218,148 -66,130 -303,158 -28,87 63,171 -192,157 -79,159 38,73 -229,69 -149,-10 -170,-58 -190,102l121 1c-82,89 -20,84 -104,8l-94 50c61,111 -121,97 125,86 -165,125 -63,-1 -171,166 100,138 124,76 172,95 165,67 -44,-180 59,57 -140,7 -210,76 -304,153 0,167 -43,136 116,111 336,-97 600,-355 1126,-536 250,-87 171,-52 283,-232l216 -15 -6 -298 -66 -266c203,29 25,0 16,-19l232 95 248 -138c-83,-132 -195,-146 -388,-284 -156,133 -136,114 -261,264 -70,84 -27,54 -122,121 -31,22 -112,57 -146,77z"/>
   <path class="fil8" d="M13638 11176l-101 69 -28 202c109,155 -86,129 105,129 76,-266 -59,-118 171,-171 -23,339 18,112 -140,273 -79,81 -63,13 -106,175 -84,-74 127,-181 -145,-11l-127 72 -4 106c100,-86 34,-46 183,-68 100,80 60,-108 90,135 74,-110 39,-70 110,-63l-6 317 -346 30 -92 7c-144,9 -5,-11 -65,101l199 -14c-52,219 -75,145 36,370l-112 100c-19,8 -60,19 -110,24 70,131 -33,70 121,92l-153 262c-113,171 22,-167 -57,136 -11,42 8,48 -42,193 195,51 96,-13 192,62l30 -129c200,-226 238,-160 297,-488 -108,-48 -177,94 -102,-188 43,-165 81,-100 218,-107 168,-219 116,-263 245,-523 100,-164 81,-85 111,-302l107 -1c27,-239 -16,-252 175,-310 10,-123 -7,-281 98,-278 206,7 -28,-12 70,73 78,68 -56,21 118,73l-57 -281c-543,-88 -152,91 -538,81 -29,-196 -58,-32 50,-226l-9 -401 -100 63c-163,421 92,-126 -4,338l-154 56c-15,5 -108,19 -128,22z"/>
   <path class="fil9" d="M17487 8328c448,144 478,278 600,378 94,77 223,103 310,233l119 255c152,227 443,390 429,698l233 -33c-15,19 -76,167 -86,185 50,90 62,124 135,239 54,84 77,100 132,195 316,232 87,70 175,61 98,-51 149,111 29,-202 -4,-12 -48,-69 -54,-83 -70,-152 -37,-194 -37,-397l-169 -135c-5,-8 -12,-29 -16,-38l-63 -176 0 -167 97 143 160 -49 -5 -96c-162,-77 -194,-98 -284,-255 -148,-260 -1,-165 -340,-335l107 143c-162,-98 -167,1 -105,-126l-41 -95 -125 114c-8,-14 -36,24 -51,39 -10,-9 -22,-25 -29,-30l-147 -98c-6,-19 -29,-12 -44,-18 50,-385 -9,-122 122,-211 -72,-185 -47,-55 72,-103 0,-90 23,-66 -67,-69 -314,209 -106,182 -310,193 -150,9 -346,-172 -44,-284 -349,83 -204,-67 -347,139 -140,-144 -74,-33 -171,-223 -228,127 -185,-188 -185,208z"/>
   <path class="fil6" d="M14206 13233l76 214c-218,30 -231,26 -331,200 13,17 20,86 116,142 111,64 51,42 200,33l-63 60c-7,6 -43,35 -60,47 105,98 39,-14 52,164 128,-50 62,4 44,184 174,-68 101,-28 160,-137 -128,-66 -95,90 -108,-105l119 6c176,-146 35,-115 317,-298 -1,-1 -261,91 -34,-164l1 122c164,-147 109,-149 253,-308 132,-146 132,-123 211,-325l-79 -126 179 -81 112 -245 -118 -247 -335 155 -19 -209c-158,51 -130,-6 -252,161 -36,50 -114,210 -126,247 -165,497 -38,156 -315,510z"/>
   <path class="fil7" d="M10250 5369c-78,181 11,52 -121,167 -3,3 -115,64 -129,70l-79 -53 -290 35 -59 142c-12,233 -257,347 -462,373 -25,-50 -28,-15 0,-150 -161,85 -309,138 -517,174l25 132c259,21 55,-11 137,81l-193 127 81 240 32 13c48,-140 -78,-104 144,-107l78 27c31,-148 99,-182 217,-254 162,-100 24,-88 312,-66 -276,1 -86,31 -192,129 120,-22 257,-50 347,-94 100,-50 147,-109 212,-180 -169,-100 -162,-35 -3,-77 82,-260 125,-78 375,-190l30 88 218 -15c147,-152 95,-105 277,-192 189,-90 215,-119 428,-166l-19 -109c-135,-40 -49,-21 -159,-73 -138,-66 -81,15 -173,-120l-517 48z"/>
   <path class="fil10" d="M15572 6591l-11 93 -139 18c21,20 21,41 96,91 89,59 28,20 145,77 49,-97 3,-32 80,2 67,30 101,68 103,68l-33 39c67,79 -33,49 139,119 23,9 125,25 195,47 216,-44 71,42 223,-75 8,14 64,101 68,108 9,12 27,33 35,44l82 95c-454,-120 -126,-65 -218,75 115,56 154,51 239,89l576 429 238 -295 -215 -379c-172,-132 -307,-205 -493,-310 -118,152 101,124 -112,124 -16,-257 -30,-116 -69,-198 -30,-63 -295,-65 -5,-84 -54,-55 -23,-45 -107,-100 -15,-10 -118,-61 -120,-62 -93,-41 -169,-57 -263,-85l-129 -38c-77,103 -58,75 -133,200l-172 -92z"/>
   <path class="fil9" d="M7627 6850l18 67c-204,93 -31,35 -99,-63 -11,13 -29,17 -34,40 -2,8 -60,67 -62,69 -31,28 -43,37 -78,56l-42 192c-305,-4 -78,19 -166,-86 -242,112 -218,191 -252,455 88,176 99,74 22,203 112,308 -26,-89 163,136l146 -196c15,-26 27,-51 68,-132 11,8 25,11 29,29l57 63c125,122 -169,-23 119,102 127,-138 65,-25 71,-177l-152 -80c-7,-22 -30,-19 -46,-29l187 -128c7,-21 31,-11 46,-16 159,-54 114,-51 237,-90l-60 -129c-7,-18 -33,-71 -40,-92 -58,-172 -19,119 -48,-272 187,115 221,217 248,269 28,51 23,51 46,85l116 -51 562 -308 -8 -47 -32 -13c-294,-175 6,36 -136,-99l-327 -226 -11 118c-250,49 -330,36 -542,350z"/>
   <path class="fil5" d="M19966 12655c32,476 -26,468 127,925 -169,358 -207,258 -207,792l186 22c26,-173 68,-165 181,-281 179,-213 -27,-154 216,-193 -46,330 -93,42 27,342l23 -39c144,-37 43,-149 41,-328 -2,-160 27,-324 30,-501l-129 79 24 -139c-28,-38 -46,-90 -93,-126 5,-209 -26,-3 116,-71 -184,-150 183,-79 -180,-138l252 -18 -53 -55c-160,-31 -269,-20 -212,-186 -48,-246 74,-74 -99,-196 -8,2 -147,48 -170,57 -14,6 -64,42 -80,54z"/>
   <path class="fil3" d="M14677 9122c-107,34 -63,19 -157,25l-18 28 12 184c0,1 263,41 144,364 -47,130 -109,127 -206,258l193 72c-51,255 -150,425 -159,398 -3,-8 -14,17 -21,26l0 346c-92,62 -29,70 -81,151 0,199 -25,4 149,78 76,-134 120,-171 181,-370 110,-357 73,-158 201,-406 -54,-275 -28,-122 -126,-357 114,-54 -22,-79 139,-31 60,17 41,44 73,120l-33 -130c116,-254 42,-85 203,-275 15,-448 123,-360 141,-664l-30 -37 -131 -2 -212 28 126 288 -388 -94z"/>
   <path class="fil11" d="M6856 8860c34,245 51,159 -42,338 -124,-78 -75,56 -109,-153 -1,-5 2,-160 6,-220 -154,247 -1,152 -207,202 -78,-148 -46,-146 151,-349 75,-355 48,-73 -101,-186l2 170c-164,12 80,-35 -105,10l-119 40c-49,326 -64,99 47,348l-200 22c70,150 80,136 54,341 131,-49 111,91 125,-58l5 -81c114,-103 138,-98 308,-109 -321,540 -73,366 -217,750 -129,340 93,240 -98,503l-100 111 258 206 -32 -138c43,-84 -3,-91 59,-159l181 -15 99 -69c-54,-198 -15,-222 -123,-383l103 -196 7 -173c-79,49 -132,73 -216,116 -49,-277 61,-283 296,-193 100,-159 90,-381 142,-592 44,-178 67,-124 120,-237 50,-108 63,-246 87,-365 13,-169 67,-168 -75,-107 -25,219 44,291 -95,427l-120 75c-132,112 -28,21 -91,124z"/>
   <path class="fil12" d="M12148 13917c-133,180 -49,203 -164,204 -13,13 -32,28 -40,38 -8,10 -27,28 -36,40 -8,12 -20,28 -28,41 -8,13 -14,30 -21,43l-227 375 409 48 26 183c109,30 49,-4 125,24 88,32 1,-24 54,32 -197,1 -18,-24 -73,121l452 -280c5,-129 -49,-104 132,-214l20 -241 -20 -105 -110 16 123 268c-295,-165 -93,170 -234,-183 -33,-81 48,-200 68,-243 -56,-60 -11,-36 -112,-43l-12 -186 -37 203 -295 -141z"/>
   <path class="fil10" d="M19224 9508l63 176c4,9 11,30 16,38l169 135c0,203 -33,245 37,397 6,14 50,71 54,83 120,313 69,151 -29,202 -88,9 141,171 -175,-61 100,295 16,235 204,456l95 -112c152,102 170,147 207,347 -170,-66 -189,-150 -279,-209 31,218 70,64 -41,212l124 20 174 221 19 -130c59,-94 11,-5 137,-56l-40 -147c121,82 88,49 195,99l1 -147 -69 -368 -149 0c16,-189 88,-145 -159,-269l104 -72 12 -280 -153 -132 -149 -128 83 -57 -80 -171c-10,12 -22,29 -27,37 -6,8 -22,29 -29,39l-97 134c-81,-288 -84,-128 39,-330l-160 49 -97 24z"/>
   <path class="fil5" d="M18277 17639c193,138 305,152 388,284l-248 138 -232 -95c9,19 187,48 -16,19l66 266 148 -43 7 139 76 74c96,-198 68,-118 94,-357 263,-31 132,25 240,-164 -124,-105 -55,-19 -11,-88l1 106c151,-31 106,-39 127,-203l-67 -78 293 -236 99 -115 17 132c95,-41 80,70 66,-131l15 -200c-122,-80 -127,-51 -203,-157 -424,-1 16,45 -161,-123l-92 14c-9,17 -18,39 -24,51l-108 211c-457,668 -330,297 -475,556z"/>
   <path class="fil3" d="M15541 10899l-91 288 -14 121 85 121c-105,79 -91,-105 -82,103l-212 64 147 1c-16,32 -102,173 -109,190 -75,168 -16,193 -25,255 -19,130 5,27 -49,98 -151,-124 -66,-184 -181,-298 -176,277 -51,224 -96,439 -2,6 -10,23 -15,34l19 209 335 -155 118 247c169,26 73,50 130,-91l-134 29 10 -61c-87,-51 -5,-17 -62,-154l206 -186c-134,-108 -88,108 -112,-131 -20,-206 -73,-93 88,-189 231,-137 -25,45 451,-55l37 -234 33 -104 -172 -2c-75,-207 -60,-157 -12,-402 131,-123 -79,-72 146,-126l30 -43c-352,126 4,82 -323,257 -77,-122 -50,96 -43,-132 1,-11 55,-59 71,-71l-174 -22z"/>
   <path class="fil9" d="M20047 15597c-205,105 -41,-24 -157,152l-101 108c-12,15 -25,36 -34,48 -352,468 -311,88 -329,72l-151 286 203 71 -55 296 -122 -70 -8 158c153,0 124,-38 90,110l123 -37 -40 230 77 21c451,-388 3,-397 595,-862 -13,-335 -28,-252 161,-429l-18 -127c-131,6 -97,44 -244,115l10 -142z"/>
   <path class="fil5" d="M19822 14387l-22 958c-88,140 67,54 -150,136 -59,162 116,90 -158,141l31 249 -97 106c18,16 -23,396 329,-72 9,-12 22,-33 34,-48l101 -108c116,-176 -48,-47 157,-152l18 -335c-13,34 115,163 -95,58 -165,-82 -89,-137 -103,-189l198 -66c93,-25 69,-86 127,-384l-99 -17c242,-356 100,-271 36,-349 -39,99 -88,267 -99,421 -81,-119 -62,-146 -81,-182 -10,-17 -68,-78 -75,-110 -9,-39 -35,-38 -52,-57z"/>
   <path class="fil5" d="M19843 11413l-163 32 65 146c133,281 102,513 116,810 265,0 77,-15 114,62 -28,-170 -139,-212 243,-185 -11,-234 -69,-224 -15,-376 166,-31 37,-31 138,121l0 -251 -62 -114 89 -167 -266 78 146 -268 22 -17 -271 -57c-126,51 -78,-38 -137,56l-19 130z"/>
   <path class="fil6" d="M6543 8522c87,-138 -133,-226 152,-63 48,116 41,56 32,188l-16 178 145 35c63,-103 -41,-12 91,-124l120 -75c139,-136 70,-208 95,-427l-178 39c163,-294 -29,-301 -170,-428 -223,121 -326,382 -303,584l32 93z"/>
   <path class="fil13" d="M17152 7910c63,72 114,130 169,185 203,204 101,-53 166,233 0,-396 -43,-81 185,-208 97,190 31,79 171,223 143,-206 -2,-56 347,-139 -12,-16 -30,-63 -36,-50l-295 -156 127 -113c-12,-9 -33,-39 -38,-28 -7,14 -43,-31 -71,-60 -267,-280 105,133 -60,-69 -8,-10 -21,-31 -27,-39 -6,-8 -17,-27 -26,-40 -116,117 229,147 -154,91 -110,-245 74,-64 -220,-125l-238 295z"/>
   <path class="fil12" d="M11524 5681l2 2 -62 356 -244 -215c43,234 55,156 -39,65l-72 219 -8 202 224 10 31 -174c274,52 97,-9 385,-83 -108,-137 197,-114 -153,-115l203 -192c40,190 -43,148 173,237 116,-146 104,1 91,-224 -11,-192 -45,-53 -83,-69 162,0 116,37 116,-136 -11,0 -243,6 -248,7 -209,40 -128,37 -186,84 76,149 131,-9 -85,188l-45 -162z"/>
   <path class="fil14" d="M12777 14331l-20 241c-181,110 -127,85 -132,214l-452 280 22 69 142 -19c88,264 6,35 153,144 110,-14 -114,-26 148,305 -12,-152 -36,-101 -15,-254 23,-165 -14,-99 75,-118 29,-227 90,-233 261,-323l-10 -83 -102 -35 90 -241 40 -81c-88,-84 83,-75 -200,-99z"/>
   <path class="fil15" d="M9110 17593c76,44 45,16 87,88l106 49c13,7 37,44 46,31 8,-13 27,23 41,35 196,85 203,15 356,175 208,218 47,103 336,282 232,144 513,352 755,466l259 11c-161,36 -276,-119 -380,-245 -192,-230 -114,-95 -292,-206 -182,-114 -27,-195 -556,-224l3 -258c-445,-24 33,5 -260,-78 -182,-52 -35,-47 -314,18 79,-229 29,-177 137,-283 -221,30 -76,178 -324,-26l0 165z"/>
   <path class="fil16" d="M6520 11848l106 185 -11 235 123 133c14,-606 58,-437 -109,-683 239,-587 57,-249 49,-930 -105,153 -150,-230 -84,263 5,-72 48,-95 -39,-178 -212,-200 -172,-23 -175,-23 2,17 8,37 11,49 3,12 10,35 14,50 33,147 58,124 -1,294 135,53 110,69 186,176 -188,97 -94,40 -189,175l150 122c64,142 66,132 -31,132z"/>
   <path class="fil17" d="M14517 9428c-101,183 95,45 -127,160l73 207c-79,106 117,71 -124,91l-75 -7 5 18 96 202 -151 28c76,191 90,93 149,169 -46,103 5,38 -82,130l-152 143 61 21 109 14 166 219 0 -346c7,-9 18,-34 21,-26 9,27 108,-143 159,-398l-193 -72c97,-131 159,-128 206,-258 119,-323 -144,-363 -144,-364l3 69z"/>
   <path class="fil13" d="M12568 13352c19,278 3,33 109,261 83,178 45,94 34,273l-231 -31 12 186c101,7 56,-17 112,43 -20,43 -101,162 -68,243 141,353 -61,18 234,183l-123 -268 223 -428c133,-29 88,301 149,-172 50,-145 31,-151 42,-193 79,-303 -56,35 57,-136 -154,34 -102,-69 -131,100 -11,-4 -97,-50 -98,-51 -3,-1 -16,-8 -18,-8 -2,-1 -12,-2 -13,-2l-68 -6c-5,-3 -49,-35 -54,-55 -3,-19 -18,-26 -28,-38 0,190 45,153 -140,99z"/>
   <path class="fil18" d="M5996 12358l76 58c22,12 90,41 109,47 -109,284 184,-152 -67,118l-82 68c144,289 64,606 164,930 291,-120 70,-40 131,1l-144 0c26,118 28,185 77,304 7,19 31,70 41,86 53,85 44,54 99,107 82,-151 21,-43 83,-73l-39 -210c-110,-182 -35,-166 -7,-276 170,-18 157,-7 257,76 3,-20 16,-139 16,-152l-20 -91c-117,-34 -65,-24 -179,-12l-91 22c-134,12 -130,-31 -217,-153l-71 -551c172,-73 205,-27 83,-474l-18 150 -201 25z"/>
   <path class="fil19" d="M5999 10394l31 -106 115 19c-19,-251 41,-127 -121,-258l46 -165c-127,-68 -139,-100 -197,-207 -171,144 -135,-33 -217,461 -65,393 60,359 166,444l177 -188z"/>
   <path class="fil11" d="M7063 14591l22 389c340,90 176,18 211,111 2,6 5,57 7,46 1,-12 4,37 8,56l298 183 65 -159c-166,-275 -250,-476 -350,-768l-174 82c0,114 26,90 -87,60z"/>
   <path class="fil20" d="M9669 7077l150 99 -285 255c-53,134 -7,68 -124,113 -20,286 19,117 -68,261l121 107c-15,191 -60,151 128,129l59 -123c-98,-41 -100,87 -47,-122l7 -211c-87,-262 163,-20 176,-8 112,-112 82,-81 141,-212 -54,-63 -131,60 -28,-197l55 145c80,-68 67,118 85,-172l-55 -59 -186 -81 26 -141 -207 27 52 190z"/>
   <path class="fil11" d="M20192 14681c-58,298 -34,359 -127,384l-198 66c14,52 -62,107 103,189 210,105 82,-24 95,-58l280 16 87 -170 -98 -26c53,-87 10,-49 124,-106 23,-176 164,-347 68,-528 -41,-40 -123,-51 -123,-144 -9,14 -24,31 -26,39 -3,8 -16,29 -18,39 -36,193 40,344 105,500 -266,-138 -67,45 -272,-201z"/>
   <path class="fil21" d="M10463 16780c89,70 11,-54 80,95 21,46 11,75 52,163l110 -42 25 -114 134 -24 101 55c157,16 165,13 282,-36l12 -149 -17 -44c-122,94 -96,66 -285,39 -415,-82 -357,-81 -538,-413l-219 -22c73,142 67,142 119,270l144 222z"/>
   <path class="fil22" d="M12755 13012l154 -124c24,-247 5,-181 101,-397l127 -12c60,-112 -79,-92 65,-101l92 -7 152 -419c-149,22 -83,-18 -183,68l4 -106c-361,278 -479,629 -512,1098z"/>
   <path class="fil23" d="M14028 7872l-19 247 110 9c153,116 115,85 428,-20 121,-51 62,-170 205,-299 -224,-183 -520,19 -724,63z"/>
   <path class="fil12" d="M12909 12888l-154 124 -64 28 -85 168 -38 144c185,54 140,91 140,-99 10,12 25,19 28,38 5,20 49,52 54,55l68 6c1,0 11,1 13,2 2,0 15,7 18,8 1,1 87,47 98,51 29,-169 -23,-66 131,-100l153 -262c-154,-22 -51,39 -121,-92 50,-5 91,-16 110,-24 -155,-96 -102,-40 -198,-177 -8,228 18,59 -55,208l-98 -78z"/>
   <path class="fil13" d="M6934 7783l-111 26 -9 36c141,127 333,134 170,428l178 -39c142,-61 88,-62 75,107 123,-329 220,-113 279,-556 -288,-125 6,20 -119,-102l-57 -63c-4,-18 -18,-21 -29,-29 -41,81 -53,106 -68,132l-146 196c-189,-225 -51,172 -163,-136z"/>
   <path class="fil24" d="M15377 12493l135 24c84,-234 -15,-23 104,-192 104,-147 33,74 98,-166l94 -219c5,-5 23,-21 29,-27 6,-7 23,-22 30,-29 70,-74 16,14 81,-106 -476,100 -220,-82 -451,55 -161,96 -108,-17 -88,189 24,239 -22,23 112,131l-206 186c57,137 -25,103 62,154z"/>
   <path class="fil25" d="M13358 5571c-204,-78 -709,-231 -831,-38l-48 281 290 39c-73,-278 -44,-225 2,-292l124 191c180,13 22,-30 186,43 12,-12 30,-48 36,-36 9,17 23,-72 241,-188z"/>
   <path class="fil7" d="M19975 12463c-37,-77 151,-62 -114,-62 108,184 54,54 105,254 16,-12 66,-48 80,-54 23,-9 162,-55 170,-57 173,122 51,-50 99,196 18,5 106,38 106,38 14,4 116,23 137,25l19 -447 -124 -95c-138,-86 -112,139 -112,-90 -83,92 -44,-64 -43,85 1,12 55,137 60,149 -402,-115 -56,-108 -383,58z"/>
   <path class="fil26" d="M5718 9186l-113 -349c-210,-1 -256,-42 -461,-70 9,24 20,38 26,72 34,169 111,98 112,98 -391,-9 -35,-29 -190,113 13,11 36,11 39,33l74 150c95,172 87,101 182,146 7,-13 19,-50 20,-41l19 -131c0,-2 -24,-152 -26,-166 209,114 -10,78 318,145z"/>
   <path class="fil27" d="M6657 14630c-7,334 71,512 265,767 142,-108 77,-83 276,-110 -223,-136 -242,-343 -243,-590 -248,44 -131,20 -223,0l-24 -231 -51 164z"/>
   <path class="fil28" d="M5718 9186c-149,66 -50,46 -106,113 55,150 32,142 138,268 1,1 -74,31 99,96l156 -5c18,-3 42,-20 63,-29 59,-266 -61,-146 1,-503 -274,55 -235,107 -351,60z"/>
   <path class="fil13" d="M19886 14372l-64 15c17,19 43,18 52,57 7,32 65,93 75,110 19,36 0,63 81,182 11,-154 60,-322 99,-421 64,78 206,-7 -36,349l99 17c205,246 6,63 272,201 -65,-156 -141,-307 -105,-500 2,-10 15,-31 18,-39 2,-8 17,-25 26,-39 0,93 82,104 123,144l-7 -225 -23 39 -174 60 -69 -209c-113,116 -155,108 -181,281l-186 -22z"/>
   <path class="fil29" d="M7434 16055l108 306 203 132 -20 34c171,-34 116,48 178,-39l-42 -328 -178 -192c-165,77 49,-98 -88,15l-199 -66 38 138z"/>
   <path class="fil22" d="M12128 13897l20 20 295 141 37 -203 231 31c11,-179 49,-95 -34,-273 -106,-228 -90,17 -109,-261l-227 17 95 242c7,11 26,27 38,42 -131,90 -108,16 -143,210l-203 34z"/>
   <path class="fil30" d="M14198 10729c23,403 92,192 0,477l-165 -108c-108,194 -79,30 -50,226 386,10 -5,-169 538,-81l12 -191c-174,-74 -149,121 -149,-78 52,-81 -11,-89 81,-151l-166 -219 -109 -14 8 139z"/>
   <path class="fil31" d="M10289 6325l-124 68c3,157 -73,-2 143,160 -367,96 -158,21 -193,119l-12 113 223 -52c51,115 -46,11 90,53 145,-5 88,33 189,-155l-119 51c222,-69 90,44 89,-175 -44,-91 -41,-114 -62,-159 -67,-145 -12,-55 -111,-156 -97,-4 -72,-27 -72,72 214,182 85,-88 75,114 -5,110 89,83 -141,58l25 -111z"/>
   <path class="fil32" d="M10935 5959l-24 209 20 158c52,-108 0,-21 70,-98 89,-100 23,25 108,-120l72 -219c94,91 82,169 39,-65l244 215 62 -356 -215 -17c0,275 -268,-185 -376,293z"/>
   <path class="fil12" d="M10402 6192c99,101 44,11 111,156 21,45 18,68 62,159l140 -5 -53 125c124,-17 109,22 81,-88 116,-221 132,40 7,-267l181 54 -20 -158c-113,-59 -77,115 -74,-162l-210 33c-42,28 -92,56 -118,73 -59,40 -73,53 -107,80z"/>
   <path class="fil33" d="M13578 5948c200,50 -46,7 235,15l9 176 177 -27c-4,-241 89,91 105,-288 -132,-45 -182,-49 -338,-163l-285 70c15,19 32,44 40,58l48 108c4,-8 4,35 9,51z"/>
   <path class="fil34" d="M16156 10435l-41 93c-5,11 -14,28 -20,40 -55,117 -24,29 -97,227 267,-19 275,1 395,140 58,-372 40,-58 -75,-327l197 0 20 -144c-2,-21 -9,-52 -9,-64 0,-10 -1,-43 -1,-53 1,-12 18,-47 30,-64 -338,51 -202,237 -241,164 -5,-10 -1,36 -7,53 -71,-45 -92,-16 -151,-65z"/>
   <path class="fil35" d="M13995 13412l-88 219c-5,22 -12,27 -15,66l-52 317 307 61c9,3 32,12 49,18 -13,-178 53,-66 -52,-164 17,-12 53,-41 60,-47l63 -60c-149,9 -89,31 -200,-33 -96,-56 -103,-125 -116,-142 100,-174 113,-170 331,-200l-76 -214c-44,19 -69,30 -111,65 -33,26 -68,73 -68,73 -6,-12 -21,28 -32,41z"/>
   <path class="fil33" d="M16498 9975c72,163 50,21 29,279l-78 -140c-87,67 -25,25 -88,87l-116 106 -48 -165 -128 77 52 -167c-157,18 -103,52 -128,248l114 -7 49 142c59,49 80,20 151,65 6,-17 2,-63 7,-53 39,73 -97,-113 241,-164 -12,17 -29,52 -30,64 0,10 1,43 1,53 0,12 7,43 9,64 54,-82 -4,64 55,-120 16,-47 12,-86 43,-159 48,-112 73,-105 160,-204 -63,-108 25,-23 -87,-71 -41,53 88,143 -208,65z"/>
   <path class="fil36" d="M6922 15397c60,62 75,83 129,168l-76 173c295,54 149,3 208,137l251 180 -38 -138 199 66c-71,-229 -49,-123 -186,-223 103,187 50,54 -36,91l-48 -99c-116,-241 -82,-146 -150,-125l-64 72c32,-233 35,-212 87,-412 -199,27 -134,2 -276,110z"/>
   <path class="fil24" d="M15846 11438c-34,-268 20,-151 228,-104l155 -64 19 -160c-22,-32 -98,-160 -101,-175l-167 -25c-225,54 -15,3 -146,126 -48,245 -63,195 12,402z"/>
   <path class="fil37" d="M7725 16527c69,138 38,173 213,218l380 52c-232,-133 -77,44 -174,-205 -86,-221 44,-74 -127,-300 -146,-242 11,-43 -156,-132l42 328c-62,87 -7,5 -178,39z"/>
   <path class="fil38" d="M10957 16723c189,27 163,55 285,-39l107 -121 215 10 27 -15 -4 -186c-21,-11 -46,-24 -62,-32l-181 -89c-213,263 36,252 -368,323l-19 149z"/>
   <path class="fil27" d="M15541 10899l174 22c-16,12 -70,60 -71,71 -7,228 -34,10 43,132 327,-175 -29,-131 323,-257l0 -65c-26,-18 -84,-44 -89,-65 -8,-32 -14,-51 -35,-76l86 -225 -172 34c-64,268 -132,258 -259,429z"/>
   <path class="fil39" d="M13643 15537c26,-7 77,-18 132,-34 -1,-255 -56,-236 82,-357l-30 -161 56 22c64,-114 40,-92 70,-164 -74,-155 84,-96 -158,-133l-201 641c-50,278 -68,92 49,186z"/>
   <path class="fil40" d="M9103 16834l-118 -101c-114,106 169,127 -176,73 -78,-245 -45,-59 66,-135l-196 -248c-75,246 -24,88 21,285 37,164 -91,47 90,284l259 -2c9,21 70,103 76,109l171 141c-147,-525 -320,-189 -193,-406z"/>
   <path class="fil33" d="M19975 12463c327,-166 -19,-173 383,-58 -5,-12 -59,-137 -60,-149 -1,-149 -40,7 43,-85 0,229 -26,4 112,90 -2,-19 -11,-295 -11,-299 -37,-189 25,-67 -101,-190l0 251c-101,-152 28,-152 -138,-121 -54,152 4,142 15,376 -382,-27 -271,15 -243,185z"/>
   <path class="fil41" d="M13019 13642c-61,473 -16,143 -149,172l-223 428 110 -16 324 -213c46,-201 93,-34 130,-309 -96,-75 3,-11 -192,-62z"/>
   <path class="fil42" d="M11919 15627l103 1c-11,231 56,232 -78,255l-32 95 150 -42c-86,337 -116,128 93,208 -19,-264 -14,-361 125,-517 -145,-103 -96,-83 -257,-129l43 -172 -107 -9 -40 310z"/>
   <path class="fil12" d="M18190 8204c-302,112 -106,293 44,284 204,-11 -4,16 310,-193 -175,-131 -71,-31 -189,-231l-147 -17 -18 157z"/>
   <path class="fil40" d="M8643 6707l-81 -240 193 -127c-82,-92 122,-60 -137,-81 -17,22 -39,92 -44,72 -5,-23 -51,51 -75,49l-47 -116c-298,-4 -197,-46 -272,118l327 226c142,135 -158,-76 136,99z"/>
   <path class="fil43" d="M12783 16930c218,449 399,164 453,124 -23,-207 95,-241 -255,-198l-198 74z"/>
   <path class="fil33" d="M15572 6591l172 92c75,-125 56,-97 133,-200l37 -203 -364 -19 22 330z"/>
   <path class="fil13" d="M7859 7265c36,128 -178,136 159,87l103 -277 -116 51c-23,-34 -18,-34 -46,-85 -27,-52 -61,-154 -248,-269 29,391 -10,100 48,272 7,21 33,74 40,92l60 129z"/>
   <path class="fil14" d="M14264 9879l75 7c-7,-224 -58,-187 51,-298 222,-115 26,23 127,-160 -205,55 -34,100 -147,-5 84,-78 -82,-115 144,-64l-12 -184c-363,-7 -81,-25 -214,62 -24,113 -14,175 -31,305 -40,306 -92,-35 7,337z"/>
   <path class="fil31" d="M7861 16160c167,89 10,-110 156,132l159 28c21,-8 43,-29 62,-38 22,-11 49,-31 65,-54l-118 -110 -138 -244 52 249c-409,-356 60,-230 -358,-357 139,187 124,142 120,394z"/>
   <path class="fil13" d="M11919 15627l40 -310 -227 -178c-3,-10 -13,-33 -20,-48 -74,182 7,80 -126,150 188,378 104,298 333,386z"/>
   <path class="fil15" d="M19173 16552l-14 67c82,56 57,20 134,99l8 -158 122 70 55 -296 -203 -71 -168 26 66 263z"/>
   <path class="fil44" d="M6657 14630l51 -164 -61 -314 -294 17c170,227 32,81 121,369 92,61 98,50 183,92z"/>
   <path class="fil29" d="M10709 15776l-36 18c-68,95 49,59 -198,131l-4 59c62,156 -89,216 212,58l138 -104c5,-72 -14,-59 11,-119l168 -268 -157 22c-13,16 -43,60 -51,72l-55 84c-4,-11 -18,31 -28,47z"/>
   <path class="fil45" d="M18976 16807c177,168 -263,122 161,123 76,106 81,77 203,157l43 -259c34,-148 63,-110 -90,-110 -77,-79 -52,-43 -134,-99l-70 101c0,125 27,85 -113,87z"/>
   <path class="fil25" d="M9994 6814l-10 268 55 59c199,-82 55,7 199,-129 113,-108 114,-121 178,-226 -136,-42 -39,62 -90,-53l-223 52c-65,91 -6,59 -109,29z"/>
   <path class="fil13" d="M15010 11842c115,114 30,174 181,298 54,-71 30,32 49,-98 9,-62 -50,-87 25,-255 7,-17 93,-158 109,-190l-147 -1 25 -125c-166,140 -40,15 -154,225l-88 146z"/>
   <path class="fil46" d="M18539 8467c-131,89 -72,-174 -122,211 15,6 38,-1 44,18l147 98c7,5 19,21 29,30 15,-15 43,-53 51,-39l125 -114c-100,-254 0,-172 -209,-292l64 160c-40,-62 -51,-21 -129,-72z"/>
   <path class="fil47" d="M16493 18771c-97,194 104,109 -129,168l41 205c72,112 -24,117 95,77 94,-77 164,-146 304,-153 -103,-237 106,10 -59,-57 -48,-19 -72,43 -172,-95 108,-167 6,-41 171,-166 -246,11 -64,25 -125,-86l-17 16 -30 122 -79 -31z"/>
   <path class="fil35" d="M12963 19661l261 -1c-2,-233 33,-88 -33,-223 -125,134 -68,64 -110,227 -8,-13 -18,-31 -23,-39 -6,-8 -20,-31 -25,-40l-89 -122c-186,86 -447,-262 -372,94l391 104z"/>
   <path class="fil12" d="M13294 12371l346 -30 6 -317c-71,-7 -36,-47 -110,63 -30,-243 10,-55 -90,-135l-152 419z"/>
   <path class="fil43" d="M11587 16372l4 186c171,0 125,40 125,-138 209,339 223,-27 228,-32 -195,-155 53,-142 -268,-64 50,-44 70,-148 70,-149l-168 27 9 170z"/>
   <path class="fil48" d="M13062 12758c96,137 43,81 198,177l112 -100c-111,-225 -88,-151 -36,-370l-199 14 -56 211c-5,18 -13,45 -19,68z"/>
   <path class="fil40" d="M20065 15262l-18 335 -10 142c147,-71 113,-109 244,-115l28 -154c-119,-90 -185,169 -90,-103l123 -8 3 -81 -280 -16z"/>
   <path class="fil49" d="M9591 8041c-188,22 -143,62 -128,-129l-45 7c-3,149 -23,252 -14,392 20,303 -25,181 147,288 112,-258 -64,-249 40,-558z"/>
   <path class="fil50" d="M6126 9756l-56 128 -46 165c162,131 102,7 121,258 224,96 71,-254 61,-450 9,-9 25,-37 28,-28l67 -131 -82 -81 37 104 -130 35z"/>
   <path class="fil47" d="M15550 6258c-74,-178 -116,-135 -325,-185l37 135c-272,-21 -91,-50 -243,103l308 -52c-14,20 -36,42 -44,58l-30 182c285,-117 229,-42 125,-289l172 48z"/>
   <path class="fil51" d="M6179 9082l200 -22c-111,-249 -96,-22 -47,-348 -165,-40 -138,-87 -138,62 3,-81 17,-55 -123,-98 -50,409 -58,168 132,288l-24 118z"/>
   <path class="fil52" d="M5940 11332l-10 200c6,20 30,120 32,124 64,133 -6,22 81,121l146 -121c-91,-246 -53,-204 2,-307l-193 -9 -58 -8z"/>
   <path class="fil48" d="M13509 11447c-28,49 -37,40 -64,141 -17,61 -30,173 -51,254 272,-170 61,-63 145,11 43,-162 27,-94 106,-175 158,-161 117,66 140,-273 -230,53 -95,-95 -171,171 -191,0 4,26 -105,-129z"/>
   <path class="fil30" d="M10843 15573l157 -22 164 130c7,-119 18,-119 24,-147 27,-132 27,-64 39,-225l-268 29 -116 235z"/>
   <path class="fil53" d="M14073 10211l0 94 55 48c-26,106 7,73 -116,79 91,243 4,63 117,137l152 -143c87,-92 36,-27 82,-130 -59,-76 -73,22 -149,-169 -71,32 -91,31 -141,84z"/>
   <path class="fil54" d="M10931 6326l-181 -54c125,307 109,46 -7,267l301 -50 89 -174 192 5 -224 -10 8 -202c-85,145 -19,20 -108,120 -70,77 -18,-10 -70,98z"/>
   <path class="fil55" d="M5940 11332l58 8 50 -124c7,-14 23,-36 30,-48l55 -295c5,-38 22,-49 30,-75l-229 38 6 496z"/>
   <path class="fil46" d="M14033 11098l165 108c92,-285 23,-74 0,-477l-78 59 -96 -91 9 401z"/>
   <path class="fil56" d="M10463 16780l-144 -222c-52,-128 -46,-128 -119,-270l3 -72c-65,70 -60,-37 -102,139 -36,149 77,210 99,240 36,51 63,99 89,171l174 14z"/>
   <path class="fil35" d="M6554 8492c149,113 176,-169 101,186 -197,203 -229,201 -151,349 206,-50 53,45 207,-202l16 -178c9,-132 16,-72 -32,-188 -285,-163 -65,-75 -152,63l11 -30z"/>
   <path class="fil23" d="M12090 15294c158,-58 66,10 178,-83 -79,210 -48,155 6,255 172,-62 98,44 216,-206 -147,-109 -65,120 -153,-144l-142 19 -82 8 -23 151z"/>
   <path class="fil35" d="M9793 6175c93,-19 122,-18 222,-51 258,-83 144,61 180,-128l-30 -88c-250,112 -293,-70 -375,190 -159,42 -166,-23 3,77z"/>
   <path class="fil57" d="M17001 14511c16,14 37,19 44,47 6,26 32,35 39,42 8,8 46,47 61,60 78,-76 123,110 130,-153 12,-454 60,-44 -142,-223 -140,173 -27,-41 -132,227z"/>
   <path class="fil47" d="M7814 15408l-21 -210 -119 19c-56,144 -118,86 -211,307 271,39 162,68 351,-116z"/>
   <path class="fil58" d="M15972 10436l-86 225c21,25 27,44 35,76 5,21 63,47 89,65l-12 -7c73,-198 42,-110 97,-227 6,-12 15,-29 20,-40l41 -93 -49 -142 -114 7 -21 136z"/>
   <path class="fil59" d="M14144 14542l127 -55 -31 -210c18,-180 84,-234 -44,-184l-103 50 38 301 -192 209c224,-97 -7,92 205,-111z"/>
   <path class="fil60" d="M14119 8128c-55,-35 -99,-179 -354,116 168,120 164,87 385,74l-31 -190z"/>
   <path class="fil21" d="M9110 5953c-28,135 -25,100 0,150 205,-26 450,-140 462,-373 -215,91 -173,165 -462,223z"/>
   <path class="fil61" d="M17390 7615c294,61 110,-120 220,125 383,56 38,26 154,-91 -353,-111 -308,-255 -589,-413l215 379z"/>
   <path class="fil62" d="M19143 17401l-293 236 67 78c186,-56 308,-76 342,-297l-17 -132 -99 115z"/>
   <path class="fil63" d="M15980 10910l167 25c3,15 79,143 101,175 180,-120 95,-49 145,-175 -120,-139 -128,-159 -395,-140l12 7 0 65 -30 43z"/>
   <path class="fil26" d="M5511 10782l-16 -361c-26,12 -61,-4 -75,33 -29,79 -165,-4 -170,158 -8,204 87,123 261,170z"/>
   <path class="fil35" d="M16121 10052l-52 167 128 -77c19,-8 33,-32 97,-41 127,-19 110,-1 155,13l78 140c21,-258 43,-116 -29,-279l-125 -60 -252 137z"/>
   <path class="fil42" d="M12757 14226l20 105c283,24 112,15 200,99 44,-81 12,73 63,-163 19,-91 -4,-85 41,-254l-324 213z"/>
   <path class="fil64" d="M13638 11176c20,-3 113,-17 128,-22l154 -56c96,-464 -159,83 4,-338 -175,-32 -84,62 -148,171 -73,126 -82,130 -138,245z"/>
   <path class="fil65" d="M12909 12888l98 78c73,-149 47,20 55,-208 6,-23 14,-50 19,-68l56 -211 -127 12c-96,216 -77,150 -101,397z"/>
   <path class="fil35" d="M10767 5321c92,135 35,54 173,120 110,52 24,33 159,73 110,36 26,26 57,-62 -94,-204 -25,-127 -247,-222l-142 91z"/>
   <path class="fil66" d="M12606 13208l85 -168 -36 -187c-71,121 -183,100 -231,194 -138,268 -19,51 6,139l176 22z"/>
   <path class="fil31" d="M6876 14304c95,-31 148,31 152,-125 5,-188 -195,-259 -195,-260 -24,154 -35,-4 -19,164 1,19 13,95 18,114 4,18 16,40 20,55 4,14 17,35 24,52z"/>
   <path class="fil63" d="M6801 9785c116,0 81,-141 87,-250 -235,-90 -345,-84 -296,193 84,-43 137,-67 216,-116l-7 173z"/>
   <path class="fil67" d="M13924 10760l100 -63 96 91 78 -59 -8 -139 -61 -21c-113,-74 -26,106 -117,-137l-51 -78 -37 406z"/>
   <path class="fil64" d="M14677 9122l388 94 -126 -288c-215,66 -125,12 -262,194z"/>
   <path class="fil68" d="M20253 14113l69 209 174 -60c-120,-300 -73,-12 -27,-342 -243,39 -37,-20 -216,193z"/>
   <path class="fil59" d="M11344 18226c-28,-31 -89,-89 -154,-148 -108,-98 -71,-73 -170,-117l-178 14c142,49 102,53 213,168 106,110 70,67 233,161l56 -78z"/>
   <path class="fil69" d="M15948 11778c-65,120 -11,32 -81,106 -7,7 -24,22 -30,29 -6,6 -24,22 -29,27l-94 219c16,-14 38,-55 46,-42 62,108 73,-70 78,-76 9,-8 24,-23 33,-32l94 -76c93,-106 88,-232 94,-389l-74 0 -37 234z"/>
   <path class="fil7" d="M15034 8816l67 94c-17,-322 -13,-76 136,-179l-86 169 131 2c55,-222 60,18 38,-219l-247 -101c-71,198 -27,92 -39,234z"/>
   <path class="fil70" d="M18190 8204l18 -157c-80,-210 -75,-151 -222,-162l-127 113 295 156c6,-13 24,34 36,50z"/>
   <path class="fil59" d="M8897 6640c173,-107 86,-56 319,-77l18 -114c106,-98 -84,-128 192,-129 -288,-22 -150,-34 -312,66 -118,72 -186,106 -217,254z"/>
   <path class="fil71" d="M13953 14843c-30,72 -6,50 -70,164 257,-149 63,-112 320,-171 11,-176 29,-231 68,-349l-127 55 -40 186c-26,23 -145,110 -151,115z"/>
   <path class="fil13" d="M19143 17401l32 -146c-117,-67 -97,-46 -200,-136l-281 256c400,-115 215,-72 449,26z"/>
   <path class="fil47" d="M7587 7608l221 -94 -150 -139c-5,-17 -24,-13 -36,-20 -15,5 -39,-5 -46,16l-187 128c16,10 39,7 46,29l152 80z"/>
   <path class="fil12" d="M14825 6427c0,104 137,78 251,90l-127 -277c-7,-12 -28,-20 -33,-48 -5,-30 -24,-33 -36,-50 -27,19 -106,57 -170,121 78,86 -19,63 281,105 -115,93 156,144 -166,59z"/>
   <path class="fil18" d="M11553 14857c151,106 72,-133 144,159 80,-97 119,108 55,-305l289 -5 -409 -48 -79 199z"/>
   <path class="fil72" d="M6233 9423l-64 173 50 21 82 81c18,-29 54,-7 102,-199 75,-298 31,-130 -40,-215l-5 81c-14,149 6,9 -125,58z"/>
   <path class="fil20" d="M19340 17087l-15 200c59,-55 18,-7 95,-95l123 -150 -77 -21 40 -230 -123 37 -43 259z"/>
   <path class="fil30" d="M16147 7145l8 39 171 48 -125 19c74,142 -84,54 136,141 92,-140 -236,-195 218,-75l-82 -95c-8,-11 -26,-32 -35,-44 -4,-7 -60,-94 -68,-108 -152,117 -7,31 -223,75z"/>
   <path class="fil54" d="M14915 10276c77,-181 22,-126 144,-295 -31,-208 14,-25 -91,-103l33 130c-32,-76 -13,-103 -73,-120 -161,-48 -25,-23 -139,31 98,235 72,82 126,357z"/>
   <path class="fil44" d="M6856 8860l-145 -35c-4,60 -7,215 -6,220 34,209 -15,75 109,153 93,-179 76,-93 42,-338z"/>
   <polygon class="fil73" points="9824,6860 9798,7001 9984,7082 9994,6814 9943,6664 "/>
   <path class="fil36" d="M9943 6664l172 8c35,-98 -174,-23 193,-119 -216,-162 -140,-3 -143,-160 -200,81 -166,67 -222,271z"/>
   <path class="fil59" d="M10174 17522c-86,-133 -97,-149 -271,-182 -54,260 -67,109 79,217 159,117 181,-28 192,-35z"/>
   <path class="fil43" d="M12817 16735c-113,-301 -67,-214 -270,-263 58,379 -39,216 270,263z"/>
   <path class="fil74" d="M13538 13087l116 -295c-137,7 -175,-58 -218,107 -75,282 -6,140 102,188z"/>
   <path class="fil59" d="M9761 17171l-407 -147 -4 122c164,47 249,94 377,144l34 -119z"/>
   <path class="fil29" d="M19563 10934l23 26c90,59 109,143 279,209 -37,-200 -55,-245 -207,-347l-95 112z"/>
   <path class="fil74" d="M20086 10664c-3,-12 -45,-181 -47,-187 -93,-213 10,-123 -157,-154l-104 72c247,124 175,80 159,269l149 0z"/>
   <path class="fil26" d="M6169 8584c288,-56 119,52 237,-154 -2,-1 54,-172 -142,-62 -153,87 -87,-25 -95,216z"/>
   <path class="fil1" d="M10607 20332c339,-19 288,69 279,-204 -275,32 -176,11 -279,204z"/>
   <path class="fil52" d="M12698 15193c157,-81 195,-117 298,-186l-37 -137c-171,90 -232,96 -261,323z"/>
   <path class="fil3" d="M8384 17151c159,99 37,47 192,54l38 -261c-268,68 -146,-42 -230,207z"/>
   <polygon class="fil63" points="11242,16684 11259,16728 11522,16740 11564,16573 11349,16563 "/>
   <path class="fil22" d="M11227 15309c135,-105 138,-42 277,-116 -214,-402 76,86 -75,-148 -204,68 -220,-3 -202,264z"/>
   <path class="fil44" d="M9491 7324l43 107 285 -255 -150 -99c-153,197 -1,163 -178,247z"/>
   <path class="fil54" d="M6482 10607l156 -39 -36 153 105 7 15 -295 -181 15c-62,68 -16,75 -59,159z"/>
   <path class="fil75" d="M5999 10394l-41 262 213 -26c-17,-43 -24,-94 -29,-81 -43,123 -52,-84 -64,-101 -16,-165 -19,-54 63,-67l4 -74 -115 -19 -31 106z"/>
   <path class="fil76" d="M19481 9435c-123,202 -120,42 -39,330l97 -134c7,-10 23,-31 29,-39 5,-8 17,-25 27,-37 -40,-185 37,12 -24,-91 -53,-90 -44,-70 -95,-125l5 96z"/>
   <path class="fil77" d="M14292 11656c48,-22 150,-58 154,-60 149,-69 61,-25 132,-72 -174,-52 -40,-5 -118,-73 -98,-85 136,-66 -70,-73 -105,-3 -88,155 -98,278z"/>
   <path class="fil29" d="M9921 5553l79 53c14,-6 126,-67 129,-70 132,-115 43,14 121,-167 -123,19 -152,5 -234,52 -134,77 -41,-2 -95,132z"/>
   <path class="fil78" d="M14260 19169l-235 12c-7,9 -186,40 44,113 95,31 232,18 344,22 -139,-36 -80,-82 -153,-147z"/>
   <path class="fil53" d="M19999 11227l271 57c-17,-312 38,-175 -115,-252l-1 147c-107,-50 -74,-17 -195,-99l40 147z"/>
   <path class="fil77" d="M16373 9915l125 60c296,78 167,-12 208,-65 -351,-60 54,88 -109,-26 -34,-24 -89,-85 -103,-107 -86,57 -50,18 -121,138z"/>
   <path class="fil13" d="M7063 14591c113,30 87,54 87,-60 -96,-279 33,-119 -150,-220 -58,103 -123,-151 -33,172 3,11 78,90 96,108z"/>
   <path class="fil79" d="M7183 15875c-59,-134 87,-83 -208,-137 -13,163 -41,136 25,266 151,-43 199,64 67,-129l116 0z"/>
   <path class="fil80" d="M20279 11658c146,-69 91,43 124,-126l-126 -197c-6,-8 -19,-23 -29,-34l-146 268 266 -78 -89 167z"/>
   <path class="fil81" d="M12949 14787c123,-105 135,-60 188,-259 -144,43 -117,-110 -118,84 -180,86 -3,24 -82,-101l-90 241 102 35z"/>
   <path class="fil21" d="M15303 11425l-51 46 -25 125 212 -64c-9,-208 -23,-24 82,-103l-85 -121c-10,7 -25,16 -30,20 -6,5 -26,21 -32,26 -9,7 -57,56 -71,71z"/>
   <path class="fil82" d="M15985 11544l74 0 15 -210c-208,-47 -262,-164 -228,104l172 2 -33 104z"/>
   <path class="fil54" d="M7622 7355c12,7 31,3 36,20l150 139 210 -162c-337,49 -123,41 -159,-87 -123,39 -78,36 -237,90z"/>
   <path class="fil17" d="M13569 6084l253 55 -9 -176c-281,-8 -35,35 -235,-15l-9 136z"/>
   <path class="fil79" d="M5930 11532l10 -200c-223,-87 -144,-28 -221,76 84,70 34,73 211,124z"/>
   <path class="fil14" d="M13955 10407c41,-159 -60,-146 118,-102l0 -94c-270,-43 -159,-80 -275,80 62,78 36,55 157,116z"/>
   <path class="fil60" d="M9152 5742l303 -77c-28,-37 123,-163 -142,-81 -215,67 -143,-23 -161,158z"/>
   <path class="fil83" d="M11984 14121c115,-1 31,-24 164,-204l-20 -20 -204 81c-53,60 -41,43 -83,119l143 24z"/>
   <path class="fil84" d="M16393 10935c129,-26 40,50 91,-92 25,-70 23,-154 31,-235l-197 0c115,269 133,-45 75,327z"/>
   <path class="fil85" d="M13775 15503l156 -80c-41,-208 -10,-19 -41,-113 -22,-66 -37,54 -33,-164 -138,121 -83,102 -82,357z"/>
   <path class="fil68" d="M20485 13334l103 42 -11 -292 -69 53c-142,68 -111,-138 -116,71 47,36 65,88 93,126z"/>
   <path class="fil82" d="M11944 15883c134,-23 67,-24 78,-255l-226 78c49,40 96,85 148,177z"/>
   <path class="fil40" d="M19441 16268c290,-36 213,125 268,-148 -87,-4 -81,-69 -219,65 -68,66 -43,6 -49,83z"/>
   <path class="fil86" d="M18241 18549c11,-18 44,-70 52,-81l97 -121 -7 -139 -148 43 6 298z"/>
   <path class="fil53" d="M20527 12926l31 -123c-21,-2 -123,-21 -137,-25 0,0 -88,-33 -106,-38 -57,166 52,155 212,186z"/>
   <path class="fil87" d="M10203 16216l-3 72 219 22c100,-219 63,-80 -69,-145l125 -162c-153,106 -148,-63 -127,240l-145 -27z"/>
   <path class="fil67" d="M19745 11591l-65 -146 163 -32 -174 -221c-7,289 -88,255 76,399z"/>
   <path class="fil69" d="M13899 12269l170 -61 48 -242 -107 1c-30,217 -11,138 -111,302z"/>
   <path class="fil22" d="M14339 9886c241,-20 45,15 124,-91l-73 -207c-109,111 -58,74 -51,298z"/>
   <polygon class="fil59" points="13391,6089 13569,6084 13578,5948 13366,5937 "/>
   <path class="fil88" d="M9410 7544c117,-45 71,21 124,-113l-43 -107c-333,47 -74,-11 -142,113 125,54 22,10 61,107z"/>
   <path class="fil61" d="M16682 6926l-186 -158c-290,19 -25,21 5,84 39,82 53,-59 69,198 213,0 -6,28 112,-124z"/>
   <path class="fil69" d="M15282 8902l30 37c177,-74 59,48 139,-137 -40,-217 23,-21 -131,-119 22,237 17,-3 -38,219z"/>
   <path class="fil40" d="M11719 16139c186,-23 101,17 158,-182l-213 -25c81,109 50,38 55,207z"/>
   <path class="fil89" d="M12026 13347c11,-14 30,-49 33,-40l49 -165c-156,30 -152,-31 -180,75 -39,150 94,127 98,130z"/>
   <path class="fil6" d="M16197 10142l48 165 116 -106c63,-62 1,-20 88,-87 -45,-14 -28,-32 -155,-13 -64,9 -78,33 -97,41z"/>
   <path class="fil26" d="M4777 11522c281,-87 129,18 230,-230 -507,181 -34,25 -230,230z"/>
   <path class="fil40" d="M6626 12033l-106 -185c-105,-46 -14,-105 -93,-5 38,279 -88,147 199,190z"/>
   <path class="fil90" d="M14214 10127l151 -28 -96 -202c-138,0 -71,66 -55,230z"/>
   <path class="fil69" d="M9603 7796l143 -13 60 -85c-20,-11 -44,-22 -59,-31 -15,-8 -40,-22 -54,-30 -14,-8 -66,-40 -83,-52l-7 211z"/>
   <path class="fil91" d="M17120 18343l-5 91c255,14 164,-70 192,-157 -172,-19 -42,-51 -187,66z"/>
   <path class="fil87" d="M6823 7809l111 -26c77,-129 66,-27 -22,-203 -116,0 -71,48 -89,229z"/>
   <path class="fil22" d="M8160 16994c63,195 -9,67 139,130 7,-19 38,-86 37,-98 -1,-93 -20,-97 -33,-128 -9,11 -127,84 -143,96z"/>
   <path class="fil12" d="M15801 18908l-52 -23c-118,163 43,73 -154,146l237 88c-3,-82 -3,-60 -31,-211z"/>
   <path class="fil82" d="M9610 7585c17,12 69,44 83,52 14,8 39,22 54,30 15,9 39,20 59,31l-20 -121c-13,-12 -263,-254 -176,8z"/>
   <path class="fil62" d="M6542 13179c11,-11 40,-45 47,-31l114 -127 -177 -126 16 284z"/>
   <path class="fil67" d="M8452 6264l47 116c24,2 70,-72 75,-49 5,20 27,-50 44,-72l-25 -132c-74,49 -56,-3 -141,137z"/>
   <path class="fil22" d="M7164 7125c88,105 -139,82 166,86l42 -192 -208 106z"/>
   <path class="fil77" d="M13059 6063l-9 -105c-162,-49 -226,-118 -226,53 142,14 121,8 235,52z"/>
   <path class="fil12" d="M12292 5971l-5 7c168,-360 57,-94 28,-197 -91,-63 -30,-61 -157,-19l134 209z"/>
   <path class="fil11" d="M8985 16733l-110 -62c-111,76 -144,-110 -66,135 345,54 62,33 176,-73z"/>
   <path class="fil92" d="M5996 12358l201 -25 18 -150 -94 6 -59 82c-7,10 -24,33 -32,43 -8,11 -22,30 -34,44z"/>
   <path class="fil48" d="M15034 8816l-95 112 212 -28 86 -169c-149,103 -153,-143 -136,179l-67 -94z"/>
   <path class="fil39" d="M15625 19643l130 7 -19 -49c-11,-189 61,-42 -49,-138 -130,86 -116,-109 -62,180z"/>
   <path class="fil42" d="M14615 20198c-76,-258 47,-115 -184,-182 66,225 -105,91 184,182z"/>
   <path class="fil65" d="M9994 6814c103,30 44,62 109,-29l12 -113 -172 -8 51 150z"/>
   <path class="fil3" d="M10289 6325l-25 111c230,25 136,52 141,-58 10,-202 139,68 -75,-114 -53,16 -85,-88 -41,61z"/>
   <path class="fil21" d="M12090 19386l158 -40 -212 -95 -22 7 -33 52c-44,72 -54,54 31,54l78 22z"/>
   <path class="fil23" d="M17672 14162c159,-198 92,185 64,-94 -15,-151 10,-43 -64,-139 -120,141 -100,-214 -68,94 21,203 -92,5 68,139z"/>
   <path class="fil25" d="M14539 13406c-125,-180 -2,-36 -217,-125 92,142 -24,239 217,125z"/>
   <path class="fil75" d="M19092 10044c10,-18 71,-166 86,-185l-233 33c11,11 28,14 33,35 4,20 26,28 31,34 34,34 60,60 83,83z"/>
   <path class="fil67" d="M16886 18503c267,4 150,90 229,-69l5 -91c-16,13 -77,50 -91,59 -10,7 -31,20 -41,27 -105,69 -25,7 -102,74z"/>
   <path class="fil41" d="M11654 5655l-130 26 45 162c216,-197 161,-39 85,-188z"/>
   <path class="fil55" d="M10627 6039l210 -33c-3,277 -39,103 74,162l24 -209 -308 80z"/>
   <path class="fil44" d="M18107 18261c20,-99 100,95 8,-108 -39,-86 -13,-24 -70,-69 -116,154 -109,113 62,177z"/>
   <path class="fil65" d="M10965 16913c70,131 -98,79 131,111l151 -147c-117,49 -125,52 -282,36z"/>
   <path class="fil52" d="M13961 10354l51 78c123,-6 90,27 116,-79l-55 -48c-178,-44 -77,-57 -118,102l6 -53z"/>
   <path class="fil59" d="M20508 13137l69 -53 28 53 -25 -156 -252 18c363,59 -4,-12 180,138z"/>
   <path class="fil36" d="M12014 19258l22 -7c-77,-188 56,-76 -125,-159 -84,377 -50,78 103,166z"/>
   <polygon class="fil93" points="6514,10745 6602,10721 6638,10568 6482,10607 "/>
   <path class="fil15" d="M15813 6979l33 -39c-2,0 -36,-38 -103,-68 -77,-34 -31,-99 -80,-2l24 124 126 -15z"/>
   <path class="fil87" d="M13995 13412c11,-13 26,-53 32,-41 0,0 35,-47 68,-73 42,-35 67,-46 111,-65l-200 -21 -11 200z"/>
   <path class="fil75" d="M15303 11425c14,-15 62,-64 71,-71 6,-5 26,-21 32,-26 5,-4 20,-13 30,-20l14 -121 -112 59 -35 179z"/>
   <path class="fil43" d="M6621 6631c160,162 -239,107 78,67 177,-22 13,39 115,-67 -162,-103 -27,-92 -193,0z"/>
   <path class="fil80" d="M9650 7918l96 -135 -143 13c-53,209 -51,81 47,122z"/>
   <path class="fil94" d="M14517 9428l-3 -69c-226,-51 -60,-14 -144,64 113,105 -58,60 147,5z"/>
   <path class="fil91" d="M19650 15481c217,-82 62,4 150,-136l-151 25 1 111z"/>
   <path class="fil21" d="M17748 18101l-138 18 0 112c171,-44 77,13 138,-130z"/>
   <path class="fil43" d="M6876 7081c163,-268 32,-90 0,-172 0,1 -112,90 0,172z"/>
   <path class="fil95" d="M20605 13137l104 -101c-56,-143 -10,-20 -129,-55l25 156z"/>
   <path class="fil62" d="M18539 8467c78,51 89,10 129,72l-64 -160 7 -15c-119,48 -144,-82 -72,103z"/>
   <path class="fil70" d="M20309 15470l33 -111 -123 8c-95,272 -29,13 90,103z"/>
   <polygon class="fil61" points="13059,6063 13143,6060 13151,5905 13050,5958 "/>
   <path class="fil61" d="M10605 6631l57 -4 53 -125 -140 5c1,219 133,106 -89,175l119 -51z"/>
   <polygon class="fil56" points="6126,9756 6256,9721 6219,9617 6169,9596 "/>
   <path class="fil80" d="M10705 16996c204,-82 100,-38 159,-138l-134 24 -25 114z"/>
   <path class="fil59" d="M14728 13743l-33 -42 -1 -122c-227,255 33,163 34,164z"/>
   <path class="fil54" d="M8683 6767c61,-51 88,-85 136,-154 -222,3 -96,-33 -144,107l8 47z"/>
   <path class="fil63" d="M13198 15748c14,9 32,9 39,27l332 -120c-14,11 -36,23 -44,30l-89 74c-8,-14 -32,28 -45,46l-193 -57z"/>
   <path class="fil96" d="M9927 7365l27 -52 -55 -145c-103,257 -26,134 28,197z"/>
   <path class="fil84" d="M15877 6483l129 38c-95,-173 -28,37 -92,-241l-37 203z"/>
   <path class="fil55" d="M10709 15776c10,-16 24,-58 28,-47l55 -84c8,-12 38,-56 51,-72l-116 3 -18 200z"/>
   <path class="fil69" d="M15159 13068c25,-150 1,-84 100,-207l-179 81 79 126z"/>
   <path class="fil62" d="M14400 14140l11 -99 -119 -6c13,195 -20,39 108,105z"/>
   <path class="fil55" d="M19173 16552l-66 -263 168 -26 -161 -3c-13,112 -30,28 -9,171 36,236 -5,22 68,121z"/>
   <polygon class="fil74" points="19741,9911 19675,9726 19592,9783 "/>
   <path class="fil49" d="M16431 18692l62 79 79 31 30 -122c-121,51 -63,63 -171,12z"/>
   <polygon class="fil39" points="20590,13394 20588,13376 20485,13334 20461,13473 "/>
   <path class="fil97" d="M20432 15108l26 -132c-114,57 -71,19 -124,106l98 26z"/>
   <path class="fil82" d="M14818 19613c63,-88 175,144 0,-156l-25 118c1,7 12,31 25,38z"/>
   <polygon class="fil54" points="19224,9508 19321,9484 19224,9341 "/>
   <path class="fil49" d="M7409 15760l-84 -8 48 99c86,-37 139,96 36,-91z"/>
   <path class="fil21" d="M7627 6850l-81 4c68,98 -105,156 99,63l-18 -67z"/>
   <path class="fil59" d="M18852 8749l2 17c-62,127 -57,28 105,126l-107 -143z"/>
   <path class="fil67" d="M7745 16493l-203 -132c73,101 -61,59 203,132z"/>
   <path class="fil72" d="M6078 10448c122,-4 108,1 63,-67 -82,13 -79,-98 -63,67z"/>
   <path class="fil75" d="M10475 15925c247,-72 130,-36 198,-131l-198 131z"/>
   <polygon class="fil98" points="16201,7251 16326,7232 16155,7184 "/>
   <polygon class="fil74" points="15501,12525 15512,12517 15377,12493 15367,12554 "/>
   <path class="fil99" d="M16696 18605l17 9c84,76 22,81 104,-8l-121 -1z"/>
   <path class="fil29" d="M6183 13580l144 0c-61,-41 160,-121 -131,-1l-13 1z"/>
   <path class="fil53" d="M14244 19796l51 -112c-3,-7 -26,-22 -35,-36l-16 148z"/>
   <polygon class="fil64" points="9418,7919 9463,7912 9342,7805 "/>
   <polygon class="fil39" points="8303,16228 8242,16136 8185,16118 "/>
   <path class="fil39" d="M18800 17900l-10 18 -1 -106c-44,69 -113,-17 11,88z"/>
   <path class="fil67" d="M9390 17796c-14,-12 -33,-48 -41,-35 -9,13 -33,-24 -46,-31l-106 -49 193 115z"/>
  </g>
 </g>
</svg>
