<?xml version="1.0" encoding="UTF-8"?>
<!DOCTYPE svg PUBLIC "-//W3C//DTD SVG 1.1//EN" "http://www.w3.org/Graphics/SVG/1.1/DTD/svg11.dtd">
<!-- Creator: CorelDRAW X8 -->
<svg xmlns="http://www.w3.org/2000/svg" xml:space="preserve" width="210mm" height="297mm" version="1.1" style="shape-rendering:geometricPrecision; text-rendering:geometricPrecision; image-rendering:optimizeQuality; fill-rule:evenodd; clip-rule:evenodd"
viewBox="0 0 21000 29700"
 xmlns:xlink="http://www.w3.org/1999/xlink">
 <defs>
  <style type="text/css">
   <![CDATA[
    .fil69 {fill:#100E2E}
    .fil65 {fill:#191618}
    .fil41 {fill:#1A1727}
    .fil60 {fill:#1A252E}
    .fil64 {fill:#270707}
    .fil76 {fill:#281819}
    .fil42 {fill:#281B27}
    .fil52 {fill:#281B37}
    .fil55 {fill:#292727}
    .fil51 {fill:#2A2736}
    .fil18 {fill:#2C232B}
    .fil9 {fill:#33242C}
    .fil29 {fill:#342B33}
    .fil24 {fill:#362637}
    .fil58 {fill:#372626}
    .fil7 {fill:#3A2C34}
    .fil15 {fill:#3C3334}
    .fil2 {fill:#3C333C}
    .fil19 {fill:#43333B}
    .fil8 {fill:#433443}
    .fil21 {fill:#443B43}
    .fil10 {fill:#483648}
    .fil79 {fill:#483A55}
    .fil11 {fill:#4B3C44}
    .fil5 {fill:#4B3C4B}
    .fil23 {fill:#53444B}
    .fil67 {fill:#553839}
    .fil28 {fill:#574856}
    .fil39 {fill:#584A65}
    .fil40 {fill:#595566}
    .fil20 {fill:#5A5458}
    .fil36 {fill:#654957}
    .fil47 {fill:#675659}
    .fil38 {fill:#675866}
    .fil66 {fill:#675B75}
    .fil32 {fill:#696369}
    .fil68 {fill:#696777}
    .fil30 {fill:#6C4F6B}
    .fil45 {fill:#6F6D8B}
    .fil62 {fill:#755A66}
    .fil54 {fill:#756669}
    .fil53 {fill:#766977}
    .fil83 {fill:#76879D}
    .fil48 {fill:#797687}
    .fil44 {fill:#867A86}
    .fil71 {fill:#877778}
    .fil73 {fill:#888797}
    .fil78 {fill:#8C6E70}
    .fil75 {fill:#8D8A8C}
    .fil81 {fill:#9092AD}
    .fil82 {fill:#916562}
    .fil56 {fill:#958A97}
    .fil72 {fill:#988888}
    .fil59 {fill:#999498}
    .fil80 {fill:#9998A7}
    .fil57 {fill:#A69BA7}
    .fil77 {fill:#AE928E}
    .fil27 {fill:#B5AAA8}
    .fil70 {fill:#B7C6D2}
    .fil43 {fill:#BBB3AC}
    .fil16 {fill:#BBB5B6}
    .fil26 {fill:#C3BABA}
    .fil25 {fill:#C5B8B5}
    .fil46 {fill:#C7BCC4}
    .fil50 {fill:#CABDBC}
    .fil35 {fill:#CBC3BB}
    .fil14 {fill:#CDC4C3}
    .fil34 {fill:#D3C5C6}
    .fil37 {fill:#D4CBC4}
    .fil74 {fill:#D4CCCB}
    .fil12 {fill:#D5CBD5}
    .fil22 {fill:#D9D4C8}
    .fil17 {fill:#DACDC5}
    .fil61 {fill:#DBD4DB}
    .fil33 {fill:#DCD3CC}
    .fil3 {fill:#DCD4D3}
    .fil49 {fill:#DDDBDB}
    .fil4 {fill:#E3DAD3}
    .fil13 {fill:#E5E2E4}
    .fil63 {fill:#E7DBE6}
    .fil1 {fill:#EAE1DA}
    .fil6 {fill:#EDE9E4}
    .fil0 {fill:#F5F2F5}
    .fil31 {fill:#F9F6F5}
   ]]>
  </style>
 </defs>
 <g id="Ebene_x0020_1">
  <metadata id="CorelCorpID_0Corel-Layer"/>
  <g id="_1602319064272">
   <path class="fil0" d="M8398 6217l239 -23c94,74 118,87 257,109l321 79c-85,153 -16,79 63,193 2,4 111,147 130,174 382,8 498,158 711,319l-193 343 353 277c32,-237 73,-191 67,-483l98 3c25,133 20,97 57,202l-30 221c-65,224 -41,114 9,234 161,-113 -3,73 165,-127 134,-160 0,27 60,-140l-17 -197c-61,-203 -50,-289 82,-441 349,-43 187,28 346,98 192,84 426,-24 881,346l110 -177c203,325 46,59 370,258 323,200 376,134 349,219l22 458 195 18c127,-107 178,34 9,-211l157 85c208,204 153,-27 367,353l319 289 144 216 -11 227 181 14c88,340 405,706 216,1024 282,327 103,764 187,1351l-56 65 -157 68c-145,51 16,4 -66,4 9,-7 62,-51 64,-52l83 -85c-64,-367 -262,-824 -677,-854 1,-286 -9,-271 -194,-432 10,-228 -28,-116 64,-228 -14,-14 -31,-33 -41,-44 -10,-11 -27,-30 -38,-44l-68 -80c-90,-106 -21,-44 -134,-143 -247,45 -185,95 -440,133l224 555 -41 262c231,284 44,401 175,693l-13 109c-184,761 -34,577 -275,909 36,165 68,193 116,322l-81 161 -193 354c88,34 37,16 90,13l129 -10c157,-38 139,16 179,-261l225 18c30,-347 116,-85 158,-464l305 -26c173,-454 168,-72 417,-502l226 -14c-7,304 50,635 -58,909 -166,418 -10,381 -298,723 -4,120 6,186 -34,298 -77,221 -21,-93 -98,208l-143 201 -2 451c-372,342 -130,647 -424,469 -73,308 -70,165 -245,402 -103,141 -165,235 -222,414 -448,20 -308,137 -512,391l-1036 765c-595,205 -371,226 -606,355 -163,90 -95,-39 -305,146l-244 142c-161,61 10,137 -510,317l-1348 527c-430,-35 -275,39 -602,92 -323,53 -427,38 -679,-62l-97 -156c-127,-77 -10,-46 -236,-24l13 292c0,12 -2,34 -5,51 -161,-72 -60,-92 -282,-93l-1784 -352c-221,-56 -172,26 -630,-131 -273,-93 -220,-46 -453,-185 -102,-203 -51,-87 -250,-141 -264,-71 -116,-56 -393,-171l-139 23 -357 -259c-95,-88 -318,-286 -414,-426 -170,-246 -56,-248 -362,-470 -51,-37 -179,-147 -207,-182 -53,-66 -27,-25 -73,-118 -86,-177 -253,-546 -460,-611l-172 -169c7,-235 -54,-352 -152,-515 8,-20 45,-89 48,-103l23 -91c3,-164 -98,-378 -214,-513 47,-137 35,-88 75,-258l-169 -276c68,-160 -112,-104 97,-138l-107 -278 30 -131c91,-181 146,-658 97,-914l-2 -207c177,-122 124,-10 170,-465 17,-162 4,-78 -7,-120 -3,-256 78,-139 102,-373 24,-229 -55,-183 -58,-381 -1,-94 162,-551 289,-680 185,-186 92,-156 297,-287l-4 -217 123 -290c157,-233 87,-102 104,-272 96,-62 78,-21 168,-162l23 -143 218 -83c72,-346 25,-63 -28,-179l-27 -113c380,-115 157,-103 394,-310 122,-245 107,-206 348,-323 136,-191 298,-286 553,-461 159,-197 121,-27 252,-287 87,-60 237,-213 341,-275 134,-79 241,-103 381,-200 305,-212 669,-156 812,-368 172,9 248,63 248,-72 278,-10 506,-19 779,-45l660 22c178,0 103,14 143,21 251,41 232,-4 485,22l980 101z"/>
   <path class="fil1" d="M9033 19183c120,-44 408,-18 342,-123l860 -267c15,-6 31,-15 45,-21 635,-293 463,-334 713,-448 179,-81 158,-28 282,-102 45,-27 133,-116 224,-177 198,-61 235,-98 313,-297l400 -5c11,-206 -57,-105 111,-277 45,-46 150,-117 170,-134 146,86 -196,123 197,69l159 -284 -11 -54 250 73 -16 -300 54 -34c695,227 136,-18 749,31l114 11c10,2 29,6 38,8 16,4 170,65 179,68 -214,-519 -233,-139 -251,-499 -60,180 51,158 -144,150l-11 -241 -42 -33c252,-91 145,-3 249,-190l31 -248c217,-236 -15,-135 279,-128 -90,-258 -95,-103 -25,-287l290 -258c3,-13 17,-13 26,-20l93 -156c138,-168 -208,39 130,-81 -83,-65 123,-81 -145,-80l55 -169c166,-78 121,-9 254,-128l-55 -321c27,-216 33,-369 71,-580l62 42c151,-80 50,32 105,-102l-83 -133 0 -81c531,95 119,-132 564,51 -14,-150 21,-101 -76,-179 -15,-12 -72,-41 -88,-49l-185 -54c293,53 104,120 136,-161l-285 -52c43,-205 2,-111 121,-247l-91 -259 181 -63c-5,-173 -27,-258 -69,-368 286,-21 -20,-86 338,47 9,-135 -30,-74 139,33 110,-191 -38,-76 479,-226l-26 386 184 138c86,120 10,186 123,299 224,223 166,53 178,53l54 -297 -183 -65c137,-313 70,-242 -41,-576 92,116 14,79 169,94l-99 -225c174,100 156,96 321,168l-206 -425c-267,51 -270,26 -320,257l-23 -229c-347,139 -179,92 -492,14 -203,127 -116,155 -411,85l82 -280 -300 -40 -82 -183 178 -57 291 70 -33 159c-31,202 84,316 85,313 4,-12 25,29 38,42 165,-423 229,176 158,-377l508 225c2,-6 172,-24 -11,-308 -86,-134 -111,-27 -131,-21 162,-558 4,-280 -51,-344 -66,188 -15,168 -192,352 -1,-8 -19,-192 -19,-206 0,-22 1,-38 2,-59 14,-263 121,-128 -10,-231 49,-166 121,-21 -138,104 -8,4 -28,6 -35,10 -7,3 -25,7 -32,10l-165 101 -165 -308c135,-139 -25,-102 240,-65 -12,-17 -88,-110 -99,-127 -8,-14 -26,-29 -32,-43 -53,-115 -43,66 88,-264 -350,32 -240,36 -390,253 -116,-268 39,-76 -105,-425 -2,-7 -12,-18 -14,-36 -2,-18 -9,-25 -11,-38 117,-49 69,-16 179,75 37,-200 -76,-96 99,-197 -120,-239 -86,-87 -103,-261 -3,-24 21,-190 20,-189l317 47c10,-11 25,-30 34,-40 77,-87 -22,2 86,-85 -154,34 -197,-104 -262,-277l-249 64 -132 111 -353 -216 16 -164c233,0 105,19 211,-53 -12,-10 -30,-23 -37,-31 -6,-7 -25,-24 -33,-33l-216 -228c-5,-18 -28,-8 -41,-14 78,-73 79,122 53,-152 507,92 583,23 915,397 367,412 338,496 404,818 51,248 380,308 518,714 37,109 8,116 93,263l220 499c62,134 260,327 329,443 288,486 157,548 251,717 300,534 183,949 91,1531 -15,99 -2,180 -23,287 -50,253 -84,146 -117,286 -50,216 -20,377 -117,660 -54,157 -157,362 -227,535 -162,403 -425,639 -624,858 -116,126 -152,372 -269,697 -81,228 -186,489 -399,638 -11,8 -29,17 -40,25l-136 96c10,537 -88,286 -215,689 -234,742 -77,273 -820,998 -212,208 -355,240 -633,336 -483,167 -97,222 -742,600l-1015 403c-263,114 -11,263 -711,259l-132 -205 -61 259c-185,-61 -82,-83 -194,-184 -15,-13 -106,-59 -125,-69l-5 388c-17,-9 -137,-67 -154,-74 -230,-98 -518,-96 -922,-134l-23 -241 -567 -76c-189,-274 91,-146 -259,-185 84,-228 106,-79 130,-382 245,48 150,97 253,-130 -86,-93 -37,-20 -98,-99 -117,-151 -30,-46 -70,-136 -3,-6 125,-17 -213,-158l138 -116c9,-8 29,-27 37,-34 8,-8 24,-24 36,-36l-202 -65z"/>
   <path class="fil2" d="M14778 8786c49,322 -9,81 88,224l136 202 29 144c16,223 -7,-51 -9,134 -2,276 -18,155 120,264 2,13 9,20 11,38 2,18 12,29 14,36 144,349 -11,157 105,425 92,189 52,276 -17,501l110 213 -178 57 82 183 48 103c-65,144 -11,57 -111,157 -10,10 -29,20 -38,28l-100 98c211,202 176,40 140,429l138 71c-208,219 -61,91 -155,334l91 259c-119,136 -78,42 -121,247l101 357 -167 87 0 81 -22 235 -62 -42 -354 257 50 366 61 213c-186,261 -161,101 -160,679 -9,7 -23,7 -26,20l-290 258c-184,106 -92,75 -227,202l-27 213 -31 248 -270 -90c-17,-31 -49,-17 -89,-19l110 299 42 33c-275,-11 -37,32 -293,-53l-47 385 -334 140 -54 34 -193 49 -41 178 11 54c-216,110 -110,-26 -183,215l-173 0c-20,17 -125,88 -170,134 -168,172 -100,71 -111,277l-400 5 -193 -173c17,38 -58,60 -143,193l23 277c-91,61 -179,150 -224,177 -124,74 -103,21 -282,102 -250,114 -78,155 -713,448 -14,6 -30,15 -45,21l-860 267c-21,-192 2,-56 -50,-253l-378 238 86 138 -82 119 -313 -84 -192 174 -604 68 -312 72c-19,3 -362,-19 -564,187 -108,-268 5,-32 -129,-177 -1336,17 -306,-277 -1132,-76l63 -326c-262,36 -125,36 -357,-22l-91 117 -474 9 -189 68 -118 -220 -455 -83c-74,-143 151,-90 -142,-127 20,-6 154,-27 178,-40 98,-57 97,-125 129,-171l-315 -241c-10,-6 -34,-13 -51,-18 -80,90 -86,40 -92,329 -23,-167 -10,-88 -66,-243l-229 -28c20,-7 47,-41 59,-23 13,18 44,-17 61,-21 18,-4 167,-30 195,-33l-58 -288c233,139 180,92 453,185 458,157 409,75 630,131l1784 352c222,1 121,21 282,93 293,-71 232,22 325,-163 252,100 356,115 679,62 327,-53 172,-127 602,-92l1348 -527c520,-180 349,-256 510,-317l244 -142c210,-185 142,-56 305,-146 235,-129 11,-150 606,-355l1036 -765c204,-254 64,-371 512,-391 57,-179 119,-273 222,-414 175,-237 172,-94 245,-402 294,178 52,-127 424,-469l2 -451c174,39 115,-2 203,130 34,-178 58,-192 99,-311l-159 -20c77,-301 21,13 98,-208 40,-112 30,-178 34,-298 288,-342 132,-305 298,-723 108,-274 51,-605 58,-909l-37 -362 56 -65c-84,-587 95,-1024 -187,-1351 189,-318 -128,-684 -216,-1024l-181 -14 11 -227c132,-119 67,-129 147,-325 71,-172 106,-186 106,-364 22,12 43,32 59,46 15,13 36,29 53,44l204 193c10,10 24,24 33,35 10,12 20,29 28,42 11,16 34,77 41,92 41,76 -4,24 68,111z"/>
   <path class="fil3" d="M9471 9688l-31 251c-398,72 -483,428 -784,642l-125 69c-10,5 -31,13 -47,20 11,205 -3,154 -186,259 -190,109 -129,106 -303,193 -746,10 -136,215 -815,-199 -108,-66 -32,-29 -155,-64l-238 -138 -10 -189c-1,-94 4,-70 -77,-128 -104,-418 -54,-95 70,-223l-154 -101c-23,-123 -38,-297 -71,-376 -132,-308 -82,-147 -222,-231 -8,18 -22,28 -22,55 -5,143 10,267 -107,328l-59 -34 -8 -224c-69,-77 -52,-54 -101,-180l-162 -42 -42 -139 115 7c52,-379 170,-488 171,-739 -180,-143 -77,-5 -196,-193 487,-721 1010,-667 1162,-1001 416,490 478,159 555,486 -20,200 -13,180 -127,322 5,1 13,-4 15,1 31,123 -43,-24 48,6 83,27 60,14 129,57l-48 385c17,14 41,14 44,36 3,25 49,48 50,56 15,103 150,-137 -72,102 228,176 163,54 219,460 256,102 741,136 1071,-14 10,14 24,19 29,42 51,213 329,1 346,491l138 -53z"/>
   <path class="fil4" d="M7441 14739c272,141 272,315 402,392 87,220 40,218 207,465l88 118c48,98 84,126 137,224 109,197 29,170 168,343l-24 116 -121 -29c-57,76 -71,58 -111,172l-59 -55c-322,-144 258,2 -60,-28 -75,-8 -155,35 -212,75 -73,49 -108,106 -155,174 -286,406 -70,410 -283,545 -143,91 -380,57 -540,27 -39,-352 -29,-541 -234,-803l-340 23c-259,-81 -126,-147 -263,-220 -218,-42 -557,-101 -746,-78l-28 -251 -322 10 191 -523 676 0c-26,-167 -14,-125 -100,-244l90 -96c27,-317 -64,-58 146,-277 138,-143 60,-163 307,-186 152,144 -52,33 137,86l1049 20z"/>
   <path class="fil5" d="M8709 5836l215 21c-75,227 53,92 -239,188l-200 68c-83,65 101,-62 -87,104l-980 -101c-253,-26 -234,19 -485,-22 -40,-7 35,-21 -143,-21l-660 -22c-273,26 -501,35 -779,45l-173 -106 -75 178c-143,212 -507,156 -812,368 -140,97 -247,121 -381,200 -104,62 -254,215 -341,275 -117,-8 -67,-25 -67,133 -19,-11 -47,-51 -56,-32 -12,26 -31,-56 -163,-23l34 209c-255,175 -417,270 -553,461 51,-414 63,-91 -168,-219 -138,393 -367,75 -344,379 24,335 33,89 164,163 -237,207 -14,195 -394,310l27 113c-13,22 -27,28 -36,65 -9,35 -26,46 -37,61 -14,19 -107,126 -117,136l-23 143c-420,0 147,-203 -223,-476l298 -118c-30,-16 -142,7 -157,8 -380,10 39,36 -146,-13l-11 -291 249 -333c345,-350 1161,-1038 1622,-1332 410,-261 551,-440 1050,-627 199,-74 244,-134 459,-186 241,-59 189,32 476,-38 777,-188 544,2 1137,-74 235,-30 867,197 981,191 392,-18 846,55 1138,215z"/>
   <path class="fil6" d="M4084 19009l455 83 118 220 189 -68c147,314 148,-9 0,388 392,-134 244,-123 510,-33l60 -174 289 41c826,-201 -204,93 1132,76 134,145 21,-91 129,177 202,-206 545,-184 564,-187l312 -72c4,226 169,119 452,136l22 356c-175,-176 -286,-181 -579,-56l-12 236 -243 12c96,-172 66,-43 52,-313 -9,11 -21,16 -26,35 -39,169 -193,10 -415,282 63,41 77,30 142,44l75 10c87,32 64,40 112,75 4,378 -82,349 -530,567 -639,312 -1212,-237 -1409,-318l-149 -42c-19,-7 -69,-32 -89,-39 -137,-48 -222,-42 -317,-72 -217,-69 -35,-55 -222,-148 -214,-107 -198,27 -485,-237 -9,-8 -21,-24 -30,-33 -174,-159 -86,-5 -237,-259l-51 -87c-6,-11 -21,-26 -25,-37 -66,-155 -53,23 34,-267 -288,-22 -156,47 -304,-173 -109,-163 -124,-101 -176,-279l192 19c162,143 221,94 460,137z"/>
   <path class="fil7" d="M7720 13713l-47 131c200,152 -264,107 316,129l-145 148c10,7 80,61 109,83 113,87 65,80 247,46l46 365c380,67 140,-9 319,269 121,189 195,112 176,386l-164 -114c-20,12 -47,10 -52,33l-82 71c0,-139 19,-1 -97,-65 -311,-193 -204,-108 -503,-64 -130,-77 -130,-251 -402,-392 -108,-148 -351,-364 -528,-407 -463,-112 -159,151 -595,187 -129,-10 -159,-19 -292,-57l-98 207c-135,-22 -153,-44 -320,-61l-162 330 195 135c11,9 28,28 42,43l-113 151 26 -233c-470,46 -75,31 -427,-90 -23,94 -45,142 -44,198 0,13 3,32 4,45 1,14 8,32 10,46l30 145c-235,81 -584,320 -640,525 13,10 33,8 40,28 40,127 -25,-53 196,117l-514 84c-194,30 -320,-87 -469,-229l51 -289 127 32c-2,-246 38,-269 191,-438l-126 -48c9,-13 22,-49 26,-39l263 -249c-31,-141 14,-88 -96,-165 273,-31 382,16 569,-141 360,-303 206,-98 424,-283 100,118 113,162 212,261l52 -77c11,-15 -42,-36 166,-146 14,-8 35,-10 49,-17l202 -180c159,71 53,34 302,106 -43,-278 -75,-397 0,-637 -21,-195 425,-11 965,-220l561 340z"/>
   <path class="fil4" d="M11017 14298c-10,-18 -64,-96 -83,-112l86 -46c-121,-328 -137,-102 -94,-360 193,-134 86,24 303,-258 -17,-6 -44,-33 -51,-20l-240 -184c-28,238 -16,143 -103,367 -328,7 -32,86 -335,-150 -62,177 26,96 -128,278 -143,-53 -42,43 -245,-168 -156,-162 -177,-94 -398,-5l-9 -99c-29,-72 -260,-469 -310,-520l5 -233 134 26 80 -86 260 19c25,62 -26,33 64,102 150,114 222,128 410,125l-43 40c15,-17 44,-52 53,-37 9,14 41,-22 52,-30 150,-116 127,-83 172,-283 315,120 23,-57 140,107 25,390 99,107 213,430 -28,-95 -37,-132 257,19l285 -277c-13,-6 -35,-31 -41,-17l-282 -54c-72,229 22,71 -193,153l55 -134c2,-20 -11,-183 -13,-205 209,19 181,7 327,-63l-429 28c-153,-1 -221,-45 -362,-207 -91,-104 -48,-57 -29,-207 7,-55 30,-148 21,-197 -34,-206 27,-75 -97,-190 30,-63 -13,-4 125,-119 66,-54 69,-61 135,-122 107,-99 175,-172 378,-145 180,-162 87,173 152,-140l-1 254c123,-37 77,16 136,-160l130 -236c-125,0 -95,34 -110,-76l-10 -4c257,-248 195,-143 374,-243l156 -118c0,400 -165,343 -22,659 -318,338 158,137 -258,514 31,188 113,500 222,630 -129,271 -50,1 -138,271 118,114 141,166 233,257 -216,177 -181,34 -134,420l-316 -52 2 388c-215,-103 -333,-70 -486,470z"/>
   <path class="fil8" d="M9392 5962l32 208c118,-27 586,105 502,278 -3,6 -38,30 -56,42 27,4 163,19 178,23 133,32 57,16 129,63 85,-110 -9,-69 215,-121l-20 -115c265,-6 303,-24 517,55 380,140 164,-105 382,182 76,-66 87,-104 202,-128 256,-53 527,193 711,231 480,100 167,-44 481,174 268,185 246,35 457,190 17,239 69,174 -180,174 -52,-181 -11,-72 -64,-26l-22 114c-214,-36 -122,-92 -249,41 113,182 30,54 132,123 12,7 27,17 40,25 13,8 26,19 41,28l233 117 -90 -268 236 55 159 -57c70,102 -7,50 76,-61 290,153 206,167 349,342 224,275 184,-46 324,467l-243 -16 99 403c-64,128 44,27 -135,90l19 -191 -271 3c-214,-380 -159,-149 -367,-353l-383 -350c27,-85 -26,-19 -349,-219 -324,-199 -167,67 -370,-258l-110 177c-455,-370 -689,-262 -881,-346 -159,-70 3,-141 -346,-98 -194,14 -75,-9 -237,39 -21,6 -81,28 -100,35 -186,79 -38,13 -125,74l-189 -40c-213,-161 -329,-311 -711,-319 -19,-27 -128,-170 -130,-174 -79,-114 -148,-40 -63,-193l-17 -160c-323,-114 -223,39 -281,-343l362 52 0 -167c17,9 102,180 113,198z"/>
   <path class="fil9" d="M5231 10430c63,155 -74,132 64,133 0,398 -23,37 124,144 -150,422 -143,-99 -199,396 274,-71 93,-1 305,-136l92 40 -42 457c369,124 121,155 332,351 -20,-5 -97,-34 -112,-33l-193 68c12,15 31,17 37,45l115 234c12,197 -155,242 -202,275 -238,-54 -34,1 -128,-138 130,-23 89,125 124,-161 -163,150 -12,95 -234,129 46,-170 36,-88 55,-148l29 -137c55,-526 -116,-350 -179,-384l-148 38 -50 -163 -254 76c-146,-243 -94,-89 -198,-419 -215,6 -237,-58 -361,-161 -249,-205 -164,39 -206,-274l-155 -52 -14 -162 -47 -270 -189 -16c-149,-218 -218,-585 -190,-885l467 -167c185,182 100,13 153,290 428,-39 378,228 595,551 308,457 636,175 609,479z"/>
   <path class="fil10" d="M282 11766c-69,311 -32,94 -79,241 -29,93 -23,49 -40,180 179,78 197,8 325,155l46 272 -206 -123c-59,187 -51,134 -126,298 79,144 67,141 133,299 50,118 70,164 222,190l-30 131c-3,69 -25,193 -26,214 -9,209 19,155 36,202l169 276c-40,170 -28,121 -75,258 116,135 217,349 214,513l-23 91c-3,14 -40,83 -48,103 98,163 159,280 152,515l172 169 -211 27 302 280c9,12 20,29 28,43 155,250 -48,82 158,253l0 258c-427,0 -83,20 -152,116 -373,525 305,-158 -97,166l-343 -464c-190,-347 -480,-783 -559,-1179l-339 -2181c-7,-170 40,-196 94,-369l103 -1095c155,85 97,22 200,161z"/>
   <path class="fil11" d="M5881 9517c65,110 34,-29 52,159 3,41 -24,113 -37,171l239 -25 59 34c5,12 -23,190 132,164 51,366 133,237 115,685l275 -129c0,167 -52,145 71,145l238 138 10 347c371,65 242,241 492,82 -69,215 -47,63 -97,369l499 -168 -63 232c99,125 10,42 127,123 374,259 50,-136 193,194l-178 -14c-41,322 12,35 -102,165 114,-268 33,-171 -43,-211 -100,-354 -46,37 -189,-351 -204,136 -86,100 -320,23 49,143 77,121 -134,136 12,19 30,22 35,59 5,37 23,42 29,61l52 200c5,21 8,47 15,70l-201 -143c-130,-83 -67,-14 -162,-119l148 0 24 -192c-272,-15 -266,-81 -538,-94 -74,-2 -237,-25 -305,-7 -311,85 -153,25 -193,229 -275,0 -61,-5 -140,-218 -30,-80 -18,-75 -46,-223l188 11 2 -231c-243,-314 -80,-248 -300,-534l-154 30 -186 -141c-106,82 -130,-168 -69,163 -147,-107 -124,254 -124,-144 -138,-1 -1,22 -64,-133l281 39 -29 -227c218,94 17,168 131,0 -186,-324 128,-318 -511,-387l241 -180c11,-27 38,-8 45,-15l335 55c-74,-147 -21,151 -37,-119 -18,-311 -2,-31 34,-156 61,136 87,176 156,252l4 -175z"/>
   <path class="fil7" d="M11161 8923c11,17 66,106 80,131 6,10 20,58 25,48 4,-10 15,32 23,48 -182,91 -60,-29 -69,170 -1,21 27,149 40,197l-182 82 176 32c-88,82 45,48 -118,78 -68,12 -136,1 -205,-2 85,217 57,113 19,207 -389,-3 -243,72 -578,197 3,-8 28,-147 64,-191 122,97 76,-30 -300,203 -22,14 -45,31 -68,46l-41 -170c-9,21 -12,30 -14,57l-38 179c-8,65 -9,217 -5,291 -126,73 -64,32 -159,114 -2,1 -83,80 -104,96 -79,63 -38,29 -140,92 103,-297 45,-62 -53,-160 -87,118 -147,172 -199,363l-91 -76 -279 15c-16,-209 80,-253 181,-390 -50,414 31,151 153,162 91,-195 35,-178 257,-330l90 102c70,45 41,48 231,113 -109,-402 -136,-149 -7,-450 -21,-12 -53,-50 -65,-32 -11,16 -46,-22 -60,-29l-95 -49c-208,-125 135,22 -190,-128l31 -251c709,-434 270,-418 646,-585 320,-142 109,-86 417,-361l154 84c10,9 28,30 37,38 8,8 21,29 32,42 209,-59 238,-21 404,17z"/>
   <path class="fil12" d="M14556 11593l37 362 -226 14c-249,430 -244,48 -417,502l-305 26c-42,379 -128,117 -158,464l-225 -18 113 -309c16,0 -5,-39 -11,-26 0,0 -99,-29 -134,-328 82,190 27,182 308,227 -41,-296 60,-124 -225,-336l178 -385c-91,-216 27,-27 -97,-193 94,-329 37,-33 -97,-138l13 -109 267 53c43,-111 -68,-111 72,-95 50,161 -14,353 440,145 -87,-277 -62,-112 -181,-257 -79,-95 -48,-62 -100,-234l-65 169c-530,-739 -64,-518 -426,-696l75 -382c-322,-65 -193,-83 -187,253 0,8 -3,30 -4,36l-25 53 -224 -555c255,-38 193,-88 440,-133 113,99 44,37 134,143l68 80c11,14 28,33 38,44 10,11 27,30 41,44 -92,112 -54,0 -64,228 185,161 195,146 194,432 415,30 613,487 677,854l-83 85c-2,1 -55,45 -64,52 82,0 -79,47 66,-4l157 -68z"/>
   <path class="fil11" d="M9603 12428l-199 194 145 192 -134 -26c-218,113 -40,-96 -118,153 -60,193 122,302 -139,340 134,201 -139,102 209,163 -56,72 -225,-138 -24,207 161,64 213,75 358,21 16,123 8,54 -11,136 -3,14 -14,40 -18,52l-42 113c158,233 -40,3 100,189l168 243 241 -108 297 309c274,-9 85,35 240,-51 0,339 -16,60 75,176l17 0 -584 195c-21,8 -45,24 -64,32 -21,10 -47,29 -69,44 59,45 -135,142 248,118 30,-2 265,-94 329,-118 -46,316 0,347 -233,237 -41,232 -24,178 -199,256 -10,5 19,69 47,251 -243,-87 -83,98 -226,-134 -35,-57 -26,-184 -34,-275l-132 -11c14,-7 34,-13 43,-19 11,-7 35,-19 47,-27l173 -149c-258,-86 -449,-388 -345,-682 -1,0 -203,210 -264,-18 -7,-28 -20,-39 -33,-57 -123,113 -138,-177 -84,197 -167,-136 -423,-265 -415,-574 193,-751 -150,-15 -114,-946l279 35c-99,-113 -128,-163 -193,-271 115,-126 3,-83 219,-99l-137 -246 167 -106c-65,-146 -39,-55 -62,-272 397,-32 115,-41 466,-154 98,128 66,71 113,287 -232,-51 -208,-82 -361,-34l-77 360 330 -123z"/>
   <path class="fil13" d="M10761 15687l11 -78 251 -71 96 -343c-171,-277 -59,-2 -117,-321l10 -149c286,105 56,79 309,33l41 308c-77,-193 37,-91 -208,-106 47,289 -37,210 6,500 301,-7 169,-19 380,-199 1,-1 96,-63 108,-72 238,-187 157,-317 394,-462 65,55 169,-92 154,381 142,-129 -173,-51 108,-63 240,-11 47,0 85,37 26,-406 -103,-293 345,-337 -33,637 -33,176 -301,515 -17,21 -133,194 -136,197 -171,147 -115,86 -252,1 6,321 74,90 -108,217l-221 115c-258,192 -51,302 -300,206l-30 235 -188 -153 -5 326c-130,-67 -53,-42 -139,-89 -78,-44 -123,-57 -208,-79 -124,278 28,330 -288,510 118,-530 84,-89 -91,-457 -40,-322 345,-437 447,-579 -15,-9 6,-32 -153,-23z"/>
   <path class="fil14" d="M4539 12177l5 132 -91 43c-10,8 -103,47 -122,73 -140,-201 -141,-258 -141,-486 -233,186 -106,-60 -226,247 -155,-155 -22,41 -105,-142l-137 -91c-113,106 -104,56 -97,269 -232,-3 -104,79 -168,-104 -169,112 -166,49 -333,133 88,71 142,88 236,139l43 353c-218,-60 -383,-72 -454,-268 -140,-390 2,-137 -267,-432 -6,-114 6,-278 -14,-379 -42,-201 -68,-58 -128,-328l336 41 81 -279 153 240c21,10 45,22 64,28 18,7 40,17 62,25l324 87c146,-7 97,-102 307,-133 202,155 122,313 143,464 366,-123 -46,-163 250,-357 350,231 -106,114 317,227 -246,147 -93,278 50,428 -205,2 -29,-15 -88,70z"/>
   <path class="fil15" d="M12493 9968c34,322 38,108 -62,152 -157,-243 -156,-52 -324,-224 -98,187 -8,134 -282,153 -93,222 -128,205 -71,386 227,112 239,-106 178,33 81,71 12,5 96,91l63 73 5 76 -54 34c-54,-114 82,-103 -300,-229 -71,-23 -178,-42 -214,-51l-192 169c-98,-56 -33,62 -132,-103 -298,404 -147,-71 -423,448 -7,13 -15,29 -21,41 -41,79 -47,94 -100,207l-209 -190c-137,261 -157,254 -332,442 -74,78 -143,129 -187,190 -30,43 -45,87 -66,128 -102,199 41,3 -103,185l-179 -41c-97,-105 -48,-157 -48,-157l-47 36c-9,6 -42,39 -58,48 -237,131 83,66 -336,84l-52 -82 98 -102c7,-8 23,-30 36,-44l-19 -213 321 -50 85 -220c341,-77 135,76 418,-172 136,-120 182,-183 325,-248l156 14 34 -219c246,-112 207,-155 415,-280 142,-86 147,-43 266,-116l220 -173c185,-98 952,-507 1095,-76z"/>
   <path class="fil8" d="M5961 11296l-23 113c28,148 16,143 46,223 79,213 -135,218 140,218 172,-48 80,149 -33,418 -135,322 -73,210 -160,252l-169 102c17,13 53,56 60,64l67 81c-265,-103 -147,-27 -209,-144 -189,150 -34,26 -166,136l-170 12c-7,-6 -29,-21 -36,-26l-64 -34c-27,187 88,220 88,219 7,-13 35,27 45,34l-64 68c-255,11 -395,110 -596,220 187,-336 67,-60 -64,-174 -95,162 -128,133 -339,141l12 138c-14,-13 -34,-52 -39,-39l-470 -477 178 -28 31 -111c184,73 38,-99 177,98l53 -74c6,-11 14,-32 20,-44l111 -158c17,66 33,409 306,83 270,-321 19,8 241,-203 64,-61 13,-5 83,-124 126,-218 -9,9 21,-72 6,99 20,210 235,130 77,-29 48,90 98,-45 8,-24 35,-17 53,-27 94,139 -110,84 128,138 47,-33 214,-78 202,-275l-115 -234c-6,-28 -25,-30 -37,-45l193 -68c15,-1 92,28 112,33 -211,-196 37,-227 -332,-351l42 -457c183,69 176,61 158,282l186 7z"/>
   <path class="fil16" d="M4767 11516c89,194 12,112 190,260 147,-102 77,28 114,-173l148 -38c-32,216 7,41 -76,204 -252,490 -365,438 -604,408 59,-85 -117,-68 88,-70 -143,-150 -296,-281 -50,-428 -423,-113 33,4 -317,-227 -296,194 116,234 -250,357 -21,-151 59,-309 -143,-464 -210,31 -161,126 -307,133l-324 -87c-22,-8 -44,-18 -62,-25 -19,-6 -43,-18 -64,-28l-153 -240 -36 -147c314,-3 181,47 318,-169 469,-25 297,-5 660,172l-52 -344 155 52c42,313 -43,69 206,274 124,103 146,167 361,161 104,330 52,176 198,419z"/>
   <path class="fil17" d="M15303 11996l6 -210c182,-156 110,-7 93,-203 -2,-21 -25,-135 -34,-168l-51 -105 -48 -103 300 40 -82 280c295,70 208,42 411,-85 313,78 145,125 492,-14l23 229c50,-231 53,-206 320,-257l206 425c-165,-72 -147,-68 -321,-168l99 225c-155,-15 -77,22 -169,-94 111,334 178,263 41,576l183 65 -54 297c-12,0 46,170 -178,-53 -113,-113 -37,-179 -123,-299l-184 -138 26 -386c-517,150 -369,35 -479,226 -169,-107 -130,-168 -139,-33 -358,-133 -52,-68 -338,-47z"/>
   <path class="fil18" d="M9584 11938l14 0c-351,113 -69,122 -466,154 23,217 -3,126 62,272l-167 106 137 246c-216,16 -104,-27 -219,99 65,108 94,158 193,271l-279 -35c-36,931 307,195 114,946 -333,-204 -275,-402 -354,-574 -137,-294 -203,-27 -42,-494l-194 -294c279,-358 270,-176 368,-501l59 -230 233 -37 52 82c419,-18 99,47 336,-84 16,-9 49,-42 58,-48l47 -36c0,0 -49,52 48,157z"/>
   <path class="fil11" d="M4108 13715c36,186 -219,274 -422,346l-40 -153c-242,163 -311,181 -509,386l101 130 -393 -6c-73,-160 -18,-102 -64,-239 -61,-179 -52,-68 -129,-268 107,-70 47,22 110,-94 36,-66 48,-154 64,-221l28 -129c175,53 80,33 273,65 180,-354 -42,102 406,-339 211,116 64,-47 74,118 10,157 -164,145 1,302 200,190 351,-120 385,-223 2,-5 7,-18 8,-33 1,-16 4,-24 9,-35 108,165 65,184 98,393z"/>
   <path class="fil19" d="M2614 17557l-191 36 70 108c-173,94 -20,150 -346,-119l-56 133 -190 -139c-105,76 -27,-27 -62,92l-383 -394c127,-102 53,52 114,-163 42,-146 -71,-54 65,-205l101 -103c-112,-61 -96,-44 -168,-137 131,237 48,98 -129,178 -1,-21 -16,-100 -19,-113l-45 -120 0 -258c-206,-171 -3,-3 -158,-253 -8,-14 -19,-31 -28,-43l-302 -280 211 -27c207,65 374,434 460,611 46,93 20,52 73,118 28,35 156,145 207,182 306,222 192,224 362,470 96,140 319,338 414,426z"/>
   <path class="fil20" d="M11384 11102l10 4c-243,148 -24,88 -293,169l-14 189c-203,-27 -271,46 -378,145 -66,61 -69,68 -135,122 -138,115 -95,56 -125,119 54,409 67,165 -141,217l-142 -20c-68,116 -73,187 -255,229 -137,7 -111,-33 -104,93l-146 -40c-150,-23 4,-43 -58,99l-330 123 77 -360c153,-48 129,-17 361,34 -47,-216 -15,-159 -113,-287l-14 0 179 41c144,-182 1,14 103,-185 21,-41 36,-85 66,-128 44,-61 113,-112 187,-190 175,-188 195,-181 332,-442l209 190c136,143 -77,11 161,111l168 -178c14,-9 30,-22 44,-30l174 -49c16,13 50,29 58,31 415,112 -162,9 119,-7z"/>
   <path class="fil9" d="M5489 8843c86,122 35,93 145,224 5,5 75,78 96,96 110,102 30,31 92,74l42 139 17 141 -4 175c-69,-76 -95,-116 -156,-252 -36,125 -52,-155 -34,156 16,270 -37,-28 37,119l-335 -55c-7,7 -34,-12 -45,15l-241 180c639,69 325,63 511,387 -114,168 87,94 -131,0 -111,-89 -26,-72 -133,-183 -218,-225 -489,-233 -384,-782l-292 -293c17,-11 38,-25 53,-33l165 -71c115,-51 24,-13 176,-91 145,-75 142,-61 291,-59l130 113z"/>
   <path class="fil21" d="M8741 15270c240,129 179,130 285,365 124,275 138,153 271,396l-134 413 -444 -8 7 -167c-220,-47 -161,-12 -282,-109 74,-212 20,-91 93,-172 230,76 21,15 229,228 224,-304 38,-211 6,-246 -164,-184 -2,187 -169,-189 -131,381 -165,16 -160,500 -139,-173 -59,-146 -168,-343 -53,-98 -89,-126 -137,-224l11 -262c11,2 214,46 229,47l-32 -304c116,64 97,-74 97,65l82 -71c5,-23 32,-21 52,-33l164 114z"/>
   <path class="fil8" d="M8721 11142l280 -61 -16 291c-391,168 -176,226 -637,508l-162 158c-143,-330 181,65 -193,-194 -117,-81 -28,2 -127,-123l63 -232 61 -73c-118,-50 -113,-52 -241,-111l246 -183c174,-87 113,-84 303,-193 183,-105 197,-54 186,-259l167 85 -78 259c139,145 -163,66 148,128z"/>
   <path class="fil22" d="M15365 10967l-110 -213c69,-225 109,-312 17,-501 150,-217 40,-221 390,-253 -131,330 -141,149 -88,264 6,14 24,29 32,43 11,17 87,110 99,127 -265,-37 -105,-74 -240,65l165 308 165 -101c7,-3 25,-7 32,-10 7,-4 27,-6 35,-10 259,-125 187,-270 138,-104 131,103 24,-32 10,231 -1,21 -2,37 -2,59 0,14 18,198 19,206 177,-184 126,-164 192,-352 55,64 213,-214 51,344 20,-6 45,-113 131,21 183,284 13,302 11,308l-508 -225c71,553 7,-46 -158,377 -13,-13 -34,-54 -38,-42 -1,3 -116,-111 -85,-313l33 -159 -291 -70z"/>
   <path class="fil14" d="M11017 14298l25 154c-252,71 -171,57 -242,164 239,37 108,12 212,109l-244 6 -17 0 -14 -179c-232,-232 -244,-183 -146,-456l-258 -18 -435 -270c-156,-120 -25,-54 -197,-136l19 -131 9 99c221,-89 242,-157 398,5 203,211 102,115 245,168 154,-182 66,-101 128,-278 303,236 7,157 335,150 87,-224 75,-129 103,-367l240 184c7,-13 34,14 51,20 -217,282 -110,124 -303,258 -43,258 -27,32 94,360l-86 46c19,16 73,94 83,112z"/>
   <path class="fil23" d="M8945 10970c-12,43 -33,-6 -74,27 -249,201 65,-241 -150,145 -311,-62 -9,17 -148,-128l78 -259 -167 -85c16,-7 37,-15 47,-20l125 -69c301,-214 386,-570 784,-642 325,150 -18,3 190,128l95 49c14,7 49,45 60,29 12,-18 44,20 65,32 -129,301 -102,48 7,450 -190,-65 -161,-68 -231,-113l-90 -102c-222,152 -166,135 -257,330 -122,-11 -203,252 -153,-162 -101,137 -197,181 -181,390z"/>
   <path class="fil24" d="M1148 10138c-127,129 -290,586 -289,680 3,198 82,152 58,381 -24,234 -105,117 -102,373 -11,18 -28,24 -34,53 -13,63 -264,340 -473,428 8,-18 20,-66 24,-56l79 -214c103,-125 28,-5 89,-190l-62 -109c275,-37 35,59 245,-124l-213 -89c139,-204 123,-231 187,-524l-231 -251 -16 3c169,-145 129,183 129,-136l257 71c-127,-428 -120,-91 5,-399 3,-6 25,-25 58,-135 4,-14 2,-82 2,-108l198 222c1,1 73,106 89,124z"/>
   <path class="fil8" d="M1302 9444c4,65 -15,276 -14,279 63,226 -41,54 157,128 -205,131 -112,101 -297,287 -16,-18 -88,-123 -89,-124l-198 -222c0,26 2,94 -2,108 -33,110 -55,129 -58,135 -125,308 -132,-29 -5,399l-257 -71c0,319 40,-9 -129,136 4,-230 -104,-256 207,-762 187,-306 -17,124 70,-102 58,-152 3,-171 111,-382l63 -40c47,334 -4,180 129,385 298,-306 25,-142 192,-416 52,10 130,-51 203,100 108,226 52,46 -83,162z"/>
   <path class="fil25" d="M10916 12651l49 150 -228 -30c-117,-164 175,13 -140,-107 -45,200 -22,167 -172,283 -11,8 -43,44 -52,30 -9,-15 -38,20 -53,37l43 -40c-188,3 -260,-11 -410,-125 -90,-69 -39,-40 -64,-102l-260 -19c50,-147 51,-3 -9,-171l187 -188c-7,-126 -33,-86 104,-93 83,228 -42,-31 276,260l121 -469c208,-52 195,192 141,-217 124,115 63,-16 97,190 9,49 -14,142 -21,197 -19,150 -62,103 29,207 141,162 209,206 362,207z"/>
   <path class="fil20" d="M12042 10742l-128 -1 -156 118c-179,100 -117,-5 -374,243 -281,16 296,119 -119,7 -8,-2 -42,-18 -58,-31l-174 49c-14,8 -30,21 -44,30l-168 178c-238,-100 -25,32 -161,-111 53,-113 59,-128 100,-207 6,-12 14,-28 21,-41 276,-519 125,-44 423,-448 99,165 34,47 132,103l192 -169c36,9 143,28 214,51 382,126 246,115 300,229z"/>
   <path class="fil26" d="M13310 11346c-131,-292 56,-409 -175,-693l41 -262 25 -53c1,-6 4,-28 4,-36 -6,-336 -135,-318 187,-253l-75 382c362,178 -104,-43 426,696l65 -169c52,172 21,139 100,234 119,145 94,-20 181,257 -454,208 -390,16 -440,-145 -140,-16 -29,-16 -72,95l-267 -53z"/>
   <path class="fil27" d="M4453 12352l-66 172 -111 158c-6,12 -14,33 -20,44l-53 74c-139,-197 7,-25 -177,-98 106,-138 82,-223 6,-300l-107 -82c-8,-2 -29,-9 -37,-8 -150,20 -74,83 -266,374l102 177 -260 -45 -61 -75 -43 -353c-94,-51 -148,-68 -236,-139 167,-84 164,-21 333,-133 64,183 -64,101 168,104 -7,-213 -16,-163 97,-269l137 91c83,183 -50,-13 105,142 120,-307 -7,-61 226,-247 0,228 1,285 141,486 19,-26 112,-65 122,-73z"/>
   <path class="fil28" d="M5424 12266c-18,10 -45,3 -53,27 -50,135 -21,16 -98,45 -215,80 -229,-31 -235,-130 -30,81 105,-146 -21,72 -70,119 -19,63 -83,124 -222,211 29,-118 -241,203 -273,326 -289,-17 -306,-83l66 -172 91 -43 -5 -132c239,30 352,82 604,-408 83,-163 44,12 76,-204 63,34 234,-142 179,384l-29 137c-19,60 -9,-22 -55,148 222,-34 71,21 234,-129 -35,286 6,138 -124,161z"/>
   <path class="fil20" d="M11002 14874c-450,416 -181,365 -350,554 -165,185 -32,-66 -119,116 339,-41 140,-105 239,65l-11 78 -47 -24c-419,72 -184,35 -245,200 -191,-113 -54,-125 -226,-117 -28,-182 -57,-246 -47,-251 175,-78 158,-24 199,-256 233,110 187,79 233,-237 -64,24 -299,116 -329,118 -383,24 -189,-73 -248,-118 22,-15 48,-34 69,-44 19,-8 43,-24 64,-32l584 -195 244 -6 -10 149z"/>
   <path class="fil19" d="M2918 18508c-229,-211 -80,-51 -350,-192 -136,-70 -255,-186 -390,-275 16,-13 36,-28 50,-35l334 -183c89,86 25,-79 66,107 337,-96 222,-66 249,-5 107,0 63,22 94,-109l139 -23c63,193 95,202 193,361 -20,12 -45,5 -59,34 -161,343 114,-111 -326,154l0 166z"/>
   <path class="fil29" d="M3753 18105l58 288c-28,3 -177,29 -195,33 -17,4 -48,39 -61,21 -12,-18 -39,16 -59,23 -4,6 -27,72 -32,85 -90,223 67,-1 -96,172 -197,-128 -76,11 -203,-234l-247 15 0 -166c440,-265 165,189 326,-154 14,-29 39,-22 59,-34 -98,-159 -130,-168 -193,-361 277,115 129,100 393,171 199,54 148,-62 250,141z"/>
   <path class="fil28" d="M4326 13357l102 64c-125,191 -85,193 -320,294 -33,-209 10,-228 -98,-393 -5,11 -8,19 -9,35 -1,15 -6,28 -8,33 -34,103 -185,413 -385,223 -165,-157 9,-145 -1,-302 -10,-165 137,-2 -74,-118l16 -101 274 -28 -6 -223 470 477c5,-13 25,26 39,39z"/>
   <path class="fil16" d="M13262 12943l-117 118c-115,-109 -57,6 -88,-214l81 -161c-48,-129 -80,-157 -116,-322 241,-332 91,-148 275,-909 134,105 191,-191 97,138 124,166 6,-23 97,193l-178 385c285,212 184,40 225,336 -281,-45 -226,-37 -308,-227 35,299 134,328 134,328 6,-13 27,26 11,26l-113 309z"/>
   <path class="fil5" d="M5489 8843l-130 -113c-149,-2 -146,-16 -291,59 -152,78 -61,40 -176,91l-165 71c-15,8 -36,22 -53,33l-113 -85 20 -259 131 -3c15,-2 98,-43 116,-54 -27,-363 23,-81 -141,-164l20 -165 524 63c64,182 125,193 241,316l17 210z"/>
   <path class="fil30" d="M1836 8910c-90,141 -72,100 -168,162l-106 -37c5,-37 8,-185 4,-209l-131 -81c-205,430 -83,223 -253,327l-60 -161c-148,-295 214,97 -65,-85 105,-204 116,-226 285,-412 46,-51 123,-142 148,-182 7,-11 15,-27 22,-38 6,-12 13,-30 20,-41l65 -133 11 291c185,49 -234,23 146,13 15,-1 127,-24 157,-8l-298 118c370,273 -197,476 223,476z"/>
   <path class="fil31" d="M7441 14739l-1049 -20c-189,-53 15,58 -137,-86 38,-39 36,-70 63,-114 436,-36 132,-299 595,-187 177,43 420,259 528,407z"/>
   <path class="fil28" d="M4084 19009c-239,-43 -298,6 -460,-137l-192 -19c-1,-2 -61,-122 -64,-126 163,-173 6,51 96,-172 5,-13 28,-79 32,-85l229 28c56,155 43,76 66,243 6,-289 12,-239 92,-329 17,5 41,12 51,18l315 241c-32,46 -31,114 -129,171 -24,13 -158,34 -178,40 293,37 68,-16 142,127z"/>
   <path class="fil32" d="M7995 11122l-246 183c128,59 123,61 241,111l-61 73 -499 168c50,-306 28,-154 97,-369 -250,159 -121,-17 -492,-82l-10 -347c123,35 47,-2 155,64 679,414 69,209 815,199z"/>
   <path class="fil5" d="M1668 9072c-17,170 53,39 -104,272 -126,59 -175,75 -262,100 135,-116 191,64 83,-162 -73,-151 -151,-90 -203,-100 -167,274 106,110 -192,416 -133,-205 -82,-51 -129,-385l-63 40c246,-264 92,-103 259,-427 279,182 -83,-210 65,85l60 161c170,-104 48,103 253,-327l131 81c4,24 1,172 -4,209l106 37z"/>
   <path class="fil33" d="M15142 9754c-138,-109 -122,12 -120,-264 2,-185 25,89 9,-134l-29 -144c396,-211 298,-44 261,-321l249 -64c65,173 108,311 262,277 -108,87 -9,-2 -86,85 -9,10 -24,29 -34,40l-317 -47c1,-1 -23,165 -20,189 17,174 -17,22 103,261 -175,101 -62,-3 -99,197 -110,-91 -62,-124 -179,-75z"/>
   <path class="fil34" d="M13800 16330l11 241c195,8 84,30 144,-150 18,360 37,-20 251,499 -9,-3 -163,-64 -179,-68 -9,-2 -28,-6 -38,-8l-114 -11c-613,-49 -54,196 -749,-31l334 -140 47 -385c256,85 18,42 293,53z"/>
   <path class="fil35" d="M14548 17253c-91,8 138,162 -155,-16 -65,-39 -39,-66 -37,-87l-210 61 44 166c1,8 -1,26 0,34 25,214 34,184 165,421 -420,-330 -273,-110 -555,-514 67,-31 10,-135 328,35 -214,-468 -236,79 -320,-406l191 53c16,-2 68,-23 86,-28l246 -51c9,1 27,3 36,6l190 153c128,345 15,48 -9,173z"/>
   <path class="fil36" d="M5211 14283l442 -309c7,103 3,76 105,60 97,-15 -136,-112 225,-8 -25,-23 -54,-101 -71,-131 121,-91 37,61 130,-198l43 -18 109 -86c-75,240 -43,359 0,637 -249,-72 -143,-35 -302,-106l-202 180c-14,7 -35,9 -49,17 -208,110 -155,131 -166,146l-52 77c-99,-99 -112,-143 -212,-261z"/>
   <path class="fil18" d="M557 13278c-152,-26 -172,-72 -222,-190 -66,-158 -54,-155 -133,-299 75,-164 67,-111 126,-298l206 123 -46 -272 166 22c49,256 -6,733 -97,914z"/>
   <path class="fil37" d="M15834 15401c168,-90 -6,-85 199,-11 -125,219 -22,153 -306,236 90,47 -154,147 198,38 -17,28 -42,71 -71,140 -7,17 -25,78 -33,94l-245 126 -87 -173c-3,-6 -5,-24 -8,-29l-93 -73c-100,-117 18,-291 60,-351 206,168 38,-35 206,230 1,-12 37,-224 31,-243l-172 -190c380,167 70,33 200,-13l50 89c5,9 19,34 24,44l47 86z"/>
   <path class="fil38" d="M10333 14078c0,194 -117,109 -120,108l-74 111 -241 108 -168 -243c-140,-186 58,44 -100,-189l42 -113c4,-12 15,-38 18,-52 19,-82 27,-13 11,-136 172,82 41,16 197,136l435 270z"/>
   <path class="fil23" d="M438 11484l-236 -51 224 -937 231 251c-64,293 -48,320 -187,524l213 89c-210,183 30,87 -245,124z"/>
   <path class="fil39" d="M654 12364l-166 -22c-128,-147 -146,-77 -325,-155 17,-131 11,-87 40,-180 47,-147 10,70 79,-241l129 17 -79 214c-4,-10 -16,38 -24,56 209,-88 460,-365 473,-428 6,-29 23,-35 34,-53 11,42 24,-42 7,120 -46,455 7,343 -170,465l2 207z"/>
   <path class="fil40" d="M9720 13541l-19 131c-145,54 -197,43 -358,-21 -201,-345 -32,-135 24,-207 -348,-61 -75,38 -209,-163 261,-38 79,-147 139,-340 78,-249 -100,-40 118,-153l-5 233c50,51 281,448 310,520z"/>
   <path class="fil18" d="M9851 15326c-96,-116 -59,-220 -119,-265 -106,-79 26,-22 -172,-22l11 -102 -125 -199 -58 -167c-54,-374 -39,-84 84,-197 13,18 26,29 33,57 61,228 263,18 264,18 -104,294 87,596 345,682l-173 149c-12,8 -36,20 -47,27 -9,6 -29,12 -43,19z"/>
   <path class="fil14" d="M4026 12702l-31 111 -178 28 6 223 -274 28c108,-171 -200,-119 162,-148 -211,93 -174,-5 -247,-126l260 45 -102 -177c192,-291 116,-354 266,-374 8,-1 29,6 37,8l107 82c76,77 100,162 -6,300z"/>
   <path class="fil28" d="M1456 17274l-321 -156 -9 -225c402,-324 -276,359 97,-166 69,-96 -275,-116 152,-116l45 120c3,13 18,92 19,113 177,-80 260,59 129,-178 72,93 56,76 168,137l-101 103c-136,151 -23,59 -65,205 -61,215 13,61 -114,163z"/>
   <path class="fil41" d="M10372 6340l20 115c-224,52 -130,11 -215,121 -72,-47 4,-31 -129,-63 -15,-4 -151,-19 -178,-23 18,-12 53,-36 56,-42 84,-173 -384,-305 -502,-278l-32 -208c266,-72 333,45 528,163 200,121 186,152 452,215z"/>
   <path class="fil42" d="M14265 8125l27 98c0,178 -35,192 -106,364 -80,196 -15,206 -147,325l-144 -216 -67 -101c179,-63 71,38 135,-90l-99 -403 243 16 158 7z"/>
   <path class="fil26" d="M7271 9070l-90 109c-1,4 -159,-104 70,332l110 -67c19,-15 38,-30 59,-47 22,-20 41,-39 61,-57 22,-19 42,-42 63,-63 -124,253 -150,237 -157,514 -149,-122 -151,183 -183,-278l-157 14c-3,-8 -16,-30 -18,-39l-189 -306c-118,-81 -79,-78 -131,-163l214 -32c16,-4 86,-22 107,-27 12,18 39,56 53,61 265,107 -306,-61 188,49z"/>
   <path class="fil43" d="M7285 8423c-82,140 158,11 -147,118 7,20 47,130 50,153 21,174 14,45 5,244 -288,-127 -247,-193 -228,-169 -21,-4 -51,-32 -64,-11l-256 0c-16,-137 -47,-267 -83,-414 97,92 91,-38 162,295l88 -183c5,-8 211,-105 356,-76l117 43z"/>
   <path class="fil32" d="M6318 14519c-27,44 -25,75 -63,114 -247,23 -169,43 -307,186 -210,219 -119,-40 -146,277l-119 20c-14,-15 -31,-34 -42,-43l-195 -135 162 -330c167,17 185,39 320,61l98 -207c133,38 163,47 292,57z"/>
   <path class="fil38" d="M12431 10120l-285 -36c31,173 41,192 92,286 -351,38 -22,-25 -177,129l30 133 -63 -73c-84,-86 -15,-20 -96,-91 61,-139 49,79 -178,-33 -57,-181 -22,-164 71,-386 274,-19 184,34 282,-153 168,172 167,-19 324,224z"/>
   <path class="fil16" d="M6700 10404c-69,-58 -154,-113 -182,-148 -57,-71 -20,-60 -72,-127 -80,-101 -21,-41 -120,-109 -155,26 -127,-152 -132,-164 117,-61 102,-185 107,-328 0,-27 14,-37 22,-55 140,84 90,-77 222,231 33,79 48,253 71,376l154 101c-124,128 -174,-195 -70,223z"/>
   <path class="fil38" d="M9215 6382l-321 -79c-139,-22 -163,-35 -257,-109l-239 23c188,-166 4,-39 87,-104l200 -68c292,-96 164,39 239,-188l-215 -21c66,-121 -104,-59 176,-83 69,-6 304,12 394,11l0 167 -362 -52c58,382 -42,229 281,343l17 160z"/>
   <path class="fil32" d="M6128 11189l-176 -13 9 120 -186 -7c18,-221 25,-213 -158,-282l-92 -40c-212,135 -31,65 -305,136 56,-495 49,26 199,-396l59 64c279,292 342,114 345,114l5 -230c220,286 57,220 300,534z"/>
   <path class="fil44" d="M12096 10708l-5 -76 -30 -133c155,-154 -174,-91 177,-129 -51,-94 -61,-113 -92,-286l285 36c100,-44 96,170 62,-152 129,130 86,302 44,488 -134,113 -316,177 -441,252z"/>
   <path class="fil45" d="M10772 15609c-99,-170 100,-106 -239,-65 87,-182 -46,69 119,-116 169,-189 -100,-138 350,-554 58,319 -54,44 117,321l-96 343 -251 71z"/>
   <path class="fil46" d="M14778 8786c-72,-87 -27,-35 -68,-111 -7,-15 -30,-76 -41,-92 -8,-13 -18,-30 -28,-42 -9,-11 -23,-25 -33,-35l-204 -193c-17,-15 -38,-31 -53,-44 -16,-14 -37,-34 -59,-46l-27 -98 466 -14c26,274 25,79 -53,152 13,6 36,-4 41,14l216 228c8,9 27,26 33,33 7,8 25,21 37,31 -106,72 22,53 -211,53l-16 164z"/>
   <path class="fil38" d="M4945 15959l-180 89c-221,-170 -156,10 -196,-117 -7,-20 -27,-18 -40,-28 56,-205 405,-444 640,-525l-33 58 -191 523z"/>
   <path class="fil17" d="M10737 12771l228 30 -49 -150 429 -28c-146,70 -118,82 -327,63 2,22 15,185 13,205l-55 134c215,-82 121,76 193,-153l282 54c6,-14 28,11 41,17l-285 277c-294,-151 -285,-114 -257,-19 -114,-323 -188,-40 -213,-430z"/>
   <path class="fil47" d="M8346 15195l32 304c-15,-1 -218,-45 -229,-47l-11 262 -88 -118c-167,-247 -120,-245 -207,-465 299,-44 192,-129 503,64z"/>
   <path class="fil9" d="M7863 11978l-17 74c-83,-143 -63,-123 -160,-186l-99 97 21 230 -147 -45 -110 28c-7,-23 -10,-49 -15,-70l-52 -200c-6,-19 -24,-24 -29,-61 -5,-37 -23,-40 -35,-59 211,-15 183,7 134,-136 234,77 116,113 320,-23 143,388 89,-3 189,351z"/>
   <path class="fil48" d="M10751 14731c-91,-116 -75,163 -75,-176 -155,86 34,42 -240,51l-297 -309 74 -111c3,1 120,86 120,-108l258 18c-98,273 -86,224 146,456l14 179z"/>
   <path class="fil28" d="M2493 17701l69 122 -334 183c-14,7 -34,22 -50,35 -234,-120 -244,-156 -339,-373 35,-119 -43,-16 62,-92l190 139 56 -133c326,269 173,213 346,119z"/>
   <path class="fil49" d="M10119 7068l189 40c235,-6 74,-36 136,100l-98 -3c6,292 -35,246 -67,483l-353 -277 193 -343z"/>
   <path class="fil14" d="M10886 12431c-229,-142 -156,25 -178,-222l105 -261c53,181 33,-42 357,192 145,-511 152,-324 294,-408 -70,222 -15,136 -175,269 -88,72 -92,-41 -198,219 -16,39 45,87 -205,211z"/>
   <path class="fil50" d="M5416 19425l-60 174c-266,-90 -118,-101 -510,33 148,-397 147,-74 0,-388l474 -9c64,94 36,81 96,190z"/>
   <path class="fil16" d="M14608 15166c-1,-578 -26,-418 160,-679l-61 -213 233 -43 55 321c-133,119 -88,50 -254,128l-55 169c268,-1 62,15 145,80 -338,120 8,-87 -130,81l-93 156z"/>
   <path class="fil40" d="M15303 11996c42,110 64,195 69,368l-181 63c94,-243 -53,-115 155,-334l-138 -71c36,-389 71,-227 -140,-429l100 -98c9,-8 28,-18 38,-28 100,-100 46,-13 111,-157l51 105c9,33 32,147 34,168 17,196 89,47 -93,203l-6 210z"/>
   <path class="fil20" d="M5570 15267l-196 64c-120,66 4,65 -205,47l-30 -145c-2,-14 -9,-32 -10,-46 -1,-13 -4,-32 -4,-45 -1,-56 21,-104 44,-198 352,121 -43,136 427,90l-26 233z"/>
   <path class="fil51" d="M2764 7759c-241,117 -226,78 -348,323 -131,-74 -140,172 -164,-163 -23,-304 206,14 344,-379 231,128 219,-195 168,219z"/>
   <path class="fil52" d="M3686 14061l5 154c-229,64 -269,151 -453,209l-101 -130c198,-205 267,-223 509,-386l40 153z"/>
   <path class="fil28" d="M14940 14231l-233 43 -50 -366 354 -257c-38,211 -44,364 -71,580z"/>
   <path class="fil14" d="M15095 13377l167 -87 -101 -357 285 52c-32,281 157,214 -136,161l185 54c16,8 73,37 88,49 97,78 62,29 76,179 -445,-183 -33,44 -564,-51z"/>
   <path class="fil53" d="M6700 10404c81,58 76,34 77,128l10 189c-123,0 -71,22 -71,-145l-275 129c18,-448 -64,-319 -115,-685 99,68 40,8 120,109 52,67 15,56 72,127 28,35 113,90 182,148z"/>
   <path class="fil54" d="M9315 11031l119 -10c-59,76 -7,24 -94,118 -1,1 -96,97 -98,99 -88,72 -155,91 -257,134l16 -291 -280 61c215,-386 -99,56 150,-145 41,-33 62,16 74,-27l279 -15 91 76z"/>
   <path class="fil35" d="M14799 16148l241 392c-288,-144 -248,-238 -345,-333l-118 -81c-9,-7 -30,-19 -44,-30 157,-276 35,-206 401,-257 -12,27 -28,34 -35,82 -7,43 -24,55 -32,75 -34,77 -32,31 -68,152z"/>
   <path class="fil55" d="M8719 16436l-300 -39 24 -116c-5,-484 29,-119 160,-500 167,376 5,5 169,189 32,35 218,-58 -6,246 -208,-213 1,-152 -229,-228 -73,81 -19,-40 -93,172 121,97 62,62 282,109l-7 167z"/>
   <path class="fil39" d="M13434 7309c-83,111 -6,163 -76,61l-159 57 -236 -55 -85 -180c53,-46 12,-155 64,26 249,0 197,65 180,-174 69,46 106,41 198,108 236,172 96,70 114,157z"/>
   <path class="fil56" d="M10688 7401c-172,-75 -134,165 -145,233l-72 -3 30 -221c-37,-105 -32,-69 -57,-202 -62,-136 99,-106 -136,-100 87,-61 -61,5 125,-74 19,-7 79,-29 100,-35 162,-48 43,-25 237,-39 -132,152 -143,238 -82,441z"/>
   <path class="fil28" d="M5705 19466l-289 -41c-60,-109 -32,-96 -96,-190l91 -117c232,58 95,58 357,22l-63 326z"/>
   <path class="fil18" d="M2971 17816c-31,131 13,109 -94,109 -27,-61 88,-91 -249,5 -41,-186 23,-21 -66,-107l-69 -122 -70 -108 191 -36 357 259z"/>
   <path class="fil45" d="M5889 12767l-282 105c-184,124 -1,106 -294,160l64 -68c-10,-7 -38,-47 -45,-34 0,1 -115,-32 -88,-219l64 34c7,5 29,20 36,26l170 -12c132,-110 -23,14 166,-136 62,117 -56,41 209,144z"/>
   <path class="fil57" d="M5828 10655l-5 230c-3,0 -66,178 -345,-114l-59 -64c-61,-331 -37,-81 69,-163l186 141 154 -30z"/>
   <path class="fil58" d="M6988 11914l-318 -114 -48 -172c272,13 266,79 538,94l-24 192 -148 0z"/>
   <path class="fil59" d="M5136 15436l33 -58c209,18 85,19 205,-47l196 -64 113 -151 119 -20 -90 96c86,119 74,77 100,244l-676 0z"/>
   <path class="fil16" d="M15263 8891c37,277 135,110 -261,321l-136 -202c-97,-143 -39,98 -88,-224l353 216 132 -111z"/>
   <path class="fil60" d="M11812 17748c-78,199 -115,236 -313,297l-23 -277c85,-133 160,-155 143,-193l193 173z"/>
   <path class="fil41" d="M9375 19060c66,105 -222,79 -342,123l-86 -138 378 -238c52,197 29,61 50,253z"/>
   <path class="fil61" d="M9911 12276c182,-42 187,-113 255,-229l142 20 -121 469c-318,-291 -193,-32 -276,-260z"/>
   <path class="fil41" d="M10372 10111l4 39 -176 49 -84 161 -2 137 -144 29c-4,-74 -3,-226 5,-291l38 -179c2,-27 5,-36 14,-57l41 170c23,-15 46,-32 68,-46 376,-233 422,-106 300,-203 -36,44 -61,183 -64,191z"/>
   <path class="fil62" d="M411 11783l-129 -17c-103,-139 -45,-76 -200,-161l120 -172 236 51 62 109c-61,185 14,65 -89,190z"/>
   <path class="fil61" d="M13209 8054l-157 -85c169,245 118,104 -9,211l-195 -18 -22 -458 383 350z"/>
   <path class="fil50" d="M11087 11464l14 -189c269,-81 50,-21 293,-169 15,110 -15,76 110,76l-130 236c-59,176 -13,123 -136,160l1 -254c-65,313 28,-22 -152,140z"/>
   <path class="fil52" d="M4717 13252c-55,132 28,2 -107,165l-182 4 -102 -64 -12 -138c211,-8 244,21 339,-141 131,114 251,-162 64,174z"/>
   <path class="fil63" d="M7227 18703c-93,185 -32,92 -325,163 3,-17 5,-39 5,-51l-13 -292c226,-22 109,-53 236,24l97 156z"/>
   <path class="fil43" d="M9043 11867l-278 3c74,-100 122,-199 257,-329 1,-119 -22,-11 136,-33l19 213c-13,14 -29,36 -36,44l-98 102z"/>
   <path class="fil64" d="M3833 15614c-188,-48 -100,-71 -21,-227l213 -227 126 48c-153,169 -193,192 -191,438l-127 -32z"/>
   <path class="fil53" d="M12963 7372l90 268 -233 -117c-15,-9 -28,-20 -41,-28 -13,-8 -28,-18 -40,-25 -102,-69 -19,59 -132,-123 127,-133 35,-77 249,-41l22 -114 85 180z"/>
   <path class="fil40" d="M6135 9822l-239 25c13,-58 40,-130 37,-171 -18,-188 13,-49 -52,-159l-17 -141 162 42c49,126 32,103 101,180l8 224z"/>
   <path class="fil14" d="M16137 14141l-386 -317c12,-173 37,-129 106,-201 144,115 206,257 280,518z"/>
   <path class="fil40" d="M8200 14250c-182,34 -134,41 -247,-46 -29,-22 -99,-76 -109,-83l145 -148c-580,-22 -116,23 -316,-129l47 -131 480 537z"/>
   <path class="fil65" d="M7863 11978c76,40 157,-57 43,211 -234,-57 -70,-69 -298,4l-21 -230 99 -97c97,63 77,43 160,186l17 -74z"/>
   <path class="fil56" d="M9807 12369l-187 188c60,168 59,24 9,171l-80 86 -145 -192 199 -194c62,-142 -92,-122 58,-99l146 40z"/>
   <path class="fil66" d="M1445 9851c-198,-74 -94,98 -157,-128 -1,-3 18,-214 14,-279 87,-25 136,-41 262,-100l-123 290 4 217z"/>
   <path class="fil41" d="M11372 9335c21,98 57,66 12,182 -98,254 6,60 -130,114l-176 -32 182 -82c-13,-48 -41,-176 -40,-197 9,-199 -113,-79 69,-170l83 185z"/>
   <path class="fil3" d="M13262 12943c-40,277 -22,223 -179,261l-129 10c-53,3 -2,21 -90,-13l193 -354c31,220 -27,105 88,214l117 -118z"/>
   <path class="fil67" d="M5653 13974l190 -224 199 -53c-93,259 -9,107 -130,198 17,30 46,108 71,131 -361,-104 -128,-7 -225,8 -102,16 -98,43 -105,-60z"/>
   <path class="fil38" d="M5071 11603c-37,201 33,71 -114,173 -178,-148 -101,-66 -190,-260l254 -76 50 163z"/>
   <path class="fil48" d="M14007 16107c-104,187 3,99 -249,190l-110 -299c40,2 72,-12 89,19l270 90z"/>
   <polygon class="fil68" points="12838,17063 12879,16885 13072,16836 13088,17136 "/>
   <path class="fil69" d="M9567 10828c-28,59 -28,93 -133,193l-119 10c52,-191 112,-245 199,-363 98,98 156,-137 53,160z"/>
   <path class="fil70" d="M11372 9335l-83 -185c-8,-16 -19,-58 -23,-48 -5,10 -19,-38 -25,-48 -14,-25 -69,-114 -80,-131l263 194c220,332 59,135 -52,218z"/>
   <path class="fil71" d="M13962 14294l143 -201 159 20c-41,119 -65,133 -99,311 -88,-132 -29,-91 -203,-130z"/>
   <path class="fil72" d="M3833 10448c-13,-10 -31,-47 -37,-32 -8,18 -54,-40 -72,-43 -18,-3 71,-32 -132,18l5 -229 189 16 47 270z"/>
   <path class="fil73" d="M14038 15859l27 -213c135,-127 43,-96 227,-202 -70,184 -65,29 25,287 -294,-7 -62,-108 -279,128z"/>
   <path class="fil27" d="M9851 15326c-53,75 161,70 -119,59 -100,-354 3,-93 -172,-346 198,0 66,-57 172,22 60,45 23,149 119,265z"/>
   <path class="fil74" d="M10471 7631l72 3 162 -36c-60,167 74,-20 -60,140 -168,200 -4,14 -165,127 -50,-120 -74,-10 -9,-234z"/>
   <polygon class="fil75" points="5938,11409 5961,11296 5952,11176 6128,11189 6126,11420 "/>
   <path class="fil16" d="M9571 14937l-257 59c8,-233 -26,-88 132,-258l125 199z"/>
   <path class="fil76" d="M4581 8640l106 -221c164,83 114,-199 141,164 -18,11 -101,52 -116,54l-131 3z"/>
   <path class="fil51" d="M10469 15863c61,-165 -174,-128 245,-200l-39 161 -206 39z"/>
   <path class="fil77" d="M2652 13911l4 -242c82,-55 84,-30 170,-73 -16,67 -28,155 -64,221 -63,116 -3,24 -110,94z"/>
   <polygon class="fil78" points="13828,8595 13895,8696 13576,8407 13847,8404 "/>
   <path class="fil79" d="M10705 7598l-162 36c11,-68 -27,-308 145,-233l17 197z"/>
   <path class="fil80" d="M12493 17332l173 0c73,-241 -33,-105 183,-215l-159 284c-393,54 -51,17 -197,-69z"/>
   <path class="fil53" d="M5351 6096c0,135 -76,81 -248,72l75 -178 173 106z"/>
   <path class="fil25" d="M15577 15066c74,-278 -68,-246 234,-236 -153,230 -32,78 -234,236z"/>
   <path class="fil73" d="M3317 7298l-34 -209c132,-33 151,49 163,23 9,-19 37,21 56,32 0,-158 -50,-141 67,-133 -131,260 -93,90 -252,287z"/>
   <path class="fil81" d="M5889 12767l-67 -81c-7,-8 -43,-51 -60,-64l169 -102c27,373 49,179 -42,247z"/>
   <path class="fil81" d="M537 13825c-17,-47 -45,7 -36,-202 1,-21 23,-145 26,-214l107 278c-209,34 -29,-22 -97,138z"/>
   <path class="fil81" d="M1859 8767c10,-10 103,-117 117,-136 11,-15 28,-26 37,-61 9,-37 23,-43 36,-65 53,116 100,-167 28,179l-218 83z"/>
   <polygon class="fil82" points="10307,10818 10497,10613 10463,10832 "/>
   <path class="fil78" d="M8751 12134c-2,-249 -91,-197 14,-264l278 -3 -233 37 -59 230z"/>
   <path class="fil48" d="M14209 9153c1,0 -28,-199 173,-69 -101,105 26,39 -173,69z"/>
   <path class="fil56" d="M15073 13693l22 -235 83 133c-55,134 46,22 -105,102z"/>
   <polygon class="fil83" points="10116,10360 10200,10199 10376,10150 "/>
  </g>
 </g>
</svg>
