<?xml version="1.0" encoding="UTF-8"?>
<!DOCTYPE svg PUBLIC "-//W3C//DTD SVG 1.1//EN" "http://www.w3.org/Graphics/SVG/1.1/DTD/svg11.dtd">
<!-- Creator: CorelDRAW X8 -->
<svg xmlns="http://www.w3.org/2000/svg" xml:space="preserve" width="210mm" height="297mm" version="1.1" style="shape-rendering:geometricPrecision; text-rendering:geometricPrecision; image-rendering:optimizeQuality; fill-rule:evenodd; clip-rule:evenodd"
viewBox="0 0 21000 29700"
 xmlns:xlink="http://www.w3.org/1999/xlink">
 <defs>
  <style type="text/css">
   <![CDATA[
    .fil85 {fill:#0A0715}
    .fil62 {fill:#0E0E30}
    .fil81 {fill:#0F1448}
    .fil40 {fill:#160B16}
    .fil59 {fill:#170408}
    .fil31 {fill:#1A1725}
    .fil30 {fill:#1A2433}
    .fil39 {fill:#1B121B}
    .fil23 {fill:#250A16}
    .fil21 {fill:#26161B}
    .fil37 {fill:#281A27}
    .fil15 {fill:#291B35}
    .fil47 {fill:#292947}
    .fil29 {fill:#2B1B49}
    .fil24 {fill:#2C222C}
    .fil51 {fill:#33242D}
    .fil50 {fill:#351010}
    .fil60 {fill:#360604}
    .fil12 {fill:#38253B}
    .fil79 {fill:#393848}
    .fil3 {fill:#3B2B35}
    .fil6 {fill:#432D3B}
    .fil2 {fill:#43333D}
    .fil9 {fill:#443443}
    .fil46 {fill:#471611}
    .fil14 {fill:#493A54}
    .fil4 {fill:#4A3543}
    .fil10 {fill:#4B354A}
    .fil7 {fill:#4B3944}
    .fil53 {fill:#4B5070}
    .fil22 {fill:#4C3C4B}
    .fil8 {fill:#523C4C}
    .fil13 {fill:#544453}
    .fil17 {fill:#553946}
    .fil11 {fill:#564858}
    .fil44 {fill:#584A64}
    .fil73 {fill:#595565}
    .fil25 {fill:#5A4454}
    .fil61 {fill:#5A535A}
    .fil42 {fill:#5B4B54}
    .fil28 {fill:#5C4B5B}
    .fil32 {fill:#5E6466}
    .fil19 {fill:#644A58}
    .fil38 {fill:#644C63}
    .fil70 {fill:#654749}
    .fil33 {fill:#66555A}
    .fil34 {fill:#675866}
    .fil48 {fill:#6D5771}
    .fil49 {fill:#6F6973}
    .fil78 {fill:#70728C}
    .fil69 {fill:#745969}
    .fil71 {fill:#768DAC}
    .fil64 {fill:#77666A}
    .fil56 {fill:#776876}
    .fil76 {fill:#7C879F}
    .fil86 {fill:#86574F}
    .fil72 {fill:#877786}
    .fil77 {fill:#8E6A56}
    .fil63 {fill:#8F95AD}
    .fil57 {fill:#928A91}
    .fil75 {fill:#93A4B8}
    .fil87 {fill:#93ADCC}
    .fil55 {fill:#968A95}
    .fil88 {fill:#A699A6}
    .fil58 {fill:#AE928E}
    .fil83 {fill:#B1A9AE}
    .fil80 {fill:#B28C77}
    .fil82 {fill:#B6A597}
    .fil65 {fill:#B9B4B9}
    .fil27 {fill:#C6BBC8}
    .fil41 {fill:#CBC6C7}
    .fil43 {fill:#CCC3BA}
    .fil18 {fill:#D4C8BC}
    .fil20 {fill:#D5CBC3}
    .fil26 {fill:#D6CBC9}
    .fil54 {fill:#DAD7DA}
    .fil74 {fill:#DCD5D2}
    .fil36 {fill:#DDDAD4}
    .fil5 {fill:#E4DDDA}
    .fil45 {fill:#E5E2DC}
    .fil1 {fill:#E6DDD5}
    .fil84 {fill:#EAE1D6}
    .fil68 {fill:#EEEAE9}
    .fil66 {fill:#F1EAE6}
    .fil35 {fill:#F1EDE9}
    .fil52 {fill:#F2EDED}
    .fil16 {fill:#F5FBF4}
    .fil67 {fill:#F7F7E6}
    .fil0 {fill:#FEFEFE}
   ]]>
  </style>
 </defs>
 <g id="Ebene_x0020_1">
  <metadata id="CorelCorpID_0Corel-Layer"/>
  <g id="_1602302219040">
   <polygon class="fil0" points="12678,6176 12678,6212 12532,6212 12532,6249 12459,6249 12459,6176 12387,6176 12387,6212 12168,6212 12168,6176 12022,6176 12022,6212 11986,6212 11986,6249 11913,6249 11913,6212 11803,6212 11803,6249 11767,6249 11767,6212 11366,6212 11366,6249 11184,6249 11184,6212 11111,6212 11111,6249 10892,6249 10892,6285 10382,6285 10382,6321 10345,6321 10345,6358 10309,6358 10309,6321 10200,6321 10200,6358 10090,6358 10090,6394 9872,6394 9872,6431 9689,6431 9689,6467 9653,6467 9653,6504 9616,6504 9616,6540 9543,6540 9543,6504 9288,6504 9288,6467 9252,6467 9252,6394 9143,6394 9143,6431 8851,6431 8851,6394 8778,6394 8778,6431 8705,6431 8705,6394 8632,6394 8632,6431 8523,6431 8523,6467 8304,6467 8304,6504 7867,6504 7867,6540 7539,6540 7539,6577 7466,6577 7466,6613 7211,6613 7211,6649 6919,6649 6919,6613 6810,6613 6810,6577 6628,6577 6628,6540 6300,6540 6300,6504 6117,6504 6117,6467 6008,6467 6008,6504 5753,6504 5753,6540 5607,6540 5607,6577 5534,6577 5534,6613 5425,6613 5425,6649 5388,6649 5388,6686 5279,6686 5279,6722 5206,6722 5206,6795 5133,6795 5133,6832 5097,6832 5097,6868 5060,6868 5060,6905 5024,6905 5024,6978 4987,6978 4987,7014 4951,7014 4951,7160 4914,7160 4914,7196 4878,7196 4878,7342 4842,7342 4842,7415 4805,7415 4805,7670 4732,7670 4732,7706 4696,7706 4696,8107 4659,8107 4659,8180 4696,8180 4696,8253 4659,8253 4659,8326 4623,8326 4623,8363 4586,8363 4586,8472 4623,8472 4623,8581 4586,8581 4586,8873 4550,8873 4550,9347 4513,9347 4513,10003 4477,10003 4477,10185 4441,10185 4441,10294 4477,10294 4477,10477 4441,10477 4441,10914 4404,10914 4404,11096 4441,11096 4441,11169 4404,11169 4404,11315 4441,11315 4441,11461 4404,11461 4404,11497 4368,11497 4368,11607 4404,11607 4404,11643 4441,11643 4441,11862 4404,11862 4404,11898 4441,11898 4441,11971 4404,11971 4404,12408 4441,12408 4441,12627 4404,12627 4404,12737 4441,12737 4441,12846 4404,12846 4404,12992 4368,12992 4368,13101 4331,13101 4331,13210 4368,13210 4368,13393 4331,13393 4331,13429 4295,13429 4295,13538 4368,13538 4368,13757 4404,13757 4404,14267 4441,14267 4441,14486 4477,14486 4477,14705 4441,14705 4441,14923 4404,14923 4404,14996 4513,14996 4513,15033 4477,15033 4477,15324 4441,15324 4441,15652 4477,15652 4477,15944 4513,15944 4513,15981 4550,15981 4550,16163 4659,16163 4659,16272 4696,16272 4696,16309 4732,16309 4732,16381 4769,16381 4769,16418 4842,16418 4842,16454 4878,16454 4878,16491 4987,16491 4987,16564 5060,16564 5060,16637 5170,16637 5170,16746 5352,16746 5352,16782 5534,16782 5534,16819 5571,16819 5571,16855 5643,16855 5643,16819 5680,16819 5680,16782 6117,16782 6117,16819 6445,16819 6445,16855 7101,16855 7101,16819 7174,16819 7174,16855 7357,16855 7357,16892 7502,16892 7502,16855 7612,16855 7612,16892 7721,16892 7721,16855 7794,16855 7794,16892 7830,16892 7830,16928 7976,16928 7976,16892 8049,16892 8049,16928 8268,16928 8268,16965 8596,16965 8596,17038 8669,17038 8669,17001 8778,17001 8778,17038 9070,17038 9070,17074 9179,17074 9179,17110 9543,17110 9543,17147 9762,17147 9762,17183 10054,17183 10054,17147 10163,17147 10163,17183 10272,17183 10272,17220 10382,17220 10382,17256 10418,17256 10418,17293 10564,17293 10564,17329 11001,17329 11001,17366 11111,17366 11111,17402 11402,17402 11402,17438 11658,17438 11658,17475 11730,17475 11730,17511 12022,17511 12022,17548 12168,17548 12168,17584 12569,17584 12569,17621 12642,17621 12642,17657 12824,17657 12824,17694 13006,17694 13006,17730 13116,17730 13116,17767 13188,17767 13188,17803 13334,17803 13334,17839 13444,17839 13444,17876 13553,17876 13553,17912 13662,17912 13662,17949 13954,17949 13954,17985 14063,17985 14063,18022 14209,18022 14209,18058 14355,18058 14355,18095 14464,18095 14464,18131 14501,18131 14501,18167 14683,18167 14683,18204 14865,18204 14865,18167 14938,18167 14938,18277 15011,18277 15011,18240 15120,18240 15120,18277 15157,18277 15157,18350 15230,18350 15230,18313 15339,18313 15339,18350 15412,18350 15412,18313 15485,18313 15485,18350 15521,18350 15521,18386 15776,18386 15776,18423 16287,18423 16287,18386 16615,18386 16615,18350 16688,18350 16688,18313 16797,18313 16797,18350 16833,18350 16833,18386 16906,18386 16906,18350 17161,18350 17161,18313 17307,18313 17307,18277 17344,18277 17344,18240 17380,18240 17380,18204 17489,18204 17489,18167 17599,18167 17599,18131 17635,18131 17635,18095 17672,18095 17672,18058 17708,18058 17708,18022 17745,18022 17745,17985 17817,17985 17817,17876 17854,17876 17854,17839 17890,17839 17890,17767 17927,17767 17927,17657 17963,17657 17963,17475 18000,17475 18000,17293 17963,17293 17963,17110 18000,17110 18000,16892 18036,16892 18036,16746 18000,16746 18000,16564 18036,16564 18036,16491 18000,16491 18000,16454 18073,16454 18073,16381 18036,16381 18036,16345 18073,16345 18073,16236 18109,16236 18109,16090 18146,16090 18146,15981 18182,15981 18182,15835 18218,15835 18218,15798 18182,15798 18182,15616 18146,15616 18146,15507 18182,15507 18182,15361 18218,15361 18218,15288 18255,15288 18255,14887 18218,14887 18218,14778 18255,14778 18255,14523 18291,14523 18291,14486 18328,14486 18328,14413 18291,14413 18291,14194 18255,14194 18255,14085 18291,14085 18291,13903 18328,13903 18328,13721 18364,13721 18364,13684 18401,13684 18401,13538 18364,13538 18364,13174 18401,13174 18401,12591 18437,12591 18437,12481 18474,12481 18474,12336 18401,12336 18401,11643 18437,11643 18437,11607 18510,11607 18510,11570 18401,11570 18401,11461 18474,11461 18474,11424 18437,11424 18437,11133 18401,11133 18401,11096 18364,11096 18364,11060 18328,11060 18328,11096 18255,11096 18255,10987 18401,10987 18401,10732 18437,10732 18437,10659 18401,10659 18401,10622 18364,10622 18364,10367 18328,10367 18328,10294 18364,10294 18364,10003 18328,10003 18328,9602 18291,9602 18291,9420 18255,9420 18255,9383 18218,9383 18218,9310 18255,9310 18255,9237 18218,9237 18218,9128 18255,9128 18255,9055 18182,9055 18182,8654 18146,8654 18146,8581 18109,8581 18109,8472 18073,8472 18073,8435 18036,8435 18036,8253 18000,8253 18000,8144 17963,8144 17963,8071 17927,8071 17927,8035 17890,8035 17890,7962 17854,7962 17854,7925 17817,7925 17817,7852 17781,7852 17781,7779 17745,7779 17745,7743 17708,7743 17708,7597 17672,7597 17672,7524 17635,7524 17635,7488 17599,7488 17599,7415 17562,7415 17562,7378 17526,7378 17526,7269 17489,7269 17489,7196 17453,7196 17453,7160 17417,7160 17417,7087 17380,7087 17380,7050 17307,7050 17307,7014 17234,7014 17234,6978 17161,6978 17161,6905 17125,6905 17125,6868 17089,6868 17089,6832 17052,6832 17052,6795 16906,6795 16906,6686 16797,6686 16797,6649 16688,6649 16688,6613 16651,6613 16651,6577 16505,6577 16505,6540 16469,6540 16469,6504 16396,6504 16396,6467 16214,6467 16214,6431 16177,6431 16177,6394 15922,6394 15922,6358 15886,6358 15886,6321 15849,6321 15849,6285 15813,6285 15813,6321 15667,6321 15667,6285 15448,6285 15448,6249 15375,6249 15375,6212 15120,6212 15120,6176 14902,6176 14902,6139 14865,6139 14865,6176 14719,6176 14719,6212 14574,6212 14574,6176 14501,6176 14501,6139 14391,6139 14391,6176 14355,6176 14355,6212 14209,6212 14209,6176 14136,6176 14136,6139 14027,6139 14027,6176 13990,6176 13990,6139 13845,6139 13845,6176 13298,6176 13298,6212 13261,6212 13261,6176 13225,6176 13225,6139 13152,6139 13152,6176 "/>
   <polygon class="fil1" points="2472,11752 2472,12008 2436,12008 2436,12882 2472,12882 2472,12919 2509,12919 2509,12737 2545,12737 2545,12627 2509,12627 2509,12700 2472,12700 2472,12518 2509,12518 2509,12481 2545,12481 2545,12591 2691,12591 2691,12627 2582,12627 2582,12664 2764,12664 2764,12700 2800,12700 2800,12773 2764,12773 2764,12809 2618,12809 2618,12882 2655,12882 2655,12919 2582,12919 2582,13028 2655,13028 2655,12992 2691,12992 2691,12955 2764,12955 2764,12992 2800,12992 2800,13028 2873,13028 2873,12882 2910,12882 2910,12846 2873,12846 2873,12809 2946,12809 2946,12846 3019,12846 3019,12882 3056,12882 3056,12919 2983,12919 2983,12882 2946,12882 2946,12992 2983,12992 2983,13028 3019,13028 3019,13065 3056,13065 3056,12955 3128,12955 3128,12846 3165,12846 3165,12955 3201,12955 3201,12992 3274,12992 3274,13028 3201,13028 3201,13065 3311,13065 3311,13101 3092,13101 3092,13174 3165,13174 3165,13210 3056,13210 3056,13174 2946,13174 2946,13101 2910,13101 2910,13210 2983,13210 2983,13393 3128,13393 3128,13320 3420,13320 3420,13283 3456,13283 3456,13320 3493,13320 3493,13283 3529,13283 3529,13356 3566,13356 3566,13429 3420,13429 3420,13465 3456,13465 3456,13502 3566,13502 3566,13465 3639,13465 3639,13356 3712,13356 3712,13502 3602,13502 3602,13575 3566,13575 3566,13684 3639,13684 3639,13611 3712,13611 3712,13575 3784,13575 3784,13247 3821,13247 3821,13137 3857,13137 3857,13028 3894,13028 3894,12846 3857,12846 3857,12882 3784,12882 3784,12846 3748,12846 3748,12737 3930,12737 3930,12372 3967,12372 3967,12263 3930,12263 3930,12008 3967,12008 3967,11862 3930,11862 3930,11607 3967,11607 3967,11424 3930,11424 3930,11133 3894,11133 3894,10987 3930,10987 3930,10950 3967,10950 3967,10914 3857,10914 3857,10841 3930,10841 3930,10805 3967,10805 3967,10367 4003,10367 4003,10258 4076,10258 4076,10222 4040,10222 4040,10112 4076,10112 4076,10076 4040,10076 4040,9784 4003,9784 4003,9748 3967,9748 3967,9675 4040,9675 4040,9711 4113,9711 4113,9565 4076,9565 4076,9529 3930,9529 3930,9493 3894,9493 3894,9420 3967,9420 3967,9383 4003,9383 4003,9420 4040,9420 4040,9493 4113,9493 4113,9092 4076,9092 4076,9237 4003,9237 4003,8618 4076,8618 4076,8581 4113,8581 4113,8618 4149,8618 4149,8508 4185,8508 4185,8290 4222,8290 4222,8144 4258,8144 4258,8071 4222,8071 4222,8035 4258,8035 4258,7998 4295,7998 4295,7962 4331,7962 4331,7889 4295,7889 4295,7743 4258,7743 4258,7706 4295,7706 4295,7634 4258,7634 4258,7561 4222,7561 4222,7524 4185,7524 4185,7561 4076,7561 4076,7597 3930,7597 3930,7634 3857,7634 3857,7670 3784,7670 3784,7706 3675,7706 3675,7743 3456,7743 3456,7816 3529,7816 3529,7889 3493,7889 3493,7962 3456,7962 3456,8035 3347,8035 3347,8144 3274,8144 3274,8290 3165,8290 3165,8326 3128,8326 3128,8363 3092,8363 3092,8399 3019,8399 3019,8508 2946,8508 2946,8581 2910,8581 2910,8618 2873,8618 2873,8654 2837,8654 2837,8727 2727,8727 2727,8800 2691,8800 2691,8909 2582,8909 2582,8946 2509,8946 2509,9055 2472,9055 2472,9092 2436,9092 2436,9274 2399,9274 2399,9310 2363,9310 2363,9420 2327,9420 2327,9529 2363,9529 2363,9565 2327,9565 2327,9821 2363,9821 2363,9930 2327,9930 2327,10367 2363,10367 2363,10404 2399,10404 2399,10440 2472,10440 2472,10550 2436,10550 2436,10841 2472,10841 2472,11023 2509,11023 2509,11206 2545,11206 2545,11534 2509,11534 2509,11643 2582,11643 2582,11534 2655,11534 2655,11570 2691,11570 2691,11607 2727,11607 2727,11643 2691,11643 2691,11716 2582,11716 2582,11752 "/>
   <polygon class="fil2" points="18109,16892 18073,16892 18073,17038 18109,17038 18109,17110 18073,17110 18073,17074 18036,17074 18036,17147 18000,17147 18000,17183 18036,17183 18036,17220 18073,17220 18073,17293 18000,17293 18000,17402 18073,17402 18073,17438 18109,17438 18109,17475 17963,17475 17963,17657 17927,17657 17927,17767 17890,17767 17890,17839 17854,17839 17854,17876 17890,17876 17890,17949 17817,17949 17817,17985 17745,17985 17745,18022 17708,18022 17708,18058 17672,18058 17672,18095 17708,18095 17708,18131 17672,18131 17672,18167 17635,18167 17635,18204 17599,18204 17599,18240 17526,18240 17526,18277 17453,18277 17453,18313 17380,18313 17380,18350 17307,18350 17307,18313 17161,18313 17161,18350 16906,18350 16906,18386 16833,18386 16833,18350 16797,18350 16797,18313 16688,18313 16688,18350 16615,18350 16615,18386 16287,18386 16287,18423 15776,18423 15776,18459 15594,18459 15594,18386 15521,18386 15521,18350 15485,18350 15485,18313 15412,18313 15412,18350 15339,18350 15339,18313 15230,18313 15230,18350 15157,18350 15157,18277 15120,18277 15120,18240 15011,18240 15011,18277 14902,18277 14902,18204 14683,18204 14683,18167 14646,18167 14646,18240 14574,18240 14574,18204 14537,18204 14537,18167 14501,18167 14501,18131 14464,18131 14464,18095 14355,18095 14355,18058 14209,18058 14209,18022 14173,18022 14173,18095 14027,18095 14027,18022 14063,18022 14063,17985 13954,17985 13954,17949 13662,17949 13662,17912 13553,17912 13553,17876 13444,17876 13444,17839 13334,17839 13334,17803 13188,17803 13188,17767 13116,17767 13116,17730 13006,17730 13006,17694 12970,17694 12970,17767 12824,17767 12824,17730 12751,17730 12751,17657 12642,17657 12642,17694 12459,17694 12459,17584 12168,17584 12168,17548 12022,17548 12022,17511 11730,17511 11730,17475 11658,17475 11658,17438 11402,17438 11402,17402 11111,17402 11111,17366 11001,17366 11001,17329 10564,17329 10564,17293 10418,17293 10418,17256 10382,17256 10382,17220 10272,17220 10272,17183 10163,17183 10163,17147 10054,17147 10054,17183 9762,17183 9762,17147 9543,17147 9543,17110 9252,17110 9252,17183 9325,17183 9325,17548 9762,17548 9762,17621 9908,17621 9908,17584 9981,17584 9981,17511 10054,17511 10054,17548 10127,17548 10127,17584 10163,17584 10163,17657 10345,17657 10345,17694 10491,17694 10491,17730 10746,17730 10746,17767 11366,17767 11366,17803 11402,17803 11402,17839 11439,17839 11439,17876 11803,17876 11803,17912 11840,17912 11840,17949 11986,17949 11986,17876 12022,17876 12022,17839 12059,17839 12059,17876 12131,17876 12131,17912 12277,17912 12277,17949 12350,17949 12350,17912 12387,17912 12387,17949 12459,17949 12459,17985 12532,17985 12532,18022 12314,18022 12314,18058 12678,18058 12678,18095 13043,18095 13043,18131 13079,18131 13079,18167 13261,18167 13261,18204 13298,18204 13298,18131 13371,18131 13371,18167 13444,18167 13444,18240 13407,18240 13407,18277 13444,18277 13444,18313 13735,18313 13735,18350 13808,18350 13808,18386 13917,18386 13917,18350 13881,18350 13881,18313 13845,18313 13845,18240 13954,18240 13954,18350 14027,18350 14027,18459 14282,18459 14282,18496 14318,18496 14318,18423 14428,18423 14428,18386 14464,18386 14464,18423 14537,18423 14537,18496 14646,18496 14646,18532 14610,18532 14610,18568 14646,18568 14646,18605 14683,18605 14683,18641 14902,18641 14902,18605 14974,18605 14974,18714 15011,18714 15011,18751 15375,18751 15375,18787 15521,18787 15521,18824 15594,18824 15594,18787 15703,18787 15703,18824 15849,18824 15849,18860 15886,18860 15886,18896 15959,18896 15959,18824 16214,18824 16214,18787 16323,18787 16323,18824 16505,18824 16505,18787 16578,18787 16578,18824 16797,18824 16797,18787 17089,18787 17089,18751 17198,18751 17198,18714 17380,18714 17380,18678 17489,18678 17489,18641 17672,18641 17672,18605 17781,18605 17781,18568 17817,18568 17817,18532 17854,18532 17854,18459 17817,18459 17817,18350 17781,18350 17781,18313 17927,18313 17927,18350 17963,18350 17963,18423 17927,18423 17927,18459 18000,18459 18000,18386 18073,18386 18073,18313 18109,18313 18109,18277 18146,18277 18146,18131 18218,18131 18218,18058 18255,18058 18255,17985 18328,17985 18328,17912 18364,17912 18364,17803 18255,17803 18255,17767 18291,17767 18291,17730 18364,17730 18364,17621 18255,17621 18255,17548 18364,17548 18364,17584 18401,17584 18401,17475 18364,17475 18364,17438 18328,17438 18328,17475 18291,17475 18291,17366 18328,17366 18328,17293 18401,17293 18401,17256 18328,17256 18328,17220 18291,17220 18291,17183 18255,17183 18255,17001 18291,17001 18291,16892 18328,16892 18328,16928 18364,16928 18364,16965 18401,16965 18401,17001 18437,17001 18437,16819 18474,16819 18474,16454 18437,16454 18437,16673 18328,16673 18328,16527 18291,16527 18291,16454 18255,16454 18255,16418 18218,16418 18218,16381 18255,16381 18255,16345 18218,16345 18218,16309 18255,16309 18255,16272 18291,16272 18291,16236 18218,16236 18218,16272 18146,16272 18146,16418 18182,16418 18182,16564 18218,16564 18218,16673 18255,16673 18255,16819 18146,16819 18146,16928 18109,16928 "/>
   <polygon class="fil3" points="4113,9456 4113,9493 4076,9493 4076,9565 4113,9565 4113,9784 4149,9784 4149,9930 4040,9930 4040,10076 4076,10076 4076,10112 4040,10112 4040,10222 4113,10222 4113,10294 4040,10294 4040,10367 4003,10367 4003,10440 4076,10440 4076,10477 4113,10477 4113,10550 4040,10550 4040,10513 4003,10513 4003,10732 4040,10732 4040,10695 4149,10695 4149,10768 4185,10768 4185,10841 4113,10841 4113,10805 4076,10805 4076,10768 3967,10768 3967,10805 3930,10805 3930,10841 3894,10841 3894,10878 4003,10878 4003,10950 3930,10950 3930,10987 3894,10987 3894,11133 3967,11133 3967,11169 4040,11169 4040,11279 4076,11279 4076,11242 4149,11242 4149,11315 4113,11315 4113,11388 4040,11388 4040,11424 4003,11424 4003,11497 3967,11497 3967,11607 3930,11607 3930,11825 4003,11825 4003,11679 4040,11679 4040,11716 4076,11716 4076,11862 4040,11862 4040,11898 4003,11898 4003,11971 4040,11971 4040,12008 4113,12008 4113,12117 4149,12117 4149,12263 4113,12263 4113,12518 4076,12518 4076,12554 4040,12554 4040,12336 4003,12336 4003,12372 3967,12372 3967,12591 4003,12591 4003,12664 4076,12664 4076,12700 4149,12700 4149,12773 4076,12773 4076,12955 4113,12955 4113,13065 4149,13065 4149,13101 4040,13101 4040,13320 4076,13320 4076,13356 4113,13356 4113,13393 4040,13393 4040,13502 3967,13502 3967,13429 3930,13429 3930,13465 3894,13465 3894,13575 3967,13575 3967,13648 3930,13648 3930,13611 3894,13611 3894,13721 3930,13721 3930,13757 3967,13757 3967,13866 4003,13866 4003,13757 4040,13757 4040,13794 4076,13794 4076,13830 4113,13830 4113,13866 4076,13866 4076,13976 4113,13976 4113,14049 4040,14049 4040,14158 4113,14158 4113,14231 4040,14231 4040,14450 4003,14450 4003,14595 4040,14595 4040,14741 4076,14741 4076,14668 4149,14668 4149,14741 4113,14741 4113,14851 4185,14851 4185,14923 4113,14923 4113,14996 4149,14996 4149,15142 4113,15142 4113,15106 4076,15106 4076,15215 4113,15215 4113,15288 4040,15288 4040,15252 4003,15252 4003,15142 4040,15142 4040,15106 3967,15106 3967,15288 4003,15288 4003,15324 4040,15324 4040,15434 4076,15434 4076,15397 4113,15397 4113,15470 4040,15470 4040,15543 4113,15543 4113,15689 4076,15689 4076,15725 4113,15725 4113,15798 4149,15798 4149,15981 4185,15981 4185,16017 4113,16017 4113,15981 4076,15981 4076,16017 4040,16017 4040,15944 3967,15944 3967,16053 4040,16053 4040,16090 4076,16090 4076,16199 4113,16199 4113,16236 4149,16236 4149,16272 4295,16272 4295,16345 4258,16345 4258,16381 4331,16381 4331,16418 4368,16418 4368,16491 4404,16491 4404,16564 4477,16564 4477,16637 4513,16637 4513,16673 4550,16673 4550,16746 4586,16746 4586,16782 4513,16782 4513,16819 4550,16819 4550,16855 4659,16855 4659,16892 4696,16892 4696,16928 4769,16928 4769,17001 4842,17001 4842,17074 4878,17074 4878,17110 4951,17110 4951,17147 4987,17147 4987,17183 5024,17183 5024,17147 5060,17147 5060,17110 5024,17110 5024,17038 5097,17038 5097,17074 5133,17074 5133,17256 5279,17256 5279,17293 5388,17293 5388,17256 5498,17256 5498,17293 5789,17293 5789,17220 5862,17220 5862,17256 5935,17256 5935,17220 6008,17220 6008,17256 6300,17256 6300,17293 6482,17293 6482,17256 6591,17256 6591,17293 6737,17293 6737,17256 6846,17256 6846,17220 6810,17220 6810,17183 6883,17183 6883,17220 6956,17220 6956,17183 7028,17183 7028,17147 6992,17147 6992,17110 6956,17110 6956,16965 6992,16965 6992,16928 7065,16928 7065,16892 6919,16892 6919,16855 6445,16855 6445,16819 6117,16819 6117,16782 5899,16782 5899,16855 5789,16855 5789,16782 5680,16782 5680,16819 5643,16819 5643,16855 5571,16855 5571,16819 5534,16819 5534,16782 5170,16782 5170,16855 5097,16855 5097,16819 5060,16819 5060,16892 5024,16892 5024,16673 5060,16673 5060,16709 5133,16709 5133,16637 5060,16637 5060,16600 4951,16600 4951,16491 4878,16491 4878,16454 4842,16454 4842,16418 4769,16418 4769,16381 4732,16381 4732,16309 4696,16309 4696,16272 4659,16272 4659,16236 4623,16236 4623,16272 4586,16272 4586,16236 4404,16236 4404,16163 4331,16163 4331,16017 4295,16017 4295,15981 4331,15981 4331,15908 4368,15908 4368,16017 4404,16017 4404,16053 4477,16053 4477,16017 4441,16017 4441,15981 4513,15981 4513,15944 4477,15944 4477,15652 4441,15652 4441,15725 4404,15725 4404,15652 4368,15652 4368,15580 4331,15580 4331,15543 4368,15543 4368,15470 4404,15470 4404,15507 4441,15507 4441,15324 4477,15324 4477,15033 4513,15033 4513,14996 4404,14996 4404,14923 4368,14923 4368,14668 4331,14668 4331,14595 4368,14595 4368,14523 4331,14523 4331,14486 4258,14486 4258,14523 4222,14523 4222,14450 4185,14450 4185,14377 4222,14377 4222,14413 4295,14413 4295,14340 4331,14340 4331,14304 4222,14304 4222,14267 4331,14267 4331,14122 4295,14122 4295,14012 4331,14012 4331,13903 4404,13903 4404,13830 4331,13830 4331,13794 4295,13794 4295,13429 4331,13429 4331,13393 4368,13393 4368,13210 4331,13210 4331,13101 4368,13101 4368,12992 4404,12992 4404,12846 4441,12846 4441,12737 4331,12737 4331,12664 4368,12664 4368,12627 4441,12627 4441,12408 4404,12408 4404,11971 4441,11971 4441,11898 4404,11898 4404,11862 4441,11862 4441,11789 4404,11789 4404,11752 4368,11752 4368,11789 4331,11789 4331,11898 4368,11898 4368,12044 4295,12044 4295,11716 4368,11716 4368,11679 4295,11679 4295,11607 4368,11607 4368,11497 4331,11497 4331,11096 4258,11096 4258,10987 4295,10987 4295,10950 4331,10950 4331,10659 4368,10659 4368,10622 4404,10622 4404,10586 4331,10586 4331,10513 4441,10513 4441,10477 4477,10477 4477,10294 4441,10294 4441,10185 4477,10185 4477,10039 4441,10039 4441,9966 4368,9966 4368,10003 4295,10003 4295,9930 4331,9930 4331,9821 4295,9821 4295,9711 4185,9711 4185,9310 4149,9310 4149,9456 "/>
   <polygon class="fil4" points="9944,6030 9944,6066 9872,6066 9872,6030 9726,6030 9726,6066 9653,6066 9653,6030 9543,6030 9543,5993 9580,5993 9580,5957 9325,5957 9325,5993 8960,5993 8960,6030 8669,6030 8669,6066 8632,6066 8632,6139 8559,6139 8559,6066 8450,6066 8450,6103 8231,6103 8231,6139 8195,6139 8195,6176 8086,6176 8086,6139 7903,6139 7903,6176 7940,6176 7940,6212 7867,6212 7867,6249 7794,6249 7794,6212 7757,6212 7757,6176 7721,6176 7721,6249 7648,6249 7648,6212 7575,6212 7575,6285 7502,6285 7502,6212 7284,6212 7284,6249 7065,6249 7065,6212 6664,6212 6664,6176 6482,6176 6482,6139 6372,6139 6372,6103 6154,6103 6154,6139 6081,6139 6081,6103 5789,6103 5789,6139 5643,6139 5643,6212 5534,6212 5534,6249 5498,6249 5498,6285 5352,6285 5352,6321 5279,6321 5279,6358 5206,6358 5206,6394 5170,6394 5170,6431 5133,6431 5133,6504 5060,6504 5060,6467 4951,6467 4951,6504 4914,6504 4914,6540 4842,6540 4842,6577 4805,6577 4805,6613 4769,6613 4769,6686 4732,6686 4732,6722 4696,6722 4696,6795 4623,6795 4623,6868 4513,6868 4513,7050 4477,7050 4477,7196 4441,7196 4441,7306 4368,7306 4368,7451 4331,7451 4331,7488 4295,7488 4295,7706 4258,7706 4258,7743 4295,7743 4295,7889 4331,7889 4331,7998 4404,7998 4404,8071 4331,8071 4331,8180 4295,8180 4295,8144 4222,8144 4222,8253 4295,8253 4295,8326 4258,8326 4258,8472 4222,8472 4222,8654 4258,8654 4258,8691 4222,8691 4222,8836 4185,8836 4185,8946 4149,8946 4149,9092 4185,9092 4185,9237 4113,9237 4113,9456 4149,9456 4149,9310 4185,9310 4185,9711 4368,9711 4368,9675 4404,9675 4404,9638 4368,9638 4368,9602 4404,9602 4404,9493 4441,9493 4441,9529 4513,9529 4513,9347 4550,9347 4550,8873 4586,8873 4586,8581 4623,8581 4623,8472 4586,8472 4586,8363 4623,8363 4623,8326 4586,8326 4586,8071 4623,8071 4623,7998 4550,7998 4550,7962 4659,7962 4659,8035 4696,8035 4696,7889 4586,7889 4586,7852 4623,7852 4623,7816 4659,7816 4659,7779 4696,7779 4696,7706 4659,7706 4659,7634 4696,7634 4696,7524 4732,7524 4732,7488 4769,7488 4769,7451 4805,7451 4805,7415 4842,7415 4842,7378 4769,7378 4769,7342 4805,7342 4805,7233 4842,7233 4842,7160 4878,7160 4878,7196 4914,7196 4914,7160 4951,7160 4951,7014 4987,7014 4987,6978 4951,6978 4951,6905 5060,6905 5060,6868 5097,6868 5097,6832 5133,6832 5133,6795 5206,6795 5206,6722 5279,6722 5279,6686 5388,6686 5388,6649 5425,6649 5425,6613 5534,6613 5534,6577 5607,6577 5607,6540 5753,6540 5753,6504 6008,6504 6008,6467 6117,6467 6117,6504 6300,6504 6300,6540 6628,6540 6628,6577 6810,6577 6810,6613 6919,6613 6919,6649 7211,6649 7211,6613 7466,6613 7466,6577 7539,6577 7539,6540 7757,6540 7757,6467 8013,6467 8013,6394 8049,6394 8049,6358 8086,6358 8086,6321 8049,6321 8049,6285 8122,6285 8122,6358 8195,6358 8195,6394 8231,6394 8231,6431 8086,6431 8086,6504 8304,6504 8304,6467 8523,6467 8523,6431 8632,6431 8632,6394 8705,6394 8705,6431 8778,6431 8778,6394 8851,6394 8851,6431 9143,6431 9143,6394 9325,6394 9325,6431 9398,6431 9398,6504 9543,6504 9543,6431 9616,6431 9616,6394 9653,6394 9653,6358 9799,6358 9799,6431 9872,6431 9872,6394 10090,6394 10090,6358 10200,6358 10200,6321 10309,6321 10309,6358 10345,6358 10345,6321 10382,6321 10382,6285 10892,6285 10892,6249 11001,6249 11001,6176 10965,6176 10965,6103 10856,6103 10856,6066 10819,6066 10819,6030 10783,6030 10783,5920 10710,5920 10710,5957 10455,5957 10455,5993 10236,5993 10236,6030 10054,6030 10054,6066 9981,6066 9981,6030 "/>
   <polygon class="fil5" points="4295,16491 4295,16454 4149,16454 4149,16381 4113,16381 4113,16199 4040,16199 4040,16236 3967,16236 3967,16163 4003,16163 4003,16053 3967,16053 3967,15689 3894,15689 3894,15361 3930,15361 3930,14960 4040,14960 4040,14923 4003,14923 4003,14741 3967,14741 3967,14413 3930,14413 3930,14049 3894,14049 3894,14267 3857,14267 3857,14340 3748,14340 3748,14304 3675,14304 3675,14377 3602,14377 3602,14304 3566,14304 3566,14340 3493,14340 3493,14413 3602,14413 3602,14523 3529,14523 3529,14486 3456,14486 3456,14559 3493,14559 3493,14595 3529,14595 3529,14632 3493,14632 3493,14668 3456,14668 3456,14851 3311,14851 3311,14887 3274,14887 3274,14923 3128,14923 3128,14960 2983,14960 2983,15033 3056,15033 3056,15179 2983,15179 2983,15215 3056,15215 3056,15288 3092,15288 3092,15361 2983,15361 2983,15434 3019,15434 3019,15543 2946,15543 2946,15616 2983,15616 2983,15652 3019,15652 3019,15725 2946,15725 2946,15871 3019,15871 3019,15944 3056,15944 3056,16090 3092,16090 3092,16236 2910,16236 2910,16272 3019,16272 3019,16345 2983,16345 2983,16418 3128,16418 3128,16454 3456,16454 3456,16381 3420,16381 3420,16345 3347,16345 3347,16309 3274,16309 3274,16236 3311,16236 3311,16126 3274,16126 3274,16053 3347,16053 3347,16090 3456,16090 3456,16126 3493,16126 3493,16163 3456,16163 3456,16199 3420,16199 3420,16236 3347,16236 3347,16272 3420,16272 3420,16309 3529,16309 3529,16272 3748,16272 3748,16236 3784,16236 3784,16272 3857,16272 3857,16309 3821,16309 3821,16345 3930,16345 3930,16381 3894,16381 3894,16418 3857,16418 3857,16454 3930,16454 3930,16491 4003,16491 4003,16527 4076,16527 4076,16491 4149,16491 4149,16527 4185,16527 4185,16491 "/>
   <polygon class="fil6" points="18364,10440 18364,10622 18401,10622 18401,10659 18437,10659 18437,10732 18401,10732 18401,10987 18364,10987 18364,11096 18401,11096 18401,11133 18437,11133 18437,11388 18510,11388 18510,11315 18583,11315 18583,11424 18510,11424 18510,11607 18437,11607 18437,11643 18401,11643 18401,11825 18474,11825 18474,11679 18619,11679 18619,12008 18692,12008 18692,11971 18729,11971 18729,11935 18765,11935 18765,12153 18692,12153 18692,12117 18729,12117 18729,12044 18692,12044 18692,12080 18619,12080 18619,12117 18546,12117 18546,12080 18583,12080 18583,11971 18510,11971 18510,11898 18437,11898 18437,11971 18401,11971 18401,12336 18474,12336 18474,12554 18510,12554 18510,12518 18546,12518 18546,12591 18583,12591 18583,12664 18546,12664 18546,12737 18510,12737 18510,12664 18437,12664 18437,12737 18401,12737 18401,13174 18364,13174 18364,13538 18401,13538 18401,13684 18364,13684 18364,13721 18401,13721 18401,13903 18364,13903 18364,13976 18401,13976 18401,14049 18474,14049 18474,13830 18546,13830 18546,13794 18510,13794 18510,13757 18546,13757 18546,13648 18583,13648 18583,13575 18546,13575 18546,13538 18619,13538 18619,13611 18656,13611 18656,13684 18692,13684 18692,13648 18729,13648 18729,13283 18765,13283 18765,13065 18802,13065 18802,12919 18692,12919 18692,12882 18656,12882 18656,12809 18692,12809 18692,12737 18765,12737 18765,12700 18838,12700 18838,12664 18802,12664 18802,12518 18765,12518 18765,12481 18802,12481 18802,12445 18838,12445 18838,12372 18802,12372 18802,12299 18838,12299 18838,11607 18802,11607 18802,11570 18729,11570 18729,11607 18692,11607 18692,11279 18729,11279 18729,11315 18765,11315 18765,11351 18838,11351 18838,11242 18802,11242 18802,11169 18656,11169 18656,11023 18729,11023 18729,11060 18765,11060 18765,11096 18838,11096 18838,10950 18802,10950 18802,10695 18765,10695 18765,10732 18729,10732 18729,10586 18656,10586 18656,10550 18619,10550 18619,10440 18583,10440 18583,10404 18474,10404 18474,10367 18437,10367 18437,10404 18401,10404 18401,10440 "/>
   <polygon class="fil2" points="17781,7743 17781,7706 17927,7706 17927,7816 17963,7816 17963,7852 18036,7852 18036,7889 18000,7889 18000,7962 17927,7962 17927,7925 17890,7925 17890,8035 17927,8035 17927,8071 17963,8071 17963,8144 18000,8144 18000,8253 18036,8253 18036,8399 18073,8399 18073,8363 18109,8363 18109,8326 18146,8326 18146,8363 18218,8363 18218,8435 18182,8435 18182,8508 18146,8508 18146,8654 18182,8654 18182,9055 18255,9055 18255,9128 18291,9128 18291,9237 18255,9237 18255,9310 18328,9310 18328,9420 18291,9420 18291,9602 18328,9602 18328,9675 18364,9675 18364,9857 18401,9857 18401,9893 18364,9893 18364,9966 18437,9966 18437,9930 18474,9930 18474,9966 18510,9966 18510,10039 18546,10039 18546,10149 18510,10149 18510,10112 18474,10112 18474,10222 18401,10222 18401,10294 18437,10294 18437,10331 18510,10331 18510,10367 18619,10367 18619,10331 18656,10331 18656,10477 18692,10477 18692,10550 18729,10550 18729,10513 18765,10513 18765,10404 18802,10404 18802,10331 18765,10331 18765,10222 18656,10222 18656,10149 18729,10149 18729,10003 18583,10003 18583,9966 18729,9966 18729,9565 18656,9565 18656,9529 18619,9529 18619,9347 18656,9347 18656,9237 18619,9237 18619,9164 18692,9164 18692,9019 18656,9019 18656,8873 18619,8873 18619,8691 18583,8691 18583,8399 18546,8399 18546,8363 18510,8363 18510,8290 18474,8290 18474,8253 18437,8253 18437,8180 18401,8180 18401,8035 18364,8035 18364,7962 18328,7962 18328,7852 18255,7852 18255,7889 18182,7889 18182,7779 18073,7779 18073,7743 18109,7743 18109,7670 18036,7670 18036,7634 17963,7634 17963,7597 17927,7597 17927,7634 17854,7634 17854,7597 17890,7597 17890,7488 17817,7488 17817,7670 17781,7670 17781,7561 17745,7561 17745,7524 17708,7524 17708,7488 17672,7488 17672,7597 17708,7597 17708,7743 "/>
   <polygon class="fil7" points="15703,6176 15703,6249 15776,6249 15776,6212 15849,6212 15849,6249 15922,6249 15922,6285 15959,6285 15959,6358 15922,6358 15922,6394 16104,6394 16104,6358 16141,6358 16141,6249 16177,6249 16177,6285 16214,6285 16214,6249 16250,6249 16250,6394 16214,6394 16214,6467 16396,6467 16396,6504 16469,6504 16469,6540 16505,6540 16505,6577 16615,6577 16615,6540 16578,6540 16578,6467 16651,6467 16651,6504 16688,6504 16688,6540 16724,6540 16724,6577 16760,6577 16760,6649 16797,6649 16797,6686 16906,6686 16906,6759 16979,6759 16979,6686 17052,6686 17052,6722 17089,6722 17089,6759 17052,6759 17052,6832 17089,6832 17089,6868 17125,6868 17125,6905 17161,6905 17161,6978 17198,6978 17198,6905 17271,6905 17271,6941 17344,6941 17344,7050 17380,7050 17380,7087 17417,7087 17417,7160 17453,7160 17453,7196 17489,7196 17489,7269 17526,7269 17526,7196 17599,7196 17599,7087 17672,7087 17672,7233 17599,7233 17599,7378 17562,7378 17562,7415 17599,7415 17599,7488 17635,7488 17635,7524 17672,7524 17672,7488 17708,7488 17708,7524 17745,7524 17745,7561 17781,7561 17781,7670 17817,7670 17817,7488 17890,7488 17890,7597 17854,7597 17854,7634 17927,7634 17927,7597 17963,7597 17963,7634 18036,7634 18036,7670 18109,7670 18109,7743 18073,7743 18073,7779 18255,7779 18255,7743 18291,7743 18291,7670 18218,7670 18218,7597 18182,7597 18182,7524 18146,7524 18146,7488 18109,7488 18109,7378 18073,7378 18073,7342 18036,7342 18036,7269 18000,7269 18000,7233 17963,7233 17963,7196 17927,7196 17927,7087 17854,7087 17854,7123 17745,7123 17745,7087 17708,7087 17708,7050 17672,7050 17672,6978 17781,6978 17781,7014 17817,7014 17817,7050 17854,7050 17854,6978 17817,6978 17817,6941 17781,6941 17781,6868 17745,6868 17745,6832 17708,6832 17708,6795 17672,6795 17672,6686 17635,6686 17635,6759 17526,6759 17526,6722 17489,6722 17489,6686 17526,6686 17526,6649 17489,6649 17489,6577 17453,6577 17453,6540 17380,6540 17380,6431 17234,6431 17234,6394 17198,6394 17198,6358 17161,6358 17161,6321 16943,6321 16943,6285 16870,6285 16870,6249 16833,6249 16833,6321 16797,6321 16797,6285 16688,6285 16688,6212 16578,6212 16578,6139 16505,6139 16505,6103 16360,6103 16360,6066 16250,6066 16250,6030 16177,6030 16177,5993 15886,5993 15886,6066 15849,6066 15849,6103 15740,6103 15740,6139 15776,6139 15776,6176 "/>
   <polygon class="fil8" points="13043,5884 12970,5884 12970,5848 12678,5848 12678,5884 12095,5884 12095,5848 11986,5848 11986,5884 11585,5884 11585,5920 11475,5920 11475,5884 11366,5884 11366,5920 11257,5920 11257,5993 11147,5993 11147,5920 10965,5920 10965,5884 10892,5884 10892,5920 10856,5920 10856,5993 10929,5993 10929,6066 10856,6066 10856,6103 10965,6103 10965,6176 11001,6176 11001,6249 11111,6249 11111,6212 11184,6212 11184,6249 11366,6249 11366,6212 11767,6212 11767,6249 11803,6249 11803,6212 11913,6212 11913,6249 11986,6249 11986,6212 12022,6212 12022,6176 12168,6176 12168,6139 12387,6139 12387,6176 12459,6176 12459,6249 12532,6249 12532,6212 12496,6212 12496,6139 12678,6139 12678,6176 13152,6176 13152,6139 13225,6139 13225,6176 13261,6176 13261,6212 13298,6212 13298,6176 13407,6176 13407,6030 13371,6030 13371,5993 13480,5993 13480,6030 13516,6030 13516,6103 13808,6103 13808,6030 13845,6030 13845,5993 13772,5993 13772,5920 13808,5920 13808,5957 13845,5957 13845,5848 13990,5848 13990,5811 13808,5811 13808,5848 13662,5848 13662,5920 13589,5920 13589,5848 13553,5848 13553,5884 13480,5884 13480,5848 13444,5848 13444,5957 13371,5957 13371,5811 13298,5811 13298,5848 13043,5848 "/>
   <polygon class="fil9" points="6919,16855 6919,16892 7065,16892 7065,16928 6992,16928 6992,16965 6956,16965 6956,17110 6992,17110 6992,17147 7028,17147 7028,17183 7065,17183 7065,17256 7138,17256 7138,17293 7211,17293 7211,17256 7466,17256 7466,17293 7830,17293 7830,17329 7867,17329 7867,17256 7976,17256 7976,17220 8086,17220 8086,17256 8049,17256 8049,17293 8158,17293 8158,17256 8268,17256 8268,17329 8414,17329 8414,17293 8377,17293 8377,17220 8414,17220 8414,17256 8450,17256 8450,17293 8523,17293 8523,17366 8632,17366 8632,17402 8669,17402 8669,17438 8742,17438 8742,17402 8924,17402 8924,17438 9070,17438 9070,17475 9288,17475 9288,17511 9325,17511 9325,17183 9252,17183 9252,17110 9179,17110 9179,17147 9143,17147 9143,17110 8705,17110 8705,17038 8778,17038 8778,17001 8669,17001 8669,17038 8596,17038 8596,16965 8268,16965 8268,17038 8195,17038 8195,17001 8049,17001 8049,16965 8013,16965 8013,16892 7976,16892 7976,16928 7830,16928 7830,16892 7794,16892 7794,16855 7721,16855 7721,16892 7612,16892 7612,16855 7502,16855 7502,16892 7357,16892 7357,16855 7174,16855 7174,16819 7101,16819 7101,16855 "/>
   <polygon class="fil4" points="14318,5848 14318,5957 14209,5957 14209,5811 14136,5811 14136,5848 14100,5848 14100,5920 14136,5920 14136,5993 14173,5993 14173,6030 14063,6030 14063,6066 13990,6066 13990,6030 13917,6030 13917,5957 13954,5957 13954,5920 14027,5920 14027,5848 13845,5848 13845,6030 13808,6030 13808,6103 13516,6103 13516,6030 13480,6030 13480,5993 13371,5993 13371,6030 13407,6030 13407,6176 13845,6176 13845,6139 13990,6139 13990,6176 14027,6176 14027,6139 14136,6139 14136,6176 14209,6176 14209,6212 14355,6212 14355,6176 14391,6176 14391,6139 14501,6139 14501,6176 14574,6176 14574,6212 14719,6212 14719,6176 14865,6176 14865,6139 14902,6139 14902,6176 15193,6176 15193,6066 15266,6066 15266,6139 15230,6139 15230,6176 15375,6176 15375,6249 15448,6249 15448,6285 15631,6285 15631,6249 15594,6249 15594,6212 15631,6212 15631,6176 15703,6176 15703,6030 15740,6030 15740,5884 15667,5884 15667,5920 15703,5920 15703,5993 15485,5993 15485,6030 15448,6030 15448,5920 15302,5920 15302,5957 15230,5957 15230,5920 15157,5920 15157,5848 15120,5848 15120,5811 14829,5811 14829,5775 14719,5775 14719,5811 14683,5811 14683,5848 14646,5848 14646,5775 14501,5775 14501,5811 14428,5811 14428,5848 "/>
   <polygon class="fil10" points="18255,14923 18291,14923 18291,14814 18364,14814 18364,14887 18401,14887 18401,14960 18364,14960 18364,15033 18401,15033 18401,14996 18437,14996 18437,15069 18291,15069 18291,14996 18255,14996 18255,15288 18218,15288 18218,15361 18255,15361 18255,15470 18328,15470 18328,15543 18291,15543 18291,15507 18255,15507 18255,15725 18328,15725 18328,15762 18364,15762 18364,15871 18401,15871 18401,15944 18437,15944 18437,15908 18474,15908 18474,15871 18510,15871 18510,15652 18546,15652 18546,15689 18583,15689 18583,15616 18546,15616 18546,15397 18474,15397 18474,15324 18546,15324 18546,15142 18583,15142 18583,15106 18619,15106 18619,15288 18656,15288 18656,14668 18619,14668 18619,14741 18583,14741 18583,14705 18546,14705 18546,14668 18510,14668 18510,14705 18474,14705 18474,14668 18437,14668 18437,14595 18401,14595 18401,14413 18328,14413 18328,14486 18291,14486 18291,14523 18255,14523 18255,14778 18218,14778 18218,14887 18255,14887 "/>
   <polygon class="fil11" points="4040,14741 4040,14778 4076,14778 4076,14814 4003,14814 4003,14923 4040,14923 4040,14960 3930,14960 3930,15361 3894,15361 3894,15689 3967,15689 3967,15944 4040,15944 4040,16017 4076,16017 4076,15981 4113,15981 4113,16017 4185,16017 4185,15981 4149,15981 4149,15798 4113,15798 4113,15725 4076,15725 4076,15689 4113,15689 4113,15543 4040,15543 4040,15470 4113,15470 4113,15397 4076,15397 4076,15434 4040,15434 4040,15324 4003,15324 4003,15288 3967,15288 3967,15106 4040,15106 4040,15142 4003,15142 4003,15252 4040,15252 4040,15288 4113,15288 4113,15215 4076,15215 4076,15106 4113,15106 4113,15142 4149,15142 4149,14996 4113,14996 4113,14923 4185,14923 4185,14851 4113,14851 4113,14741 4149,14741 4149,14668 4076,14668 4076,14741 "/>
   <polygon class="fil5" points="4842,17038 4842,17001 4732,17001 4732,16965 4696,16965 4696,17001 4659,17001 4659,17038 4550,17038 4550,16819 4513,16819 4513,16782 4477,16782 4477,16746 4404,16746 4404,16709 4368,16709 4368,16782 4331,16782 4331,16819 4295,16819 4295,16855 4331,16855 4331,16928 4295,16928 4295,16965 4331,16965 4331,17001 4477,17001 4477,17038 4513,17038 4513,17074 4550,17074 4550,17110 4477,17110 4477,17074 4441,17074 4441,17147 4513,17147 4513,17220 4441,17220 4441,17293 4477,17293 4477,17329 4368,17329 4368,17366 4331,17366 4331,17475 4368,17475 4368,17584 4513,17584 4513,17475 4659,17475 4659,17402 4623,17402 4623,17366 4696,17366 4696,17147 4769,17147 4769,17038 "/>
   <polygon class="fil12" points="18146,16381 18146,16272 18218,16272 18218,16236 18291,16236 18291,16272 18328,16272 18328,16309 18364,16309 18364,16236 18401,16236 18401,16199 18364,16199 18364,16163 18328,16163 18328,16090 18364,16090 18364,16053 18401,16053 18401,16017 18437,16017 18437,16053 18474,16053 18474,16090 18546,16090 18546,15981 18474,15981 18474,15944 18510,15944 18510,15908 18546,15908 18546,15871 18583,15871 18583,15689 18546,15689 18546,15652 18510,15652 18510,15871 18474,15871 18474,15908 18437,15908 18437,15944 18401,15944 18401,15871 18364,15871 18364,15762 18328,15762 18328,15725 18255,15725 18255,15543 18218,15543 18218,15470 18255,15470 18255,15361 18182,15361 18182,15507 18146,15507 18146,15616 18182,15616 18182,15798 18218,15798 18218,15835 18182,15835 18182,15981 18146,15981 18146,16090 18109,16090 18109,16236 18073,16236 18073,16345 18036,16345 18036,16381 "/>
   <polygon class="fil11" points="3821,13247 3857,13247 3857,13684 3894,13684 3894,13611 3930,13611 3930,13648 3967,13648 3967,13575 3894,13575 3894,13465 3930,13465 3930,13429 3967,13429 3967,13502 4040,13502 4040,13393 4113,13393 4113,13356 4076,13356 4076,13320 4040,13320 4040,13101 4149,13101 4149,13065 4113,13065 4113,12955 4076,12955 4076,12773 4149,12773 4149,12700 4076,12700 4076,12664 4003,12664 4003,12591 3967,12591 3967,12372 3930,12372 3930,12809 3894,12809 3894,13028 3857,13028 3857,13137 3821,13137 "/>
   <polygon class="fil10" points="18291,14304 18474,14304 18474,14231 18437,14231 18437,14194 18474,14194 18474,14158 18510,14158 18510,14194 18546,14194 18546,14231 18619,14231 18619,14267 18656,14267 18656,14158 18692,14158 18692,13976 18656,13976 18656,13903 18729,13903 18729,13757 18583,13757 18583,13721 18619,13721 18619,13684 18656,13684 18656,13611 18619,13611 18619,13538 18546,13538 18546,13575 18583,13575 18583,13648 18546,13648 18546,13757 18510,13757 18510,13794 18546,13794 18546,13830 18474,13830 18474,14049 18401,14049 18401,13976 18364,13976 18364,13903 18401,13903 18401,13721 18328,13721 18328,13903 18291,13903 18291,14085 18255,14085 18255,14194 18291,14194 "/>
   <polygon class="fil5" points="3930,14012 3930,13903 3857,13903 3857,13794 3821,13794 3821,13830 3784,13830 3784,13794 3712,13794 3712,13903 3639,13903 3639,13866 3566,13866 3566,13794 3493,13794 3493,13903 3456,13903 3456,13866 3420,13866 3420,13903 3347,13903 3347,13939 3420,13939 3420,14012 3347,14012 3347,13976 3274,13976 3274,14049 3311,14049 3311,14158 3420,14158 3420,14122 3456,14122 3456,14085 3712,14085 3712,14049 3748,14049 3748,13976 3821,13976 3821,14085 3857,14085 3857,14012 "/>
   <polygon class="fil13" points="3930,11825 3930,11862 3967,11862 3967,12008 3930,12008 3930,12263 3967,12263 3967,12372 4003,12372 4003,12336 4040,12336 4040,12554 4076,12554 4076,12518 4113,12518 4113,12263 4149,12263 4149,12117 4113,12117 4113,12008 4040,12008 4040,11971 4003,11971 4003,11898 4040,11898 4040,11862 4076,11862 4076,11716 4040,11716 4040,11679 4003,11679 4003,11825 "/>
   <polygon class="fil14" points="3967,14668 4040,14668 4040,14595 4003,14595 4003,14450 4040,14450 4040,14231 4113,14231 4113,14158 4040,14158 4040,14049 4113,14049 4113,13976 4076,13976 4076,13866 4113,13866 4113,13830 4076,13830 4076,13794 4040,13794 4040,13757 4003,13757 4003,13866 3967,13866 3967,13757 3930,13757 3930,14413 3967,14413 "/>
   <polygon class="fil15" points="4623,6795 4696,6795 4696,6722 4732,6722 4732,6686 4769,6686 4769,6613 4805,6613 4805,6577 4842,6577 4842,6540 4914,6540 4914,6504 4951,6504 4951,6467 5060,6467 5060,6504 5133,6504 5133,6431 5170,6431 5170,6394 5206,6394 5206,6358 5279,6358 5279,6321 5352,6321 5352,6285 5498,6285 5498,6249 5534,6249 5534,6212 5643,6212 5643,6139 5571,6139 5571,6176 5461,6176 5461,6212 5279,6212 5279,6249 5242,6249 5242,6285 5206,6285 5206,6321 5133,6321 5133,6358 4987,6358 4987,6394 4914,6394 4914,6431 4878,6431 4878,6467 4805,6467 4805,6504 4769,6504 4769,6577 4732,6577 4732,6613 4696,6613 4696,6649 4659,6649 4659,6722 4623,6722 "/>
   <polygon class="fil16" points="4149,9092 4149,8946 4185,8946 4185,8836 4149,8836 4149,8618 4113,8618 4113,8581 4076,8581 4076,8618 4003,8618 4003,9237 4076,9237 4076,9092 "/>
   <polygon class="fil17" points="4295,9711 4295,9821 4331,9821 4331,9930 4295,9930 4295,10003 4368,10003 4368,9966 4441,9966 4441,10039 4477,10039 4477,10003 4513,10003 4513,9529 4441,9529 4441,9493 4404,9493 4404,9602 4368,9602 4368,9638 4404,9638 4404,9675 4368,9675 4368,9711 "/>
   <polygon class="fil18" points="3456,10076 3493,10076 3493,10112 3456,10112 3456,10149 3420,10149 3420,10185 3384,10185 3384,10149 3311,10149 3311,10222 3274,10222 3274,10258 3201,10258 3201,10222 3165,10222 3165,10294 3201,10294 3201,10367 3238,10367 3238,10404 3274,10404 3274,10331 3311,10331 3311,10367 3347,10367 3347,10404 3384,10404 3384,10367 3493,10367 3493,10331 3456,10331 3456,10294 3493,10294 3493,10258 3456,10258 3456,10222 3712,10222 3712,10185 3602,10185 3602,10149 3675,10149 3675,10076 3566,10076 3566,10149 3529,10149 3529,10039 3493,10039 3493,9966 3456,9966 "/>
   <polygon class="fil19" points="18474,16527 18510,16527 18510,16272 18474,16272 18474,16236 18437,16236 18437,16272 18401,16272 18401,16236 18364,16236 18364,16309 18328,16309 18328,16272 18255,16272 18255,16309 18218,16309 18218,16345 18255,16345 18255,16381 18218,16381 18218,16418 18255,16418 18255,16454 18291,16454 18291,16527 18328,16527 18328,16673 18437,16673 18437,16454 18474,16454 "/>
   <polygon class="fil20" points="3748,8800 3712,8800 3712,8836 3639,8836 3639,8800 3566,8800 3566,8836 3529,8836 3529,8873 3566,8873 3566,8909 3493,8909 3493,8946 3456,8946 3456,9055 3493,9055 3493,9092 3529,9092 3529,9019 3602,9019 3602,9055 3639,9055 3639,9128 3712,9128 3712,9055 3748,9055 3748,8982 3784,8982 3784,8836 3821,8836 3821,8691 3748,8691 "/>
   <polygon class="fil18" points="2837,11242 2800,11242 2800,11279 2764,11279 2764,11315 2837,11315 2837,11388 2873,11388 2873,11424 2800,11424 2800,11388 2727,11388 2727,11461 2983,11461 2983,11424 3092,11424 3092,11497 3128,11497 3128,11570 3165,11570 3165,11461 3201,11461 3201,11497 3238,11497 3238,11570 3347,11570 3347,11534 3456,11534 3456,11497 3311,11497 3311,11461 3274,11461 3274,11424 3311,11424 3311,11388 3092,11388 3092,11351 2910,11351 2910,11315 2873,11315 2873,11242 2910,11242 2910,11206 2837,11206 "/>
   <polygon class="fil21" points="4404,13903 4331,13903 4331,14012 4295,14012 4295,14122 4331,14122 4331,14267 4222,14267 4222,14304 4331,14304 4331,14340 4295,14340 4295,14413 4222,14413 4222,14377 4185,14377 4185,14450 4222,14450 4222,14523 4258,14523 4258,14486 4331,14486 4331,14523 4441,14523 4441,14267 4404,14267 "/>
   <polygon class="fil22" points="18401,11825 18401,11971 18437,11971 18437,11898 18510,11898 18510,11971 18583,11971 18583,12080 18546,12080 18546,12117 18619,12117 18619,12080 18692,12080 18692,12044 18729,12044 18729,12117 18692,12117 18692,12153 18765,12153 18765,11935 18729,11935 18729,11971 18692,11971 18692,12008 18619,12008 18619,11679 18474,11679 18474,11825 "/>
   <polygon class="fil3" points="18364,14304 18364,14340 18401,14340 18401,14595 18474,14595 18474,14632 18510,14632 18510,14559 18546,14559 18546,14523 18619,14523 18619,14559 18656,14559 18656,14486 18510,14486 18510,14413 18546,14413 18546,14304 18583,14304 18583,14340 18619,14340 18619,14413 18656,14413 18656,14267 18619,14267 18619,14231 18546,14231 18546,14194 18510,14194 18510,14158 18474,14158 18474,14194 18437,14194 18437,14231 18474,14231 18474,14304 "/>
   <polygon class="fil23" points="4404,11169 4404,11096 4368,11096 4368,10914 4404,10914 4404,10659 4331,10659 4331,10950 4295,10950 4295,10987 4258,10987 4258,11096 4331,11096 4331,11497 4404,11497 4404,11461 4441,11461 4441,11315 4368,11315 4368,11169 "/>
   <polygon class="fil24" points="4659,16236 4659,16163 4550,16163 4550,15981 4441,15981 4441,16017 4477,16017 4477,16053 4404,16053 4404,16017 4368,16017 4368,15908 4331,15908 4331,15981 4295,15981 4295,16017 4331,16017 4331,16163 4404,16163 4404,16236 4586,16236 4586,16272 4623,16272 4623,16236 "/>
   <polygon class="fil25" points="18401,17366 18437,17366 18437,17001 18401,17001 18401,16965 18364,16965 18364,16928 18328,16928 18328,16892 18291,16892 18291,17001 18255,17001 18255,17183 18291,17183 18291,17220 18328,17220 18328,17256 18401,17256 "/>
   <polygon class="fil11" points="18073,16527 18073,16709 18146,16709 18146,16673 18182,16673 18182,16746 18146,16746 18146,16782 18109,16782 18109,16928 18146,16928 18146,16819 18255,16819 18255,16673 18218,16673 18218,16564 18182,16564 18182,16418 18146,16418 18146,16381 18073,16381 18073,16454 18109,16454 18109,16527 "/>
   <polygon class="fil18" points="2727,9784 2727,9748 2764,9748 2764,9711 2800,9711 2800,9748 2873,9748 2873,9711 2946,9711 2946,9675 3019,9675 3019,9638 2910,9638 2910,9565 2873,9565 2873,9529 2910,9529 2910,9493 2800,9493 2800,9602 2837,9602 2837,9638 2800,9638 2800,9675 2764,9675 2764,9565 2655,9565 2655,9529 2618,9529 2618,9602 2691,9602 2691,9711 2655,9711 2655,9748 2691,9748 2691,9784 "/>
   <polygon class="fil26" points="12095,19297 12095,19334 12131,19334 12131,19370 12241,19370 12241,19261 12350,19261 12350,19224 12387,19224 12387,19152 12277,19152 12277,19224 12204,19224 12204,19152 12241,19152 12241,19115 12168,19115 12168,19152 12131,19152 12131,19115 12059,19115 12059,19042 12022,19042 12022,19188 12131,19188 12131,19297 "/>
   <polygon class="fil27" points="16177,18824 15959,18824 15959,18896 15886,18896 15886,18860 15849,18860 15849,18824 15703,18824 15703,18969 15631,18969 15631,19006 15886,19006 15886,18933 15995,18933 15995,18860 16177,18860 "/>
   <polygon class="fil15" points="18364,10185 18437,10185 18437,10112 18510,10112 18510,10149 18546,10149 18546,10039 18510,10039 18510,9966 18474,9966 18474,9930 18437,9930 18437,9966 18364,9966 18364,9893 18401,9893 18401,9857 18364,9857 18364,9675 18328,9675 18328,10003 18364,10003 "/>
   <polygon class="fil28" points="5935,16892 5971,16892 5971,16928 5935,16928 5935,16965 5971,16965 5971,17001 6081,17001 6081,16965 6117,16965 6117,17074 6154,17074 6154,17110 6227,17110 6227,17074 6263,17074 6263,16965 6227,16965 6227,16928 6117,16928 6117,16855 5935,16855 "/>
   <polygon class="fil18" points="3602,10622 3493,10622 3493,10732 3420,10732 3420,10695 3384,10695 3384,10768 3347,10768 3347,10732 3274,10732 3274,10768 3201,10768 3201,10805 3311,10805 3311,10841 3420,10841 3420,10878 3493,10878 3493,10841 3456,10841 3456,10768 3566,10768 3566,10695 3675,10695 3675,10659 3639,10659 3639,10622 3675,10622 3675,10586 3602,10586 "/>
   <polygon class="fil29" points="18000,17074 18073,17074 18073,17110 18109,17110 18109,17038 18073,17038 18073,16892 18109,16892 18109,16782 18146,16782 18146,16746 18182,16746 18182,16673 18146,16673 18146,16709 18073,16709 18073,16600 18000,16600 18000,16746 18036,16746 18036,16892 18000,16892 "/>
   <polygon class="fil29" points="4222,8253 4222,8290 4185,8290 4185,8508 4149,8508 4149,8836 4222,8836 4222,8691 4258,8691 4258,8654 4222,8654 4222,8472 4258,8472 4258,8326 4295,8326 4295,8253 "/>
   <polygon class="fil18" points="2727,9784 2727,9857 2691,9857 2691,10076 2727,10076 2727,10003 2764,10003 2764,10076 2910,10076 2910,10003 2873,10003 2873,9930 2910,9930 2910,9821 2837,9821 2837,9966 2800,9966 2800,9930 2764,9930 2764,9893 2800,9893 2800,9821 2764,9821 2764,9784 "/>
   <polygon class="fil30" points="4295,16491 4331,16491 4331,16600 4368,16600 4368,16709 4404,16709 4404,16746 4477,16746 4477,16782 4586,16782 4586,16746 4550,16746 4550,16673 4513,16673 4513,16637 4477,16637 4477,16564 4404,16564 4404,16491 4368,16491 4368,16418 4331,16418 4331,16381 4258,16381 4258,16418 4295,16418 "/>
   <polygon class="fil11" points="18364,10185 18364,10294 18328,10294 18328,10367 18364,10367 18364,10440 18401,10440 18401,10404 18437,10404 18437,10367 18474,10367 18474,10404 18583,10404 18583,10440 18619,10440 18619,10550 18656,10550 18656,10586 18692,10586 18692,10477 18656,10477 18656,10331 18619,10331 18619,10367 18510,10367 18510,10331 18437,10331 18437,10294 18401,10294 18401,10222 18474,10222 18474,10112 18437,10112 18437,10185 "/>
   <polygon class="fil21" points="18583,15142 18546,15142 18546,15324 18474,15324 18474,15397 18546,15397 18546,15616 18619,15616 18619,15106 18583,15106 "/>
   <polygon class="fil31" points="11986,17949 12131,17949 12131,17985 12277,17985 12277,18022 12532,18022 12532,17985 12459,17985 12459,17949 12387,17949 12387,17912 12350,17912 12350,17949 12277,17949 12277,17912 12131,17912 12131,17876 12059,17876 12059,17839 12022,17839 12022,17876 11986,17876 "/>
   <polygon class="fil32" points="4003,10367 3967,10367 3967,10768 4076,10768 4076,10805 4113,10805 4113,10841 4185,10841 4185,10768 4149,10768 4149,10695 4040,10695 4040,10732 4003,10732 4003,10513 4040,10513 4040,10550 4113,10550 4113,10477 4076,10477 4076,10440 4003,10440 "/>
   <polygon class="fil33" points="18838,11607 18838,11351 18765,11351 18765,11315 18729,11315 18729,11279 18692,11279 18692,11607 18729,11607 18729,11570 18802,11570 18802,11607 "/>
   <polygon class="fil34" points="17890,7962 17890,7925 17927,7925 17927,7962 18000,7962 18000,7889 18036,7889 18036,7852 17963,7852 17963,7816 17927,7816 17927,7706 17781,7706 17781,7743 17817,7743 17817,7925 17854,7925 17854,7962 "/>
   <polygon class="fil28" points="15740,5957 15740,6030 15703,6030 15703,6176 15776,6176 15776,6139 15740,6139 15740,6103 15849,6103 15849,6066 15886,6066 15886,5993 16031,5993 16031,5957 15886,5957 15886,5920 15776,5920 15776,5957 "/>
   <polygon class="fil1" points="3238,13611 3311,13611 3311,13648 3347,13648 3347,13684 3311,13684 3311,13721 3238,13721 3238,13757 3384,13757 3384,13721 3456,13721 3456,13757 3529,13757 3529,13611 3384,13611 3384,13575 3238,13575 "/>
   <polygon class="fil35" points="2509,11570 2472,11570 2472,11752 2582,11752 2582,11716 2691,11716 2691,11643 2727,11643 2727,11607 2691,11607 2691,11570 2655,11570 2655,11534 2582,11534 2582,11643 2509,11643 "/>
   <polygon class="fil20" points="3019,9092 2946,9092 2946,9164 2800,9164 2800,9274 2910,9274 2910,9237 2983,9237 2983,9128 3019,9128 3019,9201 3092,9201 3092,9019 3019,9019 "/>
   <polygon class="fil22" points="18510,16272 18510,16199 18546,16199 18546,16090 18474,16090 18474,16053 18437,16053 18437,16017 18401,16017 18401,16053 18364,16053 18364,16090 18328,16090 18328,16163 18364,16163 18364,16199 18401,16199 18401,16272 18437,16272 18437,16236 18474,16236 18474,16272 "/>
   <polygon class="fil36" points="11111,18969 11147,18969 11147,19042 11184,19042 11184,19152 11330,19152 11330,19115 11293,19115 11293,19079 11257,19079 11257,19006 11220,19006 11220,18933 11184,18933 11184,18787 11111,18787 "/>
   <polygon class="fil37" points="17635,18131 17599,18131 17599,18167 17489,18167 17489,18204 17380,18204 17380,18240 17344,18240 17344,18277 17307,18277 17307,18350 17380,18350 17380,18313 17453,18313 17453,18277 17526,18277 17526,18240 17599,18240 17599,18204 17635,18204 17635,18167 17672,18167 17672,18131 17708,18131 17708,18095 17635,18095 "/>
   <polygon class="fil21" points="15230,5957 15302,5957 15302,5920 15448,5920 15448,6030 15485,6030 15485,5993 15703,5993 15703,5920 15521,5920 15521,5884 15230,5884 "/>
   <polygon class="fil38" points="14100,5848 14027,5848 14027,5920 13954,5920 13954,5957 13917,5957 13917,6030 13990,6030 13990,6066 14063,6066 14063,6030 14173,6030 14173,5993 14136,5993 14136,5920 14100,5920 "/>
   <polygon class="fil31" points="14610,18568 14610,18532 14646,18532 14646,18496 14537,18496 14537,18423 14464,18423 14464,18386 14428,18386 14428,18423 14318,18423 14318,18532 14537,18532 14537,18568 "/>
   <polygon class="fil31" points="15631,6285 15667,6285 15667,6321 15813,6321 15813,6285 15849,6285 15849,6321 15886,6321 15886,6358 15959,6358 15959,6285 15922,6285 15922,6249 15849,6249 15849,6212 15776,6212 15776,6249 15703,6249 15703,6176 15631,6176 15631,6212 15594,6212 15594,6249 15631,6249 "/>
   <polygon class="fil25" points="5352,16782 5352,16746 5170,16746 5170,16637 5133,16637 5133,16709 5060,16709 5060,16673 5024,16673 5024,16892 5060,16892 5060,16819 5097,16819 5097,16855 5170,16855 5170,16782 "/>
   <polygon class="fil39" points="8705,17110 9143,17110 9143,17147 9179,17147 9179,17074 9070,17074 9070,17038 8705,17038 "/>
   <polygon class="fil19" points="18802,13028 18838,13028 18838,12882 18802,12882 18802,12737 18838,12737 18838,12700 18765,12700 18765,12737 18692,12737 18692,12809 18656,12809 18656,12882 18692,12882 18692,12919 18802,12919 "/>
   <polygon class="fil18" points="3566,11679 3529,11679 3529,11643 3456,11643 3456,11752 3493,11752 3493,11789 3566,11789 3566,11825 3602,11825 3602,11679 3639,11679 3639,11752 3675,11752 3675,11607 3602,11607 3602,11570 3566,11570 "/>
   <polygon class="fil5" points="5097,17220 5097,17183 4987,17183 4987,17147 4951,17147 4951,17110 4878,17110 4878,17147 4914,17147 4914,17183 4842,17183 4842,17256 4951,17256 4951,17329 5060,17329 5060,17256 5024,17256 5024,17220 "/>
   <polygon class="fil19" points="18255,14923 18255,14996 18291,14996 18291,15069 18437,15069 18437,14996 18401,14996 18401,15033 18364,15033 18364,14960 18401,14960 18401,14887 18364,14887 18364,14814 18291,14814 18291,14923 "/>
   <polygon class="fil34" points="7867,6467 7867,6504 8086,6504 8086,6431 8231,6431 8231,6394 8195,6394 8195,6358 8122,6358 8122,6285 8049,6285 8049,6321 8086,6321 8086,6358 8049,6358 8049,6394 8013,6394 8013,6467 "/>
   <polygon class="fil40" points="9580,5957 9580,5993 9543,5993 9543,6030 9653,6030 9653,6066 9726,6066 9726,6030 9872,6030 9872,6066 9944,6066 9944,5993 9908,5993 9908,5957 9835,5957 9835,5993 9726,5993 9726,5957 "/>
   <polygon class="fil41" points="4769,17001 4769,16928 4696,16928 4696,16892 4659,16892 4659,16855 4550,16855 4550,17038 4659,17038 4659,17001 4696,17001 4696,16965 4732,16965 4732,17001 "/>
   <polygon class="fil42" points="18437,14595 18437,14668 18474,14668 18474,14705 18510,14705 18510,14668 18546,14668 18546,14705 18583,14705 18583,14741 18619,14741 18619,14668 18656,14668 18656,14559 18619,14559 18619,14523 18546,14523 18546,14559 18510,14559 18510,14632 18474,14632 18474,14595 "/>
   <polygon class="fil43" points="4040,9930 4149,9930 4149,9784 4113,9784 4113,9711 4040,9711 4040,9675 3967,9675 3967,9748 4003,9748 4003,9784 4040,9784 "/>
   <polygon class="fil43" points="3529,15908 3420,15908 3420,15944 3384,15944 3384,15981 3347,15981 3347,16017 3493,16017 3493,15981 3529,15981 3529,15944 3566,15944 3566,16017 3639,16017 3639,15871 3529,15871 "/>
   <polygon class="fil44" points="3930,11133 3930,11351 4003,11351 4003,11315 4149,11315 4149,11242 4076,11242 4076,11279 4040,11279 4040,11169 3967,11169 3967,11133 "/>
   <polygon class="fil25" points="17854,18532 17890,18532 17890,18496 18000,18496 18000,18459 17927,18459 17927,18423 17963,18423 17963,18350 17927,18350 17927,18313 17781,18313 17781,18350 17817,18350 17817,18459 17854,18459 "/>
   <polygon class="fil28" points="18401,12737 18437,12737 18437,12664 18510,12664 18510,12737 18546,12737 18546,12664 18583,12664 18583,12591 18546,12591 18546,12518 18510,12518 18510,12554 18474,12554 18474,12481 18437,12481 18437,12591 18401,12591 "/>
   <polygon class="fil23" points="4477,14632 4368,14632 4368,14595 4331,14595 4331,14668 4368,14668 4368,14923 4441,14923 4441,14705 4477,14705 "/>
   <polygon class="fil28" points="8742,6176 8815,6176 8815,6321 8960,6321 8960,6249 8887,6249 8887,6139 8851,6139 8851,6103 8742,6103 "/>
   <polygon class="fil45" points="4040,16709 4003,16709 4003,16782 4040,16782 4040,16746 4113,16746 4113,16819 4185,16819 4185,16746 4222,16746 4222,16673 4185,16673 4185,16637 4113,16637 4113,16673 4076,16673 4076,16637 4040,16637 "/>
   <polygon class="fil33" points="18656,14559 18692,14559 18692,14340 18656,14340 18656,14413 18619,14413 18619,14340 18583,14340 18583,14304 18546,14304 18546,14413 18510,14413 18510,14486 18656,14486 "/>
   <polygon class="fil43" points="2983,11023 3056,11023 3056,11133 3092,11133 3092,11169 3165,11169 3165,11206 3274,11206 3274,11133 3165,11133 3165,11096 3128,11096 3128,11060 3092,11060 3092,10987 3056,10987 3056,10950 2983,10950 "/>
   <polygon class="fil34" points="4441,11789 4441,11716 4295,11716 4295,12044 4368,12044 4368,11898 4331,11898 4331,11789 4368,11789 4368,11752 4404,11752 4404,11789 "/>
   <polygon class="fil23" points="4623,8326 4623,8217 4659,8217 4659,8107 4696,8107 4696,8035 4659,8035 4659,7962 4550,7962 4550,7998 4623,7998 4623,8071 4586,8071 4586,8326 "/>
   <polygon class="fil39" points="9799,6431 9799,6358 9653,6358 9653,6394 9616,6394 9616,6431 9543,6431 9543,6540 9616,6540 9616,6504 9653,6504 9653,6467 9689,6467 9689,6431 "/>
   <polygon class="fil46" points="4805,7451 4769,7451 4769,7488 4732,7488 4732,7524 4696,7524 4696,7634 4659,7634 4659,7706 4732,7706 4732,7670 4805,7670 "/>
   <polygon class="fil47" points="17599,7196 17526,7196 17526,7378 17599,7378 17599,7233 17672,7233 17672,7087 17599,7087 "/>
   <polygon class="fil48" points="18437,11388 18437,11424 18474,11424 18474,11461 18401,11461 18401,11570 18510,11570 18510,11424 18583,11424 18583,11315 18510,11315 18510,11388 "/>
   <polygon class="fil49" points="18036,8399 18036,8435 18073,8435 18073,8472 18109,8472 18109,8581 18146,8581 18146,8508 18182,8508 18182,8435 18218,8435 18218,8363 18146,8363 18146,8326 18109,8326 18109,8363 18073,8363 18073,8399 "/>
   <polygon class="fil50" points="4404,13830 4404,13757 4368,13757 4368,13538 4295,13538 4295,13794 4331,13794 4331,13830 "/>
   <polygon class="fil51" points="13043,5884 13043,5957 13225,5957 13225,5993 13261,5993 13261,6030 13334,6030 13334,5957 13261,5957 13261,5884 "/>
   <polygon class="fil37" points="8013,16892 8013,16965 8049,16965 8049,17001 8195,17001 8195,17038 8268,17038 8268,16928 8049,16928 8049,16892 "/>
   <polygon class="fil49" points="4258,16418 4258,16345 4295,16345 4295,16272 4149,16272 4149,16236 4113,16236 4113,16381 4222,16381 4222,16418 "/>
   <polygon class="fil52" points="3894,12846 3894,12809 3930,12809 3930,12737 3748,12737 3748,12846 3784,12846 3784,12882 3857,12882 3857,12846 "/>
   <polygon class="fil53" points="4258,8144 4295,8144 4295,8180 4331,8180 4331,8071 4404,8071 4404,7998 4331,7998 4331,7962 4295,7962 4295,7998 4258,7998 4258,8035 4222,8035 4222,8071 4258,8071 "/>
   <polygon class="fil33" points="17890,7087 17890,7050 17817,7050 17817,7014 17781,7014 17781,6978 17672,6978 17672,7050 17708,7050 17708,7087 17745,7087 17745,7123 17854,7123 17854,7087 "/>
   <polygon class="fil54" points="14027,18459 14027,18423 13990,18423 13990,18386 13845,18386 13845,18459 13881,18459 13881,18496 13917,18496 13917,18532 13990,18532 13990,18459 "/>
   <polygon class="fil55" points="15230,5920 15230,5884 15485,5884 15485,5848 15230,5848 15230,5811 15120,5811 15120,5848 15157,5848 15157,5920 "/>
   <polygon class="fil40" points="6846,17256 6883,17256 6883,17293 6992,17293 6992,17256 7065,17256 7065,17183 6956,17183 6956,17220 6883,17220 6883,17183 6810,17183 6810,17220 6846,17220 "/>
   <polygon class="fil21" points="12459,17584 12459,17694 12642,17694 12642,17621 12569,17621 12569,17584 "/>
   <polygon class="fil28" points="7138,17038 7320,17038 7320,16965 7247,16965 7247,16928 7138,16928 "/>
   <polygon class="fil18" points="3821,7962 3857,7962 3857,7998 3894,7998 3894,7962 3967,7962 3967,7889 3894,7889 3894,7816 3821,7816 "/>
   <polygon class="fil56" points="16104,6394 16177,6394 16177,6431 16214,6431 16214,6394 16250,6394 16250,6249 16214,6249 16214,6285 16177,6285 16177,6249 16141,6249 16141,6358 16104,6358 "/>
   <polygon class="fil50" points="18729,9565 18729,9493 18692,9493 18692,9347 18619,9347 18619,9529 18656,9529 18656,9565 "/>
   <polygon class="fil21" points="7867,17329 8049,17329 8049,17256 8086,17256 8086,17220 7976,17220 7976,17256 7867,17256 "/>
   <polygon class="fil31" points="10163,17657 10163,17584 10127,17584 10127,17548 10054,17548 10054,17511 9981,17511 9981,17621 10090,17621 10090,17657 "/>
   <polygon class="fil41" points="4076,9529 4076,9493 4040,9493 4040,9420 4003,9420 4003,9383 3967,9383 3967,9420 3894,9420 3894,9493 3930,9493 3930,9529 "/>
   <polygon class="fil38" points="18802,11169 18802,11096 18765,11096 18765,11060 18729,11060 18729,11023 18656,11023 18656,11169 "/>
   <polygon class="fil56" points="15120,6176 15120,6212 15375,6212 15375,6176 15230,6176 15230,6139 15266,6139 15266,6066 15193,6066 15193,6176 "/>
   <polygon class="fil57" points="12350,19261 12241,19261 12241,19370 12423,19370 12423,19334 12387,19334 12387,19297 12350,19297 "/>
   <polygon class="fil58" points="4368,10659 4404,10659 4404,10914 4441,10914 4441,10513 4404,10513 4404,10622 4368,10622 "/>
   <polygon class="fil39" points="12168,6212 12387,6212 12387,6139 12168,6139 "/>
   <polygon class="fil23" points="18146,18204 18218,18204 18218,18167 18255,18167 18255,18095 18291,18095 18291,18058 18328,18058 18328,17985 18255,17985 18255,18058 18218,18058 18218,18131 18146,18131 "/>
   <polygon class="fil11" points="13917,18386 13990,18386 13990,18423 14027,18423 14027,18350 13954,18350 13954,18240 13845,18240 13845,18313 13881,18313 13881,18350 13917,18350 "/>
   <polygon class="fil59" points="12970,17694 12824,17694 12824,17657 12751,17657 12751,17730 12824,17730 12824,17767 12970,17767 "/>
   <polygon class="fil36" points="12642,19370 12605,19370 12605,19443 12715,19443 12715,19480 12787,19480 12787,19407 12715,19407 12715,19334 12642,19334 "/>
   <polygon class="fil20" points="12350,19370 12350,19407 12532,19407 12532,19370 12496,19370 12496,19297 12423,19297 12423,19261 12350,19261 12350,19297 12387,19297 12387,19334 12423,19334 12423,19370 "/>
   <polygon class="fil60" points="4441,15507 4404,15507 4404,15470 4368,15470 4368,15543 4331,15543 4331,15580 4368,15580 4368,15652 4404,15652 4404,15725 4441,15725 "/>
   <polygon class="fil33" points="7357,6431 7429,6431 7429,6504 7502,6504 7502,6431 7466,6431 7466,6358 7393,6358 7393,6321 7357,6321 "/>
   <polygon class="fil61" points="5024,17183 5097,17183 5097,17220 5133,17220 5133,17074 5097,17074 5097,17038 5024,17038 5024,17110 5060,17110 5060,17147 5024,17147 "/>
   <polygon class="fil55" points="18729,10112 18765,10112 18765,9857 18729,9857 18729,9966 18583,9966 18583,10003 18729,10003 "/>
   <polygon class="fil50" points="18692,10550 18692,10586 18729,10586 18729,10732 18765,10732 18765,10695 18802,10695 18802,10550 18765,10550 18765,10513 18729,10513 18729,10550 "/>
   <polygon class="fil37" points="12496,6212 12678,6212 12678,6139 12496,6139 "/>
   <polygon class="fil62" points="17344,7050 17344,6941 17271,6941 17271,6905 17198,6905 17198,6978 17234,6978 17234,7014 17307,7014 17307,7050 "/>
   <polygon class="fil41" points="3748,15252 3784,15252 3784,15288 3894,15288 3894,15252 3857,15252 3857,15215 3821,15215 3821,15142 3748,15142 "/>
   <polygon class="fil50" points="4842,7378 4842,7342 4878,7342 4878,7160 4842,7160 4842,7233 4805,7233 4805,7342 4769,7342 4769,7378 "/>
   <polygon class="fil38" points="5643,6212 5643,6249 5571,6249 5571,6358 5643,6358 5643,6285 5716,6285 5716,6212 "/>
   <polygon class="fil32" points="4076,16199 4076,16090 4040,16090 4040,16053 4003,16053 4003,16163 3967,16163 3967,16236 4040,16236 4040,16199 "/>
   <polygon class="fil5" points="5971,18095 6044,18095 6044,18131 6117,18131 6117,18022 5971,18022 "/>
   <polygon class="fil39" points="15594,18386 15594,18459 15776,18459 15776,18386 "/>
   <polygon class="fil63" points="3930,11351 3930,11424 3967,11424 3967,11497 4003,11497 4003,11424 4040,11424 4040,11315 4003,11315 4003,11351 "/>
   <polygon class="fil39" points="9398,6504 9398,6431 9325,6431 9325,6394 9252,6394 9252,6467 9288,6467 9288,6504 "/>
   <polygon class="fil34" points="14318,5848 14209,5848 14209,5957 14318,5957 "/>
   <polygon class="fil64" points="18364,17694 18401,17694 18401,17584 18364,17584 18364,17548 18255,17548 18255,17621 18364,17621 "/>
   <polygon class="fil56" points="16906,6759 16906,6795 17052,6795 17052,6759 17089,6759 17089,6722 17052,6722 17052,6686 16979,6686 16979,6759 "/>
   <polygon class="fil26" points="12022,19261 12022,19188 11986,19188 11986,19115 11949,19115 11949,19152 11913,19152 11913,19261 "/>
   <polygon class="fil65" points="2910,10513 2983,10513 2983,10659 3019,10659 3019,10550 3092,10550 3092,10513 3019,10513 3019,10477 2910,10477 "/>
   <polygon class="fil57" points="10856,5957 10783,5957 10783,6030 10819,6030 10819,6066 10929,6066 10929,5993 10856,5993 "/>
   <polygon class="fil66" points="3639,11169 3748,11169 3748,11060 3639,11060 "/>
   <polygon class="fil40" points="16688,6212 16688,6285 16797,6285 16797,6321 16833,6321 16833,6212 "/>
   <polygon class="fil31" points="13298,18204 13334,18204 13334,18240 13444,18240 13444,18167 13371,18167 13371,18131 13298,18131 "/>
   <polygon class="fil23" points="4368,11716 4441,11716 4441,11643 4404,11643 4404,11607 4295,11607 4295,11679 4368,11679 "/>
   <polygon class="fil62" points="18401,14413 18401,14340 18364,14340 18364,14304 18291,14304 18291,14413 "/>
   <polygon class="fil64" points="18729,13757 18729,13648 18692,13648 18692,13684 18619,13684 18619,13721 18583,13721 18583,13757 "/>
   <polygon class="fil62" points="4113,9092 4113,9237 4185,9237 4185,9092 "/>
   <polygon class="fil67" points="18364,11060 18364,10987 18255,10987 18255,11096 18328,11096 18328,11060 "/>
   <polygon class="fil57" points="18401,17475 18401,17366 18291,17366 18291,17475 18328,17475 18328,17438 18364,17438 18364,17475 "/>
   <polygon class="fil37" points="8414,17329 8450,17329 8450,17366 8523,17366 8523,17293 8450,17293 8450,17256 8414,17256 8414,17220 8377,17220 8377,17293 8414,17293 "/>
   <polygon class="fil39" points="7903,6139 7830,6139 7830,6176 7794,6176 7794,6249 7867,6249 7867,6212 7940,6212 7940,6176 7903,6176 "/>
   <polygon class="fil28" points="6518,16928 6482,16928 6482,16965 6445,16965 6445,17001 6555,17001 6555,16965 6591,16965 6591,16892 6518,16892 "/>
   <polygon class="fil23" points="14173,18022 14027,18022 14027,18095 14173,18095 "/>
   <polygon class="fil56" points="9106,17402 9143,17402 9143,17438 9179,17438 9179,17329 9215,17329 9215,17293 9106,17293 "/>
   <polygon class="fil47" points="18218,9383 18255,9383 18255,9420 18328,9420 18328,9310 18218,9310 "/>
   <polygon class="fil42" points="4185,16126 4149,16126 4149,16199 4185,16199 4185,16163 4258,16163 4258,16053 4185,16053 "/>
   <polygon class="fil68" points="3529,12809 3566,12809 3566,12846 3639,12846 3639,12737 3529,12737 "/>
   <polygon class="fil57" points="12022,19188 12022,19261 12059,19261 12059,19297 12131,19297 12131,19188 "/>
   <polygon class="fil33" points="7685,16965 7648,16965 7648,17038 7721,17038 7721,17001 7757,17001 7757,16928 7685,16928 "/>
   <polygon class="fil34" points="18619,10732 18510,10732 18510,10805 18583,10805 18583,10768 18656,10768 18656,10695 18619,10695 "/>
   <polygon class="fil37" points="16760,6649 16760,6577 16724,6577 16724,6540 16651,6540 16651,6613 16688,6613 16688,6649 "/>
   <polygon class="fil62" points="17963,17220 17963,17293 18073,17293 18073,17220 18036,17220 18036,17183 18000,17183 18000,17220 "/>
   <polygon class="fil69" points="18291,7852 18291,7816 18255,7816 18255,7779 18182,7779 18182,7889 18255,7889 18255,7852 "/>
   <polygon class="fil70" points="18765,10222 18765,10112 18729,10112 18729,10149 18656,10149 18656,10222 "/>
   <polygon class="fil23" points="17635,6686 17489,6686 17489,6722 17526,6722 17526,6759 17635,6759 "/>
   <polygon class="fil39" points="10783,17730 10892,17730 10892,17657 10783,17657 "/>
   <polygon class="fil71" points="4368,16673 4368,16600 4331,16600 4331,16491 4295,16491 4295,16637 4331,16637 4331,16673 "/>
   <polygon class="fil72" points="3967,10950 4003,10950 4003,10878 3894,10878 3894,10841 3857,10841 3857,10914 3967,10914 "/>
   <polygon class="fil73" points="4076,11133 4076,11060 4040,11060 4040,11023 3967,11023 3967,11096 4040,11096 4040,11133 "/>
   <polygon class="fil39" points="7867,6467 7757,6467 7757,6540 7867,6540 "/>
   <polygon class="fil48" points="6628,6504 6737,6504 6737,6431 6628,6431 "/>
   <polygon class="fil69" points="13444,5848 13371,5848 13371,5957 13444,5957 "/>
   <polygon class="fil40" points="11257,5920 11147,5920 11147,5993 11257,5993 "/>
   <polygon class="fil63" points="4003,10367 4040,10367 4040,10294 4113,10294 4113,10222 4076,10222 4076,10258 4003,10258 "/>
   <polygon class="fil40" points="5899,16782 5789,16782 5789,16855 5899,16855 "/>
   <polygon class="fil28" points="4769,16782 4732,16782 4732,16819 4805,16819 4805,16855 4842,16855 4842,16746 4769,16746 "/>
   <polygon class="fil74" points="10272,18933 10382,18933 10382,18860 10272,18860 "/>
   <polygon class="fil50" points="4696,7889 4696,7779 4659,7779 4659,7816 4623,7816 4623,7852 4586,7852 4586,7889 "/>
   <polygon class="fil49" points="16615,6577 16651,6577 16651,6540 16688,6540 16688,6504 16651,6504 16651,6467 16578,6467 16578,6540 16615,6540 "/>
   <polygon class="fil69" points="4368,14523 4368,14632 4404,14632 4404,14559 4477,14559 4477,14486 4441,14486 4441,14523 "/>
   <polygon class="fil69" points="18510,14122 18583,14122 18583,14012 18510,14012 "/>
   <polygon class="fil75" points="4295,16454 4295,16418 4222,16418 4222,16381 4149,16381 4149,16454 "/>
   <polygon class="fil62" points="18218,9237 18291,9237 18291,9128 18218,9128 "/>
   <polygon class="fil40" points="8268,17329 8268,17256 8158,17256 8158,17293 8195,17293 8195,17329 "/>
   <polygon class="fil76" points="17963,17220 18000,17220 18000,17147 18036,17147 18036,17074 18000,17074 18000,17110 17963,17110 "/>
   <polygon class="fil77" points="4623,8326 4659,8326 4659,8253 4696,8253 4696,8180 4659,8180 4659,8217 4623,8217 "/>
   <polygon class="fil78" points="18000,7561 18036,7561 18036,7597 18073,7597 18073,7488 18000,7488 "/>
   <polygon class="fil59" points="14646,18167 14537,18167 14537,18204 14574,18204 14574,18240 14646,18240 "/>
   <polygon class="fil79" points="18036,16527 18109,16527 18109,16454 18000,16454 18000,16491 18036,16491 "/>
   <polygon class="fil49" points="18255,15543 18255,15507 18291,15507 18291,15543 18328,15543 18328,15470 18218,15470 18218,15543 "/>
   <polygon class="fil56" points="18364,17803 18364,17730 18291,17730 18291,17767 18255,17767 18255,17803 "/>
   <polygon class="fil72" points="18000,17402 18000,17475 18109,17475 18109,17438 18073,17438 18073,17402 "/>
   <polygon class="fil77" points="4404,12737 4404,12627 4368,12627 4368,12664 4331,12664 4331,12737 "/>
   <polygon class="fil56" points="6956,6577 7028,6577 7028,6504 6992,6504 6992,6467 6956,6467 "/>
   <polygon class="fil64" points="5461,16892 5461,16855 5352,16855 5352,16928 5425,16928 5425,16892 "/>
   <polygon class="fil58" points="5060,16600 5060,16564 4987,16564 4987,16491 4951,16491 4951,16600 "/>
   <polygon class="fil80" points="4404,11096 4404,10914 4368,10914 4368,11096 "/>
   <polygon class="fil34" points="17781,18167 17854,18167 17854,18095 17781,18095 "/>
   <polygon class="fil64" points="13043,17876 13116,17876 13116,17803 13043,17803 "/>
   <polygon class="fil40" points="8632,6066 8559,6066 8559,6139 8632,6139 "/>
   <polygon class="fil59" points="18401,17366 18401,17293 18328,17293 18328,17366 "/>
   <polygon class="fil31" points="14974,18678 14974,18605 14902,18605 14902,18678 "/>
   <polygon class="fil23" points="5534,16819 5461,16819 5461,16892 5534,16892 "/>
   <polygon class="fil60" points="5024,6905 4951,6905 4951,6978 5024,6978 "/>
   <polygon class="fil81" points="4040,14741 4040,14668 3967,14668 3967,14741 "/>
   <polygon class="fil75" points="17817,7852 17817,7743 17745,7743 17745,7779 17781,7779 17781,7852 "/>
   <polygon class="fil82" points="18255,18167 18291,18167 18291,18131 18328,18131 18328,18058 18291,18058 18291,18095 18255,18095 "/>
   <polygon class="fil78" points="4550,6868 4623,6868 4623,6759 4586,6759 4586,6832 4550,6832 "/>
   <polygon class="fil83" points="14938,18277 14938,18167 14865,18167 14865,18204 14902,18204 14902,18277 "/>
   <polygon class="fil61" points="18619,10878 18692,10878 18692,10805 18619,10805 "/>
   <polygon class="fil84" points="4477,14632 4477,14559 4404,14559 4404,14632 "/>
   <polygon class="fil62" points="13662,5848 13589,5848 13589,5920 13662,5920 "/>
   <polygon class="fil30" points="17817,17949 17890,17949 17890,17876 17817,17876 "/>
   <polygon class="fil50" points="18729,13903 18656,13903 18656,13976 18729,13976 "/>
   <polygon class="fil73" points="4076,11133 4076,11206 4149,11206 4149,11133 "/>
   <polygon class="fil34" points="4586,7050 4659,7050 4659,6978 4586,6978 "/>
   <polygon class="fil40" points="7575,6212 7502,6212 7502,6285 7575,6285 "/>
   <polygon class="fil23" points="18692,9164 18619,9164 18619,9237 18692,9237 "/>
   <polygon class="fil39" points="4404,10586 4404,10513 4331,10513 4331,10586 "/>
   <polygon class="fil56" points="4113,11315 4040,11315 4040,11388 4113,11388 "/>
   <polygon class="fil85" points="7721,6176 7648,6176 7648,6249 7721,6249 "/>
   <polygon class="fil42" points="4185,15981 4258,15981 4258,15908 4185,15908 "/>
   <polygon class="fil80" points="4404,11315 4404,11169 4368,11169 4368,11315 "/>
   <polygon class="fil78" points="13845,5993 13845,5957 13808,5957 13808,5920 13772,5920 13772,5993 "/>
   <polygon class="fil86" points="18546,15981 18546,15908 18510,15908 18510,15944 18474,15944 18474,15981 "/>
   <polygon class="fil56" points="17927,18167 17963,18167 17963,18131 18000,18131 18000,18095 17927,18095 "/>
   <polygon class="fil87" points="18000,16600 18073,16600 18073,16527 18036,16527 18036,16564 18000,16564 "/>
   <polygon class="fil88" points="4040,14741 4003,14741 4003,14814 4076,14814 4076,14778 4040,14778 "/>
   <polygon class="fil80" points="4404,11096 4404,11169 4441,11169 4441,11096 "/>
  </g>
 </g>
</svg>
