<?xml version="1.0" encoding="UTF-8"?>
<!DOCTYPE svg PUBLIC "-//W3C//DTD SVG 1.1//EN" "http://www.w3.org/Graphics/SVG/1.1/DTD/svg11.dtd">
<!-- Creator: CorelDRAW X8 -->
<svg xmlns="http://www.w3.org/2000/svg" xml:space="preserve" width="210mm" height="297mm" version="1.1" style="shape-rendering:geometricPrecision; text-rendering:geometricPrecision; image-rendering:optimizeQuality; fill-rule:evenodd; clip-rule:evenodd"
viewBox="0 0 21000 29700"
 xmlns:xlink="http://www.w3.org/1999/xlink">
 <defs>
  <style type="text/css">
   <![CDATA[
    .fil74 {fill:#0E1030}
    .fil71 {fill:#0E1449}
    .fil23 {fill:#261825}
    .fil52 {fill:#28181B}
    .fil67 {fill:#2B1C24}
    .fil81 {fill:#2B2635}
    .fil15 {fill:#2D232A}
    .fil58 {fill:#2F304F}
    .fil10 {fill:#332531}
    .fil60 {fill:#351B28}
    .fil8 {fill:#352933}
    .fil82 {fill:#36181B}
    .fil40 {fill:#3A242C}
    .fil41 {fill:#3B2433}
    .fil6 {fill:#3B2B34}
    .fil43 {fill:#3C2C3A}
    .fil4 {fill:#3D323B}
    .fil34 {fill:#422C34}
    .fil50 {fill:#432D3B}
    .fil5 {fill:#43333C}
    .fil7 {fill:#443442}
    .fil78 {fill:#45282A}
    .fil26 {fill:#47364A}
    .fil19 {fill:#4A343C}
    .fil11 {fill:#4B3443}
    .fil56 {fill:#4B3B44}
    .fil38 {fill:#4C3C4B}
    .fil54 {fill:#4C424C}
    .fil86 {fill:#4C4555}
    .fil18 {fill:#533C4B}
    .fil46 {fill:#53434C}
    .fil16 {fill:#544453}
    .fil20 {fill:#544B53}
    .fil14 {fill:#563C54}
    .fil73 {fill:#594A65}
    .fil9 {fill:#5B4454}
    .fil13 {fill:#5C4C5A}
    .fil27 {fill:#634C5C}
    .fil45 {fill:#63535C}
    .fil33 {fill:#645463}
    .fil30 {fill:#654857}
    .fil29 {fill:#664C64}
    .fil66 {fill:#68575A}
    .fil21 {fill:#6B5464}
    .fil35 {fill:#6C5B6B}
    .fil76 {fill:#6C6673}
    .fil47 {fill:#705772}
    .fil42 {fill:#735B6C}
    .fil70 {fill:#747089}
    .fil75 {fill:#755867}
    .fil85 {fill:#75656B}
    .fil36 {fill:#786776}
    .fil61 {fill:#846979}
    .fil64 {fill:#887886}
    .fil79 {fill:#8C8389}
    .fil62 {fill:#8D8696}
    .fil59 {fill:#947A88}
    .fil28 {fill:#95878A}
    .fil65 {fill:#978995}
    .fil57 {fill:#9B9399}
    .fil55 {fill:#A28778}
    .fil83 {fill:#A6989A}
    .fil68 {fill:#ABA4A8}
    .fil69 {fill:#B298A9}
    .fil80 {fill:#B6ABB5}
    .fil22 {fill:#B7A9A8}
    .fil72 {fill:#B8D1EB}
    .fil44 {fill:#BBB4B8}
    .fil63 {fill:#C5B5AB}
    .fil25 {fill:#C6B9B8}
    .fil17 {fill:#CBBCB4}
    .fil77 {fill:#CBCCD4}
    .fil39 {fill:#CCC3BA}
    .fil37 {fill:#D5CBC3}
    .fil3 {fill:#DACDC4}
    .fil49 {fill:#DACECB}
    .fil31 {fill:#E2D6D2}
    .fil24 {fill:#E2DDDA}
    .fil84 {fill:#E4D5DA}
    .fil2 {fill:#E5DED9}
    .fil32 {fill:#E9E2DE}
    .fil1 {fill:#EAE5E1}
    .fil53 {fill:#EBEAE5}
    .fil48 {fill:#EDEBE9}
    .fil51 {fill:#F0EDE9}
    .fil12 {fill:#FAFAFA}
    .fil0 {fill:#FEFEFE}
   ]]>
  </style>
 </defs>
 <g id="Ebene_x0020_1">
  <metadata id="CorelCorpID_0Corel-Layer"/>
  <g id="_1565600237152">
   <path class="fil0" d="M11805 5061l219 7 21 14c216,-19 416,53 612,2 0,1 -3,23 13,40 111,-39 283,14 428,15 77,0 168,-14 237,-6 61,7 93,24 170,18l433 5 548 19 441 -19c33,7 186,21 182,-23 136,-7 282,24 359,-32 40,19 5,37 142,32 259,-10 275,-39 408,31 112,-53 227,-31 359,-44l-24 0c121,-15 310,-25 429,-11l2 0 77 -9c30,76 -21,15 67,78 156,-40 237,21 406,22l898 40c378,84 165,69 305,131 5,5 11,11 15,14l134 166 56 17c32,211 70,172 63,283 -5,68 -11,243 17,268l6 126 -151 -36c-27,40 -41,57 -61,87 -26,5 -76,-76 44,215l28 48c54,106 -1,50 82,106l-2 48 16 48 46 42c-2,103 50,145 61,245l9 96 44 68 -29 51 41 104c7,87 -2,1 53,40 12,100 -18,50 56,96l2 91 38 99c1,2 5,7 8,10l17 127 -15 32c8,12 26,54 27,57 35,61 -2,20 45,50 10,68 12,60 -36,109 100,102 13,61 99,138l0 55 -37 18c75,71 70,171 122,254 60,95 29,2 47,96l-39 12c31,59 22,90 53,146l6 135c21,84 6,4 27,26 94,98 -10,463 -10,463 -6,49 3,132 2,190 -22,68 -29,158 -54,215 -30,72 -96,109 -96,201l-5 49 -19 71 -262 133c-106,65 -193,73 -286,131 -131,-24 -122,-19 -237,13 -170,49 -91,20 -242,1l-56 55 -33 -67c-315,82 -152,6 -281,31 -69,14 -10,17 -120,11 -267,-15 138,107 -321,-9 -218,-54 -257,50 -553,-55 -7,-4 -52,-62 -80,-76 -52,-28 -87,-11 -136,-73 -88,12 -84,4 -159,48l-70 55 -35 10c-49,-43 -109,-60 -181,-72 -48,-36 -300,-63 -398,-53 -299,44 -356,119 -712,100 -55,19 0,65 -155,18l-105 1c-102,6 -26,-6 -56,36 -139,-74 -294,-27 -459,-58l-385 3c-66,-15 -135,-42 -214,-34 -8,-1 -46,-4 -52,-5l-249 -15c-55,6 -62,20 -128,30 7,-50 -61,-32 -88,-33 -50,-7 -272,-26 -335,-25 -91,6 -131,21 -188,22 -52,1 -117,-16 -196,-17l-162 -5c-58,45 -2,10 -75,32l-75 -2c-106,-21 -90,10 -183,10 -62,0 -149,-11 -222,-6 -106,7 -286,12 -371,19 -73,-3 -100,-18 -136,-21 -54,-4 -82,13 -146,21l-161 10 -23 16c-102,-29 -55,17 -178,-5l-87 1 -48 -19 -46 25c-112,46 -439,-15 -600,95 -68,-68 -79,-46 -334,6 -121,25 -167,-27 -275,8 -250,82 -299,38 -581,54l-24 51c-35,-79 -80,-43 -415,-42 -98,0 -103,23 -149,33 -13,2 -129,-1 -161,-2l-437 22c-74,-11 -91,-36 -149,13 -129,21 -99,-1 -204,-39 -6,5 -15,4 -19,14 -19,50 -207,32 -244,31 -68,-14 -139,9 -216,6 -154,-4 -85,-26 -225,29 -32,-79 -96,-42 -145,-22l-61 -53c-172,93 -4,5 -200,43 -7,-33 20,-50 -66,-77 -17,-5 -108,-9 -132,-11 -22,-6 -221,35 -368,-84 -35,14 -60,26 -119,23 -134,-8 -21,-6 -113,-34 -88,-26 -22,5 -97,-6 -15,-2 -84,-30 -103,-34 -51,-9 -101,3 -141,-1 -78,-9 -14,-14 -108,-40 -24,-6 -503,-65 -700,-133 -137,-48 -316,-114 -462,-162 -9,-11 -228,-179 -236,-185l-140 -109 -65 -128c-170,-12 -160,-81 -316,-305 -54,-78 -10,-117 -79,-124l-52 -108 -85 -225c-22,-48 -33,-45 -50,-89 -22,-55 0,-60 -47,-106l-79 -392c-2,-101 2,-122 -45,-199l0 -47 -1 -174c-19,-28 -9,-38 -29,-58 60,0 -1,8 30,-40l-11 -3c39,-31 20,47 40,-75 6,-36 1,-85 1,-123 18,-80 12,-76 15,-169 1,-46 1,-132 5,-166 7,-103 44,-303 -40,-372 27,-56 62,-136 9,-185l0 -83c55,-15 11,-101 3,-151l-14 -72c60,-80 30,6 18,-98 -9,-77 -14,-29 1,-112l41 -29 -18 -67c8,-93 15,-95 72,-158 92,-86 0,-49 116,-179 3,-3 9,-10 11,-12 2,-2 8,-6 10,-13 1,-6 5,-8 8,-13 49,-14 75,-19 129,-43 131,-58 -99,48 35,-16 186,-89 238,-66 315,-123 88,0 487,-37 509,-83 177,31 894,-103 971,0 83,-21 73,-38 165,-34 243,8 257,-41 356,3 11,5 30,24 33,18 3,-5 12,6 18,9 113,-67 234,-28 383,-27 157,-20 271,23 384,-39 36,32 -32,16 70,30 0,0 69,1 73,1 52,-1 124,16 124,-28 94,8 158,19 260,9 103,-10 124,-24 229,-17 106,-7 125,22 201,-45l56 30c2,-5 10,8 17,14l27 -29c153,-13 297,-45 450,-73 154,-29 294,-22 447,-45l223 -6 134 -20c93,-9 272,19 321,9 64,-20 268,-24 316,-23 47,1 104,-4 165,-4 79,0 89,21 111,-20l79 31 151 -27 99 36c112,-16 230,-51 347,-50 124,1 244,14 376,-13l175 8c180,-13 360,-35 527,-26l465 -7 163 -4 114 17z"/>
   <path class="fil1" d="M11935 10535c63,8 106,0 180,-9 88,-9 112,-1 197,-9 -24,51 24,59 -27,42 301,30 220,7 238,-37 11,5 21,12 31,17 10,4 17,10 28,14 8,3 14,7 22,10 58,18 357,-19 422,-26 62,77 43,30 105,49 71,23 37,36 134,54 171,32 284,15 477,18 55,2 115,2 171,5 143,8 159,55 247,65 73,8 275,2 348,-13 113,-23 160,-109 257,-19 129,-79 102,-39 248,-31 134,7 143,-30 219,55l52 -69c246,26 194,21 225,79 90,-69 185,-35 384,-65 -65,0 -38,3 -92,-12l-46 -32c41,2 234,29 215,-26 230,-18 110,-7 215,66 115,-60 239,6 405,9 31,41 83,38 145,44 105,8 76,-10 193,17 72,-33 157,9 284,2l-159 104c-5,3 -12,5 -17,7l-61 35c-4,3 -10,8 -14,11 -129,82 -115,105 -118,98 -2,-4 -7,10 -11,15 -213,-4 -284,75 -414,158l-160 143c-135,-33 -75,3 -189,-4l29 -77 158 41c-40,-90 -53,-95 -172,-97 -50,51 -31,58 -90,100l-84 -64c-2,-8 -7,-10 -11,-15l-85 64c-3,-5 -11,8 -16,12 14,67 8,35 21,85 -81,-6 -29,24 -69,-32 -33,-46 -8,-6 -25,-72 -36,60 -8,22 -48,62 18,-116 19,-99 -18,-191 -151,20 -131,68 -202,185 -95,6 -123,6 -181,-18 -106,81 -19,47 -198,77 -39,7 -35,9 -89,16 -72,-98 -140,-21 -262,-37l-11 -62 -158 15c6,-124 -26,-63 3,-166 17,-58 35,-88 50,-173l-85 -145c16,94 18,193 18,269 -77,-67 -108,20 -119,28 81,20 4,-26 42,25l33 61c-39,-20 -30,-16 -62,-48 -73,107 68,0 -48,29 -35,8 -12,-3 -46,23 5,4 -1,52 85,40l65 -20c-23,144 -6,64 22,102 -6,3 -13,7 -17,8l-173 52c19,-53 32,-24 71,-89 -35,-22 36,-16 -78,-30 -26,-3 -52,2 -73,2 -87,-1 -50,10 -131,-28 -96,-43 -125,-65 -203,3 -159,-136 -115,114 -409,-26l-135 69c-60,-82 -18,-83 -79,-162 -3,5 -7,13 -8,15 -1,2 -6,11 -7,14l-24 -25c-217,0 -38,-20 -280,-81l-4 98 129 31c-49,25 -69,10 -129,13 -47,-98 -15,-45 -66,-88 2,112 -5,184 29,253l-39 -3 -23 60c-19,-33 -30,43 -3,-81 24,-112 27,60 25,-83 -2,-149 -103,0 -2,-224 -97,14 -97,23 -114,121 -3,-52 9,1 -35,-20 -13,-28 -18,-40 -23,-91l178 -32c93,-13 164,-49 254,-32 -5,-4 -12,-9 -15,-11 -3,-2 -11,-7 -15,-10 -5,-4 -25,-15 -31,-19 -22,-15 -38,-26 -60,-42l-40 36c-11,5 -15,39 -109,-34 12,-54 -15,9 19,-56l35 -44c-84,2 -57,4 -120,18l-18 38c-2,6 -10,33 -12,40 -12,36 -11,38 -24,67 -63,-9 -89,-7 -105,-63l91 -24c-48,-82 -29,-57 -124,-32l2 -91 -104 -23c-7,64 -3,20 -23,68 -9,20 -7,-5 -21,54 23,13 13,8 33,13 9,2 5,-3 36,6 -4,4 -11,8 -14,9l-143 121c-26,23 -28,20 -57,43 10,28 -28,31 38,57 -79,52 -39,46 -86,125l-39 -63c4,-2 11,-6 13,-8l44 -31c3,-8 11,-8 16,-12l-114 -21c62,-97 168,-130 176,-241 -82,44 -66,16 -113,95 -26,-116 9,-20 -99,-99 -4,5 -9,12 -11,15l-52 53c-84,11 -116,14 -175,-18 8,98 -10,16 24,105l65 -47c-78,108 -63,44 -151,102 -2,-104 -36,-21 48,-75l-31 -92c-5,5 -11,13 -14,17 -37,44 -9,71 -97,36 13,121 36,72 -21,142 -73,-145 71,112 -37,-46 -22,-32 -19,-10 -23,-66l12 -69c-4,-3 -10,-9 -14,-11 -47,-33 -154,-17 -84,85 21,31 -1,-3 29,23l32 21c-167,3 0,-14 -131,60 -38,22 -47,4 -132,10l-20 -127c-103,19 -43,6 -91,41 -35,25 -3,19 -55,30 -13,-109 3,-28 -28,-66 -159,-10 -43,-27 -171,-69l-48 149 95 -23 0 73 123 -17c3,1 9,4 12,5 3,0 9,5 11,6 3,1 9,5 12,6l92 21c-72,24 -127,20 -177,-9 24,59 8,40 66,66 -117,11 -146,-15 -242,-17 5,5 12,12 14,16 3,3 11,11 13,14l26 38c-104,-12 -7,-3 -76,-30l-37 -14c-8,-2 -18,-2 -24,-4 -7,-1 -48,-2 -56,-3 17,81 25,128 -16,197 -65,-10 -139,-29 -161,-86 124,77 133,9 162,-25 -67,-49 -34,14 -148,-73 -56,-44 -29,8 -70,-29 -19,-16 -27,-49 -40,-73l-53 53c-2,-4 -7,8 -10,13 -74,-22 -15,-33 -96,-19l-63 184 -28 56c-57,121 22,-29 -21,46l-86 -66c31,-32 24,-16 38,-76 -130,-130 -76,-32 -226,-84l5 58c-7,-2 -45,-11 -48,-11 -46,-1 -28,5 -51,17 25,25 -1,16 62,44 11,5 45,12 65,21 -66,24 -100,26 -157,49 40,-107 29,-94 -56,-140l-85 138c-11,-40 -8,-31 -24,-51 72,-10 26,0 66,-43l-1 -95c-136,-2 -129,-53 -339,-28l-48 -69 -24 76 -94 -17 -10 132 -187 5c3,-5 8,-12 9,-15 2,-2 8,-10 11,-13l19 -28c36,-89 -13,9 6,-79 18,-86 65,3 11,-135l-24 33c-3,3 -9,11 -11,14 -2,4 -12,18 -17,25 -2,-4 -20,-31 -24,-36l-144 40 -93 -22c-60,-19 -23,10 -54,-47l-29 91 -70 -51c-14,50 1,33 -25,59 -60,62 43,-65 -44,18 -75,72 43,103 -89,117 11,-24 134,-165 -98,-145 -127,11 -41,9 -73,32 18,9 16,6 37,9l95 27c-100,89 22,103 -91,92 23,-73 13,21 22,-42 10,-73 12,-21 -23,-61l-111 111c-3,-6 -14,-44 7,-63l-127 -25c-75,158 -18,58 -136,191 93,39 92,129 146,14l58 85 -73 94c5,3 13,7 16,9 3,2 12,7 16,9l42 30c-5,2 17,46 -50,5 -77,-47 -15,-85 -118,-102 39,77 25,17 43,90 -117,9 -82,-20 -130,-118l-47 77c-25,-56 -2,-108 20,-144 15,-23 6,4 28,-54l-144 -14 65 -75c18,-26 35,-63 45,-82 54,-14 43,-12 74,-42 -85,-42 -42,2 -113,-25 91,-54 69,3 93,-75 -119,-30 -175,56 -334,51l50 51c25,29 22,32 33,60 67,-15 22,17 71,-24 2,22 6,31 4,60 -5,52 -7,24 -17,43l-120 -143 -48 165c0,2 1,10 0,12l-120 -61c-6,3 -13,8 -17,11 -60,40 -48,50 -134,41l8 49c-120,-42 -120,-3 -170,100l-61 -45c-8,13 4,2 -24,30 -51,50 -2,-15 -57,54 -53,-38 -34,-13 -53,-86l-58 62 -129 -118 -70 55c26,54 58,63 130,84 -74,23 -24,17 -101,10l-37 121 75 46c-124,-6 -54,-7 -83,-27 -52,-38 58,6 -57,-40 -119,156 -39,51 -162,100l-168 86 -58 -39c-2,-8 -4,-35 -6,-43l-70 55c-56,-40 -41,-11 -101,-42l109 -70c-74,10 -105,18 -162,50 -80,44 -61,54 -100,114 -110,-84 15,37 -17,-119l-143 113c-12,-176 -54,-157 -67,-221 -2,-9 -8,-11 -12,-16 -53,29 -62,42 -120,69l-46 -70c-17,61 -2,45 -50,73 -50,-15 -56,-23 -95,-43l-23 61c0,-2 0,5 -1,8 -75,23 -10,12 -93,19 35,-42 26,-76 -3,-113l-84 108c-88,11 -62,19 -132,-11 -19,-9 -73,-37 -91,-48 29,-99 27,-24 67,-126 -90,29 -87,45 -161,-11 48,-41 27,-28 47,-74 43,54 36,-67 36,62 -10,-106 -4,-58 65,-89 31,49 43,88 81,136l-33 -77c8,2 40,15 48,16 7,2 14,5 21,6l89 -18c167,-54 -97,14 47,-12 27,26 34,4 48,51 92,3 9,20 95,-19l16 95 54 -29c5,-2 46,-5 52,-6 -2,-8 -30,29 5,-16 50,-65 48,-14 65,-128l-127 -46c-103,-33 -51,-48 -160,-35l-48 -82c-122,30 -204,-25 -297,-51l-14 44c-43,-42 -68,-50 -60,-127 59,13 2,4 84,35 -11,-65 -7,-38 -23,-103 104,85 66,69 234,97 -70,-159 175,-126 200,-115 -34,84 46,-30 -17,30 -2,2 -8,6 -11,8 -2,2 -9,2 -11,4 -33,21 -11,-30 -30,38l79 1 12 -104c106,-14 28,11 66,-31l118 25c4,-2 10,-6 15,-8l112 -13c-3,7 -14,31 -16,37l-7 81c54,-60 40,-46 240,23 -22,71 -13,47 -74,76 54,32 33,40 87,-3 69,-55 7,-95 167,-53 16,-36 28,-90 48,-156 48,9 126,20 129,23 36,-75 6,-50 -17,-115l26 51 85 -42c51,103 -6,48 58,76 2,1 99,3 38,49 70,35 -88,68 85,13 17,-6 37,-37 48,-50 70,36 41,49 136,5 15,115 -29,-43 126,175 -1,-91 -8,-15 8,-72l29 -39c31,5 -38,14 47,4l136 -33c-28,-96 -21,-32 -17,-126 103,15 67,0 148,-13 77,-12 93,11 164,12l647 -30c96,-3 174,-66 286,3l58 -32c2,-8 9,-9 14,-13 151,8 157,22 289,9 347,-32 176,13 605,-56 279,-45 138,-1 257,10 87,7 206,-54 282,-53 237,4 81,3 251,-34 53,-12 71,14 135,9 84,-8 35,-34 114,-34 67,0 18,19 132,-5 89,-18 75,-19 161,-1 31,-22 44,-31 72,-53 78,25 98,54 197,27 100,-28 55,6 167,-11l162 -47 239 -18c90,31 119,8 206,-21 116,-34 109,-19 236,11z"/>
   <path class="fil2" d="M2294 7231c31,36 12,0 34,55 2,6 4,42 4,50l-53 13 -73 -220c-121,19 -19,-13 -101,33 35,-43 55,18 22,-59 -21,-48 -99,-37 -114,-35 -45,5 -36,5 -75,25 53,35 -73,34 100,25 -32,165 50,-26 55,194l-116 48 17 126c60,-25 44,-37 70,-58 16,-12 28,-15 53,-21 35,68 -20,45 82,76 -11,65 -6,22 -17,93 113,-34 40,-12 129,5l-4 66 -30 36c10,70 17,72 35,135l-66 92c6,22 38,110 38,111 2,11 -26,129 33,354 -8,41 -12,52 -23,86 32,30 34,29 48,69l24 62c-119,-3 -34,-12 -96,8 -36,11 -21,16 -38,29 80,63 25,10 70,100l99 -14c-18,90 8,3 -75,106l103 80c3,-6 12,9 17,13l47 21c0,1 45,143 46,145 34,75 42,15 69,126 16,61 6,67 47,124l104 114 -2 91c-32,90 9,91 -103,94l79 244c88,37 10,22 77,-20l70 -26c-24,-68 -36,-53 -6,-110 40,20 20,-15 46,43 15,34 4,50 5,58l67 120 -34 101 -61 -8 7 130c-63,-90 1,-61 -147,-71l63 130c-53,12 -76,23 -85,72 -6,33 42,43 93,86l-61 41c0,0 4,3 4,4 -7,36 18,25 -24,45l57 26 87 -42c5,1 13,0 17,0l48 46c40,-87 -23,6 55,-67 21,90 56,95 60,160 5,83 -40,93 -32,181l101 -4 48 84c22,-16 29,-17 71,-37 75,49 27,65 143,20l-1 118c119,63 52,49 187,20 29,29 40,19 188,46l10 -3c44,44 -2,5 49,34l56 34c67,52 49,27 53,93 -96,50 -52,-31 -135,63 64,16 51,-19 119,-17 72,3 17,38 147,-2 40,50 29,59 114,61 -61,-74 -44,-11 -41,-137l106 50 83 -87 85 84c-52,116 -11,29 -71,96l9 48c-66,32 -50,-54 -56,39 -82,-9 -20,-10 -123,-21 -41,38 -44,35 -84,87 -216,-51 -196,-179 -479,-92 -9,-10 -50,-52 -51,-53l-44 -90 -39 96c-38,-76 -38,-28 -111,-102l-59 -84 -249 -28c-54,-71 -71,-110 -144,-83 0,-154 36,-6 -70,-124 -3,-3 -9,-7 -11,-15 -2,-9 -8,-12 -12,-17 -4,4 -11,11 -14,13 -2,2 -10,9 -13,11l-38 -141 -118 -4c21,-32 17,-4 14,-59 -10,-198 11,-52 24,-133 2,-11 8,-13 11,-20 -115,0 -65,8 -122,-47 -80,-77 -124,-154 -184,-272l139 13c-51,-110 -54,-2 -109,-92 -50,18 -30,6 -61,39 -9,-84 8,-32 -31,-90l-53 -65c-58,-83 -21,-70 -57,-151 22,-27 7,-6 29,-32 9,-10 20,-7 26,-33 2,-11 9,-13 14,-20 -135,14 -113,35 -152,-78 -26,-75 -44,-93 -63,-153 -20,-62 -10,-39 -40,-83 -41,-61 -41,-134 -15,-227 -117,3 -56,10 -144,-28l-61 -146c-32,-68 -21,-63 -2,-134 -35,-59 6,-16 -63,-72 2,-8 11,-32 13,-38 1,-5 3,-13 4,-17l-5 -56c117,43 -95,-46 37,19 16,8 -4,6 56,23 -59,-199 -54,-71 -68,-204l-29 28c-56,31 -87,-295 -90,-331 -29,-384 -31,-245 24,-462 -113,-78 -105,-34 -75,-216 -108,45 -53,-6 -111,92 -15,-58 -33,-32 20,-94 -80,7 -94,11 -153,24l0 -152c71,37 102,25 199,28 -26,-35 18,-14 -52,-62 -69,-47 -29,35 -112,-44 55,-80 27,-4 74,-77 39,-60 -65,8 64,-61l-22 -164c16,-2 45,-8 61,-13 79,-25 43,-111 13,-164 163,-194 14,-33 92,-181 100,-191 103,-249 191,-224 -22,-109 -20,-82 50,-139 119,-96 182,-234 310,-271 -19,95 -42,79 -43,173 -1,53 13,132 11,211 28,31 -66,-39 12,5l29 19c-97,230 22,151 7,301l-2 32c-11,80 2,40 -50,72 5,4 13,9 16,12 2,2 11,8 14,11 2,3 9,8 11,12 28,44 6,82 13,164 9,103 64,137 24,189l16 -59z"/>
   <path class="fil3" d="M3160 10079c61,18 -1,-21 63,50 71,79 77,56 120,70 46,16 48,25 52,29 -39,71 0,20 -85,82 63,18 25,-6 81,27 48,28 -11,-20 35,41 18,217 -5,-13 -29,121 -1,-14 -74,31 11,-27l37 -10c78,-4 27,-4 100,22 47,204 20,163 -35,245 100,-3 37,-10 109,18l-6 -17c0,0 -72,-89 52,-90 41,-1 44,-13 57,63 8,-1 52,-9 62,-11 68,-17 5,5 50,-20 55,42 16,62 119,30 65,-20 67,-42 81,-94 -3,57 -8,2 34,18l101 -22c28,18 71,50 76,53l189 104c-5,4 -12,9 -15,11 -3,3 -11,8 -15,11 -3,3 -11,8 -14,11 -43,39 2,-22 -28,39 113,48 65,21 101,120l11 24 152 11c27,-36 17,-52 103,-78 92,-28 82,7 163,3l1 -80c70,-41 10,-25 72,-46 10,-3 39,-3 46,-4l28 -3c163,-7 57,62 200,5 -140,-179 -35,93 -128,-108 257,30 150,19 197,-7l34 68c131,-63 1,-29 145,37l47 -28c75,28 155,66 239,47 60,-14 26,4 57,-34 32,57 19,53 87,65l241 19 17 42c72,-24 50,-27 133,-22 23,65 53,40 17,115 -3,-3 -81,-14 -129,-23 -20,66 -32,120 -48,156 -160,-42 -98,-2 -167,53 -54,43 -33,35 -87,3 61,-29 52,-5 74,-76 -200,-69 -186,-83 -240,-23l7 -81c2,-6 13,-30 16,-37l-112 13c-5,2 -11,6 -15,8l-118 -25c-38,42 40,17 -66,31l-12 104 -79 -1c19,-68 -3,-17 30,-38 2,-2 9,-2 11,-4 3,-2 9,-6 11,-8 63,-60 -17,54 17,-30 -25,-11 -270,-44 -200,115 -168,-28 -130,-12 -234,-97 16,65 12,38 23,103 -82,-31 -25,-22 -84,-35 -8,77 17,85 60,127l14 -44c93,26 175,81 297,51l48 82c109,-13 57,2 160,35l127 46c-17,114 -15,63 -65,128 -35,45 -7,8 -5,16 -6,1 -47,4 -52,6l-54 29 -16 -95c-86,39 -3,22 -95,19 -14,-47 -21,-25 -48,-51 -144,26 120,-42 -47,12l-89 18c-7,-1 -14,-4 -21,-6 -8,-1 -40,-14 -48,-16l33 77c-38,-48 -50,-87 -81,-136 -69,31 -75,-17 -65,89 0,-129 7,-8 -36,-62l-26 -32c-98,-154 -32,54 -217,-89l-49 82c-88,-29 -196,-40 -294,-18l6 -19 -9 -48c60,-67 19,20 71,-96l-85 -84 -83 87 -106 -50c-3,126 -20,63 41,137 -85,-2 -74,-11 -114,-61 -130,40 -75,5 -147,2 -68,-2 -55,33 -119,17 83,-94 39,-13 135,-63 -4,-66 14,-41 -53,-93l-56 -34c-51,-29 -5,10 -49,-34l164 -22 -75 -83c-4,-3 -12,-9 -17,-14 -49,61 -25,45 -99,80l17 42c-148,-27 -159,-17 -188,-46 -135,29 -68,43 -187,-20l1 -118c-116,45 -68,29 -143,-20 -42,20 -49,21 -71,37l-48 -84 -101 4c-8,-88 37,-98 32,-181 -4,-65 -39,-70 -60,-160 -78,73 -15,-20 -55,67l-48 -46c-4,0 -12,1 -17,0l-87 42 -57 -26c42,-20 17,-9 24,-45 0,-1 -4,-4 -4,-4l61 -41c-51,-43 -99,-53 -93,-86 9,-49 32,-60 85,-72l-63 -130c148,10 84,-19 147,71l-7 -130 61 8 161 91 41 -51z"/>
   <path class="fil4" d="M10743 10322l14 90 150 -16c63,200 -4,-72 69,95 6,5 26,28 31,34 5,6 21,29 26,35 18,21 48,43 59,50 -112,17 -67,-17 -167,11 -99,27 -119,-2 -197,-27 -28,22 -41,31 -72,53 -86,-18 -72,-17 -161,1 -114,24 -65,5 -132,5 -79,0 -30,26 -114,34 -64,5 -82,-21 -135,-9 -170,37 -14,38 -251,34 -76,-1 -195,60 -282,53 -119,-11 22,-55 -257,-10 -429,69 -258,24 -605,56 -132,13 -138,-1 -289,-9 -5,4 -12,5 -14,13l-58 32c-112,-69 -190,-6 -286,-3l-647 30c-71,-1 -87,-24 -164,-12 -81,13 -45,28 -148,13 -163,15 -307,12 -466,17 30,-105 79,-97 120,-131 -4,-43 17,-11 -22,-72l57 -95c-226,101 -72,64 -111,139 -22,43 -72,16 -128,4 54,172 49,33 0,142l24 8 -110 62c-64,-28 -7,27 -58,-76l-85 42 -26 -51c-24,-38 -34,-53 -56,-85l-48 92 -46 -27 -241 -19 95 -160c8,-1 66,-10 74,-11 94,-3 6,-5 69,12l-32 -90c196,-38 28,50 200,-43l61 53c29,38 18,30 52,62l46 34c3,-5 12,7 18,11l-55 -122 84 37c140,-55 71,-33 225,-29 77,3 148,-20 216,-6 57,33 42,74 210,3 -6,59 -34,82 43,124 12,6 22,2 109,20 28,-123 2,-86 105,-153 58,-49 75,-24 149,-13l437 -22c32,1 148,4 161,2 46,-10 51,-33 149,-33 335,-1 380,-37 415,42l24 -51c282,-16 331,28 581,-54 108,-35 154,17 275,-8 255,-52 266,-74 334,-6 161,-110 488,-49 600,-95l70 -20c-28,112 -54,70 25,88l-1 -74 87 -1z"/>
   <path class="fil5" d="M19407 7805c-38,46 -57,-74 -26,91l55 -33c36,113 131,336 123,462 -75,37 -59,8 -97,101l126 -28 59 111c-3,230 31,135 86,375 18,79 33,75 17,270 11,148 -14,158 -45,289l48 -5c-27,78 -53,160 -72,222 -16,50 -18,212 -62,224l-46 39 -57 -65c122,26 43,27 73,-31 -19,-93 9,-62 -74,-55 -3,-35 5,-19 -50,-17l56 -200c-119,30 -42,-20 -100,56 1,-58 -8,-141 -2,-190 0,0 104,-365 10,-463 -21,-22 -6,58 -27,-26l-6 -135 54 4c39,-71 19,-34 27,-137 9,139 11,24 -48,72 -16,-122 -1,-63 -47,-97 -18,-94 13,-1 -47,-96 -52,-83 -47,-183 -122,-254l37 -18 89 36c-95,-161 36,-111 -89,-139l0 48c-86,-77 1,-36 -99,-138 48,-49 46,-41 36,-109l42 -35c-61,-82 -51,-18 -50,-147 -16,85 -9,9 -49,43l-17 -127 52 -5c-2,-4 -7,-11 -9,-15 -21,-50 26,-30 -29,-111l-60 22 -2 -91 50 12c-72,-65 -27,-63 -53,-156 -28,-16 34,-42 -47,0 -13,-139 44,-44 -100,-96l29 -51 -44 -68 -9 -96 54 26c3,-6 13,7 17,13 31,-51 19,-9 31,-87 38,30 25,30 41,96 95,23 7,123 88,23 21,-28 16,-72 16,-94 1,-42 -84,-16 9,-37 33,22 23,-14 58,83 13,37 24,77 33,114 38,155 -21,89 55,205 51,78 93,311 114,415z"/>
   <path class="fil6" d="M5925 10488c27,47 33,29 -8,129 75,6 85,32 123,12 48,-26 -11,-36 83,-53l32 90c-63,-17 25,-15 -69,-12 -8,1 -66,10 -74,11l-95 160c-68,-12 -55,-8 -87,-65 -22,-26 -14,-13 -35,-43 -33,-48 -8,-50 -94,-104l-17 32c-3,5 -9,13 -13,19l-36 41c-48,-78 -89,-19 -101,42l-47 28c-144,-66 -14,-100 -145,-37l-34 -68c-47,26 60,37 -197,7l-76 -62c-86,12 -41,-15 -75,53l-27 -25c-50,-24 -6,-11 -94,-3l-56 -1 -9 -39 -58 17c-22,-48 4,-40 -79,-57 -104,-22 -66,11 -78,45l-79 -6 -27 -49 -189 -32 1 -43c-60,-58 74,-49 -69,-49 106,10 27,18 91,-48 -118,5 -15,-13 -117,-27 -83,-12 -39,23 -112,-27l-23 54c2,1 6,1 6,2 1,0 7,1 8,1 65,29 49,51 54,42 5,-7 12,17 18,26l-103 -30c-99,20 -467,-106 -492,-121l-91 -79c2,-54 64,-109 113,-134l166 -68c146,48 325,114 462,162 197,68 676,127 700,133 94,26 30,31 108,40 40,4 90,-8 141,1 19,4 88,32 103,34 75,11 9,-20 97,6 92,28 -21,26 113,34 59,3 84,-9 119,-23 147,119 346,78 368,84z"/>
   <path class="fil5" d="M17694 4808c171,-12 64,46 215,39 49,-2 111,-19 181,-23 13,13 -5,20 48,36 65,19 13,19 52,-17 111,-23 44,-13 94,6l-18 109c-66,-45 -123,-57 -261,-66 75,86 -96,72 95,72l-45 40c-44,57 -1,-58 -4,10l138 -40c135,50 168,17 295,14l6 -68c0,-5 -6,-10 -6,-21 0,-12 -6,-14 -9,-21l58 7 70 7c-15,80 -23,41 11,111 26,-47 11,-54 89,2l81 72c2,-5 9,9 14,14 -103,1 -63,-31 -147,-7l192 116 -96 75c62,35 -8,-4 96,28l-120 -5 57 127c-113,-18 -75,3 -116,-39 -3,-2 -8,-10 -13,-15l-114 0c-140,-62 73,-47 -305,-131l-898 -40c-169,-1 -250,-62 -406,-22 -88,-63 -37,-2 -67,-78l-77 9c83,-77 45,-53 147,-63 -93,-11 -96,5 -138,-89 -7,-15 -22,-57 -33,-80l126 6 74 18 -9 38c16,79 21,41 -1,99 75,-60 130,-23 140,-43 5,-8 15,-4 26,-10l-44 -73c44,-5 44,42 75,-8 10,-15 13,-24 19,-39l-147 32c29,-31 -11,-11 52,-21 36,-6 45,-1 97,-11l33 -54c93,62 37,56 34,76 0,5 -17,45 -20,53 86,-21 68,-22 142,-21 31,103 -8,9 43,77 28,38 20,24 37,57l45 -52c2,-7 7,-9 11,-13l-86 -48c123,-27 116,32 170,74 42,32 13,18 61,12 -57,-39 -26,-20 -56,-66l217 -44c-59,-69 30,-37 -105,-34l0 -74z"/>
   <path class="fil7" d="M19463 9989l-11 77 88 48 15 25c-56,87 6,33 -55,72 -35,-65 56,23 -59,-74l-76 54c-15,10 -21,13 -41,19 -47,15 -13,-3 -19,-6 15,69 10,43 99,57l-22 47 20 73c-152,42 -24,27 -114,79l-379 143 -522 95c-139,0 -65,0 -186,45l-124 -31c-98,-13 -85,-47 -85,-47 78,-70 -77,-38 107,-48 -7,-6 -18,-22 -21,-17 -2,4 -14,-13 -17,-18l-20 -40c-2,-4 -3,-13 -4,-20 -4,8 -8,11 -11,23l-45 70c-40,25 -96,20 -104,-71l8 -46c27,-8 -49,-73 144,23 69,-27 77,-27 135,-41l56 -55c151,19 72,48 242,-1 115,-32 106,-37 237,-13 93,-58 180,-66 286,-131l262 -133c72,13 64,1 96,-11l-77 -60 5 -49 27 -80c233,69 -21,123 135,9l30 33z"/>
   <path class="fil4" d="M16856 10391c296,105 335,1 553,55 459,116 54,-6 321,9 110,6 51,3 120,-11 129,-25 -34,51 281,-31l33 67c-58,14 -66,14 -135,41 -193,-96 -117,-31 -144,-23l-8 46c8,91 64,96 104,71l45 -70c3,-12 7,-15 11,-23 1,7 2,16 4,20l20 40c3,5 15,22 17,18 3,-5 14,11 21,17 -184,10 -29,-22 -107,48 0,0 -13,34 85,47l-63 38c-205,-54 -219,-2 -390,-22 -162,-20 -244,9 -412,5 -127,7 -212,-35 -284,-2 -117,-27 -88,-9 -193,-17 -62,-6 -114,-3 -145,-44l60 -48c2,-6 9,-3 13,-5 -17,-13 -9,-26 -50,-30 -65,-7 -59,38 -126,50 79,-120 116,12 51,-166 7,4 17,7 22,10l77 40c7,-188 -8,-7 53,-148l166 18z"/>
   <path class="fil8" d="M19132 6156c25,76 39,89 59,139 80,193 22,266 85,413l-60 77c-16,-119 -15,-39 -34,-72 -9,162 7,53 -52,95 -6,-6 -15,-24 -18,-20 -3,5 -13,-14 -16,-19l-38 -72 -61 75 79 110c-84,1 -60,24 -83,118 -12,78 0,36 -31,87 -4,-6 -14,-19 -17,-13l-54 -26c-11,-100 -63,-142 -61,-245l0 -80c71,15 46,6 85,40 40,34 -12,19 45,41 15,-32 12,-5 13,-57 0,-22 -5,-37 -5,-86l-29 21c-56,29 18,10 -21,7 -94,-165 26,-32 -75,-198 -41,53 -34,63 -44,126 29,-39 4,-17 0,-8 0,1 -4,7 -4,9 -13,49 12,44 -27,95l2 -48c-83,-56 -28,0 -82,-106l-28 -48c-120,-291 -70,-210 -44,-215l126 81c-11,53 -23,30 3,101l131 2c-30,-61 -19,-21 -60,-61 -120,-115 -34,-55 -36,-70 -1,-11 -3,-15 -5,-22l100 66c6,-60 -6,-101 -5,-121 3,-86 8,-2 34,-134 -60,-16 -19,6 -82,-19 -28,-25 -22,-200 -17,-268 7,-111 -31,-72 -63,-283l-56 -17c60,-73 -124,-51 53,-51 23,-24 47,-33 83,-40l-22 50c171,-45 -90,129 150,18 -36,33 -27,8 -30,51 0,0 18,71 -7,151 92,50 75,19 75,159l18 96c-75,-20 -21,-30 -57,33 52,45 -80,22 62,39 -22,6 -9,-9 -16,27 -24,120 -1,86 23,113 62,-13 33,20 41,-62l73 21z"/>
   <path class="fil9" d="M16042 10394c-62,52 78,64 -72,40 -48,60 -38,11 -48,64l20 -4 -21 73c-14,-4 -39,-11 -50,-16l-31 -18c-79,-42 -26,-33 -106,-31 -144,4 -28,42 -211,47 8,3 18,3 21,15 4,14 18,15 22,19 4,5 13,17 21,24l-597 -3 -20 -69c-118,-1 -35,4 -66,-29 -87,38 -36,37 -137,31l29 55 -198 8c-30,-132 -28,-94 -165,-74 -7,1 -12,-1 -19,0 -115,18 -6,-27 -143,43 44,-87 8,-43 63,-106 -201,73 -49,24 -108,-37l29 -30c19,-23 37,-46 55,-69 165,31 320,-16 459,58 30,-42 -46,-30 56,-36l-6 118c169,5 112,-7 148,-49 -29,-13 -16,-2 -37,-70 155,47 100,1 155,-18 356,19 413,-56 712,-100l0 45c9,-8 -55,-32 26,-11 39,10 17,33 54,90 73,0 165,-26 165,40z"/>
   <path class="fil10" d="M2878 9166c69,7 25,46 79,124 156,224 146,293 316,305l65 128c-29,86 8,37 -49,88l111 16 4 118c100,-50 -10,-6 74,-113 8,6 227,174 236,185l-166 68c-49,25 -111,80 -113,134l-40 9c-4,-4 -6,-13 -52,-29 -43,-14 -49,9 -120,-70 -64,-71 -2,-32 -63,-50l-25 -108c-8,-2 -23,0 -71,9 -7,-66 -9,-91 -139,-162 -1,-8 10,-24 -5,-58 -26,-58 -6,-23 -46,-43 -53,-184 -89,-127 -100,-165 -3,-11 -12,-11 -17,-17l2 -91 52 0c-2,-6 -5,-13 -6,-15 -58,-96 -21,46 -45,-63 -3,-11 -10,-12 -14,-18 42,-48 -6,-30 48,-46 -45,-41 6,-30 -54,-28l-58 25 20 -239 98 55c-60,212 -32,69 5,125l73 -74z"/>
   <path class="fil11" d="M5636 5219l65 9c-39,95 -44,41 0,124 -149,-1 -270,-40 -383,27 -6,-3 -15,-14 -18,-9 -3,6 -22,-13 -33,-18 -99,-44 -113,5 -356,-3 -92,-4 -82,13 -165,34 -77,-103 -794,31 -971,0 -94,-8 -16,-24 -109,31 -4,-8 -9,-28 -12,-23l-42 -41c-61,-66 -31,77 -28,-61 -48,-40 -27,16 -4,-29l22 -31c24,-56 7,1 16,-66l24 -38c148,12 112,23 242,-19 1,221 32,167 117,193 19,-154 21,-42 -32,-127 83,29 103,22 139,92 31,-82 -3,-31 70,-60l-13 95c96,-29 8,-38 139,-4 20,-115 -30,-61 52,-54l-24 -82c-1,0 80,-14 -76,-26 23,147 40,39 0,98l-16 -101 -181 -24 278 -20 63 87c31,41 8,18 56,41l-26 -67c106,28 72,9 146,73 69,-29 49,-14 75,-58l-22 81c136,-27 125,-9 162,-79 151,93 83,16 96,10 2,-8 4,-19 4,-24 -1,-3 1,-15 0,-19 0,-2 -3,-10 -3,-11 -25,-62 -20,5 -25,11 40,0 24,8 24,-44l240 -3 180 16c-30,24 -25,28 -66,43l84 113c5,-1 14,-8 18,-10l47 -42c-58,10 5,18 -30,-7 -59,-40 -31,-28 4,-31l-10 -96 73 -1 -6 95c-64,60 6,-49 -9,22 -9,44 -31,100 47,91 70,-9 24,-3 50,-50l33 35c2,-5 11,8 15,12 33,-46 23,-34 79,-55z"/>
   <path class="fil11" d="M16782 5109c-119,-14 -308,-4 -429,11 26,-68 -32,-60 27,-60 0,-8 -1,-24 4,-35 26,-67 -3,-11 23,-25 -75,-35 -15,13 -65,-64 -195,5 -84,-76 -228,4 1,11 -5,3 14,28 39,49 10,14 58,62l68 -88c4,-15 16,-12 24,-17 13,88 -1,60 37,89 42,32 -8,-42 26,20 27,50 -6,21 -11,26 68,0 47,-15 47,60 -132,13 -247,-9 -359,44 -133,-70 -149,-41 -408,-31 -137,5 -102,-13 -142,-32 -77,56 -223,25 -359,32 48,-59 -65,-49 67,-49 -99,6 -72,-11 -116,-94 -4,-8 -7,-18 -12,-26l28 -29c107,-30 141,-55 247,-48 135,10 183,6 315,-8 -38,22 -34,29 -65,61 7,9 -10,47 68,58l71 -20c4,0 10,0 14,0l33 5c58,2 27,5 87,-7 -63,-104 14,-19 -81,-60 49,-1 90,21 151,-49l53 16c-3,9 -17,64 -23,80l96 22 52 -117c130,15 99,1 235,0 97,-1 192,1 288,-3 93,41 108,30 160,75 -52,124 -38,30 -93,120 184,5 39,-2 98,49z"/>
   <path class="fil12" d="M13361 10518l144 18 239 8 854 56 198 -8 194 12 597 3 168 14 46 32c54,15 27,12 92,12 -199,30 -294,-4 -384,65 -31,-58 21,-53 -225,-79l-52 69c-76,-85 -85,-48 -219,-55 -146,-8 -119,-48 -248,31 -97,-90 -144,-4 -257,19 -73,15 -275,21 -348,13 -88,-10 -104,-57 -247,-65 -56,-3 -116,-3 -171,-5 -193,-3 -306,14 -477,-18 -97,-18 -63,-31 -134,-54 -62,-19 -43,28 -105,-49 -65,7 -364,44 -422,26 -8,-3 -14,-7 -22,-10 -11,-4 -18,-10 -28,-14 -10,-5 -20,-12 -31,-17 -18,44 63,67 -238,37 51,17 3,9 27,-42 101,-25 213,14 338,-13l280 2 33 5 170 -5 228 12z"/>
   <path class="fil13" d="M7654 5038c-5,5 -14,3 -17,12 -2,9 -13,10 -16,12 -4,3 -24,20 -29,26l-129 -1c-143,80 -65,-30 -204,20 -34,13 -121,41 -143,57 -21,15 -31,24 -26,48 15,77 -8,23 52,66l-27 29c-7,-6 -15,-19 -17,-14l-56 -30c-76,67 -95,38 -201,45l9 -40c-46,-59 -7,5 -22,-77 -5,6 -14,5 -17,15l-31 26c-2,2 -9,7 -13,11 68,-114 11,-12 0,-56 -107,-18 -108,-28 -150,-92l36 86c-32,46 -37,44 -66,103 -93,-41 -9,-17 -90,-18 26,-29 48,-60 72,-92 -60,31 -44,29 -102,71 -6,-3 -15,-17 -17,-11 -3,7 -26,-12 -30,-12 -53,5 -8,-3 -53,34l-46 -74c-27,43 -34,32 -64,47l-64 70 159 17c0,44 -72,27 -124,28 -4,0 -73,-1 -73,-1 -102,-14 -34,2 -70,-30 62,-7 73,3 88,-50 35,-129 1,-48 -34,-104 -58,21 -42,15 -60,33l-43 59c-4,-8 -15,-28 -15,-24 -1,4 -10,-18 -10,-24 -1,-5 1,-39 1,-47l144 23c12,-169 11,-97 143,-48l-47 -70c154,38 1034,-112 1316,-117 1,0 40,46 44,50 6,7 13,55 28,29 2,-4 9,10 14,15z"/>
   <path class="fil14" d="M12188 4808c-33,86 17,34 -59,85l138 14 41 44c105,-48 56,12 99,-83l56 42 24 -42 108 -14 15 54 -2 53 95 39c-93,-16 -70,-10 -46,84 -196,51 -396,-21 -612,-2l47 -31c121,-40 -105,9 66,-15 -58,-30 -35,8 -57,-50 -26,-70 -3,-30 15,-46 -44,57 -34,12 -50,98 -142,-22 -149,-5 -172,-117 -41,53 -2,33 -66,48 -5,1 -14,0 -18,0 -3,1 -11,-1 -13,-1l-13 -4c43,51 22,-45 21,97l-114 -17c-30,-55 46,-40 -51,-46 62,-101 -1,-46 -2,-48 -71,46 -41,7 -96,75 -4,6 -9,16 -14,23l-465 7c0,-94 27,-24 70,-33 12,-3 17,-2 30,-5 14,-2 21,-1 33,-3 12,-1 23,0 35,-2 64,-91 41,-28 102,0 -3,-45 -1,-74 0,-80l24 -51c2,-4 6,-11 9,-16 0,0 27,-57 32,-69 145,81 8,56 192,72l-16 -67c-1,-1 -7,-4 -8,-8 113,42 148,-2 262,31 129,38 19,8 145,-7 114,-14 42,11 143,19 6,-62 -11,-13 72,-28z"/>
   <path class="fil15" d="M2509 7725l11 3c-88,24 -40,6 -77,39 36,73 -34,24 76,59l1 174c-76,-12 -21,5 -98,-30 -9,46 0,162 -32,132l12 144c17,-36 47,-2 7,-7l156 7 79 392c-90,24 -53,20 -15,99l32 60c-61,12 -41,1 -59,11 -1,1 -5,5 -6,6 -115,86 -8,82 -103,55l0 66 -47 -21c-7,-240 10,-208 -65,-229 32,-60 23,74 21,-77 0,-17 -13,-55 -19,-78l25 -31c-27,-49 -56,-87 -91,-124 -59,-225 -31,-343 -33,-354 0,-1 -32,-89 -38,-111l66 -92c-18,-63 -25,-65 -35,-135l30 -36 40 -62c29,-50 -23,14 21,-44l52 -44c34,62 -8,56 -1,127 3,26 -1,43 36,68 97,66 48,3 62,2 -29,1 -19,-7 -8,31z"/>
   <path class="fil16" d="M9533 4990l-142 -50c-4,2 -12,0 -14,6 -13,36 -19,5 -31,9 -117,41 -115,65 -126,152l89 -11c-22,41 -32,20 -111,20 -61,0 -118,5 -165,4 -48,-1 -252,3 -316,23l-107 -68c2,-8 6,-21 6,-25 -3,-69 -1,-61 -49,-89l6 -72c9,-10 -11,-5 34,-12 207,-32 771,15 909,-32 1,8 0,19 0,25l17 120z"/>
   <path class="fil17" d="M4018 10419c0,39 -8,24 42,27l-89 53c-4,3 -9,7 -13,10 -22,18 25,0 -45,45 14,9 34,44 110,38 44,-4 77,-26 118,-43 -12,15 -38,68 -73,77 -42,-16 -37,39 -34,-18 -14,52 -16,74 -81,94 -103,32 -64,12 -119,-30 -45,25 18,3 -50,20 -10,2 -54,10 -62,11 -13,-76 -16,-64 -57,-63 -124,1 -52,90 -52,90l6 17c-72,-28 -9,-21 -109,-18 55,-82 82,-41 35,-245 -73,-26 -22,-26 -100,-22l-37 10c-85,58 -12,13 -11,27 24,-134 47,96 29,-121 -46,-61 13,-13 -35,-41 -56,-33 -18,-9 -81,-27 85,-62 46,-11 85,-82l40 -9 91 79c25,15 393,141 492,121z"/>
   <path class="fil11" d="M9938 4845c24,55 -27,47 24,47 -69,39 -35,-56 -45,90 158,-16 151,-58 235,41 72,-90 67,-7 97,-92 45,39 -3,-19 28,50 52,113 -78,-44 20,31 138,0 25,-13 64,61 -132,27 -252,14 -376,13 -117,-1 -235,34 -347,50 24,-118 2,-59 -7,-82 -49,-8 13,-9 -92,46l-151 27 -79 -31 -89 11c11,-87 9,-111 126,-152 12,-4 18,27 31,-9 2,-6 10,-4 14,-6l142 50c38,21 -42,35 49,16l-29 -87c55,33 56,27 122,10 77,69 41,48 78,44 -64,-132 30,-43 -91,-135 69,-4 99,-23 153,-18 3,0 103,21 123,25z"/>
   <path class="fil18" d="M19132 6156l-73 -21c-8,82 21,49 -41,62 -24,-27 -47,7 -23,-113 7,-36 -6,-21 16,-27 -142,-17 -10,6 -62,-39 36,-63 -18,-53 57,-33l-18 -96c0,-140 17,-109 -75,-159 25,-80 7,-151 7,-151 3,-43 -6,-18 30,-51 -240,111 21,-63 -150,-18l22 -50c-36,7 -60,16 -83,40 -177,0 7,-22 -53,51l-134 -166c-4,-3 -10,-9 -15,-14l114 0c5,5 10,13 13,15 41,42 3,21 116,39l-57 -127 120 5c-104,-32 -34,7 -96,-28l96 -75 -5 11 216 262c8,18 73,428 66,542 -6,95 -15,23 12,141z"/>
   <path class="fil18" d="M11063 5055c-167,-9 -347,13 -527,26 -21,-52 27,-45 -32,-53l-16 8c6,-43 4,-37 -19,-66l112 18c-5,-8 -54,19 3,-14 32,-18 31,-2 33,-2 -34,-35 -25,3 -32,-76l132 18 -7 -99 100 2 24 36c-90,-7 -85,-13 -105,67 146,-21 133,24 195,-4 -7,-127 26,6 -52,-132 103,12 255,21 359,24 120,4 198,-25 335,-15 1,4 7,7 8,8l16 67c-184,-16 -47,9 -192,-72 -5,12 -32,69 -32,69 -3,5 -7,12 -9,16l-24 51c-1,6 -3,35 0,80 -61,-28 -38,-91 -102,0 -12,2 -23,1 -35,2 -12,2 -19,1 -33,3 -13,3 -18,2 -30,5 -43,9 -70,-61 -70,33z"/>
   <path class="fil19" d="M13768 4915c51,42 45,49 137,49 -30,106 -29,50 31,96l65 -4c4,-1 36,-27 41,-34 25,-32 19,-39 26,-88 69,-10 208,-26 268,30 53,-26 50,-37 126,-40 51,-1 69,1 115,15 -114,78 -90,21 -109,117 29,-14 115,-68 115,3l69 73c-36,1 -62,-5 -96,6 -99,30 -40,18 -70,37l-548 -19 -26 -74c-8,-2 -19,-4 -25,-5 -63,-11 -92,-10 -93,-111l-170 -13 -47 80 -48 -140 17 25 222 -3z"/>
   <path class="fil11" d="M14598 10600l-854 -56c-29,-3 58,-41 -96,1 31,-94 20,-34 15,-83l-38 -84c67,19 49,-10 72,20 56,14 31,29 91,5 68,-26 31,-6 54,-67l62 40 21 -46 385 -3c-18,23 -36,46 -55,69l-29 30c59,61 -93,110 108,37 -55,63 -19,19 -63,106 137,-70 28,-25 143,-43 7,-1 12,1 19,0 137,-20 135,-58 165,74z"/>
   <path class="fil20" d="M16690 10373c-61,141 -46,-40 -53,148l-77 -40c-5,-3 -15,-6 -22,-10 65,178 28,46 -51,166 67,-12 61,-57 126,-50 41,4 33,17 50,30 -4,2 -11,-1 -13,5l-60 48c-166,-3 -290,-69 -405,-9 -105,-73 15,-84 -215,-66 20,-88 24,-65 41,-84l86 27c17,-90 -20,-53 49,-78l13 -70c34,56 0,16 26,77 102,-30 90,-19 88,-133 41,44 4,-46 39,50 29,-27 14,-18 64,-29l35 -10 279 28z"/>
   <path class="fil5" d="M13193 5023c3,-1 5,5 6,5 1,1 7,5 8,6 3,0 10,3 14,4l85 -3c-8,-10 -55,-56 -4,-51 124,12 0,21 112,52 119,33 37,-47 193,48 5,-3 69,-34 72,-34 32,0 1,-24 37,18 63,76 10,3 -1,40 -31,43 88,25 -89,32 -11,0 -16,-5 -26,-5 -43,-1 -95,-86 -95,16 -77,6 -109,-11 -170,-18 -69,-8 -160,6 -237,6 -145,-1 -317,-54 -428,-15 -16,-17 -13,-39 -13,-40 -24,-94 -47,-100 46,-84l37 -31c-41,-55 -9,-15 -47,-49l-83 -12 -15 -54 287 15c-70,80 12,-92 -55,68 -3,5 -4,13 -6,18l-7 51c159,3 -5,-54 188,-114 -29,74 -4,24 -38,75l-58 65c127,-16 94,33 94,33 0,-2 1,5 2,8l94 -91c55,65 12,30 97,41z"/>
   <path class="fil6" d="M8039 5160c-153,23 -293,16 -447,45 -153,28 -297,60 -450,73 -60,-43 -37,11 -52,-66 -5,-24 5,-33 26,-48 22,-16 109,-44 143,-57 139,-50 61,60 204,-20l129 1c5,-6 25,-23 29,-26 3,-2 14,-3 16,-12 3,-9 12,-7 17,-12l21 0c10,18 12,83 100,37 77,-39 40,-19 38,-91 45,73 -9,17 66,52 25,-29 44,-25 51,-72l29 69c67,-21 26,-10 109,-35 -47,112 -56,65 3,86l-32 76z"/>
   <path class="fil21" d="M12163 10278l0 100 -140 -4 -20 93c-6,-3 32,-19 -16,-27 -101,-16 24,-23 -38,11l-14 84c-127,-30 -120,-45 -236,-11l9 -110c-49,23 -74,18 -94,59 -154,0 3,-14 -120,-106 -23,42 -2,15 -22,36l-30 28c-5,4 -14,9 -20,14 -85,-51 -36,5 -60,-83 -54,24 -39,54 -94,-22 -6,-9 -9,-23 -13,-34 171,23 73,67 143,55 -37,-23 0,18 -11,-60 85,-7 265,-12 371,-19 73,-5 160,6 222,6 93,0 77,-31 183,-10z"/>
   <path class="fil22" d="M4265 10475l-1 43 189 32 27 49c58,80 54,29 24,125 170,33 2,78 210,20 -14,133 12,64 29,111 -41,-25 -5,-19 -71,-25 -56,-5 -43,0 -92,5 -56,75 21,72 -117,118 -36,-99 12,-72 -101,-120 30,-61 -15,0 28,-39 3,-3 11,-8 14,-11 4,-3 12,-8 15,-11 3,-2 10,-7 15,-11l-189 -104c-5,-3 -48,-35 -76,-53l-101 22c35,-9 61,-62 73,-77 -41,17 -74,39 -118,43 -76,6 -96,-29 -110,-38 70,-45 23,-27 45,-45 4,-3 9,-7 13,-10l89 -53 205 29z"/>
   <path class="fil18" d="M6085 5313c-113,62 -227,19 -384,39 -44,-83 -39,-29 0,-124l-65 -9c4,-4 11,-6 14,-8 3,-2 11,-5 15,-8 84,-64 10,38 60,-71 -179,-7 -143,0 -162,48 -16,-83 -22,-16 11,-88 3,-5 -26,-47 74,-35 121,15 -16,-24 77,41 51,-26 51,-29 120,-23 21,82 -24,101 95,98l-23 -75c126,-30 198,-31 335,-37l47 70c-132,-49 -131,-121 -143,48l-144 -23c0,8 -2,42 -1,47 0,6 9,28 10,24 0,-4 11,16 15,24l43 -59c18,-18 2,-12 60,-33 35,56 69,-25 34,104 -15,53 -26,43 -88,50z"/>
   <path class="fil11" d="M12650 10504c-125,27 -237,-12 -338,13 -85,8 -109,0 -197,9 -74,9 -117,17 -180,9l14 -84c62,-34 -63,-27 38,-11 48,8 10,24 16,27l20 -93 140 4 0 -100 75 2 28 31c-94,-6 -98,21 -124,90 153,-46 119,3 237,-3l14 -72 -75 -4 -5 -74 162 5 41 20c-78,89 -43,11 -64,153 71,-20 106,36 123,-144 37,39 131,129 187,144 -15,9 -1,8 -47,23 0,0 -46,11 -58,14l-7 41z"/>
   <path class="fil11" d="M3266 5466c-77,57 -129,34 -315,123 -134,64 96,-42 -35,16 -54,24 -80,29 -129,43 -4,-2 -11,-12 -12,-8l-63 -29c-72,-76 -14,0 -7,-29l-66 84c-3,4 -10,10 -15,16l4 -83c-99,13 -87,33 -87,-35 8,-26 4,-11 30,-37 97,-94 42,-117 142,-110l52 40c5,3 13,6 18,9 5,2 13,4 17,7 42,19 20,-16 52,42 74,-40 31,-29 112,-68 4,-2 11,-5 15,-7l90 -34c0,0 13,108 135,-35 -171,-146 -59,36 -88,-46 -2,-4 -8,-1 -11,-2 121,0 7,10 58,-49l-3 -57 90 25c-23,67 0,3 -4,52 -11,129 -35,101 20,172z"/>
   <path class="fil23" d="M2826 9058l-77 -81c-75,44 -41,2 -47,83l-20 239 58 -25c60,-2 9,-13 54,28 -54,16 -6,-2 -48,46 4,6 11,7 14,18 24,109 -13,-33 45,63 1,2 4,9 6,15l-52 0 -104 -114c-41,-57 -31,-63 -47,-124 -27,-111 -35,-51 -69,-126 -1,-2 -46,-144 -46,-145l0 -66c95,27 -12,31 103,-55 1,-1 5,-5 6,-6 18,-10 -2,1 59,-11l-32 -60c-38,-79 -75,-75 15,-99 47,46 25,51 47,106 17,44 28,41 50,89l85 225z"/>
   <path class="fil24" d="M18014 10750l63 -38 124 31c121,-45 47,-45 186,-45l522 -95c32,41 -2,64 149,40 200,-32 111,-21 168,46 -60,18 -65,11 -136,39 -129,51 -306,34 -463,33 -201,-2 -432,5 -613,-11z"/>
   <path class="fil25" d="M2332 7336c-6,97 -14,176 -21,245 -89,-17 -16,-39 -129,-5 11,-71 6,-28 17,-93 -102,-31 -47,-8 -82,-76 -25,6 -37,9 -53,21 -26,21 -10,33 -70,58l-17 -126 116 -48c-5,-220 -87,-29 -55,-194 -173,9 -47,10 -100,-25 39,-20 30,-20 75,-25 15,-2 93,-13 114,35 33,77 13,16 -22,59 82,-46 -20,-14 101,-33l73 220 53 -13z"/>
   <path class="fil26" d="M2570 7192c-4,34 -4,120 -5,166 -3,93 3,89 -15,169 -66,0 -67,16 -40,-24 -13,-125 28,-167 31,-311 -88,65 -48,-57 -81,111 -16,81 13,54 -55,104 8,1 44,3 48,6 43,30 2,-32 27,42 -53,76 21,15 -60,42l-52 44c-44,58 8,-6 -21,44l-40 62 4 -66c7,-69 15,-148 21,-245 0,-8 -2,-44 -4,-50 -22,-55 -3,-19 -34,-55 32,-110 27,-33 59,-135 -30,-128 -45,-21 -41,-134 68,11 62,-41 62,14l19 -22c3,-1 13,0 16,-1 47,-15 14,1 36,-16l20 -33c-1,51 -29,179 28,123 -75,110 -32,24 -47,117 64,8 58,16 124,48z"/>
   <path class="fil27" d="M2642 5865c-57,63 -64,65 -72,158l-71 19c13,63 6,35 48,77 -15,83 -10,35 -1,112 12,104 42,18 -18,98l14 72c-64,0 -49,16 -49,-48l-70 -10c-6,-3 -16,-9 -24,-14 4,-7 11,-27 13,-22 2,4 9,-16 12,-20 59,-114 7,-142 -36,-173 -40,93 5,-2 -62,46l-10 -70c82,-50 11,-6 101,-24 3,-62 32,-10 -55,-120l6 -49c1,-8 3,-17 4,-26l8 -57c2,-4 4,-10 5,-13l48 -92 -17 69c95,-26 100,-16 149,31l120 -78c-67,86 -96,87 -124,150l81 -16z"/>
   <path class="fil13" d="M3618 5163c-9,67 8,10 -16,66l-22 31c-23,45 -44,-11 4,29 -3,138 -33,-5 28,61l42 41c3,-5 8,15 12,23 93,-55 15,-39 109,-31 -22,46 -421,83 -509,83 -55,-71 -31,-43 -20,-172 4,-49 -19,15 4,-52 73,-105 100,-6 155,-75l85 0c-7,6 -15,6 -19,18 -3,13 -13,14 -17,19l-43 57 109 29 -8 -142 48 -6c0,47 -7,26 58,21z"/>
   <path class="fil27" d="M13422 4894c-24,109 -9,-39 -29,101l127 2c-3,-6 -26,-63 -27,-65 -15,-42 2,15 -8,-42l44 3 48 140 47 -80 170 13c1,101 30,100 93,111 6,1 17,3 25,5l26 74 -433 -5c0,-102 52,-17 95,-16 10,0 15,5 26,5 177,-7 58,11 89,-32 11,-37 64,36 1,-40 -36,-42 -5,-18 -37,-18 -3,0 -67,31 -72,34 -156,-95 -74,-15 -193,-48 -112,-31 12,-40 -112,-52 -51,-5 -4,41 4,51l-85 3c-4,-1 -11,-4 -14,-4 -1,-1 -7,-5 -8,-6 -1,0 -3,-6 -6,-5 -16,-99 -57,-101 -130,-83l-13 -73c62,9 175,15 236,34 106,32 0,-10 136,-7z"/>
   <path class="fil21" d="M10488 5036l16 -8c59,8 11,1 32,53l-175 -8c-39,-74 74,-61 -64,-61 -98,-75 32,82 -20,-31 -31,-69 17,-11 -28,-50 -30,85 -25,2 -97,92 -84,-99 -77,-57 -235,-41 10,-146 -24,-51 45,-90 -51,0 0,8 -24,-47 148,-7 342,-37 503,-24l-48 95c149,-49 -12,-18 71,-20 9,0 19,25 27,16 8,-12 14,19 21,28 -17,11 -46,21 -70,39 -6,5 -13,12 -18,16 -5,5 -13,24 -16,19 -4,-5 -10,15 -15,22 42,35 8,4 95,0z"/>
   <path class="fil9" d="M8195 4905c17,33 23,51 44,88l82 4 15 62c-75,-28 -51,-44 -122,3 -33,-112 -18,-47 -46,-82 -54,120 -66,56 -87,98 -38,76 -2,20 9,41 5,-6 30,-30 35,-31l33 -1c151,-9 73,-37 153,0 -45,39 2,30 -96,12l47 55 -223 6 32 -76c-59,-21 -50,26 -3,-86 -83,25 -42,14 -109,35l-29 -69c-7,47 -26,43 -51,72 -75,-35 -21,21 -66,-52 2,72 39,52 -38,91 -88,46 -90,-19 -100,-37 44,-39 23,59 37,-47l-57 -49c187,48 55,15 105,-22l195 -28c6,2 62,7 67,7 66,3 102,-2 173,6z"/>
   <path class="fil28" d="M4716 10617c-86,-45 -23,-28 -116,-24 23,53 164,123 193,132l-10 -86 56 1 -44 121c64,40 -76,60 130,21l-32 51 -1 80c-81,4 -71,-31 -163,-3 -86,26 -76,42 -103,78l-152 -11 -11 -24c138,-46 61,-43 117,-118 49,-5 36,-10 92,-5 66,6 30,0 71,25 -17,-47 -43,22 -29,-111 -208,58 -40,13 -210,-20 30,-96 34,-45 -24,-125l79 6c12,-34 -26,-67 78,-45 83,17 57,9 79,57z"/>
   <path class="fil29" d="M12930 10506l-280 -2 7 -41c12,-3 58,-14 58,-14 46,-15 32,-14 47,-23 -56,-15 -150,-105 -187,-144 -17,180 -52,124 -123,144 21,-142 -14,-64 64,-153l-41 -20c79,1 144,18 196,17 57,-1 97,-16 188,-22l71 106c-25,29 -5,33 -86,48 39,16 64,-5 110,-24l-31 95c-2,7 4,25 7,33z"/>
   <path class="fil9" d="M14927 5156l-441 19c30,-19 -29,-7 70,-37 34,-11 60,-5 96,-6l-69 -73c96,4 81,38 156,1 -45,-39 -36,36 -52,-19 -2,-6 -11,-3 -16,-5 4,-5 10,-12 13,-16l33 -43c2,-7 6,-9 10,-13 -5,-2 -49,-20 -54,-23l-43 -29c145,-3 240,-8 378,0l25 130c-144,-4 -86,49 -259,21l153 93z"/>
   <path class="fil7" d="M2542 6401c8,50 52,136 -3,151l-53 -71c-1,-1 -1,-7 -2,-8 0,0 1,-4 1,-6 -8,1 -35,6 -40,7l-56 23c15,45 -2,10 21,52l41 61c-106,-7 -71,-4 -114,31 31,159 -25,-20 13,53 60,75 49,60 36,135l-93 -22 15 -193c12,-215 16,-63 35,-197l55 8 9 -90c-75,-9 -52,-3 -109,-28l28 -147c67,-48 22,47 62,-46 43,31 95,59 36,173 -3,4 -10,24 -12,20 -2,-5 -9,15 -13,22 8,5 18,11 24,14l70 10c0,64 -15,48 49,48z"/>
   <path class="fil30" d="M13711 10296l-14 102c-23,-30 -5,-1 -72,-20l38 84c5,49 16,-11 -15,83 154,-42 67,-4 96,-1l-239 -8 70 -38 -37 -88 -73 87c-51,-47 -55,77 -27,-99 -4,5 -8,7 -11,16l-83 69c8,-104 5,-14 -6,-116 -49,66 1,42 -93,63 27,-58 4,-36 63,-58l-26 -66c66,-10 73,-24 128,-30l249 15c6,1 44,4 52,5z"/>
   <path class="fil31" d="M6515 10998l82 4c-22,-85 -34,-42 -10,-115l-24 -8 84 13c159,-5 303,-2 466,-17 -4,94 -11,30 17,126l-136 33c-85,10 -16,1 -47,-4l-29 39c-16,57 -9,-19 -8,72 -155,-218 -111,-60 -126,-175 -95,44 -66,31 -136,-5 -11,13 -31,44 -48,50 -173,55 -15,22 -85,-13z"/>
   <path class="fil18" d="M11387 10301c11,78 -26,37 11,60 -70,12 28,-32 -143,-55 4,11 7,25 13,34 55,76 40,46 94,22 24,88 -25,32 60,83 6,-5 15,-10 20,-14l30 -28c20,-21 -1,6 22,-36 123,92 -34,106 120,106 34,-40 0,-35 23,48 -154,-45 -48,-69 -188,-69 24,91 -16,-2 44,93l-239 18c-49,-46 80,-50 -95,-31 22,-31 23,-23 31,-61 23,-114 -4,-91 -7,-93 -38,-93 9,-6 -40,-57 -55,-57 -20,16 -38,-20 64,-8 92,-25 146,-21 36,3 63,18 136,21z"/>
   <path class="fil32" d="M11795 11591c-106,29 -112,16 -205,69 -6,-4 -15,-17 -18,-12 -3,5 -13,-9 -17,-11 -129,-88 -34,-7 -162,-5 -148,2 0,33 -125,26 -26,-103 -31,-63 62,-103 52,-23 106,-25 171,-9 -20,-48 -9,-35 -48,-60l137 18c41,-37 110,-66 161,-58 35,5 36,14 40,48l4 97z"/>
   <path class="fil16" d="M13194 10273l28 218c0,9 -3,20 -4,30 7,-2 61,-21 68,-21 72,2 29,-4 75,18l-228 -12c43,-22 3,-10 32,-67 -97,-1 -41,30 -63,-48l-139 120 -33 -5c-3,-8 -9,-26 -7,-33l31 -95c-46,19 -71,40 -110,24 81,-15 61,-19 86,-48l-71 -106c63,-1 285,18 335,25z"/>
   <path class="fil33" d="M8573 4889l-6 72c48,28 46,20 49,89 0,4 -4,17 -6,25l107 68c-49,10 -228,-18 -321,-9l34 -11c-75,-76 91,-14 -99,-63 17,-62 -3,-30 37,-72l-47 9 50 -57c-11,-10 -24,-40 -35,-50 67,-17 161,-9 237,-1z"/>
   <path class="fil34" d="M6841 5308c-105,-7 -126,7 -229,17 -102,10 -166,-1 -260,-9l-159 -17 64 -70c30,-15 37,-4 64,-47l46 74c45,-37 0,-29 53,-34 4,0 27,19 30,12 2,-6 11,8 17,11 58,-42 42,-40 102,-71 -24,32 -46,63 -72,92 81,1 -3,-23 90,18 29,-59 34,-57 66,-103l-36 -86c42,64 43,74 150,92 11,44 68,-58 0,56 4,-4 11,-9 13,-11l31 -26c3,-10 12,-9 17,-15 15,82 -24,18 22,77l-9 40z"/>
   <path class="fil33" d="M4337 5086c194,0 348,-21 550,1 0,52 16,44 -24,44 5,-6 0,-73 25,-11 0,1 3,9 3,11 1,4 -1,16 0,19 0,5 -2,16 -4,24 -13,6 55,83 -96,-10 -37,70 -26,52 -162,79l22 -81c-26,44 -6,29 -75,58 -74,-64 -40,-45 -146,-73l26 67c-48,-23 -25,0 -56,-41l-63 -87z"/>
   <path class="fil21" d="M3884 5106l175 0 181 24 16 101c40,-59 23,49 0,-98 156,12 75,26 76,26l24 82c-82,-7 -32,-61 -52,54 -131,-34 -43,-25 -139,4l13 -95c-73,29 -39,-22 -70,60 -36,-70 -56,-63 -139,-92 53,85 51,-27 32,127 -85,-26 -116,28 -117,-193z"/>
   <path class="fil35" d="M2713 5417c144,-24 154,-163 450,-143 -51,59 63,49 -58,49 3,1 9,-2 11,2 29,82 -83,-100 88,46 -122,143 -135,35 -135,35l-90 34c-4,2 -11,5 -15,7 -81,39 -38,28 -112,68 -32,-58 -10,-23 -52,-42 -4,-3 -12,-5 -17,-7 -5,-3 -13,-6 -18,-9l-52 -40z"/>
   <path class="fil35" d="M17398 4831c-23,40 -27,-4 -5,74 3,-4 6,-11 8,-12 39,-26 -4,-27 128,-29 40,-1 75,14 142,28l-30 -72 53 -12 0 74c135,-3 46,-35 105,34l-217 44c30,46 -1,27 56,66 -48,6 -19,20 -61,-12 -54,-42 -47,-101 -170,-74l86 48c-4,4 -9,6 -11,13l-45 52c-17,-33 -9,-19 -37,-57 -51,-68 -12,26 -43,-77 -74,-1 -56,0 -142,21 3,-8 20,-48 20,-53 3,-20 59,-14 -34,-76 37,-37 197,-15 197,20z"/>
   <path class="fil5" d="M16195 10283l78 51c2,114 14,103 -88,133 -26,-61 8,-21 -26,-77 -111,-5 -34,34 -93,-25 -8,4 -23,6 -26,7l2 22c0,-66 -92,-40 -165,-40 -37,-57 -15,-80 -54,-90 -81,-21 -17,3 -26,11l0 -45c98,-10 350,17 398,53z"/>
   <path class="fil22" d="M5111 10677c93,201 -12,-71 128,108 -143,57 -37,-12 -200,-5l-28 3c-7,1 -36,1 -46,4 -62,21 -2,5 -72,46l32 -51c-206,39 -66,19 -130,-21l44 -121c88,-8 44,-21 94,3l27 25c34,-68 -11,-41 75,-53l76 62z"/>
   <path class="fil15" d="M19515 9772c-9,64 7,13 -34,92l35 -6 57 65 46 -39c-5,4 -13,3 -16,11l-65 28c-50,26 -38,27 -75,66l-30 -33c-156,114 98,60 -135,-9l-27 80c0,-92 66,-129 96,-201 25,-57 32,-147 54,-215 58,-76 -19,-26 100,-56l-56 200c55,-2 47,-18 50,17z"/>
   <path class="fil9" d="M2570 7192c-66,-32 -60,-40 -124,-48 15,-93 -28,-7 47,-117 -57,56 -29,-72 -28,-123l-20 33c-22,17 11,1 -36,16 -3,1 -13,0 -16,1l-19 22c0,-55 6,-3 -62,-14 1,-54 8,-16 -25,-88l81 2 32 41 -1 -90 117 37 14 -44c84,69 47,269 40,372z"/>
   <path class="fil36" d="M18533 4885l-58 -7c3,7 9,9 9,21 0,11 6,16 6,21l-6 68c-127,3 -160,36 -295,-14l-138 40c3,-68 -40,47 4,-10l45 -40c-191,0 -20,14 -95,-72 138,9 195,21 261,66l18 -109c-23,-28 -13,-9 24,-16 13,96 -40,20 32,70 55,-33 40,4 24,-55 92,12 120,-1 196,-14 -25,47 13,35 -27,51z"/>
   <path class="fil37" d="M14727 11339c-95,-8 -132,-27 -211,-22 -28,-38 -45,42 -22,-102l-65 20c-86,12 -80,-36 -85,-40 34,-26 11,-15 46,-23 116,-29 -25,78 48,-29 32,32 23,28 62,48l-33 -61c-38,-51 39,-5 -42,-25 11,-8 42,-95 119,-28 0,-76 -2,-175 -18,-269l85 145c-15,85 -33,115 -50,173 -29,103 3,42 -3,166l158 -15 11 62z"/>
   <path class="fil38" d="M18616 6296c20,-30 34,-47 61,-87l151 36 -6 -126c63,25 22,3 82,19 -26,132 -31,48 -34,134 -1,20 11,61 5,121l-100 -66c2,7 4,11 5,22 2,15 -84,-45 36,70 41,40 30,0 60,61l-131 -2c-26,-71 -14,-48 -3,-101l-126 -81z"/>
   <path class="fil39" d="M2874 9717c-30,57 -18,42 6,110l-70 26c-67,42 11,57 -77,20l-79 -244c112,-3 71,-4 103,-94 5,6 14,6 17,17 11,38 47,-19 100,165z"/>
   <path class="fil1" d="M4914 11380c-50,35 -34,4 -57,72 -137,-43 17,10 -167,-11 -113,-13 -112,7 -186,-63l-36 18c-53,28 8,0 -29,17 -33,16 -7,8 -47,11 -14,-27 -14,-38 -38,-69 98,-22 206,-11 294,18l49 -82c185,143 119,-65 217,89z"/>
   <path class="fil30" d="M2550 7527c0,38 5,87 -1,123 -20,122 -1,44 -40,75 -11,-38 -21,-30 8,-31 -14,1 35,64 -62,-2 -37,-25 -33,-42 -36,-68 -7,-71 35,-65 1,-127 81,-27 7,34 60,-42 -25,-74 16,-12 -27,-42 -4,-3 -40,-5 -48,-6 68,-50 39,-23 55,-104 33,-168 -7,-46 81,-111 -3,144 -44,186 -31,311 -27,40 -26,24 40,24z"/>
   <path class="fil40" d="M15970 10595c19,55 -174,28 -215,26l-168 -14c-8,-7 -17,-19 -21,-24 -4,-4 -18,-5 -22,-19 -3,-12 -13,-12 -21,-15 183,-5 67,-43 211,-47 80,-2 27,-11 106,31l31 18c11,5 36,12 50,16l21 -73 69 17c-17,19 -21,-4 -41,84z"/>
   <path class="fil9" d="M11254 10563l-162 47c-11,-7 -41,-29 -59,-50 -5,-6 -21,-29 -26,-35 -5,-6 -25,-29 -31,-34 49,-59 -100,-41 39,-39l-38 -78c68,27 111,37 206,4 3,2 30,-21 7,93 -8,38 -9,30 -31,61 175,-19 46,-15 95,31z"/>
   <path class="fil41" d="M2787 5648c-3,5 -7,7 -8,13 -2,7 -8,11 -10,13 -2,2 -8,9 -11,12 -116,130 -24,93 -116,179l-81 16c28,-63 57,-64 124,-150l-120 78c-49,-47 -54,-57 -149,-31l17 -69c-1,-34 -25,-37 11,-27l60 -31c8,53 -11,21 13,54 3,3 9,10 13,14l35 24c23,-41 19,-41 59,-61 5,-6 12,-12 15,-16l66 -84c-7,29 -65,-47 7,29l63 29c1,-4 8,6 12,8z"/>
   <path class="fil42" d="M5636 5219c-56,21 -46,9 -79,55 -4,-4 -13,-17 -15,-12l-33 -35c-26,47 20,41 -50,50 -78,9 -56,-47 -47,-91 15,-71 -55,38 9,-22l6 -95 147 23c-33,72 -27,5 -11,88 19,-48 -17,-55 162,-48 -50,109 24,7 -60,71 -4,3 -12,6 -15,8 -3,2 -10,4 -14,8z"/>
   <path class="fil43" d="M13505 10536l-144 -18c-46,-22 -3,-16 -75,-18 -7,0 -61,19 -68,21 1,-10 4,-21 4,-30l-28 -218c27,1 95,-17 88,33l26 66c-59,22 -36,0 -63,58 94,-21 44,3 93,-63 11,102 14,12 6,116l83 -69c3,-9 7,-11 11,-16 -28,176 -24,52 27,99l73 -87 37 88 -70 38z"/>
   <path class="fil42" d="M11183 10378c-95,33 -138,23 -206,-4l38 78c-139,-2 10,-20 -39,39 -73,-167 -6,105 -69,-95l-150 16 -14 -90c123,22 76,-24 178,5 22,35 -29,39 22,28 20,-27 50,28 1,-44l161 -10c18,36 -17,-37 38,20 49,51 2,-36 40,57z"/>
   <path class="fil42" d="M10488 5036c-87,4 -53,35 -95,0 5,-7 11,-27 15,-22 3,5 11,-14 16,-19 5,-4 12,-11 18,-16 24,-18 53,-28 70,-39 -7,-9 -13,-40 -21,-28 -8,9 -18,-16 -27,-16 -83,2 78,-29 -71,20l48 -95 269 -6 7 99 -132 -18c7,79 -2,41 32,76 -2,0 -1,-16 -33,2 -57,33 -8,6 -3,14l-112 -18c23,29 25,23 19,66z"/>
   <path class="fil9" d="M19555 10139c37,-51 21,24 21,-45 -1,-35 -11,-22 -32,-45l-4 65 -88 -48 11 -77c37,-39 25,-40 75,-66l65 -28c3,-8 11,-7 16,-11l44 63c-35,71 1,5 -14,72l-22 54c-66,243 -1,114 -84,170l12 -104z"/>
   <path class="fil42" d="M13193 5023c-85,-11 -42,24 -97,-41l-94 91c-1,-3 -2,-10 -2,-8 0,0 33,-49 -94,-33l58 -65c34,-51 9,-1 38,-75 -193,60 -29,117 -188,114l7 -51c2,-5 3,-13 6,-18 67,-160 -15,12 55,-68l147 22 21 -24 13 73c73,-18 114,-16 130,83z"/>
   <path class="fil37" d="M2147 8002l-53 39 64 61c-66,51 -52,102 -72,131l-104 -24c19,-164 13,-27 40,-108l32 -138 -59 -68 67 -56c5,7 11,9 13,23 2,13 9,16 11,22l22 62c3,7 7,13 10,19l29 37z"/>
   <path class="fil44" d="M2446 8914c-5,-4 -14,-19 -17,-13l-103 -80c83,-103 57,-16 75,-106l-99 14c-45,-90 10,-37 -70,-100 17,-13 2,-18 38,-29 62,-20 -23,-11 96,-8l-24 -62 41 0c6,23 19,61 19,78 2,151 11,17 -21,77 75,21 58,-11 65,229z"/>
   <path class="fil24" d="M16856 10391l-166 -18 -279 -28 70 -55c75,-44 71,-36 159,-48 49,62 84,45 136,73 28,14 73,72 80,76z"/>
   <path class="fil27" d="M7437 10567c-103,67 -77,30 -105,153 -87,-18 -97,-14 -109,-20 -77,-42 -49,-65 -43,-124 -168,71 -153,30 -210,-3 37,1 225,19 244,-31 4,-10 13,-9 19,-14 105,38 75,60 204,39z"/>
   <path class="fil6" d="M15076 4935l-28 29c5,8 8,18 12,26 44,83 17,100 116,94 -132,0 -19,-10 -67,49 4,44 -149,30 -182,23l-153 -93c173,28 115,-25 259,-21l-25 -130 68 23z"/>
   <path class="fil45" d="M2539 6552l0 83c-90,-28 -20,-12 -47,14 29,54 16,70 0,137 -4,-5 -10,-20 -11,-16 -9,21 9,-45 -83,-94 30,28 22,0 -48,18 -38,-73 18,106 -13,-53 43,-35 8,-38 114,-31l-41 -61c-23,-42 -6,-7 -21,-52l56 -23c5,-1 32,-6 40,-7 0,2 -1,6 -1,6 1,1 1,7 2,8l53 71z"/>
   <path class="fil46" d="M5830 10760c-31,38 3,20 -57,34 -84,19 -164,-19 -239,-47 12,-61 53,-120 101,-42l36 -41c4,-6 10,-14 13,-19l17 -32c86,54 61,56 94,104 21,30 13,17 35,43z"/>
   <path class="fil46" d="M18830 6803l-46 -42 -16 -48c39,-51 14,-46 27,-95 0,-2 4,-8 4,-9 4,-9 29,-31 0,8 10,-63 3,-73 44,-126 101,166 -19,33 75,198 39,3 -35,22 21,-7l29 -21c0,49 5,64 5,86 -1,52 2,25 -13,57 -57,-22 -5,-7 -45,-41 -39,-34 -14,-25 -85,-40l0 80z"/>
   <path class="fil44" d="M3160 10079l-41 51 -161 -91 34 -101 -67 -120c130,71 132,96 139,162 48,-9 63,-11 71,-9l25 108z"/>
   <path class="fil47" d="M15638 4879c57,-23 195,-5 278,-12 -61,70 -102,48 -151,49 95,41 18,-44 81,60 -60,12 -29,9 -87,7l-33 -5c-4,0 -10,0 -14,0l-71 20c-78,-11 -61,-49 -68,-58 31,-32 27,-39 65,-61z"/>
   <path class="fil48" d="M8932 11068l-4 63c84,34 46,-2 64,61 -78,36 -31,2 -110,-18 -36,-9 -36,-5 -72,-6l34 117c-69,-18 -65,-27 -150,-20 29,-115 2,-92 92,-83l-47 -60 132 -42c45,-15 12,-7 61,-12z"/>
   <path class="fil49" d="M1727 7503l140 -35c1,10 2,36 1,41 0,4 -2,13 -2,18 -11,79 -31,18 10,99 -194,-26 110,-4 -53,-5l-170 8c-12,-34 -31,-115 2,-78 37,-47 35,9 48,-112 60,27 -15,-16 24,64z"/>
   <path class="fil45" d="M19136 6903l11 85c-93,21 -8,-5 -9,37 0,22 5,66 -16,94 -81,100 7,0 -88,-23 -16,-66 -3,-66 -41,-96 23,-94 -1,-117 83,-118l6 46c18,-31 10,-3 54,-25z"/>
   <path class="fil34" d="M2530 6820l-14 44 -117 -37 1 90 -32 -41 18 -47c13,-75 24,-60 -36,-135 70,-18 78,10 48,-18 92,49 74,115 83,94 1,-4 7,11 11,16 16,-67 29,-83 0,-137 27,-26 -43,-42 47,-14 53,49 18,129 -9,185z"/>
   <path class="fil19" d="M2565 8246l-156 -7c40,5 10,-29 -7,7l-12 -144c73,7 17,-11 130,-55 47,77 43,98 45,199z"/>
   <path class="fil33" d="M14068 4934c-7,49 -1,56 -26,88 -5,7 -37,33 -41,34l-65 4c-60,-46 -61,10 -31,-96 -92,0 -86,-7 -137,-49l276 -1 24 20z"/>
   <path class="fil48" d="M8952 11432c-42,22 -156,9 -204,9 -61,1 -20,21 -79,-9 10,-102 -19,-49 64,-82 46,-18 85,-27 128,-39l41 59c19,26 35,45 50,62z"/>
   <path class="fil13" d="M6647 10892l-84 -13c49,-109 54,30 0,-142 56,12 106,39 128,-4 39,-75 -115,-38 111,-139l-57 95c39,61 18,29 22,72 -41,34 -90,26 -120,131z"/>
   <path class="fil50" d="M8396 5134l-134 20 -47 -55c98,18 51,27 96,-12 -80,-37 -2,-9 -153,0l-33 1c-5,1 -30,25 -35,31 -11,-21 -47,35 -9,-41 21,-42 33,22 87,-98 28,35 13,-30 46,82 71,-47 47,-31 122,-3l-15 -62 47 -9c-40,42 -20,10 -37,72 190,49 24,-13 99,63l-34 11z"/>
   <path class="fil36" d="M14583 5059c0,-71 -86,-17 -115,-3 19,-96 -5,-39 109,-117l53 -27 43 29c5,3 49,21 54,23 -4,4 -8,6 -10,13l-33 43c-3,4 -9,11 -13,16 5,2 14,-1 16,5 16,55 7,-20 52,19 -75,37 -60,3 -156,-1z"/>
   <path class="fil51" d="M11187 11315c-75,-34 -19,-27 -84,-12 -28,85 -40,75 -112,97l-57 -139c10,-1 81,4 82,4l143 -25c55,-11 27,4 64,-20l-36 95z"/>
   <path class="fil36" d="M9533 4990l-17 -120c0,-6 1,-17 0,-25l146 -7c121,92 27,3 91,135 -37,4 -1,25 -78,-44 -66,17 -67,23 -122,-10l29 87c-91,19 -11,5 -49,-16z"/>
   <path class="fil52" d="M19216 6785c-12,61 -38,70 -80,118 -44,22 -36,-6 -54,25l-6 -46 -79 -110 61 -75 38 72c3,5 13,24 16,19 3,-4 12,14 18,20 59,-42 43,67 52,-95 19,33 18,-47 34,72z"/>
   <path class="fil53" d="M11850 11170c22,46 22,40 41,86 -59,39 -11,-2 -59,50l-77 -116c5,-4 12,-15 13,-11l38 -33c80,-67 70,-51 209,-48 -31,68 -82,71 -165,72z"/>
   <path class="fil6" d="M12045 5082l-21 -14 -219 -7c1,-142 22,-46 -21,-97l13 4c2,0 10,2 13,1 4,0 13,1 18,0 64,-15 25,5 66,-48 23,112 30,95 172,117 16,-86 6,-41 50,-98 -18,16 -41,-24 -15,46 22,58 -1,20 57,50 -171,24 55,-25 -66,15l-47 31z"/>
   <path class="fil33" d="M6123 10576c-94,17 -35,27 -83,53 -38,20 -48,-6 -123,-12 41,-100 35,-82 8,-129 24,2 115,6 132,11 86,27 59,44 66,77z"/>
   <path class="fil54" d="M4265 10475l-205 -29c-50,-3 -42,12 -42,-27l103 30c-6,-9 -13,-33 -18,-26 -5,9 11,-13 -54,-42 -1,0 -7,-1 -8,-1 0,-1 -4,-1 -6,-2l23 -54c73,50 29,15 112,27 102,14 -1,32 117,27 -64,66 15,58 -91,48 143,0 9,-9 69,49z"/>
   <path class="fil51" d="M12546 11096c-39,27 22,25 -93,22 16,56 24,56 24,126l-137 0c22,-74 30,-44 61,-104 23,-44 13,-59 50,-109 106,18 49,-19 95,65z"/>
   <path class="fil36" d="M16159 10390l-13 70c-69,25 -32,-12 -49,78l-86 -27 -69 -17 -20 4c10,-53 0,-4 48,-64 150,24 10,12 72,-40l-2 -22c3,-1 18,-3 26,-7 59,59 -18,20 93,25z"/>
   <path class="fil55" d="M19753 9438l-48 5c31,-131 56,-141 45,-289 60,13 17,-16 56,26l17 222 -70 36z"/>
   <path class="fil56" d="M2826 9058l52 108 -73 74c-37,-56 -65,87 -5,-125l-98 -55c6,-81 -28,-39 47,-83l77 81z"/>
   <path class="fil41" d="M11699 10524c-87,29 -116,52 -206,21 -60,-95 -20,-2 -44,-93 140,0 34,24 188,69 -23,-83 11,-88 -23,-48 20,-41 45,-36 94,-59l-9 110z"/>
   <path class="fil36" d="M12238 10280c73,-22 17,13 75,-32l5 74 75 4 -14 72c-118,6 -84,-43 -237,3 26,-69 30,-96 124,-90l-28 -31z"/>
   <path class="fil57" d="M17072 4912l-121 27 9 -38 -74 -18c34,-54 -53,-24 65,-41 18,-3 105,19 187,-3l63 -28 -33 54c-52,10 -61,5 -97,11 -63,10 -23,-10 -52,21l147 -32c-6,15 -9,24 -19,39 -31,50 -31,3 -75,8z"/>
   <path class="fil30" d="M19500 10211l-15 69 -103 28 22 -47c-89,-14 -84,12 -99,-57 6,3 -28,21 19,6 20,-6 26,-9 41,-19l76 -54c115,97 24,9 59,74z"/>
   <path class="fil48" d="M12738 11116c-45,64 -85,41 -151,21l-29 -148c89,-6 136,27 132,127l48 0z"/>
   <path class="fil58" d="M2316 6090c-2,-12 1,-119 0,-157 -3,-57 -9,-98 64,-119l-8 57c-1,9 -3,18 -4,26l-6 49c87,110 58,58 55,120 -90,18 -19,-26 -101,24z"/>
   <path class="fil59" d="M13925 10330l-21 46 -62 -40c-23,61 14,41 -54,67 -60,24 -35,9 -91,-5l14 -102c79,-8 148,19 214,34z"/>
   <path class="fil60" d="M16760 4877c11,23 26,65 33,80 42,94 45,78 138,89 -102,10 -64,-14 -147,63l-2 0c-59,-51 86,-44 -98,-49 55,-90 41,4 93,-120 -52,-45 -67,-34 -160,-75l28 -8 115 20z"/>
   <path class="fil33" d="M16353 5120l24 0c0,-75 21,-60 -47,-60 5,-5 38,24 11,-26 -34,-62 16,12 -26,-20 -38,-29 -24,-1 -37,-89 -8,5 -20,2 -24,17l-68 88c-48,-48 -19,-13 -58,-62 -19,-25 -13,-17 -14,-28 144,-80 33,1 228,-4 50,77 -10,29 65,64 -26,14 3,-42 -23,25 -5,11 -4,27 -4,35 -59,0 -1,-8 -27,60z"/>
   <path class="fil61" d="M10810 4817l62 -33c78,138 45,5 52,132 -62,28 -49,-17 -195,4 20,-80 15,-74 105,-67l-24 -36z"/>
   <path class="fil62" d="M2308 6614c-45,-53 -29,-79 -18,-152 1,-7 3,-12 4,-19 1,-7 2,-13 3,-20l1 -116c57,25 34,19 109,28l-9 90 -55 -8c-19,134 -23,-18 -35,197z"/>
   <path class="fil63" d="M4800 11192c33,77 25,18 -11,100 -207,-120 -98,33 -181,-100 52,-39 111,-38 192,0z"/>
   <path class="fil33" d="M2624 5682c-40,20 -36,20 -59,61l-35 -24c-4,-4 -10,-11 -13,-14 -24,-33 -5,-1 -13,-54l-60 31c38,-73 26,-63 97,-118 0,68 -12,48 87,35l-4 83z"/>
   <path class="fil35" d="M5127 5084l227 -14 10 96c-35,3 -63,-9 -4,31 35,25 -28,17 30,7l-47 42c-4,2 -13,9 -18,10l-84 -113c41,-15 36,-19 66,-43l-180 -16z"/>
   <path class="fil59" d="M12487 4868l-24 42 -56 -42c-43,95 6,35 -99,83l-41 -44 1 -68c85,-16 151,13 219,29z"/>
   <path class="fil43" d="M17641 4820l30 72c-67,-14 -102,-29 -142,-28 -132,2 -89,3 -128,29 -2,1 -5,8 -8,12 -22,-78 -18,-34 5,-74 146,-36 83,-15 243,-11z"/>
   <path class="fil64" d="M8336 4890c11,10 24,40 35,50l-50 57 -82 -4c-21,-37 -27,-55 -44,-88 37,-43 -10,-19 50,-21 5,-1 69,6 91,6z"/>
   <path class="fil65" d="M14825 10349l105 -1c21,68 8,57 37,70 -36,42 21,54 -148,49l6 -118z"/>
   <path class="fil66" d="M3478 9832c-84,107 26,63 -74,113l-4 -118 -111 -16c57,-51 20,-2 49,-88l140 109z"/>
   <path class="fil67" d="M14990 10604l-194 -12 -29 -55c101,6 50,7 137,-31 31,33 -52,28 66,29l20 69z"/>
   <path class="fil68" d="M4716 10617l58 -17 9 39 10 86c-29,-9 -170,-79 -193,-132 93,-4 30,-21 116,24z"/>
   <path class="fil45" d="M16951 4939l121 -27 44 73c-11,6 -21,2 -26,10 -10,20 -65,-17 -140,43 22,-58 17,-20 1,-99z"/>
   <path class="fil41" d="M13133 10506l-170 5 139 -120c22,78 -34,47 63,48 -29,57 11,45 -32,67z"/>
   <path class="fil22" d="M3786 11016l-10 3 -17 -42c74,-35 50,-19 99,-80 5,5 13,11 17,14l75 83 -164 22z"/>
   <path class="fil36" d="M7675 5038l-21 0c-5,-5 -12,-19 -14,-15 -15,26 -22,-22 -28,-29 -4,-4 -43,-50 -44,-50l192 -24c-50,37 82,70 -105,22l57 49c-14,106 7,8 -37,47z"/>
   <path class="fil10" d="M19396 8797c-31,-56 -22,-87 -53,-146l39 -12c46,34 31,-25 47,97 59,-48 57,67 48,-72 -8,103 12,66 -27,137l-54 -4z"/>
   <path class="fil65" d="M15969 4883l125 -15 -52 117 -96 -22c6,-16 20,-71 23,-80z"/>
   <path class="fil28" d="M18798 5091l49 37 -9 83 5 -11 -192 -116c84,-24 44,8 147,7z"/>
   <path class="fil69" d="M13422 4894l63 -4c10,57 -7,0 8,42 1,2 24,59 27,65l-127 -2c20,-140 5,8 29,-101z"/>
   <path class="fil40" d="M11691 5044l-163 4c5,-7 10,-17 14,-23 55,-68 25,-29 96,-75 1,2 64,-53 2,48 97,6 21,-9 51,46z"/>
   <path class="fil70" d="M2383 8530l-41 0c-14,-40 -16,-39 -48,-69 11,-34 15,-45 23,-86 35,37 64,75 91,124l-25 31z"/>
   <path class="fil45" d="M2520 8000l0 47c-113,44 -57,62 -130,55 32,30 23,-86 32,-132 77,35 22,18 98,30z"/>
   <path class="fil71" d="M19065 7503c-74,-46 -44,4 -56,-96l6 -48c81,-42 19,-16 47,0 26,93 -19,91 53,156l-50 -12z"/>
   <path class="fil72" d="M19015 7359l-6 48c-55,-39 -46,47 -53,-40l-41 -104c144,52 87,-43 100,96z"/>
   <path class="fil73" d="M2948 9443c-3,-3 -43,-27 -48,-62 -24,-163 -45,-38 72,-81 -3,86 7,86 -24,143z"/>
   <path class="fil74" d="M19187 7969c-47,-30 -10,11 -45,-50 -1,-3 -19,-45 -27,-57l15 -32c40,-34 33,42 49,-43 -1,129 -11,65 50,147l-42 35z"/>
   <path class="fil70" d="M3490 5167l22 -19 8 142 -109 -29 43 -57c4,-5 14,-6 17,-19 4,-12 12,-12 19,-18z"/>
   <path class="fil45" d="M19516 9858l-35 6c41,-79 25,-28 34,-92 83,-7 55,-38 74,55 -30,58 49,57 -73,31z"/>
   <path class="fil23" d="M19113 7703c-3,-3 -7,-8 -8,-10l-38 -99 60 -22c55,81 8,61 29,111 2,4 7,11 9,15l-52 5z"/>
   <path class="fil36" d="M12703 5000l-95 -39 2 -53 83 12c38,34 6,-6 47,49l-37 31z"/>
   <path class="fil35" d="M8267 10745c24,-136 12,-110 154,-109l-154 109z"/>
   <path class="fil75" d="M12267 4907l-138 -14c76,-51 26,1 59,-85 41,55 -4,16 80,31l-1 68z"/>
   <path class="fil76" d="M6384 10586c49,-20 113,-57 145,22l-84 -37 55 122c-6,-4 -15,-16 -18,-11l-46 -34c-34,-32 -23,-24 -52,-62z"/>
   <path class="fil69" d="M19588 8398l-126 28c38,-93 22,-64 97,-101l29 73z"/>
   <path class="fil23" d="M19250 8271l0 -55 0 -48c125,28 -6,-22 89,139l-89 -36z"/>
   <path class="fil75" d="M5917 5098l23 75c-119,3 -74,-16 -95,-98l72 23z"/>
   <path class="fil61" d="M14148 10423c-38,32 26,37 -42,24 -85,-18 -49,-35 -58,-45 49,-63 60,-32 75,-24 4,2 13,9 15,11l12 24c1,1 -1,7 -2,10z"/>
   <path class="fil22" d="M6515 10998c61,-46 -36,-48 -38,-49l110 -62c-24,73 -12,30 10,115l-82 -4z"/>
   <path class="fil77" d="M12457 5635c-19,6 13,27 -58,4 -88,-27 -49,-30 -63,-52 70,-32 88,-7 121,48z"/>
   <path class="fil16" d="M7060 10689l-63 53c-13,-45 -42,46 -3,-101 64,10 68,-13 66,48z"/>
   <path class="fil78" d="M2547 6119c-42,-42 -35,-14 -48,-77l71 -19 18 67 -41 29z"/>
   <path class="fil79" d="M6308 10864c-83,-5 -61,-2 -133,22l-17 -42 46 27 48 -92c22,32 32,47 56,85z"/>
   <path class="fil64" d="M9638 5136l-99 -36c105,-55 43,-54 92,-46 9,23 31,-36 7,82z"/>
   <polygon class="fil80" points="2386,6829 2368,6876 2287,6874 2293,6807 "/>
   <path class="fil65" d="M16376 10355c-50,11 -35,2 -64,29 -35,-96 2,-6 -39,-50l-78 -51c72,12 132,29 181,72z"/>
   <path class="fil28" d="M2519 7826c-110,-35 -40,14 -76,-59 37,-33 -11,-15 77,-39 -31,48 30,40 -30,40 20,20 10,30 29,58z"/>
   <path class="fil57" d="M18090 4824c90,-6 105,-45 100,19 -39,36 13,36 -52,17 -53,-16 -35,-23 -48,-36z"/>
   <path class="fil81" d="M19247 10147l19 -71 77 60c-32,12 -24,24 -96,11z"/>
   <path class="fil79" d="M6943 6781c-81,-149 -12,-73 3,-90 43,59 51,36 -3,90z"/>
   <path class="fil82" d="M19436 7863l-55 33c-31,-165 -12,-45 26,-91l29 58z"/>
   <path class="fil79" d="M10656 10323l1 74c-79,-18 -53,24 -25,-88l-70 20 46 -25 48 19z"/>
   <path class="fil60" d="M18308 4833l56 15c16,59 31,22 -24,55 -72,-50 -19,26 -32,-70z"/>
   <polygon class="fil83" points="12867,11403 12890,11343 12929,11346 12940,11390 "/>
   <path class="fil84" d="M19555 10139l-15 -25 4 -65c21,23 31,10 32,45 0,69 16,-6 -21,45z"/>
   <path class="fil85" d="M2396 9132c-111,83 -41,13 -65,0 66,-43 -94,-54 36,-20l29 20z"/>
   <path class="fil86" d="M19539 10308c-30,-41 -26,-38 -4,-75 30,49 49,-3 4,75z"/>
   <path class="fil23" d="M10921 10327l23 -16c49,72 19,17 -1,44 -51,11 0,7 -22,-28z"/>
  </g>
 </g>
</svg>
