<?xml version="1.0" encoding="UTF-8"?>
<!DOCTYPE svg PUBLIC "-//W3C//DTD SVG 1.1//EN" "http://www.w3.org/Graphics/SVG/1.1/DTD/svg11.dtd">
<!-- Creator: CorelDRAW X8 -->
<svg xmlns="http://www.w3.org/2000/svg" xml:space="preserve" width="210mm" height="297mm" version="1.1" style="shape-rendering:geometricPrecision; text-rendering:geometricPrecision; image-rendering:optimizeQuality; fill-rule:evenodd; clip-rule:evenodd"
viewBox="0 0 21000 29700"
 xmlns:xlink="http://www.w3.org/1999/xlink">
 <defs>
  <style type="text/css">
   <![CDATA[
    .fil58 {fill:#170409}
    .fil77 {fill:#1C141A}
    .fil79 {fill:#250B18}
    .fil48 {fill:#26161B}
    .fil39 {fill:#271826}
    .fil10 {fill:#2B1C24}
    .fil72 {fill:#2E1932}
    .fil40 {fill:#33242C}
    .fil19 {fill:#342532}
    .fil42 {fill:#351C28}
    .fil9 {fill:#352A33}
    .fil78 {fill:#373539}
    .fil38 {fill:#38272A}
    .fil50 {fill:#392B44}
    .fil18 {fill:#3B2533}
    .fil4 {fill:#3B2C34}
    .fil74 {fill:#3C2D3B}
    .fil44 {fill:#432C34}
    .fil3 {fill:#432D3B}
    .fil2 {fill:#43333C}
    .fil36 {fill:#443443}
    .fil6 {fill:#49343D}
    .fil47 {fill:#4A4347}
    .fil5 {fill:#4B3543}
    .fil61 {fill:#4B3B44}
    .fil14 {fill:#4C3C4B}
    .fil13 {fill:#533C4A}
    .fil17 {fill:#53434C}
    .fil15 {fill:#544453}
    .fil55 {fill:#563B54}
    .fil46 {fill:#57475B}
    .fil59 {fill:#5A4A64}
    .fil12 {fill:#5B4453}
    .fil43 {fill:#5B4B54}
    .fil26 {fill:#5C4C5B}
    .fil81 {fill:#5C6691}
    .fil24 {fill:#634C5C}
    .fil45 {fill:#63535C}
    .fil20 {fill:#645463}
    .fil23 {fill:#654C63}
    .fil62 {fill:#67565A}
    .fil27 {fill:#685867}
    .fil65 {fill:#696369}
    .fil49 {fill:#6B6775}
    .fil31 {fill:#6F5B72}
    .fil35 {fill:#745A69}
    .fil76 {fill:#75656B}
    .fil68 {fill:#7589A5}
    .fil41 {fill:#786876}
    .fil63 {fill:#7A727A}
    .fil51 {fill:#836A78}
    .fil67 {fill:#86767A}
    .fil53 {fill:#887986}
    .fil70 {fill:#8B838A}
    .fil69 {fill:#8E6F6D}
    .fil54 {fill:#8F768B}
    .fil22 {fill:#968789}
    .fil57 {fill:#978A96}
    .fil56 {fill:#9B9399}
    .fil75 {fill:#9F847E}
    .fil66 {fill:#A69799}
    .fil71 {fill:#A89AA5}
    .fil80 {fill:#AB9090}
    .fil82 {fill:#ABA3A9}
    .fil73 {fill:#B1ADB1}
    .fil30 {fill:#B5A59B}
    .fil64 {fill:#B6CCE0}
    .fil29 {fill:#B7A8A9}
    .fil16 {fill:#B7ABB4}
    .fil32 {fill:#BBB4B8}
    .fil11 {fill:#C5B5AB}
    .fil28 {fill:#C7BAB7}
    .fil33 {fill:#CCC3BB}
    .fil60 {fill:#CDC4C3}
    .fil25 {fill:#D4CBC4}
    .fil8 {fill:#D5CCCB}
    .fil52 {fill:#DACDC4}
    .fil34 {fill:#DCD3CC}
    .fil7 {fill:#DCD3D3}
    .fil37 {fill:#E4DCDB}
    .fil21 {fill:#E8E4E9}
    .fil1 {fill:#EAE5DE}
    .fil0 {fill:#FEFEFE}
   ]]>
  </style>
 </defs>
 <g id="Ebene_x0020_1">
  <metadata id="CorelCorpID_0Corel-Layer"/>
  <g id="_1602236037840">
   <path class="fil0" d="M8030 4560l-155 -2 -196 8c-91,-1 -161,15 -245,26 -58,8 -102,-22 -211,-13l-120 4c-86,7 -159,0 -221,7 -41,5 -205,18 -226,15l-166 -11 -104 30c-26,-15 -19,-1 -51,-34 -26,22 5,12 -52,22 -2,1 -60,1 -61,1 -18,10 -263,26 -320,37 -106,21 -185,31 -289,52l-99 -8c-1,-4 -6,-3 -9,-4 -60,45 -58,24 -143,37l-66 -9 -52 17 -553 19c-38,10 -117,-1 -183,1l-60 -1 -162 6 -78 -11c-29,-11 1,-10 -48,-7 -21,2 -85,15 -110,17 -38,2 -89,-8 -119,-4 -99,9 40,30 -95,8 -232,-39 -356,20 -444,5l-397 39 -100 17 -122 15c-51,39 -94,28 -182,66l-81 39c-248,121 -94,179 -218,196l-21 97 9 50 -25 25c8,85 23,116 -16,160 44,86 23,123 12,216 30,27 4,105 9,158 17,119 15,120 11,245l-13 301c-7,67 -14,57 -31,79l8 2c-2,35 8,28 -24,28l23 42 0 130 1 29c30,58 30,73 31,145l-1 1c28,35 18,1 25,69 3,109 32,189 64,276 13,35 15,31 29,58l69 184 78 105c20,74 13,32 49,103 35,40 51,67 65,108 24,18 41,33 58,50 24,12 39,18 80,20l48 88c15,14 15,10 28,27 19,26 5,6 23,38 75,1 23,-3 42,25 22,10 6,-2 29,16 7,5 26,23 37,33 38,34 34,34 85,55l24 24 571 173c51,6 94,13 138,22l226 53 10 5c11,-31 51,-23 82,-14 90,29 224,75 306,41 68,55 65,14 122,57 76,7 57,10 120,-7l24 9c144,14 104,42 193,55l50 7c3,-1 7,-4 9,-5l56 -2c23,18 4,6 32,21 41,-16 243,-6 282,-8 47,-2 95,-9 142,-11 85,16 116,20 181,-27 81,29 50,44 148,26 32,-39 111,1 144,-1 22,-2 94,-39 124,-11l251 -8c66,-1 373,-77 424,1l24 -32c90,-7 202,3 269,1 102,-4 144,-67 243,-43l86 -2c201,-36 204,-59 260,-6 136,-84 338,-19 450,-79l23 13c81,-28 71,-3 167,-1l-2 -13c175,-4 337,-31 536,-9l107 -15 83 1 70 -5 643 -15c86,6 -2,19 90,7 47,-6 86,-8 135,-6 159,8 314,-8 467,-25 73,-8 403,-51 416,-43l95 -3c87,-43 90,-8 230,-39 137,-30 -7,-27 179,-17 183,10 180,-50 413,-35l277 23c57,2 102,19 134,16l143 -16 33 22 36 -18 458 38c24,-3 61,-12 95,-12 198,4 871,98 1003,87 126,13 281,30 416,21 255,-18 92,31 382,30 770,-3 644,-58 1521,167 126,33 442,163 569,243l44 34c89,-4 86,45 197,56 28,50 -6,18 52,25 36,5 83,31 229,52 75,11 60,13 85,53 27,-33 3,-27 58,-30 121,-2 257,-21 359,96 79,37 57,27 152,39l38 -27c70,28 16,-5 18,17 105,8 83,-19 190,11 182,53 117,28 153,14 82,-33 20,8 150,-19 85,-18 60,38 182,-22l52 36 49 -37c112,60 89,5 314,-7 96,-5 258,-104 336,-150 62,-37 52,10 77,-59l15 -52c-3,-65 52,-104 74,-155 16,-39 30,-135 42,-185 0,-127 -2,-83 23,-206 12,-61 -4,-169 -4,-250 26,-25 -29,-29 34,-23l-29 -64c-1,-5 -13,-62 -14,-71 -15,-93 -55,-314 -39,-392l-64 -50c-4,-200 -42,-193 -10,-265l-52 -78c-1,-3 -3,-8 -4,-12l-12 -48c-55,-61 1,-22 -56,-87l17 -21c4,-45 -24,-99 -59,-135l35 -58c-34,-19 -58,-6 -54,-137 2,-68 -13,-99 -63,-134l19 -69c-51,-70 -32,11 -40,-86 -42,-42 -39,-38 -67,-94l10 -63c-23,-31 -73,-259 -73,-279 -55,-42 -47,-37 -48,-117l-44 -4c3,-89 -3,-20 -35,-104l-51 -137 64 -69 114 29c-5,-105 -26,-77 -2,-188 -78,-55 3,-1 -25,-149l4 -54 -32 -9 -8 -90 -41 -12c-62,-72 -33,-38 -64,-119l-48 9c-47,-90 -61,-86 -172,-107 -265,-51 -272,2 -429,-25l-1917 -124 -88 -3 -145 0c-55,-2 -67,3 -110,8 -75,8 -29,0 -110,-20l-22 21 -56 8 -474 14 -75 3 -122 -5 -328 -3 -102 2 -235 -9 -26 -13c-27,30 -31,19 -87,19 -123,10 -279,16 -416,10 -54,-2 -144,-5 -189,-3 -83,3 -113,19 -191,7l-298 -7c-26,-1 -105,4 -148,4 -67,1 -86,-1 -147,-2l-9 -1 -73 -2 -208 13 -121 -1 -89 5c-114,-13 -468,2 -551,41 -156,-74 -234,3 -358,-27 -1,0 -24,-5 -27,-12 -3,-6 -9,-5 -13,-7 -74,52 -101,8 -208,20 -186,22 -421,43 -626,21l-28 1c-87,7 -84,-10 -160,-12 -47,0 -102,6 -155,6 -91,0 -209,7 -294,0l-295 -9c-91,-5 -174,-38 -257,-11 -12,-12 -5,-19 -10,-28l-61 13 -193 -14 -179 -1 -96 -19 -163 -8 -125 3 -395 -4 -321 26z"/>
   <path class="fil1" d="M17774 9256c-82,1 -108,-7 -183,-29 -44,-13 -145,-2 -150,-30 -64,-11 -78,-8 -131,21l-48 -41c-30,-16 -41,-7 -80,-26 -141,9 1,-10 -135,-43 -61,-15 -42,17 -67,-48 -94,11 -62,21 -141,-22 -22,14 -35,22 -69,37 -58,-49 5,-18 -69,-35 -166,-38 -72,-48 -191,-31 -49,-39 -56,-43 -142,-66 -62,-17 -135,-5 -138,-27l-66 20c-50,-48 -46,-59 -103,-49 -77,1 -79,-22 -144,4l-24 -58c-64,4 -43,4 -97,22 -77,-86 -25,-9 -128,-39 -18,-6 -77,-48 -92,-59 -90,37 -96,35 -139,-13 -51,14 -13,16 -70,11 -73,-6 -37,-7 -44,-22l-39 -7 -21 21c-56,-49 3,-2 -119,-48 -60,-23 -85,-9 -134,2 -51,-11 -53,-14 -98,-22 -52,0 -55,-14 -85,-29l-89 -39c-54,53 -137,55 -200,-7 -64,18 -41,39 -124,17 -49,-12 -59,-33 -115,-9l-26 -14 -76 -16c-5,-2 -40,-17 -43,-18 -27,-6 -36,-3 -66,-6 -49,-5 -54,-13 -87,-15l-25 35c25,42 28,29 2,65 -48,-69 15,-36 -77,-89 18,63 26,40 -4,96 -70,-78 12,-7 -49,-115 -17,-37 10,-6 -25,-29 -60,38 -12,15 -137,-6l-240 -36c-80,34 -94,-3 -167,-16 -64,-18 -49,-19 -104,-21 -133,-3 61,-30 -160,-8 -7,1 -27,1 -34,1 -75,4 -63,9 -141,-5 -2,22 -2,50 -7,69 -12,42 -8,22 -31,45 -26,-74 -23,-43 5,-109l-42 12c-191,-65 -84,7 -168,-49l-50 38c-36,-47 -22,-54 -40,-23 -90,-16 -63,-23 -150,1 -28,-18 -38,-27 -54,-45 -135,71 -292,4 -465,14l-69 26c-67,65 2,23 -74,60l-70 -53c-10,66 -7,14 1,61 6,31 15,-5 8,34l-105 6 5 -70 -89 -32c-8,-51 4,-9 7,-12l-47 0c-78,-12 -43,11 -104,-24l-46 27c-3,1 -7,3 -11,4l-583 61c-70,-5 -73,-3 -130,11 -67,17 -174,21 -233,46l-34 -23c-40,-21 -76,-54 -92,32 -115,-17 -951,26 -976,31l-41 -3c-176,-7 -379,-25 -530,0 -89,14 -12,-16 -100,-2 -96,15 -255,30 -358,-6l-50 40c-64,-13 -49,-12 -116,2 -80,16 -45,3 -96,3 -56,-1 -27,17 -83,23 -45,4 -61,-13 -97,-5 -29,6 -35,21 -89,30 -128,20 33,-30 -193,18 -19,4 -90,15 -104,14 -41,-3 -46,-24 -79,-22 -1,0 -105,15 -106,15 -248,40 -386,52 -646,34l-52 34c-112,-75 -80,22 -294,-13 -44,21 -255,20 -308,22 -81,4 -110,-4 -161,-4 -82,2 -38,27 -139,13 -4,61 -11,12 11,83l-173 85c-29,-63 -5,-35 -68,-72 15,-51 33,-51 35,-63 2,-8 7,-9 9,-13 -123,43 -42,10 -72,-6 -4,-1 -110,-9 -138,-9l-82 56c-39,-8 -40,-8 -75,-11 -5,0 -19,-1 -22,-1l-19 -58c-51,3 -95,49 -98,-13 -21,-4 -146,-10 -154,-10l-52 -3c-53,-49 -2,-16 -102,-17 -19,-1 -52,-5 -69,-10l-71 -26 14 7 -23 28c-2,-3 -7,9 -12,11 0,3 11,15 27,58 -104,9 -42,16 -128,34 -24,-39 -29,37 -19,-56 -4,1 -9,4 -12,5 -60,27 -34,21 -62,-36 -5,3 -9,11 -16,17 -30,29 -10,10 -37,28l21 -48c-5,-1 -45,-10 -46,-11 -4,-1 -9,-4 -13,-5 -3,-1 -8,-4 -11,-5 -62,-21 -87,8 -140,42l1 55c-75,0 -78,-15 -136,-5 -94,117 8,56 -86,124 -44,-42 -18,-47 -84,-13l15 -49c-62,17 -21,15 -81,-3 53,-38 23,7 41,-43 -12,-22 -18,-31 -30,-59 -31,15 -16,8 -30,18l-17 17c-34,-54 -36,-14 -62,-70 2,-4 7,-8 9,-11 69,-75 35,7 40,-70 30,19 -43,-47 -158,-49 13,3 14,-9 24,13 30,66 -1,19 -11,36 -84,-34 -40,-3 -63,-64 -8,37 -21,52 -38,81 -44,-1 -78,4 -121,-3 -76,-12 -53,-15 -82,-37l28 -19c107,-70 19,-41 78,-77 -42,-9 -90,83 -118,5 18,28 9,7 17,57 -154,91 -41,33 -64,91 -70,22 4,1 -79,-11 28,-76 64,-77 11,-151l-44 -43c-22,-21 -46,-2 -15,-118 41,34 32,53 41,68 8,13 27,18 28,23l4 -74 -34 -38 -57 -3 -14 -36 -102 -20c-21,22 -11,6 -37,30 -47,45 20,7 -53,45 -39,-88 10,-48 39,-152l-32 -9 -27 -10c55,76 12,56 8,64 -58,-27 -35,7 -60,-63 -31,19 -18,10 -66,13 22,-25 31,-28 28,-56 -48,-67 -30,-8 -89,-70l-89 18c6,50 -27,30 23,42l-55 45c-14,-47 -13,-64 -29,-119 -17,-3 -21,-1 -37,-9 -40,-19 -5,-1 -31,-28 22,-59 57,-67 111,-85 -55,-67 -8,-31 -1,-47 39,-8 58,5 91,20l-13 -48c-37,-56 -29,-89 -59,-134 -52,-80 -37,-7 -83,-122 -10,-35 -2,-37 -19,-71 -23,-44 -1,5 -24,-31 -56,-88 -1,-80 -86,-143 -3,-4 -23,14 -32,-37 -52,9 -55,17 -108,31 18,-145 70,-16 114,-128l-94 1c34,-92 -10,-22 -32,-97l95 -3c-30,-32 -4,-19 -52,-44l8 -41c3,-51 4,-19 12,-76l-7 -11c-40,-4 -28,17 -57,-7 -45,-71 16,22 -58,5 -4,-12 -23,25 -7,-36l12 -20c3,-4 16,-14 18,-17l-8 -69c-77,16 -25,18 -61,63 -26,-8 -9,1 -38,-9 -40,-13 -18,-7 -43,-21 15,-105 23,-19 60,-121l-34 -56c-1,-8 -7,-9 -10,-14l26 -24c12,-25 4,45 -4,-14 -19,-130 13,-25 -84,-173l52 -23c3,-6 8,-5 12,-8 -40,-63 -4,-14 -75,-58l60 -13 37 -133c18,-9 17,-3 42,-9l-54 -80c0,-3 -3,-3 -4,-6 13,28 29,-20 10,35 -19,52 -8,24 -56,56 6,-126 8,-111 -20,-240l78 4c42,-68 1,-38 -1,-52 -1,-4 -6,-4 -9,-6 5,-63 4,-162 18,-207l-22 -23c-1,-1 -5,-4 -5,-5l-29 -37c83,-6 13,3 56,-23l29 -96c-27,96 -65,20 -66,20l10 -60c-71,39 -110,36 -97,133 -92,-2 -73,63 -113,129l-97 169 26 70 -78 43c4,54 23,98 -3,141 -24,-62 8,-23 -37,-44 -8,148 -13,56 -54,171 -19,54 -6,102 2,186l68 -31 15 102 34 -66c14,38 9,26 38,49 3,3 17,10 21,13 27,20 11,9 29,24 -8,37 -11,43 -14,81 -2,12 3,4 -3,28l-19 48c54,33 -1,22 87,33 -31,35 -3,52 17,69 -36,19 10,25 -66,5 18,125 8,-9 -1,132 50,20 36,44 56,89 -49,26 -18,-26 -26,32 -6,40 -1,20 11,54l51 -12c-2,67 18,81 38,127l-72 -36c-2,70 -12,111 58,141 -10,11 -17,7 -26,31 -24,69 37,120 54,152 30,53 51,60 101,42l263 722c2,3 6,7 8,10l82 128c44,56 87,98 147,78l-14 29c-2,3 -7,9 -9,12 -24,32 -3,80 8,108 15,39 65,-21 71,107 89,-1 53,6 97,55 2,3 5,7 8,10l47 42c9,6 22,17 29,23 38,30 72,28 124,28l41 -58c40,29 24,28 70,53 -23,24 -10,50 -3,71l205 -26c1,1 4,3 6,4 -120,21 -49,91 -39,181 95,5 20,5 62,22 49,20 209,26 246,11l35 37c44,-12 40,-22 81,-4l-15 -67 191 -10c4,0 10,-1 14,-1 59,1 109,26 162,21 4,0 10,-2 14,-2l30 -13c-16,75 13,35 24,45l106 -40c6,15 7,24 11,41 14,65 -5,15 14,56 37,9 37,7 75,4 30,-2 38,-47 19,7 80,-3 86,15 122,-36l4 62c84,3 61,16 145,18 -5,-36 -8,11 46,21 78,15 -9,-22 99,6 14,-14 18,18 34,-56 105,-3 13,54 107,23 -3,6 -48,0 2,98 52,6 25,17 52,-17l-1 -19c0,-1 -3,-1 -4,-1 57,30 91,58 146,-6l27 60c111,3 101,-11 210,35 4,2 8,4 11,5l84 43 41 -119c16,24 19,40 2,71 46,-4 45,-9 85,-18 3,3 7,4 9,9l43 24c39,-46 63,-16 121,-41l17 48c66,-49 17,-36 -8,-100 -34,-86 33,-55 78,-41 -18,-50 3,-4 -22,-30 -27,-30 -14,9 -33,-41 83,-42 122,12 204,-20 70,-28 35,8 57,-48 -42,-62 56,18 -24,-25l-40 -15c-4,-2 -10,-5 -13,-7 -3,-2 -8,-5 -12,-8l209 4c9,90 -18,32 37,49l21 -45c33,-37 -15,-19 67,-24 -28,84 -1,-1 -45,63 -18,26 -18,40 -21,74l95 2c2,-59 -1,-57 27,-96 31,-42 28,-34 87,-45 -5,61 -1,67 -21,108 26,44 18,17 37,72 -30,-9 -61,-56 -70,-1 -10,60 15,63 65,72 2,-4 4,-15 5,-13l45 -43c1,3 13,25 15,29l46 -4c20,3 20,12 58,6 6,-1 41,-16 49,-21l26 -27c2,-2 6,-7 8,-9 1,-1 5,-6 8,-9l70 8c59,-64 40,-43 142,-21 -6,-74 -13,-58 10,-110 74,23 55,52 89,103 27,-39 17,-18 19,-82 44,22 100,19 154,33 -7,-112 2,7 -32,-87 51,13 95,42 104,96 21,-32 58,-34 101,-46l35 48c85,-34 6,7 51,-5l54 -41 48 39c23,-43 35,-66 35,-121 -67,0 -166,27 -205,16 -50,-14 -42,-48 -94,-23 -12,6 -1,20 -31,14 -35,-7 -11,-8 -20,-29l26 -12c100,-17 125,29 211,-33l88 -33c-22,55 -15,39 -57,58l155 14c-1,91 -20,56 -14,146l23 -56 138 62c22,15 23,17 42,28l91 -49c3,-2 7,-5 11,-7 66,-37 136,-37 200,-25 75,14 57,-10 113,26 45,-27 45,-33 118,-36l-21 -65c85,11 95,42 185,47 -3,3 -10,4 -11,10l-14 18c-5,47 8,15 23,26 -27,26 3,14 -51,33 44,20 10,-22 29,25 10,23 1,26 7,45 27,75 85,22 272,46l20 -21c2,-2 11,-13 14,-18l28 54c55,-16 123,-25 163,-45 19,12 39,24 69,39 80,-44 40,-17 116,-41 60,-19 132,-65 203,-76 36,-5 80,14 124,3 52,-13 -16,-5 47,-23 103,-29 329,7 470,-12 46,99 54,45 113,5 46,10 25,7 41,15 60,32 -24,-1 45,26 -12,-50 2,-29 -38,-52 48,-16 40,-29 73,-71l104 100 -4 -53c106,-2 91,-52 159,-80l8 134c17,-50 19,-113 -9,-152l-20 -18c85,15 91,5 129,84 55,-32 102,-33 138,18 19,-27 13,-21 49,-35l50 38c49,13 208,-7 249,-15 69,-14 97,-6 115,-57l52 23c2,0 7,1 9,2l21 134 60 18c-34,36 -45,-29 -2,58 33,-17 68,-40 56,-83l-95 -7 20 -111c100,-3 47,-28 174,-1 34,-2 83,-52 260,-32 19,-18 20,-20 51,-32 13,47 -6,20 40,35 10,-53 15,-49 47,-87 8,11 67,18 -14,82 35,11 30,16 67,18l65 -6c35,4 34,35 88,28 42,-5 15,-3 36,-19 -17,-42 -34,-23 -49,-67 89,4 58,28 154,36l28 -56c6,76 53,97 110,120 21,-24 36,-41 54,-66 72,17 29,18 102,1 24,35 10,41 54,69 -10,-43 -8,-32 -20,-74 54,14 20,4 71,24 -2,-90 5,-90 92,-83l21 -61 112 105 -16 115c74,20 68,3 170,3l35 47c60,-28 25,-12 81,2 -42,-38 -29,-14 -37,-88l88 30c3,1 8,0 10,1 2,0 8,0 10,1l56 44c4,-2 10,-8 11,-5l45 -31c52,35 31,16 113,16l18 -85 38 91 72 -1c-11,-46 -8,-28 -21,-71l101 4c12,15 23,35 37,49 32,34 12,28 73,33l-4 86c71,12 52,21 113,12 84,-11 64,-21 105,-35l78 9c145,61 173,-11 372,25 62,11 170,-12 250,-16 102,26 193,109 278,40 15,35 -31,28 33,36 63,7 10,4 53,-18l33 59c86,3 126,16 209,2 90,45 74,39 191,36 37,25 7,8 33,26 42,28 69,12 129,44 72,38 65,73 166,69 66,-3 33,-17 89,3 85,32 164,82 258,86 77,4 98,1 165,32 147,68 267,-1 378,35 69,22 155,16 189,-39 56,11 79,20 148,21 36,-41 40,-62 82,-86l21 -11c-24,-20 -40,-28 -50,-70 41,11 59,19 86,0l36 54c238,-151 442,-12 579,-133l68 -69c56,-55 143,-75 184,-125z"/>
   <path class="fil2" d="M10895 8228c32,43 -76,49 71,29 39,-5 27,-21 76,-8l-68 24c-50,12 -58,37 -39,0 -4,4 -8,10 -10,14l-28 59c-32,-20 -35,-8 -55,-49 -16,6 -65,20 -73,22 -10,-27 6,-43 11,-52l20 -36c-13,-8 -343,35 -416,43 -153,17 -308,33 -467,25 -49,-2 -88,0 -135,6 -92,12 -4,-1 -90,-7l-643 15c-23,45 -8,25 -49,61 -24,-37 -16,46 -21,-56l-83 -1c-45,88 -8,59 -54,115 -37,45 -24,39 -102,42 15,-58 2,-44 44,-102l5 -40c-199,-22 -361,5 -536,9l2 13c6,-1 31,-4 36,-3 55,12 38,11 68,37 -61,48 -82,24 -85,24 -8,0 -12,-3 -19,-3l-51 45c-17,-14 -9,-9 -33,-26l-33 -21 -21 60c0,0 -106,-119 -29,-112l-23 -13c-112,60 -314,-5 -450,79 -56,-53 -59,-30 -260,6l-34 47c-28,-20 -7,-3 -28,-22l-24 -23c-99,-24 -141,39 -243,43 -67,2 -179,-8 -269,-1l-24 32c-51,-78 -358,-2 -424,-1l-251 8 6 45c-12,31 -29,74 -3,105 36,45 75,18 100,5l1 50c214,35 182,-62 294,13l52 -34c260,18 398,6 646,-34 1,0 105,-15 106,-15 33,-2 38,19 79,22 14,1 85,-10 104,-14 226,-48 65,2 193,-18 54,-9 60,-24 89,-30 36,-8 52,9 97,5 56,-6 27,-24 83,-23 51,0 16,13 96,-3 67,-14 52,-15 116,-2l50 -40c103,36 262,21 358,6 88,-14 11,16 100,2 151,-25 354,-7 530,0l24 -41c18,-31 2,-16 27,-37 9,69 14,5 -10,81 25,-5 861,-48 976,-31 16,-86 52,-53 92,-32l34 23c59,-25 166,-29 233,-46 57,-14 60,-16 130,-11l583 -61c4,-1 8,-3 11,-4l46 -27c61,35 26,12 104,24 25,-43 -4,-27 72,-19l319 -30c18,58 -5,6 42,29 173,-10 330,57 465,-14 16,18 26,27 54,45 87,-24 60,-17 150,-1 18,-31 4,-24 40,23l50 -38c84,56 -23,-16 168,49l42 -39 33 22c78,14 66,9 141,5 7,0 27,0 34,-1 221,-22 27,5 160,8 55,2 40,3 104,21 24,-17 57,-23 99,-21 23,1 21,-1 42,8 49,21 -1,-4 26,29l240 36c125,21 77,44 137,6 35,23 8,-8 25,29l153 8c33,2 38,10 87,15 30,3 39,0 66,6 3,1 38,16 43,18 0,-87 2,10 -12,-51 -31,-129 -14,-25 6,-69l108 81 -26 55 26 14c56,-24 66,-3 115,9 83,22 60,1 124,-17 63,62 146,60 200,7l89 39c30,15 33,29 85,29 3,-2 9,-9 11,-5l92 -16 -5 43c49,-11 74,-25 134,-2 122,46 63,-1 119,48l21 -21 27 -55c14,18 52,-36 12,62 7,15 -29,16 44,22 57,5 19,3 70,-11 43,48 49,50 139,13 15,11 74,53 92,59 103,30 51,-47 128,39 54,-18 33,-18 97,-22l24 58c65,-26 67,-3 144,-4 32,-36 -48,-39 51,-26 20,-4 -22,-37 92,6 24,-113 -22,-34 60,-62l-34 111c3,22 76,10 138,27 86,23 93,27 142,66 119,-17 25,-7 191,31 74,17 11,-14 69,35 34,-15 47,-23 69,-37 79,43 47,33 141,22 25,65 6,33 67,48 136,33 -6,52 135,43 61,-24 25,-28 114,-44l51 75c84,-21 83,2 94,15 5,28 106,17 150,30 75,22 101,30 183,29l34 -6 -35 -44c101,0 76,26 105,-35l34 17c24,2 26,-28 28,-20l12 -25c2,-9 4,1 -7,-16l-5 -45 20 -19c-95,-12 -73,-2 -152,-39 -99,-10 -250,-22 -328,-52l-63 2c0,94 5,27 -24,53 -14,-17 -24,-31 -40,-51 -5,-3 -15,-12 -18,-14 -80,-72 -149,-34 -202,-43 -5,-3 -32,-21 -38,-23 -50,-17 -92,1 -144,-28 -59,-34 -15,10 -45,-50 -44,78 1,17 -49,43 -58,-22 -88,-24 -114,-64 -50,9 -256,-31 -325,-44 -135,-24 -43,-21 -121,-45 -159,-47 -188,37 -214,-65l-40 64c-19,-17 -15,-16 -22,-23 -23,-19 -9,-6 -28,-21 -18,-14 -2,2 -29,-23 -1,-1 -22,-26 -25,-28l-71 9c-42,6 -61,-7 -111,-15l-17 -44 -22 -19c-25,66 -16,41 -126,22 -77,-14 -77,9 -104,-39l-111 -18 -62 40 -15 -53c-273,14 -148,-20 -226,-40 -122,11 -122,2 -206,-5l-209 -29c-70,-11 -124,-19 -208,-23 -51,-3 -23,0 -64,-11 -138,-35 -132,-67 -191,-3 -56,-87 -79,-29 -176,-56 -75,-21 -49,-19 -110,-3l-14 -48c-132,11 -805,-83 -1003,-87 -34,0 -71,9 -95,12l-458 -38c-28,86 28,17 -35,90 -21,-29 1,33 -26,-47 -2,-5 -7,-40 -8,-47l-143 16c-32,3 -77,-14 -134,-16l-277 -23c-233,-15 -230,45 -413,35 -186,-10 -42,-13 -179,17 -140,31 -143,-4 -230,39z"/>
   <path class="fil3" d="M16414 4536l1917 124c157,27 164,-26 429,25 111,21 125,17 172,107l48 -9c108,-13 11,15 109,34 31,-97 -2,-49 52,-76 0,0 46,-19 19,62 -21,61 5,4 -59,34l-25 16c0,-2 -2,3 -4,4 -51,0 -36,-10 -28,45l41 12 8 90 32 9 26 38 -30 16c28,148 -53,94 25,149 -24,111 -3,83 2,188l-114 -29 -64 69 51 137c32,84 38,15 35,104l44 4c14,-19 27,-16 41,-28l17 -48 41 92c-13,97 -24,-26 -51,101 0,20 50,248 73,279l109 70c-1,80 11,-2 -37,35l-20 -11 5 63c8,97 -11,16 40,86l-19 69c50,35 65,66 63,134 -4,131 20,118 54,137l-35 58c35,36 63,90 59,135 3,4 9,4 10,10 4,19 13,-12 24,26 1,1 -1,44 5,72l12 48c1,4 3,9 4,12l52 78c-32,72 6,65 10,265l64 50c-16,78 24,299 39,392 1,9 13,66 14,71l29 64c-63,-6 -8,-2 -34,23 0,81 16,189 4,250 -25,123 -23,79 -23,206l53 6c-1,119 -69,64 -29,75 4,99 -30,96 -22,134l28 76c-43,-22 -18,0 -81,0 -3,0 -9,-2 -12,-2l-53 51 -15 52 25 4 14 58c6,2 16,5 19,6 3,0 10,2 12,2l54 -39c60,10 29,-30 52,36l36 -39c4,-10 8,-33 8,-38 0,-1 -3,-33 -4,-37l61 -38c-3,-126 38,-92 44,-209 1,-16 36,-173 63,-208 -45,-12 -19,7 -35,-36 60,-72 -9,-719 -29,-783 -28,-87 -25,1 -42,-97 -9,-57 -5,-102 -4,-157 -7,-31 -56,-22 -54,-207 -4,-3 -10,-15 -12,-11 -2,4 -9,-8 -12,-9 -2,-2 -16,-12 -21,-15l3 -46 -91 20c28,-65 17,-45 72,-68l-186 -671c-81,-154 -38,-232 -115,-306 3,51 7,53 -19,102 -40,35 -23,-7 -62,-17 -23,-90 -29,-59 -4,-156l33 17c10,-111 38,-11 92,-126l10 39c4,-3 8,-14 9,-11 13,27 0,-16 43,-49 -67,-54 7,-130 -87,-329 -30,-63 -12,-70 -43,-95 -3,2 -7,4 -8,6 -2,1 -7,5 -9,7l-21 20c-2,-4 -7,8 -11,12 -12,-123 -38,-87 -52,-131 95,-40 4,-30 107,-40l-43 -324c-10,-23 -49,-21 -83,-117 -46,9 -25,-8 -56,19 -7,-25 -19,-69 8,-77 -36,-16 -23,27 -32,-35 -75,-62 -118,-58 -163,-173 -58,20 -110,-6 -205,7 -109,15 -103,-30 -310,-20 -64,3 11,-6 -75,-15 -120,-14 -87,58 -224,-16l-38 12 50 52c-54,79 -89,-5 -101,-52 -117,-4 -71,-19 -177,8 -14,26 -15,6 -5,65 -131,-21 -88,0 -93,3 -12,-14 13,-47 -52,-85l-17 90c-207,-69 -144,37 -188,-94l40 -26c-114,-5 -168,8 -261,-11l-13 36 63 8c-34,58 -18,35 -66,60l-77 33c-8,-11 -29,-60 0,-39 -24,-47 -17,-51 0,-100l-69 43c-41,-10 -34,4 -34,-29 -93,13 -43,-21 -116,-24 -40,-2 -122,7 -163,16l-62 -21 -5 98c-22,-16 -39,-26 -71,-44 0,0 -16,14 -26,21l-42 24 -51 -82c38,8 41,9 92,12l-24 -46 -121 -6 0 21c-36,9 -38,10 -77,17 41,-4 34,-6 36,35l-97 22c-140,-16 102,58 -48,-20l55 109z"/>
   <path class="fil4" d="M2937 8237l4 71 34 38c10,1 64,6 70,8 5,1 10,2 15,4 4,1 8,3 12,5 28,15 15,14 30,30l49 4 232 47 -19 -59c-5,4 -15,10 -17,12l-4 -52c34,28 11,19 46,24l110 25 5 79c15,16 -20,10 50,29 27,7 46,8 78,11l20 36 57 5c15,-64 40,-45 78,-11 20,0 -10,-15 46,5 42,15 20,8 36,28l84 -1 46 23c38,-81 53,-21 103,6 132,11 91,27 143,-6l24 52c200,-79 -55,21 159,15l-14 -7 5 -59 98 14c6,1 46,1 52,1 -3,11 -3,90 -17,33l104 -13c0,1 1,3 1,3l2 11c0,3 4,28 6,34 87,0 8,-7 43,32 8,0 133,6 154,10l61 22 -15 -68c62,24 35,-16 52,59 38,18 11,-25 37,34 54,-24 20,-21 64,-28l15 64 82 -56c20,-51 25,-1 -18,-104 108,9 65,22 91,-15 17,-12 41,22 4,-54l87 -19 35 67c3,5 14,25 17,30l-70 26 -8 78c102,-13 154,-6 258,-14 101,14 57,-11 139,-13 51,0 80,8 161,4 53,-2 264,-1 308,-22l-1 -50c-25,13 -64,40 -100,-5 -26,-31 -9,-74 3,-105l-6 -45c-30,-28 -102,9 -124,11 -33,2 -112,-38 -144,1 -23,22 39,20 -61,39 -50,149 -80,4 -169,57l45 -84c-42,15 -113,50 -144,-11 -47,2 -95,9 -142,11 -39,2 -241,-8 -282,8 -28,-15 -9,-3 -32,-21l-56 2c-2,1 -6,4 -9,5l-50 -7 -16 46c-1,-1 -30,-21 -33,-22 -127,-63 90,11 -29,-6 -93,109 -102,-43 -115,-73l-24 -9c-11,99 8,-2 3,73 -5,53 -5,25 -20,45 -3,-3 -6,-7 -7,-9l-6 -18c-31,-109 -63,-31 -79,-76 -2,-5 -8,-5 -11,-8 -57,-43 -54,-2 -122,-57 -82,34 -216,-12 -306,-41 -31,-9 -71,-17 -82,14 52,65 9,33 -12,45l2 -50 -226 -53c-44,-9 -87,-16 -138,-22l-571 -173c-65,17 -68,38 -103,88 22,-19 17,24 17,-18l-88 1 13 39z"/>
   <path class="fil5" d="M9537 4433c57,8 26,-3 80,25l-16 49 -33 -7c-33,-7 -18,-54 -20,15 -2,42 0,12 15,49 5,9 -2,16 10,28 83,-27 166,6 257,11l295 9c85,7 203,0 294,0 53,0 108,-6 155,-6 76,2 73,19 160,12l15 -52c41,43 17,-14 13,51 205,22 440,1 626,-21 107,-12 134,32 208,-20 4,2 10,1 13,7 3,7 26,12 27,12 124,30 202,-47 358,27 83,-39 437,-54 551,-41 -40,-36 62,-32 -72,-35 40,-63 51,-15 67,-121l-83 18c-38,45 -34,21 -100,61 -64,-34 -25,7 -68,-45 43,-61 27,29 51,-46 4,-10 12,-9 17,-14l-208 16c-11,42 -12,16 0,41 143,-1 26,-1 126,44 -21,20 -1,29 -39,53l-21 -37c-42,-46 -29,19 -35,-65l-67 69 -50 -36c4,-30 -24,-15 45,-30l-28 -40 -31 -6c-35,52 -16,104 -32,68 -1,-3 -4,10 -6,16l-68 -17c4,-11 14,-53 15,-57l-40 -12c-29,30 -7,32 -104,36l52 41 -116 11c-33,3 -19,4 -56,2 -33,-52 -6,45 -3,-42 0,-7 5,-8 8,-12l-42 -6c-56,-9 -110,-13 -166,-16 -104,-5 -56,10 -137,25 -23,4 -252,-7 -295,-10 36,48 104,23 140,97 -79,16 -76,30 -99,-33l-41 70c-95,-1 -82,4 -122,-47l-63 22c8,-85 22,-48 79,-85 -44,-14 -42,-10 -88,-9 -57,1 -38,2 -88,27 -43,-42 -143,-29 -194,-23 -28,114 -59,90 -95,109 -28,-68 -52,-11 -20,-87 -47,0 -30,2 -68,-9 -6,-2 -12,-3 -17,-12 -5,-9 -11,-9 -16,-14l-161 2 -12 -18 15 41c11,54 2,50 -40,60 -8,1 -57,-4 -69,-9 -40,-15 -70,-46 -97,-92 -25,57 -26,34 0,103 -67,-12 -91,-1 -137,-36l-53 65c-1,-2 -4,-8 -4,-6l-13 -33c-84,9 -35,-22 -70,40l2 -9c1,0 7,-2 11,-3 -5,-5 -11,-20 -14,-16l-51 -37c5,-43 -2,-30 35,-67l18 -17 -208 -13c0,46 -15,45 18,37z"/>
   <path class="fil6" d="M18016 9053c30,62 -23,22 39,62 -20,8 31,36 -48,-17 2,73 1,37 -54,65 47,40 24,37 98,61l-18 44 224 -13c18,0 54,4 79,6 80,7 -15,18 74,16 98,-3 -37,-28 181,-9 107,10 69,-41 204,4 62,-54 144,-11 344,-56 37,-8 68,-17 106,-30 72,-24 134,-40 205,-73 131,-58 126,-84 181,-100l-14 -53 -59 -78 -14 -58 -25 -4c-25,69 -15,22 -77,59 -78,46 -240,145 -336,150 -225,12 -202,67 -314,7l-49 37 -52 -36c-122,60 -97,4 -182,22 -130,27 -68,-14 -150,19 -36,14 29,39 -153,-14 -107,-30 -85,-3 -190,-11z"/>
   <path class="fil7" d="M15300 8495c46,-13 33,9 51,-17l26 30 111 18 45 6c-23,-60 -27,-28 -9,-59 66,36 23,2 52,68 14,-18 20,13 8,-61 59,14 89,24 87,-42 2,2 6,1 7,5l54 31c13,15 10,23 15,36 -62,-78 16,-47 19,-50 20,28 27,2 25,57 -1,1 -4,5 -5,6 0,1 -4,2 -6,3 111,5 44,-35 71,43l-111 -7 17 44c50,8 69,21 111,15 -3,-58 -9,-61 52,-83 62,-21 -17,11 37,-10l38 51c2,-8 -28,-55 70,-28l65 65c-2,0 -4,-2 -4,-1 0,1 -3,-2 -3,-3 2,-5 -7,-26 46,-42 16,27 10,53 84,47 68,-6 33,-6 54,-20 25,39 -8,44 50,16 0,-3 0,-10 0,-8 1,2 1,-7 1,-9 10,-35 -19,-19 29,-31l20 92c7,1 14,-1 17,5 3,6 12,4 16,5 13,0 39,-1 53,-3 -41,32 -29,25 -73,39 82,10 74,-11 108,26 8,-9 10,4 21,-29 7,-21 4,-21 6,-41 66,40 6,-9 60,75l69 4c18,52 13,18 59,59l85 -25 -44 -34c-127,-80 -443,-210 -569,-243 -877,-225 -751,-170 -1521,-167 -290,1 -127,-48 -382,-30 -135,9 -290,-8 -416,-21l14 48c61,-16 35,-18 110,3 97,27 120,-31 176,56 59,-64 53,-32 191,3 41,11 13,8 64,11 84,4 138,12 208,23l209 29c84,7 84,16 206,5 78,20 -47,54 226,40z"/>
   <path class="fil8" d="M1857 5447l-10 60c1,0 39,76 66,-20l-29 96c-43,26 27,17 -56,23l29 37c0,1 4,4 5,5l22 23c-14,45 -13,144 -18,207 3,2 8,2 9,6 2,14 43,-16 1,52l-78 -4c28,129 26,114 20,240 48,-32 37,-4 56,-56 19,-55 3,-7 -10,-35 1,3 4,3 4,6l54 80c-25,6 -24,0 -42,9l-37 133 -60 13c71,44 35,-5 75,58 -4,3 -9,2 -12,8l-52 23c97,148 65,43 84,173 8,59 16,-11 4,14l-26 24c3,5 9,6 10,14l34 56c-37,102 -45,16 -60,121 25,14 3,8 43,21 29,10 12,1 38,9 36,-45 -16,-47 61,-63l8 69c-2,3 -15,13 -18,17l-12 20c-16,61 3,24 7,36 74,17 13,-76 58,-5 29,24 17,3 57,7 -7,-48 -5,-99 -15,-140 -18,-76 -30,-11 8,-95l-40 -99 44 -25 5 -46c-27,-51 -17,-62 -12,-122 19,-75 -40,-57 -68,-51 19,-30 21,39 8,-60l-12 -5c-1,-1 -6,-4 -7,-4l-38 -26c-121,-111 8,72 -51,-78l75 -35c-9,-41 6,-13 -42,-45 -2,-2 -7,-5 -10,-7 44,-13 21,-1 40,-37l58 11c9,-161 -2,-123 -54,-186 36,-25 45,-22 31,-40 22,-124 7,-50 -13,-155 -14,-77 6,-57 31,-119 -41,-62 -30,-163 -12,-248 -101,35 -44,2 -81,52 -25,34 1,26 -70,49l0 34z"/>
   <path class="fil9" d="M2307 7574c46,115 31,42 83,122 30,45 22,78 59,134 27,16 37,-28 30,65l36 20c20,96 21,63 53,114 113,58 28,58 112,64l5 70 32 9c3,4 8,4 10,12 1,8 15,20 17,24 42,66 -49,-83 24,41l102 20c50,-10 27,3 67,-32l-13 -39 88 -1c0,42 5,-1 -17,18 35,-50 38,-71 103,-88l-24 -24c14,87 20,24 -45,48l-102 -67 -4 -85c-19,-28 33,-24 -42,-25l-63 3 12 -68 -48 -88c-41,-2 -56,-8 -80,-20l-47 -11 -11 -39c-14,-41 -30,-68 -65,-108 -48,27 -9,-3 -35,66 -43,-49 -11,-44 -80,-83l-6 -52c-69,0 -52,17 -52,-52l-23 11c-51,31 -37,28 -24,75l-52 -34z"/>
   <path class="fil10" d="M2079 6565l-44 25 40 99c-38,84 -26,19 -8,95 10,41 8,92 15,140l7 11 58 71 -7 50c4,38 23,77 31,109 13,56 5,108 7,164 85,63 30,55 86,143 23,36 1,-13 24,31 17,34 9,36 19,71l52 34c-13,-47 -27,-44 24,-75l23 -11 -47 -28c-10,-97 -14,-78 33,-124l60 65 -69 -184c-14,-27 -16,-23 -29,-58 -32,-87 -61,-167 -64,-276l-44 -18c15,-27 7,-16 19,-51l1 -1 -110 11c-16,-29 -2,-9 -15,-15 17,-84 -17,-90 -12,-125 29,-28 19,32 25,-51l-9 -12 4 -57c23,-57 -13,-55 -20,-62l-50 29z"/>
   <path class="fil11" d="M3627 8793l56 -17c0,-7 3,-17 4,-15 0,3 3,-9 3,-10l-25 -88c-6,-2 -14,-13 -16,-7 -2,5 -12,-2 -14,-2 -1,0 -8,3 -10,3 -1,1 -5,6 -7,8l53 -104c-19,21 -5,15 -19,-12l-20 -36c-32,-3 -51,-4 -78,-11 -70,-19 -35,-13 -50,-29 -7,-2 -124,-26 -121,-29l-232 -47c-42,112 -22,-27 -81,54 -16,22 -7,41 -31,54 -90,49 -53,-9 -60,-13l29 -42c4,-3 25,-8 31,-10 -8,-62 -40,-5 -10,-60 42,35 28,16 73,13 -15,-16 -2,-15 -30,-30 -4,-2 -8,-4 -12,-5 -5,-2 -10,-3 -15,-4 -6,-2 -60,-7 -70,-8l-4 74c-1,-5 -20,-10 -28,-23 -9,-15 0,-34 -41,-68 -31,116 -7,97 15,118l44 43c53,74 17,75 -11,151 83,12 9,33 79,11 23,-58 -90,0 64,-91 -8,-50 1,-29 -17,-57 28,78 76,-14 118,-5 -59,36 29,7 -78,77l-28 19c29,22 6,25 82,37 43,7 77,2 121,3 17,-29 30,-44 38,-81 23,61 -21,30 63,64 10,-17 41,30 11,-36 -10,-22 -11,-10 -24,-13 115,2 188,68 158,49 -5,77 29,-5 -40,70 -2,3 -7,7 -9,11 26,56 28,16 62,70l17 -17c14,-10 -1,-3 30,-18 12,28 18,37 30,59z"/>
   <path class="fil12" d="M8284 4461c7,5 31,25 41,33 75,0 0,-10 26,40l395 4 72 -90 73 40c-20,42 -5,21 -20,47l163 8c-5,-2 -11,-14 -16,-8 -4,6 -11,-5 -17,-5 -6,0 -69,15 -71,16 13,-82 23,-21 -4,-69 3,-2 8,-5 9,-3l31 -1c36,-8 8,12 47,-29l20 69c19,-8 65,19 36,-49 1,3 1,5 1,9 1,7 4,18 6,21l27 35c95,-38 -7,27 50,-45l19 -24c-22,-28 -7,-26 -43,-40 -2,-1 -8,-1 -12,-2 44,0 0,6 21,-31l-34 -29c-146,57 -97,9 -190,3 -53,-3 -44,12 -112,1 -210,-34 -167,11 -287,2 -57,-5 -164,-10 -242,-17l45 75c-23,53 -10,13 -34,39z"/>
   <path class="fil5" d="M3422 4719c-126,-67 -101,-11 -116,17l86 32c88,15 212,-44 444,-5 135,22 -4,1 95,-8 30,-4 81,6 119,4 25,-2 89,-15 110,-17 49,-3 19,-4 48,7l78 11c8,-52 21,-41 -28,-41 -12,-20 -7,-11 -32,-38l-23 -49c18,-41 3,-25 50,-39l-32 -31 -451 -2 89 44c3,-5 10,7 14,11l-5 54c-12,4 -6,7 -33,7l-71 3 7 -59c-25,58 -12,16 -32,46 -25,-14 -21,-12 -42,-26l-28 -21c-4,4 -11,9 -14,12l-29 17c-3,-3 -10,3 -15,5l-50 -73c-2,-10 -8,-10 -13,-15l-93 8c30,69 12,65 67,98l-27 -43c-33,-68 7,53 -8,-35 30,5 30,-7 59,20l16 59c-57,-1 -27,-19 -32,45 -86,-27 -29,21 -64,-29l-44 31z"/>
   <path class="fil13" d="M4226 4681c25,27 20,18 32,38 49,0 36,-11 28,41l162 -6 -27 -33c80,-24 21,-16 79,-42l8 76c66,-2 145,9 183,-1l553 -19c-8,-6 -34,-30 -52,-33 39,-56 70,-86 11,-124l-91 -24 25 26c-2,6 -4,14 -6,18 -26,68 -38,52 -60,57l-69 26 -33 -120c-72,-38 -204,-5 -278,13l16 57 -51 1c-19,-50 -32,60 -15,-71l-38 -5c-51,-3 -7,-7 -21,15 -3,76 7,28 -26,73 -70,6 -22,-21 -84,6 -50,23 -17,-14 -31,48 -5,-4 -13,-8 -16,-10l-56 21 -128 -46c7,28 2,4 -15,18z"/>
   <path class="fil14" d="M13248 4397l60 51 -39 42 -18 -56c-56,59 -18,39 -55,53l-6 -86 -122 1c43,24 -62,69 73,8l3 78c1,4 5,8 6,11l15 39c-68,7 -19,-13 -72,-55 -75,45 -47,38 -48,84 61,1 80,3 147,2 43,0 122,-5 148,-4l298 7c34,-52 -44,-43 42,-43 4,-3 10,-11 11,-7l33 -22c1,-28 -1,-22 4,-49 0,-4 13,-42 14,-44 -74,14 -20,5 -42,-19 -90,-12 -141,-5 -218,-2 -62,3 -176,0 -234,11z"/>
   <path class="fil3" d="M13724 4500l-33 22c-1,-4 -7,4 -11,7 -86,0 -8,-9 -42,43 78,12 108,-4 191,-7 45,-2 135,1 189,3 137,6 293,0 416,-10 23,-45 55,-75 -109,-107 20,-19 6,-22 47,-26l-26 -26 -58 35c-43,26 -33,37 -62,8l-15 44c-1,3 -2,11 -2,16 -65,-15 -23,-1 -48,-30 -101,-118 99,55 -28,-41 24,8 -28,9 26,3 103,-11 37,-7 67,-48l-312 6 -6 60 -97 -18 -37 77 -50 -11z"/>
   <path class="fil12" d="M5112 4554l91 24c-13,14 8,22 25,54 36,11 65,14 115,14 2,5 5,8 5,16l9 29c11,51 5,-12 5,36 85,-13 83,8 143,-37 3,1 8,0 9,4l99 8 -12 -51c7,-3 9,-24 86,-12 -114,-5 -57,-17 -138,24 27,-74 -9,-34 74,-64 64,-24 38,-35 99,-19 3,5 9,19 9,21 -12,68 13,2 -12,21 54,-11 19,-10 73,-48 3,-2 10,-5 13,-7 3,-2 8,-5 13,-7 -55,-20 -23,18 -48,-29 -13,-24 -12,-37 59,-52l-12 61c47,14 42,13 85,27 25,-21 21,-16 24,-31l-40 -8c23,-71 28,-19 -1,-65 -108,-1 -256,21 -353,41l-322 30c-18,2 -40,1 -53,3 -58,8 -28,-18 -45,17z"/>
   <path class="fil15" d="M6767 4409c-25,72 -14,78 -86,85l-68 64 57 13c-54,-8 -1,-14 -14,34 21,3 185,-10 226,-15 62,-7 135,0 221,-7l-13 -54c5,-3 10,-13 12,-9l105 -49c50,37 23,-3 45,55l54 -29c0,-70 -28,-33 -89,-89 -21,-12 -406,-6 -450,1z"/>
   <path class="fil16" d="M15868 8621l71 -9c3,2 24,27 25,28 27,25 11,9 29,23 19,15 5,2 28,21 7,7 3,6 22,23l40 -64c26,102 55,18 214,65 78,24 -14,21 121,45 69,13 275,53 325,44 -46,-41 -41,-7 -59,-59l-69 -4c-54,-84 6,-35 -60,-75 -2,20 1,20 -6,41 -11,33 -13,20 -21,29 -34,-37 -26,-16 -108,-26 44,-14 32,-7 73,-39 -14,2 -40,3 -53,3 -4,-1 -13,1 -16,-5 -3,-6 -10,-4 -17,-5l-20 -92c-48,12 -19,-4 -29,31 0,2 0,11 -1,9 0,-2 0,5 0,8 -58,28 -25,23 -50,-16 -21,14 14,14 -54,20 -74,6 -68,-20 -84,-47 -53,16 -44,37 -46,42 0,1 3,4 3,3 0,-1 2,1 4,1l-65 -65c-98,-27 -68,20 -70,28l-38 -51c-54,21 25,-11 -37,10 -61,22 -55,25 -52,83z"/>
   <path class="fil2" d="M14852 4381l-111 8 56 36 -138 57c-30,-69 -23,-29 -68,-47 -27,54 -5,35 -36,76 -33,0 -19,-5 -8,41l235 9 32 -53c3,3 7,6 9,7l46 34c2,-4 10,7 15,10l328 3 -17 -50 -39 -31c-65,-3 -87,-12 -151,-22 28,-85 -44,-47 58,-70l-146 -4c10,30 -5,19 20,57 -4,2 -9,4 -10,4l-51 17c-17,2 -37,-4 -67,-11 21,-48 4,-14 23,-46l20 -25z"/>
   <path class="fil17" d="M7395 4385c64,47 61,0 60,107 -70,-97 -41,-3 -140,-47l22 57 -36 5c-25,18 -10,4 -42,30 -39,32 -12,-6 -36,42 109,-9 153,21 211,13 84,-11 154,-27 245,-26l-12 -64c14,-7 -38,-19 18,-6 42,10 35,25 103,50l-20 -35c-59,-39 -15,-7 -49,-58 -8,-12 -6,-18 -16,-32 -72,28 -42,76 -110,38 11,-31 -6,5 31,-34 -14,-11 -9,-23 -17,-37 -34,-3 -86,-15 -98,-16 -39,-3 -63,11 -114,13z"/>
   <path class="fil12" d="M2093 5339c-32,88 1,190 -20,211 -3,50 0,89 0,138 -1,57 -14,82 14,116l7 5 16 -203c-47,99 3,-60 -12,29 0,1 1,68 1,74l55 23c38,11 -6,12 68,68 5,-51 8,-43 10,-68 3,-40 5,-25 -5,-44l24 0c11,-93 32,-130 -12,-216l-83 8c69,-102 43,-132 -27,-176l-16 22c-2,-5 -14,8 -20,13z"/>
   <path class="fil18" d="M6075 4429l47 20c26,31 14,13 14,73 -103,-17 -46,21 -74,-43l-1 59c-85,35 -43,13 -135,-2 -3,15 1,10 -24,31 -43,-14 -38,-13 -85,-27l1 20c-5,2 -10,5 -13,7 -3,2 -10,5 -13,7 -54,38 -19,37 -73,48 25,-19 0,47 12,-21 0,-2 -6,-16 -9,-21 -61,-16 -35,-5 -99,19 -83,30 -47,-10 -74,64 81,-41 24,-29 138,-24 -77,-12 -79,9 -86,12l12 51c104,-21 183,-31 289,-52 57,-11 302,-27 320,-37 21,-103 1,-14 5,-56 1,-20 -1,-14 10,-53l-74 24 -36 -101 7 -24 -59 26z"/>
   <path class="fil14" d="M2094 5809l-7 -5c69,44 30,-1 35,56l-54 -2c26,64 11,54 25,96 20,60 5,-24 24,63 -26,72 -20,20 -34,69 32,8 -10,22 81,1 -5,5 -12,5 -15,16l-54 52c38,50 20,54 29,89 20,84 5,17 40,67 0,0 88,16 40,-63 -17,-28 4,-4 -48,-6 24,-49 -14,-41 59,-35 -1,-2 -86,-15 -12,-90l68 -26c4,-125 6,-126 -11,-245 -128,-25 -99,-8 -131,-74 -27,49 5,10 -35,37z"/>
   <path class="fil3" d="M2732 4780c-51,46 -12,6 -32,43l-78 -19 -153 78c-38,59 -25,6 -33,65 -47,9 -30,-2 -60,30l19 -120c-16,-49 2,-29 -30,-53 -55,-2 -45,33 -73,64 -26,29 -29,6 -42,42l0 29c110,-7 23,-7 59,22l-10 55 43 44c-70,24 -40,11 -74,71 -22,-9 -50,-21 -73,-24 -70,-10 -1,19 -73,-10 -33,22 -45,36 -30,84 30,-19 27,42 28,-62l68 62c-47,-121 -9,-27 10,-61l94 20c124,-17 -30,-75 218,-196l81 -39c88,-38 131,-27 182,-66 -32,-56 -23,-18 -32,-95l-9 36z"/>
   <path class="fil13" d="M15801 4370l61 72c-25,72 -1,20 -40,40 72,76 -67,30 33,25 71,-3 -93,31 50,-13l-22 56 56 -8 -26 -63c-93,-88 30,42 -25,-20l40 -47 71 61c-19,29 7,4 -38,48 81,20 35,28 110,20 43,-5 55,-10 110,-8 -21,-98 -10,-22 12,-52l-54 -15c34,-31 19,-17 37,-61l-64 -11 62 -11c-23,-57 -314,-20 -373,-13z"/>
   <path class="fil19" d="M15690 4387l-45 121c-25,-25 -15,32 -24,-48l-11 7 -41 -2 -2 8c-11,-9 -48,-14 -54,-17l-44 11c-34,33 42,17 -43,28 32,22 -16,0 22,6 19,3 23,-1 41,10l-80 53 474 -14 22 -56c-143,44 21,10 -50,13 -100,5 39,51 -33,-25 39,-20 15,32 40,-40l-61 -72 7 -17 -52 -2c16,69 17,45 5,105l-51 -43c-3,-3 -8,-5 -10,-13 -2,-8 -6,-9 -10,-13z"/>
   <path class="fil14" d="M3071 4595c0,50 -13,37 38,37 -7,1 -19,-17 -63,35l23 32c33,33 80,38 12,89 -2,-2 -5,-9 -6,-6 -18,28 -18,-16 -20,-17 -5,-3 -10,-6 -16,-9l-44 -20 0 71 397 -39 -86 -32c15,-28 -10,-84 116,-17l8 -71c-32,12 -63,3 -43,36 -63,-62 -26,-39 -113,-58 47,59 56,-3 15,85 -49,-12 -70,28 -65,-132 -78,22 -57,27 -153,16z"/>
   <path class="fil20" d="M10194 4425l-33 -2c7,25 7,24 15,46l-73 1c1,-4 6,-16 6,-19 1,-9 1,-9 -12,-32 -82,16 -111,3 -190,-5 -65,-7 -92,7 -180,-5l-18 17c-37,37 -30,24 -35,67l51 37c3,-4 9,11 14,16 -4,1 -10,3 -11,3l-2 9c35,-62 -14,-31 70,-40l13 33c0,-2 3,4 4,6l53 -65c46,35 70,24 137,36 -26,-69 -25,-46 0,-103 27,46 57,77 97,92 12,5 61,10 69,9 42,-10 51,-6 40,-60l-15 -41z"/>
   <path class="fil21" d="M2020 5560c-25,62 -45,42 -31,119 20,105 35,31 13,155 14,18 5,15 -31,40 52,63 63,25 54,186 5,28 8,59 15,85 19,64 11,44 50,64l-7 -123c14,-49 8,3 34,-69 -19,-87 -4,-3 -24,-63 -14,-42 1,-32 -25,-96l19 -54c-28,-34 -15,-59 -14,-116 0,-49 -3,-88 0,-138 -53,3 -21,-13 -53,10z"/>
   <path class="fil20" d="M7828 4449l7 62 74 1 -34 46 155 2c-35,-61 -23,-2 -13,-66 53,-14 31,2 35,1l18 -54c38,-1 62,6 99,15l-2 -86 -292 7c-6,3 -14,1 -18,10l-51 29c-6,2 -12,6 -18,9 70,0 11,-5 40,24z"/>
   <path class="fil22" d="M3652 8549c14,27 0,33 19,12l3 72 140 49c-20,66 49,2 -69,50 -4,2 -11,4 -16,7 56,48 24,16 93,38 58,-10 61,5 136,5l-1 -55c7,-35 31,-36 -21,-80l17 -72 -84 1 4 67c-40,-26 -19,-27 -71,-45 -46,-15 -40,-4 -67,-55l52 0c-38,-34 -63,-53 -78,11l-57 -5z"/>
   <path class="fil23" d="M6441 4423c3,4 23,35 25,36l-16 37c6,14 4,4 1,15 0,1 -2,7 -3,9 -1,3 -7,20 -9,26l64 31c-2,2 -7,13 -13,17l166 11c13,-48 -40,-42 14,-34l-57 -13 68 -64c72,-7 61,-13 86,-85 -77,-4 -140,11 -188,11 -38,0 -84,-8 -138,3z"/>
   <path class="fil24" d="M14346 4399l26 26c-41,4 -27,7 -47,26 164,32 132,62 109,107 56,0 60,11 87,-19l26 13c-11,-46 -25,-41 8,-41 31,-41 9,-22 36,-76 45,18 38,-22 68,47l138 -57 -56 -36c-168,2 -256,-28 -395,10z"/>
   <path class="fil20" d="M2092 5181c-7,60 -9,105 1,158 6,-5 18,-18 20,-13l16 -22c70,44 96,74 27,176l83 -8c39,-44 24,-75 16,-160l-43 20c7,-58 8,-40 5,-94l54 -1 21 -97 -94 -20c-19,34 -57,-60 -10,61l-68 -62c-1,104 2,43 -28,62z"/>
   <path class="fil25" d="M2372 7905c-54,18 -89,26 -111,85 26,27 -9,9 31,28 16,8 20,6 37,9 16,55 15,72 29,119l55 -45c-50,-12 -17,8 -23,-42l89 -18c59,62 41,3 89,70l0 -82c-32,-51 -33,-18 -53,-114l-36 -20c-35,38 -4,12 -45,38 -19,12 -24,12 -43,21 29,-96 13,-17 -19,-49z"/>
   <path class="fil26" d="M2787 4643c37,36 -56,61 60,29 -6,50 -16,16 -12,95 -5,-5 -10,-11 -14,-15l-62 -76 -64 -20 5 43c-37,45 50,37 -51,37 14,7 -23,13 31,7 8,-1 51,-11 55,-12l-3 49 9 -36c9,77 0,39 32,95l122 -15 -57 -1c1,-6 5,-29 10,-34 62,-72 116,-52 155,-41 -28,-107 5,0 26,-127 -50,-15 -35,14 -52,-17 -37,15 -71,24 -121,40l-69 -1z"/>
   <path class="fil26" d="M12530 4412c26,58 39,41 57,97 55,-26 -2,-16 69,-24 -30,68 0,24 -22,91l121 1c-6,-3 -13,-7 -17,-9l-76 -74c3,-2 8,-5 10,-5 47,-18 105,-12 155,-5l62 20 63 -6 -6 -30c-60,-11 -15,18 -52,-26 4,-11 9,-36 17,-52 -54,4 -108,9 -174,8 -108,-2 -115,23 -207,14z"/>
   <path class="fil26" d="M2083 6086l7 123c8,51 -3,65 1,129 23,-14 39,-22 73,-35 13,45 11,-43 9,52 -1,35 -8,17 -5,72l59 44c17,-22 24,-12 31,-79l13 -301 -68 26c-74,75 11,88 12,90 -73,-6 -35,-14 -59,35 52,2 31,-22 48,6 48,79 -40,63 -40,63 -35,-50 -20,17 -40,-67 -9,-35 9,-39 -29,-89l54 -52c3,-11 10,-11 15,-16 -91,21 -49,7 -81,-1z"/>
   <path class="fil27" d="M2365 4804c32,24 14,4 30,53l61 -21 13 46 153 -78 78 19c20,-37 -19,3 32,-43l3 -49c-4,1 -47,11 -55,12 -54,6 -17,0 -31,-7 101,0 14,8 51,-37 -96,8 -89,-17 -179,30 -54,27 -83,31 -109,76l-47 -1z"/>
   <path class="fil4" d="M2091 6338c0,1 -6,36 -7,38 -1,2 -5,13 -5,11 -1,-2 -5,7 -7,10 -5,60 -15,71 12,122l-5 46 50 -29c7,7 43,5 20,62l-4 57c64,9 27,9 89,18l0 -130c-79,-25 -26,16 -57,-49l58 -21 -8 -2 -59 -44c-3,-55 4,-37 5,-72 2,-95 4,-7 -9,-52 -34,13 -50,21 -73,35z"/>
   <path class="fil28" d="M3057 8744c22,21 -43,66 64,17 0,2 -73,18 35,31 -53,15 -18,-3 -37,46 43,32 -37,4 41,27 84,25 28,2 45,-2 11,-2 41,-5 74,-19 4,14 1,29 6,37 25,44 -9,12 44,34 18,-176 -6,14 -60,-215 -23,10 -17,28 -60,11l-21 -16c-3,-3 -7,-9 -10,-11 -3,-3 -7,-9 -11,-13 -56,30 -65,40 -110,73z"/>
   <path class="fil29" d="M16743 8797c26,40 56,42 114,64 50,-26 5,35 49,-43 30,60 -14,16 45,50 52,29 94,11 144,28 6,2 33,20 38,23 53,9 122,-29 202,43 3,2 13,11 18,14l64 -2 63 -2 -31 -44c-55,3 -31,-3 -58,30 -25,-40 -10,-42 -85,-53 -146,-21 -193,-47 -229,-52 -58,-7 -24,25 -52,-25 -111,-11 -108,-60 -197,-56l-85 25z"/>
   <path class="fil8" d="M11405 8388l47 0c-3,3 -15,-39 -7,12l89 32 -5 70 105 -6c7,-39 -2,-3 -8,-34 -8,-47 -11,5 -1,-61l70 53c76,-37 7,5 74,-60l69 -26c-47,-23 -24,29 -42,-29l-319 30c-76,-8 -47,-24 -72,19z"/>
   <path class="fil30" d="M3627 8793c-18,50 12,5 -41,43 60,18 19,20 81,3l-15 49c66,-34 40,-29 84,13 94,-68 -8,-7 86,-124 -69,-22 -37,10 -93,-38 5,-3 12,-5 16,-7 118,-48 49,16 69,-50l-140 -49 -3 -72 -53 104c2,-2 6,-7 7,-8 2,0 9,-3 10,-3 2,0 12,7 14,2 2,-6 10,5 16,7l25 88c0,1 -3,13 -3,10 -1,-2 -4,8 -4,15l-56 17z"/>
   <path class="fil20" d="M3422 4719l44 -31c35,50 -22,2 64,29 5,-64 -25,-46 32,-45l-16 -59c-29,-27 -29,-15 -59,-20 15,88 -25,-33 8,35l27 43c-55,-33 -37,-29 -67,-98l-231 6c-5,160 16,120 65,132 41,-88 32,-26 -15,-85 87,19 50,-4 113,58 -20,-33 11,-24 43,-36l-8 71z"/>
   <path class="fil6" d="M8030 4560l321 -26c-26,-50 49,-40 -26,-40 -10,-8 -34,-28 -41,-33 -57,-29 -56,-22 -118,-8 15,-75 10,-57 74,-57l-15 -24 -58 -2 2 86c-37,-9 -61,-16 -99,-15l-18 54c-4,1 18,-15 -35,-1 -10,64 -22,5 13,66z"/>
   <path class="fil31" d="M4226 4681c17,-14 22,10 15,-18l128 46 56 -21c3,2 11,6 16,10 14,-62 -19,-25 31,-48 62,-27 14,0 84,-6 33,-45 23,3 26,-73l-58 -1 -2 30c-62,-6 -35,-6 -105,15l26 -46 -64 -4 -35 1c-36,77 -4,66 -17,102l-66 -34c23,-22 -30,-19 26,-18l-4 -63 -62 9 32 31c-47,14 -32,-2 -50,39l23 49z"/>
   <path class="fil32" d="M2072 6397c2,-3 6,-12 7,-10 0,2 4,-9 5,-11 1,-2 7,-37 7,-38 -4,-64 7,-78 -1,-129 -39,-20 -31,0 -50,-64 -7,-26 -10,-57 -15,-85l-58 -11c-19,36 4,24 -40,37 3,2 8,5 10,7 48,32 33,4 42,45l-75 35c59,150 -70,-33 51,78l38 26c1,0 6,3 7,4l12 5c13,99 11,30 -8,60 28,-6 87,-24 68,51z"/>
   <path class="fil33" d="M4102 8604c38,57 0,15 54,45 41,24 -14,-19 35,15 71,49 41,33 8,45 28,57 2,63 62,36 3,-1 8,-4 12,-5 -10,93 -5,17 19,56 86,-18 24,-25 128,-34 -16,-43 -27,-55 -27,-58 5,-2 10,-14 12,-11l23 -28c-214,6 41,-94 -159,-15l-24 -52c-52,33 -11,17 -143,6z"/>
   <path class="fil20" d="M16223 4381l141 136 -38 16 88 3 -55 -109c150,78 -92,4 48,20l97 -22c-2,-41 5,-39 -36,-35 39,-7 41,-8 77,-17l0 -21c-75,14 -58,-14 -144,-5 -43,5 -57,3 -99,7 -60,6 -55,1 -79,27z"/>
   <path class="fil28" d="M15488 8526c27,48 27,25 104,39 110,19 101,44 126,-22l22 19 111 7c-27,-78 40,-38 -71,-43 2,-1 6,-2 6,-3 1,-1 4,-5 5,-6 2,-55 -5,-29 -25,-57 -3,3 -81,-28 -19,50 -5,-13 -2,-21 -15,-36l-54 -31c-1,-4 -5,-3 -7,-5 2,66 -28,56 -87,42 12,74 6,43 -8,61 -29,-66 14,-32 -52,-68 -18,31 -14,-1 9,59l-45 -6z"/>
   <path class="fil34" d="M5554 8746c-104,8 -156,1 -258,14 30,16 -51,49 72,6 -2,4 -7,5 -9,13 -2,12 -20,12 -35,63 63,37 39,9 68,72l173 -85c-22,-71 -15,-22 -11,-83z"/>
   <path class="fil2" d="M9291 4454c-110,-5 -32,-8 -57,23 29,26 25,31 8,86 105,-28 50,-3 67,0l193 14c18,-50 25,33 11,-66 -23,3 -52,-4 -60,-31 -2,-9 -9,-10 -14,-14 -14,52 3,31 -24,34 -38,-54 -11,-49 -9,-76 1,-9 6,-11 9,-17l0 3 -11 2c-50,26 2,-11 -39,30 -40,40 -1,4 -24,30l-50 -18z"/>
   <path class="fil23" d="M3770 4560c-91,-4 -134,5 -222,5 5,5 11,5 13,15l50 73c5,-2 12,-8 15,-5l29 -17c3,-3 10,-8 14,-12l28 21c21,14 17,12 42,26 20,-30 7,12 32,-46l-7 59 71 -3c27,0 21,-3 33,-7l5 -54c-4,-4 -11,-16 -14,-11l-89 -44z"/>
   <path class="fil35" d="M10953 4459c-57,37 -71,0 -79,85l63 -22c40,51 27,46 122,47l41 -70c23,63 20,49 99,33 -36,-74 -104,-49 -140,-97l-106 24z"/>
   <path class="fil15" d="M5158 8751c28,0 134,8 138,9l8 -78 70 -26c-3,-5 -14,-25 -17,-30l-35 -67 -87 19c37,76 13,42 -4,54 -26,37 17,24 -91,15 43,103 38,53 18,104z"/>
   <path class="fil32" d="M2178 7329c-2,-56 6,-108 -7,-164 -8,-32 -27,-71 -31,-109 -43,-47 0,-16 -63,-45l-8 41c48,25 22,12 52,44l-95 3c22,75 66,5 32,97l94 -1c-44,112 -96,-17 -114,128 53,-14 56,-22 108,-31 9,51 29,33 32,37z"/>
   <path class="fil28" d="M3682 9086c155,-16 -32,-24 126,-63 33,20 37,22 68,54l30 -54c1,-2 4,-7 6,-10l96 27c-1,-11 -5,-25 -7,-22 0,0 15,-6 -84,-74 -3,-3 -9,-7 -14,-11 -22,20 27,21 -55,18 -30,-2 -48,-10 -102,-13 -13,122 -14,35 -50,102 -15,29 -1,2 -14,46z"/>
   <path class="fil16" d="M3957 8727c53,-34 78,-63 140,-42 3,1 8,4 11,5 4,1 9,4 13,5 1,1 41,10 46,11l-21 48c27,-18 7,1 37,-28 7,-6 11,-14 16,-17 33,-12 63,4 -8,-45 -49,-34 6,9 -35,-15 -54,-30 -16,12 -54,-45 -50,-27 -65,-87 -103,-6l-46 -23 -17 72c52,44 28,45 21,80z"/>
   <path class="fil27" d="M15156 4481c13,-2 76,-15 90,-16 36,-4 35,1 87,-8l18 -66c-62,-6 -87,-5 -148,-3 -1,64 26,21 -25,48 -41,-15 -8,15 -22,-40l-93 -7c-102,23 -30,-15 -58,70 64,10 86,19 151,22z"/>
   <path class="fil20" d="M5885 4463c29,46 24,-6 1,65l40 8c92,15 50,37 135,2l1 -59c28,64 -29,26 74,43 0,-60 12,-42 -14,-73l-47 -20c-29,5 -56,11 -87,14 -74,8 -30,-5 -103,20z"/>
   <path class="fil5" d="M6335 4590c32,33 25,19 51,34l104 -30c6,-4 11,-15 13,-17l-64 -31c2,-6 8,-23 9,-26 1,-2 3,-8 3,-9 3,-11 5,-1 -1,-15l-87 6 -19 -68 -14 35c-1,4 -4,10 -5,14 -4,12 -7,40 -8,45 -133,19 -64,-1 -81,65l99 -3z"/>
   <path class="fil36" d="M3029 4621c-21,127 -54,20 -26,127 -39,-11 -93,-31 -155,41 -5,5 -9,28 -10,34l57 1 100 -17 0 -71 44 20c6,3 11,6 16,9 2,1 2,45 20,17 1,-3 4,4 6,6 68,-51 21,-56 -12,-89l-23 -32c44,-52 56,-34 63,-35 -51,0 -38,13 -38,-37l-43 3 1 23z"/>
   <path class="fil24" d="M8088 8355c-77,-7 29,112 29,112l21 -60 33 21c24,17 16,12 33,26l51 -45c7,0 11,3 19,3 3,0 24,24 85,-24 -30,-26 -13,-25 -68,-37 -5,-1 -30,2 -36,3 -96,-2 -86,-27 -167,1z"/>
   <path class="fil6" d="M2406 7522c0,69 -17,52 52,52l6 52 24 -51c9,-79 -3,2 42,-35l-78 -105 -60 -65c-47,46 -43,27 -33,124l47 28z"/>
   <path class="fil18" d="M16181 4533l145 0 38 -16 -141 -136 -49 2 -62 11 64 11c-18,44 -3,30 -37,61l54 15c-22,30 -33,-46 -12,52z"/>
   <path class="fil12" d="M6222 4613c1,0 59,0 61,-1 57,-10 26,0 52,-22l-99 3c17,-66 -52,-46 81,-65 1,-5 4,-33 8,-45 1,-4 4,-10 5,-14l14 -35 -217 -7 36 101 74 -24c-11,39 -9,33 -10,53 -4,42 16,-47 -5,56z"/>
   <path class="fil37" d="M17480 8972c78,30 229,42 328,52 -102,-117 -238,-98 -359,-96l31 44z"/>
   <path class="fil38" d="M12755 4577l208 -13 -24 -23c-1,-4 -7,6 -11,9 -10,-96 8,-15 -39,-46l-62 -20c-50,-7 -108,-13 -155,5 -2,0 -7,3 -10,5l76 74c4,2 11,6 17,9z"/>
   <path class="fil39" d="M19650 8428c-12,50 -26,146 -42,185 -22,51 -77,90 -74,155l53 -51c3,0 9,2 12,2 63,0 38,-22 81,0l-28 -76c-8,-38 26,-35 22,-134 -40,-11 28,44 29,-75l-53 -6z"/>
   <path class="fil40" d="M15156 4481l39 31 17 50 122 5 58 -165c-24,-12 -18,-12 -41,-11l-18 66c-52,9 -51,4 -87,8 -14,1 -77,14 -90,16z"/>
   <path class="fil41" d="M7607 4388c8,14 3,26 17,37 -37,39 -20,3 -31,34 68,38 38,-10 110,-38 10,14 8,20 16,32 34,51 -10,19 49,58 43,-95 -7,27 60,-62 -29,-29 30,-24 -40,-24 6,-3 12,-7 18,-9l51 -29c4,-9 12,-7 18,-10 -118,-5 -177,7 -268,11z"/>
   <path class="fil27" d="M12946 4468c37,-41 11,-23 86,-36 -96,37 -11,-7 -41,45 81,9 14,-1 47,34l-2 55 9 1c1,-46 -27,-39 48,-84 53,42 4,62 72,55l-15 -39c-1,-3 -5,-7 -6,-11l-3 -78c-135,61 -30,16 -73,-8 -40,-8 -42,1 -88,15 -26,-14 -37,-15 -69,-27 -8,16 -13,41 -17,52 37,44 -8,15 52,26z"/>
   <path class="fil24" d="M5461 8523c31,61 102,26 144,11l-45 84c89,-53 119,92 169,-57 100,-19 38,-17 61,-39 -98,18 -67,3 -148,-26 -65,47 -96,43 -181,27z"/>
   <path class="fil20" d="M9179 4392l-41 -5c-21,37 23,31 -21,31 4,1 10,1 12,2 36,14 21,12 43,40 6,62 -13,38 19,68l-61 34 179 1c-17,-3 38,-28 -67,0 17,-55 21,-60 -8,-86 25,-31 -53,-28 57,-23l0 -71 -49 -4 -21 -13c-27,55 13,27 -49,54l7 -28z"/>
   <path class="fil15" d="M4414 8658l71 26c17,5 50,9 69,10 100,1 49,-32 102,17l52 3c-35,-39 44,-32 -43,-32 -2,-6 -6,-31 -6,-34l-2 -11c0,0 -1,-2 -1,-3l-104 13c14,57 14,-22 17,-33 -6,0 -46,0 -52,-1l-98 -14 -5 59z"/>
   <path class="fil28" d="M2402 8318l70 38c15,8 -13,0 36,18l41 13c4,0 10,1 13,1l23 -9c37,-28 0,2 29,-43l-36 -20c-43,-20 -28,30 -22,-9 -31,-29 -20,-24 -36,-68 -134,38 -104,47 -118,79z"/>
   <path class="fil6" d="M2266 6847c-1,-72 -1,-87 -31,-145 -67,33 -32,40 -87,48 10,-7 18,-14 20,-27 12,-99 8,-22 -14,-56 -6,83 4,23 -25,51 -5,35 29,41 12,125 13,6 -1,-14 15,15l110 -11z"/>
   <path class="fil10" d="M17808 9250c2,2 198,19 225,18l18 -44c-74,-24 -51,-21 -98,-61l-8 -36c11,17 9,7 7,16l-12 25c-2,-8 -4,22 -28,20l-34 -17c-29,61 -4,35 -105,35l35 44z"/>
   <path class="fil42" d="M12457 4443l83 -18c-16,106 -27,58 -67,121 134,3 32,-1 72,35l89 -5c22,-67 -8,-23 22,-91 -71,8 -14,-2 -69,24 -18,-56 -31,-39 -57,-97l-113 -6c29,11 19,13 40,37z"/>
   <path class="fil15" d="M9502 4577l61 -13c-15,-37 -17,-7 -15,-49 2,-69 -13,-22 20,-15l-37 -41 6 -26c-33,8 -18,9 -18,-37l-104 14 0 -3c-3,6 -8,8 -9,17 -2,27 -29,22 9,76 27,-3 10,18 24,-34 5,4 12,5 14,14 8,27 37,34 60,31 14,99 7,16 -11,66z"/>
   <path class="fil35" d="M11918 4406c-65,6 -92,0 -150,1 -19,0 -50,2 -69,6 -39,10 -25,2 -42,23l42 6c-3,4 -8,5 -8,12 -3,87 -30,-10 3,42 37,2 23,1 56,-2l116 -11 -52 -41c97,-4 75,-6 104,-36z"/>
   <path class="fil20" d="M4969 4561l33 120 69 -26c22,-5 34,11 60,-57 2,-4 4,-12 6,-18l-25 -26c-44,4 -92,-2 -143,7z"/>
   <path class="fil12" d="M17756 4433l-47 -16c-62,44 -31,40 -93,44l37 -49 -62 -9 -40 26c44,131 -19,25 188,94l17 -90z"/>
   <path class="fil24" d="M19377 5932l-7 -58c-38,17 -33,-20 -33,18l-12 -14 -33 -17c-25,97 -19,66 4,156 39,10 22,52 62,17 26,-49 22,-51 19,-102z"/>
   <path class="fil16" d="M2568 8111c3,28 -6,31 -28,56 48,-3 35,6 66,-13 25,70 2,36 60,63 4,-8 47,12 -8,-64l27 10 -5 -70c-84,-6 1,-6 -112,-64l0 82z"/>
   <path class="fil15" d="M15392 4402l-58 165 75 -3 80 -53c-18,-11 -22,-7 -41,-10 -38,-6 10,16 -22,-6 85,-11 9,5 43,-28l-57 -25c4,-3 8,-10 11,-12l25 -24c3,-8 9,-9 15,-12 -8,-1 -15,-17 -71,8z"/>
   <path class="fil20" d="M10583 4454l-18 -15 -198 2c5,5 11,5 16,14 5,9 11,10 17,12 38,11 21,9 68,9 -32,76 -8,19 20,87 36,-19 67,5 95,-109z"/>
   <path class="fil27" d="M13724 4500l50 11 37 -77 97 18 6 -60 -214 -4c22,24 -32,33 42,19 -1,2 -14,40 -14,44 -5,27 -3,21 -4,49z"/>
   <path class="fil26" d="M16855 4396l-21 -14c-28,-8 -21,-3 -46,-9 -118,-26 -27,-32 -122,-15l24 46c-51,-3 -54,-4 -92,-12l51 82 42 -24c10,-7 26,-21 26,-21 32,18 49,28 71,44l5 -98 62 21z"/>
   <path class="fil15" d="M10895 8228l-95 3 -20 36c-5,9 -21,25 -11,52 8,-2 57,-16 73,-22 20,41 23,29 55,49l28 -59c2,-4 6,-10 10,-14 -19,37 -11,12 39,0l68 -24c-49,-13 -37,3 -76,8 -147,20 -39,14 -71,-29z"/>
   <path class="fil18" d="M2094 5809c40,-27 8,12 35,-37 32,66 3,49 131,74 -5,-53 21,-131 -9,-158l-24 0c10,19 8,4 5,44 -2,25 -5,17 -10,68 -74,-56 -30,-57 -68,-68l-55 -23c0,-6 -1,-73 -1,-74 15,-89 -35,70 12,-29l-16 203z"/>
   <path class="fil43" d="M15493 4387c12,39 14,42 20,69 6,3 43,8 54,17l2 -8 41 2 -17 -25c-16,-29 -4,-5 -23,-47 23,4 107,-6 51,65 9,80 -1,23 24,48l45 -121c-62,-30 -57,-42 -131,0l-66 0z"/>
   <path class="fil20" d="M8789 8332l-5 40c-42,58 -29,44 -44,102 78,-3 65,3 102,-42 46,-56 9,-27 54,-115l-107 15z"/>
   <path class="fil44" d="M7103 4583l120 -4c24,-48 -3,-10 36,-42 32,-26 17,-12 42,-30l5 -10 -54 29c-22,-58 5,-18 -45,-55l-105 49c-2,-4 -7,6 -12,9l13 54z"/>
   <path class="fil4" d="M9034 4543l96 19 61 -34c-32,-30 -13,-6 -19,-68l-19 24c-57,72 45,7 -50,45l-27 -35c-2,-3 -5,-14 -6,-21 0,-4 0,-6 -1,-9 29,68 -17,41 -36,49l-20 -69c-39,41 -11,21 -47,29l-31 1c-1,-2 -6,1 -9,3 27,48 17,-13 4,69 2,-1 65,-16 71,-16 6,0 13,11 17,5 5,-6 11,6 16,8z"/>
   <path class="fil18" d="M7768 4511l20 35c-68,-25 -61,-40 -103,-50 -56,-13 -4,-1 -18,6l12 64 196 -8 34 -46 -74 -1 -7 -62c-67,89 -17,-33 -60,62z"/>
   <path class="fil41" d="M7270 4405l-53 3c61,56 89,19 89,89l-5 10 36 -5 -22 -57c99,44 70,-50 140,47 1,-107 4,-60 -60,-107l-106 8c10,44 20,5 -3,34 -28,5 -19,9 -16,-22z"/>
   <path class="fil25" d="M1684 6415c63,-36 7,-41 84,-16 -26,-54 -15,-57 -1,-119 -105,33 -70,30 -105,9l-26 -22c-6,95 -6,85 48,148z"/>
   <path class="fil45" d="M4890 8521c-89,-13 -49,-41 -193,-55 13,30 22,182 115,73 119,17 -98,-57 29,6 3,1 32,21 33,22l16 -46z"/>
   <path class="fil46" d="M18980 4783c31,81 2,47 64,119 -8,-55 -23,-45 28,-45 2,-1 4,-6 4,-4l25 -16c64,-30 38,27 59,-34 27,-81 -19,-62 -19,-62 -54,27 -21,-21 -52,76 -98,-19 -1,-47 -109,-34z"/>
   <path class="fil20" d="M16061 8887c57,-10 53,1 103,49l66 -20 34 -111c-82,28 -36,-51 -60,62 -114,-43 -72,-10 -92,-6 -99,-13 -19,-10 -51,26z"/>
   <path class="fil14" d="M17134 4404c0,33 -7,19 34,29l69 -43c-17,49 -24,53 0,100 -29,-21 -8,28 0,39l77 -33 -24 -68 1 -41 -157 17z"/>
   <path class="fil23" d="M19349 5307c7,-51 -5,-36 18,-69l-12 -57c-103,10 -12,0 -107,40 14,44 40,8 52,131 4,-4 9,-16 11,-12l21 -20c2,-2 7,-6 9,-7 1,-2 5,-4 8,-6z"/>
   <path class="fil20" d="M12149 4415l-69 -1 28 40c-69,15 -41,0 -45,30l50 36 67 -69c6,84 -7,19 35,65l21 37c38,-24 18,-33 39,-53 -100,-45 17,-45 -126,-44 -12,-25 -11,1 0,-41z"/>
   <path class="fil12" d="M14226 4386c-30,41 36,37 -67,48 -54,6 -2,5 -26,-3 127,96 -73,-77 28,41 25,29 -17,15 48,30 0,-5 1,-13 2,-16l15 -44c29,29 19,18 62,-8l58 -35c-57,-36 -75,-18 -120,-13z"/>
   <path class="fil47" d="M3383 8444c-3,3 114,27 121,29l-5 -79 -110 -25c-35,-5 -12,4 -46,-24l4 52c2,-2 12,-8 17,-12l19 59z"/>
   <path class="fil48" d="M3074 8103c-51,-21 -47,-21 -85,-55 -11,-10 -30,-28 -37,-33 -23,-18 -7,-6 -29,-16l4 85 102 67c65,-24 59,39 45,-48z"/>
   <path class="fil18" d="M5244 4735l52 -17 66 9c0,-48 6,15 -5,-36l-9 -29c0,-8 -3,-11 -5,-16 -50,0 -79,-3 -115,-14 -17,-32 -38,-40 -25,-54 59,38 28,68 -11,124 18,3 44,27 52,33z"/>
   <path class="fil46" d="M19100 5689c1,80 -7,75 48,117 27,-127 38,-4 51,-101l-41 -92 -17 48c-14,12 -27,9 -41,28z"/>
   <path class="fil20" d="M12457 4443c-21,-24 -11,-26 -40,-37l-60 -7c-5,5 -13,4 -17,14 -24,75 -8,-15 -51,46 43,52 4,11 68,45 66,-40 62,-16 100,-61z"/>
   <path class="fil5" d="M12946 4468l6 30 -63 6c47,31 29,-50 39,46 4,-3 10,-13 11,-9l24 23 73 2 2 -55c-33,-35 34,-25 -47,-34 30,-52 -55,-8 41,-45 -75,13 -49,-5 -86,36z"/>
   <path class="fil49" d="M17182 9151c39,19 50,10 80,26l48 41c53,-29 67,-32 131,-21 -11,-13 -10,-36 -94,-15l-51 -75c-89,16 -53,20 -114,44z"/>
   <path class="fil24" d="M19558 8882l59 78 61 -16c1,-3 24,-38 27,-42 19,-28 18,-14 26,-54l-36 39c-23,-66 8,-26 -52,-36l-54 39c-2,0 -9,-2 -12,-2 -3,-1 -13,-4 -19,-6z"/>
   <path class="fil50" d="M2170 5015l-22 50c149,-27 45,30 146,15 37,-87 10,-23 5,-64l-54 24c-9,-42 -6,-61 -29,-79 -53,7 -41,29 -46,54z"/>
   <path class="fil25" d="M3151 8397l-49 -4c-45,3 -31,22 -73,-13 -30,55 2,-2 10,60 -6,2 -27,7 -31,10l-29 42c7,4 -30,62 60,13 24,-13 15,-32 31,-54 59,-81 39,58 81,-54z"/>
   <path class="fil41" d="M14197 8582l76 16 26 -55 -108 -81c-20,44 -37,-60 -6,69 14,61 12,-36 12,51z"/>
   <path class="fil51" d="M8225 4372l15 24c-64,0 -59,-18 -74,57 62,-14 61,-21 118,8 24,-26 11,14 34,-39l-45 -75c-33,33 -6,10 -48,25z"/>
   <path class="fil20" d="M2464 7626c69,39 37,34 80,83 26,-69 -13,-39 35,-66 -36,-71 -29,-29 -49,-103 -45,37 -33,-44 -42,35l-24 51z"/>
   <path class="fil27" d="M17906 4450c0,-32 -119,-35 -150,-17 65,38 40,71 52,85 5,-3 -38,-24 93,-3 -10,-59 -9,-39 5,-65z"/>
   <path class="fil33" d="M2901 8828l90 -10c22,-84 2,-103 -25,-152l-65 162z"/>
   <path class="fil52" d="M14001 8543l-153 -8c61,108 -21,37 49,115 30,-56 22,-33 4,-96 92,53 29,20 77,89 26,-36 23,-23 -2,-65l25 -35z"/>
   <path class="fil11" d="M3410 8901c0,0 82,2 28,-108 -15,-31 -10,-13 -28,-29 -5,3 -65,7 -30,94 16,40 9,17 30,43z"/>
   <path class="fil28" d="M3479 8733c-44,-101 -49,-95 -131,-109 10,71 -14,94 131,109z"/>
   <path class="fil24" d="M2122 5097c72,29 3,0 73,10 23,3 51,15 73,24 34,-60 4,-47 74,-71l-43 -44c5,41 32,-23 -5,64 -101,15 3,-42 -146,-15l22 -50c-3,4 -7,5 -7,10 -2,9 -11,19 -13,23 -21,39 10,1 -28,49z"/>
   <path class="fil53" d="M6450 4496l16 -37c-2,-1 -22,-32 -25,-36 -14,0 -66,-5 -68,-5 -46,2 -8,-22 -29,16l19 68 87 -6z"/>
   <path class="fil11" d="M2372 7905c32,32 48,-47 19,49 19,-9 24,-9 43,-21 41,-26 10,0 45,-38 7,-93 -3,-49 -30,-65l13 48c-33,-15 -52,-28 -91,-20 -7,16 -54,-20 1,47z"/>
   <path class="fil45" d="M17945 9127l8 36c55,-28 56,8 54,-65 79,53 28,25 48,17 -62,-40 -9,0 -39,-62 -2,-22 52,11 -18,-17l-38 27 -20 19 5 45z"/>
   <path class="fil29" d="M2768 8249c-73,-124 18,25 -24,-41 -2,-4 -16,-16 -17,-24 -2,-8 -7,-8 -10,-12 -29,104 -78,64 -39,152 73,-38 6,0 53,-45 26,-24 16,-8 37,-30z"/>
   <path class="fil18" d="M8746 4538l125 -3c15,-26 0,-5 20,-47l-73 -40 -72 90z"/>
   <path class="fil53" d="M14917 4385l-65 -4 -20 25c-19,32 -2,-2 -23,46 30,7 50,13 67,11l51 -17c1,0 6,-2 10,-4 -25,-38 -10,-27 -20,-57z"/>
   <path class="fil35" d="M2216 4961c23,18 20,37 29,79l54 -24 10 -55c-36,-29 51,-29 -59,-22l0 -29c-37,18 -21,-11 -34,51z"/>
   <path class="fil54" d="M9291 4454l50 18c23,-26 -16,10 24,-30 41,-41 -11,-4 39,-30 -29,-34 39,-10 -58,-31 -36,-7 -22,-1 -55,2l0 71z"/>
   <path class="fil29" d="M3869 8576c-16,-20 6,-13 -36,-28 -56,-20 -26,-5 -46,-5l-52 0c27,51 21,40 67,55 52,18 31,19 71,45l-4 -67z"/>
   <path class="fil55" d="M2469 4882l-13 -46 -61 21 -19 120c30,-32 13,-21 60,-30 8,-59 -5,-6 33,-65z"/>
   <path class="fil19" d="M15939 4542l22 -21c45,-44 19,-19 38,-48l-71 -61 -40 47c55,62 -68,-68 25,20l26 63z"/>
   <path class="fil31" d="M13248 4397l-58 4 6 86c37,-14 -1,6 55,-53l18 56 39 -42 -60 -51z"/>
   <path class="fil56" d="M13446 8464c-27,-33 23,-8 -26,-29 -21,-9 -19,-7 -42,-8 -42,-2 -75,4 -99,21 73,13 87,50 167,16z"/>
   <path class="fil57" d="M11958 4418c-1,4 -11,46 -15,57l68 17c2,-6 5,-19 6,-16 16,36 -3,-16 32,-68l-91 10z"/>
   <path class="fil14" d="M4379 4565c-58,-10 -39,-18 -96,-12l4 63c-56,-1 -3,-4 -26,18l66 34c13,-36 -19,-25 17,-102l35 -1z"/>
   <path class="fil58" d="M19325 5878l12 14c0,-38 -5,-1 33,-18 30,-35 48,-38 57,-83l-10 -39c-54,115 -82,15 -92,126z"/>
   <path class="fil59" d="M19211 6148c7,2 45,5 51,8 45,26 1,-20 31,34 48,-37 36,45 37,-35l-109 -70 -10 63z"/>
   <path class="fil20" d="M4553 8464c3,3 9,3 11,8 16,45 48,-33 79,76l6 18c1,2 4,6 7,9 15,-20 15,8 20,-45 5,-75 -14,26 -3,-73 -63,17 -44,14 -120,7z"/>
   <path class="fil20" d="M18134 4442l-51 0c12,47 47,131 101,52l-50 -52z"/>
   <path class="fil60" d="M12765 8432l42 -12c-28,66 -31,35 -5,109 23,-23 19,-3 31,-45 5,-19 5,-47 7,-69l-33 -22 -42 39z"/>
   <path class="fil61" d="M4524 4570c-3,-16 31,-30 -41,-27 -68,2 -36,21 -40,26l-26 46c70,-21 43,-21 105,-15l2 -30z"/>
   <path class="fil26" d="M11427 8197c12,59 -21,9 21,44 55,44 163,-87 -21,-44z"/>
   <path class="fil51" d="M15463 4394c-6,3 -12,4 -15,12l-25 24c-3,2 -7,9 -11,12l57 25 44 -11c-6,-27 -8,-30 -20,-69 -20,17 -3,14 -30,7z"/>
   <path class="fil35" d="M19229 4740c-16,-29 -20,-36 -28,-82l-52 -11c9,62 -4,19 32,35 -27,8 -15,52 -8,77 31,-27 10,-10 56,-19z"/>
   <path class="fil16" d="M5076 8807l-15 -64c-44,7 -10,4 -64,28 -26,-59 1,-16 -37,-34l19 58c3,0 17,1 22,1 35,3 36,3 75,11z"/>
   <path class="fil44" d="M2255 5312l25 -25 -9 -50 -54 1c3,54 2,36 -5,94l43 -20z"/>
   <path class="fil49" d="M15690 4387c4,4 8,5 10,13 2,8 7,10 10,13l51 43c12,-60 11,-36 -5,-105l-66 36z"/>
   <path class="fil11" d="M2620 8449c-1,8 -48,-24 8,43 20,24 83,26 53,-30 -2,-4 -15,-17 -19,-18 -70,-33 -28,1 -42,5z"/>
   <path class="fil41" d="M2787 4643l-28 33 62 76c4,4 9,10 14,15 -4,-79 6,-45 12,-95 -116,32 -23,7 -60,-29z"/>
   <path class="fil49" d="M2077 7011c63,29 20,-2 63,45l7 -50 -58 -71c-8,57 -9,25 -12,76z"/>
   <path class="fil62" d="M2235 6702l-1 -29c-62,-9 -25,-9 -89,-18l9 12c22,34 26,-43 14,56 -2,13 -10,20 -20,27 55,-8 20,-15 87,-48z"/>
   <path class="fil41" d="M9568 4500l33 7 16 -49c-54,-28 -23,-17 -80,-25l-6 26 37 41z"/>
   <path class="fil35" d="M4691 4574l0 -9 -50 -4c-17,131 -4,21 15,71l51 -1 -16 -57z"/>
   <path class="fil63" d="M9018 8417c51,-22 57,-30 107,-42 -2,-2 18,-45 -54,-26 -37,9 -41,28 -53,68z"/>
   <path class="fil53" d="M2886 4662c16,27 -5,17 23,39 29,22 -7,10 50,10l-4 -77 -69 28z"/>
   <path class="fil40" d="M4448 4754l60 1 -8 -76c-58,26 1,18 -79,42l27 33z"/>
   <path class="fil50" d="M2130 5289l50 -32c-31,-48 -6,-21 -51,-55 -1,3 -55,-6 1,87z"/>
   <path class="fil63" d="M17314 4496c48,-25 32,-2 66,-60l-63 -8 -27 0 24 68z"/>
   <path class="fil51" d="M12340 8164l-36 18 -33 -22c1,7 6,42 8,47 27,80 5,18 26,47 63,-73 7,-4 35,-90z"/>
   <path class="fil18" d="M14521 4539c73,-18 26,10 34,-45l-87 -3c32,35 21,15 -13,38l66 10z"/>
   <path class="fil51" d="M5818 4560l-1 -20 12 -61c-71,15 -72,28 -59,52 25,47 -7,9 48,29z"/>
   <path class="fil29" d="M19697 6957l-19 -48c-55,23 -44,3 -72,68l91 -20z"/>
   <path class="fil53" d="M4862 8724c3,62 47,16 98,13 -17,-75 10,-35 -52,-59l15 68 -61 -22z"/>
   <path class="fil64" d="M19278 6242l-5 -63 20 11c-30,-54 14,-8 -31,-34 -6,-3 -44,-6 -51,-8 28,56 25,52 67,94z"/>
   <path class="fil65" d="M2870 8269l14 36 57 3 -4 -71c-40,35 -17,22 -67,32z"/>
   <path class="fil66" d="M10161 4423l-64 -4c13,23 13,23 12,32 0,3 -5,15 -6,19l73 -1c-8,-22 -8,-21 -15,-46z"/>
   <path class="fil54" d="M15610 4467l11 -7c56,-71 -28,-61 -51,-65 19,42 7,18 23,47l17 25z"/>
   <path class="fil20" d="M11367 4494c44,18 37,15 55,43l37 -61c-30,-7 -20,-10 -44,-6l-48 24z"/>
   <path class="fil53" d="M9049 8313l-70 5c5,102 -3,19 21,56 41,-36 26,-16 49,-61z"/>
   <path class="fil53" d="M15300 8495l15 53 62 -40 -26 -30c-18,26 -5,4 -51,17z"/>
   <path class="fil67" d="M14782 4561l102 -2c-5,-3 -13,-14 -15,-10l-46 -34c-2,-1 -6,-4 -9,-7l-32 53z"/>
   <path class="fil68" d="M19479 6969c-6,-28 -4,-71 -5,-72 -11,-38 -20,-7 -24,-26 -1,-6 -7,-6 -10,-10l-17 21c57,65 1,26 56,87z"/>
   <path class="fil69" d="M2881 7974c-18,-32 -4,-12 -23,-38 -13,-17 -13,-13 -28,-27l-12 68 63 -3z"/>
   <path class="fil65" d="M9155 8550l41 3c24,-76 19,-12 10,-81 -25,21 -9,6 -27,37l-24 41z"/>
   <path class="fil70" d="M14912 8679c45,8 47,11 98,22l5 -43 -92 16c-2,-4 -8,3 -11,5z"/>
   <path class="fil71" d="M5180 8838c-13,-78 12,-28 -52,-64 20,109 -18,50 52,64z"/>
   <path class="fil53" d="M11258 4458c-27,5 -86,5 -50,43 16,16 -9,32 30,1 32,-26 10,-12 20,-44z"/>
   <path class="fil54" d="M2234 6543l-23 -42c32,0 22,7 24,-28l-58 21c31,65 -22,24 57,49z"/>
   <path class="fil72" d="M17709 4417l-56 -5 -37 49c62,-4 31,0 93,-44z"/>
   <path class="fil67" d="M17417 8974l-64 2c16,20 26,34 40,51 29,-26 24,41 24,-53z"/>
   <path class="fil41" d="M12669 8260c44,-61 43,-36 -38,-58 20,57 -11,28 38,58z"/>
   <path class="fil67" d="M15284 8726l39 7c40,-98 2,-44 -12,-62l-27 55z"/>
   <path class="fil73" d="M2068 5858l54 2c-5,-57 34,-12 -35,-56l-19 54z"/>
   <path class="fil70" d="M5433 5789c33,-41 38,-14 2,-65 -2,2 -65,-21 -2,65z"/>
   <path class="fil41" d="M7355 8427l-86 2 24 23c21,19 0,2 28,22l34 -47z"/>
   <path class="fil57" d="M13524 4457c45,-11 20,22 51,-52 -47,10 -62,-1 -51,52z"/>
   <path class="fil74" d="M15203 4388l-47 8c14,55 -19,25 22,40 51,-27 24,16 25,-48z"/>
   <path class="fil75" d="M2290 6917c-7,-68 3,-34 -25,-69 -12,35 -4,24 -19,51l44 18z"/>
   <path class="fil51" d="M4881 4630c42,-17 46,-1 34,-52 -35,15 -27,-27 -34,52z"/>
   <path class="fil23" d="M16537 4425c0,0 -15,26 25,11 21,-9 9,-2 34,-29 -26,-3 -45,-14 -59,18z"/>
   <polygon class="fil32" points="17290,4428 17317,4428 17330,4392 17291,4387 "/>
   <path class="fil76" d="M2097 7513c59,-21 28,2 53,-47 -32,6 -12,-18 -36,12 -2,3 -13,31 -17,35z"/>
   <path class="fil77" d="M4043 8380l-10 -5 -2 50c21,-12 64,20 12,-45z"/>
   <path class="fil78" d="M9221 4366l-42 26 -7 28c62,-27 22,1 49,-54z"/>
   <path class="fil79" d="M10734 4618l28 -1c4,-65 28,-8 -13,-51l-15 52z"/>
   <path class="fil80" d="M2702 7801c-17,-17 -34,-32 -58,-50l11 39 47 11z"/>
   <polygon class="fil81" points="19121,5067 19151,5051 19125,5013 "/>
   <path class="fil39" d="M7289 4393l-19 12c-3,31 -12,27 16,22 23,-29 13,10 3,-34z"/>
   <path class="fil82" d="M9721 9097c3,3 9,6 10,11 6,16 29,-11 29,-11 -55,-34 -17,-8 -39,0z"/>
  </g>
 </g>
</svg>
