<?xml version="1.0" encoding="UTF-8"?>
<!DOCTYPE svg PUBLIC "-//W3C//DTD SVG 1.1//EN" "http://www.w3.org/Graphics/SVG/1.1/DTD/svg11.dtd">
<!-- Creator: CorelDRAW X8 -->
<svg xmlns="http://www.w3.org/2000/svg" xml:space="preserve" width="210mm" height="297mm" version="1.1" style="shape-rendering:geometricPrecision; text-rendering:geometricPrecision; image-rendering:optimizeQuality; fill-rule:evenodd; clip-rule:evenodd"
viewBox="0 0 21000 29700"
 xmlns:xlink="http://www.w3.org/1999/xlink">
 <defs>
  <style type="text/css">
   <![CDATA[
    .fil93 {fill:#232052}
    .fil101 {fill:#250B17}
    .fil73 {fill:#261825}
    .fil80 {fill:#28171A}
    .fil77 {fill:#2B1C24}
    .fil102 {fill:#2B2635}
    .fil10 {fill:#2C1D2B}
    .fil69 {fill:#2F304D}
    .fil71 {fill:#331C2B}
    .fil15 {fill:#33242C}
    .fil85 {fill:#342533}
    .fil79 {fill:#35181A}
    .fil8 {fill:#352A33}
    .fil82 {fill:#371C33}
    .fil56 {fill:#3A242D}
    .fil104 {fill:#3A3436}
    .fil49 {fill:#3B2533}
    .fil7 {fill:#3B2B34}
    .fil4 {fill:#3D323B}
    .fil16 {fill:#432C3B}
    .fil5 {fill:#43333C}
    .fil28 {fill:#443443}
    .fil87 {fill:#45282A}
    .fil23 {fill:#453A44}
    .fil25 {fill:#4A333D}
    .fil3 {fill:#4B3443}
    .fil100 {fill:#4B4555}
    .fil24 {fill:#4C3C4A}
    .fil13 {fill:#533C4B}
    .fil12 {fill:#53434C}
    .fil9 {fill:#544452}
    .fil35 {fill:#554A53}
    .fil27 {fill:#563C53}
    .fil81 {fill:#58465A}
    .fil63 {fill:#5A4A64}
    .fil19 {fill:#5B4454}
    .fil14 {fill:#5B4B55}
    .fil17 {fill:#5C4C5B}
    .fil46 {fill:#634C5B}
    .fil30 {fill:#63535D}
    .fil42 {fill:#64464A}
    .fil36 {fill:#645363}
    .fil59 {fill:#654857}
    .fil26 {fill:#654C63}
    .fil43 {fill:#675867}
    .fil78 {fill:#6A6673}
    .fil21 {fill:#6B5464}
    .fil89 {fill:#6B5B64}
    .fil91 {fill:#6B6369}
    .fil40 {fill:#6C5B6B}
    .fil76 {fill:#725354}
    .fil47 {fill:#735B6B}
    .fil58 {fill:#745867}
    .fil50 {fill:#75656B}
    .fil83 {fill:#757187}
    .fil51 {fill:#765D73}
    .fil92 {fill:#768AA0}
    .fil53 {fill:#776876}
    .fil67 {fill:#7B737A}
    .fil99 {fill:#7D766C}
    .fil48 {fill:#846979}
    .fil61 {fill:#85767B}
    .fil96 {fill:#877885}
    .fil74 {fill:#8B738B}
    .fil62 {fill:#8B838A}
    .fil70 {fill:#8F8494}
    .fil66 {fill:#937989}
    .fil72 {fill:#95868A}
    .fil64 {fill:#978995}
    .fil75 {fill:#9B9399}
    .fil60 {fill:#9E8577}
    .fil94 {fill:#A6989A}
    .fil97 {fill:#A79AA4}
    .fil31 {fill:#A99093}
    .fil88 {fill:#B097AA}
    .fil20 {fill:#B6A9A8}
    .fil95 {fill:#B7ABB5}
    .fil86 {fill:#B8CBDB}
    .fil34 {fill:#BAB5B8}
    .fil39 {fill:#C5B6AC}
    .fil103 {fill:#C7BBC4}
    .fil90 {fill:#CACAD4}
    .fil37 {fill:#CBC3BA}
    .fil84 {fill:#D2C5BC}
    .fil6 {fill:#D4CAC4}
    .fil18 {fill:#D4CCCB}
    .fil38 {fill:#D6C8BC}
    .fil41 {fill:#DACECB}
    .fil22 {fill:#DBD1C6}
    .fil68 {fill:#DCD3CC}
    .fil44 {fill:#DCD5D2}
    .fil55 {fill:#E0DAD5}
    .fil29 {fill:#E2DDDB}
    .fil98 {fill:#E4D4D9}
    .fil2 {fill:#E5DED9}
    .fil32 {fill:#E5E3E2}
    .fil1 {fill:#EAE5DE}
    .fil33 {fill:#EAE5E1}
    .fil57 {fill:#EBE9E5}
    .fil45 {fill:#EDE5DE}
    .fil54 {fill:#EDEAE9}
    .fil65 {fill:#EDECEB}
    .fil11 {fill:#F9F9F8}
    .fil52 {fill:#FBF5F3}
    .fil0 {fill:white}
   ]]>
  </style>
 </defs>
 <g id="Ebene_x0020_1">
  <metadata id="CorelCorpID_0Corel-Layer"/>
  <g id="_1565570137936">
   <path class="fil0" d="M13029 13315l-455 33 -54 -12 -14 27c-82,-28 -198,10 -302,11 -54,0 -119,-10 -166,-4 -45,4 -67,17 -120,12l-313 3 -378 14 -310 -14c-54,11 -99,7 -139,-15l-158 3c-52,-5 -51,-1 -84,-26 -75,44 -8,27 -100,22 -79,-4 -203,-22 -258,8 -60,33 -37,-12 -130,-17 -60,-4 -86,6 -152,-2 -79,-2 -171,-12 -252,-12l-34 6 -53 -6c-23,53 11,13 -48,54l-504 22c-241,23 -208,0 -339,8 -82,5 -63,29 -140,15 -199,-38 -106,-28 -337,-25 -35,-9 -29,11 -32,-42 -45,-25 -82,-19 -147,-12 -25,-1 -112,6 -112,-24l-195 1 -392 0 -115 -3 -418 34 -200 7 -60 -12c-1,1 3,16 -9,19l-184 12c-112,18 -194,1 -303,1l-101 13 -320 4 -489 8 -202 -8c-18,5 -120,13 -118,-15 -98,-6 -197,16 -253,-23 -67,33 -57,24 -100,22 -41,-2 -78,-2 -119,-2 -133,-1 -53,-31 -168,25 -115,-54 -479,-30 -573,-44l-67 53c-109,-27 -168,15 -286,16 -117,1 -221,17 -320,20 -105,4 -211,-17 -300,2 -263,56 -136,61 -226,98 -4,4 -8,8 -11,10l-44 45c-2,3 -3,8 -5,12 -28,48 -20,37 -72,64l-47 128c-18,54 -9,91 7,145 -43,58 -9,15 -30,68 16,34 22,29 1,54l-4 87 108 -20 32 38c48,30 15,-3 33,43l-15 17c-37,70 -31,115 -81,190 -2,3 -6,7 -8,9 -2,3 -6,6 -8,8l-20 44c-14,41 -3,45 -43,65 2,75 -36,101 -42,172l-6 67 -29 52 17 33 -33 70c0,63 6,6 -31,31 -9,97 11,14 -43,85l18 67c-47,34 -24,49 -65,92 20,92 26,126 -45,172 12,29 18,38 33,56 -32,34 -61,87 -56,131l16 20c-4,4 -12,14 -15,18l-40 61 -26 88c-21,36 -19,27 -44,52l24 42c1,-3 5,8 8,12 -24,29 -6,-9 -24,44 -23,66 -16,91 -9,151 -62,2 -44,-12 -48,70 -14,274 20,80 24,389 16,54 26,48 12,109 23,24 41,65 60,93 25,38 43,57 34,118 24,32 13,30 32,66 74,23 64,31 148,72 33,17 153,94 240,98 215,11 196,64 302,10l50 35 47 -41c71,36 45,32 123,27l168 4c71,8 -1,1 47,19 38,14 33,12 98,-7 249,-72 231,26 428,-51l144 -90c85,-29 125,1 178,51 72,13 98,-14 149,-42 49,-26 126,-22 193,-31 108,-14 280,22 363,67l286 25c6,1 51,-9 63,-11l72 -2c91,34 9,17 101,4 69,-10 59,-3 121,-21l44 17 63 -2 25 -11 273 0c53,-12 101,-31 166,-15l49 -32c138,68 38,-39 219,31 40,-24 250,-42 320,-42l-16 1c79,6 101,14 168,16l118 -15 118 -4 44 23 65 -1c65,-14 60,7 122,8 40,0 119,-7 171,-7l9 8c72,-9 66,-21 126,8l2 3 194 -23 48 1 93 23 120 -3 17 -26c86,-9 373,25 414,35 210,56 67,7 197,34 102,22 106,51 197,3l50 36c40,-46 5,-15 51,-37 113,53 99,6 187,24 56,12 38,1 87,2 147,1 -64,72 213,-4 96,-26 72,4 170,-7l-15 -11 75 16c94,-3 71,-4 142,-33 4,-4 9,-16 12,-12l52 -41c14,-7 71,-28 81,-32 74,-27 83,-33 168,35 3,3 8,7 11,11l30 12c35,-34 76,-45 129,-56l77 -6c0,-62 297,-10 340,0 165,37 168,51 364,42 3,3 8,3 9,9 10,32 73,12 102,4l73 2c44,12 25,-5 43,34 30,-52 44,-33 126,-38 56,-20 42,-11 103,4 100,-9 127,-26 242,-8 14,-28 48,-12 91,-7l21 -3 9 2c45,-10 93,-28 150,-22l210 -14c22,2 54,16 67,21 97,-57 117,-4 219,-38 49,-2 88,-4 136,1 53,5 56,16 113,12 53,-3 156,-16 224,-10l35 10 32 -1c85,5 111,-13 182,32 32,-46 127,-21 212,-22 54,-1 163,10 203,11 61,-1 64,-11 97,-15 50,-5 43,9 105,15l110 8 17 11c70,-23 37,11 123,-4l62 2c49,-15 22,-20 67,1 58,31 4,6 64,25 6,-31 154,-2 189,7 95,1 113,17 194,38l2 -37c67,16 142,28 208,41 86,17 117,-20 193,5 244,80 265,-1 410,49l27 31c4,-58 -43,-36 281,-36 131,0 -12,27 218,22l308 16c52,-8 64,-26 104,9 88,15 73,-2 144,-27 5,3 10,3 13,9 15,39 124,25 160,17l57 2 174 3c56,-8 34,6 41,14 76,-9 97,-20 161,-2l34 -39c70,39 50,16 131,29 21,-32 -5,0 25,-35 0,0 20,-20 21,-21l76 0c71,-11 1,-15 64,-10 55,5 18,31 118,-8 44,-17 62,-15 100,-50 110,49 149,2 167,-4 67,-20 13,5 69,-4 49,-7 33,-19 86,-23l304 -50c448,-90 257,-50 675,-188 28,-33 49,-33 88,-63 29,-24 51,-46 76,-70 4,-3 8,-7 11,-8l87 -67 47 -90c38,-1 87,-15 109,-38l161 -255c1,-3 3,-8 3,-10l47 -72c10,-79 6,-46 37,-110 9,-20 7,-20 14,-37 24,-55 30,-47 56,-127l74 -298c1,-73 -2,-83 30,-143l1 -31 1 -121c7,-13 10,-31 20,-40 -30,0 -20,6 -23,-27l9 -5c-24,-28 -18,44 -30,-105l-13 -181c-4,-62 3,-20 5,-88 -10,-46 -26,-241 24,-262 -11,-21 -51,-118 -9,-126l2 -62c-39,-33 -10,-56 -2,-106l10 -51c-25,-32 -21,-7 -17,-54 4,-47 14,-30 9,-97 -30,-11 -6,2 -34,-17l12 -55 -12 -85c-43,5 -20,13 -37,-29 -58,-18 -21,-20 -48,-68 -11,-20 -10,-15 -29,-37 -19,-23 -16,-17 -26,-36l-101 -35 -52 -3 -12 -48c-49,5 -93,5 -117,-24 -123,-27 -312,-52 -439,-68 -107,-16 -172,-8 -281,-19 -46,-5 -104,-17 -156,-18 -43,-2 -104,4 -135,4 -88,-7 -66,22 -130,12 -21,-3 9,-8 -56,-12 -1,0 -53,4 -62,4l-145 -18c-25,4 -25,3 -47,12l-48 25c-78,-47 -178,-20 -287,-24 -59,-3 -177,8 -245,-15 -107,29 -210,-13 -294,4l-248 -17c-39,-3 -69,1 -101,-9 -36,-10 -9,-17 -78,-24 1,40 23,6 -11,28 -37,-17 -360,-77 -422,-84 -172,-17 -328,-9 -480,-34 -66,-5 -191,14 -226,7 -124,-39 -363,-1 -487,-17 -30,-3 -56,-21 -96,-16 -67,7 -47,27 -104,23 -80,-5 -154,-30 -255,-29l-214 -10 -124 5c-81,-6 -184,-11 -255,-19 -72,-8 -149,10 -224,-8l-219 6 -114 -4 -166 8z"/>
   <path class="fil1" d="M12996 17170l-180 -10 -57 -7c20,43 -31,29 20,35l-248 10c-84,-9 -192,-10 -260,-32 -4,3 -9,8 -11,10 -41,32 -218,90 -342,85 -497,-19 -363,59 -522,51 -151,-7 -286,-53 -305,-53 -53,-1 -33,20 -93,6 -132,-29 -252,19 -327,0 -75,-20 -322,40 -438,-6 97,0 74,-10 101,-30 -27,2 -170,21 -152,-18l-107 -11c-9,17 -15,31 -28,57l-84 -21 -168 20c-63,14 -96,38 -186,40 -166,2 -68,36 -170,59l10 54 -43 -8c-40,7 -95,-5 -116,-6 -19,71 10,33 -7,108l-53 6c-9,-42 -8,-31 8,-69l-59 5c53,-43 20,10 17,-54l-332 -17c-68,8 -51,3 -113,0 -235,-13 -324,30 -419,-40l-48 16c-27,-5 -52,-6 -79,-16 -57,-23 -22,-11 -42,-31 -17,-3 -188,-9 -238,-9 -100,0 -165,-12 -231,-58 -37,36 51,21 -52,26 -19,1 -47,-12 -70,-18 -12,13 -6,-31 -17,37 -158,-13 -104,53 -251,-19 -3,-2 -50,-19 -51,-20 123,0 88,-9 116,-31 -90,15 -97,16 -179,-16 -76,-25 -80,-14 -163,7l-205 -7 -62 -8c28,49 -40,20 24,37 -146,-8 -381,18 -510,-23 -22,21 -21,-3 -37,55 -20,-23 -9,-17 -46,-24 -113,84 -247,53 -371,54 -141,1 -223,-10 -316,48 -32,19 3,33 -14,3 -84,11 -157,9 -244,-2 -65,-9 -125,-52 -174,-42 -9,1 -39,11 -44,11 -57,-2 23,2 -37,-10 -89,-18 -62,8 -155,3 -14,0 -6,-5 -44,-2l-75 27c-2,-3 -6,6 -9,8 -39,-27 -44,-46 -118,-36 -57,7 -55,15 -84,45 -60,-31 -75,-11 -131,19 14,-37 -12,-19 35,-28 -49,-31 -23,-14 -105,-24 -23,-3 -54,-10 -69,-13 97,0 74,-10 101,-30 -77,6 -109,16 -170,-16l-87 -11 -25 49 -24 -8 -261 21c-117,34 -148,38 -284,31 -33,-2 -110,15 -175,12l2 34c65,7 44,4 91,28 3,2 7,4 11,6l115 65c34,25 36,58 41,46 2,-3 5,8 8,11 203,-12 209,102 334,117 10,112 65,39 112,126 17,-59 5,-37 88,-31 -4,-37 -5,-34 -18,-57 -52,29 -70,29 -116,26l39 -63c88,-8 67,13 113,-38 9,-11 1,-27 46,-42 65,-20 34,5 44,10 -30,58 5,5 -82,70l30 66c65,-15 28,-8 75,-59l64 58 -18 61c55,-2 38,20 52,-56l40 17c1,-3 6,6 9,9 -26,-167 42,-136 60,-144 30,55 28,76 70,57 8,69 21,118 153,71l31 23c4,3 18,12 23,14 54,23 15,4 43,10 5,1 9,1 14,2 5,1 9,1 14,2 140,21 44,-31 175,-32l3 -10c19,6 34,11 68,15l12 -25c27,-53 15,-34 65,-43l3 -82c21,87 -12,15 58,80 -8,-84 3,-51 -35,-120 40,-16 45,1 55,4l75 3 -30 55c-18,35 -9,23 -19,37l46 -16c11,11 2,-25 55,16 -49,64 -18,52 -98,18l-29 70 15 24c144,-27 27,7 126,20 -25,-51 -20,-9 -53,-63 55,-34 22,-18 108,-21 155,-5 118,-87 235,-18 47,-40 3,-11 59,-36 64,61 139,66 228,21 30,17 54,31 101,40 26,-43 8,-17 25,-62 18,-46 10,-26 25,-46 3,4 6,9 7,11 0,2 4,8 5,10l12 -19c177,3 52,-34 203,-51 -10,103 -21,55 -91,87 35,16 51,6 92,10 31,-89 9,-37 48,-65 -3,82 4,124 -21,180l27 -3 16 43c20,-33 -16,-84 -16,-117 0,-93 59,-12 1,-156 74,8 80,34 122,90l92 -6 17 -104c-50,3 -57,13 -93,46 -70,-80 -201,-11 -274,-87 25,-30 6,-34 48,-25 4,0 18,10 20,11l21 13c64,-29 22,-27 87,-27l-75 -79 89 15c3,4 6,10 7,13l16 41c7,21 7,28 12,54 69,-23 71,-3 74,-57 -5,3 18,29 -37,7 -50,-19 -7,11 -24,-33 16,-10 6,-12 37,-17 50,-7 4,-4 33,11 13,-16 6,-8 23,-30l20 -27c12,32 -13,-3 33,16 40,16 22,7 45,30l-50 34 168 123 -47 37c42,23 36,47 64,85l25 -43c-60,-31 -18,-6 -50,-39l80 -12 -20 -36c-45,-59 -100,-50 -103,-134 44,26 54,22 80,66 14,-40 40,-45 71,-71l49 55c53,1 84,-1 123,-15l-18 75 -48 -35c52,76 34,26 103,71 0,-108 -50,42 -12,-115 3,3 7,8 10,10l67 43c0,37 -10,43 14,82 26,-42 44,-40 40,-93 -9,25 -12,21 -25,36l-16 -57c100,-52 181,-28 84,53l-18 15c22,3 76,16 109,61l74 -11c6,-91 -9,-81 73,-88 -20,37 24,19 -50,47 110,3 -12,-26 92,3 10,-77 -3,-19 21,-49 107,-7 31,-16 117,-49l31 92c1,-3 5,8 6,15l-64 -18c-13,79 4,19 -23,50l-81 0c-2,0 -6,3 -8,3 -2,1 -7,2 -10,2l-67 11c120,10 49,5 101,31 36,18 62,13 90,8l31 -8c47,-9 -46,-2 38,-2l-19 22c-2,2 -6,7 -8,9 -1,2 -5,10 -6,8 0,-2 -3,4 -4,7 76,-9 -7,2 64,-24 23,-9 43,-11 63,-17 1,75 -25,79 18,145 42,-5 99,-24 114,-55 -99,59 -108,-15 -113,-25 47,-34 59,6 108,-58l-21 -37c85,-4 26,-29 59,46 13,-29 19,-45 33,-72 3,3 8,8 10,10 3,2 8,7 11,10l27 27c56,-12 -1,-6 37,-14 20,-4 10,-2 30,4 19,64 -17,15 22,98l-63 38c63,-5 51,-4 100,-19l17 78c21,-15 46,-25 62,-54 -48,-27 -15,-55 16,-94l107 -2c7,14 48,-25 6,32l70 7 -87 46c40,14 68,19 111,34 -45,-72 -25,-65 35,-99 24,37 -5,65 52,97l26 -33c-43,-10 -23,-5 -50,-34 19,-22 17,8 1,-63 71,-4 42,-12 78,-21l44 -1c72,-4 35,-18 119,2 1,-3 19,-27 20,-28l31 29 67 -12 4 94c68,1 79,16 131,-10l-37 -34c32,-90 -15,-40 -11,-113 0,-4 11,-41 11,-44l36 67 38 -49 67 51c2,2 7,13 9,10 1,-3 6,7 9,10 -27,53 7,14 -48,52l26 26c39,-10 36,-29 107,-32 -14,57 -6,69 -46,80 76,5 28,-15 123,-10 -18,-74 -5,-59 -72,-47 13,-26 -9,-19 33,-45l-99 -61c94,-2 51,12 74,-34l19 67c41,-49 -4,-12 52,-33 12,39 -16,7 18,38l44 44c0,3 -24,38 46,50l-40 -64c53,-24 9,-7 39,-20 36,-16 91,-19 124,6l-82 17c3,13 14,55 20,63 15,21 1,13 37,13 -30,-56 -20,-7 -28,-81 63,31 52,47 103,83 0,-1 13,-34 -7,-44l94 -18c26,53 -15,-32 12,36 24,58 38,13 61,103l-42 34c-85,-32 41,40 -22,-10 -47,-38 -9,-10 -11,-12l-4 -21c-15,35 -23,48 -41,73l50 67c-4,3 -10,6 -12,8l-39 26c85,40 1,-50 114,-70 -24,69 -13,4 -27,62 82,15 37,-8 93,-76l32 48c24,-76 -17,-83 -37,-138 34,-3 47,-9 61,-10 67,-5 24,0 36,9 -11,-42 -51,-57 -66,-121 -80,-8 -35,-2 -62,-25 44,-22 60,-12 126,-21l15 120c48,-21 92,0 136,-21 0,0 -7,40 -7,44 1,17 -4,2 11,23 9,-28 29,-29 57,-46 3,-2 8,-5 11,-7l24 -12c11,13 12,11 25,33 3,5 10,28 13,33 18,-28 -3,-22 33,-17 79,13 97,0 133,86 33,-55 -10,-31 49,-60 16,25 18,-2 -6,54 68,23 20,-7 63,42l25 -55c29,18 24,19 65,21l73 -72 54 32c-23,52 -24,44 -90,73 39,13 22,6 67,2l23 86 -51 31c93,-10 18,-6 97,-48 73,94 16,34 115,71 43,17 6,12 59,39 37,19 89,21 101,-26l7 -26c1,-4 3,-5 4,-8l40 63c41,-27 34,-8 72,-29l-80 -47c129,18 147,52 187,112 85,-63 -20,23 15,-85l98 84c2,-75 12,-114 55,-170 28,18 50,37 90,52l20 -56c19,53 4,23 30,54 43,-6 42,-15 79,-30 4,6 45,-26 7,46l70 17c-13,-19 -49,-4 8,-81 111,11 22,-16 67,81l147 -44c-16,-64 -19,-21 -47,-89 55,15 58,25 115,0 -52,-47 -13,-6 -34,-61 -29,37 -30,-45 -24,42 12,-84 -3,-30 -25,-59l-65 36 -74 -72c-2,1 -39,18 -49,19 -107,9 -13,7 -56,-18l122 -51c36,-7 82,-4 125,-1 74,-92 92,-27 115,-4 23,-92 35,-29 43,-122l7 16c1,2 5,9 6,10l14 24c180,-76 33,-54 136,-70 -55,67 -16,-12 -45,70 98,18 -3,-19 152,6l-6 86 -66 5c-40,55 9,12 -45,54 -38,-40 -46,6 -81,-81 -5,3 -12,7 -16,10l-51 55c-21,-13 26,-35 -55,-8 -37,12 -23,1 -42,36 74,37 3,26 61,39l44 4c128,5 137,-27 210,-49 15,29 5,21 40,33 30,-45 -3,-15 50,-47 25,13 19,-2 51,13 -19,-96 -44,-70 -53,-146 25,-16 11,1 30,-24 34,-44 13,-16 6,-32 5,2 21,11 47,16 55,11 48,-11 130,-8 -7,-42 -5,-81 0,-104l-33 -32c-17,42 -23,47 -44,77 -47,-35 -16,10 -54,-51 49,-83 72,-20 66,-80 -2,2 42,18 -27,10 -62,-7 -12,1 -44,-25 13,-16 16,-30 45,-40 84,-28 5,-6 35,12l-3 -56 121 58 -65 26c48,35 85,26 96,34l19 33c1,1 4,4 5,5l17 6c35,24 13,-6 28,24l2 30c0,-3 -3,12 -4,18 -28,13 42,30 -49,11l-79 -35c-1,4 -3,10 -4,13 0,3 -3,9 -4,13 -1,3 -3,9 -4,13 -4,16 -5,6 -9,41 26,-18 9,-17 56,-8 -32,31 -13,8 -9,78l85 9c27,-30 12,3 28,-42l48 11 -43 69 -83 -29c-21,23 -17,-15 -34,54 -47,7 -35,6 -87,14 -6,1 -22,3 -27,4l-52 5 48 50c12,10 22,18 35,27 142,-72 123,-40 150,-27l17 -55 124 4c-1,5 -3,11 -4,15l-6 26c-1,3 -5,15 -6,21 38,-24 21,-25 48,-53 17,-18 25,-22 35,-35l21 -34c2,-6 5,-8 7,-12 21,27 15,-1 30,52 18,-40 3,-11 33,-36 18,-15 9,10 34,-34 41,17 34,11 52,37 25,-56 -34,28 11,-17l13 -9c0,0 32,2 9,-73 59,-11 69,-17 138,-21 45,-47 46,-50 118,-46l14 -60c30,17 27,17 71,26l-29 -22c-19,-18 -7,-6 -19,-26 96,3 5,-15 81,44 10,-18 15,29 12,-51 121,2 51,-12 140,-48 25,56 5,27 12,52 9,28 4,3 25,52 -49,-5 -26,-1 -66,-12 -10,79 0,24 -22,49 -131,-14 -28,-6 -134,3 -47,3 -3,-7 -28,11 27,7 -28,-8 12,3l34 9c70,9 46,7 86,-17 -23,60 19,27 -45,48 192,9 36,-20 165,-15 -3,5 -7,10 -9,13l-27 39c86,-13 11,-30 136,-36 -15,66 -17,88 12,136 38,-6 46,-10 74,-23 39,-18 27,2 35,-32 -3,2 14,25 -57,15 -71,-11 -20,17 -51,-39 3,-3 8,-6 10,-7 93,-37 32,20 77,-25 43,-43 -6,-27 13,-70 43,15 32,-32 40,60l45 -68 96 31c2,-4 8,3 13,5 0,3 1,8 2,10l40 105 34 71c20,-14 36,-27 61,-45 -20,-21 -17,-13 -30,-56 37,-32 41,-48 115,-47 80,2 31,-18 56,31 28,-10 22,-14 58,5 -51,50 -35,18 -87,47l110 33c-32,-71 -21,-81 59,-98 -16,52 -15,23 -13,76l67 -17c-68,-6 -24,-7 -49,-94 70,-5 57,-18 90,-24l152 3c2,-2 19,-28 19,-28l28 35 73 -19 6 99 135 -7 -45 -40c32,-78 4,-39 -6,-75l16 -81 27 65c48,-68 69,-15 115,3 23,-12 -15,0 39,-13 5,-1 25,-1 30,-3 45,-14 17,9 36,-36 13,20 22,-25 19,68 40,-39 -3,-9 49,-32 20,50 45,40 83,69 24,-21 27,-32 68,-38 37,-6 65,7 85,22 -27,16 -56,4 -84,17 9,29 17,53 32,80 21,-27 2,-41 -3,-84 47,22 97,76 97,76 1,-3 6,5 8,8 8,-15 24,17 -5,-49l91 -3 21 49c37,58 -33,-49 25,27 83,108 -30,64 -72,73l-23 42c12,13 16,15 30,33 17,20 9,10 23,35l-53 33c44,22 40,-8 66,-44 20,-26 7,-10 31,-25l-11 62c77,15 50,-7 91,-79l38 45c13,-33 16,-23 1,-60l-37 -72 98 -10c-4,-4 -13,-12 -15,-15l-117 -124c61,-31 39,-5 80,-19 -34,-17 16,8 -29,-11 -24,-10 -25,-11 -37,-18 58,-69 115,17 239,15l-62 78c-53,-18 -17,6 -50,-22l13 73 65 -80 53 118 76 -41 108 53c0,-1 0,4 1,6 81,-37 94,-3 121,67 2,-2 19,-23 22,-24 22,-16 60,35 82,57l28 -65c14,15 32,33 44,45 16,-19 23,-22 35,-34l24 -28c37,-29 16,-30 67,1 0,75 -3,47 -73,82 55,14 -1,8 68,-1l25 87 -52 30c117,-8 1,-3 98,-45 39,48 -3,35 57,57 42,17 28,-5 79,25 86,48 39,44 143,27 0,-8 -1,-35 -1,-37 1,-25 -3,-6 8,-24l41 55 69 -20c-23,-17 -46,-24 -76,-48 32,2 46,3 69,11 49,15 76,41 105,83l11 19c76,-65 -23,19 13,-86l100 83c3,-73 10,-114 55,-168 76,46 139,56 219,21 5,7 45,-27 7,45l72 17c-4,-6 -41,-4 -14,-58 21,-41 -7,-15 53,-24l25 79c59,5 57,9 105,-15l51 -27c-20,-68 -21,-10 -45,-90 66,23 57,33 112,-7 -43,-32 -17,-10 -33,-54 -29,39 -31,-48 -23,44 9,-73 4,-32 -22,-59l-69 36 -48 -45c-27,-32 -36,-19 -137,-11 41,-45 -29,-18 72,-55l181 -16c19,-21 21,-21 39,-40 27,-29 13,-18 41,-38 -39,-71 13,-33 -59,-44l31 -34c0,-2 2,-6 2,-9l11 -78 -3 -60c-29,-21 -23,23 -23,-20 -4,4 -9,9 -11,13 -3,2 -8,8 -10,11 -3,3 -6,9 -8,12 -2,2 -5,13 -6,10 -1,-2 -3,7 -10,12l-28 -64c-24,10 -53,15 -93,22 36,39 50,16 24,75 -31,-33 -29,-29 -43,-64l-52 37c-2,1 -6,0 -8,1l-38 21c-3,2 -10,13 -12,9 -3,-4 -9,7 -14,10 -31,-21 -15,14 -41,-42 -15,93 7,32 -47,48 -20,-68 -31,-43 8,-104 -24,-5 -20,-19 -38,-33l17 -6c-59,24 -31,-38 -50,27 -40,1 -70,3 -118,6 -70,5 -44,10 -118,21 -15,-1 -125,5 -150,10 -30,58 9,22 -47,25 -4,0 -36,-10 -53,-10l-74 14c-3,-7 -9,-6 -13,-9 -37,70 -11,40 -42,55 -51,33 -27,44 -109,35 22,-44 20,-31 53,-52l-20 -28 17 -5 -59 8 -76 1 -56 33c-3,-4 -8,6 -12,9 77,14 26,2 43,25 -9,33 -39,43 -33,62l1 -25c-22,24 -4,0 -31,39l-13 28c-9,-48 1,-13 -14,-50l-20 -28c-14,0 -39,-1 -52,1 -32,5 -33,13 -45,20l18 -38c-58,-12 -18,2 -45,-34 20,-26 13,-10 6,-54 -72,11 -46,0 -104,-9 -58,-9 -62,7 -115,8 -119,1 -587,-55 -657,-21 -130,-68 -98,-8 -199,-13l-406 -27c-27,-5 -162,-36 -177,-42 -94,24 -93,36 -207,5 -106,-28 -114,11 -213,-25 -76,-28 -15,-16 -97,-10 -42,2 -212,-50 -321,-24l-47 -40c-19,6 -130,62 -135,12 -79,3 -95,9 -168,-12 -15,17 -9,-11 -17,36 -134,-1 -98,15 -150,22 -3,1 -21,-2 -24,-2 -54,-9 -79,-36 -128,-56 65,0 127,23 101,-33 -87,15 -87,10 -163,-16 -78,-24 -110,-8 -192,10z"/>
   <path class="fil2" d="M19969 14905c68,34 62,13 54,108 -60,-25 -3,-1 -40,-23 -4,-2 -8,-5 -11,-7l-53 -19 -49 54c7,50 2,17 14,65 -66,-16 -16,-18 -89,6l3 48c16,25 45,63 1,73l2 72 36 23c-3,45 -24,92 -24,104 -2,42 9,-23 8,48 0,51 -43,176 -32,255l-49 9c13,31 11,-34 9,38 -1,35 -17,30 -12,81l-3 38 0 34c93,16 15,6 59,24 19,7 32,10 54,13 0,3 -2,61 -2,62 0,7 0,10 1,17l4 82c0,3 -24,95 -32,114 -35,-7 -34,29 -26,-19l-10 83 -50 -31c-13,53 -4,35 -32,58 -17,-46 -8,-26 -26,-50 -36,40 -12,-23 -21,33 -8,49 10,21 17,29l-31 25c-28,29 -18,36 -57,59 -5,-2 -11,-4 -14,-6l-62 -27 -33 44c-4,35 5,19 -11,56l-68 105 25 -6c2,-5 7,6 12,9 -24,60 29,-22 -17,16 18,-64 -14,-69 118,-75l17 97c89,15 57,-5 69,66l-69 7c-10,62 -7,83 -34,114 -17,-34 20,-42 -22,-85l-59 -43c-30,-14 8,-14 -43,5l23 -102 -50 53 3 28 43 53c-83,89 50,20 -71,95 83,39 47,8 33,84l106 -52 -24 79c-1,-2 -3,9 -5,13 55,28 27,-8 45,68l-77 39c-2,-4 -5,7 -8,11 30,26 -17,-1 39,26 35,18 -2,2 33,7l-11 -3c-1,0 -2,5 -2,6 0,1 0,7 0,8l19 17c-45,11 -28,-2 -49,-9 -2,0 -7,-3 -9,-3l-127 -13c-9,119 -18,11 -40,102 -14,55 15,18 -22,64 4,4 9,7 12,10 30,26 32,16 31,64l-57 -6c-3,-1 -9,-5 -12,-7 -2,-1 -9,-2 -11,-7 -2,-6 -8,-6 -11,-9l-14 83c-26,-22 -17,-14 -51,-35 -3,3 -8,8 -11,10l-40 36 -33 -51c-44,41 -23,45 -79,78 36,24 27,7 30,61l-114 -23c5,59 25,12 -34,36 -47,19 20,16 -81,7l-13 2c-3,3 -7,7 -9,8l-59 39c-1,1 -4,4 -5,5 -1,1 -5,3 -6,4l-42 16c31,104 41,9 109,84l-188 -18c-27,32 -22,42 -76,46 48,-42 45,-26 13,-98 -48,4 -38,-1 -70,34l-25 -33 69 -32 4 -154 -91 -11 -9 72c-14,6 -13,3 -27,24l47 48c-37,23 -22,43 -82,-10 -5,3 -23,17 -27,18l-64 38c1,-2 6,2 10,3 8,49 4,3 -8,72 61,-47 4,-35 69,-62 49,53 2,6 36,59 19,29 0,10 41,38l-15 46c28,-19 21,32 21,-18 4,3 8,8 11,10 26,18 6,41 75,-1 24,15 46,25 61,36 20,15 16,17 40,34l152 -76c116,-27 74,31 213,-22 3,-84 14,-54 -58,-108 50,-29 102,-15 145,14l-65 22c30,29 25,-17 22,74 22,-37 31,-24 68,-57 1,0 14,-15 16,-17l39 -61c202,3 185,-45 223,-68 65,-38 27,-12 48,0 17,-131 -25,5 73,-118l27 23c52,40 -27,-10 15,7l4 -112 84 -3 1 -77c-15,-37 -19,-36 -36,-71 75,-3 100,-26 152,-118 37,-66 38,-42 37,-109 -70,7 -23,9 -46,14 -26,6 4,10 -26,-3 20,-41 -6,-24 39,-40 9,-3 57,-2 69,-2l65 -94c44,-64 20,-51 45,-116l-48 -56c106,5 67,39 139,-129 13,-31 -1,1 12,-37 23,-71 -34,-22 48,-65l0 -157c32,32 8,-2 29,39 2,3 7,32 8,37 6,-136 0,18 74,-149 54,-122 33,-43 28,-160l38 -53c-1,-4 -7,-15 -8,-19 -7,-30 -6,-3 5,-36 -43,14 2,-1 -29,14 -12,6 -4,5 -40,17 19,-51 4,-40 22,-73 29,-50 19,8 26,-73l31 26c15,4 5,8 17,-11l37 -227c22,-341 10,-184 -13,-325l66 -43c-6,-56 -11,-59 -15,-109 77,37 34,-5 76,66 7,-32 8,-29 20,-57l74 5 0 -105c-84,44 -102,24 -138,-8 51,-18 23,-14 66,-26 33,-8 2,21 48,-22 -42,-47 -29,-10 -54,-53 -27,-45 41,1 -42,-45l16 -104c-48,-29 -47,-3 -55,-26 -28,-80 -46,20 -3,-108 -76,-96 -3,-26 -90,-171 -24,-41 -16,-135 -103,-114 9,-91 -20,-85 -75,-121l-56 53c-13,2 -45,2 -53,2 32,75 26,30 52,52l10 96c21,42 11,59 16,116 7,70 -9,86 -13,120 -4,35 15,-4 -4,46 -26,68 -44,39 -44,39l0 0c29,-30 19,-30 61,-25 48,5 50,24 51,25 0,4 0,11 0,14l-8 32c-14,46 10,-27 14,122l-68 -76c-1,2 -12,17 -17,24 -22,30 7,-6 -19,20l19 36z"/>
   <path class="fil3" d="M1609 16812l-20 26c29,31 22,22 31,71 17,97 10,57 50,86l-8 -71 10 9c26,22 3,-1 37,40 0,-1 9,-74 58,-21 1,2 6,7 8,9 1,2 7,7 8,9l20 19c-62,34 -27,25 -47,44 36,42 3,15 27,49 17,25 13,15 33,35 57,58 214,110 304,132 31,12 71,28 103,36l126 26c203,21 95,-25 253,31 54,-28 91,-31 145,11 62,-16 86,-29 150,-17 110,20 54,3 135,-2 102,-6 170,10 279,7 65,3 142,-14 175,-12 136,7 167,3 284,-31l261 -21c26,-3 18,4 18,-26 -106,52 -21,15 -56,-9l24 -71c48,17 49,15 63,65l-13 -100c-1,-7 -6,-8 -9,-11l52 -29c22,-9 26,-10 58,-13 6,-1 70,1 70,1 28,7 49,-52 49,32l0 25c73,-9 127,-17 218,-17 -19,-59 -37,-50 17,-50l33 77c16,-13 17,-38 85,-26 -9,67 4,37 -53,84 -3,-2 -7,-5 -8,-6l-79 14c-5,1 -25,10 -29,14 -5,4 -11,8 -16,13 -6,4 -11,10 -17,15l860 -17c164,-23 665,-32 724,-53 33,-15 30,-22 101,3 -2,-17 -19,-42 17,-67l-31 -6c-52,-10 -26,13 -37,-28l-52 62 -152 12 -34 -52c0,-2 4,-7 5,-9l6 -14c0,-2 -2,-10 -4,-15 -3,-1 -7,-3 -9,-4l-45 -28c4,83 3,26 -16,71 -5,12 -14,32 -15,36l-135 -92 -273 0 68 82c-76,27 -83,11 -93,-71l-63 2c1,6 2,13 3,17 0,4 2,12 2,16 14,104 -48,42 -55,37 -2,4 19,21 -28,22 -99,2 -16,-1 -47,-22 60,-76 54,-26 81,-87 -62,18 -52,11 -121,21 -92,13 -10,30 -101,-4l10 76c-23,31 -5,20 -60,26 -10,1 -27,-5 -45,-4 -43,4 -48,20 -68,40l-6 -15c-42,-71 -5,36 -15,-22 -1,-7 -6,-9 -9,-13 -73,50 -7,27 -107,42l39 -35c21,-15 14,-6 34,-14 -27,-54 -11,-1 -26,-61 -45,52 0,29 -101,33l-7 -39c-3,-2 -34,4 -60,-26 -83,-45 -255,-81 -363,-67 -67,9 -144,5 -193,31 -51,28 -77,55 -149,42 -98,-1 -215,27 -322,39 -197,77 -179,-21 -428,51 -65,19 -60,21 -98,7 -48,-18 24,-11 -47,-19l-168 -4c-78,5 -52,9 -123,-27l-47 41 -50 -35c-106,54 -87,1 -302,-10 -87,-4 -207,-81 -240,-98 -84,-41 -74,-49 -148,-72 -19,-36 -8,-34 -32,-66 -4,-5 -7,-11 -10,-15l-59 -69c-49,80 -4,78 -68,128 12,-60 16,-70 0,-128 -42,-19 -30,-9 -51,-34l-33 67c0,-36 5,-1 -33,-9z"/>
   <path class="fil4" d="M13860 17017l-10 62 -88 -10c-24,100 -49,28 -94,125 128,-7 31,-1 69,27 5,50 116,-6 135,-12l47 40c109,-26 279,26 321,24 82,-6 21,-18 97,10 99,36 107,-3 213,25 114,31 113,19 207,-5 15,6 150,37 177,42l406 27c101,5 69,-55 199,13 70,-34 538,22 657,21 53,-1 57,-17 115,-8 58,9 32,20 104,9 104,9 151,1 253,12l76 -1c12,-60 -14,-33 -76,-58 6,-55 1,-20 -13,-33l7 -55c-3,-34 -35,-1 6,-46 -87,-17 -42,7 -107,-35l-57 -2c-46,56 -78,30 -136,8l49 70c-5,0 -12,-7 -14,-2 -23,54 23,-26 -64,16 -62,31 0,4 -77,16l-13 -72c-72,-14 -52,-26 -62,-35 -40,-35 -52,-17 -104,-9l-308 -16c-230,5 -87,-22 -218,-22 -324,0 -277,-22 -281,36 122,51 65,53 67,80 -68,47 -94,28 -141,-17 -2,3 -6,4 -8,9 -1,8 -12,16 -15,19 -27,25 -52,37 -103,17 33,-58 -16,-44 88,-44l4 -41c-1,-1 -3,-7 -4,-8l-23 -29c113,51 93,10 108,-17 -145,-50 -166,31 -410,-49 -76,-25 -107,12 -193,-5 -66,-13 -141,-25 -208,-41l-2 37c6,64 12,29 -9,85 -43,1 -82,1 -110,-12 -60,-26 -59,-100 -124,4l-50 -76 117 10c-39,-129 6,1 -18,-49 -35,-9 -183,-38 -189,-7 5,34 15,29 -13,29 -25,40 6,11 -54,27l22 29c-7,-2 -39,-15 -41,-15 -57,-7 -52,6 -58,6l26 -49c-26,-17 -21,-3 -13,-53l-62 -2z"/>
   <path class="fil3" d="M7757 17038c-6,3 -11,9 -15,11l-53 22c-60,98 -31,48 -30,87 5,132 32,79 35,78 66,46 131,58 231,58 50,0 221,6 238,9l56 15c3,-57 16,-34 -15,-69l-41 -38c104,-8 64,-3 92,15 -1,42 -13,47 -27,70 73,22 30,-6 56,54l48 -16c95,70 184,27 419,40 62,3 45,8 113,0l332 17 94 4c21,1 76,13 116,6l-3 -51 36 5c102,-23 4,-57 170,-59 90,-2 123,-26 186,-40 33,-61 27,-90 101,-60 -22,-23 -7,8 -21,-34 -18,-54 0,-11 4,-12l-52 24c-61,19 44,27 -46,5 -57,-13 4,10 -20,-21 32,-42 32,-61 76,-18 37,-68 30,-15 68,-99l-9 2 -30 -12 -324 39c-71,29 -48,30 -142,33l18 64c-103,1 -39,9 -100,-27 -9,107 -13,41 12,63l10 -105c-98,11 -74,-19 -170,7 -277,76 -66,5 -213,4 -49,-1 -31,10 -87,-2 -88,-18 -74,29 -187,-24 -46,22 -11,-9 -51,37l-50 -36c-91,48 -95,19 -197,-3 -130,-27 13,22 -197,-34 -41,-10 -328,-44 -414,-35l-17 26z"/>
   <path class="fil5" d="M2960 13183l-37 -14c-107,57 -107,24 -231,16 -7,7 -2,16 -32,25 -46,15 -8,15 -36,-12 -18,-3 -20,-1 -40,-1 -38,1 2,17 -26,-2l-74 -2c20,59 -10,20 34,55l-10 2c88,0 13,-7 29,34 -56,30 -126,31 -153,26 -54,-9 -23,3 -46,-29l-13 31c-11,-22 10,-65 -90,25l-39 37 103 -6c-36,57 7,3 -28,36 -47,44 -55,36 -104,54 -44,25 -44,38 -74,95 -29,52 -41,48 -75,90l-45 324c61,-17 26,11 59,-47 1,-2 1,-8 2,-12 6,57 11,41 -5,112 24,-9 38,-11 44,-12 -9,36 15,21 -29,27l2 57c1,1 3,1 3,3 0,2 4,3 4,4l16 15c2,2 7,7 10,11 20,-98 -4,-1 46,-105 3,-4 4,-10 6,-14l16 -29c8,58 -6,28 31,65 21,-53 -13,-10 30,-68 -16,-54 -25,-91 -7,-145l47 -128c67,-88 18,-19 9,-43 -11,-33 -50,-37 -71,-46l-22 -64 74 -17c-28,37 -22,-9 -23,42 0,63 3,18 16,47 51,-9 35,-6 72,-38l77 -12c90,-37 -37,-42 226,-98 89,-19 195,2 300,-2 99,-3 203,-19 320,-20 118,-1 177,-43 286,-16l67 -53c94,14 458,-10 573,44 115,-56 35,-26 168,-25 41,0 78,0 119,2 43,2 33,11 100,-22 56,39 155,17 253,23 -39,-48 49,-33 -34,-35 2,3 -50,21 10,7 22,-5 29,-6 34,-12 38,-36 22,-39 24,-101 -74,-11 -100,-38 -169,-33 -103,7 -137,8 -238,-6 34,27 26,14 44,68 -63,24 -19,11 -86,8l-32 0c-3,0 -9,2 -12,1 -4,0 -10,0 -13,-1 -81,-25 9,-49 9,-49 -1,0 -42,-2 -43,-2 -55,-15 -24,10 -57,-33l-42 11c5,14 11,43 15,57l-67 15 -38 -81 -29 6c-11,49 -6,3 5,42 6,21 10,13 9,53l-64 -4c-38,-31 8,0 -50,-28 -19,45 -11,59 -69,83l-31 -64 -70 12c29,-29 -3,-1 -35,-9l-72 -36c16,-44 -4,-37 45,-55l-28 -16c-45,23 -120,30 -164,31 -44,5 -52,-1 -47,38l-19 58c-27,-24 -10,-8 -49,-17 -147,-31 70,46 -50,-12l32 -49 -54 15c-73,-65 -9,-12 -8,-33 1,-30 10,14 -6,-24 -3,-8 -15,-24 -22,-42l-11 -4 -35 168 -49 -13 16 -67c-42,21 -23,11 -39,27 -3,3 -5,7 -8,11l-53 63 -30 -50c20,-12 15,-8 34,-18 3,-2 11,-1 14,-8 2,-7 10,-5 15,-8 -204,-10 30,75 -208,11 -31,-9 -53,-7 -74,-35l67 -60z"/>
   <path class="fil6" d="M19318 16713l5 126c-84,8 -12,-25 -83,41 -48,-39 21,1 -43,-33 -43,12 -6,-8 -37,25 -49,52 -8,43 -134,69l-13 33 -51 3 -37 40 -64 10 -121 100c25,-14 40,-21 67,-33 17,33 13,19 18,28l7 25c-27,76 -45,2 -115,2 -8,36 12,49 24,96 -62,5 -73,-11 -120,-25 26,61 27,33 68,56 -44,3 27,-7 -33,-1 -71,6 -1,-10 -23,9 -25,-43 -26,-29 -34,-81 -39,15 -33,13 -80,16 -73,6 -51,-6 -92,37l-43 -16c-14,57 25,8 -84,87 28,28 -31,10 52,33 -96,77 -45,3 -72,101l-7 21c-124,13 -82,6 -158,-36 -77,-43 -65,-7 -152,-13l-11 78c0,3 -2,7 -2,9l-31 34c72,11 20,-27 59,44 -28,20 -14,9 -41,38 -18,19 -20,19 -39,40l-181 16c-101,37 -31,10 -72,55 101,-8 110,-21 137,11l48 45 69 -36c26,27 31,-14 22,59 -8,-92 -6,-5 23,-44l21 -12c3,-86 -16,-2 169,-71 23,60 9,25 39,53 8,-23 135,-17 174,-8l15 -46c-41,-28 -22,-9 -41,-38 -34,-53 13,-6 -36,-59 -65,27 -8,15 -69,62 12,-69 16,-23 8,-72 -4,-1 -9,-5 -10,-3l64 -38c4,-1 22,-15 27,-18 60,53 45,33 82,10l-47 -48c14,-21 13,-18 27,-24l9 -72 91 11 -4 154 -69 32 25 33c32,-35 22,-30 70,-34 32,72 35,56 -13,98 54,-4 49,-14 76,-46l188 18c-68,-75 -78,20 -109,-84l42 -16c1,-1 5,-3 6,-4 1,-1 4,-4 5,-5l59 -39c2,-1 6,-5 9,-8 -18,5 -8,7 -29,6l-90 -23c19,-44 11,-17 15,-44l8 -61c29,35 39,-62 19,66 -8,-84 -2,-9 31,-38 4,4 8,5 10,13 2,7 7,9 10,12l39 67c101,9 34,12 81,-7 59,-24 39,23 34,-36l114 23c-3,-54 6,-37 -30,-61 56,-33 35,-37 79,-78l33 51 40 -36c3,-2 8,-7 11,-10 34,21 25,13 51,35l14 -83c3,3 9,3 11,9 2,5 9,6 11,7 3,2 9,6 12,7l57 6c1,-48 -1,-38 -31,-64 -3,-3 -8,-6 -12,-10 37,-46 8,-9 22,-64 22,-91 31,17 40,-102l127 13c2,0 7,3 9,3 21,7 4,20 49,9l-19 -17c0,-1 0,-7 0,-8 0,-1 1,-6 2,-6l11 3c-35,-5 2,11 -33,-7 -56,-27 -9,0 -39,-26 3,-4 6,-15 8,-11l77 -39c-18,-76 10,-40 -45,-68 2,-4 4,-15 5,-13l24 -79 -106 52c14,-76 50,-45 -33,-84 121,-75 -12,-6 71,-95l-43 -53c-20,9 -51,9 -49,46z"/>
   <path class="fil7" d="M17224 17140l34 86c-86,7 -64,40 -125,-34l-31 4c-81,-13 -61,10 -131,-29l-34 39c-38,73 -56,97 -143,94l71 39c-55,39 -4,30 -91,19l29 52 -17 5 76 45c31,-15 5,15 42,-55 4,3 10,2 13,9l74 -14 25 -63 39 65 36 -17c25,-5 135,-11 150,-10 42,-38 -55,-31 55,-31l-39 -51c56,-42 -1,-16 55,-16 35,-1 42,-15 62,-37l20 20c36,26 20,21 131,1l2 60 -17 6c165,24 28,-66 152,-18l24 -48c33,19 -26,19 58,17 12,0 69,-9 86,-10 9,-4 28,-21 51,-40 56,5 26,-9 49,34 54,-46 35,-21 86,-19l41 0 -2 -28c68,11 21,-10 99,-18 27,-27 21,-17 61,-2 154,56 -89,-15 43,17 54,-47 208,-84 284,-101 54,-11 99,-21 148,-34 28,-8 53,-16 74,-22 57,-17 30,13 71,-40l26 12 64 -10 37 -40 2 -66 12 -39c-27,-4 -60,-18 -84,0 -24,-42 -34,-55 -85,-69 -418,138 -227,98 -675,188l-304 50c-53,4 -37,16 -86,23 -56,9 -2,-16 -69,4 -18,6 -57,53 -167,4 -38,35 -56,33 -100,50 -100,39 -63,13 -118,8 -63,-5 7,-1 -64,10z"/>
   <path class="fil5" d="M1825 15093c-7,7 -11,5 -24,35 -13,32 -7,18 -15,54 -7,32 -11,63 -19,98 23,30 35,-56 20,65l-40 -23c-25,79 -93,240 -88,326 56,25 42,4 70,70l-89 -18 2 43c-5,3 -18,12 -20,14l-24 20c1,50 -1,78 -10,118 -21,85 -69,51 -62,322 4,120 6,105 32,217l-34 -4c21,63 50,146 61,196 34,160 -2,154 24,186 38,8 33,-27 33,9l33 -67c21,25 9,15 51,34 16,58 12,68 0,128 64,-50 19,-48 68,-128l59 69c3,4 6,10 10,15 9,-61 -9,-80 -34,-118 -19,-28 -37,-69 -60,-93l-11 51c-20,-32 -16,-40 -27,-78 -25,-89 4,-38 -42,-65l20 -51c24,49 15,19 48,34 -4,-309 -38,-115 -24,-389 4,-82 -14,-68 48,-70 -7,-60 -14,-85 9,-151 18,-53 0,-15 24,-44 -3,-4 -7,-15 -8,-12l-24 -42c25,-25 23,-16 44,-52l26 -88 -1 -62c3,-1 6,-4 8,-5 1,-1 6,-5 7,-6 1,-1 7,-6 8,-7 1,-2 7,-4 8,-9 2,-6 6,-7 9,-10 -5,-44 24,-97 56,-131 -15,-18 -21,-27 -33,-56 71,-46 65,-80 45,-172 41,-43 18,-58 65,-92l-18 -67c54,-71 34,12 43,-85l-6 -34 -47 -33c24,-74 37,-34 -17,-68 -62,55 2,73 -71,88 3,4 30,35 31,38 32,52 -13,-57 23,59 -35,7 -49,-7 -101,51l-36 -10z"/>
   <path class="fil5" d="M8970 13141l-51 -5c-101,56 -111,24 -232,15 -6,6 -20,21 -31,24 -39,13 -9,12 -34,-9 -79,-18 -30,-11 -68,5l11 79c49,-49 -15,-15 77,-36 42,-9 50,-11 109,-14l-68 81c76,-12 25,1 63,-31l30 -34c-16,68 -10,60 2,133 -30,-57 0,-50 -95,-29l-59 -40c-58,-16 -223,0 -294,4 1,-1 4,-3 4,-3l-29 -14c-63,26 -54,33 -109,-5l9 76 74 -4c-37,55 -25,61 -90,86 231,-3 138,-13 337,25 77,14 58,-10 140,-15 131,-8 98,15 339,-8l504 -22c59,-41 25,-1 48,-54l53 6c-53,-41 68,-34 -68,-34 59,-39 51,-41 68,-102 62,0 84,25 84,-33 -53,2 -100,18 -135,8l-68 19 -17 44 17 46c-36,-28 0,-9 -49,-19 -6,-1 -29,-3 -34,-3l-36 -13 36 -50c-36,-4 -35,43 -67,-35l102 23c-25,-27 -28,-7 -104,-21l-20 -50 -13 -4 0 55c-21,4 -14,-17 -27,45l-3 51c0,-2 -1,7 -4,17l-49 -12c8,-25 -13,-9 50,-68 -63,8 -14,-12 -63,16 -5,3 -16,17 -20,21l-37 62 -44 -48 63 -34c-176,-15 -55,82 -166,63l34 -31c2,-7 7,-9 10,-13l-156 -36c30,-57 -29,-37 76,-28l0 -47z"/>
   <path class="fil8" d="M19069 16595c18,63 -6,27 32,65 -65,8 -57,-8 -84,51l-46 -41c-25,24 -47,46 -76,70 -39,30 -60,30 -88,63 51,14 61,27 85,69 24,-18 57,-4 84,0l-12 39c42,37 15,21 62,30 126,-26 85,-17 134,-69 31,-33 -6,-13 37,-25 13,-28 16,-34 19,-76 6,-1 19,2 50,8 4,-58 -10,-46 52,-66 -2,-37 29,-37 49,-46l-3 -28 30 -56 68 -105c16,-37 7,-21 11,-56 -44,-23 -31,-13 -93,12 9,-62 -18,-19 17,-68 -64,-42 61,-74 -34,-84 51,-78 20,-34 23,-70l-161 255c-22,23 -71,37 -109,38l-47 90z"/>
   <path class="fil9" d="M6791 13193l1 68 -63 10 -17 -4c28,83 -9,32 48,58 -51,10 -27,7 -59,38 141,-52 37,-15 77,11l418 -34c22,-38 -33,-35 40,-28 -47,-75 -8,-33 2,-47 3,3 8,3 9,8 1,4 7,6 9,7 49,42 -8,-11 17,14 39,38 19,23 38,49l392 0c0,-88 0,-20 31,-48 110,-101 -26,52 36,-31 -36,-8 -19,5 -35,-31l39 -76c-319,36 -277,2 -422,2 -51,0 -79,15 -121,18 -49,4 -57,-11 -108,0 -79,17 2,30 -94,11 -69,-13 -164,3 -238,5z"/>
   <path class="fil10" d="M19730 15371l-3 16 7 52c52,26 -14,-29 4,119l-121 0 -74 298c-26,80 -32,72 -56,127 -7,17 -5,17 -14,37 -31,64 -27,31 -37,110l11 34c25,-55 15,-45 17,-101 0,0 58,-19 70,86 1,4 4,31 2,34 0,2 -2,6 -3,8l-14 17c-3,3 -8,9 -10,11 -3,3 -8,8 -11,13l22 51c-9,-5 21,-20 -40,-16 -84,6 25,-29 -32,15 3,40 10,35 45,66 -50,19 -45,26 -31,2l-65 16c-35,49 -8,6 -17,68 62,-25 49,-35 93,-12l33 -44c23,-45 57,-63 70,-103 14,-42 1,-36 14,-70 18,-48 25,-24 43,-62 18,-37 -4,-18 17,-63 33,-71 45,-4 54,-118 9,-106 -15,-47 30,-84l3 -38c-5,-51 11,-46 12,-81 2,-72 4,-7 -9,-38l49 -9c-11,-79 32,-204 32,-255 1,-71 -10,-6 -8,-48 0,-12 21,-59 24,-104l-36 -23c-92,-89 -68,64 -71,89z"/>
   <path class="fil11" d="M6022 17189c-59,21 -560,30 -724,53l-860 17 -101 4c-27,20 -4,30 -101,30 15,3 46,10 69,13 82,10 56,-7 105,24 -47,9 -21,-9 -35,28 56,-30 71,-50 131,-19 29,-30 27,-38 84,-45 74,-10 79,9 118,36 3,-2 7,-11 9,-8l75 -27c38,-3 30,2 44,2 93,5 66,-21 155,-3 60,12 -20,8 37,10 5,0 35,-10 44,-11 49,-10 109,33 174,42 87,11 160,13 244,2 17,30 -18,16 14,-3 93,-58 175,-47 316,-48 124,-1 258,30 371,-54 37,7 26,1 46,24 16,-58 15,-34 37,-55 129,41 364,15 510,23 -64,-17 4,12 -24,-37l-61 -8 -398 4 -110 -3 -169 9z"/>
   <path class="fil11" d="M11749 17173l-73 -5c-24,22 -24,18 -78,21 -39,1 -59,-4 -88,-13l-15 27c-53,-17 -115,-10 -169,-1 -73,13 -111,12 -184,12l-132 -6 -103 12 -84 3 -51 -1 -179 3 -259 4c-27,20 -4,30 -101,30 116,46 363,-14 438,6 75,19 195,-29 327,0 60,14 40,-7 93,-6 19,0 154,46 305,53 159,8 25,-70 522,-51 124,5 301,-53 342,-85 2,-2 7,-7 11,-10 68,22 176,23 260,32l248 -10c-51,-6 0,8 -20,-35l-60 -8 -182 -1 -219 7 -117 -4 -432 26z"/>
   <path class="fil12" d="M17258 13346c-23,31 -12,50 -123,22 -17,63 -24,20 38,134l-26 3c68,23 186,12 245,15 109,4 209,-23 287,24l48 -25c22,-9 22,-8 47,-12 -22,-76 -11,-18 55,-47 35,-15 32,-10 66,-16 10,28 16,47 24,81 9,0 61,-4 62,-4 65,4 35,9 56,12 64,10 42,-19 130,-12 -46,-54 -34,-21 -4,-88 1,-3 3,-9 4,-14 -21,-25 26,-14 -16,-17 24,33 -46,43 64,30 48,-6 3,-18 87,-30l-64 -36c-54,-24 -17,13 -54,-35l-379 3c-62,18 -59,-1 -121,29l41 5 -3 66 -91 -15 34 -26c-2,-20 -1,-3 -10,-8l-1 -61 -53 0 -5 77c78,-18 -55,4 39,45 -33,17 -20,-13 -40,24 -30,-11 -6,4 -35,-18 -2,-2 -12,-17 -20,-26l-30 33c-31,-44 -14,-62 -119,-40 -15,-38 5,-11 -31,-36l23 -30c-26,-44 25,-16 -19,-33l-106 26z"/>
   <path class="fil13" d="M14427 13166c-16,40 3,24 -16,41 71,1 -30,-21 101,-41 -38,90 -16,33 -57,55l-44 41c-26,-10 -113,-57 -109,2l78 8 -35 65c101,-1 175,24 255,29 57,4 37,-16 104,-23 40,-5 66,13 96,16 124,16 363,-22 487,17l67 -25c-5,-4 -11,-16 -17,-17 61,18 42,43 66,-1 13,-23 37,1 -17,-28l-131 -55 -19 -65 -363 -5c-8,33 11,24 -29,50 -49,31 -84,-12 -105,-24 -15,36 -20,48 -42,76 -17,-29 -12,-6 1,-64 -43,22 -56,13 -58,13 -3,-1 -22,-8 -27,-10 -4,4 -9,8 -12,11l-39 40c9,-119 -12,-61 60,-110 -48,-5 -61,-17 -92,-17 -11,1 -83,17 -103,21z"/>
   <path class="fil13" d="M5836 17011l5 64c2,5 4,13 4,15l-6 14c-1,2 -5,7 -5,9l34 52 152 -12 52 -62c11,41 -15,18 37,28l31 6c-36,25 -19,50 -17,67 -71,-25 -68,-18 -101,-3l169 -9c-11,-11 -9,-24 -20,-37 51,-13 22,9 37,-37 42,33 14,7 41,25l52 52 398 -4c11,-28 4,-51 59,-46 81,9 55,31 64,62l205 7c5,-37 3,-56 -35,-69 -68,-23 28,6 -57,-5 35,-21 11,20 34,-37l-100 0 3 -71 -65 1 -18 27c73,-8 44,-5 80,49 -69,-11 -46,-8 -102,-2 -47,5 -27,10 -56,-21 57,-51 47,30 52,-76l-118 4 -34 5c38,61 54,60 17,118l-70 -111 -38 70c-4,-3 -11,-8 -14,-10l-28 -26c85,12 28,2 49,-31 -67,-2 -89,-10 -168,-16l43 63 -72 69c-5,-6 -15,5 -22,8 23,-114 10,-63 67,-141 -70,0 -280,18 -320,42 -181,-70 -81,37 -219,-31z"/>
   <path class="fil14" d="M10101 17070l47 -31 -2 44c92,16 83,-11 139,8 5,2 27,14 32,17 50,-19 131,-15 199,-38 -13,83 -8,33 -43,120 61,-20 36,-5 80,-39 18,45 3,24 61,24 -1,2 -17,42 -21,50l179 -3c-1,-5 -5,29 -8,-25 -2,-53 -17,-1 10,-43 104,11 52,57 49,69l84 -3c-18,-17 -3,-27 -36,-36 27,-13 57,-21 86,-33 73,61 73,-36 53,57l132 6c0,-44 -14,-39 18,-39 20,-38 12,-21 50,-49 29,-2 17,4 17,-35 -4,4 -28,25 -34,26 -15,3 13,12 -66,1l30 -40c17,-38 11,-1 2,-44 -82,5 -96,-14 -126,38 -18,-39 1,-22 -43,-34l1 83c-132,0 -88,-8 -100,-38l18 -30c2,-4 5,-11 8,-17 -29,8 -92,28 -102,-4 -1,-6 -6,-6 -9,-9 -196,9 -199,-5 -364,-42 -43,-10 -340,-62 -340,0l103 11c-2,4 -6,5 -7,11l-17 52 -70 -32 -10 47z"/>
   <path class="fil15" d="M2046 14092l-24 32c-1,-3 -7,8 -10,13l-32 -45c-93,78 -77,377 -128,412 27,22 8,-2 24,28l80 122c34,0 29,-11 29,17 47,-58 -1,-24 57,-42l17 87c-17,53 -8,26 0,50l33 3c10,-31 -2,-4 39,-20 6,-71 44,-97 42,-172 -14,-37 -3,-18 -26,-47 -61,66 -7,39 -75,57 -12,-35 -13,-12 4,-107 22,-8 37,76 48,-51 -30,17 18,25 -59,6 44,-30 1,-7 46,-40l34 -16c-7,-79 -9,-31 -36,-101 2,-4 5,-10 6,-13 2,-2 5,-9 6,-11l33 -33 -40 -112c111,-27 -27,18 65,-13 21,-25 15,-20 -1,-54 -37,-37 -23,-7 -31,-65l-16 29c-2,4 -3,10 -6,14 -50,104 -26,7 -46,105 -3,-4 -8,-9 -10,-11l-16 -15c0,-1 -4,-2 -4,-4 0,-2 -2,-2 -3,-3z"/>
   <path class="fil16" d="M15792 13205c-35,24 55,36 -67,24 3,52 -3,7 10,12 16,8 14,12 16,7 1,-4 6,3 3,3l-29 65c-64,-46 -23,12 -45,-60 -44,44 -14,-41 -43,59l-30 -32 -118 52c33,46 -33,14 24,34 152,25 308,17 480,34 62,7 385,67 422,84 34,-22 12,12 11,-28 -17,-66 9,-48 63,-48 -36,-30 -39,-77 -23,-9 -71,-16 -139,-39 -170,-74 -62,25 -27,30 -93,24 -102,-9 -25,21 -74,-47 -77,54 -43,16 -78,10 -69,-11 -32,45 -133,-14l30 -76c1,-2 4,-6 6,-9 -37,-14 -46,-15 -78,-35l-39 17c-26,8 -19,5 -45,7z"/>
   <path class="fil17" d="M16426 13459c69,7 42,14 78,24 32,10 62,6 101,9 10,-71 -2,-61 67,-83 60,-19 87,-21 87,-64l92 -20c-2,-29 -57,-15 -99,-19 -114,-12 -106,-28 -253,-27 -111,1 -10,-16 -203,-21l-342 -42c-2,3 -5,7 -6,9l-30 76c101,59 64,3 133,14 35,6 1,44 78,-10 49,68 -28,38 74,47 66,6 31,1 93,-24 31,35 99,58 170,74 -16,-68 -13,-21 23,9 -54,0 -80,-18 -63,48z"/>
   <path class="fil18" d="M19802 14842c-18,19 -16,4 -21,43 -11,78 6,52 9,60 45,-2 52,-32 61,-81 0,-3 2,-42 2,-43 11,-36 2,-18 33,-40 10,12 56,-2 6,64 54,16 28,33 77,60l-19 -36c26,-26 -3,10 19,-20 5,-7 16,-22 17,-24l68 76c-4,-149 -28,-76 -14,-122l8 -32c0,-3 0,-10 0,-14 -1,-1 -3,-20 -51,-25 -42,-5 -32,-5 -61,25l0 0c0,0 18,29 44,-39 19,-50 0,-11 4,-46 4,-34 20,-50 13,-120 -5,-57 5,-74 -16,-116l-10 -96c-26,-22 -20,23 -52,-52 8,0 40,0 53,-2l56 -53 -15 -44c-116,-42 -35,-71 -157,-117 11,66 31,41 30,127l-7 236c-2,53 -27,69 -17,145 9,61 -24,18 33,59l-45 30c-6,99 -13,179 -42,253l-6 -56z"/>
   <path class="fil19" d="M11775 17000l9 74 43 -2c-4,4 -29,34 -29,38 -6,78 -54,-65 15,37 2,4 9,7 14,9l-63 11c-4,1 -10,4 -15,6l432 -26 -22 -13c4,-5 11,-20 13,-16 2,3 9,-12 12,-16l20 -45c44,51 37,16 68,49l17 27c3,5 6,12 9,18l219 -7 -10 -27c-69,-21 5,-27 -79,0 13,-71 -6,-103 -72,-127 -59,53 3,24 -101,33 16,-60 -16,-44 16,-54 -102,34 -122,-19 -219,38 -13,-5 -45,-19 -67,-21l-210 14z"/>
   <path class="fil9" d="M19785 14492l0 55c-48,-43 -5,-24 -43,-38l-6 54 -95 -8c-50,21 -34,216 -24,262 131,49 36,60 114,151l-63 17c6,15 18,32 20,35l2 19c15,93 -23,38 31,65 -32,-110 -11,-32 13,-61 95,47 -10,-5 64,94l-3 -48c-4,-41 -7,-75 -16,-131l11 -13c-3,-8 -20,18 -9,-60 5,-39 3,-24 21,-43 -15,-69 -49,-47 -29,-119 15,-55 7,10 23,-58 7,-32 0,-23 16,-71 -72,-1 -25,14 -57,-13 22,-35 -1,-18 51,-36 10,-53 6,-124 5,-184 -2,-78 -8,-32 -13,-82 -2,-24 2,-78 2,-102 -91,35 -85,10 -100,117 29,14 50,27 85,34l0 164z"/>
   <path class="fil13" d="M12517 17144l182 1 13 -32c29,-5 30,-15 63,-6 91,26 28,1 41,53l180 10c52,-60 23,3 27,-73 -5,-1 -24,-2 -27,-2 -12,2 -22,7 -25,7 -1,0 -5,1 -6,1l-35 -12 63 -64c9,-13 24,11 0,-14 -71,-45 -97,-27 -182,-32 3,5 9,6 11,15l41 61c-73,4 -59,-3 -136,15 -6,-78 8,-25 17,-100 -68,-6 -171,7 -224,10 -57,4 -60,-7 -113,-12 -48,-5 -87,-3 -136,-1 -32,10 0,-6 -16,54 104,-9 42,20 101,-33 66,24 85,56 72,127 84,-27 10,-21 79,0l10 27z"/>
   <path class="fil20" d="M18258 17212c-13,18 -15,18 -24,43l-9 28c0,-2 -3,8 -5,12 -46,73 -46,23 -101,49 22,54 -39,14 87,24 18,55 9,59 74,93 27,-98 -24,-24 72,-101 -83,-23 -24,-5 -52,-33 109,-79 70,-30 84,-87l43 16c41,-43 19,-31 92,-37 47,-3 41,-1 80,-16 8,52 9,38 34,81 22,-19 -48,-3 23,-9 60,-6 -11,4 33,1 -41,-23 -42,5 -68,-56 47,14 58,30 120,25 -12,-47 -32,-60 -24,-96 70,0 88,74 115,-2l-7 -25c-5,-9 -1,5 -18,-28 -27,12 -42,19 -67,33l121 -100 -26 -12c-41,53 -14,23 -71,40 -21,6 -46,14 -74,22 -49,13 -94,23 -148,34 -76,17 -230,54 -284,101z"/>
   <path class="fil21" d="M7959 13186c47,36 -63,30 65,30 -76,32 -39,-14 -43,65l77 8c-3,3 -7,7 -8,9 -59,82 -40,1 -40,68 65,-7 102,-13 147,12 43,8 38,21 38,-10 36,0 3,4 10,-30l-9 -76c55,38 46,31 109,5l29 14c0,0 -3,2 -4,3 71,-4 236,-20 294,-4l59 40c95,-21 65,-28 95,29 -12,-73 -18,-65 -2,-133l-30 34c-38,32 13,19 -63,31l68 -81c-59,3 -67,5 -109,14 -92,21 -28,-13 -77,36l-11 -79 6 -14c-107,2 -101,40 -180,4l-6 16c-21,37 34,-33 -11,16l-404 -7z"/>
   <path class="fil14" d="M11997 13197c1,24 2,29 -1,52l-95 28 25 -77c-101,15 -342,8 -407,30l0 37c24,47 42,66 104,67 -15,29 -1,28 -18,51l313 -3c0,-92 -87,48 -150,-23 -51,-57 1,-57 2,-58l36 10c44,27 20,17 34,29 31,-20 13,-24 64,-38 45,-13 44,-2 101,1 43,-58 20,-36 81,-31 -3,2 -9,6 -10,7l-23 23c47,2 25,-8 50,14 4,-1 9,-7 10,-4 2,3 8,-3 10,-4 2,-1 8,-3 11,-4 3,0 8,-2 11,-3 30,-9 39,-7 76,-20 2,9 17,16 26,58 42,-25 29,-11 49,-30l43 -59 -59 -16c-4,-1 -10,-5 -15,-8l21 -28c-72,-9 -90,-13 -167,-1 -102,14 -36,21 -122,0z"/>
   <path class="fil13" d="M18656 13483c89,-7 60,-34 83,71 127,16 316,41 439,68l-51 -43c-4,-3 -10,-7 -16,-9 46,-3 58,-13 96,6 29,15 7,31 38,28 37,-44 -3,-15 63,-30l-40 -16c-35,25 23,23 -40,20 -52,-2 -14,11 -62,-42l65 -32c2,0 6,0 9,-1 -94,-1 -5,7 -45,-35l5 -40 -64 17c-4,8 -8,15 -18,28l-54 59c-8,-54 1,-14 -9,-41 -1,-4 -4,-9 -5,-13l55 -64c-76,-3 -65,-4 -135,-20l53 68c-4,2 -9,1 -11,7l-73 16 11 -108c-10,1 -37,7 -43,6 -82,-6 20,-8 -66,-17 -80,-8 -67,8 -157,-16l5 68 -33 65z"/>
   <path class="fil22" d="M12423 17793c14,-31 13,-10 0,-50l53 22 52 -5c5,-1 21,-3 27,-4 52,-8 40,-7 87,-14 17,-69 13,-31 34,-54l83 29 43 -69 -48 -11c-16,45 -1,12 -28,42l-85 -9c-4,-70 -23,-47 9,-78 -47,-9 -30,-10 -56,8 4,-35 5,-25 9,-41 1,-4 3,-10 4,-13 1,-4 4,-10 4,-13 1,-3 3,-9 4,-13l79 35c91,19 21,2 49,-11 1,-6 4,-21 4,-18l-2 -30c-15,-30 7,0 -28,-24l-17 -6c-1,-1 -4,-4 -5,-5l-19 -33c-11,-8 -48,1 -96,-34l65 -26 -121 -58 3 56c-30,-18 49,-40 -35,-12 -29,10 -32,24 -45,40 32,26 -18,18 44,25 69,8 25,-8 27,-10 6,60 -17,-3 -66,80 38,61 7,16 54,51 21,-30 27,-35 44,-77l33 32c-5,23 -7,62 0,104 -82,-3 -75,19 -130,8 -26,-5 -42,-14 -47,-16 7,16 28,-12 -6,32 -19,25 -5,8 -30,24 9,76 34,50 53,146z"/>
   <path class="fil13" d="M13528 13305c75,18 152,0 224,8 71,8 174,13 255,19 60,-57 16,-7 33,-65 -55,-24 31,-19 -71,-18 19,-90 -25,-31 48,-66 -122,0 -15,5 -61,-30l-141 -6 -19 26c82,5 46,-13 79,50 -147,-28 -100,38 -159,-28 84,-45 50,27 55,-71l-118 6 -34 2c40,68 37,40 32,117 -75,-29 -39,-41 -83,-110 -29,46 1,6 -24,39 -35,45 9,-4 -26,24 -36,-20 -14,-5 -29,-23l-19 -37 -104 -15c52,46 23,11 58,74l16 78c29,-5 60,-34 88,26z"/>
   <path class="fil13" d="M5752 13239l-44 54c-3,4 -5,8 -7,12 -47,90 18,27 -83,46 -11,41 -3,28 -17,67l320 -4c-31,-32 29,-24 -33,-33 16,-31 29,31 5,-11 -11,-17 -9,-4 -11,-4 83,-25 93,3 159,-4l-19 39c109,0 191,17 303,-1 -20,-9 -7,1 -36,-32l-55 -74c-48,23 -40,19 -94,33l23 -56c14,-37 9,5 10,-43 -85,7 -88,-12 -121,38 -18,-30 -9,-21 -45,-34l-4 87 -101 -18c-9,-55 12,-16 17,-56 1,-8 4,-10 6,-15 -104,35 -81,12 -173,9z"/>
   <path class="fil3" d="M10106 13249c-17,18 -24,10 -24,35 59,4 58,-6 50,33 86,23 13,-8 67,50l-21 10c55,-30 179,-12 258,-8 92,5 25,22 100,-22 33,25 32,21 84,26l16 -22c12,0 35,1 54,-2 6,-1 11,-2 17,-4 5,-1 11,-3 16,-5 4,-1 10,-4 15,-6 -51,-24 -61,-19 -73,-84 69,-43 19,-30 107,-7l-9 -30c-74,-18 -17,-15 -74,-20 -16,-1 -66,4 -85,5 -84,6 -109,1 -190,-9 34,26 27,17 47,68 -68,27 -16,-3 -168,12 23,-50 -2,-15 36,-53 -24,0 -39,2 -63,-5 -33,-11 -26,-16 -42,-29l-41 12c3,5 6,11 7,14 1,1 5,9 6,10 0,1 3,6 3,7l-1 1c-58,69 -44,33 -92,23z"/>
   <path class="fil6" d="M19506 16378l62 27c3,2 9,4 14,6 39,-23 29,-30 57,-59l31 -25c-7,-8 -25,20 -17,-29 9,-56 -15,7 21,-33 18,24 9,4 26,50 28,-23 19,-5 32,-58l50 31 10 -83c-8,48 -9,12 26,19 8,-19 32,-111 32,-114l-4 -82c-1,-7 -1,-10 -1,-17 0,-1 2,-59 2,-62 -22,-3 -35,-6 -54,-13 -44,-18 34,-8 -59,-24l0 -34c-45,37 -21,-22 -30,84 -9,114 -21,47 -54,118 -21,45 1,26 -17,63 -18,38 -25,14 -43,62 -13,34 0,28 -14,70 -13,40 -47,58 -70,103z"/>
   <path class="fil3" d="M12286 13198l-21 28c5,3 11,7 15,8l59 16 -43 59c-20,19 -7,5 -49,30 -9,-42 -24,-49 -26,-58 -37,13 -46,11 -76,20 -3,1 -8,3 -11,3 -3,1 -9,3 -11,4 -2,1 -8,7 -10,4 -1,-3 -6,3 -10,4 -25,-22 -3,-12 -50,-14l23 -23c1,-1 7,-5 10,-7 -61,-5 -38,-27 -81,31 -57,-3 -56,-14 -101,-1 -51,14 -33,18 -64,38 -14,-12 10,-2 -34,-29l-36 -10c-1,1 -53,1 -2,58 63,71 150,-69 150,23 53,5 75,-8 120,-12 47,-6 112,4 166,4 104,-1 220,-39 302,-11l14 -27 19 -52c-64,-47 -38,39 -66,-16 -3,-6 -11,0 -16,-1 0,-5 1,-12 2,-16l24 -44c1,-1 4,-4 4,-9 1,-5 3,-7 3,-11 124,42 33,20 68,-15l-272 26z"/>
   <path class="fil6" d="M11947 17817l20 -17c19,-35 5,-24 42,-36 81,-27 34,-5 55,8l51 -55c4,-3 11,-7 16,-10 35,87 43,41 81,81 54,-42 5,1 45,-54l66 -5 6 -86c-155,-25 -54,12 -152,-6 29,-82 -10,-3 45,-70 -103,16 44,-6 -136,70l-14 -24c-1,-1 -5,-8 -6,-10l-7 -16c-8,93 -20,30 -43,122 -23,-23 -41,-88 -115,4 -43,-3 -89,-6 -125,1l-122 51c43,25 -51,27 56,18 10,-1 47,-18 49,-19l74 72 65 -36c22,29 37,-25 25,59 -6,-87 -5,-5 24,-42z"/>
   <path class="fil23" d="M2173 14577c40,-20 29,-24 43,-65l20 -44c2,-2 6,-5 8,-8 2,-2 6,-6 8,-9 50,-75 44,-120 81,-190 -53,16 -10,25 -34,1l16 -61 -32 -38 -108 20 4 -87c-92,31 46,-14 -65,13l40 112 -33 33c-1,2 -4,9 -6,11 -1,3 -4,9 -6,13 27,70 29,22 36,101l-34 16c-45,33 -2,10 -46,40 77,19 29,11 59,-6 -11,127 -26,43 -48,51 -17,95 -16,72 -4,107 68,-18 14,9 75,-57 23,29 12,10 26,47z"/>
   <path class="fil5" d="M5171 13356c-36,93 -59,-50 -59,70l489 -8c14,-39 6,-26 17,-67 101,-19 36,44 83,-46 2,-4 4,-8 7,-12l44 -54 -17 11c-29,24 -5,13 -52,31 -9,4 -40,3 -46,3 24,50 38,25 -56,84 -32,-67 -52,-16 -58,-106 -48,-6 -146,-17 -187,23 -55,-27 -18,-23 -73,-28 -33,-4 -67,0 -97,9l32 15c69,35 41,1 49,69l-76 6z"/>
   <path class="fil24" d="M16853 13509c84,-17 187,25 294,-4l26 -3c-62,-114 -55,-71 -38,-134 111,28 100,9 123,-22 -64,-17 -207,-46 -273,-13 -19,35 -23,46 -45,92l-14 -2c-2,0 -7,0 -9,0l-31 2c-3,0 -18,4 -24,4 -13,-26 -13,-22 -17,-29l6 -75 -92 20c-28,22 -41,39 -26,85 23,71 49,52 120,30l0 49z"/>
   <path class="fil25" d="M11176 13290c-6,23 -8,41 -16,61l-52 9c67,19 48,-6 119,39l378 -14c17,-23 3,-22 18,-51 -62,-1 -80,-20 -104,-67l0 -37c-45,-11 -147,-17 -186,20 -54,-27 -17,-22 -73,-27 -33,-3 -67,0 -96,10 3,2 7,5 9,6 2,1 7,5 10,6l40 25c40,44 17,12 9,40l-56 -20z"/>
   <path class="fil5" d="M18167 13521c31,0 92,-6 135,-4 52,1 110,13 156,18 109,11 174,3 281,19 -23,-105 6,-78 -83,-71l-68 -66c-50,26 -35,6 -53,47 -35,-48 9,-13 -47,-43l9 65 -51 -8c-4,-1 -9,-1 -13,-2 -4,-1 -9,-2 -14,-3 -52,-16 -22,-26 -67,-26 18,-79 -8,-52 25,-72l53 -12c-11,92 -23,36 -10,68 12,-32 25,-54 40,-87l-276 -13c37,48 0,11 54,35l64 36c-84,12 -39,24 -87,30 -110,13 -40,3 -64,-30 42,3 -5,-8 16,17 -1,5 -3,11 -4,14 -30,67 -42,34 4,88z"/>
   <path class="fil12" d="M13408 17002c-6,43 30,38 -8,38 23,34 26,-41 17,42 -96,24 -145,-51 -128,21l60 7c2,4 5,11 5,14l-3 52 209 17 9 16c73,21 89,15 168,12 -38,-28 59,-34 -69,-27 45,-97 70,-25 94,-125 -36,-32 -15,-48 -76,48 -22,-32 -13,11 4,-61 -51,23 -58,15 -133,18l53 -72c-62,-6 -55,-20 -105,-15 -33,4 -36,14 -97,15z"/>
   <path class="fil21" d="M14007 13332l124 -5c4,-5 10,-20 13,-16 2,3 15,-22 52,-27 -1,-78 1,-41 13,-55l27 30c55,47 -7,-40 35,36l31 -31c-4,-59 83,-12 109,-2l44 -41c41,-22 19,35 57,-55 -131,20 -30,42 -101,41 19,-17 0,-1 16,-41 -91,0 -128,-15 -218,-14 -77,0 -176,3 -253,1 46,35 -61,30 61,30 -73,35 -29,-24 -48,66 102,-1 16,-6 71,18 -17,58 27,8 -33,65z"/>
   <path class="fil21" d="M12996 17170c82,-18 114,-34 192,-10l-4 -92c45,46 37,24 60,40 51,33 -62,10 30,34 24,-31 9,-19 15,-39 -17,-72 32,3 128,-21 9,-83 6,-8 -17,-42 38,0 2,5 8,-38 -40,-1 -149,-12 -203,-11 -85,1 -180,-24 -212,22 24,25 9,1 0,14l-63 64 35 12c1,0 5,-1 6,-1 3,0 13,-5 25,-7 3,0 22,1 27,2 -4,76 25,13 -27,73z"/>
   <path class="fil12" d="M9644 13346c81,0 173,10 252,12l34 -35c4,-5 10,-16 17,-22 -53,-4 19,46 33,-58l21 7c20,-60 -48,-65 55,-39l-5 -15c-115,-20 -202,-12 -323,-16 -38,21 -12,37 -105,26 14,105 24,45 64,111 -91,1 -5,-5 -43,29z"/>
   <path class="fil26" d="M15287 13376c35,7 160,-12 226,-7 -57,-20 9,12 -24,-34l118 -52 30 32c29,-100 -1,-15 43,-59 22,72 -19,14 45,60l29 -65c3,0 -2,-7 -3,-3 -2,5 0,1 -16,-7 -13,-5 -7,40 -10,-12 122,12 32,0 67,-24l-139 2 -35 63c-68,-12 -22,-12 -88,-5 14,-47 4,-38 25,-67 -52,-11 -78,-5 -124,-5 -61,-1 -119,-13 -195,-8l19 65 131 55c54,29 30,5 17,28 -24,44 -5,19 -66,1 6,1 12,13 17,17l-67 25z"/>
   <path class="fil3" d="M1825 15093l36 10c52,-58 66,-44 101,-51 -36,-116 9,-7 -23,-59 -1,-3 -28,-34 -31,-38 73,-15 9,-33 71,-88 54,34 41,-6 17,68l47 33c8,-98 -34,-31 70,-67l-17 -33 29 -52 6 -67c-41,16 -29,-11 -39,20l-33 -3c-8,-24 -17,3 0,-50 -35,23 -28,28 -29,75 -5,-3 -19,-8 -23,-9 -160,-58 39,-64 -57,-77 -31,24 1,-30 -32,35 -63,127 -6,217 -99,268l6 85z"/>
   <path class="fil27" d="M12932 13163l18 25 -55 45c46,40 27,1 37,57 109,1 95,4 118,-72l89 32c-48,42 -20,-8 -9,67 -5,-1 -43,-14 -48,-14 -51,1 -19,-4 -53,12l166 -8c-17,-13 -22,-41 -24,-44l32 -8c3,-2 10,-5 13,-7l22 -21c20,27 -19,7 44,30 20,-40 41,-71 67,-91 75,0 -1,10 34,-41 -85,0 -142,16 -223,16 -120,0 -32,45 -198,-4l-30 26z"/>
   <path class="fil5" d="M10157 17141c4,16 6,22 -9,18l34 52c-18,39 125,20 152,18l259 -4c4,-8 20,-48 21,-50 -58,0 -43,21 -61,-24 -44,34 -19,19 -80,39 35,-87 30,-37 43,-120 -68,23 -149,19 -199,38 -5,-3 -27,-15 -32,-17 -56,-19 -47,8 -139,-8 24,5 27,-1 47,12 53,34 17,14 38,49l-74 -3z"/>
   <path class="fil28" d="M19178 13622c24,29 68,29 117,24l54 7 10 44 101 35c24,-16 -26,-31 58,15l8 -42c13,25 -1,2 45,13 49,-17 12,-17 55,4l8 60 49 7c0,-61 -11,-23 18,-34 -34,-58 -124,-175 -185,-186l-66 39c-38,17 -6,-20 -36,31 -39,-21 -28,-20 -57,-36 -57,-32 -3,16 -49,-29 -66,15 -26,-14 -63,30 -31,3 -9,-13 -38,-28 -38,-19 -50,-9 -96,-6 6,2 12,6 16,9l51 43z"/>
   <path class="fil24" d="M11262 17038l4 49c0,3 1,9 1,12 3,53 -41,29 -57,27 -38,28 -30,11 -50,49 -32,0 -18,-5 -18,39 73,0 111,1 184,-12 54,-9 116,-16 169,1l15 -27c29,-45 11,1 25,-68l-38 1c-47,-6 -19,-1 -51,-18 24,-31 6,-31 52,-48l31 -2c4,-7 12,-1 18,0l-43 -11c-115,-18 -142,-1 -242,8z"/>
   <path class="fil29" d="M2747 17353c-54,-42 -91,-39 -145,-11 -158,-56 -50,-10 -253,-31l-126 -26c-32,-8 -72,-24 -103,-36 -28,36 43,32 -59,40 -14,1 -82,-31 -200,-26 33,43 5,26 53,53l60 19c145,49 632,27 773,18z"/>
   <path class="fil30" d="M2960 13183l-67 60c21,28 43,26 74,35 238,64 4,-21 208,-11 -5,3 -13,1 -15,8 -3,7 -11,6 -14,8 -19,10 -14,6 -34,18l30 50 53 -63c3,-4 5,-8 8,-11 16,-16 -3,-6 39,-27l-16 67 49 13 35 -168c-64,9 -129,16 -177,11 -52,-5 -110,7 -173,10z"/>
   <path class="fil5" d="M4167 17247c61,32 93,22 170,16l101 -4c6,-5 11,-11 17,-15 5,-5 11,-9 16,-13 4,-4 24,-13 29,-14l9 -59c18,-62 1,-16 -4,-34 -91,0 -145,8 -218,17l0 -25 -142 8c76,1 61,6 88,57 -72,-14 -63,-18 -114,28 3,2 8,5 10,7 1,1 7,5 9,7l29 24z"/>
   <path class="fil30" d="M8970 13141l0 47c-105,-9 -46,-29 -76,28l156 36c-3,4 -8,6 -10,13l-34 31c111,19 -10,-78 166,-63l-63 34 44 48 37 -62c4,-4 15,-18 20,-21 49,-28 0,-8 63,-16 -63,59 -42,43 -50,68l49 12c3,-10 4,-19 4,-17l3 -51c13,-62 6,-41 27,-45l0 -55c-62,9 -297,23 -336,13z"/>
   <path class="fil21" d="M6872 17020l-3 71 100 0c-23,57 1,16 -34,37 85,11 -11,-18 57,5 38,13 40,32 35,69 83,-21 87,-32 163,-7 0,-1 -8,-52 -8,-54 2,-43 0,-27 16,-46 28,-25 -31,-21 36,-21l-69 -53c-52,0 -131,7 -171,7 -62,-1 -57,-22 -122,-8z"/>
   <path class="fil31" d="M17960 17373l3 60c87,6 75,-30 152,13 76,42 34,49 158,36l7 -21c-65,-34 -56,-38 -74,-93 -126,-10 -65,30 -87,-24 55,-26 55,24 101,-49l-73 -27 -68 6c-4,3 -17,17 -17,19l-5 -50 -41 0 16 113c-85,-37 -19,-26 -71,-10l-1 27z"/>
   <path class="fil3" d="M7362 17131c-48,-16 -25,-28 -71,25 -50,-18 -65,-34 -93,-61 -16,19 -14,3 -16,46 0,2 8,53 8,54 82,32 89,31 179,16l135 11c34,-31 -51,-40 58,-20l-28 -110 28 3c27,-32 -1,-25 59,-39 -66,-4 -47,0 -77,-38l-48 -1 14 57c-52,52 -8,3 -53,21l-44 29c-1,-3 -6,7 -10,11l-41 -4z"/>
   <path class="fil16" d="M12574 13348l455 -33c34,-16 2,-11 53,-12 5,0 43,13 48,14 -11,-75 -39,-25 9,-67l-89 -32c-23,76 -9,73 -118,72 -10,-56 9,-17 -37,-57l-17 63c-37,-18 -14,51 -36,-33 -18,-69 -1,-21 15,-43l-65 1 -16 13 9 55c-43,-15 -26,7 -56,-30 -38,-49 -5,-4 8,-25 -41,-18 -29,-4 -50,-44l0 24 -24 57c-31,-1 -11,0 -24,-5 -9,-3 -12,24 -25,-13 -3,-7 -10,-6 -15,-9 -8,51 14,40 -41,40 -2,57 -21,20 16,64z"/>
   <path class="fil3" d="M6326 13243c-98,-21 -22,-12 -44,24 30,37 3,18 60,17 -36,44 -50,43 -53,84 29,33 16,23 36,32l184 -12c12,-3 8,-18 9,-19 6,-12 69,-121 -6,-69 -50,-4 -15,14 -53,-15 24,-44 36,-43 90,-39l12 -40 -242 18 7 19z"/>
   <path class="fil19" d="M10858 13214l-17 69 68 30c83,24 29,20 115,10l-107 62 310 14c-71,-45 -52,-20 -119,-39l52 -9c8,-20 10,-38 16,-61 -31,7 -53,65 -126,27l21 -47 55 -56 -268 0z"/>
   <path class="fil32" d="M7125 17942c70,27 78,16 143,52l35 -27c2,-2 7,-7 9,-9 1,-2 4,-7 7,-10l168 46 34 -53c26,35 38,53 80,26 -37,-31 -29,-12 -63,-49 -132,51 -55,-52 -207,-4 13,-37 -5,-22 30,-41 -68,-8 -29,1 -93,12 -20,-19 -19,-22 -51,-34 -46,-17 -85,-21 -91,24 0,1 -1,62 -1,67z"/>
   <path class="fil9" d="M16744 17418l59 -8 -29 -52c87,11 36,20 91,-19l-71 -39c87,3 105,-21 143,-94 -64,-18 -85,-7 -161,2l-7 83c-13,27 -4,6 -4,39 -5,-3 -28,-16 -32,-18 -3,-1 -12,0 -15,-7 -3,-7 -10,-5 -14,-8 37,-22 21,-1 17,-60l-64 -11c143,-2 35,5 78,-32l-174 -3c65,42 20,18 107,35 -41,45 -9,12 -6,46l-7 55c14,13 19,-22 13,33 62,25 88,-2 76,58z"/>
   <path class="fil13" d="M4857 13248l-22 100 99 2c8,-31 0,-39 39,-57 53,-25 17,-14 60,6 -32,45 -15,34 -70,48 0,53 -82,14 -120,4 31,23 -6,16 48,25 3,0 64,0 78,1l-59 41 202 8c0,-120 23,23 59,-70 -66,6 -54,21 -118,5 9,-48 5,-15 41,-27l35 -86 -272 0z"/>
   <path class="fil33" d="M13115 17913c176,48 162,59 201,3 73,22 19,18 91,22 79,6 11,17 87,22 9,-73 12,-49 -47,-76 -43,-19 -73,-20 -116,-4 11,-35 1,-23 29,-42 -47,-5 -53,5 -95,12 -1,-3 -3,-11 -3,-9 -1,2 -3,-7 -4,-7 -26,-27 -87,-24 -128,-21l-6 61c0,1 -7,32 -9,39z"/>
   <path class="fil34" d="M19790 14945l-11 13c9,56 12,90 16,131 73,-24 23,-22 89,-6 -12,-48 -7,-15 -14,-65l49 -54 53 19c3,2 7,5 11,7 37,22 -20,-2 40,23 8,-95 14,-74 -54,-108 -49,-27 -23,-44 -77,-60 50,-66 4,-52 -6,-64 -31,22 -22,4 -33,40 0,1 -2,40 -2,43 -9,49 -16,79 -61,81z"/>
   <path class="fil35" d="M9795 17256l168 -20c59,-29 26,-36 75,-98 -10,-11 0,-12 -38,-35 -26,-15 -16,-3 -18,-4l-13 -46c-39,6 -20,3 -32,2l-32 -14c-38,84 -31,31 -68,99 -44,-43 -44,-24 -76,18 24,31 -37,8 20,21 90,22 -15,14 46,-5l52 -24c-4,1 -22,-42 -4,12 14,42 -1,11 21,34 -74,-30 -68,-1 -101,60z"/>
   <path class="fil36" d="M18656 13483l33 -65 -5 -68 -224 -6c-15,33 -28,55 -40,87 -13,-32 -1,24 10,-68l-53 12c-33,20 -7,-7 -25,72 45,0 15,10 67,26 5,1 10,2 14,3 4,1 9,1 13,2l51 8 -9 -65c56,30 12,-5 47,43 18,-41 3,-21 53,-47l68 66z"/>
   <path class="fil37" d="M17510 17327c18,14 14,28 38,33 -39,61 -28,36 -8,104 54,-16 32,45 47,-48 26,56 10,21 41,42 5,-3 11,-14 14,-10 2,4 9,-7 12,-9l38 -21c2,-1 6,0 8,-1l52 -37 -23 -70c70,0 101,23 101,-42 -17,1 -74,10 -86,10 -84,2 -25,2 -58,-17l-24 48c-124,-48 13,42 -152,18z"/>
   <path class="fil38" d="M19394 16583l-30 56 50 -53 -23 102c51,-19 13,-19 43,-5l59 43c42,43 5,51 22,85 27,-31 24,-52 34,-114l69 -7c-12,-71 20,-51 -69,-66l-17 -97c-132,6 -100,11 -118,75 46,-38 -7,44 17,-16 -5,-3 -10,-14 -12,-9l-25 6z"/>
   <path class="fil9" d="M4018 13314l-18 -92c-73,-22 -183,-7 -264,-5 -49,18 -29,11 -45,55l72 36c32,8 64,-20 35,9l70 -12 31 64c58,-24 50,-38 69,-83 58,28 12,-3 50,28z"/>
   <path class="fil21" d="M19600 13902l12 85 50 8c-3,52 -10,22 7,64 -21,14 23,36 -35,0 5,67 -5,50 -9,97 -4,47 -8,22 17,54l-10 51c42,-34 34,43 34,-42l64 -9c-6,-6 -98,-45 8,-156 4,4 12,2 15,9 14,43 -5,-5 32,19l8 -40c-78,-34 -10,30 -89,-34 21,-27 38,-42 57,-59l-15 -67 -12 76c-6,-6 -12,-11 -16,-17 -4,-6 -10,-11 -14,-17l-21 -46 -83 24z"/>
   <path class="fil39" d="M17830 17268c0,65 -31,42 -101,42l23 70c14,35 12,31 43,64 26,-59 12,-36 -24,-75 40,-7 69,-12 93,-22l28 64c7,-5 9,-14 10,-12 1,3 4,-8 6,-10 2,-3 5,-9 8,-12 2,-3 7,-9 10,-11 2,-4 7,-9 11,-13 0,43 -6,-1 23,20l1 -27c52,-16 -14,-27 71,10l-16 -113c-51,-2 -32,-27 -86,19 -23,-43 7,-29 -49,-34 -23,19 -42,36 -51,40z"/>
   <path class="fil40" d="M19308 13574c46,45 -8,-3 49,29 29,16 18,15 57,36 30,-51 -2,-14 36,-31l66 -39c-50,-7 -88,-43 -135,-67 -85,-44 -88,-36 -186,-34 40,42 -49,34 45,35 -3,1 -7,1 -9,1l-65 32c48,53 10,40 62,42 63,3 5,5 40,-20l40 16z"/>
   <path class="fil41" d="M11132 17478c87,244 32,70 31,191 0,3 -1,8 -1,11 1,3 1,8 3,10 12,24 20,19 45,27 35,-50 15,19 22,-71 4,2 11,0 12,5l33 18c89,-2 25,-13 47,-39 -42,-35 21,-15 -37,-28 -47,-11 -6,-9 -45,11 23,-95 64,-26 78,-20 69,28 56,-13 57,-14 -2,-1 -5,-4 -5,-2l-34 -23c-39,-22 -41,-14 -107,-16 -62,-1 -12,-24 -41,12l8 -206c-26,16 -23,48 -27,65l-39 69z"/>
   <path class="fil28" d="M19632 14261c-8,50 -37,73 2,106 76,-47 7,-46 102,-51l-43 95 69 -5 7 54 16 32 0 -164c-35,-7 -56,-20 -85,-34 15,-107 9,-82 100,-117l-15 -95c-37,-24 -18,24 -32,-19 -3,-7 -11,-5 -15,-9 -106,111 -14,150 -8,156l-64 9c0,85 8,8 -34,42z"/>
   <path class="fil41" d="M4974 17748c38,37 185,5 229,2l29 -70c80,34 49,46 98,-18 -53,-41 -44,-5 -55,-16l-46 16c10,-14 1,-2 19,-37l30 -55 -75 -3c-10,-3 -15,-20 -55,-4 38,69 27,36 35,120 -70,-65 -37,7 -58,-80l-3 82c-50,9 -38,-10 -65,43l-12 25c-34,-4 -49,-9 -68,-15l-3 10z"/>
   <path class="fil4" d="M19436 16130l-47 72c0,2 -2,7 -3,10 -3,36 28,-8 -23,70 95,10 -30,42 34,84l65 -16c-14,24 -19,17 31,-2 -35,-31 -42,-26 -45,-66 57,-44 -52,-9 32,-15 61,-4 31,11 40,16l-22 -51c3,-5 8,-10 11,-13 2,-2 7,-8 10,-11l14 -17c1,-2 3,-6 3,-8 2,-3 -1,-30 -2,-34 -12,-105 -70,-86 -70,-86 -2,56 8,46 -17,101l-11 -34z"/>
   <path class="fil42" d="M19655 15191c5,-33 11,-24 -5,-4 58,-35 62,-21 71,-83 -54,-27 -16,28 -31,-65l-2 -19c-2,-3 -14,-20 -20,-35l63 -17c-78,-91 17,-102 -114,-151 -2,68 -9,26 -5,88l13 181c12,149 6,77 30,105z"/>
   <path class="fil43" d="M5004 17147l-111 4c3,-6 6,-13 8,-18 2,-5 5,-12 7,-18 2,-4 5,-11 6,-15 2,-4 4,-6 5,-14 1,-7 2,-9 3,-13 -12,2 -57,12 -63,11l-286 -25c26,30 57,24 60,26l7 39c101,-4 56,19 101,-33 15,60 -1,7 26,61 -20,8 -13,-1 -34,14l-39 35c100,-15 34,8 107,-42 3,4 8,6 9,13 10,58 -27,-49 15,22l6 15c20,-20 25,-36 68,-40 18,-1 35,5 45,4 55,-6 37,5 60,-26z"/>
   <path class="fil44" d="M16668 17419c-102,-11 -149,-3 -253,-12 7,44 14,28 -6,54 27,36 -13,22 45,34l-18 38c12,-7 13,-15 45,-20 13,-2 38,-1 52,-1l20 28c15,37 5,2 14,50l13 -28c27,-39 9,-15 31,-39l-1 25c-6,-19 24,-29 33,-62 -17,-23 34,-11 -43,-25 4,-3 9,-13 12,-9l56 -33z"/>
   <path class="fil16" d="M10056 13211l27 41 -52 34c-34,-36 -4,33 -30,-36l-21 -7c-14,104 -86,54 -33,58 -7,6 -13,17 -17,22l-34 35c66,8 92,-2 152,2 93,5 70,50 130,17l21 -10c-54,-58 19,-27 -67,-50 8,-39 9,-29 -50,-33 0,-25 7,-17 24,-35l13 -33c-4,-3 -15,-13 -16,-20 -2,-7 -6,-9 -10,-13l-42 13 5 15z"/>
   <path class="fil45" d="M17965 17770c49,21 28,64 195,33 2,0 51,-12 52,-12l21 -13c2,-1 8,-3 9,-8 2,-6 6,-7 9,-10l27 12c3,1 9,4 12,5 46,24 -33,-8 29,16l28 -49c-39,-9 -166,-15 -174,8 -30,-28 -16,7 -39,-53 -185,69 -166,-15 -169,71z"/>
   <path class="fil16" d="M11676 17168l73 5c5,-2 11,-5 15,-6l63 -11c-5,-2 -12,-5 -14,-9 -69,-102 -21,41 -15,-37 0,-4 25,-34 29,-38l-43 2c-41,6 -19,18 -64,0 -54,-22 -14,4 -41,-41l-3 24 -71 35c-3,-7 -10,-7 -15,-11 -13,62 -25,28 -60,111 59,-12 86,-31 146,-24z"/>
   <path class="fil19" d="M7562 17095l-28 -3 28 110c-109,-20 -24,-11 -58,20l68 22c23,6 51,19 70,18 103,-5 15,10 52,-26 -3,1 -30,54 -35,-78 -1,-39 -30,11 30,-87l53 -22c4,-2 9,-8 15,-11l-120 3 6 48 -81 6z"/>
   <path class="fil19" d="M7837 13249l50 54c8,9 3,22 55,31l-44 8c0,30 87,23 112,24 0,-67 -19,14 40,-68 1,-2 5,-6 8,-9l-77 -8c4,-79 -33,-33 43,-65 -128,0 -18,6 -65,-30l-143 -6 61 58c-20,17 30,21 -40,11z"/>
   <path class="fil24" d="M14436 17090c-81,-21 -99,-37 -194,-38 24,50 -21,-80 18,49l-117 -10 50 76c65,-104 64,-30 124,-4 28,13 67,13 110,12 21,-56 15,-21 9,-85z"/>
   <path class="fil9" d="M17241 17375c74,-11 48,-16 118,-21 48,-3 78,-5 118,-6 19,-65 -9,-3 50,-27l-2 -60c-111,20 -95,25 -131,-1l-20 -20c-20,22 -27,36 -62,37 -56,0 1,-26 -55,16l39 51c-110,0 -13,-7 -55,31z"/>
   <path class="fil46" d="M13282 13257l-1 2c5,3 9,10 11,12 2,3 8,21 9,17 2,-5 4,16 8,23l219 -6c-28,-60 -59,-31 -88,-26l-16 -78c-35,-63 -6,-28 -58,-74l17 -2c-35,51 41,41 -34,41 -26,20 -47,51 -67,91z"/>
   <path class="fil9" d="M15276 17179l-27 -31c-15,27 5,68 -108,17l23 29c1,1 3,7 4,8l-4 41c-104,0 -55,-14 -88,44 51,20 76,8 103,-17 3,-3 14,-11 15,-19 2,-5 6,-6 8,-9 47,45 73,64 141,17 -2,-27 55,-29 -67,-80z"/>
   <path class="fil47" d="M17383 13353l-23 30c36,25 16,-2 31,36 105,-22 88,-4 119,40l30 -33c8,9 18,24 20,26 29,22 5,7 35,18 20,-37 7,-7 40,-24 -94,-41 39,-63 -39,-45l5 -77 -103 16c16,65 24,6 -5,26l-55 -3c-26,-28 -43,42 -13,-47l-42 37z"/>
   <path class="fil48" d="M4080 17236l87 11 -29 -24c-2,-2 -8,-6 -9,-7 -2,-2 -7,-5 -10,-7 51,-46 42,-42 114,-28 -27,-51 -12,-56 -88,-57l142 -8c0,-84 -21,-25 -49,-32 0,0 -64,-2 -70,-1 -32,3 -36,4 -58,13l-52 29c3,3 8,4 9,11l13 100z"/>
   <path class="fil49" d="M10807 13227l11 37c-12,18 -19,37 -33,50l-19 15c-3,2 -8,4 -11,6l-24 12c96,4 10,-3 47,23 40,22 85,26 139,15l107 -62c-86,10 -32,14 -115,-10l-68 -30 17 -69 -51 13z"/>
   <path class="fil17" d="M12520 13336l54 12c-37,-44 -18,-7 -16,-64 55,0 33,11 41,-40 5,3 12,2 15,9 13,37 16,10 25,13 13,5 -7,4 24,5l24 -57c-87,2 -33,10 -51,-32l-78 -10c-35,35 56,57 -68,15 0,4 -2,6 -3,11 0,5 -3,8 -4,9l-24 44c-1,4 -2,11 -2,16 5,1 13,-5 16,1 28,55 2,-31 66,16l-19 52z"/>
   <path class="fil6" d="M19952 15356c-21,-3 -23,6 -39,17 48,45 -67,108 67,139 -39,13 -23,-8 -32,34l75 -22c-3,-43 2,-14 -10,-41l-36 -94c17,-35 23,-33 29,-47 38,-93 2,-44 -3,-54 0,0 -93,-41 -51,68z"/>
   <path class="fil46" d="M16187 17190c10,9 -10,21 62,35l13 72c77,-12 15,15 77,-16 87,-42 41,38 64,-16 2,-5 9,2 14,2l-49 -70c58,22 90,48 136,-8 -36,8 -145,22 -160,-17 -3,-6 -8,-6 -13,-9 -71,25 -56,42 -144,27z"/>
   <path class="fil50" d="M2377 13231l-50 -4c7,42 7,45 11,54 23,32 -8,20 46,29 27,5 97,4 153,-26 -16,-41 59,-34 -29,-34l10 -2c-44,-35 -14,4 -34,-55 -46,25 -73,9 -120,1 11,19 10,30 13,37z"/>
   <path class="fil51" d="M14873 13180l-126 1c-28,23 42,30 -37,17l21 -29 -109 -7c-72,49 -51,-9 -60,110l39 -40c3,-3 8,-7 12,-11 5,2 24,9 27,10 2,0 15,9 58,-13 -13,58 -18,35 -1,64 22,-28 27,-40 42,-76 21,12 56,55 105,24 40,-26 21,-17 29,-50z"/>
   <path class="fil7" d="M10025 16987c-3,5 -7,11 -10,14l-29 29c-21,22 -7,5 -17,23l13 46c2,1 -8,-11 18,4 38,23 28,24 38,35l-4 0 14 -74 53 6 10 -47 70 32 17 -52c1,-6 5,-7 7,-11l-103 -11 -77 6z"/>
   <path class="fil49" d="M19460 13732c10,19 7,13 26,36 19,22 18,17 29,37 27,48 -10,50 48,68 101,66 21,25 53,-14 -69,-26 -34,2 -84,-70 56,20 50,-24 74,51 42,-26 45,-40 113,-18l-10 -48c2,-24 23,-28 -8,-19 -29,11 -18,-27 -18,34l-49 -7c-21,15 28,26 -20,11l-43 -75c-46,-11 -32,12 -45,-13l-8 42c-84,-46 -34,-31 -58,-15z"/>
   <path class="fil29" d="M9542 17070l324 -39c-3,-4 -8,-8 -11,-11 -85,-68 -94,-62 -168,-35 -10,4 -67,25 -81,32l-52 41c-3,-4 -8,8 -12,12z"/>
   <path class="fil52" d="M13569 17209l-9 -16 -209 -17c26,56 -36,33 -101,33 49,20 74,47 128,56 3,0 21,3 24,2 52,-7 16,-23 150,-22 8,-47 2,-19 17,-36z"/>
   <path class="fil5" d="M19655 15191l-9 5 54 12 -22 43c14,22 19,42 25,54l-19 74 46 -8c3,-25 -21,-178 71,-89l-2 -72c-39,2 -12,11 -31,-8 -2,-2 -6,-6 -8,-9 -16,-25 -8,-42 -6,-74l-33 -15c-9,62 -13,48 -71,83 16,-20 10,-29 5,4z"/>
   <path class="fil46" d="M11510 17176c29,9 49,14 88,13 54,-3 54,1 78,-21 -60,-7 -87,12 -146,24 35,-83 47,-49 60,-111 5,4 12,4 15,11l71 -35c-86,-2 -33,9 -51,-35l-9 -2c-9,53 16,15 -18,40 -14,-22 -28,22 -3,-37 -43,-5 -77,-21 -91,7l43 11c-6,-1 -14,-7 -18,0l-31 2c-46,17 -28,17 -52,48 32,17 4,12 51,18l38 -1c-14,69 4,23 -25,68z"/>
   <path class="fil19" d="M10620 13373l158 -3c-37,-26 49,-19 -47,-23l24 -12c3,-2 8,-4 11,-6l19 -15c14,-13 21,-32 33,-50l-11 -37 -44 -14 9 30c-88,-23 -38,-36 -107,7 12,65 22,60 73,84 -5,2 -11,5 -15,6 -5,2 -11,4 -16,5 -6,2 -11,3 -17,4 -19,3 -42,2 -54,2l-16 22z"/>
   <path class="fil19" d="M19563 13873c17,42 -6,34 37,29l83 -24 21 46c4,6 10,11 14,17 4,6 10,11 16,17l12 -76c8,-16 -47,-48 38,1 -3,-4 -8,-15 -9,-12 -2,3 -7,-9 -9,-12l-49 -75c-2,-2 -5,-7 -8,-10l10 48c-68,-22 -71,-8 -113,18 -24,-75 -18,-31 -74,-51 50,72 15,44 84,70 -32,39 48,80 -53,14z"/>
   <path class="fil53" d="M13762 17069l88 10 10 -62c-86,15 -53,-19 -123,4 -30,26 46,27 -40,21l23 -32 -110 -8 -53 72c75,-3 82,5 133,-18 -17,72 -26,29 -4,61 61,-96 40,-80 76,-48z"/>
   <path class="fil21" d="M19634 14367l-2 62c64,-29 17,-12 35,2 -23,41 -10,41 -1,100l103 -71 -7 -54 -69 5 43 -95c-95,5 -26,4 -102,51z"/>
   <path class="fil11" d="M7572 17244l-68 -22 -135 -11c-28,22 7,31 -116,31 1,1 48,18 51,20 147,72 93,6 251,19 11,-68 5,-24 17,-37z"/>
   <path class="fil54" d="M15132 17542l5 36c-46,26 -34,6 -52,50 77,37 13,-12 139,-17 -20,63 -7,62 -50,78 45,7 93,-1 128,-25 -29,-76 7,-55 -60,-36 17,-31 6,-21 29,-50 -44,-5 -19,2 -52,-12 -70,-27 19,-23 -87,-24z"/>
   <path class="fil25" d="M19647 15415c-32,60 -29,70 -30,143l121 0c-18,-148 48,-93 -4,-119l-7 -52c-21,18 -27,-33 -12,51 4,26 0,7 18,37l-86 -60z"/>
   <path class="fil7" d="M6578 13381l200 -7c-40,-26 64,-63 -77,-11 32,-31 8,-28 59,-38 -57,-26 -20,25 -48,-58l17 4c-27,-23 -20,-9 -39,-46l0 23c-2,3 -6,7 -7,8l-12 56c-30,-4 -10,2 -32,-9 -6,-3 -18,-3 -23,-17 -2,-6 -8,-7 -12,-10 -2,67 -35,67 -35,66 -2,-3 -9,6 -14,10l23 29z"/>
   <path class="fil47" d="M7302 17040l23 25c43,48 23,2 37,66l41 4c4,-4 9,-14 10,-11l44 -29c45,-18 1,31 53,-21l-14 -57 -194 23z"/>
   <path class="fil55" d="M3546 17104c107,-12 224,-40 322,-39 -53,-50 -93,-80 -178,-51l-144 90z"/>
   <path class="fil56" d="M16605 13492l248 17 0 -49c-71,22 -97,41 -120,-30 -15,-46 -2,-63 26,-85 0,43 -27,45 -87,64 -69,22 -57,12 -67,83z"/>
   <path class="fil51" d="M4419 13223c-12,-15 -155,-5 -190,-8 33,43 2,18 57,33 1,0 42,2 43,2 0,0 -90,24 -9,49 3,1 9,1 13,1 3,1 9,-1 12,-1l32 0c67,3 23,16 86,-8 -18,-54 -10,-41 -44,-68z"/>
   <path class="fil43" d="M6173 13228c-1,48 4,6 -10,43l-23 56c54,-14 46,-10 94,-33l55 74c3,-41 17,-40 53,-84 -57,1 -30,20 -60,-17 22,-36 -54,-45 44,-24l-7 -19c-72,7 -92,-11 -146,4z"/>
   <path class="fil19" d="M6512 13300c75,-52 12,57 6,69l60 12 -23 -29c5,-4 12,-13 14,-10 0,1 33,1 35,-66 4,3 10,4 12,10 5,14 17,14 23,17 22,11 2,5 32,9l12 -56c1,-1 5,-5 7,-8 -91,3 -34,11 -53,-32l-76 -10 -12 40c-9,34 -4,29 -37,54z"/>
   <path class="fil49" d="M7770 13264c-62,83 74,-70 -36,31 -31,28 -31,-40 -31,48l195 -1 44 -8c-52,-9 -47,-22 -55,-31l-50 -54 -67 15z"/>
   <path class="fil49" d="M14131 13327l214 10 35 -65 -78 -8 -31 31c-42,-76 20,11 -35,-36l-27 -30c-12,14 -14,-23 -13,55 -37,5 -50,30 -52,27 -3,-4 -9,11 -13,16z"/>
   <path class="fil36" d="M5523 13262c6,90 26,39 58,106 94,-59 80,-34 56,-84 6,0 37,1 46,-3 47,-18 23,-7 52,-31l-196 -1 -16 13z"/>
   <path class="fil51" d="M10414 13189c-9,-12 -159,-5 -190,-7 16,13 9,18 42,29 24,7 39,5 63,5 -38,38 -13,3 -36,53 152,-15 100,15 168,-12 -20,-51 -13,-42 -47,-68z"/>
   <path class="fil51" d="M5171 13356l76 -6c-8,-68 20,-34 -49,-69l-32 -15c-48,-10 -18,11 -37,-18l-35 86c-36,12 -32,-21 -41,27 64,16 52,1 118,-5z"/>
   <path class="fil57" d="M9121 17847c65,-19 144,-12 202,0 1,-93 14,-48 -46,-70 -39,-14 -56,-18 -88,-27 -14,20 -58,75 -68,97z"/>
   <path class="fil58" d="M12777 13158l15 63 65 -1c-16,22 -33,-26 -15,43 22,84 -1,15 36,33l17 -63 55 -45 -18 -25 -43 5c-4,37 14,12 -14,28l-25 -53c-30,28 -16,10 -73,15z"/>
   <path class="fil59" d="M1973 13967l-13 58c24,32 13,17 20,67l32 45c3,-5 9,-16 10,-13l24 -32 -2 -57c44,-6 20,9 29,-27 -6,1 -20,3 -44,12 16,-71 11,-55 5,-112 -1,4 -1,10 -2,12 -33,58 2,30 -59,47z"/>
   <path class="fil60" d="M1524 16430l34 4c-26,-112 -28,-97 -32,-217l-37 9 -20 195 55 9z"/>
   <path class="fil15" d="M4826 13262c-2,62 14,65 -24,101 -5,6 -12,7 -34,12 -60,14 -8,-4 -10,-7 83,2 -5,-13 34,35 -2,28 100,20 118,15l59 -41c-14,-1 -75,-1 -78,-1 -54,-9 -17,-2 -48,-25 38,10 120,49 120,-4l-29 3 -99 -2 22 -100 -31 14z"/>
   <path class="fil30" d="M1956 14654l-6 51c96,13 -103,19 57,77 4,1 18,6 23,9 1,-47 -6,-52 29,-75l-17 -87c-58,18 -10,-16 -57,42 0,-28 5,-17 -29,-17z"/>
   <path class="fil53" d="M11176 13290l56 20c8,-28 31,4 -9,-40l-40 -25c-3,-1 -8,-5 -10,-6 -2,-1 -6,-4 -9,-6l-38 -19 -55 56 -21 47c73,38 95,-20 126,-27z"/>
   <path class="fil34" d="M19197 16847c64,34 -5,-6 43,33 71,-66 -1,-33 83,-41l-5 -126c-62,20 -48,8 -52,66 -31,-6 -44,-9 -50,-8 -3,42 -6,48 -19,76z"/>
   <path class="fil49" d="M13188 17160c76,26 76,31 163,16l3 -52c0,-3 -3,-10 -5,-14l-60 -7c-6,20 9,8 -15,39 -92,-24 21,-1 -30,-34 -23,-16 -15,6 -60,-40l4 92z"/>
   <path class="fil21" d="M4500 17217l79 -14c1,1 5,4 8,6 57,-47 44,-17 53,-84 -68,-12 -69,13 -85,26l-33 -77c-54,0 -36,-9 -17,50 5,18 22,-28 4,34l-9 59z"/>
   <path class="fil56" d="M19641 14555l95 8 6 -54c38,14 -5,-5 43,38l0 -55 -16 -32 -103 71c-9,-59 -22,-59 1,-100 -18,-14 29,-31 -35,-2 -42,8 -2,105 9,126z"/>
   <path class="fil48" d="M2537 13284c-35,68 3,11 78,21 130,17 10,10 88,43 27,-39 21,-30 -3,-53 -2,-2 -8,-7 -13,-11 134,0 15,10 67,-51 -52,4 -26,2 -67,10 -6,1 -10,2 -15,3 -5,1 -9,2 -14,3l-121 35z"/>
   <path class="fil36" d="M16985 13333c-46,-9 -96,-4 -134,-8l-6 75c4,7 4,3 17,29 6,0 21,-4 24,-4l31 -2c2,0 7,0 9,0l14 2c22,-46 26,-57 45,-92z"/>
   <path class="fil53" d="M10048 17064l14 56c55,13 -10,-18 53,38 49,-23 25,-21 42,-17l74 3c-21,-35 15,-15 -38,-49 -20,-13 -23,-7 -47,-12l2 -44 -47 31 -53 -6z"/>
   <path class="fil61" d="M5621 17058l135 92c1,-4 10,-24 15,-36 19,-45 20,12 16,-71 -65,-16 -113,3 -166,15z"/>
   <path class="fil62" d="M3411 13250c37,-6 55,11 86,20 -5,-39 3,-33 47,-38 -25,-55 -10,-31 -82,-30 -41,0 -59,2 -102,-1 -1,-1 -32,-28 -39,-35 7,18 19,34 22,42 16,38 7,-6 6,24 -1,21 -65,-32 8,33l54 -15z"/>
   <path class="fil54" d="M6596 17596c30,19 -32,13 64,15 -9,42 -15,38 -18,87 73,-2 59,14 104,-3 -44,-80 18,-26 -64,-59 18,-32 3,-40 -7,-85 -68,15 -39,-9 -79,45z"/>
   <path class="fil40" d="M11159 17034c9,43 15,6 -2,44l-30 40c79,11 51,2 66,-1 6,-1 30,-22 34,-26 0,39 12,33 -17,35 16,2 60,26 57,-27 0,-3 -1,-9 -1,-12l-4 -49c-61,-15 -47,-24 -103,-4z"/>
   <path class="fil63" d="M2248 13701c52,-27 44,-16 72,-64 2,-4 3,-9 5,-12l44 -45c3,-2 7,-6 11,-10l-77 12c-37,32 -21,29 -72,38 -13,-29 -16,16 -16,-47 1,-51 -5,-5 23,-42l-74 17 22 64c21,9 60,13 71,46 9,24 58,-45 -9,43z"/>
   <path class="fil64" d="M9408 13215l34 -11c11,20 21,31 8,53l24 -3 17 -44 68 -19 -32 -26 -170 4 -38 -37 20 50c76,14 79,-6 104,21l-102 -23c32,78 31,31 67,35z"/>
   <path class="fil65" d="M7548 17714c21,32 -1,12 20,20l121 77 38 -94c-76,-5 -46,15 -93,-2 -68,-24 30,-9 -33,-17 -91,-12 -44,10 -53,16z"/>
   <path class="fil47" d="M13470 13142l19 37c15,18 -7,3 29,23 35,-28 -9,21 26,-24 25,-33 -5,7 24,-39 44,69 8,81 83,110 5,-77 8,-49 -32,-117l34 -2c-42,-4 -41,-2 -81,2 -35,4 -56,4 -102,10z"/>
   <path class="fil36" d="M17102 17196l31 -4c61,74 39,41 125,34l-34 -86 -76 0c-1,1 -21,21 -21,21 -30,35 -4,3 -25,35z"/>
   <path class="fil57" d="M6971 17613c36,26 61,34 116,34 -12,30 -17,36 -31,57 25,15 24,15 37,39 22,-53 23,-41 55,-77 -44,-46 -97,-107 -177,-53z"/>
   <path class="fil51" d="M5260 17071l-44 -17c-27,61 -21,11 -81,87 31,21 -52,24 47,22 47,-1 26,-18 28,-22 7,5 69,67 55,-37 0,-4 -2,-12 -2,-16 -1,-4 -2,-11 -3,-17z"/>
   <path class="fil54" d="M15122 17798c30,18 181,9 198,0l-134 -82c-27,37 -30,49 -64,82z"/>
   <path class="fil39" d="M18752 17508l13 -2 -39 -67c-3,-3 -8,-5 -10,-12 -2,-8 -6,-9 -10,-13 -33,29 -39,-46 -31,38 20,-128 10,-31 -19,-66l-8 61c-4,27 4,0 -15,44l90 23c21,1 11,-1 29,-6z"/>
   <path class="fil66" d="M11625 17022c18,44 -35,33 51,35l3 -24c27,45 -13,19 41,41 45,18 23,6 64,0l-9 -74c-57,-6 -105,12 -150,22z"/>
   <path class="fil12" d="M13935 17072l-26 49c6,0 1,-13 58,-6 2,0 34,13 41,15l-22 -29c60,-16 29,13 54,-27 28,0 18,5 13,-29 -60,-19 -6,6 -64,-25l-50 -13c39,114 19,42 -4,65z"/>
   <path class="fil53" d="M7165 17021l69 53c-67,0 -8,-4 -36,21 28,27 43,43 93,61 5,-87 35,-55 -39,-82 41,-57 -16,-12 48,-37 -60,-29 -54,-17 -126,-8l-9 -8z"/>
   <path class="fil67" d="M7770 13264l67 -15c70,10 20,6 40,-11l-61 -58 -42 -23 -39 76c16,36 -1,23 35,31z"/>
   <path class="fil10" d="M19721 15104l33 15c-2,32 -10,49 6,74 2,3 6,7 8,9 19,19 -8,10 31,8 44,-10 15,-48 -1,-73 -74,-99 31,-47 -64,-94 -24,29 -45,-49 -13,61z"/>
   <path class="fil48" d="M12811 16981l-32 1 -35 -10c-9,75 -23,22 -17,100 77,-18 63,-11 136,-15l-41 -61c-2,-9 -8,-10 -11,-15z"/>
   <path class="fil66" d="M6637 13216c19,43 -38,35 53,32l0 -23c19,37 12,23 39,46l63 -10 -1 -68c-58,-6 -108,12 -154,23z"/>
   <path class="fil66" d="M12636 13182c18,42 -36,34 51,32l0 -24c21,40 9,26 50,44l39 0 16 -13 -15 -63c-47,-4 -101,15 -141,24z"/>
   <path class="fil68" d="M9290 17395l-94 -4c3,64 36,11 -17,54l59 -5c-16,38 -17,27 -8,69l53 -6c17,-75 -12,-37 7,-108z"/>
   <path class="fil7" d="M17774 13507l145 18c-8,-34 -14,-53 -24,-81 -34,6 -31,1 -66,16 -66,29 -77,-29 -55,47z"/>
   <path class="fil14" d="M10034 17138c29,47 19,18 41,62l107 11 -34 -52c15,4 13,-2 9,-18 -17,-4 7,-6 -42,17 -63,-56 2,-25 -53,-38l-14 -56 -14 74z"/>
   <path class="fil69" d="M19793 14042l-9 -159c-85,-49 -30,-17 -38,-1l15 67c-19,17 -36,32 -57,59 79,64 11,0 89,34z"/>
   <path class="fil20" d="M18057 17243l5 50c0,-2 13,-16 17,-19l68 -6c45,-36 25,-11 47,-59l-40 -12c-78,8 -31,29 -99,18l2 28z"/>
   <path class="fil47" d="M17805 13334l-151 -10 1 61c9,5 8,-12 10,8l-34 26 91 15 3 -66 -41 -5c62,-30 59,-11 121,-29z"/>
   <path class="fil70" d="M6007 13232l-82 -2c-2,5 -5,7 -6,15 -5,40 -26,1 -17,56l101 18 4 -87z"/>
   <path class="fil70" d="M10990 17038l-73 -2c-3,6 -6,13 -8,17l-18 30c12,30 -32,38 100,38l-1 -83z"/>
   <path class="fil67" d="M6807 17021l-44 -23c-5,106 5,25 -52,76 29,31 9,26 56,21 56,-6 33,-9 102,2 -36,-54 -7,-57 -80,-49l18 -27z"/>
   <path class="fil30" d="M8163 17303c20,20 -15,8 42,31 27,10 52,11 79,16 -26,-60 17,-32 -56,-54 14,-23 26,-28 27,-70 -28,-18 12,-23 -92,-15l41 38c31,35 18,12 15,69l-56 -15z"/>
   <path class="fil48" d="M13815 13147l-44 -23c-5,98 29,26 -55,71 59,66 12,0 159,28 -33,-63 3,-45 -79,-50l19 -26z"/>
   <path class="fil71" d="M9694 13183c0,58 -22,33 -84,33 -17,61 -9,63 -68,102 136,0 15,-7 68,34l34 -6c38,-34 -48,-28 43,-29 -40,-66 -50,-6 -64,-111 93,11 67,-5 105,-26l-34 3z"/>
   <path class="fil47" d="M6527 17017c-21,33 36,43 -49,31l28 26c3,2 10,7 14,10l38 -70 70 111c37,-58 21,-57 -17,-118l34 -5 -118 15z"/>
   <path class="fil72" d="M2196 13374l-32 28 3 56c49,-18 57,-10 104,-54 35,-33 -8,21 28,-36l-103 6z"/>
   <path class="fil73" d="M1769 16661c14,-61 4,-55 -12,-109 -33,-15 -24,15 -48,-34l-20 51c46,27 17,-24 42,65 11,38 7,46 27,78l11 -51z"/>
   <path class="fil49" d="M12181 17147l117 4c-3,-6 -6,-13 -9,-18l-17 -27c-31,-33 -24,2 -68,-49l-20 45c-3,4 -10,19 -12,16 -2,-4 -9,11 -13,16l22 13z"/>
   <path class="fil49" d="M13195 13307l114 4c-4,-7 -6,-28 -8,-23 -1,4 -7,-14 -9,-17 -2,-2 -6,-9 -11,-12l1 -2c-63,-23 -24,-3 -44,-30l-22 21c-3,2 -10,5 -13,7l-32 8c2,3 7,31 24,44z"/>
   <path class="fil74" d="M15555 13198c-21,29 -11,20 -25,67 66,-7 20,-7 88,5l35 -63c-17,-33 1,-13 -35,-14 -9,0 -44,5 -63,5z"/>
   <path class="fil75" d="M5004 17147l-10 -76 -72 2c-1,4 -2,6 -3,13 -1,8 -3,10 -5,14 -1,4 -4,11 -6,15 -2,6 -5,13 -7,18 -2,5 -5,12 -8,18l111 -4z"/>
   <path class="fil76" d="M1756 17033c20,-19 -15,-10 47,-44l-20 -19c-1,-2 -7,-7 -8,-9 -2,-2 -7,-7 -8,-9 -49,-53 -58,20 -58,21 -34,-41 -11,-18 -37,-40 19,74 -1,9 27,52 4,6 24,37 27,42l30 6z"/>
   <path class="fil61" d="M18147 17268l73 27c2,-4 5,-14 5,-12l9 -28c9,-25 11,-25 24,-43 -132,-32 111,39 -43,-17 -40,-15 -34,-25 -61,2l40 12c-22,48 -2,23 -47,59z"/>
   <path class="fil7" d="M16776 17208c-7,-8 15,-22 -41,-14 -43,37 65,30 -78,32l64 11c4,59 20,38 -17,60 4,3 11,1 14,8 3,7 12,6 15,7 4,2 27,15 32,18 0,-33 -9,-12 4,-39l7 -83z"/>
   <path class="fil77" d="M5921 13414l101 -13 19 -39c-66,7 -76,-21 -159,4 2,0 0,-13 11,4 24,42 11,-20 -5,11 62,9 2,1 33,33z"/>
   <path class="fil77" d="M10907 17220l103 -12c20,-93 20,4 -53,-57 -29,12 -59,20 -86,33 33,9 18,19 36,36z"/>
   <path class="fil78" d="M4031 17277l24 8 25 -49c-14,-50 -15,-48 -63,-65l-24 71c35,24 -50,61 56,9 0,30 8,23 -18,26z"/>
   <path class="fil53" d="M4018 13314l64 4c1,-40 -3,-32 -9,-53 -11,-39 -16,7 -5,-42l-68 -1 18 92z"/>
   <path class="fil78" d="M9963 17236l84 21c13,-26 19,-40 28,-57 -22,-44 -12,-15 -41,-62l4 0c-49,62 -16,69 -75,98z"/>
   <path class="fil37" d="M13000 17505c-54,-31 -3,-51 -72,-85 -32,44 -24,-41 -23,43 1,79 67,54 95,42z"/>
   <path class="fil79" d="M6699 17179l61 8 62 8c-9,-31 17,-53 -64,-62 -55,-5 -48,18 -59,46z"/>
   <path class="fil58" d="M18971 16670l46 41c27,-59 19,-43 84,-51 -38,-38 -14,-2 -32,-65l-87 67c-3,1 -7,5 -11,8z"/>
   <path class="fil80" d="M19648 15384l36 -5 19 -74c-6,-12 -11,-32 -25,-54l-29 12 -1 121z"/>
   <path class="fil70" d="M10106 13249c48,10 34,46 92,-23l1 -1c0,-1 -3,-6 -3,-7 -1,-1 -5,-9 -6,-10 -1,-3 -4,-9 -7,-14l-90 -11c4,4 8,6 10,13 1,7 12,17 16,20l-13 33z"/>
   <path class="fil64" d="M4187 13226l-90 -9 38 81 67 -15c-4,-14 -10,-43 -15,-57z"/>
   <path class="fil21" d="M6359 17001l16 -1c-57,78 -44,27 -67,141 7,-3 17,-14 22,-8l72 -69 -43 -63z"/>
   <path class="fil30" d="M3497 13270c-31,-9 -49,-26 -86,-20l-32 49c120,58 -97,-19 50,12 39,9 22,-7 49,17l19 -58z"/>
   <path class="fil72" d="M8157 13378c3,53 -3,33 32,42 65,-25 53,-31 90,-86l-74 4c-7,34 26,30 -10,30 0,31 5,18 -38,10z"/>
   <path class="fil81" d="M7291 17156c46,-53 23,-41 71,-25 -14,-64 6,-18 -37,-66l-23 -25 -2 -3c-64,25 -7,-20 -48,37 74,27 44,-5 39,82z"/>
   <path class="fil75" d="M11997 13197l-71 3 -25 77 95 -28c3,-23 2,-28 1,-52z"/>
   <path class="fil17" d="M9474 13254l-24 3c13,-22 3,-33 -8,-53l-34 11 -36 50 36 13c5,0 28,2 34,3 49,10 13,-9 49,19l-17 -46z"/>
   <path class="fil56" d="M6191 17180l110 3 -52 -52c-27,-18 1,8 -41,-25 -15,46 14,24 -37,37 11,13 9,26 20,37z"/>
   <path class="fil82" d="M7196 13340l115 3c-19,-26 1,-11 -38,-49 -25,-25 32,28 -17,-14 -2,-1 -8,-3 -9,-7 -1,-5 -6,-5 -9,-8 -10,14 -49,-28 -2,47 -73,-7 -18,-10 -40,28z"/>
   <path class="fil83" d="M18970 13394c-7,-27 3,-3 -20,-17l-11 108 73 -16c2,-6 7,-5 11,-7l-53 -68z"/>
   <path class="fil80" d="M12699 17145l60 8 57 7c-13,-52 50,-27 -41,-53 -33,-9 -34,1 -63,6l-13 32z"/>
   <path class="fil21" d="M5348 17058l-25 11c10,82 17,98 93,71l-68 -82z"/>
   <path class="fil53" d="M10056 13211c-103,-26 -35,-21 -55,39 26,69 -4,0 30,36l52 -34 -27 -41z"/>
   <path class="fil84" d="M12716 17409l138 76c1,-30 8,-37 -11,-56 -43,-42 -46,-5 -64,20 -1,-8 13,-74 -63,-40z"/>
   <path class="fil53" d="M19136 13445l-31 -31 -55 64c1,4 4,9 5,13 10,27 1,-13 9,41l54 -59c10,-13 14,-20 18,-28z"/>
   <path class="fil85" d="M10772 17222l51 1c3,-12 55,-58 -49,-69 -27,42 -12,-10 -10,43 3,54 7,20 8,25z"/>
   <path class="fil51" d="M6326 13243c24,48 30,63 78,72 -25,-148 -48,-86 -78,-72z"/>
   <path class="fil30" d="M19648 15384l-1 31 86 60c-18,-30 -14,-11 -18,-37 -15,-84 -9,-33 12,-51l3 -16 -46 8 -36 5z"/>
   <path class="fil51" d="M4934 13350l29 -3c55,-14 38,-3 70,-48 -43,-20 -7,-31 -60,-6 -39,18 -31,26 -39,57z"/>
   <path class="fil34" d="M16862 17460l-76 -45 20 28c-33,21 -31,8 -53,52 82,9 58,-2 109,-35z"/>
   <path class="fil53" d="M5454 17104c6,27 8,28 24,51 83,-46 46,-2 58,-64 -43,-13 -49,-12 -82,13z"/>
   <path class="fil86" d="M2043 14968l6 34c37,-25 31,32 31,-31l33 -70c-104,36 -62,-31 -70,67z"/>
   <path class="fil62" d="M7562 17095l81 -6 -6 -48 -93 -23c30,38 11,34 77,38 -60,14 -32,7 -59,39z"/>
   <path class="fil17" d="M9340 17098l-10 105c-25,-22 -21,44 -12,-63 61,36 -3,28 100,27l-18 -64 -75 -16 15 11z"/>
   <path class="fil87" d="M19634 14059c58,36 14,14 35,0 -17,-42 -10,-12 -7,-64l-50 -8 -12 55c28,19 4,6 34,17z"/>
   <path class="fil9" d="M17105 17322c77,15 41,-8 102,14 -25,-51 -38,-55 -82,-72l-20 58z"/>
   <path class="fil75" d="M9896 17043l9 -2 32 14c12,1 -7,4 32,-2 10,-18 -4,-1 17,-23l29 -29c3,-3 7,-9 10,-14 -53,11 -94,22 -129,56z"/>
   <path class="fil5" d="M17498 13340c-6,-35 -28,-23 -73,-24 -30,89 -13,19 13,47l55 3c29,-20 21,39 5,-26z"/>
   <path class="fil53" d="M6512 13300c33,-25 28,-20 37,-54 -54,-4 -66,-5 -90,39 38,29 3,11 53,15z"/>
   <path class="fil88" d="M1640 15700l89 18c-28,-66 -14,-45 -70,-70l-19 52z"/>
   <path class="fil89" d="M15893 17322c43,-69 9,-79 -62,-83l55 75c1,1 5,5 7,8z"/>
   <path class="fil53" d="M19634 13782l-8 -60c-43,-21 -6,-21 -55,-4l43 75c48,15 -1,4 20,-11z"/>
   <path class="fil40" d="M15876 13288c33,-16 30,-15 47,-40 -61,-28 0,-10 -68,-29 1,39 -15,-15 2,31 11,33 6,20 19,38z"/>
   <path class="fil62" d="M16991 17400c17,0 49,10 53,10 56,-3 17,33 47,-25l-36 17 -39 -65 -25 63z"/>
   <path class="fil90" d="M12655 13722c40,11 63,4 92,-39 -108,-4 -69,22 -92,39z"/>
   <path class="fil91" d="M18962 16977l51 -3 13 -33c-47,-9 -20,7 -62,-30l-2 66z"/>
   <path class="fil36" d="M1642 16738l66 -22c-2,2 -14,-10 -17,-13l-17 -19c-5,-6 -13,-17 -25,-25l-7 79z"/>
   <path class="fil36" d="M12776 13234l-39 0c-13,21 -46,-24 -8,25 30,37 13,15 56,30l-9 -55z"/>
   <polygon class="fil72" points="19359,13697 19349,13653 19295,13646 19307,13694 "/>
   <path class="fil40" d="M15604 17316l-16 -65c-11,-1 -16,-9 -19,-5l-29 30c37,28 18,16 64,40z"/>
   <path class="fil92" d="M1852 15704l40 -61c3,-4 11,-14 15,-18l-16 -20c-3,3 -7,4 -9,10 -1,5 -7,7 -8,9 -1,1 -7,6 -8,7 -1,1 -6,5 -7,6 -2,1 -5,4 -8,5l1 62z"/>
   <path class="fil93" d="M2333 14261l15 -17c-18,-46 15,-13 -33,-43l-16 61c24,24 -19,15 34,-1z"/>
   <polygon class="fil94" points="9406,17401 9449,17409 9439,17355 9403,17350 "/>
   <path class="fil62" d="M16535 14528c60,-106 7,-53 -2,-64 -31,42 -36,26 2,64z"/>
   <path class="fil95" d="M19812 14594l-6 -49c-52,18 -29,1 -51,36 32,27 -15,12 57,13z"/>
   <path class="fil79" d="M1747 15322l40 23c15,-121 3,-35 -20,-65l-20 42z"/>
   <path class="fil72" d="M19649 15263l29 -12 22 -43 -54 -12c3,33 -7,27 23,27 -10,9 -13,27 -20,40z"/>
   <path class="fil96" d="M13922 17019c-8,50 -13,36 13,53 23,-23 43,49 4,-65l50 13c-45,-21 -18,-16 -67,-1z"/>
   <path class="fil66" d="M4886 13322c6,-4 15,-13 17,-8 1,4 8,-5 23,-16 -40,-48 4,-15 -55,-31l15 55z"/>
   <path class="fil72" d="M5841 17075l-5 -64 -49 32 45 28c2,1 6,3 9,4z"/>
   <polygon class="fil97" points="6370,17812 6354,17769 6327,17772 6317,17804 "/>
   <path class="fil98" d="M1662 16924l14 -66 -37 28c-6,71 -3,9 23,38z"/>
   <path class="fil75" d="M2692 13185c-6,0 -35,-1 -40,1 -4,1 -11,3 -15,5 -4,1 -9,4 -13,7 28,27 -10,27 36,12 30,-9 25,-18 32,-25z"/>
   <path class="fil97" d="M8687 13151c-5,0 -34,-1 -38,0 -4,1 -11,4 -15,6 -4,1 -9,5 -12,9 25,21 -5,22 34,9 11,-3 25,-18 31,-24z"/>
   <path class="fil99" d="M19792 16205c-27,-46 4,-28 -28,-37 -61,-17 -8,-4 -27,13l55 24z"/>
   <path class="fil97" d="M12323 17729c8,53 -12,25 43,44 -32,-57 4,-18 -43,-44z"/>
   <path class="fil100" d="M1674 17042c21,-29 18,-27 3,-53 -23,36 -34,2 -3,53z"/>
   <path class="fil101" d="M11616 17020l-21 3c-25,59 -11,15 3,37 34,-25 9,13 18,-40z"/>
   <path class="fil102" d="M12889 13168l-39 -25 25 53c28,-16 10,9 14,-28z"/>
   <path class="fil103" d="M8046 17249c-30,-58 6,-33 -58,-41l58 41z"/>
   <path class="fil73" d="M13737 17021l-17 -11 -23 32c86,6 10,5 40,-21z"/>
   <path class="fil73" d="M14747 13181l-16 -12 -21 29c79,13 9,6 37,-17z"/>
   <path class="fil104" d="M7691 17006c-14,-42 2,-19 -38,-35 28,47 24,22 38,35z"/>
   <path class="fil101" d="M2377 13231c12,35 -34,8 11,23 19,6 23,-1 29,-4l-40 -19z"/>
  </g>
 </g>
</svg>
