<?xml version="1.0" encoding="UTF-8"?>
<!DOCTYPE svg PUBLIC "-//W3C//DTD SVG 1.1//EN" "http://www.w3.org/Graphics/SVG/1.1/DTD/svg11.dtd">
<!-- Creator: CorelDRAW X8 -->
<svg xmlns="http://www.w3.org/2000/svg" xml:space="preserve" width="210mm" height="297mm" version="1.1" style="shape-rendering:geometricPrecision; text-rendering:geometricPrecision; image-rendering:optimizeQuality; fill-rule:evenodd; clip-rule:evenodd"
viewBox="0 0 21000 29700"
 xmlns:xlink="http://www.w3.org/1999/xlink">
 <defs>
  <style type="text/css">
   <![CDATA[
    .fil9 {fill:#33242C}
    .fil3 {fill:#443442}
    .fil4 {fill:#453A44}
    .fil8 {fill:#6B5B64}
    .fil10 {fill:#8D788D}
    .fil13 {fill:#8E8495}
    .fil11 {fill:#978996}
    .fil12 {fill:#C5B9B9}
    .fil6 {fill:#E4DCDA}
    .fil7 {fill:#E5E2E3}
    .fil2 {fill:#E9E1DE}
    .fil5 {fill:#EAE5E2}
    .fil1 {fill:#FAFAFA}
    .fil0 {fill:#FDFFFE}
   ]]>
  </style>
 </defs>
 <g id="Ebene_x0020_1">
  <metadata id="CorelCorpID_0Corel-Layer"/>
  <g id="_1565581743120">
   <path class="fil0" d="M2829 10555l10 142 76 6 27 78 246 112c11,8 29,25 42,30 72,29 83,-21 93,38 141,14 244,-1 326,2 184,8 199,27 403,-9l532 -54c94,-19 54,-18 138,17 49,-81 60,-29 127,-37 64,-7 64,-24 148,-26 85,-2 58,-19 158,-21 60,-2 119,-1 178,-3l931 -68c281,-9 314,-58 506,-27 105,17 45,0 122,-10 175,-21 -4,39 283,-39l56 42c188,-57 375,-37 534,-36 88,1 60,-25 129,-19 82,7 64,2 141,-5 238,-22 235,12 313,9 101,-4 94,-27 287,8 108,20 137,-13 263,-17 123,-4 432,-1 532,-57 98,49 35,29 142,17 159,-17 279,39 425,-50 77,21 353,10 479,9 186,-1 191,4 378,-25l526 -31 1402 46c257,8 669,39 894,23l561 31c3,0 8,1 12,2 90,20 -21,18 59,21 21,1 77,-20 110,-27l31 69c30,-66 6,-12 35,-47 166,31 347,8 497,26 54,7 78,23 121,22 225,-9 34,-9 239,12 73,7 63,-6 106,21l48 -41c98,77 628,55 780,71 103,10 334,15 409,43 59,21 423,19 556,46 65,13 457,28 599,59 72,15 335,43 383,16 30,-17 78,-82 95,-116 39,-78 27,-93 115,-104 -20,-41 -8,1 -18,-68 59,-44 -4,-18 67,-41 -27,-126 11,-85 42,-220 20,-87 -14,-174 -14,-266l-52 -46c15,-43 56,-66 9,-112 -62,33 -6,7 -71,28l-32 -101c-63,54 -25,100 -101,128 -18,-26 -18,26 -17,-50l-4 -181c-28,-22 7,-17 -61,-25l32 -24 -55 -40c44,-23 49,0 67,-60 22,-75 -3,-58 -29,-69l33 -51c-68,-9 -48,18 -51,-71l-50 51c-5,-75 -11,-82 13,-137l-21 -17c-2,-2 -7,-6 -9,-8 -2,-3 -6,-7 -8,-10 -24,-33 -2,-4 -17,-35 -22,-46 -15,-37 -51,-72 32,-31 26,-11 35,-71 -4,-2 -10,-4 -12,-5l-79 -55c-43,13 -38,17 -84,20 -15,-112 14,-77 -38,-158 -69,2 -146,37 -194,-32l16 -8c30,-9 22,7 47,-24 -56,-10 -55,-13 -102,-28 -4,3 -8,8 -11,10l-101 46c29,30 -44,34 51,30l-45 63c-8,-15 -3,-14 -9,-31 0,-2 0,-8 -1,-10l-14 -69c28,-22 21,23 38,-28 2,-8 9,-8 14,-12 -98,-4 -115,-48 -218,-68 13,-63 -8,-48 -7,-137l-42 29c-3,2 -7,6 -10,7 -37,18 -2,17 -55,-2 10,58 11,31 21,90 -82,-8 -70,-22 -71,-107l-111 14c-2,-4 -14,-27 -15,-29l-49 31 -106 -25c-19,-26 -6,-10 -17,-29l-30 -34 -26 53c-46,-55 -77,-37 -144,-15l-35 -72c-71,9 -48,21 -71,53 -97,-23 -36,-16 -126,-4 -126,17 -98,-8 -160,-14 -83,-9 -37,6 -53,15 -3,2 -7,6 -10,8 -180,122 -134,-75 -236,115 -23,-38 -15,-29 -17,-89 -12,17 -10,11 -22,39 -2,2 -9,27 -9,33 -5,-88 -16,-103 32,-176 -91,12 -14,19 -110,19l-30 -180c-71,20 -24,19 -95,2l2 73c-66,-17 -39,-16 -103,-1 -10,-63 -14,-71 -59,-102 -44,-32 -49,-27 -31,-94 -91,26 -160,-19 -211,72 -4,-87 9,-71 -39,-108 -3,4 -6,9 -7,12 -17,40 -7,60 -46,78 -34,-48 -17,-29 -21,-103 -46,37 -32,76 -68,122 -59,-27 -35,15 -53,-51l-35 50 -36 -82c-62,31 -80,21 -160,12 -60,-6 -59,27 -86,-22l-20 21c-3,3 -16,14 -20,17 -42,34 9,-7 -34,24 -16,-80 -15,-32 3,-114 31,35 28,42 70,24l-72 -39c-26,-4 -73,-3 -102,-4 -10,-92 0,-19 17,-96 -1,2 -18,18 -28,26 -66,49 -56,22 -76,7 -17,76 -18,22 -26,99 -53,-61 -90,-19 -146,-27 -91,-12 -55,-46 -153,-5 -49,-46 -42,-35 -124,-21 -5,-72 8,-37 -31,-77l-40 79c-31,-5 -58,-9 -65,-42 -1,-6 -5,-8 -8,-11 -15,29 -19,9 -7,45l27 44c-91,-17 -14,-10 -95,-40 35,85 147,141 -30,146 -2,-3 -5,-8 -6,-11l-28 -54 -143 35c-2,-4 -4,-9 -5,-11l-6 -22c0,-1 -1,-7 -2,-8l-10 -13c-31,-40 -20,34 -29,-58 -40,17 -72,20 -108,40 -6,-7 -19,-20 -29,-27l-125 13c-41,13 -13,35 -93,31 -78,-4 -5,7 -53,-19l-64 78c-54,63 -122,77 -192,45 -1,-84 -1,-51 19,-106 -3,-2 -7,-5 -9,-6 -2,-1 -8,-4 -10,-5l-27 -151 -50 33c-2,-3 -3,-9 -5,-13 -36,-75 -116,-55 -177,-40 -37,-45 -1,-16 -55,-52 0,61 7,82 -16,125l-19 -103c-47,5 -110,33 -102,-32 5,-44 35,-57 41,-93 -51,-58 -44,-30 -99,-62 -71,-41 22,-33 -93,-42l-13 101c-23,-10 -55,-24 -82,-34 -77,-29 -14,32 -77,-51l-17 -17 -7 -47c-211,31 -237,-11 -314,-17 -126,-9 -51,8 -87,-21 -69,61 -143,5 -226,5 -20,0 -114,9 -147,11 -49,3 -92,-2 -147,-1l-3 -45c-45,66 -86,44 -184,36 -33,-3 -124,2 -180,9l-19 -18c-2,-2 -11,-11 -13,-15l-311 19c-55,-3 -163,37 -393,2 -171,-26 -123,0 -169,4 -20,3 -97,-17 -143,-20 -77,-7 -266,-25 -318,5 -159,-83 -735,15 -869,-79l-35 45c-145,-8 -267,19 -408,16 -69,-1 -43,3 -96,7 -57,5 6,-15 -77,-2l-91 16c-119,17 -36,53 -161,-9 -35,50 -20,36 -88,43l-438 41c-40,11 -67,10 -112,9 -139,-4 -149,17 -289,5l-388 15c-10,2 -119,18 -124,18 -62,1 -13,-21 -95,-7l-1144 46c-134,22 -345,27 -443,24 -42,-2 -67,-7 -97,-1 -53,10 -39,23 -94,22l-1156 100c-65,6 -32,-6 -89,32 -29,20 -49,25 -77,47 -47,35 -65,117 -76,184 -49,304 -56,198 -4,456 24,119 3,144 11,252 5,75 23,160 19,248l-61 460c-23,92 -1,-12 -25,59 -23,65 2,68 -34,157 -47,117 14,91 -16,217 -42,172 -83,268 -79,472z"/>
   <path class="fil1" d="M2156 8114c-3,52 -8,66 -24,100 61,70 21,3 30,72 35,278 -33,260 -53,531l15 1c-20,48 -31,66 -40,118 -10,55 7,54 -35,94 63,137 14,131 2,266 -20,243 -77,396 -64,548 31,353 -82,231 95,329l74 81c0,0 -104,73 -53,159 20,17 6,12 38,26 0,0 30,8 36,10 14,62 19,39 36,103 12,43 -3,75 -1,109l56 207c-4,34 -34,19 -21,110 11,71 29,62 52,93 63,85 1,155 121,183l-16 80c166,-88 109,24 153,-64 22,131 70,104 103,107 -19,-39 -21,-35 -34,-74 39,10 62,19 118,19 64,0 82,-11 140,-4 49,6 67,24 127,23 57,-1 80,-22 141,-19l-9 71c57,2 86,-4 116,-19l53 38 62 -51c137,62 43,-21 151,34l35 -54c84,4 55,-3 124,-23 23,15 2,-4 31,22l29 27c3,3 8,7 11,11l5 -54c89,1 96,-57 344,-30 1,-5 3,-17 4,-14l32 -37c-14,28 90,33 137,39 118,16 80,-35 126,22l891 -19c64,12 45,27 120,13 225,-43 846,6 966,-64 87,38 445,-23 674,-23l267 36 16 60c-10,-19 43,-25 70,-27 92,-9 107,12 127,14l464 -2c129,-20 143,12 264,3 93,39 171,15 246,-41 92,118 589,59 671,69 108,13 589,-20 712,-13 205,12 145,-23 248,-14 65,7 68,32 143,26 63,-4 52,-24 119,-18 171,15 160,20 222,-18l31 43c37,-43 14,-13 35,-30 68,32 161,18 233,-10l69 37c4,-2 11,-5 14,-7l39 -23c36,20 40,34 97,30 47,-2 93,-1 134,-3l212 -25c109,-7 231,29 233,29 92,8 161,-15 246,-11 61,3 184,15 231,2 18,-5 184,-23 209,-19 236,38 123,10 235,10 15,1 71,24 113,24 60,0 23,-6 81,-28 43,28 364,28 383,26 75,-10 46,3 89,12 79,16 17,-8 75,-5 75,4 171,45 251,-18 45,30 82,33 141,31 78,-3 91,-30 125,-52 62,34 107,23 160,-14 25,38 14,44 37,82 90,6 336,-26 483,17l349 4c96,-3 31,-18 107,22l88 -40c64,41 22,35 124,29 44,-2 88,-7 124,-9 46,-1 120,-10 157,-5 158,22 342,11 516,18 64,3 91,11 125,-8l18 10c179,-7 237,16 326,-7 25,-6 84,-6 124,-2 97,10 27,-25 124,-20 232,11 404,-20 618,-14 165,5 391,-1 615,28 94,11 43,22 153,5 118,-18 266,48 454,58 30,-20 55,-26 93,-41l83 -41c136,-84 73,-93 170,-92 -5,-84 9,-79 29,-150l33 -7c1,-1 6,0 8,1 -3,-14 -7,-28 -10,-36 -2,-3 -13,-15 -14,-23 -12,-75 46,-191 43,-260 -5,-83 -45,-171 10,-249l-67 -219c-22,-74 1,-80 -7,-151 -5,-40 -32,-96 -32,-125 0,-70 16,-26 -9,-126l-54 -172c-23,-43 -24,-78 -9,-121 14,-41 3,-20 22,-44 -2,-1 -6,-4 -7,-5l-5 -83c-35,-23 -23,-19 -39,-36 22,-21 -19,-3 36,-37l-32 -12c7,-71 1,-111 1,-182 1,-93 4,-59 37,-123 -27,-47 -35,-10 -24,-90 11,-79 -11,-14 32,-56l-53 -32c10,-51 36,-171 19,-223 -16,-50 -38,-49 -22,-124l19 -43c-80,-140 -46,-261 -79,-396 -94,19 -67,8 -161,-3 20,67 27,65 7,141l50 3 8 69c1,-2 6,8 8,11l-25 41c-1,-3 -5,7 -8,10 51,81 26,119 43,224 -48,29 -22,3 -50,60l102 142 -76 52 33 54c-36,90 -17,44 -8,133l-36 365 40 52c-19,91 -28,204 6,266 -13,17 -21,29 -33,53 70,74 3,77 24,149l41 118c41,125 28,239 -2,354 -49,27 -22,6 -59,40 2,119 48,66 -68,292 -20,38 -11,34 -34,70 -54,87 -91,95 -107,212l-58 -20c4,62 10,74 -45,94 -111,41 -200,27 -301,6l-597 -48c-93,8 -201,-38 -296,-51 -76,-10 26,21 -87,1 -131,-25 -225,3 -325,-12l-112 -9c-11,0 -82,-28 -318,-34l-901 -78c-81,5 -363,-6 -430,-35 -24,11 -36,18 -53,29 -131,-78 -288,-7 -431,-44 -131,-34 -341,-2 -437,-17 -82,-14 -228,2 -302,-45 -56,27 -74,12 -141,11 -109,-2 -19,31 -115,-31 -56,62 -155,21 -241,17l-624 -17c-184,12 -105,-2 -245,-9l-368 -15c-81,5 -28,14 -109,-8 -80,-21 -29,-10 -86,3 -53,12 -181,-9 -223,11l-37 -27c-2,-6 -7,-8 -10,-11 -91,28 -305,50 -408,47l-346 23c-75,-6 -92,-8 -162,15 -146,49 -351,-46 -486,-9 -5,1 -9,3 -14,5l-92 -27c-63,61 -198,41 -282,46l-391 27c-60,1 -25,15 -101,18 -148,4 -295,-4 -444,15 -107,13 -302,23 -378,-29 -116,59 -432,21 -567,34 -66,7 -68,31 -159,23 -81,-7 -73,-19 -161,-3 -140,26 -179,-3 -301,47 -59,-21 -93,-46 -158,-28 -105,28 -108,-8 -178,-7 -116,3 -248,69 -355,14 -120,57 -376,36 -523,57 -174,26 -368,-3 -541,25 -40,34 -11,16 -56,15l-86 25c-21,-15 -33,-23 -52,-38 -42,38 -289,56 -366,55 -59,-2 -180,53 -245,54 -20,0 -78,-5 -100,-3 -107,7 -648,50 -745,85 -45,-32 10,-7 -62,-18 19,38 -102,3 -133,3 -203,-4 -357,39 -628,-119 -72,-42 -15,-39 -97,-68 -106,-37 -223,-63 -270,-155 -47,-91 -62,-66 -101,-125 -25,-35 3,-17 -42,-66 2,-72 -13,-185 10,-238 29,-68 1,-26 39,-64 -31,-30 -11,-4 -40,-53 29,-69 27,-43 33,-122l72 -38c-15,-42 -8,3 -16,-65 -11,-88 54,-167 74,-264 22,-103 0,-28 -1,-114 60,-66 16,1 43,-73 11,-32 29,-44 3,-51 41,-115 49,-166 46,-302l-1 -67c32,-171 9,-136 -11,-304 -16,-136 15,-292 -49,-409 35,-80 -10,-94 58,-146 -2,-4 -14,-19 -17,-23l-16 -26c29,-89 22,-13 27,-107 4,-92 32,-103 52,-176 9,-35 2,-37 31,-76 85,-118 150,-97 277,-161 116,-60 244,-67 378,-70 99,-3 306,-48 377,3 59,-53 103,-38 183,-39 88,0 561,-73 661,-14 70,-32 98,-56 167,-6 84,-54 119,-36 248,-36 98,-1 192,7 284,-20 38,37 8,-34 35,40l24 -26c1,-6 8,-6 12,-10 101,11 409,-36 471,13l125 -32c75,-3 49,18 130,16 69,-2 87,-22 136,-20 110,3 550,9 648,-19 143,-40 342,-6 444,-37 133,-40 291,-50 423,-55 99,-4 183,-46 265,19l20 -33c2,-2 7,-5 8,-11 1,-6 5,-7 7,-10 81,9 156,-17 233,-6 137,18 281,-22 435,-5 31,4 76,12 109,15 68,7 -1,21 70,-17 84,64 141,-15 271,47l42 -34c2,-7 7,-8 11,-12 81,74 237,26 337,63 72,-44 130,-14 230,-9 77,4 156,-5 228,-1 87,6 327,50 399,-16 52,21 32,16 48,25 113,66 -55,-21 35,22 24,-24 28,-27 53,-48 117,56 264,9 386,16 79,4 160,-21 211,32 119,-60 317,20 467,-2 3,3 7,8 9,10l29 38 33 -45c54,19 88,31 124,56l20 -21c2,-2 13,-15 15,-20 58,8 54,2 107,2 107,0 35,6 92,17 104,19 48,-25 162,-8l528 54c133,48 946,36 1156,37 161,0 74,8 139,17 57,8 73,-25 175,4 62,18 239,48 287,38 90,-20 63,-8 156,-1 118,8 247,16 372,24 301,19 611,71 904,89 41,3 54,20 75,24l189 14c88,14 498,-33 624,-34l390 21c63,-5 96,9 153,-2 66,-13 117,-55 140,30l50 -24c4,-2 24,-12 30,-15 73,46 157,16 246,22 100,7 108,-10 205,16 107,28 171,-6 276,4 102,10 129,39 229,0l6 -89 -66 -20c10,-61 26,-66 -37,-86 -48,-16 -52,-6 -97,-25 -148,-65 -287,-56 -347,-66 -68,-12 -101,1 -192,-23l-257 -52c-21,0 -105,50 -255,-1 -43,-14 -98,-5 -161,-8 -56,-2 21,25 -79,2 -61,-14 -12,-13 -74,-32 -34,7 -107,31 -142,29 -63,-3 -43,-34 -124,-34 -78,0 -214,37 -310,11 -182,-48 -50,-14 -136,-4 -47,5 -76,-19 -139,-19 -134,1 -193,11 -323,-14 -86,-17 -82,8 -157,8 -46,1 -99,-13 -141,-14 -68,-1 -96,6 -177,-2l-567 -16c-84,-20 -49,-24 -125,6l-44 -36c-2,-7 -7,-7 -11,-11 -37,39 -33,30 -125,8 -47,-11 -52,2 -100,-3 -80,-7 -44,-25 -139,-16 -251,25 -155,-40 -326,-15 -59,8 -206,-13 -284,-19 -23,19 -16,17 -46,26 3,-65 9,-14 20,-74 -55,27 -47,59 -147,44 -61,-9 -6,-10 -83,-4l-430 -22c-115,-7 -259,-8 -352,-16 -106,-9 -203,2 -337,-16l-345 -21c-144,-10 -261,-27 -400,-5 -53,9 -11,6 -71,-10 -60,-16 -115,7 -253,-14 -81,-13 42,-22 -181,-20 -82,1 -90,1 -161,4l-34 -46c-73,42 -232,15 -337,15 -96,0 -112,-15 -179,-22 -54,-6 -104,20 -164,7 -132,-26 -229,-13 -358,-30 -93,-12 -99,-8 -185,-7 -78,2 -100,1 -142,-36 -99,63 -443,-16 -443,-16 -92,42 -316,3 -425,3 -68,0 -142,-14 -203,-12 -210,6 -119,-16 -191,-28l-334 13c-242,-26 -428,-20 -660,-7l-302 1c-24,-2 -40,0 -77,-1l-296 5c-73,5 -48,-7 -86,-9l-211 9c-75,0 -142,-19 -203,-8 -113,19 -101,6 -205,4 -142,-2 -248,11 -389,6 -137,-4 -204,20 -407,28l-340 3c-64,1 -53,15 -86,15 -18,0 -50,-21 -86,-19 -24,1 -69,22 -79,23 -74,13 -27,-5 -87,-8l-402 22c-43,6 21,22 -60,10 -63,-10 -4,-6 -85,2l-549 32c-57,-1 30,-24 -65,6 -123,39 -188,-7 -362,73 -76,-46 -107,-3 -178,9 -77,14 -112,-2 -158,2 -39,3 -27,8 -75,23 -91,28 -35,16 -78,38 -45,23 -190,7 -240,360 -12,87 23,25 -16,159 -23,81 2,57 -1,170l-72 12c59,96 -23,30 35,129z"/>
   <path class="fil2" d="M2361 12031c28,38 -57,31 46,31 0,2 -9,29 -16,69 81,-9 40,-10 105,5l32 75 35 -69c-15,121 3,46 22,69l88 -90c76,42 22,4 107,8 51,47 17,34 96,48 11,-24 16,-44 28,-71 36,15 1,0 28,16 5,4 13,11 35,21 -14,105 25,70 102,108 54,26 47,-5 190,2 3,3 9,3 10,10l356 86c71,15 61,15 66,-48 5,3 12,4 15,11l62 19c3,0 9,1 13,1 72,9 71,8 146,6 -28,-11 -20,-33 -12,-52l110 35c37,21 28,39 85,53l122 -103c1,2 7,4 9,9 7,34 20,14 26,13 2,-40 72,-26 113,-6 33,16 28,32 102,-35 60,25 74,39 131,17l-16 70 263 10c55,-6 35,13 89,-9 0,29 -7,42 10,59 22,24 7,5 42,-24l-13 87c181,-55 133,0 238,4l569 26c123,4 90,-28 167,-48 40,-10 69,10 180,-13 113,-23 298,-62 415,-49l37 -35c67,50 184,22 282,33 80,9 26,30 141,19 62,-7 77,-9 143,-27 63,26 75,6 159,2 83,-3 114,-8 160,-36 47,52 94,51 178,34 73,35 197,4 301,-7 104,-10 234,9 319,-42 146,44 283,41 426,51 35,2 63,-1 99,-14 0,0 33,-17 36,-18 88,-27 4,-7 51,-2 82,10 96,-7 202,4l14 -59c72,21 361,-6 447,-15 162,-15 51,18 178,34 211,28 299,-39 412,-57l635 -14c146,8 278,-27 426,-32 80,-3 157,5 232,3 154,-3 275,-81 427,-21 106,41 374,-98 583,13 93,-79 222,-58 347,-37 153,25 194,-54 398,31 97,-52 176,-44 301,-40l49 72c27,-63 13,-9 38,-66l108 -3c56,-2 58,31 142,29 30,-67 9,-78 111,-90 53,136 31,63 94,83l150 37c49,5 79,14 102,50 -22,-68 -10,-10 7,-54 24,19 85,-35 35,52 13,-42 41,-42 85,-75 12,-8 69,-87 95,30 0,3 -3,9 -5,14l149 -38c3,-2 7,-7 11,-10 8,7 16,11 35,31 31,-56 -10,3 43,-30 68,51 71,22 155,22l174 30c3,-5 10,-16 12,-19 2,-2 7,-9 9,-11l22 -25c6,73 66,34 145,13 181,-49 99,6 210,-15 44,-8 82,3 143,-5l275 -25c3,4 8,5 9,11l27 40c44,-69 72,-25 116,-54 5,4 12,2 15,10l46 42c44,-15 110,-51 142,-55 139,-16 22,41 156,-15 66,-27 290,-2 376,-3l35 -52c75,5 39,-6 89,26l60 -39c3,1 17,9 22,10 26,6 34,0 60,-8 3,4 7,6 8,12 6,24 23,30 45,38l36 -51c77,7 62,18 139,-19l82 -55c11,-9 8,-9 36,-22 -18,-40 -7,-8 -20,-71l53 -2c-49,-26 -22,-16 -48,-40l41 -37c14,-19 3,0 10,-16l8 -26c0,-2 9,-26 10,-30l0 -66c10,-67 1,-14 15,-25l-30 22c-3,2 -9,8 -13,11 -3,-5 -8,-17 -10,-14l-114 -73 -89 -28c-179,72 -103,-9 -248,9 -120,14 -296,36 -396,10 -107,-28 -99,11 -165,7 -6,0 -22,-5 -28,-5 -19,-2 -44,-5 -67,-4 -99,5 -107,49 -107,-5 -59,3 -124,16 -161,19 -34,2 -50,-5 -87,-3 -132,7 -16,-13 -124,-16l-209 17c-38,-3 5,-13 -74,-16l-515 20c-40,-42 -8,-25 -55,-24l-1017 -19c-192,23 -267,-29 -341,-22 -101,10 -270,20 -395,13 -65,-4 -62,-27 -178,-20l-336 -14c-59,1 -83,29 -148,19 -132,-21 -228,-22 -373,-16l-31 -52c-115,53 -63,53 -123,99 -17,-24 -22,14 3,-73 -84,28 -309,24 -410,6 -149,-25 -59,27 -235,-3l-45 47c-54,-65 -79,-29 -175,-39 -108,-12 -439,-33 -521,8 -170,-61 -83,3 -198,-7 -256,-23 -254,14 -464,-2 -135,-11 -84,63 -225,-6 -42,64 -52,24 -128,57l-31 -39c-92,12 -56,10 -128,-17l-32 37c-5,-2 -10,-5 -14,-6l-184 2c-2,0 -6,2 -8,2 -1,1 -6,5 -7,6l-18 19c-167,-38 -126,-12 -265,-11 -168,1 -124,14 -264,28 -108,10 -43,10 -127,-17 -56,23 -31,15 -89,14l-122 0c-74,14 19,21 -72,23 -92,2 -9,-33 -144,-13 -56,8 -118,6 -176,2 -59,-3 -267,37 -488,31l-289 27c-140,24 -48,-31 -173,-2 -40,9 -124,39 -152,43 -50,5 -248,-19 -370,-7l-249 21c-83,-3 -75,3 -123,43 -104,-79 -63,-14 -176,-15 -66,-1 -46,-12 -125,4l-355 31c-64,6 -40,18 -107,23 -71,5 -371,-6 -429,12 -191,58 -116,13 -280,36 -86,12 -45,1 -125,-2 -61,-2 -169,14 -212,36 -49,-22 -246,-22 -298,-12 -200,39 -1,30 -284,43 -82,4 -6,32 -121,19 -121,-13 -36,10 -148,20 -105,9 -199,0 -284,40 -47,-32 -18,-20 -71,-42l-53 47c-157,-26 -191,49 -318,31 -79,-10 -239,-20 -303,32l-46 -11z"/>
   <path class="fil3" d="M2556 10424c-14,114 -17,25 46,60 5,-97 -2,-109 105,-116 -5,142 -6,91 -24,123l-19 29c92,42 38,-1 61,53 11,28 -13,9 11,41 30,42 -14,1 44,30 43,-51 29,69 35,-89l14 0c-4,-204 37,-300 79,-472 30,-126 -31,-100 16,-217 36,-89 11,-92 34,-157 24,-71 2,33 25,-59l61 -460c4,-88 -14,-173 -19,-248 -8,-108 13,-133 -11,-252 -52,-258 -45,-152 4,-456 11,-67 29,-149 76,-184 28,-22 48,-27 77,-47 57,-38 24,-26 89,-32l1156 -100c55,1 41,-12 94,-22 30,-6 55,-1 97,1 98,3 309,-2 443,-24l1144 -46c82,-14 33,8 95,7 5,0 114,-16 124,-18l388 -15c140,12 150,-9 289,-5 45,1 72,2 112,-9l438 -41c68,-7 53,7 88,-43 125,62 42,26 161,9l91 -16c83,-13 20,7 77,2 53,-4 27,-8 96,-7 141,3 263,-24 408,-16l35 -45c134,94 710,-4 869,79 52,-30 241,-12 318,-5 46,3 123,23 143,20 46,-4 -2,-30 169,-4 230,35 338,-5 393,-2l311 -19c2,4 11,13 13,15l19 18c56,-7 147,-12 180,-9 98,8 139,30 184,-36l3 45c55,-1 98,4 147,1 33,-2 127,-11 147,-11 83,0 157,56 226,-5 36,29 -39,12 87,21 77,6 103,48 314,17 53,26 71,20 148,21 76,1 120,9 188,1 48,-6 72,13 150,20 63,6 91,-2 141,35l53 -32c105,35 81,54 163,-3 29,58 105,49 174,50 12,-13 21,-16 36,-40 30,57 28,52 175,45l482 13c111,-5 177,-7 247,32 81,-47 206,-16 338,-4 94,10 59,-16 95,40 99,-48 35,-61 192,-29 112,22 149,-25 227,37 93,-20 119,-34 234,-4 236,62 320,39 476,52 126,10 59,66 229,20 63,69 58,22 140,39 87,18 21,37 144,20l488 13c55,10 40,42 159,7 134,-41 209,-8 346,1l32 -37c15,34 21,24 39,40 197,-28 229,8 493,0 97,-3 135,20 164,22 41,4 11,-9 68,-3 37,4 25,12 57,14 61,4 -26,-11 63,-2 21,2 43,8 77,9 149,4 158,-41 276,58 -39,104 53,325 52,438 0,74 -18,66 25,130 -32,59 -34,67 -19,164 15,97 -3,26 -4,85 -1,29 18,69 18,89 2,69 -14,-3 -12,63 5,147 -33,235 21,330l-43 46c8,6 13,7 14,13 2,5 8,8 10,9 2,2 21,15 24,17 -11,31 -39,82 -43,101 -8,42 22,37 7,129l30 20c2,1 9,6 11,7 3,2 9,6 13,9 -3,3 -8,4 -9,10 -2,9 -14,18 -16,22 -8,17 -7,16 -13,38 -12,39 -15,45 -13,88 47,46 6,69 -9,112l52 46c0,92 34,179 14,266 -31,135 -69,94 -42,220 -71,23 -8,-3 -67,41 10,69 -2,27 18,68 -88,11 -76,26 -115,104 -17,34 -65,99 -95,116 -48,27 -311,-1 -383,-16 -142,-31 -534,-46 -599,-59 -133,-27 -497,-25 -556,-46 -75,-28 -306,-33 -409,-43 -152,-16 -682,6 -780,-71l-48 41c-43,-27 -33,-14 -106,-21 -205,-21 -14,-21 -239,-12 -43,1 -67,-15 -121,-22 -150,-18 -331,5 -497,-26 -29,35 -5,-19 -35,47l-31 -69c-33,7 -89,28 -110,27 -80,-3 31,-1 -59,-21 -4,-1 -9,-2 -12,-2l-561 -31c-225,16 -637,-15 -894,-23l-1402 -46 -526 31c-187,29 -192,24 -378,25 -126,1 -402,12 -479,-9 -146,89 -266,33 -425,50 -107,12 -44,32 -142,-17 -100,56 -409,53 -532,57 -126,4 -155,37 -263,17 -193,-35 -186,-12 -287,-8 -78,3 -75,-31 -313,-9 -77,7 -59,12 -141,5 -69,-6 -41,20 -129,19 -159,-1 -346,-21 -534,36l-56 -42c-287,78 -108,18 -283,39 -77,10 -17,27 -122,10 -192,-31 -225,18 -506,27l-931 68c-59,2 -118,1 -178,3 -100,2 -73,19 -158,21 -84,2 -84,19 -148,26 -67,8 -78,-44 -127,37 -84,-35 -44,-36 -138,-17l-532 54c-204,36 -219,17 -403,9 -82,-3 -185,12 -326,-2 -55,38 5,19 -78,20 16,67 -10,76 64,84 27,4 46,-12 91,-13 9,57 -2,-3 26,39 0,1 2,4 3,5l16 38c46,86 209,-82 275,51l88 -41c31,39 20,-26 9,48 72,11 17,-14 62,18 97,-35 638,-78 745,-85 22,-2 80,3 100,3 65,-1 186,-56 245,-54 77,1 324,-17 366,-55 19,15 31,23 52,38l86 -25c45,1 16,19 56,-15 173,-28 367,1 541,-25 147,-21 403,0 523,-57 107,55 239,-11 355,-14 70,-1 73,35 178,7 65,-18 99,7 158,28 122,-50 161,-21 301,-47 88,-16 80,-4 161,3 91,8 93,-16 159,-23 135,-13 451,25 567,-34 76,52 271,42 378,29 149,-19 296,-11 444,-15 76,-3 41,-17 101,-18l391 -27c84,-5 219,15 282,-46l92 27c5,-2 9,-4 14,-5 135,-37 340,58 486,9 70,-23 87,-21 162,-15l346 -23c103,3 317,-19 408,-47 3,3 8,5 10,11l37 27c42,-20 170,1 223,-11 57,-13 6,-24 86,-3 81,22 28,13 109,8l368 15c140,7 61,21 245,9l624 17c86,4 185,45 241,-17 96,62 6,29 115,31 67,1 85,16 141,-11 74,47 220,31 302,45 96,15 306,-17 437,17 143,37 300,-34 431,44 17,-11 29,-18 53,-29 67,29 349,40 430,35l901 78c236,6 307,34 318,34l112 9c100,15 194,-13 325,12 113,20 11,-11 87,-1 95,13 203,59 296,51l597 48c101,21 190,35 301,-6 55,-20 49,-32 45,-94l58 20c16,-117 53,-125 107,-212 23,-36 14,-32 34,-70 116,-226 70,-173 68,-292 37,-34 10,-13 59,-40 30,-115 43,-229 2,-354l-41 -118c-21,-72 46,-75 -24,-149 12,-24 20,-36 33,-53 -34,-62 -25,-175 -6,-266l-40 -52 36 -365c-9,-89 -28,-43 8,-133l-33 -54 76 -52 -102 -142c28,-57 2,-31 50,-60 -17,-105 8,-143 -43,-224 3,-3 7,-13 8,-10l25 -41c-2,-3 -7,-13 -8,-11l-8 -69 -50 -3c20,-76 13,-74 -7,-141 94,11 67,22 161,3 33,135 -1,256 79,396l-19 43c-16,75 6,74 22,124 17,52 -9,172 -19,223l53 32c-43,42 -21,-23 -32,56 -11,80 -3,43 24,90 -33,64 -36,30 -37,123 0,71 6,111 -1,182l32 12c-55,34 -14,16 -36,37 16,17 4,13 39,36l5 83c1,1 5,4 7,5 -19,24 -8,3 -22,44 -15,43 -14,78 9,121l54 172c25,100 9,56 9,126 0,29 27,85 32,125 8,71 -15,77 7,151l67 219c-55,78 -15,166 -10,249 3,69 -55,185 -43,260 1,8 12,20 14,23 3,8 7,22 10,36 -2,-1 -7,-2 -8,-1l-33 7c-20,71 -34,66 -29,150 -97,-1 -34,8 -170,92l-83 41c-38,15 -63,21 -93,41l9 91 -117 -18c35,89 -31,38 72,75 -17,91 -11,26 -2,65l225 -39c27,-22 24,-30 42,-41 39,-26 26,-3 62,-27 37,-25 11,-21 43,-45 18,-14 39,-19 58,-29l27 -53c49,-87 30,1 99,-141 109,-223 52,-453 66,-535 12,-72 9,-45 5,-129 -4,-77 19,-75 33,-143 -23,-40 -63,-78 -69,-126 -8,-52 3,-42 -9,-101 -22,-114 -20,-282 -84,-376l22 -107 -67 1c15,-41 -18,4 43,-46 -10,-71 -1,-92 18,-149l-45 -53c2,-51 -4,-59 -7,-95 -7,-79 63,-86 -14,-171 2,-4 4,-13 5,-11 1,3 5,-8 6,-10l-18 -101c98,-112 -15,-123 34,-328 24,-102 -7,-75 -14,-138l-10 -157c-5,-79 -12,-96 -19,-147l-20 -279c-7,-87 -23,-66 -41,-142l53 -53c-12,-78 -28,-89 -15,-131 1,-4 11,-23 14,-29 -35,-68 -60,-101 -61,-177 -138,-78 -1,-48 -159,-107 -22,25 -14,18 -43,35l-8 -44 -231 2c-40,51 -3,60 43,61 -31,56 -16,64 -71,71l36 57c45,19 49,9 97,25 63,20 47,25 37,86l66 20 -6 89c-100,39 -127,10 -229,0 -105,-10 -169,24 -276,-4 -97,-26 -105,-9 -205,-16 -89,-6 -173,24 -246,-22 -6,3 -26,13 -30,15l-50 24c-23,-85 -74,-43 -140,-30 -57,11 -90,-3 -153,2l-390 -21c-126,1 -536,48 -624,34l-189 -14c-21,-4 -34,-21 -75,-24 -293,-18 -603,-70 -904,-89 -125,-8 -254,-16 -372,-24 -93,-7 -66,-19 -156,1 -48,10 -225,-20 -287,-38 -102,-29 -118,4 -175,-4 -65,-9 22,-17 -139,-17 -210,-1 -1023,11 -1156,-37l-528 -54c-114,-17 -58,27 -162,8 -57,-11 15,-17 -92,-17 -53,0 -49,6 -107,-2 -2,5 -13,18 -15,20l-20 21c-36,-25 -70,-37 -124,-56l-33 45 -29 -38c-2,-2 -6,-7 -9,-10 -150,22 -348,-58 -467,2 -51,-53 -132,-28 -211,-32 -122,-7 -269,40 -386,-16 -25,21 -29,24 -53,48 -90,-43 78,44 -35,-22 -16,-9 4,-4 -48,-25 -72,66 -312,22 -399,16 -72,-4 -151,5 -228,1 -100,-5 -158,-35 -230,9 -100,-37 -256,11 -337,-63 -4,4 -9,5 -11,12l-42 34c-130,-62 -187,17 -271,-47 -71,38 -2,24 -70,17 -33,-3 -78,-11 -109,-15 -154,-17 -298,23 -435,5 -77,-11 -152,15 -233,6 -2,3 -6,4 -7,10 -1,6 -6,9 -8,11l-20 33c-82,-65 -166,-23 -265,-19 -132,5 -290,15 -423,55 -102,31 -301,-3 -444,37 -98,28 -538,22 -648,19 -49,-2 -67,18 -136,20 -81,2 -55,-19 -130,-16l-125 32c-62,-49 -370,-2 -471,-13 -4,4 -11,4 -12,10l-24 26c-27,-74 3,-3 -35,-40 -92,27 -186,19 -284,20 -129,0 -164,-18 -248,36 -69,-50 -97,-26 -167,6 -100,-59 -573,14 -661,14 -80,1 -124,-14 -183,39 -71,-51 -278,-6 -377,-3 -134,3 -262,10 -378,70 -127,64 -192,43 -277,161 -29,39 -22,41 -31,76 -20,73 -48,84 -52,176 -5,94 2,18 -27,107l16 26c3,4 15,19 17,23 -68,52 -23,66 -58,146 64,117 33,273 49,409 20,168 43,133 11,304l1 67c3,136 -5,187 -46,302 26,7 8,19 -3,51 -27,74 17,7 -43,73 1,86 23,11 1,114 -20,97 -85,176 -74,264 8,68 1,23 16,65l-72 38c-6,79 -4,53 -33,122 29,49 9,23 40,53 -38,38 -10,-4 -39,64z"/>
   <path class="fil4" d="M1956 7607c-12,64 -11,56 17,93 -28,32 -21,21 -31,71l-19 67c-29,84 27,13 -33,110 -26,98 20,208 -36,299 -39,63 -26,50 -36,126 -8,58 -45,128 14,178 -22,24 42,14 -55,15 34,86 27,17 -18,97 -110,195 -84,273 -121,365 -18,46 -7,11 -22,46l-43 115c-16,49 -2,12 0,57 5,118 -90,127 -61,263l-51 29c16,80 -57,455 -48,499l31 39c-75,45 -41,-14 -61,184 -8,83 -32,135 -40,224l40 36c-21,71 -25,29 0,124l-37 37 45 35 -34 31c28,61 32,287 43,373 15,114 7,18 -4,127l64 48 -25 147c0,5 1,10 2,14l8 24c34,111 36,58 71,130 9,19 9,28 18,51 17,46 31,66 32,125 96,21 30,3 64,38l32 74 148 5c33,48 58,56 137,73 178,38 10,61 280,33 89,-9 24,53 127,-1l7 23 46 11c64,-52 224,-42 303,-32 127,18 161,-57 318,-31l53 -47c53,22 24,10 71,42 85,-40 179,-31 284,-40 112,-10 27,-33 148,-20 115,13 39,-15 121,-19 283,-13 84,-4 284,-43 52,-10 249,-10 298,12 43,-22 151,-38 212,-36 80,3 39,14 125,2 164,-23 89,22 280,-36 58,-18 358,-7 429,-12 67,-5 43,-17 107,-23l355 -31c79,-16 59,-5 125,-4 113,1 72,-64 176,15 48,-40 40,-46 123,-43l249 -21c122,-12 320,12 370,7 28,-4 112,-34 152,-43 125,-29 33,26 173,2l289 -27c221,6 429,-34 488,-31 58,4 120,6 176,-2 135,-20 52,15 144,13 91,-2 -2,-9 72,-23l122 0c58,1 33,9 89,-14 84,27 19,27 127,17 140,-14 96,-27 264,-28 139,-1 98,-27 265,11l18 -19c1,-1 6,-5 7,-6 2,0 6,-2 8,-2l184 -2c4,1 9,4 14,6l32 -37c72,27 36,29 128,17l31 39c76,-33 86,7 128,-57 141,69 90,-5 225,6 210,16 208,-21 464,2 115,10 28,-54 198,7 82,-41 413,-20 521,-8 96,10 121,-26 175,39l45 -47c176,30 86,-22 235,3 101,18 326,22 410,-6 -25,87 -20,49 -3,73 60,-46 8,-46 123,-99l31 52c145,-6 241,-5 373,16 65,10 89,-18 148,-19l336 14c116,-7 113,16 178,20 125,7 294,-3 395,-13 74,-7 149,45 341,22l1017 19c47,-1 15,-18 55,24l515 -20c79,3 36,13 74,16l209 -17c108,3 -8,23 124,16 37,-2 53,5 87,3 37,-3 102,-16 161,-19l40 -11c5,-122 -7,-8 -30,-116 -3,-16 10,8 -9,-48l-18 -10c-34,19 -61,11 -125,8 -174,-7 -358,4 -516,-18 -37,-5 -111,4 -157,5 -36,2 -80,7 -124,9 -102,6 -60,12 -124,-29l-88 40c-76,-40 -11,-25 -107,-22l-349 -4c-147,-43 -393,-11 -483,-17 -23,-38 -12,-44 -37,-82 -53,37 -98,48 -160,14 -34,22 -47,49 -125,52 -59,2 -96,-1 -141,-31 -80,63 -176,22 -251,18 -58,-3 4,21 -75,5 -43,-9 -14,-22 -89,-12 -19,2 -340,2 -383,-26 -58,22 -21,28 -81,28 -42,0 -98,-23 -113,-24 -112,0 1,28 -235,-10 -25,-4 -191,14 -209,19 -47,13 -170,1 -231,-2 -85,-4 -154,19 -246,11 -2,0 -124,-36 -233,-29l-212 25c-41,2 -87,1 -134,3 -57,4 -61,-10 -97,-30l-39 23c-3,2 -10,5 -14,7l-69 -37c-72,28 -165,42 -233,10 -21,17 2,-13 -35,30l-31 -43c-62,38 -51,33 -222,18 -67,-6 -56,14 -119,18 -75,6 -78,-19 -143,-26 -103,-9 -43,26 -248,14 -123,-7 -604,26 -712,13 -82,-10 -579,49 -671,-69 -75,56 -153,80 -246,41 39,60 62,11 58,88 -44,12 -61,26 -114,-53l-58 33c-58,36 -10,-13 -48,56 -101,-39 -188,-53 -319,-18l16 -56c-36,20 -25,21 -52,38 -60,41 -29,-16 -63,57 -1,-15 1,-22 -4,-34 -10,-29 -12,-28 -21,-42 -44,12 -46,23 -85,4 -31,31 -12,0 -36,48l-56 -31c-24,21 -45,44 -92,51 -126,20 -60,-52 -185,6 -4,2 -50,18 -61,22 -120,-72 -112,-20 -193,-16 -18,1 -123,-6 -143,-6 -6,1 -11,0 -16,0l-131 5c-26,-18 -1,-3 -31,-19 -88,54 -47,5 -60,77 -22,-48 -14,-29 -44,-63 -86,10 -15,2 -57,15 -78,24 -114,-7 -176,37 -72,-40 -106,-15 -183,11l-41 3c29,-54 7,-36 0,-55 -18,32 -4,19 -24,42 -3,4 -7,8 -10,12l-26 19c-27,-15 -52,-31 -88,-43l-23 21c-29,26 -4,5 -31,27l-116 -15c-24,42 28,9 -38,39 -36,-10 -151,-40 -183,-36 -102,12 15,12 -91,23 -95,10 -83,-19 -193,8 -71,16 -26,11 -88,37l-195 -44c-14,18 -27,36 -68,32 -88,-9 41,-26 -95,-24 -19,-6 27,-39 -32,15l-89 -39c-50,43 -25,12 -44,87 -163,-20 -195,-1 -366,10 -79,5 -27,21 -104,26 -125,10 -448,32 -540,13 -16,32 4,9 -27,34l-32 -59 -36 49c-95,6 -91,-3 -183,23l-237 43c-70,19 -85,-3 -153,-5 -63,-1 -71,20 -139,18 -86,-1 -182,17 -240,8 -58,-10 -59,5 -105,13 -56,9 -48,-11 -111,-21l-92 42c-68,-34 -148,-19 -224,-38 -100,-25 -81,-70 -186,-74l-15 -54 -92 11c31,-81 27,-41 -5,-95 -11,-20 -2,6 -21,-39 -24,-58 -31,-110 -41,-183l-36 -10c13,-190 -14,-104 -12,-154 3,-78 -38,67 14,-36 2,-4 7,-9 10,-13 -106,-104 18,-67 -68,-178 18,-100 10,-34 3,-142l61 -35 -48 -13 1 -160c-6,-80 0,-120 -4,-199l-23 -239c15,-10 40,-28 62,-45l6 -120c-27,-72 -39,-42 12,-93l-43 -61 105 -307c20,-64 28,-81 7,-129 93,-114 5,-168 113,-226 -3,-4 -8,-15 -9,-12l-24 -38c2,-3 7,-11 8,-9l84 -235c84,-164 25,-156 116,-224l27 -263c7,-65 62,-178 72,-257l38 -24c-58,-99 24,-33 -35,-129l72 -12c3,-113 -22,-89 1,-170 39,-134 4,-72 16,-159 50,-353 195,-337 240,-360 43,-22 -13,-10 78,-38 48,-15 36,-20 75,-23 46,-4 81,12 158,-2 71,-12 102,-55 178,-9 174,-80 239,-34 362,-73 95,-30 8,-7 65,-6l549 -32c81,-8 22,-12 85,-2 81,12 17,-4 60,-10l402 -22c60,3 13,21 87,8 10,-1 55,-22 79,-23 36,-2 68,19 86,19 33,0 22,-14 86,-15l340 -3c203,-8 270,-32 407,-28 141,5 247,-8 389,-6 104,2 92,15 205,-4 61,-11 128,8 203,8l211 -9c38,2 13,14 86,9l296 -5c37,1 53,-1 77,1l302 -1c232,-13 418,-19 660,7l334 -13c72,12 -19,34 191,28 61,-2 135,12 203,12 109,0 333,39 425,-3 0,0 344,79 443,16 42,37 64,38 142,36 86,-1 92,-5 185,7 129,17 226,4 358,30 60,13 110,-13 164,-7 67,7 83,22 179,22 105,0 264,27 337,-15l34 46c71,-3 79,-3 161,-4 223,-2 100,7 181,20 138,21 193,-2 253,14 60,16 18,19 71,10 139,-22 256,-5 400,5l345 21c134,18 231,7 337,16 93,8 237,9 352,16l430 22c77,-6 22,-5 83,4 100,15 92,-17 147,-44 -11,60 -17,9 -20,74 30,-9 23,-7 46,-26 78,6 225,27 284,19 171,-25 75,40 326,15 95,-9 59,9 139,16 48,5 53,-8 100,3 92,22 88,31 125,-8 4,4 9,4 11,11l44 36c76,-30 41,-26 125,-6l567 16c81,8 109,1 177,2 42,1 95,15 141,14 75,0 71,-25 157,-8 130,25 189,15 323,14 63,0 92,24 139,19 86,-10 -46,-44 136,4 96,26 232,-11 310,-11 81,0 61,31 124,34 35,2 108,-22 142,-29 62,19 13,18 74,32 100,23 23,-4 79,-2 63,3 118,-6 161,8 150,51 234,1 255,1l257 52c91,24 124,11 192,23 60,10 199,1 347,66l-36 -57c55,-7 40,-15 71,-71 -46,-1 -83,-10 -43,-61 -26,-35 -8,-9 -34,-39 -11,-13 -21,-28 -29,-37 -74,45 -284,-17 -377,-31 -122,-17 -162,12 -445,-42 -109,-21 -78,12 -261,4 -199,-9 -37,-23 -285,-8 -75,5 -65,-21 -139,-18 -170,8 -265,-22 -338,-19 -114,4 11,17 -66,12 -57,-3 -21,-28 -116,-14l-443 -11c-4,0 -13,-7 -17,-7 -80,-15 -177,1 -225,2l-294 -8c-69,3 -64,-16 -112,-16 -23,0 -22,4 -65,3l-336 -7c-78,-16 -38,-28 -133,-26 -151,4 -639,-53 -728,-16l-62 -29c-105,17 -18,-21 -115,21 -58,-31 -11,8 -54,-42 -107,35 -42,7 -133,12 -130,8 -258,-22 -352,-25 -40,-1 -92,12 -152,6l-177 -25c-171,4 -432,9 -583,-16l-767 -29c-113,-5 -267,-48 -353,-27 -61,14 -85,5 -176,-10 -205,-35 -125,-18 -325,-15 -51,0 -128,-18 -191,-24l-1019 -52c-54,-5 -10,-16 -73,-16l-346 1c-41,3 -149,-10 -194,-14 -73,-6 -134,13 -172,8 -33,-3 -47,-17 -76,-17 -63,-2 14,14 -84,4 -125,-13 -447,-5 -555,-58 -46,45 -49,23 -124,25l-1125 -6c-64,-12 -118,9 -174,26 -61,-53 -38,-7 -256,-24 -339,-26 -165,12 -288,9 -73,-2 -186,-25 -261,-9l-234 -10c-4,-1 -10,-3 -15,-5 -83,61 -251,25 -342,22 -158,-7 -509,32 -657,35 -68,1 -198,-17 -259,4l-28 15c-40,19 -78,-9 -138,-5 -55,4 -23,16 -106,20l-388 5c-33,3 -78,17 -127,13 -109,-9 -135,26 -232,29 -73,3 -123,-16 -220,4 -213,44 -77,-24 -201,24 -81,32 -230,41 -336,54 -111,13 -56,-17 -93,47 -26,-21 16,-38 -85,-14l-216 108c-78,71 -152,167 -150,282 -62,47 -60,105 -71,139z"/>
   <path class="fil5" d="M18466 9951c-2,-43 1,-49 13,-88 6,-22 5,-21 13,-38 2,-4 14,-13 16,-22 1,-6 6,-7 9,-10 -4,-3 -10,-7 -13,-9 -2,-1 -9,-6 -11,-7l-30 -20c15,-92 -15,-87 -7,-129 4,-19 32,-70 43,-101 -3,-2 -22,-15 -24,-17 -2,-1 -8,-4 -10,-9 -1,-6 -6,-7 -14,-13l43 -46c-54,-95 -16,-183 -21,-330 -2,-66 14,6 12,-63 0,-20 -19,-60 -18,-89 1,-59 19,12 4,-85 -15,-97 -13,-105 19,-164 -43,-64 -25,-56 -25,-130 1,-113 -91,-334 -52,-438 -118,-99 -127,-54 -276,-58 -34,-1 -56,-7 -77,-9 -89,-9 -2,6 -63,2 -32,-2 -20,-10 -57,-14 -57,-6 -27,7 -68,3 -29,-2 -67,-25 -164,-22 -264,8 -296,-28 -493,0 -18,-16 -24,-6 -39,-40l-32 37c-137,-9 -212,-42 -346,-1 -119,35 -104,3 -159,-7l-488 -13c-123,17 -57,-2 -144,-20 -82,-17 -77,30 -140,-39 -170,46 -103,-10 -229,-20 -156,-13 -240,10 -476,-52 -115,-30 -141,-16 -234,4 -78,-62 -115,-15 -227,-37 -157,-32 -93,-19 -192,29 -36,-56 -1,-30 -95,-40 -132,-12 -257,-43 -338,4 -70,-39 -136,-37 -247,-32l-482 -13c-147,7 -145,12 -175,-45 -15,24 -24,27 -36,40 -69,-1 -145,8 -174,-50 -82,57 -58,38 -163,3l-53 32c-50,-37 -78,-29 -141,-35 -78,-7 -102,-26 -150,-20 -68,8 -112,0 -188,-1 -77,-1 -95,5 -148,-21l7 47 17 17c63,83 0,22 77,51 27,10 59,24 82,34l13 -101c115,9 22,1 93,42 55,32 48,4 99,62 -6,36 -36,49 -41,93 -8,65 55,37 102,32l19 103c23,-43 16,-64 16,-125 54,36 18,7 55,52 61,-15 141,-35 177,40 2,4 3,10 5,13l50 -33 27 151c2,1 8,4 10,5 2,1 6,4 9,6 -20,55 -20,22 -19,106 70,32 138,18 192,-45l64 -78c48,26 -25,15 53,19 80,4 52,-18 93,-31l125 -13c10,7 23,20 29,27 36,-20 68,-23 108,-40 9,92 -2,18 29,58l10 13c1,1 2,7 2,8l6 22c1,2 3,7 5,11l143 -35 28 54c1,3 4,8 6,11 177,-5 65,-61 30,-146 81,30 4,23 95,40l-27 -44c-12,-36 -8,-16 7,-45 3,3 7,5 8,11 7,33 34,37 65,42l40 -79c39,40 26,5 31,77 82,-14 75,-25 124,21 98,-41 62,-7 153,5 56,8 93,-34 146,27 8,-77 9,-23 26,-99 20,15 10,42 76,-7 10,-8 27,-24 28,-26 -17,77 -27,4 -17,96 29,1 76,0 102,4l72 39c-42,18 -39,11 -70,-24 -18,82 -19,34 -3,114 43,-31 -8,10 34,-24 4,-3 17,-14 20,-17l20 -21c27,49 26,16 86,22 80,9 98,19 160,-12l36 82 35 -50c18,66 -6,24 53,51 36,-46 22,-85 68,-122 4,74 -13,55 21,103 39,-18 29,-38 46,-78 1,-3 4,-8 7,-12 48,37 35,21 39,108 51,-91 120,-46 211,-72 -18,67 -13,62 31,94 45,31 49,39 59,102 64,-15 37,-16 103,1l-2 -73c71,17 24,18 95,-2l30 180c96,0 19,-7 110,-19 -48,73 -37,88 -32,176 0,-6 7,-31 9,-33 12,-28 10,-22 22,-39 2,60 -6,51 17,89 102,-190 56,7 236,-115 3,-2 7,-6 10,-8 16,-9 -30,-24 53,-15 62,6 34,31 160,14 90,-12 29,-19 126,4 23,-32 0,-44 71,-53l35 72c67,-22 98,-40 144,15l26 -53 30 34c11,19 -2,3 17,29l106 25 49 -31c1,2 13,25 15,29l111 -14c1,85 -11,99 71,107 -10,-59 -11,-32 -21,-90 53,19 18,20 55,2 3,-1 7,-5 10,-7l42 -29c-1,89 20,74 7,137 103,20 120,64 218,68 -5,4 -12,4 -14,12 -17,51 -10,6 -38,28l14 69c1,2 1,8 1,10 6,17 1,16 9,31l45 -63c-95,4 -22,0 -51,-30l101 -46c3,-2 7,-7 11,-10 47,15 46,18 102,28 -25,31 -17,15 -47,24l-16 8c48,69 125,34 194,32 52,81 23,46 38,158 46,-3 41,-7 84,-20l79 55c2,1 8,3 12,5 -9,60 -3,40 -35,71 36,35 29,26 51,72 15,31 -7,2 17,35 2,3 6,7 8,10 2,2 7,6 9,8l21 17c-24,55 -18,62 -13,137l50 -51c3,89 -17,62 51,71l-33 51c26,11 51,-6 29,69 -18,60 -23,37 -67,60l55 40 -32 24c68,8 33,3 61,25l4 181c-1,76 -1,24 17,50 76,-28 38,-74 101,-128l32 101c65,-21 9,5 71,-28z"/>
   <path class="fil6" d="M1605 10396l75 0 -37 71 90 0c-64,160 -16,10 -43,160 -23,123 -37,28 -46,90l84 23 1 92c51,-17 43,14 49,-38 14,71 7,29 26,52 44,-34 30,-29 96,-33 -35,13 -18,13 -68,-1l-10 69c-48,-51 -27,-39 -92,-51 17,80 13,70 -10,143l109 3c-13,1 18,-17 -21,8 -95,61 -85,25 -60,82 35,78 24,2 127,23 -31,119 -39,-35 -123,106 28,23 27,24 45,45 66,-27 27,-15 78,-40 10,19 -1,-3 5,19 7,28 2,14 10,30 -67,27 -32,-8 -42,35 52,10 68,-3 116,15 -19,48 -44,47 -44,47 -1,-3 -8,5 -12,7 19,33 10,20 16,69l4 17c71,-5 61,-17 99,30l61 -37c7,4 27,16 29,18 75,56 24,46 115,42l-2 28c6,-4 16,-15 19,-11l39 -43c73,24 -65,-29 30,16l72 47c27,-15 -10,-16 34,-12 69,6 -18,0 48,18 42,11 63,-7 94,-23l-37 103c78,18 269,109 307,107 91,-6 37,-14 56,-29l-80 -22c44,-12 33,-23 82,-7 126,40 36,108 195,-54 16,-16 8,-2 28,-32 -2,-9 2,-1 -9,30 135,2 118,4 220,-38 -17,77 -34,55 -66,67 79,24 57,24 83,73 92,-26 88,-17 183,-23l36 -49 32 59c31,-25 11,-2 27,-34 92,19 415,-3 540,-13 77,-5 25,-21 104,-26 171,-11 203,-30 366,-10 19,-75 -6,-44 44,-87l89 39c59,-54 13,-21 32,-15 136,-2 7,15 95,24 41,4 54,-14 68,-32l15 -94 74 83c42,-69 20,-32 -3,-106 203,9 191,55 322,52 106,-3 60,-17 146,-35l84 -39c62,0 106,2 142,16l71 -87c41,17 64,28 104,48l23 76c30,-12 33,-11 52,-44l37 20c75,40 -56,-21 39,20 7,19 29,1 0,55l41 -3c24,-67 5,-85 63,-63l18 -29c3,-4 14,-20 17,-25 11,-17 12,-18 28,-39 46,27 68,22 110,-4 2,7 -2,30 -9,56 44,-11 48,-12 78,-18 43,-8 13,9 55,-23 42,41 17,-57 36,47l89 -99 45 73 160 -89c1,-7 7,-7 10,-11l15 46 115 -1 6 70c5,-7 -14,3 30,-25 -25,-21 -19,-11 -35,-59 90,-3 59,-17 113,25 70,54 -1,56 237,-2 1,-47 -9,-30 48,-28l-16 -60 -267 -36c-229,0 -587,61 -674,23 -120,70 -741,21 -966,64 -75,14 -56,-1 -120,-13l-891 19c-46,-57 -8,-6 -126,-22 -47,-6 -151,-11 -137,-39l-32 37c-1,-3 -3,9 -4,14 -248,-27 -255,31 -344,30l-5 54c-3,-4 -8,-8 -11,-11l-29 -27c-29,-26 -8,-7 -31,-22 -69,20 -40,27 -124,23l-35 54c-108,-55 -14,28 -151,-34l-62 51 -53 -38c-30,15 -59,21 -116,19l9 -71c-61,-3 -84,18 -141,19 -60,1 -78,-17 -127,-23 -58,-7 -76,4 -140,4 -56,0 -79,-9 -118,-19 13,39 15,35 34,74 -33,-3 -81,24 -103,-107 -44,88 13,-24 -153,64l16 -80c-120,-28 -58,-98 -121,-183 -23,-31 -41,-22 -52,-93 -13,-91 17,-76 21,-110l-56 -207c-2,-34 13,-66 1,-109 -17,-64 -22,-41 -36,-103 -6,-2 -36,-10 -36,-10 -32,-14 -18,-9 -38,-26 -51,-86 53,-159 53,-159l-74 -81c-177,-98 -64,24 -95,-329 -13,-152 44,-305 64,-548 12,-135 61,-129 -2,-266 42,-40 25,-39 35,-94 9,-52 20,-70 40,-118l-15 -1c20,-271 88,-253 53,-531 -9,-69 31,-2 -30,-72 16,-34 21,-48 24,-100l-38 24c-10,79 -65,192 -72,257l-27 263c-91,68 -32,60 -116,224l-84 235c-1,-2 -6,6 -8,9l24 38c1,-3 6,8 9,12 -108,58 -20,112 -113,226 21,48 13,65 -7,129l-105 307 43 61c-51,51 -39,21 -12,93l-6 120c-22,17 -47,35 -62,45l23 239z"/>
   <path class="fil7" d="M1630 11824c-34,-35 32,-17 -64,-38 -1,-59 -15,-79 -32,-125 -9,-23 -9,-32 -18,-51 -35,-72 -37,-19 -71,-130l-8 -24c-1,-4 -2,-9 -2,-14l25 -147 -64 -48c11,-109 19,-13 4,-127 -11,-86 -15,-312 -43,-373l34 -31 -45 -35 37 -37c-25,-95 -21,-53 0,-124l-40 -36c8,-89 32,-141 40,-224 20,-198 -14,-139 61,-184l-31 -39c-9,-44 64,-419 48,-499l51 -29c-29,-136 66,-145 61,-263 -2,-45 -16,-8 0,-57l43 -115c15,-35 4,0 22,-46 37,-92 11,-170 121,-365 45,-80 52,-11 18,-97 97,-1 33,9 55,-15 -59,-50 -22,-120 -14,-178 10,-76 -3,-63 36,-126 56,-91 10,-201 36,-299 60,-97 4,-26 33,-110l19 -67c10,-50 3,-39 31,-71 -28,-37 -29,-29 -17,-93l-45 4c-28,67 -4,43 -53,75l-38 -75c75,-142 65,-114 -70,-160 -1,-88 24,-56 18,-176 -56,16 -75,7 -144,20 11,-59 28,-60 -15,-90 -21,39 -29,64 -71,85l-25 12c-3,2 -8,5 -12,8l66 99c2,2 8,5 12,7l-57 20c-4,2 -10,3 -14,4 -4,2 -10,5 -13,6 -3,2 -8,5 -12,7 45,11 20,-6 37,31 -83,-2 -62,1 -123,20 7,92 -19,33 38,53 -18,48 -21,25 -55,72l25 106 -59 36 1 91c-56,28 -51,24 -75,82 -53,129 12,170 -22,253 -49,52 -10,3 -20,51 -2,11 -23,65 -23,75 -4,44 9,7 8,86 -3,114 21,234 -8,347 -17,67 -18,73 -24,168l37 0c-25,47 -7,42 -68,21l47 125c-29,19 -21,10 -34,49l30 39 -46 6c-1,80 11,88 -51,132 -10,101 2,120 -69,192 2,94 43,82 -3,376l72 35 -35 214 66 -21 73 195c62,56 -53,135 -67,237 -10,74 8,-10 7,83 -25,-38 1,-14 -40,-44 -91,-67 -59,90 -64,147 -66,-9 -35,-26 -94,22 22,56 -19,39 67,55 -2,5 -6,7 -6,14 -4,32 -21,41 -4,68 -88,3 -45,8 -61,23 11,87 -3,127 64,177l-26 47c37,13 47,6 62,41 -56,12 -38,14 -109,12 7,57 22,68 38,113l-117 6c-15,84 13,70 23,144 11,72 -22,88 16,176l-32 83c-3,29 -7,56 -10,85 49,-40 68,54 37,-56 0,43 -6,19 9,58 2,5 9,17 11,21 1,2 4,6 5,8 1,1 4,5 5,7l108 52c2,-2 73,4 20,-72l-2 91 100 10c3,2 9,7 11,9 4,2 9,7 13,10 34,-10 71,-20 99,-34 40,-21 46,-40 78,-49 22,28 19,23 29,59 49,-4 39,-4 78,-10 16,22 -5,-15 6,17l44 5c30,-14 38,13 74,-21l16 -30c19,-60 4,-14 1,-19l39 -8z"/>
   <path class="fil8" d="M16187 11405c19,56 6,32 9,48 23,108 35,-6 30,116l-40 11c0,54 8,10 107,5 23,-1 48,2 67,4 6,0 22,5 28,5 66,4 58,-35 165,-7 100,26 276,4 396,-10 145,-18 69,63 248,-9l89 28c-22,-41 -23,-14 143,-18 106,-2 53,-43 151,-20 174,42 324,11 459,55 52,17 122,10 188,14l336 39c-9,-39 -15,26 2,-65 -103,-37 -37,14 -72,-75l117 18 -9 -91c-188,-10 -336,-76 -454,-58 -110,17 -59,6 -153,-5 -224,-29 -450,-23 -615,-28 -214,-6 -386,25 -618,14 -97,-5 -27,30 -124,20 -40,-4 -99,-4 -124,2 -89,23 -147,0 -326,7z"/>
   <path class="fil9" d="M2556 10424c-23,53 -8,166 -10,238 45,49 17,31 42,66 39,59 54,34 101,125 47,92 164,118 270,155 82,29 25,26 97,68 271,158 425,115 628,119 31,0 152,35 133,-3 11,-74 22,-9 -9,-48l-88 41c-66,-133 -229,35 -275,-51l-16 -38c-1,-1 -3,-4 -3,-5 -28,-42 -17,18 -26,-39 -45,1 -64,17 -91,13 -74,-8 -48,-17 -64,-84 83,-1 23,18 78,-20 -10,-59 -21,-9 -93,-38 -13,-5 -31,-22 -42,-30l-246 -112 -27 -78 -76 -6 -10 -142 -14 0c-6,158 8,38 -35,89 -58,-29 -14,12 -44,-30 -24,-32 0,-13 -11,-41 -23,-54 31,-11 -61,-53l19 -29c18,-32 19,19 24,-123 -107,7 -100,19 -105,116 -63,-35 -60,54 -46,-60z"/>
   <path class="fil10" d="M6108 11505c77,-26 111,-51 183,-11 62,-44 98,-13 176,-37 42,-13 -29,-5 57,-15 30,34 22,15 44,63 13,-72 -28,-23 60,-77 30,16 5,1 31,19l131 -5c5,0 10,1 16,0 20,0 125,7 143,6 81,-4 73,-56 193,16 11,-4 57,-20 61,-22 125,-58 59,14 185,-6 47,-7 68,-30 92,-51l56 31c24,-48 5,-17 36,-48 39,19 41,8 85,-4 9,14 11,13 21,42 5,12 3,19 4,34 34,-73 3,-16 63,-57 27,-17 16,-18 52,-38l-16 56c131,-35 218,-21 319,18 38,-69 -10,-20 48,-56l58 -33c53,79 70,65 114,53 4,-77 -19,-28 -58,-88 -121,9 -135,-23 -264,-3l-464 2c-20,-2 -35,-23 -127,-14 -27,2 -80,8 -70,27 -57,-2 -47,-19 -48,28 -238,58 -167,56 -237,2 -54,-42 -23,-28 -113,-25 16,48 10,38 35,59 -44,28 -25,18 -30,25l-6 -70 -115 1 -15 -46c-3,4 -9,4 -10,11l-160 89 -45 -73 -89 99c-19,-104 6,-6 -36,-47 -42,32 -12,15 -55,23 -30,6 -34,7 -78,18 7,-26 11,-49 9,-56 -42,26 -64,31 -110,4 -16,21 -17,22 -28,39 -3,5 -14,21 -17,25l-18 29c-58,-22 -39,-4 -63,63z"/>
   <path class="fil11" d="M1684 11336c10,73 17,125 41,183 19,45 10,19 21,39 32,54 36,14 5,95l92 -11 15 54c105,4 86,49 186,74 76,19 156,4 224,38l92 -42c-25,-29 -18,-30 -48,-40l81 -177c-98,6 -67,15 -123,54 -44,-19 -8,2 -40,-22l0 -61 2 -28c-91,4 -40,14 -115,-42 -2,-2 -22,-14 -29,-18l-61 37c-38,-47 -28,-35 -99,-30l-4 -17c-4,-5 -11,-6 -12,-13 -1,-8 -9,-11 -9,-18l-29 53c-43,-56 -12,-20 -66,-56 65,-75 24,-2 61,-88 -112,44 5,-20 -118,105 1,-47 -4,-100 -67,-69z"/>
   <path class="fil12" d="M2230 11520l0 61c32,24 -4,3 40,22 56,-39 25,-48 123,-54l-81 177c30,10 23,11 48,40 63,10 55,30 111,21 46,-8 47,-23 105,-13 58,9 154,-9 240,-8 68,2 76,-19 139,-18 68,2 83,24 153,5l237 -43c-26,-49 -4,-49 -83,-73 32,-12 49,10 66,-67 -102,42 -85,40 -220,38 11,-31 7,-39 9,-30 -20,30 -12,16 -28,32 -159,162 -69,94 -195,54 -49,-16 -38,-5 -82,7l80 22c-19,15 35,23 -56,29 -38,2 -229,-89 -307,-107l37 -103c-31,16 -52,34 -94,23 -66,-18 21,-12 -48,-18 -44,-4 -7,-3 -34,12l-72 -47c-95,-45 43,8 -30,-16l-39 43c-3,-4 -13,7 -19,11z"/>
   <path class="fil12" d="M1684 11336c63,-31 68,22 67,69 123,-125 6,-61 118,-105 -37,86 4,13 -61,88 54,36 23,0 66,56l29 -53c0,7 8,10 9,18 1,7 8,8 12,13 -6,-49 3,-36 -16,-69 4,-2 11,-10 12,-7 0,0 25,1 44,-47 -48,-18 -64,-5 -116,-15 10,-43 -25,-8 42,-35 -8,-16 -3,-2 -10,-30 -6,-22 5,0 -5,-19 -51,25 -12,13 -78,40 -18,-21 -17,-22 -45,-45 84,-141 92,13 123,-106 -103,-21 -92,55 -127,-23 -25,-57 -35,-21 60,-82 39,-25 8,-7 21,-8l-109 -3c23,-73 27,-63 10,-143 65,12 44,0 92,51l10 -69c50,14 33,14 68,1 -66,4 -52,-1 -96,33 -19,-23 -12,19 -26,-52 -6,52 2,21 -49,38l-1 -92 -84 -23c9,-62 23,33 46,-90 27,-150 -21,0 43,-160l-90 0 37 -71 -75 0c4,79 -2,119 4,199l-1 160 48 13 -61 35c7,108 15,42 -3,142 86,111 -38,74 68,178 -3,4 -8,9 -10,13 -52,103 -11,-42 -14,36 -2,50 25,-36 12,154l36 10z"/>
   <path class="fil13" d="M4961 11543l195 44c62,-26 17,-21 88,-37 110,-27 98,2 193,-8 106,-11 -11,-11 91,-23 32,-4 147,26 183,36 66,-30 14,3 38,-39l116 15c27,-22 2,-1 31,-27l23 -21c36,12 61,28 88,43l26 -19c3,-4 7,-8 10,-12 20,-23 6,-10 24,-42 -95,-41 36,20 -39,-20l-37 -20c-19,33 -22,32 -52,44l-23 -76c-40,-20 -63,-31 -104,-48l-71 87c-36,-14 -80,-16 -142,-16l-84 39c-86,18 -40,32 -146,35 -131,3 -119,-43 -322,-52 23,74 45,37 3,106l-74 -83 -15 94z"/>
  </g>
 </g>
</svg>
