<?xml version="1.0" encoding="UTF-8"?>
<!DOCTYPE svg PUBLIC "-//W3C//DTD SVG 1.1//EN" "http://www.w3.org/Graphics/SVG/1.1/DTD/svg11.dtd">
<!-- Creator: CorelDRAW X8 -->
<svg xmlns="http://www.w3.org/2000/svg" xml:space="preserve" width="210mm" height="297mm" version="1.1" style="shape-rendering:geometricPrecision; text-rendering:geometricPrecision; image-rendering:optimizeQuality; fill-rule:evenodd; clip-rule:evenodd"
viewBox="0 0 21000 29700"
 xmlns:xlink="http://www.w3.org/1999/xlink">
 <defs>
  <style type="text/css">
   <![CDATA[
    .fil85 {fill:#0A0715}
    .fil62 {fill:#0E0E30}
    .fil81 {fill:#0F1448}
    .fil40 {fill:#160B16}
    .fil59 {fill:#170408}
    .fil31 {fill:#1A1725}
    .fil30 {fill:#1A2433}
    .fil39 {fill:#1B121B}
    .fil23 {fill:#250A16}
    .fil21 {fill:#26161B}
    .fil37 {fill:#281A27}
    .fil15 {fill:#291B35}
    .fil47 {fill:#292947}
    .fil29 {fill:#2B1B49}
    .fil24 {fill:#2C222C}
    .fil51 {fill:#33242D}
    .fil50 {fill:#351010}
    .fil60 {fill:#360604}
    .fil12 {fill:#38253B}
    .fil79 {fill:#393848}
    .fil3 {fill:#3B2B35}
    .fil6 {fill:#432D3B}
    .fil2 {fill:#43333D}
    .fil9 {fill:#443443}
    .fil46 {fill:#471611}
    .fil14 {fill:#493A54}
    .fil4 {fill:#4A3543}
    .fil10 {fill:#4B354A}
    .fil7 {fill:#4B3944}
    .fil53 {fill:#4B5070}
    .fil22 {fill:#4C3C4B}
    .fil8 {fill:#523C4C}
    .fil13 {fill:#544453}
    .fil17 {fill:#553946}
    .fil11 {fill:#564858}
    .fil44 {fill:#584A64}
    .fil73 {fill:#595565}
    .fil25 {fill:#5A4454}
    .fil61 {fill:#5A535A}
    .fil42 {fill:#5B4B54}
    .fil28 {fill:#5C4B5B}
    .fil32 {fill:#5E6466}
    .fil19 {fill:#644A58}
    .fil38 {fill:#644C63}
    .fil70 {fill:#654749}
    .fil33 {fill:#66555A}
    .fil34 {fill:#675866}
    .fil48 {fill:#6D5771}
    .fil49 {fill:#6F6973}
    .fil78 {fill:#70728C}
    .fil69 {fill:#745969}
    .fil71 {fill:#768DAC}
    .fil64 {fill:#77666A}
    .fil56 {fill:#776876}
    .fil76 {fill:#7C879F}
    .fil86 {fill:#86574F}
    .fil72 {fill:#877786}
    .fil77 {fill:#8E6A56}
    .fil63 {fill:#8F95AD}
    .fil57 {fill:#928A91}
    .fil75 {fill:#93A4B8}
    .fil87 {fill:#93ADCC}
    .fil55 {fill:#968A95}
    .fil88 {fill:#A699A6}
    .fil58 {fill:#AE928E}
    .fil83 {fill:#B1A9AE}
    .fil80 {fill:#B28C77}
    .fil82 {fill:#B6A597}
    .fil65 {fill:#B9B4B9}
    .fil27 {fill:#C6BBC8}
    .fil41 {fill:#CBC6C7}
    .fil43 {fill:#CCC3BA}
    .fil18 {fill:#D4C8BC}
    .fil20 {fill:#D5CBC3}
    .fil26 {fill:#D6CBC9}
    .fil54 {fill:#DAD7DA}
    .fil74 {fill:#DCD5D2}
    .fil36 {fill:#DDDAD4}
    .fil5 {fill:#E4DDDA}
    .fil45 {fill:#E5E2DC}
    .fil1 {fill:#E6DDD5}
    .fil84 {fill:#EAE1D6}
    .fil68 {fill:#EEEAE9}
    .fil66 {fill:#F1EAE6}
    .fil35 {fill:#F1EDE9}
    .fil52 {fill:#F2EDED}
    .fil16 {fill:#F5FBF4}
    .fil67 {fill:#F7F7E6}
    .fil0 {fill:#FEFEFE}
   ]]>
  </style>
 </defs>
 <g id="Ebene_x0020_1">
  <metadata id="CorelCorpID_0Corel-Layer"/>
  <g id="_1602324480160">
   <polygon class="fil0" points="7832,5911 7832,5948 7975,5948 7975,5984 8046,5984 8046,5911 8118,5911 8118,5948 8332,5948 8332,5911 8475,5911 8475,5948 8511,5948 8511,5984 8582,5984 8582,5948 8689,5948 8689,5984 8725,5984 8725,5948 9117,5948 9117,5984 9296,5984 9296,5948 9367,5948 9367,5984 9582,5984 9582,6020 10081,6020 10081,6057 10117,6057 10117,6093 10153,6093 10153,6057 10260,6057 10260,6093 10367,6093 10367,6130 10581,6130 10581,6166 10760,6166 10760,6203 10795,6203 10795,6239 10831,6239 10831,6276 10903,6276 10903,6239 11152,6239 11152,6203 11188,6203 11188,6130 11295,6130 11295,6166 11581,6166 11581,6130 11652,6130 11652,6166 11724,6166 11724,6130 11795,6130 11795,6166 11902,6166 11902,6203 12116,6203 12116,6239 12545,6239 12545,6276 12866,6276 12866,6312 12937,6312 12937,6348 13187,6348 13187,6385 13473,6385 13473,6348 13580,6348 13580,6312 13759,6312 13759,6276 14080,6276 14080,6239 14258,6239 14258,6203 14365,6203 14365,6239 14615,6239 14615,6276 14758,6276 14758,6312 14830,6312 14830,6348 14937,6348 14937,6385 14972,6385 14972,6421 15079,6421 15079,6458 15151,6458 15151,6531 15222,6531 15222,6567 15258,6567 15258,6604 15294,6604 15294,6640 15329,6640 15329,6713 15365,6713 15365,6749 15401,6749 15401,6895 15436,6895 15436,6932 15472,6932 15472,7077 15508,7077 15508,7150 15544,7150 15544,7405 15615,7405 15615,7442 15651,7442 15651,7843 15686,7843 15686,7916 15651,7916 15651,7989 15686,7989 15686,8062 15722,8062 15722,8098 15758,8098 15758,8207 15722,8207 15722,8317 15758,8317 15758,8608 15793,8608 15793,9082 15829,9082 15829,9738 15865,9738 15865,9920 15901,9920 15901,10030 15865,10030 15865,10212 15901,10212 15901,10649 15936,10649 15936,10832 15901,10832 15901,10905 15936,10905 15936,11050 15901,11050 15901,11196 15936,11196 15936,11233 15972,11233 15972,11342 15936,11342 15936,11378 15901,11378 15901,11597 15936,11597 15936,11634 15901,11634 15901,11707 15936,11707 15936,12144 15901,12144 15901,12363 15936,12363 15936,12472 15901,12472 15901,12581 15936,12581 15936,12727 15972,12727 15972,12836 16008,12836 16008,12946 15972,12946 15972,13128 16008,13128 16008,13164 16043,13164 16043,13274 15972,13274 15972,13493 15936,13493 15936,14003 15901,14003 15901,14221 15865,14221 15865,14440 15901,14440 15901,14659 15936,14659 15936,14732 15829,14732 15829,14768 15865,14768 15865,15060 15901,15060 15901,15388 15865,15388 15865,15679 15829,15679 15829,15716 15793,15716 15793,15898 15686,15898 15686,16008 15651,16008 15651,16044 15615,16044 15615,16117 15579,16117 15579,16153 15508,16153 15508,16190 15472,16190 15472,16226 15365,16226 15365,16299 15294,16299 15294,16372 15187,16372 15187,16481 15008,16481 15008,16518 14830,16518 14830,16554 14794,16554 14794,16591 14722,16591 14722,16554 14687,16554 14687,16518 14258,16518 14258,16554 13937,16554 13937,16591 13294,16591 13294,16554 13223,16554 13223,16591 13045,16591 13045,16627 12902,16627 12902,16591 12795,16591 12795,16627 12688,16627 12688,16591 12616,16591 12616,16627 12580,16627 12580,16664 12438,16664 12438,16627 12366,16627 12366,16664 12152,16664 12152,16700 11831,16700 11831,16773 11759,16773 11759,16737 11652,16737 11652,16773 11367,16773 11367,16809 11260,16809 11260,16846 10903,16846 10903,16882 10688,16882 10688,16919 10403,16919 10403,16882 10296,16882 10296,16919 10189,16919 10189,16955 10081,16955 10081,16992 10046,16992 10046,17028 9903,17028 9903,17065 9474,17065 9474,17101 9367,17101 9367,17137 9082,17137 9082,17174 8832,17174 8832,17210 8760,17210 8760,17247 8475,17247 8475,17283 8332,17283 8332,17320 7939,17320 7939,17356 7868,17356 7868,17393 7689,17393 7689,17429 7511,17429 7511,17465 7404,17465 7404,17502 7332,17502 7332,17538 7190,17538 7190,17575 7083,17575 7083,17611 6975,17611 6975,17648 6868,17648 6868,17684 6583,17684 6583,17721 6476,17721 6476,17757 6333,17757 6333,17794 6190,17794 6190,17830 6083,17830 6083,17866 6047,17866 6047,17903 5869,17903 5869,17939 5690,17939 5690,17903 5619,17903 5619,18012 5547,18012 5547,17976 5440,17976 5440,18012 5405,18012 5405,18085 5333,18085 5333,18049 5226,18049 5226,18085 5155,18085 5155,18049 5083,18049 5083,18085 5048,18085 5048,18122 4798,18122 4798,18158 4298,18158 4298,18122 3977,18122 3977,18085 3905,18085 3905,18049 3798,18049 3798,18085 3762,18085 3762,18122 3691,18122 3691,18085 3441,18085 3441,18049 3298,18049 3298,18012 3263,18012 3263,17976 3227,17976 3227,17939 3120,17939 3120,17903 3013,17903 3013,17866 2977,17866 2977,17830 2941,17830 2941,17794 2906,17794 2906,17757 2870,17757 2870,17721 2799,17721 2799,17611 2763,17611 2763,17575 2727,17575 2727,17502 2691,17502 2691,17393 2656,17393 2656,17210 2620,17210 2620,17028 2656,17028 2656,16846 2620,16846 2620,16627 2584,16627 2584,16481 2620,16481 2620,16299 2584,16299 2584,16226 2620,16226 2620,16190 2549,16190 2549,16117 2584,16117 2584,16080 2549,16080 2549,15971 2513,15971 2513,15825 2477,15825 2477,15716 2442,15716 2442,15570 2406,15570 2406,15534 2442,15534 2442,15351 2477,15351 2477,15242 2442,15242 2442,15096 2406,15096 2406,15023 2370,15023 2370,14622 2406,14622 2406,14513 2370,14513 2370,14258 2334,14258 2334,14221 2299,14221 2299,14149 2334,14149 2334,13930 2370,13930 2370,13821 2334,13821 2334,13638 2299,13638 2299,13456 2263,13456 2263,13420 2227,13420 2227,13274 2263,13274 2263,12909 2227,12909 2227,12326 2192,12326 2192,12217 2156,12217 2156,12071 2227,12071 2227,11378 2192,11378 2192,11342 2120,11342 2120,11306 2227,11306 2227,11196 2156,11196 2156,11160 2192,11160 2192,10868 2227,10868 2227,10832 2263,10832 2263,10795 2299,10795 2299,10832 2370,10832 2370,10722 2227,10722 2227,10467 2192,10467 2192,10394 2227,10394 2227,10358 2263,10358 2263,10103 2299,10103 2299,10030 2263,10030 2263,9738 2299,9738 2299,9337 2334,9337 2334,9155 2370,9155 2370,9119 2406,9119 2406,9046 2370,9046 2370,8973 2406,8973 2406,8863 2370,8863 2370,8791 2442,8791 2442,8390 2477,8390 2477,8317 2513,8317 2513,8207 2549,8207 2549,8171 2584,8171 2584,7989 2620,7989 2620,7879 2656,7879 2656,7806 2691,7806 2691,7770 2727,7770 2727,7697 2763,7697 2763,7661 2799,7661 2799,7588 2834,7588 2834,7515 2870,7515 2870,7478 2906,7478 2906,7333 2941,7333 2941,7260 2977,7260 2977,7223 3013,7223 3013,7150 3048,7150 3048,7114 3084,7114 3084,7005 3120,7005 3120,6932 3156,6932 3156,6895 3191,6895 3191,6822 3227,6822 3227,6786 3298,6786 3298,6749 3370,6749 3370,6713 3441,6713 3441,6640 3477,6640 3477,6604 3513,6604 3513,6567 3548,6567 3548,6531 3691,6531 3691,6421 3798,6421 3798,6385 3905,6385 3905,6348 3941,6348 3941,6312 4084,6312 4084,6276 4119,6276 4119,6239 4191,6239 4191,6203 4369,6203 4369,6166 4405,6166 4405,6130 4655,6130 4655,6093 4691,6093 4691,6057 4726,6057 4726,6020 4762,6020 4762,6057 4905,6057 4905,6020 5119,6020 5119,5984 5190,5984 5190,5948 5440,5948 5440,5911 5655,5911 5655,5875 5690,5875 5690,5911 5833,5911 5833,5948 5976,5948 5976,5911 6047,5911 6047,5875 6154,5875 6154,5911 6190,5911 6190,5948 6333,5948 6333,5911 6404,5911 6404,5875 6511,5875 6511,5911 6547,5911 6547,5875 6690,5875 6690,5911 7225,5911 7225,5948 7261,5948 7261,5911 7297,5911 7297,5875 7368,5875 7368,5911 "/>
   <polygon class="fil1" points="17828,11488 17828,11743 17864,11743 17864,12618 17828,12618 17828,12654 17793,12654 17793,12472 17757,12472 17757,12363 17793,12363 17793,12435 17828,12435 17828,12253 17793,12253 17793,12217 17757,12217 17757,12326 17614,12326 17614,12363 17721,12363 17721,12399 17543,12399 17543,12435 17507,12435 17507,12508 17543,12508 17543,12545 17686,12545 17686,12618 17650,12618 17650,12654 17721,12654 17721,12764 17650,12764 17650,12727 17614,12727 17614,12691 17543,12691 17543,12727 17507,12727 17507,12764 17436,12764 17436,12618 17400,12618 17400,12581 17436,12581 17436,12545 17364,12545 17364,12581 17293,12581 17293,12618 17257,12618 17257,12654 17329,12654 17329,12618 17364,12618 17364,12727 17329,12727 17329,12764 17293,12764 17293,12800 17257,12800 17257,12691 17186,12691 17186,12581 17150,12581 17150,12691 17114,12691 17114,12727 17043,12727 17043,12764 17114,12764 17114,12800 17007,12800 17007,12836 17221,12836 17221,12909 17150,12909 17150,12946 17257,12946 17257,12909 17364,12909 17364,12836 17400,12836 17400,12946 17329,12946 17329,13128 17186,13128 17186,13055 16900,13055 16900,13019 16864,13019 16864,13055 16829,13055 16829,13019 16793,13019 16793,13092 16757,13092 16757,13164 16900,13164 16900,13201 16864,13201 16864,13237 16757,13237 16757,13201 16686,13201 16686,13092 16615,13092 16615,13237 16722,13237 16722,13310 16757,13310 16757,13420 16686,13420 16686,13347 16615,13347 16615,13310 16543,13310 16543,12982 16507,12982 16507,12873 16472,12873 16472,12764 16436,12764 16436,12581 16472,12581 16472,12618 16543,12618 16543,12581 16579,12581 16579,12472 16400,12472 16400,12107 16365,12107 16365,11998 16400,11998 16400,11743 16365,11743 16365,11597 16400,11597 16400,11342 16365,11342 16365,11160 16400,11160 16400,10868 16436,10868 16436,10722 16400,10722 16400,10686 16365,10686 16365,10649 16472,10649 16472,10577 16400,10577 16400,10540 16365,10540 16365,10103 16329,10103 16329,9993 16258,9993 16258,9957 16293,9957 16293,9848 16258,9848 16258,9811 16293,9811 16293,9520 16329,9520 16329,9483 16365,9483 16365,9410 16293,9410 16293,9447 16222,9447 16222,9301 16258,9301 16258,9264 16400,9264 16400,9228 16436,9228 16436,9155 16365,9155 16365,9119 16329,9119 16329,9155 16293,9155 16293,9228 16222,9228 16222,8827 16258,8827 16258,8973 16329,8973 16329,8353 16258,8353 16258,8317 16222,8317 16222,8353 16186,8353 16186,8244 16150,8244 16150,8025 16115,8025 16115,7879 16079,7879 16079,7806 16115,7806 16115,7770 16079,7770 16079,7734 16043,7734 16043,7697 16008,7697 16008,7624 16043,7624 16043,7478 16079,7478 16079,7442 16043,7442 16043,7369 16079,7369 16079,7296 16115,7296 16115,7260 16150,7260 16150,7296 16258,7296 16258,7333 16400,7333 16400,7369 16472,7369 16472,7405 16543,7405 16543,7442 16650,7442 16650,7478 16864,7478 16864,7551 16793,7551 16793,7624 16829,7624 16829,7697 16864,7697 16864,7770 16972,7770 16972,7879 17043,7879 17043,8025 17150,8025 17150,8062 17186,8062 17186,8098 17221,8098 17221,8134 17293,8134 17293,8244 17364,8244 17364,8317 17400,8317 17400,8353 17436,8353 17436,8390 17471,8390 17471,8463 17578,8463 17578,8535 17614,8535 17614,8645 17721,8645 17721,8681 17793,8681 17793,8791 17828,8791 17828,8827 17864,8827 17864,9009 17900,9009 17900,9046 17935,9046 17935,9155 17971,9155 17971,9264 17935,9264 17935,9301 17971,9301 17971,9556 17935,9556 17935,9665 17971,9665 17971,10103 17935,10103 17935,10139 17900,10139 17900,10176 17828,10176 17828,10285 17864,10285 17864,10577 17828,10577 17828,10759 17793,10759 17793,10941 17757,10941 17757,11269 17793,11269 17793,11378 17721,11378 17721,11269 17650,11269 17650,11306 17614,11306 17614,11342 17578,11342 17578,11378 17614,11378 17614,11451 17721,11451 17721,11488 "/>
   <polygon class="fil2" points="2513,16627 2549,16627 2549,16773 2513,16773 2513,16846 2549,16846 2549,16809 2584,16809 2584,16882 2620,16882 2620,16919 2584,16919 2584,16955 2549,16955 2549,17028 2620,17028 2620,17137 2549,17137 2549,17174 2513,17174 2513,17210 2656,17210 2656,17393 2691,17393 2691,17502 2727,17502 2727,17575 2763,17575 2763,17611 2727,17611 2727,17684 2799,17684 2799,17721 2870,17721 2870,17757 2906,17757 2906,17794 2941,17794 2941,17830 2906,17830 2906,17866 2941,17866 2941,17903 2977,17903 2977,17939 3013,17939 3013,17976 3084,17976 3084,18012 3156,18012 3156,18049 3227,18049 3227,18085 3298,18085 3298,18049 3441,18049 3441,18085 3691,18085 3691,18122 3762,18122 3762,18085 3798,18085 3798,18049 3905,18049 3905,18085 3977,18085 3977,18122 4298,18122 4298,18158 4798,18158 4798,18194 4976,18194 4976,18122 5048,18122 5048,18085 5083,18085 5083,18049 5155,18049 5155,18085 5226,18085 5226,18049 5333,18049 5333,18085 5405,18085 5405,18012 5440,18012 5440,17976 5547,17976 5547,18012 5655,18012 5655,17939 5869,17939 5869,17903 5904,17903 5904,17976 5976,17976 5976,17939 6012,17939 6012,17903 6047,17903 6047,17866 6083,17866 6083,17830 6190,17830 6190,17794 6333,17794 6333,17757 6369,17757 6369,17830 6511,17830 6511,17757 6476,17757 6476,17721 6583,17721 6583,17684 6868,17684 6868,17648 6975,17648 6975,17611 7083,17611 7083,17575 7190,17575 7190,17538 7332,17538 7332,17502 7404,17502 7404,17465 7511,17465 7511,17429 7547,17429 7547,17502 7689,17502 7689,17465 7761,17465 7761,17393 7868,17393 7868,17429 8046,17429 8046,17320 8332,17320 8332,17283 8475,17283 8475,17247 8760,17247 8760,17210 8832,17210 8832,17174 9082,17174 9082,17137 9367,17137 9367,17101 9474,17101 9474,17065 9903,17065 9903,17028 10046,17028 10046,16992 10081,16992 10081,16955 10189,16955 10189,16919 10296,16919 10296,16882 10403,16882 10403,16919 10688,16919 10688,16882 10903,16882 10903,16846 11188,16846 11188,16919 11117,16919 11117,17283 10688,17283 10688,17356 10545,17356 10545,17320 10474,17320 10474,17247 10403,17247 10403,17283 10331,17283 10331,17320 10296,17320 10296,17393 10117,17393 10117,17429 9974,17429 9974,17465 9724,17465 9724,17502 9117,17502 9117,17538 9082,17538 9082,17575 9046,17575 9046,17611 8689,17611 8689,17648 8653,17648 8653,17684 8511,17684 8511,17611 8475,17611 8475,17575 8439,17575 8439,17611 8368,17611 8368,17648 8225,17648 8225,17684 8154,17684 8154,17648 8118,17648 8118,17684 8046,17684 8046,17721 7975,17721 7975,17757 8189,17757 8189,17794 7832,17794 7832,17830 7475,17830 7475,17866 7440,17866 7440,17903 7261,17903 7261,17939 7225,17939 7225,17866 7154,17866 7154,17903 7083,17903 7083,17976 7118,17976 7118,18012 7083,18012 7083,18049 6797,18049 6797,18085 6726,18085 6726,18122 6618,18122 6618,18085 6654,18085 6654,18049 6690,18049 6690,17976 6583,17976 6583,18085 6511,18085 6511,18194 6261,18194 6261,18231 6226,18231 6226,18158 6119,18158 6119,18122 6083,18122 6083,18158 6012,18158 6012,18231 5904,18231 5904,18267 5940,18267 5940,18304 5904,18304 5904,18340 5869,18340 5869,18377 5655,18377 5655,18340 5583,18340 5583,18450 5547,18450 5547,18486 5190,18486 5190,18523 5048,18523 5048,18559 4976,18559 4976,18523 4869,18523 4869,18559 4726,18559 4726,18595 4691,18595 4691,18632 4619,18632 4619,18559 4369,18559 4369,18523 4262,18523 4262,18559 4084,18559 4084,18523 4012,18523 4012,18559 3798,18559 3798,18523 3513,18523 3513,18486 3405,18486 3405,18450 3227,18450 3227,18413 3120,18413 3120,18377 2941,18377 2941,18340 2834,18340 2834,18304 2799,18304 2799,18267 2763,18267 2763,18194 2799,18194 2799,18085 2834,18085 2834,18049 2691,18049 2691,18085 2656,18085 2656,18158 2691,18158 2691,18194 2620,18194 2620,18122 2549,18122 2549,18049 2513,18049 2513,18012 2477,18012 2477,17866 2406,17866 2406,17794 2370,17794 2370,17721 2299,17721 2299,17648 2263,17648 2263,17538 2370,17538 2370,17502 2334,17502 2334,17465 2263,17465 2263,17356 2370,17356 2370,17283 2263,17283 2263,17320 2227,17320 2227,17210 2263,17210 2263,17174 2299,17174 2299,17210 2334,17210 2334,17101 2299,17101 2299,17028 2227,17028 2227,16992 2299,16992 2299,16955 2334,16955 2334,16919 2370,16919 2370,16737 2334,16737 2334,16627 2299,16627 2299,16664 2263,16664 2263,16700 2227,16700 2227,16737 2192,16737 2192,16554 2156,16554 2156,16190 2192,16190 2192,16408 2299,16408 2299,16263 2334,16263 2334,16190 2370,16190 2370,16153 2406,16153 2406,16117 2370,16117 2370,16080 2406,16080 2406,16044 2370,16044 2370,16008 2334,16008 2334,15971 2406,15971 2406,16008 2477,16008 2477,16153 2442,16153 2442,16299 2406,16299 2406,16408 2370,16408 2370,16554 2477,16554 2477,16664 2513,16664 "/>
   <polygon class="fil3" points="16222,9191 16222,9228 16258,9228 16258,9301 16222,9301 16222,9520 16186,9520 16186,9665 16293,9665 16293,9811 16258,9811 16258,9848 16293,9848 16293,9957 16222,9957 16222,10030 16293,10030 16293,10103 16329,10103 16329,10176 16258,10176 16258,10212 16222,10212 16222,10285 16293,10285 16293,10249 16329,10249 16329,10467 16293,10467 16293,10431 16186,10431 16186,10504 16150,10504 16150,10577 16222,10577 16222,10540 16258,10540 16258,10504 16365,10504 16365,10540 16400,10540 16400,10577 16436,10577 16436,10613 16329,10613 16329,10686 16400,10686 16400,10722 16436,10722 16436,10868 16365,10868 16365,10905 16293,10905 16293,11014 16258,11014 16258,10978 16186,10978 16186,11050 16222,11050 16222,11123 16293,11123 16293,11160 16329,11160 16329,11233 16365,11233 16365,11342 16400,11342 16400,11561 16329,11561 16329,11415 16293,11415 16293,11451 16258,11451 16258,11597 16293,11597 16293,11634 16329,11634 16329,11707 16293,11707 16293,11743 16222,11743 16222,11852 16186,11852 16186,11998 16222,11998 16222,12253 16258,12253 16258,12290 16293,12290 16293,12071 16329,12071 16329,12107 16365,12107 16365,12326 16329,12326 16329,12399 16258,12399 16258,12435 16186,12435 16186,12508 16258,12508 16258,12691 16222,12691 16222,12800 16186,12800 16186,12836 16293,12836 16293,13055 16258,13055 16258,13092 16222,13092 16222,13128 16293,13128 16293,13237 16365,13237 16365,13164 16400,13164 16400,13201 16436,13201 16436,13310 16365,13310 16365,13383 16400,13383 16400,13347 16436,13347 16436,13456 16400,13456 16400,13493 16365,13493 16365,13602 16329,13602 16329,13493 16293,13493 16293,13529 16258,13529 16258,13565 16222,13565 16222,13602 16258,13602 16258,13711 16222,13711 16222,13784 16293,13784 16293,13893 16222,13893 16222,13966 16293,13966 16293,14185 16329,14185 16329,14331 16293,14331 16293,14477 16258,14477 16258,14404 16186,14404 16186,14477 16222,14477 16222,14586 16150,14586 16150,14659 16222,14659 16222,14732 16186,14732 16186,14878 16222,14878 16222,14841 16258,14841 16258,14950 16222,14950 16222,15023 16293,15023 16293,14987 16329,14987 16329,14878 16293,14878 16293,14841 16365,14841 16365,15023 16329,15023 16329,15060 16293,15060 16293,15169 16258,15169 16258,15133 16222,15133 16222,15206 16293,15206 16293,15279 16222,15279 16222,15424 16258,15424 16258,15461 16222,15461 16222,15534 16186,15534 16186,15716 16150,15716 16150,15752 16222,15752 16222,15716 16258,15716 16258,15752 16293,15752 16293,15679 16365,15679 16365,15789 16293,15789 16293,15825 16258,15825 16258,15935 16222,15935 16222,15971 16186,15971 16186,16008 16043,16008 16043,16080 16079,16080 16079,16117 16008,16117 16008,16153 15972,16153 15972,16226 15936,16226 15936,16299 15865,16299 15865,16372 15829,16372 15829,16408 15793,16408 15793,16481 15758,16481 15758,16518 15829,16518 15829,16554 15793,16554 15793,16591 15686,16591 15686,16627 15651,16627 15651,16664 15579,16664 15579,16737 15508,16737 15508,16809 15472,16809 15472,16846 15401,16846 15401,16882 15365,16882 15365,16919 15329,16919 15329,16882 15294,16882 15294,16846 15329,16846 15329,16773 15258,16773 15258,16809 15222,16809 15222,16992 15079,16992 15079,17028 14972,17028 14972,16992 14865,16992 14865,17028 14580,17028 14580,16955 14508,16955 14508,16992 14437,16992 14437,16955 14365,16955 14365,16992 14080,16992 14080,17028 13901,17028 13901,16992 13794,16992 13794,17028 13651,17028 13651,16992 13544,16992 13544,16955 13580,16955 13580,16919 13509,16919 13509,16955 13437,16955 13437,16919 13366,16919 13366,16882 13402,16882 13402,16846 13437,16846 13437,16700 13402,16700 13402,16664 13330,16664 13330,16627 13473,16627 13473,16591 13937,16591 13937,16554 14258,16554 14258,16518 14473,16518 14473,16591 14580,16591 14580,16518 14687,16518 14687,16554 14722,16554 14722,16591 14794,16591 14794,16554 14830,16554 14830,16518 15187,16518 15187,16591 15258,16591 15258,16554 15294,16554 15294,16627 15329,16627 15329,16408 15294,16408 15294,16445 15222,16445 15222,16372 15294,16372 15294,16336 15401,16336 15401,16226 15472,16226 15472,16190 15508,16190 15508,16153 15579,16153 15579,16117 15615,16117 15615,16044 15651,16044 15651,16008 15686,16008 15686,15971 15722,15971 15722,16008 15758,16008 15758,15971 15936,15971 15936,15898 16008,15898 16008,15752 16043,15752 16043,15716 16008,15716 16008,15643 15972,15643 15972,15752 15936,15752 15936,15789 15865,15789 15865,15752 15901,15752 15901,15716 15829,15716 15829,15679 15865,15679 15865,15388 15901,15388 15901,15461 15936,15461 15936,15388 15972,15388 15972,15315 16008,15315 16008,15279 15972,15279 15972,15206 15936,15206 15936,15242 15901,15242 15901,15060 15865,15060 15865,14768 15829,14768 15829,14732 15936,14732 15936,14659 15972,14659 15972,14404 16008,14404 16008,14331 15972,14331 15972,14258 16008,14258 16008,14221 16079,14221 16079,14258 16115,14258 16115,14185 16150,14185 16150,14112 16115,14112 16115,14149 16043,14149 16043,14076 16008,14076 16008,14039 16115,14039 16115,14003 16008,14003 16008,13857 16043,13857 16043,13748 16008,13748 16008,13638 15936,13638 15936,13565 16008,13565 16008,13529 16043,13529 16043,13164 16008,13164 16008,13128 15972,13128 15972,12946 16008,12946 16008,12836 15972,12836 15972,12727 15936,12727 15936,12581 15901,12581 15901,12472 16008,12472 16008,12399 15972,12399 15972,12363 15901,12363 15901,12144 15936,12144 15936,11707 15901,11707 15901,11634 15936,11634 15936,11597 15901,11597 15901,11524 15936,11524 15936,11488 15972,11488 15972,11524 16008,11524 16008,11634 15972,11634 15972,11779 16043,11779 16043,11451 15972,11451 15972,11415 16043,11415 16043,11342 15972,11342 15972,11233 16008,11233 16008,10832 16079,10832 16079,10722 16043,10722 16043,10686 16008,10686 16008,10394 15972,10394 15972,10358 15936,10358 15936,10321 16008,10321 16008,10249 15901,10249 15901,10212 15865,10212 15865,10030 15901,10030 15901,9920 15865,9920 15865,9775 15901,9775 15901,9702 15972,9702 15972,9738 16043,9738 16043,9665 16008,9665 16008,9556 16043,9556 16043,9447 16150,9447 16150,9046 16186,9046 16186,9191 "/>
   <polygon class="fil4" points="10510,5765 10510,5802 10581,5802 10581,5765 10724,5765 10724,5802 10795,5802 10795,5765 10903,5765 10903,5729 10867,5729 10867,5692 11117,5692 11117,5729 11474,5729 11474,5765 11759,5765 11759,5802 11795,5802 11795,5875 11866,5875 11866,5802 11974,5802 11974,5838 12188,5838 12188,5875 12223,5875 12223,5911 12331,5911 12331,5875 12509,5875 12509,5911 12473,5911 12473,5948 12545,5948 12545,5984 12616,5984 12616,5948 12652,5948 12652,5911 12688,5911 12688,5984 12759,5984 12759,5948 12830,5948 12830,6020 12902,6020 12902,5948 13116,5948 13116,5984 13330,5984 13330,5948 13723,5948 13723,5911 13901,5911 13901,5875 14008,5875 14008,5838 14223,5838 14223,5875 14294,5875 14294,5838 14580,5838 14580,5875 14722,5875 14722,5948 14830,5948 14830,5984 14865,5984 14865,6020 15008,6020 15008,6057 15079,6057 15079,6093 15151,6093 15151,6130 15187,6130 15187,6166 15222,6166 15222,6239 15294,6239 15294,6203 15401,6203 15401,6239 15436,6239 15436,6276 15508,6276 15508,6312 15544,6312 15544,6348 15579,6348 15579,6421 15615,6421 15615,6458 15651,6458 15651,6531 15722,6531 15722,6604 15829,6604 15829,6786 15865,6786 15865,6932 15901,6932 15901,7041 15972,7041 15972,7187 16008,7187 16008,7223 16043,7223 16043,7442 16079,7442 16079,7478 16043,7478 16043,7624 16008,7624 16008,7734 15936,7734 15936,7806 16008,7806 16008,7916 16043,7916 16043,7879 16115,7879 16115,7989 16043,7989 16043,8062 16079,8062 16079,8207 16115,8207 16115,8390 16079,8390 16079,8426 16115,8426 16115,8572 16150,8572 16150,8681 16186,8681 16186,8827 16150,8827 16150,8973 16222,8973 16222,9191 16186,9191 16186,9046 16150,9046 16150,9447 15972,9447 15972,9410 15936,9410 15936,9374 15972,9374 15972,9337 15936,9337 15936,9228 15901,9228 15901,9264 15829,9264 15829,9082 15793,9082 15793,8608 15758,8608 15758,8317 15722,8317 15722,8207 15758,8207 15758,8098 15722,8098 15722,8062 15758,8062 15758,7806 15722,7806 15722,7734 15793,7734 15793,7697 15686,7697 15686,7770 15651,7770 15651,7624 15758,7624 15758,7588 15722,7588 15722,7551 15686,7551 15686,7515 15651,7515 15651,7442 15686,7442 15686,7369 15651,7369 15651,7260 15615,7260 15615,7223 15579,7223 15579,7187 15544,7187 15544,7150 15508,7150 15508,7114 15579,7114 15579,7077 15544,7077 15544,6968 15508,6968 15508,6895 15472,6895 15472,6932 15436,6932 15436,6895 15401,6895 15401,6749 15365,6749 15365,6713 15401,6713 15401,6640 15294,6640 15294,6604 15258,6604 15258,6567 15222,6567 15222,6531 15151,6531 15151,6458 15079,6458 15079,6421 14972,6421 14972,6385 14937,6385 14937,6348 14830,6348 14830,6312 14758,6312 14758,6276 14615,6276 14615,6239 14365,6239 14365,6203 14258,6203 14258,6239 14080,6239 14080,6276 13759,6276 13759,6312 13580,6312 13580,6348 13473,6348 13473,6385 13187,6385 13187,6348 12937,6348 12937,6312 12866,6312 12866,6276 12652,6276 12652,6203 12402,6203 12402,6130 12366,6130 12366,6093 12331,6093 12331,6057 12366,6057 12366,6020 12295,6020 12295,6093 12223,6093 12223,6130 12188,6130 12188,6166 12331,6166 12331,6239 12116,6239 12116,6203 11902,6203 11902,6166 11795,6166 11795,6130 11724,6130 11724,6166 11652,6166 11652,6130 11581,6130 11581,6166 11295,6166 11295,6130 11117,6130 11117,6166 11045,6166 11045,6239 10903,6239 10903,6166 10831,6166 10831,6130 10795,6130 10795,6093 10653,6093 10653,6166 10581,6166 10581,6130 10367,6130 10367,6093 10260,6093 10260,6057 10153,6057 10153,6093 10117,6093 10117,6057 10081,6057 10081,6020 9582,6020 9582,5984 9474,5984 9474,5911 9510,5911 9510,5838 9617,5838 9617,5802 9653,5802 9653,5765 9689,5765 9689,5656 9760,5656 9760,5692 10010,5692 10010,5729 10224,5729 10224,5765 10403,5765 10403,5802 10474,5802 10474,5765 "/>
   <polygon class="fil5" points="16043,16226 16043,16190 16186,16190 16186,16117 16222,16117 16222,15935 16293,15935 16293,15971 16365,15971 16365,15898 16329,15898 16329,15789 16365,15789 16365,15424 16436,15424 16436,15096 16400,15096 16400,14695 16293,14695 16293,14659 16329,14659 16329,14477 16365,14477 16365,14149 16400,14149 16400,13784 16436,13784 16436,14003 16472,14003 16472,14076 16579,14076 16579,14039 16650,14039 16650,14112 16722,14112 16722,14039 16757,14039 16757,14076 16829,14076 16829,14149 16722,14149 16722,14258 16793,14258 16793,14221 16864,14221 16864,14294 16829,14294 16829,14331 16793,14331 16793,14367 16829,14367 16829,14404 16864,14404 16864,14586 17007,14586 17007,14622 17043,14622 17043,14659 17186,14659 17186,14695 17329,14695 17329,14768 17257,14768 17257,14914 17329,14914 17329,14950 17257,14950 17257,15023 17221,15023 17221,15096 17329,15096 17329,15169 17293,15169 17293,15279 17364,15279 17364,15351 17329,15351 17329,15388 17293,15388 17293,15461 17364,15461 17364,15607 17293,15607 17293,15679 17257,15679 17257,15825 17221,15825 17221,15971 17400,15971 17400,16008 17293,16008 17293,16080 17329,16080 17329,16153 17186,16153 17186,16190 16864,16190 16864,16117 16900,16117 16900,16080 16972,16080 16972,16044 17043,16044 17043,15971 17007,15971 17007,15862 17043,15862 17043,15789 16972,15789 16972,15825 16864,15825 16864,15862 16829,15862 16829,15898 16864,15898 16864,15935 16900,15935 16900,15971 16972,15971 16972,16008 16900,16008 16900,16044 16793,16044 16793,16008 16579,16008 16579,15971 16543,15971 16543,16008 16472,16008 16472,16044 16507,16044 16507,16080 16400,16080 16400,16117 16436,16117 16436,16153 16472,16153 16472,16190 16400,16190 16400,16226 16329,16226 16329,16263 16258,16263 16258,16226 16186,16226 16186,16263 16150,16263 16150,16226 "/>
   <polygon class="fil6" points="2263,10176 2263,10358 2227,10358 2227,10394 2192,10394 2192,10467 2227,10467 2227,10722 2263,10722 2263,10832 2227,10832 2227,10868 2192,10868 2192,11123 2120,11123 2120,11050 2049,11050 2049,11160 2120,11160 2120,11342 2192,11342 2192,11378 2227,11378 2227,11561 2156,11561 2156,11415 2013,11415 2013,11743 1942,11743 1942,11707 1906,11707 1906,11670 1870,11670 1870,11889 1942,11889 1942,11852 1906,11852 1906,11779 1942,11779 1942,11816 2013,11816 2013,11852 2085,11852 2085,11816 2049,11816 2049,11707 2120,11707 2120,11634 2192,11634 2192,11707 2227,11707 2227,12071 2156,12071 2156,12290 2120,12290 2120,12253 2085,12253 2085,12326 2049,12326 2049,12399 2085,12399 2085,12472 2120,12472 2120,12399 2192,12399 2192,12472 2227,12472 2227,12909 2263,12909 2263,13274 2227,13274 2227,13420 2263,13420 2263,13456 2227,13456 2227,13638 2263,13638 2263,13711 2227,13711 2227,13784 2156,13784 2156,13565 2085,13565 2085,13529 2120,13529 2120,13493 2085,13493 2085,13383 2049,13383 2049,13310 2085,13310 2085,13274 2013,13274 2013,13347 1977,13347 1977,13420 1942,13420 1942,13383 1906,13383 1906,13019 1870,13019 1870,12800 1835,12800 1835,12654 1942,12654 1942,12618 1977,12618 1977,12545 1942,12545 1942,12472 1870,12472 1870,12435 1799,12435 1799,12399 1835,12399 1835,12253 1870,12253 1870,12217 1835,12217 1835,12180 1799,12180 1799,12107 1835,12107 1835,12035 1799,12035 1799,11342 1835,11342 1835,11306 1906,11306 1906,11342 1942,11342 1942,11014 1906,11014 1906,11050 1870,11050 1870,11087 1799,11087 1799,10978 1835,10978 1835,10905 1977,10905 1977,10759 1906,10759 1906,10795 1870,10795 1870,10832 1799,10832 1799,10686 1835,10686 1835,10431 1870,10431 1870,10467 1906,10467 1906,10321 1977,10321 1977,10285 2013,10285 2013,10176 2049,10176 2049,10139 2156,10139 2156,10103 2192,10103 2192,10139 2227,10139 2227,10176 "/>
   <polygon class="fil2" points="2834,7478 2834,7442 2691,7442 2691,7551 2656,7551 2656,7588 2584,7588 2584,7624 2620,7624 2620,7697 2691,7697 2691,7661 2727,7661 2727,7770 2691,7770 2691,7806 2656,7806 2656,7879 2620,7879 2620,7989 2584,7989 2584,8134 2549,8134 2549,8098 2513,8098 2513,8062 2477,8062 2477,8098 2406,8098 2406,8171 2442,8171 2442,8244 2477,8244 2477,8390 2442,8390 2442,8791 2370,8791 2370,8863 2334,8863 2334,8973 2370,8973 2370,9046 2299,9046 2299,9155 2334,9155 2334,9337 2299,9337 2299,9410 2263,9410 2263,9592 2227,9592 2227,9629 2263,9629 2263,9702 2192,9702 2192,9665 2156,9665 2156,9702 2120,9702 2120,9775 2085,9775 2085,9884 2120,9884 2120,9848 2156,9848 2156,9957 2227,9957 2227,10030 2192,10030 2192,10066 2120,10066 2120,10103 2013,10103 2013,10066 1977,10066 1977,10212 1942,10212 1942,10285 1906,10285 1906,10249 1870,10249 1870,10139 1835,10139 1835,10066 1870,10066 1870,9957 1977,9957 1977,9884 1906,9884 1906,9738 2049,9738 2049,9702 1906,9702 1906,9301 1977,9301 1977,9264 2013,9264 2013,9082 1977,9082 1977,8973 2013,8973 2013,8900 1942,8900 1942,8754 1977,8754 1977,8608 2013,8608 2013,8426 2049,8426 2049,8134 2085,8134 2085,8098 2120,8098 2120,8025 2156,8025 2156,7989 2192,7989 2192,7916 2227,7916 2227,7770 2263,7770 2263,7697 2299,7697 2299,7588 2370,7588 2370,7624 2442,7624 2442,7515 2549,7515 2549,7478 2513,7478 2513,7405 2584,7405 2584,7369 2656,7369 2656,7333 2691,7333 2691,7369 2763,7369 2763,7333 2727,7333 2727,7223 2799,7223 2799,7405 2834,7405 2834,7296 2870,7296 2870,7260 2906,7260 2906,7223 2941,7223 2941,7333 2906,7333 2906,7478 "/>
   <polygon class="fil7" points="4869,5911 4869,5984 4798,5984 4798,5948 4726,5948 4726,5984 4655,5984 4655,6020 4619,6020 4619,6093 4655,6093 4655,6130 4476,6130 4476,6093 4441,6093 4441,5984 4405,5984 4405,6020 4369,6020 4369,5984 4334,5984 4334,6130 4369,6130 4369,6203 4191,6203 4191,6239 4119,6239 4119,6276 4084,6276 4084,6312 3977,6312 3977,6276 4012,6276 4012,6203 3941,6203 3941,6239 3905,6239 3905,6276 3870,6276 3870,6312 3834,6312 3834,6385 3798,6385 3798,6421 3691,6421 3691,6494 3620,6494 3620,6421 3548,6421 3548,6458 3513,6458 3513,6494 3548,6494 3548,6567 3513,6567 3513,6604 3477,6604 3477,6640 3441,6640 3441,6713 3405,6713 3405,6640 3334,6640 3334,6676 3263,6676 3263,6786 3227,6786 3227,6822 3191,6822 3191,6895 3156,6895 3156,6932 3120,6932 3120,7005 3084,7005 3084,6932 3013,6932 3013,6822 2941,6822 2941,6968 3013,6968 3013,7114 3048,7114 3048,7150 3013,7150 3013,7223 2977,7223 2977,7260 2941,7260 2941,7223 2906,7223 2906,7260 2870,7260 2870,7296 2834,7296 2834,7405 2799,7405 2799,7223 2727,7223 2727,7333 2763,7333 2763,7369 2691,7369 2691,7333 2656,7333 2656,7369 2584,7369 2584,7405 2513,7405 2513,7478 2549,7478 2549,7515 2370,7515 2370,7478 2334,7478 2334,7405 2406,7405 2406,7333 2442,7333 2442,7260 2477,7260 2477,7223 2513,7223 2513,7114 2549,7114 2549,7077 2584,7077 2584,7005 2620,7005 2620,6968 2656,6968 2656,6932 2691,6932 2691,6822 2763,6822 2763,6859 2870,6859 2870,6822 2906,6822 2906,6786 2941,6786 2941,6713 2834,6713 2834,6749 2799,6749 2799,6786 2763,6786 2763,6713 2799,6713 2799,6676 2834,6676 2834,6604 2870,6604 2870,6567 2906,6567 2906,6531 2941,6531 2941,6421 2977,6421 2977,6494 3084,6494 3084,6458 3120,6458 3120,6421 3084,6421 3084,6385 3120,6385 3120,6312 3156,6312 3156,6276 3227,6276 3227,6166 3370,6166 3370,6130 3405,6130 3405,6093 3441,6093 3441,6057 3655,6057 3655,6020 3727,6020 3727,5984 3762,5984 3762,6057 3798,6057 3798,6020 3905,6020 3905,5948 4012,5948 4012,5875 4084,5875 4084,5838 4227,5838 4227,5802 4334,5802 4334,5765 4405,5765 4405,5729 4691,5729 4691,5802 4726,5802 4726,5838 4833,5838 4833,5875 4798,5875 4798,5911 "/>
   <polygon class="fil8" points="7475,5619 7547,5619 7547,5583 7832,5583 7832,5619 8403,5619 8403,5583 8511,5583 8511,5619 8903,5619 8903,5656 9010,5656 9010,5619 9117,5619 9117,5656 9225,5656 9225,5729 9332,5729 9332,5656 9510,5656 9510,5619 9582,5619 9582,5656 9617,5656 9617,5729 9546,5729 9546,5802 9617,5802 9617,5838 9510,5838 9510,5911 9474,5911 9474,5984 9367,5984 9367,5948 9296,5948 9296,5984 9117,5984 9117,5948 8725,5948 8725,5984 8689,5984 8689,5948 8582,5948 8582,5984 8511,5984 8511,5948 8475,5948 8475,5911 8332,5911 8332,5875 8118,5875 8118,5911 8046,5911 8046,5984 7975,5984 7975,5948 8011,5948 8011,5875 7832,5875 7832,5911 7368,5911 7368,5875 7297,5875 7297,5911 7261,5911 7261,5948 7225,5948 7225,5911 7118,5911 7118,5765 7154,5765 7154,5729 7047,5729 7047,5765 7011,5765 7011,5838 6726,5838 6726,5765 6690,5765 6690,5729 6761,5729 6761,5656 6726,5656 6726,5692 6690,5692 6690,5583 6547,5583 6547,5547 6726,5547 6726,5583 6868,5583 6868,5656 6940,5656 6940,5583 6975,5583 6975,5619 7047,5619 7047,5583 7083,5583 7083,5692 7154,5692 7154,5547 7225,5547 7225,5583 7475,5583 "/>
   <polygon class="fil9" points="13473,16591 13473,16627 13330,16627 13330,16664 13402,16664 13402,16700 13437,16700 13437,16846 13402,16846 13402,16882 13366,16882 13366,16919 13330,16919 13330,16992 13259,16992 13259,17028 13187,17028 13187,16992 12937,16992 12937,17028 12580,17028 12580,17065 12545,17065 12545,16992 12438,16992 12438,16955 12331,16955 12331,16992 12366,16992 12366,17028 12259,17028 12259,16992 12152,16992 12152,17065 12009,17065 12009,17028 12045,17028 12045,16955 12009,16955 12009,16992 11974,16992 11974,17028 11902,17028 11902,17101 11795,17101 11795,17137 11759,17137 11759,17174 11688,17174 11688,17137 11509,17137 11509,17174 11367,17174 11367,17210 11152,17210 11152,17247 11117,17247 11117,16919 11188,16919 11188,16846 11260,16846 11260,16882 11295,16882 11295,16846 11724,16846 11724,16773 11652,16773 11652,16737 11759,16737 11759,16773 11831,16773 11831,16700 12152,16700 12152,16773 12223,16773 12223,16737 12366,16737 12366,16700 12402,16700 12402,16627 12438,16627 12438,16664 12580,16664 12580,16627 12616,16627 12616,16591 12688,16591 12688,16627 12795,16627 12795,16591 12902,16591 12902,16627 13045,16627 13045,16591 13223,16591 13223,16554 13294,16554 13294,16591 "/>
   <polygon class="fil4" points="6226,5583 6226,5692 6333,5692 6333,5547 6404,5547 6404,5583 6440,5583 6440,5656 6404,5656 6404,5729 6369,5729 6369,5765 6476,5765 6476,5802 6547,5802 6547,5765 6618,5765 6618,5692 6583,5692 6583,5656 6511,5656 6511,5583 6690,5583 6690,5765 6726,5765 6726,5838 7011,5838 7011,5765 7047,5765 7047,5729 7154,5729 7154,5765 7118,5765 7118,5911 6690,5911 6690,5875 6547,5875 6547,5911 6511,5911 6511,5875 6404,5875 6404,5911 6333,5911 6333,5948 6190,5948 6190,5911 6154,5911 6154,5875 6047,5875 6047,5911 5976,5911 5976,5948 5833,5948 5833,5911 5690,5911 5690,5875 5655,5875 5655,5911 5369,5911 5369,5802 5298,5802 5298,5875 5333,5875 5333,5911 5190,5911 5190,5984 5119,5984 5119,6020 4941,6020 4941,5984 4976,5984 4976,5948 4941,5948 4941,5911 4869,5911 4869,5765 4833,5765 4833,5619 4905,5619 4905,5656 4869,5656 4869,5729 5083,5729 5083,5765 5119,5765 5119,5656 5262,5656 5262,5692 5333,5692 5333,5656 5405,5656 5405,5583 5440,5583 5440,5547 5726,5547 5726,5510 5833,5510 5833,5547 5869,5547 5869,5583 5904,5583 5904,5510 6047,5510 6047,5547 6119,5547 6119,5583 "/>
   <polygon class="fil10" points="2370,14659 2334,14659 2334,14550 2263,14550 2263,14622 2227,14622 2227,14695 2263,14695 2263,14768 2227,14768 2227,14732 2192,14732 2192,14805 2334,14805 2334,14732 2370,14732 2370,15023 2406,15023 2406,15096 2370,15096 2370,15206 2299,15206 2299,15279 2334,15279 2334,15242 2370,15242 2370,15461 2299,15461 2299,15497 2263,15497 2263,15607 2227,15607 2227,15679 2192,15679 2192,15643 2156,15643 2156,15607 2120,15607 2120,15388 2085,15388 2085,15424 2049,15424 2049,15351 2085,15351 2085,15133 2156,15133 2156,15060 2085,15060 2085,14878 2049,14878 2049,14841 2013,14841 2013,15023 1977,15023 1977,14404 2013,14404 2013,14477 2049,14477 2049,14440 2085,14440 2085,14404 2120,14404 2120,14440 2156,14440 2156,14404 2192,14404 2192,14331 2227,14331 2227,14149 2299,14149 2299,14221 2334,14221 2334,14258 2370,14258 2370,14513 2406,14513 2406,14622 2370,14622 "/>
   <polygon class="fil11" points="16293,14477 16293,14513 16258,14513 16258,14550 16329,14550 16329,14659 16293,14659 16293,14695 16400,14695 16400,15096 16436,15096 16436,15424 16365,15424 16365,15679 16293,15679 16293,15752 16258,15752 16258,15716 16222,15716 16222,15752 16150,15752 16150,15716 16186,15716 16186,15534 16222,15534 16222,15461 16258,15461 16258,15424 16222,15424 16222,15279 16293,15279 16293,15206 16222,15206 16222,15133 16258,15133 16258,15169 16293,15169 16293,15060 16329,15060 16329,15023 16365,15023 16365,14841 16293,14841 16293,14878 16329,14878 16329,14987 16293,14987 16293,15023 16222,15023 16222,14950 16258,14950 16258,14841 16222,14841 16222,14878 16186,14878 16186,14732 16222,14732 16222,14659 16150,14659 16150,14586 16222,14586 16222,14477 16186,14477 16186,14404 16258,14404 16258,14477 "/>
   <polygon class="fil5" points="15508,16773 15508,16737 15615,16737 15615,16700 15651,16700 15651,16737 15686,16737 15686,16773 15793,16773 15793,16554 15829,16554 15829,16518 15865,16518 15865,16481 15936,16481 15936,16445 15972,16445 15972,16518 16008,16518 16008,16554 16043,16554 16043,16591 16008,16591 16008,16664 16043,16664 16043,16700 16008,16700 16008,16737 15865,16737 15865,16773 15829,16773 15829,16809 15793,16809 15793,16846 15865,16846 15865,16809 15901,16809 15901,16882 15829,16882 15829,16955 15901,16955 15901,17028 15865,17028 15865,17065 15972,17065 15972,17101 16008,17101 16008,17210 15972,17210 15972,17320 15829,17320 15829,17210 15686,17210 15686,17137 15722,17137 15722,17101 15651,17101 15651,16882 15579,16882 15579,16773 "/>
   <polygon class="fil12" points="2477,16117 2477,16008 2406,16008 2406,15971 2334,15971 2334,16008 2299,16008 2299,16044 2263,16044 2263,15971 2227,15971 2227,15935 2263,15935 2263,15898 2299,15898 2299,15825 2263,15825 2263,15789 2227,15789 2227,15752 2192,15752 2192,15789 2156,15789 2156,15825 2085,15825 2085,15716 2156,15716 2156,15679 2120,15679 2120,15643 2085,15643 2085,15607 2049,15607 2049,15424 2085,15424 2085,15388 2120,15388 2120,15607 2156,15607 2156,15643 2192,15643 2192,15679 2227,15679 2227,15607 2263,15607 2263,15497 2299,15497 2299,15461 2370,15461 2370,15279 2406,15279 2406,15206 2370,15206 2370,15096 2442,15096 2442,15242 2477,15242 2477,15351 2442,15351 2442,15534 2406,15534 2406,15570 2442,15570 2442,15716 2477,15716 2477,15825 2513,15825 2513,15971 2549,15971 2549,16080 2584,16080 2584,16117 "/>
   <polygon class="fil11" points="16507,12982 16472,12982 16472,13420 16436,13420 16436,13347 16400,13347 16400,13383 16365,13383 16365,13310 16436,13310 16436,13201 16400,13201 16400,13164 16365,13164 16365,13237 16293,13237 16293,13128 16222,13128 16222,13092 16258,13092 16258,13055 16293,13055 16293,12836 16186,12836 16186,12800 16222,12800 16222,12691 16258,12691 16258,12508 16186,12508 16186,12435 16258,12435 16258,12399 16329,12399 16329,12326 16365,12326 16365,12107 16400,12107 16400,12545 16436,12545 16436,12764 16472,12764 16472,12873 16507,12873 "/>
   <polygon class="fil10" points="2334,14039 2156,14039 2156,13966 2192,13966 2192,13930 2156,13930 2156,13893 2120,13893 2120,13930 2085,13930 2085,13966 2013,13966 2013,14003 1977,14003 1977,13893 1942,13893 1942,13711 1977,13711 1977,13638 1906,13638 1906,13493 2049,13493 2049,13456 2013,13456 2013,13420 1977,13420 1977,13347 2013,13347 2013,13274 2085,13274 2085,13310 2049,13310 2049,13383 2085,13383 2085,13493 2120,13493 2120,13529 2085,13529 2085,13565 2156,13565 2156,13784 2227,13784 2227,13711 2263,13711 2263,13638 2227,13638 2227,13456 2299,13456 2299,13638 2334,13638 2334,13821 2370,13821 2370,13930 2334,13930 "/>
   <polygon class="fil5" points="16400,13748 16400,13638 16472,13638 16472,13529 16507,13529 16507,13565 16543,13565 16543,13529 16615,13529 16615,13638 16686,13638 16686,13602 16757,13602 16757,13529 16829,13529 16829,13638 16864,13638 16864,13602 16900,13602 16900,13638 16972,13638 16972,13675 16900,13675 16900,13748 16972,13748 16972,13711 17043,13711 17043,13784 17007,13784 17007,13893 16900,13893 16900,13857 16864,13857 16864,13821 16615,13821 16615,13784 16579,13784 16579,13711 16507,13711 16507,13821 16472,13821 16472,13748 "/>
   <polygon class="fil13" points="16400,11561 16400,11597 16365,11597 16365,11743 16400,11743 16400,11998 16365,11998 16365,12107 16329,12107 16329,12071 16293,12071 16293,12290 16258,12290 16258,12253 16222,12253 16222,11998 16186,11998 16186,11852 16222,11852 16222,11743 16293,11743 16293,11707 16329,11707 16329,11634 16293,11634 16293,11597 16258,11597 16258,11451 16293,11451 16293,11415 16329,11415 16329,11561 "/>
   <polygon class="fil14" points="16365,14404 16293,14404 16293,14331 16329,14331 16329,14185 16293,14185 16293,13966 16222,13966 16222,13893 16293,13893 16293,13784 16222,13784 16222,13711 16258,13711 16258,13602 16222,13602 16222,13565 16258,13565 16258,13529 16293,13529 16293,13493 16329,13493 16329,13602 16365,13602 16365,13493 16400,13493 16400,14149 16365,14149 "/>
   <polygon class="fil15" points="15722,6531 15651,6531 15651,6458 15615,6458 15615,6421 15579,6421 15579,6348 15544,6348 15544,6312 15508,6312 15508,6276 15436,6276 15436,6239 15401,6239 15401,6203 15294,6203 15294,6239 15222,6239 15222,6166 15187,6166 15187,6130 15151,6130 15151,6093 15079,6093 15079,6057 15008,6057 15008,6020 14865,6020 14865,5984 14830,5984 14830,5948 14722,5948 14722,5875 14794,5875 14794,5911 14901,5911 14901,5948 15079,5948 15079,5984 15115,5984 15115,6020 15151,6020 15151,6057 15222,6057 15222,6093 15365,6093 15365,6130 15436,6130 15436,6166 15472,6166 15472,6203 15544,6203 15544,6239 15579,6239 15579,6312 15615,6312 15615,6348 15651,6348 15651,6385 15686,6385 15686,6458 15722,6458 "/>
   <polygon class="fil16" points="16186,8827 16186,8681 16150,8681 16150,8572 16186,8572 16186,8353 16222,8353 16222,8317 16258,8317 16258,8353 16329,8353 16329,8973 16258,8973 16258,8827 "/>
   <polygon class="fil17" points="16043,9447 16043,9556 16008,9556 16008,9665 16043,9665 16043,9738 15972,9738 15972,9702 15901,9702 15901,9775 15865,9775 15865,9738 15829,9738 15829,9264 15901,9264 15901,9228 15936,9228 15936,9337 15972,9337 15972,9374 15936,9374 15936,9410 15972,9410 15972,9447 "/>
   <polygon class="fil18" points="16864,9811 16829,9811 16829,9848 16864,9848 16864,9884 16900,9884 16900,9920 16936,9920 16936,9884 17007,9884 17007,9957 17043,9957 17043,9993 17114,9993 17114,9957 17150,9957 17150,10030 17114,10030 17114,10103 17079,10103 17079,10139 17043,10139 17043,10066 17007,10066 17007,10103 16972,10103 16972,10139 16936,10139 16936,10103 16829,10103 16829,10066 16864,10066 16864,10030 16829,10030 16829,9993 16864,9993 16864,9957 16615,9957 16615,9920 16722,9920 16722,9884 16650,9884 16650,9811 16757,9811 16757,9884 16793,9884 16793,9775 16829,9775 16829,9702 16864,9702 "/>
   <polygon class="fil19" points="2156,16263 2120,16263 2120,16008 2156,16008 2156,15971 2192,15971 2192,16008 2227,16008 2227,15971 2263,15971 2263,16044 2299,16044 2299,16008 2370,16008 2370,16044 2406,16044 2406,16080 2370,16080 2370,16117 2406,16117 2406,16153 2370,16153 2370,16190 2334,16190 2334,16263 2299,16263 2299,16408 2192,16408 2192,16190 2156,16190 "/>
   <polygon class="fil20" points="16579,8535 16615,8535 16615,8572 16686,8572 16686,8535 16757,8535 16757,8572 16793,8572 16793,8608 16757,8608 16757,8645 16829,8645 16829,8681 16864,8681 16864,8791 16829,8791 16829,8827 16793,8827 16793,8754 16722,8754 16722,8791 16686,8791 16686,8863 16615,8863 16615,8791 16579,8791 16579,8718 16543,8718 16543,8572 16507,8572 16507,8426 16579,8426 "/>
   <polygon class="fil18" points="17471,10978 17507,10978 17507,11014 17543,11014 17543,11050 17471,11050 17471,11123 17436,11123 17436,11160 17507,11160 17507,11123 17578,11123 17578,11196 17329,11196 17329,11160 17221,11160 17221,11233 17186,11233 17186,11306 17150,11306 17150,11196 17114,11196 17114,11233 17079,11233 17079,11306 16972,11306 16972,11269 16864,11269 16864,11233 17007,11233 17007,11196 17043,11196 17043,11160 17007,11160 17007,11123 17221,11123 17221,11087 17400,11087 17400,11050 17436,11050 17436,10978 17400,10978 17400,10941 17471,10941 "/>
   <polygon class="fil21" points="15936,13638 16008,13638 16008,13748 16043,13748 16043,13857 16008,13857 16008,14003 16115,14003 16115,14039 16008,14039 16008,14076 16043,14076 16043,14149 16115,14149 16115,14112 16150,14112 16150,14185 16115,14185 16115,14258 16079,14258 16079,14221 16008,14221 16008,14258 15901,14258 15901,14003 15936,14003 "/>
   <polygon class="fil22" points="2227,11561 2227,11707 2192,11707 2192,11634 2120,11634 2120,11707 2049,11707 2049,11816 2085,11816 2085,11852 2013,11852 2013,11816 1942,11816 1942,11779 1906,11779 1906,11852 1942,11852 1942,11889 1870,11889 1870,11670 1906,11670 1906,11707 1942,11707 1942,11743 2013,11743 2013,11415 2156,11415 2156,11561 "/>
   <polygon class="fil3" points="2263,14039 2263,14076 2227,14076 2227,14331 2156,14331 2156,14367 2120,14367 2120,14294 2085,14294 2085,14258 2013,14258 2013,14294 1977,14294 1977,14221 2120,14221 2120,14149 2085,14149 2085,14039 2049,14039 2049,14076 2013,14076 2013,14149 1977,14149 1977,14003 2013,14003 2013,13966 2085,13966 2085,13930 2120,13930 2120,13893 2156,13893 2156,13930 2192,13930 2192,13966 2156,13966 2156,14039 "/>
   <polygon class="fil23" points="15936,10905 15936,10832 15972,10832 15972,10649 15936,10649 15936,10394 16008,10394 16008,10686 16043,10686 16043,10722 16079,10722 16079,10832 16008,10832 16008,11233 15936,11233 15936,11196 15901,11196 15901,11050 15972,11050 15972,10905 "/>
   <polygon class="fil24" points="15686,15971 15686,15898 15793,15898 15793,15716 15901,15716 15901,15752 15865,15752 15865,15789 15936,15789 15936,15752 15972,15752 15972,15643 16008,15643 16008,15716 16043,15716 16043,15752 16008,15752 16008,15898 15936,15898 15936,15971 15758,15971 15758,16008 15722,16008 15722,15971 "/>
   <polygon class="fil25" points="2227,17101 2192,17101 2192,16737 2227,16737 2227,16700 2263,16700 2263,16664 2299,16664 2299,16627 2334,16627 2334,16737 2370,16737 2370,16919 2334,16919 2334,16955 2299,16955 2299,16992 2227,16992 "/>
   <polygon class="fil11" points="2549,16263 2549,16445 2477,16445 2477,16408 2442,16408 2442,16481 2477,16481 2477,16518 2513,16518 2513,16664 2477,16664 2477,16554 2370,16554 2370,16408 2406,16408 2406,16299 2442,16299 2442,16153 2477,16153 2477,16117 2549,16117 2549,16190 2513,16190 2513,16263 "/>
   <polygon class="fil18" points="17578,9520 17578,9483 17543,9483 17543,9447 17507,9447 17507,9483 17436,9483 17436,9447 17364,9447 17364,9410 17293,9410 17293,9374 17400,9374 17400,9301 17436,9301 17436,9264 17400,9264 17400,9228 17507,9228 17507,9337 17471,9337 17471,9374 17507,9374 17507,9410 17543,9410 17543,9301 17650,9301 17650,9264 17686,9264 17686,9337 17614,9337 17614,9447 17650,9447 17650,9483 17614,9483 17614,9520 "/>
   <polygon class="fil26" points="8403,19033 8403,19069 8368,19069 8368,19106 8261,19106 8261,18996 8154,18996 8154,18960 8118,18960 8118,18887 8225,18887 8225,18960 8296,18960 8296,18887 8261,18887 8261,18851 8332,18851 8332,18887 8368,18887 8368,18851 8439,18851 8439,18778 8475,18778 8475,18923 8368,18923 8368,19033 "/>
   <polygon class="fil27" points="4405,18559 4619,18559 4619,18632 4691,18632 4691,18595 4726,18595 4726,18559 4869,18559 4869,18705 4941,18705 4941,18741 4691,18741 4691,18668 4584,18668 4584,18595 4405,18595 "/>
   <polygon class="fil15" points="2263,9920 2192,9920 2192,9848 2120,9848 2120,9884 2085,9884 2085,9775 2120,9775 2120,9702 2156,9702 2156,9665 2192,9665 2192,9702 2263,9702 2263,9629 2227,9629 2227,9592 2263,9592 2263,9410 2299,9410 2299,9738 2263,9738 "/>
   <polygon class="fil28" points="14437,16627 14401,16627 14401,16664 14437,16664 14437,16700 14401,16700 14401,16737 14294,16737 14294,16700 14258,16700 14258,16809 14223,16809 14223,16846 14151,16846 14151,16809 14116,16809 14116,16700 14151,16700 14151,16664 14258,16664 14258,16591 14437,16591 "/>
   <polygon class="fil18" points="16722,10358 16829,10358 16829,10467 16900,10467 16900,10431 16936,10431 16936,10504 16972,10504 16972,10467 17043,10467 17043,10504 17114,10504 17114,10540 17007,10540 17007,10577 16900,10577 16900,10613 16829,10613 16829,10577 16864,10577 16864,10504 16757,10504 16757,10431 16650,10431 16650,10394 16686,10394 16686,10358 16650,10358 16650,10321 16722,10321 "/>
   <polygon class="fil29" points="2620,16809 2549,16809 2549,16846 2513,16846 2513,16773 2549,16773 2549,16627 2513,16627 2513,16518 2477,16518 2477,16481 2442,16481 2442,16408 2477,16408 2477,16445 2549,16445 2549,16336 2620,16336 2620,16481 2584,16481 2584,16627 2620,16627 "/>
   <polygon class="fil29" points="16115,7989 16115,8025 16150,8025 16150,8244 16186,8244 16186,8572 16115,8572 16115,8426 16079,8426 16079,8390 16115,8390 16115,8207 16079,8207 16079,8062 16043,8062 16043,7989 "/>
   <polygon class="fil18" points="17578,9520 17578,9592 17614,9592 17614,9811 17578,9811 17578,9738 17543,9738 17543,9811 17400,9811 17400,9738 17436,9738 17436,9665 17400,9665 17400,9556 17471,9556 17471,9702 17507,9702 17507,9665 17543,9665 17543,9629 17507,9629 17507,9556 17543,9556 17543,9520 "/>
   <polygon class="fil30" points="16043,16226 16008,16226 16008,16336 15972,16336 15972,16445 15936,16445 15936,16481 15865,16481 15865,16518 15758,16518 15758,16481 15793,16481 15793,16408 15829,16408 15829,16372 15865,16372 15865,16299 15936,16299 15936,16226 15972,16226 15972,16153 16008,16153 16008,16117 16079,16117 16079,16153 16043,16153 "/>
   <polygon class="fil11" points="2263,9920 2263,10030 2299,10030 2299,10103 2263,10103 2263,10176 2227,10176 2227,10139 2192,10139 2192,10103 2156,10103 2156,10139 2049,10139 2049,10176 2013,10176 2013,10285 1977,10285 1977,10321 1942,10321 1942,10212 1977,10212 1977,10066 2013,10066 2013,10103 2120,10103 2120,10066 2192,10066 2192,10030 2227,10030 2227,9957 2156,9957 2156,9848 2192,9848 2192,9920 "/>
   <polygon class="fil21" points="2049,14878 2085,14878 2085,15060 2156,15060 2156,15133 2085,15133 2085,15351 2013,15351 2013,14841 2049,14841 "/>
   <polygon class="fil31" points="8511,17684 8368,17684 8368,17721 8225,17721 8225,17757 7975,17757 7975,17721 8046,17721 8046,17684 8118,17684 8118,17648 8154,17648 8154,17684 8225,17684 8225,17648 8368,17648 8368,17611 8439,17611 8439,17575 8475,17575 8475,17611 8511,17611 "/>
   <polygon class="fil32" points="16329,10103 16365,10103 16365,10504 16258,10504 16258,10540 16222,10540 16222,10577 16150,10577 16150,10504 16186,10504 16186,10431 16293,10431 16293,10467 16329,10467 16329,10249 16293,10249 16293,10285 16222,10285 16222,10212 16258,10212 16258,10176 16329,10176 "/>
   <polygon class="fil33" points="1799,11342 1799,11087 1870,11087 1870,11050 1906,11050 1906,11014 1942,11014 1942,11342 1906,11342 1906,11306 1835,11306 1835,11342 "/>
   <polygon class="fil34" points="2727,7697 2727,7661 2691,7661 2691,7697 2620,7697 2620,7624 2584,7624 2584,7588 2656,7588 2656,7551 2691,7551 2691,7442 2834,7442 2834,7478 2799,7478 2799,7661 2763,7661 2763,7697 "/>
   <polygon class="fil28" points="4833,5692 4833,5765 4869,5765 4869,5911 4798,5911 4798,5875 4833,5875 4833,5838 4726,5838 4726,5802 4691,5802 4691,5729 4548,5729 4548,5692 4691,5692 4691,5656 4798,5656 4798,5692 "/>
   <polygon class="fil1" points="17079,13347 17007,13347 17007,13383 16972,13383 16972,13420 17007,13420 17007,13456 17079,13456 17079,13493 16936,13493 16936,13456 16864,13456 16864,13493 16793,13493 16793,13347 16936,13347 16936,13310 17079,13310 "/>
   <polygon class="fil35" points="17793,11306 17828,11306 17828,11488 17721,11488 17721,11451 17614,11451 17614,11378 17578,11378 17578,11342 17614,11342 17614,11306 17650,11306 17650,11269 17721,11269 17721,11378 17793,11378 "/>
   <polygon class="fil20" points="17293,8827 17364,8827 17364,8900 17507,8900 17507,9009 17400,9009 17400,8973 17329,8973 17329,8863 17293,8863 17293,8936 17221,8936 17221,8754 17293,8754 "/>
   <polygon class="fil22" points="2120,16008 2120,15935 2085,15935 2085,15825 2156,15825 2156,15789 2192,15789 2192,15752 2227,15752 2227,15789 2263,15789 2263,15825 2299,15825 2299,15898 2263,15898 2263,15935 2227,15935 2227,16008 2192,16008 2192,15971 2156,15971 2156,16008 "/>
   <polygon class="fil36" points="9367,18705 9332,18705 9332,18778 9296,18778 9296,18887 9153,18887 9153,18851 9189,18851 9189,18814 9225,18814 9225,18741 9260,18741 9260,18668 9296,18668 9296,18523 9367,18523 "/>
   <polygon class="fil37" points="2977,17866 3013,17866 3013,17903 3120,17903 3120,17939 3227,17939 3227,17976 3263,17976 3263,18012 3298,18012 3298,18085 3227,18085 3227,18049 3156,18049 3156,18012 3084,18012 3084,17976 3013,17976 3013,17939 2977,17939 2977,17903 2941,17903 2941,17866 2906,17866 2906,17830 2977,17830 "/>
   <polygon class="fil21" points="5333,5692 5262,5692 5262,5656 5119,5656 5119,5765 5083,5765 5083,5729 4869,5729 4869,5656 5048,5656 5048,5619 5333,5619 "/>
   <polygon class="fil38" points="6440,5583 6511,5583 6511,5656 6583,5656 6583,5692 6618,5692 6618,5765 6547,5765 6547,5802 6476,5802 6476,5765 6369,5765 6369,5729 6404,5729 6404,5656 6440,5656 "/>
   <polygon class="fil31" points="5940,18304 5940,18267 5904,18267 5904,18231 6012,18231 6012,18158 6083,18158 6083,18122 6119,18122 6119,18158 6226,18158 6226,18267 6012,18267 6012,18304 "/>
   <polygon class="fil31" points="4941,6020 4905,6020 4905,6057 4762,6057 4762,6020 4726,6020 4726,6057 4691,6057 4691,6093 4619,6093 4619,6020 4655,6020 4655,5984 4726,5984 4726,5948 4798,5948 4798,5984 4869,5984 4869,5911 4941,5911 4941,5948 4976,5948 4976,5984 4941,5984 "/>
   <polygon class="fil25" points="15008,16518 15008,16481 15187,16481 15187,16372 15222,16372 15222,16445 15294,16445 15294,16408 15329,16408 15329,16627 15294,16627 15294,16554 15258,16554 15258,16591 15187,16591 15187,16518 "/>
   <polygon class="fil39" points="11724,16846 11295,16846 11295,16882 11260,16882 11260,16809 11367,16809 11367,16773 11724,16773 "/>
   <polygon class="fil19" points="1835,12764 1799,12764 1799,12618 1835,12618 1835,12472 1799,12472 1799,12435 1870,12435 1870,12472 1942,12472 1942,12545 1977,12545 1977,12618 1942,12618 1942,12654 1835,12654 "/>
   <polygon class="fil18" points="16757,11415 16793,11415 16793,11378 16864,11378 16864,11488 16829,11488 16829,11524 16757,11524 16757,11561 16722,11561 16722,11415 16686,11415 16686,11488 16650,11488 16650,11342 16722,11342 16722,11306 16757,11306 "/>
   <polygon class="fil5" points="15258,16955 15258,16919 15365,16919 15365,16882 15401,16882 15401,16846 15472,16846 15472,16882 15436,16882 15436,16919 15508,16919 15508,16992 15401,16992 15401,17065 15294,17065 15294,16992 15329,16992 15329,16955 "/>
   <polygon class="fil19" points="2370,14659 2370,14732 2334,14732 2334,14805 2192,14805 2192,14732 2227,14732 2227,14768 2263,14768 2263,14695 2227,14695 2227,14622 2263,14622 2263,14550 2334,14550 2334,14659 "/>
   <polygon class="fil34" points="12545,6203 12545,6239 12331,6239 12331,6166 12188,6166 12188,6130 12223,6130 12223,6093 12295,6093 12295,6020 12366,6020 12366,6057 12331,6057 12331,6093 12366,6093 12366,6130 12402,6130 12402,6203 "/>
   <polygon class="fil40" points="10867,5692 10867,5729 10903,5729 10903,5765 10795,5765 10795,5802 10724,5802 10724,5765 10581,5765 10581,5802 10510,5802 10510,5729 10545,5729 10545,5692 10617,5692 10617,5729 10724,5729 10724,5692 "/>
   <polygon class="fil41" points="15579,16737 15579,16664 15651,16664 15651,16627 15686,16627 15686,16591 15793,16591 15793,16773 15686,16773 15686,16737 15651,16737 15651,16700 15615,16700 15615,16737 "/>
   <polygon class="fil42" points="2192,14331 2192,14404 2156,14404 2156,14440 2120,14440 2120,14404 2085,14404 2085,14440 2049,14440 2049,14477 2013,14477 2013,14404 1977,14404 1977,14294 2013,14294 2013,14258 2085,14258 2085,14294 2120,14294 2120,14367 2156,14367 2156,14331 "/>
   <polygon class="fil43" points="16293,9665 16186,9665 16186,9520 16222,9520 16222,9447 16293,9447 16293,9410 16365,9410 16365,9483 16329,9483 16329,9520 16293,9520 "/>
   <polygon class="fil43" points="16793,15643 16900,15643 16900,15679 16936,15679 16936,15716 16972,15716 16972,15752 16829,15752 16829,15716 16793,15716 16793,15679 16757,15679 16757,15752 16686,15752 16686,15607 16793,15607 "/>
   <polygon class="fil44" points="16400,10868 16400,11087 16329,11087 16329,11050 16186,11050 16186,10978 16258,10978 16258,11014 16293,11014 16293,10905 16365,10905 16365,10868 "/>
   <polygon class="fil25" points="2763,18267 2727,18267 2727,18231 2620,18231 2620,18194 2691,18194 2691,18158 2656,18158 2656,18085 2691,18085 2691,18049 2834,18049 2834,18085 2799,18085 2799,18194 2763,18194 "/>
   <polygon class="fil28" points="2227,12472 2192,12472 2192,12399 2120,12399 2120,12472 2085,12472 2085,12399 2049,12399 2049,12326 2085,12326 2085,12253 2120,12253 2120,12290 2156,12290 2156,12217 2192,12217 2192,12326 2227,12326 "/>
   <polygon class="fil23" points="15865,14367 15972,14367 15972,14331 16008,14331 16008,14404 15972,14404 15972,14659 15901,14659 15901,14440 15865,14440 "/>
   <polygon class="fil28" points="11688,5911 11617,5911 11617,6057 11474,6057 11474,5984 11545,5984 11545,5875 11581,5875 11581,5838 11688,5838 "/>
   <polygon class="fil45" points="16293,16445 16329,16445 16329,16518 16293,16518 16293,16481 16222,16481 16222,16554 16150,16554 16150,16481 16115,16481 16115,16408 16150,16408 16150,16372 16222,16372 16222,16408 16258,16408 16258,16372 16293,16372 "/>
   <polygon class="fil33" points="1977,14294 1942,14294 1942,14076 1977,14076 1977,14149 2013,14149 2013,14076 2049,14076 2049,14039 2085,14039 2085,14149 2120,14149 2120,14221 1977,14221 "/>
   <polygon class="fil43" points="17329,10759 17257,10759 17257,10868 17221,10868 17221,10905 17150,10905 17150,10941 17043,10941 17043,10868 17150,10868 17150,10832 17186,10832 17186,10795 17221,10795 17221,10722 17257,10722 17257,10686 17329,10686 "/>
   <polygon class="fil34" points="15901,11524 15901,11451 16043,11451 16043,11779 15972,11779 15972,11634 16008,11634 16008,11524 15972,11524 15972,11488 15936,11488 15936,11524 "/>
   <polygon class="fil23" points="15722,8062 15722,7952 15686,7952 15686,7843 15651,7843 15651,7770 15686,7770 15686,7697 15793,7697 15793,7734 15722,7734 15722,7806 15758,7806 15758,8062 "/>
   <polygon class="fil39" points="10653,6166 10653,6093 10795,6093 10795,6130 10831,6130 10831,6166 10903,6166 10903,6276 10831,6276 10831,6239 10795,6239 10795,6203 10760,6203 10760,6166 "/>
   <polygon class="fil46" points="15544,7187 15579,7187 15579,7223 15615,7223 15615,7260 15651,7260 15651,7369 15686,7369 15686,7442 15615,7442 15615,7405 15544,7405 "/>
   <polygon class="fil47" points="3013,6932 3084,6932 3084,7114 3013,7114 3013,6968 2941,6968 2941,6822 3013,6822 "/>
   <polygon class="fil48" points="2192,11123 2192,11160 2156,11160 2156,11196 2227,11196 2227,11306 2120,11306 2120,11160 2049,11160 2049,11050 2120,11050 2120,11123 "/>
   <polygon class="fil49" points="2584,8134 2584,8171 2549,8171 2549,8207 2513,8207 2513,8317 2477,8317 2477,8244 2442,8244 2442,8171 2406,8171 2406,8098 2477,8098 2477,8062 2513,8062 2513,8098 2549,8098 2549,8134 "/>
   <polygon class="fil50" points="15936,13565 15936,13493 15972,13493 15972,13274 16043,13274 16043,13529 16008,13529 16008,13565 "/>
   <polygon class="fil51" points="7475,5619 7475,5692 7297,5692 7297,5729 7261,5729 7261,5765 7190,5765 7190,5692 7261,5692 7261,5619 "/>
   <polygon class="fil37" points="12402,16627 12402,16700 12366,16700 12366,16737 12223,16737 12223,16773 12152,16773 12152,16664 12366,16664 12366,16627 "/>
   <polygon class="fil49" points="16079,16153 16079,16080 16043,16080 16043,16008 16186,16008 16186,15971 16222,15971 16222,16117 16115,16117 16115,16153 "/>
   <polygon class="fil52" points="16436,12581 16436,12545 16400,12545 16400,12472 16579,12472 16579,12581 16543,12581 16543,12618 16472,12618 16472,12581 "/>
   <polygon class="fil53" points="16079,7879 16043,7879 16043,7916 16008,7916 16008,7806 15936,7806 15936,7734 16008,7734 16008,7697 16043,7697 16043,7734 16079,7734 16079,7770 16115,7770 16115,7806 16079,7806 "/>
   <polygon class="fil33" points="2727,6822 2727,6786 2799,6786 2799,6749 2834,6749 2834,6713 2941,6713 2941,6786 2906,6786 2906,6822 2870,6822 2870,6859 2763,6859 2763,6822 "/>
   <polygon class="fil54" points="6511,18194 6511,18158 6547,18158 6547,18122 6690,18122 6690,18194 6654,18194 6654,18231 6618,18231 6618,18267 6547,18267 6547,18194 "/>
   <polygon class="fil55" points="5333,5656 5333,5619 5083,5619 5083,5583 5333,5583 5333,5547 5440,5547 5440,5583 5405,5583 5405,5656 "/>
   <polygon class="fil40" points="13544,16992 13509,16992 13509,17028 13402,17028 13402,16992 13330,16992 13330,16919 13437,16919 13437,16955 13509,16955 13509,16919 13580,16919 13580,16955 13544,16955 "/>
   <polygon class="fil21" points="8046,17320 8046,17429 7868,17429 7868,17356 7939,17356 7939,17320 "/>
   <polygon class="fil28" points="13259,16773 13080,16773 13080,16700 13152,16700 13152,16664 13259,16664 "/>
   <polygon class="fil18" points="16507,7697 16472,7697 16472,7734 16436,7734 16436,7697 16365,7697 16365,7624 16436,7624 16436,7551 16507,7551 "/>
   <polygon class="fil56" points="4476,6130 4405,6130 4405,6166 4369,6166 4369,6130 4334,6130 4334,5984 4369,5984 4369,6020 4405,6020 4405,5984 4441,5984 4441,6093 4476,6093 "/>
   <polygon class="fil50" points="1906,9301 1906,9228 1942,9228 1942,9082 2013,9082 2013,9264 1977,9264 1977,9301 "/>
   <polygon class="fil21" points="12545,17065 12366,17065 12366,16992 12331,16992 12331,16955 12438,16955 12438,16992 12545,16992 "/>
   <polygon class="fil31" points="10296,17393 10296,17320 10331,17320 10331,17283 10403,17283 10403,17247 10474,17247 10474,17356 10367,17356 10367,17393 "/>
   <polygon class="fil41" points="16258,9264 16258,9228 16293,9228 16293,9155 16329,9155 16329,9119 16365,9119 16365,9155 16436,9155 16436,9228 16400,9228 16400,9264 "/>
   <polygon class="fil38" points="1835,10905 1835,10832 1870,10832 1870,10795 1906,10795 1906,10759 1977,10759 1977,10905 "/>
   <polygon class="fil56" points="5440,5911 5440,5948 5190,5948 5190,5911 5333,5911 5333,5875 5298,5875 5298,5802 5369,5802 5369,5911 "/>
   <polygon class="fil57" points="8154,18996 8261,18996 8261,19106 8082,19106 8082,19069 8118,19069 8118,19033 8154,19033 "/>
   <polygon class="fil58" points="15972,10394 15936,10394 15936,10649 15901,10649 15901,10249 15936,10249 15936,10358 15972,10358 "/>
   <polygon class="fil39" points="8332,5948 8118,5948 8118,5875 8332,5875 "/>
   <polygon class="fil23" points="2477,17939 2406,17939 2406,17903 2370,17903 2370,17830 2334,17830 2334,17794 2299,17794 2299,17721 2370,17721 2370,17794 2406,17794 2406,17866 2477,17866 "/>
   <polygon class="fil11" points="6618,18122 6547,18122 6547,18158 6511,18158 6511,18085 6583,18085 6583,17976 6690,17976 6690,18049 6654,18049 6654,18085 6618,18085 "/>
   <polygon class="fil59" points="7547,17429 7689,17429 7689,17393 7761,17393 7761,17465 7689,17465 7689,17502 7547,17502 "/>
   <polygon class="fil36" points="7868,19106 7904,19106 7904,19179 7797,19179 7797,19215 7725,19215 7725,19142 7797,19142 7797,19069 7868,19069 "/>
   <polygon class="fil20" points="8154,19106 8154,19142 7975,19142 7975,19106 8011,19106 8011,19033 8082,19033 8082,18996 8154,18996 8154,19033 8118,19033 8118,19069 8082,19069 8082,19106 "/>
   <polygon class="fil60" points="15901,15242 15936,15242 15936,15206 15972,15206 15972,15279 16008,15279 16008,15315 15972,15315 15972,15388 15936,15388 15936,15461 15901,15461 "/>
   <polygon class="fil33" points="13045,6166 12973,6166 12973,6239 12902,6239 12902,6166 12937,6166 12937,6093 13009,6093 13009,6057 13045,6057 "/>
   <polygon class="fil61" points="15329,16919 15258,16919 15258,16955 15222,16955 15222,16809 15258,16809 15258,16773 15329,16773 15329,16846 15294,16846 15294,16882 15329,16882 "/>
   <polygon class="fil55" points="1906,9848 1870,9848 1870,9592 1906,9592 1906,9702 2049,9702 2049,9738 1906,9738 "/>
   <polygon class="fil50" points="1942,10285 1942,10321 1906,10321 1906,10467 1870,10467 1870,10431 1835,10431 1835,10285 1870,10285 1870,10249 1906,10249 1906,10285 "/>
   <polygon class="fil37" points="8011,5948 7832,5948 7832,5875 8011,5875 "/>
   <polygon class="fil62" points="3263,6786 3263,6676 3334,6676 3334,6640 3405,6640 3405,6713 3370,6713 3370,6749 3298,6749 3298,6786 "/>
   <polygon class="fil41" points="16579,14987 16543,14987 16543,15023 16436,15023 16436,14987 16472,14987 16472,14950 16507,14950 16507,14878 16579,14878 "/>
   <polygon class="fil50" points="15508,7114 15508,7077 15472,7077 15472,6895 15508,6895 15508,6968 15544,6968 15544,7077 15579,7077 15579,7114 "/>
   <polygon class="fil38" points="14722,5948 14722,5984 14794,5984 14794,6093 14722,6093 14722,6020 14651,6020 14651,5948 "/>
   <polygon class="fil32" points="16258,15935 16258,15825 16293,15825 16293,15789 16329,15789 16329,15898 16365,15898 16365,15971 16293,15971 16293,15935 "/>
   <polygon class="fil5" points="14401,17830 14330,17830 14330,17866 14258,17866 14258,17757 14401,17757 "/>
   <polygon class="fil39" points="4976,18122 4976,18194 4798,18194 4798,18122 "/>
   <polygon class="fil63" points="16400,11087 16400,11160 16365,11160 16365,11233 16329,11233 16329,11160 16293,11160 16293,11050 16329,11050 16329,11087 "/>
   <polygon class="fil39" points="11045,6239 11045,6166 11117,6166 11117,6130 11188,6130 11188,6203 11152,6203 11152,6239 "/>
   <polygon class="fil34" points="6226,5583 6333,5583 6333,5692 6226,5692 "/>
   <polygon class="fil64" points="2263,17429 2227,17429 2227,17320 2263,17320 2263,17283 2370,17283 2370,17356 2263,17356 "/>
   <polygon class="fil56" points="3691,6494 3691,6531 3548,6531 3548,6494 3513,6494 3513,6458 3548,6458 3548,6421 3620,6421 3620,6494 "/>
   <polygon class="fil26" points="8475,18996 8475,18923 8511,18923 8511,18851 8546,18851 8546,18887 8582,18887 8582,18996 "/>
   <polygon class="fil65" points="17400,10249 17329,10249 17329,10394 17293,10394 17293,10285 17221,10285 17221,10249 17293,10249 17293,10212 17400,10212 "/>
   <polygon class="fil57" points="9617,5692 9689,5692 9689,5765 9653,5765 9653,5802 9546,5802 9546,5729 9617,5729 "/>
   <polygon class="fil66" points="16686,10905 16579,10905 16579,10795 16686,10795 "/>
   <polygon class="fil40" points="3905,5948 3905,6020 3798,6020 3798,6057 3762,6057 3762,5948 "/>
   <polygon class="fil31" points="7225,17939 7190,17939 7190,17976 7083,17976 7083,17903 7154,17903 7154,17866 7225,17866 "/>
   <polygon class="fil23" points="15972,11451 15901,11451 15901,11378 15936,11378 15936,11342 16043,11342 16043,11415 15972,11415 "/>
   <polygon class="fil62" points="2227,14149 2227,14076 2263,14076 2263,14039 2334,14039 2334,14149 "/>
   <polygon class="fil64" points="1906,13493 1906,13383 1942,13383 1942,13420 2013,13420 2013,13456 2049,13456 2049,13493 "/>
   <polygon class="fil62" points="16222,8827 16222,8973 16150,8973 16150,8827 "/>
   <polygon class="fil67" points="2263,10795 2263,10722 2370,10722 2370,10832 2299,10832 2299,10795 "/>
   <polygon class="fil57" points="2227,17210 2227,17101 2334,17101 2334,17210 2299,17210 2299,17174 2263,17174 2263,17210 "/>
   <polygon class="fil37" points="12009,17065 11974,17065 11974,17101 11902,17101 11902,17028 11974,17028 11974,16992 12009,16992 12009,16955 12045,16955 12045,17028 12009,17028 "/>
   <polygon class="fil39" points="12509,5875 12580,5875 12580,5911 12616,5911 12616,5984 12545,5984 12545,5948 12473,5948 12473,5911 12509,5911 "/>
   <polygon class="fil28" points="13866,16664 13901,16664 13901,16700 13937,16700 13937,16737 13830,16737 13830,16700 13794,16700 13794,16627 13866,16627 "/>
   <polygon class="fil23" points="6369,17757 6511,17757 6511,17830 6369,17830 "/>
   <polygon class="fil56" points="11331,17137 11295,17137 11295,17174 11260,17174 11260,17065 11224,17065 11224,17028 11331,17028 "/>
   <polygon class="fil47" points="2406,9119 2370,9119 2370,9155 2299,9155 2299,9046 2406,9046 "/>
   <polygon class="fil42" points="16150,15862 16186,15862 16186,15935 16150,15935 16150,15898 16079,15898 16079,15789 16150,15789 "/>
   <polygon class="fil68" points="16793,12545 16757,12545 16757,12581 16686,12581 16686,12472 16793,12472 "/>
   <polygon class="fil57" points="8475,18923 8475,18996 8439,18996 8439,19033 8368,19033 8368,18923 "/>
   <polygon class="fil33" points="12723,16700 12759,16700 12759,16773 12688,16773 12688,16737 12652,16737 12652,16664 12723,16664 "/>
   <polygon class="fil34" points="2013,10467 2120,10467 2120,10540 2049,10540 2049,10504 1977,10504 1977,10431 2013,10431 "/>
   <polygon class="fil37" points="3834,6385 3834,6312 3870,6312 3870,6276 3941,6276 3941,6348 3905,6348 3905,6385 "/>
   <polygon class="fil62" points="2656,16955 2656,17028 2549,17028 2549,16955 2584,16955 2584,16919 2620,16919 2620,16955 "/>
   <polygon class="fil69" points="2334,7588 2334,7551 2370,7551 2370,7515 2442,7515 2442,7624 2370,7624 2370,7588 "/>
   <polygon class="fil70" points="1870,9957 1870,9848 1906,9848 1906,9884 1977,9884 1977,9957 "/>
   <polygon class="fil23" points="2977,6421 3120,6421 3120,6458 3084,6458 3084,6494 2977,6494 "/>
   <polygon class="fil39" points="9689,17465 9582,17465 9582,17393 9689,17393 "/>
   <polygon class="fil71" points="15972,16408 15972,16336 16008,16336 16008,16226 16043,16226 16043,16372 16008,16372 16008,16408 "/>
   <polygon class="fil72" points="16365,10686 16329,10686 16329,10613 16436,10613 16436,10577 16472,10577 16472,10649 16365,10649 "/>
   <polygon class="fil73" points="16258,10868 16258,10795 16293,10795 16293,10759 16365,10759 16365,10832 16293,10832 16293,10868 "/>
   <polygon class="fil39" points="12545,6203 12652,6203 12652,6276 12545,6276 "/>
   <polygon class="fil48" points="13759,6239 13651,6239 13651,6166 13759,6166 "/>
   <polygon class="fil69" points="7083,5583 7154,5583 7154,5692 7083,5692 "/>
   <polygon class="fil40" points="9225,5656 9332,5656 9332,5729 9225,5729 "/>
   <polygon class="fil63" points="16329,10103 16293,10103 16293,10030 16222,10030 16222,9957 16258,9957 16258,9993 16329,9993 "/>
   <polygon class="fil40" points="14473,16518 14580,16518 14580,16591 14473,16591 "/>
   <polygon class="fil28" points="15579,16518 15615,16518 15615,16554 15544,16554 15544,16591 15508,16591 15508,16481 15579,16481 "/>
   <polygon class="fil74" points="10189,18668 10081,18668 10081,18595 10189,18595 "/>
   <polygon class="fil50" points="15651,7624 15651,7515 15686,7515 15686,7551 15722,7551 15722,7588 15758,7588 15758,7624 "/>
   <polygon class="fil49" points="3977,6312 3941,6312 3941,6276 3905,6276 3905,6239 3941,6239 3941,6203 4012,6203 4012,6276 3977,6276 "/>
   <polygon class="fil69" points="15972,14258 15972,14367 15936,14367 15936,14294 15865,14294 15865,14221 15901,14221 15901,14258 "/>
   <polygon class="fil69" points="2120,13857 2049,13857 2049,13748 2120,13748 "/>
   <polygon class="fil75" points="16043,16190 16043,16153 16115,16153 16115,16117 16186,16117 16186,16190 "/>
   <polygon class="fil62" points="2406,8973 2334,8973 2334,8863 2406,8863 "/>
   <polygon class="fil40" points="12152,17065 12152,16992 12259,16992 12259,17028 12223,17028 12223,17065 "/>
   <polygon class="fil76" points="2656,16955 2620,16955 2620,16882 2584,16882 2584,16809 2620,16809 2620,16846 2656,16846 "/>
   <polygon class="fil77" points="15722,8062 15686,8062 15686,7989 15651,7989 15651,7916 15686,7916 15686,7952 15722,7952 "/>
   <polygon class="fil78" points="2620,7296 2584,7296 2584,7333 2549,7333 2549,7223 2620,7223 "/>
   <polygon class="fil59" points="5904,17903 6012,17903 6012,17939 5976,17939 5976,17976 5904,17976 "/>
   <polygon class="fil79" points="2584,16263 2513,16263 2513,16190 2620,16190 2620,16226 2584,16226 "/>
   <polygon class="fil49" points="2370,15279 2370,15242 2334,15242 2334,15279 2299,15279 2299,15206 2406,15206 2406,15279 "/>
   <polygon class="fil56" points="2263,17538 2263,17465 2334,17465 2334,17502 2370,17502 2370,17538 "/>
   <polygon class="fil72" points="2620,17137 2620,17210 2513,17210 2513,17174 2549,17174 2549,17137 "/>
   <polygon class="fil77" points="15936,12472 15936,12363 15972,12363 15972,12399 16008,12399 16008,12472 "/>
   <polygon class="fil56" points="13437,6312 13366,6312 13366,6239 13402,6239 13402,6203 13437,6203 "/>
   <polygon class="fil64" points="14901,16627 14901,16591 15008,16591 15008,16664 14937,16664 14937,16627 "/>
   <polygon class="fil58" points="15294,16336 15294,16299 15365,16299 15365,16226 15401,16226 15401,16336 "/>
   <polygon class="fil80" points="15936,10832 15936,10649 15972,10649 15972,10832 "/>
   <polygon class="fil34" points="2834,17903 2763,17903 2763,17830 2834,17830 "/>
   <polygon class="fil64" points="7475,17611 7404,17611 7404,17538 7475,17538 "/>
   <polygon class="fil40" points="11795,5802 11866,5802 11866,5875 11795,5875 "/>
   <polygon class="fil59" points="2227,17101 2227,17028 2299,17028 2299,17101 "/>
   <polygon class="fil31" points="5583,18413 5583,18340 5655,18340 5655,18413 "/>
   <polygon class="fil23" points="14830,16554 14901,16554 14901,16627 14830,16627 "/>
   <polygon class="fil60" points="15329,6640 15401,6640 15401,6713 15329,6713 "/>
   <polygon class="fil81" points="16293,14477 16293,14404 16365,14404 16365,14477 "/>
   <polygon class="fil75" points="2799,7588 2799,7478 2870,7478 2870,7515 2834,7515 2834,7588 "/>
   <polygon class="fil82" points="2370,17903 2334,17903 2334,17866 2299,17866 2299,17794 2334,17794 2334,17830 2370,17830 "/>
   <polygon class="fil78" points="15793,6604 15722,6604 15722,6494 15758,6494 15758,6567 15793,6567 "/>
   <polygon class="fil83" points="5619,18012 5619,17903 5690,17903 5690,17939 5655,17939 5655,18012 "/>
   <polygon class="fil61" points="2013,10613 1942,10613 1942,10540 2013,10540 "/>
   <polygon class="fil84" points="15865,14367 15865,14294 15936,14294 15936,14367 "/>
   <polygon class="fil62" points="6868,5583 6940,5583 6940,5656 6868,5656 "/>
   <polygon class="fil30" points="2799,17684 2727,17684 2727,17611 2799,17611 "/>
   <polygon class="fil50" points="1906,13638 1977,13638 1977,13711 1906,13711 "/>
   <polygon class="fil73" points="16258,10868 16258,10941 16186,10941 16186,10868 "/>
   <polygon class="fil34" points="15758,6786 15686,6786 15686,6713 15758,6713 "/>
   <polygon class="fil40" points="12830,5948 12902,5948 12902,6020 12830,6020 "/>
   <polygon class="fil23" points="1942,8900 2013,8900 2013,8973 1942,8973 "/>
   <polygon class="fil39" points="15936,10321 15936,10249 16008,10249 16008,10321 "/>
   <polygon class="fil56" points="16222,11050 16293,11050 16293,11123 16222,11123 "/>
   <polygon class="fil85" points="12688,5911 12759,5911 12759,5984 12688,5984 "/>
   <polygon class="fil42" points="16150,15716 16079,15716 16079,15643 16150,15643 "/>
   <polygon class="fil80" points="15936,11050 15936,10905 15972,10905 15972,11050 "/>
   <polygon class="fil78" points="6690,5729 6690,5692 6726,5692 6726,5656 6761,5656 6761,5729 "/>
   <polygon class="fil86" points="2085,15716 2085,15643 2120,15643 2120,15679 2156,15679 2156,15716 "/>
   <polygon class="fil56" points="2691,17903 2656,17903 2656,17866 2620,17866 2620,17830 2691,17830 "/>
   <polygon class="fil87" points="2620,16336 2549,16336 2549,16263 2584,16263 2584,16299 2620,16299 "/>
   <polygon class="fil88" points="16293,14477 16329,14477 16329,14550 16258,14550 16258,14513 16293,14513 "/>
   <polygon class="fil80" points="15936,10832 15936,10905 15901,10905 15901,10832 "/>
  </g>
 </g>
</svg>
