<?xml version="1.0" encoding="UTF-8"?>
<!DOCTYPE svg PUBLIC "-//W3C//DTD SVG 1.1//EN" "http://www.w3.org/Graphics/SVG/1.1/DTD/svg11.dtd">
<!-- Creator: CorelDRAW X8 -->
<svg xmlns="http://www.w3.org/2000/svg" xml:space="preserve" width="210mm" height="297mm" version="1.1" style="shape-rendering:geometricPrecision; text-rendering:geometricPrecision; image-rendering:optimizeQuality; fill-rule:evenodd; clip-rule:evenodd"
viewBox="0 0 21000 29700"
 xmlns:xlink="http://www.w3.org/1999/xlink">
 <defs>
  <style type="text/css">
   <![CDATA[
    .fil58 {fill:#170409}
    .fil77 {fill:#1C141A}
    .fil79 {fill:#250B18}
    .fil48 {fill:#26161B}
    .fil39 {fill:#271826}
    .fil10 {fill:#2B1C24}
    .fil72 {fill:#2E1932}
    .fil40 {fill:#33242C}
    .fil19 {fill:#342532}
    .fil42 {fill:#351C28}
    .fil9 {fill:#352A33}
    .fil78 {fill:#373539}
    .fil38 {fill:#38272A}
    .fil50 {fill:#392B44}
    .fil18 {fill:#3B2533}
    .fil4 {fill:#3B2C34}
    .fil74 {fill:#3C2D3B}
    .fil44 {fill:#432C34}
    .fil3 {fill:#432D3B}
    .fil2 {fill:#43333C}
    .fil36 {fill:#443443}
    .fil6 {fill:#49343D}
    .fil47 {fill:#4A4347}
    .fil5 {fill:#4B3543}
    .fil61 {fill:#4B3B44}
    .fil14 {fill:#4C3C4B}
    .fil13 {fill:#533C4A}
    .fil17 {fill:#53434C}
    .fil15 {fill:#544453}
    .fil55 {fill:#563B54}
    .fil46 {fill:#57475B}
    .fil59 {fill:#5A4A64}
    .fil12 {fill:#5B4453}
    .fil43 {fill:#5B4B54}
    .fil26 {fill:#5C4C5B}
    .fil81 {fill:#5C6691}
    .fil24 {fill:#634C5C}
    .fil45 {fill:#63535C}
    .fil20 {fill:#645463}
    .fil23 {fill:#654C63}
    .fil62 {fill:#67565A}
    .fil27 {fill:#685867}
    .fil65 {fill:#696369}
    .fil49 {fill:#6B6775}
    .fil31 {fill:#6F5B72}
    .fil35 {fill:#745A69}
    .fil76 {fill:#75656B}
    .fil68 {fill:#7589A5}
    .fil41 {fill:#786876}
    .fil63 {fill:#7A727A}
    .fil51 {fill:#836A78}
    .fil67 {fill:#86767A}
    .fil53 {fill:#887986}
    .fil70 {fill:#8B838A}
    .fil69 {fill:#8E6F6D}
    .fil54 {fill:#8F768B}
    .fil22 {fill:#968789}
    .fil57 {fill:#978A96}
    .fil56 {fill:#9B9399}
    .fil75 {fill:#9F847E}
    .fil66 {fill:#A69799}
    .fil71 {fill:#A89AA5}
    .fil80 {fill:#AB9090}
    .fil82 {fill:#ABA3A9}
    .fil73 {fill:#B1ADB1}
    .fil30 {fill:#B5A59B}
    .fil64 {fill:#B6CCE0}
    .fil29 {fill:#B7A8A9}
    .fil16 {fill:#B7ABB4}
    .fil32 {fill:#BBB4B8}
    .fil11 {fill:#C5B5AB}
    .fil28 {fill:#C7BAB7}
    .fil33 {fill:#CCC3BB}
    .fil60 {fill:#CDC4C3}
    .fil25 {fill:#D4CBC4}
    .fil8 {fill:#D5CCCB}
    .fil52 {fill:#DACDC4}
    .fil34 {fill:#DCD3CC}
    .fil7 {fill:#DCD3D3}
    .fil37 {fill:#E4DCDB}
    .fil21 {fill:#E8E4E9}
    .fil1 {fill:#EAE5DE}
    .fil0 {fill:#FEFEFE}
   ]]>
  </style>
 </defs>
 <g id="Ebene_x0020_1">
  <metadata id="CorelCorpID_0Corel-Layer"/>
  <g id="_1565600187616">
   <path class="fil0" d="M13651 4229l156 -2 196 7c91,-1 161,15 245,27 58,8 102,-22 211,-14l121 4c87,7 159,1 221,8 41,4 206,17 227,15l166 -11 104 29c27,-15 19,-1 52,-34 26,23 -6,13 52,23 2,0 60,1 61,1 18,10 263,26 321,37 106,20 185,30 289,51l99 -8c1,-4 6,-2 9,-4 60,46 58,24 144,37l65 -8 53 16 554 20c38,9 117,-2 183,1l60 -2 163 7 77 -11c30,-12 0,-10 48,-7 22,1 86,15 111,16 39,3 89,-7 120,-4 99,10 -41,31 94,8 234,-39 358,21 445,6l399 38 100 18 121 14c52,40 95,29 183,67l81 38c249,122 94,180 219,196l20 97 -9 51 26 25c-8,84 -24,116 16,159 -44,87 -23,124 -12,216 -30,28 -5,106 -9,159 -18,119 -15,119 -11,244l13 301c7,67 14,58 31,79l-9 3c3,34 -7,27 25,27l-23 43 -1 130 -1 29c-30,57 -30,73 -31,145l2 0c-28,36 -18,2 -25,70 -3,109 -33,188 -64,275 -13,35 -15,32 -29,58l-70 184 -77 105c-21,75 -14,32 -50,104 -35,40 -51,67 -65,108 -24,17 -41,33 -58,49 -25,13 -39,19 -80,20l-49 88c-14,14 -14,11 -27,28 -20,25 -6,6 -24,38 -74,1 -23,-3 -42,25 -21,10 -6,-2 -29,16 -7,5 -26,23 -37,32 -38,35 -33,34 -85,56l-24 23 -572 174c-52,6 -94,12 -138,22l-227 52 -10 6c-11,-31 -51,-24 -82,-14 -90,28 -224,75 -306,40 -69,56 -65,15 -123,58 -76,7 -57,9 -120,-7l-25 9c-143,14 -103,41 -193,54l-50 7c-2,0 -7,-3 -9,-4l-56 -2c-23,17 -4,6 -31,21 -42,-16 -245,-7 -284,-8 -47,-3 -94,-10 -142,-11 -85,16 -116,19 -181,-27 -81,29 -50,44 -148,26 -33,-40 -111,0 -145,-2 -22,-1 -94,-38 -124,-11l-252 -8c-65,-1 -373,-76 -424,2l-24 -33c-90,-6 -203,4 -270,1 -102,-4 -145,-67 -243,-43l-87 -1c-201,-37 -204,-59 -260,-6 -136,-84 -338,-19 -451,-80l-23 14c-81,-28 -71,-3 -168,-2l2 -13c-175,-4 -337,-30 -536,-8l-107 -15 -83 1 -71 -5 -644 -15c-86,6 2,18 -90,7 -47,-6 -87,-9 -135,-6 -160,8 -315,-9 -468,-25 -74,-8 -404,-52 -417,-44l-95 -3c-88,-42 -90,-7 -231,-38 -137,-30 7,-27 -179,-17 -184,10 -181,-51 -414,-35l-278 23c-56,2 -101,18 -134,16l-143 -16 -34 21 -35 -18 -460 38c-24,-3 -61,-12 -95,-11 -198,3 -872,98 -1004,87 -127,12 -282,29 -418,20 -255,-17 -92,32 -382,30 -772,-3 -646,-58 -1524,168 -126,32 -443,162 -570,243l-45 34c-89,-4 -86,45 -197,55 -27,50 6,18 -52,26 -36,4 -83,30 -230,52 -74,11 -59,13 -85,53 -27,-33 -3,-27 -58,-31 -121,-2 -258,-20 -360,97 -79,36 -56,26 -151,38l-39 -27c-70,29 -16,-5 -18,18 -106,8 -83,-20 -190,11 -183,53 -117,28 -154,13 -82,-32 -20,9 -150,-19 -85,-18 -60,39 -182,-21l-53 36 -49 -38c-112,61 -89,6 -314,-6 -96,-5 -259,-105 -336,-151 -63,-37 -53,10 -77,-58l-16 -52c3,-65 -52,-105 -74,-156 -16,-38 -30,-134 -42,-184 0,-128 2,-83 -23,-206 -12,-61 4,-169 4,-250 -27,-26 29,-30 -34,-24l29 -63c1,-5 12,-63 14,-72 15,-92 55,-313 39,-392l64 -50c4,-199 43,-192 10,-264l52 -78c2,-4 3,-9 4,-12l13 -48c54,-62 -1,-22 56,-87l-18 -21c-4,-45 24,-99 59,-135l-35 -58c34,-20 59,-6 54,-138 -2,-68 13,-98 63,-134l-19 -68c51,-70 33,11 41,-87 41,-42 38,-38 66,-93l-9 -64c22,-31 73,-258 73,-278 55,-42 47,-38 48,-117l44 -5c-3,-88 3,-19 35,-103l52 -137 -65 -70 -114 29c5,-105 26,-76 2,-187 78,-55 -3,-1 25,-149l-4 -54 32 -10 8 -90 41 -11c62,-73 33,-38 64,-119l49 9c46,-91 61,-87 171,-108 267,-50 274,3 431,-24l1921 -124 88 -4 145 1c55,-2 67,3 110,7 76,9 29,1 111,-20l21 21 56 8 475 15 76 2 121 -5 330 -3 102 2 235 -9 26 -12c27,30 31,18 88,19 123,10 279,15 417,10 54,-2 143,-5 189,-4 83,3 113,20 191,8l298 -7c27,-1 106,3 149,4 67,1 86,-1 147,-2l9 -1 73 -3 209 13 121 0 89 5c115,-14 469,2 553,41 156,-74 233,3 358,-27 1,0 24,-5 27,-12 3,-6 9,-5 13,-8 74,53 102,8 208,21 187,22 422,43 628,20l28 1c87,7 84,-10 160,-11 47,-1 102,6 156,6 91,-1 209,6 294,0l295 -10c91,-5 175,-38 258,-10 12,-12 5,-19 10,-28l62 12 192 -14 180 0 96 -19 164 -8 124 3 396 -4 322 26z"/>
   <path class="fil1" d="M3888 8924c82,1 108,-6 183,-28 44,-14 145,-3 150,-30 65,-11 79,-8 132,20l48 -40c30,-17 41,-8 80,-27 141,9 -1,-10 135,-43 61,-15 42,18 67,-48 94,12 63,22 141,-22 23,15 35,23 70,37 58,-49 -5,-17 69,-34 166,-38 72,-49 191,-31 49,-39 57,-43 143,-67 62,-17 135,-5 138,-26l66 20c50,-48 46,-59 103,-50 78,2 79,-22 144,4l24 -58c65,4 44,4 97,23 78,-86 25,-10 129,-40 18,-5 77,-47 92,-59 90,38 97,36 139,-12 52,14 13,16 70,11 73,-6 37,-8 44,-23l40 -6 20 20c57,-48 -3,-2 120,-47 60,-23 85,-9 134,2 51,-11 53,-14 99,-22 51,0 54,-15 85,-29l89 -39c54,53 137,54 201,-7 64,18 41,39 124,17 48,-13 58,-33 114,-9l27 -14 75 -17c5,-1 41,-16 44,-17 27,-6 36,-3 66,-6 49,-5 54,-14 87,-16l25 36c-25,41 -28,28 -2,65 48,-70 -15,-36 77,-89 -18,62 -26,40 4,95 70,-77 -11,-6 50,-115 17,-36 -11,-5 25,-29 60,39 11,16 137,-5l240 -36c80,34 95,-3 168,-16 63,-18 49,-20 104,-21 133,-4 -61,-30 160,-8 7,1 27,0 34,1 75,4 64,9 141,-6 3,22 2,50 8,69 11,42 8,23 30,46 27,-74 24,-43 -4,-110l42 13c191,-65 84,6 168,-49l51 38c36,-47 21,-55 39,-23 90,-16 63,-23 150,1 29,-19 38,-28 55,-46 135,71 292,5 466,15l69 26c66,65 -2,22 74,59l70 -52c10,66 7,13 -1,61 -6,31 -15,-6 -8,33l106 6 -6 -70 89 -32c8,-50 -4,-8 -7,-12l47 0c78,-12 43,12 104,-23l46 26c4,2 8,4 12,5l584 60c71,-5 73,-3 130,12 68,17 175,21 234,46l34 -24c39,-20 76,-53 92,33 115,-18 953,26 978,31l41 -3c176,-7 380,-26 531,-1 89,15 12,-16 100,-2 96,15 256,30 359,-5l50 40c64,-14 49,-12 116,1 81,17 46,4 96,4 56,-1 28,16 84,22 44,5 61,-13 97,-5 29,7 35,22 89,30 128,20 -33,-29 193,18 19,4 91,16 104,15 41,-4 47,-25 80,-22 1,0 105,15 106,15 248,40 386,51 648,33l52 34c112,-74 79,22 294,-12 44,21 256,19 309,22 81,4 110,-5 161,-4 82,1 38,27 139,13 4,61 11,12 -11,82l173 85c29,-63 5,-35 68,-71 -15,-51 -32,-51 -35,-64 -1,-7 -6,-8 -9,-12 124,43 43,10 72,-7 5,-1 111,-8 139,-9l82 57c39,-9 41,-8 75,-11 5,-1 19,-1 22,-2l19 -57c52,3 96,49 99,-13 20,-4 146,-11 154,-10l52 -4c53,-48 2,-16 102,-17 19,0 52,-4 69,-9l72 -26 -15 6 24 29c1,-4 7,8 12,11 -1,3 -12,14 -27,57 103,10 42,17 127,34 25,-39 29,38 19,-55 5,1 10,4 12,5 61,27 35,21 63,-37 5,3 9,11 16,18 30,29 10,10 37,28l-21 -49c5,-1 45,-10 46,-10 4,-2 9,-4 13,-5 3,-1 8,-4 11,-5 62,-21 87,7 141,42l-2 55c75,0 78,-15 137,-6 94,118 -8,57 86,124 44,-41 18,-46 84,-12l-15 -50c62,17 21,16 81,-3 -53,-38 -23,7 -41,-42 12,-22 18,-32 30,-60 31,15 16,9 31,19l16 17c34,-54 36,-14 63,-70 -3,-4 -7,-9 -10,-11 -69,-76 -35,7 -40,-70 -30,18 44,-47 159,-50 -14,4 -15,-8 -25,14 -29,65 1,18 11,36 84,-34 41,-3 63,-64 9,37 22,52 38,81 45,-2 79,4 122,-3 76,-12 53,-16 82,-37l-28 -20c-107,-69 -19,-40 -78,-77 42,-9 90,83 118,5 -18,28 -9,7 -17,57 154,92 41,33 64,92 70,21 -4,0 79,-11 -28,-76 -64,-78 -11,-151l44 -43c22,-22 47,-2 16,-119 -41,35 -33,54 -42,69 -7,12 -27,17 -28,23l-3 -75 34 -37 56 -4 14 -35 103 -20c21,21 10,5 37,30 47,44 -20,6 53,45 39,-88 -10,-49 -39,-153l32 -9 27 -9c-56,76 -12,56 -8,64 58,-28 35,7 60,-64 31,19 18,11 67,13 -23,-24 -31,-28 -29,-56 48,-66 30,-8 89,-69l89 17c-5,51 27,31 -22,43l55 44c13,-47 13,-63 29,-119 17,-3 20,0 37,-8 40,-20 5,-1 30,-29 -21,-59 -56,-67 -111,-85 55,-66 8,-30 1,-47 -38,-7 -58,6 -90,21l12 -48c38,-57 29,-90 59,-135 53,-79 37,-6 84,-121 10,-35 1,-38 19,-72 23,-43 1,6 24,-30 56,-88 1,-80 86,-143 3,-4 22,13 32,-37 52,9 55,17 109,31 -19,-146 -71,-16 -115,-128l95 1c-35,-92 9,-22 31,-97l-95 -4c30,-31 4,-18 52,-44l-8 -40c-3,-51 -4,-19 -12,-77l8 -10c39,-4 27,16 56,-8 45,-71 -16,23 58,6 4,-13 23,25 7,-37l-12 -19c-2,-4 -16,-15 -18,-17l8 -70c78,16 25,19 61,63 26,-7 9,1 38,-8 41,-14 19,-7 43,-22 -14,-104 -23,-18 -59,-121l33 -55c2,-8 7,-9 11,-14l-26 -25c-13,-24 -5,46 4,-14 19,-130 -14,-25 83,-172l-52 -24c-2,-5 -8,-5 -12,-7 40,-63 4,-14 75,-58l-59 -13 -38 -133c-18,-9 -16,-3 -42,-9l54 -80c1,-3 3,-4 4,-6 -13,28 -29,-20 -9,35 18,52 8,24 56,56 -6,-127 -8,-112 20,-240l-78 3c-43,-68 -2,-38 1,-52 0,-4 6,-3 8,-5 -4,-63 -3,-163 -17,-208l22 -22c1,-1 4,-4 5,-5l28 -38c-82,-6 -12,4 -55,-22l-30 -96c27,96 66,20 67,20l-10 -61c71,39 110,37 97,133 92,-1 73,64 113,130l97 169 -26 69 78 44c-3,54 -23,98 3,141 24,-63 -8,-24 37,-44 8,148 14,56 54,171 20,54 6,102 -2,186l-68 -31 -15 102 -34 -66c-14,37 -9,26 -37,48 -4,3 -18,11 -22,14 -27,20 -11,8 -29,24 8,37 11,42 14,80 2,13 -3,4 4,29l18 48c-54,32 1,21 -87,33 31,34 3,52 -17,69 36,19 -10,24 66,5 -18,125 -8,-9 1,131 -50,21 -36,44 -56,89 49,26 18,-26 26,33 6,39 1,20 -11,54l-52 -13c2,67 -17,81 -37,128l72 -36c2,69 12,110 -58,141 9,11 17,7 25,31 25,69 -36,120 -54,151 -29,54 -51,61 -100,42l-264 723c-2,3 -6,6 -8,9l-82 128c-44,57 -87,99 -147,79l13 29c2,3 7,9 9,11 25,32 3,81 -8,109 -15,38 -65,-22 -70,106 -90,-1 -54,7 -98,56 -2,2 -5,7 -7,9l-48 42c-8,7 -22,18 -29,23 -38,30 -73,28 -124,29l-41 -58c-40,29 -25,28 -70,53 22,23 10,50 2,71l-205 -26c0,0 -4,3 -6,3 121,22 49,92 39,182 -94,4 -20,5 -62,22 -49,19 -209,26 -246,10l-35 38c-44,-12 -40,-22 -82,-4l15 -68 -191 -9c-4,0 -10,-1 -14,-1 -59,1 -109,25 -162,21 -5,-1 -10,-2 -14,-3l-30 -13c16,76 -14,36 -25,45l-106 -39c-6,15 -7,23 -10,41 -14,64 5,14 -15,55 -37,9 -37,7 -74,5 -31,-2 -39,-48 -20,6 -80,-2 -86,16 -122,-36l-4 62c-84,4 -61,16 -145,19 4,-36 8,10 -46,20 -78,15 8,-22 -99,7 -15,-15 -19,18 -35,-56 -105,-4 -13,53 -107,23 3,6 48,-1 -2,97 -53,6 -25,17 -52,-16l0 -20c1,0 3,0 5,0 -57,30 -91,58 -146,-7l-28 61c-111,2 -101,-12 -210,35 -4,1 -8,4 -11,5l-84 43 -41 -120c-16,24 -20,40 -2,72 -46,-5 -45,-9 -85,-18 -3,3 -8,4 -9,9l-43 24c-40,-46 -64,-16 -122,-41l-17 48c-66,-50 -16,-36 9,-101 33,-86 -34,-55 -78,-40 17,-50 -3,-4 21,-31 27,-29 15,10 33,-41 -83,-42 -122,12 -204,-20 -70,-27 -35,9 -58,-47 43,-62 -55,17 25,-25l40 -15c4,-2 10,-6 13,-7 3,-2 8,-6 12,-9l-210 4c-9,91 19,33 -36,50l-22 -45c-33,-37 16,-20 -66,-24 28,84 1,-1 45,63 17,25 17,39 20,73l-95 3c-2,-59 1,-58 -27,-96 -31,-43 -28,-35 -87,-45 5,61 1,67 21,108 -26,43 -18,17 -37,72 30,-9 61,-57 70,-1 11,59 -15,63 -65,72 -2,-4 -4,-16 -5,-13l-45 -43c-1,2 -14,25 -15,28l-46 -3c-20,2 -20,11 -59,6 -5,-1 -41,-16 -48,-22l-26 -26c-2,-2 -7,-7 -8,-9 -2,-2 -5,-6 -8,-9l-70 8c-60,-64 -41,-43 -143,-22 6,-73 13,-57 -10,-109 -74,22 -55,52 -89,103 -27,-40 -17,-19 -19,-82 -45,21 -100,19 -155,32 7,-111 -2,7 33,-86 -51,12 -96,42 -105,96 -21,-32 -58,-35 -101,-46l-35 47c-85,-33 -6,7 -51,-5l-54 -40 -49 38c-22,-43 -34,-66 -35,-121 68,1 167,28 206,17 50,-14 42,-49 94,-24 13,6 1,21 31,14 36,-7 12,-8 21,-28l-26 -13c-101,-16 -126,29 -212,-33l-88 -32c21,55 15,39 56,57l-154 15c1,91 20,56 13,146l-22 -56 -139 62c-22,15 -22,17 -42,28l-91 -50c-3,-2 -7,-5 -11,-6 -66,-38 -136,-37 -201,-25 -75,13 -57,-10 -113,26 -44,-27 -44,-34 -118,-36l21 -65c-85,10 -95,41 -185,46 3,4 10,4 11,11l14 17c5,47 -8,16 -23,27 27,25 -3,14 51,33 -44,20 -11,-22 -29,24 -10,23 -1,27 -7,45 -27,76 -86,23 -273,46l-20 -21c-2,-2 -11,-12 -14,-17l-27 53c-56,-15 -124,-24 -164,-44 -19,12 -40,23 -69,39 -81,-44 -40,-17 -117,-41 -60,-19 -131,-65 -203,-76 -36,-6 -80,13 -124,2 -52,-12 16,-4 -47,-22 -104,-29 -329,7 -471,-12 -46,98 -55,44 -113,5 -46,10 -25,6 -41,15 -61,32 24,-1 -46,26 12,-51 -2,-29 39,-52 -49,-17 -41,-30 -74,-71l-104 100 4 -53c-106,-3 -91,-52 -159,-80l-8 134c-17,-51 -19,-113 8,-152l20 -18c-84,15 -91,4 -128,84 -56,-32 -103,-33 -139,17 -19,-26 -13,-21 -49,-34l-50 37c-49,14 -208,-7 -250,-15 -69,-13 -96,-5 -115,-57l-52 23c-2,1 -7,2 -9,3l-20 134 -61 17c34,37 45,-28 2,59 -33,-17 -68,-41 -56,-83l95 -7 -20 -112c-100,-2 -47,-27 -175,-1 -34,-1 -82,-52 -260,-31 -19,-19 -20,-20 -51,-32 -13,46 6,19 -40,35 -10,-53 -15,-49 -48,-88 -7,11 -66,19 15,83 -35,11 -30,16 -67,18l-65 -6c-36,4 -34,34 -88,28 -43,-5 -15,-4 -36,-19 17,-43 34,-23 48,-68 -89,4 -58,28 -153,36l-29 -56c-6,77 -53,98 -110,121 -21,-24 -36,-42 -54,-66 -72,16 -29,18 -102,0 -24,36 -11,41 -54,69 10,-43 8,-31 19,-73 -54,14 -19,4 -71,23 2,-90 -4,-90 -91,-83l-22 -60 -112 105 16 114c-74,20 -68,4 -171,4l-34 47c-61,-28 -26,-13 -82,2 42,-38 29,-15 37,-88l-88 30c-2,1 -8,0 -10,0 -2,1 -7,1 -10,2l-55 43c-4,-1 -11,-8 -12,-4l-45 -31c-52,35 -31,15 -113,16l-18 -85 -38 90 -72 0c11,-46 7,-29 21,-71l-101 3c-12,16 -24,36 -37,50 -33,34 -12,28 -74,33l4 85c-71,12 -52,21 -113,13 -84,-11 -64,-21 -105,-36l-79 10c-144,60 -172,-12 -373,24 -61,11 -170,-11 -250,-15 -102,25 -193,109 -278,40 -15,35 31,28 -34,35 -62,8 -9,5 -52,-17l-33 58c-87,3 -127,17 -210,2 -90,46 -74,39 -191,36 -37,26 -7,8 -34,26 -41,29 -68,13 -128,45 -73,38 -65,73 -167,69 -66,-3 -33,-18 -89,3 -86,32 -164,81 -259,86 -77,3 -97,0 -165,32 -147,67 -268,-2 -378,34 -70,23 -156,17 -190,-39 -57,12 -79,21 -148,22 -36,-41 -41,-62 -83,-86l-21 -11c25,-20 41,-29 50,-70 -40,10 -58,19 -86,0l-36 54c-239,-151 -442,-12 -580,-134l-68 -68c-56,-56 -143,-75 -184,-126z"/>
   <path class="fil2" d="M10781 7896c-32,44 76,49 -72,30 -39,-5 -27,-22 -76,-8l68 24c51,11 59,37 40,-1 3,5 7,10 10,14l27 59c32,-20 36,-7 56,-48 16,6 64,20 73,21 10,-26 -6,-42 -11,-51l-20 -37c13,-8 343,36 417,44 153,16 308,33 468,25 48,-3 88,0 135,6 92,11 4,-1 90,-7l644 15c24,45 8,24 50,61 24,-38 16,46 21,-56l83 -1c44,88 7,58 54,115 37,44 23,39 102,42 -15,-58 -3,-45 -44,-102l-5 -40c199,-22 361,4 536,8l-2 13c-5,0 -30,-3 -35,-2 -56,12 -39,11 -69,36 61,48 83,24 86,24 7,0 11,-2 18,-2l52 45c17,-15 9,-9 32,-27l34 -21 21 61c0,0 106,-120 29,-112l23 -14c113,61 315,-4 451,80 56,-53 59,-31 260,6l35 47c28,-20 6,-4 28,-23l24 -23c98,-24 141,39 243,43 67,3 180,-7 270,-1l24 33c51,-78 359,-3 424,-2l252 8 -6 45c13,31 29,75 3,106 -36,45 -75,17 -101,4l0 51c-215,34 -182,-62 -294,12l-52 -34c-262,18 -400,7 -648,-33 -1,0 -105,-15 -106,-15 -33,-3 -39,18 -80,22 -13,1 -85,-11 -104,-15 -226,-47 -65,2 -193,-18 -54,-8 -60,-23 -89,-30 -36,-8 -53,10 -97,5 -56,-6 -28,-23 -84,-22 -50,0 -15,13 -96,-4 -67,-13 -52,-15 -116,-1l-50 -40c-103,35 -263,20 -359,5 -88,-14 -11,17 -100,2 -151,-25 -355,-6 -531,1l-24 -42c-18,-30 -2,-15 -27,-36 -10,69 -14,5 10,81 -25,-5 -863,-49 -978,-31 -16,-86 -53,-53 -92,-33l-34 24c-59,-25 -166,-29 -234,-46 -57,-15 -59,-17 -130,-12l-584 -60c-4,-1 -8,-3 -12,-5l-46 -26c-61,35 -26,11 -104,23 -25,-43 4,-26 -72,-19l-319 -30c-18,59 5,6 -42,30 -174,-10 -331,56 -466,-15 -17,18 -26,27 -55,46 -87,-24 -60,-17 -150,-1 -18,-32 -3,-24 -39,23l-51 -38c-84,55 23,-16 -168,49l-42 -40 -34 22c-77,15 -66,10 -141,6 -7,-1 -27,0 -34,-1 -221,-22 -27,4 -160,8 -55,1 -41,3 -104,21 -25,-18 -57,-23 -100,-21 -23,1 -21,-2 -42,7 -48,21 1,-4 -26,30l-240 36c-126,21 -77,44 -137,5 -36,24 -8,-7 -25,29l-154 8c-33,2 -38,11 -87,16 -30,3 -39,0 -66,6 -3,1 -39,16 -44,17 0,-86 -2,11 13,-50 31,-129 14,-25 -7,-70l-108 82 27 55 -27 14c-56,-24 -66,-4 -114,9 -83,22 -60,1 -124,-17 -64,61 -147,60 -201,7l-89 39c-31,14 -34,29 -85,29 -4,-2 -10,-10 -12,-6l-91 -15 4 43c-49,-11 -74,-25 -134,-2 -123,45 -63,-1 -120,47l-20 -20 -27 -55c-15,17 -52,-37 -13,61 -7,15 29,17 -44,23 -57,5 -18,3 -70,-11 -42,48 -49,50 -139,12 -15,12 -74,54 -92,59 -104,30 -51,-46 -129,40 -53,-19 -32,-19 -97,-23l-24 58c-65,-26 -66,-2 -144,-4 -32,-35 48,-38 -51,-25 -20,-4 22,-37 -92,6 -24,-114 22,-34 -61,-63l35 112c-3,21 -76,9 -138,26 -86,24 -94,28 -143,67 -119,-18 -25,-7 -191,31 -74,17 -11,-15 -69,34 -35,-14 -47,-22 -70,-37 -78,44 -47,34 -141,22 -25,66 -6,33 -67,48 -136,33 6,52 -135,43 -61,-23 -25,-27 -115,-43l-51 74c-83,-21 -82,2 -94,16 -5,27 -106,16 -150,30 -75,22 -101,29 -183,28l-35 -5 36 -44c-101,0 -77,26 -105,-35l-34 17c-25,2 -27,-28 -29,-21l-12 -25c-2,-9 -3,2 8,-15l4 -45 -19 -20c95,-12 72,-2 151,-38 99,-10 251,-23 330,-52l62 2c0,94 -4,27 24,53 14,-17 25,-32 41,-51 5,-3 15,-12 17,-14 80,-72 149,-34 202,-43 6,-3 33,-21 39,-23 51,-17 92,1 144,-29 60,-34 16,11 46,-49 44,78 -2,16 49,43 58,-23 87,-25 114,-65 50,10 256,-31 325,-43 135,-24 43,-22 121,-45 160,-48 189,37 215,-66l40 65c19,-17 15,-16 22,-23 23,-20 9,-7 28,-22 18,-14 2,3 29,-22 1,-1 23,-26 25,-29l71 9c42,7 61,-7 112,-14l17 -44 22 -20c25,66 16,41 126,22 77,-13 77,9 104,-38l111 -19 63 41 14 -53c274,14 149,-20 227,-41 122,12 122,2 207,-4l209 -29c70,-11 125,-20 208,-24 51,-2 23,0 65,-10 137,-36 132,-67 191,-3 56,-87 79,-29 176,-57 75,-21 49,-19 110,-2l15 -48c132,11 806,-84 1004,-87 34,-1 71,8 95,11l460 -38c28,87 -28,17 35,91 21,-29 -1,32 26,-48 1,-5 7,-40 8,-46l143 16c33,2 78,-14 134,-16l278 -23c233,-16 230,45 414,35 186,-10 42,-13 179,17 141,31 143,-4 231,38z"/>
   <path class="fil3" d="M5251 4205l-1921 124c-157,27 -164,-26 -431,24 -110,21 -125,17 -171,108l-49 -9c-108,-14 -11,15 -109,33 -31,-96 2,-49 -52,-76 0,1 -46,-18 -19,63 21,61 -5,4 59,34l25 15c0,-1 3,4 4,5 51,0 37,-11 28,45l-41 11 -8 90 -32 10 -26 38 30 16c-28,148 53,94 -25,149 24,111 3,82 -2,187l114 -29 65 70 -52 137c-32,84 -38,15 -35,103l-44 5c-14,-19 -27,-17 -41,-28l-17 -48 -42 92c14,96 25,-26 52,101 0,20 -51,247 -73,278l-110 71c2,80 -11,-3 38,34l19 -11 -4 63c-8,98 10,17 -41,87l19 68c-50,36 -65,66 -63,134 5,132 -20,118 -54,138l35 58c-35,36 -63,90 -59,135 -3,3 -8,4 -10,10 -3,19 -13,-12 -24,26 0,1 1,43 -4,72l-13 48c-1,3 -2,8 -4,12l-52 78c33,72 -6,65 -10,264l-64 50c16,79 -24,300 -39,392 -2,9 -13,67 -14,72l-29 63c63,-6 7,-2 34,24 0,81 -16,189 -4,250 25,123 23,78 23,206l-53 6c0,119 69,64 29,74 -4,100 30,96 22,134l-28 77c43,-22 17,0 81,-1 3,0 9,-1 12,-1l53 51 16 52 -26 4 -14 58c-5,2 -16,5 -19,5 -3,1 -10,2 -12,3l-54 -39c-60,10 -29,-30 -52,36l-37 -39c-3,-10 -7,-33 -8,-39 0,-1 4,-32 4,-36l-60 -38c3,-126 -38,-93 -44,-210 -1,-15 -37,-173 -64,-207 46,-12 19,7 35,-37 -59,-72 9,-718 29,-782 28,-88 26,1 42,-97 10,-58 5,-102 4,-157 8,-31 57,-22 54,-208 5,-3 11,-14 13,-10 1,3 9,-8 11,-10 3,-2 17,-11 22,-14l-3 -47 91 20c-28,-64 -17,-44 -73,-68l187 -670c81,-155 38,-233 116,-307 -4,51 -8,54 18,102 40,36 23,-6 63,-17 23,-90 29,-59 4,-155l-34 17c-9,-112 -37,-12 -92,-126l-10 39c-3,-4 -8,-14 -9,-11 -13,26 0,-16 -43,-50 67,-54 -7,-129 88,-328 30,-63 12,-71 43,-95 2,1 6,4 8,5 1,1 7,6 9,7l20 20c2,-3 8,9 12,13 11,-123 37,-87 51,-132 -95,-39 -3,-30 -107,-40l43 -323c11,-23 50,-21 84,-117 46,9 25,-8 56,19 7,-25 19,-70 -8,-77 36,-16 23,27 32,-36 75,-61 118,-57 163,-172 58,20 110,-7 206,7 108,15 103,-30 310,-21 64,3 -10,-5 75,-15 121,-13 87,59 225,-15l38 12 -50 51c54,79 89,-4 101,-52 117,-4 71,-19 177,9 15,26 15,6 5,64 132,-21 88,1 93,4 13,-14 -13,-47 53,-86l17 91c207,-70 144,37 188,-94l-40 -27c115,-5 168,8 262,-11l12 37 -63 8c34,58 19,35 66,60l77 32c9,-11 30,-59 0,-39 25,-46 17,-51 0,-99l70 43c41,-10 34,4 34,-29 94,13 43,-21 116,-25 40,-1 123,7 163,16l63 -20 4 97c23,-15 40,-25 71,-43 1,0 17,13 27,20l42 24 51 -81c-38,8 -41,8 -92,11l24 -46 121 -5 0 20c36,10 39,11 77,17 -41,-3 -34,-5 -36,35l98 22c140,-16 -103,59 48,-19l-55 109z"/>
   <path class="fil4" d="M18755 7906l-4 71 -34 37c-10,1 -65,7 -71,8 -5,2 -10,2 -14,4 -5,2 -9,4 -13,6 -27,15 -15,13 -30,29l-49 5 -232 46 19 -58c4,3 14,10 17,11l4 -52c-35,28 -11,19 -46,24l-111 26 -5 79c-15,16 21,9 -50,28 -27,8 -46,8 -78,11l-20 36 -57 5c-15,-63 -40,-45 -79,-10 -20,-1 10,-16 -46,5 -42,15 -19,8 -36,28l-83 -2 -46 24c-39,-81 -54,-22 -104,6 -132,10 -91,27 -144,-6l-24 51c-199,-78 56,21 -159,15l15 -6 -5 -59 -99 14c-6,1 -46,0 -52,0 4,11 3,90 17,34l-104 -13c0,1 -1,2 -1,3l-2 11c0,3 -4,28 -6,34 -87,0 -8,-7 -43,32 -8,-1 -134,6 -154,10l-62 21 16 -67c-62,23 -36,-16 -53,59 -37,18 -11,-25 -37,33 -54,-23 -20,-20 -64,-28l-15 65 -82 -57c-20,-50 -25,0 18,-103 -109,9 -66,21 -91,-15 -17,-12 -41,22 -4,-54l-87 -20 -35 68c-3,5 -15,24 -18,29l70 26 8 78c-102,-12 -154,-5 -258,-13 -101,14 -57,-12 -139,-13 -51,-1 -80,8 -161,4 -53,-3 -265,-1 -309,-22l0 -51c26,13 65,41 101,-4 26,-31 10,-75 -3,-106l6 -45c30,-27 102,10 124,11 34,2 112,-38 145,2 22,22 -39,19 61,38 50,150 80,5 169,58l-45 -84c42,14 114,50 144,-11 48,1 95,8 142,11 39,1 242,-8 284,8 27,-15 8,-4 31,-21l56 2c2,1 7,4 9,4l50 -7 17 46c1,-1 30,-20 33,-22 127,-62 -90,12 29,-6 93,110 102,-43 114,-72l25 -9c11,98 -8,-3 -3,72 4,54 5,26 20,45 2,-2 6,-7 6,-8l7 -18c31,-110 63,-32 79,-76 2,-6 8,-5 11,-8 58,-43 54,-2 123,-58 82,35 216,-12 306,-40 31,-10 71,-17 82,14 -52,65 -9,33 12,45l-2 -51 227 -52c44,-10 86,-16 138,-22l572 -174c65,18 68,38 104,88 -23,-19 -18,24 -17,-17l87 0 -12 40z"/>
   <path class="fil5" d="M12141 4102c-57,8 -26,-3 -80,24l16 49 33 -6c33,-8 18,-54 21,15 1,41 -1,12 -16,49 -5,9 2,16 -10,28 -83,-28 -167,5 -258,10l-295 10c-85,6 -203,-1 -294,0 -54,0 -109,-7 -156,-6 -76,1 -73,18 -160,11l-16 -52c-41,44 -16,-13 -12,51 -206,23 -441,2 -628,-20 -106,-13 -134,32 -208,-21 -4,3 -10,2 -13,8 -3,7 -26,12 -27,12 -125,30 -202,-47 -358,27 -84,-39 -438,-55 -553,-41 41,-36 -62,-32 73,-36 -40,-63 -52,-14 -68,-121l83 18c38,45 35,22 100,61 65,-33 26,7 69,-44 -44,-62 -27,28 -52,-47 -3,-9 -11,-9 -16,-13l208 15c11,43 12,16 0,42 -143,-2 -26,-1 -126,43 21,20 1,29 39,53l20 -37c42,-45 30,20 36,-65l67 69 50 -35c-3,-30 24,-16 -45,-30l28 -40 31 -7c36,53 16,104 32,68 1,-2 4,10 7,17l67 -17c-4,-11 -14,-54 -15,-57l41 -12c29,29 7,31 104,35l-53 42 116 11c33,3 20,3 57,1 33,-51 6,46 3,-42 0,-7 -6,-8 -8,-11l42 -7c56,-8 110,-13 166,-15 104,-5 57,10 138,25 22,4 252,-8 295,-11 -36,48 -104,23 -141,98 80,16 77,30 100,-33l41 69c95,-1 82,5 123,-47l62 23c-8,-86 -22,-49 -79,-85 45,-15 42,-11 89,-10 57,1 37,3 87,28 44,-42 144,-29 195,-24 28,114 59,90 95,110 29,-69 53,-12 20,-87 47,0 31,2 68,-10 7,-2 13,-2 18,-11 5,-9 10,-10 16,-15l161 3 12 -19 -15 42c-11,54 -2,50 40,59 8,2 57,-4 69,-8 40,-15 70,-46 97,-93 26,57 26,35 0,104 68,-12 92,-2 138,-37l53 65c1,-2 4,-8 4,-6l13 -33c84,10 35,-21 69,41l-1 -9c-1,-1 -8,-2 -11,-4 5,-5 11,-19 14,-15l51 -38c-5,-42 2,-29 -35,-67l-18 -17 208 -12c0,46 16,44 -18,37z"/>
   <path class="fil6" d="M3645 8722c-30,61 23,22 -39,61 20,9 -31,36 48,-17 -2,73 -1,38 54,66 -47,40 -24,36 -98,60l18 45 -225 -14c-17,1 -53,4 -79,6 -80,7 16,19 -74,16 -97,-2 37,-27 -181,-8 -107,9 -69,-42 -204,3 -62,-54 -145,-10 -345,-56 -37,-8 -68,-17 -106,-29 -72,-25 -135,-41 -206,-73 -131,-59 -126,-85 -181,-101l14 -53 59 -77 14 -58 26 -4c24,68 14,21 77,58 77,46 240,146 336,151 225,12 202,67 314,6l49 38 53 -36c122,60 97,3 182,21 130,28 68,-13 150,19 37,15 -29,40 154,-13 107,-31 84,-3 190,-11z"/>
   <path class="fil7" d="M6366 8164c-45,-13 -32,9 -50,-17l-27 29 -111 19 -45 6c24,-61 27,-28 9,-60 -66,36 -23,2 -52,69 -13,-19 -20,13 -8,-62 -59,15 -89,24 -87,-42 -2,2 -7,2 -8,6l-53 31c-13,14 -11,22 -15,35 61,-77 -17,-47 -20,-50 -20,29 -27,3 -24,58 0,1 4,5 4,5 0,1 4,2 6,4 -110,5 -44,-35 -71,43l112 -7 -17 44c-51,7 -70,21 -112,14 3,-58 9,-61 -52,-82 -62,-21 17,11 -36,-11l-39 51c-2,-8 28,-54 -70,-27l-65 65c2,0 4,-2 4,-1 0,1 3,-3 3,-3 -2,-6 7,-27 -46,-43 -16,27 -10,53 -85,47 -67,-5 -33,-5 -54,-20 -24,40 9,44 -49,16 -1,-2 -1,-10 -1,-8 0,2 0,-7 0,-8 -11,-36 19,-19 -30,-32l-19 92c-8,2 -15,0 -18,6 -3,6 -11,4 -16,4 -13,1 -39,-1 -53,-2 41,32 29,25 74,39 -83,10 -75,-11 -109,26 -8,-10 -9,3 -21,-30 -7,-21 -3,-21 -6,-41 -66,41 -6,-9 -60,75l-69 4c-18,52 -13,19 -59,59l-86 -24 45 -34c127,-81 444,-211 570,-243 878,-226 752,-171 1524,-168 290,2 127,-47 382,-30 136,9 291,-8 418,-20l-15 48c-61,-17 -35,-19 -110,2 -97,28 -120,-30 -176,57 -59,-64 -54,-33 -191,3 -42,10 -14,8 -65,10 -83,4 -138,13 -208,24l-209 29c-85,6 -85,16 -207,4 -78,21 47,55 -227,41z"/>
   <path class="fil8" d="M19837 5115l10 61c-1,0 -40,76 -67,-20l30 96c43,26 -27,16 55,22l-28 38c-1,1 -4,4 -5,5l-22 22c14,45 13,145 17,208 -2,2 -8,1 -8,5 -3,14 -44,-16 -1,52l78 -3c-28,128 -26,113 -20,240 -48,-32 -38,-4 -56,-56 -20,-55 -4,-7 9,-35 -1,2 -3,3 -4,6l-54 80c26,6 24,0 42,9l38 133 59 13c-71,44 -35,-5 -75,58 4,2 10,2 12,7l52 24c-97,147 -64,42 -83,172 -9,60 -17,-10 -4,14l26 25c-4,5 -9,6 -11,14l-33 55c36,103 45,17 59,121 -24,15 -2,8 -43,22 -29,9 -12,1 -38,8 -36,-44 17,-47 -61,-63l-8 70c2,2 16,13 18,17l12 19c16,62 -3,24 -7,37 -74,17 -13,-77 -58,-6 -29,24 -17,4 -56,8 7,-48 5,-100 14,-140 18,-76 30,-11 -8,-95l41 -99 -45 -25 -5 -47c27,-51 17,-62 12,-121 -19,-76 40,-57 68,-52 -18,-30 -21,39 -8,-60l12 -5c1,0 6,-3 7,-4l38 -25c122,-111 -8,72 51,-79l-75 -35c9,-41 -6,-12 43,-45 1,-1 6,-4 9,-7 -43,-13 -21,0 -40,-37l-58 11c-9,-160 3,-122 54,-186 -36,-24 -45,-22 -30,-39 -23,-125 -7,-50 12,-155 14,-77 -5,-58 -30,-119 40,-62 29,-163 12,-249 101,35 44,2 81,53 25,34 -2,26 70,49l0 33z"/>
   <path class="fil9" d="M19386 7243c-47,115 -31,42 -84,121 -30,45 -21,78 -59,135 -26,15 -37,-28 -30,65l-35 19c-21,96 -22,64 -54,115 -114,58 -28,58 -112,64l-5 69 -32 9c-3,4 -8,5 -10,12 -2,9 -15,21 -18,25 -41,65 50,-84 -23,41l-103 20c-49,-11 -26,2 -66,-32l12 -40 -87 0c-1,41 -6,-2 17,17 -36,-50 -39,-70 -104,-88l24 -23c-14,86 -20,24 45,47l103 -66 3 -85c19,-28 -32,-24 42,-25l63 3 -12 -69 49 -88c41,-1 55,-7 80,-20l46 -10 12 -39c14,-41 30,-68 65,-108 48,26 9,-3 35,65 43,-48 11,-44 80,-82l7 -52c69,0 51,17 51,-52l24 11c50,30 37,28 24,75l52 -34z"/>
   <path class="fil10" d="M19614 6234l45 25 -41 99c38,84 26,19 8,95 -9,40 -7,92 -14,140l-8 10 -58 72 7 50c-4,37 -23,77 -31,109 -13,56 -5,107 -7,164 -85,63 -30,55 -86,143 -23,36 -1,-13 -24,30 -18,34 -9,37 -19,72l-52 34c13,-47 26,-45 -24,-75l-24 -11 47 -28c10,-98 15,-79 -33,-125l-60 65 70 -184c14,-26 16,-23 29,-58 31,-87 61,-166 64,-275l44 -18c-16,-28 -8,-17 -19,-52l-2 0 111 11c16,-29 2,-10 15,-15 -17,-84 17,-90 12,-126 -29,-28 -19,33 -25,-51l9 -12 -4 -56c-23,-58 13,-55 20,-62l50 29z"/>
   <path class="fil11" d="M18063 8462l-57 -17c0,-8 -3,-18 -3,-15 0,2 -3,-9 -3,-11l25 -88c6,-1 14,-12 16,-6 2,5 12,-3 14,-2 1,0 8,2 10,3 1,0 5,5 8,7l-54 -104c19,22 5,15 19,-12l20 -36c32,-3 51,-3 78,-11 71,-19 35,-12 50,-28 7,-3 124,-27 122,-30l232 -46c43,111 22,-28 81,53 17,23 7,41 31,54 91,50 53,-9 60,-13l-29 -41c-4,-3 -25,-9 -31,-11 8,-61 40,-4 10,-60 -42,36 -28,17 -73,13 15,-16 3,-14 30,-29 4,-2 8,-4 13,-6 4,-2 9,-2 14,-4 6,-1 61,-7 71,-8l3 75c1,-6 21,-11 28,-23 9,-15 1,-34 42,-69 31,117 6,97 -16,119l-44 43c-53,73 -17,75 11,151 -83,11 -9,32 -79,11 -23,-59 90,0 -64,-92 8,-50 -1,-29 17,-57 -28,78 -76,-14 -118,-5 59,37 -29,8 78,77l28 20c-29,21 -6,25 -82,37 -43,7 -77,1 -122,3 -16,-29 -29,-44 -38,-81 -22,61 21,30 -63,64 -10,-18 -40,29 -11,-36 10,-22 11,-10 25,-14 -115,3 -189,68 -159,50 5,77 -29,-6 40,70 3,2 7,7 10,11 -27,56 -29,16 -63,70l-16 -17c-15,-10 0,-4 -31,-19 -12,28 -18,38 -30,60z"/>
   <path class="fil12" d="M13397 4129c-7,6 -31,26 -41,34 -76,0 -1,-10 -27,40l-396 4 -71 -90 -73 40c20,42 4,20 20,47l-164 8c5,-3 12,-14 16,-8 4,6 12,-6 18,-5 5,0 68,15 70,15 -13,-81 -23,-21 4,-69 -2,-1 -7,-5 -8,-2l-31 -2c-37,-7 -9,12 -48,-28l-20 69c-19,-8 -65,19 -36,-50 -1,3 -1,5 -1,10 -1,7 -4,18 -6,21l-27 35c-95,-38 7,26 -50,-46l-19 -24c22,-28 7,-26 43,-40 2,-1 8,-1 12,-1 -44,0 0,6 -21,-31l34 -29c146,56 97,8 191,3 52,-3 43,12 111,1 211,-34 168,11 288,1 57,-4 164,-10 243,-17l-46 75c24,54 11,14 35,39z"/>
   <path class="fil5" d="M18269 4387c126,-67 101,-10 116,18l-87 32c-87,15 -211,-45 -445,-6 -135,23 5,2 -94,-8 -31,-3 -81,7 -120,4 -25,-1 -89,-15 -111,-16 -48,-3 -18,-5 -48,7l-77 11c-8,-52 -21,-42 28,-42 12,-19 6,-11 32,-38l23 -48c-18,-41 -3,-25 -51,-39l33 -32 452 -1 -90 43c-3,-4 -10,8 -13,12l4 53c12,5 7,7 34,7l71 4 -7 -60c24,59 11,17 32,46 25,-13 21,-11 42,-26l28 -21c4,4 11,10 14,12l29 18c3,-4 10,2 15,5l50 -74c2,-9 8,-10 13,-15l93 9c-29,68 -11,64 -67,97l28 -42c33,-69 -8,53 7,-35 -30,5 -30,-8 -59,20l-16 58c57,-1 27,-18 33,46 86,-27 29,21 63,-29l45 30z"/>
   <path class="fil13" d="M17463 4349c-26,27 -20,19 -32,38 -49,0 -36,-10 -28,42l-163 -7 27 -32c-79,-25 -21,-16 -79,-42l-8 76c-66,-3 -145,8 -183,-1l-554 -20c8,-5 34,-29 51,-33 -38,-55 -69,-85 -10,-124l91 -24 -25 27c2,6 4,13 6,17 26,68 38,52 61,58l68 25 34 -119c71,-39 204,-6 278,12l-16 57 51 1c19,-50 32,61 15,-70l38 -5c52,-3 7,-8 21,14 3,77 -7,29 26,74 70,6 22,-21 84,6 50,23 17,-14 31,47 5,-3 13,-7 16,-9l56 20 129 -45c-7,28 -2,3 15,17z"/>
   <path class="fil14" d="M8423 4065l-60 51 38 43 18 -56c57,58 19,38 55,52l7 -86 122 2c-43,23 62,68 -73,7l-3 78c-1,5 -5,8 -6,12l-15 38c68,8 19,-12 72,-55 75,45 47,38 48,85 -61,1 -80,3 -147,2 -43,-1 -122,-5 -149,-4l-298 7c-35,-53 44,-44 -42,-44 -4,-2 -10,-10 -11,-7l-34 -21c0,-28 2,-23 -3,-50 0,-3 -13,-41 -14,-43 74,13 20,5 41,-19 91,-13 142,-6 219,-2 62,3 177,-1 235,10z"/>
   <path class="fil3" d="M7945 4169l34 21c1,-3 7,5 11,7 86,0 7,-9 42,44 -78,12 -108,-5 -191,-8 -46,-1 -135,2 -189,4 -138,5 -294,0 -417,-10 -24,-45 -55,-75 109,-107 -21,-19 -6,-22 -47,-27l25 -26 59 36c43,26 33,37 61,8l16 44c1,3 2,10 2,16 65,-15 23,-1 48,-31 101,-117 -99,56 28,-40 -24,8 28,9 -26,3 -103,-11 -37,-8 -67,-49l312 6 6 61 98 -18 37 76 49 -10z"/>
   <path class="fil12" d="M16575 4222l-91 24c13,14 -8,23 -25,55 -37,10 -65,14 -116,14 -1,5 -4,7 -5,16l-9 29c-11,50 -5,-12 -4,35 -86,-13 -84,9 -144,-37 -3,2 -8,0 -9,4l-99 8 12 -50c-7,-3 -9,-24 -86,-13 114,-5 57,-17 138,25 -27,-74 9,-34 -74,-65 -65,-24 -38,-34 -99,-18 -3,5 -10,19 -9,21 11,67 -13,1 12,20 -54,-10 -19,-10 -74,-47 -3,-3 -9,-6 -12,-8 -3,-1 -9,-4 -13,-6 55,-20 22,17 48,-29 13,-25 12,-37 -60,-53l13 62c-47,14 -43,13 -85,27 -26,-22 -21,-16 -24,-32l39 -7c-23,-71 -27,-20 2,-66 108,-1 256,22 353,42l323 30c18,2 40,0 53,2 58,8 28,-17 45,17z"/>
   <path class="fil15" d="M14917 4077c25,72 13,78 86,85l68 65 -57 13c54,-8 0,-15 14,34 -21,2 -186,-11 -227,-15 -62,-7 -134,-1 -221,-8l13 -54c-5,-3 -10,-12 -12,-8l-105 -49c-50,37 -23,-3 -45,55l-54 -30c0,-70 28,-32 89,-89 20,-11 407,-6 451,1z"/>
   <path class="fil16" d="M5797 8289l-71 -9c-2,3 -24,28 -25,29 -27,25 -11,8 -29,22 -19,15 -5,2 -28,22 -7,7 -3,6 -22,23l-40 -65c-26,103 -55,18 -215,66 -78,23 14,21 -121,45 -69,12 -275,53 -325,43 46,-40 41,-7 59,-59l69 -4c54,-84 -6,-34 60,-75 3,20 -1,20 6,41 12,33 13,20 21,30 34,-37 26,-16 109,-26 -45,-14 -33,-7 -74,-39 14,1 40,3 53,2 5,0 13,2 16,-4 3,-6 10,-4 18,-6l19 -92c49,13 19,-4 30,32 0,1 0,10 0,8 0,-2 0,6 1,8 58,28 25,24 49,-16 21,15 -13,15 54,20 75,6 69,-20 85,-47 53,16 44,37 46,43 0,0 -3,4 -3,3 0,-1 -2,1 -4,1l65 -65c98,-27 68,19 70,27l39 -51c53,22 -26,-10 36,11 61,21 55,24 52,82z"/>
   <path class="fil2" d="M6816 4049l111 8 -56 36 138 57c30,-69 23,-28 68,-47 27,55 5,36 36,77 33,0 19,-5 8,40l-235 9 -33 -52c-3,2 -7,6 -8,7l-46 33c-3,-4 -10,7 -15,10l-330 3 18 -50 39 -30c65,-4 87,-12 151,-22 -28,-85 45,-47 -58,-70l146 -4c-9,29 5,19 -19,56 3,2 8,4 10,5l51 16c17,3 36,-3 67,-11 -21,-48 -5,-13 -24,-46l-19 -25z"/>
   <path class="fil17" d="M14288 4054c-65,47 -62,0 -60,106 69,-96 40,-3 140,-46l-23 57 36 4c25,19 11,5 42,31 39,32 12,-6 36,41 -109,-8 -153,22 -211,14 -84,-12 -154,-28 -245,-27l12 -63c-14,-7 38,-20 -18,-6 -42,9 -35,25 -103,49l20 -34c59,-39 15,-7 49,-59 8,-12 6,-18 16,-31 72,27 42,76 110,38 -11,-31 6,5 -31,-35 14,-11 9,-23 17,-36 34,-4 86,-16 98,-17 39,-2 64,11 115,14z"/>
   <path class="fil12" d="M19600 5008c33,88 -1,190 20,210 3,51 0,89 0,139 1,57 15,81 -14,116l-7 5 -16 -203c47,99 -3,-60 12,29 0,1 -1,68 -1,74l-55 22c-38,11 6,13 -68,68 -5,-50 -8,-42 -10,-68 -4,-39 -6,-24 4,-43l-23 -1c-11,-92 -32,-129 12,-216l83 9c-69,-102 -43,-132 27,-177l16 23c2,-5 14,7 20,13z"/>
   <path class="fil18" d="M15610 4097l-47 21c-26,30 -14,12 -14,73 103,-17 46,21 74,-43l1 59c86,35 43,13 136,-3 3,16 -2,10 24,32 42,-14 38,-13 85,-27l-1 20c4,2 10,5 13,6 3,2 9,5 12,8 55,37 20,37 74,47 -25,-19 -1,47 -12,-20 -1,-2 6,-16 9,-21 61,-16 34,-6 99,18 83,31 47,-9 74,65 -81,-42 -24,-30 -138,-25 77,-11 79,10 86,13l-12 50c-104,-21 -183,-31 -289,-51 -58,-11 -303,-27 -321,-37 -21,-104 -1,-15 -5,-57 -2,-19 0,-14 -10,-53l74 25 36 -102 -7 -23 59 25z"/>
   <path class="fil14" d="M19599 5478l7 -5c-69,43 -30,-2 -35,56l54 -2c-26,64 -11,54 -25,95 -20,61 -5,-24 -24,63 26,73 20,21 34,70 -32,8 10,22 -81,0 5,6 12,6 15,17l54 52c-38,50 -20,53 -29,88 -20,84 -5,18 -40,67 0,0 -88,17 -40,-62 17,-28 -4,-5 48,-7 -24,-49 14,-40 -59,-34 1,-2 86,-16 11,-91l-67 -26c-4,-125 -7,-125 11,-244 128,-25 99,-9 131,-74 27,48 -5,10 35,37z"/>
   <path class="fil3" d="M18960 4449c51,46 11,5 32,42l78 -19 153 79c38,58 25,6 34,65 47,9 30,-2 60,29l-19 -119c16,-49 -2,-30 30,-53 55,-2 45,33 73,64 26,28 28,6 42,41l0 30c-110,-8 -23,-7 -60,22l11 55 -43 44c70,24 40,11 74,70 21,-8 50,-21 73,-24 70,-9 1,19 73,-9 33,21 45,36 30,83 -30,-18 -27,43 -28,-61l-69 61c48,-120 10,-26 -9,-60l-94 19c-125,-16 30,-74 -219,-196l-81 -38c-88,-38 -131,-27 -183,-67 32,-56 24,-18 33,-95l9 37z"/>
   <path class="fil13" d="M5865 4039l-62 71c26,73 1,21 41,40 -73,77 67,31 -33,26 -71,-3 92,31 -50,-13l21 55 -56 -8 26 -62c93,-89 -30,42 25,-20l-40 -48 -71 62c20,29 -7,3 39,47 -82,21 -35,29 -111,20 -43,-4 -55,-9 -110,-7 21,-98 10,-22 -12,-52l54 -15c-34,-31 -19,-17 -37,-61l64 -12 -62 -11c23,-57 315,-19 374,-12z"/>
   <path class="fil19" d="M5976 4055l45 121c25,-25 15,33 24,-47l11 6 41 -1 2 7c11,-8 48,-14 54,-16l44 11c34,32 -42,16 43,27 -31,23 16,1 -22,6 -18,3 -23,-1 -41,11l80 53 -475 -15 -21 -55c142,44 -21,10 50,13 100,5 -40,51 33,-26 -40,-19 -15,33 -41,-40l62 -71 -7 -17 52 -2c-16,68 -18,44 -6,104l51 -42c4,-4 8,-6 11,-14 2,-8 6,-9 10,-13z"/>
   <path class="fil14" d="M18620 4263c0,51 13,38 -38,38 7,1 20,-18 63,34l-23 32c-33,33 -80,39 -12,90 3,-2 5,-9 6,-7 18,28 18,-15 20,-16 5,-3 10,-6 16,-10l45 -19 0 70 -399 -38 87 -32c-15,-28 10,-85 -116,-18l-9 -71c32,13 63,3 44,37 63,-62 25,-39 113,-59 -48,60 -56,-2 -15,85 49,-11 70,28 65,-132 78,23 57,28 153,16z"/>
   <path class="fil20" d="M11483 4093l33 -1c-7,24 -7,24 -15,45l74 1c-2,-4 -7,-15 -7,-19 -1,-8 -1,-9 13,-31 81,16 110,3 190,-5 64,-7 91,7 180,-6l18 17c37,38 30,25 35,67l-51 38c-3,-4 -9,10 -14,15 3,2 10,3 11,4l1 9c-34,-62 15,-31 -69,-41l-13 33c0,-2 -3,4 -4,6l-53 -65c-46,35 -70,25 -138,37 26,-69 26,-47 0,-104 -27,47 -57,78 -97,93 -12,4 -61,10 -69,8 -42,-9 -51,-5 -40,-59l15 -42z"/>
   <path class="fil21" d="M19674 5229c25,61 44,42 30,119 -19,105 -35,30 -12,155 -15,17 -6,15 30,39 -51,64 -63,26 -54,186 -5,29 -8,59 -15,85 -19,65 -11,45 -50,65l7 -123c-14,-49 -8,3 -34,-70 19,-87 4,-2 24,-63 14,-41 -1,-31 25,-95l-19 -54c29,-35 15,-59 14,-116 0,-50 3,-88 0,-139 54,3 21,-13 54,11z"/>
   <path class="fil20" d="M13854 4118l-8 62 -74 0 35 47 -156 2c35,-61 23,-2 13,-67 -53,-13 -31,2 -35,2l-18 -55c-38,0 -62,7 -99,16l2 -86 293 6c6,4 13,2 17,10l52 29c5,3 12,6 17,9 -69,0 -10,-5 -39,25z"/>
   <path class="fil22" d="M18038 8217c-14,27 0,34 -19,12l-3 73 -141 48c21,67 -48,3 70,51 4,1 11,4 15,7 -56,48 -23,15 -92,37 -59,-9 -62,6 -137,6l2 -55c-7,-35 -32,-36 20,-80l-16 -73 83 2 -4 66c40,-25 19,-26 72,-44 46,-16 39,-5 67,-55l-53 0c39,-35 64,-53 79,10l57 -5z"/>
   <path class="fil23" d="M15243 4092c-3,3 -23,34 -25,36l16 36c-5,14 -4,5 -1,15 1,2 3,8 3,9 1,4 7,21 9,26l-64 32c2,2 7,13 13,17l-166 11c-14,-49 40,-42 -14,-34l57 -13 -68 -65c-73,-7 -61,-13 -86,-85 77,-4 140,11 188,12 38,0 84,-8 138,3z"/>
   <path class="fil24" d="M7322 4067l-25 26c41,5 26,8 47,27 -164,32 -133,62 -109,107 -57,-1 -61,11 -88,-19l-26 12c11,-45 25,-40 -8,-40 -31,-41 -9,-22 -36,-77 -45,19 -38,-22 -68,47l-138 -57 56 -36c168,3 256,-27 395,10z"/>
   <path class="fil20" d="M19601 4849c7,60 9,106 -1,159 -6,-6 -18,-18 -20,-13l-16 -23c-70,45 -96,75 -27,177l-83 -9c-40,-43 -24,-75 -16,-159l42 19c-6,-57 -7,-39 -4,-93l-55 -2 -20 -97 94 -19c19,34 57,-60 9,60l69 -61c1,104 -2,43 28,61z"/>
   <path class="fil25" d="M19320 7573c55,18 90,26 111,85 -25,28 10,9 -30,29 -17,8 -20,5 -37,8 -16,56 -16,72 -29,119l-55 -44c49,-12 17,8 22,-43l-89 -17c-59,61 -41,3 -89,69l0 -81c32,-51 33,-19 54,-115l35 -19c36,38 5,12 46,38 18,11 24,11 42,21 -29,-97 -13,-18 19,-50z"/>
   <path class="fil26" d="M18905 4312c-38,35 55,61 -61,28 7,50 17,16 13,95 4,-5 10,-10 14,-15l62 -75 64 -21 -5 43c37,45 -50,37 51,38 -14,6 23,13 -32,7 -7,-1 -50,-12 -54,-13l3 50 -9 -37c-9,77 -1,39 -33,95l-121 -14 56 -1c0,-7 -5,-29 -10,-35 -61,-71 -115,-52 -154,-41 27,-107 -5,1 -27,-127 51,-14 35,15 52,-16 38,15 72,23 122,40l69 -1z"/>
   <path class="fil26" d="M9142 4081c-26,58 -39,40 -57,97 -55,-26 2,-17 -70,-24 31,68 0,24 23,91l-121 0c5,-3 12,-6 17,-8l76 -75c-4,-1 -8,-4 -10,-5 -47,-17 -105,-11 -155,-4l-62 20 -64 -7 7 -30c59,-10 15,19 52,-26 -5,-11 -10,-36 -17,-51 53,3 108,9 173,8 109,-2 116,23 208,14z"/>
   <path class="fil26" d="M19610 5755l-7 123c-8,50 3,65 -1,129 -23,-14 -39,-22 -73,-36 -13,46 -11,-42 -9,53 0,34 8,17 5,71l-59 44c-17,-21 -24,-12 -31,-79l-13 -301 67 26c75,75 -10,89 -11,91 73,-6 35,-15 59,34 -52,2 -31,-21 -48,7 -48,79 40,62 40,62 35,-49 20,17 40,-67 9,-35 -9,-38 29,-88l-54 -52c-3,-11 -10,-11 -15,-17 91,22 49,8 81,0z"/>
   <path class="fil27" d="M19328 4473c-32,23 -14,4 -30,53l-62 -21 -13 46 -153 -79 -78 19c-21,-37 19,4 -32,-42l-3 -50c4,1 47,12 54,13 55,6 18,-1 32,-7 -101,-1 -14,7 -51,-38 96,9 89,-16 179,30 55,28 83,32 110,76l47 0z"/>
   <path class="fil4" d="M19602 6007c0,0 7,35 7,38 1,2 5,13 6,10 0,-2 4,7 6,11 5,59 15,70 -12,121l5 47 -50 -29c-7,7 -43,4 -20,62l4 56c-64,9 -27,10 -90,19l1 -130c79,-25 26,15 57,-49l-59 -21 9 -3 59 -44c3,-54 -5,-37 -5,-71 -2,-95 -4,-7 9,-53 34,14 50,22 73,36z"/>
   <path class="fil28" d="M18634 8412c-22,22 43,67 -64,18 0,1 73,18 -36,31 54,15 19,-3 38,45 -43,32 37,5 -41,28 -84,24 -28,2 -46,-2 -10,-2 -40,-5 -74,-19 -4,13 -1,29 -5,36 -26,45 8,13 -44,35 -18,-177 6,14 59,-215 24,10 18,28 60,10l22 -15c3,-3 7,-9 10,-12 3,-2 7,-8 10,-12 57,30 66,40 111,72z"/>
   <path class="fil29" d="M4921 8465c-27,40 -56,42 -114,65 -51,-27 -5,35 -49,-43 -30,60 14,15 -46,49 -52,30 -93,12 -144,29 -6,2 -33,20 -39,23 -53,9 -122,-29 -202,43 -2,2 -12,11 -17,14l-65 -2 -62 -2 30 -45c55,4 31,-2 58,31 26,-40 11,-42 85,-53 147,-22 194,-48 230,-52 58,-8 25,24 52,-26 111,-10 108,-59 197,-55l86 24z"/>
   <path class="fil8" d="M10269 8056l-47 0c3,4 15,-38 7,12l-89 32 6 70 -106 -6c-7,-39 2,-2 8,-33 8,-48 11,5 1,-61l-70 52c-76,-37 -8,6 -74,-59l-69 -26c47,-24 24,29 42,-30l319 30c76,-7 47,-24 72,19z"/>
   <path class="fil30" d="M18063 8462c18,49 -12,4 41,42 -60,19 -19,20 -81,3l15 50c-66,-34 -40,-29 -84,12 -94,-67 8,-6 -86,-124 69,-22 36,11 92,-37 -4,-3 -11,-6 -15,-7 -118,-48 -49,16 -70,-51l141 -48 3 -73 54 104c-3,-2 -7,-7 -8,-7 -2,-1 -9,-3 -10,-3 -2,-1 -12,7 -14,2 -2,-6 -10,5 -16,6l-25 88c0,2 3,13 3,11 0,-3 3,7 3,15l57 17z"/>
   <path class="fil20" d="M18269 4387l-45 -30c-34,50 23,2 -63,29 -6,-64 24,-47 -33,-46l16 -58c29,-28 29,-15 59,-20 -15,88 26,-34 -7,35l-28 42c56,-33 38,-29 67,-97l232 5c5,160 -16,121 -65,132 -41,-87 -33,-25 15,-85 -88,20 -50,-3 -113,59 19,-34 -12,-24 -44,-37l9 71z"/>
   <path class="fil6" d="M13651 4229l-322 -26c26,-50 -49,-40 27,-40 10,-8 34,-28 41,-34 57,-28 56,-22 118,-8 -15,-75 -11,-56 -74,-57l15 -24 58 -1 -2 86c37,-9 61,-16 99,-16l18 55c4,0 -18,-15 35,-2 10,65 22,6 -13,67z"/>
   <path class="fil31" d="M17463 4349c-17,-14 -22,11 -15,-17l-129 45 -56 -20c-3,2 -11,6 -16,9 -14,-61 19,-24 -31,-47 -62,-27 -14,0 -84,-6 -33,-45 -23,3 -26,-74l58 0 2 29c62,-5 35,-6 105,15l-26 -46 65 -3 34 1c37,77 4,65 18,102l65 -35c-22,-21 30,-19 -25,-17l3 -63 63 8 -33 32c48,14 33,-2 51,39l-23 48z"/>
   <path class="fil32" d="M19621 6066c-2,-4 -6,-13 -6,-11 -1,3 -5,-8 -6,-10 0,-3 -7,-38 -7,-38 4,-64 -7,-79 1,-129 39,-20 31,0 50,-65 7,-26 10,-56 15,-85l58 -11c19,37 -3,24 40,37 -3,3 -8,6 -9,7 -49,33 -34,4 -43,45l75 35c-59,151 71,-32 -51,79l-38 25c-1,1 -6,4 -7,4l-12 5c-13,99 -10,30 8,60 -28,-5 -87,-24 -68,52z"/>
   <path class="fil33" d="M17587 8273c-38,57 0,15 -54,45 -41,24 14,-20 -36,15 -70,49 -41,33 -7,44 -28,58 -2,64 -63,37 -2,-1 -7,-4 -12,-5 10,93 6,16 -19,55 -85,-17 -24,-24 -127,-34 15,-43 26,-54 27,-57 -5,-3 -11,-15 -12,-11l-24 -29c215,6 -40,-93 159,-15l24 -51c53,33 12,16 144,6z"/>
   <path class="fil20" d="M5442 4050l-142 136 39 15 -88 4 55 -109c-151,78 92,3 -48,19l-98 -22c2,-40 -5,-38 36,-35 -38,-6 -41,-7 -77,-17l0 -20c75,14 58,-14 144,-5 43,5 58,2 100,6 59,7 55,2 79,28z"/>
   <path class="fil28" d="M6178 8195c-27,47 -27,25 -104,38 -110,19 -101,44 -126,-22l-22 20 -112 7c27,-78 -39,-38 71,-43 -2,-2 -6,-3 -6,-4 0,0 -4,-4 -4,-5 -3,-55 4,-29 24,-58 3,3 81,-27 20,50 4,-13 2,-21 15,-35l53 -31c1,-4 6,-4 8,-6 -2,66 28,57 87,42 -12,75 -5,43 8,62 29,-67 -14,-33 52,-69 18,32 15,-1 -9,60l45 -6z"/>
   <path class="fil34" d="M16132 8415c104,8 156,1 258,13 -29,17 52,50 -72,7 3,4 8,5 9,12 3,13 20,13 35,64 -63,36 -39,8 -68,71l-173 -85c22,-70 15,-21 11,-82z"/>
   <path class="fil2" d="M12388 4122c109,-4 32,-8 57,23 -29,26 -25,32 -8,87 -105,-28 -51,-3 -68,-1l-192 14c-18,-50 -26,34 -11,-65 22,3 51,-4 59,-31 3,-9 9,-10 14,-15 14,53 -2,31 25,34 37,-54 10,-49 8,-75 -1,-10 -6,-11 -9,-17l0 3 11 2c51,25 -2,-11 40,30 40,40 1,4 23,30l51 -19z"/>
   <path class="fil23" d="M17920 4229c91,-5 134,5 222,4 -5,5 -11,6 -13,15l-50 74c-5,-3 -12,-9 -15,-5l-29 -18c-3,-2 -10,-8 -14,-12l-28 21c-21,15 -17,13 -42,26 -21,-29 -8,13 -32,-46l7 60 -71 -4c-27,0 -22,-2 -34,-7l-4 -53c3,-4 10,-16 13,-12l90 -43z"/>
   <path class="fil35" d="M10722 4128c57,36 71,-1 79,85l-62 -23c-41,52 -28,46 -123,47l-41 -69c-23,63 -20,49 -100,33 37,-75 105,-50 141,-98l106 25z"/>
   <path class="fil15" d="M16529 8419c-28,1 -134,8 -139,9l-8 -78 -70 -26c3,-5 15,-24 18,-29l35 -68 87 20c-37,76 -13,42 4,54 25,36 -18,24 91,15 -43,103 -38,53 -18,103z"/>
   <path class="fil32" d="M19515 6998c2,-57 -6,-108 7,-164 8,-32 27,-72 31,-109 43,-48 0,-16 63,-45l8 40c-48,26 -22,13 -52,44l95 4c-22,75 -66,5 -31,97l-95 -1c44,112 96,-18 115,128 -54,-14 -57,-22 -109,-31 -10,50 -29,33 -32,37z"/>
   <path class="fil28" d="M18008 8755c-155,-16 32,-25 -126,-64 -33,20 -38,22 -69,55l-30 -54c-1,-2 -3,-7 -5,-10l-97 27c2,-11 5,-26 7,-22 0,0 -15,-7 84,-75 4,-2 9,-6 14,-10 22,19 -27,20 55,17 31,-1 48,-10 102,-13 14,123 15,36 51,102 15,30 0,2 14,47z"/>
   <path class="fil16" d="M17733 8396c-54,-35 -79,-63 -141,-42 -3,1 -8,4 -11,5 -4,1 -9,3 -13,5 -1,0 -41,9 -46,10l21 49c-27,-18 -7,1 -37,-28 -7,-7 -11,-15 -16,-18 -34,-11 -63,5 7,-44 50,-35 -5,9 36,-15 54,-30 16,12 54,-45 50,-28 65,-87 104,-6l46 -24 16 73c-52,44 -27,45 -20,80z"/>
   <path class="fil27" d="M6511 4150c-14,-3 -76,-15 -91,-17 -35,-4 -35,2 -86,-8l-18 -65c62,-6 87,-5 148,-4 1,65 -26,21 25,49 41,-16 8,14 22,-41l93 -6c103,23 30,-15 58,70 -64,10 -86,18 -151,22z"/>
   <path class="fil20" d="M15801 4131c-29,46 -25,-5 -2,66l-39 7c-93,16 -50,38 -136,3l-1 -59c-28,64 29,26 -74,43 0,-61 -12,-43 14,-73l47 -21c29,6 56,11 88,14 74,8 29,-5 103,20z"/>
   <path class="fil5" d="M15350 4258c-33,33 -25,19 -52,34l-104 -29c-6,-4 -11,-15 -13,-17l64 -32c-2,-5 -8,-22 -9,-26 0,-1 -2,-7 -3,-9 -3,-10 -4,-1 1,-15l87 7 19 -68 14 35c2,4 4,9 5,13 4,12 8,40 9,46 133,19 63,-1 81,65l-99 -4z"/>
   <path class="fil36" d="M18662 4289c22,128 54,20 27,127 39,-11 93,-30 154,41 5,6 10,28 10,35l-56 1 -100 -18 0 -70 -45 19c-6,4 -11,7 -16,10 -2,1 -2,44 -20,16 -1,-2 -3,5 -6,7 -68,-51 -21,-57 12,-90l23 -32c-43,-52 -56,-33 -63,-34 51,0 38,13 38,-38l43 3 -1 23z"/>
   <path class="fil24" d="M13593 8024c77,-8 -29,112 -29,112l-21 -61 -34 21c-23,18 -15,12 -32,27l-52 -45c-7,0 -11,2 -18,2 -3,0 -25,24 -86,-24 30,-25 13,-24 69,-36 5,-1 30,2 35,2 97,-1 87,-26 168,2z"/>
   <path class="fil6" d="M19286 7191c0,69 18,52 -51,52l-7 52 -24 -51c-9,-79 3,2 -41,-36l77 -105 60 -65c48,46 43,27 33,125l-47 28z"/>
   <path class="fil18" d="M5484 4202l-145 -1 -39 -15 142 -136 49 1 62 11 -64 12c18,44 3,30 37,61l-54 15c22,30 33,-46 12,52z"/>
   <path class="fil12" d="M15463 4282c-1,0 -59,-1 -61,-1 -58,-10 -26,0 -52,-23l99 4c-18,-66 52,-46 -81,-65 -1,-6 -5,-34 -9,-46 -1,-4 -3,-9 -5,-13l-14 -35 218 -8 -36 102 -74 -25c10,39 8,34 10,53 4,42 -16,-47 5,57z"/>
   <path class="fil37" d="M4183 8641c-79,29 -231,42 -330,52 102,-117 239,-99 360,-97l-30 45z"/>
   <path class="fil38" d="M8917 4245l-209 -13 24 -23c1,-3 7,6 11,9 11,-95 -8,-14 40,-45l62 -20c50,-7 108,-13 155,4 2,1 6,4 10,5l-76 75c-5,2 -12,5 -17,8z"/>
   <path class="fil39" d="M2008 8097c12,50 26,146 42,184 22,51 77,91 74,156l-53 -51c-3,0 -9,1 -12,1 -64,1 -38,-21 -81,1l28 -77c8,-38 -26,-34 -22,-134 40,-10 -29,45 -29,-74l53 -6z"/>
   <path class="fil40" d="M6511 4150l-39 30 -18 50 -121 5 -59 -165c24,-12 19,-12 42,-10l18 65c51,10 51,4 86,8 15,2 77,14 91,17z"/>
   <path class="fil41" d="M14075 4057c-8,13 -3,25 -17,36 37,40 20,4 31,35 -68,38 -38,-11 -110,-38 -10,13 -8,19 -16,31 -34,52 10,20 -49,59 -44,-95 7,27 -60,-62 29,-30 -30,-25 39,-25 -5,-3 -12,-6 -17,-9l-52 -29c-4,-8 -11,-6 -17,-10 118,-5 177,8 268,12z"/>
   <path class="fil27" d="M8726 4136c-38,-41 -11,-22 -87,-35 97,36 11,-7 41,44 -81,10 -14,0 -47,35l2 55 -9 1c-1,-47 27,-40 -48,-85 -53,43 -4,63 -72,55l15 -38c1,-4 5,-7 6,-12l3 -78c135,61 30,16 73,-7 40,-8 42,0 88,15 26,-14 37,-15 70,-27 7,15 12,40 17,51 -37,45 7,16 -52,26z"/>
   <path class="fil24" d="M16225 8192c-30,61 -102,25 -144,11l45 84c-89,-53 -119,92 -169,-58 -100,-19 -39,-16 -61,-38 98,18 67,3 148,-26 65,46 96,43 181,27z"/>
   <path class="fil20" d="M12500 4061l41 -5c21,37 -23,31 21,31 -4,0 -10,0 -12,1 -36,14 -21,12 -43,40 -6,62 13,39 -19,69l61 34 -180 0c17,-2 -37,-27 68,1 -17,-55 -21,-61 8,-87 -25,-31 52,-27 -57,-23l-1 -71 50 -3 21 -13c27,54 -13,26 49,54l-7 -28z"/>
   <path class="fil15" d="M17275 8327l-72 26c-17,5 -50,9 -69,9 -100,1 -49,-31 -102,17l-52 4c35,-39 -44,-32 43,-32 2,-6 6,-31 6,-34l2 -11c0,-1 1,-2 1,-3l104 13c-14,56 -13,-23 -17,-34 6,0 46,1 52,0l99 -14 5 59z"/>
   <path class="fil28" d="M19291 7987l-70 37c-15,8 12,0 -37,19l-41 12c-4,0 -9,2 -13,1l-23 -9c-37,-27 0,3 -29,-43l36 -20c43,-20 29,31 22,-8 31,-29 20,-25 37,-68 133,37 103,46 118,79z"/>
   <path class="fil6" d="M19426 6516c1,-72 1,-88 31,-145 68,32 33,39 88,48 -10,-8 -18,-14 -20,-28 -12,-98 -8,-21 14,-56 6,84 -4,23 25,51 5,36 -29,42 -12,126 -13,5 1,-14 -15,15l-111 -11z"/>
   <path class="fil10" d="M3853 8919c-2,1 -198,19 -225,18l-18 -45c74,-24 51,-20 98,-60l9 -36c-11,17 -10,6 -8,15l12 25c2,-7 4,23 29,21l34 -17c28,61 4,35 105,35l-36 44z"/>
   <path class="fil42" d="M9215 4111l-83 -18c16,107 28,58 68,121 -135,4 -32,0 -73,36l-89 -5c-23,-67 8,-23 -23,-91 72,7 15,-2 70,24 18,-57 31,-39 57,-97l113 -6c-28,10 -19,13 -40,36z"/>
   <path class="fil15" d="M12177 4245l-62 -12c15,-37 17,-8 16,-49 -3,-69 12,-23 -21,-15l37 -41 -6 -26c34,7 18,9 18,-37l104 14 0 -3c3,6 8,7 9,17 2,26 29,21 -8,75 -27,-3 -11,19 -25,-34 -5,5 -11,6 -14,15 -8,27 -37,34 -59,31 -15,99 -7,15 11,65z"/>
   <path class="fil35" d="M9756 4075c65,6 92,0 150,0 19,0 50,2 69,7 39,9 25,1 42,22l-42 7c2,3 8,4 8,11 3,88 30,-9 -3,42 -37,2 -24,2 -57,-1l-116 -11 53 -42c-97,-4 -75,-6 -104,-35z"/>
   <path class="fil20" d="M16719 4230l-34 119 -68 -25c-23,-6 -35,10 -61,-58 -2,-4 -4,-11 -6,-17l25 -27c44,5 92,-1 144,8z"/>
   <path class="fil12" d="M3906 4101l47 -15c62,43 30,40 93,44l-37 -50 62 -9 40 27c-44,131 19,24 -188,94l-17 -91z"/>
   <path class="fil24" d="M2282 5600l7 -57c37,17 32,-21 32,18l12 -14 34 -17c25,96 19,65 -4,155 -40,11 -23,53 -63,17 -26,-48 -22,-51 -18,-102z"/>
   <path class="fil16" d="M19124 7779c-2,28 6,32 29,56 -49,-2 -36,6 -67,-13 -25,71 -2,36 -60,64 -4,-8 -48,12 8,-64l-27 9 5 -69c84,-6 -2,-6 112,-64l0 81z"/>
   <path class="fil15" d="M6274 4070l59 165 -76 -2 -80 -53c18,-12 23,-8 41,-11 38,-5 -9,17 22,-6 -85,-11 -9,5 -43,-27l58 -26c-5,-3 -9,-9 -11,-11l-26 -24c-3,-9 -9,-9 -14,-12 8,-2 14,-17 70,7z"/>
   <path class="fil20" d="M11093 4122l18 -14 199 1c-6,5 -11,6 -16,15 -5,9 -11,9 -18,11 -37,12 -21,10 -68,10 33,75 9,18 -20,87 -36,-20 -67,4 -95,-110z"/>
   <path class="fil27" d="M7945 4169l-49 10 -37 -76 -98 18 -6 -61 214 -3c-21,24 33,32 -41,19 1,2 14,40 14,43 5,27 3,22 3,50z"/>
   <path class="fil26" d="M4808 4064l22 -14c28,-8 20,-3 45,-8 119,-26 28,-32 123,-16l-24 46c51,-3 54,-3 92,-11l-51 81 -42 -24c-10,-7 -26,-20 -27,-20 -31,18 -48,28 -71,43l-4 -97 -63 20z"/>
   <path class="fil15" d="M10781 7896l95 3 20 37c5,9 21,25 11,51 -9,-1 -57,-15 -73,-21 -20,41 -24,28 -56,48l-27 -59c-3,-4 -7,-9 -10,-14 19,38 11,12 -40,1l-68 -24c49,-14 37,3 76,8 148,19 40,14 72,-30z"/>
   <path class="fil18" d="M19599 5478c-40,-27 -8,11 -35,-37 -32,65 -3,49 -131,74 4,-53 -21,-131 9,-159l23 1c-10,19 -8,4 -4,43 2,26 5,18 10,68 74,-55 30,-57 68,-68l55 -22c0,-6 1,-73 1,-74 -15,-89 35,70 -12,-29l16 203z"/>
   <path class="fil43" d="M6174 4055c-12,39 -14,42 -21,70 -6,2 -43,8 -54,16l-2 -7 -41 1 17 -25c16,-29 4,-4 23,-47 -23,5 -107,-5 -51,66 -9,80 1,22 -24,47l-45 -121c62,-29 57,-41 131,1l67 -1z"/>
   <path class="fil20" d="M12891 8001l5 40c41,57 29,44 44,102 -79,-3 -65,2 -102,-42 -47,-57 -10,-27 -54,-115l107 15z"/>
   <path class="fil44" d="M14580 4251l-121 -4c-24,-47 3,-9 -36,-41 -31,-26 -17,-12 -42,-31l-4 -10 54 30c22,-58 -5,-18 45,-55l105 49c2,-4 7,5 12,8l-13 54z"/>
   <path class="fil4" d="M12645 4212l-96 19 -61 -34c32,-30 13,-7 19,-69l19 24c57,72 -45,8 50,46l27 -35c2,-3 5,-14 6,-21 0,-5 0,-7 1,-10 -29,69 17,42 36,50l20 -69c39,40 11,21 48,28l31 2c1,-3 6,1 8,2 -27,48 -17,-12 -4,69 -2,0 -65,-15 -70,-15 -6,-1 -14,11 -18,5 -4,-6 -11,5 -16,8z"/>
   <path class="fil18" d="M13914 4180l-20 34c68,-24 61,-40 103,-49 56,-14 4,-1 18,6l-12 63 -196 -7 -35 -47 74 0 8 -62c67,89 16,-33 60,62z"/>
   <path class="fil41" d="M14413 4074l53 2c-61,57 -89,19 -89,89l4 10 -36 -4 23 -57c-100,43 -71,-50 -140,46 -2,-106 -5,-59 60,-106l106 8c-10,44 -20,5 2,34 29,4 20,9 17,-22z"/>
   <path class="fil25" d="M20010 6084c-64,-37 -7,-41 -84,-16 25,-54 14,-57 1,-120 105,34 70,30 105,9l26 -22c6,96 6,86 -48,149z"/>
   <path class="fil45" d="M16797 8189c90,-13 50,-40 193,-54 -12,29 -21,182 -114,72 -119,18 98,-56 -29,6 -3,2 -32,21 -33,22l-17 -46z"/>
   <path class="fil46" d="M2679 4452c-31,81 -2,46 -64,119 9,-56 23,-45 -28,-45 -1,-1 -4,-6 -4,-5l-25 -15c-64,-30 -38,27 -59,-34 -27,-81 19,-62 19,-63 54,27 21,-20 52,76 98,-18 1,-47 109,-33z"/>
   <path class="fil20" d="M5604 8555c-57,-9 -53,2 -103,50l-66 -20 -35 -112c83,29 37,-51 61,63 114,-43 72,-10 92,-6 99,-13 19,-10 51,25z"/>
   <path class="fil14" d="M4529 4073c0,33 7,19 -34,29l-70 -43c17,48 25,53 0,99 30,-20 9,28 0,39l-77 -32 25 -68 -1 -42 157 18z"/>
   <path class="fil23" d="M2310 4976c-7,-52 4,-36 -19,-69l12 -58c104,10 12,1 107,40 -14,45 -40,9 -51,132 -4,-4 -10,-16 -12,-13l-20 -20c-2,-1 -8,-6 -9,-7 -2,-1 -6,-4 -8,-5z"/>
   <path class="fil20" d="M9524 4083l69 0 -28 40c69,14 42,0 45,30l-50 35 -67 -69c-6,85 6,20 -36,65l-20 37c-38,-24 -18,-33 -39,-53 100,-44 -17,-45 126,-43 12,-26 11,1 0,-42z"/>
   <path class="fil12" d="M7443 4054c30,41 -36,38 67,49 54,6 2,5 26,-3 -127,96 73,-77 -28,40 -25,30 17,16 -48,31 0,-6 -1,-13 -2,-16l-16 -44c-28,29 -18,18 -61,-8l-59 -36c57,-36 75,-17 121,-13z"/>
   <path class="fil47" d="M18308 8112c2,3 -115,27 -122,30l5 -79 111 -26c35,-5 11,4 46,-24l-4 52c-3,-1 -13,-8 -17,-11l-19 58z"/>
   <path class="fil48" d="M18617 7772c52,-22 47,-21 85,-56 11,-9 30,-27 37,-32 23,-18 8,-6 29,-16l-3 85 -103 66c-65,-23 -59,39 -45,-47z"/>
   <path class="fil18" d="M16443 4403l-53 -16 -65 8c-1,-47 -7,15 4,-35l9 -29c1,-9 4,-11 5,-16 51,0 79,-4 116,-14 17,-32 38,-41 25,-55 -59,39 -28,69 10,124 -17,4 -43,28 -51,33z"/>
   <path class="fil46" d="M2559 5358c-1,79 7,75 -48,117 -27,-127 -38,-5 -52,-101l42 -92 17 48c14,11 27,9 41,28z"/>
   <path class="fil20" d="M9215 4111c21,-23 12,-26 40,-36l61 -7c5,4 13,4 16,13 25,75 8,-15 52,47 -43,51 -4,11 -69,44 -65,-39 -62,-16 -100,-61z"/>
   <path class="fil5" d="M8726 4136l-7 30 64 7c-48,31 -29,-50 -40,45 -4,-3 -10,-12 -11,-9l-24 23 -73 3 -2 -55c33,-35 -34,-25 47,-35 -30,-51 56,-8 -41,-44 76,13 49,-6 87,35z"/>
   <path class="fil49" d="M4481 8819c-39,19 -50,10 -80,27l-48 40c-53,-28 -67,-31 -132,-20 12,-14 11,-37 94,-16l51 -74c90,16 54,20 115,43z"/>
   <path class="fil24" d="M2100 8551l-59 77 -61 -15c-1,-3 -25,-38 -28,-43 -18,-27 -17,-13 -26,-53l37 39c23,-66 -8,-26 52,-36l54 39c2,-1 9,-2 12,-3 3,0 14,-3 19,-5z"/>
   <path class="fil50" d="M19523 4684l22 49c-149,-27 -45,31 -146,15 -38,-87 -10,-22 -5,-63l54 23c9,-42 6,-60 29,-78 53,6 41,29 46,54z"/>
   <path class="fil25" d="M18540 8066l49 -5c45,4 31,23 73,-13 30,56 -2,-1 -10,60 6,2 27,8 31,11l29 41c-7,4 31,63 -60,13 -24,-13 -14,-31 -31,-54 -59,-81 -38,58 -81,-53z"/>
   <path class="fil41" d="M7471 8250l-75 17 -27 -55 108 -82c21,45 38,-59 7,70 -15,61 -13,-36 -13,50z"/>
   <path class="fil51" d="M13456 4040l-15 24c63,1 59,-18 74,57 -62,-14 -61,-20 -118,8 -24,-25 -11,15 -35,-39l46 -75c32,33 6,10 48,25z"/>
   <path class="fil20" d="M19228 7295c-69,38 -37,34 -80,82 -26,-68 13,-39 -35,-65 36,-72 29,-29 50,-104 44,38 32,-43 41,36l24 51z"/>
   <path class="fil27" d="M3755 4119c0,-32 120,-35 151,-18 -66,39 -40,72 -53,86 -5,-3 39,-25 -93,-4 10,-58 10,-38 -5,-64z"/>
   <path class="fil33" d="M18791 8496l-90 -9c-22,-84 -2,-104 24,-152l66 161z"/>
   <path class="fil52" d="M7668 8211l154 -8c-61,109 20,38 -50,115 -30,-55 -22,-33 -4,-95 -92,53 -29,19 -77,89 -26,-37 -23,-24 2,-65l-25 -36z"/>
   <path class="fil11" d="M18281 8570c0,0 -83,1 -29,-108 15,-31 11,-13 29,-30 5,4 64,7 29,95 -16,39 -8,17 -29,43z"/>
   <path class="fil28" d="M18211 8402c45,-102 49,-95 132,-110 -11,72 13,95 -132,110z"/>
   <path class="fil24" d="M19571 4766c-72,28 -3,0 -73,9 -23,3 -52,16 -73,24 -34,-59 -4,-46 -74,-70l43 -44c-5,41 -33,-24 5,63 101,16 -3,-42 146,-15l-22 -49c3,3 7,4 7,10 2,8 11,18 13,22 21,40 -10,2 28,50z"/>
   <path class="fil53" d="M15234 4164l-16 -36c2,-2 22,-33 25,-36 14,0 67,-5 68,-5 47,2 9,-23 29,16l-19 68 -87 -7z"/>
   <path class="fil11" d="M19320 7573c-32,32 -48,-47 -19,50 -18,-10 -24,-10 -42,-21 -41,-26 -10,0 -46,-38 -7,-93 4,-50 30,-65l-12 48c32,-15 52,-28 90,-21 7,17 54,-19 -1,47z"/>
   <path class="fil45" d="M3717 8796l-9 36c-55,-28 -56,7 -54,-66 -79,53 -28,26 -48,17 62,-39 9,0 39,-61 2,-23 -52,11 18,-18l39 27 19 20 -4 45z"/>
   <path class="fil29" d="M18924 7918c73,-125 -18,24 23,-41 3,-4 16,-16 18,-25 2,-7 7,-8 10,-12 29,104 78,65 39,153 -73,-39 -6,-1 -53,-45 -27,-25 -16,-9 -37,-30z"/>
   <path class="fil18" d="M12933 4207l-124 -3c-16,-27 0,-5 -20,-47l73 -40 71 90z"/>
   <path class="fil53" d="M6750 4054l66 -5 19 25c19,33 3,-2 24,46 -31,8 -50,14 -67,11l-51 -16c-2,-1 -7,-3 -10,-5 24,-37 10,-27 19,-56z"/>
   <path class="fil35" d="M19477 4630c-23,18 -20,36 -29,78l-54 -23 -11 -55c37,-29 -50,-30 60,-22l0 -30c36,19 21,-11 34,52z"/>
   <path class="fil54" d="M12388 4122l-51 19c-22,-26 17,10 -23,-30 -42,-41 11,-5 -40,-30 29,-34 -39,-11 58,-31 37,-8 23,-1 55,1l1 71z"/>
   <path class="fil29" d="M17820 8245c17,-20 -6,-13 36,-28 56,-21 26,-6 46,-5l53 0c-28,50 -21,39 -67,55 -53,18 -32,19 -72,44l4 -66z"/>
   <path class="fil55" d="M19223 4551l13 -46 62 21 19 119c-30,-31 -13,-20 -60,-29 -9,-59 4,-7 -34,-65z"/>
   <path class="fil19" d="M5726 4210l-21 -21c-46,-44 -19,-18 -39,-47l71 -62 40 48c-55,62 68,-69 -25,20l-26 62z"/>
   <path class="fil31" d="M8423 4065l58 4 -7 86c-36,-14 2,6 -55,-52l-18 56 -38 -43 60 -51z"/>
   <path class="fil56" d="M8224 8133c27,-34 -22,-9 26,-30 21,-9 19,-6 42,-7 43,-2 75,3 100,21 -73,13 -88,50 -168,16z"/>
   <path class="fil57" d="M9715 4087c1,3 11,46 15,57l-67 17c-3,-7 -6,-19 -7,-17 -16,36 4,-15 -32,-68l91 11z"/>
   <path class="fil14" d="M17310 4234c57,-11 38,-19 95,-12l-3 63c55,-2 3,-4 25,17l-65 35c-14,-37 19,-25 -18,-102l-34 -1z"/>
   <path class="fil58" d="M2333 5547l-12 14c0,-39 5,-1 -32,-18 -31,-36 -49,-39 -58,-83l10 -39c55,114 83,14 92,126z"/>
   <path class="fil59" d="M2447 5817c-6,1 -44,4 -50,8 -45,26 -1,-20 -31,33 -49,-37 -36,46 -38,-34l110 -71 9 64z"/>
   <path class="fil20" d="M17135 8133c-3,3 -9,2 -11,8 -16,44 -48,-34 -79,76l-7 18c0,1 -4,6 -6,8 -15,-19 -16,9 -20,-45 -5,-75 14,26 3,-72 63,16 44,14 120,7z"/>
   <path class="fil20" d="M3527 4111l51 -1c-12,48 -47,131 -101,52l50 -51z"/>
   <path class="fil60" d="M8907 8101l-42 -13c28,67 31,36 4,110 -22,-23 -19,-4 -30,-46 -6,-19 -5,-47 -8,-69l34 -22 42 40z"/>
   <path class="fil61" d="M17164 4239c3,-17 -31,-31 41,-28 68,3 37,22 40,26l26 46c-70,-21 -43,-20 -105,-15l-2 -29z"/>
   <path class="fil26" d="M10247 7866c-11,59 21,9 -21,43 -55,45 -163,-86 21,-43z"/>
   <path class="fil51" d="M6204 4063c5,3 11,3 14,12l26 24c2,2 6,8 11,11l-58 26 -44 -11c7,-28 9,-31 21,-70 19,17 3,14 30,8z"/>
   <path class="fil35" d="M2430 4409c16,-29 20,-37 27,-82l53 -12c-9,63 4,20 -32,36 27,7 15,52 8,77 -31,-27 -10,-10 -56,-19z"/>
   <path class="fil16" d="M16611 8476l15 -65c44,8 10,5 64,28 26,-58 0,-15 37,-33l-19 57c-3,1 -17,1 -22,2 -34,3 -36,2 -75,11z"/>
   <path class="fil44" d="M19438 4981l-26 -25 9 -51 55 2c-3,54 -2,36 4,93l-42 -19z"/>
   <path class="fil49" d="M5976 4055c-4,4 -8,5 -10,13 -3,8 -7,10 -11,14l-51 42c-12,-60 -10,-36 6,-104l66 35z"/>
   <path class="fil11" d="M19072 8118c1,8 48,-24 -8,43 -20,24 -83,26 -53,-30 2,-4 15,-17 19,-19 71,-32 28,1 42,6z"/>
   <path class="fil41" d="M18905 4312l28 33 -62 75c-4,5 -10,10 -14,15 4,-79 -6,-45 -13,-95 116,33 23,7 61,-28z"/>
   <path class="fil49" d="M19616 6680c-63,29 -20,-3 -63,45l-7 -50 58 -72c8,58 9,26 12,77z"/>
   <path class="fil62" d="M19457 6371l1 -29c63,-9 26,-10 90,-19l-9 12c-22,35 -26,-42 -14,56 2,14 10,20 20,28 -55,-9 -20,-16 -88,-48z"/>
   <path class="fil41" d="M12110 4169l-33 6 -16 -49c54,-27 23,-16 80,-24l6 26 -37 41z"/>
   <path class="fil35" d="M16997 4242l0 -8 50 -4c17,131 4,20 -15,70l-51 -1 16 -57z"/>
   <path class="fil63" d="M12661 8085c-51,-22 -57,-30 -107,-41 2,-3 -18,-46 54,-27 37,10 41,29 53,68z"/>
   <path class="fil53" d="M18805 4331c-16,27 6,17 -22,38 -29,22 7,11 -51,11l5 -77 68 28z"/>
   <path class="fil40" d="M17240 4422l-60 2 8 -76c58,26 0,17 79,42l-27 32z"/>
   <path class="fil50" d="M19563 4958l-50 -32c31,-48 5,-21 51,-55 1,2 55,-6 -1,87z"/>
   <path class="fil63" d="M4348 4165c-47,-25 -32,-2 -66,-60l63 -8 28 0 -25 68z"/>
   <path class="fil51" d="M9333 7832l35 18 34 -21c-1,6 -7,41 -8,46 -27,80 -5,19 -26,48 -63,-74 -7,-4 -35,-91z"/>
   <path class="fil18" d="M7147 4208c-72,-18 -26,9 -34,-46l87 -3c-32,36 -20,16 13,38l-66 11z"/>
   <path class="fil51" d="M15868 4229l1 -20 -13 -62c72,16 73,28 60,53 -26,46 7,9 -48,29z"/>
   <path class="fil29" d="M1961 6625l18 -48c56,24 45,4 73,68l-91 -20z"/>
   <path class="fil53" d="M16826 8393c-3,62 -47,16 -99,13 17,-75 -9,-36 53,-59l-16 67 62 -21z"/>
   <path class="fil64" d="M2381 5910l4 -63 -19 11c30,-53 -14,-7 31,-33 6,-4 44,-7 50,-8 -28,55 -25,51 -66,93z"/>
   <path class="fil65" d="M18821 7938l-14 35 -56 4 4 -71c40,34 17,21 66,32z"/>
   <path class="fil66" d="M11516 4092l65 -4c-14,22 -14,23 -13,31 0,4 5,15 7,19l-74 -1c8,-21 8,-21 15,-45z"/>
   <path class="fil54" d="M6056 4135l-11 -6c-56,-71 28,-61 51,-66 -19,43 -7,18 -23,47l-17 25z"/>
   <path class="fil20" d="M10308 4162c-45,19 -38,16 -56,44l-37 -61c31,-7 20,-11 45,-6l48 23z"/>
   <path class="fil53" d="M12630 7982l71 5c-5,102 3,18 -21,56 -42,-37 -26,-16 -50,-61z"/>
   <path class="fil53" d="M6366 8164l-14 53 -63 -41 27 -29c18,26 5,4 50,17z"/>
   <path class="fil67" d="M6886 4229l-102 -2c5,-3 12,-14 15,-10l46 -33c1,-1 5,-5 8,-7l33 52z"/>
   <path class="fil68" d="M2180 6638c5,-29 4,-71 4,-72 11,-38 21,-7 24,-26 2,-6 7,-7 10,-10l18 21c-57,65 -2,25 -56,87z"/>
   <path class="fil69" d="M18810 7643c18,-32 4,-13 24,-38 13,-17 13,-14 27,-28l12 69 -63 -3z"/>
   <path class="fil65" d="M12524 8219l-41 3c-24,-76 -20,-12 -10,-81 25,21 9,6 27,36l24 42z"/>
   <path class="fil70" d="M6756 8348c-46,8 -48,11 -99,22l-4 -43 91 15c2,-4 8,4 12,6z"/>
   <path class="fil71" d="M16506 8506c14,-77 -11,-28 53,-63 -20,108 18,50 -53,63z"/>
   <path class="fil53" d="M10417 4126c27,6 86,6 49,43 -15,16 10,32 -29,1 -32,-25 -11,-12 -20,-44z"/>
   <path class="fil54" d="M19459 6212l23 -43c-32,0 -22,7 -25,-27l59 21c-31,64 22,24 -57,49z"/>
   <path class="fil72" d="M3953 4086l56 -6 37 50c-63,-4 -31,-1 -93,-44z"/>
   <path class="fil67" d="M4245 8643l65 2c-16,19 -27,34 -41,51 -28,-26 -24,41 -24,-53z"/>
   <path class="fil41" d="M9003 7929c-45,-61 -43,-37 38,-58 -20,57 11,28 -38,58z"/>
   <path class="fil67" d="M6383 8395l-40 6c-39,-98 -2,-44 13,-61l27 55z"/>
   <path class="fil73" d="M19625 5527l-54 2c5,-58 -34,-13 35,-56l19 54z"/>
   <path class="fil70" d="M16253 5458c-33,-41 -38,-14 -1,-65 1,2 64,-21 1,65z"/>
   <path class="fil41" d="M14327 8096l87 1 -24 23c-22,19 0,3 -28,23l-35 -47z"/>
   <path class="fil57" d="M8146 4126c-45,-11 -20,22 -51,-52 48,10 62,-1 51,52z"/>
   <path class="fil74" d="M6464 4056l47 8c-14,55 19,25 -22,41 -51,-28 -24,16 -25,-49z"/>
   <path class="fil75" d="M19403 6586c7,-68 -3,-34 25,-70 11,35 3,24 19,52l-44 18z"/>
   <path class="fil51" d="M16806 4298c-41,-16 -46,0 -34,-51 35,15 27,-27 34,51z"/>
   <path class="fil23" d="M5127 4093c0,0 15,27 -25,11 -21,-8 -9,-1 -34,-28 26,-3 45,-14 59,17z"/>
   <polygon class="fil32" points="4373,4097 4345,4097 4333,4060 4372,4055 "/>
   <path class="fil76" d="M19596 7182c-59,-21 -28,2 -53,-47 32,5 12,-18 36,11 2,3 13,31 17,36z"/>
   <path class="fil77" d="M17646 8049l10 -6 2 51c-21,-12 -64,20 -12,-45z"/>
   <path class="fil78" d="M12458 4035l42 26 7 28c-62,-28 -22,0 -49,-54z"/>
   <path class="fil79" d="M10942 4286l-28 -1c-4,-64 -29,-7 12,-51l16 52z"/>
   <path class="fil80" d="M18990 7469c17,-16 34,-32 58,-49l-12 39 -46 10z"/>
   <polygon class="fil81" points="2538,4736 2508,4720 2534,4682 "/>
   <path class="fil39" d="M14394 4062l19 12c3,31 12,26 -17,22 -22,-29 -12,10 -2,-34z"/>
   <path class="fil82" d="M11957 8766c-4,3 -9,6 -10,10 -6,16 -30,-10 -30,-10 56,-34 18,-9 40,0z"/>
  </g>
 </g>
</svg>
