<?xml version="1.0" encoding="UTF-8"?>
<!DOCTYPE svg PUBLIC "-//W3C//DTD SVG 1.1//EN" "http://www.w3.org/Graphics/SVG/1.1/DTD/svg11.dtd">
<!-- Creator: CorelDRAW X8 -->
<svg xmlns="http://www.w3.org/2000/svg" xml:space="preserve" width="210mm" height="297mm" version="1.1" style="shape-rendering:geometricPrecision; text-rendering:geometricPrecision; image-rendering:optimizeQuality; fill-rule:evenodd; clip-rule:evenodd"
viewBox="0 0 21000 29700"
 xmlns:xlink="http://www.w3.org/1999/xlink">
 <defs>
  <style type="text/css">
   <![CDATA[
    .fil69 {fill:#100E2E}
    .fil65 {fill:#191618}
    .fil41 {fill:#1A1727}
    .fil60 {fill:#1A252E}
    .fil64 {fill:#270707}
    .fil76 {fill:#281819}
    .fil42 {fill:#281B27}
    .fil52 {fill:#281B37}
    .fil55 {fill:#292727}
    .fil51 {fill:#2A2736}
    .fil18 {fill:#2C232B}
    .fil9 {fill:#33242C}
    .fil29 {fill:#342B33}
    .fil24 {fill:#362637}
    .fil58 {fill:#372626}
    .fil7 {fill:#3A2C34}
    .fil15 {fill:#3C3334}
    .fil2 {fill:#3C333C}
    .fil19 {fill:#43333B}
    .fil8 {fill:#433443}
    .fil21 {fill:#443B43}
    .fil10 {fill:#483648}
    .fil79 {fill:#483A55}
    .fil11 {fill:#4B3C44}
    .fil5 {fill:#4B3C4B}
    .fil23 {fill:#53444B}
    .fil67 {fill:#553839}
    .fil28 {fill:#574856}
    .fil39 {fill:#584A65}
    .fil40 {fill:#595566}
    .fil20 {fill:#5A5458}
    .fil36 {fill:#654957}
    .fil47 {fill:#675659}
    .fil38 {fill:#675866}
    .fil66 {fill:#675B75}
    .fil32 {fill:#696369}
    .fil68 {fill:#696777}
    .fil30 {fill:#6C4F6B}
    .fil45 {fill:#6F6D8B}
    .fil62 {fill:#755A66}
    .fil54 {fill:#756669}
    .fil53 {fill:#766977}
    .fil83 {fill:#76879D}
    .fil48 {fill:#797687}
    .fil44 {fill:#867A86}
    .fil71 {fill:#877778}
    .fil73 {fill:#888797}
    .fil78 {fill:#8C6E70}
    .fil75 {fill:#8D8A8C}
    .fil81 {fill:#9092AD}
    .fil82 {fill:#916562}
    .fil56 {fill:#958A97}
    .fil72 {fill:#988888}
    .fil59 {fill:#999498}
    .fil80 {fill:#9998A7}
    .fil57 {fill:#A69BA7}
    .fil77 {fill:#AE928E}
    .fil27 {fill:#B5AAA8}
    .fil70 {fill:#B7C6D2}
    .fil43 {fill:#BBB3AC}
    .fil16 {fill:#BBB5B6}
    .fil26 {fill:#C3BABA}
    .fil25 {fill:#C5B8B5}
    .fil46 {fill:#C7BCC4}
    .fil50 {fill:#CABDBC}
    .fil35 {fill:#CBC3BB}
    .fil14 {fill:#CDC4C3}
    .fil34 {fill:#D3C5C6}
    .fil37 {fill:#D4CBC4}
    .fil74 {fill:#D4CCCB}
    .fil12 {fill:#D5CBD5}
    .fil22 {fill:#D9D4C8}
    .fil17 {fill:#DACDC5}
    .fil61 {fill:#DBD4DB}
    .fil33 {fill:#DCD3CC}
    .fil3 {fill:#DCD4D3}
    .fil49 {fill:#DDDBDB}
    .fil4 {fill:#E3DAD3}
    .fil13 {fill:#E5E2E4}
    .fil63 {fill:#E7DBE6}
    .fil1 {fill:#EAE1DA}
    .fil6 {fill:#EDE9E4}
    .fil0 {fill:#F5F2F5}
    .fil31 {fill:#F9F6F5}
   ]]>
  </style>
 </defs>
 <g id="Ebene_x0020_1">
  <metadata id="CorelCorpID_0Corel-Layer"/>
  <g id="_1602470337808">
   <path class="fil0" d="M11248 6483l-239 -23c-95,74 -118,86 -257,109l-322 79c85,152 16,78 -63,193 -2,4 -112,147 -130,174 -383,8 -499,158 -712,319l193 343 -353 277c-32,-237 -73,-191 -67,-484l-98 3c-25,133 -20,97 -57,202l30 221c65,225 40,115 -9,234 -162,-112 2,73 -165,-126 -135,-160 -1,27 -61,-140l17 -197c61,-204 50,-289 -81,-441 -350,-44 -188,28 -347,97 -192,85 -427,-23 -882,346l-110 -176c-203,325 -47,58 -370,258 -324,200 -377,133 -350,219l-22 457 -195 19c-128,-107 -178,34 -10,-211l-157 85c-208,204 -152,-28 -367,353l-319 289 -144 215 11 228 -182 14c-87,340 -405,706 -215,1024 -283,327 -104,764 -188,1351l57 65 156 67c145,51 -15,5 66,5 -8,-7 -62,-51 -63,-52l-84 -85c65,-367 262,-824 678,-854 -1,-286 9,-271 194,-433 -10,-228 28,-116 -64,-227 14,-15 31,-33 41,-44 10,-11 27,-31 39,-44l67 -81c91,-106 21,-43 135,-142 247,45 185,95 440,132l-224 556 41 261c-231,284 -45,402 -175,694l13 109c184,761 34,577 275,909 -37,165 -68,193 -116,322l81 161 193 354c-88,33 -37,16 -90,13l-129 -10c-157,-38 -139,16 -179,-262l-225 19c-31,-347 -117,-85 -159,-464l-305 -26c-173,-454 -169,-72 -418,-502l-226 -14c7,304 -50,635 58,909 166,418 10,381 299,722 3,121 -6,187 33,299 78,221 22,-93 99,208l143 200 2 451c372,343 130,647 424,470 73,308 71,165 245,401 104,142 165,236 223,415 448,20 308,137 512,391l1038 764c595,206 370,227 606,356 163,90 95,-39 306,146l244 141c161,62 -10,138 510,318l1350 527c431,-35 275,39 602,92 324,53 428,38 680,-63l97 -155c127,-78 10,-47 237,-24l-14 291c0,13 3,35 6,52 161,-72 59,-93 282,-93l1785 -353c222,-55 173,27 631,-130 274,-94 221,-46 454,-185 102,-203 51,-87 250,-141 265,-71 116,-56 393,-171l140 22 357 -258c96,-89 319,-287 415,-426 170,-246 55,-248 362,-470 51,-37 179,-148 207,-182 53,-66 27,-25 73,-118 87,-177 254,-547 461,-612l172 -168c-7,-235 54,-352 152,-515 -8,-20 -45,-89 -48,-103l-23 -91c-3,-164 99,-378 214,-514 -47,-136 -35,-87 -75,-257l169 -276c-68,-160 112,-104 -97,-139l107 -278 -30 -130c-90,-182 -146,-658 -97,-914l2 -208c-177,-121 -124,-9 -170,-464 -17,-163 -4,-79 7,-120 3,-256 -78,-139 -103,-373 -23,-229 56,-183 59,-382 1,-93 -162,-551 -289,-680 -186,-185 -93,-155 -298,-287l4 -216 -123 -290c-157,-234 -87,-103 -103,-272 -97,-62 -79,-21 -169,-162l-23 -143 -218 -83c-72,-346 -26,-63 28,-179l27 -114c-380,-114 -158,-102 -394,-309 -122,-245 -108,-206 -349,-323 -137,-191 -298,-286 -553,-461 -160,-197 -122,-27 -253,-287 -87,-61 -237,-213 -342,-276 -133,-79 -241,-102 -381,-199 -305,-212 -669,-156 -812,-369 -173,10 -249,64 -249,-71 -278,-11 -506,-19 -780,-45l-660 21c-178,1 -104,15 -144,21 -251,42 -232,-3 -485,23l-981 101z"/>
   <path class="fil1" d="M10612 19449c-120,-44 -409,-19 -342,-123l-861 -267c-15,-6 -31,-15 -45,-22 -636,-292 -463,-333 -714,-447 -180,-82 -159,-29 -282,-102 -45,-28 -134,-116 -225,-178 -198,-61 -235,-97 -313,-296l-400 -6c-12,-205 56,-105 -111,-276 -45,-46 -151,-117 -170,-134 -146,85 195,122 -198,69l-159 -284 11 -54 -250 73 16 -300 -55 -35c-695,228 -135,-17 -749,32l-114 11c-10,2 -29,6 -39,8 -15,4 -170,65 -179,68 215,-519 234,-139 252,-499 60,180 -51,158 144,149l11 -240 42 -34c-252,-90 -145,-2 -249,-189l-31 -249c-218,-236 15,-134 -280,-127 90,-258 95,-103 25,-287l-290 -258c-3,-13 -17,-13 -26,-20l-93 -156c-139,-168 209,39 -130,-82 83,-64 -123,-80 145,-79l-55 -169c-166,-78 -121,-9 -255,-129l56 -321c-27,-215 -34,-368 -71,-579l-63 42c-151,-80 -50,32 -105,-102l84 -133 0 -82c-532,96 -120,-132 -565,52 14,-150 -21,-101 76,-180 15,-11 72,-40 88,-48l185 -54c-293,53 -104,120 -136,-162l286 -51c-44,-205 -2,-111 -122,-247l91 -259 -180 -63c4,-173 26,-258 69,-369 -287,-20 19,-86 -339,47 -9,-135 30,-74 -139,34 -111,-191 38,-76 -480,-226l27 386 -185 137c-86,121 -10,187 -123,299 -225,223 -166,53 -178,54l-54 -297 183 -65c-138,-313 -70,-242 41,-577 -92,116 -14,80 -169,94l99 -224c-174,100 -156,96 -321,167l205 -424c268,51 271,25 321,257l23 -229c348,139 179,92 493,14 203,127 116,155 411,85l-82 -280 301 -40 81 -183 -178 -57 -291 69 33 159c31,202 -84,317 -85,314 -4,-12 -25,29 -38,42 -166,-424 -229,176 -159,-377l-508 225c-1,-6 -172,-24 11,-308 86,-135 111,-27 131,-22 -162,-557 -3,-280 51,-343 67,188 16,167 193,351 0,-7 19,-192 18,-205 0,-22 0,-38 -1,-59 -14,-263 -122,-128 9,-231 -49,-166 -121,-22 139,104 8,4 27,6 35,9 7,4 25,7 31,10l166 102 166 -308c-136,-139 24,-102 -241,-65 12,-18 88,-111 99,-127 8,-14 26,-29 32,-43 53,-115 43,66 -88,-264 350,32 240,36 391,252 116,-267 -40,-75 104,-424 3,-7 13,-19 15,-36 2,-18 8,-25 11,-38 -117,-50 -69,-16 -180,75 -36,-200 76,-96 -99,-197 121,-240 86,-87 104,-261 2,-24 -22,-191 -20,-189l-318 47c-10,-11 -25,-30 -34,-40 -77,-87 22,2 -87,-85 155,33 198,-104 263,-278l250 65 132 110 353 -215 -16 -165c-233,1 -106,20 -212,-52 13,-10 31,-23 37,-31 7,-7 26,-24 34,-34l216 -227c5,-18 28,-9 41,-15 -78,-72 -79,122 -53,-152 -508,93 -583,23 -917,397 -367,413 -338,496 -404,819 -51,248 -380,308 -518,714 -37,108 -8,115 -93,263l-221 499c-61,134 -259,326 -328,443 -289,485 -158,548 -252,717 -300,534 -183,948 -91,1530 15,100 2,181 23,288 50,253 84,146 117,285 50,216 20,378 117,661 54,157 157,362 227,535 162,402 426,639 626,857 115,126 151,373 268,698 82,227 187,489 399,638 12,8 30,17 41,24l136 97c-10,537 88,286 215,688 235,743 77,274 821,999 213,207 356,240 634,336 484,167 97,222 742,600l1017 403c263,114 11,263 711,259l133 -205 60 258c186,-61 83,-82 195,-183 15,-13 106,-60 125,-69l5 388c17,-9 137,-67 155,-75 230,-98 518,-95 922,-134l24 -241 567 -75c190,-274 -91,-146 259,-185 -84,-229 -106,-79 -130,-382 -245,48 -151,96 -254,-131 87,-92 38,-20 99,-98 117,-152 30,-46 70,-136 3,-6 -126,-17 213,-158l-138 -116c-9,-8 -29,-27 -37,-34 -8,-8 -24,-24 -37,-36l203 -65z"/>
   <path class="fil2" d="M4861 9052c-49,322 9,81 -88,224l-136 202 -30 143c-15,224 8,-50 10,134 2,276 17,156 -120,265 -3,13 -9,20 -11,38 -2,17 -12,29 -15,36 -144,349 12,157 -104,424 -93,190 -53,277 17,502l-111 213 178 57 -81 183 -48 103c65,144 10,57 111,157 9,9 29,20 37,28l100 97c-211,203 -176,41 -140,430l-138 71c208,219 61,91 155,334l-91 259c120,136 78,42 122,247l-102 357 168 86 0 82 21 235 63 -42 354 257 -50 365 -61 214c186,261 161,101 160,679 9,7 23,7 26,20l290 258c185,106 93,75 228,202l27 212 31 249 270 -91c17,-31 49,-16 89,-18l-110 298 -42 34c275,-11 37,32 293,-53l47 385 334 139 55 35 193 49 41 178 -11 54c216,109 110,-26 184,215l173 0c19,17 125,88 170,134 167,171 99,71 111,276l400 6 194 -173c-18,37 58,59 143,193l-24 276c91,62 180,150 225,178 123,73 102,20 282,102 251,114 78,155 714,447 14,7 30,16 45,22l861 267c21,-192 -3,-57 50,-253l379 238 -87 138 82 119 314 -84 192 173 604 69 313 72c19,2 363,-19 565,186 108,-268 -6,-31 128,-176 1338,16 306,-277 1133,-76l-62 -326c262,36 125,36 357,-22l91 117 475 9 189 68 118 -220 456 -83c74,-144 -151,-91 142,-127 -21,-6 -155,-27 -178,-40 -98,-57 -98,-126 -130,-171l316 -242c10,-6 33,-13 50,-17 80,89 86,40 93,329 23,-167 10,-89 65,-243l230 -28c-20,-8 -47,-42 -59,-23 -13,18 -44,-17 -61,-21 -18,-4 -167,-30 -195,-33l58 -288c-233,139 -180,91 -454,185 -458,157 -409,75 -631,130l-1785 353c-223,0 -121,21 -282,93 -293,-71 -233,21 -326,-164 -252,101 -356,116 -680,63 -327,-53 -171,-127 -602,-92l-1350 -527c-520,-180 -349,-256 -510,-318l-244 -141c-211,-185 -143,-56 -306,-146 -236,-129 -11,-150 -606,-356l-1038 -764c-204,-254 -64,-371 -512,-391 -58,-179 -119,-273 -223,-415 -174,-236 -172,-93 -245,-401 -294,177 -52,-127 -424,-470l-2 -451c-174,40 -115,-1 -204,131 -33,-178 -58,-193 -99,-311l160 -20c-77,-301 -21,13 -99,-208 -39,-112 -30,-178 -33,-299 -289,-341 -133,-304 -299,-722 -108,-274 -51,-605 -58,-909l38 -362 -57 -65c84,-587 -95,-1024 188,-1351 -190,-318 128,-684 215,-1024l182 -14 -11 -228c-132,-118 -67,-128 -148,-324 -70,-172 -105,-187 -105,-364 -23,12 -44,32 -60,46 -14,12 -36,29 -52,44l-205 192c-10,11 -24,24 -33,36 -10,12 -20,29 -28,42 -11,16 -34,76 -41,91 -41,77 4,25 -68,112z"/>
   <path class="fil3" d="M10174 9954l30 251c399,72 484,428 786,642l125 69c10,4 31,12 46,19 -10,206 4,155 187,260 191,109 129,106 303,193 747,10 136,214 816,-199 108,-66 32,-30 156,-64l238 -138 10 -189c0,-94 -5,-70 76,-128 105,-419 54,-95 -69,-223l153 -102c24,-122 38,-296 72,-375 132,-308 82,-147 222,-231 8,18 22,27 22,54 5,144 -10,267 107,329l59 -34 9 -224c68,-77 52,-54 100,-180l162 -43 42 -139 -115 8c-52,-379 -169,-488 -171,-740 181,-143 77,-4 197,-193 -488,-720 -1011,-666 -1164,-1000 -416,489 -479,158 -555,486 19,200 13,180 126,321 -4,2 -12,-4 -14,1 -31,124 43,-23 -48,6 -83,28 -60,15 -129,58l48 385c-17,13 -41,14 -44,36 -3,25 -49,48 -50,56 -16,103 -151,-138 71,102 -228,175 -163,53 -219,459 -256,103 -741,137 -1072,-14 -10,14 -24,19 -29,42 -51,214 -329,2 -346,492l-138 -53z"/>
   <path class="fil4" d="M12206 15005c-272,141 -273,315 -403,392 -87,219 -39,218 -207,464l-88 119c-48,98 -84,126 -137,223 -109,198 -29,170 -169,343l25 117 121 -29c57,75 71,58 111,172l59 -55c322,-144 -258,2 60,-29 75,-7 155,36 213,75 72,50 107,107 155,174 286,407 70,411 283,546 143,91 380,57 541,27 38,-352 28,-541 233,-804l342 24c258,-81 125,-148 262,-221 219,-41 558,-100 747,-77l28 -251 322 9 -191 -522 -676 0c26,-167 14,-125 100,-244l-90 -97c-28,-317 64,-57 -147,-276 -138,-143 -60,-163 -307,-186 -152,143 52,32 -137,85l-1050 21z"/>
   <path class="fil5" d="M10937 6102l-215 21c75,226 -54,92 239,188l200 68c83,65 -101,-62 87,104l981 -101c253,-26 234,19 485,-23 40,-6 -34,-20 144,-21l660 -21c274,26 502,34 780,45l173 -107 76 178c143,213 507,157 812,369 140,97 248,120 381,199 105,63 255,215 342,276 117,-8 67,-25 67,132 19,-10 47,-50 56,-31 13,26 32,-56 163,-23l-33 209c255,175 416,270 553,461 -51,-414 -63,-91 168,-219 138,393 367,75 345,379 -25,335 -34,89 -164,163 236,207 14,195 394,309l-27 114c12,21 27,28 36,65 8,35 25,45 36,60 15,20 108,127 118,137l23 143c421,0 -147,-203 223,-477l-298 -117c29,-16 142,7 157,8 381,10 -39,36 146,-13l12 -291 -250 -333c-345,-350 -1163,-1038 -1624,-1332 -410,-261 -552,-440 -1051,-627 -199,-75 -244,-134 -460,-187 -241,-58 -189,33 -476,-37 -778,-188 -545,1 -1138,-74 -235,-30 -868,196 -982,191 -393,-18 -847,55 -1139,215z"/>
   <path class="fil6" d="M15567 19275l-456 83 -118 220 -189 -68c-148,314 -148,-9 0,388 -393,-135 -245,-123 -511,-33l-60 -174 -290 41c-827,-201 205,92 -1133,76 -134,145 -20,-92 -128,176 -202,-205 -546,-184 -565,-186l-313 -72c-3,226 -168,118 -452,136l-22 355c175,-175 286,-180 580,-55l11 235 244 12c-97,-171 -66,-43 -53,-312 10,11 22,16 26,35 40,168 194,10 417,282 -64,41 -78,30 -143,44l-75 10c-87,32 -64,40 -113,75 -3,378 83,348 532,567 639,312 1212,-238 1410,-318l149 -42c19,-7 70,-32 89,-39 137,-49 222,-42 318,-72 217,-69 35,-55 222,-149 214,-107 199,28 485,-236 10,-9 21,-24 30,-33 174,-160 87,-6 238,-260l51 -86c6,-11 20,-26 25,-37 66,-155 53,23 -34,-267 288,-22 156,46 304,-173 109,-163 124,-101 176,-279l-192 18c-162,144 -221,95 -460,138z"/>
   <path class="fil7" d="M11927 13979l47 131c-200,152 263,107 -316,128l145 148c-11,8 -81,62 -110,84 -112,87 -64,79 -247,46l-46 365c-380,66 -140,-9 -319,269 -122,188 -196,112 -177,385l165 -113c20,12 47,10 52,33l81 70c0,-138 -18,0 97,-64 312,-193 205,-109 504,-64 130,-77 131,-251 403,-392 108,-149 351,-364 529,-407 463,-112 158,151 595,186 129,-9 159,-19 293,-56l97 207c136,-23 154,-45 321,-61l162 329 -196 136c-10,9 -28,28 -41,42l113 152 -27 -233c471,46 76,31 428,-90 24,94 45,142 45,198 0,13 -4,32 -5,45 -1,13 -8,32 -10,45l-29 145c234,82 584,320 640,525 -13,11 -34,9 -40,29 -40,126 25,-53 -197,117l515 84c194,30 320,-87 469,-230l-51 -288 -126 32c1,-247 -39,-269 -191,-439l126 -47c-10,-13 -22,-49 -27,-40l-262 -249c30,-140 -14,-87 95,-164 -273,-32 -382,16 -569,-142 -361,-302 -206,-97 -424,-282 -100,117 -114,162 -213,261l-52 -78c-11,-15 42,-35 -167,-146 -14,-7 -34,-9 -48,-17l-203 -179c-159,70 -52,34 -302,105 43,-278 75,-396 0,-636 21,-196 -425,-11 -965,-220l-562 340z"/>
   <path class="fil4" d="M8626 14564c10,-18 64,-97 83,-113l-86 -45c121,-328 137,-103 94,-361 -193,-134 -86,24 -303,-257 17,-7 43,-34 51,-20l240 -184c28,237 16,142 103,367 328,7 32,85 335,-151 63,178 -25,97 129,279 143,-54 42,43 245,-168 156,-162 178,-95 398,-5l10 -100c28,-71 260,-468 310,-519l-6 -234 -133 27 -80 -86 -261 19c-25,62 26,33 -63,101 -151,115 -223,128 -412,125l44 41c-15,-17 -44,-52 -54,-37 -8,14 -41,-22 -52,-30 -149,-116 -127,-83 -171,-283 -316,120 -24,-57 -141,106 -25,391 -99,108 -213,431 28,-96 37,-132 -257,19l-286 -277c13,-7 35,-32 41,-17l282 -54c73,229 -22,70 194,153l-55 -135c-2,-19 11,-182 12,-204 -208,19 -180,6 -326,-64l429 29c153,-2 222,-46 363,-207 91,-105 48,-58 29,-207 -7,-56 -30,-148 -22,-197 35,-206 -26,-75 98,-190 -30,-64 13,-4 -126,-119 -66,-55 -68,-62 -134,-122 -108,-99 -176,-172 -379,-146 -180,-161 -88,174 -152,-139l0 253c-123,-36 -76,17 -135,-159l-131 -236c125,0 96,34 111,-76l10 -5c-257,-247 -195,-143 -375,-243l-156 -117c0,400 165,343 22,658 319,338 -158,137 258,515 -30,187 -113,499 -222,629 129,271 50,2 138,272 -118,114 -141,165 -233,257 216,177 181,34 134,420l317 -52 -2 388c215,-103 333,-71 486,470z"/>
   <path class="fil8" d="M10253 6228l-32 207c-118,-26 -587,106 -503,279 3,6 38,30 56,42 -27,4 -163,19 -178,22 -133,32 -57,17 -130,64 -84,-110 10,-69 -215,-121l21 -115c-266,-6 -304,-24 -518,55 -380,140 -164,-105 -383,182 -76,-66 -87,-105 -201,-128 -257,-53 -528,192 -712,231 -480,100 -168,-44 -482,173 -268,186 -247,36 -458,191 -16,239 -68,174 181,174 51,-182 11,-72 64,-26l22 114c214,-37 122,-92 250,40 -114,183 -31,55 -133,124 -11,7 -27,17 -40,24 -13,9 -26,20 -41,29l-233 117 89 -268 -235 55 -159 -57c-71,102 6,49 -76,-61 -291,152 -207,167 -350,342 -224,275 -185,-47 -324,467l243 -17 -99 403c64,129 -44,28 135,91l-20 -191 272 3c215,-381 159,-149 367,-353l384 -350c-27,-86 26,-19 350,-219 323,-200 167,67 370,-258l110 176c455,-369 690,-261 882,-346 159,-69 -3,-141 347,-97 193,14 74,-10 237,39 20,6 81,27 99,35 187,79 39,13 126,73l189 -39c213,-161 329,-311 712,-319 18,-27 128,-170 130,-174 79,-115 148,-41 63,-193l17 -160c323,-114 223,39 282,-343l-363 52 0 -167c-17,9 -102,180 -113,198z"/>
   <path class="fil9" d="M14418 10696c-63,155 75,132 -64,133 0,398 23,37 -124,144 150,422 144,-100 199,396 -274,-71 -92,-1 -305,-136l-92 39 42 457c-369,125 -122,156 -332,351 20,-4 97,-33 112,-33l193 69c-12,15 -31,17 -37,45l-115 234c-12,197 154,242 202,275 238,-54 34,1 128,-138 -130,-24 -89,125 -124,-161 163,150 12,94 234,129 -46,-170 -36,-88 -55,-149l-29 -136c-55,-526 116,-350 179,-384l149 37 49 -162 255 76c146,-243 93,-89 198,-419 215,6 237,-58 361,-161 249,-206 164,39 206,-275l156 -51 14 -162 47 -270 189 -16c149,-218 218,-586 190,-886l-467 -167c-185,183 -101,14 -154,291 -428,-39 -378,228 -595,551 -308,456 -637,174 -610,479z"/>
   <path class="fil10" d="M19372 12032c69,311 33,94 80,241 29,93 23,49 40,180 -179,78 -197,7 -326,154l-45 273 206 -123c59,187 51,134 126,298 -79,144 -67,141 -134,298 -50,118 -70,165 -222,191l30 130c3,70 25,194 26,214 9,210 -18,155 -36,203l-169 276c40,170 28,121 75,257 -115,136 -217,350 -214,514l23 91c3,14 40,83 48,103 -98,163 -159,280 -152,515l-172 168 211 28 -303 280c-9,12 -19,29 -28,43 -155,250 49,81 -158,252l1 258c427,0 83,20 152,117 373,524 -305,-158 97,166l343 -465c191,-346 481,-782 560,-1178l339 -2181c7,-170 -40,-196 -94,-370l-103 -1094c-155,85 -97,21 -201,161z"/>
   <path class="fil11" d="M13768 9782c-65,111 -34,-28 -52,160 -4,41 23,112 37,170l-240 -24 -59 34c-5,12 23,190 -132,164 -51,366 -133,236 -115,684l-275 -128c0,167 52,145 -71,145l-238 138 -11 346c-371,66 -242,242 -493,83 70,214 48,63 98,368l-500 -167 64 232c-99,124 -11,42 -127,123 -375,259 -51,-136 -194,194l178 -14c41,321 -12,35 102,165 -114,-268 -33,-171 44,-211 100,-355 46,37 188,-351 204,136 87,99 321,22 -49,144 -77,122 134,137 -12,19 -30,22 -35,59 -5,36 -23,42 -29,61l-52 200c-5,21 -8,47 -15,69l201 -143c131,-83 67,-13 163,-118l-149 0 -24 -192c273,-16 267,-81 539,-94 74,-3 237,-25 305,-7 311,85 153,25 194,228 274,0 60,-4 140,-217 29,-80 18,-75 46,-223l-189 11 -2 -231c244,-314 81,-248 301,-535l154 30 186 -140c106,82 130,-168 69,163 147,-107 124,254 124,-144 139,-1 1,22 64,-133l-281 39 29 -227c-219,93 -17,168 -131,-1 186,-323 -128,-318 512,-386l-242 -181c-10,-26 -38,-8 -45,-14l-336 54c75,-147 22,152 38,-118 18,-311 2,-32 -34,-156 -61,136 -88,176 -156,252l-4 -176z"/>
   <path class="fil7" d="M8482 9189c-11,16 -66,106 -81,131 -5,10 -20,58 -24,48 -4,-11 -15,32 -23,48 182,90 59,-29 69,170 1,21 -27,148 -40,197l182 82 -176 32c88,82 -45,48 118,77 68,12 136,2 205,-1 -85,216 -57,112 -19,207 390,-4 243,71 579,197 -4,-8 -28,-148 -65,-191 -122,96 -75,-30 301,203 22,13 45,31 68,46l41 -170c9,20 12,30 14,57l38 179c8,65 9,217 5,291 127,73 65,31 160,114 1,1 83,80 103,96 80,62 39,29 141,92 -104,-297 -46,-63 53,-161 86,119 147,173 199,363l91 -75 279 15c17,-209 -80,-253 -181,-391 50,415 -31,152 -153,163 -91,-195 -35,-178 -258,-331l-90 102c-69,46 -41,49 -231,114 109,-402 136,-149 8,-450 21,-12 52,-51 64,-33 11,17 46,-21 61,-29l95 -48c208,-125 -136,21 189,-128l-30 -251c-710,-434 -270,-418 -647,-585 -321,-143 -109,-86 -418,-362l-153 85c-10,9 -29,30 -38,38 -8,8 -21,28 -32,42 -209,-59 -238,-22 -404,17z"/>
   <path class="fil12" d="M5084 11859l-38 362 226 14c249,430 245,48 418,502l305 26c42,379 128,117 159,464l225 -19 -113 -308c-16,-1 5,-39 10,-27 0,1 100,-28 134,-328 -81,190 -26,182 -307,227 40,-296 -61,-123 225,-335l-179 -386c91,-215 -27,-27 97,-193 -93,-328 -37,-32 98,-137l-13 -109 -268 53c-42,-111 68,-111 -72,-95 -50,161 14,353 -440,145 87,-277 61,-113 181,-257 79,-95 48,-62 100,-235l65 169c531,-738 64,-518 427,-695l-75 -382c321,-65 193,-83 187,253 0,8 3,30 3,36l26 53 224 -556c-255,-37 -193,-87 -440,-132 -114,99 -44,36 -135,142l-67 81c-12,13 -29,33 -39,44 -10,11 -27,29 -41,44 92,111 54,-1 64,227 -185,162 -195,147 -194,433 -416,30 -613,487 -678,854l84 85c1,1 55,45 63,52 -81,0 79,46 -66,-5l-156 -67z"/>
   <path class="fil11" d="M10041 12694l200 194 -145 192 133 -27c219,114 40,-95 119,154 60,193 -123,302 139,340 -134,201 139,101 -209,163 56,72 225,-138 23,207 -160,64 -212,75 -357,20 -16,124 -9,54 11,137 3,14 14,40 17,51l43 113c-159,234 40,4 -100,190l-168 242 -242 -108 -297 310c-274,-9 -85,35 -240,-51 0,339 15,60 -75,175l-17 1 584 195c20,8 45,24 64,32 21,9 47,28 69,44 -59,45 135,142 -248,117 -31,-2 -265,-93 -330,-117 47,316 1,347 234,237 41,231 23,177 199,256 10,4 -20,69 -47,251 243,-88 83,98 226,-134 36,-57 26,-184 34,-275l132 -11c-14,-7 -33,-13 -43,-19 -11,-7 -34,-19 -47,-27l-173 -149c258,-86 449,-388 345,-682 1,0 204,210 264,-18 8,-29 21,-39 34,-57 123,113 138,-177 83,197 168,-136 424,-266 417,-574 -194,-751 150,-16 113,-947l-279 36c99,-114 129,-163 193,-271 -114,-126 -3,-83 -219,-99l137 -247 -167 -105c65,-146 39,-55 62,-272 -397,-33 -115,-42 -466,-154 -98,128 -67,70 -113,286 232,-51 207,-81 361,-34l77 361 -331 -123z"/>
   <path class="fil13" d="M8883 15953l-12 -78 -251 -71 -96 -343c171,-277 59,-3 117,-322l-10 -148c-286,105 -56,79 -309,33l-41 308c77,-194 -38,-91 208,-106 -48,288 37,210 -6,500 -302,-7 -170,-20 -380,-199 -2,-1 -97,-63 -109,-73 -238,-187 -157,-316 -395,-462 -64,56 -168,-91 -153,382 -142,-129 173,-51 -108,-64 -240,-11 -47,1 -85,38 -27,-406 102,-294 -346,-337 33,636 33,176 302,514 17,22 133,195 136,197 171,148 115,87 252,1 -6,322 -74,91 108,218l221 115c258,191 51,302 301,206l30 234 187 -152 6 326c130,-67 53,-42 139,-89 78,-44 123,-57 208,-80 124,279 -28,331 289,510 -118,-529 -85,-88 91,-457 40,-322 -346,-436 -448,-579 15,-8 -6,-31 154,-22z"/>
   <path class="fil14" d="M15111 12443l-5 132 91 42c10,9 103,47 122,74 140,-202 141,-258 141,-486 233,186 107,-60 227,247 154,-156 22,41 105,-142l137 -91c113,106 104,56 97,268 232,-2 104,80 168,-103 170,112 166,49 334,132 -88,71 -142,89 -236,139l-44 354c219,-60 384,-72 455,-268 140,-390 -2,-138 267,-432 6,-114 -6,-278 14,-379 42,-201 68,-58 129,-328l-337 40 -81 -279 -154 241c-21,10 -44,21 -63,28 -18,7 -41,17 -62,24l-325 88c-146,-7 -97,-102 -307,-133 -202,155 -123,312 -143,463 -367,-122 45,-162 -251,-356 -350,231 107,113 -317,227 246,147 93,277 -50,428 205,1 29,-15 88,70z"/>
   <path class="fil15" d="M7148 10233c-34,322 -38,109 63,152 156,-243 156,-51 324,-224 98,188 8,134 282,153 94,222 129,205 71,386 -227,113 -239,-105 -178,33 -81,71 -12,6 -96,91l-63 74 -5 76 54 34c54,-115 -82,-103 300,-229 71,-23 179,-42 214,-51l193 169c98,-56 33,62 132,-103 298,404 147,-71 423,448 7,12 15,28 22,41 40,79 46,94 99,206l209 -189c138,261 157,253 333,441 74,79 143,130 187,191 30,42 45,87 66,128 103,199 -40,2 104,184l178 -40c98,-105 48,-157 48,-157l48 36c9,6 41,39 57,48 237,131 -82,65 337,84l52 -82 -98 -102c-7,-8 -23,-30 -36,-44l19 -213 -321 -51 -86 -220c-341,-76 -135,76 -418,-171 -136,-120 -182,-183 -325,-248l-156 13 -34 -218c-247,-112 -208,-156 -416,-281 -142,-85 -147,-42 -266,-116l-220 -172c-186,-99 -953,-507 -1097,-77z"/>
   <path class="fil8" d="M13687 11562l24 113c-28,148 -17,143 -46,223 -80,213 134,217 -140,217 -172,-47 -81,150 32,419 136,322 73,210 161,252l169 102c-17,12 -53,56 -60,63l-68 82c265,-104 147,-27 210,-144 189,150 34,26 166,136l170 12c8,-6 29,-21 36,-26l65 -34c27,187 -89,219 -89,219 -7,-14 -35,27 -45,33l64 68c256,11 396,111 597,220 -188,-335 -68,-59 64,-173 95,162 128,133 339,141l-11 138c13,-13 33,-53 38,-39l470 -477 -177 -28 -31 -112c-185,74 -39,-98 -177,98l-53 -73c-7,-11 -15,-32 -21,-44l-111 -159c-17,67 -33,410 -307,84 -270,-322 -18,8 -241,-203 -64,-61 -13,-5 -82,-124 -127,-218 9,9 -22,-72 -6,99 -20,210 -234,130 -78,-29 -49,90 -99,-45 -8,-24 -35,-18 -53,-27 -94,139 110,84 -128,138 -48,-33 -214,-78 -202,-275l115 -234c6,-28 25,-30 37,-45l-193 -69c-15,0 -92,29 -112,33 210,-195 -37,-226 332,-351l-42 -457c-183,70 -177,62 -158,282l-187 8z"/>
   <path class="fil16" d="M14883 11782c-89,193 -12,112 -190,260 -148,-102 -77,27 -114,-174l-149 -37c33,216 -7,41 77,204 252,490 365,438 604,408 -59,-85 117,-69 -88,-70 143,-151 296,-281 50,-428 424,-114 -33,4 317,-227 296,194 -116,234 251,356 20,-151 -59,-308 143,-463 210,31 161,126 307,133l325 -88c21,-7 44,-17 62,-24 19,-7 42,-18 63,-28l154 -241 36 -146c-314,-3 -182,46 -318,-169 -470,-25 -298,-6 -661,171l52 -343 -156 51c-42,314 43,69 -206,275 -124,103 -146,167 -361,161 -105,330 -52,176 -198,419z"/>
   <path class="fil17" d="M4336 12261l-7 -210c-182,-155 -109,-6 -93,-202 2,-22 25,-136 34,-169l52 -104 48 -103 -301 40 82 280c-295,70 -208,42 -411,-85 -314,78 -145,125 -493,-14l-23 229c-50,-232 -53,-206 -321,-257l-205 424c165,-71 147,-67 321,-167l-99 224c155,-14 77,22 169,-94 -111,335 -179,264 -41,577l-183 65 54 297c12,-1 -47,169 178,-54 113,-112 37,-178 123,-299l185 -137 -27 -386c518,150 369,35 480,226 169,-108 130,-169 139,-34 358,-133 52,-67 339,-47z"/>
   <path class="fil18" d="M10060 12204l-13 0c351,112 69,121 466,154 -23,217 3,126 -62,272l167 105 -137 247c216,16 105,-27 219,99 -64,108 -94,157 -193,271l279 -36c37,931 -307,196 -113,947 333,-204 274,-402 354,-574 137,-295 203,-28 42,-494l194 -294c-279,-358 -271,-176 -369,-501l-59 -230 -233 -37 -52 82c-419,-19 -100,47 -337,-84 -16,-9 -48,-42 -57,-48l-48 -36c0,0 50,52 -48,157z"/>
   <path class="fil11" d="M15543 13980c-36,187 219,275 422,347l40 -153c242,163 312,181 510,386l-102 130 394 -6c73,-160 18,-102 64,-239 61,-179 52,-68 129,-268 -107,-71 -47,22 -110,-94 -36,-66 -48,-154 -65,-221l-27 -130c-176,53 -80,33 -273,66 -180,-354 42,102 -407,-339 -211,115 -64,-47 -74,118 -10,157 164,144 -1,302 -200,190 -352,-120 -386,-223 -1,-5 -6,-18 -7,-34 -2,-16 -5,-23 -9,-35 -109,166 -65,185 -98,393z"/>
   <path class="fil19" d="M17038 17823l191 36 -70 108c174,94 21,149 347,-119l56 133 190 -140c105,77 27,-26 62,93l383 -394c-127,-102 -53,52 -114,-163 -42,-146 71,-55 -65,-205l-101 -103c113,-61 96,-45 168,-138 -131,238 -48,99 129,179 1,-22 16,-100 19,-113l46 -121 -1 -258c207,-171 3,-2 158,-252 9,-14 19,-31 28,-43l303 -280 -211 -28c-207,65 -374,435 -461,612 -46,93 -20,52 -73,118 -28,34 -156,145 -207,182 -307,222 -192,224 -362,470 -96,139 -319,337 -415,426z"/>
   <path class="fil20" d="M8259 11367l-10 5c243,148 24,88 292,168l15 189c203,-26 271,47 379,146 66,60 68,67 134,122 139,115 96,55 126,119 -55,409 -68,165 141,217l142 -20c68,115 73,187 255,228 137,8 112,-32 104,94l147 -40c150,-23 -4,-44 57,99l331 123 -77 -361c-154,-47 -129,-17 -361,34 46,-216 15,-158 113,-286l13 0 -178 40c-144,-182 -1,15 -104,-184 -21,-41 -36,-86 -66,-128 -44,-61 -113,-112 -187,-191 -176,-188 -195,-180 -333,-441l-209 189c-136,143 78,12 -161,112l-168 -178c-14,-9 -31,-22 -44,-30l-174 -50c-16,14 -50,30 -59,32 -415,112 163,9 -118,-8z"/>
   <path class="fil9" d="M14160 9109c-86,121 -35,93 -145,223 -5,6 -76,78 -96,97 -110,102 -30,30 -93,73l-42 139 -16 141 4 176c68,-76 95,-116 156,-252 36,124 52,-155 34,156 -16,270 37,-29 -38,118l336 -54c7,6 35,-12 45,14l242 181c-640,68 -326,63 -512,386 114,169 -88,94 131,1 111,-89 26,-72 133,-183 218,-225 490,-234 385,-783l292 -292c-18,-11 -38,-26 -53,-33l-165 -71c-116,-52 -25,-13 -177,-92 -145,-74 -141,-60 -291,-58l-130 113z"/>
   <path class="fil21" d="M10904 15535c-240,130 -178,131 -285,366 -124,275 -138,153 -271,396l134 412 444 -7 -7 -167c221,-48 162,-12 283,-109 -75,-212 -20,-91 -93,-172 -230,75 -22,15 -229,227 -225,-304 -38,-210 -7,-245 165,-185 2,187 170,-189 131,381 165,16 159,499 140,-173 60,-145 169,-343 53,-97 89,-125 137,-223l-10 -262c-11,1 -215,45 -231,47l32 -304c-115,64 -97,-74 -97,64l-81 -70c-5,-23 -32,-21 -52,-33l-165 113z"/>
   <path class="fil8" d="M10925 11408l-281 -62 16 292c392,168 176,226 638,508l162 158c143,-330 -181,65 194,-194 116,-81 28,1 127,-123l-64 -232 -61 -73c118,-50 114,-52 241,-111l-246 -183c-174,-87 -112,-84 -303,-193 -183,-105 -197,-54 -187,-260l-167 86 79 258c-139,146 163,67 -148,129z"/>
   <path class="fil22" d="M4273 11233l111 -213c-70,-225 -110,-312 -17,-502 -151,-216 -41,-220 -391,-252 131,330 141,149 88,264 -6,14 -24,29 -32,43 -11,16 -87,109 -99,127 265,-37 105,-74 241,65l-166 308 -166 -102c-6,-3 -24,-6 -31,-10 -8,-3 -27,-5 -35,-9 -260,-126 -188,-270 -139,-104 -131,103 -23,-32 -9,231 1,21 1,37 1,59 1,13 -18,198 -18,205 -177,-184 -126,-163 -193,-351 -54,63 -213,-214 -51,343 -20,-5 -45,-113 -131,22 -183,284 -12,302 -11,308l508 -225c-70,553 -7,-47 159,377 13,-13 34,-54 38,-42 1,3 116,-112 85,-314l-33 -159 291 -69z"/>
   <path class="fil14" d="M8626 14564l-25 154c252,71 171,57 242,164 -240,36 -108,12 -212,109l245 6 17 -1 14 -178c231,-232 243,-183 145,-456l258 -18 436 -270c156,-121 25,-54 198,-137l-19 -131 -10 100c-220,-90 -242,-157 -398,5 -203,211 -102,114 -245,168 -154,-182 -66,-101 -129,-279 -303,236 -7,158 -335,151 -87,-225 -75,-130 -103,-367l-240 184c-8,-14 -34,13 -51,20 217,281 110,123 303,257 43,258 27,33 -94,361l86 45c-19,16 -73,95 -83,113z"/>
   <path class="fil23" d="M10700 11236c12,43 34,-6 74,26 249,202 -65,-240 151,146 311,-62 9,17 148,-129l-79 -258 167 -86c-15,-7 -36,-15 -46,-19l-125 -69c-302,-214 -387,-570 -786,-642 -325,149 19,3 -189,128l-95 48c-15,8 -50,46 -61,29 -12,-18 -43,21 -64,33 128,301 101,48 -8,450 190,-65 162,-68 231,-114l90 -102c223,153 167,136 258,331 122,-11 203,252 153,-163 101,138 198,182 181,391z"/>
   <path class="fil24" d="M18506 10403c127,129 290,587 289,680 -3,199 -82,153 -59,382 25,234 106,117 103,373 11,17 28,24 34,53 13,63 264,340 474,428 -8,-18 -21,-66 -25,-56l-79 -214c-103,-125 -28,-6 -88,-191l61 -109c-275,-36 -35,59 -245,-123l214 -89c-140,-205 -124,-231 -188,-524l231 -252 17 3c-170,-145 -130,183 -130,-135l-257 71c127,-428 121,-91 -5,-399 -3,-6 -25,-26 -58,-135 -4,-14 -2,-82 -2,-109l-198 223c-1,1 -73,106 -89,123z"/>
   <path class="fil8" d="M18352 9710c-5,64 14,276 14,279 -63,226 40,54 -158,127 205,132 112,102 298,287 16,-17 88,-122 89,-123l198 -223c0,27 -2,95 2,109 33,109 55,129 58,135 126,308 132,-29 5,399l257 -71c0,318 -40,-10 130,135 -4,-229 103,-255 -207,-761 -188,-306 16,124 -71,-103 -58,-151 -3,-170 -111,-381l-63 -41c-47,335 4,180 -129,386 -299,-307 -25,-142 -193,-417 -51,11 -130,-51 -202,101 -109,226 -52,45 83,162z"/>
   <path class="fil25" d="M8727 12917l-49 150 228 -31c117,-163 -175,14 141,-106 44,200 22,167 171,283 11,8 44,44 52,30 10,-15 39,20 54,37l-44 -41c189,3 261,-10 412,-125 89,-68 38,-39 63,-101l261 -19c-51,-148 -52,-3 9,-171l-188 -188c8,-126 33,-86 -104,-94 -83,229 42,-30 -276,261l-121 -469c-209,-52 -196,192 -141,-217 -124,115 -63,-16 -98,190 -8,49 15,141 22,197 19,149 62,102 -29,207 -141,161 -210,205 -363,207z"/>
   <path class="fil20" d="M7600 11008l128 -1 156 117c180,100 118,-4 375,243 281,17 -297,120 118,8 9,-2 43,-18 59,-32l174 50c13,8 30,21 44,30l168 178c239,-100 25,31 161,-112 -53,-112 -59,-127 -99,-206 -7,-13 -15,-29 -22,-41 -276,-519 -125,-44 -423,-448 -99,165 -34,47 -132,103l-193 -169c-35,9 -143,28 -214,51 -382,126 -246,114 -300,229z"/>
   <path class="fil26" d="M6331 11612c130,-292 -56,-410 175,-694l-41 -261 -26 -53c0,-6 -3,-28 -3,-36 6,-336 134,-318 -187,-253l75 382c-363,177 104,-43 -427,695l-65 -169c-52,173 -21,140 -100,235 -120,144 -94,-20 -181,257 454,208 390,16 440,-145 140,-16 30,-16 72,95l268 -53z"/>
   <path class="fil27" d="M15197 12617l66 172 111 159c6,12 14,33 21,44l53 73c138,-196 -8,-24 177,-98 -107,-138 -83,-222 -7,-300l108 -82c8,-1 29,-8 37,-7 150,20 73,83 266,374l-102 176 260 -44 61 -75 44 -354c94,-50 148,-68 236,-139 -168,-83 -164,-20 -334,-132 -64,183 64,101 -168,103 7,-212 16,-162 -97,-268l-137 91c-83,183 49,-14 -105,142 -120,-307 6,-61 -227,-247 0,228 -1,284 -141,486 -19,-27 -112,-65 -122,-74z"/>
   <path class="fil28" d="M14225 12532c18,9 45,3 53,27 50,135 21,16 99,45 214,80 228,-31 234,-130 31,81 -105,-146 22,72 69,119 18,63 82,124 223,211 -29,-119 241,203 274,326 290,-17 307,-84l-66 -172 -91 -42 5 -132c-239,30 -352,82 -604,-408 -84,-163 -44,12 -77,-204 -63,34 -234,-142 -179,384l29 136c19,61 9,-21 55,149 -222,-35 -71,21 -234,-129 35,286 -6,137 124,161z"/>
   <path class="fil20" d="M8641 15139c450,417 181,365 351,555 165,184 32,-66 119,115 -340,-40 -140,-105 -240,66l12 78 46 -24c419,72 185,35 245,200 192,-113 55,-125 227,-117 27,-182 57,-247 47,-251 -176,-79 -158,-25 -199,-256 -233,110 -187,79 -234,-237 65,24 299,115 330,117 383,25 189,-72 248,-117 -22,-16 -48,-35 -69,-44 -19,-8 -44,-24 -64,-32l-584 -195 -245 -6 10 148z"/>
   <path class="fil19" d="M16734 18774c229,-211 80,-51 350,-192 136,-71 256,-186 391,-275 -16,-13 -36,-29 -50,-35l-335 -183c-89,86 -25,-80 -66,107 -338,-96 -222,-66 -249,-5 -107,0 -63,21 -94,-110l-140 -22c-62,192 -95,202 -192,361 19,12 45,5 58,34 162,343 -113,-111 327,154l0 166z"/>
   <path class="fil29" d="M15898 18371l-58 288c28,3 177,29 195,33 17,4 48,39 61,21 12,-19 39,15 59,23 4,5 27,72 32,85 90,223 -67,-1 96,171 197,-128 76,12 203,-234l248 16 0 -166c-440,-265 -165,189 -327,-154 -13,-29 -39,-22 -58,-34 97,-159 130,-169 192,-361 -277,115 -128,100 -393,171 -199,54 -148,-62 -250,141z"/>
   <path class="fil28" d="M15325 13623l-102 63c124,192 84,193 320,294 33,-208 -11,-227 98,-393 4,12 7,19 9,35 1,16 6,29 7,34 34,103 186,413 386,223 165,-158 -9,-145 1,-302 10,-165 -137,-3 74,-118l-16 -101 -274 -28 5 -223 -470 477c-5,-14 -25,26 -38,39z"/>
   <path class="fil16" d="M6379 13208l117 119c115,-109 57,5 88,-214l-81 -161c48,-129 79,-157 116,-322 -241,-332 -91,-148 -275,-909 -135,105 -191,-191 -98,137 -124,166 -6,-22 -97,193l179 386c-286,212 -185,39 -225,335 281,-45 226,-37 307,-227 -34,300 -134,329 -134,328 -5,-12 -26,26 -10,27l113 308z"/>
   <path class="fil5" d="M14160 9109l130 -113c150,-2 146,-16 291,58 152,79 61,40 177,92l165 71c15,7 35,22 53,33l113 -85 -20 -259 -131 -4c-15,-2 -98,-42 -117,-54 28,-363 -22,-80 142,-163l-20 -165 -524 62c-65,183 -126,194 -242,317l-17 210z"/>
   <path class="fil30" d="M17817 9176c90,141 72,100 169,162l105 -38c-5,-37 -8,-185 -4,-208l131 -81c206,430 83,223 253,327l61 -161c148,-296 -215,97 65,-85 -106,-205 -117,-226 -286,-413 -46,-50 -122,-141 -147,-181 -7,-11 -16,-27 -22,-38 -7,-12 -14,-30 -20,-41l-65 -133 -12 291c-185,49 235,23 -146,13 -15,-1 -128,-24 -157,-8l298 117c-370,274 198,477 -223,477z"/>
   <path class="fil31" d="M12206 15005l1050 -21c189,-53 -15,58 137,-85 -37,-39 -36,-71 -63,-115 -437,-35 -132,-298 -595,-186 -178,43 -421,258 -529,407z"/>
   <path class="fil28" d="M15567 19275c239,-43 298,6 460,-138l192 -18c1,-3 61,-123 64,-127 -163,-172 -6,52 -96,-171 -5,-13 -28,-80 -32,-85l-230 28c-55,154 -42,76 -65,243 -7,-289 -13,-240 -93,-329 -17,4 -40,11 -50,17l-316 242c32,45 32,114 130,171 23,13 157,34 178,40 -293,36 -68,-17 -142,127z"/>
   <path class="fil32" d="M11651 11388l246 183c-127,59 -123,61 -241,111l61 73 500 167c-50,-305 -28,-154 -98,-368 251,159 122,-17 493,-83l11 -346c-124,34 -48,-2 -156,64 -680,413 -69,209 -816,199z"/>
   <path class="fil5" d="M17986 9338c16,169 -54,38 103,272 126,59 175,75 263,100 -135,-117 -192,64 -83,-162 72,-152 151,-90 202,-101 168,275 -106,110 193,417 133,-206 82,-51 129,-386l63 41c-246,-264 -92,-104 -259,-427 -280,182 83,-211 -65,85l-61 161c-170,-104 -47,103 -253,-327l-131 81c-4,23 -1,171 4,208l-105 38z"/>
   <path class="fil33" d="M4497 10020c137,-109 122,11 120,-265 -2,-184 -25,90 -10,-134l30 -143c-397,-211 -298,-44 -261,-321l-250 -65c-65,174 -108,311 -263,278 109,87 10,-2 87,85 9,10 24,29 34,40l318 -47c-2,-2 22,165 20,189 -18,174 17,21 -104,261 175,101 63,-3 99,197 111,-91 63,-125 180,-75z"/>
   <path class="fil34" d="M5840 16596l-11 240c-195,9 -84,31 -144,-149 -18,360 -37,-20 -252,499 9,-3 164,-64 179,-68 10,-2 29,-6 39,-8l114 -11c614,-49 54,196 749,-32l-334 -139 -47 -385c-256,85 -18,42 -293,53z"/>
   <path class="fil35" d="M5091 17519c92,7 -138,161 155,-16 65,-39 39,-66 38,-87l209 61 -43 166c-1,7 0,25 -1,33 -25,215 -34,185 -165,422 421,-331 274,-110 556,-514 -67,-31 -10,-135 -328,34 214,-467 236,79 320,-405l-192 53c-15,-2 -68,-23 -85,-28l-247 -51c-8,1 -27,3 -36,6l-189 152c-129,346 -16,48 8,174z"/>
   <path class="fil36" d="M14439 14549l-444 -309c-7,103 -3,76 -104,60 -97,-16 136,-112 -226,-8 25,-23 54,-101 71,-131 -121,-91 -37,61 -129,-199l-43 -17 -110 -86c75,240 43,358 0,636 250,-71 143,-35 302,-105l203 179c14,8 34,10 48,17 209,111 156,131 167,146l52 78c99,-99 113,-144 213,-261z"/>
   <path class="fil18" d="M19097 13544c152,-26 172,-73 222,-191 67,-157 55,-154 134,-298 -75,-164 -67,-111 -126,-298l-206 123 45 -273 -166 23c-49,256 7,732 97,914z"/>
   <path class="fil37" d="M3804 15666c-169,-90 6,-84 -200,-10 126,219 22,153 307,235 -90,48 154,148 -199,39 18,28 43,70 72,140 7,16 25,77 33,94l246 125 86 -172c3,-6 5,-24 8,-29l93 -73c100,-118 -18,-291 -60,-352 -206,169 -38,-34 -206,230 -1,-11 -38,-224 -31,-242l172 -190c-380,167 -70,33 -200,-13l-51 89c-4,9 -18,34 -24,44l-46 85z"/>
   <path class="fil38" d="M9310 14344c0,194 118,109 121,108l74 110 242 108 168 -242c140,-186 -59,44 100,-190l-43 -113c-3,-11 -14,-37 -17,-51 -20,-83 -27,-13 -11,-137 -173,83 -42,16 -198,137l-436 270z"/>
   <path class="fil23" d="M19216 11749l237 -51 -225 -937 -231 252c64,293 48,319 188,524l-214 89c210,182 -30,87 245,123z"/>
   <path class="fil39" d="M19000 12630l166 -23c129,-147 147,-76 326,-154 -17,-131 -11,-87 -40,-180 -47,-147 -11,70 -80,-241l-129 17 79 214c4,-10 17,38 25,56 -210,-88 -461,-365 -474,-428 -6,-29 -23,-36 -34,-53 -11,41 -24,-43 -7,120 46,455 -7,343 170,464l-2 208z"/>
   <path class="fil40" d="M9925 13806l19 131c145,55 197,44 357,-20 202,-345 33,-135 -23,-207 348,-62 75,38 209,-163 -262,-38 -79,-147 -139,-340 -79,-249 100,-40 -119,-154l6 234c-50,51 -282,448 -310,519z"/>
   <path class="fil18" d="M9793 15592c96,-116 59,-221 119,-265 107,-79 -25,-22 173,-22l-12 -102 126 -200 57 -166c55,-374 40,-84 -83,-197 -13,18 -26,28 -34,57 -60,228 -263,18 -264,18 104,294 -87,596 -345,682l173 149c13,8 36,20 47,27 10,6 29,12 43,19z"/>
   <path class="fil14" d="M15625 12967l31 112 177 28 -5 223 274 28c-108,-171 201,-119 -162,-148 211,93 174,-5 247,-126l-260 44 102 -176c-193,-291 -116,-354 -266,-374 -8,-1 -29,6 -37,7l-108 82c-76,78 -100,162 7,300z"/>
   <path class="fil28" d="M18197 17540l322 -156 9 -225c-402,-324 276,358 -97,-166 -69,-97 275,-117 -152,-117l-46 121c-3,13 -18,91 -19,113 -177,-80 -260,59 -129,-179 -72,93 -55,77 -168,138l101 103c136,150 23,59 65,205 61,215 -13,61 114,163z"/>
   <path class="fil41" d="M9272 6606l-21 115c225,52 131,11 215,121 73,-47 -3,-32 130,-64 15,-3 151,-18 178,-22 -18,-12 -53,-36 -56,-42 -84,-173 385,-305 503,-279l32 -207c-267,-73 -334,45 -529,163 -200,120 -186,151 -452,215z"/>
   <path class="fil42" d="M5375 8391l-27 98c0,177 35,192 105,364 81,196 16,206 148,324l144 -215 67 -101c-179,-63 -71,38 -135,-91l99 -403 -243 17 -158 7z"/>
   <path class="fil26" d="M12376 9336l90 108c2,5 159,-103 -70,333l-110 -68c-19,-15 -38,-29 -59,-47 -23,-19 -41,-38 -62,-56 -22,-20 -41,-43 -62,-63 123,253 150,237 157,514 150,-122 151,183 183,-278l158 13c2,-7 15,-29 17,-38l190 -306c117,-82 78,-78 130,-163l-214 -33c-16,-3 -86,-22 -107,-26 -11,18 -39,55 -52,61 -266,107 306,-61 -189,49z"/>
   <path class="fil43" d="M12362 8688c82,140 -158,12 147,118 -7,21 -47,131 -50,154 -21,174 -14,45 -5,244 289,-127 247,-193 229,-169 21,-4 50,-33 63,-11l257 0c15,-137 47,-267 83,-414 -98,92 -91,-38 -162,295l-89 -183c-5,-8 -211,-105 -355,-77l-118 43z"/>
   <path class="fil32" d="M13330 14784c27,44 26,76 63,115 247,23 169,43 307,186 211,219 119,-41 147,276l119 20c13,-14 31,-33 41,-42l196 -136 -162 -329c-167,16 -185,38 -321,61l-97 -207c-134,37 -164,47 -293,56z"/>
   <path class="fil38" d="M7211 10385l285 -35c-31,173 -41,191 -93,286 352,38 23,-25 178,129l-30 133 63 -74c84,-85 15,-20 96,-91 -61,-138 -49,80 178,-33 58,-181 23,-164 -71,-386 -274,-19 -184,35 -282,-153 -168,173 -168,-19 -324,224z"/>
   <path class="fil16" d="M12947 10670c69,-58 155,-113 183,-149 57,-71 20,-60 72,-126 80,-101 21,-41 120,-109 155,26 127,-152 132,-164 -117,-62 -102,-185 -107,-329 0,-27 -14,-36 -22,-54 -140,84 -90,-77 -222,231 -34,79 -48,253 -72,375l-153 102c123,128 174,-196 69,223z"/>
   <path class="fil38" d="M10430 6648l322 -79c139,-23 162,-35 257,-109l239 23c-188,-166 -4,-39 -87,-104l-200 -68c-293,-96 -164,38 -239,-188l215 -21c-67,-121 104,-59 -177,-83 -68,-6 -304,11 -394,11l0 167 363 -52c-59,382 41,229 -282,343l-17 160z"/>
   <path class="fil32" d="M13520 11455l177 -14 -10 121 187 -8c-19,-220 -25,-212 158,-282l92 -39c213,135 31,65 305,136 -55,-496 -49,26 -199,-396l-60 64c-278,292 -341,114 -344,114l-5 -231c-220,287 -57,221 -301,535z"/>
   <path class="fil44" d="M7546 10974l5 -76 30 -133c-155,-154 174,-91 -178,-129 52,-95 62,-113 93,-286l-285 35c-101,-43 -97,170 -63,-152 -129,131 -86,303 -44,489 134,113 316,177 442,252z"/>
   <path class="fil45" d="M8871 15875c100,-171 -100,-106 240,-66 -87,-181 46,69 -119,-115 -170,-190 99,-138 -351,-555 -58,319 54,45 -117,322l96 343 251 71z"/>
   <path class="fil46" d="M4861 9052c72,-87 27,-35 68,-112 7,-15 30,-75 41,-91 8,-13 18,-30 28,-42 9,-12 23,-25 33,-36l205 -192c16,-15 38,-32 52,-44 16,-14 37,-34 60,-46l27 -98 -467 -15c-26,274 -25,80 53,152 -13,6 -36,-3 -41,15l-216 227c-8,10 -27,27 -34,34 -6,8 -24,21 -37,31 106,72 -21,53 212,52l16 165z"/>
   <path class="fil38" d="M14704 16224l180 90c222,-170 157,9 197,-117 6,-20 27,-18 40,-29 -56,-205 -406,-443 -640,-525l32 59 191 522z"/>
   <path class="fil17" d="M8906 13036l-228 31 49 -150 -429 -29c146,70 118,83 326,64 -1,22 -14,185 -12,204l55 135c-216,-83 -121,76 -194,-153l-282 54c-6,-15 -28,10 -41,17l286 277c294,-151 285,-115 257,-19 114,-323 188,-40 213,-431z"/>
   <path class="fil47" d="M11299 15461l-32 304c16,-2 220,-46 231,-47l10 262 88 -119c168,-246 120,-245 207,-464 -299,-45 -192,-129 -504,64z"/>
   <path class="fil9" d="M11784 12244l16 74c84,-144 64,-124 161,-187l99 98 -21 229 147 -45 110 28c7,-22 10,-48 15,-69l52 -200c6,-19 24,-25 29,-61 5,-37 23,-40 35,-59 -211,-15 -183,7 -134,-137 -234,77 -117,114 -321,-22 -142,388 -88,-4 -188,351z"/>
   <path class="fil48" d="M8893 14996c90,-115 75,164 75,-175 155,86 -34,42 240,51l297 -310 -74 -110c-3,1 -121,86 -121,-108l-258 18c98,273 86,224 -145,456l-14 178z"/>
   <path class="fil28" d="M17159 17967l-69 122 335 183c14,6 34,22 50,35 234,-120 243,-157 339,-373 -35,-119 43,-16 -62,-93l-190 140 -56 -133c-326,268 -173,213 -347,119z"/>
   <path class="fil49" d="M9525 7334l-189 39c-235,-5 -74,-35 -136,100l98 -3c-6,293 35,247 67,484l353 -277 -193 -343z"/>
   <path class="fil14" d="M8757 12697c229,-142 156,24 179,-222l-106 -261c-53,181 -32,-42 -357,192 -145,-511 -153,-324 -294,-408 69,222 14,136 175,268 87,72 91,-40 198,220 16,38 -45,87 205,211z"/>
   <path class="fil50" d="M14233 19691l60 174c266,-90 118,-102 511,33 -148,-397 -148,-74 0,-388l-475 -9c-64,94 -36,81 -96,190z"/>
   <path class="fil16" d="M5031 15432c1,-578 26,-418 -160,-679l61 -214 -233 -43 -56 321c134,120 89,51 255,129l55 169c-268,-1 -62,15 -145,79 339,121 -9,-86 130,82l93 156z"/>
   <path class="fil40" d="M4336 12261c-43,111 -65,196 -69,369l180 63c-94,-243 53,-115 -155,-334l138 -71c-36,-389 -71,-227 140,-430l-100 -97c-8,-8 -28,-19 -37,-28 -101,-100 -46,-13 -111,-157l-52 104c-9,33 -32,147 -34,169 -16,196 -89,47 93,202l7 210z"/>
   <path class="fil20" d="M14079 15533l196 63c121,67 -4,66 206,47l29 -145c2,-13 9,-32 10,-45 1,-13 5,-32 5,-45 0,-56 -21,-104 -45,-198 -352,121 43,136 -428,90l27 233z"/>
   <path class="fil51" d="M16888 8025c241,117 227,78 349,323 130,-74 139,172 164,-163 22,-304 -207,14 -345,-379 -231,128 -219,-195 -168,219z"/>
   <path class="fil52" d="M15965 14327l-5 154c229,63 269,151 453,209l102 -130c-198,-205 -268,-223 -510,-386l-40 153z"/>
   <path class="fil28" d="M4699 14496l233 43 50 -365 -354 -257c37,211 44,364 71,579z"/>
   <path class="fil14" d="M4544 13642l-168 -86 102 -357 -286 51c32,282 -157,215 136,162l-185 54c-16,8 -73,37 -88,48 -97,79 -62,30 -76,180 445,-184 33,44 565,-52z"/>
   <path class="fil53" d="M12947 10670c-81,58 -76,34 -76,128l-10 189c123,0 71,22 71,-145l275 128c-18,-448 64,-318 115,-684 -99,68 -40,8 -120,109 -52,66 -15,55 -72,126 -28,36 -114,91 -183,149z"/>
   <path class="fil54" d="M10330 11296l-120 -9c60,75 8,24 95,118 1,1 96,97 98,99 88,71 156,91 257,134l-16 -292 281 62c-216,-386 98,56 -151,-146 -40,-32 -62,17 -74,-26l-279 -15 -91 75z"/>
   <path class="fil35" d="M4840 16414l-241 392c288,-145 248,-238 345,-333l118 -82c9,-6 30,-19 44,-30 -157,-276 -34,-205 -401,-257 12,28 27,35 35,83 7,43 23,55 32,75 34,77 31,31 68,152z"/>
   <path class="fil55" d="M10926 16702l301 -39 -25 -117c6,-483 -28,-118 -159,-499 -168,376 -5,4 -170,189 -31,35 -218,-59 7,245 207,-212 -1,-152 229,-227 73,81 18,-40 93,172 -121,97 -62,61 -283,109l7 167z"/>
   <path class="fil39" d="M6207 7575c82,110 5,163 76,61l159 57 235 -55 86 -180c-53,-46 -13,-156 -64,26 -249,0 -197,65 -181,-174 -68,45 -106,41 -197,108 -236,172 -96,69 -114,157z"/>
   <path class="fil56" d="M8955 7667c173,-75 134,165 145,233l73 -4 -30 -221c37,-105 32,-69 57,-202 62,-135 -99,-105 136,-100 -87,-60 61,6 -126,-73 -18,-8 -79,-29 -99,-35 -163,-49 -44,-25 -237,-39 131,152 142,237 81,441z"/>
   <path class="fil28" d="M13943 19732l290 -41c60,-109 32,-96 96,-190l-91 -117c-232,58 -95,58 -357,22l62 326z"/>
   <path class="fil18" d="M16681 18081c31,131 -13,110 94,110 27,-61 -89,-91 249,5 41,-187 -23,-21 66,-107l69 -122 70 -108 -191 -36 -357 258z"/>
   <path class="fil45" d="M13759 13033l283 105c184,124 1,106 294,159l-64 -68c10,-6 38,-47 45,-33 0,0 116,-32 89,-219l-65 34c-7,5 -28,20 -36,26l-170 -12c-132,-110 23,14 -166,-136 -63,117 55,40 -210,144z"/>
   <path class="fil57" d="M13821 10920l5 231c3,0 66,178 344,-114l60 -64c61,-331 37,-81 -69,-163l-186 140 -154 -30z"/>
   <path class="fil58" d="M12660 12180l318 -114 48 -172c-272,13 -266,78 -539,94l24 192 149 0z"/>
   <path class="fil59" d="M14513 15702l-32 -59c-210,19 -85,20 -206,-47l-196 -63 -113 -152 -119 -20 90 97c-86,119 -74,77 -100,244l676 0z"/>
   <path class="fil16" d="M4376 9157c-37,277 -136,110 261,321l136 -202c97,-143 39,98 88,-224l-353 215 -132 -110z"/>
   <path class="fil60" d="M7830 18014c78,199 115,235 313,296l24 -276c-85,-134 -161,-156 -143,-193l-194 173z"/>
   <path class="fil41" d="M10270 19326c-67,104 222,79 342,123l87 -138 -379 -238c-53,196 -29,61 -50,253z"/>
   <path class="fil61" d="M9733 12541c-182,-41 -187,-113 -255,-228l-142 20 121 469c318,-291 193,-32 276,-261z"/>
   <path class="fil41" d="M9272 10377l-4 39 176 49 84 160 2 138 144 29c4,-74 3,-226 -5,-291l-38 -179c-2,-27 -5,-37 -14,-57l-41 170c-23,-15 -46,-33 -68,-46 -376,-233 -423,-107 -301,-203 37,43 61,183 65,191z"/>
   <path class="fil62" d="M19243 12049l129 -17c104,-140 46,-76 201,-161l-120 -173 -237 51 -61 109c60,185 -15,66 88,191z"/>
   <path class="fil61" d="M6431 8320l157 -85c-168,245 -118,104 10,211l195 -19 22 -457 -384 350z"/>
   <path class="fil50" d="M8556 11729l-15 -189c-268,-80 -49,-20 -292,-168 -15,110 14,76 -111,76l131 236c59,176 12,123 135,159l0 -253c64,313 -28,-22 152,139z"/>
   <path class="fil52" d="M14933 13517c55,132 -28,3 107,165l183 4 102 -63 11 -138c-211,-8 -244,21 -339,-141 -132,114 -252,-162 -64,173z"/>
   <path class="fil63" d="M12420 18968c93,185 33,93 326,164 -3,-17 -6,-39 -6,-52l14 -291c-227,-23 -110,-54 -237,24l-97 155z"/>
   <path class="fil43" d="M10602 12133l278 3c-73,-101 -122,-200 -257,-330 -1,-119 22,-10 -136,-32l-19 213c13,14 29,36 36,44l98 102z"/>
   <path class="fil64" d="M15817 15880c189,-48 101,-72 22,-227l-213 -227 -126 47c152,170 192,192 191,439l126 -32z"/>
   <path class="fil53" d="M6677 7638l-89 268 233 -117c15,-9 28,-20 41,-29 13,-7 29,-17 40,-24 102,-69 19,59 133,-124 -128,-132 -36,-77 -250,-40l-22 -114 -86 180z"/>
   <path class="fil40" d="M13513 10088l240 24c-14,-58 -41,-129 -37,-170 18,-188 -13,-49 52,-160l16 -141 -162 43c-48,126 -32,103 -100,180l-9 224z"/>
   <path class="fil14" d="M3501 14406l386 -316c-13,-173 -37,-129 -107,-202 -144,116 -205,258 -279,518z"/>
   <path class="fil40" d="M11446 14516c183,33 135,41 247,-46 29,-22 99,-76 110,-84l-145 -148c579,-21 116,24 316,-128l-47 -131 -481 537z"/>
   <path class="fil65" d="M11784 12244c-77,40 -158,-57 -44,211 235,-57 71,-70 299,3l21 -229 -99 -98c-97,63 -77,43 -161,187l-16 -74z"/>
   <path class="fil56" d="M9837 12635l188 188c-61,168 -60,23 -9,171l80 86 145 -192 -200 -194c-61,-143 93,-122 -57,-99l-147 40z"/>
   <path class="fil66" d="M18208 10116c198,-73 95,99 158,-127 0,-3 -19,-215 -14,-279 -88,-25 -137,-41 -263,-100l123 290 -4 216z"/>
   <path class="fil41" d="M8271 9600c-21,99 -57,66 -13,182 98,255 -6,61 131,115l176 -32 -182 -82c13,-49 41,-176 40,-197 -10,-199 113,-80 -69,-170l-83 184z"/>
   <path class="fil3" d="M6379 13208c40,278 22,224 179,262l129 10c53,3 2,20 90,-13l-193 -354c-31,219 27,105 -88,214l-117 -119z"/>
   <path class="fil67" d="M13995 14240l-190 -224 -198 -54c92,260 8,108 129,199 -17,30 -46,108 -71,131 362,-104 129,-8 226,8 101,16 97,43 104,-60z"/>
   <path class="fil38" d="M14579 11868c37,201 -34,72 114,174 178,-148 101,-67 190,-260l-255 -76 -49 162z"/>
   <path class="fil48" d="M5633 16373c104,187 -3,99 249,189l110 -298c-40,2 -72,-13 -89,18l-270 91z"/>
   <polygon class="fil68" points="6803,17329 6762,17151 6569,17102 6553,17402 "/>
   <path class="fil69" d="M10078 11094c27,58 27,93 132,193l120 9c-52,-190 -113,-244 -199,-363 -99,98 -157,-136 -53,161z"/>
   <path class="fil70" d="M8271 9600l83 -184c8,-16 19,-59 23,-48 4,10 19,-38 24,-48 15,-25 70,-115 81,-131l-264 194c-220,332 -58,135 53,217z"/>
   <path class="fil71" d="M5678 14559l-143 -200 -160 20c41,118 66,133 99,311 89,-132 30,-91 204,-131z"/>
   <path class="fil72" d="M15818 10714c13,-10 31,-47 37,-33 8,19 54,-39 72,-42 18,-3 -72,-33 132,17l-5 -228 -189 16 -47 270z"/>
   <path class="fil73" d="M5602 16124l-27 -212c-135,-127 -43,-96 -228,-202 70,184 65,29 -25,287 295,-7 62,-109 280,127z"/>
   <path class="fil27" d="M9793 15592c53,75 -161,69 119,59 100,-354 -3,-93 173,-346 -198,0 -66,-57 -173,22 -60,44 -23,149 -119,265z"/>
   <path class="fil74" d="M9173 7896l-73 4 -162 -36c60,167 -74,-20 61,140 167,199 3,14 165,126 49,-119 74,-9 9,-234z"/>
   <polygon class="fil75" points="13711,11675 13687,11562 13697,11441 13520,11455 13522,11686 "/>
   <path class="fil16" d="M10073 15203l258 59c-8,-233 26,-88 -132,-259l-126 200z"/>
   <path class="fil76" d="M15069 8906l-106 -221c-164,83 -114,-200 -142,163 19,12 102,52 117,54l131 4z"/>
   <path class="fil51" d="M9174 16129c-60,-165 174,-128 -245,-200l39 160 206 40z"/>
   <path class="fil77" d="M17000 14177l-4 -242c-82,-55 -84,-31 -171,-73 17,67 29,155 65,221 63,116 3,23 110,94z"/>
   <polygon class="fil78" points="5812,8861 5745,8962 6064,8673 5792,8670 "/>
   <path class="fil79" d="M8938 7864l162 36c-11,-68 28,-308 -145,-233l-17 197z"/>
   <path class="fil80" d="M7149 17598l-173 0c-74,-241 32,-106 -184,-215l159 284c393,53 52,16 198,-69z"/>
   <path class="fil53" d="M14298 6362c0,135 76,81 249,71l-76 -178 -173 107z"/>
   <path class="fil25" d="M4061 15332c-74,-278 68,-247 -234,-236 153,230 32,78 234,236z"/>
   <path class="fil73" d="M16335 7564l33 -209c-131,-33 -150,49 -163,23 -9,-19 -37,21 -56,31 0,-157 50,-140 -67,-132 131,260 93,90 253,287z"/>
   <path class="fil81" d="M13759 13033l68 -82c7,-7 43,-51 60,-63l-169 -102c-27,373 -49,179 41,247z"/>
   <path class="fil81" d="M19117 14091c18,-48 45,7 36,-203 -1,-20 -23,-144 -26,-214l-107 278c209,35 29,-21 97,139z"/>
   <path class="fil81" d="M17794 9033c-10,-10 -103,-117 -118,-137 -11,-15 -28,-25 -36,-60 -9,-37 -24,-44 -36,-65 -54,116 -100,-167 -28,179l218 83z"/>
   <polygon class="fil82" points="9337,11084 9147,10879 9181,11097 "/>
   <path class="fil78" d="M10894 12400c2,-249 91,-197 -14,-264l-278 -3 233 37 59 230z"/>
   <path class="fil48" d="M5430 9419c0,0 29,-199 -173,-70 101,106 -26,40 173,70z"/>
   <path class="fil56" d="M4565 13959l-21 -235 -84 133c55,134 -46,22 105,102z"/>
   <polygon class="fil83" points="9528,10625 9444,10465 9268,10416 "/>
  </g>
 </g>
</svg>
