<?xml version="1.0" encoding="UTF-8" standalone="no"?>
<!-- Created with Inkscape (http://www.inkscape.org/) -->

<svg
   xmlns:dc="http://purl.org/dc/elements/1.1/"
   xmlns:cc="http://creativecommons.org/ns#"
   xmlns:rdf="http://www.w3.org/1999/02/22-rdf-syntax-ns#"
   xmlns:svg="http://www.w3.org/2000/svg"
   xmlns="http://www.w3.org/2000/svg"
   xmlns:sodipodi="http://sodipodi.sourceforge.net/DTD/sodipodi-0.dtd"
   xmlns:inkscape="http://www.inkscape.org/namespaces/inkscape"
   width="30mm"
   height="17mm"
   viewBox="0 0 30 17"
   version="1.1"
   id="svg8"
   inkscape:version="0.92.3 (2405546, 2018-03-11)"
   sodipodi:docname="eyes-2.svg">
  <defs
     id="defs2">
    <style
       id="style10"
       type="text/css">
   <![CDATA[
    .fil0 {fill:#030304}
    .fil1 {fill:#050506}
    .fil14 {fill:#111115}
    .fil20 {fill:#141214}
    .fil7 {fill:#14141B}
    .fil19 {fill:#1A1414}
    .fil11 {fill:#1B1A1C}
    .fil5 {fill:#25222A}
    .fil8 {fill:#282A28}
    .fil4 {fill:#29262D}
    .fil3 {fill:#2D2A31}
    .fil27 {fill:#332C33}
    .fil35 {fill:#3A444E}
    .fil13 {fill:#3B2C2C}
    .fil12 {fill:#433C43}
    .fil21 {fill:#443A3C}
    .fil31 {fill:#483B46}
    .fil9 {fill:#493736}
    .fil17 {fill:#494448}
    .fil16 {fill:#4B3C3C}
    .fil26 {fill:#535353}
    .fil23 {fill:#543A38}
    .fil10 {fill:#564847}
    .fil25 {fill:#57443A}
    .fil28 {fill:#58554C}
    .fil33 {fill:#67554A}
    .fil15 {fill:#685957}
    .fil18 {fill:#755A57}
    .fil6 {fill:#776868}
    .fil24 {fill:#786558}
    .fil30 {fill:#8B6B52}
    .fil29 {fill:#8C6F6B}
    .fil32 {fill:#918C90}
    .fil34 {fill:#AB948F}
    .fil36 {fill:#AF8E72}
    .fil22 {fill:#B4B3B4}
    .fil37 {fill:#D69F6C}
    .fil2 {fill:#FEFEFE}
   ]]>
  </style>
  </defs>
  <sodipodi:namedview
     id="base"
     pagecolor="#ffffff"
     bordercolor="#666666"
     borderopacity="1.0"
     inkscape:pageopacity="0.0"
     inkscape:pageshadow="2"
     inkscape:zoom="5.6"
     inkscape:cx="18.435552"
     inkscape:cy="40.908446"
     inkscape:document-units="mm"
     inkscape:current-layer="layer1"
     showgrid="false"
     inkscape:window-width="1920"
     inkscape:window-height="1017"
     inkscape:window-x="-4"
     inkscape:window-y="-4"
     inkscape:window-maximized="1" />
  <metadata
     id="metadata5">
    <rdf:RDF>
      <cc:Work
         rdf:about="">
        <dc:format>image/svg+xml</dc:format>
        <dc:type
           rdf:resource="http://purl.org/dc/dcmitype/StillImage" />
        <dc:title></dc:title>
      </cc:Work>
    </rdf:RDF>
  </metadata>
  <g
     inkscape:label="Ebene 1"
     inkscape:groupmode="layer"
     id="layer1"
     transform="translate(0,-280)">
    <g
       style="clip-rule:evenodd;fill-rule:evenodd;image-rendering:optimizeQuality;shape-rendering:geometricPrecision;text-rendering:geometricPrecision"
       id="g174"
       transform="matrix(0.01,0,0,0.01,-151.67044,232.30503)">
      <g
         id="Ebene_x0020_1">
  <metadata
   id="CorelCorpID_0Corel-Layer" />

  <g
   id="_1601357901808">
   <polygon
   id="polygon15"
   points="16926,6112 16926,6118 16933,6118 16933,6125 16946,6125 16946,6132 16952,6132 16952,6138 16959,6138 16959,6145 16979,6145 16979,6151 16965,6151 16965,6158 16992,6158 16992,6171 17012,6171 17012,6184 17051,6184 17051,6191 17077,6191 17077,6197 17084,6197 17084,6204 17176,6204 17176,6211 17189,6211 17189,6204 17294,6204 17294,6197 17301,6197 17301,6204 17314,6204 17314,6197 17341,6197 17341,6204 17354,6204 17354,6191 17360,6191 17360,6197 17380,6197 17380,6184 17393,6184 17393,6191 17413,6191 17413,6184 17439,6184 17439,6178 17452,6178 17452,6171 17505,6171 17505,6165 17525,6165 17525,6158 17538,6158 17538,6151 17551,6151 17551,6145 17597,6145 17597,6138 17610,6138 17610,6132 17643,6132 17643,6125 17650,6125 17650,6118 17670,6118 17670,6112 17689,6112 17689,6105 17696,6105 17696,6086 17709,6086 17709,6079 17729,6079 17729,6072 17762,6072 17762,6059 17768,6059 17768,6053 17762,6053 17762,6046 17768,6046 17768,6040 17775,6040 17775,6033 17788,6033 17788,6026 17795,6026 17795,6020 17808,6020 17808,6013 17827,6013 17827,6007 17834,6007 17834,6000 17847,6000 17847,5993 17854,5993 17854,5987 17860,5987 17860,5980 17867,5980 17867,5974 17887,5974 17887,5961 17900,5961 17900,5954 17913,5954 17913,5947 17920,5947 17920,5934 17926,5934 17926,5928 17933,5928 17933,5908 17939,5908 17939,5901 17946,5901 17946,5888 17953,5888 17953,5882 17959,5882 17959,5875 17966,5875 17966,5868 17972,5868 17972,5855 17979,5855 17979,5842 17985,5842 17985,5829 17992,5829 17992,5816 17999,5816 17999,5447 17992,5447 17992,5414 17985,5414 17985,5395 17979,5395 17979,5381 17972,5381 17972,5362 17966,5362 17966,5355 17959,5355 17959,5342 17953,5342 17953,5329 17946,5329 17946,5210 17939,5210 17939,5177 17933,5177 17933,5158 17920,5158 17920,5151 17913,5151 17913,5138 17880,5138 17880,5131 17887,5131 17887,5118 17880,5118 17880,5112 17874,5112 17874,5105 17867,5105 17867,5099 17854,5099 17854,5092 17834,5092 17834,5079 17795,5079 17795,5066 17768,5066 17768,5059 17755,5059 17755,5052 17742,5052 17742,5046 17729,5046 17729,5039 17722,5039 17722,5033 17663,5033 17663,5020 17650,5020 17650,5013 17630,5013 17630,5006 17610,5006 17610,5000 17577,5000 17577,4993 17564,4993 17564,4987 17558,4987 17558,4993 17545,4993 17545,4987 17518,4987 17518,4980 17498,4980 17498,4973 17439,4973 17439,4980 17406,4980 17406,4987 17393,4987 17393,4980 17354,4980 17354,4973 17380,4973 17380,4967 17400,4967 17400,4960 17426,4960 17426,4954 17525,4954 17525,4947 17505,4947 17505,4941 17420,4941 17420,4947 17387,4947 17387,4954 17354,4954 17354,4960 17347,4960 17347,4967 17308,4967 17308,4973 17301,4973 17301,4980 17294,4980 17294,4987 17255,4987 17255,4993 17248,4993 17248,5000 17229,5000 17229,5006 17196,5006 17196,5013 17189,5013 17189,5026 17169,5026 17169,5033 17156,5033 17156,5039 17143,5039 17143,5046 17130,5046 17130,5052 17110,5052 17110,5059 17104,5059 17104,5066 17097,5066 17097,5072 17084,5072 17084,5079 17077,5079 17077,5085 17058,5085 17058,5092 17051,5092 17051,5099 17038,5099 17038,5105 17018,5105 17018,5112 17012,5112 17012,5118 16992,5118 16992,5125 16985,5125 16985,5131 16972,5131 16972,5138 16965,5138 16965,5151 16959,5151 16959,5158 16952,5158 16952,5164 16946,5164 16946,5171 16939,5171 16939,5177 16933,5177 16933,5184 16913,5184 16913,5197 16906,5197 16906,5204 16893,5204 16893,5210 16887,5210 16887,5224 16880,5224 16880,5230 16873,5230 16873,5237 16860,5237 16860,5250 16847,5250 16847,5256 16840,5256 16840,5263 16834,5263 16834,5270 16827,5270 16827,5276 16821,5276 16821,5283 16814,5283 16814,5296 16808,5296 16808,5303 16801,5303 16801,5309 16794,5309 16794,5316 16788,5316 16788,5322 16781,5322 16781,5329 16775,5329 16775,5342 16768,5342 16768,5349 16761,5349 16761,5362 16755,5362 16755,5368 16748,5368 16748,5381 16735,5381 16735,5401 16742,5401 16742,5395 16748,5395 16748,5388 16755,5388 16755,5381 16761,5381 16761,5395 16755,5395 16755,5408 16748,5408 16748,5428 16735,5428 16735,5454 16729,5454 16729,5507 16715,5507 16715,5520 16709,5520 16709,5579 16715,5579 16715,5585 16709,5585 16709,5605 16715,5605 16715,5618 16729,5618 16729,5632 16715,5632 16715,5638 16709,5638 16709,5691 16702,5691 16702,5724 16709,5724 16709,5737 16715,5737 16715,5750 16722,5750 16722,5763 16715,5763 16715,5789 16722,5789 16722,5809 16715,5809 16715,5822 16722,5822 16722,5842 16729,5842 16729,5849 16742,5849 16742,5855 16735,5855 16735,5862 16729,5862 16729,5868 16735,5868 16735,5882 16742,5882 16742,5895 16735,5895 16735,5901 16742,5901 16742,5921 16748,5921 16748,5928 16755,5928 16755,5934 16768,5934 16768,5954 16781,5954 16781,5961 16788,5961 16788,5967 16801,5967 16801,5974 16808,5974 16808,5993 16821,5993 16821,6000 16827,6000 16827,6013 16834,6013 16834,6020 16847,6020 16847,6026 16854,6026 16854,6040 16867,6040 16867,6046 16873,6046 16873,6072 16887,6072 16887,6086 16893,6086 16893,6092 16900,6092 16900,6099 16913,6099 16913,6105 16919,6105 16919,6112 "
   class="fil0"
   style="fill:#030304" />

   <polygon
   id="polygon17"
   points="16505,6066 16505,6059 16518,6059 16518,6053 16511,6053 16511,6040 16518,6040 16518,6026 16531,6026 16531,6020 16525,6020 16525,6007 16531,6007 16531,6013 16544,6013 16544,6007 16551,6007 16551,6000 16557,6000 16557,5974 16571,5974 16571,5954 16584,5954 16584,5947 16590,5947 16590,5928 16604,5928 16604,5914 16610,5914 16610,5895 16604,5895 16604,5862 16610,5862 16610,5836 16617,5836 16617,5829 16623,5829 16623,5822 16617,5822 16617,5809 16610,5809 16610,5803 16617,5803 16617,5789 16610,5789 16610,5770 16617,5770 16617,5730 16610,5730 16610,5717 16617,5717 16617,5710 16610,5710 16610,5678 16604,5678 16604,5625 16597,5625 16597,5592 16590,5592 16590,5572 16584,5572 16584,5553 16577,5553 16577,5526 16564,5526 16564,5500 16557,5500 16557,5487 16551,5487 16551,5474 16544,5474 16544,5454 16531,5454 16531,5447 16544,5447 16544,5441 16538,5441 16538,5434 16525,5434 16525,5428 16505,5428 16505,5414 16498,5414 16498,5395 16492,5395 16492,5388 16479,5388 16479,5381 16472,5381 16472,5368 16465,5368 16465,5362 16452,5362 16452,5355 16446,5355 16446,5342 16439,5342 16439,5322 16426,5322 16426,5316 16406,5316 16406,5309 16419,5309 16419,5303 16406,5303 16406,5289 16386,5289 16386,5283 16380,5283 16380,5276 16367,5276 16367,5270 16360,5270 16360,5263 16340,5263 16340,5250 16334,5250 16334,5243 16307,5243 16307,5237 16301,5237 16301,5230 16288,5230 16288,5224 16281,5224 16281,5217 16261,5217 16261,5210 16255,5210 16255,5197 16248,5197 16248,5191 16228,5191 16228,5184 16209,5184 16209,5164 16196,5164 16196,5171 16189,5171 16189,5164 16176,5164 16176,5158 16196,5158 16196,5151 16169,5151 16169,5145 16136,5145 16136,5138 16123,5138 16123,5131 16090,5131 16090,5138 16071,5138 16071,5131 16057,5131 16057,5125 16011,5125 16011,5118 15978,5118 15978,5112 15972,5112 15972,5118 15965,5118 15965,5105 15959,5105 15959,5099 15952,5099 15952,5092 15899,5092 15899,5085 15840,5085 15840,5099 15827,5099 15827,5085 15794,5085 15794,5092 15768,5092 15768,5099 15761,5099 15761,5092 15722,5092 15722,5085 15702,5085 15702,5092 15689,5092 15689,5085 15669,5085 15669,5079 15663,5079 15663,5072 15617,5072 15617,5066 15610,5066 15610,5072 15597,5072 15597,5085 15564,5085 15564,5092 15557,5092 15557,5099 15544,5099 15544,5112 15531,5112 15531,5118 15505,5118 15505,5125 15498,5125 15498,5131 15478,5131 15478,5145 15491,5145 15491,5151 15498,5151 15498,5158 15491,5158 15491,5164 15459,5164 15459,5177 15452,5177 15452,5184 15445,5184 15445,5191 15432,5191 15432,5197 15426,5197 15426,5210 15419,5210 15419,5217 15413,5217 15413,5224 15406,5224 15406,5237 15399,5237 15399,5250 15393,5250 15393,5263 15386,5263 15386,5276 15373,5276 15373,5303 15366,5303 15366,5349 15360,5349 15360,5414 15353,5414 15353,5480 15340,5480 15340,5678 15347,5678 15347,5697 15353,5697 15353,5704 15366,5704 15366,5730 15373,5730 15373,5763 15380,5763 15380,5770 15386,5770 15386,5776 15393,5776 15393,5789 15399,5789 15399,5809 15406,5809 15406,5822 15413,5822 15413,5829 15419,5829 15419,5842 15426,5842 15426,5829 15432,5829 15432,5836 15445,5836 15445,5849 15459,5849 15459,5862 15472,5862 15472,5868 15498,5868 15498,5875 15505,5875 15505,5882 15511,5882 15511,5888 15524,5888 15524,5895 15538,5895 15538,5901 15557,5901 15557,5908 15564,5908 15564,5914 15584,5914 15584,5928 15597,5928 15597,5941 15630,5941 15630,5954 15636,5954 15636,5967 15610,5967 15610,5974 15617,5974 15617,5980 15630,5980 15630,5987 15663,5987 15663,5993 15669,5993 15669,6000 15689,6000 15689,6007 15695,6007 15695,6013 15715,6013 15715,6020 15722,6020 15722,6026 15735,6026 15735,6033 15742,6033 15742,6040 15748,6040 15748,6046 15761,6046 15761,6053 15781,6053 15781,6059 15788,6059 15788,6066 15807,6066 15807,6072 15820,6072 15820,6079 15834,6079 15834,6086 15847,6086 15847,6079 15867,6079 15867,6086 15873,6086 15873,6092 15899,6092 15899,6099 15913,6099 15913,6112 15926,6112 15926,6118 15939,6118 15939,6125 15952,6125 15952,6132 15978,6132 15978,6138 15992,6138 15992,6145 16024,6145 16024,6158 16044,6158 16044,6151 16051,6151 16051,6158 16071,6158 16071,6165 16136,6165 16136,6171 16209,6171 16209,6178 16222,6178 16222,6171 16228,6171 16228,6165 16242,6165 16242,6171 16261,6171 16261,6165 16268,6165 16268,6171 16275,6171 16275,6165 16347,6165 16347,6158 16340,6158 16340,6151 16380,6151 16380,6158 16386,6158 16386,6151 16400,6151 16400,6145 16406,6145 16406,6138 16413,6138 16413,6132 16432,6132 16432,6125 16446,6125 16446,6118 16452,6118 16452,6112 16465,6112 16465,6092 16472,6092 16472,6086 16485,6086 16485,6079 16479,6079 16479,6066 "
   class="fil1"
   style="fill:#050506" />

   <polygon
   id="polygon19"
   points="16301,5349 16301,5342 16294,5342 16294,5329 16288,5329 16288,5316 16281,5316 16281,5309 16268,5309 16268,5296 16235,5296 16235,5289 16228,5289 16228,5283 16215,5283 16215,5270 16189,5270 16189,5263 16182,5263 16182,5256 16176,5256 16176,5250 16163,5250 16163,5237 16123,5237 16123,5230 16117,5230 16117,5224 16103,5224 16103,5210 16064,5210 16064,5204 16057,5204 16057,5197 16044,5197 16044,5191 16031,5191 16031,5184 15978,5184 15978,5177 15913,5177 15913,5171 15728,5171 15728,5177 15722,5177 15722,5184 15702,5184 15702,5191 15695,5191 15695,5197 15682,5197 15682,5204 15676,5204 15676,5210 15669,5210 15669,5217 15663,5217 15663,5224 15656,5224 15656,5237 15649,5237 15649,5243 15643,5243 15643,5250 15623,5250 15623,5256 15603,5256 15603,5263 15590,5263 15590,5270 15577,5270 15577,5276 15570,5276 15570,5283 15557,5283 15557,5289 15551,5289 15551,5296 15538,5296 15538,5309 15531,5309 15531,5329 15524,5329 15524,5335 15518,5335 15518,5368 15511,5368 15511,5559 15505,5559 15505,5599 15511,5599 15511,5618 15518,5618 15518,5664 15524,5664 15524,5671 15531,5671 15531,5684 15538,5684 15538,5691 15551,5691 15551,5697 15557,5697 15557,5710 15564,5710 15564,5717 15570,5717 15570,5730 15577,5730 15577,5737 15590,5737 15590,5750 15617,5750 15617,5757 15623,5757 15623,5770 15630,5770 15630,5776 15643,5776 15643,5783 15649,5783 15649,5789 15676,5789 15676,5796 15682,5796 15682,5803 15695,5803 15695,5816 15735,5816 15735,5822 15755,5822 15755,5836 15781,5836 15781,5842 15788,5842 15788,5849 15794,5849 15794,5855 15807,5855 15807,5862 15814,5862 15814,5868 15840,5868 15840,5875 15853,5875 15853,5882 15867,5882 15867,5888 15873,5888 15873,5895 15939,5895 15939,5901 16242,5901 16242,5908 16255,5908 16255,5901 16268,5901 16268,5895 16275,5895 16275,5888 16301,5888 16301,5875 16334,5875 16334,5868 16347,5868 16347,5862 16373,5862 16373,5855 16380,5855 16380,5849 16400,5849 16400,5842 16419,5842 16419,5836 16426,5836 16426,5816 16432,5816 16432,5789 16439,5789 16439,5776 16446,5776 16446,5770 16452,5770 16452,5750 16459,5750 16459,5724 16465,5724 16465,5717 16472,5717 16472,5618 16465,5618 16465,5599 16459,5599 16459,5592 16452,5592 16452,5526 16439,5526 16439,5513 16432,5513 16432,5500 16426,5500 16426,5467 16413,5467 16413,5454 16406,5454 16406,5447 16400,5447 16400,5441 16393,5441 16393,5414 16380,5414 16380,5401 16373,5401 16373,5395 16360,5395 16360,5388 16347,5388 16347,5381 16340,5381 16340,5375 16334,5375 16334,5362 16327,5362 16327,5355 16314,5355 16314,5349 "
   class="fil2"
   style="fill:#fefefe" />

   <polygon
   id="polygon21"
   points="17604,5842 17604,5836 17610,5836 17610,5829 17617,5829 17617,5822 17623,5822 17623,5816 17630,5816 17630,5809 17643,5809 17643,5803 17650,5803 17650,5796 17656,5796 17656,5789 17663,5789 17663,5783 17670,5783 17670,5770 17676,5770 17676,5763 17683,5763 17683,5757 17689,5757 17689,5750 17696,5750 17696,5743 17702,5743 17702,5730 17709,5730 17709,5724 17716,5724 17716,5717 17729,5717 17729,5710 17735,5710 17735,5704 17742,5704 17742,5678 17749,5678 17749,5651 17755,5651 17755,5632 17762,5632 17762,5592 17768,5592 17768,5579 17775,5579 17775,5329 17768,5329 17768,5316 17762,5316 17762,5303 17755,5303 17755,5296 17749,5296 17749,5289 17742,5289 17742,5270 17735,5270 17735,5263 17729,5263 17729,5250 17722,5250 17722,5243 17709,5243 17709,5230 17683,5230 17683,5224 17676,5224 17676,5217 17670,5217 17670,5210 17656,5210 17656,5204 17650,5204 17650,5197 17610,5197 17610,5191 17597,5191 17597,5184 17591,5184 17591,5177 17531,5177 17531,5184 17525,5184 17525,5191 17505,5191 17505,5197 17498,5197 17498,5204 17485,5204 17485,5210 17446,5210 17446,5217 17420,5217 17420,5224 17387,5224 17387,5230 17347,5230 17347,5237 17321,5237 17321,5243 17294,5243 17294,5250 17262,5250 17262,5256 17242,5256 17242,5263 17216,5263 17216,5270 17196,5270 17196,5276 17169,5276 17169,5283 17156,5283 17156,5289 17137,5289 17137,5296 17123,5296 17123,5303 17110,5303 17110,5309 17097,5309 17097,5316 17090,5316 17090,5322 17077,5322 17077,5329 17064,5329 17064,5335 17058,5335 17058,5342 17051,5342 17051,5349 17044,5349 17044,5355 17025,5355 17025,5362 17018,5362 17018,5368 17012,5368 17012,5375 17005,5375 17005,5381 16992,5381 16992,5388 16985,5388 16985,5395 16979,5395 16979,5401 16972,5401 16972,5408 16965,5408 16965,5414 16959,5414 16959,5421 16952,5421 16952,5428 16946,5428 16946,5454 16939,5454 16939,5460 16933,5460 16933,5467 16926,5467 16926,5474 16919,5474 16919,5487 16913,5487 16913,5507 16906,5507 16906,5513 16900,5513 16900,5526 16893,5526 16893,5533 16887,5533 16887,5539 16880,5539 16880,5658 16887,5658 16887,5704 16893,5704 16893,5730 16900,5730 16900,5737 16906,5737 16906,5757 16913,5757 16913,5776 16919,5776 16919,5783 16926,5783 16926,5796 16933,5796 16933,5803 16946,5803 16946,5809 16959,5809 16959,5816 16965,5816 16965,5822 16972,5822 16972,5829 16979,5829 16979,5836 16985,5836 16985,5849 16992,5849 16992,5862 16998,5862 16998,5868 17005,5868 17005,5875 17012,5875 17012,5888 17018,5888 17018,5901 17025,5901 17025,5914 17031,5914 17031,5921 17044,5921 17044,5928 17051,5928 17051,5941 17058,5941 17058,5961 17071,5961 17071,5974 17084,5974 17084,5980 17130,5980 17130,5987 17137,5987 17137,5993 17143,5993 17143,6000 17334,6000 17334,5993 17341,5993 17341,5987 17360,5987 17360,5980 17393,5980 17393,5974 17400,5974 17400,5967 17420,5967 17420,5961 17433,5961 17433,5954 17446,5954 17446,5947 17459,5947 17459,5941 17479,5941 17479,5934 17485,5934 17485,5928 17498,5928 17498,5921 17505,5921 17505,5914 17512,5914 17512,5908 17518,5908 17518,5901 17525,5901 17525,5895 17531,5895 17531,5888 17545,5888 17545,5882 17551,5882 17551,5875 17558,5875 17558,5868 17564,5868 17564,5862 17577,5862 17577,5855 17584,5855 17584,5849 17597,5849 17597,5842 "
   class="fil2"
   style="fill:#fefefe" />

   <polygon
   id="polygon23"
   points="16610,5914 16604,5914 16604,5928 16590,5928 16590,5947 16584,5947 16584,5954 16571,5954 16571,5974 16557,5974 16557,6033 16551,6033 16551,6040 16538,6040 16538,6053 16525,6053 16525,6066 16531,6066 16531,6072 16505,6072 16505,6079 16518,6079 16518,6092 16492,6092 16492,6099 16472,6099 16472,6092 16465,6092 16465,6112 16452,6112 16452,6118 16446,6118 16446,6125 16432,6125 16432,6132 16413,6132 16413,6138 16406,6138 16406,6145 16400,6145 16400,6151 16386,6151 16386,6158 16380,6158 16380,6151 16340,6151 16340,6158 16347,6158 16347,6165 16275,6165 16275,6171 16268,6171 16268,6165 16261,6165 16261,6171 16242,6171 16242,6165 16228,6165 16228,6171 16222,6171 16222,6178 16209,6178 16209,6171 16136,6171 16136,6165 16103,6165 16103,6171 16110,6171 16110,6178 16117,6178 16117,6211 16130,6211 16130,6204 16143,6204 16143,6211 16156,6211 16156,6217 16182,6217 16182,6230 16189,6230 16189,6224 16196,6224 16196,6217 16228,6217 16228,6224 16235,6224 16235,6211 16255,6211 16255,6204 16288,6204 16288,6197 16307,6197 16307,6204 16354,6204 16354,6191 16367,6191 16367,6184 16373,6184 16373,6171 16380,6171 16380,6184 16386,6184 16386,6165 16413,6165 16413,6151 16426,6151 16426,6145 16439,6145 16439,6151 16459,6151 16459,6145 16452,6145 16452,6138 16465,6138 16465,6132 16472,6132 16472,6145 16485,6145 16485,6158 16492,6158 16492,6165 16511,6165 16511,6178 16498,6178 16498,6197 16518,6197 16518,6191 16531,6191 16531,6184 16538,6184 16538,6171 16525,6171 16525,6165 16518,6165 16518,6158 16511,6158 16511,6151 16518,6151 16518,6145 16525,6145 16525,6138 16538,6138 16538,6132 16518,6132 16518,6118 16511,6118 16511,6112 16525,6112 16525,6118 16531,6118 16531,6125 16544,6125 16544,6118 16571,6118 16571,6105 16551,6105 16551,6099 16538,6099 16538,6092 16525,6092 16525,6086 16538,6086 16538,6079 16544,6079 16544,6086 16557,6086 16557,6092 16564,6092 16564,6099 16571,6099 16571,6092 16584,6092 16584,6086 16590,6086 16590,6079 16610,6079 16610,6059 16617,6059 16617,6053 16610,6053 16610,6046 16617,6046 16617,6033 16623,6033 16623,6026 16630,6026 16630,6020 16636,6020 16636,6013 16650,6013 16650,6040 16643,6040 16643,6033 16636,6033 16636,6046 16623,6046 16623,6053 16636,6053 16636,6086 16643,6086 16643,6079 16650,6079 16650,6066 16656,6066 16656,6079 16669,6079 16669,6092 16676,6092 16676,6099 16669,6099 16669,6112 16683,6112 16683,6105 16696,6105 16696,6112 16702,6112 16702,6125 16709,6125 16709,6132 16715,6132 16715,6138 16722,6138 16722,6151 16729,6151 16729,6158 16735,6158 16735,6165 16742,6165 16742,6171 16748,6171 16748,6178 16755,6178 16755,6184 16761,6184 16761,6191 16768,6191 16768,6197 16775,6197 16775,6211 16781,6211 16781,6217 16794,6217 16794,6224 16814,6224 16814,6217 16860,6217 16860,6224 16873,6224 16873,6230 16887,6230 16887,6237 16893,6237 16893,6243 16919,6243 16919,6250 16933,6250 16933,6257 16939,6257 16939,6263 16946,6263 16946,6276 16952,6276 16952,6283 16965,6283 16965,6290 16972,6290 16972,6296 16992,6296 16992,6303 17025,6303 17025,6309 17038,6309 17038,6316 17439,6316 17439,6309 17472,6309 17472,6303 17492,6303 17492,6296 17518,6296 17518,6290 17525,6290 17525,6283 17551,6283 17551,6276 17571,6276 17571,6270 17584,6270 17584,6263 17591,6263 17591,6257 17604,6257 17604,6250 17610,6250 17610,6243 17623,6243 17623,6237 17637,6237 17637,6230 17643,6230 17643,6224 17656,6224 17656,6217 17663,6217 17663,6211 17676,6211 17676,6204 17689,6204 17689,6197 17696,6197 17696,6191 17709,6191 17709,6184 17716,6184 17716,6178 17729,6178 17729,6171 17735,6171 17735,6165 17742,6165 17742,6158 17749,6158 17749,6151 17762,6151 17762,6145 17768,6145 17768,6138 17775,6138 17775,6132 17781,6132 17781,6125 17788,6125 17788,6118 17795,6118 17795,6112 17801,6112 17801,6105 17808,6105 17808,6099 17814,6099 17814,6092 17821,6092 17821,6086 17827,6086 17827,6079 17834,6079 17834,6072 17841,6072 17841,6066 17847,6066 17847,6059 17854,6059 17854,6046 17860,6046 17860,6040 17867,6040 17867,6026 17874,6026 17874,6013 17880,6013 17880,6007 17887,6007 17887,5993 17893,5993 17893,5987 17900,5987 17900,5980 17906,5980 17906,5974 17913,5974 17913,5961 17920,5961 17920,5947 17913,5947 17913,5954 17900,5954 17900,5961 17887,5961 17887,5974 17867,5974 17867,5980 17860,5980 17860,5987 17854,5987 17854,5993 17847,5993 17847,6000 17834,6000 17834,6007 17827,6007 17827,6013 17808,6013 17808,6020 17795,6020 17795,6026 17788,6026 17788,6033 17775,6033 17775,6040 17768,6040 17768,6046 17762,6046 17762,6053 17768,6053 17768,6059 17762,6059 17762,6072 17729,6072 17729,6079 17709,6079 17709,6086 17696,6086 17696,6105 17689,6105 17689,6112 17670,6112 17670,6118 17650,6118 17650,6125 17643,6125 17643,6132 17610,6132 17610,6138 17597,6138 17597,6145 17551,6145 17551,6151 17538,6151 17538,6158 17525,6158 17525,6165 17505,6165 17505,6171 17452,6171 17452,6178 17439,6178 17439,6184 17413,6184 17413,6191 17393,6191 17393,6184 17380,6184 17380,6197 17360,6197 17360,6191 17354,6191 17354,6204 17341,6204 17341,6197 17314,6197 17314,6204 17301,6204 17301,6197 17294,6197 17294,6204 17189,6204 17189,6211 17176,6211 17176,6204 17084,6204 17084,6197 17077,6197 17077,6191 17051,6191 17051,6184 17012,6184 17012,6171 16992,6171 16992,6158 16965,6158 16965,6151 16979,6151 16979,6145 16959,6145 16959,6138 16952,6138 16952,6132 16946,6132 16946,6125 16933,6125 16933,6118 16926,6118 16926,6112 16919,6112 16919,6105 16913,6105 16913,6099 16900,6099 16900,6092 16893,6092 16893,6086 16887,6086 16887,6072 16873,6072 16873,6046 16867,6046 16867,6040 16854,6040 16854,6026 16847,6026 16847,6020 16834,6020 16834,6013 16827,6013 16827,6000 16821,6000 16821,5993 16808,5993 16808,5974 16801,5974 16801,5967 16788,5967 16788,5961 16781,5961 16781,5954 16768,5954 16768,5934 16755,5934 16755,5928 16748,5928 16748,5921 16742,5921 16742,5901 16735,5901 16735,5895 16742,5895 16742,5882 16735,5882 16735,5868 16729,5868 16729,5862 16735,5862 16735,5855 16742,5855 16742,5849 16729,5849 16729,5842 16722,5842 16722,5822 16715,5822 16715,5809 16722,5809 16722,5789 16715,5789 16715,5763 16722,5763 16722,5750 16715,5750 16715,5737 16709,5737 16709,5724 16702,5724 16702,5691 16709,5691 16709,5638 16715,5638 16715,5632 16729,5632 16729,5618 16715,5618 16715,5605 16709,5605 16709,5585 16715,5585 16715,5579 16709,5579 16709,5520 16715,5520 16715,5507 16729,5507 16729,5454 16735,5454 16735,5428 16748,5428 16748,5408 16755,5408 16755,5395 16761,5395 16761,5381 16755,5381 16755,5388 16748,5388 16748,5395 16742,5395 16742,5401 16735,5401 16735,5395 16729,5395 16729,5408 16722,5408 16722,5414 16715,5414 16715,5428 16709,5428 16709,5434 16702,5434 16702,5447 16696,5447 16696,5454 16689,5454 16689,5460 16669,5460 16669,5447 16663,5447 16663,5441 16656,5441 16656,5434 16650,5434 16650,5428 16643,5428 16643,5421 16636,5421 16636,5414 16630,5414 16630,5408 16623,5408 16623,5401 16617,5401 16617,5395 16610,5395 16610,5381 16597,5381 16597,5375 16590,5375 16590,5368 16584,5368 16584,5362 16577,5362 16577,5355 16571,5355 16571,5349 16557,5349 16557,5342 16551,5342 16551,5335 16538,5335 16538,5322 16531,5322 16531,5316 16525,5316 16525,5309 16518,5309 16518,5303 16511,5303 16511,5289 16505,5289 16505,5283 16492,5283 16492,5276 16485,5276 16485,5270 16479,5270 16479,5263 16472,5263 16472,5256 16459,5256 16459,5250 16452,5250 16452,5243 16446,5243 16446,5237 16439,5237 16439,5230 16426,5230 16426,5224 16419,5224 16419,5217 16413,5217 16413,5197 16400,5197 16400,5191 16386,5191 16386,5184 16380,5184 16380,5177 16373,5177 16373,5171 16360,5171 16360,5164 16354,5164 16354,5158 16347,5158 16347,5151 16327,5151 16327,5145 16314,5145 16314,5138 16301,5138 16301,5131 16261,5131 16261,5125 16196,5125 16196,5118 16189,5118 16189,5112 16150,5112 16150,5105 16130,5105 16130,5099 16117,5099 16117,5092 16071,5092 16071,5079 16057,5079 16057,5072 16018,5072 16018,5066 15952,5066 15952,5059 15939,5059 15939,5052 15893,5052 15893,5046 15610,5046 15610,5052 15590,5052 15590,5059 15584,5059 15584,5072 15577,5072 15577,5079 15570,5079 15570,5085 15597,5085 15597,5072 15610,5072 15610,5066 15617,5066 15617,5072 15663,5072 15663,5079 15669,5079 15669,5085 15689,5085 15689,5092 15702,5092 15702,5085 15722,5085 15722,5092 15761,5092 15761,5099 15768,5099 15768,5092 15794,5092 15794,5085 15827,5085 15827,5099 15840,5099 15840,5085 15899,5085 15899,5092 15952,5092 15952,5099 15959,5099 15959,5105 15965,5105 15965,5118 15972,5118 15972,5112 15978,5112 15978,5118 16011,5118 16011,5125 16057,5125 16057,5131 16071,5131 16071,5138 16090,5138 16090,5131 16123,5131 16123,5138 16136,5138 16136,5145 16169,5145 16169,5151 16196,5151 16196,5158 16176,5158 16176,5164 16189,5164 16189,5171 16196,5171 16196,5164 16209,5164 16209,5184 16228,5184 16228,5191 16248,5191 16248,5197 16255,5197 16255,5210 16261,5210 16261,5217 16281,5217 16281,5224 16288,5224 16288,5230 16301,5230 16301,5237 16307,5237 16307,5243 16334,5243 16334,5250 16340,5250 16340,5263 16360,5263 16360,5270 16367,5270 16367,5276 16380,5276 16380,5283 16386,5283 16386,5289 16406,5289 16406,5303 16419,5303 16419,5309 16406,5309 16406,5316 16426,5316 16426,5322 16439,5322 16439,5342 16446,5342 16446,5355 16452,5355 16452,5362 16465,5362 16465,5368 16472,5368 16472,5381 16479,5381 16479,5388 16492,5388 16492,5395 16498,5395 16498,5414 16505,5414 16505,5428 16525,5428 16525,5434 16538,5434 16538,5441 16544,5441 16544,5447 16531,5447 16531,5454 16544,5454 16544,5474 16551,5474 16551,5487 16557,5487 16557,5500 16564,5500 16564,5526 16577,5526 16577,5553 16584,5553 16584,5572 16590,5572 16590,5592 16597,5592 16597,5625 16604,5625 16604,5678 16610,5678 16610,5710 16617,5710 16617,5717 16610,5717 16610,5730 16617,5730 16617,5770 16610,5770 16610,5789 16617,5789 16617,5803 16610,5803 16610,5809 16617,5809 16617,5822 16623,5822 16623,5829 16617,5829 16617,5836 16610,5836 16610,5862 16604,5862 16604,5895 16610,5895 "
   class="fil3"
   style="fill:#2d2a31" />

   <polygon
   id="polygon25"
   points="17472,5434 17472,5414 17466,5414 17466,5401 17459,5401 17459,5388 17452,5388 17452,5381 17446,5381 17446,5375 17439,5375 17439,5362 17433,5362 17433,5335 17420,5335 17420,5322 17413,5322 17413,5309 17406,5309 17406,5303 17400,5303 17400,5296 17380,5296 17380,5289 17373,5289 17373,5276 17360,5276 17360,5283 17327,5283 17327,5276 17301,5276 17301,5283 17294,5283 17294,5289 17268,5289 17268,5296 17255,5296 17255,5303 17248,5303 17248,5309 17235,5309 17235,5316 17229,5316 17229,5322 17222,5322 17222,5329 17209,5329 17209,5335 17183,5335 17183,5349 17176,5349 17176,5368 17169,5368 17169,5375 17163,5375 17163,5381 17156,5381 17156,5388 17150,5388 17150,5441 17143,5441 17143,5460 17150,5460 17150,5474 17156,5474 17156,5500 17163,5500 17163,5520 17156,5520 17156,5533 17163,5533 17163,5539 17169,5539 17169,5566 17183,5566 17183,5572 17189,5572 17189,5579 17209,5579 17209,5585 17216,5585 17216,5592 17222,5592 17222,5599 17235,5599 17235,5605 17242,5605 17242,5612 17255,5612 17255,5618 17281,5618 17281,5625 17288,5625 17288,5632 17314,5632 17314,5638 17327,5638 17327,5645 17334,5645 17334,5638 17341,5638 17341,5632 17360,5632 17360,5625 17354,5625 17354,5618 17373,5618 17373,5612 17360,5612 17360,5605 17380,5605 17380,5592 17400,5592 17400,5605 17413,5605 17413,5592 17439,5592 17439,5605 17433,5605 17433,5618 17446,5618 17446,5592 17452,5592 17452,5585 17466,5585 17466,5572 17472,5572 17472,5559 17479,5559 17479,5493 17485,5493 17485,5467 17479,5467 17479,5434 "
   class="fil4"
   style="fill:#29262d" />

   <polygon
   id="polygon27"
   points="15886,5651 15906,5651 15906,5658 15913,5658 15913,5651 15932,5651 15932,5658 15952,5658 15952,5638 16011,5638 16011,5632 16031,5632 16031,5625 16038,5625 16038,5618 16044,5618 16044,5612 16031,5612 16031,5618 16018,5618 16018,5625 15965,5625 15965,5618 15972,5618 15972,5612 15992,5612 15992,5599 15998,5599 15998,5605 16005,5605 16005,5599 16011,5599 16011,5592 16005,5592 16005,5579 15998,5579 15998,5566 16005,5566 16005,5559 16011,5559 16011,5566 16024,5566 16024,5559 16018,5559 16018,5553 16038,5553 16038,5546 16044,5546 16044,5533 16057,5533 16057,5513 16038,5513 16038,5507 16024,5507 16024,5500 16051,5500 16051,5493 16057,5493 16057,5487 16044,5487 16044,5474 16018,5474 16018,5460 16011,5460 16011,5454 16024,5454 16024,5441 16038,5441 16038,5428 16031,5428 16031,5421 16018,5421 16018,5414 16011,5414 16011,5408 15985,5408 15985,5401 15965,5401 15965,5395 15959,5395 15959,5388 15939,5388 15939,5381 15873,5381 15873,5388 15880,5388 15880,5395 15840,5395 15840,5401 15834,5401 15834,5414 15820,5414 15820,5421 15814,5421 15814,5428 15794,5428 15794,5454 15788,5454 15788,5460 15781,5460 15781,5447 15768,5447 15768,5434 15761,5434 15761,5428 15748,5428 15748,5447 15742,5447 15742,5539 15735,5539 15735,5553 15722,5553 15722,5566 15735,5566 15735,5572 15748,5572 15748,5585 15755,5585 15755,5592 15761,5592 15761,5599 15774,5599 15774,5605 15781,5605 15781,5612 15814,5612 15814,5618 15820,5618 15820,5625 15834,5625 15834,5632 15847,5632 15847,5638 15873,5638 15873,5645 15886,5645 "
   class="fil4"
   style="fill:#29262d" />

   <polygon
   id="polygon29"
   points="17525,4947 17525,4954 17426,4954 17426,4960 17400,4960 17400,4967 17380,4967 17380,4973 17354,4973 17354,4980 17393,4980 17393,4987 17406,4987 17406,4980 17439,4980 17439,4973 17498,4973 17498,4980 17518,4980 17518,4987 17545,4987 17545,4993 17558,4993 17558,4987 17564,4987 17564,4993 17577,4993 17577,5000 17610,5000 17610,5006 17630,5006 17630,5013 17650,5013 17650,5020 17663,5020 17663,5033 17722,5033 17722,5039 17729,5039 17729,5046 17742,5046 17742,5052 17755,5052 17755,5059 17768,5059 17768,5066 17795,5066 17795,5079 17834,5079 17834,5092 17854,5092 17854,5099 17867,5099 17867,5105 17874,5105 17874,5112 17880,5112 17880,5118 17887,5118 17887,5131 17880,5131 17880,5138 17913,5138 17913,5151 17920,5151 17920,5131 17913,5131 17913,5118 17906,5118 17906,5112 17900,5112 17900,5099 17893,5099 17893,5092 17887,5092 17887,5085 17867,5085 17867,5079 17860,5079 17860,5072 17854,5072 17854,5066 17821,5066 17821,5059 17808,5059 17808,5052 17795,5052 17795,5046 17762,5046 17762,5039 17755,5039 17755,5033 17749,5033 17749,5026 17742,5026 17742,5020 17729,5020 17729,5013 17709,5013 17709,5006 17696,5006 17696,5000 17689,5000 17689,4993 17683,4993 17683,4987 17656,4987 17656,4980 17637,4980 17637,4973 17630,4973 17630,4967 17591,4967 17591,4954 17571,4954 17571,4947 "
   class="fil4"
   style="fill:#29262d" />

   <polygon
   id="polygon31"
   points="16110,5947 16136,5947 16136,5954 16143,5954 16143,5947 16156,5947 16156,5954 16163,5954 16163,5947 16189,5947 16189,5941 16209,5941 16209,5934 16222,5934 16222,5941 16255,5941 16255,5947 16268,5947 16268,5941 16307,5941 16307,5934 16321,5934 16321,5921 16373,5921 16373,5908 16400,5908 16400,5895 16406,5895 16406,5868 16413,5868 16413,5862 16380,5862 16380,5868 16373,5868 16373,5875 16354,5875 16354,5882 16334,5882 16334,5888 16314,5888 16314,5895 16301,5895 16301,5901 16288,5901 16288,5908 16275,5908 16275,5914 16261,5914 16261,5921 16255,5921 16255,5914 16196,5914 16196,5908 16202,5908 16202,5901 15939,5901 15939,5895 15932,5895 15932,5908 15985,5908 15985,5914 15998,5914 15998,5921 16011,5921 16011,5928 16024,5928 16024,5921 16044,5921 16044,5928 16071,5928 16071,5934 16097,5934 16097,5941 16110,5941 "
   class="fil5"
   style="fill:#25222a" />

   <polygon
   id="polygon33"
   points="16301,6224 16301,6204 16294,6204 16294,6217 16288,6217 16288,6211 16275,6211 16275,6224 16261,6224 16261,6237 16255,6237 16255,6211 16235,6211 16235,6224 16228,6224 16228,6217 16196,6217 16196,6224 16189,6224 16189,6230 16182,6230 16182,6217 16156,6217 16156,6211 16143,6211 16143,6204 16130,6204 16130,6211 16117,6211 16117,6178 16097,6178 16097,6184 16084,6184 16084,6191 16090,6191 16090,6197 16084,6197 16084,6211 16097,6211 16097,6217 16103,6217 16103,6224 16110,6224 16110,6230 16117,6230 16117,6257 16150,6257 16150,6263 16307,6263 16307,6257 16354,6257 16354,6250 16393,6250 16393,6237 16400,6237 16400,6224 16386,6224 16386,6217 16373,6217 16373,6211 16367,6211 16367,6204 16321,6204 16321,6230 16314,6230 16314,6237 16307,6237 16307,6224 "
   class="fil6"
   style="fill:#776868" />

   <polygon
   id="polygon35"
   points="17347,5230 17387,5230 17387,5224 17420,5224 17420,5217 17446,5217 17446,5210 17452,5210 17452,5197 17446,5197 17446,5191 17420,5191 17420,5197 17400,5197 17400,5204 17341,5204 17341,5210 17321,5210 17321,5197 17314,5197 17314,5204 17294,5204 17294,5197 17275,5197 17275,5217 17262,5217 17262,5204 17242,5204 17242,5224 17222,5224 17222,5217 17216,5217 17216,5224 17209,5224 17209,5217 17202,5217 17202,5230 17189,5230 17189,5224 17183,5224 17183,5243 17189,5243 17189,5250 17176,5250 17176,5243 17156,5243 17156,5250 17169,5250 17169,5256 17156,5256 17156,5263 17137,5263 17137,5276 17123,5276 17123,5296 17137,5296 17137,5289 17156,5289 17156,5283 17169,5283 17169,5276 17196,5276 17196,5270 17216,5270 17216,5263 17242,5263 17242,5256 17262,5256 17262,5250 17294,5250 17294,5243 17321,5243 17321,5237 17347,5237 "
   class="fil7"
   style="fill:#14141b" />

   <polygon
   id="polygon37"
   points="15518,5368 15518,5335 15524,5335 15524,5316 15511,5316 15511,5322 15505,5322 15505,5342 15498,5342 15498,5349 15491,5349 15491,5368 15485,5368 15485,5381 15478,5381 15478,5408 15472,5408 15472,5533 15478,5533 15478,5566 15485,5566 15485,5579 15478,5579 15478,5592 15491,5592 15491,5618 15498,5618 15498,5625 15505,5625 15505,5632 15511,5632 15511,5658 15518,5658 15518,5618 15511,5618 15511,5599 15505,5599 15505,5559 15511,5559 15511,5368 "
   class="fil8"
   style="fill:#282a28" />

   <polygon
   id="polygon39"
   points="16452,6145 16459,6145 16459,6151 16439,6151 16439,6145 16426,6145 16426,6151 16413,6151 16413,6165 16386,6165 16386,6184 16380,6184 16380,6171 16373,6171 16373,6184 16367,6184 16367,6191 16354,6191 16354,6204 16367,6204 16367,6211 16373,6211 16373,6217 16386,6217 16386,6224 16400,6224 16400,6237 16393,6237 16393,6250 16406,6250 16406,6243 16413,6243 16413,6237 16426,6237 16426,6224 16419,6224 16419,6204 16452,6204 16452,6197 16459,6197 16459,6217 16452,6217 16452,6224 16472,6224 16472,6217 16479,6217 16479,6197 16485,6197 16485,6191 16498,6191 16498,6178 16511,6178 16511,6165 16492,6165 16492,6158 16485,6158 16485,6145 16472,6145 16472,6132 16465,6132 16465,6138 16452,6138 "
   class="fil9"
   style="fill:#493736" />

   <polygon
   id="polygon41"
   points="16071,5585 16071,5572 16077,5572 16077,5559 16084,5559 16084,5539 16077,5539 16077,5526 16084,5526 16084,5500 16090,5500 16090,5460 16084,5460 16084,5474 16064,5474 16064,5500 16024,5500 16024,5507 16038,5507 16038,5513 16057,5513 16057,5533 16044,5533 16044,5546 16038,5546 16038,5553 16018,5553 16018,5559 16024,5559 16024,5566 16011,5566 16011,5559 16005,5559 16005,5566 15998,5566 15998,5579 16005,5579 16005,5592 16011,5592 16011,5599 16005,5599 16005,5605 15998,5605 15998,5599 15992,5599 15992,5612 15972,5612 15972,5618 15965,5618 15965,5625 16018,5625 16018,5618 16031,5618 16031,5612 16051,5612 16051,5605 16057,5605 16057,5599 16064,5599 16064,5585 "
   class="fil10"
   style="fill:#564847" />

   <polygon
   id="polygon43"
   points="15445,5862 15445,5875 15465,5875 15465,5888 15472,5888 15472,5895 15485,5895 15485,5901 15491,5901 15491,5908 15505,5908 15505,5914 15518,5914 15518,5921 15524,5921 15524,5928 15531,5928 15531,5934 15544,5934 15544,5941 15557,5941 15557,5947 15570,5947 15570,5954 15584,5954 15584,5961 15590,5961 15590,5967 15603,5967 15603,5974 15610,5974 15610,5967 15636,5967 15636,5954 15630,5954 15630,5941 15597,5941 15597,5928 15584,5928 15584,5914 15564,5914 15564,5908 15557,5908 15557,5901 15538,5901 15538,5895 15524,5895 15524,5888 15511,5888 15511,5882 15505,5882 15505,5875 15498,5875 15498,5868 15472,5868 15472,5862 15459,5862 15459,5849 15445,5849 15445,5836 15432,5836 15432,5829 15426,5829 15426,5855 15432,5855 15432,5862 "
   class="fil11"
   style="fill:#1b1a1c" />

   <polygon
   id="polygon45"
   points="16992,5862 16992,5849 16985,5849 16985,5836 16979,5836 16979,5829 16972,5829 16972,5842 16965,5842 16965,5836 16959,5836 16959,5829 16952,5829 16952,5822 16946,5822 16946,5816 16933,5816 16933,5855 16946,5855 16946,5862 16952,5862 16952,5882 16959,5882 16959,5888 16965,5888 16965,5895 16972,5895 16972,5901 16985,5901 16985,5908 16998,5908 16998,5914 17005,5914 17005,5928 17012,5928 17012,5934 17025,5934 17025,5941 17031,5941 17031,5947 17044,5947 17044,5954 17051,5954 17051,5928 17044,5928 17044,5921 17031,5921 17031,5914 17025,5914 17025,5901 17018,5901 17018,5888 17012,5888 17012,5875 17005,5875 17005,5868 16998,5868 16998,5862 "
   class="fil4"
   style="fill:#29262d" />

   <polygon
   id="polygon47"
   points="16847,5632 16840,5632 16840,5664 16834,5664 16834,5678 16854,5678 16854,5691 16860,5691 16860,5704 16867,5704 16867,5717 16880,5717 16880,5730 16887,5730 16887,5737 16900,5737 16900,5730 16893,5730 16893,5704 16887,5704 16887,5658 16880,5658 16880,5553 16873,5553 16873,5566 16867,5566 16867,5572 16860,5572 16860,5592 16847,5592 "
   class="fil12"
   style="fill:#433c43" />

   <polygon
   id="polygon49"
   points="15853,5375 15853,5368 15794,5368 15794,5375 15781,5375 15781,5388 15768,5388 15768,5401 15774,5401 15774,5421 15768,5421 15768,5428 15761,5428 15761,5434 15768,5434 15768,5447 15781,5447 15781,5460 15788,5460 15788,5454 15794,5454 15794,5428 15814,5428 15814,5421 15820,5421 15820,5414 15834,5414 15834,5401 15840,5401 15840,5395 15880,5395 15880,5388 15873,5388 15873,5381 15919,5381 15919,5375 "
   class="fil13"
   style="fill:#3b2c2c" />

   <polygon
   id="polygon51"
   points="16992,5270 16972,5270 16972,5276 16965,5276 16965,5283 16946,5283 16946,5289 16939,5289 16939,5296 16933,5296 16933,5303 16926,5303 16926,5309 16919,5309 16919,5335 16933,5335 16933,5342 16926,5342 16926,5349 16906,5349 16906,5362 16913,5362 16913,5368 16933,5368 16933,5349 16946,5349 16946,5329 16959,5329 16959,5316 16979,5316 16979,5309 16985,5309 16985,5303 17005,5303 17005,5289 17018,5289 17018,5276 17025,5276 17025,5270 17031,5270 17031,5263 16992,5263 "
   class="fil14"
   style="fill:#111115" />

   <polygon
   id="polygon53"
   points="16011,6197 16024,6197 16024,6204 16031,6204 16031,6211 16044,6211 16044,6217 16051,6217 16051,6224 16064,6224 16064,6230 16077,6230 16077,6237 16084,6237 16084,6243 16103,6243 16103,6237 16090,6237 16090,6224 16097,6224 16097,6211 16084,6211 16084,6197 16064,6197 16064,6191 16057,6191 16057,6184 16064,6184 16064,6178 16057,6178 16057,6171 16051,6171 16051,6165 16031,6165 16031,6158 16024,6158 16024,6145 15992,6145 15992,6151 15998,6151 15998,6158 16011,6158 16011,6165 16005,6165 16005,6171 15992,6171 15992,6165 15978,6165 15978,6178 15985,6178 15985,6184 16005,6184 16005,6191 16011,6191 "
   class="fil15"
   style="fill:#685957" />

   <polygon
   id="polygon55"
   points="16617,6059 16610,6059 16610,6079 16590,6079 16590,6086 16584,6086 16584,6092 16571,6092 16571,6099 16564,6099 16564,6092 16557,6092 16557,6086 16544,6086 16544,6079 16538,6079 16538,6086 16525,6086 16525,6092 16538,6092 16538,6099 16551,6099 16551,6105 16571,6105 16571,6118 16577,6118 16577,6112 16590,6112 16590,6118 16597,6118 16597,6112 16610,6112 16610,6118 16623,6118 16623,6112 16630,6112 16630,6105 16636,6105 16636,6099 16630,6099 16630,6092 16643,6092 16643,6086 16636,6086 16636,6053 16623,6053 16623,6046 16636,6046 16636,6033 16643,6033 16643,6040 16650,6040 16650,6013 16636,6013 16636,6020 16630,6020 16630,6026 16623,6026 16623,6033 16617,6033 16617,6046 16610,6046 16610,6053 16617,6053 "
   class="fil16"
   style="fill:#4b3c3c" />

   <polygon
   id="polygon57"
   points="15570,5276 15577,5276 15577,5270 15590,5270 15590,5263 15603,5263 15603,5256 15623,5256 15623,5250 15643,5250 15643,5243 15649,5243 15649,5237 15656,5237 15656,5224 15597,5224 15597,5237 15570,5237 15570,5256 15544,5256 15544,5263 15538,5263 15538,5276 15531,5276 15531,5309 15538,5309 15538,5296 15551,5296 15551,5289 15557,5289 15557,5283 15570,5283 "
   class="fil17"
   style="fill:#494448" />

   <polygon
   id="polygon59"
   points="16650,6066 16650,6079 16643,6079 16643,6092 16630,6092 16630,6099 16636,6099 16636,6105 16630,6105 16630,6112 16623,6112 16623,6118 16610,6118 16610,6112 16597,6112 16597,6118 16590,6118 16590,6125 16597,6125 16597,6138 16604,6138 16604,6125 16610,6125 16610,6138 16617,6138 16617,6145 16623,6145 16623,6158 16630,6158 16630,6145 16656,6145 16656,6132 16663,6132 16663,6125 16669,6125 16669,6118 16676,6118 16676,6112 16669,6112 16669,6099 16676,6099 16676,6092 16669,6092 16669,6079 16656,6079 16656,6066 "
   class="fil18"
   style="fill:#755a57" />

   <polygon
   id="polygon61"
   points="16426,5836 16446,5836 16446,5829 16452,5829 16452,5822 16459,5822 16459,5816 16465,5816 16465,5796 16472,5796 16472,5770 16479,5770 16479,5763 16472,5763 16472,5717 16465,5717 16465,5724 16459,5724 16459,5750 16452,5750 16452,5770 16446,5770 16446,5776 16439,5776 16439,5789 16432,5789 16432,5816 16426,5816 "
   class="fil19"
   style="fill:#1a1414" />

   <polygon
   id="polygon63"
   points="16525,6020 16531,6020 16531,6026 16518,6026 16518,6040 16511,6040 16511,6053 16518,6053 16518,6059 16505,6059 16505,6066 16479,6066 16479,6079 16485,6079 16485,6086 16472,6086 16472,6099 16492,6099 16492,6092 16518,6092 16518,6079 16505,6079 16505,6072 16531,6072 16531,6066 16525,6066 16525,6053 16538,6053 16538,6040 16551,6040 16551,6033 16557,6033 16557,6000 16551,6000 16551,6007 16544,6007 16544,6013 16531,6013 16531,6007 16525,6007 "
   class="fil20"
   style="fill:#141214" />

   <polygon
   id="polygon65"
   points="17341,5638 17387,5638 17387,5645 17406,5645 17406,5638 17420,5638 17420,5632 17426,5632 17426,5625 17439,5625 17439,5618 17433,5618 17433,5612 17413,5612 17413,5605 17400,5605 17400,5592 17380,5592 17380,5605 17360,5605 17360,5612 17373,5612 17373,5618 17354,5618 17354,5625 17360,5625 17360,5632 17341,5632 "
   class="fil21"
   style="fill:#443a3c" />

   <polygon
   id="polygon67"
   points="16847,5250 16860,5250 16860,5237 16873,5237 16873,5230 16880,5230 16880,5204 16887,5204 16887,5197 16893,5197 16893,5191 16900,5191 16900,5184 16906,5184 16906,5177 16919,5177 16919,5171 16926,5171 16926,5164 16933,5164 16933,5158 16939,5158 16939,5151 16946,5151 16946,5145 16965,5145 16965,5138 16972,5138 16972,5131 16985,5131 16985,5125 16992,5125 16992,5118 16965,5118 16965,5125 16959,5125 16959,5131 16952,5131 16952,5138 16933,5138 16933,5151 16926,5151 16926,5158 16906,5158 16906,5171 16900,5171 16900,5177 16880,5177 16880,5184 16873,5184 16873,5210 16860,5210 16860,5224 16854,5224 16854,5237 16847,5237 "
   class="fil22"
   style="fill:#b4b3b4" />

   <polygon
   id="polygon69"
   points="16051,5500 16064,5500 16064,5474 16084,5474 16084,5460 16077,5460 16077,5454 16064,5454 16064,5441 16057,5441 16057,5434 16038,5434 16038,5441 16024,5441 16024,5454 16011,5454 16011,5460 16018,5460 16018,5474 16044,5474 16044,5487 16057,5487 16057,5493 16051,5493 "
   class="fil23"
   style="fill:#543a38" />

   <polygon
   id="polygon71"
   points="16604,6151 16604,6138 16597,6138 16597,6125 16590,6125 16590,6112 16577,6112 16577,6118 16571,6118 16571,6125 16557,6125 16557,6158 16564,6158 16564,6165 16544,6165 16544,6178 16584,6178 16584,6171 16577,6171 16577,6158 16584,6158 16584,6151 "
   class="fil24"
   style="fill:#786558" />

   <polygon
   id="polygon73"
   points="16571,6118 16544,6118 16544,6125 16531,6125 16531,6118 16525,6118 16525,6112 16511,6112 16511,6118 16518,6118 16518,6132 16538,6132 16538,6138 16525,6138 16525,6145 16518,6145 16518,6151 16511,6151 16511,6158 16518,6158 16518,6165 16525,6165 16525,6171 16538,6171 16538,6184 16544,6184 16544,6165 16564,6165 16564,6158 16557,6158 16557,6125 16571,6125 "
   class="fil9"
   style="fill:#493736" />

   <polygon
   id="polygon75"
   points="15978,6138 15978,6132 15952,6132 15952,6125 15939,6125 15939,6118 15926,6118 15926,6112 15913,6112 15913,6105 15899,6105 15899,6118 15886,6118 15886,6125 15899,6125 15899,6132 15913,6132 15913,6138 15932,6138 15932,6145 15939,6145 15939,6151 15946,6151 15946,6158 15965,6158 15965,6151 15959,6151 15959,6145 15965,6145 15965,6138 "
   class="fil25"
   style="fill:#57443a" />

   <polygon
   id="polygon77"
   points="15347,5381 15340,5381 15340,5480 15353,5480 15353,5414 15360,5414 15360,5349 15353,5349 15353,5375 15347,5375 "
   class="fil26"
   style="fill:#535353" />

   <polygon
   id="polygon79"
   points="16031,6158 16031,6165 16051,6165 16051,6171 16057,6171 16057,6178 16064,6178 16064,6184 16057,6184 16057,6191 16064,6191 16064,6197 16090,6197 16090,6191 16084,6191 16084,6184 16097,6184 16097,6178 16110,6178 16110,6171 16103,6171 16103,6165 16071,6165 16071,6158 16051,6158 16051,6151 16044,6151 16044,6158 "
   class="fil16"
   style="fill:#4b3c3c" />

   <polygon
   id="polygon81"
   points="15899,6099 15899,6092 15873,6092 15873,6086 15867,6086 15867,6079 15847,6079 15847,6086 15840,6086 15840,6092 15853,6092 15853,6099 15860,6099 15860,6105 15867,6105 15867,6112 15880,6112 15880,6118 15899,6118 15899,6105 15913,6105 15913,6099 "
   class="fil27"
   style="fill:#332c33" />

   <polygon
   id="polygon83"
   points="16913,5184 16933,5184 16933,5177 16939,5177 16939,5171 16946,5171 16946,5164 16952,5164 16952,5158 16959,5158 16959,5151 16965,5151 16965,5145 16946,5145 16946,5151 16939,5151 16939,5158 16933,5158 16933,5164 16926,5164 16926,5171 16919,5171 16919,5177 16906,5177 16906,5184 16900,5184 16900,5191 16893,5191 16893,5197 16887,5197 16887,5204 16880,5204 16880,5224 16887,5224 16887,5210 16893,5210 16893,5204 16906,5204 16906,5197 16913,5197 "
   class="fil28"
   style="fill:#58554c" />

   <polygon
   id="polygon85"
   points="16294,6204 16301,6204 16301,6224 16307,6224 16307,6237 16314,6237 16314,6230 16321,6230 16321,6204 16307,6204 16307,6197 16288,6197 16288,6204 16255,6204 16255,6237 16261,6237 16261,6224 16275,6224 16275,6211 16288,6211 16288,6217 16294,6217 "
   class="fil10"
   style="fill:#564847" />

   <polygon
   id="polygon87"
   points="15992,6151 15992,6138 15965,6138 15965,6145 15959,6145 15959,6151 15965,6151 15965,6158 15959,6158 15959,6165 15972,6165 15972,6178 15978,6178 15978,6165 15992,6165 15992,6171 16005,6171 16005,6165 16011,6165 16011,6158 15998,6158 15998,6151 "
   class="fil29"
   style="fill:#8c6f6b" />

   <polygon
   id="polygon89"
   points="16426,6230 16465,6230 16465,6224 16452,6224 16452,6217 16459,6217 16459,6197 16452,6197 16452,6204 16419,6204 16419,6224 16426,6224 "
   class="fil30"
   style="fill:#8b6b52" />

   <polygon
   id="polygon91"
   points="16913,5776 16913,5757 16906,5757 16906,5737 16887,5737 16887,5730 16880,5730 16880,5763 16893,5763 16893,5770 16900,5770 16900,5776 "
   class="fil19"
   style="fill:#1a1414" />

   <polygon
   id="polygon93"
   points="16584,6151 16584,6158 16577,6158 16577,6171 16590,6171 16590,6165 16610,6165 16610,6158 16623,6158 16623,6145 16617,6145 16617,6138 16610,6138 16610,6125 16604,6125 16604,6151 "
   class="fil31"
   style="fill:#483b46" />

   <polygon
   id="polygon95"
   points="17696,5750 17722,5750 17722,5743 17729,5743 17729,5717 17716,5717 17716,5724 17709,5724 17709,5730 17702,5730 17702,5743 17696,5743 "
   class="fil32"
   style="fill:#918c90" />

   <polygon
   id="polygon97"
   points="17452,5546 17446,5546 17446,5559 17433,5559 17433,5579 17446,5579 17446,5572 17452,5572 17452,5566 17459,5566 17459,5553 17466,5553 17466,5539 17452,5539 "
   class="fil33"
   style="fill:#67554a" />

   <polygon
   id="polygon99"
   points="16090,6243 16090,6250 16117,6250 16117,6230 16110,6230 16110,6224 16103,6224 16103,6217 16097,6217 16097,6224 16090,6224 16090,6237 16103,6237 16103,6243 "
   class="fil34"
   style="fill:#ab948f" />

   <polygon
   id="polygon101"
   points="16511,6197 16498,6197 16498,6191 16485,6191 16485,6197 16479,6197 16479,6217 16472,6217 16472,6224 16485,6224 16485,6217 16492,6217 16492,6211 16498,6211 16498,6204 16511,6204 "
   class="fil32"
   style="fill:#918c90" />

   <polygon
   id="polygon103"
   points="15478,5138 15459,5138 15459,5145 15465,5145 15465,5151 15478,5151 15478,5158 15472,5158 15472,5164 15491,5164 15491,5158 15498,5158 15498,5151 15491,5151 15491,5145 15478,5145 "
   class="fil35"
   style="fill:#3a444e" />

   <polygon
   id="polygon105"
   points="15748,5428 15768,5428 15768,5421 15774,5421 15774,5401 15768,5401 15768,5395 15761,5395 15761,5408 15755,5408 15755,5421 15748,5421 "
   class="fil24"
   style="fill:#786558" />

   <polygon
   id="polygon107"
   points="17433,5612 17433,5605 17439,5605 17439,5592 17413,5592 17413,5612 "
   class="fil15"
   style="fill:#685957" />

   <polygon
   id="polygon109"
   points="17380,5289 17380,5296 17400,5296 17400,5289 17387,5289 17387,5283 17380,5283 17380,5276 17373,5276 17373,5289 "
   class="fil36"
   style="fill:#af8e72" />

   <polygon
   id="polygon111"
   points="17413,5309 17413,5296 17400,5296 17400,5303 17406,5303 17406,5309 "
   class="fil37"
   style="fill:#d69f6c" />

  </g>

 </g>
    </g>
  </g>
</svg>
