<?xml version="1.0" encoding="UTF-8"?>
<!DOCTYPE svg PUBLIC "-//W3C//DTD SVG 1.1//EN" "http://www.w3.org/Graphics/SVG/1.1/DTD/svg11.dtd">
<!-- Creator: CorelDRAW X8 -->
<svg xmlns="http://www.w3.org/2000/svg" xml:space="preserve" width="210mm" height="297mm" version="1.1" style="shape-rendering:geometricPrecision; text-rendering:geometricPrecision; image-rendering:optimizeQuality; fill-rule:evenodd; clip-rule:evenodd"
viewBox="0 0 21000 29700"
 xmlns:xlink="http://www.w3.org/1999/xlink">
 <defs>
  <style type="text/css">
   <![CDATA[
    .fil36 {fill:#3C2D3B}
    .fil50 {fill:#443443}
    .fil9 {fill:#453A44}
    .fil10 {fill:#4D424C}
    .fil2 {fill:#523D4B}
    .fil13 {fill:#53434D}
    .fil6 {fill:#554A54}
    .fil4 {fill:#5B4B54}
    .fil24 {fill:#5B4C5B}
    .fil5 {fill:#5D525C}
    .fil45 {fill:#63535C}
    .fil3 {fill:#635563}
    .fil22 {fill:#665868}
    .fil31 {fill:#69565A}
    .fil27 {fill:#6B5D6B}
    .fil20 {fill:#6C616C}
    .fil41 {fill:#73646C}
    .fil14 {fill:#736572}
    .fil38 {fill:#756A73}
    .fil28 {fill:#7A7276}
    .fil18 {fill:#7B6C74}
    .fil23 {fill:#7B737B}
    .fil8 {fill:#867986}
    .fil37 {fill:#8B828A}
    .fil44 {fill:#908A95}
    .fil51 {fill:#9996A7}
    .fil34 {fill:#9A939A}
    .fil29 {fill:#A59AA6}
    .fil48 {fill:#A89699}
    .fil49 {fill:#A8A7B7}
    .fil52 {fill:#ABA3AA}
    .fil33 {fill:#AD9CAB}
    .fil26 {fill:#C5BCC5}
    .fil42 {fill:#C9C4CA}
    .fil30 {fill:#D4CCD5}
    .fil21 {fill:#D5C5BA}
    .fil47 {fill:#D5DAE5}
    .fil35 {fill:#D8D4D7}
    .fil32 {fill:#DBD2CB}
    .fil11 {fill:#E2DDDC}
    .fil39 {fill:#E3DDE2}
    .fil25 {fill:#E5E0DE}
    .fil15 {fill:#E5E2E4}
    .fil43 {fill:#EAE6EA}
    .fil16 {fill:#F0EBE9}
    .fil17 {fill:#F1EDEA}
    .fil7 {fill:#F2EEED}
    .fil46 {fill:whitesmoke}
    .fil40 {fill:#F7F7F7}
    .fil12 {fill:#FAFAFA}
    .fil19 {fill:#FDFDFD}
    .fil1 {fill:#FEFEFD}
    .fil0 {fill:white}
   ]]>
  </style>
 </defs>
 <g id="Ebene_x0020_1">
  <metadata id="CorelCorpID_0Corel-Layer"/>
  <g id="_1602465060304">
   <path class="fil0" d="M5877 1145c-22,25 -14,18 -42,26 0,80 -5,163 -9,248l13 360c3,42 13,62 16,103 6,60 -18,168 -49,204l-55 49c-45,21 -79,5 -124,28 -37,20 -55,25 -109,26 -104,3 -248,-31 -341,-25 -38,3 -92,11 -118,6 -101,-19 -467,-22 -577,9 -165,48 -481,24 -587,58 -65,20 -129,-2 -202,9 -44,6 -40,23 -103,22 -24,0 -37,-4 -57,-7 -33,-5 -33,-10 -57,-12 -41,-5 -75,9 -100,-22 -17,-22 21,-26 -30,-28 -27,-2 -12,14 -47,-7 -53,-32 -16,-42 -77,-46 -4,-33 -11,-33 -15,-77 -4,-12 0,-1 -7,-15 -3,-7 -4,-9 -11,-24l-25 2c-19,-28 -12,-44 -11,-89 -25,-57 1,-49 6,-117l6 -416 7 -284 -6 -5c-71,1 -54,-14 -107,-19 -26,-3 -100,4 -140,3l-84 6c-16,19 -14,14 -21,39 0,0 -16,51 -23,38 -1,-1 -4,3 -6,4 9,130 2,250 14,378 34,358 74,702 91,1068 5,114 53,1386 67,1465 -6,107 15,398 14,557l13 881 3 122c-11,110 -6,255 -6,368 0,57 -2,115 -4,169 -2,47 -11,130 -9,160 -1,63 7,143 12,208 23,298 36,717 47,1017 4,91 27,348 10,419 11,13 7,-1 12,21l29 1417 4 123 -13 737c-12,188 -13,568 -16,774 -5,271 -21,486 -33,748 -11,251 -27,517 -32,765 -4,139 -21,627 -11,763l11 49 35 -5c2,2 5,4 7,6 1,1 4,3 6,5 35,28 8,22 79,22 36,9 122,21 153,3 197,-6 31,-18 177,19 100,26 107,-17 169,-8 -45,15 -94,53 -137,51 -60,-3 -56,-42 -156,-25 -34,17 -125,15 -170,13 -130,-6 -41,0 -180,22l5 970c-10,9 -13,12 -24,29l17 505c1,19 3,18 3,30l4 207c8,429 42,937 51,1342l15 411c2,23 -1,86 0,127 4,178 15,374 11,544l-2 258c19,272 -22,777 -15,1050 5,226 -14,605 -22,832 -6,161 -78,1441 -65,1580 6,65 0,192 -2,272l-2 567c-1,319 3,500 -22,832l13 10c42,40 3,-21 14,18 -5,202 -11,424 -11,614 0,204 -16,403 -21,605 -3,100 -13,198 -18,293 -28,489 -45,984 -49,1475 -2,382 9,814 -12,1190 -8,144 -44,457 -23,573 27,-5 22,-2 48,-15 45,-22 30,-8 43,0 -19,30 -44,44 -96,43l-4 79 111 68c34,17 82,31 115,54 29,20 72,49 110,59 46,12 99,7 128,48 -135,26 -349,-162 -470,-169l-7 139c1,1 3,1 4,2l10 3c44,18 11,22 73,80 109,101 306,56 441,25 35,-16 75,-34 127,-36 15,-72 128,12 197,-39 -2,-1 -4,-5 -5,-3l-33 -22c-17,-13 -17,-16 -43,-24 -71,-21 -9,-12 -89,-51 -61,-30 -129,-71 -148,-132 53,3 63,48 165,104l95 47c54,20 27,37 96,48l8 17 19 17c43,-2 101,-7 143,-19 29,-9 82,-5 124,-5l290 -18c94,-10 203,-29 299,-38 169,-17 530,-93 719,-122 45,-7 98,-20 146,-26 48,-6 112,-11 161,-10 44,0 101,-9 152,-17 275,-45 484,-27 745,-58 53,-7 89,-13 153,-18 101,-6 222,-24 320,-14 147,15 753,20 927,20l236 9c43,3 40,10 67,15 24,4 65,-3 72,-1 30,6 -11,4 23,10l94 4c5,0 28,1 29,1 25,-3 -10,2 27,-10 28,12 41,19 85,16 60,-5 36,22 172,3 25,-3 78,-11 93,10 95,-12 306,14 405,18 69,2 147,2 199,5 59,3 135,17 170,-3l38 6c2,-2 4,-4 5,-5 1,-1 3,-4 5,-5l19 -11c24,-7 20,-3 40,-4l16 29c53,-7 142,-1 199,-2 186,-3 434,3 595,-6 356,-19 412,-7 754,16 245,16 513,27 749,35 130,4 248,-5 373,13 113,16 252,15 373,21l379 28c116,10 248,21 350,26 263,15 488,43 744,65 108,9 250,37 360,40l1072 131c45,-10 331,-1 403,-5 29,28 18,3 76,2 18,0 36,7 66,7 76,2 188,-13 255,8 26,8 101,18 132,15 25,25 1,10 29,15l45 20 -3 29 5 0c1,-3 4,-10 5,-9 0,0 14,-8 17,-46 2,2 7,2 8,6l23 4c22,-6 -8,0 18,-5l62 -11c32,-1 4,7 39,-3 -36,13 -6,-1 -18,-18 47,-4 14,-7 69,-19 32,-8 51,-15 75,1l-18 -37c47,-8 39,-14 108,15 26,10 11,3 27,17 -17,19 3,7 -25,16 -59,22 -181,58 -223,85l96 12c49,-6 113,9 156,12 49,4 86,-1 138,8 94,15 210,28 312,16l22 -159c0,1 1,2 0,4 -2,23 -36,31 -51,34 -9,-12 -18,-33 -22,-45l-12 154c-43,-44 3,-29 -31,-143 31,-11 14,11 25,-28 27,6 47,14 60,19 15,-22 15,-22 35,-32 -58,2 -142,15 -184,-11 22,-14 68,1 101,0 47,0 74,-3 114,-10 3,-10 6,-21 19,-34 42,19 -1,6 38,30 79,-6 150,-29 213,-47 -21,58 -37,39 -173,64 -30,6 -13,-8 -59,3 -19,57 -22,134 -23,199l51 -3c34,-2 47,-9 67,-10 14,-1 41,3 57,5 34,4 50,0 89,-21l4 -25c-1,-21 -2,-19 4,-33 8,-19 5,-6 14,-17 12,-21 10,-18 13,-40 0,-2 1,-15 2,-17 0,-1 3,-11 3,-14 -27,-22 1,14 -19,-17 -15,-24 -1,0 -8,-21l27 -8 0 -20 -8 -19c-33,-7 -7,-14 -43,-31 -15,-7 -21,-5 -37,-12 -27,-12 -10,-10 -29,-18 -42,-17 -110,20 -139,18 0,0 -50,-8 24,-50 37,-21 167,-42 206,-30l19 5c-6,-21 -3,-16 -5,-31l0 -11c-5,-35 -12,-123 -3,-158 18,-67 -2,-64 20,-81 -12,-80 -12,-177 -20,-253 -13,-10 -3,-8 -26,-14l29 -11c-9,-188 -14,-430 -13,-636 -27,4 -10,-3 -29,8l0 -47c-1,0 -3,-1 -4,-1l-8 -4c0,0 -4,0 -4,-2 0,-2 -3,-1 -4,-2l17 -22c11,-24 9,-56 9,-79 -18,-13 -13,-12 -44,-13 -1,-37 3,-22 -9,-47 23,-23 19,-21 12,-61 -8,-55 17,-7 -3,-130 -1,-5 13,-287 -11,-329 2,0 4,-1 4,-2 1,0 4,-1 4,-2 1,0 3,-1 3,-2 1,0 3,0 3,-1 0,-1 2,-1 4,-2l-7 -65c-37,6 -11,10 -39,-1l0 -29c2,-1 5,-2 6,-3 68,-40 27,-67 3,-100l31 -63c20,-24 29,-2 32,-53l-8 -244c1,-114 -2,-238 2,-349 -23,-5 -10,-7 -28,-1 0,-6 0,-21 1,-27 2,-17 4,-12 8,-20l-29 2 4 -33c3,-21 0,-14 24,-35 -8,-80 -6,-33 -54,-104l9 -10c18,-25 -4,-172 2,-206 18,-106 -9,-48 3,-91 15,-50 33,-24 -6,-61 27,-36 0,-169 2,-216 26,8 12,-17 18,18 7,-44 -5,-20 22,-38 9,-63 -9,-355 -16,-433 -19,-205 -31,-702 -36,-900l11 -1597c4,-86 -3,-125 -5,-205 -3,-149 0,-311 0,-456 -20,-7 -6,-8 -25,-1l3 -57 -29 20c-2,-60 10,-38 -2,-86 36,16 19,7 28,1l0 -38c-29,-24 -33,-6 -42,-35 -11,-36 1,-24 14,-50 -7,-62 -15,0 -13,-43 2,-27 8,-29 22,-42 -31,-62 -14,-127 -12,-145 1,-20 -13,-29 -4,-52 24,-62 4,-61 -1,-114 -5,-53 -11,-120 -9,-170 21,6 15,-8 18,18 8,-45 -5,-20 24,-38l-31 -675c-44,-464 -47,-1576 -39,-2030l-15 -9c-34,19 -22,19 -39,-12l43 6c30,-12 12,11 20,-30 -2,-1 -10,-6 -12,-7l-14 -10 -12 -5c-46,37 -99,32 -167,19 -61,-13 -89,-5 -152,-5 -36,19 -58,-7 -89,-19 -34,-13 -58,-10 -81,-39 41,-32 96,29 178,24 109,-34 197,25 299,-8 35,-2 47,6 59,-16 5,-10 4,-19 6,-29 6,-19 5,-10 10,-15l-3 -312 -29 -3c20,-15 29,-14 31,-50 2,-34 -11,-26 -4,-54l13 -548c-34,-23 -23,2 -26,-48 -30,8 -12,7 -26,0 -2,-45 7,-16 -1,-85 38,-21 16,4 34,-28 -18,-18 -14,-15 -43,-19 0,-28 -4,-34 -9,-57 21,-8 17,18 19,-27 2,-40 -4,-1 -5,-28 -1,-36 3,-32 22,-48 -15,-17 -21,-59 -22,-84 -1,-13 7,-38 9,-53 6,-54 -8,11 -3,-41 5,-60 29,-6 13,-83 -9,-44 -1,-68 0,-112 21,-8 6,11 0,-10l-7 -18c25,-4 24,-10 40,-25l-5 -508c-30,-397 -16,-1112 -7,-1514 4,-181 1,-354 10,-529 8,-177 18,-334 29,-501l14 -917c-1,-50 6,-96 -9,-127 21,-49 4,-25 17,-66 5,-18 11,-27 12,-36 2,-11 0,-31 1,-45 5,-70 31,-80 21,-142 -9,-61 6,-1011 7,-1032 4,-118 3,-244 8,-356 7,-127 12,-229 22,-350 8,-91 22,-665 7,-721 -15,-36 -19,-9 -14,-66l-27 20 3 -58c0,-1 0,-4 0,-6l6 -48 18 38 2 -59 -40 -8c2,-2 9,-10 9,-12 1,-1 1,-3 1,-3l-12 -37c1,0 3,-1 4,-1 0,-1 4,-2 6,-3l-8 -88 22 -16c-6,-97 5,-41 -31,-104 29,-30 24,-39 21,-61 -8,-66 2,-29 12,-71 -9,-34 -10,-5 -8,-27 1,-33 4,12 6,-19l-19 -200 34 -28 6 -85c14,-47 4,-270 1,-341 -5,-105 -2,-231 -12,-343 -19,-198 -12,-500 -10,-673l8 -837c-11,-187 11,-277 -2,-500l-28 7c-20,-5 -14,-5 -27,-17 -9,-9 -16,-18 -23,-26 -50,-4 -62,-21 -120,-22 -46,0 -81,7 -123,9 -88,5 -30,18 -111,-18 -54,-24 -70,-10 -88,-46 60,-33 41,24 180,30 32,-26 141,-10 191,-4 54,6 119,2 167,-17 24,-68 27,-291 37,-378 33,-296 55,-450 79,-756 7,-93 15,-257 37,-349 -25,-22 -17,-33 -18,-36l-21 -49c-3,-5 -10,-20 -11,-22 17,-8 6,-4 28,-10 -17,-28 -4,-27 4,-68 5,-28 0,-49 -1,-73 -2,-66 30,-136 8,-224 -13,-53 -6,-10 6,-60 11,-49 14,-105 18,-149l8 -82c41,-150 24,-186 40,-282 3,-21 11,-52 13,-71 10,-107 -15,-104 -26,-122 16,-16 17,-12 35,-34 14,-11 8,14 9,-31 1,-13 -1,-34 -1,-48 -1,-27 -2,-55 -3,-81 -18,-89 -12,-171 -40,-260 -10,-30 -8,-27 -15,-64 -9,-52 -47,-132 -48,-161 -12,-10 -9,7 -25,-27 -7,-14 -4,-16 -9,-29 -10,-25 -15,-21 -27,-59 -21,-13 -14,-24 -66,-66 -49,-41 -80,-49 -170,-65 -120,-22 -224,-24 -342,-36 -172,-17 -525,-50 -695,-28 -208,1 -412,29 -626,36l-640 -16c-1,-3 -5,-3 -7,-4 -111,10 -428,-32 -563,-39 -193,-10 -389,-32 -589,-21 -51,3 -104,0 -139,1l-453 17c-386,15 -845,-5 -1223,16 -101,6 -207,5 -308,4 -95,-1 -204,17 -283,17 -193,0 -384,14 -587,12 -207,-3 -389,1 -586,14 -295,18 -874,-6 -1200,-13 -381,-9 -815,-21 -1191,-1 -192,10 -390,15 -589,7 -205,-7 -415,1 -620,-7 -404,-16 -481,-32 -873,9 -54,6 -226,19 -261,31z"/>
   <path class="fil1" d="M3206 1448l-13 425c-6,56 20,95 14,141l15 8c57,49 67,39 85,72 49,-3 133,37 188,52 181,47 446,-11 690,-25 152,-8 310,-36 463,-38 90,-1 421,-25 466,-9 0,-14 92,-13 111,-13 53,-2 59,-22 110,-13 98,18 100,37 223,33 42,-13 75,-3 108,-32 99,-85 65,-206 59,-308 -11,-178 0,-360 0,-539 0,-175 54,-333 27,-500 -44,-273 -416,-129 -593,-139 -255,-14 -539,-22 -787,-17 -162,3 -340,17 -497,-17 -37,-8 -82,-21 -116,-27l-351 -29 -19 26c-68,-59 -141,24 -160,87 -25,85 -17,183 -20,276l-4 293c4,97 -12,196 1,293z"/>
   <path class="fil2" d="M5585 660c-44,-33 -187,-21 -256,-15 -67,6 -592,-56 -853,-24 -110,14 -609,5 -729,-20 -43,-9 -89,-19 -133,-19 -80,-1 -179,-3 -261,-2 -40,52 -72,104 -64,187 7,74 5,142 12,221 9,104 -4,145 33,225 71,152 268,107 388,112l473 8c73,5 110,8 186,6 116,-3 364,-7 460,-30 93,-23 269,-23 349,-33 30,-4 64,-19 100,-20 201,-6 303,117 325,-159 12,-143 63,-187 -15,-409 -11,-32 -6,-15 -15,-28z"/>
   <path class="fil1" d="M5555 682c-84,-33 -199,3 -362,-25 -54,-9 -95,-7 -148,-6 -100,2 -149,-26 -255,-18 -96,6 -186,1 -284,8 -171,13 -384,21 -554,0 -45,-5 -90,-6 -136,-6 -55,-1 -81,-12 -132,-18l-283 -9c-68,24 -81,96 -79,159 4,100 7,367 45,440 27,50 131,86 157,87l463 6c43,2 79,-5 123,-3l218 12c41,-2 81,-3 122,-5 75,-3 145,-3 227,-4 81,-2 139,-26 217,-35 36,-5 67,1 105,-4l321 -37c135,-2 113,18 179,21 83,2 75,-88 82,-157 8,-77 34,-140 27,-216 -3,-38 -38,-165 -53,-190z"/>
   <path class="fil3" d="M17642 17259l-4 6 15 9c-8,454 -5,1566 39,2030l31 675c2,142 17,277 20,416 4,138 3,280 8,416 0,145 -3,307 0,456 2,80 9,119 5,205l-11 1597c5,198 17,695 36,900 7,78 25,370 16,433 3,128 17,264 18,397 1,134 0,291 6,425 -4,111 -1,235 -2,349l8 244c-3,51 -12,29 -32,53 6,-12 0,-1 18,-6l17 22c-2,164 1,351 14,504 14,168 5,309 17,479 -1,206 4,448 13,636l-29 11c23,6 13,4 26,14 8,76 8,173 20,253l4 255c-11,41 -8,16 -16,26l-19 -5c3,2 8,1 9,6 16,44 3,-14 30,22l-22 13c14,21 12,16 21,36 -10,14 -4,3 -29,11 16,24 -2,3 15,18 9,8 14,10 22,17l-28 0 8 19 0 20 4 17 -4 29c0,3 -3,13 -3,14 -1,2 -2,15 -2,17 -3,22 -1,19 -13,40 3,3 27,-14 10,29 -11,24 -5,9 -28,21l-4 25c-39,21 -55,25 -89,21 -16,-2 -43,-6 -57,-5 -20,1 -33,8 -67,10l-51 3 -25 7 -47 -5c-102,12 -218,-1 -312,-16 -52,-9 -89,-4 -138,-8 -43,-3 -107,-18 -156,-12l-119 -5 11 -37c-27,13 -43,21 -77,19 -36,-2 -41,10 -78,15l-5 0c-143,3 -651,-32 -767,-54 -48,-10 -211,-16 -236,-37l-1072 -131c-110,-3 -252,-31 -360,-40 -256,-22 -481,-50 -744,-65 -102,-5 -234,-16 -350,-26l-379 -28c-121,-6 -260,-5 -373,-21 -125,-18 -243,-9 -373,-13 -236,-8 -504,-19 -749,-35 -342,-23 -398,-35 -754,-16 -161,9 -409,3 -595,6 -57,1 -146,-5 -199,2 -22,1 -46,4 -67,5 -9,0 -16,2 -28,0 -39,-7 -16,-4 -28,-15 -35,20 -111,6 -170,3 -52,-3 -130,-3 -199,-5 -99,-4 -310,-30 -405,-18 -30,11 -89,12 -99,5 9,7 3,6 12,21 94,-11 426,14 543,22 174,11 810,3 852,8 132,17 141,-9 237,0 90,10 362,-30 522,-10 0,-10 115,1 115,1 21,5 9,-3 21,10 83,-14 303,13 405,15l378 15c23,6 8,2 21,15 27,-9 41,-8 73,-4 78,9 4,23 73,8 44,-10 56,3 135,-7 13,15 5,-1 16,24 32,-43 55,4 107,1 56,-4 -11,-26 114,-17 248,18 553,29 793,52 142,14 957,72 1068,94 30,4 58,4 86,7 11,1 28,1 38,3 37,4 20,-1 34,12 123,-12 1148,130 1289,157 66,13 146,12 210,24 342,66 974,60 1349,82 114,6 263,52 437,22 83,-14 138,-5 226,-4 75,-116 56,17 91,-279 5,-46 -3,-124 -5,-168 -1,-63 -3,-126 -5,-189 -5,-235 -19,-480 -25,-710 -6,-234 -12,-464 -18,-698l-22 -794c-1,-31 6,-71 5,-82l-9 -78c-4,-237 5,-576 -9,-788 -8,-115 -16,-242 -17,-356 -1,-39 5,-147 3,-163l-35 -517c-5,-237 -26,-498 -21,-728 11,-483 -26,-946 13,-1427 20,-238 -19,-456 -3,-699 8,-118 -28,-711 -33,-893 -1,-54 3,-138 0,-173 -62,-755 -57,-1387 -71,-2138 -2,-131 6,-240 11,-365 -19,-8 -27,-11 -57,-11l14 10c2,1 10,6 12,7 -8,41 10,18 -20,30z"/>
   <path class="fil4" d="M18028 2656c-6,94 -31,228 -39,324 -8,99 -15,225 -25,339 -22,92 -30,256 -37,349 -24,306 -46,460 -79,756 -10,87 -13,310 -37,378 -48,19 -113,23 -167,17 -50,-6 -159,-22 -191,4l-8 17c53,0 8,-3 27,17 42,-2 77,-9 123,-9 58,1 70,18 120,22 0,-15 -3,-10 12,-11l82 -4c-8,43 2,21 -15,37l-1 14c13,223 -9,313 2,500l-8 837c-2,173 -9,475 10,673 10,112 7,238 12,343 3,71 13,294 -1,341 18,12 6,-9 10,27l11 681c0,41 -2,82 -2,123 0,17 4,111 -10,111 15,56 1,630 -7,721 -10,121 -15,223 -22,350 -5,112 -4,238 -8,356 -1,21 -16,971 -7,1032 10,62 -16,72 -21,142 -1,14 1,34 -1,45 -1,9 -7,18 -12,36 -13,41 4,17 -17,66 15,31 8,77 9,127l-14 917c-11,167 -21,324 -29,501 -9,175 -6,348 -10,529 -9,402 -23,1117 7,1514l5 508c10,128 5,251 9,378 3,130 -8,262 -4,388l-13 548c-7,28 6,20 4,54 -2,36 -11,35 -31,50l29 3 3 312 14 3c31,-9 8,-2 18,-16 7,-264 2,-514 1,-765 -1,-231 19,-479 11,-737 -3,-117 -12,-250 -9,-369 1,-52 7,-160 6,-182 -2,-50 -10,-125 -11,-186 -1,-262 -25,-518 -16,-785l6 -470c17,-274 1,-986 35,-1206 10,-62 16,-112 15,-176 -1,-237 5,-461 5,-700 1,-144 2,-264 29,-401 5,-26 15,-49 21,-74 7,-29 -9,-125 -7,-176 7,-199 -9,-497 -1,-691 2,-53 12,-113 11,-158l10 -531c14,-296 44,-307 27,-661 -6,-119 6,-239 9,-350l-9 -661c-4,-95 -14,-280 -1,-367 5,-37 -5,-115 -8,-155l-21 -528c-12,-406 2,-855 4,-1266 0,-29 4,-66 4,-84 0,-27 -7,-54 -7,-86 0,-118 -2,-241 0,-359 2,-68 16,-93 25,-154 6,-41 3,-126 10,-181 51,-435 85,-894 135,-1319l61 -670c-12,-35 -17,-23 -6,-29 -4,54 4,8 -20,27z"/>
   <path class="fil5" d="M2926 14507l7 260c9,80 -9,69 -14,76 12,32 18,151 19,184l-1 114c1,42 9,86 9,132 5,348 35,671 44,1013 5,174 3,360 15,512l-2 67c1,31 -1,21 1,53l1 57c2,21 -2,50 -2,67l17 809c-1,51 -23,90 -3,134 -2,2 -4,3 -5,6l-11 16c1,3 3,3 3,8l6 26c18,111 11,441 6,549 -4,113 -11,218 -13,331 -6,331 1,613 -24,955l-25 472c2,37 0,116 -4,144 -38,208 -33,1918 -38,2256 -1,77 -9,238 -20,309 15,24 0,2 12,15 1,1 4,3 5,4 2,2 4,5 6,6 10,11 -7,293 -6,337l-11 652c-6,101 -19,221 -19,321 -1,174 -24,317 -21,477l-33 771c-8,444 -3,894 -8,1336 -2,194 -21,408 -28,620l-24 567c-2,42 -10,46 12,73 35,-14 12,2 26,-34 35,59 130,106 210,111 98,7 207,-24 305,-28l-2 -6 6 -25c-135,31 -332,76 -441,-25 -62,-58 -29,-62 -73,-80l-10 -3c-1,-1 -3,-1 -4,-2l7 -139c121,7 335,195 470,169 -29,-41 -82,-36 -128,-48 -38,-10 -81,-39 -110,-59 -33,-23 -81,-37 -115,-54l-111 -68 4 -79c52,1 77,-13 96,-43 -13,-8 2,-22 -43,0 -26,13 -21,10 -48,15 -21,-116 15,-429 23,-573 21,-376 10,-808 12,-1190 4,-491 21,-986 49,-1475 5,-95 15,-193 18,-293 5,-202 21,-401 21,-605 0,-190 6,-412 11,-614 -11,-39 28,22 -14,-18l-13 -10c25,-332 21,-513 22,-832l2 -567c2,-80 8,-207 2,-272 -13,-139 59,-1419 65,-1580 8,-227 27,-606 22,-832 -7,-273 34,-778 15,-1050l2 -258c4,-170 -7,-366 -11,-544 -1,-41 2,-104 0,-127l-15 -411c-9,-405 -43,-913 -51,-1342l-4 -207c0,-12 -2,-11 -3,-30l-17 -505c-20,0 -4,-3 -26,4z"/>
   <path class="fil6" d="M13586 1018c-17,13 7,6 -23,9 -13,1 -25,-1 -40,0 -44,2 -47,4 -90,0 -108,-10 -1770,42 -1889,47 -318,16 -608,-1 -923,17 -156,9 -816,9 -964,-2 -623,-46 -1294,2 -1919,-2 -159,-1 -314,-3 -472,-5 -245,-2 -704,-25 -916,-15 -89,5 -388,48 -445,27 -12,9 1,6 -19,12 -8,2 -13,1 -20,1 -18,24 22,16 -16,19 40,0 -1,-5 17,19l10 0c35,-12 207,-25 261,-31 392,-41 469,-25 873,-9 205,8 415,0 620,7 199,8 397,3 589,-7 376,-20 810,-8 1191,1 326,7 905,31 1200,13 197,-13 379,-17 586,-14 203,2 394,-12 587,-12 79,0 188,-18 283,-17 101,1 207,2 308,-4 378,-21 837,-1 1223,-16l453 -17c35,-1 88,2 139,-1 200,-11 396,11 589,21 135,7 452,49 563,39 52,-8 47,-6 99,1 -18,-3 -18,-11 -29,-20 -134,-21 -308,-12 -452,-31 -147,-20 -305,-19 -459,-32 -347,-30 -648,28 -915,2z"/>
   <path class="fil7" d="M5766 1174c-21,72 -8,427 -7,529 2,122 10,72 21,115 16,64 -22,262 -130,269 -11,9 0,5 -20,13 -81,31 -315,1 -387,-1 -47,-1 -68,10 -114,4 -221,-29 -1175,71 -1447,95 -97,9 -349,-54 -419,-96l-56 -33c4,44 11,44 15,77 61,4 24,14 77,46 35,21 20,5 47,7 51,2 13,6 30,28 25,31 59,17 100,22 24,2 24,7 57,12 20,3 33,7 57,7 63,1 59,-16 103,-22 73,-11 137,11 202,-9 106,-34 422,-10 587,-58 110,-31 476,-28 577,-9 26,5 80,-3 118,-6 93,-6 237,28 341,25 54,-1 72,-6 109,-26 45,-23 79,-7 124,-28l55 -49c31,-36 55,-144 49,-204 -3,-41 -13,-61 -16,-103l-13 -360c4,-85 9,-168 9,-248 28,-8 20,-1 42,-26l-10 0c-45,4 -70,8 -101,29z"/>
   <path class="fil8" d="M3692 28163l2 51c39,5 112,-19 161,-21 429,-14 787,-70 1212,-138l689 -97c152,-21 354,-43 512,-35 40,2 120,-18 179,-9l7 -22c116,-4 199,-20 305,-23 162,0 321,-3 488,7 152,8 326,15 482,11 377,-8 426,43 699,53 89,4 183,-1 273,-2 -9,-15 -3,-14 -12,-21 10,7 69,6 99,-5 -15,-21 -68,-13 -93,-10 -136,19 -112,-8 -172,-3 -44,3 -57,-4 -85,-16 -37,12 -2,7 -27,10 -1,0 -24,-1 -29,-1l-94 -4c-34,-6 7,-4 -23,-10 -7,-2 -48,5 -72,1 -27,-5 -24,-12 -67,-15l-236 -9c-174,0 -780,-5 -927,-20 -98,-10 -219,8 -320,14 -64,5 -100,11 -153,18 -261,31 -470,13 -745,58 -51,8 -108,17 -152,17 -49,-1 -113,4 -161,10 -48,6 -101,19 -146,26 -189,29 -550,105 -719,122 -96,9 -205,28 -299,38l-290 18c-42,0 -95,-4 -124,5 -42,12 -100,17 -143,19l-19 -17z"/>
   <path class="fil9" d="M3172 1126l-7 284c35,19 1,-2 19,18l22 20c-13,-97 3,-196 -1,-293l4 -293c3,-93 -5,-191 20,-276 19,-63 92,-146 160,-87l19 -26 351 29c34,6 79,19 116,27 157,34 335,20 497,17 248,-5 532,3 787,17 177,10 549,-134 593,139 27,167 -27,325 -27,500 0,179 -11,361 0,539 6,102 40,223 -59,308 -33,29 -66,19 -108,32 11,26 68,10 92,6 108,-7 146,-205 130,-269 -11,-43 -19,7 -21,-115 -1,-102 -14,-457 7,-529l-3 -58c0,-8 -2,-19 1,-27 9,-26 -3,-4 13,-21 -23,-81 61,-298 -9,-427 -78,-144 -185,-149 -376,-123 -318,43 -654,-9 -980,-1 -242,6 -225,15 -482,-6 -70,-6 -139,-34 -212,-40 -223,-18 -482,-110 -528,152 -14,80 -14,156 -15,239 -1,41 5,78 3,122 -1,47 -7,96 -6,142z"/>
   <path class="fil4" d="M2926 14507c22,-7 6,-4 26,-4 11,-17 14,-20 24,-29l-5 -970c139,-22 50,-28 180,-22 45,2 136,4 170,-13l8 -21c-4,-1 -31,-3 -33,-3 -19,-5 -19,-8 -28,-13 -31,18 -117,6 -153,-3 -12,19 -34,6 -64,20l-76 7 0 -29 2 -75c-10,-136 7,-624 11,-763 5,-248 21,-514 32,-765 12,-262 28,-477 33,-748 3,-206 4,-586 16,-774l-27 0 -1 -22 -26 1061c-19,527 -56,995 -64,1532 -2,179 7,439 -11,608l4 195c-3,68 -7,204 0,257 9,60 3,517 -2,542l-16 32z"/>
   <path class="fil10" d="M2920 3943l15 84c4,33 -2,64 3,89 0,-27 -4,-2 19,-13 -14,-79 -62,-1351 -67,-1465 -17,-366 -57,-710 -91,-1068 -12,-128 -5,-248 -14,-378 2,-1 5,-5 6,-4 7,13 23,-38 23,-38 7,-25 5,-20 21,-39l84 -6 19 -7c-4,-2 -8,-6 -10,-7 -2,-2 -7,-3 -9,-9 -2,-7 -6,-8 -10,-11 -146,2 -58,6 -157,86 -8,84 8,255 13,347 5,111 17,230 32,341 30,220 43,457 60,681 18,237 22,473 31,708 9,230 36,479 32,709z"/>
   <path class="fil11" d="M3615 1889c25,-21 42,-38 58,-74 20,-46 15,-61 11,-116 -11,-43 -4,-12 -18,-29 -1,3 -3,6 -4,8l-44 62c-15,23 -25,41 -48,60 -28,-18 -19,-21 -50,-39 -27,-16 -34,-13 -58,-34 30,-91 -8,-32 -7,-100 0,-90 36,-10 -24,-87 -26,9 -6,-3 -35,16 -48,31 -8,25 -69,24 -26,42 -49,66 -33,146 19,97 92,165 175,191 45,14 104,-15 146,-28z"/>
   <path class="fil12" d="M5272 1538c-10,8 -3,4 -19,12 -2,0 -14,3 -17,4l-26 15c-5,76 21,121 73,179l134 15c1,-2 4,-4 5,-5 17,-15 15,-10 58,-14 8,-3 9,3 16,-5 7,-79 16,-88 -14,-162 -68,-50 -72,-74 -195,-63l-15 24z"/>
   <path class="fil13" d="M3307 2094l-38 -9 -6 17c70,42 322,105 419,96 272,-24 1226,-124 1447,-95l-15 -29c-45,-16 -376,8 -466,9 -153,2 -311,30 -463,38 -244,14 -509,72 -690,25 -55,-15 -139,-55 -188,-52z"/>
   <path class="fil14" d="M2938 5588c34,31 4,9 37,17 0,-38 -7,-38 9,-64l-13 -881c1,-159 -20,-450 -14,-557 -23,11 -19,-14 -19,13 -5,-25 1,-56 -3,-89l-15 -84c-1,120 -3,337 9,432l-1 234c14,191 34,873 10,979z"/>
   <path class="fil11" d="M15633 28309c25,21 188,27 236,37 116,22 624,57 767,54l3 -29 -45 -20c-28,-5 -4,10 -29,-15 -31,3 -106,-7 -132,-15 -67,-21 -179,-6 -255,-8 -30,0 -48,-7 -66,-7 -58,1 -47,26 -76,-2 -72,4 -358,-5 -403,5z"/>
   <path class="fil15" d="M5066 1619c-16,137 25,198 145,210 124,13 132,2 227,-37 34,-14 33,-16 42,-48 -43,4 -41,-1 -58,14 -1,1 -4,3 -5,5l-134 -15c-52,-58 -78,-103 -73,-179l26 -15c-12,-8 20,-11 -27,-8l-70 24c-29,15 -46,31 -73,49z"/>
   <path class="fil16" d="M17964 3319c10,-114 17,-240 25,-339 8,-96 33,-230 39,-324 -5,-48 46,-516 34,-585 -4,-23 15,-34 -15,-34 -18,22 -19,18 -35,34 11,18 36,15 26,122 -2,19 -10,50 -13,71 -16,96 1,132 -40,282l-8 82c-4,44 -7,100 -18,149 -12,50 -19,7 -6,60 22,88 -10,158 -8,224 1,24 6,45 1,73 -8,41 -21,40 -4,68 -22,6 -11,2 -28,10 1,2 8,17 11,22l21 49c1,3 -7,14 18,36z"/>
   <path class="fil14" d="M3015 8034c2,37 -1,43 1,84 2,33 2,66 4,98l0 247c-2,41 1,-2 5,32 7,48 -5,8 -4,29 2,31 12,-36 1,74l21 476c5,111 9,304 -9,409 17,31 -33,26 36,25 0,-36 -7,-39 8,-66l-29 -1417c-5,-22 -1,-8 -12,-21l5 39 -27 -9z"/>
   <path class="fil13" d="M3015 8034l27 9 -5 -39c17,-71 -6,-328 -10,-419 -11,-300 -24,-719 -47,-1017 -5,-65 -13,-145 -12,-208l-18 -27c7,-48 -13,-9 24,-44l-30 -1c-7,168 31,650 36,877 5,169 51,762 35,869z"/>
   <path class="fil17" d="M17795 25870l-31 63c24,33 65,60 -3,100 -1,1 -4,2 -6,3l0 29c28,11 2,7 39,1l7 65c-2,1 -4,1 -4,2 0,1 -2,1 -3,1 0,1 -2,2 -3,2 0,1 -3,2 -4,2 0,1 -2,2 -4,2 24,42 10,324 11,329 20,123 -5,75 3,130 7,40 11,38 -12,61 12,25 8,10 9,47 31,1 26,0 44,13 0,23 2,55 -9,79l-17 22c1,1 4,0 4,2 0,2 4,2 4,2l8 4c1,0 3,1 4,1l0 47c19,-11 2,-4 29,-8 -12,-170 -3,-311 -17,-479 -13,-153 -16,-340 -14,-504l-17 -22c-18,5 -12,-6 -18,6z"/>
   <path class="fil13" d="M3655 1903c0,-19 -19,-12 -40,-14 -42,13 -101,42 -146,28 -83,-26 -156,-94 -175,-191 -16,-80 7,-104 33,-146 61,1 21,7 69,-24 29,-19 9,-7 35,-16 38,-29 108,-2 148,22 44,26 67,58 87,108 14,17 7,-14 18,29 23,11 32,12 26,37l16 1c-6,-55 -18,-74 -42,-119 -25,-46 -46,-54 -89,-81 -135,-81 -150,-10 -274,-6 -57,74 -62,32 -67,155 -7,185 235,350 401,217z"/>
   <path class="fil13" d="M16599 1047c3,24 0,8 6,22 1,2 4,8 4,7 1,-2 4,4 6,6 170,-22 523,11 695,28 118,12 222,14 342,36 90,16 121,24 170,65 52,42 45,53 66,66 20,21 21,29 39,16 -46,-98 -129,-141 -229,-166 -117,-29 -234,-32 -360,-43 -157,-13 -607,-56 -739,-37z"/>
   <path class="fil17" d="M17817 8542c14,0 10,-94 10,-111 0,-41 2,-82 2,-123l-11 -681c-4,-36 8,-15 -10,-27l-6 85 -34 28 19 200c-2,31 -5,-14 -6,19 -2,22 -1,-7 8,27 -10,42 -20,5 -12,71 3,22 8,31 -21,61 36,63 25,7 31,104l-22 16 8 88c-2,1 -6,2 -6,3 -1,0 -3,1 -4,1l12 37c0,0 0,2 -1,3 0,2 -7,10 -9,12l40 8 -2 59 -18 -38 -6 48c0,2 0,5 0,6l-3 58 27 -20c-5,57 -1,30 14,66z"/>
   <path class="fil18" d="M15412 1079c11,9 11,17 29,20 -52,-7 -47,-9 -99,-1 2,1 6,1 7,4l640 16c214,-7 418,-35 626,-36 -2,-2 -5,-8 -6,-6 0,1 -3,-5 -4,-7 -6,-14 -3,2 -6,-22 -15,-2 -94,-10 -108,-6 -16,3 -22,12 -48,13l-284 20c-185,9 -351,15 -539,7 -27,8 -130,-4 -208,-2z"/>
   <path class="fil19" d="M3431 1540c60,77 24,-3 24,87 -1,68 37,9 7,100 24,21 31,18 58,34 31,18 22,21 50,39 23,-19 33,-37 48,-60l44 -62c1,-2 3,-5 4,-8 -20,-50 -43,-82 -87,-108 -40,-24 -110,-51 -148,-22z"/>
   <path class="fil7" d="M17751 20811c-5,-136 -4,-278 -8,-416 -3,-139 -18,-274 -20,-416 -29,18 -16,-7 -24,38 -3,-26 3,-12 -18,-18 -2,50 4,117 9,170 5,53 25,52 1,114 -9,23 5,32 4,52 -2,18 -19,83 12,145 -14,13 -20,15 -22,42 -2,43 6,-19 13,43 -13,26 -25,14 -14,50 9,29 13,11 42,35l0 38c-9,6 8,15 -28,-1 12,48 0,26 2,86l29 -20 -3 57c19,-7 5,-6 25,1z"/>
   <path class="fil7" d="M17695 16152c-4,-126 7,-258 4,-388 -4,-127 1,-250 -9,-378 -16,15 -15,21 -40,25l7 18c6,21 21,2 0,10 -1,44 -9,68 0,112 16,77 -8,23 -13,83 -5,52 9,-13 3,41 -2,15 -10,40 -9,53 1,25 7,67 22,84 -19,16 -23,12 -22,48 1,27 7,-12 5,28 -2,45 2,19 -19,27 5,23 9,29 9,57 29,4 25,1 43,19 -18,32 4,7 -34,28 8,69 -1,40 1,85 14,7 -4,8 26,0 3,50 -8,25 26,48z"/>
   <path class="fil7" d="M17821 25224c-6,-134 -5,-291 -6,-425 -1,-133 -15,-269 -18,-397 -27,18 -15,-6 -22,38 -6,-35 8,-10 -18,-18 -2,47 25,180 -2,216 39,37 21,11 6,61 -12,43 15,-15 -3,91 -6,34 16,181 -2,206l-9 10c48,71 46,24 54,104 -24,21 -21,14 -24,35l-4 33 29 -2c-4,8 -6,3 -8,20 -1,6 -1,21 -1,27 18,-6 5,-4 28,1z"/>
   <path class="fil20" d="M5482 1577c30,74 21,83 14,162 -7,8 -8,2 -16,5 -9,32 -8,34 -42,48 -95,39 -103,50 -227,37 -120,-12 -161,-73 -145,-210 11,-29 15,-25 -13,-25 -46,-4 -13,160 -12,187 13,9 9,2 20,4 12,5 19,0 37,25 16,21 22,-3 2,15 42,48 195,65 281,34 45,-16 81,-37 113,-66 54,-48 41,-51 61,-130l-31 -85 -22 -13 2 18 -22 -6z"/>
   <path class="fil21" d="M17510 28444l47 5 25 -7c1,-65 4,-142 23,-199 46,-11 29,3 59,-3 136,-25 152,-6 173,-64 -63,18 -134,41 -213,47 -39,-24 4,-11 -38,-30 -13,13 -16,24 -19,34 -40,7 -67,10 -114,10 -33,1 -79,-14 -101,0 42,26 126,13 184,11 -20,10 -20,10 -35,32 -13,-5 -33,-13 -60,-19 -11,39 6,17 -25,28 34,114 -12,99 31,143l12 -154c4,12 13,33 22,45 15,-3 49,-11 51,-34 1,-2 0,-3 0,-4l-22 159z"/>
   <path class="fil18" d="M18047 2037c30,0 11,11 15,34 12,69 -39,537 -34,585 24,-19 16,27 20,-27 -11,6 -6,-6 6,29 28,0 52,-602 36,-682 -22,-17 -14,0 -21,-29 -1,-4 1,-21 1,-27 -2,-30 0,-36 -18,-43 1,26 2,54 3,81 0,14 2,35 1,48 -1,45 5,20 -9,31z"/>
   <path class="fil20" d="M3040 9597c-1,1 3,277 4,318 2,107 -14,266 -3,365l1 22 27 0 13 -737c-2,-2 -8,-19 -41,-38l-1 70z"/>
   <path class="fil20" d="M2942 5790c11,35 7,231 4,292 -1,13 12,4 -4,9l2 197 30 1c-37,35 -17,-4 -24,44l18 27c-2,-30 7,-113 9,-160 2,-54 4,-112 4,-169 0,-113 -5,-258 6,-368l-30 -32c-6,38 4,159 -15,159z"/>
   <path class="fil10" d="M17949 1392c1,29 39,109 48,161 7,37 5,34 15,64 28,89 22,171 40,260 18,7 16,13 18,43 0,6 -2,23 -1,27 7,29 -1,12 21,29 -3,-110 -14,-246 -40,-351 -13,-49 -18,-101 -37,-151 -16,-39 -44,-91 -52,-139 -2,1 -6,2 -7,2 -1,1 -6,9 -7,6 -2,-3 -5,7 -8,10 33,62 11,37 10,39z"/>
   <path class="fil22" d="M5114 2074l15 29c46,6 67,-5 114,-4 72,2 306,32 387,1 20,-8 9,-4 20,-13 -24,4 -81,20 -92,-6 -123,4 -125,-15 -223,-33 -51,-9 -57,11 -110,13 -19,0 -111,-1 -111,13z"/>
   <path class="fil23" d="M3153 1943c14,-43 2,-71 40,-70l13 -425 -22 -20c-18,-20 16,1 -19,-18l-6 416c-5,68 -31,60 -6,117z"/>
   <path class="fil24" d="M3646 28179c20,1 -1,-23 24,12l-5 23 29 0 -2 -51 -8 -17c-69,-11 -42,-28 -96,-48l-95 -47c-102,-56 -112,-101 -165,-104 19,61 87,102 148,132 80,39 18,30 89,51 26,8 26,11 43,24l33 22c1,-2 3,2 5,3z"/>
   <path class="fil25" d="M16641 28400c37,-5 42,-17 78,-15 34,2 50,-6 77,-19 0,0 -15,-9 50,-19 3,0 27,-3 28,-4l22 -21c46,15 80,-25 96,-28 64,-13 27,-1 39,17 28,-9 8,3 25,-16 -16,-14 -1,-7 -27,-17 -69,-29 -61,-23 -108,-15l18 37c-24,-16 -43,-9 -75,-1 -55,12 -22,15 -69,19 12,17 -18,31 18,18 -35,10 -7,2 -39,3l-62 11c-26,5 4,-1 -18,5l-23 -4c-1,-4 -6,-4 -8,-6 -3,38 -17,46 -17,46 -1,-1 -4,6 -5,9z"/>
   <path class="fil9" d="M17878 28182l28 0c-8,-7 -13,-9 -22,-17 -17,-15 1,6 -15,-18l-84 -50c40,-16 54,-22 92,3l22 -13c-27,-36 -14,22 -30,-22 -1,-5 -6,-4 -9,-6 -39,-12 -169,9 -206,30 -74,42 -24,50 -24,50 29,2 97,-35 139,-18 19,8 2,6 29,18 16,7 22,5 37,12 36,17 10,24 43,31z"/>
   <path class="fil25" d="M17701 14082c38,0 3,-12 27,-133 6,-29 13,-117 12,-146l12 -99c-17,-18 -20,-26 -6,-62l-13 -22c-1,0 -25,-8 -26,-8l-6 470z"/>
   <path class="fil13" d="M17313 17187l-8 34c63,0 91,-8 152,5 68,13 121,18 167,-19 -21,-20 -4,5 -12,-28 -102,33 -190,-26 -299,8z"/>
   <path class="fil26" d="M11795 28014c-13,-13 2,-9 -21,-15l-378 -15 3 25c72,-9 13,13 91,13l40 -7 15 32c22,-20 5,-14 40,-19 30,25 8,20 38,28l10 -38c55,15 102,9 162,-4z"/>
   <path class="fil27" d="M3322 28254l-6 25c60,-16 112,-37 171,-43 33,-4 71,-3 102,-7 24,-4 52,-14 76,-15l5 -23c-25,-35 -4,-11 -24,-12 -69,51 -182,-33 -197,39 -52,2 -92,20 -127,36z"/>
   <path class="fil2" d="M5141 1530c14,21 -4,7 20,5 3,0 35,-6 35,-6 24,-1 48,6 76,9l15 -24c123,-11 127,13 195,63l22 6 -2 -18c-11,-25 -35,-48 -61,-60 -83,-42 -223,-5 -300,25z"/>
   <path class="fil23" d="M3268 13432c9,5 9,8 28,13 2,0 29,2 33,3l-8 21c100,-17 96,22 156,25 43,2 92,-36 137,-51 -62,-9 -69,34 -169,8 -146,-37 20,-25 -177,-19z"/>
   <path class="fil28" d="M3615 1889c21,2 40,-5 40,14 53,-32 82,-81 71,-166l-16 -1c6,-25 -3,-26 -26,-37 4,55 9,70 -11,116 -16,36 -33,53 -58,74z"/>
   <path class="fil6" d="M2919 1105c40,1 114,-6 140,-3 53,5 36,20 107,19 -1,-32 -8,-25 -38,-34 -13,-4 -45,-15 -59,-17 -39,-5 -115,1 -160,1 4,3 8,4 10,11 2,6 7,7 9,9 2,1 6,5 10,7l-19 7z"/>
   <path class="fil29" d="M16796 28366l-11 37 119 5 -96 -12c42,-27 164,-63 223,-85 -12,-18 25,-30 -39,-17 -16,3 -50,43 -96,28l-22 21c-1,1 -25,4 -28,4 -65,10 -50,19 -50,19z"/>
   <path class="fil30" d="M6447 27914l305 -20 7 -25c-106,3 -189,19 -305,23l-7 22z"/>
   <path class="fil31" d="M3153 1943c-1,45 -8,61 11,89l25 -2 20 0 -2 -16c6,-46 -20,-85 -14,-141 -38,-1 -26,27 -40,70z"/>
   <path class="fil23" d="M17472 4857c-19,-20 26,-17 -27,-17l8 -17c-139,-6 -120,-63 -180,-30 18,36 34,22 88,46 81,36 23,23 111,18z"/>
   <path class="fil32" d="M17811 28333c2,25 -2,14 31,12 6,-67 -17,-43 -47,-106 -38,12 -70,14 -89,44 -12,20 -16,65 -9,79 15,27 -3,5 28,24l-22 -79c0,0 77,-56 112,-13 31,38 -2,37 -4,39z"/>
   <path class="fil18" d="M5053 1594c28,0 24,-4 13,25 27,-18 44,-34 73,-49l70 -24c47,-3 15,0 27,8 3,-1 15,-4 17,-4 16,-8 9,-4 19,-12 -28,-3 -52,-10 -76,-9 0,0 -32,6 -35,6 -24,2 -6,16 -20,-5 -45,11 -66,31 -88,64z"/>
   <path class="fil18" d="M17305 17221l8 -34c-82,5 -137,-56 -178,-24 23,29 47,26 81,39 31,12 53,38 89,19z"/>
   <path class="fil33" d="M17879 28064c8,-10 5,15 16,-26l-4 -255c-22,17 -2,14 -20,81 -9,35 -2,123 3,158l0 11c2,15 -1,10 5,31z"/>
   <path class="fil5" d="M3251 27881c-2,-81 -16,-3 -34,-87 -3,-18 -5,-18 -24,-21 -15,-3 -16,-1 -30,-1 -7,54 -8,16 26,63 27,37 12,46 62,46z"/>
   <path class="fil34" d="M2938 5588c-9,64 0,34 -1,73 0,2 -1,5 -1,6l-3 20c0,2 1,5 1,7 2,37 11,60 8,96 19,0 9,-121 15,-159l30 32 -3 -122c-16,26 -9,26 -9,64 -33,-8 -3,14 -37,-17z"/>
   <path class="fil29" d="M17134 28248c47,42 49,-55 144,-43 1,0 15,8 32,4 56,-11 8,0 29,-18 -28,-15 -24,-16 -65,-11 -78,9 -57,16 -140,68z"/>
   <path class="fil35" d="M14332 28187c-14,-13 3,-8 -34,-12 -10,-2 -27,-2 -38,-3 -28,-3 -56,-3 -86,-7 7,30 10,30 16,58l39 -14c2,0 5,0 7,0l96 -22z"/>
   <path class="fil36" d="M17612 17179c8,33 -9,8 12,28l12 5c30,0 38,3 57,11 15,-61 1,-41 8,-101l-14 -3c-5,5 -4,-4 -10,15 -2,10 -1,19 -6,29 -12,22 -24,14 -59,16z"/>
   <path class="fil37" d="M3013 27746c11,-21 24,-40 31,-63l4 -54c-25,16 -24,26 -39,55 -27,52 -31,16 -43,80 46,-12 9,5 47,-18z"/>
   <path class="fil18" d="M5763 1116l3 58c31,-21 56,-25 101,-29 -18,-24 23,-19 -17,-19 38,-3 -2,5 16,-19l-103 9z"/>
   <path class="fil38" d="M3189 2030c7,15 8,17 11,24 7,14 3,3 7,15l56 33 6 -17 38 9c-18,-33 -28,-23 -85,-72l-15 -8 2 16 -20 0z"/>
   <path class="fil35" d="M4567 12920c2,1 4,0 5,2 8,23 -9,-15 31,16l-20 19c-4,23 6,20 18,30l28 -56c-20,-10 -19,9 -21,-29 -2,-29 10,-24 2,-58 -7,-1 -24,-5 -31,9 -11,23 25,11 -12,67z"/>
   <path class="fil35" d="M5763 1116l103 -9c7,0 12,1 20,-1 20,-6 7,-3 19,-12 -14,-4 -30,-5 -39,-7 -58,-19 19,-38 -84,0l-5 -19c-16,17 -4,-5 -13,21 -3,8 -1,19 -1,27z"/>
   <path class="fil39" d="M6519 19043c-20,19 -20,20 -32,52l55 -12 4 -40c39,2 15,19 54,-9 -17,-14 9,-7 -23,-14 -2,-1 -5,-1 -7,-1 -14,-2 -26,8 -64,-7 6,32 2,19 13,31z"/>
   <path class="fil26" d="M10991 27969c-12,-13 0,-5 -21,-10 0,0 -115,-11 -115,-1 27,43 11,4 68,69l-1 -46c45,0 30,-4 69,-12z"/>
   <path class="fil40" d="M17869 28147c25,-8 19,3 29,-11 -9,-20 -7,-15 -21,-36 -38,-25 -52,-19 -92,-3l84 50z"/>
   <path class="fil30" d="M4547 21204c0,7 -2,8 -1,12l14 35c-23,13 -12,10 -27,36 37,-6 13,-11 42,6 -58,44 -18,46 -18,47 2,-1 5,-3 6,-2l27 -36 -13 -33c-6,-39 5,-23 5,-61l-35 -4z"/>
   <path class="fil22" d="M3048 27629l-4 54c13,-15 6,-4 22,-15 2,-2 30,0 38,-22 2,-29 -6,-40 -34,-50 -25,18 -14,0 -22,33z"/>
   <path class="fil41" d="M17949 1392c1,-2 23,23 -10,-39 3,-3 6,-13 8,-10 1,3 6,-5 7,-6 1,0 5,-1 7,-2l-3 -28c-8,-4 -24,-11 -31,-14 -18,13 -19,5 -39,-16 12,38 17,34 27,59 5,13 2,15 9,29 16,34 13,17 25,27z"/>
   <path class="fil42" d="M13433 1027c43,4 46,2 90,0 15,-1 27,1 40,0 30,-3 6,4 23,-9 1,-15 -77,-26 -95,-16l-50 20c-2,1 -5,3 -8,5z"/>
   <path class="fil17" d="M17823 2355c1,2 3,3 3,6l13 24c19,31 0,16 30,27 29,-22 22,-28 28,-66l-39 10c-24,-9 -11,-10 -35,-1z"/>
   <path class="fil43" d="M6185 11918l70 7c29,-29 21,-7 33,-58 -91,46 -66,4 -103,51z"/>
   <path class="fil44" d="M3034 9483c-9,99 12,67 -12,104 35,-2 4,-2 18,10l1 -70c33,19 39,36 41,38l-4 -123c-15,27 -8,30 -8,66 -69,1 -19,6 -36,-25z"/>
   <path class="fil29" d="M2975 13427c37,-12 23,-11 61,-8l15 30c30,-14 52,-1 64,-20 -71,0 -44,6 -79,-22 -2,-2 -5,-4 -6,-5 -2,-2 -5,-4 -7,-6l-35 5 -11 -49 -2 75z"/>
   <path class="fil30" d="M4478 25611c-2,16 -3,23 14,43l-28 37c39,-6 12,-6 53,0 -21,-59 28,-73 -30,-81 -2,0 -6,1 -9,1z"/>
   <path class="fil45" d="M3169 27761c-2,-14 8,-49 -62,-63 12,81 44,62 62,63z"/>
   <path class="fil42" d="M9562 27932c12,11 -11,8 28,15 12,2 19,0 28,0 21,-1 45,-4 67,-5l-16 -29c-20,1 -16,-3 -40,4l-19 11c-2,1 -4,4 -5,5 -1,1 -3,3 -5,5l-38 -6z"/>
   <path class="fil46" d="M2975 13427l0 29 76 -7 -15 -30c-38,-3 -24,-4 -61,8z"/>
   <path class="fil40" d="M17727 4859l29 32 38 1c17,-16 7,6 15,-37l-82 4z"/>
   <path class="fil47" d="M3044 27683c-7,23 -20,42 -31,63 41,-35 18,-8 53,-27 12,-43 9,-14 0,-51 -16,11 -9,0 -22,15z"/>
   <path class="fil48" d="M17842 28345c-33,2 -29,13 -31,-12l-16 -12c-1,0 -61,28 -1,40 30,6 29,0 48,-16z"/>
   <path class="fil29" d="M17793 4906l1 -14 -38 -1 -29 -32c-15,1 -12,-4 -12,11 7,8 14,17 23,26 13,12 7,12 27,17l28 -7z"/>
   <path class="fil15" d="M16587 606c1,45 3,31 42,35l-2 -35c-23,-5 -16,-11 -40,0z"/>
   <path class="fil49" d="M5555 1663c17,-14 9,-31 6,-55 -11,-13 8,3 -11,-14 -26,-21 0,-1 -26,-16l31 85z"/>
   <path class="fil26" d="M3003 16865l2 -67 -29 0c17,47 13,2 8,53l19 14z"/>
   <path class="fil29" d="M17850 28388c23,-12 17,3 28,-21 17,-43 -7,-26 -10,-29 -9,11 -6,-2 -14,17 -6,14 -5,12 -4,33z"/>
   <path class="fil50" d="M3345 28194c18,1 17,5 38,-12 -14,-27 2,-22 -36,-18l-2 30z"/>
   <path class="fil42" d="M17886 28267l4 -29 -4 -17 -27 8c7,21 -7,-3 8,21 20,31 -8,-5 19,17z"/>
   <path class="fil50" d="M5100 1825c20,-18 14,6 -2,-15 -18,-25 -25,-20 -37,-25 10,18 -1,9 17,27 24,24 -1,3 22,13z"/>
   <path class="fil51" d="M17638 17265l4 -6 -43 -6c17,31 5,31 39,12z"/>
   <path class="fil29" d="M4506 25242c-9,-32 8,-7 -24,-22 13,27 -8,16 24,22z"/>
   <path class="fil52" d="M4028 9512c-11,-25 -1,-13 -23,-24 10,29 -9,11 23,24z"/>
  </g>
 </g>
</svg>
