<?xml version="1.0" encoding="UTF-8"?>
<!DOCTYPE svg PUBLIC "-//W3C//DTD SVG 1.1//EN" "http://www.w3.org/Graphics/SVG/1.1/DTD/svg11.dtd">
<!-- Creator: CorelDRAW X8 -->
<svg xmlns="http://www.w3.org/2000/svg" xml:space="preserve" width="210mm" height="297mm" version="1.1" style="shape-rendering:geometricPrecision; text-rendering:geometricPrecision; image-rendering:optimizeQuality; fill-rule:evenodd; clip-rule:evenodd"
viewBox="0 0 21000 29700"
 xmlns:xlink="http://www.w3.org/1999/xlink">
 <defs>
  <style type="text/css">
   <![CDATA[
    .fil61 {fill:#101847}
    .fil108 {fill:#12132F}
    .fil99 {fill:#14080F}
    .fil98 {fill:#1C264F}
    .fil59 {fill:#271A28}
    .fil67 {fill:#2A242A}
    .fil78 {fill:#2B2636}
    .fil56 {fill:#2C1213}
    .fil120 {fill:#2C2421}
    .fil37 {fill:#2F2C4C}
    .fil64 {fill:#301B2C}
    .fil110 {fill:#323866}
    .fil31 {fill:#38262A}
    .fil14 {fill:#382A37}
    .fil92 {fill:#383B57}
    .fil23 {fill:#3A333A}
    .fil88 {fill:#3B3545}
    .fil51 {fill:#452B37}
    .fil16 {fill:#47353A}
    .fil13 {fill:#473946}
    .fil122 {fill:#484866}
    .fil102 {fill:#4A2B2B}
    .fil124 {fill:#4A5174}
    .fil72 {fill:#4B444A}
    .fil47 {fill:#4B4657}
    .fil127 {fill:#4D2723}
    .fil106 {fill:#4E5985}
    .fil74 {fill:#503B5F}
    .fil112 {fill:#553739}
    .fil121 {fill:#553C46}
    .fil39 {fill:#56464A}
    .fil25 {fill:#564957}
    .fil66 {fill:#574B65}
    .fil95 {fill:#57698B}
    .fil126 {fill:#58534D}
    .fil80 {fill:#585876}
    .fil125 {fill:#596374}
    .fil18 {fill:#5A5666}
    .fil60 {fill:#5B4C54}
    .fil4 {fill:#5B5459}
    .fil11 {fill:#63545B}
    .fil81 {fill:#644B57}
    .fil40 {fill:#645B63}
    .fil76 {fill:#675867}
    .fil83 {fill:#675B75}
    .fil38 {fill:#685759}
    .fil114 {fill:#686986}
    .fil41 {fill:#6A6676}
    .fil6 {fill:#6B5C64}
    .fil111 {fill:#6C544D}
    .fil105 {fill:#6C6364}
    .fil42 {fill:#6C636B}
    .fil128 {fill:#727290}
    .fil43 {fill:#73646B}
    .fil28 {fill:#746B73}
    .fil130 {fill:#776877}
    .fil58 {fill:#777578}
    .fil94 {fill:#788BAD}
    .fil117 {fill:#798494}
    .fil116 {fill:#7A7686}
    .fil55 {fill:#7B6B6C}
    .fil29 {fill:#7B6C72}
    .fil3 {fill:#7B7274}
    .fil22 {fill:#7C737B}
    .fil12 {fill:#827474}
    .fil115 {fill:#836C76}
    .fil68 {fill:#83737B}
    .fil118 {fill:#846A6A}
    .fil19 {fill:#887676}
    .fil84 {fill:#888797}
    .fil87 {fill:#8B7C7C}
    .fil32 {fill:#8B8387}
    .fil65 {fill:#8C92AE}
    .fil101 {fill:#8E7671}
    .fil97 {fill:#947C85}
    .fil86 {fill:#968688}
    .fil46 {fill:#9697A7}
    .fil48 {fill:#97A5B7}
    .fil103 {fill:#988995}
    .fil93 {fill:#98A9CB}
    .fil57 {fill:#A7A8B8}
    .fil96 {fill:#A89798}
    .fil89 {fill:#AA99A7}
    .fil113 {fill:#AB9190}
    .fil104 {fill:#ABAAAE}
    .fil75 {fill:#ABB4CD}
    .fil71 {fill:#B7A6A8}
    .fil45 {fill:#B7ABB6}
    .fil62 {fill:#B7B9C7}
    .fil119 {fill:#B8CDE7}
    .fil21 {fill:#B9C6D7}
    .fil20 {fill:#BAB5B8}
    .fil82 {fill:#C6B8B9}
    .fil53 {fill:#C7BAC6}
    .fil44 {fill:#C8C9D6}
    .fil70 {fill:#C9C6C9}
    .fil69 {fill:#CAD6E7}
    .fil50 {fill:#CCD4DA}
    .fil77 {fill:#D1BAC8}
    .fil123 {fill:#D1C5BA}
    .fil33 {fill:#D6C9C8}
    .fil79 {fill:#D6CBD5}
    .fil129 {fill:#D6D9E5}
    .fil26 {fill:#D9D2CC}
    .fil36 {fill:#DAD6D7}
    .fil9 {fill:#DDDCDC}
    .fil27 {fill:#E2DDDA}
    .fil100 {fill:#E2E2E2}
    .fil8 {fill:#E4E3E5}
    .fil90 {fill:#E6D9D7}
    .fil54 {fill:#E6E5E2}
    .fil30 {fill:#E6E5E5}
    .fil34 {fill:#E7E7E7}
    .fil17 {fill:#E9E6E5}
    .fil15 {fill:#E9E8E6}
    .fil24 {fill:#E9E9E9}
    .fil73 {fill:#E9EAEA}
    .fil5 {fill:#EAE8E7}
    .fil35 {fill:#EBE9EA}
    .fil52 {fill:#EBEAE8}
    .fil0 {fill:#EBEBEB}
    .fil85 {fill:#ECEBE9}
    .fil10 {fill:#ECECEC}
    .fil63 {fill:#EDECEA}
    .fil91 {fill:#EDEDED}
    .fil107 {fill:#EEECED}
    .fil7 {fill:#EEEEEE}
    .fil49 {fill:#EEF1F1}
    .fil109 {fill:#EFEEEC}
    .fil1 {fill:#FCFCFC}
    .fil2 {fill:#FEFEFE}
   ]]>
  </style>
 </defs>
 <g id="Ebene_x0020_1">
  <metadata id="CorelCorpID_0Corel-Layer"/>
  <g id="_1602331273008">
   <path class="fil0" d="M5168 8980c10,15 12,18 23,31l-10 77c-13,20 -18,17 -49,30l-76 0 -42 5 -39 -4 -54 -31c5,-44 2,-72 19,-105l5 -1c12,-15 19,-27 27,-49l92 10c54,12 57,25 103,42l-19 -36c43,-78 -7,-41 -20,-117 34,7 18,-12 34,21l4 -69 -134 6c-22,-11 -7,-5 -31,-8l-14 39 -20 -35c-5,82 -10,40 -50,78 -9,9 -19,25 -20,35 -2,50 33,-31 5,36 -22,13 -5,13 -36,9 -20,-3 -12,2 -27,-19l-25 37c-19,-20 -4,1 -19,-29l-11 -26c-1,-2 -4,-4 -6,-6 -1,-1 -38,21 -24,-48 -20,19 -35,28 -60,50l0 10c22,10 9,1 31,18 7,6 12,13 16,16l2 47c7,5 18,-19 0,26 -4,9 -15,30 -25,40 -31,28 -68,20 -111,9l-9 18c-13,8 8,4 -31,14 -37,9 10,2 -28,-2l-24 -59 12 -2c-20,-17 -27,21 -23,-52 2,-52 3,-28 19,-36 3,-35 -4,-41 39,-36l-11 -30c3,-3 7,-10 7,-8 1,2 6,-5 7,-7 8,-11 5,-4 12,-22 -36,15 -22,16 -66,27l-17 -65c-47,33 -22,27 -50,122 -16,-55 -20,-37 -32,-82l-39 14 -2 -76c-28,-4 -234,-18 -242,9 -11,36 6,-21 13,25 5,33 3,16 -9,42l-81 13c15,-30 1,-12 26,-41l-30 -23c-3,0 -7,-1 -9,3l-95 30 40 43c-51,0 -60,10 -80,44 34,13 24,13 49,39l-47 -3 2 7 63 11 -7 51 46 7c12,31 16,3 8,43 -7,36 1,5 -21,25l-7 -5 0 9c-11,41 0,35 -50,49l-13 8c-25,-9 -55,-10 -78,-19 -34,-14 -65,-57 -60,-13 3,30 0,17 12,44l6 30c-18,57 -4,98 -2,144 3,53 -35,54 -1,110l-16 26 17 92 32 25c-13,13 28,16 -35,13 0,4 1,9 1,11l4 38c-4,21 4,2 -22,28l6 32c0,40 -3,53 -9,91 -10,60 -8,4 7,62 -7,51 -7,59 13,96 27,20 20,-28 24,30l-37 13 -11 2 -7 29c1,1 33,17 37,19l-6 55c-3,35 -27,135 -25,155 3,30 15,38 16,69 2,65 7,5 -25,63 17,27 18,55 30,91l-39 27c84,110 -9,-15 52,164l-13 12 0 88c-1,40 3,91 17,120l-2 17 29 33 -24 22c-16,41 -5,123 -30,170 8,32 -8,7 23,40l28 13 -25 14 -7 12 -15 64c13,19 10,12 26,28 -24,19 -10,14 -32,47 3,43 26,169 -19,183 10,42 19,95 18,132 -1,20 -11,47 -10,78 1,40 9,-2 6,47 -27,100 -7,99 -3,122 7,54 -6,66 -4,99 2,51 12,5 7,49 -2,15 -11,16 -14,43l-9 94 -10 6c22,17 25,-17 23,51 -2,41 -12,29 -15,32l4 45 8 11 -16 22 2 38 6 61 25 47c30,27 10,1 29,50 7,17 7,17 16,39l-55 31c-2,-3 -9,3 -14,4 16,-34 5,-8 16,-28 2,-3 10,-16 11,-20 -9,20 -1,1 -29,13l3 53 -1 122c33,33 19,140 38,210l-33 37c22,39 11,24 12,77l-1 0c22,27 8,-23 21,43l-13 64c-12,19 -17,21 -24,29l-9 12c5,10 8,10 10,30 0,3 -3,28 -3,29 30,25 13,-23 34,38l-33 43 6 73 -25 5c1,30 3,25 20,43 -12,79 14,102 5,169 -9,60 5,115 -7,176l5 47c55,31 3,100 6,196 3,135 -13,108 22,159l-12 27c-31,48 -23,13 -32,79 52,19 15,-9 39,29l-43 -13c-12,42 -10,55 -2,99 11,61 6,62 -1,130l14 1 14 67c29,-1 58,-10 53,55 -55,9 -27,-1 -80,-19l-14 23 35 3c-21,76 13,18 9,82l-34 109c3,12 9,17 10,42l2 137 26 35c-16,73 -17,4 -22,68 -3,32 4,48 14,75l-3 31 -23 4 12 7c-1,49 6,136 -3,176 -21,90 -8,54 -2,141 -15,58 -22,-71 -23,153 0,73 -4,99 -11,165 -4,70 -7,3 19,65l-42 24 8 32 3 62c16,52 39,190 24,228l9 16c40,0 12,36 7,66 -5,35 -5,45 -2,84l-8 23c-72,9 -42,-16 -74,30 -48,-4 -7,2 -18,-17 -41,11 -23,3 -59,27l0 -14 -46 -2c-16,-202 5,-218 -5,-316 -14,-130 7,-113 -2,-286l9 -8c-2,-61 -25,-69 27,-115 -17,-60 -2,-107 -7,-179l11 -13 -3 -41c-6,-45 -8,-4 9,-22 2,-62 -7,-91 0,-145 6,-42 11,-118 3,-161l-8 -38 -25 -5 -7 -30 -16 -5 10 52 -37 12c33,39 41,39 37,115 -2,49 4,115 -10,159l-47 24c21,44 22,68 21,111 -12,11 -10,14 -26,21 3,2 6,2 7,6l14 12c2,1 5,3 7,4 8,5 27,16 34,21l-1 89c-41,27 -21,-3 -37,38 -9,24 -11,47 -10,79 -3,-3 -6,-11 -7,-9 -15,35 9,-22 -36,-41 -9,19 -1,-9 -3,15 -10,103 24,21 -13,192 -7,35 -5,60 -9,98l-30 -90 -51 -26 -5 479c13,-16 -5,-13 35,-57 2,-2 6,-4 7,-6 18,-20 3,15 13,-20l-51 -38 1 -143c39,13 27,6 43,40l45 -35c2,-2 6,-6 9,-8 15,60 16,32 3,99 -3,18 -3,29 -6,45 -5,30 -5,13 -13,53l41 22c-1,75 10,94 77,104l0 90 113 -29c1,2 4,3 5,8 7,22 52,19 57,19 -29,-46 -23,-15 -24,-82 24,33 13,26 27,11l15 -18c0,31 3,33 4,57l5 32c1,-3 6,-12 7,-14 1,-1 4,-6 5,-8l13 -17c38,8 17,3 48,14l16 -35c16,-19 36,14 13,-34l44 -1 -41 -37c-16,-6 -7,0 -24,-11 -15,-10 -3,-2 -20,-15l0 -69 25 -18c11,-7 26,-14 35,-20l17 -11c0,-31 44,-18 63,-20 40,-5 28,-7 74,-2l6 45c49,12 36,104 23,139l-53 3c-46,-1 -33,5 -85,13l10 29c-44,22 -22,21 -71,24 9,42 15,10 0,45 77,-1 58,-37 112,-1l21 -36c43,19 16,1 43,35 17,-7 97,-7 124,1l55 -124c27,38 26,70 50,61 17,-5 33,-9 63,8l-47 17c25,36 22,17 63,30 89,27 -56,-7 24,8l26 -58 22 59 91 0c-4,-70 0,-20 -53,-62l72 -8c22,0 14,2 24,7 20,-45 41,-29 56,-61l-47 -29c18,-22 8,10 12,-38 38,-5 70,-10 113,-15 13,-2 55,-9 74,-6l224 8 36 -76 41 72 89 8 17 -46 16 45c87,-1 166,20 180,-31l17 16c47,22 8,-37 51,17l266 -4c-13,-23 -14,-39 -24,-64l116 64c66,-17 94,-1 166,-1l15 -34c14,24 11,33 27,59 33,-33 26,-25 89,-24l-18 25c-18,23 -12,-14 -19,37 42,-5 46,-32 73,-64 12,16 6,1 18,26 1,4 8,25 9,29 18,-19 15,-19 49,-28l26 51c23,-8 16,3 29,-17l21 -48c20,-1 13,13 29,2l33 66 84 25c-36,24 -41,9 -55,39l53 10 10 52c61,-7 24,11 35,-30 23,22 22,24 44,1 10,30 -20,25 25,29 54,5 31,-15 35,-18 22,18 6,-3 22,26 1,-13 -10,-13 8,-23 53,-28 -38,19 20,4 6,-98 10,-217 -4,-313l3 -245c-3,-56 22,-183 -9,-262 21,-27 11,-15 36,-37 -9,-19 -4,-7 -14,-22l-19 -31c12,-15 22,-34 31,-49 -2,-2 -3,-10 -4,-8 -5,15 -8,-19 -26,-28 13,-13 -13,-28 43,-13 40,11 7,25 39,9l-21 -11c-2,-2 -6,-5 -8,-6 -26,-19 -21,-45 -24,-84l-36 -24c13,-37 6,-61 29,-91 1,-2 6,-5 7,-7 2,-1 6,-3 8,-5 -3,-70 3,-53 -43,-94 36,-37 -6,-27 36,-111 -18,-26 4,5 -16,-30 -12,-22 -8,-17 -22,-31 21,-30 31,-88 40,-131 -52,-72 4,-121 -15,-192l41 -25c-2,-116 -45,-155 16,-205l-41 -38c25,-38 12,-15 47,-44 -15,-26 -3,-13 -10,-30 -17,-45 -3,-8 -16,-35 -28,-56 -73,-64 -35,-149 14,-32 34,-46 38,-83l-46 34c2,2 -61,-127 46,-92 17,-56 -3,-176 1,-262 -60,8 -6,40 -35,174 -10,44 -4,13 -13,28l-5 -302c4,-93 48,-66 27,-159 -10,-44 -7,-9 -19,-43 -22,-64 -6,-359 5,-417 43,-5 34,-1 64,7 2,-59 -36,-75 -25,-187l20 -70c1,-2 4,-4 5,-6 1,-2 3,-4 4,-5l-2 -58c5,-32 2,-10 13,-28 4,-1 -6,-55 22,11l2 -69c-20,-15 -13,-8 -19,-10l4 -66c5,-27 21,-31 49,-44l6 -77c29,-24 46,2 48,-46 -29,38 -4,21 -62,23l-1 -76c-68,-6 -39,-34 -76,-75 1,-4 4,-13 5,-11l13 -32c10,-44 27,-55 12,-92l-12 -26c27,-14 38,-26 32,-60 -4,-19 -7,-16 -10,-24l-6 -35c-14,32 3,9 -28,22l0 74 -36 -6 4 38c-41,12 -16,-12 -35,20l6 83 -17 72 11 44 2 58 39 23 22 18 -28 10c-40,4 -18,-9 -37,11 -7,57 -15,39 14,77 -2,2 -5,5 -6,7 -1,1 -4,5 -5,7l-6 35c3,26 8,36 35,34 1,3 5,10 5,8 1,-4 4,7 4,13l-24 13c-23,29 -38,171 -32,201l18 39c17,69 -5,89 -11,141 -7,59 6,146 -15,192l7 68c-22,55 -20,24 -36,66l36 12 2 90 -39 14 10 68c-9,159 9,77 22,130 -3,48 -5,69 3,115 32,174 11,104 -7,122l-8 -12 0 8 -8 39 12 77 -48 -2 8 35 6 -6c53,6 14,-3 29,20 -15,21 -1,8 -28,19 -32,14 -19,122 -29,174l14 -1c59,0 6,56 17,124 1,6 32,35 18,73 -25,66 5,-1 -20,23 -24,28 -13,31 -13,83l-13 60c35,-1 23,-1 26,110 1,60 5,59 -17,115 68,119 -13,64 22,134l19 43c16,51 8,28 0,67 -13,68 -4,114 6,177 14,85 2,85 -3,167 -6,84 19,106 -25,166 40,102 11,26 18,119l2 15c53,14 -25,61 33,147 -16,42 -18,51 -27,103 -1,16 -1,37 -3,52 -6,50 3,26 -17,47 12,35 24,47 19,80 1,63 -12,24 15,64 -12,44 5,4 -29,25 9,41 -13,123 -25,155 -67,1 -27,-3 -70,-20 -67,-26 -49,12 -71,-33 -30,-6 -2,1 -34,-14l-41 -24 24 -26 7 -54 -27 -20c11,-89 -8,-53 52,-85 3,-2 7,-4 10,-7 -3,-33 -1,-74 -5,-102 -7,-55 -17,-17 -14,-69 3,-65 0,-31 -10,-88 -11,-65 32,-67 6,-120 -25,-13 -21,4 -31,-15 3,-78 48,-140 -10,-207 2,-1 5,-7 6,-5l26 -20c-83,-149 -66,-20 9,-191l3 -18 -1 -24 -2 -99c-2,-2 -5,-10 -5,-8 0,2 -4,-6 -3,-7 5,-29 -12,-11 11,-19l0 -51 -31 1c-104,27 67,-51 -37,-134l15 -56c6,-27 8,-42 11,-70 0,-35 1,-63 7,-103 35,-221 16,-26 11,-219 -1,-34 30,-131 19,-222 -11,-86 21,-4 1,-101 -15,-75 15,-162 1,-248 3,-28 2,-29 2,-53 0,-29 -6,28 -2,-18 3,-26 -5,-3 8,-14 -2,-54 -12,-117 -27,-162 35,-41 11,-2 6,-31 -8,-49 -8,6 12,-60 -55,-10 -11,15 -39,-31 -6,-30 -7,-52 -17,-69 29,-23 28,-12 34,-60 7,-56 -9,-34 17,-76 24,16 34,-35 18,26 -2,-4 5,-53 4,-68 -2,-23 -10,-47 -16,-74 -7,-27 -6,-15 -11,-26l-9 -19c-1,-5 -3,-7 -4,-10l49 -32c-13,-73 25,-172 36,-256l-28 -24c-25,-8 -33,-13 -48,-24 1,-42 -7,-16 13,-38l42 5 13 2 2 -90 0 -170 -2 -9 15 -48 -3 -44 -24 -22c47,-137 -48,-47 4,-158 -42,-25 -30,0 -39,-53l27 -23c1,-2 5,-4 7,-5l11 -8c-2,-32 3,-34 -2,-64 -7,-43 -11,-27 -21,-36l7 -79c11,-24 -6,-16 19,-31 10,-43 11,-50 14,-98 5,-64 -3,-21 28,-76l-8 -54 -31 -74 49 -64 15 -17 -6 -77c-7,-28 3,-15 -34,-46 -2,-53 -5,-28 10,-65 1,-3 2,-6 3,-8l28 -50c25,-18 -5,12 16,-18 -14,-54 -13,-27 -1,-83 14,-64 -22,-21 16,-81l-49 -15c3,-47 -6,-13 25,-24l15 -3 -1 -28 -2 -25c1,-54 -6,-5 -22,-72 -18,-75 -22,-112 -66,-167 12,-29 16,-39 32,-64 -36,-67 4,-81 -29,-128l16 -12c11,-14 28,-13 4,-66 -9,-18 -25,12 -18,-51 4,-42 -16,-30 25,-32 14,-1 15,24 8,-19l-13 1c-43,-55 -1,-34 -17,-113 -10,-49 -25,20 0,-71 -58,-6 -39,-4 -54,-63 54,4 17,-4 50,18l-12 -39 -6 -26c3,-60 13,-36 17,-96l-46 -9 43 -36 2 -42 0 -8c-1,-34 3,-19 -11,-45 -34,-110 -15,-188 -14,-238 1,-29 0,-52 4,-92l-18 -10 -29 -24c0,0 11,-17 13,-20 8,-12 7,-11 15,-23 -34,-67 3,13 -5,-64 -4,-41 0,-59 -8,-95l-6 -68 4 -13 3 -36c-1,-44 -2,-55 -26,-78 28,-58 13,0 27,-59l-2 -8c-3,-6 -8,-14 -10,-34 -1,-14 2,-12 2,-26 1,-35 3,-34 0,-72l-3 -18 -2 -46c-33,-87 -4,-48 -8,-137l-49 0c-30,-45 -37,-31 -45,-86 -3,-19 -15,-91 5,-90l25 -30c38,12 27,8 51,31 36,-3 76,-25 76,6l27 2 16 40 23 15c-12,16 29,21 -31,7l4 45 42 35 22 4c11,72 29,45 23,126 -3,50 -8,68 1,116l4 44 5 83 1 42 18 18 28 17c-3,2 -8,4 -10,6l-15 13c-45,67 18,-53 -7,18 -2,6 -3,25 -7,39l12 145 17 30c1,2 6,13 7,17 -7,33 -18,35 -28,54 36,5 22,-6 51,29l-58 11 25 56c17,26 4,9 6,25 65,42 -14,-53 13,20 23,61 -10,-40 5,22 13,54 -13,-17 7,35 33,-19 -14,-99 28,-175 -64,-98 6,-151 -23,-321l-23 -654c-1,1 -6,5 -9,8 -5,-37 8,-12 -20,-28 -64,2 -154,-13 -203,9 -20,-19 -4,14 -24,-36 -59,24 3,14 -55,25 -73,15 -52,-32 -62,30 0,1 0,4 0,5l-49 131c14,26 0,2 15,19l14 15c2,2 5,5 8,8l-53 2c35,31 25,6 25,59 -27,24 -25,20 -65,29 5,-80 24,-61 -19,-136 -42,-73 -32,-44 -93,-85 -7,-54 -18,-56 19,-71l-398 16c-2,1 -5,5 -7,7 -11,-28 -13,-26 -29,-52 -39,43 -91,29 -198,21l-1 250c-2,-3 -6,-12 -7,-9l-20 -31 -178 -9z"/>
   <path class="fil1" d="M4198 9068c-71,-17 -9,47 -41,118 -26,-10 -12,-6 -26,-33l-12 -22c-1,3 -4,4 -4,9 0,4 -3,7 -3,9l3 37 -44 -9c1,-2 4,-9 5,-7 0,2 4,-6 5,-7 23,-45 14,-37 -20,-54l-11 78 -75 0 54 29c6,65 16,40 11,107 58,-18 61,8 62,77 35,11 29,10 51,33 -55,48 -80,8 -142,32 14,41 3,27 37,45 1,30 6,76 -8,99l-21 21c-1,1 -5,5 -8,8 5,64 -16,32 25,58 -17,-3 -17,-4 -25,-6l-39 -9c3,39 7,74 14,111l36 76 -48 33c-1,26 3,64 -3,90 -21,79 -65,47 -13,137l41 72c-39,32 -12,29 -34,62l-22 20c-2,2 -6,5 -9,8 3,82 -11,102 24,166l-33 33c16,64 -4,107 3,131 1,3 14,23 17,25 19,17 8,0 37,15l-48 26c1,121 6,237 1,358 -2,51 -12,38 -10,75 1,23 10,35 11,78 2,152 -22,174 37,230 -1,63 -4,53 17,103 -45,35 -89,67 -21,109 -38,35 -35,26 -33,95 17,14 1,11 37,21 -63,32 -55,51 -4,88 -5,0 -16,1 -19,2l-14 81c17,71 5,-6 24,51l10 272c-5,68 -67,28 2,281 19,69 29,66 26,138l50 19c0,39 -6,33 -12,78 26,-9 10,-12 53,-2 44,-99 60,-86 74,-204 40,16 24,-14 73,-29l10 -45c41,-1 30,-4 74,-8l-54 -27c51,-87 39,-87 24,-128 44,-34 23,-16 43,-68 14,-35 23,-60 48,-77 -2,-146 43,-149 14,-213l33 -18 8 -179c-1,-14 53,-211 26,-276l29 -23c-3,-41 -2,-56 -3,-88 0,-40 8,-57 8,-106 2,-108 18,-119 27,-211 42,18 14,87 27,199 12,111 55,70 36,217l83 98 91 3c-59,25 -138,-2 -207,-2 3,77 -22,26 38,59 -60,19 -34,-7 -93,-4l-19 1c-1,36 6,44 12,91 -3,-2 -6,-11 -7,-8 -1,1 -3,-13 -23,-8 11,27 4,11 17,26 40,44 5,-21 14,12l5 106c17,43 -5,50 51,67l-114 -17c6,37 22,34 0,68 94,5 -17,52 -35,136 -11,55 2,21 -15,43l23 25c12,21 6,9 12,32 -26,29 -30,17 -58,38 -3,3 -6,7 -9,10 -3,2 -6,7 -10,10 34,13 35,25 51,53 2,3 5,7 7,10 20,-23 9,0 20,-32 4,-12 -1,-11 6,-31l15 64c41,-14 31,-21 59,-51 1,-2 5,-5 7,-7 -16,-117 82,-177 177,-128 -14,37 -22,31 -28,69 0,3 -1,6 -2,10 -2,21 -2,22 0,43 -15,-28 -5,-23 -42,-36l21 56c-6,0 -10,-7 -12,-4l-42 -22c-51,30 -18,-3 -41,40 50,22 140,12 208,14 27,36 56,53 64,101l32 -59c1,-1 3,-5 5,-7l-23 -52c27,7 16,3 34,17l81 88c-8,-72 -32,-55 1,-102 37,32 11,14 31,41 23,31 20,9 35,59l23 -31c2,-1 6,-2 7,-2 2,-1 13,-5 16,-7l26 39c30,-22 28,-62 -5,-84 -46,-31 -33,2 -72,-55l-80 1c19,-59 -2,-43 45,-73 -19,-8 -21,-23 -32,-47 55,10 57,15 67,62l24 -16c13,-6 3,0 21,-12l34 -10c1,0 5,2 6,2 22,5 21,71 23,90 17,-15 8,-17 36,-18l40 14 -58 32 5 71c21,-29 18,-29 44,-7 -15,26 -18,23 -34,45l51 -12 -3 -61 57 55c-14,-48 -28,-44 23,-61l24 48c18,-28 39,-46 78,-52 -4,58 -19,45 5,85l15 -29c1,-2 4,-5 6,-8 1,98 12,114 84,107 -19,-38 -13,-7 -16,-47 -2,-37 5,-13 -9,-60 4,1 22,5 24,5 23,1 5,3 20,-2l-61 -28c27,-11 44,-4 51,-39 3,-11 -4,-13 -5,-25l5 -27 -63 1 -4 -48c57,35 114,11 179,11 -3,46 12,15 -14,47l63 21c-11,21 -48,63 -24,88 46,23 42,9 61,-26l41 56 13 -60 38 29c41,-44 4,-38 61,-34 -43,25 -48,19 -22,72 63,-45 -25,-37 83,-38 -20,-16 -14,-9 -23,-41l93 -10 20 -51 84 -2c-20,44 -5,44 -2,99l37 -26c42,44 130,16 212,45l16 -73c-16,-36 -19,-65 -8,-109 23,25 20,33 53,27 -72,-15 -37,-122 -5,-153l-18 -38c22,-22 35,-22 20,-60l-94 79c-39,11 -33,-6 -71,13 8,-55 -9,-13 25,-33l3 -64c-21,-17 5,-9 -41,-22 20,-13 30,-8 55,8l13 -41c19,7 18,5 46,2l10 15c3,-1 7,-6 8,-4l24 -21 -32 -16c1,-3 -3,-3 -4,0 0,3 -5,3 -6,4 -9,6 -8,6 -22,14l-39 -54c32,-17 35,-6 53,19 29,-27 -6,-8 33,-24 32,-14 51,-13 74,-33 -123,-68 -87,-129 -83,-118 1,2 6,-3 8,-3 2,-1 13,0 17,0 19,-1 7,7 46,-7 -23,-27 -14,-8 -42,-25l23 -110 4 -79c-2,-24 -2,-29 -6,-60 -34,18 -56,30 -106,29l25 -67c11,-22 18,-1 41,5 2,-2 5,-10 6,-8l33 -42c1,-1 5,-3 6,-4 27,-18 13,-41 8,-62 -8,-28 -15,-117 -1,-139 -75,4 -36,3 -79,39 -29,-40 -15,-4 -28,-52 58,-39 52,-2 79,-53 13,-25 -4,-11 19,-29l-45 -20c40,-66 -6,-31 22,-107 13,-33 18,-20 24,-49 8,-44 -12,-16 9,-63 -44,20 -8,4 -34,21 -10,6 -19,11 -32,16 -78,-64 -19,-98 -48,-126 16,3 4,8 23,3 22,-6 14,-4 27,-13 -73,-10 -74,13 -79,-55l74 -16 -57 -97c14,-32 -40,32 28,-32l23 -28c7,-16 3,-14 7,-27 -4,-1 -17,-6 -20,-7l-67 -8c25,-80 29,31 56,-61l14 28c7,-100 4,-52 -19,-58 17,-20 19,-18 21,-50l-8 -25c28,-20 12,6 20,-26 -26,-20 -39,19 -98,-14 8,34 24,36 35,68l8 30c1,4 2,7 2,10 4,20 4,18 2,41 -32,2 -52,-22 -88,-34 6,40 11,49 -31,64 11,-49 10,-36 0,-84l92 15 -32 -43c-54,-23 1,1 -22,-1 -3,0 -17,-3 -23,-4l23 -221 -13 -15c2,-2 6,-6 7,-8 18,-21 -2,-337 -1,-350 2,-50 26,-307 -21,-338 -1,0 -18,-9 -21,-11l49 -102c-14,-37 4,-20 -23,-32 23,-15 21,18 22,-21 3,-87 2,-18 -25,-46 -17,44 -2,22 -29,53l-83 5c9,29 3,20 17,36l-45 -2c16,-57 9,-12 -4,-35 -51,5 -55,34 -87,70l18 41c2,0 7,2 9,3 1,0 5,2 8,3l-100 -9 1 -109c-111,-3 -78,-6 -98,25l15 -50c-78,18 -10,-6 -60,30 -46,-9 -66,-14 -98,8 7,-29 35,-43 55,-66 -48,-7 -15,7 -30,-27l-70 43c7,39 22,36 24,82 -33,-36 -2,-36 -69,-47 40,-26 31,-10 29,-62l-79 16c2,-2 6,-1 7,6l19 25c-17,6 -26,7 -37,12 -48,19 -19,7 -39,22l0 77c3,2 8,2 9,7 1,5 6,6 7,8l10 16c13,45 -7,39 -15,50l-17 20c-1,2 -5,3 -6,5l-38 22c28,6 36,6 52,28 2,2 3,6 5,9l12 20c77,-75 33,-70 27,-78 20,7 40,12 56,21l-33 -9c-11,61 -5,62 -1,125l-20 -56 -75 37c21,-41 15,-6 28,-66 -51,-19 -24,-7 -77,-1 8,48 -16,29 24,52 -43,-2 -16,3 -38,-49 -76,6 -67,28 -108,77l-70 -3c27,-18 32,-11 78,-13l51 -94c-16,-34 -15,-97 -67,-86 -44,8 -10,3 -30,12 -1,-1 -10,-27 -10,-27l-21 -35c90,40 109,-29 129,59l35 68c-1,-39 7,-72 8,-95l-19 -84c-52,-21 -95,-39 -161,-28l-9 31 -22 -27c-1,-1 -5,-5 -7,-7l-69 -1c11,57 2,12 16,43 9,21 8,-17 8,29 -1,-1 -3,-4 -4,-3l-32 -24 10 -57c-64,20 -62,37 -63,112 -23,-4 -15,-4 -29,-13 -2,-1 -5,-4 -7,-6 -3,-1 -6,-3 -9,-5l-98 -59c-3,-2 -7,-5 -10,-7 -18,24 -4,20 -40,27 9,-51 27,-49 22,-113 -61,38 -4,16 -50,70 -46,5 -117,-4 -142,0 -24,3 -34,18 -49,5 -44,-38 29,-15 -42,-50l8 49c-53,-4 -22,-8 -67,-1 15,-23 15,-36 24,-63 -56,9 -45,1 -64,52 -25,-59 -24,-53 -93,-66 17,33 19,36 55,50l-55 26c-17,-16 -8,11 -18,-39 -29,27 -11,-3 -33,41l-99 0c15,-65 27,8 69,-88l50 -72 -59 -9c-16,48 -8,38 -61,51z"/>
   <path class="fil2" d="M5567 12808c3,52 20,84 -2,143 -25,68 4,66 -15,139 -36,140 28,38 -15,196 -11,40 3,104 -13,149 32,34 39,12 36,73 -12,-35 1,-16 -33,-25 -2,42 -1,62 2,102 4,38 -4,31 -11,72 -2,16 7,142 6,187l-18 9c-1,1 -4,2 -6,4 17,218 -6,110 -11,231l24 65c23,43 13,101 -13,134 3,3 6,4 7,9l19 21c-2,67 20,151 -27,204 20,98 15,195 38,294l39 13c-3,60 5,19 -29,47 -39,32 6,16 -46,27 39,95 14,65 0,144 -13,68 22,20 -24,63l34 26 -7 93c35,8 9,-10 20,22 -29,34 -28,34 -39,81l27 2c-40,0 -23,-1 -63,-8 10,37 24,44 53,66l-16 60 -26 -26c-25,-36 29,-32 -50,-34 -13,20 -22,3 -14,50 8,52 26,37 29,38 36,15 5,-32 49,52 -52,64 -97,11 -102,105 4,-1 8,-8 10,-5 0,1 12,-8 17,-10 12,-6 2,-4 23,-8 -14,52 -30,76 -37,112 4,0 10,-6 12,-2 1,3 8,-2 11,-2 2,-1 7,-2 10,-2l76 -1c-7,40 -16,-5 -4,43 9,36 10,33 -3,63 -23,-39 -2,-28 -49,-41l-29 67c-10,44 -1,36 -32,56 -11,-34 -7,-26 -26,-42 24,-59 -24,57 13,-24 7,-13 2,10 14,-33 -54,16 -26,16 -72,26 1,4 5,5 6,11 1,6 4,8 6,11 15,31 17,42 -8,56l-52 -76 -2 93 38 25c-30,70 -14,101 -12,196l76 -1c-5,17 -6,10 -7,11l5 38c27,9 1,6 21,0l52 -103c-26,-55 11,-183 35,-228 32,69 -5,92 -17,143 68,34 83,14 133,33l10 78c43,8 33,29 53,33 18,4 49,2 12,-57 -24,-39 -19,-9 -35,-53l43 -11c-17,38 14,50 26,117 54,-1 117,-2 171,-1 75,3 52,3 89,62l17 -63c23,67 1,12 25,40l19 -39c33,1 60,-3 88,3 4,1 23,8 26,9 3,2 6,4 8,6l15 14c1,2 4,6 7,9 2,-3 5,-12 5,-10l13 -30c5,-15 6,-19 14,-39 17,43 -3,12 34,28 0,-10 2,-64 1,-71 -6,-31 -7,-22 -27,-37 3,-2 7,-9 7,-7 2,4 34,-52 6,-84l-13 -14c-10,-14 -15,-23 -23,-36 24,-41 30,-27 19,-99 -16,-111 28,-79 -44,-213 -21,-38 -4,-56 -2,-116l-39 -29c16,-22 24,-42 38,-63 6,-9 23,-27 25,-29 15,-24 9,-8 17,-44 -45,-12 -18,-21 -53,14 -36,-46 -39,-49 -23,-91 22,-56 45,-90 27,-158 -19,21 -4,13 -43,21 -7,-74 -3,-37 0,-114 6,3 18,13 26,13 38,1 14,5 36,-16l-63 -17c3,-47 22,-50 39,-81 -21,-36 -3,-14 -37,-39l-3 -151c80,2 21,1 85,33 -8,0 -29,-2 -35,0 -33,12 -8,1 -30,19l84 13 1 -67 -103 -29c-5,-75 -78,-183 27,-227l-52 -26c-1,-62 -23,-107 -13,-164 7,-44 -10,-2 24,-43l-30 -33c26,-57 25,-62 17,-130 -23,-181 35,-281 -35,-458 16,-33 15,-78 5,-113 -13,-49 -19,-54 -27,-114l-12 -87c5,-88 10,-56 -44,-85l-37 -132c-16,-34 -16,-41 -15,-85 -2,-2 -7,-9 -8,-6l-88 -96c-18,-20 -8,-11 -29,-26 -5,-66 1,-52 -42,-79 -48,-31 -26,-32 -79,-52l-28 28c-33,29 -13,-9 -29,29 -13,30 22,12 -29,61z"/>
   <path class="fil2" d="M5016 13138c-4,61 -26,26 18,48 -32,11 -16,3 -34,14l-4 68 -49 10c9,25 9,167 5,176 -8,25 -36,26 -39,79 -5,80 41,59 -7,165 -1,3 -3,6 -4,9l5 47 -50 11c7,35 5,25 13,53 -1,1 -3,1 -3,2 -1,2 -4,2 -5,2l-17 9c5,35 14,39 14,65 -2,64 -7,5 -22,54 -12,41 1,37 -1,57 0,8 -12,42 -15,57 -8,51 22,184 10,316 -1,6 -5,25 -5,29l29 154c8,54 4,80 17,136 19,75 19,89 -15,132 58,6 48,-9 56,125 2,36 30,67 22,113 -10,54 -35,11 -10,102 32,114 28,8 22,105 22,20 -16,-1 35,25 13,107 45,69 56,195 71,8 62,34 144,0 161,-67 105,-12 143,-142l111 -245c-46,-63 7,-16 -40,-163 -56,-175 12,-36 -41,-202 -12,-38 -21,-254 -46,-312l1 -183c-114,23 -53,-24 -23,-73 13,-59 -42,-201 -31,-257 8,-43 13,-58 13,-104l-33 -20c1,-149 23,-96 25,-130 -19,-81 8,-89 -16,-167 -16,-53 -35,-118 -40,-182l-26 27c-3,3 -9,13 -11,15l-13 12c-60,-74 -44,-68 -37,-178 -2,-3 -5,-9 -6,-7 -1,2 -5,-6 -6,-7l-9 -16c-5,-12 -7,-40 -11,-58 -38,13 -42,10 -70,34z"/>
   <path class="fil3" d="M6441 12744l-23 -6 -15 48c39,2 13,-12 30,15l-28 -6 0 170 42 -16c5,46 -7,108 -40,128 -11,-9 -14,17 -4,-22l-13 -2 -7 57 28 24c-11,84 -49,183 -36,256 -3,48 14,87 -25,87 6,27 14,51 16,74 1,15 -6,64 -4,68 -4,26 -34,179 -52,179 28,46 -16,21 39,31 -20,66 -20,11 -12,60 5,29 29,-10 -6,31 15,45 25,108 27,162l73 4 10 39c-30,31 -10,22 -39,36 -34,15 30,23 -52,6 14,86 -16,173 -1,248 20,97 -12,15 -1,101 11,91 -20,188 -19,222 5,193 24,-2 -11,219 -6,40 -7,68 -7,103 42,21 17,17 22,61 3,34 7,30 8,65 1,56 -15,92 -19,134l31 -1 0 51c31,-26 13,57 31,-47 18,58 24,54 -34,81l2 99c37,-8 12,-14 28,3 -6,40 12,21 -27,21l-3 18 18 12c-45,66 2,159 -10,230 -13,72 -20,3 -4,95 9,56 -10,37 -4,101 26,53 -17,55 -6,120 10,57 13,23 10,88 -3,52 7,14 14,69 4,28 2,69 5,102 -3,3 -7,5 -10,7 -60,32 -41,-4 -52,85l27 20c-15,-41 -11,-9 -1,-48l-8 -37 66 12c-10,-86 -23,-96 -4,-182l86 22c3,0 14,3 18,4 13,-36 25,-58 40,-94l10 -119 -13 25c-13,21 -9,14 -22,27 -71,-50 -27,-96 -13,-85 -3,-59 -7,18 -8,-38 0,-24 7,-6 10,-46 2,-36 -16,-63 -20,-100 5,-16 21,-37 21,-67 0,-8 -5,-46 -4,-51 9,-50 -6,-25 32,-48 3,-52 8,-41 -24,-79 2,-42 -7,-12 22,-24 -12,-129 -18,-51 -22,-75 -1,-3 -5,-2 -7,-4 21,-64 -7,-34 27,-77 -7,-79 5,-24 -26,-76 15,-32 43,-123 -8,-149l2 22c-33,-23 -27,-24 -39,-71 25,-37 23,-36 24,-89l37 -1 -3 -46 -30 18c-9,-32 -9,-41 -21,-69l38 8c5,-47 8,-28 11,-78l13 -60c-47,-11 -16,4 -25,-32l-28 -3c1,-51 8,-46 31,-76l-29 -52c24,-16 -34,-49 40,0l-17 -38c13,-38 32,-57 26,-102l-14 1c0,5 -1,22 -1,23l-8 15c-31,-47 -7,-83 11,-136 -62,-25 -17,-2 -41,-39l-15 -15c-1,-2 -4,-2 -6,-3 7,-25 37,-109 47,-123 3,3 8,11 9,14 1,3 1,7 2,10 8,29 -37,52 24,47l-8 -35c3,-31 -2,-58 4,-76 14,-44 25,-31 40,-38l0 -8c-29,6 -83,35 -91,20 -2,-4 -7,-3 -11,-4 -1,-4 -2,-8 -3,-11l3 -86c-29,-19 -33,-7 -12,-28l1 -126c86,-5 22,-8 38,24 -7,26 -14,12 14,17l0 -40c-35,-11 -15,11 -29,-17 7,-28 -9,-19 18,-16 15,-48 19,-31 2,-73 23,-31 45,-26 22,-71 -30,-60 -7,-29 -15,-87 58,18 22,1 36,-8l-10 -76c-38,26 -26,-31 -30,24 29,-2 18,-73 16,-98 -1,-16 36,3 -29,-40l-48 -53 92 -6c-22,-42 -17,-71 -14,-122 -8,9 -18,-3 -18,-3 -37,-86 2,-41 25,-61 15,35 11,15 24,58 26,-18 25,32 24,-55l-27 -46c-32,10 -17,-10 -35,22 -2,-23 5,-54 -5,-89 -2,-9 -25,3 1,-61 1,-2 5,-4 6,-9 1,-5 4,-6 6,-9 18,17 51,-32 21,45l11 -88c-32,9 -19,6 -54,16 -17,-34 5,4 -15,-22l-17 -18c7,-9 14,-21 21,-26l41 -7c1,-3 4,-7 5,-9 1,-2 4,-7 5,-9l13 -25c-11,-15 -20,-26 -31,-39l25 -45c2,-3 4,-5 6,-7 27,-43 18,-37 10,-73 -8,18 -6,24 -14,42 -20,44 -17,26 -32,39 -34,-21 -23,-8 -39,-58 -25,21 -27,-60 -18,42 -1,-1 -10,-13 -12,-17z"/>
   <path class="fil3" d="M3570 12898c15,31 10,24 29,51 -38,79 -1,50 -9,128 -30,32 -21,16 -46,50l-43 -12 -3 46c98,7 57,82 47,84 17,45 6,-3 12,53 -49,-2 -66,-2 -44,-51 -24,12 -16,-20 -28,36 -6,27 5,16 -5,47l60 41c-27,61 -44,8 -46,76 22,44 11,53 15,102 3,34 6,17 4,49 -1,7 -5,9 -5,36l10 0c41,-32 30,-55 74,-33 7,95 6,21 -24,44l1 27 -8 12 34 -45 13 -39c11,11 8,7 19,23 2,3 6,12 8,15 26,45 28,31 6,73 -10,19 -7,15 -8,13l9 84c1,59 -46,22 -64,6l5 38c-20,17 27,28 -47,-1 1,42 -10,13 11,51l-34 -15 1 155 36 -3c-13,-31 -21,-33 7,-57 10,29 4,45 3,75l44 -3 39 7c13,32 -2,22 24,29l-10 31c-21,71 -32,49 -47,81l39 12c-3,34 -6,90 -39,93 31,20 35,32 49,60l-57 7 -42 4c10,-55 33,-26 -11,-50l4 20 -30 12 12 60c13,41 -2,12 22,37 -2,3 -4,7 -5,9 -1,1 -4,6 -5,8 -1,2 -3,6 -4,8 -8,16 -3,3 -10,25l40 34c-13,-50 -6,-62 9,-104 41,35 58,64 49,123 -3,3 -7,7 -9,9l-32 42c1,3 4,7 5,9l4 84c-22,5 -14,9 -25,-16 -18,22 -9,-32 -15,35 0,7 5,28 7,40 21,-38 6,-16 30,-37l10 20 56 -14c-6,35 6,13 -14,48 -7,13 -13,13 -22,23l1 1 -1 116 -5 38c-9,77 -15,29 -25,78 -16,75 26,106 23,142 -5,56 7,10 -28,59l17 44 22 21c20,16 14,2 20,43 -12,43 0,58 -3,113l-27 9c38,20 18,29 37,77 -32,14 -20,1 -47,11 42,27 14,-6 30,47 -49,35 9,30 -47,43l18 10 5 45c53,-8 13,-2 30,10 -6,67 1,10 -32,74 15,10 9,1 13,25 64,-1 17,-4 40,16 -1,20 1,47 -2,62 -12,57 -17,32 -32,41l15 40c27,19 26,22 39,49l-21 13c-22,10 12,1 -30,10 -11,32 -18,-4 -2,41 24,-16 -2,-11 35,-5 28,-26 -37,-38 62,-8l-39 -51c6,-54 -3,-5 23,-27 7,-66 11,-92 11,-165 1,-224 8,-95 23,-153 -6,-87 -19,-51 2,-141 9,-40 2,-127 3,-176l-12 -7c-9,-65 -8,-26 13,-37 -34,-58 -24,-94 -8,-138l-35 -25c13,-97 32,-49 -3,-135l39 -15c-1,-25 -7,-30 -10,-42 4,-77 -18,-26 -11,-99 5,-51 5,15 7,-41 0,-13 -4,-40 -6,-54l14 -23c4,-40 -1,-65 -1,-104 7,-68 12,-69 1,-130 -8,-44 -10,-57 2,-99 -19,-93 -17,-90 -1,-145 1,-5 4,-6 7,-33 5,-44 -4,-120 9,-154 -1,-61 3,-28 -19,-55 -2,-3 -5,-6 -6,-8 -12,-18 -5,-4 -8,-31l38 -13 0 -38c-28,-3 -17,13 -32,-6l27 -41c12,-61 -2,-116 7,-176 9,-67 -17,-90 -5,-169 -17,-18 -19,-13 -20,-43l2 -54c-31,-31 -14,-10 -41,-31l-1 -49c5,1 24,9 25,9l20 7c2,-82 -2,-19 13,-41 0,-1 3,-26 3,-29 -2,-20 -5,-20 -10,-30l9 -12c3,-83 -14,-26 8,-105l8 -31 1 0c-19,-13 -13,-9 -37,-17 2,-12 7,-32 8,-35 4,-28 -1,-11 3,-34 28,-181 7,-66 9,-238l1 -122c-17,23 -4,-32 -20,35 -16,69 11,-7 2,88 -55,-15 -67,3 -124,-22 15,38 17,24 32,64 -23,41 -25,28 -32,76 -44,-13 -5,21 -50,-25z"/>
   <path class="fil4" d="M3647 9370l-21 1 0 18 46 -18 14 74 26 -37c-8,89 1,58 31,115l-11 10c-1,0 -4,2 -5,2l-31 30 7 -95c-72,1 -12,-14 -72,25l-9 -26c-15,21 -10,-7 -15,41 -3,40 1,21 6,48l15 15 -9 30c47,24 14,19 38,99l-38 -24c19,45 18,87 2,139 40,0 17,-24 36,36 -64,-60 -6,45 -29,-19 -2,-6 -7,-5 -10,-9 -1,45 7,130 5,153 -6,49 -7,98 -6,158l42 -51c19,21 3,-10 17,36l30 87c-4,2 -9,4 -12,5l-29 -2c-45,-20 20,-49 -49,-49 2,13 12,70 11,75 -10,70 -38,-56 4,185 30,-19 10,18 26,-17 9,19 21,38 12,71 -8,29 -28,38 -41,48 5,48 -14,62 23,84 -3,-35 -7,-32 21,-60 19,17 18,-18 27,35 2,13 -8,67 -57,98l-2 -6c-27,13 -14,-21 -17,36 0,9 9,39 10,43 21,92 -12,66 -12,66 4,28 3,30 4,46 2,24 -34,13 14,35 8,-23 -15,-19 28,-17l-17 24 5 52 19 8c-2,3 -5,4 -5,10l-10 28c51,12 35,15 48,25l-35 100c29,-17 -2,-6 27,-46 -11,84 -26,65 -31,131 0,3 2,7 1,9 -9,51 7,13 -23,29l-9 -33c-6,5 -17,2 -26,17l1 54c8,3 7,-10 20,6l-3 61c25,-17 21,9 30,-20 -4,21 -3,43 -6,57 -15,76 1,25 -28,49 7,38 9,84 5,123 -4,45 -25,50 -24,90l36 24c-13,-48 -13,-8 -7,-34l11 -19c25,14 9,7 30,8l42 -5c-21,-47 14,-6 -54,-51 73,-25 64,-12 78,9 19,28 16,58 -1,87l-7 147 47 -4c3,-49 -5,-7 -6,-47 -1,-31 9,-58 10,-78 1,-37 -8,-90 -18,-132 45,-14 22,-140 19,-183 -5,-46 -19,-97 21,-139l7 -12 -3 -27c-62,-21 -25,5 -52,-30l29 -10c25,-47 14,-129 30,-170 -2,-33 6,-18 -24,-38 -7,-38 -5,1 19,-17l2 -17c-31,-2 -17,4 -40,-9l-1 -124 -27 -47c46,-14 12,-1 51,-28l13 -12c-61,-179 32,-54 -52,-164l39 -27c-12,-36 -13,-64 -30,-91 32,-58 27,2 25,-63 -1,-31 -13,-39 -16,-69 -2,-20 22,-120 25,-155l-45 -5c-11,-49 -20,6 -30,-25 -1,-4 -7,-2 -10,-4 27,-17 31,-19 54,-40l7 -29c-3,-2 -7,-6 -8,-7l-12 -10c-1,0 -4,-2 -6,-3l28 -38c-10,-36 -40,-83 9,-83 -15,-58 -17,-2 -7,-62 6,-38 9,-51 9,-91l-17 -22c-23,-58 0,62 -5,-45 -3,-87 10,-36 33,-42l3 -38 -17 -92 -15 -32 31 6c-34,-56 4,-57 1,-110 -2,-46 -16,-87 2,-144l-33 -11c-25,24 -19,-22 -29,51l-27 44c-35,4 -27,-1 -60,-6 47,91 -4,74 -11,77z"/>
   <path class="fil5" d="M5424 10724c-53,-3 -1,-37 -34,-102 3,0 21,-4 23,-4l12 5c1,1 4,3 6,3 1,0 5,1 7,2 62,10 -27,-13 23,-1 19,5 18,10 26,19 35,-45 37,-24 78,-5 26,12 42,6 64,-5l3 -69 59 -25c8,58 -12,40 29,33 -6,42 1,20 -14,43l41 -18c39,-28 36,-37 28,-88 -10,30 -13,28 -32,49 -17,-17 -37,-15 -5,-46l29 -32 -70 -12 54 -66c-19,-10 -26,-8 -32,-12 -50,-30 -16,10 -30,-46 71,-25 49,9 93,15 41,6 69,-26 85,-44 -75,-12 -10,-30 -101,-2 -4,-57 -7,-44 -26,-90l48 -30 -14 -83c4,3 -14,8 -32,-7l10 -64c17,20 16,-27 23,53l3 -83c-52,-1 -29,4 -61,-13l-34 20c5,4 12,-4 17,10 23,71 5,14 -8,38 -73,-26 -37,-66 -62,-104 -7,-11 -17,-18 -29,-31 9,-7 6,-9 25,-16 3,-1 19,-4 23,-5 -52,-6 -47,-2 -50,-54 -83,6 -35,-2 -53,-15l36 -47c2,-2 6,-4 8,-6l46 -36c-15,-21 -8,-13 -30,-28 -29,-22 -19,-1 -33,-36 14,-30 -5,-10 16,-15l49 -11 -11 -47c-36,-9 -23,-7 -63,-23 0,65 -21,97 -46,149l-85 -12 9 -61c-61,83 54,141 -167,217 50,18 80,31 126,26 2,0 6,0 8,-1l129 -5 0 43 41 -5c-14,34 -8,16 -20,52 13,18 10,27 46,38l-41 36c2,3 10,14 11,17l20 27c-62,2 -22,-16 -54,22 16,8 23,6 25,7l36 18c-17,15 -14,8 -16,23 -9,71 -28,82 -3,123 -57,-12 -41,-10 -33,-55 -69,1 -27,31 -22,86 63,-33 27,-3 38,3 0,39 4,65 14,92 -68,-2 -61,-25 -112,-40l10 37c1,3 5,7 7,10 2,3 5,6 8,10 -23,17 -16,16 -41,31 38,36 50,35 23,94l-123 -114c-11,-29 -14,-42 -18,-52 -4,6 -11,-18 -13,34 -2,45 29,92 32,95 2,2 5,5 6,7 2,2 6,5 8,7 1,1 5,4 7,6l-43 21c-28,4 -22,0 -49,-8l-35 67c-9,29 -15,68 -15,99l26 8c9,4 11,5 22,20 15,-11 -1,-12 29,-16 38,-5 88,35 116,3 1,-3 4,-8 4,-6l-5 -22z"/>
   <path class="fil6" d="M6354 9349c-14,59 1,1 -27,59 24,23 25,34 26,78l58 103c-43,-15 -14,-6 -56,-18l-3 32c8,36 4,54 8,95 8,77 -29,-3 5,64 24,24 20,-23 20,29 -27,14 -22,-27 -19,38l18 10c-4,40 -3,63 -4,92 -1,50 -20,128 14,238 51,-2 5,6 53,-11 -7,65 15,21 -42,56l0 8 33 186 -49 -3 6 26c52,24 32,65 33,113 1,45 -1,101 0,155l13 -1c4,2 10,0 12,6 22,70 -9,-13 19,13 32,30 -3,-18 14,20 -37,16 6,-5 -53,7l-8 18 52 8c3,76 4,12 -20,40l3 -9c5,1 46,31 102,-75 22,-41 11,2 -1,-14 39,75 43,57 85,63 -12,-45 21,-35 -18,-38 20,-68 -28,30 6,-16l10 -42c-18,31 38,46 -34,17 -2,-8 -11,-40 -11,-41 -7,-68 1,-33 14,-45l7 -60c-31,-11 -25,-2 -44,-21 3,-2 17,-16 20,-17 31,-12 11,-8 38,-1l25 -80 -50 -24c-6,-42 -15,-39 -17,-68 -2,-31 36,-103 -17,-234l9 -19 -31 1 12 -15 -36 0 5 -72c-16,8 -5,-4 -12,7 -1,0 -2,3 -3,4 -7,17 8,48 -53,44l28 -42c2,-2 5,-7 7,-11l-34 -4c9,-52 41,-64 93,-54l10 -68c-2,-16 11,1 -6,-25l-25 -56c-19,11 -4,-1 -22,15 -12,10 -15,18 -18,21 -16,-12 -9,-6 -24,-20 -1,-1 -12,-17 -15,-20 9,-54 54,-75 -4,-128 22,-56 18,-67 49,-79 23,-9 4,1 6,3l0 -49c-44,31 -45,-1 -48,-3l26 -17c2,-1 5,-4 6,-6 10,-11 6,-12 9,-28l-37 -25c-5,-81 -9,-18 -19,-65 -11,-52 19,12 -2,-52 -2,-1 -5,-2 -6,-2l-40 -13c-5,56 16,21 -5,58l-41 -36z"/>
   <path class="fil7" d="M3523 14360l30 -12 -4 -20 13 -61 -32 -9c7,-20 7,-32 11,-45l18 -39 -6 -37 -15 -18c-21,-35 -8,-27 6,-58l-30 -19 -1 -155 6 -31c14,-28 -13,-17 25,-24 -26,-23 -26,-7 -37,-32 -37,-79 10,-54 10,-54l20 4 13 -17c1,-2 3,-6 4,-8 7,-18 5,-21 7,-41l8 -12 -51 3 -10 -41c0,-27 4,-29 5,-36 2,-32 -1,-15 -4,-49 -4,-49 7,-58 -15,-102l-14 -117c10,-31 -1,-20 5,-47 12,-56 4,-24 28,-36 2,-54 -25,-47 -24,-132l3 -204 -1 -10c5,-43 -2,-10 -5,-67l9 -209c16,-10 17,3 29,-16 -24,-37 12,-21 -41,-30l9 -18c-8,-46 -5,-20 -10,-34 -26,-84 -5,-38 -3,-78l13 -127c14,-72 -6,-76 -8,-106 -5,-56 13,-60 47,-66 -96,-11 -19,0 -62,-109 40,-34 26,-16 40,-77l-36 -8c-1,-19 17,3 -11,-17 25,-28 18,-16 31,-64l-37 -7c-2,1 -4,1 -5,3l-31 20c4,39 4,136 22,159l-19 24c-8,11 -13,21 -18,31l13 64c1,109 -9,57 35,115 -23,71 -11,79 2,143l-77 -41c-2,-2 -5,-4 -7,-6l-44 -15 1 47c39,25 36,11 75,49 36,-7 14,-3 50,-12 -10,24 -9,48 -24,67 -26,34 -14,-5 -48,37 29,16 18,10 60,7 11,36 3,21 24,44 -19,11 27,25 -39,-4l3 464c-2,2 -6,2 -7,6l-25 19c42,27 26,14 43,55 -31,10 -12,5 -45,0 -29,137 -2,66 -68,99 2,25 -10,15 27,51 1,121 -1,128 36,206 16,31 7,58 31,83 42,42 36,-35 48,57l-43 -25c12,38 2,13 3,50 6,141 -12,147 -10,217l35 21c-10,34 -29,69 -33,86 -11,46 3,55 -15,98l47 37 42 -35 31 43c-51,63 -12,-1 -3,48 8,37 -6,51 -20,73l16 25c6,14 4,4 8,26 -29,26 -44,4 -58,62 22,-8 8,0 23,-12l27 -28 4 34z"/>
   <path class="fil8" d="M3569 10955l15 1c-8,-57 -12,-28 -4,-68 10,-58 -7,-39 41,-68 0,0 33,26 12,-66 -1,-4 -10,-34 -10,-43 3,-57 -10,-23 17,-36l11 -67c-37,-22 -18,-36 -23,-84l3 -102c-42,-241 -14,-115 -4,-185 1,-5 -9,-62 -11,-75l1 -26c-1,-60 0,-109 6,-158 2,-23 -6,-108 -5,-153l3 -8c16,-52 17,-94 -2,-139l-14 -53 14 -22 9 -30 -15 -15 -29 -84 48 -28c-1,-3 -9,-23 -10,-28 -3,-20 1,-20 4,-29l0 -18 -7 -7c-4,-8 -7,-12 -11,-33 -1,-2 -2,-35 -3,-41l-1 1c-17,-11 -31,19 -22,-45 0,-1 16,-41 18,-47 -38,17 -29,-33 -31,17 -67,56 -4,30 -34,76 -30,99 25,211 -17,307 -5,12 -2,-6 -10,27 -24,93 11,63 -51,127l25 240 -49 -10 15 145c32,-22 37,-12 17,-55 -13,-30 -21,16 -18,-39 4,-90 -9,-11 28,-47 27,181 5,140 64,202l-6 382c17,10 13,-5 23,26l-27 153c16,15 9,14 26,25 -16,20 -19,16 -18,48 0,2 1,6 1,9l-5 108c15,-9 10,-6 33,-10l3 25z"/>
   <path class="fil9" d="M3456 11868l37 7c-13,48 -6,36 -31,64 28,20 10,-2 11,17l36 8c-14,61 0,43 -40,77 43,109 -34,98 62,109 -34,6 -52,10 -47,66 2,30 22,34 8,106l-13 127c-2,40 -23,-6 3,78 5,14 2,-12 10,34 21,-13 13,-2 28,-19l28 -47c8,-13 15,-27 21,-38 32,25 10,-31 21,22 -20,-63 2,-60 16,-71l3 -24c-8,0 -21,2 -26,1 -26,-7 -11,-2 -26,-11 -4,-97 8,-33 24,-99 -3,-2 -7,-9 -8,-7l-17 -10c-3,-2 -7,-3 -10,-4 -7,-3 -27,-8 -39,-11 22,-50 -4,12 5,-61l36 -50 31 -49 -35 -10c16,-53 4,-12 28,-59 -51,-24 -44,-22 -19,-87l59 24 -1 -26c-19,-15 -28,23 -20,-51l-32 7 -11 -69c32,11 4,3 36,13 1,-7 3,-33 6,-38 17,-32 0,-15 32,-23l-16 -106c-1,-40 20,-45 24,-90 4,-39 2,-85 -5,-123l4 -86 3 -61c-13,-16 -12,-3 -20,-6 -46,7 -29,16 -65,35l-6 -40 53 -26 -16 -64 34 -21c1,-4 6,-3 9,-4 -4,-2 -11,-9 -12,-14 -1,-5 -2,-7 -5,-10 -25,-42 -18,-97 0,-142 -36,-35 -29,-21 -35,-51l-61 22 27 54c1,3 -8,188 -26,208 -9,11 -10,12 -20,22 10,33 6,19 18,51 -31,85 -15,80 -27,154 36,30 40,22 40,77l-51 31c4,49 9,23 -11,58 40,43 24,52 34,115 -62,66 -40,42 -36,121z"/>
   <path class="fil10" d="M4760 11580c62,-4 41,15 71,6 39,-11 8,-7 8,-12l-14 -23c-1,-3 -4,-7 -6,-11l33 -22 17 37c36,-22 -2,-14 60,-13 -2,2 -7,2 -8,7 -4,15 -25,-2 -36,52 -5,23 0,30 -8,68l75 -10c57,-21 26,-14 97,-17l0 -27c3,3 6,4 7,8 2,4 6,6 8,6 18,10 -2,5 24,9l9 -42 36 42c-3,2 16,-21 17,-23 11,-17 8,-8 17,-34l-38 -19 10 -83c20,29 11,17 15,79 20,-11 13,-7 41,-12 -13,-46 -5,-16 -13,-31 -4,-9 -6,-6 -11,-22 24,-16 24,-21 49,-37 -2,-2 -6,-9 -7,-7l1 -62c3,0 31,6 35,7l-6 -81c-16,15 -29,35 -37,48 -28,-58 25,-8 29,-113 -33,-14 -18,-5 -41,-12 15,-27 17,-32 22,-75 -35,9 -8,-3 -30,18 -2,1 -4,5 -5,6l-20 19c-23,25 -24,38 -62,56 2,44 0,54 -13,83 80,42 -18,-13 26,13 3,1 12,7 15,9l-19 31c-1,1 -5,4 -8,6l41 25c-24,37 -65,103 -114,118 -4,-54 -4,-86 -4,-130 1,-20 -4,-55 -4,-67 0,-57 12,17 5,-62l-32 19c-29,26 -16,28 -8,40 1,1 5,4 7,7 -33,15 -26,-12 -23,55 10,-22 18,-43 39,-24 31,29 4,28 -14,56 33,43 32,16 13,73 -37,-16 -40,3 -42,-72 -55,2 -90,14 -80,-47 8,-53 33,-46 47,-49l-31 -1c-8,-55 -13,-113 16,-141 -16,-14 -13,-11 -32,-22 1,-5 2,-17 3,-15l7 -20c11,-28 -8,-22 -11,-53 -8,-79 4,-37 21,-51l-1 -26c4,66 -4,7 20,33l34 -35c2,-34 -1,-27 -11,-57l133 8c-43,-14 -19,-6 -47,-18l34 -30c9,-8 20,-17 29,-26l-35 -1c-2,0 -6,-1 -8,-1 -32,-12 -16,-28 -78,-44 27,-28 33,0 41,-82 -42,15 -39,19 -93,13l46 -27c-21,-25 -11,9 -5,-48 -10,-7 -25,-17 -36,-25 31,-22 8,-15 60,-18 2,-32 5,-33 13,-60 -23,-32 -44,-34 -55,-64l-8 -32c-19,23 -13,6 0,42 16,42 -41,238 -48,251 67,59 2,188 -18,259 -15,51 -10,23 -40,42l39 34c3,3 7,7 10,10 -27,33 -11,139 0,195 -58,24 -15,46 -55,157 -17,45 -4,85 -123,55 69,10 44,-11 58,34z"/>
   <path class="fil11" d="M3622 11764c-27,43 -18,112 -11,161l1 26 -5 26c34,-28 10,7 21,-37 23,-83 -36,-84 62,-164l14 73c-12,8 -16,26 -58,1l2 72c35,-31 1,2 19,-25l17 -27c0,0 28,15 -13,68 -50,65 -45,40 -65,27 24,25 -20,20 22,20l-29 39c-9,27 7,35 24,48l-10 25c50,20 67,46 66,46l-20 63c-10,-1 -5,-3 -17,1 13,36 11,24 28,54l-41 85c-14,34 8,-1 -12,22 2,25 14,49 -11,40l5 88 -23 44 5 36 27 4c-12,32 4,10 -17,35 3,2 7,3 8,9l22 44 56 -31c10,53 8,27 -7,82 29,30 19,39 41,61 -58,-9 -26,-55 -73,-7 -20,-7 -5,-6 -17,-22l-24 20c-21,-17 -5,8 -12,-29 -49,0 3,113 5,117 -5,6 -14,14 -17,17 -21,25 -9,8 -15,22 45,46 6,12 50,25 7,-48 9,-35 32,-76 -15,-40 -17,-26 -32,-64 57,25 69,7 124,22 9,-95 -18,-19 -2,-88 16,-67 3,-12 20,-35l-3 -53 3 -36c-12,11 -16,-1 -28,24 5,-85 9,4 15,-66 3,-29 -29,-57 11,-58l-6 -61c-86,8 -14,-13 -57,-3 -2,1 -7,4 -9,5l63 -158c-28,-16 -11,-1 -29,-30 14,-22 -28,-14 36,-19l9 -94c3,-27 12,-28 14,-43 5,-44 -5,2 -7,-49 -2,-33 11,-45 4,-99 -4,-23 -24,-22 3,-122l-47 4 7 -147c-32,5 -18,0 -35,12 -2,2 -4,5 -6,7 -2,2 -5,6 -7,8 -2,1 -6,11 -7,8 -2,-2 -5,6 -8,9l-57 -25c18,52 9,26 11,50 0,3 -4,11 -4,10 0,-2 -4,5 -6,8z"/>
   <path class="fil12" d="M6491 11237l-22 0c16,67 23,18 22,72 35,9 15,-7 33,16 -15,18 27,27 -31,9l1 28 -15 3 -20 34c93,-25 26,-11 44,5 -38,60 -2,17 -16,81 -12,56 -13,29 1,83 -21,30 9,0 -16,18 -4,83 35,103 -7,169l6 77c4,-3 10,-6 13,-7l20 -6c4,8 22,-19 6,28 -6,19 -40,28 -57,38 0,7 6,66 6,67 -4,53 17,22 -21,35l8 54c-31,55 -23,12 -28,76 -3,48 -4,55 -14,98l36 55 7 -24c26,10 4,-14 23,25 -11,15 3,6 -28,12 -6,51 13,2 -20,52l46 -4c5,1 9,4 13,6 4,1 9,4 13,7l-4 -73c99,-61 28,-34 39,-85 9,-35 18,4 24,-55 2,-27 -5,-46 -7,-77 3,-2 14,-10 16,-12 15,-10 10,-6 22,-15l4 -30c-3,-6 -6,0 -13,-32 -1,-4 -3,-20 -4,-25 -3,-42 -2,-16 4,-58 7,-37 6,-9 12,-48 -8,-44 -11,-49 -13,-100 -2,-53 -19,-72 17,-85l-8 -72 -28 -16c20,-45 22,-7 0,-64l32 -3 -8 -28 -6 -9c-2,-3 -5,-7 -5,-9 -1,-2 -4,-6 -5,-10l-6 -64 -2 -22 46 -53c-36,-20 -20,-7 -47,-33 4,-40 7,-29 7,-64 -11,80 -38,-36 -51,72 -29,-26 -44,36 -19,-37z"/>
   <path class="fil13" d="M6331 9008c4,89 -25,50 8,137l35 -3 -6 35c13,-17 11,-4 22,-34 1,-3 4,-23 5,-27 28,10 -2,-29 27,20 15,26 22,57 -7,75l-47 -1 -4 44c19,47 23,5 10,51 -39,20 1,-2 -22,36l2 8 41 36c21,-37 0,-2 5,-58l40 13c1,0 4,1 6,2 21,64 -9,0 2,52 10,47 14,-16 19,65l37 25c-3,16 1,17 -9,28 -1,2 -4,5 -6,6l-26 17c3,2 4,34 48,3l0 49c-2,-2 17,-12 -6,-3 -31,12 -27,23 -49,79 58,53 13,74 4,128 3,3 14,19 15,20 15,14 8,8 24,20 3,-3 6,-11 18,-21 18,-16 3,-4 22,-15 17,-35 10,1 7,-40 -2,-3 -6,-10 -6,-8 -1,2 -5,-7 -6,-9 0,-1 -11,-30 -11,-32l2 -9c-38,-23 -14,15 -28,-38l27 20c46,-2 15,6 26,-25l-12 -145c-1,-2 -4,-9 -4,-7 -1,1 -22,-28 3,-67l12 -19 -18 -18 -1 -42c-14,13 -33,28 -33,52 -40,-129 -32,-99 8,-103 -2,-4 -4,-15 -6,-13l-7 -50c-5,-42 -5,-87 -6,-129 -1,-61 -15,-76 -11,-130l-42 -35 -4 -45 -14 -10 22 -12 -16 -40c-12,36 17,11 -17,24l-38 -23 28 -3c0,-31 -40,-9 -76,-6 -24,-23 -13,-19 -51,-31l-25 30 32 -13c-26,67 -2,55 -6,128 19,13 17,11 29,28 15,-11 23,-26 34,-39 17,67 41,52 0,72z"/>
   <path class="fil14" d="M3538 16004l-9 8c9,173 -12,156 2,286 10,98 -11,114 5,316l46 2 -34 -24c24,-24 -31,-31 52,2l-18 36c36,-24 18,-16 59,-27l3 -34 67 -14c-11,-35 -9,-11 -11,-39 -2,-45 -3,-10 8,-33l-6 -31c52,-19 11,-1 34,-35l-9 -16c15,-38 -8,-176 -24,-228l-31 53c-17,-28 -9,-13 -18,-42l-15 -66c-1,-2 0,-6 -1,-8l-4 -29c-39,1 -30,2 -57,-11 -1,-56 -4,-16 17,-23 22,-33 25,-21 35,-62 -12,-29 -19,-25 -51,-41l-8 60 -32 0z"/>
   <path class="fil7" d="M3522 15250l16 5 30 -5 2 -51 -29 -24 27 -19 -11 -98 -27 -21c25,-39 12,-15 29,-22l9 -23c-1,-48 -11,-146 11,-173l0 -16 -13 -40c-2,-12 -7,-33 -7,-40 6,-67 -3,-13 15,-35l-32 -77 27 -57c2,-3 3,-8 4,-13l-40 -34c7,-22 2,-9 10,-25 1,-2 3,-6 4,-8 1,-2 4,-7 5,-8 1,-2 3,-6 5,-9 -24,-25 -9,4 -22,-37l-79 37c3,43 -1,23 13,52l-65 1 -21 -51c-14,132 -13,138 21,150 -13,26 -14,21 -23,51 108,55 9,42 101,52 -32,117 52,31 -14,167 21,61 27,42 22,127 -40,-8 -3,1 -48,-13 -5,57 -6,87 -13,128 21,-15 33,-30 50,-51 4,45 9,65 53,58 -12,19 -7,9 -22,24 -16,14 -20,19 -32,34l13 52c3,0 6,-2 7,0 9,35 11,-35 24,12z"/>
   <path class="fil15" d="M5763 10904c2,0 -1,0 -1,2 -12,45 9,-13 -31,10 26,56 -2,58 -8,89l2 24c-4,42 -33,78 -59,105 -99,-11 3,-25 -87,-22l-3 129c-78,-9 -49,14 -89,-29 -31,36 -23,2 -76,23l-4 -72 -32 42c-2,2 -5,6 -8,9l-21 -77c-11,17 -15,27 -26,52l-19 -56c-8,5 -15,13 -16,15 -21,38 -15,44 -37,62 15,26 4,-2 11,37 13,-19 19,-31 34,-50 16,15 27,13 42,64l24 -15c2,-1 5,-6 7,-7 1,-2 4,-6 7,-8l-27 69c-1,75 -26,52 -11,86 9,-11 23,-24 31,-41 24,-51 27,-83 62,-12 1,2 3,7 4,8 1,2 2,6 4,9 2,-3 4,-10 4,-8 0,1 2,-13 47,-44l38 40 12 -53c34,7 17,0 36,12l-10 -56c42,29 12,-5 33,42 38,-33 4,-20 57,-9 14,-30 8,-31 32,-61 50,2 55,25 82,47 -9,-30 -12,-27 -13,-65 19,12 -6,18 71,1 10,20 3,34 40,32 26,-1 -4,6 17,-5l-36 -101c34,6 13,2 51,12 -71,-169 3,-47 -34,-213 -17,73 -31,48 -51,65 -46,41 51,41 -54,47 24,-44 34,-103 18,-163l-13 34z"/>
   <path class="fil14" d="M3800 8999c7,25 4,4 -13,14 -95,-19 -51,-21 -153,-4 13,23 -15,19 14,21l-29 20c-1,80 2,29 20,89 -89,4 -9,-4 -44,26l34 2 -8 18 28 31c-40,26 -46,13 -45,75l1 -1 29 10 -13 24c39,7 30,17 26,46 7,-3 58,14 11,-77 33,5 25,10 60,6l27 -44c10,-73 4,-27 29,-51l33 11 -6 -30 -34 -17 22 -27c-5,-44 26,-1 60,13 23,9 53,10 78,19l13 -8c13,-36 -26,-27 23,-30l27 -19 0 -9 -46 -62 16 -50c-55,-5 -28,6 -52,-20l-2 -7 -106 31z"/>
   <path class="fil5" d="M5973 10609l-30 21c-2,0 -5,3 -7,4 2,2 6,2 7,6l55 46c-59,36 -19,-5 -46,58 -17,41 -20,22 -16,82l118 -4c-18,80 -1,18 1,107l-44 -50c-29,27 -27,52 -82,16 -3,42 2,66 22,94 23,-45 -7,-22 37,-45l15 71c29,-15 27,-7 59,5 -21,-46 -10,-46 0,-96 81,0 25,4 48,-15l44 26c1,0 3,3 4,3l28 12c1,-2 4,-6 5,-8l10 -39c-25,-13 -30,-1 -52,-12 3,-108 47,-13 32,-58 34,-16 14,12 31,-35l50 23c4,-45 10,-47 -8,-92l-38 39c-92,-8 -72,-19 -90,-43l-69 1c68,-60 30,-119 -20,-152 -23,30 -2,-2 -11,42 0,1 -1,5 -2,7 -2,-3 -5,-10 -5,-9l-28 -90c-23,28 -17,27 -18,85z"/>
   <path class="fil16" d="M6395 16401c-57,27 -7,27 -58,25 -10,39 -14,7 1,48l-7 54c26,-25 12,39 25,-44 15,88 -12,51 66,108l-40 0c22,45 4,7 71,33 43,17 3,21 70,20 12,-32 34,-114 25,-155 12,-63 12,24 1,-20 -9,-38 -6,13 -9,-23 -7,-73 10,-33 22,-46 5,-33 -7,-45 -19,-80l-8 -50 -28 65c-26,-41 -6,-42 -45,-27l-16 -49c-41,9 -46,24 -55,-41 -19,86 -6,96 4,182z"/>
   <path class="fil0" d="M5939 9465l-13 0c-7,-4 -11,-11 -11,-12 -10,56 -44,98 -15,141 38,55 -53,-40 28,26 2,1 6,3 9,6 -46,6 -22,-2 -49,14 8,53 21,16 -5,64l-18 -65 -28 56c-32,-20 -19,-27 -48,-19 -4,18 -2,27 -5,38 -11,54 1,18 -16,41 -8,-36 -2,-22 -25,-38l-35 27c-5,73 15,-6 3,56 -1,2 -11,23 -11,24 -4,29 48,56 27,-19 25,-5 11,2 33,-9l25 -18c-11,85 -63,72 11,78 49,4 9,-21 48,27 17,20 26,32 38,46l-1 -85c-29,-7 -53,-16 -78,-27 17,-16 -23,-11 44,-27 26,-6 38,-3 63,-3 -1,53 -16,51 -1,77 31,-27 21,-11 25,-64l47 -9c5,-68 11,-69 -22,-102l19 -22c30,-41 -6,-11 30,-38 -47,3 -16,-6 -47,16 -23,-58 15,-18 -25,-47 -2,-1 -6,-3 -8,-4l-32 -30 35 -45c35,40 -5,48 40,66 9,-42 27,-68 36,-101 -21,-34 -15,-8 -19,-39 -4,-34 10,-25 -2,-52l-38 -11c2,52 8,43 -9,83z"/>
   <path class="fil5" d="M5718 12170c-1,-66 14,-108 -5,-157l55 0c-2,2 -5,3 -6,7l-16 32c10,14 20,27 32,39 6,-63 -3,-50 28,-88 -24,-38 2,-14 -39,-35l39 -29c-35,-14 -10,0 -38,-38 -13,17 -19,28 -36,39 -22,-43 3,-93 -43,-48 -8,-72 -7,-12 -18,-59 -11,-46 32,-21 -18,-40l-20 62c-47,8 -17,16 -54,-4 4,30 -1,15 27,34 1,1 5,4 7,6 -37,51 -34,46 -10,86 -44,2 -35,-3 -65,13 54,42 3,-13 64,9 -14,43 -28,46 -73,64 2,2 6,1 7,5l22 17c24,12 14,8 45,11l-17 48 122 -38c-7,57 -4,44 10,64z"/>
   <path class="fil5" d="M5214 10063c21,-3 35,-9 57,-6 63,8 17,2 39,19l-46 29c-2,1 -5,5 -7,7 -33,-17 -23,-16 -51,-37 -40,72 -70,11 -77,100 1,0 4,0 5,2 6,23 55,-24 34,73l92 -43c9,73 23,23 3,89 19,14 6,12 37,14 -39,-5 0,4 -22,-20 2,-4 5,-12 6,-10l23 -29c9,-18 15,8 -5,-41l81 15c-5,-75 -22,-57 17,-115 -2,-2 -6,-8 -6,-6 -1,2 -5,-6 -6,-7 -18,-36 -14,-49 -16,-91l-92 15c-11,-54 13,-14 3,-65 -2,3 -6,3 -7,7 -1,6 -11,12 -13,14 -5,5 -18,19 -20,23 -12,26 22,-4 -29,63z"/>
   <path class="fil17" d="M5473 11642l63 31c24,11 38,23 53,33l91 -66 4 56c19,-29 1,-10 23,-24 42,-26 65,-13 68,-66 -6,-3 6,-3 -31,1 -1,-2 -8,-33 -8,-33 -2,-18 -1,-13 1,-23l13 0c0,0 14,15 16,17l-17 -109c-29,-57 11,22 -5,-41l-55 53 -34 -34c-44,-11 -11,-20 -53,-33l-26 74c15,8 5,2 22,7l19 6c-26,45 0,15 -51,39 17,24 33,32 60,53 44,35 38,-2 41,50 -51,-21 -36,0 -78,-38 -96,22 -68,37 -116,47z"/>
   <path class="fil12" d="M6460 10801c12,34 31,90 -2,120l2 35c5,10 15,28 19,42 5,13 6,27 8,32 9,23 4,13 15,27l3 -27c3,46 11,23 27,26 1,-3 9,-10 5,-33 0,-1 -15,-38 -17,-43 34,38 30,62 37,91l17 39 28 -40c12,-45 14,-20 11,-63 -4,-38 -37,-16 2,-59 -46,-105 -22,-67 3,-155 24,23 25,-33 18,36 10,-15 7,0 10,-25 5,-38 -11,27 0,-29 -42,-6 -46,12 -85,-63 12,16 23,-27 1,14 -56,106 -97,76 -102,75z"/>
   <path class="fil18" d="M6547 12960l-11 88c30,-77 -3,-28 -21,-45 -2,3 -5,4 -6,9 -1,5 -5,7 -6,9 -26,64 -3,52 -1,61 10,35 3,66 5,89 18,-32 3,-12 35,-22l27 46c51,12 6,6 26,-16l-13 -91c-6,-30 9,-172 32,-201 15,-16 4,-5 15,-34 -27,2 -32,-8 -35,-34l6 -35c1,-2 4,-6 5,-7 1,-2 4,-5 6,-7 -29,-38 -21,-20 -14,-77 19,-20 -3,-7 37,-11l6 -28 -39 -23 -2 -58c-5,-40 11,-8 -38,-8l-14 395z"/>
   <path class="fil19" d="M6414 12421c5,32 -1,26 -9,59 29,17 15,2 32,34l-11 141c-22,22 7,4 -35,17l24 22 3 44 23 6 -6 -127 58 43c2,2 5,5 7,6 16,13 1,3 24,15 26,-68 33,-24 37,-116 49,0 33,-32 38,8l-11 -44c-36,-9 -21,-3 -37,-15 12,-59 -14,-62 -15,-121 -44,8 -50,10 -70,-31 -10,45 -1,55 -52,59z"/>
   <path class="fil6" d="M6502 11057c-18,69 -23,99 -11,180 -25,73 -10,11 19,37 13,-108 40,8 51,-72 0,35 -3,24 -7,64 27,26 11,13 47,33l-46 53c54,-11 6,7 56,-20l28 -57c3,47 -5,1 23,25l6 -43c-48,7 -31,-5 -27,-59l-13 -47 2 -23 2 -22c-46,3 -33,12 -30,-36l-28 40 -17 -39c-7,-29 -3,-53 -37,-91 2,5 17,42 17,43 4,23 -4,30 -5,33 -16,-3 -24,20 -27,-26l-3 27z"/>
   <path class="fil20" d="M3519 12892c19,24 37,31 44,59 0,1 -2,10 -1,8 0,-2 -3,6 -7,12l-63 -60 -3 204 12 0 43 12c25,-34 16,-18 46,-50 8,-78 -29,-49 9,-128 -19,-27 -14,-20 -29,-51 6,-14 -6,3 15,-22 3,-3 12,-11 17,-17 -2,-4 -54,-117 -5,-117l1 -15 -37 6c4,-39 6,-25 -8,-52l-46 12 48 106 -50 15c-2,-4 -8,5 -12,7 3,3 8,7 10,10 2,2 7,6 9,8 21,28 3,25 7,53z"/>
   <path class="fil4" d="M6422 12335l-8 86c51,-4 42,-14 52,-59 20,41 26,39 70,31 1,59 27,62 15,121 16,12 1,6 37,15l17 -72c-31,0 -13,-24 -19,-43 -8,-23 -9,-22 -22,-40l22 -29c-36,-17 -42,-29 -53,-61 14,-31 16,-37 46,-47 9,-44 -3,-19 26,-29l-16 -129c27,-24 6,-10 23,-37l-30 20 2 -35c-12,9 -7,5 -22,15 -2,2 -13,10 -16,12 2,31 9,50 7,77 -6,59 -15,20 -24,55 -11,51 60,24 -39,85l4 73c-4,-3 -9,-6 -13,-7 -4,-2 -8,-5 -13,-6l-46 4z"/>
   <path class="fil21" d="M6498 14937c18,5 16,-7 13,43l3 46c-12,65 0,85 -24,139 51,26 23,117 8,149 31,52 19,-3 26,76 9,19 32,134 41,171 -23,21 28,8 -30,22l20 69 -7 26c-9,32 -36,182 -27,223 11,49 19,46 34,56 -7,-93 22,-17 -18,-119 44,-60 19,-82 25,-166 5,-82 17,-82 3,-167 -10,-63 -19,-109 -6,-177 8,-39 16,-16 0,-67l-19 -43c-35,-70 46,-15 -22,-134 22,-56 18,-55 17,-115 -3,-111 9,-111 -26,-110 -3,50 -6,31 -11,78z"/>
   <path class="fil22" d="M6061 16327l35 40c-16,11 -12,8 -22,29 -9,-15 -8,-5 -28,-15l-1 36c41,21 23,21 56,60 97,1 60,14 91,-17l-43 8c2,-44 7,-24 12,-56 4,-28 -8,-18 7,-46l60 60c-78,0 -8,-5 -32,26l38 -8c22,-49 -4,-25 31,-40l-15 -89c-2,-2 -6,-6 -7,-8l-9 -33c-62,-4 -81,7 -130,26 -4,1 -7,2 -10,3l-33 24z"/>
   <path class="fil23" d="M5171 16310l-1 41 -67 -60c-1,3 -2,8 -3,10 -30,58 20,3 -60,48 -10,34 3,62 25,94l37 3 9 -29c8,4 13,5 14,9 7,16 -16,14 55,11l17 35c45,-24 52,-38 76,-84 -26,-67 -11,-36 -54,-82 -3,-2 -27,-16 -27,-17l-21 21z"/>
   <path class="fil24" d="M6040 11057c24,84 30,-48 39,176 61,-4 35,8 53,-63 36,16 39,3 78,-4 4,-57 -3,-49 23,-89 -21,-20 -13,-10 -22,-38 -68,-2 -55,-3 -75,-30 -1,-2 -4,-6 -5,-8 -1,-2 -3,-6 -5,-8l-20 39c-3,-5 -6,-39 -6,-39 -5,-21 -6,-17 -12,-27 -16,66 -17,51 -33,70 -13,16 -5,3 -15,21z"/>
   <path class="fil23" d="M5513 8884l-17 17c41,25 31,17 55,49l17 -23c15,-13 11,-11 53,-6 -6,22 2,26 -22,47l-25 7c-1,0 -5,-1 -7,0 -2,0 -6,-1 -8,-1 -2,1 -6,0 -9,1l-44 12c-4,-48 -2,-27 -11,-46l-29 -22c-1,21 -4,44 -1,68 9,64 -2,27 22,47l0 -78c-4,16 -21,-25 -4,30l11 17c0,0 33,19 37,21l-10 27c5,24 58,6 94,10 18,-19 59,-56 75,-75 -12,-68 -26,-38 -23,-115l-154 13z"/>
   <path class="fil23" d="M4172 8869l7 29 26 22c-28,41 14,30 -68,52l8 15 -2 6 30 38 26 5c13,-51 2,-35 36,-61 8,17 0,18 -5,50l29 -8 59 9 6 -28c6,-41 5,0 -6,-32 -6,-17 -8,-15 -11,-41 47,17 7,-3 52,37 31,0 4,3 15,-15 -12,-45 -25,-34 -53,-72 -72,-5 -86,-17 -149,-6z"/>
   <path class="fil25" d="M4945 8982c45,17 20,-6 25,26l-12 29c58,-17 34,-18 41,34 6,41 -23,-10 15,52l42 -5c-10,-59 -6,-15 16,-34 2,-2 14,-7 16,-9 1,0 14,-10 15,-12 27,16 6,-2 21,34 2,-3 6,-10 7,-8 1,2 5,-5 6,-7 2,-2 9,-11 11,-13l7 -22c12,83 -3,7 26,41l10 -77 -34 12c-30,-14 -34,-9 -62,-28 -45,-31 -41,-3 -31,-52l-92 -10c-8,22 -15,34 -27,49z"/>
   <path class="fil26" d="M6469 11237l22 0c-12,-81 -7,-111 11,-180 -11,-14 -6,-4 -15,-27 -2,-5 -3,-19 -8,-32 -4,-14 -14,-32 -19,-42l-24 -17 22 -18c33,-30 14,-86 2,-120l-3 9 3 -31c-66,4 -14,5 -35,-17l8 -18 0 -27c-41,2 -21,-10 -25,32 -7,63 9,33 18,51 24,53 7,52 -4,66l-16 12c33,47 -7,61 29,128 -16,25 -20,35 -32,64 44,55 48,92 66,167z"/>
   <path class="fil14" d="M3929 16478l17 23c-27,-1 -35,-2 -82,16l-7 -27c-9,6 -24,13 -35,20l-4 57c28,34 18,30 51,54l-28 2 41 37 20 -3c52,-8 39,-14 85,-13l30 -25 -64 -27c13,-16 20,-32 30,-47 23,-30 19,-8 34,-43 -29,17 4,6 -40,14l-11 -50c0,0 -32,10 -37,12z"/>
   <path class="fil16" d="M4715 16352c-39,26 -22,10 -44,55l51 -4c7,35 22,70 44,104l80 0c18,-36 6,-31 56,-46l1 -7c-3,-1 -8,-3 -10,-4 -2,-1 -7,-3 -10,-5 -36,-25 -27,-35 -29,-56l32 -8c-5,-8 -12,-26 -16,-31 -21,-30 9,4 -22,-24l-60 38c-11,16 -20,-21 -9,20 -13,-15 -21,-22 -31,-32 -15,62 3,28 -46,36l13 -36z"/>
   <path class="fil27" d="M4904 11041l-3 41c32,33 23,36 43,84 42,9 39,20 64,21 1,0 31,-5 42,-3 62,7 -22,7 53,11 32,-60 22,-81 0,-125 -109,22 -63,-3 -123,1 -35,3 20,2 -40,8l-17 -31c-24,-26 -16,33 -20,-33l1 26z"/>
   <path class="fil23" d="M4562 8914c-43,-5 -36,1 -39,36l2 31 61 5 -9 36 -51 -23 1 39 -12 2 37 7 55 22c43,11 80,19 111,-9 10,-10 21,-31 25,-40 18,-45 7,-21 0,-26 -16,-23 -41,50 -10,-50 -1,3 -4,7 -5,10l-21 44c-64,-17 -1,-25 -93,-16l-30 -32c-2,-5 -8,-2 -11,-3l49 -25 -17 -25 -11 11 -32 6z"/>
   <path class="fil28" d="M5494 16274c-1,18 23,20 -13,13l-32 -11c-19,18 -14,-32 -21,41l-19 -2c2,3 6,4 7,10 2,14 9,13 13,19 8,14 2,-2 10,22 63,-2 10,-3 32,12 -22,-48 7,-22 16,-30 5,9 13,24 19,34 7,11 17,22 22,28l31 -5 41 -39c43,0 7,-4 23,19l10 -5c3,-28 2,4 -10,-18 -9,-18 -1,6 -17,-36 24,-2 15,12 19,-15 -50,-49 -13,-47 -87,-67l-44 30z"/>
   <path class="fil29" d="M5801 16277l-17 5c-16,24 -2,7 -28,20 -3,1 -21,3 -25,3 2,3 6,5 7,7 2,2 6,5 8,7l-4 52c14,16 34,29 38,47 32,-8 25,-7 54,-15 -52,-60 -25,12 -19,-27 3,-20 28,-23 34,-26 -1,15 -2,21 -5,36l-8 31c0,2 -1,6 -2,9l53 14 45 -103c-11,-32 13,-18 -20,-29 -9,-44 3,-4 -23,-22 -15,49 -2,20 -17,26l-11 -41 -42 2 0 28c-31,8 -21,11 -18,-24z"/>
   <path class="fil24" d="M6191 11616c-4,141 -8,92 -50,118 23,16 12,13 65,11 -14,29 -14,34 -14,79l23 12c22,-21 -36,-8 33,-19 -40,-6 -25,-2 -45,-19 35,-22 38,-2 86,-4 1,-43 10,-52 11,-75 4,-56 -25,-20 1,-70 -25,13 -27,20 -58,33 12,-59 32,-26 35,-64 2,-39 -16,-35 -18,-31 -1,3 -7,-3 -8,-3 -35,3 -28,10 -61,32z"/>
   <path class="fil10" d="M4773 11900l-29 -49 -30 18c-1,1 -5,4 -7,6 -54,-65 -51,18 -68,-42 -1,51 10,-9 43,68l71 -6c20,55 0,43 72,43 -3,2 -13,10 -14,12l-14 14c54,2 60,-4 65,50l17 -41c8,7 7,26 28,36 47,21 3,9 33,-7 -7,28 6,27 -35,38 -1,0 -4,0 -6,1 14,8 -1,7 26,10 2,0 31,-2 35,-2l1 -120 -37 -13c-36,50 -27,25 -61,48 -2,-3 -5,-11 -5,-9l-9 -19c-10,-18 9,-1 -12,-22 -15,-15 -5,-3 -17,-8l-28 -8 29 -148c-25,9 -11,-2 -28,18 -21,26 -20,91 -20,132z"/>
   <path class="fil30" d="M6050 11811c17,-34 9,-70 24,-115 -22,-29 -17,-17 -28,-51 34,9 24,4 42,23 38,-28 17,-26 63,-11l0 -38c-36,-18 -34,7 -52,-38 -1,-4 -5,-18 -8,-25l-29 38 -75 -13c-36,72 -14,76 -12,151l65 -25c26,63 4,-2 2,43 -2,35 2,29 8,61z"/>
   <path class="fil11" d="M6441 12744c2,4 11,16 12,17 -9,-102 -7,-21 18,-42 16,50 5,37 39,58 15,-13 12,5 32,-39 8,-18 6,-24 14,-42 8,36 17,30 -10,73 -2,2 -4,4 -6,7l-25 45c11,13 20,24 31,39l-13 25c-1,2 -4,7 -5,9 -1,2 -4,6 -5,9l-41 7c-7,5 -14,17 -21,26l17 18c20,26 -2,-12 15,22 35,-10 22,-7 54,-16l14 -395c-4,92 -11,48 -37,116 -23,-12 -8,-2 -24,-15 -2,-1 -5,-4 -7,-6l-58 -43 6 127z"/>
   <path class="fil16" d="M5899 9099l84 -37c-42,-17 -26,-14 -38,-25 36,-14 23,-5 56,-24l0 -23c-2,-1 -5,-6 -5,-4 -1,1 -5,-5 -6,-6 -2,-2 -16,-23 -16,-23 -11,28 1,15 -18,29 -15,-18 -7,-6 -23,-21 -25,-23 6,12 -19,-21l-56 3c14,12 9,23 24,26 -31,25 -34,35 -82,41 26,58 33,72 99,85z"/>
   <path class="fil31" d="M3538 16004l32 0 8 -60c-15,-52 42,-24 49,-135 -4,-24 2,-15 -13,-25 33,-64 26,-7 32,-74 -17,-12 23,-18 -30,-10 -26,-23 -18,42 -18,-22l-29 19 -11 13c5,72 -10,119 7,179 -52,46 -29,54 -27,115z"/>
   <path class="fil32" d="M6527 13551c-1,-23 -2,-16 4,-30l50 7 -7 -68 -5 -42c-9,17 -15,31 -34,45 -17,-79 31,-120 36,-150 -14,-62 17,-18 -34,-45l8 -18c-13,-43 -9,-23 -24,-58 -23,20 -62,-25 -25,61 0,0 10,12 18,3 -3,51 -8,80 14,122l-92 6 48 53c65,43 28,24 29,40 2,25 13,96 -16,98 4,-55 -8,2 30,-24z"/>
   <path class="fil33" d="M6391 12672c42,-13 13,5 35,-17l11 -141c-17,-32 -3,-17 -32,-34 8,-33 14,-27 9,-59l8 -86c33,-50 14,-1 20,-52l-2 -13 -36 -55c-25,15 -8,7 -19,31l-7 79c10,9 14,-7 21,36 5,30 0,32 2,64l-11 8c-2,1 -6,3 -7,5l-27 23c9,53 -3,28 39,53 -52,111 43,21 -4,158z"/>
   <path class="fil21" d="M6501 13895l2 4 0 40 24 83 42 16c-17,60 -8,-2 -25,43 14,71 8,-3 28,64 18,-18 39,52 7,-122 -8,-46 -6,-67 -3,-115 -13,-53 -31,29 -22,-130 -8,3 -28,7 -35,12 6,79 -27,30 7,96l-25 9z"/>
   <path class="fil34" d="M5476 10916l30 20c1,1 5,4 8,6l-40 51c5,19 6,26 10,41l16 35 64 -90c15,28 4,35 13,50 33,-51 2,-128 -4,-171 -16,34 1,22 -37,36 1,-62 -15,-47 36,-63 -37,-13 -14,-16 -48,-3l-5 -59c-5,89 2,90 -43,147z"/>
   <path class="fil35" d="M5359 11057c28,-28 20,-11 25,-51 2,2 6,2 7,6l42 16c-9,-37 -13,-118 25,-163l-50 -41c56,-2 51,-5 79,30 0,-29 6,-25 -8,-45l-35 -28c10,44 5,22 -21,35l-38 -39c-46,76 13,41 -14,138l-12 142z"/>
   <path class="fil36" d="M3524 12609c-12,19 -13,6 -29,16l-9 209c3,57 10,24 5,67l28 -9c-4,-28 14,-25 -7,-53 -2,-2 -7,-6 -9,-8 -2,-3 -7,-7 -10,-10 4,-2 10,-11 12,-7l50 -15 -48 -106 46 -12c14,27 12,13 8,52l37 -6c15,-3 7,3 19,-5 -14,-49 20,-8 -30,-41l10 -47c-21,-9 -19,0 -32,-13l11 -50 -11 -8c-8,63 6,71 -47,75l6 -29z"/>
   <path class="fil37" d="M6591 11649c1,16 2,38 6,49 20,46 5,3 40,49 -17,11 -22,12 -30,29l-20 58c-6,39 -5,11 -12,48 21,11 12,-12 30,30l29 5c21,-87 -29,38 0,-136 10,-55 10,-105 3,-149 7,-8 13,-33 16,-38 -45,19 -9,36 -24,-5l22 5c1,-5 2,-18 3,-16l2 -80 -60 43c19,43 24,68 -5,108z"/>
   <path class="fil38" d="M4266 16523l3 28c24,14 31,9 59,1 22,72 0,16 28,42l-3 -46 47 16c17,-27 21,-30 51,-42l2 -48 -23 -12c-69,-10 -41,17 -108,24l-19 -23 -31 6c9,56 24,24 -6,54z"/>
   <path class="fil34" d="M5486 11811c-8,-12 -1,2 -13,-23 -4,-6 -8,-18 -13,-26 -36,46 -49,4 -59,78 -40,-28 -67,-65 -60,-21 3,19 29,32 42,45l10 15c1,1 3,5 5,7 26,-26 51,-35 95,-17 24,10 -14,0 32,18 6,-9 5,5 17,-33 8,-29 6,-23 8,-55 -38,-14 -30,-14 -52,-53l-12 65z"/>
   <path class="fil31" d="M3578 15328c8,43 3,119 -3,161 -7,54 2,83 0,145 11,26 2,18 18,11 14,-15 23,-17 25,-50 4,-68 12,-15 -20,-50l22 -78c-16,-17 -8,15 -14,-25 -2,-12 1,-23 3,-33 3,-14 10,-21 15,-58l26 -6c-6,-41 0,-27 -20,-43l-22 -21c-6,3 -54,-20 -30,47z"/>
   <path class="fil30" d="M5133 12127c95,-4 -36,-24 74,-35l-29 50c35,1 63,6 81,27 29,33 -1,45 23,86 18,-28 12,-44 11,-88 18,-30 6,19 -1,-10l-5 -13c-6,-66 15,-16 -11,-88 -11,54 4,2 -19,25l-13 -14c-10,-13 -7,-10 -14,-24l-37 39c-15,-24 5,-8 -27,-24 13,-32 7,-18 24,-30 -15,-40 8,-7 -33,-35 -13,24 -8,36 -9,57 -2,33 -9,54 -15,77z"/>
   <path class="fil25" d="M3595 13639c17,19 17,-30 12,34 -4,41 -37,62 -53,96l-17 -19 -20 -4c10,43 3,44 44,67l17 1c18,16 65,53 64,-6l-9 -84c1,2 -2,6 8,-13 22,-42 20,-28 -6,-73 -2,-3 -6,-12 -8,-15 -11,-16 -8,-12 -19,-23l-13 39z"/>
   <path class="fil26" d="M6147 12501c33,45 50,51 117,49 8,-53 3,-78 -41,-131 -29,-36 21,-17 -54,-27l-22 109z"/>
   <path class="fil39" d="M3567 13217c3,2 7,2 8,6l39 13c-27,73 -4,93 -57,147 32,10 38,12 59,41 25,-18 29,-9 47,-53 -25,-52 4,-33 -53,-53l65 -105 -42 -38c-22,5 -22,1 -40,12 -37,24 -10,5 -26,30z"/>
   <path class="fil16" d="M3553 14137l6 37 3 93 -13 61c44,24 21,-5 11,50l42 -4 8 -67c1,-108 -48,-122 -12,-179 1,-2 6,-3 7,-8 1,-5 4,-5 2,-7l-3 -59 -44 3 -7 80z"/>
   <path class="fil30" d="M6191 11616c6,-71 29,-8 34,-99l40 -26c-6,-44 1,-27 -30,-48l44 -41c-71,-13 -48,5 -78,-49 -21,37 -43,46 -34,74 41,52 43,-2 52,77l-90 51c13,16 13,16 29,32 21,21 2,9 33,29z"/>
   <path class="fil26" d="M6350 15983c-6,-64 13,-45 4,-101 -16,-92 -9,-23 4,-95 12,-71 -35,-164 10,-230l-18 -12c-75,171 -92,42 -9,191l-26 20c-1,-2 -4,4 -6,5 58,67 13,129 10,207 10,19 6,2 31,15z"/>
   <path class="fil40" d="M5704 16372c15,41 20,35 37,68 67,8 92,23 165,22 12,-32 25,-63 41,-87l-15 -38 -45 103 -53 -14c1,-3 2,-7 2,-9l8 -31c3,-15 4,-21 5,-36 -6,3 -31,6 -34,26 -6,39 -33,-33 19,27 -29,8 -22,7 -54,15 -4,-18 -24,-31 -38,-47 -2,-1 -5,-4 -6,-5l-14 -20c-19,-24 2,-11 -29,-23 -6,46 -9,12 11,49z"/>
   <path class="fil18" d="M6391 16219c9,65 14,50 55,41l16 49c39,-15 19,-14 45,27l28 -65 8 50c20,-21 11,3 17,-47 2,-15 2,-36 3,-52l-28 -71c-15,36 -27,58 -40,94 -4,-1 -15,-4 -18,-4l-86 -22z"/>
   <path class="fil41" d="M6497 15999c66,-17 -9,-1 60,-27l-2 -15c-15,-10 -23,-7 -34,-56 -9,-41 18,-191 27,-223l-29 10 9 -39c-38,23 -23,-2 -32,48 -1,5 4,43 4,51 0,30 -16,51 -21,67 4,37 22,64 20,100 -3,40 -10,22 -10,46 1,56 5,-21 8,38z"/>
   <path class="fil13" d="M3621 11024l20 7 6 88 -4 40c-3,30 -12,13 -6,62l9 33c30,-16 14,22 23,-29 1,-2 -1,-6 -1,-9 5,-66 20,-47 31,-131 -29,40 2,29 -27,46l35 -100c-13,-10 3,-13 -48,-25l10 -28c0,-6 3,-7 5,-10l-19 -8 -12 -5c-21,48 -16,18 -22,69z"/>
   <path class="fil42" d="M6564 14133l8 12c-20,-67 -14,7 -28,-64l-21 -23c-36,-3 -51,-7 -58,-48 -2,-16 0,-35 4,-52 14,-55 -3,-21 20,-36 -16,-32 48,-29 -38,-24l-1 126c-21,21 -17,9 12,28l-3 86c1,3 2,7 3,11 4,1 9,0 11,4 8,15 62,-14 91,-20z"/>
   <path class="fil43" d="M3606 11658l16 106c2,-3 6,-10 6,-8 0,1 4,-7 4,-10 -2,-24 7,2 -11,-50l57 25c3,-3 6,-11 8,-9 1,3 5,-7 7,-8 2,-2 5,-6 7,-8 2,-2 4,-5 6,-7 17,-12 3,-7 35,-12 17,-29 20,-59 1,-87 -14,-21 -5,-34 -78,-9 68,45 33,4 54,51l-42 5c-21,-1 -5,6 -30,-8l-11 19c-6,26 -6,-14 7,34l-36 -24z"/>
   <path class="fil44" d="M3764 13967l-5 107c-13,34 -4,110 -9,154 -3,27 -6,28 -7,33 -16,55 -18,52 1,145l43 13c-24,-38 13,-10 -39,-29 9,-66 1,-31 32,-79l12 -27c-35,-51 -19,-24 -22,-159 -3,-96 49,-165 -6,-196l0 38z"/>
   <path class="fil34" d="M5348 11977c19,49 14,14 18,63 2,17 6,64 10,99l56 -9 5 -63c-34,27 -38,47 -55,-13 69,-3 98,16 128,0 -41,-30 -16,-19 -76,-9 -6,-16 -4,-17 -10,-31 -15,-35 -4,-8 -19,-33 -24,-40 -22,-23 -7,-66 -39,26 -29,25 -50,62z"/>
   <path class="fil45" d="M3548 12132l15 0c25,-10 20,-5 48,7l2 -42 10 -25c-17,-13 -33,-21 -24,-48l29 -39c-42,0 2,5 -22,-20l1 12 5 -26 -59 -24c-25,65 -32,63 19,87 -24,47 -12,6 -28,59l35 10 -31 49z"/>
   <path class="fil13" d="M3611 12139c15,20 19,-44 12,30 -43,10 -6,-6 -20,38l7 49c30,-13 -14,68 7,112 20,-23 -2,12 12,-22l41 -85c-17,-30 -15,-18 -28,-54 12,-4 7,-2 17,-1l20 -63c1,0 -16,-26 -66,-46l-2 42z"/>
   <path class="fil39" d="M3568 14992l-9 23c19,26 2,-9 14,30 7,22 3,11 8,35 3,-47 5,-1 -24,-22l11 98 2 43 -2 51 2 40 8 38c-24,-67 24,-44 30,-47l-17 -44c35,-49 23,-3 28,-59 3,-36 -39,-67 -23,-142 10,-49 16,-1 25,-78 -18,33 -16,-41 -15,41l-38 -7z"/>
   <path class="fil46" d="M6527 13551l10 76c-14,9 22,26 -36,8 8,58 -15,27 15,87 23,45 1,40 -22,71 17,42 13,25 -2,73 23,14 14,-13 9,29l25 -9c-34,-66 -1,-17 -7,-96 7,-5 27,-9 35,-12l-10 -68c3,-42 6,-57 22,-84 -3,-2 -5,-13 -6,-10 -11,26 -13,-19 -15,-22 16,-42 14,-11 36,-66l-50 -7c-6,14 -5,7 -4,30z"/>
   <path class="fil4" d="M3610 14307c33,-3 36,-59 39,-93l-39 -12c15,-32 26,-10 47,-81l10 -31c-26,-7 -11,3 -24,-29l-39 -7 3 59c2,2 -1,2 -2,7 -1,5 -6,6 -7,8 -36,57 13,71 12,179z"/>
   <path class="fil47" d="M4743 8994l-2 -47c-4,-3 -9,-10 -16,-16 -22,-17 -9,-8 -31,-18l0 -10 -89 -6 17 25 -49 25c3,1 9,-2 11,3l30 32c92,-9 29,-1 93,16l21 -44c1,-3 4,-7 5,-10 -31,100 -6,27 10,50z"/>
   <path class="fil25" d="M6506 14497c10,-52 -3,-160 29,-174l-1 -39 -6 6c-61,5 -16,-18 -24,-47 -1,-3 -1,-7 -2,-10 -1,-3 -6,-11 -9,-14 -10,14 -40,98 -47,123 2,1 5,1 6,3l15 15c24,37 -21,14 41,39 -18,53 -42,89 -11,136l8 -15c0,-1 1,-18 1,-23z"/>
   <path class="fil48" d="M6569 13195c1,87 2,37 -24,55l-8 18c51,27 20,-17 34,45 -5,30 -53,71 -36,150 19,-14 25,-28 34,-45l5 42c21,-46 8,-133 15,-192 6,-52 28,-72 11,-141l-18 -39 13 91c-20,22 25,28 -26,16z"/>
   <path class="fil49" d="M3365 14098c18,-7 33,22 39,-88 3,-58 4,-87 -14,-118 -57,11 -38,17 -38,92l1 89c5,26 2,10 12,25z"/>
   <path class="fil47" d="M6565 10072l2 -51c20,-26 8,-45 -7,-77 -52,-10 -84,2 -93,54l34 4c-2,4 -5,9 -7,11l-28 42c61,4 46,-27 53,-44 1,-1 2,-4 3,-4 7,-11 -4,1 12,-7l-5 72 36 0z"/>
   <path class="fil50" d="M5494 16274l44 -30c74,20 37,18 87,67 -4,27 5,13 -19,15 16,42 8,18 17,36 12,22 13,-10 10,18 35,-43 1,-7 40,-34l5 -80 -22 40 -70 -69c-38,-38 -18,-35 -81,-52 4,48 4,45 -11,89z"/>
   <path class="fil30" d="M6059 11421c-37,5 -16,-4 -44,10 -4,72 21,80 -2,124 89,-13 -5,-14 97,-102 -18,-49 -7,-50 -35,-87l-16 55z"/>
   <path class="fil13" d="M3617 12722c71,-31 16,-12 37,10l-21 19c12,16 -3,15 17,22 47,-48 15,-2 73,7 -22,-22 -12,-31 -41,-61 15,-55 17,-29 7,-82l-56 31 -22 -44c-1,-6 -5,-7 -8,-9l-6 19 -10 47c50,33 16,-8 30,41z"/>
   <path class="fil51" d="M3626 9389c-3,9 -7,9 -4,29 1,5 9,25 10,28l-10 23 9 26c60,-39 0,-24 72,-25l-7 95 31 -30c1,0 4,-2 5,-2l11 -10c-30,-57 -39,-26 -31,-115l-26 37 -14 -74 -46 18z"/>
   <path class="fil30" d="M6050 11811c-19,24 -8,17 -41,26 -14,-42 19,-7 -34,-37l-26 49c-1,-2 -4,-7 -5,-8 -1,-2 -4,-6 -5,-8 -1,-1 -3,-5 -5,-7 -17,26 -22,29 -22,72 43,-10 29,-13 61,13 20,-18 -8,-8 30,-20l17 -2c16,-2 24,4 30,-78z"/>
   <path class="fil52" d="M5410 10201l26 -66c43,16 50,28 51,81 -33,-10 -16,-5 -48,-17l46 73c1,3 4,7 7,10 -15,-93 42,-60 16,-155 -9,-34 -51,-28 -85,-28 -19,32 -33,63 -13,102z"/>
   <path class="fil40" d="M3578 15944c32,16 39,12 51,41 32,-5 30,9 19,-17l-15 -40c15,-9 20,16 32,-41 3,-15 1,-42 2,-62 -23,-20 24,-17 -40,-16 -7,111 -64,83 -49,135z"/>
   <path class="fil53" d="M3492 12561l-9 18c53,9 17,-7 41,30l-6 29c53,-4 39,-12 47,-75 -27,10 -22,-4 -33,13 18,-39 3,-1 23,-37 11,-19 9,-20 16,-37l40 -6 -5 -88c-14,11 -36,8 -16,71 -11,-53 11,3 -21,-22 -6,11 -13,25 -21,38l-28 47c-15,17 -7,6 -28,19z"/>
   <path class="fil54" d="M5286 11034c-43,-28 2,-14 -53,-18 -19,37 -32,36 -39,80l123 -3c5,-90 -11,-17 -18,-118l-4 -19c-18,31 -10,33 -9,78z"/>
   <path class="fil34" d="M5247 11453c37,22 28,3 70,16 25,7 40,23 54,34 13,-52 7,-52 48,-60 13,-3 1,23 20,-5 1,-1 1,-4 1,-5l-42 -5c8,-34 11,-25 0,-49 -48,14 -58,37 -82,52 -1,0 -4,2 -5,2 -17,8 -32,0 -64,20z"/>
   <path class="fil55" d="M4418 16403l-82 13c-2,2 -11,11 -14,14l-1 8 -18 25 19 23c67,-7 39,-34 108,-24 4,-18 -6,-5 7,-25 20,-33 8,-13 28,-27l-2 -26 -26 7 -19 12z"/>
   <path class="fil56" d="M6331 9008c41,-20 17,-5 0,-72 -11,13 -19,28 -34,39 -12,-17 -10,-15 -29,-28 4,-73 -20,-61 6,-128l-32 13c-20,-1 -8,71 -5,90 8,55 15,41 45,86l49 0z"/>
   <path class="fil57" d="M3755 15311l13 2c-10,-27 -17,-43 -14,-75 5,-64 6,5 22,-68l-26 -35 -2 -137 -39 15c35,86 16,38 3,135l35 25c-16,44 -26,80 8,138z"/>
   <path class="fil24" d="M5039 10263c-17,-28 -20,-52 -40,-84l-51 -1c-2,-1 -13,-11 -17,-13 -4,26 -34,138 108,98z"/>
   <path class="fil25" d="M5439 16366c2,22 1,45 10,59 16,23 -3,-1 26,19 3,2 9,10 12,7 2,-4 8,5 12,6l-19 13 81 -3 0 -16c-59,9 -10,7 -30,-22 50,-19 10,-1 28,-24l-31 5c-5,-6 -15,-17 -22,-28 -6,-10 -14,-25 -19,-34 -9,8 -38,-18 -16,30 -22,-15 31,-14 -32,-12z"/>
   <path class="fil58" d="M3987 16644l53 -3c13,-35 26,-127 -23,-139 -15,35 -11,13 -34,43 -10,15 -17,31 -30,47l64 27 -30 25z"/>
   <path class="fil59" d="M6611 11332l-14 65 12 20c27,0 17,13 23,51l29 -24c33,-9 0,-41 -4,-60 -10,-42 4,-44 14,-72l-9 -12c-28,-24 -20,22 -23,-25l-28 57z"/>
   <path class="fil11" d="M6632 11468l-53 -2 8 28 -32 3c22,57 20,19 0,64l28 16 8 72c29,-40 24,-65 5,-108l60 -43 5 -54 -29 24z"/>
   <path class="fil60" d="M3573 14541c-1,5 -2,10 -4,13l-27 57 32 77c11,25 3,21 25,16l-4 -84c-1,-2 -4,-6 -5,-9l32 -42c2,-2 6,-6 9,-9 -23,-24 -7,5 -13,-27 -9,-43 8,19 -3,-30 -3,2 -8,5 -10,7 -2,2 -6,5 -8,7l-24 24z"/>
   <path class="fil61" d="M6492 9242l29 -13c-9,-48 -4,-66 -1,-116 6,-81 -12,-54 -23,-126l-22 -4c-4,54 10,69 11,130 1,42 1,87 6,129z"/>
   <path class="fil62" d="M3778 13128c-1,-53 10,-38 -12,-77l33 -37c-19,-70 -5,-177 -38,-210 -2,172 19,57 -9,238 -4,23 1,6 -3,34 -1,3 -6,23 -8,35 24,8 18,4 37,17z"/>
   <path class="fil26" d="M6322 15320c4,-42 20,-78 19,-134 -1,-35 -5,-31 -8,-65 -5,-44 20,-40 -22,-61 -3,28 -5,43 -11,70l-15 56c104,83 -67,161 37,134z"/>
   <path class="fil63" d="M6194 12182l-26 -49c-53,100 -37,18 -51,74l40 7c66,2 64,-4 76,-53 4,2 28,10 40,15l-9 -52c-33,0 -22,11 -55,0 -14,42 -11,18 -15,58z"/>
   <path class="fil13" d="M3607 11977l-1 -12c20,13 15,38 65,-27 41,-53 13,-68 13,-68l-17 27c-18,27 16,-6 -19,25l-2 -72c42,25 46,7 58,-1l-14 -73c-98,80 -39,81 -62,164 -11,44 13,9 -21,37z"/>
   <path class="fil36" d="M6428 10699c-1,-54 1,-110 0,-155 -1,-48 19,-89 -33,-113l12 39c-33,-22 4,-14 -50,-18 15,59 -4,57 54,63 -25,91 -10,22 0,71 16,79 -26,58 17,113z"/>
   <path class="fil39" d="M5466 8919l29 22c9,19 7,-2 11,46l44 -12c3,-1 7,0 9,-1 2,0 6,1 8,1 2,-1 6,0 7,0l25 -7c24,-21 16,-25 22,-47 -42,-5 -38,-7 -53,6l-17 23c-24,-32 -14,-24 -55,-49l17 -17 -60 15 13 20z"/>
   <path class="fil39" d="M4145 8987l-8 -15c82,-22 40,-11 68,-52l-26 -22 -28 1 19 -25c-28,16 -42,22 -83,29l2 44 56 40z"/>
   <path class="fil56" d="M5892 9130l7 -31c-66,-13 -73,-27 -99,-85 48,-6 51,-16 82,-41 -15,-3 -10,-14 -24,-26 -23,27 -3,14 -37,40 -38,27 -19,0 -50,37 20,63 58,68 100,112l21 -6z"/>
   <path class="fil64" d="M3568 14992l38 7c-1,-82 -3,-8 15,-41l5 -38c-28,-32 -30,-17 -28,-93l-19 -8c-22,27 -12,125 -11,173z"/>
   <path class="fil65" d="M6545 16032l-10 119 28 71c9,-52 11,-61 27,-103 -58,-86 20,-133 -33,-147l-12 60z"/>
   <path class="fil66" d="M6615 10948c-39,43 -6,21 -2,59 3,43 1,18 -11,63 -3,48 -16,39 30,36 42,-46 10,-79 4,-126l28 -6c4,-54 7,-22 -15,-32l-34 6z"/>
   <path class="fil14" d="M5409 16459c4,2 13,6 16,8 2,1 8,4 11,5 3,2 8,4 13,7l-24 -35c78,21 12,0 39,27l16 -1 19 -13c-4,-1 -10,-10 -12,-6 -3,3 -9,-5 -12,-7 -29,-20 -10,4 -26,-19 -9,-14 -8,-37 -10,-59 -8,-24 -2,-8 -10,-22 -4,-6 -11,-5 -13,-19 -1,-6 -5,-7 -7,-10l-33 0c2,51 9,-8 22,60 6,31 5,56 11,84z"/>
   <path class="fil67" d="M5899 9099l-7 31 36 -2c45,-4 19,8 48,-17l51 -59c-2,-3 -5,-7 -7,-9l-19 -30c-33,19 -20,10 -56,24 12,11 -4,8 38,25l-84 37z"/>
   <path class="fil68" d="M6481 10251c-3,102 -16,37 28,77 37,-59 30,-56 23,-102l-79 -24c6,128 26,49 28,49z"/>
   <path class="fil34" d="M5184 11597c-18,149 -10,102 -43,112l37 50c10,-40 2,-23 26,-50l15 -73c22,-6 22,-23 23,-53 -35,9 -16,6 -58,14z"/>
   <path class="fil40" d="M6350 14167c82,17 18,9 52,-6 29,-14 9,-5 39,-36l-10 -39 -73 -4c-13,11 -5,-12 -8,14 -4,46 2,-11 2,18 0,24 1,25 -2,53z"/>
   <path class="fil60" d="M3634 16081l4 29c1,2 0,6 1,8l15 66c9,29 1,14 18,42l31 -53 -3 -62 -26 -9 -5 -26c-37,-6 -11,-11 -35,5z"/>
   <path class="fil69" d="M6511 14636c11,29 1,13 22,39l2 41c25,-24 -5,43 20,-23 14,-38 -17,-67 -18,-73 -11,-68 42,-124 -17,-124 6,45 -13,64 -26,102l17 38z"/>
   <path class="fil70" d="M3581 12275l29 -19 -69 -36c21,-24 -23,5 18,-12 25,-11 11,0 23,-9l1 -32 -31 8 11 -43 -15 0 -36 50c-9,73 17,11 -5,61 12,3 32,8 39,11 3,1 7,2 10,4l17 10c1,-2 5,5 8,7z"/>
   <path class="fil70" d="M3612 11292l-1 -54c9,-15 20,-12 26,-17 -6,-49 3,-32 6,-62l-39 -11c3,3 4,5 5,10 1,5 8,12 12,14 -3,1 -8,0 -9,4l-34 21 16 64 -53 26 6 40c36,-19 19,-28 65,-35z"/>
   <path class="fil30" d="M5269 11951c10,-29 -15,5 12,-27 24,-28 14,-11 32,-24 24,42 -1,13 27,33 6,-65 -18,-36 -45,-70 -23,-28 -13,-79 -16,-127 -22,29 -33,61 -24,101 9,39 13,28 13,63 -1,45 -22,4 1,51z"/>
   <path class="fil34" d="M6077 12075l16 27c25,-20 -4,-10 44,-13 -22,-26 -5,3 -15,-40 25,12 10,8 27,8 1,0 29,-4 40,-5l-28 -47c1,-46 8,-32 -9,-66 -32,16 -10,-11 -27,23 -9,17 -9,25 -7,52 1,19 48,28 -41,61z"/>
   <path class="fil71" d="M3581 12275c-16,66 -28,2 -24,99 15,9 0,4 26,11 5,1 18,-1 26,-1l-3 24c25,9 13,-15 11,-40 -21,-44 23,-125 -7,-112l-29 19z"/>
   <path class="fil34" d="M5988 12158l-85 75c29,28 33,14 74,8 36,-6 14,12 58,-21l-47 -62z"/>
   <path class="fil53" d="M3604 11148l-1 -35 44 6 -6 -88 -20 -7 -37 -68 -15 -1c6,30 -1,16 35,51 -18,45 -25,100 0,142z"/>
   <path class="fil30" d="M5475 11480c-36,63 -43,13 -49,75l42 17c28,-47 15,-19 68,-40l16 -63c-37,26 -26,40 -77,11z"/>
   <path class="fil28" d="M3751 12276l-63 158c2,-1 7,-4 9,-5 43,-10 -29,11 57,3l-2 -38c-23,-21 -20,16 -17,-33 12,-12 -30,-33 25,0l-4 -45c3,-3 13,9 15,-32 2,-68 -1,-34 -23,-51l3 43z"/>
   <path class="fil72" d="M3617 10136l-1 26c69,0 4,29 49,49l29 2c3,-1 8,-3 12,-5l-30 -87c-14,-46 2,-15 -17,-36l-42 51z"/>
   <path class="fil10" d="M5875 10493c22,-38 23,-24 107,-29 -4,-101 9,9 -78,-75 -1,-1 -3,-3 -5,-4 -19,25 -25,69 -24,108z"/>
   <path class="fil25" d="M6523 14058c13,-22 9,-4 4,-36l-24 -83c-28,-5 -21,9 -14,-17 -23,15 -6,-19 -20,36 -4,17 -6,36 -4,52 7,41 22,45 58,48z"/>
   <path class="fil30" d="M5883 11482c-33,-14 -7,5 -24,-17 -2,-2 -4,-6 -6,-8l-16 44 131 -2 3 -108c-45,20 -17,13 -31,44 -17,36 -30,40 -57,47z"/>
   <path class="fil73" d="M5949 11118c5,-4 64,-28 69,-52 4,-22 -2,-29 -31,-31 -55,-5 7,38 -66,-6 -6,61 -3,41 28,89z"/>
   <path class="fil33" d="M5409 16459c-6,-28 -5,-53 -11,-84 -13,-68 -20,-9 -22,-60l6 -29c-29,7 -37,20 -44,102 11,7 -1,27 34,1 17,56 -1,38 37,70z"/>
   <path class="fil44" d="M4465 16410l50 44c3,1 7,4 9,6 2,1 6,4 9,6 -1,27 -11,21 -33,27l-11 46 12 29c16,-28 12,21 11,-65l46 8c10,-96 -35,-44 -94,-142 -62,-9 -6,-7 -27,22l26 -7 2 26z"/>
   <path class="fil74" d="M6530 9356l-5 -83 -4 -44 -29 13 7 50c2,-2 4,9 6,13 -40,4 -48,-26 -8,103 0,-24 19,-39 33,-52z"/>
   <path class="fil75" d="M6560 9944c15,32 27,51 7,77l-2 51 -12 15 31 -1 30 -74c-19,-46 -9,-12 -19,-59 -20,-52 6,19 -7,-35 -15,-62 18,39 -5,-22 -27,-73 52,22 -13,-20l-10 68z"/>
   <path class="fil34" d="M4755 11626l-119 -5 17 58 48 -36c-8,56 -24,30 16,60l6 -68c68,-10 -6,-1 74,13 -6,-66 17,-34 -23,-39 -20,-3 -18,6 -19,17z"/>
   <path class="fil30" d="M5143 11839c-13,2 4,28 -24,-27 -19,42 -1,47 37,71 40,-44 44,-18 61,-59 -102,-66 -18,-12 -74,-63 1,18 6,40 7,45l-7 33z"/>
   <path class="fil33" d="M6310 13798c18,0 48,-153 52,-179 16,-61 6,-10 -18,-26 -26,42 -10,20 -17,76 -6,48 -5,37 -34,60 10,17 11,39 17,69z"/>
   <path class="fil64" d="M4693 16444l16 67c12,2 26,6 36,5 28,-3 16,-4 21,-9 -22,-34 -37,-69 -44,-104l-51 4 -16 1 16 15c1,2 6,6 7,8l15 13z"/>
   <path class="fil25" d="M6497 15999c-14,-11 -58,35 13,85 13,-13 9,-6 22,-27l13 -25 12 -60c-69,26 6,10 -60,27z"/>
   <path class="fil76" d="M6490 15165c24,-54 12,-74 24,-139l-37 1c-1,53 1,52 -24,89 12,47 6,48 39,71l-2 -22z"/>
   <path class="fil13" d="M6615 10948l34 -6 -26 -50 21 -24 -8 -39c7,-69 6,-13 -18,-36 -25,88 -49,50 -3,155z"/>
   <path class="fil77" d="M3584 10956l39 2 -12 -25c16,-27 -10,-5 27,-16l1 -16c-48,-22 -12,-11 -14,-35 -1,-16 0,-18 -4,-46 -48,29 -31,10 -41,68 -8,40 -4,11 4,68z"/>
   <path class="fil78" d="M3641 16603c11,19 -30,13 18,17 32,-46 2,-21 74,-30l8 -23c-35,-19 -7,7 -16,-27 -1,-4 0,-20 -1,-24 -5,-27 23,-47 -16,-33 -11,23 -10,-12 -8,33 2,28 0,4 11,39l-67 14 -3 34z"/>
   <path class="fil79" d="M6209 16462l-17 -2c-31,31 6,18 -91,17 -33,-39 -15,-39 -56,-60l1 -36 -17 -4 22 60c19,25 7,86 144,69l14 -44z"/>
   <path class="fil26" d="M3742 14739c53,18 25,28 80,19 5,-65 -24,-56 -53,-55l-14 -67 -14 -1c0,39 5,64 1,104z"/>
   <path class="fil80" d="M6526 15546l4 15 35 0c-9,-37 -32,-152 -41,-171 -34,43 -6,13 -27,77 2,2 6,1 7,4 4,24 10,-54 22,75z"/>
   <path class="fil81" d="M6587 11834l20 -58c8,-17 13,-18 30,-29 -35,-46 -20,-3 -40,-49 -4,-11 -5,-33 -6,-49 -36,13 -19,32 -17,85 2,51 5,56 13,100z"/>
   <path class="fil82" d="M6465 11755c42,-66 3,-86 7,-169l-28 50c-1,2 -2,5 -3,8 -15,37 -12,12 -10,65 37,31 27,18 34,46z"/>
   <path class="fil44" d="M3738 14956l34 -109c4,-64 -30,-6 -9,-82l-35 -3c2,14 6,41 6,54 -2,56 -2,-10 -7,41 -7,73 15,22 11,99z"/>
   <path class="fil83" d="M6497 14767c4,-53 -8,-35 38,-51l-2 -41c-21,-26 -11,-10 -22,-39 -74,-49 -16,-16 -40,0l29 52c-23,30 -30,25 -31,76l28 3z"/>
   <path class="fil31" d="M6368 9177c-5,1 -18,8 -27,14l3 18 24 1 47 1c29,-18 22,-49 7,-75 -29,-49 1,-10 -27,-20 -1,4 -4,24 -5,27 -11,30 -9,17 -22,34z"/>
   <path class="fil84" d="M3741 13494l25 -5 -6 -73 -1 -81c-15,22 -11,-41 -13,41l-20 -7c-1,0 -20,-8 -25,-9l1 49c27,21 10,0 41,31l-2 54z"/>
   <path class="fil85" d="M5554 10785c15,-5 27,14 29,-34 0,0 -8,-53 -11,-73l-31 26c-113,-77 -16,17 -7,35 17,32 -8,6 20,46z"/>
   <path class="fil34" d="M5886 11349l25 26c58,-31 26,8 61,-49 -29,-11 -11,-7 -51,1 12,-97 15,-87 -21,-90 9,21 6,37 4,59l-1 14c-1,1 -2,5 -3,7 -11,33 -1,-17 -14,32z"/>
   <path class="fil78" d="M5191 9011c-11,-13 -13,-16 -23,-31l-1 5c-46,-17 -49,-30 -103,-42 -10,49 -14,21 31,52 28,19 32,14 62,28l34 -12z"/>
   <path class="fil86" d="M6389 10405l49 3 -33 -186 -2 42 -43 36 46 9c-4,60 -14,36 -17,96z"/>
   <path class="fil13" d="M3623 12072c-5,37 -7,9 23,11l59 -138c-81,41 11,24 -107,79 52,36 18,-2 25,48z"/>
   <path class="fil82" d="M3611 11925c-7,-49 -16,-118 11,-161 -32,8 -15,-9 -32,23 -3,5 -5,31 -6,38 -32,-10 -4,-2 -36,-13l11 69 32 -7c-8,74 1,36 20,51z"/>
   <path class="fil30" d="M5718 12170c4,28 -7,17 17,44l15 13c2,1 5,4 8,6 -12,19 -18,22 -24,49 21,-28 8,-12 34,-27 11,14 11,-10 20,39l2 -112c-11,-6 -30,-12 -72,-12z"/>
   <path class="fil24" d="M6063 10325l63 3c9,-41 20,-43 23,-88 -52,7 -74,31 -86,85z"/>
   <path class="fil23" d="M3651 10608l-11 67 2 6c49,-31 59,-85 57,-98 -9,-53 -8,-18 -27,-35 -28,28 -24,25 -21,60z"/>
   <path class="fil50" d="M6265 16404c27,-15 9,4 25,-28 15,-32 -3,-70 -15,-101l-41 -1 9 33c1,2 5,6 7,8l15 89z"/>
   <path class="fil87" d="M4921 9088c47,-8 12,4 58,-26l-4 57 39 4c-38,-62 -9,-11 -15,-52 -7,-52 17,-51 -41,-34 -15,24 30,8 -19,22l1 -76c-17,33 -14,61 -19,105z"/>
   <path class="fil88" d="M4356 16594l57 16 40 -62 -2 -26c-30,12 -34,15 -51,42l-47 -16 3 46z"/>
   <path class="fil89" d="M3513 13247l32 -2c10,-2 51,-77 -47,-84l3 -46 -12 0c-1,85 26,78 24,132z"/>
   <path class="fil59" d="M4715 16352l-13 36c49,-8 31,26 46,-36 10,10 18,17 31,32 -11,-41 -2,-4 9,-20l60 -38c-41,-6 -13,7 -69,4 -11,-1 0,-13 -38,1 -59,19 -12,-2 -26,21z"/>
   <path class="fil8" d="M5988 12158l45 -88c-40,4 -26,4 -45,12l-53 23c11,45 13,35 53,53z"/>
   <path class="fil78" d="M5559 16405c-18,23 22,5 -28,24 20,29 -29,31 30,22 22,-6 26,-8 47,-17l15 -49c-16,-23 20,-19 -23,-19l-41 39z"/>
   <path class="fil60" d="M3596 13945c8,-27 -6,-15 22,-20l22 42c8,-49 15,-43 21,-91l-41 -24 -24 46c-11,32 -14,4 0,47z"/>
   <path class="fil14" d="M3573 14541l24 -24c2,-2 6,-5 8,-7 2,-2 7,-5 10,-7 11,49 -6,-13 3,30 6,32 -10,3 13,27 9,-59 -8,-88 -49,-123 -15,42 -22,54 -9,104z"/>
   <path class="fil72" d="M3593 15645c56,-13 -2,-8 47,-43 -16,-53 12,-20 -30,-47 27,-10 15,3 47,-11 -19,-48 1,-57 -37,-77l-22 78c32,35 24,-18 20,50 -2,33 -11,35 -25,50z"/>
   <path class="fil50" d="M3762 12593l-3 36c28,-12 20,7 29,-13 -1,4 -9,17 -11,20 -11,20 0,-6 -16,28 5,-1 12,-7 14,-4l55 -31c-9,-22 -9,-22 -16,-39 -19,-49 1,-23 -29,-50l1 47 -24 6z"/>
   <path class="fil90" d="M4263 16459l58 -21 1 -8c0,-58 5,-11 -7,-59 -33,12 -6,-1 -33,12 -26,13 -15,9 -27,18l8 58z"/>
   <path class="fil38" d="M6405 12965l-2 90c-10,39 -7,13 4,22 33,-20 45,-82 40,-128l-42 16z"/>
   <path class="fil48" d="M6520 14255l48 2 -12 -77 8 -39c-15,7 -26,-6 -40,38 -6,18 -1,45 -4,76z"/>
   <path class="fil73" d="M5119 10524l17 43c2,-10 2,-16 5,-24 7,-21 1,-9 14,-29 5,12 4,-7 11,31 2,13 2,32 6,52l17 -42c1,-3 3,-6 5,-8 6,-12 -1,7 15,-27l-40 -37c-25,15 -32,17 -50,41z"/>
   <path class="fil34" d="M5270 11620l0 87 64 -63c1,2 3,3 3,6l21 -18c-37,-15 -51,-24 -88,-12z"/>
   <path class="fil32" d="M3874 16479l55 -1c5,-2 37,-12 37,-12l11 50c44,-8 11,3 40,-14l-6 -45c-46,-5 -34,-3 -74,2 -19,2 -63,-11 -63,20z"/>
   <path class="fil82" d="M6438 11987c38,-13 17,18 21,-35 0,-1 -6,-60 -6,-67l3 -36 -49 64 31 74z"/>
   <path class="fil60" d="M6192 16460l17 2 -13 -10c24,-31 -46,-26 32,-26l-60 -60c-15,28 -3,18 -7,46 -5,32 -10,12 -12,56l43 -8z"/>
   <path class="fil20" d="M4315 16371c12,48 7,1 7,59 3,-3 12,-12 14,-14l82 -13 -34 -30c-4,-4 -17,-14 -22,-19l-47 17z"/>
   <path class="fil58" d="M3802 10131l6 -55c-4,-2 -36,-18 -37,-19 -23,21 -27,23 -54,40 3,2 9,0 10,4 10,31 19,-24 30,25l45 5z"/>
   <path class="fil47" d="M3620 15467l27 -9c3,-55 -9,-70 3,-113l-26 6c-5,37 -12,44 -15,58 -2,10 -5,21 -3,33 6,40 -2,8 14,25z"/>
   <path class="fil51" d="M3561 13684c-2,20 0,23 -7,41 -1,2 -3,6 -4,8l-13 17 17 19c16,-34 49,-55 53,-96 5,-64 5,-15 -12,-34l-34 45z"/>
   <path class="fil78" d="M6586 12345c24,-6 14,26 19,-26 -18,-12 -10,4 -23,-17 -12,-19 -7,-13 -13,-31 3,-4 9,-15 10,-18 15,-37 5,20 0,-16 -30,10 -32,16 -46,47 11,32 17,44 53,61z"/>
   <path class="fil34" d="M5297 11554c34,-10 21,-10 64,-15 -12,27 1,15 -24,37 29,24 32,37 72,56 -24,-35 -13,-18 -19,-44 -10,-40 -10,-12 -19,-57 -65,0 -31,4 -75,-20l1 43z"/>
   <path class="fil63" d="M5705 10736c23,11 -13,18 14,1 19,-13 -3,-7 26,-24 48,-28 10,13 46,-14 -23,-56 -6,18 -72,-61 -8,130 -25,71 -14,98z"/>
   <path class="fil76" d="M6588 11997l4 -22c34,15 3,-2 36,16l1 -51c-32,-5 -23,-1 -40,-14 0,-23 -6,-20 16,-14 -18,-42 -9,-19 -30,-30 -6,42 -7,16 -4,58 1,5 3,21 4,25 7,32 10,26 13,32z"/>
   <path class="fil72" d="M3673 10891l11 56c-3,-21 -9,-13 7,-31l44 48 10 -96 -72 23z"/>
   <path class="fil45" d="M3519 13856l50 -2 -8 -41c-41,-23 -34,-24 -44,-67 0,0 -47,-25 -10,54 11,25 11,9 37,32 -38,7 -11,-4 -25,24z"/>
   <path class="fil91" d="M5167 10613c1,56 -11,49 5,85 7,-6 14,-13 25,-18l20 -7c9,-32 12,-23 9,-62 -35,26 -11,20 -59,2z"/>
   <path class="fil34" d="M5004 12066c44,-4 6,1 46,-40 10,-11 55,-25 2,-72 -17,22 -14,20 -26,48 -2,5 -10,24 -11,26 -9,23 -7,8 -11,38z"/>
   <path class="fil92" d="M3762 12593l24 -6 -1 -47 -25 -47c-40,1 -8,29 -11,58 -6,70 -10,-19 -15,66 12,-25 16,-13 28,-24z"/>
   <path class="fil31" d="M3631 10422l-3 102c13,-10 33,-19 41,-48 9,-33 -3,-52 -12,-71 -16,35 4,-2 -26,17z"/>
   <path class="fil56" d="M6331 16528l-24 26 41 24c32,15 4,8 34,14l40 0c-78,-57 -51,-20 -66,-108 -13,83 1,19 -25,44z"/>
   <path class="fil93" d="M6586 12345l-22 29c13,18 14,17 22,40 6,19 -12,43 19,43l-6 -83c19,-32 -6,-8 35,-20l-4 -38 -25 3c-5,52 5,20 -19,26z"/>
   <path class="fil18" d="M4173 9031c3,3 10,13 12,16 2,2 5,7 7,10 1,2 4,7 6,11 53,-13 45,-3 61,-51l-29 8c5,-32 13,-33 5,-50 -34,26 -23,10 -36,61l-26 -5z"/>
   <path class="fil30" d="M5886 11964c23,13 18,6 49,-2 2,58 -9,42 25,63 12,-21 8,-39 -9,-65 -28,-43 -49,-30 -62,-28l-3 32z"/>
   <path class="fil94" d="M3708 16483c39,-14 11,6 16,33 1,4 0,20 1,24 9,34 -19,8 16,27 -3,-39 -3,-49 2,-84 5,-30 33,-66 -7,-66 -23,34 18,16 -34,35l6 31z"/>
   <path class="fil82" d="M5673 16346l11 10 -5 -48 52 -3c4,0 22,-2 25,-3 26,-13 12,4 28,-20l-106 -16 -5 80z"/>
   <path class="fil60" d="M5056 16305l-16 44c80,-45 30,10 60,-48 1,-2 2,-7 3,-10l67 60 1 -41 -37 10c11,-43 -18,-14 17,-40l-24 -4 -71 29z"/>
   <path class="fil95" d="M3778 10028l11 -2c2,-4 9,-15 9,-17 3,-11 4,-5 4,-26 -20,-37 -20,-45 -13,-96 -49,0 -19,47 -9,83l-28 38c2,1 5,3 6,3l12 10c1,1 5,5 8,7z"/>
   <path class="fil37" d="M3815 10920c-14,-29 -18,-80 -17,-120l-24 -13 1 124c23,13 9,7 40,9z"/>
   <path class="fil81" d="M4527 9038l-1 -39 51 23 9 -36 -61 -5 -2 -31c-16,8 -17,-16 -19,36 -4,73 3,35 23,52z"/>
   <path class="fil59" d="M4903 16454l11 -2 -1 -57c-13,-12 -13,-9 -27,-14l-32 8c2,21 -7,31 29,56 3,2 8,4 10,5 2,1 7,3 10,4z"/>
   <path class="fil92" d="M3626 14920l1 -116 -48 -1 0 16 19 8c-2,76 0,61 28,93z"/>
   <path class="fil10" d="M3800 8999l106 -31c-3,-2 -7,-7 -8,-4 -9,30 1,-75 -84,-55l44 30c2,2 4,6 6,8l-64 52z"/>
   <path class="fil26" d="M5311 13788c67,-16 56,8 65,-63 -61,0 -61,-2 -65,63z"/>
   <path class="fil96" d="M3514 14042l30 19c-14,31 -27,23 -6,58l15 18 7 -80c1,-30 7,-46 -3,-75 -28,24 -20,26 -7,57l-36 3z"/>
   <path class="fil44" d="M3761 13264c7,-8 12,-10 24,-29l13 -64c-13,-66 1,-16 -21,-43l-8 31c-22,79 -5,22 -8,105z"/>
   <path class="fil36" d="M4223 16542l-11 -37 54 18c-25,-58 -14,-9 -27,-61l-43 3c-1,19 -8,22 0,45 21,62 0,9 27,32z"/>
   <path class="fil97" d="M3600 9199c-2,6 -18,46 -18,47 -9,64 5,34 22,45 -1,-62 5,-49 45,-75l-28 -31c-1,1 -19,11 -21,14z"/>
   <path class="fil98" d="M6644 10679l-11 -48 -20 -21c-13,12 -21,-23 -14,45 0,1 9,33 11,41 72,29 16,14 34,-17z"/>
   <path class="fil28" d="M5171 16310l21 -21c0,1 24,15 27,17l-11 -33 -81 -18 0 21 24 4c-35,26 -6,-3 -17,40l37 -10z"/>
   <path class="fil30" d="M5812 10769c77,-15 -59,22 21,-9 42,-16 21,2 74,-12 -22,-53 2,9 -49,-47 -56,61 -49,16 -46,68z"/>
   <path class="fil44" d="M6544 13710l39 -14 -2 -90 -36 -12c2,3 4,48 15,22 1,-3 3,8 6,10 -16,27 -19,42 -22,84z"/>
   <path class="fil41" d="M4453 16474l-2 48 2 26 10 -4 -4 -43 41 -8c22,-6 32,0 33,-27 -64,-11 -39,5 -54,-23l-26 31z"/>
   <path class="fil35" d="M6126 12323c43,-22 10,-9 40,-67 -36,-14 -16,-10 -53,-23 3,61 -7,55 13,90z"/>
   <path class="fil99" d="M3841 16623l28 -2c-33,-24 -23,-20 -51,-54l4 -57 -25 18 0 69c17,13 5,5 20,15 17,11 8,5 24,11z"/>
   <path class="fil100" d="M5424 10724l38 -1c-15,40 -7,46 35,66 -8,-36 -37,-95 -71,-114 -18,31 -17,9 -2,49z"/>
   <path class="fil101" d="M6352 9341c23,-38 -17,-16 22,-36 13,-46 9,-4 -10,-51l4 -44 -24 -1c3,38 1,37 0,72 0,14 -3,12 -2,26 2,20 7,28 10,34z"/>
   <path class="fil30" d="M6065 11872l15 -7c25,-11 -7,-3 20,-9 21,-4 14,8 50,-9 -33,-36 -13,1 -73,-59 1,48 -3,50 -12,84z"/>
   <path class="fil11" d="M6030 16370l-1 7 17 4c20,10 19,0 28,15 10,-21 6,-18 22,-29l-35 -40 -38 6 7 37z"/>
   <path class="fil63" d="M5035 10144l51 62c1,2 3,6 5,8l3 -11c16,-42 17,-21 20,-62 -59,13 -35,-11 -79,3z"/>
   <path class="fil59" d="M3566 14763l13 40 48 1 -1 -1c-1,-6 -2,-11 -4,-17 -1,-5 -3,-10 -4,-15 -1,-4 -10,-21 -12,-25l-10 -20c-24,21 -9,-1 -30,37z"/>
   <path class="fil10" d="M5577 11082c10,6 27,44 65,-21 1,-3 5,-13 8,-17l-35 -22 -38 60z"/>
   <path class="fil56" d="M5197 16472l-17 -35c-71,3 -48,5 -55,-11 -1,-4 -6,-5 -14,-9l-9 29c26,24 43,36 95,26z"/>
   <path class="fil4" d="M6369 13884c21,10 11,5 38,8 3,-22 16,-31 -13,-58 -19,-17 -12,-6 -34,-20 1,39 -11,34 9,70z"/>
   <path class="fil28" d="M5056 9118l76 0c-20,-20 32,-16 -38,-26l30 5c-15,-36 6,-18 -21,-34 -1,2 -14,12 -15,12 -2,2 -14,7 -16,9 -22,19 -26,-25 -16,34z"/>
   <path class="fil50" d="M6649 10942c22,10 19,-22 15,32 36,-18 15,26 24,-21 5,-23 -2,-24 -12,-37 -35,-51 -20,16 -32,-48l-21 24 26 50z"/>
   <path class="fil84" d="M4430 16462l23 12 26 -31c15,28 -10,12 54,23 -3,-2 -7,-5 -9,-6 -2,-2 -6,-5 -9,-6l-50 -44c-20,14 -8,-6 -28,27 -13,20 -3,7 -7,25z"/>
   <path class="fil41" d="M3791 9734l-6 -32c26,-26 18,-7 22,-28l-4 -38c0,-2 -1,-7 -1,-11 -23,6 -36,-45 -33,42 5,107 -18,-13 5,45l17 22z"/>
   <path class="fil63" d="M5513 10370c-8,-82 -38,-57 -71,-78 -2,20 -11,5 0,23l9 6c46,53 -2,32 62,49z"/>
   <path class="fil34" d="M6202 11307c16,37 33,43 67,58 -6,-52 1,-46 -28,-76l-39 18z"/>
   <path class="fil79" d="M3494 13447c2,-68 19,-15 46,-76l-60 -41 14 117z"/>
   <path class="fil102" d="M3619 9678l38 24c-24,-80 9,-75 -38,-99l-14 22 14 53z"/>
   <path class="fil4" d="M3629 15985c-10,41 -13,29 -35,62l16 -29c5,-1 15,0 16,9 1,7 7,9 10,13 42,-9 8,0 30,-10l21 -13c-13,-27 -12,-30 -39,-49 11,26 13,12 -19,17z"/>
   <path class="fil33" d="M6350 13477c39,0 22,-39 25,-87l-49 32c1,3 3,5 4,10l9 19c5,11 4,-1 11,26z"/>
   <path class="fil30" d="M5155 11055c2,-2 6,-7 7,-5 1,2 6,-4 7,-6l35 -65 -32 -35c-5,30 -7,49 -13,69 -13,40 -27,-3 -4,42z"/>
   <path class="fil0" d="M6254 10633l-38 -9c-5,9 -26,32 -28,35 -29,52 -4,43 2,50 47,-27 -5,-32 64,-76z"/>
   <path class="fil103" d="M3565 12563l11 8 17 5 -5 -36 23 -44 -40 6c-7,17 -5,18 -16,37 -20,36 -5,-2 -23,37 11,-17 6,-3 33,-13z"/>
   <path class="fil88" d="M3653 9593l29 60c4,-4 60,1 3,-79l-32 19z"/>
   <path class="fil104" d="M5382 16286l-6 29 33 0 19 2c7,-73 2,-23 21,-41l32 11 -18 -27c-67,2 -27,20 -81,26z"/>
   <path class="fil60" d="M3640 13967l-47 -5c-23,104 -12,54 2,76 3,-1 9,-6 10,-4l35 -67z"/>
   <path class="fil30" d="M5269 11951l-34 37c47,26 53,17 82,-19 -28,-22 2,-10 -48,-18z"/>
   <path class="fil87" d="M6350 9522l24 19 -28 -6 6 68 3 -32c42,12 13,3 56,18l-58 -103 -3 36z"/>
   <path class="fil86" d="M5684 16356c0,21 -4,13 20,16 -20,-37 -17,-3 -11,-49 31,12 10,-1 29,23l14 20c1,1 4,4 6,5l4 -52c-2,-2 -6,-5 -8,-7 -1,-2 -5,-4 -7,-7l-52 3 5 48z"/>
   <path class="fil84" d="M6528 15649l27 3 -20 -69c58,-14 7,-1 30,-22l-35 0 -4 -15c-29,12 -20,-18 -22,24 32,38 27,27 24,79z"/>
   <path class="fil46" d="M3669 16076l5 26 26 9 -8 -32 42 -24c-26,-62 -23,5 -19,-65 -26,22 -17,-27 -23,27l39 51c-99,-30 -34,-18 -62,8z"/>
   <path class="fil33" d="M6383 13110l7 -57 -42 -5c-20,22 -12,-4 -13,38 15,11 23,16 48,24z"/>
   <path class="fil34" d="M5991 11204l47 -5 -35 -82c-15,30 -19,43 -12,87z"/>
   <path class="fil60" d="M6573 11457c2,-3 7,-10 8,-7 1,3 8,-6 15,-14 19,-21 2,7 13,-19l-12 -20c-3,-3 -15,-13 -18,-14 -40,-27 47,12 -22,-9l6 64c1,4 4,8 5,10 0,2 3,6 5,9z"/>
   <path class="fil76" d="M3594 16047c-21,7 -18,-33 -17,23 27,13 18,12 57,11 -16,-45 -9,-9 2,-41 -3,-4 -9,-6 -10,-13 -1,-9 -11,-10 -16,-9l-16 29z"/>
   <path class="fil84" d="M3774 10787l24 13 0 -88c-39,27 -5,14 -51,28l27 47z"/>
   <path class="fil34" d="M6215 11836c-12,19 26,22 -26,12 9,31 8,47 14,62l37 -14c-9,-59 -21,-16 2,-58l-27 -2z"/>
   <path class="fil46" d="M3492 12911l63 60c4,-6 7,-14 7,-12 -1,2 1,-7 1,-8 -7,-28 -25,-35 -44,-59l-28 9 1 10z"/>
   <path class="fil103" d="M3518 13634l21 -4c38,14 5,-5 29,15 30,-23 31,51 24,-44 -44,-22 -33,1 -74,33z"/>
   <path class="fil92" d="M6588 11997l-4 30 -2 35 30 -20 16 -51c-33,-18 -2,-1 -36,-16l-4 22z"/>
   <path class="fil105" d="M6471 11832l-15 17 -3 36c17,-10 51,-19 57,-38 16,-47 -2,-20 -6,-28l-20 6c-3,1 -9,4 -13,7z"/>
   <path class="fil56" d="M3595 9165c35,-30 -45,-22 44,-26 -18,-60 -21,-9 -20,-89l29 -20c-29,-2 -1,2 -14,-21l-49 143c31,53 -41,-23 10,13z"/>
   <path class="fil0" d="M5615 9561c0,0 28,-4 5,-43 -2,-3 -36,-26 -41,-25 -18,5 -3,51 36,68z"/>
   <path class="fil25" d="M3545 13245l-32 2c-22,49 -5,49 44,51 -6,-56 5,-8 -12,-53z"/>
   <path class="fil96" d="M4263 16459l-24 3c13,52 2,3 27,61 30,-30 15,2 6,-54l31 -6 18 -25 -58 21z"/>
   <path class="fil76" d="M6511 14980c3,-50 5,-38 -13,-43l-38 -8c12,28 12,37 21,69l30 -18z"/>
   <path class="fil106" d="M6641 11198c-4,54 -21,66 27,59l6 -72 -37 10 4 3z"/>
   <path class="fil60" d="M3602 14374l57 -7c-14,-28 -18,-40 -49,-60l-8 67z"/>
   <path class="fil77" d="M3518 13634l-10 0 10 41 51 -3 -1 -27c-24,-20 9,-1 -29,-15l-21 4z"/>
   <path class="fil92" d="M6620 10550l29 -13c-1,-29 10,-11 -15,-26 -27,-7 -7,-11 -38,1 -3,1 -17,15 -20,17 19,19 13,10 44,21z"/>
   <path class="fil89" d="M3597 12634l6 -19c21,-25 5,-3 17,-35l-27 -4 -17 -5 -11 50c13,13 11,4 32,13z"/>
   <path class="fil94" d="M6579 12237c5,36 15,-21 0,16 -1,3 -7,14 -10,18l48 12 -12 -75c-29,10 -17,-15 -26,29z"/>
   <path class="fil102" d="M3629 11359l-4 86c29,-24 13,27 28,-49 3,-14 2,-36 6,-57 -9,29 -5,3 -30,20z"/>
   <path class="fil107" d="M4806 12044c37,-4 48,-25 29,-64 -39,14 -45,15 -29,64z"/>
   <path class="fil75" d="M3786 11380c22,-33 8,-28 32,-47 -16,-16 -13,-9 -26,-28l15 -64c-40,42 -26,93 -21,139z"/>
   <path class="fil72" d="M3606 14746c2,4 11,21 12,25 1,5 3,10 4,15 2,6 3,11 4,17 9,-10 15,-10 22,-23 20,-35 8,-13 14,-48l-56 14z"/>
   <path class="fil21" d="M6613 10610l20 21c5,-68 17,-1 16,-94l-29 13 -7 60z"/>
   <path class="fil81" d="M3569 15697l29 -19c0,64 -8,-1 18,22l-5 -45 -18 -10c-16,7 -7,15 -18,-11 -17,18 -15,-23 -9,22l3 41z"/>
   <path class="fil12" d="M6414 9887l4 61c28,-12 9,0 28,-16l27 -25 -36 -20c-29,0 22,32 -23,0z"/>
   <path class="fil108" d="M5914 8944c25,33 -6,-2 19,21 16,15 8,3 23,21 19,-14 7,-1 18,-29l2 -35c-25,10 -30,16 -62,22z"/>
   <path class="fil8" d="M5629 10636c-3,49 16,26 45,34l-11 -83c-29,52 14,15 -34,49z"/>
   <path class="fil99" d="M3929 16478l-55 1 -17 11 7 27c47,-18 55,-17 82,-16l-17 -23z"/>
   <path class="fil106" d="M6548 16490c34,-21 17,19 29,-25 -27,-40 -14,-1 -15,-64 -12,13 -29,-27 -22,46 3,36 0,-15 9,23 11,44 11,-43 -1,20z"/>
   <path class="fil109" d="M5154 11147l50 -14c-11,-37 -3,-31 -47,-48l-3 62z"/>
   <path class="fil30" d="M5128 11683l-72 -25c3,72 41,56 72,25z"/>
   <path class="fil45" d="M3610 12256l-7 -49 -21 -8c-12,9 2,-2 -23,9 -41,17 3,-12 -18,12l69 36z"/>
   <path class="fil9" d="M3563 12132l-11 43 31 -8 28 0 0 -28c-28,-12 -23,-17 -48,-7z"/>
   <path class="fil64" d="M3598 12727l-1 15c7,37 -9,12 12,29l24 -20 21 -19c-21,-22 34,-41 -37,-10 -12,8 -4,2 -19,5z"/>
   <path class="fil34" d="M5808 11877c24,-15 28,-4 47,-15 -14,-19 -30,-35 -48,-52 -18,40 -11,11 1,67z"/>
   <polygon class="fil110" points="6641,11198 6637,11195 6674,11185 6660,11138 6630,11128 6628,11151 "/>
   <path class="fil16" d="M6573 11457l6 9 53 2c-6,-38 4,-51 -23,-51 -11,26 6,-2 -13,19 -7,8 -14,17 -15,14 -1,-3 -6,4 -8,7z"/>
   <path class="fil103" d="M3697 14687c19,-25 28,32 20,-36 -4,-37 2,-7 -20,-28 -9,12 -41,11 0,64z"/>
   <polygon class="fil108" points="3990,9107 3997,9112 4002,9062 3964,9037 3944,9045 "/>
   <path class="fil65" d="M6538 9509c4,-14 5,-33 7,-39 25,-71 -38,49 7,-18l15 -13c2,-2 7,-4 10,-6l-28 -17 -12 19c-25,39 -4,68 -3,67 0,-2 3,5 4,7z"/>
   <path class="fil16" d="M3675 9962c-12,-64 12,-33 -51,-56 23,80 -38,33 51,56z"/>
   <path class="fil30" d="M6003 11998c26,-15 28,-5 56,2 1,-35 -2,-48 -13,-69l-43 67z"/>
   <path class="fil16" d="M6555 11352l2 22c69,21 -18,-18 22,9 3,1 15,11 18,14l14 -65c-50,27 -2,9 -56,20z"/>
   <path class="fil111" d="M6353 15370c-23,8 -6,-10 -11,19 -1,1 3,9 3,7 0,-2 3,6 5,8 58,-27 52,-23 34,-81 -18,104 0,21 -31,47z"/>
   <path class="fil46" d="M3759 14074l5 -107 -38 13c3,27 -4,13 8,31 1,2 4,5 6,8 22,27 18,-6 19,55z"/>
   <path class="fil21" d="M6497 14767c9,36 -22,21 25,32 0,-52 -11,-55 13,-83 -46,16 -34,-2 -38,51z"/>
   <polygon class="fil4" points="4598,9087 4607,9069 4552,9047 4542,9090 "/>
   <path class="fil54" d="M5655 10827c-43,2 -35,-4 -62,12 46,25 4,-35 71,24 1,-68 12,-48 -25,-76 8,25 2,24 16,40z"/>
   <path class="fil112" d="M4958 9037l12 -29c-5,-32 20,-9 -25,-26l-5 1 -1 76c49,-14 4,2 19,-22z"/>
   <path class="fil16" d="M3638 11564l58 -15c-1,2 -5,-2 -5,0 -1,1 -5,-5 -6,-6l-26 -52 -21 73z"/>
   <path class="fil71" d="M3621 11024c6,-51 1,-21 22,-69l-20 3 -39 -2 37 68z"/>
   <path class="fil60" d="M3607 13084l57 -33c-3,-3 -6,-12 -8,-9 -1,3 -15,-21 -32,-11 -19,12 -15,32 -17,53z"/>
   <path class="fil25" d="M3578 13460c20,17 -14,22 29,18 32,-3 13,-4 30,-18 -20,-17 31,-24 -29,-17 -57,6 -1,-6 -30,17z"/>
   <path class="fil10" d="M5916 14491l27 45c37,-28 25,0 26,-50l-53 5z"/>
   <path class="fil83" d="M4324 8998l35 -36c-45,-40 -5,-20 -52,-37 3,26 5,24 11,41 11,32 12,-9 6,32z"/>
   <path class="fil96" d="M6394 10169c14,26 10,11 11,45 57,-35 35,9 42,-56 -48,17 -2,9 -53,11z"/>
   <path class="fil113" d="M3562 14267l-3 -93 -18 39c-4,13 -4,25 -11,45l32 9z"/>
   <path class="fil88" d="M5124 9097l-30 -5c70,10 18,6 38,26 31,-13 36,-10 49,-30 -29,-34 -14,42 -26,-41l-7 22c-2,2 -9,11 -11,13 -1,2 -5,9 -6,7 -1,-2 -5,5 -7,8z"/>
   <path class="fil103" d="M3519 13856l-6 31 34 15c-21,-38 -10,-9 -11,-51 74,29 27,18 47,1l-5 -38 -17 -1 8 41 -50 2z"/>
   <path class="fil62" d="M3760 13416l33 -43c-21,-61 -4,-13 -34,-38l1 81z"/>
   <path class="fil11" d="M3921 9145c-17,-53 1,-37 -52,-46 14,49 -22,31 52,46z"/>
   <polygon class="fil71" points="5056,16305 5127,16276 5127,16255 5081,16263 "/>
   <path class="fil82" d="M4598 9087l-56 3 10 -43 -37 -7 24 59c38,4 -9,11 28,2 39,-10 18,-6 31,-14z"/>
   <polygon class="fil96" points="3604,11148 3643,11159 3647,11119 3603,11113 "/>
   <path class="fil114" d="M6546 9755c10,-19 21,-21 28,-54l-51 5c0,2 11,31 11,32 1,2 5,11 6,9 0,-2 4,5 6,8z"/>
   <polygon class="fil71" points="4223,16542 4269,16551 4266,16523 4212,16505 "/>
   <path class="fil30" d="M5908 12040c-10,-46 0,-30 -49,-49 19,60 -1,42 49,49z"/>
   <path class="fil90" d="M3623 10958l20 -3 12 5 -5 -52 -12 9c-37,11 -11,-11 -27,16l12 25z"/>
   <path class="fil26" d="M6366 9829c-3,-65 -8,-24 19,-38 0,-52 4,-5 -20,-29 -8,12 -7,11 -15,23 -2,3 -13,20 -13,20l29 24z"/>
   <path class="fil93" d="M3997 9112c22,-20 14,11 21,-25 8,-40 4,-12 -8,-43l-46 -7 38 25 -5 50z"/>
   <polygon class="fil46" points="4463,16544 4489,16539 4500,16493 4459,16501 "/>
   <path class="fil65" d="M6523 14058l21 23c17,-45 8,17 25,-43l-42 -16c5,32 9,14 -4,36z"/>
   <path class="fil81" d="M6337 16426c51,2 1,2 58,-25l-66 -12 8 37z"/>
   <path class="fil82" d="M4921 9088l54 31 4 -57c-46,30 -11,18 -58,26z"/>
   <path class="fil93" d="M6524 9679l1 18 -2 9 51 -5c-1,-4 -6,-15 -7,-17l-17 -30c-11,31 20,23 -26,25z"/>
   <path class="fil115" d="M6433 10717l0 27c59,-12 16,9 53,-7 -17,-38 18,10 -14,-20 -28,-26 3,57 -19,-13 -2,-6 -8,-4 -12,-6 7,43 6,18 -8,19z"/>
   <path class="fil71" d="M3613 9558c-5,-27 -9,-8 -6,-48 5,-48 0,-20 15,-41l10 -23 -48 28 29 84z"/>
   <path class="fil116" d="M6539 9795l58 -11c-29,-35 -15,-24 -51,-29 3,41 10,5 -7,40z"/>
   <path class="fil117" d="M3944 9045l20 -8 7 -51 -63 -11c24,26 -3,15 52,20l-16 50z"/>
   <path class="fil31" d="M3557 15058c29,21 27,-25 24,22 -5,-24 -1,-13 -8,-35 -12,-39 5,-4 -14,-30 -17,7 -4,-17 -29,22l27 21z"/>
   <path class="fil65" d="M4846 16507l38 -4 18 -42c-50,15 -38,10 -56,46z"/>
   <path class="fil97" d="M3583 12167l-1 32 21 8c14,-44 -23,-28 20,-38 7,-74 3,-10 -12,-30l0 28 -28 0z"/>
   <path class="fil16" d="M3596 13945l-3 17 47 5 -22 -42c-28,5 -14,-7 -22,20z"/>
   <path class="fil56" d="M3619 9364l7 7 21 -1c4,-29 13,-39 -26,-46l-2 40z"/>
   <path class="fil118" d="M6341 9191c9,-6 22,-13 27,-14l6 -35 -35 3 2 46z"/>
   <path class="fil30" d="M5473 11642l-1 -47c-33,10 -24,-5 -34,37l35 10z"/>
   <path class="fil34" d="M5878 10854c20,-19 21,-23 29,-40 -61,-30 18,18 -47,-11l18 51z"/>
   <path class="fil46" d="M3940 9165c50,-14 39,-8 50,-49l-27 19c-49,3 -10,-6 -23,30z"/>
   <path class="fil103" d="M6457 10810c24,-28 23,36 20,-40l-52 -8c21,22 -31,21 35,17l-3 31z"/>
   <path class="fil48" d="M3818 10992l24 -22 -29 -33c-24,18 -26,-21 -19,17 30,20 22,5 24,38z"/>
   <path class="fil99" d="M3582 16616l0 14 18 -36c-83,-33 -28,-26 -52,-2l34 24z"/>
   <path class="fil119" d="M6605 12319c-1,-28 -5,-12 12,-36l-48 -12c6,18 1,12 13,31 13,21 5,5 23,17z"/>
   <path class="fil120" d="M5487 9034l34 17 10 -27c-4,-2 -37,-21 -37,-21l-11 -17c-17,-55 0,-14 4,-30l0 78z"/>
   <path class="fil100" d="M6038 12129c50,-6 29,15 36,-35 -29,5 -39,-3 -36,35z"/>
   <path class="fil12" d="M4693 16444l-15 -13c-1,-2 -6,-6 -7,-8l-16 -15c-17,19 -15,-28 -13,33l51 3z"/>
   <path class="fil121" d="M6628 11151c-34,-23 -14,36 -29,-23 -4,10 -27,-29 -6,28 9,25 -1,4 19,20 18,-16 6,3 16,-25z"/>
   <path class="fil94" d="M6629 11940l5 -23 -29 -5c-22,-6 -16,-9 -16,14 17,13 8,9 40,14z"/>
   <path class="fil122" d="M3752 12394l16 -22 -8 -11c-55,-33 -13,-12 -25,0 -3,49 -6,12 17,33z"/>
   <path class="fil30" d="M4947 11834c-4,-52 17,-28 -35,-35 9,29 -15,24 35,35z"/>
   <path class="fil78" d="M3751 12276l-3 -43 10 -6c-64,5 -22,-3 -36,19 18,29 1,14 29,30z"/>
   <polygon class="fil123" points="3570,15290 3568,15250 3538,15255 3545,15285 "/>
   <path class="fil97" d="M3619 9364l2 -40 13 -24 -29 -10c1,6 2,39 3,41 4,21 7,25 11,33z"/>
   <path class="fil78" d="M6575 10105l-30 15c7,47 -3,14 16,46l14 -61z"/>
   <path class="fil65" d="M5561 16451l0 16 39 -1 8 -32c-21,9 -25,11 -47,17z"/>
   <path class="fil103" d="M3569 13532c25,-39 16,41 11,-20 -2,-32 5,-5 -11,-29 -30,29 -25,-60 -16,18 5,44 -14,5 16,31z"/>
   <path class="fil108" d="M4694 8913l-51 -6c31,32 -27,16 29,24 46,7 15,-3 22,-18z"/>
   <path class="fil124" d="M3742 15348l23 -4 3 -31 -13 -2c-21,11 -22,-28 -13,37z"/>
   <path class="fil18" d="M5889 16286c-4,-7 2,-14 -9,-23l-19 8 11 41c15,-6 2,23 17,-26z"/>
   <path class="fil38" d="M6410 16009c-15,-40 -3,-28 -41,-49 28,73 -2,33 41,49z"/>
   <polygon class="fil92" points="6548,15678 6555,15652 6528,15649 6519,15688 "/>
   <path class="fil57" d="M3802 9625c63,3 22,0 35,-13l-32 -25 -3 38z"/>
   <path class="fil104" d="M3789 10026l37 -13c-4,-58 3,-10 -24,-30 0,21 -1,15 -4,26 0,2 -7,13 -9,17z"/>
   <path class="fil65" d="M4914 16452c5,-8 13,1 22,-39 -9,-15 0,-6 -23,-18l1 57z"/>
   <path class="fil46" d="M6535 14323c27,-11 13,2 28,-19 -15,-23 24,-14 -29,-20l1 39z"/>
   <path class="fil48" d="M3764 13929l-5 -47 -27 41c15,19 4,3 32,6z"/>
   <path class="fil115" d="M3811 11202c-31,-33 -15,-8 -23,-40l-29 10c27,35 -10,9 52,30z"/>
   <path class="fil125" d="M6503 13899l-2 -4c5,-42 14,-15 -9,-29 -27,-3 -11,-12 -18,16 14,28 -6,6 29,17z"/>
   <path class="fil99" d="M6421 8841l-27 -2 -28 3 38 23c34,-13 5,12 17,-24z"/>
   <path class="fil6" d="M6440 12270l2 13c31,-6 17,3 28,-12 -19,-39 3,-15 -23,-25l-7 24z"/>
   <path class="fil126" d="M6493 11334c58,18 16,9 31,-9 -18,-23 2,-7 -33,-16l2 25z"/>
   <path class="fil48" d="M6027 9052c-7,-51 8,-37 -26,-62l0 23 19 30c2,2 5,6 7,9z"/>
   <path class="fil121" d="M6352 15503l1 24c39,0 21,19 27,-21 -16,-17 9,-11 -28,-3z"/>
   <path class="fil61" d="M6429 8903c60,14 19,9 31,-7l-23 -15 -22 12 14 10z"/>
   <path class="fil18" d="M4694 9048c5,-5 44,22 0,-35 -29,44 -14,23 0,35z"/>
   <path class="fil51" d="M3776 9594c-14,-43 8,-12 -32,-39 13,46 -22,20 32,39z"/>
   <polygon class="fil113" points="3570,15199 3568,15156 3541,15175 "/>
   <path class="fil99" d="M5449 16479l15 -8c-27,-27 39,-6 -39,-27l24 35z"/>
   <path class="fil127" d="M3618 9825c3,4 8,3 10,9 23,64 -35,-41 29,19 -19,-60 4,-36 -36,-36l-3 8z"/>
   <path class="fil71" d="M6503 11404c-18,-16 49,-30 -44,-5l20 -34c-31,11 -22,-23 -25,24l49 15z"/>
   <path class="fil39" d="M5819 16273l-18 4c-3,35 -13,32 18,24l0 -28z"/>
   <path class="fil128" d="M3801 9185c-12,-27 -9,-14 -12,-44l-22 27 34 17z"/>
   <path class="fil68" d="M3748 10686c25,18 8,20 33,0 -45,-34 -27,-3 -33,0z"/>
   <path class="fil56" d="M3638 10917l12 -9 17 -24c-43,-2 -20,-6 -28,17l-1 16z"/>
   <path class="fil129" d="M6618 12105l19 13c2,-1 8,-3 10,-4 2,-1 6,-6 10,-9 -29,-19 34,-21 -20,-10l-19 10z"/>
   <path class="fil130" d="M6525 9697l-1 -18 -27 -20c14,53 -10,15 28,38z"/>
   <polygon class="fil98" points="3788,9495 3804,9469 3773,9463 "/>
   <path class="fil116" d="M5928 9128l31 15 17 -32c-29,25 -3,13 -48,17z"/>
   <polygon class="fil45" points="6460,10956 6458,10921 6436,10939 "/>
   <polygon class="fil99" points="4179,8898 4172,8869 4170,8874 4151,8899 "/>
   <polygon class="fil104" points="3814,11229 3839,11215 3811,11202 "/>
   <polygon class="fil88" points="6634,12682 6662,12672 6640,12654 "/>
   <polygon class="fil88" points="3767,11563 3772,11538 3745,11552 "/>
   <path class="fil81" d="M6405 12795l28 6c-17,-27 9,-13 -30,-15l2 9z"/>
   <path class="fil46" d="M6614 12887l24 -13c0,-6 -3,-17 -4,-13 0,2 -4,-5 -5,-8 -11,29 0,18 -15,34z"/>
   <path class="fil66" d="M5606 16326c-26,-23 -15,4 -22,19l22 -19z"/>
   <path class="fil86" d="M6030 16370l-7 -37 38 -6 -36 -2c-5,24 -12,1 5,45z"/>
   <path class="fil47" d="M4013 16584l31 -31c-57,13 -2,-11 -31,31z"/>
   <polygon class="fil111" points="6346,9535 6374,9541 6350,9522 "/>
   <path class="fil61" d="M6653 11594l-2 0 -22 -5c15,41 -21,24 24,5z"/>
   <path class="fil113" d="M4173 9031l-30 -38c33,64 -19,-16 11,20 16,19 8,10 19,18z"/>
  </g>
 </g>
</svg>
