<?xml version="1.0" encoding="UTF-8"?>
<!DOCTYPE svg PUBLIC "-//W3C//DTD SVG 1.1//EN" "http://www.w3.org/Graphics/SVG/1.1/DTD/svg11.dtd">
<!-- Creator: CorelDRAW X8 -->
<svg xmlns="http://www.w3.org/2000/svg" xml:space="preserve" width="210mm" height="297mm" version="1.1" style="shape-rendering:geometricPrecision; text-rendering:geometricPrecision; image-rendering:optimizeQuality; fill-rule:evenodd; clip-rule:evenodd"
viewBox="0 0 21000 29700"
 xmlns:xlink="http://www.w3.org/1999/xlink">
 <defs>
  <style type="text/css">
   <![CDATA[
    .fil0 {fill:#FAF9FA}
    .fil9 {fill:#DBD5DE}
    .fil6 {fill:#D6D5E0}
    .fil12 {fill:#CBC5CB}
    .fil15 {fill:#CABCBD}
    .fil23 {fill:#C6C0C5}
    .fil10 {fill:#A9999C}
    .fil19 {fill:#9B959A}
    .fil8 {fill:#938C94}
    .fil11 {fill:#8E848D}
    .fil2 {fill:#877C7D}
    .fil17 {fill:#8C7E8C}
    .fil1 {fill:#82777B}
    .fil14 {fill:#796C72}
    .fil21 {fill:#7B6D7A}
    .fil7 {fill:#73646B}
    .fil18 {fill:#736B73}
    .fil22 {fill:#65565E}
    .fil16 {fill:#665A66}
    .fil13 {fill:#645464}
    .fil4 {fill:#584857}
    .fil20 {fill:#493848}
    .fil3 {fill:#2C1F2A}
    .fil5 {fill:#221E24}
   ]]>
  </style>
 </defs>
 <g id="Ebene_x0020_1">
  <metadata id="CorelCorpID_0Corel-Layer"/>
  <g id="_1565592947408">
   <path class="fil0" d="M17112 9213l-5 23c22,27 18,3 39,34l-25 9c-33,10 -26,-1 -27,58 -16,8 -19,9 -34,21 11,16 29,34 42,48 -9,25 -33,47 -46,67 26,18 52,20 70,30 10,6 9,7 15,13 -27,35 -52,30 -71,59 17,39 26,10 43,52l-44 6c0,21 -13,12 60,12l426 15 21 -14c44,18 117,11 159,3l260 -13c27,-2 50,3 79,1 11,0 8,0 15,-1l478 -7c73,12 326,19 339,24 10,10 -1,5 9,-1 20,-38 9,3 26,-34l-42 -31c14,-47 36,-29 64,-64 -24,-28 -41,-28 -55,-60 38,-15 37,-12 66,-40 -20,-39 -33,-31 -54,-72l71 -36 -72 -29c18,-13 47,-24 66,-32 -26,-57 -33,-25 -60,-61 20,-18 33,-27 60,-39l-53 -41 17 -29c-85,-7 -27,-6 -61,-13l-76 -1 -55 -8c-31,4 6,20 -32,3 -2,-1 -9,-6 -11,-7 -22,-13 -126,-11 -163,-8 -74,4 -154,-9 -236,-8 -15,1 -99,2 -99,2 -24,-4 7,-10 -38,-6 -85,8 -86,-8 -132,-4l-748 -10c-40,4 -44,29 -72,5 -18,21 -3,4 -29,21l-19 -15c-4,-2 -17,-7 -22,-9l4 -17 -87 -22c15,31 45,30 68,72 -2,1 -4,3 -6,4 -2,1 -4,3 -7,4l-39 2c18,18 31,22 40,49 -23,19 -28,13 -58,27 30,24 35,13 51,50l-10 18z"/>
   <path class="fil0" d="M17120 7998c18,14 1,8 51,11l-15 26c-14,21 0,5 -18,16l-8 36 -12 44c27,12 16,4 34,24 -18,38 -54,36 -34,94l-23 12 9 35 -41 34c21,10 73,8 110,7 8,-13 3,0 7,-22 36,10 30,9 56,33 42,1 82,-3 115,6 43,10 20,5 51,2l168 11c33,0 70,-4 91,14l14 -22c0,-1 2,-4 2,-6 1,-1 2,-3 3,-5 64,50 84,23 152,34 3,-16 26,-83 44,-100 37,37 -6,16 57,30 -19,16 -18,8 -36,16 -29,12 -3,0 -17,10l-7 41c31,14 16,6 37,3 55,-5 -6,9 100,0 59,-5 97,3 115,3 73,1 72,7 105,-16 3,0 6,-1 8,2l13 6c26,7 161,19 176,8l10 -8c1,-1 3,-3 5,-5 23,50 109,6 193,28 50,12 38,-12 156,13 39,8 106,11 134,-7l-15 -22c27,-34 25,-13 49,-49l-53 -36c26,-60 27,-8 44,-70 -41,-16 -32,0 -51,-25 22,-27 26,-13 49,-40 -3,-49 -12,-26 -39,-62 13,-23 14,-13 34,-34 -33,-11 -27,-4 -46,-25 2,-2 5,-6 6,-4 1,2 4,-3 5,-4 39,-20 25,-4 42,-35 -24,-22 -23,-7 -53,-25l33 -43c-17,-47 -9,-6 2,-57 -32,-4 -31,-1 -48,-18l23 -25 -60 -26c-17,-3 -51,-6 -69,-7 -42,-1 -75,-12 -108,5l-111 0c-14,-28 0,-18 -28,-22l-377 -10c-1,-2 -3,-4 -4,-4l-8 -9c-1,-3 -4,-3 -5,-4 -56,22 -53,3 -94,6l-524 -32c-74,6 -191,-20 -244,9 -1,0 -4,5 -5,3 -1,-1 -3,3 -5,4 -122,-38 -119,4 -112,-22 -40,1 -1,-2 -44,10 -10,3 -7,2 -14,5 1,47 21,77 17,119l-34 23c4,61 42,43 59,106l-17 12z"/>
   <path class="fil1" d="M17512 7679l-7 20 -123 -15c-36,-3 -71,7 -92,35 -81,4 -16,9 -110,-28 -9,10 -13,18 -27,32 -7,26 -10,-16 112,22 2,-1 4,-5 5,-4 1,2 4,-3 5,-3 53,-29 170,-3 244,-9l524 32c41,-3 38,16 94,-6 1,1 4,1 5,4l8 9c1,0 3,2 4,4l377 10c28,4 14,-6 28,22l111 0c33,-17 66,-6 108,-5 18,1 52,4 69,7l60 26c37,-21 14,-31 52,-50 3,38 -20,51 -43,66 20,18 109,42 7,110 26,22 26,7 52,34 -9,47 -12,15 -42,48 2,1 4,1 5,4 3,9 18,-1 29,36 -20,10 -23,9 -40,24 34,23 40,15 62,49l-12 25 -2 9 26 0c16,-32 16,-28 16,-76l-16 0c11,-25 21,-50 8,-77 -13,-6 16,-8 -25,0l16 -41c1,-1 2,-3 2,-4l3 -8c0,0 2,-13 4,-23 -11,-6 -9,-4 -25,-8 12,-26 12,-62 17,-85 -25,-6 -13,1 -26,-17 24,-9 12,5 13,-25 2,-34 6,-25 -21,-77 -84,0 -60,-8 -93,-8 -43,0 -10,7 -43,7 -26,0 -8,-7 -49,-5 -55,2 -92,-16 -154,-2 -6,-11 -5,-9 -8,-25 -112,26 -95,1 -160,-4 -44,-2 -21,-18 -75,-10 -70,11 -48,-4 -84,0 -57,6 -73,17 -122,5l-19 -8 7 59c-35,-24 -11,7 -28,-30 -13,8 -26,13 -42,18 -7,-35 -4,-30 15,-47l-26 -12c-16,11 -7,6 -30,9 -45,7 -121,15 -170,7l-131 -15c-31,-9 -135,13 -168,-32l-9 -10 -25 -7 -41 43z"/>
   <path class="fil2" d="M17063 8330l-21 27c65,14 62,-6 87,16 -43,26 -68,7 -109,-1l-1 35c34,8 161,8 195,-9 33,23 6,11 41,12l57 0c122,24 17,8 140,14 13,0 20,2 30,3 42,5 0,0 30,-1l58 -2c27,0 28,8 67,8 45,1 41,-9 60,17 41,-27 65,-1 144,0 61,-22 125,-3 194,-2 19,-2 23,-5 44,-3 110,10 47,-1 93,-3 52,-2 -5,21 89,4 9,-1 32,-6 53,-4l419 30c4,1 14,4 20,6l61 6c65,-11 66,22 127,9 25,-6 19,-2 26,-26 -29,1 -91,12 -112,2 -18,-8 -8,-1 -14,-17l125 -4c-12,-25 -18,-30 -41,-41 -28,18 -95,15 -134,7 -118,-25 -106,-1 -156,-13 -84,-22 -170,22 -193,-28 -2,2 -4,4 -5,5l-10 8c-15,11 -150,-1 -176,-8l-13 -6c-2,-3 -5,-2 -8,-2 -33,23 -32,17 -105,16 -18,0 -56,-8 -115,-3 -106,9 -45,-5 -100,0 -21,3 -6,11 -37,-3l-41 3c-68,-11 -88,16 -152,-34 -1,2 -2,4 -3,5 0,2 -2,5 -2,6l-14 22c-21,-18 -58,-14 -91,-14l-168 -11c-31,3 -8,8 -51,-2 -33,-9 -73,-5 -115,-6 -26,-24 -20,-23 -56,-33 -4,22 1,9 -7,22 -37,1 -89,3 -110,-7z"/>
   <path class="fil2" d="M17163 8991l27 13 -30 5 -4 17c5,2 18,7 22,9l19 15c26,-17 11,0 29,-21 28,24 32,-1 72,-5l748 10c46,-4 47,12 132,4 45,-4 14,2 38,6 0,0 84,-1 99,-2 82,-1 162,12 236,8 37,-3 141,-5 163,8 2,1 9,6 11,7 38,17 1,1 32,-3l55 8c-18,-35 -38,-31 -60,-71 39,-7 21,10 70,17l8 -25c-68,0 -36,-21 -172,-11 -41,3 -34,-5 -72,-6l0 17c-31,0 -55,-5 -70,-6 -39,-2 -5,19 -49,-11 -29,14 -76,8 -118,9 -102,0 -46,-16 -109,-17l-27 52c-42,-8 -33,-2 -35,-44 -21,-11 -53,2 -83,9l0 -17c-37,3 -23,10 -45,12 -10,1 -31,-9 -40,-9 -20,-1 -21,17 -92,11l-171 3c-38,-1 -29,-9 -59,-9 -43,0 -7,8 -45,4l-255 -9c-31,-6 -44,-31 -98,5 -48,-11 -103,-16 -127,17z"/>
   <path class="fil2" d="M17555 9660l26 30c13,-10 30,-19 33,12 27,14 101,-3 145,5l417 -8c37,-7 53,0 81,12 20,-18 27,-18 58,-10l12 -22c64,38 54,26 96,21l70 -10c42,-1 133,-1 202,5 12,21 7,0 7,32 50,-30 113,-32 172,-10l45 13c10,-7 7,-5 14,-12 -41,-9 -45,-6 -72,-24 0,0 -4,-16 50,-4 17,4 30,7 46,11 -14,-16 -27,-31 -42,-49 -10,6 1,11 -9,1 -13,-5 -266,-12 -339,-24l-478 7c-7,1 -4,1 -15,1 -29,2 -52,-3 -79,-1l-260 13c-42,8 -115,15 -159,-3l-21 14z"/>
   <path class="fil3" d="M17067 7857c-21,31 -4,54 10,76 19,24 27,20 35,51 -11,6 -9,4 -24,8l-14 33c19,30 29,30 44,60l-38 25c11,36 13,10 34,43l15 0c-38,57 -23,-6 -76,93l36 41c-27,8 -7,0 -27,10 -15,31 -23,33 -42,51l0 24c41,8 66,27 109,1 -25,-22 -22,-2 -87,-16l21 -27 41 -34 -9 -35 23 -12c-20,-58 16,-56 34,-94 -18,-20 -7,-12 -34,-24l12 -44c-8,-49 -21,-28 -35,-70 20,-23 8,-10 25,-19l17 -12c-17,-63 -55,-45 -59,-106l34 -23c4,-42 -16,-72 -17,-119 7,-3 4,-2 14,-5 43,-12 4,-9 44,-10 14,-14 18,-22 27,-32 94,37 29,32 110,28 21,-28 56,-38 92,-35l123 15 7 -20c-45,-20 -135,-1 -185,-12 -18,-3 -37,-12 -51,-10 -22,3 -29,13 -54,14 -35,1 -25,-7 -59,-9 -14,-1 -57,4 -61,3 -22,-1 0,-11 -49,-12 -32,48 -8,85 26,93 -15,28 -19,29 -34,51 16,30 -3,19 27,29 17,6 12,-20 24,22 -13,7 -10,5 -29,9z"/>
   <path class="fil4" d="M17002 9663c-12,4 -2,-12 -17,14 10,39 13,28 41,28 14,0 14,1 28,2 30,1 14,16 25,-13l127 8c46,5 105,-4 152,1l86 2c15,1 7,-4 32,-2 41,3 90,20 138,-1 -3,-31 -20,-22 -33,-12l-26 -30 -426 -15c-73,0 -60,9 -60,-12 -38,8 -29,5 -40,36l-27 -6z"/>
   <path class="fil5" d="M18970 9087l-21 -3 -17 29 53 41c-27,12 -40,21 -60,39 27,36 34,4 60,61 -19,8 -48,19 -66,32l72 29 -71 36c21,41 34,33 54,72 -29,28 -28,25 -66,40 14,32 31,32 55,60 -28,35 -50,17 -64,64l42 31c-17,37 -6,-4 -26,34 15,18 28,33 42,49 -16,-4 -29,-7 -46,-11 -54,-12 -50,4 -50,4 27,18 31,15 72,24l8 1 63 11c-17,-48 -45,-47 -71,-80l45 -11c-11,-25 -11,-21 -21,-38 -29,-17 -23,2 -33,-34 31,-3 13,2 33,-9l28 -34c-16,-34 -31,-27 -34,-37 -1,-3 -3,-3 -5,-5l-5 -17 34 -8c17,-31 10,-3 24,-35l-22 -33 -29 -32c21,-11 4,-3 20,-8l19 -8c2,0 4,-2 6,-3l30 -25c-23,-38 -40,-15 -55,-36l41 -15c62,-5 41,-63 -17,-68 -8,32 11,9 -34,9l0 -17c34,-8 49,-11 76,-26l0 -33c-81,-44 -33,21 -67,-26 32,-7 35,-18 67,-25l-8 -16c-10,3 -19,6 -30,11l-26 16z"/>
   <path class="fil6" d="M18257 9711c38,0 56,7 83,17 40,15 46,0 85,-9l17 0c20,9 7,6 34,0 -6,27 -9,13 0,34 34,-8 25,-2 33,-25 70,0 87,19 116,21 25,3 23,1 45,-4l0 33 127 9c11,-23 8,-9 9,-42 20,10 22,14 51,17 3,-28 9,-23 17,-45 -59,-22 -122,-20 -172,10 0,-32 5,-11 -7,-32 -69,-6 -160,-6 -202,-5l-70 10c-42,5 -32,17 -96,-21l-12 22c-31,-8 -38,-8 -58,10z"/>
   <path class="fil5" d="M17052 9000c24,13 58,35 69,58l-83 -6c26,31 49,23 73,58 -25,20 -43,14 -75,25 20,46 5,4 43,42l18 16c-17,9 -12,8 -35,10 -11,10 17,8 -23,8 -1,2 -3,4 -4,5 -1,1 -4,4 -5,5 -1,1 -4,3 -5,4l-23 10c20,46 38,23 61,71l-47 19c9,40 6,16 20,47 28,7 35,15 43,42l-18 17c-13,31 -17,17 -30,49l22 18 59 19c-17,22 -25,19 -50,33l-29 23c16,26 8,16 29,28 34,20 18,4 19,19l-53 6c-13,19 -14,16 -26,37l27 6c11,-31 2,-28 40,-36l44 -6c-17,-42 -26,-13 -43,-52 19,-29 44,-24 71,-59 -6,-6 -5,-7 -15,-13 -18,-10 -44,-12 -70,-30 13,-20 37,-42 46,-67 -13,-14 -31,-32 -42,-48l-22 -20c19,-22 12,-14 42,-22 -10,-44 -28,-41 -51,-69 20,-20 48,-25 83,-34l10 -18c-16,-37 -21,-26 -51,-50 30,-14 35,-8 58,-27 -9,-27 -22,-31 -40,-49l39 -2c3,-1 5,-3 7,-4 2,-1 4,-3 6,-4 -23,-42 -53,-41 -68,-72l87 22 30 -5 -27 -13c-34,-8 -74,-22 -110,-26l-34 -5c12,21 -1,4 16,24 8,8 8,6 17,16z"/>
   <path class="fil5" d="M18907 7832l-23 25c17,17 16,14 48,18 -11,51 -19,10 -2,57l-33 43c30,18 29,3 53,25 -17,31 -3,15 -42,35 -1,1 -4,6 -5,4 -1,-2 -4,2 -6,4 19,21 13,14 46,25 -20,21 -21,11 -34,34 27,36 36,13 39,62 -23,27 -27,13 -49,40 19,25 10,9 51,25 -17,62 -18,10 -44,70l53 36c-24,36 -22,15 -49,49l15 22c23,11 29,16 41,41l-125 4c6,16 -4,9 14,17 21,10 83,-1 112,-2 40,-3 34,-18 17,-42 -21,-30 -28,-11 -51,-43l28 -8c23,-28 12,-3 23,-34 -26,-24 -40,-21 -59,-51 25,-16 44,-21 56,-50 -15,-23 -16,-16 -31,-34l-17 0 17 -9 8 -8 9 0c0,-12 -3,-9 10,-9l12 -25c-22,-34 -28,-26 -62,-49 17,-15 20,-14 40,-24 -11,-37 -26,-27 -29,-36 -1,-3 -3,-3 -5,-4 30,-33 33,-1 42,-48 -26,-27 -26,-12 -52,-34 102,-68 13,-92 -7,-110 23,-15 46,-28 43,-66 -38,19 -15,29 -52,50z"/>
   <path class="fil7" d="M18812 9070l76 1c34,7 -24,6 61,13 -4,-17 -5,-11 10,-5 42,16 -15,-31 11,8l26 -16c11,-5 20,-8 30,-11l8 16c6,2 -9,24 14,-3 0,0 12,-22 12,-23 -10,-19 -14,-25 -26,-42 -22,2 -23,4 -42,8 -8,-30 -1,-22 -34,-25l0 17c-41,-11 -9,-15 -52,-12 -17,1 -55,4 -76,-5l-8 25c-49,-7 -31,-24 -70,-17 22,40 42,36 60,71z"/>
   <path class="fil8" d="M16994 8989l0 27c33,11 6,-6 13,22 8,33 9,8 12,46l-9 68 52 51 17 -26c-38,-38 -23,4 -43,-42 32,-11 50,-5 75,-25 -24,-35 -47,-27 -73,-58l83 6c-11,-23 -45,-45 -69,-58 -44,-6 -20,-17 -58,-11z"/>
   <path class="fil9" d="M17587 7653c33,45 137,23 168,32l131 15c49,8 125,0 170,-7 23,-3 14,2 30,-9l-10 -13c-45,-1 -40,10 -88,4 -59,-6 -120,4 -130,3 -165,-12 -91,-47 -200,-21 -36,9 -39,-1 -71,-4z"/>
   <path class="fil10" d="M18950 8195l0 9c15,18 16,11 31,34 -12,29 -31,34 -56,50 19,30 33,27 59,51 -11,31 0,6 -23,34 22,2 21,4 40,8 2,-5 58,-66 -9,-84l25 -17 0 -59c-20,-9 -10,-11 -31,-28l-11 -6 -8 0 -9 0 -8 8z"/>
   <path class="fil6" d="M17841 8449l0 17c23,6 15,6 37,13l79 18c15,0 34,3 53,3 6,-23 15,-30 25,-53 -69,-1 -133,-20 -194,2z"/>
   <path class="fil11" d="M17036 9372c-14,-31 -11,-7 -20,-47l47 -19c-23,-48 -41,-25 -61,-71l23 -10c1,-1 4,-3 5,-4 1,-1 4,-4 5,-5 1,-1 3,-3 4,-5l-28 -17c-26,49 -25,27 -34,60 18,24 5,10 34,25 -18,27 -33,30 -34,76 28,10 6,-11 25,26l34 -9z"/>
   <path class="fil12" d="M17060 9358c15,-12 18,-13 34,-21 1,-59 -6,-48 27,-58l25 -9c-21,-31 -17,-7 -39,-34l5 -23c-35,9 -63,14 -83,34 23,28 41,25 51,69 -30,8 -23,0 -42,22l22 20z"/>
   <path class="fil8" d="M17114 8153c-21,-33 -23,-7 -34,-43l38 -25c-15,-30 -25,-30 -44,-60l14 -33c-25,9 -15,18 -43,25 8,32 16,25 34,51 -29,8 -23,3 -30,23l-13 36 35 31c6,2 29,1 43,-5z"/>
   <path class="fil13" d="M18957 9601c10,17 10,13 21,38l-45 11c26,33 54,32 71,80l-63 -11c9,24 4,14 34,34 19,-4 20,-6 42,-8 0,-74 -4,-41 -33,-85 22,-6 7,1 25,-9 -11,-46 9,-36 -25,-59 -20,5 -10,1 -27,9z"/>
   <path class="fil11" d="M17053 9498l-22 -18c13,-32 17,-18 30,-49l-14 -18c-46,5 -44,22 -53,61 24,35 12,31 59,42l0 -18z"/>
   <path class="fil14" d="M17020 8372l0 -24c19,-18 27,-20 42,-51 -33,-8 -57,-3 -85,8 3,41 14,27 17,68l26 -1z"/>
   <path class="fil15" d="M17832 8382l41 -3 7 -41c14,-10 -12,2 17,-10 18,-8 17,0 36,-16 -63,-14 -20,7 -57,-30 -18,17 -41,84 -44,100z"/>
   <path class="fil16" d="M17028 9626l53 -6c-1,-15 15,1 -19,-19 -21,-12 -13,-2 -29,-28l29 -23 -23 -19c-20,-8 3,-5 -28,2 0,12 -2,40 0,51 5,30 8,8 17,42z"/>
   <path class="fil17" d="M18977 9389l22 33c-14,32 -7,4 -24,35l17 9c25,-14 21,-18 42,-9 1,-34 -2,-20 9,-43 -14,-20 -10,-8 -17,-33 -27,0 -29,3 -49,8z"/>
   <path class="fil18" d="M17077 7933c-14,-22 -31,-45 -10,-76 -13,-26 -29,-2 -56,16 8,37 3,10 0,51 40,0 36,1 66,9z"/>
   <path class="fil18" d="M18946 9482c2,2 4,2 5,5 3,10 18,3 34,37l-28 34 18 9c16,-11 26,-16 30,-31 1,-4 4,-36 4,-54 -40,-9 -22,-8 -63,0z"/>
   <path class="fil19" d="M17130 8087l8 -36c18,-11 4,5 18,-16l15 -26c-50,-3 -33,3 -51,-11 -17,9 -5,-4 -25,19 14,42 27,21 35,70z"/>
   <path class="fil20" d="M16994 8989c38,-6 14,5 58,11 -9,-10 -9,-8 -17,-16 -17,-20 -4,-3 -16,-24l34 5c-2,-21 5,-14 -6,-26 -16,-17 -17,-2 -62,10 0,4 0,21 1,25 4,18 2,7 8,15z"/>
   <path class="fil20" d="M18160 7696l-48 0c-19,17 -22,12 -15,47 16,-5 29,-10 42,-18 17,37 -7,6 28,30l-7 -59z"/>
   <path class="fil21" d="M18993 9338l9 17c35,-10 32,-15 32,-59l-25 -34 -41 15c15,21 32,-2 55,36l-30 25z"/>
   <path class="fil22" d="M18178 8974c2,42 -7,36 35,44l27 -52c-26,11 -25,8 -62,8z"/>
   <path class="fil0" d="M18970 9087c-26,-39 31,8 -11,-8 -15,-6 -14,-12 -10,5l21 3z"/>
   <path class="fil23" d="M17578 7643l-17 -8c-11,-12 2,-5 -8,1l25 7z"/>
  </g>
 </g>
</svg>
