<?xml version="1.0" encoding="UTF-8" standalone="no"?>
<!-- Creator: CorelDRAW X8 -->

<svg
   xmlns:dc="http://purl.org/dc/elements/1.1/"
   xmlns:cc="http://creativecommons.org/ns#"
   xmlns:rdf="http://www.w3.org/1999/02/22-rdf-syntax-ns#"
   xmlns:svg="http://www.w3.org/2000/svg"
   xmlns="http://www.w3.org/2000/svg"
   xmlns:sodipodi="http://sodipodi.sourceforge.net/DTD/sodipodi-0.dtd"
   xmlns:inkscape="http://www.inkscape.org/namespaces/inkscape"
   xml:space="preserve"
   width="157mm"
   height="141mm"
   version="1.1"
   style="clip-rule:evenodd;fill-rule:evenodd;image-rendering:optimizeQuality;shape-rendering:geometricPrecision;text-rendering:geometricPrecision"
   viewBox="0 0 15700 14100"
   id="svg5422"
   sodipodi:docname="Metallöse Ring.svg"
   inkscape:version="0.92.3 (2405546, 2018-03-11)"><metadata
   id="metadata5426"><rdf:RDF><cc:Work
       rdf:about=""><dc:format>image/svg+xml</dc:format><dc:type
         rdf:resource="http://purl.org/dc/dcmitype/StillImage" /><dc:title></dc:title></cc:Work></rdf:RDF></metadata><sodipodi:namedview
   pagecolor="#ffffff"
   bordercolor="#666666"
   borderopacity="1"
   objecttolerance="10"
   gridtolerance="10"
   guidetolerance="10"
   inkscape:pageopacity="0"
   inkscape:pageshadow="2"
   inkscape:window-width="1164"
   inkscape:window-height="777"
   id="namedview5424"
   showgrid="false"
   inkscape:zoom="0.2102413"
   inkscape:cx="192.3235"
   inkscape:cy="561.25984"
   inkscape:window-x="0"
   inkscape:window-y="0"
   inkscape:window-maximized="0"
   inkscape:current-layer="svg5422" />
 <defs
   id="defs4839">
  <style
   type="text/css"
   id="style4837">
   <![CDATA[
    .fil100 {fill:#0C0C2A}
    .fil117 {fill:#180408}
    .fil83 {fill:#180917}
    .fil30 {fill:#191937}
    .fil57 {fill:#1A1528}
    .fil97 {fill:#1B151A}
    .fil114 {fill:#270607}
    .fil54 {fill:#27171A}
    .fil29 {fill:#271B26}
    .fil93 {fill:#271B34}
    .fil26 {fill:#2A2635}
    .fil60 {fill:#2C0D11}
    .fil24 {fill:#2C232B}
    .fil76 {fill:#30251A}
    .fil9 {fill:#33242C}
    .fil5 {fill:#342533}
    .fil78 {fill:#35191A}
    .fil80 {fill:#361B27}
    .fil12 {fill:#392536}
    .fil70 {fill:#393748}
    .fil45 {fill:#393855}
    .fil67 {fill:#3B2C34}
    .fil113 {fill:#3B2D3B}
    .fil2 {fill:#3D333B}
    .fil7 {fill:#432D3B}
    .fil4 {fill:#43343C}
    .fil16 {fill:#443443}
    .fil6 {fill:#443A43}
    .fil36 {fill:#45384B}
    .fil8 {fill:#4B3C44}
    .fil28 {fill:#4B3D4B}
    .fil79 {fill:#4E506E}
    .fil32 {fill:#534344}
    .fil34 {fill:#53444C}
    .fil20 {fill:#534453}
    .fil19 {fill:#544B53}
    .fil75 {fill:#563C55}
    .fil23 {fill:#574859}
    .fil27 {fill:#59484A}
    .fil53 {fill:#595666}
    .fil81 {fill:#596370}
    .fil43 {fill:#5B4C53}
    .fil63 {fill:#5B5359}
    .fil11 {fill:#63545C}
    .fil59 {fill:#644949}
    .fil15 {fill:#654A56}
    .fil52 {fill:#675758}
    .fil25 {fill:#675964}
    .fil101 {fill:#696677}
    .fil48 {fill:#6A546D}
    .fil42 {fill:#6B6369}
    .fil102 {fill:#6E514D}
    .fil90 {fill:#71708D}
    .fil111 {fill:#73655B}
    .fil21 {fill:#755A5A}
    .fil88 {fill:#755A65}
    .fil112 {fill:#758AAA}
    .fil62 {fill:#776668}
    .fil41 {fill:#776976}
    .fil116 {fill:#787479}
    .fil33 {fill:#797586}
    .fil77 {fill:#856A69}
    .fil51 {fill:#867A86}
    .fil68 {fill:#887678}
    .fil35 {fill:#8A8798}
    .fil105 {fill:#8C7B8E}
    .fil99 {fill:#8E8EAD}
    .fil84 {fill:#8F7272}
    .fil85 {fill:#948679}
    .fil91 {fill:#966567}
    .fil86 {fill:#968A95}
    .fil115 {fill:#96ABC9}
    .fil66 {fill:#9896A6}
    .fil38 {fill:#998788}
    .fil107 {fill:#99A4B0}
    .fil87 {fill:#A79897}
    .fil106 {fill:#A89BA9}
    .fil95 {fill:#A8A6B7}
    .fil96 {fill:#AC948F}
    .fil98 {fill:#AEB4CE}
    .fil109 {fill:#B3A599}
    .fil89 {fill:#B3ABAE}
    .fil108 {fill:#B6C6D2}
    .fil47 {fill:#B7A8A7}
    .fil64 {fill:#BAB4B8}
    .fil72 {fill:#BAB7C6}
    .fil82 {fill:#C6BCC4}
    .fil71 {fill:#C7B6AA}
    .fil14 {fill:#C7BAB8}
    .fil74 {fill:#CAC3BB}
    .fil22 {fill:#CAC8D6}
    .fil44 {fill:#CBC6C7}
    .fil110 {fill:#CDAA9A}
    .fil73 {fill:#CED4ED}
    .fil94 {fill:#CFB5B0}
    .fil18 {fill:#D3C5C3}
    .fil69 {fill:#D4DCD6}
    .fil13 {fill:#D5CCD3}
    .fil39 {fill:#D8D3D8}
    .fil37 {fill:#DACDC4}
    .fil40 {fill:#DCD3CC}
    .fil58 {fill:#DDDAD3}
    .fil3 {fill:#E2D6D3}
    .fil17 {fill:#E4DCDA}
    .fil56 {fill:#E5E1DC}
    .fil10 {fill:#E5E1E3}
    .fil61 {fill:#EADBF0}
    .fil65 {fill:#EBE3DC}
    .fil55 {fill:#EBE4EB}
    .fil31 {fill:#EDEBEB}
    .fil46 {fill:#EDECF2}
    .fil50 {fill:#F2ECEB}
    .fil92 {fill:#F5F1EE}
    .fil103 {fill:#F5F2F1}
    .fil1 {fill:#F6F6F6}
    .fil49 {fill:#F7E8E7}
    .fil0 {fill:#F9F9F9}
    .fil104 {fill:#FCF4EC}
   ]]>
  </style>
 </defs>
 <g
   id="Ebene_x0020_1"
   transform="translate(-2391.1017,-4651.2715)">
  <metadata
   id="CorelCorpID_0Corel-Layer" />
  <g
   id="_1565598695168">
   <path
   class="fil0"
   d="m 9590,8455 c -152,170 -165,86 -444,83 -465,-5 -694,240 -1062,307 l -10,153 c -245,115 -185,38 -367,222 -280,283 -126,243 -284,291 -126,195 -79,84 -118,286 79,-50 -46,580 -34,739 11,147 108,689 -24,932 l 67,152 88,293 134,108 c 8,7 27,25 33,31 7,6 22,21 34,31 l -19,203 c 145,163 34,96 120,332 52,142 115,168 179,284 l 227,109 -19,270 c 100,72 89,42 182,110 194,141 88,61 108,138 l 203,152 c 13,8 35,20 52,31 287,70 55,18 242,162 247,192 172,-49 183,264 l 42,51 c 234,-6 170,-26 227,76 314,2 494,190 850,343 197,84 827,45 1030,48 11,-8 27,-38 33,-26 6,13 29,-19 38,-22 l 550,-117 -35,-94 c 505,47 170,22 498,-152 138,-73 225,-68 369,-146 l 73,-226 236,-52 138,-86 68,-134 c -131,-108 -214,118 -50,-656 l 72,-1237 c -34,-348 -46,-313 141,-543 l -37,5 -339,-253 c -102,-208 -20,139 -87,-216 l -290,-22 -15,-243 c -159,99 9,-6 -198,72 63,-314 122,-223 -17,-318 5,-4 13,-19 12,-13 l -128,88 c -8,-366 -98,-302 -53,-647 258,48 349,140 471,551 30,100 45,153 72,237 l 179,-310 c -222,-235 -211,-138 -215,-542 667,-53 438,312 382,-61 l -66,-333 c -109,-39 -90,121 -119,-38 l -24,-148 -77,-32 c -105,0 -69,22 -69,-99 -141,-112 -59,-100 -247,-137 l -94,12 29,108 45,139 c -93,58 205,148 -231,45 -192,-45 -45,7 -102,-109 -1186,262 -332,-70 -1055,-76 -229,-2 -196,72 -327,-169 l 260,-168 c -227,-71 -468,-23 -651,-19 -257,6 -27,-22 -287,-33 -113,-5 -230,-17 -340,-15 -81,59 -33,29 -133,34 z"
   id="path4842"
   inkscape:connector-curvature="0"
   style="fill:#f9f9f9" />
   <path
   class="fil1"
   d="m 10198,6094 -26,347 -587,-49 c -218,-74 -155,-129 -401,-107 l -178,33 -154,-140 c -205,120 -41,38 -249,125 l 276,140 -628,-18 c 222,166 100,-5 214,216 -265,68 -54,-54 -444,-31 l -343,274 -325,-76 -114,-8 c -689,555 -658,645 -929,894 -155,142 -125,7 -280,233 -118,173 -9,78 -203,237 -111,92 -142,120 -212,246 -257,457 -116,314 -148,586 -34,297 -196,116 83,451 -233,160 -92,-28 -152,218 l 218,87 c -172,228 -187,58 -234,482 -29,260 117,248 -10,555 l 118,148 c 37,59 29,62 61,126 38,77 94,177 143,301 -13,8 -31,19 -39,24 l -76,51 c -9,7 -28,20 -36,27 -123,99 -88,97 -89,409 l 115,207 c 229,-79 199,-37 300,-249 l -117,479 c -184,209 -157,-40 -147,495 l 244,91 c -121,354 41,442 236,778 57,100 104,241 196,366 103,142 231,191 304,262 l 1143,1245 313,-65 v 311 c 166,26 69,3 197,68 7,3 160,95 162,97 563,347 756,210 875,539 l -243,102 c 9,-16 32,36 51,51 230,68 240,80 508,106 152,15 148,17 268,28 203,19 26,-55 258,45 l 175,12 70,12 193,-27 123,54 309,-17 c 15,-10 35,-45 43,-31 8,13 34,-24 45,-29 1,0 160,-60 161,-60 l 148,47 831,-2 c -13,-96 162,-95 256,-121 l 256,-52 255,-15 -23,-65 162,-6 436,-48 -14,-48 c -41,-130 -17,-107 -176,-214 l 183,-71 c 34,-16 85,8 142,-100 49,-91 12,-10 -25,-105 l -46,-118 c -215,24 -345,58 -456,74 -295,40 -262,-136 -1348,0 l -142,-168 -99,197 c -370,11 -420,117 -788,69 l 184,-53 -117,-205 c -52,-61 -40,-41 -160,-83 153,103 156,43 97,244 -103,48 129,124 -302,58 -220,-34 -124,-1 -177,-102 l -33,-47 c -11,-15 -25,-34 -31,-47 -6,-13 -19,-39 -25,-53 -20,-44 -21,-73 -28,-129 l -452,-158 c -155,-67 -310,-147 -413,-318 l -82,-30 c -275,-41 -190,-1 -293,-137 l -256,-75 -22,35 -388,-243 c -177,-143 -25,-139 -282,-304 -149,-96 -101,-62 -285,-91 -111,-177 -68,-185 -192,-348 l -45,-123 c -213,-154 -106,-63 -248,-283 -68,-36 -22,11 -104,-68 -271,-263 -245,-336 -253,-538 -13,-14 -29,-32 -37,-42 l -177,-411 -181,-125 c -14,-210 -14,-104 45,-188 l 37,-144 c -178,-114 -25,52 -116,-121 -14,-27 -26,-159 -30,-191 l 11,-123 -233,1 c 96,-353 62,-297 55,-715 49,-262 -36,-705 99,-809 -70,-235 -8,-383 66,-568 47,-117 48,-93 89,-225 56,-178 -81,-260 105,-226 l 124,-53 c -79,-219 -74,-99 -74,-349 l 182,9 c 49,-50 33,-42 118,-92 9,-6 43,3 51,-19 8,-23 37,-10 55,-15 l 56,-29 92,-77 14,-230 284,-67 -10,-3 108,-232 319,11 c 161,-32 145,-24 281,-83 41,-90 -55,-61 140,-85 41,-144 35,-107 214,-93 77,-83 186,-186 279,-275 l 96,64 145,-185 c 111,-133 24,-66 190,-117 l 166,-98 c 16,-11 31,-19 47,-28 l 385,-196 c 99,-67 128,-110 189,-180 265,152 306,48 593,61 388,19 154,-60 471,172 l 115,-149 13,2 c 107,-105 0,-63 182,-65 24,-1 96,21 119,26 199,43 -65,11 256,76 81,12 128,20 196,57 95,52 119,96 139,115 250,-15 327,67 592,106 l 369,65 c 55,112 3,74 124,152 345,219 350,-104 515,240 172,-173 -1,-51 189,-113 91,268 52,262 276,424 283,203 81,247 496,599 151,129 28,-41 168,169 l 473,904 c 224,423 502,668 841,967 l 50,75 c 4,-6 75,-120 95,-154 75,-126 17,-57 102,-160 l 85,-209 -188,-220 -57,-99 -113,-124 50,-82 21,-157 -55,-156 c -168,-144 -274,-375 -285,-634 -167,-55 -204,-6 -278,-183 l -129,-186 c -83,-67 -39,-22 -113,-106 -173,-197 80,168 -42,-79 -51,-47 -42,-16 -88,-110 -57,-119 -27,-76 -57,-222 l -83,-97 c -96,-24 -79,106 -105,-36 l -1,-82 c -202,-108 -194,-172 -469,-251 l -81,-173 c -49,-18 -132,-73 -180,-103 l -128,-217 c -173,-76 -52,-63 -291,20 -64,-149 -52,-116 -179,-213 -170,-90 -669,-320 -891,-330 l 8,-53 c -191,-16 -344,14 -461,-88 -205,-30 -135,-48 -194,-110 -557,81 -610,-145 -939,-131 -318,13 -62,109 -513,65 -186,-19 -249,-34 -448,-36 z"
   id="path4844"
   inkscape:connector-curvature="0"
   style="fill:#f6f6f6" />
   <path
   class="fil2"
   d="m 11321,7274 h 20 c -257,191 -66,93 -334,181 -95,31 -88,15 -181,81 l -81,95 c 74,-134 140,-136 246,-196 0,-184 44,-142 -141,-118 l 23,40 c -98,14 185,156 -319,-19 8,20 39,103 44,122 l 21,102 c 1,6 18,162 18,163 -249,-86 -555,-97 -501,-385 l -9,-37 -165,170 c -208,-219 -40,-59 -239,-134 l 63,9 -240,49 110,133 c -21,9 -49,24 -66,27 -356,65 -144,-53 -143,-56 -83,80 -147,-114 -126,285 -210,-93 -58,-12 -93,-104 l -291,-167 -6,318 -177,-23 c -50,-129 -178,225 -16,-171 l -166,33 -218,28 c -195,24 -99,-5 -140,85 296,331 -161,-33 81,48 6,2 29,3 34,5 5,1 32,16 36,5 4,-12 26,2 38,6 l -325,234 c 48,17 137,-10 105,134 -30,133 -96,116 -190,143 -294,-117 -62,-69 -164,128 155,42 171,-12 221,128 181,0 148,-46 114,128 l -80,101 c 368,-67 597,-312 1062,-307 279,3 292,87 444,-83 l -156,-19 c 209,-242 47,-111 348,-185 l -59,170 c 110,-2 227,10 340,15 260,11 30,39 287,33 183,-4 424,-52 651,19 538,115 461,-96 926,14 300,16 -71,-34 260,-4 6,273 -30,24 156,129 239,-32 69,1 133,79 188,37 106,25 247,137 l 148,18 -2,113 c 12,12 33,11 37,33 5,22 29,27 34,34 51,69 18,5 72,119 170,-110 35,-163 282,-257 l -85,283 203,-152 c 118,-20 -35,129 131,-47 58,210 -3,252 40,212 l -116,369 c -9,-4 -31,-17 -41,-22 0,0 -133,-121 -177,-28 l -46,58 c 117,69 60,-11 136,87 83,106 19,-4 62,140 27,6 92,-92 122,146 5,42 -44,322 -52,392 204,-30 167,-78 278,82 243,89 40,58 315,58 -199,170 -67,166 27,451 l -224,118 -165,48 c -18,251 -32,121 35,283 l 140,-19 c 25,294 18,37 -62,127 -46,40 -42,98 -67,131 l 135,278 c 162,-151 36,-130 280,-152 l -235,831 -263,41 c 9,217 64,3 135,269 -259,-15 -44,-39 -379,-85 l 34,32 228,143 c -63,57 -13,9 -97,71 l -121,92 c -10,8 -26,27 -39,40 81,11 65,-154 62,139 l 138,345 c -22,16 -52,11 -57,44 -62,363 -79,-220 -76,212 -235,-48 -239,-95 -383,-10 -30,-61 -36,-13 0,-175 l -138,86 -309,278 c -144,78 -231,73 -369,146 -328,174 7,199 -498,152 l 35,94 c 97,149 117,-16 198,197 -71,116 83,42 -188,104 -154,35 -153,41 -212,136 -237,-282 -177,-53 -53,-274 l -366,2 c -203,-3 -833,36 -1030,-48 -356,-153 -536,-341 -850,-343 l -117,17 c 266,219 150,-151 131,158 -1,15 -71,93 -85,99 -145,53 -51,32 -265,-107 l 109,-243 -42,-51 87,166 c -207,-76 -83,-80 -297,-64 l -40,491 c -9,11 -23,29 -32,40 -10,13 -28,34 -37,45 -10,12 -28,32 -42,48 l 256,75 c 103,136 18,96 293,137 -116,-268 -43,-63 26,-147 11,12 26,16 32,37 l 173,119 c -66,36 0,30 -149,21 103,171 258,251 413,318 l 452,158 c 401,-14 203,-76 655,6 l 75,-165 145,144 203,-57 -2,-233 149,68 65,-13 c 68,-109 -66,-121 79,-92 l 871,-165 c -39,219 -267,172 -495,160 127,325 -27,-11 62,179 632,-19 448,-69 604,-204 235,-203 265,-38 433,-192 41,-39 42,-99 82,-143 l 145,-17 c 79,-150 71,-46 -2,-225 277,-46 66,57 233,-119 l 40,-162 c -215,58 -96,23 -296,92 85,-119 74,-59 62,-204 338,-156 279,-184 524,-191 l -24,-320 c 30,-8 51,-30 54,-20 l 147,-224 c 49,25 137,116 328,52 l 49,-150 142,-124 17,-163 65,-11 c -38,-181 0,-151 -78,-255 78,-101 31,-30 81,-94 50,-66 35,-42 80,-115 l -46,-48 c -349,-81 160,-232 -382,-409 l -23,-234 c 233,87 263,-9 458,-186 l -94,-36 c -7,-3 -32,-8 -41,-12 -93,-37 -56,-9 -144,-82 l 24,-126 c -58,-66 -82,-116 -130,-176 -146,-185 -88,-103 -151,-112 l 173,-194 -91,-17 c 80,-90 121,-217 6,-294 l 9,-96 c -8,-2 -23,-17 -25,-7 -1,8 -20,-3 -22,-2 -9,4 -55,45 -56,46 l -113,-354 c -1,-4 -33,-118 -33,-120 l 173,-76 c 137,3 22,17 70,-73 -331,-117 -12,22 -141,-123 183,-292 95,-28 136,-266 -279,67 -153,-4 -280,169 207,154 123,-104 63,139 -41,170 6,22 -64,34 -85,14 -29,-208 -120,49 l -2,-129 c -79,-62 -68,14 -116,-102 -62,-152 -65,37 22,-75 l 76,181 c 100,-83 42,34 142,-130 -23,-47 -64,-136 -66,-150 -11,-76 11,-135 12,-139 l 365,-127 -19,-111 c -232,-16 -46,-34 -259,27 32,-357 24,-83 -72,-191 l 99,-124 c -23,-134 -31,-155 -54,-193 l -88,4 -148,-58 -17,-106 c -186,16 -117,-45 -75,-221 l -136,-5 c -462,-380 -78,-259 -418,-441 l -505,-304 c -354,-28 -236,-52 -463,34 -16,6 -105,54 -125,62 51,-260 52,-211 -113,-331 273,27 247,137 266,-173 l -20,-241 -157,-50 c 11,17 30,38 36,51 27,58 69,82 45,185 -25,111 -52,135 -163,194 -84,44 -248,81 -376,150 l 143,-327 z"
   id="path4846"
   inkscape:connector-curvature="0"
   style="fill:#3d333b" />
   <path
   class="fil3"
   d="m 6751,6623 -81,9 -143,51 -74,125 c 2,21 8,46 11,62 35,204 57,158 -1,309 -185,-57 -77,-8 -288,-138 l 36,180 -178,16 -311,197 c -7,12 -18,28 -25,40 l -281,357 c -59,39 -153,58 -210,70 l 22,220 -235,13 8,90 -14,73 c 164,27 101,20 165,63 l -61,478 -415,-158 c -45,196 -14,72 -71,192 -6,12 -28,52 -33,43 -5,-8 -25,24 -35,37 14,98 63,170 -80,132 l -32,167 36,106 -40,-4 c -82,382 -25,59 -162,334 -78,158 -26,172 -55,273 -74,264 -55,109 -101,185 -8,14 -21,27 -29,41 -8,13 -16,29 -23,43 -7,14 -12,32 -18,46 -8,18 -25,75 -32,92 -259,610 39,-96 3,472 192,-48 16,-65 127,14 -85,147 16,212 -198,59 l -69,54 -50,160 c 306,98 195,53 288,202 -204,-79 -95,-100 -316,-47 36,106 0,4 38,100 3,7 16,55 19,44 2,-11 13,32 20,48 l 115,98 -135,113 c 91,227 100,172 82,452 l 24,55 c 46,44 106,42 153,85 l -76,236 c 191,186 334,375 400,635 l -6,71 -32,287 c 152,30 96,-38 195,174 144,135 91,38 152,257 l 141,253 161,-11 c 82,129 75,121 134,232 l 127,149 16,21 c 52,113 15,73 72,177 l 164,19 c 98,328 97,129 182,344 102,44 210,90 353,140 l 155,225 159,-9 c 139,189 167,240 489,203 l 87,106 c 166,94 102,72 149,100 110,64 -32,16 126,62 206,60 46,-135 176,57 55,95 19,63 110,171 258,20 547,139 844,193 -18,-19 -96,-141 -183,-147 305,-207 338,111 591,246 l -146,45 c 53,35 -48,22 170,88 144,43 106,26 271,52 -19,-15 -42,-67 -51,-51 l 243,-102 c -119,-329 -312,-192 -875,-539 -2,-2 -155,-94 -162,-97 -128,-65 -31,-42 -197,-68 v -311 l -313,65 -1143,-1245 c -73,-71 -201,-120 -304,-262 -92,-125 -139,-266 -196,-366 -195,-336 -357,-424 -236,-778 l -244,-91 c -10,-535 -37,-286 147,-495 l 117,-479 c -101,212 -71,170 -300,249 l -115,-207 c 1,-312 -34,-310 89,-409 8,-7 27,-20 36,-27 l 76,-51 c 8,-5 26,-16 39,-24 -49,-124 -105,-224 -143,-301 -32,-64 -24,-67 -61,-126 l -118,-148 c 127,-307 -19,-295 10,-555 47,-424 62,-254 234,-482 l -218,-87 c 60,-246 -81,-58 152,-218 -279,-335 -117,-154 -83,-451 32,-272 -109,-129 148,-586 70,-126 101,-154 212,-246 194,-159 85,-64 203,-237 155,-226 125,-91 280,-233 271,-249 240,-339 929,-894 -34,-283 -98,-239 46,-379 l -166,-27 66,199 c 3,-10 13,37 18,56 -315,-80 -145,-82 -452,-26 z"
   id="path4848"
   inkscape:connector-curvature="0"
   style="fill:#e2d6d3" />
   <path
   class="fil3"
   d="m 13053,7571 -6,-139 199,3 c 102,44 135,45 214,74 145,53 88,29 160,89 l 313,251 c -184,248 -78,122 -101,310 l 224,47 c 81,114 132,-266 63,211 596,-125 169,-66 333,135 -216,68 -272,143 -479,204 23,38 31,59 54,193 82,232 45,21 232,288 l 19,111 c 175,884 41,-108 239,601 39,137 28,128 106,286 148,300 133,328 27,554 l 98,154 c 292,43 297,-16 257,308 l -199,-25 -10,44 c 0,6 -24,154 -25,158 -39,121 -29,67 -83,134 l 143,195 -144,186 158,60 c 42,145 78,117 -62,117 -24,122 -11,125 -52,220 -96,220 -59,-179 -88,237 l 46,48 c 155,83 94,-97 130,81 -195,193 -153,-29 -70,340 l -143,43 -65,11 -17,163 c 54,5 80,-122 133,88 114,451 57,140 -103,211 l -2,295 c -108,94 -314,242 -34,511 -325,-48 -185,38 -226,-291 l -181,-25 -53,114 -181,8 -123,17 c -39,202 -50,291 -256,323 -167,176 44,73 -233,119 73,179 81,75 2,225 l -33,253 -194,-93 c -168,154 -198,-11 -433,192 -156,135 28,185 -604,204 -91,79 -41,21 -171,64 l -242,-55 -64,128 -252,-41 -203,57 c 0,137 -122,54 -220,21 -452,-82 -254,-20 -655,-6 7,56 8,85 28,129 6,14 19,40 25,53 6,13 20,32 31,47 85,-191 -156,-138 197,-159 -117,385 4,186 -164,206 53,101 -43,68 177,102 431,66 199,-10 302,-58 59,-201 56,-141 -97,-244 120,42 108,22 160,83 l 117,205 -184,53 c 368,48 418,-58 788,-69 l 99,-197 142,168 c 1086,-136 1053,40 1348,0 111,-16 241,-50 456,-74 l 46,118 c 37,95 74,14 25,105 -57,108 -108,84 -142,100 l -183,71 c 159,107 135,84 176,214 l 527,-59 c 71,-99 67,-89 147,-118 l 2,-97 c -126,-75 -107,94 -96,-173 320,-5 211,93 292,-246 186,102 101,-26 129,109 204,29 -15,-214 270,-403 l -34,-111 c -15,1 -43,-188 152,-74 l -103,-192 c 73,-58 34,-54 68,-134 l 139,-131 c 203,-121 148,-104 220,-261 165,-358 260,-159 229,-389 0,-4 -26,-71 -22,-166 3,-113 45,-228 85,-318 615,-1397 230,-1753 461,-2033 107,-128 4,27 113,-147 l -109,-409 c 358,-164 261,-292 563,-462 -54,-342 -108,-179 -137,-460 -85,103 -27,34 -102,160 -20,34 -91,148 -95,154 l -50,-75 c -339,-299 -617,-544 -841,-967 l -473,-904 c -140,-210 -17,-40 -168,-169 -415,-352 -213,-396 -496,-599 -224,-162 -185,-156 -276,-424 -190,62 -17,-60 -189,113 -165,-344 -170,-21 -515,-240 -121,-78 -69,-40 -124,-152 l -369,-65 49,184 c -343,40 -284,-38 -352,230 223,-107 75,45 480,-197 l -64,339 z"
   id="path4850"
   inkscape:connector-curvature="0"
   style="fill:#e2d6d3" />
   <path
   class="fil4"
   d="m 4077,14292 1,169 243,38 c 8,3 24,9 31,13 l 124,184 c 8,10 20,28 29,36 158,150 -131,7 144,44 0,155 33,100 -145,123 l 30,229 h 68 l 21,-206 306,277 c 20,-51 37,-48 188,-70 -24,160 7,116 -37,310 l 68,27 6,221 128,29 c 80,-84 -112,-131 257,-40 l 285,181 c 15,-7 35,-19 45,-25 9,-5 32,-19 43,-25 l 160,-81 c -59,113 -131,-58 106,257 -84,54 -112,35 -106,164 l -170,11 c 98,121 16,60 161,137 88,48 193,80 272,119 l -121,-233 c 185,30 168,-42 316,148 131,168 -153,-20 115,142 233,140 268,151 578,165 3,402 -27,158 135,240 198,-230 5,-5 124,-241 36,-71 -29,-39 91,-56 l -23,399 c 105,49 -137,35 215,74 l -2,132 v 75 l 199,-27 c 216,92 218,61 491,90 59,-137 -104,-114 161,-105 -18,234 21,33 -107,131 98,95 19,51 183,106 108,37 114,20 224,65 l 68,-65 c 304,61 -150,-183 66,46 -102,65 19,44 -174,0 2,205 10,155 227,116 94,-129 -51,-15 167,-177 50,83 29,-30 46,105 0,2 -1,162 -1,167 l 112,24 95,-99 202,47 c 231,41 554,24 640,63 111,-87 -146,-117 319,-119 5,-22 13,-78 13,-67 l -13,-199 -255,9 c -9,-19 -27,-69 -28,-59 -1,10 -19,-42 -20,-56 -9,-286 137,-123 -16,-400 l -70,-12 c -64,233 -7,181 -266,230 28,-70 64,-183 91,-242 -232,-100 -55,-26 -258,-45 -120,-11 -116,-13 -268,-28 -268,-26 -278,-38 -508,-106 -165,-26 -127,-9 -271,-52 -218,-66 -117,-53 -170,-88 -270,-6 79,28 -174,1 l -88,-145 c -297,-54 -586,-173 -844,-193 l -178,62 c -82,-74 -44,128 -102,-169 -200,-43 -28,27 -121,65 l -288,152 c 6,-237 88,-118 -68,-227 217,-118 20,-84 327,-95 l -131,-178 -87,-106 c -322,37 -350,-14 -489,-203 l -159,9 -149,63 c -132,6 -157,39 -343,-74 -266,-161 -37,6 -158,-147 149,-113 118,5 142,-207 -85,-215 -84,-16 -182,-344 l -164,-19 -208,-43 c 74,-136 -114,-56 136,-134 l -16,-21 c -220,-69 -83,-72 -309,16 l 99,-167 -241,-6 29,-213 -139,-43 -198,243 c -91,-103 -81,-74 -119,-233 12,237 26,134 44,389 -426,-186 -215,11 -387,-253 z"
   id="path4852"
   inkscape:connector-curvature="0"
   style="fill:#43343c" />
   <path
   class="fil5"
   d="m 7447,8362 -84,10 c -122,163 -60,116 -150,309 l -87,-215 -56,29 -30,164 12,175 c -163,87 -214,48 -229,258 l 50,240 -274,225 23,292 c -19,67 -65,220 -77,289 -13,131 -17,203 -36,284 -26,115 59,54 -111,119 l 49,248 109,312 160,-154 -3,289 -185,54 63,23 -77,119 c 315,-6 79,-25 151,97 l 62,93 c 63,-152 -14,-82 137,-149 5,435 32,103 -120,231 l 39,243 c 100,65 186,-36 99,219 -57,171 -278,-75 -55,366 l 54,369 c 8,202 -18,275 253,538 82,79 36,32 104,68 340,-40 -13,-81 376,-125 83,230 61,42 46,283 -125,71 48,48 -252,-43 l 78,168 45,123 134,14 136,-77 452,541 c 192,-2 437,36 451,298 1,14 -25,132 -26,210 l 22,-35 c 14,-16 32,-36 42,-48 9,-11 27,-32 37,-45 9,-11 23,-29 32,-40 l 40,-491 c 214,-16 90,-12 297,64 l -87,-166 c -11,-313 64,-72 -183,-264 -187,-144 45,-92 -242,-162 -60,210 -52,174 -136,333 -115,-47 -102,-12 -217,-151 -32,-39 -45,-64 -71,-102 -43,-65 -8,-2 -69,-103 l 238,23 c 36,-66 39,-1 0,-183 -20,-77 86,3 -108,-138 -93,-68 -82,-38 -182,-110 -51,-60 -49,-24 -129,-171 -47,-86 -49,-125 -79,-208 -64,-116 -127,-142 -179,-284 -86,-236 25,-169 -120,-332 l -34,229 c 118,-50 36,81 -7,-58 -46,-147 -76,43 -16,-146 l -168,-47 -31,-165 -48,85 c -5,8 -28,54 -33,43 -5,-12 -28,27 -38,43 -35,-338 -190,2 -38,-312 86,-178 55,-121 231,-45 l -88,-293 c -121,37 -109,60 -195,31 -351,-120 83,106 -143,-144 206,-10 113,24 271,-39 132,-243 35,-785 24,-932 -12,-159 113,-789 34,-739 -86,-69 -78,95 -117,-108 -113,328 -18,222 -277,397 112,-378 153,-175 165,-517 158,-19 87,-61 157,73 l 190,-131 c 158,-48 4,-8 284,-291 182,-184 122,-107 367,-222 l 10,-153 80,-101 c 34,-174 67,-128 -114,-128 -218,409 -17,-274 -245,235 -116,-109 -242,126 -146,-217 19,-69 74,-65 197,-131 l -79,-193 z"
   id="path4854"
   inkscape:connector-curvature="0"
   style="fill:#342533" />
   <path
   class="fil0"
   d="m 15036,14806 58,77 c 192,280 -8,357 -280,565 -285,189 -66,432 -270,403 l -32,93 c -20,261 -58,-5 109,114 l 23,-69 192,25 c 198,-281 102,-31 317,-180 236,-164 -79,-210 405,-172 l -10,-186 137,-210 c 255,-165 36,-167 417,-257 l 19,-327 124,5 c 35,-322 -53,-239 124,-298 126,-252 26,-295 126,-537 58,-142 144,-349 255,-443 -60,-204 -99,-278 -12,-545 l 55,-661 -2,-191 c -98,-203 -90,-517 -101,-713 -11,-177 -16,-244 -38,-403 -25,-175 43,-340 -76,-275 -302,170 -205,298 -563,462 l 109,409 c -109,174 -6,19 -113,147 -231,280 154,636 -461,2033 -40,90 -82,205 -85,318 -4,95 22,162 22,166 31,230 -64,31 -229,389 -72,157 -17,140 -220,261 z"
   id="path4856"
   inkscape:connector-curvature="0"
   style="fill:#f9f9f9" />
   <path
   class="fil6"
   d="m 8354,5335 c -286,-5 -226,23 -467,92 -177,52 -339,41 -558,84 -33,-85 102,-60 -99,-69 -130,135 -377,151 -639,187 -172,344 -36,129 -326,348 l 3,142 -183,68 c -374,125 -161,-14 -435,250 l -7,284 c -106,-51 -88,0 -181,-77 l -140,128 c -14,12 -56,48 -70,60 -79,66 -145,114 -236,177 l 42,161 -129,53 c -164,-1 -183,64 -266,169 -96,120 -115,130 -114,319 l -128,-4 v 100 l 122,38 c -72,81 -140,174 -189,237 -96,-118 -46,96 -57,-161 l -58,38 32,191 -162,17 -77,232 -128,205 -16,96 c 112,72 34,-3 -28,108 19,9 65,32 76,41 9,6 32,22 42,30 l 91,79 c -161,102 -189,177 -354,206 v -99 c -169,30 -117,58 -149,254 394,-120 96,-41 213,0 l -191,383 c 244,111 -51,293 135,674 9,18 19,35 29,51 10,18 26,38 35,53 9,15 26,35 39,53 4,-245 70,-322 180,-511 -71,-301 50,-53 -131,-256 l 159,-112 78,-29 57,23 c 49,-88 26,-57 58,-146 7,-18 14,-40 20,-58 l 174,-91 40,4 -36,-106 c -31,-14 -96,-37 -126,-61 -104,-87 -36,-30 -114,-127 29,-11 86,-105 272,21 143,38 94,-34 80,-132 -66,-264 -14,1 18,-174 13,-73 3,-90 1,-214 l 202,-7 229,-260 c -271,57 -52,14 -137,-64 l 151,-9 -8,-90 -14,-116 c -181,-60 -22,55 -166,-110 99,-103 184,-177 313,-269 l -103,393 76,-67 c 13,-9 38,-24 51,-33 14,-9 38,-20 56,-31 57,-12 151,-31 210,-70 l 281,-357 c 7,-12 18,-28 25,-40 l 311,-197 c 68,-220 29,-133 -11,-362 l 94,-52 c 70,-234 -47,-2 59,-167 126,-197 136,-88 169,-85 11,-161 -34,-125 119,-125 l 202,-2 24,-74 100,-96 235,95 42,-356 c 267,-47 282,13 420,-99 141,103 19,95 153,73 151,-24 228,-23 390,-33 l 543,56 190,-225 c -5,-2 -26,-5 -31,-7 -48,-15 -18,133 -59,-21 -3,-12 -18,-10 -26,-17 140,-45 60,-40 206,-18 l 85,20 c 138,-469 151,85 15,-204 l -362,65 46,-323 z"
   id="path4858"
   inkscape:connector-curvature="0"
   style="fill:#443a43" />
   <path
   class="fil7"
   d="m 16316,9575 20,157 188,220 -85,209 c 29,281 83,118 137,460 119,-65 51,100 76,275 22,159 27,226 38,403 11,196 3,510 101,713 l 145,55 c -57,205 75,63 -143,136 l -55,661 c 219,-46 149,-144 85,419 -19,165 -64,312 -103,446 l 149,119 c -15,17 -31,18 -34,32 l -141,26 c -166,50 -113,499 -95,590 l -120,51 -2,162 -108,15 192,2 -5,270 5,267 c 131,156 -6,57 225,127 l 13,-248 26,-199 131,-72 -13,-248 c 92,-124 -47,-53 211,-114 -46,-294 -57,-93 24,-306 l -90,-25 c 12,-38 46,-191 48,-200 l -36,-150 259,62 c 148,-289 263,-974 304,-1275 l -112,-111 67,-117 c -65,-91 -52,-68 -95,-121 l -11,-109 c -58,-296 -81,-649 -85,-788 88,-57 -133,-153 150,-5 l 9,-447 c -163,-173 -174,-130 -254,-132 132,-215 161,67 33,-365 58,-486 -25,-261 -138,-553 -91,-235 8,-336 -157,-623 -289,75 14,-202 -188,139 12,9 31,18 38,24 8,7 30,19 39,28 l 86,115 c 5,8 5,52 8,43 3,-9 0,30 0,45 -125,107 27,-12 -146,87 -95,-354 -99,-173 87,-350 l -229,171 c -10,9 -23,24 -33,32 -107,91 -80,66 -184,46 -17,-4 -165,-49 -232,-49 z"
   id="path4860"
   inkscape:connector-curvature="0"
   style="fill:#432d3b" />
   <path
   class="fil8"
   d="m 13673,6442 c 127,97 115,64 179,213 239,-83 118,-96 291,-20 l 183,12 4,123 263,168 c -111,103 52,49 -142,17 l 81,173 c 275,79 267,143 469,251 l 25,-81 c 16,13 39,12 45,38 l 134,128 c -82,79 44,27 -98,33 l 83,97 c 274,304 1,141 269,232 30,191 21,6 -124,100 122,247 -131,-118 42,79 74,84 30,39 113,106 60,-99 -107,-147 131,-24 134,70 22,6 124,130 4,-3 38,-82 107,21 138,207 77,-8 6,186 -13,-19 -45,-62 -51,-47 -6,15 -2,8 -72,-93 l -116,13 c 74,177 111,128 278,183 l 52,-54 c 149,173 126,89 198,305 l 63,177 c 8,15 20,31 28,46 9,16 23,39 31,53 8,14 22,37 32,56 l -119,51 55,156 86,91 c 10,10 30,28 42,40 43,41 25,8 113,110 -88,50 7,31 -162,64 67,0 215,45 232,49 104,20 77,45 184,-46 10,-8 23,-23 33,-32 l 229,-171 c -186,177 -182,-4 -87,350 173,-99 21,20 146,-87 0,-15 3,-54 0,-45 -3,9 -3,-35 -8,-43 l -86,-115 c -9,-9 -31,-21 -39,-28 -7,-6 -26,-15 -38,-24 202,-341 -101,-64 188,-139 26,-202 -85,-431 -186,-629 -125,-243 -7,-44 -118,-124 l -205,41 c -93,-119 -40,22 -58,-153 l 40,-270 c -10,-19 -23,-67 -29,-56 -6,12 -23,-41 -31,-52 -30,-44 -60,-83 -96,-125 l -134,207 c -5,11 -8,34 -11,51 l -168,-200 c 78,-116 -73,-4 82,-94 l -22,-252 -20,5 -243,-6 c 33,-104 -113,-44 178,-58 l -127,-190 c -129,-146 -41,-55 -162,-94 l -3,-91 c -31,-148 -10,-5 -129,-69 -238,229 -168,-74 -336,-194 l 112,-1 c -75,-195 -134,-243 -181,-454 -471,32 78,14 -382,-84 l -53,83 c -25,-24 -40,-55 -44,-45 -5,10 -24,-25 -30,-31 l 57,-44 c -119,-197 -45,-149 -248,-273 l -55,114 c -111,-71 -74,-22 -93,-183 -177,-59 -241,-204 -338,-267 -119,-76 -370,-108 -491,-158 l -354,1 c 37,110 110,307 174,191 l -104,174 c -5,-13 -25,33 -37,50 -20,-32 -19,-131 -116,-126 -206,13 -58,36 -106,166 215,52 408,62 613,83 74,252 -39,158 211,274 -85,109 136,108 -154,81 z"
   id="path4862"
   inkscape:connector-curvature="0"
   style="fill:#4b3c44" />
   <path
   class="fil2"
   d="m 16245,14687 35,432 c -179,-30 -63,-40 -185,-11 -224,53 -191,186 -310,319 l -119,29 -118,20 10,186 c -484,-38 -169,8 -405,172 -215,149 -119,-101 -317,180 l -192,-25 c 134,222 -204,80 192,175 31,200 -258,187 47,121 l 6,447 c -186,-159 -113,115 -140,-245 -17,-220 53,-55 -59,-289 -257,-18 -243,-4 -473,60 -83,148 -1,61 -147,118 l -527,59 14,48 c -83,148 109,121 -107,122 105,281 72,-135 52,194 -18,284 0,-55 -63,172 -60,223 167,10 -73,273 l 294,23 c 969,-163 1200,-366 1912,-758 l 91,-125 -54,-35 -134,61 c -20,-9 -123,-53 -140,-56 -123,-26 -17,-21 -173,7 71,-111 141,-239 191,-390 195,126 166,13 341,333 24,-104 71,-173 118,-253 l 186,15 c 200,-64 159,-73 199,-186 l 58,-173 c -1,0 -144,27 -147,27 l 151,-219 c 113,42 120,14 258,94 l 8,-105 100,-113 -236,-187 c 101,-96 84,-58 167,-208 l 5,-270 -192,-2 c -19,-348 -45,-128 128,-190 -124,-57 160,-184 -155,-31 l 27,-114 c -177,59 -89,-24 -124,298 z"
   id="path4864"
   inkscape:connector-curvature="0"
   style="fill:#3d333b" />
   <path
   class="fil9"
   d="m 3504,9476 c 116,275 146,154 46,512 l 37,334 c -427,-30 121,868 -354,974 -44,10 -103,1 -148,4 l 37,192 -32,36 c 141,-3 146,-47 164,-100 -65,615 76,-90 116,384 16,182 -63,264 -161,383 334,182 127,56 232,254 16,14 53,40 61,49 59,78 35,28 70,154 l -151,22 -7,80 c 10,9 24,25 25,31 0,5 3,28 3,33 -5,90 89,36 -76,75 66,331 -8,67 145,325 l -27,133 3,62 c 191,127 115,12 228,308 v 378 l 360,63 29,-112 c 72,44 176,40 138,180 -1,1 -11,6 -15,10 81,-111 -17,-67 185,-64 -63,-601 -173,-154 -214,-539 36,28 -148,101 181,0 15,-43 30,3 9,-132 -85,-88 -25,214 -95,-195 -140,227 -90,-35 -208,-28 -6,-114 -55,-280 -55,-285 l 106,-163 c -17,-12 -40,-53 -50,-37 l -209,-328 c -7,-5 -103,-68 -124,-82 15,-13 30,-62 43,-41 13,22 42,-20 59,-17 24,4 58,12 82,17 30,5 64,29 97,40 l -85,-195 -24,-55 -131,-69 c 161,-531 -195,-384 -196,-384 58,-186 46,-171 74,-313 l 27,-645 c 200,-157 134,-37 127,-192 -13,-18 -30,-38 -39,-53 -9,-15 -25,-35 -35,-53 -10,-16 -20,-33 -29,-51 -186,-381 109,-563 -135,-674 l 191,-383 c -117,-41 181,-120 -213,0 z"
   id="path4866"
   inkscape:connector-curvature="0"
   style="fill:#33242c" />
   <path
   class="fil10"
   d="m 8681,17907 109,145 c 47,92 23,27 46,139 305,-101 5,-135 416,-29 l 789,99 c 184,11 203,25 375,44 l 364,9 c 467,40 988,143 1123,-299 212,80 180,38 255,-4 -11,-12 -31,-44 -35,-34 l -88,-356 -375,-10 c -30,106 -136,29 -288,21 -243,-13 -148,-1 -316,51 -155,49 -381,22 -694,63 -86,-39 -409,-22 -640,-63 l -127,282 c -137,-68 -158,69 -18,-237 l -152,7 -112,-24 -116,-20 14,64 h -358 c 110,28 115,52 175,213 z"
   id="path4868"
   inkscape:connector-curvature="0"
   style="fill:#e5e1e3" />
   <path
   class="fil11"
   d="m 8636,5280 -46,323 362,-65 c 136,289 123,-265 -15,204 l -85,-20 c -146,-22 -66,-27 -206,18 8,7 23,5 26,17 41,154 11,6 59,21 5,2 26,5 31,7 l -190,225 -543,-56 c -162,10 -239,9 -390,33 -134,22 -12,30 -153,-73 -138,112 -153,52 -420,99 l -42,356 95,25 c 47,-90 -117,-51 111,-82 169,73 20,-35 170,115 l 154,-98 c 7,-9 20,-33 26,-40 6,-8 15,-29 25,-42 76,310 76,145 -41,439 l -163,22 -48,100 325,76 343,-274 c 323,-616 232,-43 403,-503 l 383,52 c 11,3 30,13 45,19 l 154,140 178,-33 -181,-256 c 243,12 158,-17 311,116 16,-16 47,-56 54,-39 6,14 38,-29 45,-34 l 52,-49 193,42 c -10,-24 -79,-154 -81,-167 -44,-211 -47,-21 12,-104 l -211,-206 -97,152 c -55,-292 -16,-149 -240,-268 l -298,-327 -170,30 z"
   id="path4870"
   inkscape:connector-curvature="0"
   style="fill:#63545c" />
   <path
   class="fil12"
   d="m 9589,5794 215,112 171,38 17,175 206,-25 37,-335 c 199,2 262,17 448,36 451,44 195,-52 513,-65 329,-14 382,212 939,131 149,-112 104,76 125,-137 l -105,-51 c -13,-5 -35,-14 -48,-19 -93,-32 -13,-15 -144,-21 l -192,27 -158,-191 -374,77 -558,-54 -194,183 c 78,-204 93,-97 -44,-251 -18,12 -76,38 -90,43 -9,3 -31,8 -41,11 l -117,47 c -267,137 41,-146 -220,64 l -87,90 c -9,-15 -33,34 -49,52 -77,-430 -68,-41 -199,-438 199,-16 159,6 404,44 l -39,-189 -1262,-3 298,327 c 224,119 185,-24 240,268 l 97,-152 z"
   id="path4872"
   inkscape:connector-curvature="0"
   style="fill:#392536" />
   <path
   class="fil10"
   d="m 13304,11170 c 34,-239 -1,-167 265,-211 v -224 c -263,353 -4,81 -267,182 67,-309 -12,-101 118,-320 l -123,-383 -287,73 -17,-160 c 139,62 308,84 308,84 l -63,-151 c 9,-191 -31,-19 64,-163 l 122,251 c 27,-276 58,-91 -23,-345 l -159,-50 -39,-177 46,-58 -171,-25 c 56,373 285,8 -382,61 4,404 -7,307 215,542 l -179,310 c -27,-84 -42,-137 -72,-237 -122,-411 -213,-503 -471,-551 -45,345 45,281 53,647 l 128,-88 c 1,-6 -7,9 -12,13 139,95 80,4 17,318 207,-78 39,27 198,-72 l 15,243 290,22 c 67,355 -15,8 87,216 z"
   id="path4874"
   inkscape:connector-curvature="0"
   style="fill:#e5e1e3" />
   <path
   class="fil13"
   d="m 13178,13601 -35,-221 229,-163 c 0,-26 -3,-84 1,-77 4,7 1,-53 7,-77 l 75,-229 -34,-32 c 37,-37 14,-41 107,-108 137,-100 -42,7 137,-76 -60,-214 -27,-123 -106,-295 l 114,-245 141,-41 -12,-225 c -208,49 -243,107 -412,88 109,-126 223,-294 114,-504 l -4,-100 c -183,-229 16,-11 -159,-131 -187,230 -175,195 -141,543 l -72,1237 c -164,774 -81,548 50,656 z"
   id="path4876"
   inkscape:connector-curvature="0"
   style="fill:#d5ccd3" />
   <path
   class="fil14"
   d="m 9876,6772 -100,57 83,350 -136,160 c 199,75 31,-85 239,134 l 165,-170 9,37 160,13 11,-136 c -188,-172 -144,-185 -221,-450 14,17 33,37 43,52 10,13 28,33 39,49 10,15 20,32 31,48 l 171,313 503,128 -23,-40 c 15,-10 41,-41 48,-27 9,17 58,-22 92,-46 137,-96 43,104 111,-130 l -63,-182 163,-25 43,-231 -115,149 c -317,-232 -83,-153 -471,-172 -287,-13 -328,91 -593,-61 -61,70 -90,113 -189,180 z"
   id="path4878"
   inkscape:connector-curvature="0"
   style="fill:#c7bab8" />
   <path
   class="fil15"
   d="m 13967,9764 -1,33 c 127,-173 1,-102 280,-169 -41,238 47,-26 -136,266 129,145 -190,6 141,123 -48,90 67,76 -70,73 118,145 -207,178 153,110 -47,125 -46,126 -55,267 -11,165 48,13 -22,136 l -9,96 206,73 c 34,172 -53,191 62,87 -457,0 30,-58 -183,151 l -173,194 c 63,9 5,-73 151,112 48,60 72,110 130,176 l -24,126 c 58,-104 109,-196 255,-300 l 16,244 c 54,-67 44,-13 83,-134 1,-4 25,-152 25,-158 -191,38 -152,85 -152,-98 l 127,-107 -23,-122 -98,-154 c 106,-226 121,-254 -27,-554 -78,-158 -67,-149 -106,-286 -198,-709 -64,283 -239,-601 l -365,127 c -1,4 -23,63 -12,139 2,14 43,103 66,150 z"
   id="path4880"
   inkscape:connector-curvature="0"
   style="fill:#654a56" />
   <path
   class="fil16"
   d="m 10987,16865 -309,17 -187,48 c 84,43 -131,85 147,46 -51,544 21,108 43,385 l 13,199 c 0,-11 -8,45 -13,67 -465,2 -208,32 -319,119 313,-41 539,-14 694,-63 168,-52 73,-64 316,-51 152,8 258,85 288,-21 -26,-147 -51,-133 73,-48 101,-312 40,-66 -29,-166 -219,-175 -318,-35 -449,-10 -121,24 -23,34 -164,-15 54,-422 -143,336 19,-120 120,-339 218,-263 338,-303 l -64,-157 -148,-47 -44,152 z"
   id="path4882"
   inkscape:connector-curvature="0"
   style="fill:#443443" />
   <path
   class="fil17"
   d="m 12456,8965 -160,-150 c 118,-54 -34,-17 115,11 l -29,-108 94,-12 c -64,-78 106,-111 -133,-79 -150,101 197,120 -194,85 l -222,-210 c -465,-110 -388,101 -926,-14 l -260,168 c 131,241 98,167 327,169 723,6 -131,338 1055,76 57,116 -90,64 102,109 436,103 138,13 231,-45 z"
   id="path4884"
   inkscape:connector-curvature="0"
   style="fill:#e4dcda" />
   <path
   class="fil18"
   d="m 12404,7540 c 287,-10 131,-37 182,85 l 505,304 c 340,182 -44,61 418,441 l -17,-465 c -301,-190 -230,2 -244,-326 111,122 -33,148 372,19 -72,-60 -15,-36 -160,-89 -79,-29 -112,-30 -214,-74 -53,100 -7,101 -67,173 l -126,-37 -199,-22 64,-339 c -405,242 -257,90 -480,197 68,-268 9,-190 352,-230 l -49,-184 c -265,-39 -342,-121 -592,-106 l -18,89 c 8,6 97,73 107,81 26,20 68,74 75,59 6,-12 25,20 44,29 z"
   id="path4886"
   inkscape:connector-curvature="0"
   style="fill:#d3c5c3" />
   <path
   class="fil19"
   d="m 11733,17563 h 98 l 20,-165 c 246,-72 99,-35 237,-148 l 76,-59 c 12,-9 36,-22 46,-29 12,-7 35,-18 52,-27 l -47,-345 -831,2 64,157 c -120,40 -218,-36 -338,303 -162,456 35,-302 -19,120 141,49 43,39 164,15 131,-25 230,-165 449,10 69,100 130,-146 29,166 z"
   id="path4888"
   inkscape:connector-curvature="0"
   style="fill:#544b53" />
   <path
   class="fil20"
   d="m 12215,16790 47,345 c -7,62 -19,109 -25,148 -19,117 -7,-19 -11,138 -184,57 -35,-5 -134,75 l -261,67 h -98 c -124,-85 -99,-99 -73,48 l 375,10 465,-11 c -30,-125 33,-77 -87,-297 l 441,183 105,32 -36,-360 -287,98 220,-214 -186,-202 c -96,-93 7,-6 -118,-86 -11,-7 -62,-23 -81,-31 v -64 c -94,26 -269,25 -256,121 z"
   id="path4890"
   inkscape:connector-curvature="0"
   style="fill:#534453" />
   <path
   class="fil21"
   d="m 4112,9625 -77,119 c -55,-37 -148,113 -1,-90 l -159,112 c 181,203 60,-45 131,256 -110,189 -176,266 -180,511 7,155 73,35 -127,192 l -27,645 c -28,142 -16,127 -74,313 1,0 357,-147 196,384 l 131,69 c 18,-280 9,-225 -82,-452 l 135,-113 -115,-98 c -7,-16 -18,-59 -20,-48 -3,11 -16,-37 -19,-44 -38,-96 -2,6 -38,-100 1,-21 -3,-143 2,-159 4,-16 9,-46 15,-63 114,-328 -179,67 61,-93 l 69,-54 71,-73 c 36,-568 -262,138 -3,-472 7,-17 24,-74 32,-92 6,-14 11,-32 18,-46 7,-14 15,-30 23,-43 8,-14 21,-27 29,-41 46,-76 27,79 101,-185 29,-101 -23,-115 55,-273 137,-275 80,48 162,-334 l -174,91 c -6,18 -13,40 -20,58 -32,89 -9,58 -58,146 z"
   id="path4892"
   inkscape:connector-curvature="0"
   style="fill:#755a5a" />
   <path
   class="fil22"
   d="m 7763,17259 79,80 c 8,7 29,24 39,32 9,8 27,20 37,29 l 505,379 c 193,138 -49,125 258,128 l 347,61 c -60,-161 -65,-185 -175,-213 h 358 l -14,-64 c -46,-107 39,-96 -96,-75 -217,39 -225,89 -227,-116 l 40,19 c -110,-45 -116,-28 -224,-65 -164,-55 -85,-11 -183,-106 l -54,-26 c -273,-29 -275,2 -491,-90 z"
   id="path4894"
   inkscape:connector-curvature="0"
   style="fill:#cac8d6" />
   <path
   class="fil8"
   d="m 11861,5435 102,198 c 131,6 51,-11 144,21 13,5 35,14 48,19 l 105,51 c -21,213 24,25 -125,137 59,62 -11,80 194,110 l -33,-122 c 4,-37 -32,-47 111,-98 8,10 22,14 24,32 l 104,178 108,-119 c 350,-251 135,37 275,-317 21,64 28,85 192,118 185,-131 80,-70 137,-175 -191,-132 -577,-230 -878,-247 l 165,263 -159,51 c -257,14 -420,-3 -514,-100 z"
   id="path4896"
   inkscape:connector-curvature="0"
   style="fill:#4b3c44" />
   <path
   class="fil23"
   d="m 11210,5142 c 234,160 174,-323 174,150 -336,89 -119,-26 -17,48 8,5 42,51 48,36 8,-18 37,28 52,45 -208,43 -126,34 -228,125 l 374,-77 c 21,-140 -51,-82 27,-176 375,178 19,-63 221,142 94,97 257,114 514,100 l 159,-51 -165,-263 c -167,-30 -299,-103 -488,-123 -169,-18 -176,7 -300,-3 -268,-22 33,6 -283,-79 z"
   id="path4898"
   inkscape:connector-curvature="0"
   style="fill:#574859" />
   <path
   class="fil24"
   d="m 12535,5961 c 434,21 157,-15 255,98 l -8,53 c 222,10 721,240 891,330 290,27 69,28 154,-81 -250,-116 -137,-22 -211,-274 -205,-21 -398,-31 -613,-83 48,-130 -100,-153 106,-166 97,-5 96,94 116,126 12,-17 32,-63 37,-50 l 104,-174 c -64,116 -137,-81 -174,-191 l 354,-1 -299,-80 c -57,105 48,44 -137,175 -164,-33 -171,-54 -192,-118 -140,354 75,66 -275,317 z"
   id="path4900"
   inkscape:connector-curvature="0"
   style="fill:#2c232b" />
   <path
   class="fil25"
   d="m 10443,5424 c 137,154 122,47 44,251 l 194,-183 558,54 c 102,-91 20,-82 228,-125 -15,-17 -44,-63 -52,-45 -6,15 -40,-31 -48,-36 -102,-74 -319,41 17,-48 0,-473 60,10 -174,-150 l -94,9 76,-117 -147,27 c -223,-1 -154,-149 -313,47 l -197,119 c -118,-35 72,8 -141,-36 z"
   id="path4902"
   inkscape:connector-curvature="0"
   style="fill:#675964" />
   <path
   class="fil23"
   d="m 13121,16531 52,176 c -305,64 -150,-51 -239,153 65,110 54,108 163,170 -144,151 3,31 -174,138 298,52 88,-17 174,107 l 46,-19 177,-18 27,165 c 126,-53 86,-21 151,-45 149,-56 76,-5 162,-91 l -294,-23 c 240,-263 13,-50 73,-273 63,-227 45,112 63,-172 20,-329 53,87 -52,-194 216,-1 24,26 107,-122 z"
   id="path4904"
   inkscape:connector-curvature="0"
   style="fill:#574859" />
   <path
   class="fil26"
   d="m 3271,10249 -50,50 c -7,7 -29,27 -36,33 -8,8 -38,52 -45,39 -8,-15 -33,28 -50,42 l 26,10 -67,298 c 186,106 202,58 210,276 l -167,121 -7,182 c 45,-3 104,6 148,-4 475,-106 -73,-1004 354,-974 l -37,-334 -88,-46 52,294 z"
   id="path4906"
   inkscape:connector-curvature="0"
   style="fill:#2a2635" />
   <path
   class="fil27"
   d="m 14417,11618 c 88,73 51,45 144,82 9,4 34,9 41,12 l 94,36 c -195,177 -225,273 -458,186 l 23,234 c 542,177 33,328 382,409 29,-416 -8,-17 88,-237 41,-95 28,-98 52,-220 -59,-161 27,-92 -96,-177 l 144,-186 -143,-195 -16,-244 c -146,104 -197,196 -255,300 z"
   id="path4908"
   inkscape:connector-curvature="0"
   style="fill:#59484a" />
   <path
   class="fil27"
   d="m 13498,14514 c 206,-32 217,-121 256,-323 l 123,-17 390,-389 c -139,-35 -8,151 -172,-120 104,-77 -186,-108 206,-47 l 32,-81 c -191,64 -279,-27 -328,-52 l -147,224 c -3,-10 -24,12 -54,20 l 24,320 c -245,7 -186,35 -524,191 12,145 23,85 -62,204 200,-69 81,-34 296,-92 z"
   id="path4910"
   inkscape:connector-curvature="0"
   style="fill:#59484a" />
   <path
   class="fil28"
   d="m 7665,13927 111,48 c -146,230 -71,44 -53,286 184,29 136,-5 285,91 257,165 105,161 282,304 l 388,243 c 1,-78 27,-196 26,-210 -14,-262 -259,-300 -451,-298 l -452,-541 z"
   id="path4912"
   inkscape:connector-curvature="0"
   style="fill:#4b3d4b" />
   <path
   class="fil29"
   d="m 6335,16414 c 167,260 387,287 682,405 242,97 609,244 746,365 l 2,-132 c -352,-39 -110,-25 -215,-74 l 23,-399 c -120,17 -55,-15 -91,56 -119,236 74,11 -124,241 -162,-82 -132,162 -135,-240 -310,-14 -345,-25 -578,-165 -268,-162 16,26 -115,-142 -148,-190 -131,-118 -316,-148 z"
   id="path4914"
   inkscape:connector-curvature="0"
   style="fill:#271b26" />
   <path
   class="fil8"
   d="m 10005,5148 39,189 c -245,-38 -205,-60 -404,-44 131,397 122,8 199,438 16,-18 40,-67 49,-52 l 87,-90 c 261,-210 -47,73 220,-64 l 117,-47 c 10,-3 32,-8 41,-11 14,-5 72,-31 90,-43 l -49,-233 c 213,44 23,1 141,36 l 197,-119 c -122,-16 -182,-20 -301,-28 -33,-2 -116,-11 -141,-7 -153,27 -15,-30 -98,57 z"
   id="path4916"
   inkscape:connector-curvature="0"
   style="fill:#4b3c44" />
   <path
   class="fil14"
   d="m 14307,15241 -298,-67 c -122,131 -142,145 -259,211 l 172,241 c 3,5 12,22 19,33 203,-62 243,-138 338,-172 251,-89 9,148 259,-123 -15,-120 -4,-76 -87,-165 l 158,-222 c 12,-19 23,-45 34,-68 -240,50 -145,-44 -269,106 -74,89 5,99 -67,226 z"
   id="path4918"
   inkscape:connector-curvature="0"
   style="fill:#c7bab8" />
   <path
   class="fil30"
   d="m 16369,14389 -27,114 c 315,-153 31,-26 155,31 l -18,13 120,-51 c -18,-91 -71,-540 95,-590 l 141,-26 c 3,-14 19,-15 34,-32 l -149,-119 c 39,-134 84,-281 103,-446 64,-563 134,-465 -85,-419 -87,267 -48,341 12,545 -111,94 -197,301 -255,443 -100,242 0,285 -126,537 z"
   id="path4920"
   inkscape:connector-curvature="0"
   style="fill:#191937" />
   <path
   class="fil19"
   d="m 13883,11898 12,174 -222,6 -114,245 c 79,172 46,81 106,295 l 263,-41 235,-831 c -244,22 -118,1 -280,152 z"
   id="path4922"
   inkscape:connector-curvature="0"
   style="fill:#544b53" />
   <path
   class="fil31"
   d="m 3001,11364 79,-318 c 6,-3 169,-47 179,-49 -8,-218 -24,-170 -210,-276 l 67,-298 c -381,156 -370,432 -479,839 383,-135 16,37 270,-274 z"
   id="path4924"
   inkscape:connector-curvature="0"
   style="fill:#edebeb" />
   <path
   class="fil32"
   d="m 4388,13505 32,-287 c -250,79 -215,79 -164,-209 l 170,138 c -66,-260 -209,-449 -400,-635 l 76,-236 c -47,-43 -107,-41 -153,-85 l 85,195 c -33,-11 -67,-35 -97,-40 -24,-5 -58,-13 -82,-17 -17,-3 -46,39 -59,17 -13,-21 -28,28 -43,41 21,14 117,77 124,82 l 209,328 c 10,-16 33,25 50,37 l -106,163 c 0,5 49,171 55,285 118,-7 68,255 208,28 70,409 10,107 95,195 z"
   id="path4926"
   inkscape:connector-curvature="0"
   style="fill:#534344" />
   <path
   class="fil33"
   d="m 6354,10033 3,-266 265,82 -23,-292 274,-225 -50,-240 -209,-78 c -186,-34 -49,48 -105,226 -41,132 -42,108 -89,225 -74,185 -136,333 -66,568 z"
   id="path4928"
   inkscape:connector-curvature="0"
   style="fill:#797586" />
   <path
   class="fil34"
   d="m 13012,9160 66,333 171,25 c 44,-93 177,28 177,28 10,5 32,18 41,22 l 116,-369 c -43,40 18,-2 -40,-212 -166,176 -13,27 -131,47 l -203,152 85,-283 c -247,94 -112,147 -282,257 z"
   id="path4930"
   inkscape:connector-curvature="0"
   style="fill:#53444c" />
   <path
   class="fil34"
   d="m 4412,14176 8,-20 c 38,159 28,130 119,233 l 198,-243 139,43 -141,-253 -188,-34 c 19,-201 -4,-25 36,-223 -99,-212 -43,-144 -195,-174 21,135 6,89 -9,132 -329,101 -145,28 -181,0 41,385 151,-62 214,539 z"
   id="path4932"
   inkscape:connector-curvature="0"
   style="fill:#53444c" />
   <path
   class="fil35"
   d="m 13424,10148 145,587 v 224 c 34,153 -54,66 57,125 l -87,130 c -5,8 -17,51 -21,41 -4,-9 -12,28 -18,41 l 4,100 233,-15 c -67,-162 -53,-32 -35,-283 l 165,-48 28,-158 c -335,-119 -124,-49 -250,-359 36,-126 -159,-84 104,-110 -111,-160 -74,-112 -278,-82 8,-70 57,-350 52,-392 -30,-238 -95,-140 -122,-146 81,254 50,69 23,345 z"
   id="path4934"
   inkscape:connector-curvature="0"
   style="fill:#8a8798" />
   <path
   class="fil36"
   d="m 3106,12253 -23,138 c 143,-43 99,-32 243,-84 l -40,239 155,-97 c -105,-198 102,-72 -232,-254 98,-119 177,-201 161,-383 -40,-474 -181,231 -116,-384 -18,53 -23,97 -164,100 l 32,-36 h -112 c -15,262 163,565 96,761 z"
   id="path4936"
   inkscape:connector-curvature="0"
   style="fill:#45384b" />
   <path
   class="fil37"
   d="m 13720,8596 c 17,13 60,45 68,54 58,59 47,49 97,110 l 88,-4 c 207,-61 263,-136 479,-204 -164,-201 263,-260 -333,-135 69,-477 18,-97 -63,-211 l -29,167 c -53,18 -4,48 -112,9 l -119,-110 c 64,368 -6,151 -76,324 z"
   id="path4938"
   inkscape:connector-curvature="0"
   style="fill:#dacdc4" />
   <path
   class="fil26"
   d="m 13143,13380 35,221 -68,134 c -36,162 -30,114 0,175 144,-85 148,-38 383,10 -3,-432 14,151 76,-212 5,-33 35,-28 57,-44 l -138,-345 -122,93 z"
   id="path4940"
   inkscape:connector-curvature="0"
   style="fill:#2a2635" />
   <path
   class="fil38"
   d="m 13509,8370 136,5 168,-398 c -19,-9 -47,-42 -58,-28 l -135,-351 c -405,129 -261,103 -372,-19 14,328 -57,136 244,326 z"
   id="path4942"
   inkscape:connector-curvature="0"
   style="fill:#998788" />
   <path
   class="fil39"
   d="m 8021,6610 c 390,-23 179,99 444,31 -114,-221 8,-50 -214,-216 l 628,18 -276,-140 c 208,-87 44,-5 249,-125 -15,-6 -34,-16 -45,-19 l -383,-52 c -171,460 -80,-113 -403,503 z"
   id="path4944"
   inkscape:connector-curvature="0"
   style="fill:#d8d3d8" />
   <path
   class="fil40"
   d="m 11454,6759 c -106,175 -68,78 29,227 46,70 43,70 76,153 l 230,23 c -67,-198 -46,-101 -72,-266 l 69,98 c 212,29 174,87 172,-103 l -144,-176 c -321,-65 -57,-33 -256,-76 -23,-5 -95,-27 -119,-26 -182,2 -75,-40 -182,65 283,6 133,-23 197,81 z"
   id="path4946"
   inkscape:connector-curvature="0"
   style="fill:#dcd3cc" />
   <path
   class="fil41"
   d="m 11559,7139 -117,-25 c -192,-50 -121,-68 -121,160 l 338,-95 -143,327 c 128,-69 292,-106 376,-150 111,-59 138,-83 163,-194 24,-103 -18,-127 -45,-185 -6,-13 -25,-34 -36,-51 l 157,50 18,-89 c -305,11 -50,-123 -253,146 l -110,-39 -69,-98 c 26,165 5,68 72,266 z"
   id="path4948"
   inkscape:connector-curvature="0"
   style="fill:#776976" />
   <path
   class="fil42"
   d="m 7933,7868 c -181,96 232,101 -275,72 16,230 25,55 106,311 l 253,-121 -24,230 c 94,-27 160,-10 190,-143 32,-144 -57,-117 -105,-134 l 325,-234 c -12,-4 -34,-18 -38,-6 -4,11 -31,-4 -36,-5 -5,-2 -28,-3 -34,-5 -242,-81 215,283 -81,-48 -136,59 -120,51 -281,83 z"
   id="path4950"
   inkscape:connector-curvature="0"
   style="fill:#6b6369" />
   <path
   class="fil24"
   d="m 5902,16158 170,-11 c -6,-129 22,-110 106,-164 -237,-315 -165,-144 -106,-257 l -160,81 c -11,6 -34,20 -43,25 -10,6 -30,18 -45,25 l -285,-181 c -369,-91 -177,-44 -257,40 l 55,42 c 386,209 218,134 565,400 z"
   id="path4952"
   inkscape:connector-curvature="0"
   style="fill:#2c232b" />
   <path
   class="fil33"
   d="m 6255,10842 c 7,418 41,362 -55,715 l 233,-1 -63,-264 c -55,73 -25,-13 62,44 -59,-355 -46,-104 95,-161 l 1,115 185,-54 3,-289 -160,154 -109,-312 16,64 z"
   id="path4954"
   inkscape:connector-curvature="0"
   style="fill:#797586" />
   <path
   class="fil43"
   d="m 10136,7340 c -54,288 252,299 501,385 0,-1 -17,-157 -18,-163 l -21,-102 c -5,-19 -36,-102 -44,-122 504,175 221,33 319,19 l -503,-128 -63,-12 -11,136 z"
   id="path4956"
   inkscape:connector-curvature="0"
   style="fill:#5b4c53" />
   <path
   class="fil43"
   d="m 9465,6023 c 76,252 81,72 257,165 -1,0 -63,17 -110,77 -193,247 13,-143 -27,127 l 587,49 26,-347 -206,25 35,127 c -87,28 141,143 -172,20 -266,-105 113,8 -204,-246 l 153,-114 -215,-112 c -59,83 -56,-107 -12,104 2,13 71,143 81,167 z"
   id="path4958"
   inkscape:connector-curvature="0"
   style="fill:#5b4c53" />
   <path
   class="fil44"
   d="m 8943,7396 c 17,149 65,103 168,64 181,-127 202,-82 435,-63 l 240,-49 c -144,-102 195,-113 -191,-85 -30,-79 -146,258 0,-244 -253,128 -114,-94 -256,173 -127,-21 -113,15 -61,-98 -166,51 -79,-16 -190,117 z"
   id="path4960"
   inkscape:connector-curvature="0"
   style="fill:#cbc6c7" />
   <path
   class="fil2"
   d="m 12982,16602 -128,257 c -11,-12 -30,-46 -34,-37 l -93,-205 -256,52 v 64 c 19,8 70,24 81,31 125,80 22,-7 118,86 l 186,202 -220,214 287,-98 c 177,-107 30,13 174,-138 -109,-62 -98,-60 -163,-170 89,-204 -66,-89 239,-153 l -52,-176 -162,6 z"
   id="path4962"
   inkscape:connector-curvature="0"
   style="fill:#3d333b" />
   <path
   class="fil45"
   d="m 3266,10086 5,163 243,-13 -52,-294 88,46 c 100,-358 70,-237 -46,-512 -181,261 -190,209 -238,610 z"
   id="path4964"
   inkscape:connector-curvature="0"
   style="fill:#393855" />
   <path
   class="fil46"
   d="m 13010,10287 287,-73 123,383 c -130,219 -51,11 -118,320 263,-101 4,171 267,-182 l -145,-587 -122,-251 c -95,144 -55,-28 -64,163 l 63,151 c 0,0 -169,-22 -308,-84 z"
   id="path4966"
   inkscape:connector-curvature="0"
   style="fill:#edecf2" />
   <path
   class="fil20"
   d="m 7764,13244 c 170,-391 79,-193 -71,-365 -193,-222 29,-194 -271,-357 0,0 -196,61 -62,300 8,15 27,26 38,38 l 131,64 c 155,127 -79,159 235,320 z"
   id="path4968"
   inkscape:connector-curvature="0"
   style="fill:#534453" />
   <path
   class="fil47"
   d="m 13645,8375 c -42,176 -111,237 75,221 70,-173 140,44 76,-324 l 119,110 c 108,39 59,9 112,-9 l 29,-167 -224,-47 c 23,-188 -83,-62 101,-310 l -313,-251 135,351 c 11,-14 39,19 58,28 z"
   id="path4970"
   inkscape:connector-curvature="0"
   style="fill:#b7a8a7" />
   <path
   class="fil48"
   d="m 6255,10842 208,11 -16,-64 -49,-248 c 170,-65 85,-4 111,-119 19,-81 23,-153 36,-284 -76,-192 80,-24 -111,-148 l -23,346 -57,-303 c -135,104 -50,547 -99,809 z"
   id="path4972"
   inkscape:connector-curvature="0"
   style="fill:#6a546d" />
   <path
   class="fil20"
   d="m 11210,14656 366,-2 c -124,221 -184,-8 53,274 59,-95 58,-101 212,-136 271,-62 117,12 188,-104 -81,-213 -101,-48 -198,-197 l -550,117 c -9,3 -32,35 -38,22 -6,-12 -22,18 -33,26 z"
   id="path4974"
   inkscape:connector-curvature="0"
   style="fill:#534453" />
   <path
   class="fil23"
   d="m 13867,11050 224,-118 c -94,-285 -226,-281 -27,-451 -275,0 -72,31 -315,-58 -263,26 -68,-16 -104,110 126,310 -85,240 250,359 z"
   id="path4976"
   inkscape:connector-curvature="0"
   style="fill:#574859" />
   <path
   class="fil19"
   d="m 11486,15332 135,6 -31,85 242,55 c 130,-43 80,15 171,-64 -89,-190 65,146 -62,-179 228,12 456,59 495,-160 l -871,165 c -145,-29 -11,-17 -79,92 z"
   id="path4978"
   inkscape:connector-curvature="0"
   style="fill:#544b53" />
   <path
   class="fil14"
   d="m 14301,13618 -34,167 c 130,73 84,-186 98,72 l -159,98 c -145,101 11,-95 -95,97 l 181,25 c 41,329 -99,243 226,291 -280,-269 -74,-417 34,-511 l 2,-295 -201,74 29,-249 -49,150 z"
   id="path4980"
   inkscape:connector-curvature="0"
   style="fill:#c7bab8" />
   <path
   class="fil49"
   d="m 4758,8557 c -56,60 -70,76 -82,123 l 415,158 61,-478 c -64,-43 -1,-36 -165,-63 z"
   id="path4982"
   inkscape:connector-curvature="0"
   style="fill:#f7e8e7" />
   <path
   class="fil14"
   d="m 15410,13567 c -237,43 -176,89 -166,-157 -123,104 -166,79 -408,64 231,283 -63,118 359,191 3,48 19,119 2,170 l -109,141 c 321,27 139,-37 299,86 z"
   id="path4984"
   inkscape:connector-curvature="0"
   style="fill:#c7bab8" />
   <path
   class="fil50"
   d="m 3120,9338 c -43,-77 -51,-50 -102,-41 -7,1 -28,15 -43,22 l -59,271 c 58,-11 185,-27 233,-52 l 129,-127 c 210,-245 138,-320 60,-479 -154,157 -188,239 -218,406 z"
   id="path4986"
   inkscape:connector-curvature="0"
   style="fill:#f2eceb" />
   <path
   class="fil51"
   d="m 6422,11679 c 4,32 16,164 30,191 91,173 -62,7 116,121 l -42,-224 c 70,175 91,281 257,398 l 39,-97 c -39,-274 47,123 -39,-121 l -39,-243 -17,-82 -62,-93 c -152,32 -26,-14 -133,49 -18,11 -59,93 -74,64 -7,-13 -23,25 -36,37 z"
   id="path4988"
   inkscape:connector-curvature="0"
   style="fill:#867a86" />
   <path
   class="fil52"
   d="m 6091,15548 -6,-288 c -143,-50 -251,-96 -353,-140 -24,212 7,94 -142,207 121,153 -108,-14 158,147 186,113 211,80 343,74 z"
   id="path4990"
   inkscape:connector-curvature="0"
   style="fill:#675758" />
   <path
   class="fil53"
   d="m 6568,11991 -37,144 -7,188 c 178,-58 88,-60 145,0 l -2,125 177,411 c 8,10 24,28 37,42 l -54,-369 c -223,-441 -2,-195 55,-366 87,-255 1,-154 -99,-219 86,244 0,-153 39,121 l -39,97 c -166,-117 -187,-223 -257,-398 z"
   id="path4992"
   inkscape:connector-curvature="0"
   style="fill:#595666" />
   <path
   class="fil29"
   d="m 15685,15266 -19,190 119,-29 c 119,-133 86,-266 310,-319 122,-29 6,-19 185,11 l -35,-432 -124,-5 -19,327 c -381,90 -162,92 -417,257 z"
   id="path4994"
   inkscape:connector-curvature="0"
   style="fill:#271b26" />
   <path
   class="fil54"
   d="m 7328,12099 199,212 c -60,189 -30,-1 16,146 43,139 125,8 7,58 l 34,-229 19,-203 c -12,-10 -27,-25 -34,-31 -6,-6 -25,-24 -33,-31 l -134,-108 c -176,-76 -145,-133 -231,45 -152,314 3,-26 38,312 10,-16 33,-55 38,-43 5,11 28,-35 33,-43 z"
   id="path4996"
   inkscape:connector-curvature="0"
   style="fill:#27171a" />
   <path
   class="fil55"
   d="m 14897,14937 c -34,80 5,76 -68,134 l 103,192 c -195,-114 -167,75 -152,74 l 34,111 c 272,-208 472,-285 280,-565 l -58,-77 z"
   id="path4998"
   inkscape:connector-curvature="0"
   style="fill:#ebe4eb" />
   <path
   class="fil56"
   d="m 3269,13186 65,-292 c -132,95 -27,-141 -98,67 -203,-355 -84,-249 -265,-405 l -115,336 c 33,18 56,17 63,40 z"
   id="path5000"
   inkscape:connector-curvature="0"
   style="fill:#e5e1dc" />
   <path
   class="fil57"
   d="m 4602,15128 128,176 249,137 101,-2 c 44,-194 13,-150 37,-310 -151,22 -168,19 -188,70 l -306,-277 z"
   id="path5002"
   inkscape:connector-curvature="0"
   style="fill:#1a1528" />
   <path
   class="fil58"
   d="m 9278,7094 c -52,113 -66,77 61,98 142,-267 3,-45 256,-173 -146,502 -30,165 0,244 386,-28 47,-17 191,85 l -63,-9 136,-160 -83,-350 100,-57 -385,196 c -16,9 -31,17 -47,28 z"
   id="path5004"
   inkscape:connector-curvature="0"
   style="fill:#dddad3" />
   <path
   class="fil28"
   d="m 7764,8251 13,59 79,193 c -123,66 -178,62 -197,131 -96,343 30,108 146,217 228,-509 27,174 245,-235 -50,-140 -66,-86 -221,-128 102,-197 -130,-245 164,-128 l 24,-230 z"
   id="path5006"
   inkscape:connector-curvature="0"
   style="fill:#4b3d4b" />
   <path
   class="fil27"
   d="m 15609,16349 85,-45 c -175,-320 -146,-207 -341,-333 -50,151 -120,279 -191,390 156,-28 50,-33 173,-7 17,3 120,47 140,56 z"
   id="path5008"
   inkscape:connector-curvature="0"
   style="fill:#59484a" />
   <path
   class="fil30"
   d="m 4110,14655 c 77,54 241,187 394,244 178,-23 145,32 145,-123 -275,-37 14,106 -144,-44 -9,-8 -21,-26 -29,-36 l -124,-184 c -7,-4 -23,-10 -31,-13 l -243,-38 z"
   id="path5010"
   inkscape:connector-curvature="0"
   style="fill:#191937" />
   <path
   class="fil28"
   d="m 8636,13712 c -17,-11 -39,-23 -52,-31 l -203,-152 c 39,182 36,117 0,183 l -238,-23 c 61,101 26,38 69,103 26,38 39,63 71,102 115,139 102,104 217,151 84,-159 76,-123 136,-333 z"
   id="path5012"
   inkscape:connector-curvature="0"
   style="fill:#4b3d4b" />
   <path
   class="fil41"
   d="m 9184,6285 c 246,-22 183,33 401,107 40,-270 -166,120 27,-127 47,-60 109,-77 110,-77 -176,-93 -181,87 -257,-165 l -52,49 c -7,5 -39,48 -45,34 -7,-17 -38,23 -54,39 -153,-133 -68,-104 -311,-116 z"
   id="path5014"
   inkscape:connector-curvature="0"
   style="fill:#776976" />
   <path
   class="fil29"
   d="m 4075,14162 2,130 c 172,264 -39,67 387,253 -18,-255 -32,-152 -44,-389 l -8,20 c -202,-3 -104,-47 -185,64 4,-4 14,-9 15,-10 38,-140 -66,-136 -138,-180 z"
   id="path5016"
   inkscape:connector-curvature="0"
   style="fill:#271b26" />
   <path
   class="fil30"
   d="m 16182,9114 119,-51 c -10,-19 -24,-42 -32,-56 -8,-14 -22,-37 -31,-53 -8,-15 -20,-31 -28,-46 l -63,-177 c -72,-216 -49,-132 -198,-305 l -52,54 c 11,259 117,490 285,634 z"
   id="path5018"
   inkscape:connector-curvature="0"
   style="fill:#191937" />
   <path
   class="fil20"
   d="m 10362,16855 c 153,277 7,114 16,400 1,14 19,66 20,56 1,-10 19,40 28,59 l 255,-9 c -22,-277 -94,159 -43,-385 -278,39 -63,-3 -147,-46 l 187,-48 -123,-54 z"
   id="path5020"
   inkscape:connector-curvature="0"
   style="fill:#534453" />
   <path
   class="fil32"
   d="m 7364,8963 -202,281 c 11,12 30,14 34,36 l 92,136 c 97,-96 70,121 67,-192 438,13 118,37 280,-97 -14,-44 198,51 -72,-148 z"
   id="path5022"
   inkscape:connector-curvature="0"
   style="fill:#534344" />
   <path
   class="fil59"
   d="m 6116,6823 212,64 125,-79 74,-125 c -1,-17 -3,-38 -6,-50 l -32,-119 c -4,-38 -17,-46 -26,-68 -153,0 -108,-36 -119,125 -33,-3 -43,-112 -169,85 -106,165 11,-67 -59,167 z"
   id="path5024"
   inkscape:connector-curvature="0"
   style="fill:#644949" />
   <path
   class="fil43"
   d="m 14219,16161 -2,97 c 230,-64 216,-78 473,-60 112,234 42,69 59,289 27,360 -46,86 140,245 l -6,-447 c -305,66 -16,79 -47,-121 -396,-95 -58,47 -192,-175 l -23,69 c -142,117 -190,86 -402,103 z"
   id="path5026"
   inkscape:connector-curvature="0"
   style="fill:#5b4c53" />
   <path
   class="fil43"
   d="m 7256,16068 170,-64 c -130,-192 30,3 -176,-57 -158,-46 -16,2 -126,-62 -47,-28 17,-6 -149,-100 l 131,178 c -307,11 -110,-23 -327,95 156,109 74,-10 68,227 l 288,-152 c 93,-38 -79,-108 121,-65 z"
   id="path5028"
   inkscape:connector-curvature="0"
   style="fill:#5b4c53" />
   <path
   class="fil60"
   d="m 17512,12157 165,6 c -39,-135 -119,-303 -130,-437 -13,-161 41,-155 30,-362 -283,-148 -62,-52 -150,5 4,139 27,492 85,788 z"
   id="path5030"
   inkscape:connector-curvature="0"
   style="fill:#2c0d11" />
   <path
   class="fil61"
   d="m 14219,16161 c 212,-17 260,14 402,-103 -167,-119 -129,147 -109,-114 l 32,-93 c -28,-135 57,-7 -129,-109 -81,339 28,241 -292,246 -11,267 -30,98 96,173 z"
   id="path5032"
   inkscape:connector-curvature="0"
   style="fill:#eadbf0" />
   <path
   class="fil11"
   d="m 9228,7682 c 35,92 -117,11 93,104 -21,-399 43,-205 126,-285 -1,3 -213,121 143,56 17,-3 45,-18 66,-27 l -110,-133 c -233,-19 -254,-64 -435,63 l 108,176 c 5,-7 6,31 9,46 z"
   id="path5034"
   inkscape:connector-curvature="0"
   style="fill:#63545c" />
   <path
   class="fil43"
   d="m 12586,7625 c -51,-122 105,-95 -182,-85 l -189,-110 c -1,-8 -3,-20 -2,-24 0,-4 1,-22 2,-28 l -64,-161 c -19,310 7,200 -266,173 165,120 164,71 113,331 20,-8 109,-56 125,-62 227,-86 109,-62 463,-34 z"
   id="path5036"
   inkscape:connector-curvature="0"
   style="fill:#5b4c53" />
   <path
   class="fil32"
   d="m 14257,10603 c 70,-123 11,29 22,-136 9,-141 8,-142 55,-267 -360,68 -35,35 -153,-110 l -173,76 c 0,2 32,116 33,120 l 113,354 c 1,-1 47,-42 56,-46 2,-1 21,10 22,2 2,-10 17,5 25,7 z"
   id="path5038"
   inkscape:connector-curvature="0"
   style="fill:#534344" />
   <path
   class="fil50"
   d="m 8380,16368 88,145 c 253,27 -96,-7 174,-1 l 146,-45 c -253,-135 -286,-453 -591,-246 87,6 165,128 183,147 z"
   id="path5040"
   inkscape:connector-curvature="0"
   style="fill:#f2eceb" />
   <path
   class="fil62"
   d="m 8717,7597 37,213 177,23 6,-318 291,167 c -3,-15 -4,-53 -9,-46 l -108,-176 c -103,39 -151,85 -168,-64 l -96,-64 c 1,151 -11,20 18,170 z"
   id="path5042"
   inkscape:connector-curvature="0"
   style="fill:#776668" />
   <path
   class="fil20"
   d="m 7238,13507 c 142,220 35,129 248,283 l -78,-168 c 300,91 127,114 252,43 15,-241 37,-53 -46,-283 -389,44 -36,85 -376,125 z"
   id="path5044"
   inkscape:connector-curvature="0"
   style="fill:#534453" />
   <path
   class="fil63"
   d="m 11101,7114 c -68,234 26,34 -111,130 -34,24 -83,63 -92,46 -7,-14 -33,17 -48,27 185,-24 141,-66 141,118 -106,60 -172,62 -246,196 l 81,-95 c 93,-66 86,-50 181,-81 268,-88 77,10 334,-181 h -20 c 0,-228 -71,-210 121,-160 l -42,-60 z"
   id="path5046"
   inkscape:connector-curvature="0"
   style="fill:#5b5359" />
   <path
   class="fil29"
   d="m 3713,8841 2,224 v 99 c 165,-29 193,-104 354,-206 l -91,-79 c -10,-8 -33,-24 -42,-30 -11,-9 -57,-32 -76,-41 62,-111 140,-36 28,-108 -106,37 0,-21 -106,58 -7,6 -29,51 -34,38 -7,-13 -23,30 -35,45 z"
   id="path5048"
   inkscape:connector-curvature="0"
   style="fill:#271b26" />
   <path
   class="fil42"
   d="m 9992,6119 -17,-175 -171,-38 -153,114 c 317,254 -62,141 204,246 313,123 85,8 172,-20 z"
   id="path5050"
   inkscape:connector-curvature="0"
   style="fill:#6b6369" />
   <path
   class="fil11"
   d="m 9330,14265 c -57,-102 7,-82 -227,-76 l -109,243 c 214,139 120,160 265,107 14,-6 84,-84 85,-99 19,-309 135,61 -131,-158 z"
   id="path5052"
   inkscape:connector-curvature="0"
   style="fill:#63545c" />
   <path
   class="fil64"
   d="m 13504,11396 c 109,210 -5,378 -114,504 169,19 204,-39 412,-88 -206,-51 -114,-28 -180,-256 147,-153 -45,-60 193,-67 -47,-103 22,-63 -78,-108 z"
   id="path5054"
   inkscape:connector-curvature="0"
   style="fill:#bab4b8" />
   <path
   class="fil47"
   d="m 11201,6907 -163,25 63,182 299,-60 42,60 117,25 c -33,-83 -30,-83 -76,-153 -97,-149 -135,-52 -29,-227 -187,90 -70,-54 -165,154 z"
   id="path5056"
   inkscape:connector-curvature="0"
   style="fill:#b7a8a7" />
   <path
   class="fil65"
   d="m 14382,13387 -29,249 201,-74 c 160,-71 217,240 103,-211 -53,-210 -79,-83 -133,-88 z"
   id="path5058"
   inkscape:connector-curvature="0"
   style="fill:#ebe3dc" />
   <path
   class="fil66"
   d="m 6614,9014 209,78 c 15,-210 66,-171 229,-258 -184,-50 -225,0 -206,-213 l -182,-9 c 0,250 -5,130 74,349 z"
   id="path5060"
   inkscape:connector-curvature="0"
   style="fill:#9896a6" />
   <path
   class="fil51"
   d="m 7400,6427 -61,144 c 3,5 46,109 62,137 l 163,-22 c 117,-294 117,-129 41,-439 -10,13 -19,34 -25,42 -6,7 -19,31 -26,40 z"
   id="path5062"
   inkscape:connector-curvature="0"
   style="fill:#867a86" />
   <path
   class="fil32"
   d="m 7305,9797 c 39,-202 -8,-91 118,-286 l -190,131 c -70,-134 1,-92 -157,-73 -12,342 -53,139 -165,517 259,-175 164,-69 277,-397 39,203 31,39 117,108 z"
   id="path5064"
   inkscape:connector-curvature="0"
   style="fill:#534344" />
   <path
   class="fil19"
   d="m 10801,15135 162,33 c -10,26 -34,48 -21,141 2,10 52,166 59,203 195,-132 93,30 178,-151 117,-249 50,79 -229,-331 -203,52 -80,5 -149,105 z"
   id="path5066"
   inkscape:connector-curvature="0"
   style="fill:#544b53" />
   <path
   class="fil67"
   d="m 11831,17563 261,-67 c 99,-80 -50,-18 134,-75 4,-157 -8,-21 11,-138 6,-39 18,-86 25,-148 -17,9 -40,20 -52,27 -10,7 -34,20 -46,29 l -76,59 c -138,113 9,76 -237,148 z"
   id="path5068"
   inkscape:connector-curvature="0"
   style="fill:#3b2c34" />
   <path
   class="fil68"
   d="m 12151,7217 64,161 c -1,6 -2,24 -2,28 -1,4 1,16 2,24 l 189,110 -47,-395 c -19,-9 -38,-41 -44,-29 -7,15 -49,-39 -75,-59 -10,-8 -99,-75 -107,-81 z"
   id="path5070"
   inkscape:connector-curvature="0"
   style="fill:#887678" />
   <path
   class="fil64"
   d="m 7239,6800 114,8 48,-100 c -16,-28 -59,-132 -62,-137 l 61,-144 c -150,-150 -1,-42 -170,-115 -228,31 -64,-8 -111,82 l 166,27 c -144,140 -80,96 -46,379 z"
   id="path5072"
   inkscape:connector-curvature="0"
   style="fill:#bab4b8" />
   <path
   class="fil14"
   d="m 4671,11985 c -55,-76 -128,-32 -40,-358 35,-131 -4,-30 69,-157 -39,14 -243,-42 -261,343 -7,161 48,176 232,172 z"
   id="path5074"
   inkscape:connector-curvature="0"
   style="fill:#c7bab8" />
   <polygon
   class="fil35"
   points="7232,8159 7218,8389 7363,8372 7447,8362 7544,8338 7516,8092 "
   id="polygon5076"
   style="fill:#8a8798" />
   <path
   class="fil22"
   d="m 4110,14655 -32,-194 -1,-169 -2,-130 -360,-63 c 189,196 123,54 223,236 87,161 -20,1 36,125 108,238 -30,87 136,195 z"
   id="path5078"
   inkscape:connector-curvature="0"
   style="fill:#cac8d6" />
   <path
   class="fil25"
   d="m 11613,5469 158,191 192,-27 -102,-198 c -202,-205 154,36 -221,-142 -78,94 -6,36 -27,176 z"
   id="path5080"
   inkscape:connector-curvature="0"
   style="fill:#675964" />
   <path
   class="fil21"
   d="m 16197,15880 c 204,-87 188,-103 320,-271 -138,-80 -145,-52 -258,-94 l -151,219 c 3,0 146,-27 147,-27 z"
   id="path5082"
   inkscape:connector-curvature="0"
   style="fill:#755a5a" />
   <path
   class="fil69"
   d="m 3789,8625 115,-21 -5,-175 133,-30 77,-232 c -168,28 -137,-184 -138,45 -252,168 -137,207 -182,413 z"
   id="path5084"
   inkscape:connector-curvature="0"
   style="fill:#d4dcd6" />
   <path
   class="fil70"
   d="m 6354,10033 57,303 23,-346 c 191,124 35,-44 111,148 12,-69 58,-222 77,-289 l -265,-82 z"
   id="path5086"
   inkscape:connector-curvature="0"
   style="fill:#393748" />
   <path
   class="fil68"
   d="m 6033,7237 178,-16 -36,-180 153,-154 -212,-64 -94,52 c 40,229 79,142 11,362 z"
   id="path5088"
   inkscape:connector-curvature="0"
   style="fill:#887678" />
   <path
   class="fil14"
   d="m 6328,6887 -153,154 c 211,130 103,81 288,138 58,-151 36,-105 1,-309 -3,-16 -9,-41 -11,-62 z"
   id="path5090"
   inkscape:connector-curvature="0"
   style="fill:#c7bab8" />
   <path
   class="fil71"
   d="m 14606,13089 143,-43 c -83,-369 -125,-147 70,-340 -36,-178 25,2 -130,-81 -45,73 -30,49 -80,115 -50,64 -3,-7 -81,94 78,104 40,74 78,255 z"
   id="path5092"
   inkscape:connector-curvature="0"
   style="fill:#c7b6aa" />
   <path
   class="fil35"
   d="m 13802,11812 12,225 -141,41 222,-6 -12,-174 -135,-278 c 25,-33 21,-91 67,-131 -238,7 -46,-86 -193,67 66,228 -26,205 180,256 z"
   id="path5094"
   inkscape:connector-curvature="0"
   style="fill:#8a8798" />
   <path
   class="fil72"
   d="m 13304,11170 37,-5 c 175,120 -24,-98 159,131 6,-13 14,-50 18,-41 4,10 16,-33 21,-41 l 87,-130 c -111,-59 -23,28 -57,-125 -266,44 -231,-28 -265,211 z"
   id="path5096"
   inkscape:connector-curvature="0"
   style="fill:#bab7c6" />
   <path
   class="fil73"
   d="m 3207,12611 75,-26 4,-39 40,-239 c -144,52 -100,41 -243,84 l 23,-138 c -129,67 -81,-127 -110,134 103,150 36,46 99,110 10,10 28,26 37,36 10,10 29,29 37,38 9,9 26,26 38,40 z"
   id="path5098"
   inkscape:connector-curvature="0"
   style="fill:#ced4ed" />
   <path
   class="fil66"
   d="m 7506,8089 c 18,14 42,13 53,42 10,29 38,30 52,39 102,62 -45,-5 153,81 -81,-256 -90,-81 -106,-311 507,29 94,24 275,-72 l -319,-11 z"
   id="path5100"
   inkscape:connector-curvature="0"
   style="fill:#9896a6" />
   <path
   class="fil19"
   d="m 9694,8091 c 34,31 77,111 204,147 261,72 220,-67 244,-197 -141,38 38,15 -158,30 z"
   id="path5102"
   inkscape:connector-curvature="0"
   style="fill:#544b53" />
   <path
   class="fil74"
   d="m 5286,12259 244,42 c -17,-233 -3,-83 -88,-204 l -165,-214 z"
   id="path5104"
   inkscape:connector-curvature="0"
   style="fill:#cac3bb" />
   <path
   class="fil75"
   d="m 16156,7840 c -155,90 -4,-22 -82,94 l 168,200 c 3,-17 6,-40 11,-51 l 134,-207 c -87,-240 3,-63 -126,-133 l 17,142 z"
   id="path5106"
   inkscape:connector-curvature="0"
   style="fill:#563c55" />
   <path
   class="fil76"
   d="m 4979,8018 44,14 103,-393 c -129,92 -214,166 -313,269 144,165 -15,50 166,110 z"
   id="path5108"
   inkscape:connector-curvature="0"
   style="fill:#30251a" />
   <path
   class="fil77"
   d="m 5088,14408 83,2 c -59,-111 -52,-103 -134,-232 l -161,11 -29,213 z"
   id="path5110"
   inkscape:connector-curvature="0"
   style="fill:#856a69" />
   <path
   class="fil11"
   d="m 12296,5849 c 256,42 112,-2 150,83 l -117,39 c 117,102 270,72 461,88 -98,-113 179,-77 -255,-98 l -104,-178 c -2,-18 -16,-22 -24,-32 -143,51 -107,61 -111,98 z"
   id="path5112"
   inkscape:connector-curvature="0"
   style="fill:#63545c" />
   <path
   class="fil33"
   d="m 13372,13217 54,-37 c 13,-13 29,-32 39,-40 l 121,-92 c 84,-62 34,-14 97,-71 l -228,-143 -75,229 c -6,24 -3,84 -7,77 -4,-7 -1,51 -1,77 z"
   id="path5114"
   inkscape:connector-curvature="0"
   style="fill:#797586" />
   <path
   class="fil78"
   d="m 15694,16304 -85,45 54,35 85,14 c 78,-106 169,-223 250,-332 l -186,-15 c -47,80 -94,149 -118,253 z"
   id="path5116"
   inkscape:connector-curvature="0"
   style="fill:#35191a" />
   <path
   class="fil23"
   d="m 6433,11556 -11,123 c 13,-12 29,-50 36,-37 15,29 56,-53 74,-64 107,-63 -19,-17 133,-49 -72,-122 164,-103 -151,-97 l 77,-119 -159,23 c -87,-57 -117,29 -62,-44 z"
   id="path5118"
   inkscape:connector-curvature="0"
   style="fill:#574859" />
   <path
   class="fil14"
   d="m 4698,11428 c 130,75 48,89 214,61 87,-14 175,-102 205,-125 -22,-7 65,-48 -169,-38 -430,19 -135,-28 -250,102 z"
   id="path5120"
   inkscape:connector-curvature="0"
   style="fill:#c7bab8" />
   <path
   class="fil47"
   d="m 14771,11065 164,44 -129,117 199,25 c 40,-324 35,-265 -257,-308 z"
   id="path5122"
   inkscape:connector-curvature="0"
   style="fill:#b7a8a7" />
   <path
   class="fil79"
   d="m 3269,13186 215,165 27,-133 c -153,-258 -79,6 -145,-325 l -32,1 z"
   id="path5124"
   inkscape:connector-curvature="0"
   style="fill:#4e506e" />
   <path
   class="fil80"
   d="m 15628,7085 c -71,-157 -52,-174 -224,-195 l -112,1 c 168,120 98,423 336,194 z"
   id="path5126"
   inkscape:connector-curvature="0"
   style="fill:#361b27" />
   <path
   class="fil81"
   d="m 16216,9427 c 40,204 -33,96 63,206 l 57,99 -20,-157 c 169,-33 74,-14 162,-64 -88,-102 -70,-69 -113,-110 -12,-12 -32,-30 -42,-40 l -86,-91 z"
   id="path5128"
   inkscape:connector-curvature="0"
   style="fill:#596370" />
   <path
   class="fil63"
   d="m 7910,5834 269,-85 c -113,-282 -85,-211 -309,-161 91,70 124,-171 40,246 z"
   id="path5130"
   inkscape:connector-curvature="0"
   style="fill:#5b5359" />
   <path
   class="fil42"
   d="m 13421,12802 c 335,46 120,70 379,85 -71,-266 -126,-52 -135,-269 -179,83 0,-24 -137,76 -93,67 -70,71 -107,108 z"
   id="path5132"
   inkscape:connector-curvature="0"
   style="fill:#6b6369" />
   <path
   class="fil38"
   d="m 13877,14174 181,-8 53,-114 c 106,-192 -50,4 95,-97 l 159,-98 c -14,-258 32,1 -98,-72 z"
   id="path5134"
   inkscape:connector-curvature="0"
   style="fill:#998788" />
   <path
   class="fil14"
   d="m 6942,6536 -191,87 c 307,-56 137,-54 452,26 -5,-19 -15,-66 -18,-56 l -66,-199 -95,-25 c -65,90 -37,59 -82,167 z"
   id="path5136"
   inkscape:connector-curvature="0"
   style="fill:#c7bab8" />
   <path
   class="fil30"
   d="m 3286,12546 -4,39 -16,103 155,-14 151,-22 c -35,-126 -11,-76 -70,-154 -8,-9 -45,-35 -61,-49 z"
   id="path5138"
   inkscape:connector-curvature="0"
   style="fill:#191937" />
   <path
   class="fil14"
   d="m 14897,14937 43,-205 c -128,25 -120,-38 -212,66 -191,218 -23,116 -20,145 239,82 2,31 189,-6 z"
   id="path5140"
   inkscape:connector-curvature="0"
   style="fill:#c7bab8" />
   <path
   class="fil66"
   d="m 11927,8502 222,210 c 391,35 44,16 194,-85 -186,-105 -150,144 -156,-129 -331,-30 40,20 -260,4 z"
   id="path5142"
   inkscape:connector-curvature="0"
   style="fill:#9896a6" />
   <path
   class="fil82"
   d="m 9722,17683 -202,-47 -95,99 152,-7 c -140,306 -119,169 18,237 z"
   id="path5144"
   inkscape:connector-curvature="0"
   style="fill:#c6bcc4" />
   <path
   class="fil64"
   d="m 15091,14158 c -7,-29 -12,-100 -20,-87 -18,25 50,-73 -172,-237 -120,265 -68,219 192,324 z"
   id="path5146"
   inkscape:connector-curvature="0"
   style="fill:#bab4b8" />
   <path
   class="fil62"
   d="m 6689,6370 197,141 c 13,8 37,17 56,25 45,-108 17,-77 82,-167 l -235,-95 z"
   id="path5148"
   inkscape:connector-curvature="0"
   style="fill:#776668" />
   <path
   class="fil68"
   d="m 12500,17610 159,-100 195,-14 -441,-183 c 120,220 57,172 87,297 z"
   id="path5150"
   inkscape:connector-curvature="0"
   style="fill:#887678" />
   <polygon
   class="fil68"
   points="11272,15277 11274,15510 11526,15551 11590,15423 11429,15468 11421,15345 "
   id="polygon5152"
   style="fill:#887678" />
   <path
   class="fil83"
   d="m 9590,8455 c 100,-5 52,25 133,-34 l 59,-170 c -301,74 -139,-57 -348,185 z"
   id="path5154"
   inkscape:connector-curvature="0"
   style="fill:#180917" />
   <path
   class="fil81"
   d="m 13143,13380 223,32 122,-93 c 3,-293 19,-128 -62,-139 l -54,37 z"
   id="path5156"
   inkscape:connector-curvature="0"
   style="fill:#596370" />
   <path
   class="fil84"
   d="m 17136,13978 c 129,34 94,97 128,233 l 55,-158 c 26,-97 -15,0 40,-163 l -259,-62 z"
   id="path5158"
   inkscape:connector-curvature="0"
   style="fill:#8f7272" />
   <path
   class="fil41"
   d="m 10292,16843 -175,-12 c -27,59 -63,172 -91,242 259,-49 202,3 266,-230 z"
   id="path5160"
   inkscape:connector-curvature="0"
   style="fill:#776976" />
   <path
   class="fil27"
   d="m 16525,15504 c 98,-54 158,-84 261,-114 -231,-70 -94,29 -225,-127 l -5,-267 c -83,150 -66,112 -167,208 l 236,187 z"
   id="path5162"
   inkscape:connector-curvature="0"
   style="fill:#59484a" />
   <path
   class="fil74"
   d="m 5870,7652 c 123,-20 180,40 251,-24 241,-216 -27,123 43,-98 l -224,-92 z"
   id="path5164"
   inkscape:connector-curvature="0"
   style="fill:#cac3bb" />
   <path
   class="fil85"
   d="m 4537,8952 c 10,-13 30,-45 35,-37 5,9 27,-31 33,-43 57,-120 26,4 71,-192 12,-47 26,-63 82,-123 l -202,7 c 2,124 12,141 -1,214 -32,175 -84,-90 -18,174 z"
   id="path5166"
   inkscape:connector-curvature="0"
   style="fill:#948679" />
   <path
   class="fil84"
   d="m 8091,13281 19,-270 -227,-109 c 30,83 32,122 79,208 80,147 78,111 129,171 z"
   id="path5168"
   inkscape:connector-curvature="0"
   style="fill:#8f7272" />
   <path
   class="fil27"
   d="m 8825,14256 -125,-332 c -125,107 -81,-78 -118,133 -37,213 41,77 41,77 z"
   id="path5170"
   inkscape:connector-curvature="0"
   style="fill:#59484a" />
   <path
   class="fil77"
   d="m 14259,9237 c -187,-267 -150,-56 -232,-288 l -99,124 c 96,108 104,-166 72,191 213,-61 27,-43 259,-27 z"
   id="path5172"
   inkscape:connector-curvature="0"
   style="fill:#856a69" />
   <path
   class="fil86"
   d="m 7256,16068 c 58,297 20,95 102,169 l 178,-62 c -91,-108 -55,-76 -110,-171 z"
   id="path5174"
   inkscape:connector-curvature="0"
   style="fill:#968a95" />
   <path
   class="fil84"
   d="m 7314,11620 -67,-152 c -158,63 -65,29 -271,39 226,250 -208,24 143,144 86,29 74,6 195,-31 z"
   id="path5176"
   inkscape:connector-curvature="0"
   style="fill:#8f7272" />
   <path
   class="fil21"
   d="m 17586,10917 -18,-189 -203,-308 c 128,432 99,150 -33,365 80,2 91,-41 254,132 z"
   id="path5178"
   inkscape:connector-curvature="0"
   style="fill:#755a5a" />
   <path
   class="fil32"
   d="m 14796,11270 10,-44 129,-117 -164,-44 -127,107 c 0,183 -39,136 152,98 z"
   id="path5180"
   inkscape:connector-curvature="0"
   style="fill:#534344" />
   <path
   class="fil87"
   d="m 6670,6632 81,-9 191,-87 c -19,-8 -43,-17 -56,-25 l -197,-141 -24,74 z"
   id="path5182"
   inkscape:connector-curvature="0"
   style="fill:#a79897" />
   <path
   class="fil88"
   d="m 4425,9251 32,-167 c -186,-126 -243,-32 -272,-21 78,97 10,40 114,127 30,24 95,47 126,61 z"
   id="path5184"
   inkscape:connector-curvature="0"
   style="fill:#755a65" />
   <path
   class="fil57"
   d="m 15619,8297 116,-13 10,-67 c -102,-124 10,-60 -124,-130 -238,-123 -71,-75 -131,24 z"
   id="path5186"
   inkscape:connector-curvature="0"
   style="fill:#1a1528" />
   <path
   class="fil77"
   d="m 16503,8379 c 18,175 -35,34 58,153 l 205,-41 c -79,-255 -10,-101 -141,-186 v 76 z"
   id="path5188"
   inkscape:connector-curvature="0"
   style="fill:#856a69" />
   <path
   class="fil62"
   d="m 5023,8032 -44,-14 14,116 235,-13 -22,-220 c -18,11 -42,22 -56,31 -13,9 -38,24 -51,33 z"
   id="path5190"
   inkscape:connector-curvature="0"
   style="fill:#776668" />
   <path
   class="fil89"
   d="m 15628,10861 c 64,63 -110,319 312,-4 11,-9 28,-26 45,-36 -111,-71 -38,-2 -100,-136 -19,212 43,168 -257,176 z"
   id="path5192"
   inkscape:connector-curvature="0"
   style="fill:#b3abae" />
   <path
   class="fil26"
   d="m 4297,7921 c 11,257 -39,43 57,161 49,-63 117,-156 189,-237 l -122,-38 c -98,57 3,-95 -124,114 z"
   id="path5194"
   inkscape:connector-curvature="0"
   style="fill:#2a2635" />
   <path
   class="fil77"
   d="m 6527,6683 143,-51 -5,-188 -202,2 c 9,22 22,30 26,68 l 32,119 c 3,12 5,33 6,50 z"
   id="path5196"
   inkscape:connector-curvature="0"
   style="fill:#856a69" />
   <path
   class="fil14"
   d="m 13040,15018 194,93 33,-253 -145,17 c -40,44 -41,104 -82,143 z"
   id="path5198"
   inkscape:connector-curvature="0"
   style="fill:#c7bab8" />
   <path
   class="fil90"
   d="m 3001,11364 9,128 h 112 l -37,-192 7,-182 167,-121 c -10,2 -173,46 -179,49 z"
   id="path5200"
   inkscape:connector-curvature="0"
   style="fill:#71708d" />
   <path
   class="fil62"
   d="m 11201,6907 88,6 c 95,-208 -22,-64 165,-154 -64,-104 86,-75 -197,-81 l -13,-2 z"
   id="path5202"
   inkscape:connector-curvature="0"
   style="fill:#776668" />
   <path
   class="fil41"
   d="m 9101,17616 c 135,-21 50,-32 96,75 l 116,20 c 0,-5 1,-165 1,-167 -17,-135 4,-22 -46,-105 -218,162 -73,48 -167,177 z"
   id="path5204"
   inkscape:connector-curvature="0"
   style="fill:#776976" />
   <path
   class="fil91"
   d="m 17551,12504 c 146,0 104,-183 126,-341 l -165,-6 11,109 c 43,53 30,30 95,121 z"
   id="path5206"
   inkscape:connector-curvature="0"
   style="fill:#966567" />
   <path
   class="fil38"
   d="m 10307,7217 63,12 -171,-313 c -11,-16 -21,-33 -31,-48 -11,-16 -29,-36 -39,-49 -10,-15 -29,-35 -43,-52 77,265 33,278 221,450 z"
   id="path5208"
   inkscape:connector-curvature="0"
   style="fill:#998788" />
   <path
   class="fil19"
   d="m 7052,8834 -12,-175 -194,-38 c -19,213 22,163 206,213 z"
   id="path5210"
   inkscape:connector-curvature="0"
   style="fill:#544b53" />
   <path
   class="fil92"
   d="m 6888,15679 c 394,-4 68,27 244,-66 -153,-90 -73,-81 -295,-105 z"
   id="path5212"
   inkscape:connector-curvature="0"
   style="fill:#f5f1ee" />
   <path
   class="fil42"
   d="m 7447,8362 330,-52 -13,-59 c -198,-86 -51,-19 -153,-81 -14,-9 -42,-10 -52,-39 -11,-29 -35,-28 -53,-42 l 10,3 28,246 z"
   id="path5214"
   inkscape:connector-curvature="0"
   style="fill:#6b6369" />
   <path
   class="fil25"
   d="m 12982,16602 -255,15 93,205 c 4,-9 23,25 34,37 z"
   id="path5216"
   inkscape:connector-curvature="0"
   style="fill:#675964" />
   <path
   class="fil76"
   d="m 4420,13218 6,-71 -170,-138 c -51,288 -86,288 164,209 z"
   id="path5218"
   inkscape:connector-curvature="0"
   style="fill:#30251a" />
   <path
   class="fil93"
   d="m 15335,7926 c 145,-94 154,91 124,-100 -268,-91 5,72 -269,-232 30,146 0,103 57,222 46,94 37,63 88,110 z"
   id="path5220"
   inkscape:connector-curvature="0"
   style="fill:#271b34" />
   <path
   class="fil87"
   d="m 8568,7607 149,-10 148,-95 c -29,-150 -17,-19 -18,-170 -93,89 -202,192 -279,275 z"
   id="path5222"
   inkscape:connector-curvature="0"
   style="fill:#a79897" />
   <path
   class="fil72"
   d="m 10313,15858 c 168,-20 47,179 164,-206 -353,21 -112,-32 -197,159 z"
   id="path5224"
   inkscape:connector-curvature="0"
   style="fill:#bab7c6" />
   <path
   class="fil94"
   d="m 3786,11281 c 221,-53 112,-32 316,47 -93,-149 18,-104 -288,-202 l 50,-160 c -240,160 53,-235 -61,93 -6,17 -11,47 -15,63 -5,16 -1,138 -2,159 z"
   id="path5226"
   inkscape:connector-curvature="0"
   style="fill:#cfb5b0" />
   <path
   class="fil63"
   d="m 7363,8372 -145,17 -92,77 87,215 c 90,-193 28,-146 150,-309 z"
   id="path5228"
   inkscape:connector-curvature="0"
   style="fill:#5b5359" />
   <path
   class="fil43"
   d="m 8754,7810 -37,-213 -149,10 c -179,-14 -173,-51 -214,93 l 218,-28 166,-33 c -162,396 -34,42 16,171 z"
   id="path5230"
   inkscape:connector-curvature="0"
   style="fill:#5b4c53" />
   <path
   class="fil68"
   d="m 14267,13785 34,-167 c -392,-61 -102,-30 -206,47 164,271 33,85 172,120 z"
   id="path5232"
   inkscape:connector-curvature="0"
   style="fill:#887678" />
   <path
   class="fil85"
   d="m 4735,13936 c -61,-219 -8,-122 -152,-257 -40,198 -17,22 -36,223 z"
   id="path5234"
   inkscape:connector-curvature="0"
   style="fill:#948679" />
   <path
   class="fil90"
   d="m 7723,14261 c -18,-242 -93,-56 53,-286 l -111,-48 -134,-14 c 124,163 81,171 192,348 z"
   id="path5236"
   inkscape:connector-curvature="0"
   style="fill:#71708d" />
   <path
   class="fil95"
   d="m 5462,6644 c 93,77 75,26 181,77 l 7,-284 c -302,219 122,-174 -87,68 -79,91 -35,34 -101,139 z"
   id="path5238"
   inkscape:connector-curvature="0"
   style="fill:#a8a6b7" />
   <path
   class="fil38"
   d="m 12959,17528 c 114,-168 88,-61 21,-269 l 117,16 c -86,-124 124,-55 -174,-107 z"
   id="path5240"
   inkscape:connector-curvature="0"
   style="fill:#998788" />
   <path
   class="fil95"
   d="m 3090,10413 c 17,-14 42,-57 50,-42 7,13 37,-31 45,-39 7,-6 29,-26 36,-33 l 50,-50 -5,-163 c -180,112 -117,102 -176,327 z"
   id="path5242"
   inkscape:connector-curvature="0"
   style="fill:#a8a6b7" />
   <path
   class="fil34"
   d="m 14333,11010 c 213,-209 -274,-151 183,-151 -115,104 -28,85 -62,-87 l -206,-73 c 115,77 74,204 -6,294 z"
   id="path5244"
   inkscape:connector-curvature="0"
   style="fill:#53444c" />
   <path
   class="fil14"
   d="m 13010,10287 c -228,210 -119,-19 -170,266 138,-65 167,86 170,-266 z"
   id="path5246"
   inkscape:connector-curvature="0"
   style="fill:#c7bab8" />
   <path
   class="fil96"
   d="m 15410,13567 -21,-145 -145,-12 c -10,246 -71,200 166,157 z"
   id="path5248"
   inkscape:connector-curvature="0"
   style="fill:#ac948f" />
   <path
   class="fil93"
   d="m 14451,6955 c 194,32 31,86 142,-17 l -263,-168 -59,82 c 48,30 131,85 180,103 z"
   id="path5250"
   inkscape:connector-curvature="0"
   style="fill:#271b34" />
   <polygon
   class="fil5"
   points="13320,17238 13143,17256 13163,17396 13347,17403 "
   id="polygon5252"
   style="fill:#342533" />
   <path
   class="fil85"
   d="m 10851,15588 c 98,33 220,116 220,-21 l -145,-144 z"
   id="path5254"
   inkscape:connector-curvature="0"
   style="fill:#948679" />
   <path
   class="fil97"
   d="m 17178,14203 86,8 c -34,-136 1,-199 -128,-233 -2,9 -36,162 -48,200 z"
   id="path5256"
   inkscape:connector-curvature="0"
   style="fill:#1b151a" />
   <path
   class="fil87"
   d="m 15186,10043 c -69,-234 -48,-211 -252,-286 132,200 9,142 252,286 z"
   id="path5258"
   inkscape:connector-curvature="0"
   style="fill:#a79897" />
   <path
   class="fil38"
   d="m 13053,7571 126,37 c 60,-72 14,-73 67,-173 l -199,-3 z"
   id="path5260"
   inkscape:connector-curvature="0"
   style="fill:#998788" />
   <polygon
   class="fil98"
   points="3169,12779 3414,12754 3421,12674 3266,12688 3282,12585 3207,12611 "
   id="polygon5262"
   style="fill:#aeb4ce" />
   <path
   class="fil57"
   d="m 9249,15076 82,30 c 149,9 83,15 149,-21 l -173,-119 c -6,-21 -21,-25 -32,-37 -69,84 -142,-121 -26,147 z"
   id="path5264"
   inkscape:connector-curvature="0"
   style="fill:#1a1528" />
   <path
   class="fil88"
   d="m 16114,7593 c -83,-226 17,-158 -192,-254 l 127,190 c -291,14 -145,-46 -178,58 z"
   id="path5266"
   inkscape:connector-curvature="0"
   style="fill:#755a65" />
   <path
   class="fil30"
   d="m 15107,7497 c 142,-6 16,46 98,-33 l -134,-128 c -6,-26 -29,-25 -45,-38 l -25,81 1,82 c 26,142 9,12 105,36 z"
   id="path5268"
   inkscape:connector-curvature="0"
   style="fill:#191937" />
   <path
   class="fil14"
   d="m 11786,6994 110,39 c 203,-269 -52,-135 253,-146 -20,-19 -44,-63 -139,-115 -68,-37 -115,-45 -196,-57 l 144,176 c 2,190 40,132 -172,103 z"
   id="path5270"
   inkscape:connector-curvature="0"
   style="fill:#c7bab8" />
   <polygon
   class="fil99"
   points="12736,13873 12663,14099 12972,13821 "
   id="polygon5272"
   style="fill:#8e8ead" />
   <path
   class="fil57"
   d="m 8354,5335 282,-55 -63,-105 c -182,21 -115,14 -219,160 z"
   id="path5274"
   inkscape:connector-curvature="0"
   style="fill:#1a1528" />
   <path
   class="fil24"
   d="m 13825,9894 18,-4 2,129 c 91,-257 35,-35 120,-49 70,-12 23,136 64,-34 60,-243 144,15 -63,-139 l 1,-33 c -100,164 -42,47 -142,130 z"
   id="path5276"
   inkscape:connector-curvature="0"
   style="fill:#2c232b" />
   <path
   class="fil48"
   d="m 15735,8284 c 70,101 66,108 72,93 6,-15 38,28 51,47 71,-194 132,21 -6,-186 -69,-103 -103,-24 -107,-21 z"
   id="path5278"
   inkscape:connector-curvature="0"
   style="fill:#6a546d" />
   <path
   class="fil100"
   d="m 6727,11622 17,82 c 152,-128 125,204 120,-231 -151,67 -74,-3 -137,149 z"
   id="path5280"
   inkscape:connector-curvature="0"
   style="fill:#0c0c2a" />
   <polygon
   class="fil101"
   points="14271,6852 14330,6770 14326,6647 14143,6635 "
   id="polygon5282"
   style="fill:#696677" />
   <path
   class="fil66"
   d="m 3713,8841 c 12,-15 28,-58 35,-45 5,13 27,-32 34,-38 106,-79 0,-21 106,-58 l 16,-96 -115,21 c -118,37 -73,116 -76,216 z"
   id="path5284"
   inkscape:connector-curvature="0"
   style="fill:#9896a6" />
   <path
   class="fil63"
   d="m 6494,6170 c 66,-58 118,-114 203,-201 -277,54 -285,-38 -203,201 z"
   id="path5286"
   inkscape:connector-curvature="0"
   style="fill:#5b5359" />
   <polygon
   class="fil60"
   points="16278,7885 16261,7743 16134,7588 16156,7840 "
   id="polygon5288"
   style="fill:#2c0d11" />
   <path
   class="fil98"
   d="m 13401,9803 c -43,-144 21,-34 -62,-140 -76,-98 -19,-18 -136,-87 l 39,177 z"
   id="path5290"
   inkscape:connector-curvature="0"
   style="fill:#aeb4ce" />
   <path
   class="fil38"
   d="m 15411,11503 c 53,-107 53,-54 14,-285 -60,86 -82,-128 -73,143 7,249 -26,20 59,142 z"
   id="path5292"
   inkscape:connector-curvature="0"
   style="fill:#998788" />
   <path
   class="fil88"
   d="m 16863,9094 -126,-239 c -63,109 -183,-75 -40,139 142,210 -105,6 166,100 z"
   id="path5294"
   inkscape:connector-curvature="0"
   style="fill:#755a65" />
   <path
   class="fil35"
   d="m 6667,12448 2,-125 c -57,-60 33,-58 -145,0 l 7,-188 c -59,84 -59,-22 -45,188 z"
   id="path5296"
   inkscape:connector-curvature="0"
   style="fill:#8a8798" />
   <path
   class="fil102"
   d="m 5298,14559 -127,-149 -83,-2 -99,167 c 226,-88 89,-85 309,-16 z"
   id="path5298"
   inkscape:connector-curvature="0"
   style="fill:#6e514d" />
   <path
   class="fil38"
   d="m 5386,14757 c -57,-104 -20,-64 -72,-177 -250,78 -62,-2 -136,134 z"
   id="path5300"
   inkscape:connector-curvature="0"
   style="fill:#998788" />
   <path
   class="fil90"
   d="m 3715,13721 c -113,-296 -37,-181 -228,-308 23,45 40,108 68,148 100,147 17,57 160,160 z"
   id="path5302"
   inkscape:connector-curvature="0"
   style="fill:#71708d" />
   <polygon
   class="fil96"
   points="6085,15260 6091,15548 6240,15485 "
   id="polygon5304"
   style="fill:#ac948f" />
   <path
   class="fil20"
   d="m 17343,11094 c 98,-147 72,-125 -112,-212 46,236 -59,87 112,212 z"
   id="path5306"
   inkscape:connector-curvature="0"
   style="fill:#534453" />
   <path
   class="fil103"
   d="m 12200,15518 c -113,0 -219,-47 -199,75 20,126 -37,78 73,44 187,-60 41,-15 126,-119 z"
   id="path5308"
   inkscape:connector-curvature="0"
   style="fill:#f5f2f1" />
   <path
   class="fil104"
   d="m 3933,10912 c 214,153 113,88 198,-59 -111,-79 65,-62 -127,-14 z"
   id="path5310"
   inkscape:connector-curvature="0"
   style="fill:#fcf4ec" />
   <path
   class="fil21"
   d="m 16369,14724 108,-15 2,-162 18,-13 c -173,62 -147,-158 -128,190 z"
   id="path5312"
   inkscape:connector-curvature="0"
   style="fill:#755a5a" />
   <path
   class="fil35"
   d="m 6846,8621 194,38 30,-164 c -18,5 -47,-8 -55,15 -8,22 -42,13 -51,19 -85,50 -69,42 -118,92 z"
   id="path5314"
   inkscape:connector-curvature="0"
   style="fill:#8a8798" />
   <path
   class="fil90"
   d="m 5154,15687 -6,-221 -68,-27 -101,2 c 50,70 94,140 175,246 z"
   id="path5316"
   inkscape:connector-curvature="0"
   style="fill:#71708d" />
   <path
   class="fil105"
   d="m 16793,12203 c 218,-73 86,69 143,-136 l -145,-55 z"
   id="path5318"
   inkscape:connector-curvature="0"
   style="fill:#8c7b8e" />
   <path
   class="fil54"
   d="m 14523,6042 c -49,-80 123,-56 -148,-69 19,161 -18,112 93,183 z"
   id="path5320"
   inkscape:connector-curvature="0"
   style="fill:#27171a" />
   <path
   class="fil78"
   d="m 16503,8379 122,2 v -76 c -48,-173 -7,19 -82,-196 z"
   id="path5322"
   inkscape:connector-curvature="0"
   style="fill:#35191a" />
   <path
   class="fil101"
   d="m 6085,6187 183,-68 -3,-142 c -213,47 -53,-5 -115,101 z"
   id="path5324"
   inkscape:connector-curvature="0"
   style="fill:#696677" />
   <polygon
   class="fil54"
   points="11621,15338 11486,15332 11421,15345 11429,15468 11590,15423 "
   id="polygon5326"
   style="fill:#27171a" />
   <path
   class="fil66"
   d="m 4929,7223 129,-53 -42,-161 c -112,106 -75,-150 -87,214 z"
   id="path5328"
   inkscape:connector-curvature="0"
   style="fill:#9896a6" />
   <path
   class="fil35"
   d="m 11236,16745 c -1,0 -160,60 -161,60 -11,5 -37,42 -45,29 -8,-14 -28,21 -43,31 l 205,32 z"
   id="path5330"
   inkscape:connector-curvature="0"
   style="fill:#8a8798" />
   <path
   class="fil106"
   d="m 6432,11336 159,-23 -63,-23 -1,-115 c -141,57 -154,-194 -95,161 z"
   id="path5332"
   inkscape:connector-curvature="0"
   style="fill:#a89ba9" />
   <path
   class="fil66"
   d="m 4109,8167 162,-17 -32,-191 c -12,14 -33,16 -37,41 -5,25 -29,32 -34,41 -10,16 -54,111 -59,126 z"
   id="path5334"
   inkscape:connector-curvature="0"
   style="fill:#9896a6" />
   <path
   class="fil57"
   d="m 8507,17348 c 128,-98 89,103 107,-131 -265,-9 -102,-32 -161,105 z"
   id="path5336"
   inkscape:connector-curvature="0"
   style="fill:#1a1528" />
   <polygon
   class="fil99"
   points="4602,15128 4534,15128 4549,15255 4730,15304 "
   id="polygon5338"
   style="fill:#8e8ead" />
   <path
   class="fil25"
   d="m 7564,5740 c 40,41 -51,188 195,0 -14,-9 -35,-46 -41,-30 -44,118 51,-122 -154,30 z"
   id="path5340"
   inkscape:connector-curvature="0"
   style="fill:#675964" />
   <path
   class="fil107"
   d="m 4297,7921 c 127,-209 26,-57 124,-114 v -100 c -197,48 -139,72 -124,214 z"
   id="path5342"
   inkscape:connector-curvature="0"
   style="fill:#99a4b0" />
   <polygon
   class="fil29"
   points="10430,5179 10192,5130 10191,5259 "
   id="polygon5344"
   style="fill:#271b26" />
   <path
   class="fil108"
   d="m 12869,8974 2,-113 -148,-18 c 0,121 -36,99 69,99 z"
   id="path5346"
   inkscape:connector-curvature="0"
   style="fill:#b6c6d2" />
   <path
   class="fil64"
   d="m 4866,12294 c 33,-47 198,141 0,-177 -11,15 -35,17 -34,42 0,0 -32,98 34,135 z"
   id="path5348"
   inkscape:connector-curvature="0"
   style="fill:#bab4b8" />
   <path
   class="fil25"
   d="m 5125,14825 -129,-204 c 29,290 -167,197 129,204 z"
   id="path5350"
   inkscape:connector-curvature="0"
   style="fill:#675964" />
   <path
   class="fil23"
   d="m 10231,15461 c 230,-52 90,44 133,-175 -297,189 -13,22 -133,175 z"
   id="path5352"
   inkscape:connector-curvature="0"
   style="fill:#574859" />
   <path
   class="fil109"
   d="m 14783,12120 c 140,0 104,28 62,-117 l -158,-60 c 123,85 37,16 96,177 z"
   id="path5354"
   inkscape:connector-curvature="0"
   style="fill:#b3a599" />
   <path
   class="fil110"
   d="m 16799,15142 c 92,-123 103,-168 157,-271 l -131,72 z"
   id="path5356"
   inkscape:connector-curvature="0"
   style="fill:#cdaa9a" />
   <path
   class="fil99"
   d="m 13012,9160 c -54,-114 -21,-50 -72,-119 -5,-7 -29,-12 -34,-34 -4,-22 -25,-21 -37,-33 l 24,148 c 29,159 10,-1 119,38 z"
   id="path5358"
   inkscape:connector-curvature="0"
   style="fill:#8e8ead" />
   <polygon
   class="fil88"
   points="7359,12264 7527,12311 7328,12099 "
   id="polygon5360"
   style="fill:#755a65" />
   <path
   class="fil111"
   d="m 7049,16506 c 335,-126 100,26 189,-175 -357,149 23,25 -189,175 z"
   id="path5362"
   inkscape:connector-curvature="0"
   style="fill:#73655b" />
   <path
   class="fil29"
   d="m 12329,5971 117,-39 c -38,-85 106,-41 -150,-83 z"
   id="path5364"
   inkscape:connector-curvature="0"
   style="fill:#271b26" />
   <path
   class="fil87"
   d="m 14887,9625 c 114,-127 61,170 53,-69 -4,-136 5,-38 -41,-96 -47,72 -150,-1 -12,165 z"
   id="path5366"
   inkscape:connector-curvature="0"
   style="fill:#a79897" />
   <path
   class="fil83"
   d="m 7329,5511 -122,88 c 359,103 122,-22 122,-88 z"
   id="path5368"
   inkscape:connector-curvature="0"
   style="fill:#180917" />
   <polygon
   class="fil112"
   points="3899,8429 3904,8604 4032,8399 "
   id="polygon5370"
   style="fill:#758aaa" />
   <polygon
   class="fil98"
   points="15685,15266 15548,15476 15666,15456 "
   id="polygon5372"
   style="fill:#aeb4ce" />
   <polygon
   class="fil113"
   points="11298,5016 11192,5034 11116,5151 11210,5142 "
   id="polygon5374"
   style="fill:#3b2d3b" />
   <path
   class="fil114"
   d="m 4987,8297 14,-73 -151,9 c 85,78 -134,121 137,64 z"
   id="path5376"
   inkscape:connector-curvature="0"
   style="fill:#270607" />
   <path
   class="fil33"
   d="m 13815,11489 c 80,-90 87,167 62,-127 l -140,19 c 100,45 31,5 78,108 z"
   id="path5378"
   inkscape:connector-curvature="0"
   style="fill:#797586" />
   <path
   class="fil80"
   d="m 14841,6352 c -22,-62 63,-88 -70,-37 l -57,44 c 6,6 25,41 30,31 4,-10 19,21 44,45 z"
   id="path5380"
   inkscape:connector-curvature="0"
   style="fill:#361b27" />
   <path
   class="fil80"
   d="m 3863,11473 -111,-49 c 33,56 66,321 111,49 z"
   id="path5382"
   inkscape:connector-curvature="0"
   style="fill:#361b27" />
   <path
   class="fil82"
   d="m 12456,8965 -45,-139 c -149,-28 3,-65 -115,-11 z"
   id="path5384"
   inkscape:connector-curvature="0"
   style="fill:#c6bcc4" />
   <path
   class="fil85"
   d="m 13885,8760 c -50,-61 -39,-51 -97,-110 -8,-9 -51,-41 -68,-54 l 17,106 z"
   id="path5386"
   inkscape:connector-curvature="0"
   style="fill:#948679" />
   <path
   class="fil29"
   d="m 12226,17421 c 86,138 78,97 223,79 z"
   id="path5388"
   inkscape:connector-curvature="0"
   style="fill:#271b26" />
   <path
   class="fil47"
   d="m 15361,10580 115,-117 c -192,7 -135,-71 -115,117 z"
   id="path5390"
   inkscape:connector-curvature="0"
   style="fill:#b7a8a7" />
   <path
   class="fil115"
   d="m 3334,12894 32,-1 c 165,-39 71,15 76,-75 0,-5 -3,-28 -3,-33 -1,-6 -15,-22 -25,-31 -54,104 -7,65 -80,140 z"
   id="path5392"
   inkscape:connector-curvature="0"
   style="fill:#96abc9" />
   <path
   class="fil116"
   d="m 15159,10960 188,-128 c -404,11 3,-15 -188,128 z"
   id="path5394"
   inkscape:connector-curvature="0"
   style="fill:#787479" />
   <path
   class="fil25"
   d="m 16398,9265 c 217,-28 80,113 154,-116 z"
   id="path5396"
   inkscape:connector-curvature="0"
   style="fill:#675964" />
   <path
   class="fil91"
   d="m 17134,12199 c 103,57 70,37 175,-4 -18,-8 -42,-51 -49,-31 z"
   id="path5398"
   inkscape:connector-curvature="0"
   style="fill:#966567" />
   <path
   class="fil68"
   d="m 4112,9625 -78,29 c -147,203 -54,53 1,90 z"
   id="path5400"
   inkscape:connector-curvature="0"
   style="fill:#887678" />
   <path
   class="fil64"
   d="m 14673,8744 c -11,153 57,71 54,6 -6,-108 -49,-68 -54,-6 z"
   id="path5402"
   inkscape:connector-curvature="0"
   style="fill:#bab4b8" />
   <path
   class="fil33"
   d="m 14070,16376 c 146,-57 64,30 147,-118 -80,29 -76,19 -147,118 z"
   id="path5404"
   inkscape:connector-curvature="0"
   style="fill:#797586" />
   <path
   class="fil85"
   d="m 13843,9890 -18,4 -76,-181 c -87,112 -84,-77 -22,75 48,116 37,40 116,102 z"
   id="path5406"
   inkscape:connector-curvature="0"
   style="fill:#948679" />
   <path
   class="fil25"
   d="m 10600,15366 c 162,-97 38,68 86,-60 46,-120 16,-49 -5,-102 -248,154 135,-92 -81,162 z"
   id="path5408"
   inkscape:connector-curvature="0"
   style="fill:#675964" />
   <path
   class="fil15"
   d="m 16928,9983 c 210,-138 90,10 93,-162 z"
   id="path5410"
   inkscape:connector-curvature="0"
   style="fill:#654a56" />
   <path
   class="fil80"
   d="m 15760,7245 c -155,-29 -44,-75 -111,116 z"
   id="path5412"
   inkscape:connector-curvature="0"
   style="fill:#361b27" />
   <path
   class="fil115"
   d="m 16279,9633 c -96,-110 -23,-2 -63,-206 l -50,82 z"
   id="path5414"
   inkscape:connector-curvature="0"
   style="fill:#96abc9" />
   <path
   class="fil117"
   d="m 8468,16513 -102,24 c 106,65 -130,138 71,40 158,-77 22,114 31,-64 z"
   id="path5416"
   inkscape:connector-curvature="0"
   style="fill:#180408" />
   <path
   class="fil97"
   d="m 8874,17500 c 193,44 72,65 174,0 -216,-229 238,15 -66,-46 l -68,65 z"
   id="path5418"
   inkscape:connector-curvature="0"
   style="fill:#1b151a" />
  </g>
 </g>
</svg>