<?xml version="1.0" encoding="UTF-8" standalone="no"?>
<!-- Creator: CorelDRAW X8 -->

<svg
   xmlns:dc="http://purl.org/dc/elements/1.1/"
   xmlns:cc="http://creativecommons.org/ns#"
   xmlns:rdf="http://www.w3.org/1999/02/22-rdf-syntax-ns#"
   xmlns:svg="http://www.w3.org/2000/svg"
   xmlns="http://www.w3.org/2000/svg"
   xmlns:sodipodi="http://sodipodi.sourceforge.net/DTD/sodipodi-0.dtd"
   xmlns:inkscape="http://www.inkscape.org/namespaces/inkscape"
   xml:space="preserve"
   width="30mm"
   height="26mm"
   version="1.1"
   style="clip-rule:evenodd;fill-rule:evenodd;image-rendering:optimizeQuality;shape-rendering:geometricPrecision;text-rendering:geometricPrecision"
   viewBox="0 0 3000 2600"
   id="svg426"
   sodipodi:docname="Pinnadel.svg"
   inkscape:version="0.92.3 (2405546, 2018-03-11)"><metadata
   id="metadata430"><rdf:RDF><cc:Work
       rdf:about=""><dc:format>image/svg+xml</dc:format><dc:type
         rdf:resource="http://purl.org/dc/dcmitype/StillImage" /><dc:title></dc:title></cc:Work></rdf:RDF></metadata><sodipodi:namedview
   pagecolor="#ffffff"
   bordercolor="#666666"
   borderopacity="1"
   objecttolerance="10"
   gridtolerance="10"
   guidetolerance="10"
   inkscape:pageopacity="0"
   inkscape:pageshadow="2"
   inkscape:window-width="1145"
   inkscape:window-height="689"
   id="namedview428"
   showgrid="false"
   inkscape:zoom="0.26771948"
   inkscape:cx="196.08862"
   inkscape:cy="435.62857"
   inkscape:window-x="88"
   inkscape:window-y="88"
   inkscape:window-maximized="0"
   inkscape:current-layer="svg426" />
 <defs
   id="defs395">
  <style
   type="text/css"
   id="style393">
   <![CDATA[
    .fil1 {fill:#DAD9D9}
    .fil3 {fill:#C7C7CB}
    .fil2 {fill:#C4C0C5}
    .fil7 {fill:#B9B9BB}
    .fil9 {fill:#B9B6B8}
    .fil4 {fill:#ABA8AF}
    .fil6 {fill:#949297}
    .fil8 {fill:#4C506B}
    .fil5 {fill:#211D21}
    .fil0 {fill:#221F25}
   ]]>
  </style>
 </defs>
 <g
   id="Ebene_x0020_1"
   transform="translate(-9399.1765,-4414.441)">
  <metadata
   id="CorelCorpID_0Corel-Layer" />
  <g
   id="_1603558181696">
   <path
   class="fil0"
   d="m 11338,6487 c 50,10 2,-1 43,15 l 114,-106 c 38,-44 9,-33 41,-69 28,-30 23,-45 23,-96 -30,-21 -42,7 -42,-68 -18,-3 -15,-2 -28,-8 v 26 l -56,-10 v -16 l -122,-57 c -23,-15 -3,-4 -30,-13 -37,-11 -41,-23 -72,-38 -25,-11 -4,-3 -22,-12 l -75,-35 c -27,-17 -51,-20 -70,-48 l -34,9 c -9,-35 -2,-25 -42,-26 0,-18 -2,-61 1,-75 10,-38 11,4 12,-50 2,-62 21,-67 21,-138 h -17 c 22,-33 19,-83 3,-130 -8,-25 -10,-19 -14,-29 -10,-26 -6,-63 -6,-112 -43,-3 -43,-23 -43,-68 -43,-11 -26,-76 -76,-110 2,-22 4,-23 9,-42 -37,-4 -10,5 -95,-91 l -8,-10 c -1,-1 -3,-3 -4,-4 -1,-1 -3,-3 -4,-5 -1,-1 -2,-3 -3,-5 l -5,-20 h -51 c -6,-25 -5,-15 -15,-36 -10,-20 -8,-15 -19,-32 l -33,-68 c -19,13 -11,2 -17,26 h -26 v -26 h -25 c 0,-40 6,-35 8,-68 -110,0 -84,-13 -126,-17 -53,-5 -97,6 -136,9 h -17 c -56,-12 -44,-2 -78,7 -34,8 -61,3 -93,25 -19,13 -10,14 -34,26 -10,6 -1,-2 -17,8 -37,24 -83,72 -109,102 -16,19 0,3 -10,16 l -50,44 c -1,1 -3,2 -5,3 -2,0 -4,2 -5,3 l -113,108 c -22,25 -28,1 -11,39 -38,10 -65,52 -82,87 -6,13 -7,19 -13,30 -18,41 -14,68 -49,86 11,24 8,17 8,51 -23,15 -30,16 -33,51 24,6 12,-1 25,17 -7,25 0,18 -25,25 10,39 13,8 17,51 v 17 c -7,25 -4,14 -17,34 20,30 17,18 17,67 15,8 10,7 33,9 -13,30 18,70 28,100 22,71 60,92 113,132 l 13,13 c 1,1 2,3 4,4 l 11,14 c 2,2 6,7 8,9 21,33 18,55 60,58 2,85 49,12 51,93 43,1 22,1 46,22 12,10 28,19 38,30 l 124,79 c 34,10 25,-3 53,15 34,22 68,24 112,24 v 16 c 30,-2 19,-5 36,-7 36,-4 23,4 42,6 23,2 38,-12 70,-19 21,-5 16,-3 38,-5 38,-2 26,-4 53,-15 l 264,-108 c 57,-38 48,-82 139,5 l 64,47 c 22,17 42,16 68,34 22,14 25,24 42,33 20,11 25,9 46,22 26,17 27,10 35,41 43,-3 20,-15 51,8 19,13 28,29 51,35 l -26,17 10,33 c -27,7 -20,0 -26,26 53,-13 74,24 59,-42 h 17 c 2,30 -4,13 8,27 z"
   id="path398"
   inkscape:connector-curvature="0"
   style="fill:#221f25" />
   <path
   class="fil1"
   d="m 11433,6155 v 16 l 56,10 v -26 c -14,-26 -15,-10 -24,-43 126,30 183,-11 233,-114 13,-27 12,0 13,-46 4,-98 -14,-36 25,-111 41,4 14,8 51,0 l -11,-6 c -6,-3 -5,0 -11,-5 -19,-17 -9,6 -12,-31 46,-12 50,-38 96,-65 58,-33 119,-162 128,-202 8,-35 19,-81 22,-119 v -23 c -1,-2 -1,-4 -1,-5 -23,-193 -27,-132 -94,-236 -34,-52 -50,-42 -90,-80 -29,-28 -61,-53 -112,-57 -13,-57 -50,-88 -99,-113 -47,-24 -50,-64 -155,-65 -44,0 -53,-11 -102,-9 -90,3 -123,73 -148,98 -7,6 -5,3 -14,11 -18,16 -13,12 -27,32 -31,46 -29,26 -53,57 l -74,146 c -11,38 7,3 -21,90 -8,28 -15,61 -5,95 8,26 8,16 15,36 l 36,133 c 11,43 21,47 29,81 -26,1 -31,4 -51,9 l 41,44 c 38,-3 37,0 44,-27 18,12 25,19 51,25 0,1 -109,190 67,271 37,17 37,13 86,17 48,3 27,19 40,61 11,34 24,37 37,64 17,34 5,56 49,61 -5,24 1,12 -15,26 z"
   id="path400"
   inkscape:connector-curvature="0"
   style="fill:#dad9d9" />
   <path
   class="fil1"
   d="m 10035,6131 c -5,-17 8,-11 -7,-19 l 75,-83 h 69 l 13,-25 c 12,6 -12,3 19,8 23,3 105,-33 128,-44 l 20,19 80,-86 26,15 c 34,-40 16,-17 29,-70 21,-12 33,-13 45,-31 9,-13 5,-24 31,-37 3,32 -5,22 13,44 31,-3 26,5 30,-35 h 31 l -16,-30 c 33,-23 5,-24 25,-78 l -25,-24 c 14,-16 2,-9 25,-15 -11,-50 -1,-16 -1,-52 -1,-26 -13,-30 -20,-52 l -5,-24 c 0,-4 0,-21 0,-26 1,-53 -17,-191 -68,-210 0,-40 11,-70 16,-104 -32,8 -26,23 -48,8 l -21,-25 c 0,-1 -1,-4 -1,-4 -9,-23 1,-3 2,-4 l -59,-18 -7,-10 c -23,-26 25,18 -8,-9 -32,-26 -146,21 -168,-83 -6,-29 5,-13 -10,-43 -19,-37 -21,-19 -9,-53 -25,-8 -88,-6 -119,14 -2,1 -7,6 -9,8 -2,1 -4,2 -5,3 -79,53 -77,133 -162,145 -8,52 -29,32 -85,92 -18,19 -19,8 -33,34 -24,44 -9,39 -49,77 -17,15 -44,62 -47,81 -13,99 0,17 -25,93 -9,29 -30,67 -26,101 3,28 10,15 24,61 9,30 18,72 1,117 31,57 2,42 48,105 21,30 50,47 88,72 19,12 29,19 43,34 28,32 3,22 20,55 7,14 29,25 41,36 l 22,21 c 5,7 13,-6 3,22 40,10 31,19 66,29 z"
   id="path402"
   inkscape:connector-curvature="0"
   style="fill:#dad9d9" />
   <path
   class="fil2"
   d="m 10441,5129 59,18 c -1,1 -11,-19 -2,4 0,0 1,3 1,4 l 21,25 c 22,15 16,0 48,-8 -5,34 -16,64 -16,104 51,19 69,157 68,210 0,5 0,22 0,26 l 5,24 c 7,22 19,26 20,52 0,36 -10,2 1,52 -23,6 -11,-1 -25,15 l 25,24 c -20,54 8,55 -25,78 l 16,30 h -31 c -4,40 1,32 -30,35 -18,-22 -10,-12 -13,-44 -26,13 -22,24 -31,37 -12,18 -24,19 -45,31 -13,53 5,30 -29,70 l -26,-15 -80,86 -20,-19 c -23,11 -105,47 -128,44 -31,-5 -7,-2 -19,-8 l -13,25 h -69 l -75,83 c 15,8 2,2 7,19 l 7,26 c 28,4 26,9 60,10 23,29 15,17 55,41 l 15,11 c 31,21 14,16 62,8 27,37 112,45 161,24 19,-8 62,-16 75,-18 l 152,-49 c 43,-19 18,5 75,-35 21,-15 56,-29 70,-40 l 15,-18 c 26,-32 15,-24 45,-32 2,-56 17,-39 30,-79 6,-20 3,-28 8,-43 9,-22 12,-8 23,-36 0,-37 1,-44 7,-79 2,-15 0,-27 2,-40 3,-18 32,-70 21,-115 -7,-31 -26,-26 -5,-71 l -18,-15 c 2,-97 -37,-162 -75,-238 -12,-26 -28,-48 -48,-61 l 1,-43 c -12,-8 -8,-6 -18,-16 -32,-30 -22,-10 -36,-32 l -8,-17 c -10,-21 -13,-11 -27,-24 l -8,-9 c -47,-46 5,22 -63,-56 -18,-21 -13,-18 -37,-20 -3,22 -5,5 24,40 l -20,28 c -29,44 -9,26 -55,31 14,-55 5,-38 34,-51 -4,4 0,25 -8,-17 h -9 c -18,31 -1,11 -42,17 9,-68 33,-50 -8,-50 -11,20 -21,10 -18,31 6,54 -9,-32 11,16 v 12 c 1,-1 -1,6 -2,8 z"
   id="path404"
   inkscape:connector-curvature="0"
   style="fill:#c4c0c5" />
   <path
   class="fil3"
   d="m 10908,6095 c 13,16 18,17 10,41 l 63,4 c 21,38 10,43 68,43 18,48 -6,-4 53,47 36,31 40,7 69,40 30,35 18,22 60,41 52,24 27,-2 66,45 l 53,5 -24,-24 33,-2 c -21,-31 -16,-5 -24,-48 30,7 19,7 42,12 -12,-55 5,-9 8,-60 -41,-18 -13,7 -30,-35 -44,13 -200,-80 -228,-90 -38,-14 -113,-51 -136,-76 l -19,17 -20,-21 -24,33 c -8,14 -12,18 -20,28 z"
   id="path406"
   inkscape:connector-curvature="0"
   style="fill:#c7c7cb" />
   <path
   class="fil4"
   d="m 10239,4931 c -12,34 -10,16 9,53 15,30 4,14 10,43 22,104 136,57 168,83 33,27 -15,-17 8,9 l 7,10 42,1 c 1,-2 3,-9 2,-8 v -12 c -20,-48 -5,38 -11,-16 -3,-21 7,-11 18,-31 41,0 17,-18 8,50 41,-6 24,14 42,-17 h 9 c 8,42 4,21 8,17 -29,13 -20,-4 -34,51 46,-5 26,13 55,-31 l 20,-28 c -29,-35 -27,-18 -24,-40 l -46,-41 c -13,-9 -6,-6 -22,-12 l -8,25 c -21,-13 -14,-6 -15,-29 -1,-16 -1,-15 -4,-38 -100,-7 -60,-33 -110,-44 z"
   id="path408"
   inkscape:connector-curvature="0"
   style="fill:#aba8af" />
   <path
   class="fil5"
   d="m 10237,5444 c -12,13 -28,44 -39,53 -19,15 -35,10 -62,39 -34,-3 -45,-11 -79,-14 l -16,-44 c 13,-23 18,-24 18,-62 -33,-3 -22,2 -63,36 0,59 0,44 27,54 v 39 c 60,10 -1,41 77,27 l 19,25 104,-42 c 22,-14 7,-5 16,-18 1,-2 2,-4 3,-6 l 36,-56 c 2,-3 39,-33 6,-93 6,-7 14,-16 21,-23 -79,-43 -42,-92 -168,-92 1,61 55,74 77,124 8,19 16,37 23,53 z"
   id="path410"
   inkscape:connector-curvature="0"
   style="fill:#211d21" />
   <path
   class="fil6"
   d="m 11338,6487 c 5,12 5,19 9,32 l -13,12 c -15,7 -12,5 -30,5 v 8 c 92,0 106,-28 147,-48 28,-14 47,-13 78,-23 l 38,-13 c 19,-6 19,0 29,-22 v -117 c -7,-26 -11,-17 -12,-40 -1,-30 32,-62 -67,-118 0,75 12,47 42,68 0,51 5,66 -23,96 -32,36 -3,25 -41,69 l -114,106 c -41,-16 7,-5 -43,-15 z"
   id="path412"
   inkscape:connector-curvature="0"
   style="fill:#949297" />
   <path
   class="fil7"
   d="m 11855,6587 c 7,-13 4,-9 8,-26 -60,0 -61,-1 -68,-25 l -78,74 121,27 c 10,-26 -19,-12 25,-17 z"
   id="path414"
   inkscape:connector-curvature="0"
   style="fill:#b9b9bb" />
   <path
   class="fil8"
   d="m 8519,7035 c 42,-10 38,-8 65,-36 26,-25 36,-26 45,-65 -50,5 -13,13 -53,49 -34,30 -47,15 -57,52 z"
   id="path416"
   inkscape:connector-curvature="0"
   style="fill:#4c506b" />
   <path
   class="fil9"
   d="m 11330,6832 v -25 c -40,-11 -8,-14 -51,-17 14,53 28,42 51,42 z"
   id="path418"
   inkscape:connector-curvature="0"
   style="fill:#b9b6b8" />
   <path
   class="fil7"
   d="m 11194,6637 c 28,-7 35,-14 43,-42 z"
   id="path420"
   inkscape:connector-curvature="0"
   style="fill:#b9b9bb" />
   <polygon
   class="fil7"
   points="11668,6866 11643,6866 11643,6874 11668,6874 "
   id="polygon422"
   style="fill:#b9b9bb" />
  </g>
 </g>
</svg>