<?xml version="1.0" encoding="UTF-8"?>
<!DOCTYPE svg PUBLIC "-//W3C//DTD SVG 1.1//EN" "http://www.w3.org/Graphics/SVG/1.1/DTD/svg11.dtd">
<!-- Creator: CorelDRAW X8 -->
<svg xmlns="http://www.w3.org/2000/svg" xml:space="preserve" width="210mm" height="297mm" version="1.1" style="shape-rendering:geometricPrecision; text-rendering:geometricPrecision; image-rendering:optimizeQuality; fill-rule:evenodd; clip-rule:evenodd"
viewBox="0 0 21000 29700"
 xmlns:xlink="http://www.w3.org/1999/xlink">
 <defs>
  <style type="text/css">
   <![CDATA[
    .fil0 {fill:#FEFEFE}
    .fil9 {fill:#DAD6DA}
    .fil7 {fill:#D1D0DC}
    .fil8 {fill:#866768}
    .fil5 {fill:#847B85}
    .fil6 {fill:#7B6C7A}
    .fil4 {fill:#736473}
    .fil3 {fill:#514151}
    .fil1 {fill:#4A3948}
    .fil2 {fill:#483747}
    .fil10 {fill:#4A4355}
   ]]>
  </style>
 </defs>
 <g id="Ebene_x0020_1">
  <metadata id="CorelCorpID_0Corel-Layer"/>
  <g id="_1603560935264">
   <path class="fil0" d="M7101 5995c23,23 22,23 25,65 3,31 -11,31 21,42 0,35 9,76 16,105 12,45 33,44 12,84 32,23 27,39 34,76 5,27 3,11 13,34 6,14 9,30 13,47 11,42 24,50 29,88 3,19 5,35 11,51 11,30 12,12 20,36 9,25 12,66 23,97 8,23 22,53 31,87 16,56 45,111 53,185l49 222c14,32 14,1 22,45 4,18 3,47 6,64l24 102c21,132 -6,127 1,152 26,89 2,51 8,109l23 145c0,2 0,5 1,7l4 14c41,129 68,286 89,352 16,47 9,0 20,75 3,28 27,78 36,97l90 285c2,35 -10,29 5,69 23,59 1,35 20,98 11,36 -6,11 4,50l22 113c10,91 8,44 21,113 7,42 14,78 22,116 4,24 1,109 30,171 12,25 6,26 13,54 12,51 42,58 25,96 37,4 22,9 47,36 98,102 306,46 355,45 37,-1 13,5 43,-21 40,-1 72,-3 109,-11l425 -138c25,-9 55,-13 86,-20l76 -16c31,-7 61,-19 92,-27l250 -48c80,-22 85,-36 123,-45 75,-19 21,12 80,-30 29,-21 19,-4 46,-13 8,-3 63,-47 118,-53l265 -83c69,-6 298,-72 361,-95 38,-13 141,-11 181,-14 46,-4 44,-21 69,-29 41,-14 45,-3 82,-5 24,-2 46,-12 85,-16 26,-2 73,-3 95,-8 57,-14 123,-14 185,-20 25,-3 50,-14 88,-20 18,-3 32,-1 46,-4 17,-2 23,-9 39,-13 42,-9 2,10 49,-10l96 -31c48,-15 117,-29 154,-48l159 -39c133,0 283,-51 416,-66l214 -83c40,-9 78,-27 123,-27l13 -26c46,9 153,-35 197,-44l360 -79c92,-30 42,-7 122,-30l233 -64c43,-26 144,-32 254,-76 54,-22 25,6 122,-39 174,-79 126,-76 191,-131 23,-20 39,-13 53,-116 8,-59 0,-99 -3,-144 -3,-34 -10,-27 -13,-68l-66 -571c-6,-32 1,-49 -3,-72 -4,-28 -5,3 -12,-35 -3,-17 1,-27 0,-41l-8 -49c-3,-16 -7,-15 -9,-28l-12 -102c-2,-33 -18,-86 -22,-136 -4,-50 1,-108 -8,-156 -24,-125 -31,-278 -58,-416 -19,-94 -36,-176 -59,-263 -12,-43 -26,-76 -37,-123l-31 -132c-9,-40 -15,3 -11,-66 1,-26 -7,-15 -13,-54 -3,-22 0,-58 -2,-64 -8,-29 -17,-10 -16,-64 -7,-69 -18,-253 -46,-297 25,-44 4,-31 -4,-83 -14,-102 -61,-208 -71,-289l-31 -176c-2,-18 -7,-27 -13,-46 -13,-35 -2,-3 -3,-39 0,-41 -26,-150 0,-187l-24 -22c23,-48 11,-63 2,-123 -8,-58 -6,-82 -24,-130 -7,-20 -18,-98 -25,-125 -11,-39 -9,-90 -28,-116l13 -25c-41,-34 -35,-120 -45,-175 -43,-247 -68,-194 -20,-459 5,-26 -6,-30 -4,-54 1,-2 1,-4 1,-8 4,-79 -260,-175 -370,-168 -167,9 -155,-12 -237,-7l-260 -30c-34,6 4,14 -47,6 -77,-12 -77,-2 -112,-6 -101,-13 -333,-25 -443,-10l-109 8c-43,4 -69,20 -105,4 -29,33 -3,10 -53,16l-267 24c-81,6 -98,20 -130,23 -15,2 -41,-3 -64,0 -27,5 -41,12 -70,14 -57,5 -27,7 -61,15 -32,8 -55,-4 -74,-4 -16,1 -34,12 -59,16 -54,10 -90,2 -142,19 -36,11 -93,-1 -134,11l-695 59c-54,11 -98,4 -143,16 -111,26 -133,62 -256,66 -23,-43 -92,-46 -144,-26 -59,22 -92,14 -151,36l-137 45c-30,13 -216,-2 -310,57l-62 23c-70,30 -114,38 -170,59 -119,47 -218,148 -333,191 -69,26 -134,84 -213,110 -26,8 -36,19 -61,23 -32,4 -5,-4 -32,10 -103,51 -71,32 -160,65l-16 5c-47,16 -48,24 -101,33l-134 45c-68,34 -130,58 -185,111 -22,21 -25,22 -51,42 -37,29 -58,73 -91,96 -23,15 -32,30 -43,53 -23,51 -35,28 -68,115l-40 79c-1,2 -2,4 -3,6 0,2 -2,4 -3,5l-9 42c-6,46 -74,177 -75,201 -1,25 1,44 -7,72 -24,94 -9,56 -3,150 6,115 60,220 66,301 3,50 15,111 22,161 17,110 5,175 43,313 24,87 21,233 37,319 9,51 9,15 12,65 2,43 15,36 20,70z"/>
   <path class="fil1" d="M7105 6104l3 0c2,-39 1,-76 -7,-109 -5,-34 -18,-27 -20,-70 -3,-50 -3,-14 -12,-65 -16,-86 -13,-232 -37,-319 -38,-138 -26,-203 -43,-313 -7,-50 -19,-111 -22,-161 -6,-81 -60,-186 -66,-301 -6,-94 -21,-56 3,-150 8,-28 6,-47 7,-72 1,-24 69,-155 75,-201l9 -42c1,-1 3,-3 3,-5 1,-2 2,-4 3,-6l40 -79c33,-87 45,-64 68,-115 11,-23 20,-38 43,-53 33,-23 54,-67 91,-96 26,-20 29,-21 51,-42 55,-53 117,-77 185,-111l134 -45c53,-9 54,-17 101,-33l16 -5c89,-33 57,-14 160,-65 27,-14 0,-6 32,-10 25,-4 35,-15 61,-23 79,-26 144,-84 213,-110 115,-43 214,-144 333,-191 56,-21 100,-29 170,-59l62 -23c94,-59 280,-44 310,-57l137 -45c59,-22 92,-14 151,-36 52,-20 121,-17 144,26 123,-4 145,-40 256,-66 45,-12 89,-5 143,-16l695 -59c41,-12 98,0 134,-11 52,-17 88,-9 142,-19 25,-4 43,-15 59,-16 19,0 42,12 74,4 34,-8 4,-10 61,-15 29,-2 43,-9 70,-14 23,-3 49,2 64,0 32,-3 49,-17 130,-23l267 -24c50,-6 24,17 53,-16 36,16 62,0 105,-4l109 -8c110,-15 342,-3 443,10 35,4 35,-6 112,6 51,8 13,0 47,-6l260 30c82,-5 70,16 237,7 110,-7 374,89 370,168 0,4 0,6 -1,8 -2,24 9,28 4,54 -48,265 -23,212 20,459 10,55 4,141 45,175l-13 25c19,26 17,77 28,116 7,27 18,105 25,125 18,48 16,72 24,130 9,60 21,75 -2,123l24 22c-26,37 0,146 0,187 1,36 -10,4 3,39 6,19 11,28 13,46l31 176c64,-13 24,-14 47,-49 4,-15 3,-10 3,-21 0,0 -3,-18 -3,-22l25 0c-8,-29 -10,-15 -15,-35 -3,-13 -2,-36 -2,-49 -32,-4 -25,4 -34,-34 34,-1 20,2 43,-9 -30,-45 -49,-13 -47,-70 1,-30 -6,-71 13,-99l-34 -17c9,-108 3,-15 0,-93 -2,-38 6,-79 -3,-116l-19 -91c-10,-55 -15,-52 5,-90 -40,-4 -15,14 -32,-27 -17,-40 -23,-94 -37,-141l-24 -153c-4,-25 -13,-26 -15,-44 -6,-40 8,-17 -16,-86l-24 -94c-22,-63 6,-173 5,-234l-9 -109c-11,-88 -126,-129 -198,-158 -63,-25 -115,-38 -200,-37 -64,0 -61,-12 -102,-17 -44,-5 -78,-1 -119,-8l-147 -32c-29,-7 -32,2 -46,1 -36,-2 -40,-12 -103,-12l-308 -14c-42,-8 -167,6 -217,6 -41,-1 -75,0 -115,-4 -42,-5 3,-4 -40,9 -35,10 -77,-1 -110,9l-199 25c-24,0 -13,-1 -44,2l-250 30c-29,5 -25,-1 -54,-4 -28,7 17,9 -78,20 -13,2 -16,-6 -46,0 -19,4 -27,12 -46,14l-434 49c-84,14 -60,3 -99,3 -18,0 -26,10 -45,12l-158 13c-23,0 -34,0 -56,3 -33,3 -9,-3 -43,0l-330 25c-20,4 -37,9 -54,14 -48,12 -97,18 -141,37 -63,26 -37,24 -99,-9 -78,-42 -166,-9 -245,20 -105,38 -61,10 -102,25 -23,7 -36,21 -63,30 -31,10 -178,15 -227,27 -29,7 -50,11 -71,22l-68 25c-9,4 -16,9 -29,14l-66 28c-42,21 -7,1 -32,5 -56,8 -56,47 -135,47l-29 30c-16,10 -25,13 -39,21l-228 127c-15,6 0,-2 -17,9l-44 32c-33,30 -91,41 -131,63 -38,22 -53,16 -101,44l-66 27c-11,4 -32,11 -43,16l-46 14c-23,6 -10,11 -39,20 -20,7 -26,4 -47,11l-136 43c-19,10 -9,8 -38,20l-87 33c0,0 -8,8 -14,10 -35,13 12,-9 -19,2 -14,4 -42,42 -62,53 -32,20 -47,16 -59,60 -17,-8 -6,-19 -27,-2l-12 22c-1,1 -3,3 -4,5l-181 267c-22,39 -33,118 -59,169 -48,94 -89,307 -71,409 4,26 19,44 23,70 11,73 33,134 46,208 10,51 18,103 22,156l11 60c-3,108 41,241 52,351 5,46 -1,-5 -2,38 -2,60 45,298 61,343l27 66c11,47 -7,27 21,39z"/>
   <path class="fil2" d="M13656 5400c-1,54 8,35 16,64 2,6 -1,42 2,64 6,39 14,28 13,54 -4,69 2,26 11,66l31 132c11,47 25,80 37,123 23,87 40,169 59,263 27,138 34,291 58,416 9,48 4,106 8,156 4,50 20,103 22,136l12 102c2,13 6,12 9,28l8 49c1,14 -3,24 0,41 7,38 8,7 12,35 4,23 -3,40 3,72l66 571c3,41 10,34 13,68 3,45 11,85 3,144 -14,103 -30,96 -53,116 -65,55 -17,52 -191,131 -97,45 -68,17 -122,39 -110,44 -211,50 -254,76l-233 64c-80,23 -30,0 -122,30l-360 79c-44,9 -151,53 -197,44l-13 26c-45,0 -83,18 -123,27 22,30 39,-3 26,45l25 0c31,-12 53,-12 79,-23 113,-45 97,6 150,-45 26,-24 13,-8 76,-8l0 -17c59,0 57,7 92,-10 73,-35 70,-14 119,-33 57,-21 46,8 78,-6 25,-10 9,1 24,-27l212 -41c32,-14 67,-10 140,-39l79 -28c35,-6 29,-13 78,-15 18,-1 -3,4 15,0 18,-4 -1,0 14,-7 23,-12 20,-9 45,-16l215 -64c153,-78 81,-51 141,-87l91 -79c40,-49 42,-248 11,-293 18,-37 -13,-170 -13,-212 0,-46 -10,-214 -28,-256 -19,-47 2,-32 -13,-113l-47 -291c-4,-40 -22,-43 -25,-153l-17 -169c-2,-103 -43,-288 -43,-313 -1,-84 -27,-230 -52,-312l-44 -176c-6,-19 -3,-28 -7,-44 -6,-20 -9,-10 -14,-29 -4,-15 0,-28 -4,-46 -7,-28 -16,-34 -22,-63 -24,-107 -26,-94 -26,-252 -2,-2 -3,-4 -4,-6 -22,-25 -12,-17 -33,-24 -8,27 2,24 -6,42l-27 -6z"/>
   <path class="fil3" d="M9823 9228l-17 -8c0,-54 7,2 -19,-20 -55,6 -110,50 -118,53 -27,9 -17,-8 -46,13 -59,42 -5,11 -80,30 -38,9 -43,23 -123,45l-250 48c-31,8 -61,20 -92,27l-76 16c-31,7 -61,11 -86,20l-425 138c-37,8 -69,10 -109,11 -30,26 -6,20 -43,21 -49,1 -257,57 -355,-45 -25,-27 -10,-32 -47,-36 17,-38 -13,-45 -25,-96 -7,-28 -1,-29 -13,-54 -29,-62 -26,-147 -30,-171 -8,-38 -15,-74 -22,-116 -13,-69 -11,-22 -21,-113l-22 -113c-10,-39 7,-14 -4,-50 -19,-63 3,-39 -20,-98 -15,-40 -3,-34 -5,-69l-90 -285c-9,-19 -33,-69 -36,-97 -11,-75 -4,-28 -20,-75 -21,-66 -48,-223 -89,-352l-4 -14c-1,-2 -1,-5 -1,-7l-23 -145c-6,-58 18,-20 -8,-109 -7,-25 20,-20 -1,-152l-24 -102c-3,-17 -2,-46 -6,-64 -8,-44 -8,-13 -22,-45l-49 -222c-7,-8 -6,-9 -15,-18l-9 -8c-33,-33 -7,-21 -36,-36 0,52 36,92 40,143l67 295c13,58 19,215 15,280 -1,14 6,87 10,110l40 172c1,2 2,4 3,6 5,12 2,12 7,26 41,110 5,50 25,110l16 86c11,46 6,-13 29,99 10,53 57,162 65,189l98 418c7,45 2,49 9,101 10,77 30,138 42,212l62 319c10,42 45,83 75,111 85,78 233,93 326,68 37,-9 79,-1 116,-12 55,-15 41,-20 115,-20 43,-29 18,-15 74,-27 18,-4 22,-12 85,-26 23,-5 57,-17 81,-29 63,-32 77,-16 121,-40 93,-52 72,-11 147,-47 28,-14 32,-12 64,-14l22 -6c1,0 4,-1 5,-1 5,-1 25,-5 41,-8l220 -50c21,-4 82,-6 126,-27 34,-16 -9,-5 38,-13 40,-7 83,-29 124,-46l145 -58c60,-21 7,8 28,-23z"/>
   <path class="fil4" d="M9787 9200c26,22 19,-34 19,20l17 8c2,1 6,-1 7,1 2,7 10,-8 18,16 64,-15 129,-62 169,-42 31,-21 4,-11 43,-17l193 -44c32,-14 2,-12 44,-16 44,-3 65,-8 110,-8 6,-22 -1,-7 8,-25 67,15 76,-9 102,-26 56,13 140,-19 203,-25 50,-5 -1,-6 66,-19 102,-21 220,-30 295,-44 46,-8 113,-9 148,-21 50,-15 81,-20 138,-31 40,-8 126,-34 170,-32 17,2 30,7 63,-15 20,-12 11,1 18,-24 50,0 31,0 65,11 24,8 32,-2 62,-3l0 -25c103,22 104,-1 147,-19l17 -4c1,-1 3,-2 5,-3l88 -20c2,1 9,5 10,6l20 -20c26,-2 24,-4 51,-8 57,-9 75,-41 136,-9 26,-39 35,-45 84,-33 29,-55 39,-22 62,-33 13,-7 -3,3 13,-11l44 -24 -25 0c13,-48 -4,-15 -26,-45l-214 83c-133,15 -283,66 -416,66l-159 39c-37,19 -106,33 -154,48l-96 31c-47,20 -7,1 -49,10 -16,4 -22,11 -39,13 -14,3 -28,1 -46,4 -38,6 -63,17 -88,20 -62,6 -128,6 -185,20 -22,5 -69,6 -95,8 -39,4 -61,14 -85,16 -37,2 -41,-9 -82,5 -25,8 -23,25 -69,29 -40,3 -143,1 -181,14 -63,23 -292,89 -361,95l-265 83z"/>
   <path class="fil5" d="M7105 6104c-18,18 13,75 19,100 27,110 20,150 62,276 8,27 -1,30 10,58l16 43c16,67 30,64 41,94 10,24 2,25 15,53 47,98 -5,35 28,90 19,33 29,60 29,107l17 5c29,15 3,3 36,36l9 8c9,9 8,10 15,18 -8,-74 -37,-129 -53,-185 -9,-34 -23,-64 -31,-87 -11,-31 -14,-72 -23,-97 -8,-24 -9,-6 -20,-36 -6,-16 -8,-32 -11,-51 -5,-38 -18,-46 -29,-88 -4,-17 -7,-33 -13,-47 -10,-23 -8,-7 -13,-34 -7,-37 -2,-53 -34,-76 21,-40 0,-39 -12,-84 -7,-29 -16,-70 -16,-105 -32,-11 -18,-11 -21,-42 -3,-42 -2,-42 -25,-65 8,33 9,70 7,109l-3 0z"/>
   <path class="fil6" d="M13535 4731c10,81 57,187 71,289 8,52 29,39 4,83 28,44 39,228 46,297l27 6c8,-18 -2,-15 6,-42 21,7 11,-1 33,24 1,2 2,4 4,6 5,-15 6,-28 5,-43 -2,-23 -9,-33 3,-60l-26 0c-11,-79 14,-69 -22,-101 1,-3 4,-9 5,-10 1,-2 3,-5 4,-6l8 -15c-16,-10 -13,-1 -24,-71 -5,-35 -14,-67 2,-99 -32,-23 -38,-39 -26,-70 -11,-14 -8,-8 -10,-19l-11 -59c-7,-25 3,-15 -18,-24l18 -47c-29,-14 -7,7 -27,-29 28,-53 22,-19 26,-59l-51 0c-23,35 17,36 -47,49z"/>
   <path class="fil7" d="M13734 5291c-3,-36 1,-16 -17,-42 5,-19 18,-52 26,-68l-26 0c13,-55 14,-33 -8,-42l0 -17c33,-14 1,5 25,-34 -26,-40 -12,-8 -11,-44 2,-43 -15,-12 3,-49 -26,-2 -16,0 -34,-9 12,-57 5,3 -22,-53 -5,-11 13,-4 -15,-14 -12,31 -6,47 26,70 -16,32 -7,64 -2,99 11,70 8,61 24,71l-8 15c-1,1 -3,4 -4,6 -1,1 -4,7 -5,10 36,32 11,22 22,101l26 0z"/>
   <path class="fil8" d="M11558 9973l0 17c45,24 37,24 85,-8 -20,-38 -19,-51 -76,-51 -5,19 -9,19 -9,42z"/>
   <path class="fil9" d="M7325 7433c35,8 40,9 85,9 -11,-15 -7,-24 -85,-26l0 17z"/>
   <path class="fil10" d="M14793 9287c6,-29 16,-25 -17,-33 3,37 -10,15 17,33z"/>
  </g>
 </g>
</svg>
