<?xml version="1.0" encoding="UTF-8" standalone="no"?>
<!-- Creator: CorelDRAW X8 -->

<svg
   xmlns:dc="http://purl.org/dc/elements/1.1/"
   xmlns:cc="http://creativecommons.org/ns#"
   xmlns:rdf="http://www.w3.org/1999/02/22-rdf-syntax-ns#"
   xmlns:svg="http://www.w3.org/2000/svg"
   xmlns="http://www.w3.org/2000/svg"
   xmlns:sodipodi="http://sodipodi.sourceforge.net/DTD/sodipodi-0.dtd"
   xmlns:inkscape="http://www.inkscape.org/namespaces/inkscape"
   xml:space="preserve"
   width="83mm"
   height="75mm"
   version="1.1"
   style="clip-rule:evenodd;fill-rule:evenodd;image-rendering:optimizeQuality;shape-rendering:geometricPrecision;text-rendering:geometricPrecision"
   viewBox="0 0 8300 7500"
   id="svg437"
   sodipodi:docname="Notizzettel mit Pinnadel.svg"
   inkscape:version="0.92.3 (2405546, 2018-03-11)"><metadata
   id="metadata441"><rdf:RDF><cc:Work
       rdf:about=""><dc:format>image/svg+xml</dc:format><dc:type
         rdf:resource="http://purl.org/dc/dcmitype/StillImage" /><dc:title></dc:title></cc:Work></rdf:RDF></metadata><sodipodi:namedview
   pagecolor="#ffffff"
   bordercolor="#666666"
   borderopacity="1"
   objecttolerance="10"
   gridtolerance="10"
   guidetolerance="10"
   inkscape:pageopacity="0"
   inkscape:pageshadow="2"
   inkscape:window-width="905"
   inkscape:window-height="702"
   id="namedview439"
   showgrid="false"
   inkscape:zoom="0.37861251"
   inkscape:cx="585.02303"
   inkscape:cy="323.10492"
   inkscape:window-x="189"
   inkscape:window-y="65"
   inkscape:window-maximized="0"
   inkscape:current-layer="svg437" />
 <defs
   id="defs284">
  <style
   type="text/css"
   id="style282">
   <![CDATA[
    .fil0 {fill:#FEFEFE}
    .fil2 {fill:#FAFBFD}
    .fil25 {fill:#E6E2E6}
    .fil51 {fill:#DBDBE7}
    .fil49 {fill:#DAD8DC}
    .fil30 {fill:#D6D2D8}
    .fil29 {fill:#D4CEDA}
    .fil41 {fill:#C9C9D6}
    .fil50 {fill:#BCB5BC}
    .fil48 {fill:#B7B1B3}
    .fil32 {fill:#B7B5C3}
    .fil46 {fill:#A89CA6}
    .fil34 {fill:#ABABBB}
    .fil40 {fill:#9EA6B0}
    .fil35 {fill:#866768}
    .fil23 {fill:#918592}
    .fil45 {fill:#8C7C8B}
    .fil37 {fill:#8A8697}
    .fil22 {fill:#78676A}
    .fil42 {fill:#7A6C75}
    .fil15 {fill:#7B6C7A}
    .fil43 {fill:#8687A5}
    .fil20 {fill:#78717A}
    .fil31 {fill:#766A72}
    .fil47 {fill:#776979}
    .fil9 {fill:#72646E}
    .fil21 {fill:#6C5C64}
    .fil10 {fill:#6D626B}
    .fil39 {fill:#7B7997}
    .fil44 {fill:#776B85}
    .fil3 {fill:#6C5C6B}
    .fil52 {fill:#655962}
    .fil38 {fill:#675968}
    .fil36 {fill:#6B6679}
    .fil12 {fill:#625661}
    .fil28 {fill:#594651}
    .fil19 {fill:#5C4C5B}
    .fil17 {fill:#5B4C5C}
    .fil14 {fill:#554953}
    .fil27 {fill:#4D3B46}
    .fil13 {fill:#524651}
    .fil4 {fill:#534353}
    .fil5 {fill:#50404F}
    .fil7 {fill:#4E424E}
    .fil16 {fill:#493645}
    .fil8 {fill:#44323C}
    .fil6 {fill:#4C3C4B}
    .fil24 {fill:#3C2A34}
    .fil11 {fill:#453A44}
    .fil1 {fill:#453545}
    .fil53 {fill:#4A4355}
    .fil26 {fill:#282228}
    .fil18 {fill:#26212B}
    .fil33 {fill:#211D21}
   ]]>
  </style>
 </defs>
 <g
   id="Ebene_x0020_1"
   transform="translate(-6708.706,-2632.9417)">
  <metadata
   id="CorelCorpID_0Corel-Layer" />
  <g
   id="_1603560940224">
   <polygon
   class="fil0"
   points="7046,4216 7037,4216 7037,4233 7029,4233 7029,4250 7020,4250 7020,4267 7012,4267 7012,4275 7003,4275 7003,4301 6995,4301 6995,4309 6986,4309 6986,4360 6978,4360 6978,4385 6969,4385 6969,4402 6961,4402 6961,4428 6952,4428 6952,4436 6944,4436 6944,4487 6936,4487 6936,4495 6927,4495 6927,4512 6919,4512 6919,4521 6910,4521 6910,4546 6919,4546 6919,4563 6910,4563 6910,4605 6902,4605 6902,4639 6893,4639 6893,4656 6885,4656 6885,4682 6893,4682 6893,4741 6902,4741 6902,4825 6910,4825 6910,4851 6919,4851 6919,4885 6927,4885 6927,4936 6936,4936 6936,4952 6944,4952 6944,4978 6952,4978 6952,5020 6961,5020 6961,5037 6969,5037 6969,5054 6961,5054 6961,5071 6969,5071 6969,5113 6978,5113 6978,5198 6986,5198 6986,5223 6995,5223 6995,5300 7003,5300 7003,5317 6995,5317 6995,5359 7003,5359 7003,5401 7012,5401 7012,5435 7020,5435 7020,5494 7029,5494 7029,5545 7037,5545 7037,5638 7046,5638 7046,5689 7054,5689 7054,5714 7063,5714 7063,5808 7071,5808 7071,5825 7063,5825 7063,5841 7071,5841 7071,5892 7088,5892 7088,5901 7079,5901 7079,5952 7088,5952 7088,5968 7096,5968 7096,5977 7105,5977 7105,5994 7113,5994 7113,6011 7122,6011 7122,6070 7130,6070 7130,6087 7122,6087 7122,6095 7139,6095 7139,6104 7147,6104 7147,6155 7156,6155 7156,6189 7164,6189 7164,6239 7181,6239 7181,6282 7173,6282 7173,6290 7181,6290 7181,6307 7190,6307 7190,6316 7206,6316 7206,6358 7215,6358 7215,6375 7206,6375 7206,6383 7215,6383 7215,6392 7223,6392 7223,6409 7232,6409 7232,6460 7240,6460 7240,6485 7249,6485 7249,6502 7257,6502 7257,6510 7266,6510 7266,6570 7274,6570 7274,6603 7283,6603 7283,6612 7291,6612 7291,6620 7300,6620 7300,6671 7308,6671 7308,6688 7317,6688 7317,6730 7325,6730 7325,6739 7333,6739 7333,6764 7342,6764 7342,6781 7350,6781 7350,6824 7359,6824 7359,6832 7367,6832 7367,6849 7376,6849 7376,6891 7384,6891 7384,6934 7393,6934 7393,6959 7401,6959 7401,7010 7410,7010 7410,7027 7418,7027 7418,7078 7427,7078 7427,7120 7435,7120 7435,7128 7444,7128 7444,7205 7452,7205 7452,7230 7469,7230 7469,7255 7477,7255 7477,7340 7486,7340 7486,7349 7494,7349 7494,7408 7503,7408 7503,7450 7511,7450 7511,7509 7520,7509 7520,7526 7511,7526 7511,7560 7503,7560 7503,7569 7494,7569 7494,7577 7503,7577 7503,7586 7511,7586 7511,7611 7520,7611 7520,7653 7511,7653 7511,7704 7520,7704 7520,7789 7528,7789 7528,7806 7537,7806 7537,7848 7545,7848 7545,7882 7554,7882 7554,7907 7562,7907 7562,7950 7571,7950 7571,7967 7579,7967 7579,7992 7587,7992 7587,8043 7596,8043 7596,8077 7604,8077 7604,8111 7613,8111 7613,8170 7621,8170 7621,8187 7630,8187 7630,8212 7638,8212 7638,8229 7647,8229 7647,8288 7655,8288 7655,8314 7664,8314 7664,8331 7672,8331 7672,8356 7681,8356 7681,8365 7689,8365 7689,8390 7698,8390 7698,8407 7706,8407 7706,8458 7714,8458 7714,8475 7723,8475 7723,8517 7740,8517 7740,8559 7748,8559 7748,8585 7757,8585 7757,8610 7765,8610 7765,8644 7774,8644 7774,8652 7782,8652 7782,8661 7774,8661 7774,8729 7782,8729 7782,8737 7791,8737 7791,8788 7799,8788 7799,8796 7791,8796 7791,8822 7799,8822 7799,8830 7808,8830 7808,8856 7799,8856 7799,8889 7808,8889 7808,8898 7816,8898 7816,8966 7825,8966 7825,9033 7833,9033 7833,9059 7841,9059 7841,9093 7850,9093 7850,9160 7858,9160 7858,9194 7867,9194 7867,9287 7875,9287 7875,9304 7884,9304 7884,9372 7892,9372 7892,9381 7901,9381 7901,9397 7909,9397 7909,9457 7918,9457 7918,9474 7926,9474 7926,9499 7935,9499 7935,9508 7943,9508 7943,9533 7935,9533 7935,9541 7960,9541 7960,9550 7968,9550 7968,9558 7977,9558 7977,9575 7985,9575 7985,9584 7994,9584 7994,9592 8011,9592 8011,9601 8019,9601 8019,9609 8028,9609 8028,9618 8070,9618 8070,9626 8121,9626 8121,9635 8180,9635 8180,9643 8231,9643 8231,9635 8239,9635 8239,9626 8256,9626 8256,9635 8299,9635 8299,9626 8307,9626 8307,9618 8349,9618 8349,9626 8366,9626 8366,9618 8375,9618 8375,9609 8383,9609 8383,9601 8443,9601 8443,9592 8493,9592 8493,9584 8519,9584 8519,9575 8553,9575 8553,9567 8570,9567 8570,9558 8612,9558 8612,9550 8637,9550 8637,9541 8671,9541 8671,9533 8688,9533 8688,9524 8730,9524 8730,9516 8739,9516 8739,9508 8773,9508 8773,9499 8790,9499 8790,9508 8798,9508 8798,9499 8807,9499 8807,9491 8832,9491 8832,9482 8849,9482 8849,9474 8883,9474 8883,9465 8891,9465 8891,9457 8908,9457 8908,9448 8925,9448 8925,9457 8934,9457 8934,9448 8942,9448 8942,9440 8976,9440 8976,9431 9018,9431 9018,9423 9027,9423 9027,9414 9052,9414 9052,9423 9069,9423 9069,9414 9086,9414 9086,9406 9128,9406 9128,9397 9145,9397 9145,9389 9188,9389 9188,9381 9247,9381 9247,9372 9289,9372 9289,9364 9332,9364 9332,9355 9349,9355 9349,9347 9416,9347 9416,9338 9442,9338 9442,9330 9476,9330 9476,9321 9492,9321 9492,9304 9526,9304 9526,9296 9560,9296 9560,9287 9603,9287 9603,9279 9611,9279 9611,9270 9619,9270 9619,9262 9636,9262 9636,9254 9679,9254 9679,9245 9687,9245 9687,9237 9696,9237 9696,9228 9713,9228 9713,9220 9738,9220 9738,9211 9755,9211 9755,9203 9789,9203 9789,9194 9814,9194 9814,9186 9840,9186 9840,9177 9848,9177 9848,9169 9865,9169 9865,9160 9907,9160 9907,9152 9924,9152 9924,9143 9950,9143 9950,9152 9958,9152 9958,9143 9967,9143 9967,9135 9992,9135 9992,9127 10026,9127 10026,9118 10094,9118 10094,9110 10119,9110 10119,9101 10161,9101 10161,9093 10178,9093 10178,9084 10204,9084 10204,9076 10246,9076 10246,9067 10263,9067 10263,9059 10305,9059 10305,9050 10314,9050 10314,9042 10365,9042 10365,9033 10390,9033 10390,9025 10415,9025 10415,9016 10424,9016 10424,9008 10458,9008 10458,9016 10483,9016 10483,9008 10627,9008 10627,9000 10635,9000 10635,8991 10644,8991 10644,8983 10652,8983 10652,8974 10695,8974 10695,8966 10720,8966 10720,8974 10762,8974 10762,8966 10779,8966 10779,8957 10923,8957 10923,8949 10940,8949 10940,8940 11025,8940 11025,8932 11135,8932 11135,8923 11143,8923 11143,8915 11194,8915 11194,8906 11262,8906 11262,8898 11279,8898 11279,8889 11313,8889 11313,8898 11321,8898 11321,8889 11330,8889 11330,8881 11355,8881 11355,8873 11364,8873 11364,8864 11406,8864 11406,8856 11431,8856 11431,8847 11465,8847 11465,8839 11491,8839 11491,8830 11499,8830 11499,8822 11567,8822 11567,8813 11575,8813 11575,8805 11592,8805 11592,8796 11635,8796 11635,8788 11685,8788 11685,8779 11702,8779 11702,8771 11719,8771 11719,8762 11736,8762 11736,8771 11770,8771 11770,8762 11795,8762 11795,8754 11855,8754 11855,8746 11905,8746 11905,8737 11948,8737 11948,8729 12041,8729 12041,8720 12049,8720 12049,8712 12117,8712 12117,8695 12143,8695 12143,8703 12168,8703 12168,8695 12202,8695 12202,8678 12219,8678 12219,8669 12253,8669 12253,8661 12270,8661 12270,8652 12286,8652 12286,8644 12329,8644 12329,8635 12337,8635 12337,8627 12371,8627 12371,8619 12388,8619 12388,8610 12405,8610 12405,8602 12430,8602 12430,8593 12464,8593 12464,8585 12490,8585 12490,8576 12498,8576 12498,8559 12515,8559 12515,8568 12540,8568 12540,8559 12566,8559 12566,8551 12600,8551 12600,8542 12634,8542 12634,8534 12676,8534 12676,8525 12693,8525 12693,8517 12752,8517 12752,8508 12769,8508 12769,8500 12794,8500 12794,8492 12845,8492 12845,8483 12871,8483 12871,8475 12938,8475 12938,8466 12964,8466 12964,8458 13006,8458 13006,8449 13032,8449 13032,8441 13074,8441 13074,8432 13082,8432 13082,8424 13142,8424 13142,8415 13175,8415 13175,8407 13209,8407 13209,8398 13252,8398 13252,8390 13286,8390 13286,8381 13328,8381 13328,8373 13336,8373 13336,8365 13370,8365 13370,8356 13413,8356 13413,8348 13421,8348 13421,8339 13429,8339 13429,8331 13463,8331 13463,8322 13506,8322 13506,8314 13548,8314 13548,8305 13556,8305 13556,8297 13616,8297 13616,8288 13641,8288 13641,8280 13667,8280 13667,8271 13675,8271 13675,8263 13726,8263 13726,8254 13768,8254 13768,8238 13794,8238 13794,8229 13810,8229 13810,8221 13827,8221 13827,8212 13844,8212 13844,8204 13861,8204 13861,8195 13870,8195 13870,8187 13887,8187 13887,8178 13912,8178 13912,8170 13921,8170 13921,8161 13929,8161 13929,8153 13937,8153 13937,8144 13946,8144 13946,8136 13954,8136 13954,8127 13963,8127 13963,8119 13971,8119 13971,8111 13980,8111 13980,8102 13988,8102 13988,8094 13997,8094 13997,8085 14014,8085 14014,8068 14022,8068 14022,8034 14031,8034 14031,8000 14039,8000 14039,7890 14048,7890 14048,7873 14039,7873 14039,7814 14022,7814 14022,7679 14014,7679 14014,7611 14005,7611 14005,7492 13997,7492 13997,7450 14005,7450 14005,7433 13997,7433 13997,7425 13988,7425 13988,7365 13980,7365 13980,7332 13971,7332 13971,7272 13963,7272 13963,7205 13954,7205 13954,7120 13946,7120 13946,7044 13937,7044 13937,7035 13929,7035 13929,7027 13937,7027 13937,7001 13929,7001 13929,6984 13921,6984 13921,6968 13929,6968 13929,6951 13921,6951 13921,6925 13912,6925 13912,6857 13904,6857 13904,6815 13895,6815 13895,6756 13887,6756 13887,6578 13878,6578 13878,6485 13870,6485 13870,6468 13861,6468 13861,6417 13853,6417 13853,6409 13861,6409 13861,6375 13853,6375 13853,6299 13844,6299 13844,6282 13836,6282 13836,6197 13827,6197 13827,6155 13819,6155 13819,6112 13810,6112 13810,6079 13802,6079 13802,6045 13794,6045 13794,6002 13785,6002 13785,5977 13777,5977 13777,5943 13768,5943 13768,5901 13760,5901 13760,5884 13751,5884 13751,5850 13743,5850 13743,5808 13734,5808 13734,5782 13726,5782 13726,5740 13717,5740 13717,5714 13709,5714 13709,5698 13700,5698 13700,5630 13683,5630 13683,5579 13692,5579 13692,5562 13683,5562 13683,5554 13675,5554 13675,5503 13667,5503 13667,5477 13675,5477 13675,5460 13667,5460 13667,5444 13658,5444 13658,5317 13650,5317 13650,5283 13641,5283 13641,5240 13633,5240 13633,5130 13624,5130 13624,5113 13616,5113 13616,5105 13607,5105 13607,5096 13616,5096 13616,5088 13624,5088 13624,5063 13616,5063 13616,5037 13607,5037 13607,4969 13599,4969 13599,4961 13590,4961 13590,4902 13582,4902 13582,4885 13573,4885 13573,4859 13565,4859 13565,4834 13556,4834 13556,4800 13548,4800 13548,4775 13540,4775 13540,4732 13531,4732 13531,4707 13523,4707 13523,4631 13506,4631 13506,4622 13514,4622 13514,4597 13506,4597 13506,4538 13497,4538 13497,4504 13489,4504 13489,4495 13480,4495 13480,4487 13489,4487 13489,4444 13480,4444 13480,4428 13489,4428 13489,4411 13480,4411 13480,4351 13472,4351 13472,4343 13480,4343 13480,4284 13489,4284 13489,4275 13480,4275 13480,4267 13472,4267 13472,4258 13463,4258 13463,4250 13472,4250 13472,4216 13480,4216 13480,4199 13472,4199 13472,4157 13463,4157 13463,4097 13455,4097 13455,4013 13438,4013 13438,3962 13429,3962 13429,3920 13421,3920 13421,3894 13413,3894 13413,3843 13404,3843 13404,3784 13396,3784 13396,3776 13387,3776 13387,3750 13404,3750 13404,3742 13396,3742 13396,3725 13387,3725 13387,3716 13379,3716 13379,3708 13370,3708 13370,3623 13362,3623 13362,3564 13353,3564 13353,3539 13345,3539 13345,3488 13336,3488 13336,3454 13328,3454 13328,3428 13319,3428 13319,3352 13311,3352 13311,3242 13319,3242 13319,3174 13328,3174 13328,3132 13336,3132 13336,3098 13345,3098 13345,3090 13336,3090 13336,3081 13328,3081 13328,3056 13336,3056 13336,3031 13328,3031 13328,3014 13319,3014 13319,3005 13311,3005 13311,2997 13302,2997 13302,2988 13294,2988 13294,2980 13277,2980 13277,2971 13269,2971 13269,2963 13252,2963 13252,2954 13235,2954 13235,2946 13218,2946 13218,2937 13201,2937 13201,2929 13184,2929 13184,2920 13167,2920 13167,2912 13142,2912 13142,2904 13125,2904 13125,2895 13091,2895 13091,2887 13057,2887 13057,2878 12913,2878 12913,2887 12854,2887 12854,2878 12794,2878 12794,2870 12642,2870 12642,2861 12608,2861 12608,2853 12583,2853 12583,2861 12557,2861 12557,2853 12549,2853 12549,2844 12540,2844 12540,2853 12498,2853 12498,2844 12473,2844 12473,2836 12464,2836 12464,2844 12447,2844 12447,2853 12430,2853 12430,2844 12388,2844 12388,2836 12337,2836 12337,2844 12312,2844 12312,2836 12278,2836 12278,2827 12244,2827 12244,2836 12193,2836 12193,2827 12041,2827 12041,2819 12016,2819 12016,2827 11990,2827 11990,2819 11973,2819 11973,2827 11956,2827 11956,2836 11939,2836 11939,2827 11855,2827 11855,2836 11812,2836 11812,2844 11787,2844 11787,2836 11745,2836 11745,2844 11702,2844 11702,2853 11668,2853 11668,2844 11643,2844 11643,2861 11626,2861 11626,2853 11609,2853 11609,2861 11533,2861 11533,2870 11499,2870 11499,2878 11465,2878 11465,2870 11431,2870 11431,2878 11372,2878 11372,2887 11347,2887 11347,2878 11330,2878 11330,2887 11254,2887 11254,2895 11228,2895 11228,2904 11203,2904 11203,2912 11194,2912 11194,2904 11135,2904 11135,2912 11093,2912 11093,2920 11025,2920 11025,2929 11016,2929 11016,2937 10940,2937 10940,2929 10915,2929 10915,2937 10898,2937 10898,2946 10847,2946 10847,2954 10746,2954 10746,2963 10720,2963 10720,2971 10703,2971 10703,2963 10669,2963 10669,2971 10602,2971 10602,2980 10585,2980 10585,2988 10576,2988 10576,2980 10551,2980 10551,2988 10449,2988 10449,2997 10398,2997 10398,3005 10280,3005 10280,3014 10221,3014 10221,3022 10127,3022 10127,3031 9984,3031 9984,3039 9975,3039 9975,3031 9950,3031 9950,3039 9916,3039 9916,3031 9899,3031 9899,3039 9882,3039 9882,3047 9755,3047 9755,3056 9730,3056 9730,3064 9679,3064 9679,3073 9662,3073 9662,3081 9645,3081 9645,3090 9636,3090 9636,3098 9628,3098 9628,3107 9611,3107 9611,3115 9509,3115 9509,3107 9492,3107 9492,3098 9484,3098 9484,3090 9467,3090 9467,3081 9374,3081 9374,3090 9357,3090 9357,3098 9332,3098 9332,3107 9272,3107 9272,3115 9230,3115 9230,3124 9205,3124 9205,3132 9188,3132 9188,3141 9137,3141 9137,3149 9128,3149 9128,3158 9095,3158 9095,3166 9086,3166 9086,3174 9069,3174 9069,3183 9061,3183 9061,3174 9044,3174 9044,3183 8984,3183 8984,3174 8942,3174 8942,3183 8934,3183 8934,3191 8857,3191 8857,3200 8824,3200 8824,3208 8807,3208 8807,3217 8764,3217 8764,3225 8756,3225 8756,3242 8747,3242 8747,3234 8739,3234 8739,3242 8730,3242 8730,3251 8714,3251 8714,3242 8705,3242 8705,3251 8697,3251 8697,3259 8680,3259 8680,3268 8663,3268 8663,3276 8629,3276 8629,3285 8612,3285 8612,3293 8587,3293 8587,3301 8553,3301 8553,3310 8527,3310 8527,3318 8510,3318 8510,3327 8493,3327 8493,3335 8485,3335 8485,3344 8443,3344 8443,3352 8434,3352 8434,3361 8426,3361 8426,3378 8400,3378 8400,3386 8392,3386 8392,3395 8375,3395 8375,3403 8358,3403 8358,3412 8341,3412 8341,3420 8333,3420 8333,3428 8316,3428 8316,3437 8307,3437 8307,3445 8299,3445 8299,3454 8282,3454 8282,3462 8265,3462 8265,3471 8248,3471 8248,3479 8231,3479 8231,3488 8214,3488 8214,3496 8206,3496 8206,3505 8172,3505 8172,3522 8163,3522 8163,3530 8138,3530 8138,3539 8129,3539 8129,3547 8112,3547 8112,3555 8095,3555 8095,3564 8070,3564 8070,3572 8062,3572 8062,3581 8053,3581 8053,3589 8028,3589 8028,3598 8011,3598 8011,3606 7994,3606 7994,3615 7960,3615 7960,3623 7943,3623 7943,3632 7935,3632 7935,3640 7926,3640 7926,3632 7901,3632 7901,3649 7875,3649 7875,3657 7858,3657 7858,3666 7850,3666 7850,3674 7833,3674 7833,3682 7816,3682 7816,3691 7782,3691 7782,3699 7774,3699 7774,3708 7765,3708 7765,3699 7748,3699 7748,3708 7740,3708 7740,3716 7723,3716 7723,3708 7714,3708 7714,3716 7706,3716 7706,3725 7681,3725 7681,3733 7672,3733 7672,3742 7655,3742 7655,3750 7596,3750 7596,3759 7587,3759 7587,3767 7545,3767 7545,3776 7528,3776 7528,3784 7503,3784 7503,3793 7477,3793 7477,3801 7469,3801 7469,3809 7460,3809 7460,3818 7435,3818 7435,3826 7427,3826 7427,3835 7393,3835 7393,3843 7376,3843 7376,3852 7367,3852 7367,3860 7333,3860 7333,3877 7325,3877 7325,3886 7317,3886 7317,3894 7308,3894 7308,3903 7291,3903 7291,3911 7283,3911 7283,3920 7274,3920 7274,3928 7266,3928 7266,3936 7257,3936 7257,3945 7240,3945 7240,3953 7232,3953 7232,3962 7223,3962 7223,3979 7215,3979 7215,3987 7198,3987 7198,3996 7190,3996 7190,4004 7181,4004 7181,4021 7173,4021 7173,4030 7164,4030 7164,4038 7156,4038 7156,4047 7139,4047 7139,4063 7130,4063 7130,4072 7122,4072 7122,4080 7113,4080 7113,4114 7096,4114 7096,4123 7088,4123 7088,4131 7079,4131 7079,4140 7071,4140 7071,4148 7063,4148 7063,4165 7054,4165 7054,4190 7046,4190 "
   id="polygon287"
   style="fill:#fefefe" />
   <polygon
   class="fil1"
   points="13887,6756 13895,6756 13895,6815 13904,6815 13904,6857 13912,6857 13912,6925 13921,6925 13921,6951 13929,6951 13929,6968 13921,6968 13921,6984 13929,6984 13929,7001 13937,7001 13937,7027 13929,7027 13929,7035 13937,7035 13937,7044 13946,7044 13946,7120 13954,7120 13954,7205 13963,7205 13963,7272 13971,7272 13971,7332 13980,7332 13980,7365 13988,7365 13988,7425 13997,7425 13997,7433 14005,7433 14005,7450 13997,7450 13997,7492 14005,7492 14005,7611 14014,7611 14014,7679 14022,7679 14022,7814 14039,7814 14039,7873 14048,7873 14048,7890 14039,7890 14039,8000 14031,8000 14031,8034 14022,8034 14022,8068 14014,8068 14014,8085 13997,8085 13997,8094 13988,8094 13988,8102 13980,8102 13980,8111 13971,8111 13971,8119 13963,8119 13963,8127 13954,8127 13954,8136 13946,8136 13946,8144 13937,8144 13937,8153 13929,8153 13929,8161 13921,8161 13921,8170 13912,8170 13912,8178 13887,8178 13887,8187 13870,8187 13870,8195 13861,8195 13861,8204 13844,8204 13844,8212 13827,8212 13827,8221 13810,8221 13810,8229 13794,8229 13794,8238 13768,8238 13768,8254 13726,8254 13726,8263 13675,8263 13675,8271 13667,8271 13667,8280 13641,8280 13641,8288 13616,8288 13616,8297 13556,8297 13556,8305 13548,8305 13548,8314 13506,8314 13506,8322 13463,8322 13463,8331 13429,8331 13429,8339 13421,8339 13421,8348 13413,8348 13413,8356 13370,8356 13370,8365 13336,8365 13336,8373 13328,8373 13328,8381 13286,8381 13286,8390 13252,8390 13252,8398 13209,8398 13209,8407 13175,8407 13175,8415 13142,8415 13142,8424 13082,8424 13082,8432 13074,8432 13074,8441 13032,8441 13032,8449 13006,8449 13006,8458 12964,8458 12964,8466 12938,8466 12938,8475 12913,8475 12913,8483 12905,8483 12905,8492 12913,8492 12913,8508 12921,8508 12921,8525 12947,8525 12947,8517 12989,8517 12989,8525 13006,8525 13006,8517 13032,8517 13032,8500 13040,8500 13040,8492 13099,8492 13099,8483 13108,8483 13108,8475 13159,8475 13159,8466 13192,8466 13192,8458 13226,8458 13226,8466 13235,8466 13235,8458 13243,8458 13243,8449 13269,8449 13269,8441 13311,8441 13311,8432 13353,8432 13353,8424 13370,8424 13370,8415 13396,8415 13396,8407 13413,8407 13413,8398 13446,8398 13446,8390 13455,8390 13455,8381 13480,8381 13480,8390 13489,8390 13489,8373 13540,8373 13540,8365 13556,8365 13556,8373 13573,8373 13573,8356 13599,8356 13599,8348 13633,8348 13633,8339 13650,8339 13650,8331 13683,8331 13683,8322 13726,8322 13726,8314 13743,8314 13743,8305 13768,8305 13768,8297 13802,8297 13802,8288 13836,8288 13836,8280 13844,8280 13844,8271 13861,8271 13861,8263 13887,8263 13887,8254 13904,8254 13904,8246 13921,8246 13921,8238 13937,8238 13937,8229 13946,8229 13946,8221 13954,8221 13954,8204 13971,8204 13971,8195 13988,8195 13988,8187 13997,8187 13997,8178 14014,8178 14014,8170 14022,8170 14022,8153 14031,8153 14031,8144 14039,8144 14039,8136 14048,8136 14048,8127 14064,8127 14064,8119 14073,8119 14073,8102 14081,8102 14081,8085 14090,8085 14090,8060 14098,8060 14098,7840 14090,7840 14090,7831 14081,7831 14081,7814 14090,7814 14090,7772 14081,7772 14081,7713 14073,7713 14073,7696 14081,7696 14081,7679 14073,7679 14073,7619 14064,7619 14064,7603 14073,7603 14073,7560 14064,7560 14064,7509 14056,7509 14056,7492 14064,7492 14064,7467 14056,7467 14056,7399 14048,7399 14048,7357 14039,7357 14039,7349 14031,7349 14031,7306 14039,7306 14039,7298 14031,7298 14031,7238 14022,7238 14022,7196 14014,7196 14014,7145 14005,7145 14005,7128 14014,7128 14014,7120 14005,7120 14005,7103 13997,7103 13997,7027 13988,7027 13988,6993 13980,6993 13980,6925 13971,6925 13971,6908 13963,6908 13963,6857 13954,6857 13954,6764 13946,6764 13946,6680 13937,6680 13937,6587 13929,6587 13929,6502 13921,6502 13921,6443 13912,6443 13912,6392 13904,6392 13904,6358 13895,6358 13895,6248 13887,6248 13887,6206 13878,6206 13878,6155 13870,6155 13870,6079 13861,6079 13861,6053 13853,6053 13853,6019 13844,6019 13844,5994 13836,5994 13836,5952 13827,5952 13827,5935 13819,5935 13819,5875 13810,5875 13810,5850 13802,5850 13802,5825 13794,5825 13794,5774 13785,5774 13785,5765 13777,5765 13777,5706 13768,5706 13768,5681 13760,5681 13760,5664 13751,5664 13751,5621 13743,5621 13743,5604 13734,5604 13734,5537 13726,5537 13726,5393 13717,5393 13717,5384 13709,5384 13709,5367 13692,5367 13692,5376 13683,5376 13683,5384 13692,5384 13692,5410 13675,5410 13675,5401 13658,5401 13658,5444 13667,5444 13667,5460 13675,5460 13675,5477 13667,5477 13667,5503 13675,5503 13675,5554 13683,5554 13683,5562 13692,5562 13692,5579 13683,5579 13683,5630 13700,5630 13700,5698 13709,5698 13709,5714 13717,5714 13717,5740 13726,5740 13726,5782 13734,5782 13734,5808 13743,5808 13743,5850 13751,5850 13751,5884 13760,5884 13760,5901 13768,5901 13768,5943 13777,5943 13777,5977 13785,5977 13785,6002 13794,6002 13794,6045 13802,6045 13802,6079 13810,6079 13810,6112 13819,6112 13819,6155 13827,6155 13827,6197 13836,6197 13836,6282 13844,6282 13844,6299 13853,6299 13853,6375 13861,6375 13861,6409 13853,6409 13853,6417 13861,6417 13861,6468 13870,6468 13870,6485 13878,6485 13878,6578 13887,6578 "
   id="polygon289"
   style="fill:#453545" />
   <polygon
   class="fil1"
   points="10847,2946 10898,2946 10898,2937 10915,2937 10915,2929 10940,2929 10940,2937 11016,2937 11016,2929 11025,2929 11025,2920 11093,2920 11093,2912 11135,2912 11135,2904 11194,2904 11194,2912 11203,2912 11203,2904 11228,2904 11228,2895 11254,2895 11254,2887 11330,2887 11330,2878 11347,2878 11347,2887 11372,2887 11372,2878 11431,2878 11431,2870 11465,2870 11465,2878 11499,2878 11499,2870 11533,2870 11533,2861 11609,2861 11609,2853 11626,2853 11626,2861 11643,2861 11643,2844 11668,2844 11668,2853 11702,2853 11702,2844 11745,2844 11745,2836 11787,2836 11787,2844 11812,2844 11812,2836 11855,2836 11855,2827 11939,2827 11939,2836 11956,2836 11956,2827 11973,2827 11973,2819 11990,2819 11990,2827 12016,2827 12016,2819 12041,2819 12041,2827 12193,2827 12193,2836 12244,2836 12244,2827 12278,2827 12278,2836 12312,2836 12312,2844 12337,2844 12337,2836 12388,2836 12388,2844 12430,2844 12430,2853 12447,2853 12447,2844 12464,2844 12464,2836 12473,2836 12473,2844 12498,2844 12498,2853 12540,2853 12540,2844 12549,2844 12549,2853 12557,2853 12557,2861 12583,2861 12583,2853 12608,2853 12608,2861 12642,2861 12642,2870 12794,2870 12794,2878 12854,2878 12854,2887 12913,2887 12913,2878 12871,2878 12871,2861 12879,2861 12879,2853 12888,2853 12888,2844 12879,2844 12879,2836 12761,2836 12761,2827 12710,2827 12710,2819 12684,2819 12684,2810 12617,2810 12617,2802 12600,2802 12600,2793 12557,2793 12557,2802 12549,2802 12549,2793 12524,2793 12524,2785 12388,2785 12388,2777 12346,2777 12346,2785 12320,2785 12320,2777 12303,2777 12303,2785 12286,2785 12286,2777 12143,2777 12143,2768 12066,2768 12066,2777 12032,2777 12032,2768 11982,2768 11982,2777 11804,2777 11804,2768 11787,2768 11787,2777 11770,2777 11770,2785 11660,2785 11660,2793 11643,2793 11643,2802 11635,2802 11635,2793 11609,2793 11609,2802 11567,2802 11567,2810 11474,2810 11474,2819 11448,2819 11448,2810 11431,2810 11431,2819 11364,2819 11364,2827 11347,2827 11347,2819 11330,2819 11330,2827 11262,2827 11262,2836 11203,2836 11203,2844 11160,2844 11160,2853 11135,2853 11135,2844 11101,2844 11101,2853 11093,2853 11093,2861 11067,2861 11067,2853 11050,2853 11050,2861 11033,2861 11033,2870 11025,2870 11025,2861 10983,2861 10983,2870 10957,2870 10957,2878 10881,2878 10881,2887 10805,2887 10805,2895 10762,2895 10762,2904 10669,2904 10669,2912 10576,2912 10576,2920 10517,2920 10517,2929 10466,2929 10466,2937 10424,2937 10424,2929 10390,2929 10390,2937 10365,2937 10365,2946 10348,2946 10348,2937 10322,2937 10322,2946 10238,2946 10238,2954 10144,2954 10144,2963 10127,2963 10127,2954 10102,2954 10102,2963 10068,2963 10068,2954 10060,2954 10060,2963 10009,2963 10009,2971 9975,2971 9975,2963 9958,2963 9958,2971 9907,2971 9907,2980 9890,2980 9890,2971 9840,2971 9840,2963 9831,2963 9831,2971 9823,2971 9823,2980 9772,2980 9772,2988 9738,2988 9738,2997 9704,2997 9704,3005 9670,3005 9670,3014 9636,3014 9636,3022 9603,3022 9603,3031 9577,3031 9577,3039 9560,3039 9560,3047 9552,3047 9552,3056 9518,3056 9518,3047 9509,3047 9509,3064 9518,3064 9518,3073 9526,3073 9526,3081 9535,3081 9535,3107 9543,3107 9543,3115 9611,3115 9611,3107 9628,3107 9628,3098 9636,3098 9636,3090 9645,3090 9645,3081 9662,3081 9662,3073 9679,3073 9679,3064 9730,3064 9730,3056 9755,3056 9755,3047 9882,3047 9882,3039 9899,3039 9899,3031 9916,3031 9916,3039 9950,3039 9950,3031 9975,3031 9975,3039 9984,3039 9984,3031 10127,3031 10127,3022 10221,3022 10221,3014 10280,3014 10280,3005 10398,3005 10398,2997 10449,2997 10449,2988 10551,2988 10551,2980 10576,2980 10576,2988 10585,2988 10585,2980 10602,2980 10602,2971 10669,2971 10669,2963 10703,2963 10703,2971 10720,2971 10720,2963 10746,2963 10746,2954 10847,2954 "
   id="polygon291"
   style="fill:#453545" />
   <polygon
   class="fil2"
   points="8019,4639 8028,4639 8028,4656 8045,4656 8045,4665 8053,4665 8053,4682 8062,4682 8062,4690 8079,4690 8079,4698 8087,4698 8087,4715 8095,4715 8095,4724 8104,4724 8104,4732 8121,4732 8121,4758 8146,4758 8146,4766 8163,4766 8163,4775 8180,4775 8180,4783 8206,4783 8206,4792 8231,4792 8231,4775 8265,4775 8265,4783 8273,4783 8273,4758 8282,4758 8282,4741 8290,4741 8290,4732 8299,4732 8299,4690 8307,4690 8307,4673 8316,4673 8316,4656 8324,4656 8324,4639 8333,4639 8333,4631 8341,4631 8341,4614 8349,4614 8349,4588 8358,4588 8358,4580 8366,4580 8366,4563 8375,4563 8375,4555 8383,4555 8383,4538 8392,4538 8392,4521 8400,4521 8400,4512 8409,4512 8409,4495 8417,4495 8417,4487 8426,4487 8426,4470 8434,4470 8434,4461 8443,4461 8443,4453 8451,4453 8451,4444 8460,4444 8460,4428 8468,4428 8468,4419 8476,4419 8476,4411 8485,4411 8485,4402 8493,4402 8493,4394 8502,4394 8502,4377 8510,4377 8510,4368 8519,4368 8519,4360 8527,4360 8527,4351 8536,4351 8536,4343 8544,4343 8544,4326 8553,4326 8553,4317 8561,4317 8561,4309 8570,4309 8570,4292 8578,4292 8578,4275 8561,4275 8561,4267 8553,4267 8553,4258 8544,4258 8544,4250 8502,4250 8502,4241 8476,4241 8476,4233 8460,4233 8460,4224 8451,4224 8451,4216 8443,4216 8443,4207 8417,4207 8417,4190 8392,4190 8392,4182 8375,4182 8375,4148 8324,4148 8324,4157 8316,4157 8316,4182 8324,4182 8324,4190 8316,4190 8316,4199 8307,4199 8307,4207 8299,4207 8299,4224 8307,4224 8307,4233 8299,4233 8299,4241 8290,4241 8290,4250 8282,4250 8282,4258 8273,4258 8273,4267 8265,4267 8265,4292 8248,4292 8248,4309 8239,4309 8239,4326 8231,4326 8231,4334 8214,4334 8214,4360 8197,4360 8197,4368 8189,4368 8189,4377 8180,4377 8180,4385 8172,4385 8172,4394 8163,4394 8163,4402 8155,4402 8155,4411 8146,4411 8146,4419 8129,4419 8129,4428 8121,4428 8121,4444 8112,4444 8112,4453 8104,4453 8104,4470 8087,4470 8087,4487 8079,4487 8079,4495 8070,4495 8070,4504 8062,4504 8062,4529 8053,4529 8053,4555 8036,4555 8036,4563 8019,4563 "
   id="polygon293"
   style="fill:#fafbfd" />
   <polygon
   class="fil3"
   points="10585,9067 10585,9059 10644,9059 10644,9050 10678,9050 10678,9042 10746,9042 10746,9033 10754,9033 10754,9025 10796,9025 10796,9016 10847,9016 10847,9008 10906,9008 10906,9000 10940,9000 10940,8991 11000,8991 11000,8983 11084,8983 11084,8974 11152,8974 11152,8966 11220,8966 11220,8957 11245,8957 11245,8949 11279,8949 11279,8940 11313,8940 11313,8932 11364,8932 11364,8923 11406,8923 11406,8915 11431,8915 11431,8906 11491,8906 11491,8898 11524,8898 11524,8889 11533,8889 11533,8856 11550,8856 11550,8847 11575,8847 11575,8856 11584,8856 11584,8864 11592,8864 11592,8856 11601,8856 11601,8847 11618,8847 11618,8856 11643,8856 11643,8847 11651,8847 11651,8839 11660,8839 11660,8847 11668,8847 11668,8839 11677,8839 11677,8830 11762,8830 11762,8847 11770,8847 11770,8839 11787,8839 11787,8813 11804,8813 11804,8805 11838,8805 11838,8796 11914,8796 11914,8788 11965,8788 11965,8796 11982,8796 11982,8788 12007,8788 12007,8805 12024,8805 12024,8796 12032,8796 12032,8788 12024,8788 12024,8779 12058,8779 12058,8771 12109,8771 12109,8762 12126,8762 12126,8754 12168,8754 12168,8746 12193,8746 12193,8754 12210,8754 12210,8762 12219,8762 12219,8754 12227,8754 12227,8746 12236,8746 12236,8737 12244,8737 12244,8729 12261,8729 12261,8720 12286,8720 12286,8729 12303,8729 12303,8720 12312,8720 12312,8703 12337,8703 12337,8695 12354,8695 12354,8703 12363,8703 12363,8695 12371,8695 12371,8686 12380,8686 12380,8678 12397,8678 12397,8661 12405,8661 12405,8669 12413,8669 12413,8661 12422,8661 12422,8652 12405,8652 12405,8644 12413,8644 12413,8627 12380,8627 12380,8619 12371,8619 12371,8627 12337,8627 12337,8635 12329,8635 12329,8644 12286,8644 12286,8652 12270,8652 12270,8661 12253,8661 12253,8669 12219,8669 12219,8678 12202,8678 12202,8695 12168,8695 12168,8703 12143,8703 12143,8695 12117,8695 12117,8712 12049,8712 12049,8720 12041,8720 12041,8729 11948,8729 11948,8737 11905,8737 11905,8746 11855,8746 11855,8754 11795,8754 11795,8762 11770,8762 11770,8771 11736,8771 11736,8762 11719,8762 11719,8771 11702,8771 11702,8779 11685,8779 11685,8788 11635,8788 11635,8796 11592,8796 11592,8805 11575,8805 11575,8813 11567,8813 11567,8822 11499,8822 11499,8830 11491,8830 11491,8839 11465,8839 11465,8847 11431,8847 11431,8856 11406,8856 11406,8864 11364,8864 11364,8873 11355,8873 11355,8881 11330,8881 11330,8889 11321,8889 11321,8898 11313,8898 11313,8889 11279,8889 11279,8898 11262,8898 11262,8906 11194,8906 11194,8915 11143,8915 11143,8923 11135,8923 11135,8932 11025,8932 11025,8940 10940,8940 10940,8949 10923,8949 10923,8957 10779,8957 10779,8966 10762,8966 10762,8974 10720,8974 10720,8966 10695,8966 10695,8974 10652,8974 10652,8983 10644,8983 10644,8991 10635,8991 10635,9000 10627,9000 10627,9008 10483,9008 10483,9016 10458,9016 10458,9008 10424,9008 10424,9016 10415,9016 10415,9025 10390,9025 10390,9033 10365,9033 10365,9042 10314,9042 10314,9050 10305,9050 10305,9059 10263,9059 10263,9067 10246,9067 10246,9076 10204,9076 10204,9084 10178,9084 10178,9093 10161,9093 10161,9101 10119,9101 10119,9110 10094,9110 10094,9118 10026,9118 10026,9127 9992,9127 9992,9135 9967,9135 9967,9143 9958,9143 9958,9152 9950,9152 9950,9143 9924,9143 9924,9152 9907,9152 9907,9160 9865,9160 9865,9169 9848,9169 9848,9177 9840,9177 9840,9186 9814,9186 9814,9194 9789,9194 9789,9203 9797,9203 9797,9211 9780,9211 9780,9228 9814,9228 9814,9237 9840,9237 9840,9228 9848,9228 9848,9245 9865,9245 9865,9237 9882,9237 9882,9228 9907,9228 9907,9220 9941,9220 9941,9211 9958,9211 9958,9203 9975,9203 9975,9194 10009,9194 10009,9203 10026,9203 10026,9194 10034,9194 10034,9186 10085,9186 10085,9177 10102,9177 10102,9169 10136,9169 10136,9160 10187,9160 10187,9152 10238,9152 10238,9143 10263,9143 10263,9135 10271,9135 10271,9110 10305,9110 10305,9101 10331,9101 10331,9093 10339,9093 10339,9084 10424,9084 10424,9076 10441,9076 10441,9084 10466,9084 10466,9093 10492,9093 10492,9084 10500,9084 10500,9076 10508,9076 10508,9067 10534,9067 10534,9076 10559,9076 10559,9067 "
   id="polygon295"
   style="fill:#6c5c6b" />
   <polygon
   class="fil4"
   points="8045,9668 8070,9668 8070,9677 8112,9677 8112,9685 8121,9685 8121,9677 8155,9677 8155,9685 8197,9685 8197,9677 8214,9677 8214,9685 8248,9685 8248,9677 8282,9677 8282,9668 8383,9668 8383,9660 8409,9660 8409,9651 8434,9651 8434,9643 8510,9643 8510,9635 8519,9635 8519,9626 8536,9626 8536,9618 8587,9618 8587,9609 8603,9609 8603,9601 8629,9601 8629,9592 8671,9592 8671,9584 8697,9584 8697,9575 8722,9575 8722,9567 8739,9567 8739,9558 8756,9558 8756,9550 8773,9550 8773,9541 8815,9541 8815,9533 8849,9533 8849,9524 8866,9524 8866,9516 8874,9516 8874,9508 8900,9508 8900,9499 8917,9499 8917,9491 8976,9491 8976,9482 9010,9482 9010,9465 9052,9465 9052,9457 9078,9457 9078,9465 9086,9465 9086,9457 9095,9457 9095,9448 9103,9448 9103,9457 9111,9457 9111,9448 9145,9448 9145,9440 9196,9440 9196,9431 9222,9431 9222,9423 9264,9423 9264,9414 9289,9414 9289,9406 9340,9406 9340,9397 9365,9397 9365,9389 9374,9389 9374,9397 9391,9397 9391,9389 9425,9389 9425,9381 9467,9381 9467,9372 9492,9372 9492,9364 9501,9364 9501,9355 9552,9355 9552,9347 9569,9347 9569,9338 9586,9338 9586,9330 9611,9330 9611,9321 9628,9321 9628,9313 9653,9313 9653,9304 9670,9304 9670,9296 9696,9296 9696,9287 9713,9287 9713,9279 9746,9279 9746,9270 9755,9270 9755,9262 9763,9262 9763,9254 9806,9254 9806,9245 9823,9245 9823,9237 9814,9237 9814,9228 9780,9228 9780,9211 9797,9211 9797,9203 9755,9203 9755,9211 9738,9211 9738,9220 9713,9220 9713,9228 9696,9228 9696,9237 9687,9237 9687,9245 9679,9245 9679,9254 9636,9254 9636,9262 9619,9262 9619,9270 9611,9270 9611,9279 9603,9279 9603,9287 9560,9287 9560,9296 9526,9296 9526,9304 9492,9304 9492,9321 9476,9321 9476,9330 9442,9330 9442,9338 9416,9338 9416,9347 9349,9347 9349,9355 9332,9355 9332,9364 9289,9364 9289,9372 9247,9372 9247,9381 9188,9381 9188,9389 9145,9389 9145,9397 9128,9397 9128,9406 9086,9406 9086,9414 9069,9414 9069,9423 9052,9423 9052,9414 9027,9414 9027,9423 9018,9423 9018,9431 8976,9431 8976,9440 8942,9440 8942,9448 8934,9448 8934,9457 8925,9457 8925,9448 8908,9448 8908,9457 8891,9457 8891,9465 8883,9465 8883,9474 8849,9474 8849,9482 8832,9482 8832,9491 8807,9491 8807,9499 8798,9499 8798,9508 8790,9508 8790,9499 8773,9499 8773,9508 8739,9508 8739,9516 8730,9516 8730,9524 8688,9524 8688,9533 8671,9533 8671,9541 8637,9541 8637,9550 8612,9550 8612,9558 8570,9558 8570,9567 8553,9567 8553,9575 8519,9575 8519,9584 8493,9584 8493,9592 8443,9592 8443,9601 8383,9601 8383,9609 8375,9609 8375,9618 8366,9618 8366,9626 8349,9626 8349,9618 8307,9618 8307,9626 8299,9626 8299,9635 8256,9635 8256,9626 8239,9626 8239,9635 8231,9635 8231,9643 8180,9643 8180,9635 8121,9635 8121,9626 8070,9626 8070,9618 8028,9618 8028,9609 8019,9609 8019,9601 8011,9601 8011,9592 7994,9592 7994,9584 7985,9584 7985,9575 7977,9575 7977,9558 7968,9558 7968,9550 7960,9550 7960,9541 7935,9541 7935,9533 7943,9533 7943,9508 7935,9508 7935,9499 7926,9499 7926,9474 7918,9474 7918,9457 7909,9457 7909,9397 7901,9397 7901,9381 7892,9381 7892,9372 7884,9372 7884,9304 7875,9304 7875,9287 7867,9287 7867,9194 7858,9194 7858,9160 7850,9160 7850,9093 7841,9093 7841,9059 7833,9059 7833,9033 7825,9033 7825,8966 7816,8966 7816,8898 7808,8898 7808,8889 7799,8889 7799,8856 7808,8856 7808,8830 7799,8830 7799,8822 7791,8822 7791,8796 7799,8796 7799,8788 7791,8788 7791,8737 7782,8737 7782,8729 7774,8729 7774,8661 7782,8661 7782,8652 7774,8652 7774,8644 7765,8644 7765,8610 7757,8610 7757,8585 7748,8585 7748,8559 7740,8559 7740,8517 7723,8517 7723,8525 7714,8525 7714,8576 7740,8576 7740,8593 7731,8593 7731,8602 7723,8602 7723,8610 7748,8610 7748,8635 7757,8635 7757,8669 7765,8669 7765,8686 7757,8686 7757,8746 7765,8746 7765,8754 7757,8754 7757,8805 7740,8805 7740,8813 7748,8813 7748,8839 7757,8839 7757,8889 7765,8889 7765,8906 7757,8906 7757,8923 7765,8923 7765,8983 7774,8983 7774,9042 7782,9042 7782,9076 7791,9076 7791,9110 7799,9110 7799,9152 7808,9152 7808,9203 7816,9203 7816,9262 7825,9262 7825,9321 7833,9321 7833,9355 7841,9355 7841,9389 7850,9389 7850,9431 7858,9431 7858,9457 7867,9457 7867,9499 7875,9499 7875,9524 7884,9524 7884,9533 7892,9533 7892,9541 7901,9541 7901,9567 7909,9567 7909,9575 7918,9575 7918,9592 7935,9592 7935,9601 7943,9601 7943,9609 7952,9609 7952,9618 7960,9618 7960,9626 7968,9626 7968,9635 7985,9635 7985,9643 8002,9643 8002,9651 8019,9651 8019,9660 8045,9660 "
   id="polygon297"
   style="fill:#534353" />
   <polygon
   class="fil1"
   points="8358,3403 8375,3403 8375,3395 8392,3395 8392,3386 8400,3386 8400,3378 8426,3378 8426,3361 8434,3361 8434,3352 8443,3352 8443,3344 8485,3344 8485,3335 8493,3335 8493,3327 8510,3327 8510,3318 8527,3318 8527,3310 8553,3310 8553,3301 8587,3301 8587,3293 8612,3293 8612,3285 8629,3285 8629,3276 8663,3276 8663,3268 8680,3268 8680,3259 8697,3259 8697,3251 8705,3251 8705,3242 8714,3242 8714,3251 8730,3251 8730,3242 8739,3242 8739,3234 8747,3234 8747,3242 8756,3242 8756,3225 8764,3225 8764,3217 8807,3217 8807,3208 8824,3208 8824,3200 8857,3200 8857,3191 8934,3191 8934,3183 8942,3183 8942,3174 8984,3174 8984,3183 9044,3183 9044,3174 9061,3174 9061,3183 9069,3183 9069,3174 9086,3174 9086,3166 9095,3166 9095,3158 9128,3158 9128,3149 9137,3149 9137,3141 9188,3141 9188,3132 9205,3132 9205,3124 9230,3124 9230,3115 9272,3115 9272,3107 9332,3107 9332,3098 9357,3098 9357,3090 9374,3090 9374,3081 9450,3081 9450,3073 9433,3073 9433,3056 9442,3056 9442,3047 9459,3047 9459,3031 9476,3031 9476,3022 9467,3022 9467,3014 9450,3014 9450,3005 9408,3005 9408,2997 9391,2997 9391,3005 9357,3005 9357,3014 9323,3014 9323,3022 9289,3022 9289,3031 9272,3031 9272,3039 9238,3039 9238,3047 9222,3047 9222,3056 9196,3056 9196,3064 9179,3064 9179,3073 9171,3073 9171,3064 9137,3064 9137,3073 9120,3073 9120,3081 9103,3081 9103,3090 9086,3090 9086,3098 9061,3098 9061,3107 8959,3107 8959,3115 8934,3115 8934,3124 8925,3124 8925,3115 8874,3115 8874,3124 8841,3124 8841,3132 8807,3132 8807,3141 8781,3141 8781,3149 8764,3149 8764,3158 8756,3158 8756,3166 8714,3166 8714,3174 8697,3174 8697,3183 8680,3183 8680,3191 8654,3191 8654,3200 8629,3200 8629,3208 8612,3208 8612,3217 8603,3217 8603,3225 8587,3225 8587,3217 8570,3217 8570,3225 8561,3225 8561,3234 8536,3234 8536,3242 8519,3242 8519,3251 8510,3251 8510,3259 8493,3259 8493,3268 8443,3268 8443,3285 8426,3285 8426,3293 8417,3293 8417,3301 8400,3301 8400,3310 8383,3310 8383,3318 8366,3318 8366,3327 8358,3327 8358,3335 8341,3335 8341,3344 8324,3344 8324,3352 8307,3352 8307,3361 8299,3361 8299,3369 8273,3369 8273,3378 8265,3378 8265,3395 8231,3395 8231,3403 8222,3403 8222,3412 8206,3412 8206,3420 8197,3420 8197,3428 8189,3428 8189,3437 8163,3437 8163,3445 8138,3445 8138,3454 8121,3454 8121,3471 8095,3471 8095,3479 8087,3479 8087,3496 8070,3496 8070,3505 8053,3505 8053,3513 8036,3513 8036,3522 8011,3522 8011,3530 7994,3530 7994,3539 7968,3539 7968,3547 7952,3547 7952,3555 7943,3555 7943,3564 7909,3564 7909,3572 7892,3572 7892,3581 7884,3581 7884,3598 7901,3598 7901,3606 7909,3606 7909,3615 7918,3615 7918,3632 7926,3632 7926,3640 7935,3640 7935,3632 7943,3632 7943,3623 7960,3623 7960,3615 7994,3615 7994,3606 8011,3606 8011,3598 8028,3598 8028,3589 8053,3589 8053,3581 8062,3581 8062,3572 8070,3572 8070,3564 8095,3564 8095,3555 8112,3555 8112,3547 8129,3547 8129,3539 8138,3539 8138,3530 8163,3530 8163,3522 8172,3522 8172,3505 8206,3505 8206,3496 8214,3496 8214,3488 8231,3488 8231,3479 8248,3479 8248,3471 8265,3471 8265,3462 8282,3462 8282,3454 8299,3454 8299,3445 8307,3445 8307,3437 8316,3437 8316,3428 8333,3428 8333,3420 8341,3420 8341,3412 8358,3412 "
   id="polygon299"
   style="fill:#453545" />
   <polygon
   class="fil5"
   points="6902,4741 6893,4741 6893,4682 6885,4682 6885,4656 6893,4656 6893,4639 6902,4639 6902,4605 6910,4605 6910,4563 6919,4563 6919,4546 6910,4546 6910,4521 6919,4521 6919,4512 6927,4512 6927,4495 6936,4495 6936,4487 6944,4487 6944,4436 6952,4436 6952,4428 6961,4428 6961,4402 6969,4402 6969,4385 6978,4385 6978,4360 6986,4360 6986,4309 6995,4309 6995,4301 7003,4301 7003,4275 7012,4275 7012,4267 7020,4267 7020,4250 7029,4250 7029,4233 7037,4233 7037,4216 7046,4216 7046,4190 7054,4190 7054,4165 7063,4165 7063,4148 7071,4148 7071,4140 7079,4140 7079,4131 7088,4131 7088,4123 7071,4123 7071,4114 7054,4114 7054,4106 7046,4106 7046,4097 7037,4097 7037,4089 7029,4089 7029,4106 7020,4106 7020,4123 7012,4123 7012,4140 7003,4140 7003,4148 6995,4148 6995,4182 6978,4182 6978,4190 6969,4190 6969,4224 6961,4224 6961,4241 6952,4241 6952,4284 6944,4284 6944,4309 6936,4309 6936,4326 6927,4326 6927,4343 6919,4343 6919,4368 6910,4368 6910,4377 6902,4377 6902,4394 6893,4394 6893,4428 6885,4428 6885,4470 6876,4470 6876,4495 6868,4495 6868,4512 6859,4512 6859,4555 6851,4555 6851,4605 6842,4605 6842,4614 6851,4614 6851,4639 6842,4639 6842,4783 6851,4783 6851,4809 6859,4809 6859,4825 6868,4825 6868,4885 6876,4885 6876,4927 6885,4927 6885,4936 6893,4936 6893,4952 6885,4952 6885,4961 6893,4961 6893,4969 6902,4969 6902,5003 6910,5003 6910,5054 6919,5054 6919,5096 6927,5096 6927,5173 6936,5173 6936,5240 6944,5240 6944,5249 6952,5249 6952,5257 6944,5257 6944,5300 6952,5300 6952,5359 6961,5359 6961,5418 6969,5418 6969,5469 6978,5469 6978,5537 6986,5537 6986,5571 6995,5571 6995,5621 7003,5621 7003,5638 6995,5638 6995,5681 7003,5681 7003,5765 7012,5765 7012,5791 7020,5791 7020,5850 7029,5850 7029,5901 7037,5901 7037,5935 7046,5935 7046,5968 7054,5968 7054,6002 7063,6002 7063,6019 7071,6019 7071,6028 7079,6028 7079,6062 7088,6062 7088,6104 7096,6104 7096,6095 7105,6095 7105,5977 7096,5977 7096,5968 7088,5968 7088,5952 7079,5952 7079,5901 7088,5901 7088,5892 7071,5892 7071,5841 7063,5841 7063,5825 7071,5825 7071,5808 7063,5808 7063,5714 7054,5714 7054,5689 7046,5689 7046,5638 7037,5638 7037,5545 7029,5545 7029,5494 7020,5494 7020,5435 7012,5435 7012,5401 7003,5401 7003,5359 6995,5359 6995,5317 7003,5317 7003,5300 6995,5300 6995,5223 6986,5223 6986,5198 6978,5198 6978,5113 6969,5113 6969,5071 6961,5071 6961,5054 6969,5054 6969,5037 6961,5037 6961,5020 6952,5020 6952,4978 6944,4978 6944,4952 6936,4952 6936,4936 6927,4936 6927,4885 6919,4885 6919,4851 6910,4851 6910,4825 6902,4825 "
   id="polygon301"
   style="fill:#50404f" />
   <polygon
   class="fil6"
   points="7537,7848 7537,7806 7528,7806 7528,7789 7520,7789 7520,7704 7511,7704 7511,7653 7520,7653 7520,7611 7511,7611 7511,7586 7503,7586 7503,7577 7494,7577 7494,7569 7503,7569 7503,7560 7511,7560 7511,7526 7520,7526 7520,7509 7511,7509 7511,7450 7503,7450 7503,7408 7494,7408 7494,7349 7486,7349 7486,7340 7477,7340 7477,7255 7469,7255 7469,7230 7452,7230 7452,7205 7444,7205 7444,7128 7435,7128 7435,7120 7427,7120 7427,7078 7418,7078 7418,7027 7410,7027 7410,7010 7401,7010 7401,6993 7393,6993 7393,6984 7384,6984 7384,6968 7367,6968 7367,6959 7359,6959 7359,6934 7342,6934 7342,6968 7350,6968 7350,6976 7359,6976 7359,6993 7350,6993 7350,7001 7359,7001 7359,7010 7367,7010 7367,7035 7376,7035 7376,7044 7384,7044 7384,7061 7376,7061 7376,7069 7384,7069 7384,7120 7393,7120 7393,7145 7401,7145 7401,7188 7410,7188 7410,7213 7418,7213 7418,7255 7427,7255 7427,7289 7435,7289 7435,7306 7444,7306 7444,7323 7435,7323 7435,7340 7444,7340 7444,7365 7452,7365 7452,7425 7460,7425 7460,7552 7469,7552 7469,7594 7460,7594 7460,7619 7469,7619 7469,7645 7460,7645 7460,7670 7469,7670 7469,7755 7477,7755 7477,7806 7486,7806 7486,7840 7494,7840 7494,7865 7503,7865 7503,7924 7520,7924 7520,7967 7528,7967 7528,7975 7537,7975 7537,8009 7545,8009 7545,8051 7537,8051 7537,8060 7545,8060 7545,8068 7554,8068 7554,8111 7562,8111 7562,8161 7571,8161 7571,8187 7579,8187 7579,8195 7587,8195 7587,8246 7596,8246 7596,8288 7604,8288 7604,8297 7613,8297 7613,8339 7621,8339 7621,8365 7630,8365 7630,8381 7638,8381 7638,8407 7647,8407 7647,8424 7655,8424 7655,8449 7664,8449 7664,8492 7672,8492 7672,8534 7681,8534 7681,8559 7689,8559 7689,8593 7698,8593 7698,8619 7706,8619 7706,8652 7714,8652 7714,8686 7723,8686 7723,8712 7731,8712 7731,8762 7740,8762 7740,8805 7757,8805 7757,8754 7765,8754 7765,8746 7757,8746 7757,8686 7765,8686 7765,8669 7757,8669 7757,8635 7748,8635 7748,8610 7723,8610 7723,8602 7731,8602 7731,8593 7740,8593 7740,8576 7714,8576 7714,8525 7723,8525 7723,8475 7714,8475 7714,8458 7706,8458 7706,8407 7698,8407 7698,8390 7689,8390 7689,8365 7681,8365 7681,8356 7672,8356 7672,8331 7664,8331 7664,8314 7655,8314 7655,8288 7647,8288 7647,8229 7638,8229 7638,8212 7630,8212 7630,8187 7621,8187 7621,8170 7613,8170 7613,8111 7604,8111 7604,8077 7596,8077 7596,8043 7587,8043 7587,7992 7579,7992 7579,7967 7571,7967 7571,7950 7562,7950 7562,7907 7554,7907 7554,7882 7545,7882 7545,7848 "
   id="polygon303"
   style="fill:#4c3c4b" />
   <polygon
   class="fil7"
   points="7918,4961 7926,4961 7926,4952 7935,4952 7935,4936 7960,4936 7960,4944 7968,4944 7968,4952 7977,4952 7977,4986 8011,4986 8011,4995 8028,4995 8028,4978 8053,4978 8053,4952 8036,4952 8036,4944 8028,4944 8028,4936 7994,4936 7994,4919 8002,4919 8002,4910 8011,4910 8011,4902 7994,4902 7994,4893 7985,4893 7985,4885 7977,4885 7977,4876 7952,4876 7952,4859 7943,4859 7943,4825 7935,4825 7935,4817 7926,4817 7926,4809 7892,4809 7892,4792 7884,4792 7884,4783 7875,4783 7875,4775 7858,4775 7858,4766 7850,4766 7850,4758 7841,4758 7841,4749 7825,4749 7825,4741 7782,4741 7782,4724 7757,4724 7757,4749 7740,4749 7740,4775 7748,4775 7748,4783 7757,4783 7757,4809 7782,4809 7782,4825 7799,4825 7799,4834 7808,4834 7808,4851 7799,4851 7799,4876 7808,4876 7808,4893 7782,4893 7782,4885 7765,4885 7765,4851 7731,4851 7731,4876 7714,4876 7714,4885 7706,4885 7706,4893 7689,4893 7689,4919 7723,4919 7723,4961 7740,4961 7740,4986 7757,4986 7757,5012 7765,5012 7765,5071 7774,5071 7774,5079 7782,5079 7782,5113 7791,5113 7791,5105 7799,5105 7799,5096 7808,5096 7808,5088 7816,5088 7816,5079 7825,5079 7825,5071 7816,5071 7816,5054 7825,5054 7825,5046 7833,5046 7833,5037 7825,5037 7825,5020 7816,5020 7816,5012 7833,5012 7833,5029 7841,5029 7841,5037 7875,5037 7875,5046 7892,5046 7892,5037 7901,5037 7901,5029 7909,5029 7909,5003 7918,5003 7918,4986 7926,4986 7926,4978 7918,4978 "
   id="polygon305"
   style="fill:#4e424e" />
   <polygon
   class="fil2"
   points="8553,3996 8544,3996 8544,3987 8519,3987 8519,3979 8502,3979 8502,3970 8493,3970 8493,3962 8485,3962 8485,3953 8443,3953 8443,3945 8434,3945 8434,3936 8392,3936 8392,3953 8375,3953 8375,3962 8358,3962 8358,3979 8349,3979 8349,4030 8358,4030 8358,4047 8366,4047 8366,4072 8400,4072 8400,4080 8409,4080 8409,4089 8417,4089 8417,4097 8426,4097 8426,4123 8443,4123 8443,4131 8451,4131 8451,4140 8460,4140 8460,4157 8476,4157 8476,4165 8485,4165 8485,4174 8493,4174 8493,4182 8519,4182 8519,4190 8544,4190 8544,4199 8612,4199 8612,4207 8629,4207 8629,4216 8722,4216 8722,4224 8739,4224 8739,4199 8730,4199 8730,4157 8722,4157 8722,4148 8714,4148 8714,4140 8680,4140 8680,4123 8671,4123 8671,4114 8663,4114 8663,4106 8654,4106 8654,4089 8646,4089 8646,4080 8629,4080 8629,4072 8620,4072 8620,4063 8603,4063 8603,4030 8578,4030 8578,4013 8553,4013 "
   id="polygon307"
   style="fill:#fafbfd" />
   <polygon
   class="fil8"
   points="8460,4444 8451,4444 8451,4453 8443,4453 8443,4461 8434,4461 8434,4487 8451,4487 8451,4495 8443,4495 8443,4504 8434,4504 8434,4512 8443,4512 8443,4521 8451,4521 8451,4538 8468,4538 8468,4529 8476,4529 8476,4512 8485,4512 8485,4504 8493,4504 8493,4495 8502,4495 8502,4487 8510,4487 8510,4461 8519,4461 8519,4453 8527,4453 8527,4444 8544,4444 8544,4428 8553,4428 8553,4419 8561,4419 8561,4402 8578,4402 8578,4394 8587,4394 8587,4385 8595,4385 8595,4377 8603,4377 8603,4368 8612,4368 8612,4360 8620,4360 8620,4343 8637,4343 8637,4334 8654,4334 8654,4326 8663,4326 8663,4309 8671,4309 8671,4292 8680,4292 8680,4284 8688,4284 8688,4275 8697,4275 8697,4258 8688,4258 8688,4267 8680,4267 8680,4275 8671,4275 8671,4258 8663,4258 8663,4241 8671,4241 8671,4224 8654,4224 8654,4216 8629,4216 8629,4207 8612,4207 8612,4199 8544,4199 8544,4190 8519,4190 8519,4182 8493,4182 8493,4174 8485,4174 8485,4165 8476,4165 8476,4157 8460,4157 8460,4140 8451,4140 8451,4131 8443,4131 8443,4123 8426,4123 8426,4097 8417,4097 8417,4089 8409,4089 8409,4080 8400,4080 8400,4072 8366,4072 8366,4047 8358,4047 8358,4030 8349,4030 8349,4004 8341,4004 8341,3996 8333,3996 8333,3979 8324,3979 8324,3987 8316,3987 8316,4047 8307,4047 8307,4055 8299,4055 8299,4072 8307,4072 8307,4080 8316,4080 8316,4089 8324,4089 8324,4097 8333,4097 8333,4106 8341,4106 8341,4131 8349,4131 8349,4140 8375,4140 8375,4182 8392,4182 8392,4190 8417,4190 8417,4207 8443,4207 8443,4216 8451,4216 8451,4224 8460,4224 8460,4233 8476,4233 8476,4241 8502,4241 8502,4250 8544,4250 8544,4258 8553,4258 8553,4267 8561,4267 8561,4275 8578,4275 8578,4292 8570,4292 8570,4309 8561,4309 8561,4317 8553,4317 8553,4326 8544,4326 8544,4343 8536,4343 8536,4351 8527,4351 8527,4360 8519,4360 8519,4368 8510,4368 8510,4377 8502,4377 8502,4394 8493,4394 8493,4402 8485,4402 8485,4411 8476,4411 8476,4419 8468,4419 8468,4428 8460,4428 "
   id="polygon309"
   style="fill:#44323c" />
   <polygon
   class="fil9"
   points="7782,4478 7791,4478 7791,4453 7799,4453 7799,4444 7808,4444 7808,4436 7816,4436 7816,4428 7825,4428 7825,4419 7833,4419 7833,4411 7850,4411 7850,4402 7867,4402 7867,4394 7884,4394 7884,4385 7892,4385 7892,4368 7909,4368 7909,4385 7918,4385 7918,4377 8002,4377 8002,4360 7918,4360 7918,4343 7926,4343 7926,4334 7935,4334 7935,4326 7960,4326 7960,4334 7968,4334 7968,4343 8019,4343 8019,4351 8036,4351 8036,4360 8045,4360 8045,4351 8062,4351 8062,4343 8053,4343 8053,4334 8036,4334 8036,4326 8019,4326 8019,4317 7977,4317 7977,4309 7960,4309 7960,4317 7935,4317 7935,4309 7926,4309 7926,4301 7918,4301 7918,4309 7875,4309 7875,4317 7858,4317 7858,4326 7850,4326 7850,4334 7816,4334 7816,4351 7791,4351 7791,4368 7782,4368 7782,4377 7765,4377 7765,4385 7757,4385 7757,4394 7748,4394 7748,4402 7731,4402 7731,4411 7723,4411 7723,4436 7714,4436 7714,4444 7689,4444 7689,4478 7672,4478 7672,4487 7681,4487 7681,4512 7672,4512 7672,4521 7681,4521 7681,4605 7672,4605 7672,4631 7681,4631 7681,4622 7689,4622 7689,4639 7681,4639 7681,4648 7689,4648 7689,4682 7698,4682 7698,4690 7714,4690 7714,4715 7723,4715 7723,4724 7731,4724 7731,4766 7740,4766 7740,4749 7757,4749 7757,4724 7782,4724 7782,4741 7808,4741 7808,4707 7799,4707 7799,4698 7791,4698 7791,4690 7782,4690 7782,4656 7765,4656 7765,4622 7757,4622 7757,4597 7765,4597 7765,4580 7757,4580 7757,4571 7748,4571 7748,4546 7757,4546 7757,4538 7765,4538 7765,4529 7774,4529 7774,4504 7782,4504 "
   id="polygon311"
   style="fill:#72646e" />
   <polygon
   class="fil10"
   points="8079,4936 8079,4927 8028,4927 8028,4919 8019,4919 8019,4902 8011,4902 8011,4910 8002,4910 8002,4919 7994,4919 7994,4936 8028,4936 8028,4944 8036,4944 8036,4952 8053,4952 8053,4978 8028,4978 8028,4995 8036,4995 8036,5012 8045,5012 8045,5020 8095,5020 8095,5029 8155,5029 8155,5046 8197,5046 8197,5054 8265,5054 8265,5063 8282,5063 8282,5054 8307,5054 8307,5063 8375,5063 8375,5071 8476,5071 8476,5063 8510,5063 8510,5054 8527,5054 8527,5046 8553,5046 8553,5029 8561,5029 8561,5020 8570,5020 8570,5012 8578,5012 8578,4995 8536,4995 8536,5012 8502,5012 8502,5020 8493,5020 8493,5012 8485,5012 8485,5003 8460,5003 8460,5012 8443,5012 8443,4986 8434,4986 8434,4995 8400,4995 8400,4986 8383,4986 8383,4978 8366,4978 8366,4969 8341,4969 8341,4978 8282,4978 8282,4969 8172,4969 8172,4961 8129,4961 8129,4952 8095,4952 8095,4944 8087,4944 8087,4936 "
   id="polygon313"
   style="fill:#6d626b" />
   <polygon
   class="fil11"
   points="7554,3733 7562,3733 7562,3725 7587,3725 7587,3733 7604,3733 7604,3725 7647,3725 7647,3708 7655,3708 7655,3691 7681,3691 7681,3682 7706,3682 7706,3674 7714,3674 7714,3666 7664,3666 7664,3674 7621,3674 7621,3682 7604,3682 7604,3691 7571,3691 7571,3699 7545,3699 7545,3708 7520,3708 7520,3716 7486,3716 7486,3725 7469,3725 7469,3733 7460,3733 7460,3742 7435,3742 7435,3750 7418,3750 7418,3759 7393,3759 7393,3767 7359,3767 7359,3776 7350,3776 7350,3784 7342,3784 7342,3793 7325,3793 7325,3784 7317,3784 7317,3793 7308,3793 7308,3801 7300,3801 7300,3809 7291,3809 7291,3818 7283,3818 7283,3826 7274,3826 7274,3835 7266,3835 7266,3843 7249,3843 7249,3852 7232,3852 7232,3860 7215,3860 7215,3877 7206,3877 7206,3886 7198,3886 7198,3903 7190,3903 7190,3894 7173,3894 7173,3903 7164,3903 7164,3928 7147,3928 7147,3945 7139,3945 7139,3962 7130,3962 7130,3979 7113,3979 7113,3987 7105,3987 7105,3996 7096,3996 7096,4004 7088,4004 7088,4013 7071,4013 7071,4038 7063,4038 7063,4055 7054,4055 7054,4072 7046,4072 7046,4080 7037,4080 7037,4097 7046,4097 7046,4106 7054,4106 7054,4114 7071,4114 7071,4097 7088,4097 7088,4089 7096,4089 7096,4080 7105,4080 7105,4072 7113,4072 7113,4038 7164,4038 7164,4030 7173,4030 7173,4021 7181,4021 7181,4004 7190,4004 7190,3996 7198,3996 7198,3987 7215,3987 7215,3979 7223,3979 7223,3962 7232,3962 7232,3953 7240,3953 7240,3945 7249,3945 7249,3936 7232,3936 7232,3920 7240,3920 7240,3911 7249,3911 7249,3894 7274,3894 7274,3869 7283,3869 7283,3860 7308,3860 7308,3869 7333,3869 7333,3860 7367,3860 7367,3852 7376,3852 7376,3843 7393,3843 7393,3801 7401,3801 7401,3793 7418,3793 7418,3784 7427,3784 7427,3776 7435,3776 7435,3767 7460,3767 7460,3759 7469,3759 7469,3750 7537,3750 7537,3742 7554,3742 "
   id="polygon315"
   style="fill:#453a44" />
   <polygon
   class="fil12"
   points="8273,4834 8282,4834 8282,4825 8273,4825 8273,4817 8256,4817 8256,4825 8248,4825 8248,4800 8239,4800 8239,4775 8231,4775 8231,4792 8206,4792 8206,4783 8180,4783 8180,4775 8163,4775 8163,4766 8146,4766 8146,4758 8121,4758 8121,4732 8104,4732 8104,4724 8095,4724 8095,4715 8087,4715 8087,4698 8079,4698 8079,4690 8062,4690 8062,4682 8053,4682 8053,4665 8045,4665 8045,4656 8028,4656 8028,4639 8019,4639 8019,4563 8036,4563 8036,4555 8053,4555 8053,4529 8062,4529 8062,4504 8036,4504 8036,4512 8028,4512 8028,4521 8011,4521 8011,4538 8019,4538 8019,4546 8011,4546 8011,4563 8002,4563 8002,4597 7994,4597 7994,4555 8002,4555 8002,4546 7994,4546 7994,4538 7968,4538 7968,4529 7977,4529 7977,4521 7985,4521 7985,4512 7994,4512 7994,4495 7985,4495 7985,4487 8011,4487 8011,4478 8002,4478 8002,4461 7985,4461 7985,4453 7968,4453 7968,4461 7960,4461 7960,4470 7952,4470 7952,4478 7943,4478 7943,4487 7935,4487 7935,4529 7943,4529 7943,4555 7935,4555 7935,4580 7943,4580 7943,4605 7952,4605 7952,4614 7943,4614 7943,4622 7935,4622 7935,4656 7952,4656 7952,4665 7960,4665 7960,4682 7968,4682 7968,4698 7977,4698 7977,4707 7985,4707 7985,4715 7994,4715 7994,4724 8011,4724 8011,4732 8019,4732 8019,4741 8028,4741 8028,4749 8036,4749 8036,4758 8045,4758 8045,4766 8062,4766 8062,4775 8070,4775 8070,4783 8079,4783 8079,4792 8087,4792 8087,4800 8095,4800 8095,4809 8104,4809 8104,4825 8112,4825 8112,4834 8129,4834 8129,4842 8146,4842 8146,4851 8172,4851 8172,4859 8189,4859 8189,4851 8265,4851 8265,4842 8273,4842 "
   id="polygon317"
   style="fill:#625661" />
   <polygon
   class="fil13"
   points="8680,4309 8680,4317 8697,4317 8697,4309 8714,4309 8714,4301 8730,4301 8730,4258 8739,4258 8739,4250 8764,4250 8764,4241 8773,4241 8773,4224 8764,4224 8764,4199 8773,4199 8773,4190 8781,4190 8781,4148 8773,4148 8773,4140 8764,4140 8764,4123 8781,4123 8781,4097 8773,4097 8773,4089 8764,4089 8764,4080 8739,4080 8739,4072 8722,4072 8722,4047 8714,4047 8714,4038 8705,4038 8705,4030 8697,4030 8697,4021 8680,4021 8680,4013 8654,4013 8654,4004 8629,4004 8629,3996 8620,3996 8620,4013 8612,4013 8612,4004 8595,4004 8595,3987 8603,3987 8603,3979 8587,3979 8587,3953 8578,3953 8578,3945 8553,3945 8553,3936 8544,3936 8544,3911 8510,3911 8510,3894 8493,3894 8493,3903 8409,3903 8409,3920 8426,3920 8426,3936 8434,3936 8434,3945 8443,3945 8443,3953 8485,3953 8485,3962 8493,3962 8493,3970 8502,3970 8502,3979 8519,3979 8519,3987 8544,3987 8544,3996 8553,3996 8553,4013 8578,4013 8578,4030 8603,4030 8603,4063 8620,4063 8620,4072 8629,4072 8629,4080 8646,4080 8646,4089 8654,4089 8654,4106 8663,4106 8663,4114 8671,4114 8671,4123 8680,4123 8680,4140 8714,4140 8714,4148 8722,4148 8722,4157 8730,4157 8730,4199 8739,4199 8739,4224 8722,4224 8722,4216 8654,4216 8654,4224 8671,4224 8671,4241 8663,4241 8663,4258 8671,4258 8671,4275 8680,4275 8680,4267 8688,4267 8688,4258 8697,4258 8697,4275 8688,4275 8688,4284 8680,4284 8680,4292 8671,4292 8671,4309 "
   id="polygon319"
   style="fill:#524651" />
   <polygon
   class="fil14"
   points="12540,8568 12515,8568 12515,8559 12498,8559 12498,8576 12490,8576 12490,8585 12464,8585 12464,8593 12430,8593 12430,8602 12405,8602 12405,8610 12388,8610 12388,8619 12380,8619 12380,8627 12413,8627 12413,8644 12405,8644 12405,8652 12464,8652 12464,8644 12498,8644 12498,8635 12515,8635 12515,8627 12532,8627 12532,8619 12617,8619 12617,8610 12642,8610 12642,8602 12651,8602 12651,8585 12667,8585 12667,8576 12676,8576 12676,8585 12727,8585 12727,8568 12811,8568 12811,8559 12820,8559 12820,8551 12845,8551 12845,8542 12871,8542 12871,8534 12930,8534 12930,8525 12921,8525 12921,8508 12913,8508 12913,8492 12905,8492 12905,8483 12913,8483 12913,8475 12871,8475 12871,8483 12845,8483 12845,8492 12794,8492 12794,8500 12769,8500 12769,8508 12752,8508 12752,8517 12693,8517 12693,8525 12676,8525 12676,8534 12634,8534 12634,8542 12600,8542 12600,8551 12566,8551 12566,8559 12540,8559 "
   id="polygon321"
   style="fill:#554953" />
   <polygon
   class="fil15"
   points="13650,4910 13641,4910 13641,4902 13650,4902 13650,4893 13641,4893 13641,4859 13633,4859 13633,4817 13616,4817 13616,4775 13633,4775 13633,4766 13607,4766 13607,4758 13582,4758 13582,4724 13573,4724 13573,4732 13540,4732 13540,4775 13548,4775 13548,4800 13556,4800 13556,4834 13565,4834 13565,4859 13573,4859 13573,4885 13582,4885 13582,4902 13590,4902 13590,4961 13599,4961 13599,4969 13607,4969 13607,5037 13616,5037 13616,5063 13624,5063 13624,5088 13616,5088 13616,5096 13607,5096 13607,5105 13616,5105 13616,5113 13624,5113 13624,5130 13633,5130 13633,5240 13641,5240 13641,5223 13650,5223 13650,5232 13675,5232 13675,5223 13700,5223 13700,5198 13683,5198 13683,5173 13700,5173 13700,5164 13692,5164 13692,5147 13683,5147 13683,5139 13692,5139 13692,5113 13683,5113 13683,5063 13675,5063 13675,5003 13683,5003 13683,4986 13675,4986 13675,4978 13658,4978 13658,4952 13650,4952 13650,4944 13641,4944 13641,4927 13650,4927 "
   id="polygon323"
   style="fill:#7b6c7a" />
   <polygon
   class="fil16"
   points="13396,3725 13396,3742 13404,3742 13404,3750 13387,3750 13387,3776 13396,3776 13396,3784 13404,3784 13404,3843 13413,3843 13413,3894 13421,3894 13421,3920 13429,3920 13429,3928 13438,3928 13438,3945 13455,3945 13455,3936 13489,3936 13489,3911 13480,3911 13480,3894 13472,3894 13472,3843 13463,3843 13463,3818 13455,3818 13455,3784 13446,3784 13446,3759 13438,3759 13438,3716 13429,3716 13429,3666 13421,3666 13421,3598 13413,3598 13413,3581 13404,3581 13404,3547 13413,3547 13413,3539 13404,3539 13404,3513 13396,3513 13396,3488 13387,3488 13387,3462 13379,3462 13379,3403 13370,3403 13370,3395 13362,3395 13362,3412 13345,3412 13345,3395 13336,3395 13336,3369 13328,3369 13328,3361 13319,3361 13319,3428 13328,3428 13328,3454 13336,3454 13336,3488 13345,3488 13345,3539 13353,3539 13353,3564 13362,3564 13362,3623 13370,3623 13370,3708 13379,3708 13379,3716 13387,3716 13387,3725 "
   id="polygon325"
   style="fill:#493645" />
   <polygon
   class="fil17"
   points="13472,4351 13480,4351 13480,4411 13489,4411 13489,4428 13480,4428 13480,4444 13506,4444 13506,4453 13523,4453 13523,4461 13540,4461 13540,4470 13548,4470 13548,4461 13556,4461 13556,4444 13548,4444 13548,4428 13540,4428 13540,4419 13514,4419 13514,4402 13523,4402 13523,4394 13531,4394 13531,4360 13523,4360 13523,4343 13531,4343 13531,4301 13540,4301 13540,4267 13531,4267 13531,4114 13523,4114 13523,4089 13514,4089 13514,4030 13506,4030 13506,3979 13480,3979 13480,3962 13489,3962 13489,3953 13480,3953 13480,3945 13489,3945 13489,3936 13455,3936 13455,3945 13438,3945 13438,3928 13429,3928 13429,3962 13438,3962 13438,4013 13455,4013 13455,4097 13463,4097 13463,4157 13472,4157 13472,4199 13480,4199 13480,4216 13472,4216 13472,4250 13463,4250 13463,4258 13472,4258 13472,4267 13480,4267 13480,4275 13489,4275 13489,4284 13480,4284 13480,4343 13472,4343 "
   id="polygon327"
   style="fill:#5b4c5c" />
   <polygon
   class="fil18"
   points="13142,2904 13142,2912 13167,2912 13167,2920 13184,2920 13184,2929 13201,2929 13201,2937 13218,2937 13218,2946 13235,2946 13235,2954 13252,2954 13252,2963 13269,2963 13269,2971 13277,2971 13277,2980 13294,2980 13294,2988 13302,2988 13302,2997 13311,2997 13311,3005 13319,3005 13319,3014 13328,3014 13328,3031 13336,3031 13336,3056 13328,3056 13328,3081 13336,3081 13336,3090 13345,3090 13345,3098 13336,3098 13336,3132 13328,3132 13328,3174 13319,3174 13319,3242 13311,3242 13311,3352 13319,3352 13319,3361 13328,3361 13328,3369 13336,3369 13336,3395 13345,3395 13345,3412 13362,3412 13362,3217 13370,3217 13370,3115 13362,3115 13362,3031 13353,3031 13353,3014 13345,3014 13345,2997 13336,2997 13336,2988 13328,2988 13328,2980 13319,2980 13319,2971 13311,2971 13311,2963 13294,2963 13294,2954 13286,2954 13286,2946 13269,2946 13269,2937 13252,2937 13252,2929 13243,2929 13243,2920 13226,2920 13226,2912 13201,2912 13201,2904 13184,2904 13184,2895 13167,2895 13167,2887 13142,2887 13142,2878 13116,2878 13116,2870 13091,2870 13091,2861 13048,2861 13048,2853 12905,2853 12905,2844 12888,2844 12888,2853 12879,2853 12879,2861 12871,2861 12871,2878 13057,2878 13057,2887 13091,2887 13091,2895 13125,2895 13125,2904 "
   id="polygon329"
   style="fill:#26212b" />
   <polygon
   class="fil19"
   points="7723,3708 7723,3716 7740,3716 7740,3708 7748,3708 7748,3699 7765,3699 7765,3708 7774,3708 7774,3699 7782,3699 7782,3691 7816,3691 7816,3682 7833,3682 7833,3674 7850,3674 7850,3666 7858,3666 7858,3657 7875,3657 7875,3649 7901,3649 7901,3632 7918,3632 7918,3615 7909,3615 7909,3606 7901,3606 7901,3598 7884,3598 7884,3581 7892,3581 7892,3572 7875,3572 7875,3581 7867,3581 7867,3589 7858,3589 7858,3598 7833,3598 7833,3606 7825,3606 7825,3615 7791,3615 7791,3623 7774,3623 7774,3632 7740,3632 7740,3649 7689,3649 7689,3657 7681,3657 7681,3666 7714,3666 7714,3674 7706,3674 7706,3682 7681,3682 7681,3691 7655,3691 7655,3708 7647,3708 7647,3725 7604,3725 7604,3733 7587,3733 7587,3725 7562,3725 7562,3733 7554,3733 7554,3742 7537,3742 7537,3750 7469,3750 7469,3759 7460,3759 7460,3767 7435,3767 7435,3776 7427,3776 7427,3784 7418,3784 7418,3793 7401,3793 7401,3801 7393,3801 7393,3835 7427,3835 7427,3826 7435,3826 7435,3818 7460,3818 7460,3809 7469,3809 7469,3801 7477,3801 7477,3793 7503,3793 7503,3784 7528,3784 7528,3776 7545,3776 7545,3767 7587,3767 7587,3759 7596,3759 7596,3750 7655,3750 7655,3742 7672,3742 7672,3733 7681,3733 7681,3725 7706,3725 7706,3716 7714,3716 7714,3708 "
   id="polygon331"
   style="fill:#5c4c5b" />
   <polygon
   class="fil10"
   points="7791,5122 7808,5122 7808,5130 7816,5130 7816,5139 7825,5139 7825,5147 7833,5147 7833,5156 7841,5156 7841,5164 7850,5164 7850,5156 7926,5156 7926,5147 7977,5147 7977,5156 7994,5156 7994,5173 8002,5173 8002,5181 8011,5181 8011,5190 8019,5190 8019,5215 8028,5215 8028,5198 8045,5198 8045,5206 8053,5206 8053,5215 8062,5215 8062,5223 8070,5223 8070,5232 8095,5232 8095,5223 8087,5223 8087,5198 8095,5198 8095,5181 8087,5181 8087,5173 8112,5173 8112,5181 8121,5181 8121,5156 8112,5156 8112,5139 8104,5139 8104,5130 8087,5130 8087,5113 8062,5113 8062,5096 8045,5096 8045,5105 8036,5105 8036,5096 8028,5096 8028,5088 8011,5088 8011,5079 7985,5079 7985,5071 7977,5071 7977,5088 7968,5088 7968,5096 7960,5096 7960,5088 7952,5088 7952,5079 7841,5079 7841,5046 7850,5046 7850,5037 7841,5037 7841,5029 7833,5029 7833,5012 7816,5012 7816,5020 7825,5020 7825,5037 7833,5037 7833,5046 7825,5046 7825,5054 7816,5054 7816,5071 7825,5071 7825,5079 7816,5079 7816,5088 7808,5088 7808,5096 7799,5096 7799,5105 7791,5105 "
   id="polygon333"
   style="fill:#6d626b" />
   <polygon
   class="fil20"
   points="7122,6070 7122,6011 7113,6011 7113,5994 7105,5994 7105,6095 7096,6095 7096,6129 7105,6129 7105,6163 7113,6163 7113,6180 7122,6180 7122,6214 7130,6214 7130,6256 7139,6256 7139,6307 7147,6307 7147,6358 7156,6358 7156,6392 7164,6392 7164,6426 7173,6426 7173,6468 7181,6468 7181,6476 7190,6476 7190,6502 7206,6502 7206,6510 7223,6510 7223,6519 7215,6519 7215,6544 7232,6544 7232,6561 7223,6561 7223,6578 7232,6578 7232,6587 7223,6587 7223,6603 7257,6603 7257,6595 7266,6595 7266,6578 7257,6578 7257,6570 7249,6570 7249,6561 7257,6561 7257,6527 7266,6527 7266,6510 7257,6510 7257,6502 7249,6502 7249,6485 7240,6485 7240,6460 7232,6460 7232,6409 7223,6409 7223,6392 7215,6392 7215,6383 7206,6383 7206,6375 7215,6375 7215,6358 7206,6358 7206,6316 7190,6316 7190,6307 7181,6307 7181,6290 7173,6290 7173,6282 7181,6282 7181,6239 7164,6239 7164,6189 7156,6189 7156,6155 7147,6155 7147,6104 7139,6104 7139,6095 7122,6095 7122,6087 7130,6087 7130,6070 "
   id="polygon335"
   style="fill:#78717a" />
   <polygon
   class="fil21"
   points="8265,4165 8273,4165 8273,4157 8282,4157 8282,4131 8273,4131 8273,4123 8265,4123 8265,4114 8256,4114 8256,4123 8248,4123 8248,4131 8239,4131 8239,4165 8222,4165 8222,4174 8214,4174 8214,4199 8222,4199 8222,4207 8214,4207 8214,4233 8206,4233 8206,4250 8197,4250 8197,4267 8172,4267 8172,4284 8163,4284 8163,4309 8155,4309 8155,4317 8146,4317 8146,4326 8138,4326 8138,4334 8129,4334 8129,4351 8121,4351 8121,4360 8104,4360 8104,4368 8087,4368 8087,4360 8070,4360 8070,4351 8062,4351 8062,4360 8053,4360 8053,4385 8079,4385 8079,4394 8095,4394 8095,4419 8112,4419 8112,4428 8129,4428 8129,4419 8146,4419 8146,4411 8155,4411 8155,4402 8163,4402 8163,4394 8172,4394 8172,4385 8180,4385 8180,4377 8189,4377 8189,4368 8197,4368 8197,4360 8214,4360 8214,4334 8231,4334 8231,4326 8239,4326 8239,4309 8248,4309 8248,4292 8265,4292 8265,4267 8273,4267 8273,4258 8282,4258 8282,4250 8290,4250 8290,4241 8299,4241 8299,4233 8307,4233 8307,4224 8299,4224 8299,4207 8307,4207 8307,4199 8316,4199 8316,4190 8324,4190 8324,4182 8316,4182 8316,4157 8307,4157 8307,4165 8290,4165 8290,4174 8282,4174 8282,4190 8273,4190 8273,4199 8265,4199 "
   id="polygon337"
   style="fill:#6c5c64" />
   <polygon
   class="fil22"
   points="7537,5130 7511,5130 7511,5139 7503,5139 7503,5147 7494,5147 7494,5173 7503,5173 7503,5206 7528,5206 7528,5215 7537,5215 7537,5232 7579,5232 7579,5190 7587,5190 7587,5173 7596,5173 7596,5164 7604,5164 7604,5156 7613,5156 7613,5147 7621,5147 7621,5139 7630,5139 7630,5130 7647,5130 7647,5122 7655,5122 7655,5113 7723,5113 7723,5122 7748,5122 7748,5130 7782,5130 7782,5079 7774,5079 7774,5071 7765,5071 7765,5029 7757,5029 7757,5046 7731,5046 7731,5054 7706,5054 7706,5046 7655,5046 7655,5054 7613,5054 7613,5071 7604,5071 7604,5079 7571,5079 7571,5088 7562,5088 7562,5105 7554,5105 7554,5113 7537,5113 "
   id="polygon339"
   style="fill:#78676a" />
   <polygon
   class="fil23"
   points="7206,6510 7206,6502 7190,6502 7190,6536 7198,6536 7198,6544 7206,6544 7206,6578 7215,6578 7215,6612 7223,6612 7223,6629 7232,6629 7232,6646 7240,6646 7240,6663 7249,6663 7249,6671 7257,6671 7257,6714 7266,6714 7266,6730 7274,6730 7274,6747 7283,6747 7283,6773 7291,6773 7291,6790 7283,6790 7283,6807 7291,6807 7291,6815 7300,6815 7300,6832 7308,6832 7308,6849 7317,6849 7317,6883 7325,6883 7325,6925 7342,6925 7342,6934 7359,6934 7359,6959 7367,6959 7367,6968 7384,6968 7384,6984 7393,6984 7393,6993 7401,6993 7401,6959 7393,6959 7393,6934 7384,6934 7384,6891 7376,6891 7376,6849 7367,6849 7367,6832 7359,6832 7359,6824 7350,6824 7350,6781 7342,6781 7342,6764 7333,6764 7333,6739 7325,6739 7325,6730 7317,6730 7317,6688 7308,6688 7308,6671 7300,6671 7300,6620 7291,6620 7291,6612 7283,6612 7283,6603 7274,6603 7274,6570 7266,6570 7266,6527 7257,6527 7257,6561 7249,6561 7249,6570 7257,6570 7257,6578 7266,6578 7266,6595 7257,6595 7257,6603 7223,6603 7223,6587 7232,6587 7232,6578 7223,6578 7223,6561 7232,6561 7232,6544 7215,6544 7215,6519 7223,6519 7223,6510 "
   id="polygon341"
   style="fill:#918592" />
   <polygon
   class="fil24"
   points="8561,4961 8561,4952 8570,4952 8570,4919 8578,4919 8578,4876 8570,4876 8570,4859 8578,4859 8578,4842 8587,4842 8587,4834 8595,4834 8595,4817 8587,4817 8587,4749 8578,4749 8578,4724 8570,4724 8570,4698 8561,4698 8561,4656 8553,4656 8553,4648 8544,4648 8544,4631 8536,4631 8536,4622 8527,4622 8527,4614 8510,4614 8510,4605 8460,4605 8460,4622 8451,4622 8451,4665 8460,4665 8460,4673 8468,4673 8468,4682 8493,4682 8493,4690 8502,4690 8502,4724 8510,4724 8510,4758 8519,4758 8519,4902 8544,4902 8544,4893 8561,4893 8561,4919 8553,4919 8553,4952 8544,4952 8544,4961 "
   id="polygon343"
   style="fill:#3c2a34" />
   <polygon
   class="fil5"
   points="8409,4495 8409,4512 8400,4512 8400,4521 8392,4521 8392,4538 8383,4538 8383,4555 8375,4555 8375,4563 8366,4563 8366,4580 8358,4580 8358,4588 8349,4588 8349,4614 8341,4614 8341,4631 8333,4631 8333,4639 8324,4639 8324,4656 8316,4656 8316,4673 8307,4673 8307,4690 8299,4690 8299,4715 8307,4715 8307,4707 8333,4707 8333,4724 8349,4724 8349,4732 8358,4732 8358,4749 8375,4749 8375,4766 8366,4766 8366,4783 8375,4783 8375,4792 8392,4792 8392,4800 8400,4800 8400,4792 8409,4792 8409,4775 8417,4775 8417,4758 8426,4758 8426,4732 8409,4732 8409,4724 8400,4724 8400,4715 8375,4715 8375,4682 8383,4682 8383,4673 8392,4673 8392,4656 8400,4656 8400,4631 8417,4631 8417,4597 8434,4597 8434,4588 8443,4588 8443,4571 8451,4571 8451,4555 8460,4555 8460,4546 8468,4546 8468,4538 8451,4538 8451,4521 8443,4521 8443,4512 8434,4512 8434,4504 8443,4504 8443,4495 8451,4495 8451,4487 8434,4487 8434,4470 8426,4470 8426,4487 8417,4487 8417,4495 "
   id="polygon345"
   style="fill:#50404f" />
   <polygon
   class="fil25"
   points="8129,5164 8129,5198 8146,5198 8146,5139 8138,5139 8138,5130 8121,5130 8121,5122 8129,5122 8129,5088 8112,5088 8112,5054 8104,5054 8104,5037 8121,5037 8121,5029 8095,5029 8095,5020 8045,5020 8045,5012 8036,5012 8036,4995 8011,4995 8011,4986 7977,4986 7977,4978 7968,4978 7968,4969 7960,4969 7960,4961 7952,4961 7952,4986 7960,4986 7960,5029 7926,5029 7926,5054 7909,5054 7909,5063 7892,5063 7892,5054 7884,5054 7884,5063 7875,5063 7875,5071 7985,5071 7985,5079 8011,5079 8011,5088 8028,5088 8028,5096 8036,5096 8036,5105 8045,5105 8045,5096 8062,5096 8062,5113 8087,5113 8087,5130 8104,5130 8104,5139 8112,5139 8112,5156 8121,5156 8121,5164 "
   id="polygon347"
   style="fill:#e6e2e6" />
   <polygon
   class="fil26"
   points="8282,4834 8273,4834 8273,4842 8265,4842 8265,4859 8366,4859 8366,4851 8375,4851 8375,4834 8383,4834 8383,4817 8392,4817 8392,4792 8375,4792 8375,4783 8366,4783 8366,4766 8375,4766 8375,4749 8358,4749 8358,4732 8349,4732 8349,4724 8333,4724 8333,4707 8307,4707 8307,4715 8299,4715 8299,4732 8290,4732 8290,4741 8282,4741 8282,4758 8273,4758 8273,4783 8265,4783 8265,4775 8239,4775 8239,4800 8248,4800 8248,4825 8256,4825 8256,4817 8273,4817 8273,4825 8282,4825 "
   id="polygon349"
   style="fill:#282228" />
   <polygon
   class="fil27"
   points="7935,4334 7926,4334 7926,4343 7918,4343 7918,4360 8002,4360 8002,4385 8019,4385 8019,4394 8036,4394 8036,4402 8045,4402 8045,4428 8036,4428 8036,4453 8011,4453 8011,4461 8002,4461 8002,4478 8011,4478 8011,4487 7985,4487 7985,4495 7994,4495 7994,4512 7985,4512 7985,4521 7977,4521 7977,4529 7968,4529 7968,4538 7994,4538 7994,4546 8002,4546 8002,4555 7994,4555 7994,4597 8002,4597 8002,4563 8011,4563 8011,4546 8019,4546 8019,4538 8011,4538 8011,4521 8028,4521 8028,4512 8036,4512 8036,4504 8070,4504 8070,4495 8079,4495 8079,4487 8087,4487 8087,4470 8104,4470 8104,4453 8112,4453 8112,4444 8121,4444 8121,4428 8112,4428 8112,4419 8095,4419 8095,4394 8079,4394 8079,4385 8053,4385 8053,4360 8062,4360 8062,4351 8045,4351 8045,4360 8036,4360 8036,4351 8019,4351 8019,4343 7968,4343 7968,4334 7960,4334 7960,4326 7935,4326 "
   id="polygon351"
   style="fill:#4d3b46" />
   <polygon
   class="fil28"
   points="8544,4952 8553,4952 8553,4919 8561,4919 8561,4893 8544,4893 8544,4902 8519,4902 8519,4919 8510,4919 8510,4927 8502,4927 8502,4936 8493,4936 8493,4944 8485,4944 8485,4936 8468,4936 8468,4944 8476,4944 8476,4952 8468,4952 8468,4961 8460,4961 8460,4978 8451,4978 8451,4986 8443,4986 8443,5012 8460,5012 8460,5003 8485,5003 8485,5012 8493,5012 8493,5020 8502,5020 8502,5012 8536,5012 8536,4995 8578,4995 8578,4986 8587,4986 8587,4978 8595,4978 8595,4969 8603,4969 8603,4961 8612,4961 8612,4952 8620,4952 8620,4944 8629,4944 8629,4910 8637,4910 8637,4885 8603,4885 8603,4902 8595,4902 8595,4851 8587,4851 8587,4842 8578,4842 8578,4859 8570,4859 8570,4876 8578,4876 8578,4919 8570,4919 8570,4952 8561,4952 8561,4961 8544,4961 "
   id="polygon353"
   style="fill:#594651" />
   <polygon
   class="fil19"
   points="13573,4724 13582,4724 13582,4690 13590,4690 13590,4682 13573,4682 13573,4673 13565,4673 13565,4665 13573,4665 13573,4639 13565,4639 13565,4580 13556,4580 13556,4563 13548,4563 13548,4555 13565,4555 13565,4538 13556,4538 13556,4521 13590,4521 13590,4512 13599,4512 13599,4504 13590,4504 13590,4495 13582,4495 13582,4487 13565,4487 13565,4478 13556,4478 13556,4487 13548,4487 13548,4495 13540,4495 13540,4504 13531,4504 13531,4512 13497,4512 13497,4538 13506,4538 13506,4597 13514,4597 13514,4622 13506,4622 13506,4631 13523,4631 13523,4707 13531,4707 13531,4732 13573,4732 "
   id="polygon355"
   style="fill:#5c4c5b" />
   <polygon
   class="fil29"
   points="13692,5139 13683,5139 13683,5147 13692,5147 13692,5164 13700,5164 13700,5173 13683,5173 13683,5198 13700,5198 13700,5232 13709,5232 13709,5249 13692,5249 13692,5257 13700,5257 13700,5283 13709,5283 13709,5291 13734,5291 13734,5266 13726,5266 13726,5257 13717,5257 13717,5232 13726,5232 13726,5215 13734,5215 13734,5190 13743,5190 13743,5181 13717,5181 13717,5164 13726,5164 13726,5139 13709,5139 13709,5122 13726,5122 13726,5088 13734,5088 13734,5079 13726,5079 13726,5071 13717,5071 13717,5054 13726,5054 13726,5020 13717,5020 13717,5003 13726,5003 13726,4995 13700,4995 13700,4986 13692,4986 13692,4969 13700,4969 13700,4961 13692,4961 13692,4952 13675,4952 13675,4944 13667,4944 13667,4936 13675,4936 13675,4927 13667,4927 13667,4919 13650,4919 13650,4927 13641,4927 13641,4944 13650,4944 13650,4952 13658,4952 13658,4978 13675,4978 13675,4986 13683,4986 13683,5003 13675,5003 13675,5063 13683,5063 13683,5113 13692,5113 "
   id="polygon357"
   style="fill:#d4ceda" />
   <polygon
   class="fil9"
   points="8781,4114 8781,4123 8764,4123 8764,4140 8773,4140 8773,4148 8781,4148 8781,4190 8773,4190 8773,4199 8764,4199 8764,4224 8773,4224 8773,4241 8764,4241 8764,4250 8739,4250 8739,4258 8730,4258 8730,4301 8714,4301 8714,4309 8697,4309 8697,4317 8773,4317 8773,4284 8781,4284 8781,4275 8790,4275 8790,4267 8815,4267 8815,4258 8824,4258 8824,4250 8832,4250 8832,4165 8824,4165 8824,4148 8815,4148 8815,4140 8807,4140 8807,4123 8790,4123 8790,4114 "
   id="polygon359"
   style="fill:#72646e" />
   <polygon
   class="fil10"
   points="13726,5342 13726,5300 13734,5300 13734,5291 13709,5291 13709,5283 13700,5283 13700,5257 13692,5257 13692,5249 13709,5249 13709,5232 13700,5232 13700,5223 13675,5223 13675,5232 13650,5232 13650,5223 13641,5223 13641,5283 13650,5283 13650,5317 13658,5317 13658,5401 13675,5401 13675,5410 13692,5410 13692,5384 13683,5384 13683,5376 13692,5376 13692,5367 13709,5367 13709,5384 13717,5384 13717,5393 13726,5393 13726,5384 13734,5384 13734,5376 13726,5376 13726,5359 13734,5359 13734,5342 "
   id="polygon361"
   style="fill:#6d626b" />
   <polygon
   class="fil25"
   points="7714,4436 7723,4436 7723,4411 7731,4411 7731,4402 7723,4402 7723,4394 7689,4394 7689,4402 7681,4402 7681,4411 7672,4411 7672,4419 7647,4419 7647,4461 7638,4461 7638,4478 7630,4478 7630,4495 7621,4495 7621,4529 7630,4529 7630,4538 7647,4538 7647,4555 7655,4555 7655,4563 7664,4563 7664,4546 7672,4546 7672,4580 7664,4580 7664,4597 7655,4597 7655,4605 7647,4605 7647,4622 7664,4622 7664,4631 7672,4631 7672,4605 7681,4605 7681,4521 7672,4521 7672,4512 7681,4512 7681,4487 7672,4487 7672,4478 7689,4478 7689,4444 7714,4444 "
   id="polygon363"
   style="fill:#e6e2e6" />
   <polygon
   class="fil30"
   points="8036,4428 8045,4428 8045,4402 8036,4402 8036,4394 8019,4394 8019,4385 8002,4385 8002,4377 7918,4377 7918,4385 7909,4385 7909,4394 7901,4394 7901,4402 7909,4402 7909,4411 7918,4411 7918,4428 7926,4428 7926,4436 7935,4436 7935,4444 7943,4444 7943,4453 7935,4453 7935,4461 7952,4461 7952,4470 7960,4470 7960,4461 7968,4461 7968,4453 7985,4453 7985,4461 8011,4461 8011,4453 8036,4453 "
   id="polygon365"
   style="fill:#d6d2d8" />
   <polygon
   class="fil25"
   points="7706,5046 7706,5054 7731,5054 7731,5046 7757,5046 7757,5029 7765,5029 7765,5012 7757,5012 7757,4986 7740,4986 7740,4961 7723,4961 7723,4919 7689,4919 7689,4910 7681,4910 7681,4902 7672,4902 7672,4961 7681,4961 7681,4978 7672,4978 7672,5003 7681,5003 7681,5012 7672,5012 7672,5029 7681,5029 7681,5037 7672,5037 7672,5046 "
   id="polygon367"
   style="fill:#e6e2e6" />
   <polygon
   class="fil4"
   points="8366,3920 8366,3911 8341,3911 8341,3894 8349,3894 8349,3886 8333,3886 8333,3894 8324,3894 8324,3903 8316,3903 8316,3911 8307,3911 8307,3920 8299,3920 8299,3928 8290,3928 8290,3953 8282,3953 8282,3970 8273,3970 8273,3979 8265,3979 8265,4004 8273,4004 8273,4021 8282,4021 8282,4055 8307,4055 8307,4047 8316,4047 8316,3987 8324,3987 8324,3979 8333,3979 8333,3996 8341,3996 8341,4004 8349,4004 8349,3979 8358,3979 8358,3945 8366,3945 8366,3936 8375,3936 8375,3920 "
   id="polygon369"
   style="fill:#534353" />
   <polygon
   class="fil25"
   points="7850,4453 7850,4444 7892,4444 7892,4478 7909,4478 7909,4487 7918,4487 7918,4495 7926,4495 7926,4504 7935,4504 7935,4487 7943,4487 7943,4478 7952,4478 7952,4461 7935,4461 7935,4453 7943,4453 7943,4444 7935,4444 7935,4436 7926,4436 7926,4428 7918,4428 7918,4411 7909,4411 7909,4402 7901,4402 7901,4394 7909,4394 7909,4368 7892,4368 7892,4385 7884,4385 7884,4394 7867,4394 7867,4402 7850,4402 7850,4411 7833,4411 7833,4419 7825,4419 7825,4428 7816,4428 7816,4436 7808,4436 7808,4444 7799,4444 7799,4453 7791,4453 7791,4478 7799,4478 7799,4470 7808,4470 7808,4461 7841,4461 7841,4453 "
   id="polygon371"
   style="fill:#e6e2e6" />
   <polygon
   class="fil31"
   points="8434,3869 8434,3860 8417,3860 8417,3852 8392,3852 8392,3860 8366,3860 8366,3869 8349,3869 8349,3877 8341,3877 8341,3886 8349,3886 8349,3894 8341,3894 8341,3911 8366,3911 8366,3920 8375,3920 8375,3936 8366,3936 8366,3945 8358,3945 8358,3962 8375,3962 8375,3953 8392,3953 8392,3936 8426,3936 8426,3920 8409,3920 8409,3903 8493,3903 8493,3886 8476,3886 8476,3877 8443,3877 8443,3869 "
   id="polygon373"
   style="fill:#766a72" />
   <polygon
   class="fil25"
   points="7486,5215 7486,5223 7494,5223 7494,5240 7503,5240 7503,5249 7511,5249 7511,5257 7562,5257 7562,5240 7579,5240 7579,5232 7537,5232 7537,5215 7528,5215 7528,5206 7503,5206 7503,5173 7494,5173 7494,5147 7503,5147 7503,5122 7494,5122 7494,5130 7486,5130 7486,5122 7460,5122 7460,5139 7469,5139 7469,5156 7452,5156 7452,5173 7460,5173 7460,5190 7469,5190 7469,5206 7477,5206 7477,5215 "
   id="polygon375"
   style="fill:#e6e2e6" />
   <polygon
   class="fil32"
   points="11804,8805 11804,8813 11787,8813 11787,8847 11846,8847 11846,8839 11863,8839 11863,8830 11889,8830 11889,8813 11897,8813 11897,8822 11914,8822 11914,8805 11956,8805 11956,8788 11914,8788 11914,8796 11838,8796 11838,8805 "
   id="polygon377"
   style="fill:#b7b5c3" />
   <polygon
   class="fil33"
   points="9467,3081 9467,3090 9484,3090 9484,3098 9492,3098 9492,3107 9509,3107 9509,3115 9543,3115 9543,3107 9535,3107 9535,3081 9526,3081 9526,3073 9518,3073 9518,3064 9509,3064 9509,3039 9501,3039 9501,3031 9484,3031 9484,3022 9476,3022 9476,3031 9459,3031 9459,3047 9442,3047 9442,3056 9433,3056 9433,3073 9450,3073 9450,3081 "
   id="polygon379"
   style="fill:#211d21" />
   <polygon
   class="fil34"
   points="10339,9084 10339,9093 10331,9093 10331,9101 10305,9101 10305,9110 10271,9110 10271,9127 10348,9127 10348,9118 10407,9118 10407,9101 10415,9101 10415,9093 10432,9093 10432,9101 10458,9101 10458,9093 10466,9093 10466,9084 10441,9084 10441,9076 10424,9076 10424,9084 "
   id="polygon381"
   style="fill:#ababbb" />
   <polygon
   class="fil35"
   points="11626,9956 11626,9948 11618,9948 11618,9939 11609,9939 11609,9931 11567,9931 11567,9948 11558,9948 11558,9990 11567,9990 11567,9999 11584,9999 11584,10007 11609,10007 11609,9999 11626,9999 11626,9990 11635,9990 11635,9982 11643,9982 11643,9973 11635,9973 11635,9956 "
   id="polygon383"
   style="fill:#866768" />
   <polygon
   class="fil32"
   points="7892,5063 7909,5063 7909,5054 7926,5054 7926,5029 7960,5029 7960,4986 7952,4986 7952,5003 7943,5003 7943,5020 7935,5020 7935,5012 7918,5012 7918,5020 7909,5020 7909,5029 7901,5029 7901,5037 7892,5037 7892,5046 7875,5046 7875,5037 7850,5037 7850,5046 7841,5046 7841,5079 7952,5079 7952,5088 7960,5088 7960,5096 7968,5096 7968,5088 7977,5088 7977,5071 7875,5071 7875,5063 7884,5063 7884,5054 7892,5054 "
   id="polygon385"
   style="fill:#b7b5c3" />
   <polygon
   class="fil36"
   points="8595,4004 8612,4004 8612,4013 8620,4013 8620,3996 8629,3996 8629,4004 8646,4004 8646,3970 8629,3970 8629,3962 8620,3962 8620,3953 8612,3953 8612,3945 8603,3945 8603,3936 8595,3936 8595,3920 8578,3920 8578,3911 8561,3911 8561,3903 8510,3903 8510,3911 8544,3911 8544,3936 8553,3936 8553,3945 8578,3945 8578,3953 8587,3953 8587,3979 8603,3979 8603,3987 8595,3987 "
   id="polygon387"
   style="fill:#6b6679" />
   <polygon
   class="fil26"
   points="7901,4859 7901,4851 7892,4851 7892,4842 7875,4842 7875,4834 7850,4834 7850,4859 7841,4859 7841,4868 7858,4868 7858,4927 7884,4927 7884,4902 7892,4902 7892,4893 7909,4893 7909,4859 "
   id="polygon389"
   style="fill:#282228" />
   <polygon
   class="fil37"
   points="8620,4961 8637,4961 8637,4944 8646,4944 8646,4936 8654,4936 8654,4910 8663,4910 8663,4902 8654,4902 8654,4893 8646,4893 8646,4876 8637,4876 8637,4868 8629,4868 8629,4859 8612,4859 8612,4868 8595,4868 8595,4902 8603,4902 8603,4885 8637,4885 8637,4910 8629,4910 8629,4944 8620,4944 8620,4952 8612,4952 8612,4961 8603,4961 8603,4969 8595,4969 8595,4978 8587,4978 8587,4986 8578,4986 8578,4995 8612,4995 8612,4969 8620,4969 "
   id="polygon391"
   style="fill:#8a8697" />
   <polygon
   class="fil38"
   points="7257,3945 7257,3936 7266,3936 7266,3928 7274,3928 7274,3920 7283,3920 7283,3911 7291,3911 7291,3903 7308,3903 7308,3894 7317,3894 7317,3886 7325,3886 7325,3877 7333,3877 7333,3869 7308,3869 7308,3860 7283,3860 7283,3869 7274,3869 7274,3894 7249,3894 7249,3911 7240,3911 7240,3920 7232,3920 7232,3936 7249,3936 7249,3945 "
   id="polygon393"
   style="fill:#675968" />
   <polygon
   class="fil39"
   points="13573,4682 13590,4682 13590,4665 13582,4665 13582,4639 13607,4639 13607,4622 13599,4622 13599,4614 13590,4614 13590,4555 13548,4555 13548,4563 13556,4563 13556,4580 13565,4580 13565,4639 13573,4639 13573,4665 13565,4665 13565,4673 13573,4673 "
   id="polygon395"
   style="fill:#7b7997" />
   <polygon
   class="fil1"
   points="13497,4504 13497,4512 13531,4512 13531,4504 13540,4504 13540,4495 13548,4495 13548,4487 13556,4487 13556,4470 13540,4470 13540,4461 13523,4461 13523,4453 13506,4453 13506,4444 13489,4444 13489,4487 13480,4487 13480,4495 13489,4495 13489,4504 "
   id="polygon397"
   style="fill:#453545" />
   <polygon
   class="fil40"
   points="11584,8889 11584,8881 11609,8881 11609,8873 11618,8873 11618,8847 11601,8847 11601,8856 11592,8856 11592,8864 11584,8864 11584,8856 11575,8856 11575,8847 11550,8847 11550,8856 11533,8856 11533,8898 11575,8898 11575,8889 "
   id="polygon399"
   style="fill:#9ea6b0" />
   <polygon
   class="fil41"
   points="11711,8873 11711,8864 11745,8864 11745,8839 11762,8839 11762,8830 11677,8830 11677,8839 11668,8839 11668,8847 11660,8847 11660,8839 11651,8839 11651,8847 11643,8847 11643,8856 11668,8856 11668,8864 11685,8864 11685,8873 "
   id="polygon401"
   style="fill:#c9c9d6" />
   <polygon
   class="fil42"
   points="7681,4902 7681,4910 7689,4910 7689,4893 7706,4893 7706,4885 7714,4885 7714,4876 7731,4876 7731,4842 7706,4842 7706,4834 7681,4834 7681,4842 7672,4842 7672,4902 "
   id="polygon403"
   style="fill:#7a6c75" />
   <polygon
   class="fil36"
   points="7943,5020 7943,5003 7952,5003 7952,4961 7960,4961 7960,4969 7968,4969 7968,4978 7977,4978 7977,4952 7968,4952 7968,4944 7960,4944 7960,4936 7935,4936 7935,4952 7926,4952 7926,4961 7918,4961 7918,4978 7926,4978 7926,4986 7918,4986 7918,5003 7909,5003 7909,5020 7918,5020 7918,5012 7935,5012 7935,5020 "
   id="polygon405"
   style="fill:#6b6679" />
   <polygon
   class="fil43"
   points="13616,4749 13607,4749 13607,4732 13616,4732 13616,4715 13624,4715 13624,4707 13633,4707 13633,4682 13590,4682 13590,4690 13582,4690 13582,4758 13607,4758 13607,4766 13616,4766 "
   id="polygon407"
   style="fill:#8687a5" />
   <polygon
   class="fil24"
   points="8316,4114 8265,4114 8265,4123 8273,4123 8273,4131 8282,4131 8282,4157 8273,4157 8273,4165 8265,4165 8265,4199 8273,4199 8273,4190 8282,4190 8282,4174 8290,4174 8290,4165 8307,4165 8307,4157 8324,4157 8324,4131 8316,4131 "
   id="polygon409"
   style="fill:#3c2a34" />
   <polygon
   class="fil37"
   points="13548,4326 13531,4326 13531,4343 13523,4343 13523,4360 13531,4360 13531,4394 13523,4394 13523,4402 13514,4402 13514,4419 13540,4419 13540,4428 13556,4428 13556,4394 13548,4394 13548,4360 13556,4360 13556,4351 13565,4351 13565,4343 13548,4343 "
   id="polygon411"
   style="fill:#8a8697" />
   <polygon
   class="fil44"
   points="7156,4047 7156,4038 7113,4038 7113,4072 7105,4072 7105,4080 7096,4080 7096,4089 7088,4089 7088,4097 7071,4097 7071,4123 7096,4123 7096,4114 7113,4114 7113,4080 7122,4080 7122,4072 7130,4072 7130,4063 7139,4063 7139,4047 "
   id="polygon413"
   style="fill:#776b85" />
   <polygon
   class="fil45"
   points="8095,5181 8095,5198 8087,5198 8087,5223 8095,5223 8095,5232 8129,5232 8129,5164 8121,5164 8121,5181 8112,5181 8112,5173 8087,5173 8087,5181 "
   id="polygon415"
   style="fill:#8c7c8b" />
   <polygon
   class="fil46"
   points="8375,4140 8349,4140 8349,4131 8341,4131 8341,4106 8333,4106 8333,4097 8324,4097 8324,4089 8316,4089 8316,4080 8307,4080 8307,4072 8299,4072 8299,4055 8282,4055 8282,4063 8290,4063 8290,4089 8299,4089 8299,4097 8307,4097 8307,4106 8324,4106 8324,4123 8316,4123 8316,4131 8324,4131 8324,4148 8375,4148 "
   id="polygon417"
   style="fill:#a89ca6" />
   <polygon
   class="fil47"
   points="7884,4775 7884,4792 7892,4792 7892,4809 7926,4809 7926,4817 7943,4817 7943,4800 7952,4800 7952,4783 7918,4783 7918,4775 7909,4775 7909,4766 7892,4766 7892,4775 "
   id="polygon419"
   style="fill:#776979" />
   <polygon
   class="fil48"
   points="7554,5113 7554,5105 7562,5105 7562,5088 7545,5088 7545,5096 7503,5096 7503,5139 7511,5139 7511,5130 7537,5130 7537,5113 "
   id="polygon421"
   style="fill:#b7b1b3" />
   <polygon
   class="fil49"
   points="7401,7433 7401,7425 7359,7425 7359,7416 7325,7416 7325,7433 7342,7433 7342,7442 7410,7442 7410,7433 "
   id="polygon423"
   style="fill:#dad8dc" />
   <polygon
   class="fil34"
   points="7765,4851 7765,4885 7782,4885 7782,4893 7808,4893 7808,4876 7799,4876 7799,4851 "
   id="polygon425"
   style="fill:#ababbb" />
   <polygon
   class="fil50"
   points="13607,4893 13607,4902 13624,4902 13624,4876 13616,4876 13616,4859 13599,4859 13599,4868 13590,4868 13590,4885 13599,4885 13599,4893 "
   id="polygon427"
   style="fill:#bcb5bc" />
   <polygon
   class="fil51"
   points="13480,3953 13489,3953 13489,3962 13480,3962 13480,3979 13497,3979 13497,3962 13506,3962 13506,3945 13514,3945 13514,3936 13489,3936 13489,3945 13480,3945 "
   id="polygon429"
   style="fill:#dbdbe7" />
   <polygon
   class="fil52"
   points="12058,3395 12058,3403 12075,3403 12075,3378 12066,3378 12066,3369 12049,3369 12049,3395 "
   id="polygon431"
   style="fill:#655962" />
   <polygon
   class="fil53"
   points="14801,9270 14801,9262 14793,9262 14793,9254 14776,9254 14776,9279 14784,9279 14784,9287 14793,9287 14793,9270 "
   id="polygon433"
   style="fill:#4a4355" />
  </g>
 </g>
</svg>