<?xml version="1.0" encoding="UTF-8"?>
<!DOCTYPE svg PUBLIC "-//W3C//DTD SVG 1.1//EN" "http://www.w3.org/Graphics/SVG/1.1/DTD/svg11.dtd">
<!-- Creator: CorelDRAW X8 -->
<svg xmlns="http://www.w3.org/2000/svg" xml:space="preserve" width="210mm" height="297mm" version="1.1" style="shape-rendering:geometricPrecision; text-rendering:geometricPrecision; image-rendering:optimizeQuality; fill-rule:evenodd; clip-rule:evenodd"
viewBox="0 0 21000 29700"
 xmlns:xlink="http://www.w3.org/1999/xlink">
 <defs>
  <style type="text/css">
   <![CDATA[
    .fil13 {fill:black}
    .fil17 {fill:#040304}
    .fil20 {fill:#2B1C24}
    .fil14 {fill:#2C232B}
    .fil15 {fill:#33232C}
    .fil7 {fill:#342433}
    .fil11 {fill:#3B2A34}
    .fil9 {fill:#3C2C3B}
    .fil10 {fill:#432C3B}
    .fil22 {fill:#432D43}
    .fil4 {fill:#43333C}
    .fil2 {fill:#443443}
    .fil6 {fill:#4B3443}
    .fil8 {fill:#4B3A44}
    .fil12 {fill:#4C3C4B}
    .fil16 {fill:#533C4B}
    .fil19 {fill:#533C52}
    .fil24 {fill:#5A434C}
    .fil25 {fill:#5A4453}
    .fil23 {fill:#5C4A54}
    .fil21 {fill:#5C4B5B}
    .fil18 {fill:#634C5B}
    .fil26 {fill:#654856}
    .fil27 {fill:#67535A}
    .fil28 {fill:#675766}
    .fil33 {fill:#755968}
    .fil37 {fill:#77646A}
    .fil30 {fill:#776777}
    .fil32 {fill:#877886}
    .fil31 {fill:#8B6F72}
    .fil35 {fill:#9092AD}
    .fil34 {fill:#928992}
    .fil29 {fill:#A999A8}
    .fil36 {fill:#D1AB93}
    .fil1 {fill:#FAFAFA}
    .fil5 {fill:#FAFFFA}
    .fil3 {fill:#FDFDFD}
    .fil0 {fill:white}
   ]]>
  </style>
 </defs>
 <g id="Ebene_x0020_1">
  <metadata id="CorelCorpID_0Corel-Layer"/>
  <g id="_1565617076272">
   <path class="fil0" d="M12643 4592l-8 -4c-20,10 -14,7 -38,5l-105 6c-30,6 -40,3 -66,4 -8,0 -34,5 -46,6 -44,6 -26,-1 -41,2 -46,7 -37,1 -84,7 -10,52 -7,6 -5,53l-12 9c6,14 2,41 -6,63 3,9 6,10 6,20 0,1 0,12 0,13 -2,38 2,30 2,54 0,13 0,34 1,40 3,30 1,19 -3,44 17,35 11,33 6,71 -5,38 -2,37 1,60l6 95c1,14 4,27 5,40 2,24 -6,18 10,30 -6,27 -7,11 2,17l-2 28c8,5 5,0 9,11 -15,14 -7,15 -34,22l0 15c11,19 18,27 40,36 15,6 35,25 39,37 51,-10 43,17 72,15 14,5 8,4 23,-3 5,28 5,2 19,25 30,-14 7,6 63,3 10,0 70,11 75,13 11,-8 -3,-7 18,-4 1,0 2,0 3,0l53 10c55,17 54,-4 67,19 32,-23 51,-1 82,-4l116 8c10,-11 0,-5 12,-7l95 4c17,5 15,3 39,2 29,-1 54,14 80,14 26,0 75,-7 92,4 24,-18 34,3 53,1 19,-1 2,-3 24,1 51,8 81,-5 82,-4 17,9 10,8 34,6 28,-2 59,-6 87,7 18,-14 88,-5 115,-2 5,-5 6,-6 11,-11 11,6 17,2 35,2 -1,-15 -6,-24 5,-28 3,-5 1,-4 7,-8 1,0 12,-7 14,-8 6,-16 -1,-19 8,-20 3,-13 2,-9 0,-26 26,-16 22,-78 24,-94 2,-16 4,-19 -2,-30l9 -12 -5 -69c2,-12 1,-14 -1,-27 -2,-28 -5,-66 -19,-89l10 -12c-3,-21 -4,-68 -14,-88 -29,-56 0,-108 -12,-138 10,-23 6,1 6,-25 0,-15 0,-14 -3,-30 -2,-18 3,-42 16,-58 -6,-8 -1,7 -4,-8 -2,-17 4,-51 15,-61 0,-1 -1,-3 -1,-4 -1,-1 -2,-2 -2,-3l-5 -12c-5,-22 6,-9 -13,-38 -1,-1 -5,-8 -5,-8 -1,0 -2,-1 -2,-2l-132 -34 0 0 -34 3c-19,-3 -12,-1 -26,0 -5,1 -10,0 -19,0 -10,-1 -37,6 -39,0l-4 1c-31,-1 -39,3 -49,-1 -23,-11 -4,4 -63,-4 -15,-2 -11,-5 -26,-4 -8,0 -17,2 -24,2 -31,-1 -80,-8 -101,9 -28,-8 -42,-5 -70,2 -24,7 -51,4 -70,9l-129 17c-4,1 -13,2 -19,3 -36,8 -231,19 -248,12z"/>
   <path class="fil0" d="M13020 6266c-11,3 -12,0 -25,0 -24,1 -22,13 -63,6l-13 10c-16,-7 -29,0 -44,7 -14,7 -31,8 -47,11l-99 19c-7,22 -1,8 -24,13 -8,1 -21,6 -28,9 -6,-7 -5,-6 -4,-11 -11,4 -7,6 -16,12l-89 25c-13,2 -5,1 -19,6 -23,8 -19,10 -42,4 -4,13 5,10 -16,13 -42,5 5,-6 -51,15 -14,5 -28,14 -37,18 -14,5 -66,20 -76,29 -12,11 -12,18 -23,27 -28,22 -6,27 -30,45l-8 5c-4,2 -1,1 -8,5 0,-1 -3,-5 -3,-5l-17 -5c-3,3 -3,6 -6,9l-1 13c2,25 -5,-2 -10,25 35,17 31,-1 44,39 6,18 6,13 1,31 -5,20 -4,56 -5,62l-4 66c3,17 -4,21 -3,36l7 79c5,18 8,9 10,24 3,15 8,15 8,31 0,21 -5,15 -3,35 2,12 4,29 4,41 -1,29 -7,6 -4,58 1,11 -1,14 -1,27 -7,5 -3,2 -10,7 1,20 -3,31 -13,48 -8,12 -4,-7 -8,15l14 3c15,3 24,3 37,-8 7,4 7,4 13,9 23,-22 65,-16 79,-18 33,-4 69,-6 98,-9l98 -6c17,-2 12,4 38,1 14,-2 33,-2 52,-3 25,-2 10,-6 66,-8l30 -1c9,-1 40,-1 47,0 22,2 38,-6 99,-5 19,1 32,-3 50,-4 53,-3 13,-2 51,2 14,1 11,1 22,-3 10,-4 11,-5 20,-9l7 10 97 -14c44,-7 54,-1 92,8 9,-6 5,-3 12,-12 31,-3 37,-7 70,-2 23,3 29,-10 61,6 9,-14 15,-12 37,-14 32,-5 29,-1 41,-3 17,-2 -4,-2 14,-3 17,-2 26,9 88,4 22,-1 16,9 83,-7 6,2 3,2 11,-1 -4,-13 4,5 26,-19 49,-53 14,11 43,-99 5,-23 0,-39 5,-61 1,-1 3,-3 3,-2l12 -4 -12 -9c-4,-27 3,-63 6,-85 3,-25 -9,-120 -2,-141 -1,-1 -2,-3 -2,-2l-5 -8c-8,-16 -5,-36 -13,-50 -4,-8 -10,-20 -11,-29 -2,-18 5,8 1,-14 0,0 -6,-16 -7,-18 7,-27 9,-2 5,-27 -2,-17 1,-18 0,-30 -2,-31 -13,-18 -5,-55l-15 -83c-6,-16 -6,-12 -19,-19 -1,-31 0,-24 -12,-50l-2 -4 -1 -66c-23,2 -19,-3 -40,-2 -24,1 -105,4 -115,-9l-10 10c-22,2 -36,4 -58,3 -23,-2 -3,-2 -24,3 -9,2 -18,2 -27,2 -24,0 -41,8 -87,9 -32,1 -24,-1 -27,-3l-7 11c-25,-3 -125,6 -148,16 -18,8 -8,-1 -29,5l-28 5c-51,2 4,7 -46,8z"/>
   <path class="fil0" d="M11984 5311c-2,8 -6,17 -8,23 -6,24 9,51 -17,70l14 65c22,2 -4,0 32,16l7 4c0,1 1,2 2,2 7,2 12,2 19,4 13,4 7,5 16,8 8,4 9,2 16,5 26,9 1,13 39,5 16,23 -1,-9 25,23l4 -13c16,2 25,9 41,10 22,2 35,-5 45,10l27 -3c22,23 12,30 25,60l-3 35c2,18 -7,34 -11,52 -3,18 1,-1 1,14l-12 75c-16,40 -3,7 -7,47 -2,28 5,43 -12,66 1,1 2,1 2,3 4,21 -8,-17 4,5 11,21 0,16 0,38 0,21 7,39 1,55 -5,17 0,3 0,20 1,30 -5,4 -4,25 0,7 5,14 4,26 -1,11 -6,15 -9,29 12,-4 1,11 -2,23l-2 78c1,9 19,48 -3,77l-7 7 6 2c17,-2 0,1 14,-5l6 -2c52,-19 -4,-13 109,-37 10,-3 24,-6 33,-10 56,-25 88,-20 100,-35l32 8c3,-14 2,-10 10,-15 1,0 3,0 3,-1 12,-6 21,-13 34,-16 25,-6 -12,10 28,-6 8,-4 24,-7 33,-9 2,0 11,-3 13,-3l115 -33c15,-4 27,-13 66,-9l77 -3c13,0 17,-4 30,-5 10,0 16,2 29,-1 22,-5 49,-1 71,-15 14,2 30,4 46,6 21,3 17,2 33,-9l150 -15c0,0 2,-1 3,-2 11,16 24,12 40,2 25,8 21,2 40,5 15,3 23,3 37,5 27,4 70,-12 110,-9l32 1c38,4 40,3 74,-4 5,0 10,16 67,6 4,-23 -4,-33 -7,-52 -1,-11 0,-21 -4,-32 -6,-18 -9,2 -3,-21 -6,-21 13,-16 5,-40 -7,-26 -10,-16 -1,-47 -6,-14 -5,-14 -5,-29 -1,-20 -1,0 -4,-12 -2,-8 -1,-19 -2,-28 -2,-21 0,-34 -10,-50 15,-30 -2,-82 19,-107l-246 -32c-23,-5 -26,-1 -39,-1 -7,-1 -16,-6 -18,-6 -17,-3 -3,3 -22,-1l-31 1c-14,-1 -18,-2 -34,-3 -15,-1 -23,-2 -38,-2 -17,0 -22,3 -31,2 -12,0 -24,-6 -35,-6 -18,2 4,4 -13,3l-107 0c-15,1 -8,1 -13,-3l-30 -5c-3,5 5,2 -4,3 -22,3 -74,-13 -118,-13 -20,-1 -10,-3 -21,-4 -5,0 -24,4 -67,1 -31,-2 -61,3 -70,3 -44,-2 -42,2 -56,-13 -3,8 -4,6 -8,10l-67 -12c-28,-3 -38,1 -63,-9l-12 10c-15,-3 -28,-7 -42,-12l-13 8c-22,-9 -139,-20 -170,-31l-59 -16c-12,-4 -14,-10 -23,-14 -13,-7 -16,-4 -28,-14 -7,-6 -12,-12 -22,-15 -11,-4 -19,-5 -30,-12 -7,-5 -3,-4 -12,-9 -4,-2 -10,-5 -12,-6 -10,-6 -3,-1 -11,-9 -3,-3 -1,-1 -7,-6 -1,-1 -4,-3 -5,-4l-39 -74c-16,2 -3,-2 -18,5 10,-21 2,-31 3,-45l13 -35c0,-1 0,-1 0,-2 -8,-2 -18,-5 -26,-5l5 26 -17 10z"/>
   <path class="fil1" d="M13488 5536l-8 -3 -4 12c-3,-4 -1,5 -6,-10l-107 0c-1,0 -2,0 -2,-1l-6 -7c-21,15 -8,9 -17,9l-67 -11c-25,-1 -42,-5 -66,1 -22,7 -7,0 -27,-1 -14,-1 -3,1 -14,1 -12,1 3,1 -9,-1l-131 -12c-30,-8 -40,1 -81,-5 -14,-2 1,-1 -20,3l-16 -9c-24,6 -24,9 -49,5l-81 -2c-45,-6 -21,0 -39,0 -6,1 -16,-8 -36,-6 -24,2 -25,4 -47,-4 -24,-8 -67,-3 -83,-18 -9,4 -10,6 -21,9 -29,-17 -42,-4 -69,-13 -18,-5 -49,-7 -59,-17l-14 2 -73 -27c-45,-16 -41,-29 -71,-22 -2,-19 -2,-14 -23,-19l-12 9 4 -20 -26 -12c-8,-5 -4,-2 -7,-5 -5,-5 1,2 -6,-7l-15 -22c5,-14 1,-6 8,-16 8,-11 3,5 6,-12 -27,7 -72,1 -100,-7 -15,-5 -14,-11 -34,-4l10 43c5,19 20,24 9,40 27,7 10,4 24,19 10,11 11,7 20,22 48,0 45,16 68,24 8,3 17,4 23,6l9 20c17,1 63,13 82,18 40,11 53,14 83,8l5 4c21,13 45,7 49,7 22,-1 18,14 55,1 12,10 18,12 37,11 17,0 30,-2 47,0 16,1 26,7 36,6l114 3c23,0 69,8 85,0l7 9 22 -7 12 9c28,-9 62,6 108,2 17,12 41,-5 50,8 11,0 23,3 31,3 39,-1 69,-7 105,6l11 -12c6,7 5,10 21,11 10,1 15,0 27,1 7,1 14,1 22,0 23,0 -4,1 15,-4 22,-5 75,10 99,10 18,0 31,-2 49,2 21,4 28,6 47,8 45,2 47,22 84,9l17 12c13,-7 7,-11 28,-6 33,8 29,2 55,6 31,4 7,-2 30,-1l51 1c40,-10 19,-6 54,0 25,-8 12,-9 44,-8 13,0 14,-4 22,-10 8,-5 -2,0 9,-4 2,5 1,2 2,6 0,0 0,2 0,2 0,1 1,3 1,3 0,-1 1,1 1,2 8,-2 27,-4 34,-3 14,2 0,7 31,1 23,-4 79,0 98,-1 60,-5 49,1 70,1 9,0 21,-4 26,-4 20,-1 43,5 62,1l131 -4c14,0 17,4 32,2 21,-2 4,-5 27,2 21,-12 47,-18 77,-17 10,-15 5,-17 28,-16l17 -31c17,-17 27,-11 42,-35 3,-5 1,-3 5,-8 23,-28 9,-28 35,-25 9,-23 13,-18 36,-26 7,-9 11,-5 19,-5 52,3 35,-13 59,-6 1,-1 2,-2 3,-2 0,0 2,-1 2,-2l15 -11c28,-20 43,-2 66,-31 57,14 69,-21 98,-1 39,-22 47,3 76,-6l5 8 7 8c13,-1 16,-3 30,5 1,0 2,3 3,2 0,-1 2,2 3,3 20,5 16,3 18,24 25,7 22,11 28,36 11,49 -5,66 -6,87 -1,22 8,30 2,50l10 8c-9,31 3,17 2,36 -1,19 -10,26 7,39 -5,23 -6,49 0,70l8 34c2,12 6,18 10,31l0 8c28,99 15,46 35,87 -13,30 -3,13 -3,38 -1,27 -8,-14 1,37 8,42 2,91 5,130 5,86 -10,29 3,128l4 31c3,35 16,11 13,59 -2,23 2,35 4,58 -8,17 -7,9 -8,27 -3,32 -38,25 -61,32 -4,1 -5,4 -7,4 -16,-10 -52,-17 -71,-14 -24,2 -1,1 -23,-4 -18,-4 -90,-13 -106,-7 -20,-8 0,-4 -19,-9l-29 -7c0,0 -11,0 -12,0 -16,1 -7,3 -26,3 -15,-15 -7,-12 -31,-12 -3,-5 -7,-9 -10,-12l-17 5c-16,-17 -46,-20 -46,-20l-21 -19c-9,-6 -21,-8 -32,-14 -1,-1 -5,-2 -6,-3 -33,-18 -28,-28 -51,-32 -4,-7 -1,-3 -1,-11 -18,-6 -11,2 -18,-15l-22 0c-7,-22 -18,-14 -34,-33l-33 -36c-1,0 -3,-1 -4,-2 -10,-8 -16,-22 -19,-33 -28,-4 -69,-37 -103,-46 -24,-6 -42,-5 -67,-8l-40 -2c-28,0 -59,-4 -89,0 -38,5 -20,-1 -45,1l-6 1c-1,0 -2,0 -3,0 -63,-6 -40,2 -101,4 -15,1 -16,-2 -29,-5 -11,6 -21,9 -38,7 -23,-2 -8,-5 -37,0 -49,6 -124,0 -164,3 -26,1 -60,3 -75,-10l-6 7c0,-1 -2,1 -2,2 -49,-10 -33,7 -51,-8 -5,9 -4,6 -8,10 -1,-1 -96,-6 -107,-1l-8 6c0,-1 -1,2 -2,3 -23,-9 -196,-7 -207,-4 -30,9 -47,-2 -82,6 -15,3 -5,5 -23,5 -18,0 -28,7 -86,8 -23,0 -35,8 -58,1 -13,14 -2,7 -25,11l-147 8c-18,3 -35,13 -50,5l-107 31c-26,0 -15,17 -44,5 -9,24 2,0 -54,27 -21,10 -41,14 -63,23l-16 -3c0,1 -1,2 -1,3 -1,1 -3,4 -4,5 -20,0 -63,17 -97,25 -16,3 -18,5 -24,16 -10,-4 -8,-4 -21,-5 -19,20 -49,15 -120,62 -43,29 -34,28 -76,62l-23 20c7,17 -5,-15 -31,34 -16,31 -26,23 -23,58 -17,20 -11,1 -21,29l-19 0c-7,51 -4,12 -12,44 52,-12 66,-1 80,-16l23 -6c8,-10 27,-10 53,-24 2,-1 30,-23 40,-38l12 -2c13,-5 3,-1 21,5l-1 -13 -8 0c8,-30 -11,-28 14,-45 33,-20 -3,-22 32,-18l4 -22c29,-12 60,-30 87,-46 12,-7 37,-11 51,-16l59 -17c16,-2 24,-12 39,-18l19 -7 33 -5c21,-4 47,-7 64,-15 19,-8 109,-27 126,-33 50,-17 19,5 58,-19l7 10c11,-13 8,-10 24,-10l15 -8 17 0c9,-10 26,-14 40,-13 23,1 9,-3 23,-6 10,-2 13,2 21,2l23 -5c20,-3 35,3 46,-15 19,6 19,7 43,7l1 -6c16,0 29,-3 46,-4l84 -17c8,-1 17,2 20,1l11 -7c8,4 9,5 14,11l5 -5c1,-1 2,-2 3,-2 1,-1 3,0 4,-2 0,-2 2,-1 3,-2l5 4 8 -4c16,-1 11,-5 28,-4 62,1 28,-5 54,-9 1,0 28,2 33,2 31,2 8,2 29,-3l68 -8c17,-1 8,6 24,-6 19,13 41,7 84,5l87 -2 8 5c23,-2 18,-4 39,-1 15,2 29,3 42,-2l4 6 18 -3c8,-5 9,-1 15,1 19,5 12,-5 38,4 8,3 5,4 15,7l81 -2c56,-2 58,5 67,5 8,0 7,-2 13,-3 24,-2 56,11 76,-4l11 17c13,-13 25,-13 53,-10 47,6 -6,8 44,6 99,-2 51,3 95,14 16,4 10,-1 26,-1 49,1 46,36 66,48 1,1 2,1 3,1 24,14 16,24 34,33 60,28 20,18 66,60l29 24c1,1 2,2 2,3 0,0 27,15 36,31l11 4c7,16 11,15 43,34 18,11 8,3 21,8l43 15c42,23 69,10 97,34 22,-3 14,-4 31,2l5 -10 5 12 19 -3 1 8c18,-4 17,-7 36,-3l21 -1c18,6 83,8 102,-7 1,0 2,-1 3,-2 17,12 47,2 73,0l24 0c5,-14 14,-19 26,-25 24,-13 13,-8 29,-34l6 -11c12,-19 18,-56 19,-57 0,-1 1,-3 1,-4 0,-1 1,-2 1,-3l4 -70c6,-24 1,-12 0,-32 -2,-17 1,-23 -4,-41 0,-16 0,-31 2,-47 6,-67 -17,-51 -13,-98l-13 -7c3,-33 -14,-55 -7,-102 2,-18 7,-39 5,-55 -6,-38 1,-91 -3,-118 -3,-23 -4,-31 -2,-54 3,-28 -9,-18 -12,-40 -8,-47 -14,-37 -11,-66 -19,-17 -9,-69 -31,-82 12,-28 5,-9 2,-31 -1,-16 4,-12 1,-27 -2,-8 -8,-20 -9,-24 -2,-9 1,-22 1,-33l-20 -29c7,-41 -3,-26 -4,-52 -14,-7 -11,-5 -16,-20 -12,-6 -25,-17 -39,-22 -16,-6 -30,-11 -43,-12l-11 3 -12 -10 -9 10c-39,-10 -14,-1 -44,0 -11,1 -45,-3 -69,4 -15,5 -21,10 -48,7l-105 9c-35,2 -33,-6 -50,20l-19 -5c-7,20 -8,-2 -27,27 -15,2 -29,9 -37,17 -30,32 -40,52 -66,84 -9,12 2,1 -7,10 -47,45 -13,21 -60,44 -40,20 -147,36 -178,24 -21,16 -4,8 -50,4 -10,-1 -16,2 -25,2 -11,0 -13,-2 -23,-4 -9,-1 -34,-1 -48,-1l-34 -4c-16,-2 -12,6 -49,4l-47 -4c-30,-4 -25,4 -72,-3 -13,-2 -2,0 -16,1l-186 8c-23,3 -11,-5 -39,2 -24,6 -29,-1 -51,-2 -23,-1 -73,8 -88,4z"/>
   <path class="fil2" d="M11949 5282c10,-8 8,14 8,-16l5 14c4,3 10,0 16,-2l-9 22 18 2 -3 9 17 -10 -5 -26c8,0 18,3 26,5 0,1 0,1 0,2l-13 35c-1,14 7,24 -3,45 15,-7 2,-3 18,-5l39 74c1,1 4,3 5,4 6,5 4,3 7,6 8,8 1,3 11,9 2,1 8,4 12,6 9,5 5,4 12,9 11,7 19,8 30,12 10,3 15,9 22,15 12,10 15,7 28,14 9,4 11,10 23,14l59 16c31,11 148,22 170,31l13 -8c14,5 27,9 42,12l12 -10c25,10 35,6 63,9l67 12c4,-4 5,-2 8,-10 14,15 12,11 56,13 9,0 39,-5 70,-3 43,3 62,-1 67,-1 11,1 1,3 21,4 44,0 96,16 118,13 9,-1 1,2 4,-3l-6 -20c1,-18 -3,0 2,-8l-22 -13 8 -15c-46,4 -80,-11 -108,-2l-12 -9 -22 7 -7 -9c-16,8 -62,0 -85,0l-114 -3c-10,1 -20,-5 -36,-6 -17,-2 -30,0 -47,0 -19,1 -25,-1 -37,-11 -37,13 -33,-2 -55,-1 -4,0 -28,6 -49,-7l-5 -4c-30,6 -43,3 -83,-8 -19,-5 -65,-17 -82,-18l-9 -20c-6,-2 -15,-3 -23,-6 -23,-8 -20,-24 -68,-24 -9,-15 -10,-11 -20,-22 -14,-15 3,-12 -24,-19 11,-16 -4,-21 -9,-40l-10 -43c20,-7 19,-1 34,4 28,8 73,14 100,7 -3,17 2,1 -6,12 -7,10 -3,2 -8,16l15 22c7,9 1,2 6,7l3 -13c4,4 3,3 8,7 4,-7 2,-3 7,-9l31 6c-2,-14 -3,-6 2,-19 -19,5 -26,-25 -25,-30 1,-12 0,-4 6,-13 0,2 0,2 1,4 8,32 -16,-20 7,8l0 -15c27,-7 19,-8 34,-22 -4,-11 -1,-6 -9,-11l2 -28c-9,-6 -8,10 -2,-17 -16,-12 -8,-6 -10,-30 -1,-13 -4,-26 -5,-40l-6 -95c-3,-23 -6,-22 -1,-60 5,-38 11,-36 -6,-71 4,-25 6,-14 3,-44 -1,-6 -1,-27 -1,-40 0,-24 -4,-16 -2,-54 0,-1 0,-12 0,-13 0,-10 -3,-11 -6,-20 8,-22 12,-49 6,-63l12 -9c-2,-47 -5,-1 5,-53 47,-6 38,0 84,-7 15,-3 -3,4 41,-2 12,-1 38,-6 46,-6 26,-1 36,2 66,-4l105 -6 -8 -10c-12,-10 -8,-7 -9,-25 27,6 26,15 27,13 0,0 1,1 1,2 11,-13 3,-6 9,-11l12 -14c-26,-5 -4,4 -28,2l-21 -5c-19,25 -35,-11 -62,5 -13,8 -27,5 -51,5l-8 11c45,1 -4,6 -8,8 5,11 -2,5 16,6l11 4c-1,0 -3,1 -4,1l-6 3c-1,1 -2,1 -3,2 -1,0 -5,4 -6,6 -2,-1 -4,-2 -5,-2l-8 -4c-1,-1 -2,-1 -2,-2l-9 -19 22 -2 -6 -12c-10,1 -21,9 -31,9 -15,2 5,-2 -19,-2 -23,1 1,6 -67,4 -22,-1 -30,2 -46,-5l-13 12c-41,-11 -79,3 -89,4 -16,3 -64,-13 -87,-3l-67 -16c-10,-16 -12,-19 -39,-17 -8,12 -17,20 -20,33 -7,24 -2,32 -4,47 -2,18 -6,9 -8,22 -2,8 0,16 -2,26 -1,9 -5,18 -6,24l-7 47c-9,36 14,32 -6,95 -3,8 -6,61 -2,75 -23,31 -11,89 -13,142 -1,18 -25,85 -14,146 23,9 9,3 30,24l24 35 -16 25z"/>
   <path class="fil3" d="M14432 5614c-68,21 -138,14 -207,14 -30,-1 -45,2 -71,1 -55,-2 -88,5 -109,5 -11,0 -18,-5 -32,-3 -26,5 -80,3 -110,1 -19,-1 -13,-3 -25,5 -24,-9 -33,-4 -71,-1l-130 8c-1,19 -1,37 -1,57 0,32 5,31 7,54 6,35 1,5 0,25 0,7 7,23 10,30 -4,11 -5,11 -9,24l11 3c14,-31 41,-18 45,-17 16,0 4,-11 61,3 11,2 3,-4 39,3 4,-14 47,-5 63,-5 15,1 52,-1 63,-7l5 6c21,-7 13,-5 34,-7 13,-1 31,5 46,3 71,-8 111,25 145,27l12 20c17,1 39,-7 43,23 18,0 13,-3 24,7l2 7c24,3 35,25 65,36l35 14c13,7 1,6 20,14 18,7 13,0 20,16 6,-15 1,-1 9,-8 27,17 74,22 106,14 19,-4 16,2 56,-6l32 -10c4,-1 25,5 29,-35 0,-7 -23,-80 -18,-109 4,-23 11,0 2,-61 -2,-14 -1,-51 3,-68 10,-47 -20,-64 4,-88 -3,-4 -6,-7 -10,-13 4,-19 6,-11 8,-33 5,-45 13,-39 -9,-48l0 -33 -9 -13 -27 -2c0,0 -4,6 -5,7l-4 4c-6,6 -6,8 -9,12 -7,6 -16,9 -23,15l-33 42c-18,21 -11,22 -37,43 -2,2 -35,22 -50,24z"/>
   <path class="fil3" d="M14818 5448l9 10c1,1 3,7 5,11 2,26 8,34 8,56 1,19 1,42 1,63 0,39 16,75 -1,109l8 12 -11 21c4,12 1,8 10,14 -9,19 -8,9 -10,34 -1,38 -20,70 -18,128 2,38 13,54 -1,84 11,4 14,12 17,22 4,12 2,16 0,28 13,6 6,3 17,16 -4,11 5,2 -8,13 14,27 13,71 -6,87 -2,5 3,5 -10,17 -24,23 -49,22 -78,29 -16,4 -47,-3 -63,-8 -15,-4 -13,-2 -27,-5 -13,-2 -3,-2 -18,-5 -30,-6 -20,2 -40,-2 -51,-10 -2,0 -37,-4 -31,-3 -13,-16 -38,-4 -8,-13 -8,-12 -28,-12l-12 7c7,19 9,12 16,28 33,5 1,-2 53,34 10,7 3,3 11,10 15,12 10,2 27,20 7,7 -5,6 12,7l13 -1c8,27 43,27 47,30 13,9 -5,10 42,21 20,5 11,7 22,12 16,9 8,-7 21,11 22,-7 21,2 52,4l46 9c0,1 2,1 2,1 16,7 -5,5 5,3 23,-6 76,2 93,11l12 -7c9,8 4,4 13,8l8 -8c18,10 31,10 56,14 8,2 12,-2 24,-2 -3,-42 8,-16 -3,-64 -3,-13 -8,-56 -10,-61l2 -17c-12,-9 -16,-18 -13,-36 5,-27 0,-17 -1,-39 -1,-10 4,-28 7,-39 8,-32 -6,-28 -2,-78 2,-42 -12,-76 -2,-122 -6,-9 -10,-26 -14,-34 21,-13 -2,4 14,-3 -10,-9 -21,-17 -25,-34 -7,-39 -6,-22 -13,-46 -4,-17 -2,-31 -8,-49 -5,-13 -6,-7 -6,-21 0,-11 1,-12 -4,-22 10,-10 -13,-3 11,-8 -11,-12 -26,-64 -22,-80 8,-29 4,-16 -2,-42 -18,-73 8,-97 1,-123 -7,-22 -55,-41 -58,-43 -19,-3 -78,-5 -91,-2 -8,15 -6,20 -5,37z"/>
   <path class="fil0" d="M11958 5755c-6,79 19,68 -6,126 16,28 6,37 7,65 1,36 -4,37 -15,66 19,17 7,18 2,62 -2,16 -5,16 -5,24l7 42c0,9 -5,10 -3,24 2,23 12,26 -5,47 8,41 -9,27 -4,45 6,21 -3,8 17,11l8 -4c5,3 9,4 12,7 1,1 1,2 2,2l3 6c1,1 2,2 2,3 1,0 1,2 2,3 27,-1 40,-10 52,-28l28 2c15,-16 29,-9 49,-23 12,-9 25,-19 42,-30l20 -85c-1,-14 1,-24 1,-34 -1,-18 -3,-8 1,-30 2,-12 2,-20 4,-32 5,-18 0,-18 2,-29 5,-49 -3,-25 -1,-62 1,-25 7,-48 -1,-69 10,-18 3,-6 6,-27 5,-43 9,-29 7,-72 -1,-23 5,-11 3,-36l14 -6c-1,-17 -3,-14 -4,-23 -2,-14 8,-54 5,-70l4 -7c2,-2 4,-4 6,-6l-10 -29c-51,1 -93,-24 -111,-15l-58 -20c-12,-1 -15,-6 -21,-15 -30,3 -35,-4 -44,-11 -11,-8 -4,-2 -17,-8 -6,-3 -9,-6 -19,-8 0,1 -1,3 -1,3 -19,54 -5,9 -8,82 -1,26 2,17 14,46 -4,5 -6,8 -11,15l15 4c-1,30 9,52 0,82 9,11 4,1 9,12z"/>
   <path class="fil4" d="M12099 6580l-6 9c17,5 7,3 19,7 -1,2 -3,3 -4,4 -17,17 -5,15 -25,19 -1,-1 -1,-3 -1,-3 -1,0 -1,-2 -1,-3 -4,-10 1,-7 -11,-8l14 -9c5,-24 4,-5 -8,-10 -14,15 -28,4 -80,16 6,8 -9,4 5,7 -21,37 24,41 27,50l-4 0 4 8c1,-1 2,-2 2,-3 16,-18 19,-9 52,-21 1,-1 2,-1 3,-2l64 -24c6,2 10,5 17,8 16,-7 16,-11 31,-2 17,10 10,24 8,37 -3,18 1,14 1,30 -1,34 -1,24 -8,57 -3,17 0,43 0,63 0,22 12,50 13,57 1,19 -5,36 3,54 6,13 5,-4 6,13l3 39c7,44 -9,73 -13,86 0,0 -4,23 -6,16 0,0 -2,2 -3,2 9,16 11,21 -3,28l5 22c-2,43 6,36 12,49 -29,4 -16,2 -36,12 -9,-4 -5,-2 -9,-5 -23,-16 -39,7 -103,-11 -22,-5 -22,-11 -35,-19 -25,-13 -12,0 -29,-20 -23,-2 -16,0 -32,-11 -3,-3 -9,-6 -13,-8 -25,-15 -5,-17 -7,-45 -2,-13 -7,-18 -7,-33 1,-11 6,-22 7,-32 2,-20 -18,-23 7,-38 -2,-14 -6,-24 -6,-39 1,-21 4,-18 -1,-40 -4,-19 3,-47 -1,-73 -6,-35 -23,-96 -13,-133 -3,-1 -22,5 3,-22 -34,5 -21,8 -24,16 5,-17 4,-5 -2,-12 -7,2 -5,0 -7,9l-12 -13 0 14c-22,19 -6,71 -6,78l8 116c-2,45 4,75 0,92l-5 86c5,26 -9,41 -9,87 72,71 36,24 95,63 22,15 -15,0 33,21 32,13 -5,13 81,24 46,6 33,-4 57,-4l163 -15c28,-6 103,-15 130,-13l73 -7c14,-2 4,11 15,-8 1,1 2,1 2,3l11 8c20,-16 10,2 50,-9l10 6c1,0 2,1 3,1 28,-16 36,6 67,-14 12,6 110,-2 138,-4 31,-2 50,-7 79,-5 14,0 29,3 42,1 22,-2 19,-6 42,0 18,-8 0,-5 21,-4 9,0 15,0 24,-8l7 4c1,0 2,1 3,2 12,-8 5,-3 20,-3 1,0 12,-1 13,-1 21,2 -3,2 13,3l85 -11c34,-5 9,-7 49,-2l157 -8c17,-3 27,1 47,1l25 -17c-21,-14 1,16 -5,-8 0,-1 1,-7 1,-9 -36,4 -24,-8 -25,-12 14,-9 7,-8 25,0l0 -14c-22,2 -28,0 -37,14 -32,-16 -38,-3 -61,-6 -33,-5 -39,-1 -70,2 -7,9 -3,6 -12,12 -38,-9 -48,-15 -92,-8l-97 14 -7 -10c-9,4 -10,5 -20,9 -11,4 -8,4 -22,3 -38,-4 2,-5 -51,-2 -18,1 -31,5 -50,4 -61,-1 -77,7 -99,5 -7,-1 -38,-1 -47,0l-30 1c-56,2 -41,6 -66,8 -19,1 -38,1 -52,3 -26,3 -21,-3 -38,-1l-98 6c-29,3 -65,5 -98,9 -14,2 -56,-4 -79,18 -6,-5 -6,-5 -13,-9 -13,11 -22,11 -37,8l-14 -3c4,-22 0,-3 8,-15 10,-17 14,-28 13,-48 7,-5 3,-2 10,-7 0,-13 2,-16 1,-27 -3,-52 3,-29 4,-58 0,-12 -2,-29 -4,-41 -2,-20 3,-14 3,-35 0,-16 -5,-16 -8,-31 -2,-15 -5,-6 -10,-24l-7 -79c-1,-15 6,-19 3,-36l4 -66c1,-6 0,-42 5,-62 5,-18 5,-13 -1,-31 -13,-40 -9,-22 -44,-39 5,-27 12,0 10,-25 0,0 -1,0 -2,0l-8 1c-32,-7 7,-32 -17,-31l-12 2c-10,15 -38,37 -40,38 -26,14 -45,14 -53,24z"/>
   <path class="fil4" d="M14770 5233l3 12c-42,3 -16,-8 -49,1 -36,10 -24,7 -35,0 -8,6 -10,11 -38,9 -35,-3 5,-3 -29,2 0,22 -2,26 -25,30 -6,-8 -11,-13 -20,-21l1 12c-10,2 -15,1 -18,12l12 3c6,-9 10,-8 11,-11 0,-1 1,-1 3,-2l3 23c-1,1 -3,2 -4,2 0,0 -2,1 -3,1 -6,0 -4,-3 -6,-5 -8,17 -14,14 -33,19 14,20 11,8 25,19 -24,2 -18,6 -30,-1l-12 -9c0,0 -7,-6 -8,-7 1,0 3,3 3,-3 1,-6 16,-13 -4,-9 -19,12 -20,-1 -36,19 -16,22 8,2 -25,33 -39,37 -24,45 -56,71l-72 35c-40,7 -72,19 -95,5l-20 6c-49,1 -48,10 -66,-9 -9,5 -5,3 -9,5l-135 0c-51,0 -51,-7 -58,8 -28,-20 -2,-9 -35,-9 -14,-1 -2,1 -16,-8 -14,12 -28,-1 -50,0 -10,0 -15,4 -25,4 -31,3 -9,-13 -42,9 -10,-11 -14,-14 -35,-10l1 -15c-14,0 -6,13 -6,27l-22 10c-14,-9 -2,-6 -17,-16 -17,1 -10,-1 -12,-6l-9 1 -2 -23c-11,4 -6,13 -5,28 -18,0 -24,4 -35,-2 -5,5 -6,6 -11,11 -27,-3 -97,-12 -115,2 -28,-13 -59,-9 -87,-7 -24,2 -17,3 -34,-6 -1,-1 -31,12 -82,4 -22,-4 -5,-2 -24,-1 -19,2 -29,-19 -53,-1 -17,-11 -66,-4 -92,-4 -26,0 -51,-15 -80,-14 -24,1 -22,3 -39,-2l-95 -4c-12,2 -2,-4 -12,7l-116 -8c-31,3 -50,-19 -82,4 -13,-23 -12,-2 -67,-19l-53 -10c-1,0 -2,0 -3,0 -21,-3 -7,-4 -18,4 -5,-2 -65,-13 -75,-13 -56,3 -33,-17 -63,-3 -14,-23 -14,3 -19,-25 -15,7 -9,8 -23,3l6 10c4,12 2,7 9,15 -1,1 -2,2 -2,3l-3 8c-2,8 0,-15 0,10 -8,-3 -13,-5 -19,-8l-1 8 2 5c17,-6 -2,-4 18,-3 17,2 9,3 16,7l-9 12 14 -2c10,10 41,12 59,17 27,9 40,-4 69,13 11,-3 12,-5 21,-9 16,15 59,10 83,18 22,8 23,6 47,4 20,-2 30,7 36,6 18,0 -6,-6 39,0l81 2c25,4 25,1 49,-5l16 9c21,-4 6,-5 20,-3 41,6 51,-3 81,5l131 12c12,2 -3,2 9,1 11,0 0,-2 14,-1 20,1 5,8 27,1 24,-6 41,-2 66,-1l67 11c9,0 -4,6 17,-9l6 7c0,1 1,1 2,1l107 0 4 -8c8,-10 -8,-10 18,-7l-4 16c15,4 65,-5 88,-4 22,1 27,8 51,2 28,-7 16,1 39,-2l186 -8c14,-1 3,-3 16,-1 47,7 42,-1 72,3l47 4c37,2 33,-6 49,-4l34 4c14,0 39,0 48,1 10,2 12,4 23,4 9,0 15,-3 25,-2 46,4 29,12 50,-4 31,12 138,-4 178,-24 47,-23 13,1 60,-44 9,-9 -2,2 7,-10 26,-32 36,-52 66,-84 8,-8 22,-15 37,-17 19,-29 20,-7 27,-27l19 5c17,-26 15,-18 50,-20l105 -9c27,3 33,-2 48,-7 24,-7 58,-3 69,-4 30,-1 5,-10 44,0l9 -10 12 10c-9,-18 -4,1 -9,-21 28,2 8,3 32,9 4,-24 -9,-2 -13,-40 30,7 21,-9 17,14 14,-14 -15,-7 16,-10 -10,-8 -18,-10 -33,-11l-45 3c-14,1 1,4 -17,3 -13,0 2,-5 -23,-2 -1,1 -2,1 -3,1 -13,1 -9,-5 -37,1l-11 -10c-3,32 14,9 1,30 -4,5 -7,8 -12,10 -24,6 -16,-19 -16,-34 -14,4 -9,5 -24,2z"/>
   <path class="fil0" d="M12024 6659c-10,4 -14,10 -22,12 -10,3 -23,2 -20,-7l-33 -1 -12 18c-10,37 7,98 13,133 4,26 -3,54 1,73 5,22 2,19 1,40 0,15 4,25 6,39 -25,15 -5,18 -7,38 -1,10 -6,21 -7,32 0,15 5,20 7,33 2,28 -18,30 7,45 4,2 10,5 13,8 16,11 9,9 32,11 17,20 4,7 29,20 13,8 13,14 35,19 64,18 80,-5 103,11 4,3 0,1 9,5 20,-10 7,-8 36,-12 -6,-13 -14,-6 -12,-49l-5 -22c14,-7 12,-12 3,-28 1,0 3,-2 3,-2 2,7 6,-16 6,-16 4,-13 20,-42 13,-86l-3 -39c-1,-17 0,0 -6,-13 -8,-18 -2,-35 -3,-54 -1,-7 -13,-35 -13,-57 0,-20 -3,-46 0,-63 7,-33 7,-23 8,-57 0,-16 -4,-12 -1,-30 2,-13 9,-27 -8,-37 -15,-9 -15,-5 -31,2 -7,-3 -11,-6 -17,-8l-64 24c-1,1 -2,1 -3,2 -33,12 -36,3 -52,21 0,1 -1,2 -2,3l-4 -8z"/>
   <path class="fil2" d="M13719 6063l0 15c-8,6 -11,10 -26,11l-8 -16c-17,1 -20,-1 -38,0l5 -7c-57,10 -62,-6 -67,-6 -34,7 -36,8 -74,4l-32 -1c-40,-3 -83,13 -110,9 -14,-2 -22,-2 -37,-5 -19,-3 -15,3 -40,-5 -16,10 -29,14 -40,-2 -1,1 -3,2 -3,2l-150 15c-16,11 -12,12 -33,9 -16,-2 -32,-4 -46,-6 -22,14 -49,10 -71,15 -13,3 -19,1 -29,1 -13,1 -17,5 -30,5l-77 3c-39,-4 -51,5 -66,9l-115 33c-2,0 -11,3 -13,3 -9,2 -25,5 -33,9 -40,16 -3,0 -28,6 -13,3 -22,10 -34,16 0,1 -2,1 -3,1 -8,5 -7,1 -10,15l-32 -8c-12,15 -44,10 -100,35 -9,4 -23,7 -33,10 -113,24 -57,18 -109,37l-6 2c-14,6 3,3 -14,5 -1,1 -2,1 -2,3 -1,2 -2,2 -2,3 -12,15 -19,12 -37,19 -29,24 -18,11 -43,27l-18 15c-33,21 -11,16 -46,42 -8,6 -2,0 -9,8 -7,7 -11,15 -14,20 13,-11 1,-2 16,-6 -2,1 -3,1 -4,4 -1,3 -2,3 -3,5l-7 8c-1,1 -2,3 -3,4 50,3 21,10 41,9 17,-1 5,-1 9,-7l7 6 23 -20c42,-34 33,-33 76,-62 71,-47 101,-42 120,-62 13,1 11,1 21,5 6,-11 8,-13 24,-16 34,-8 77,-25 97,-25 1,-1 3,-4 4,-5 0,-1 1,-2 1,-3l16 3c22,-9 42,-13 63,-23 56,-27 45,-3 54,-27 29,12 18,-5 44,-5l107 -31c15,8 32,-2 50,-5l147 -8c23,-4 12,3 25,-11 23,7 35,-1 58,-1 58,-1 68,-8 86,-8 18,0 8,-2 23,-5 35,-8 52,3 82,-6 11,-3 184,-5 207,4 1,-1 2,-4 2,-3l8 -6c11,-5 106,0 107,1 4,-4 3,-1 8,-10 18,15 2,-2 51,8 0,-1 2,-3 2,-2l6 -7c15,13 49,11 75,10 40,-3 115,3 164,-3 29,-5 14,-2 37,0 17,2 27,-1 38,-7 13,3 14,6 29,5 61,-2 38,-10 101,-4 1,0 2,0 3,0l6 -1c25,-2 7,4 45,-1 30,-4 61,0 89,0l40 2c25,3 43,2 67,8 34,9 75,42 103,46 3,11 9,25 19,33 10,-7 6,-1 13,-21 13,-5 5,-6 -2,-19 -28,-1 -42,-15 -33,-44 7,-4 5,-3 13,-2 -8,-11 -3,-7 -16,-11 -35,-11 -14,-16 -44,-22 -19,-4 -57,-12 -67,-23 -14,13 -41,25 -56,29 -18,-13 -27,-35 -45,-38 -8,20 6,4 -10,8 -2,1 -10,-1 -12,-1l-60 -1c-18,3 -73,-1 -81,0 -43,9 -36,1 -65,6 -35,6 -46,-4 -79,10 -15,-6 -28,-7 -45,-4 -27,5 -24,-3 -39,-3 -17,1 -13,9 -43,4 -13,-2 -27,0 -40,0z"/>
   <path class="fil3" d="M14723 5436c-3,3 -2,3 -7,7 -2,1 -6,4 -8,4 -6,2 -15,3 -22,4 -8,9 -5,-1 -5,15 8,13 2,12 4,30l5 75c-9,11 -12,19 -9,34l-2 41c6,17 0,13 0,22l8 17c0,-1 1,2 2,3 -12,31 -15,12 -12,26l1 25c-1,45 11,23 7,79 -2,37 8,64 14,99 23,123 -69,91 -93,123 -26,-10 -6,0 -51,1 -45,1 -8,14 -68,4 -12,-2 -16,0 -28,0 -44,-3 -14,-14 -46,-6 -19,-21 -5,-6 -29,-19 -19,-11 -9,2 -29,-14l-42 -21c-15,-5 -16,-5 -34,-19 -1,-1 -2,-2 -3,-2l-21 -17c-37,-37 -56,-24 -51,-37 -29,-3 -27,-18 -46,-23 -11,-2 -12,1 -23,-4 -25,-11 -13,-7 -51,-12 -21,-3 -22,6 -77,-5l0 3 -29 1c-29,0 -118,2 -146,-3 -30,-5 -16,-2 -33,9 0,-16 2,-4 -9,-8 -21,-5 -58,5 -66,4 -5,-1 -9,-3 -21,-5 -5,-11 -5,-22 -19,-19 4,16 0,21 0,37 1,10 4,24 6,31l-1 22c54,-13 28,-12 92,-6 18,1 20,-2 36,-4 18,-2 8,4 23,-1 31,-10 67,-9 99,-4 12,-10 26,-5 40,-3 50,7 73,17 107,-1 -6,15 -2,5 3,22 25,-10 27,3 41,6 13,3 37,5 56,19 11,8 4,5 12,12 22,18 30,5 31,49 14,5 9,9 30,11 20,2 27,0 35,15 10,11 48,19 67,23 30,6 9,11 44,22 13,4 8,0 16,11 14,4 9,6 22,14l16 -26c13,-11 16,-12 34,-21 31,-6 70,17 80,19 32,6 81,27 107,23 20,-3 6,-3 26,2l17 -12 17 33c14,-4 7,-4 25,-5 20,-1 9,-5 29,-3 0,-43 15,-40 -8,-90 -21,-47 -12,-69 -22,-87 0,-1 1,-2 2,-3l3 -5c1,-3 2,-2 3,-9 4,-28 2,2 -4,-21 -5,-17 7,-90 16,-109l0 -7c-3,-10 -2,-16 1,-25 12,-34 8,-104 9,-143 1,-15 -1,-22 0,-34 0,-14 4,-9 -5,-18 3,-22 8,-10 2,-52 -1,-10 -4,-15 -3,-24 1,-21 6,-7 -3,-24l-2 -60c-23,-1 -13,0 -32,6 -13,3 -17,4 -28,8z"/>
   <path class="fil3" d="M12166 4634c0,-1 -1,-4 -2,-3l-10 -8c-32,7 -58,-2 -89,6l-11 34 -22 0 -7 -16c-15,11 -5,7 -12,27 -8,22 -12,29 -6,62 -22,17 -1,7 -16,48l11 13 -21 146c-11,51 -6,0 -4,55l-5 58c-1,13 1,22 1,34 0,25 -20,37 6,83l40 44c0,1 2,4 2,5 13,19 54,0 103,27 35,-16 108,34 80,-60 -7,-24 -6,-8 -2,-34 4,-28 -13,-82 -5,-115 4,-17 -14,-15 -2,-71 2,-10 7,-46 2,-62 -4,-14 -5,6 -9,-33l-4 -161c1,-20 1,-22 -6,-33 5,-15 4,-5 5,-16 0,-13 -7,3 2,-20l12 -24c-25,3 -24,2 -31,14z"/>
   <path class="fil2" d="M13844 5259l0 15c-14,-9 -10,-9 -20,-12 -4,-1 -18,-1 -22,-1 -3,6 -11,21 -18,27 16,3 23,5 37,7 -1,-1 -5,-12 -5,-13 -2,-11 9,-6 20,-5 -14,4 -4,-1 -13,13 23,1 18,-4 13,13 13,-2 14,-2 25,-4 0,0 -1,15 -8,4 20,2 26,-8 23,11 18,-4 7,0 25,4 18,5 14,-1 27,-2 13,-2 17,3 27,1 16,-3 -4,-6 19,-1 21,5 72,-2 99,-9 23,-5 12,0 26,-1 8,0 26,-12 50,-14 1,0 2,0 3,0l68 -2c14,-4 4,-6 22,-10 14,-2 12,-1 25,-5 -3,9 -39,36 -41,38 -13,7 -8,4 -21,3l0 17c-36,-3 -36,12 -76,22 -16,4 -4,-7 -17,9 -28,0 -39,6 -63,7 -41,2 -1,10 -59,4l-9 11 -8 -6c-2,-5 -111,5 -139,1l-15 18c16,5 6,-1 14,9l-18 5c7,16 0,12 6,24 28,-1 72,-4 94,6 27,-13 31,-7 59,-6 3,-4 4,-5 6,-10 12,15 2,7 21,5 35,-4 51,-1 83,-11 19,-6 29,-3 54,-12 18,-7 32,-5 51,-16l43 -20c1,-1 13,-22 45,-38 38,-18 10,-7 32,-26l13 -14c9,-10 9,-8 24,-7 6,-21 0,-10 21,-19 12,-5 34,-16 42,-29 18,2 31,0 48,-7 -8,-8 18,-14 -16,-6 2,0 3,0 4,0 1,0 2,-1 3,-1l15 -2 -7 -9c-1,-1 -2,-2 -3,-3 -14,-8 2,2 -11,-1 -23,-5 -5,5 -15,-12 11,-7 0,-3 19,-6l-8 -6c-21,-3 -21,7 -41,6 6,-9 3,-2 7,-8 6,-7 1,-1 7,-10 4,-7 9,-13 15,-20l20 1c9,-9 5,-8 19,-14 6,-4 12,-6 24,-6l2 -18c29,5 31,-2 53,-3 20,0 19,14 37,1 7,8 4,1 6,14 25,-3 22,4 48,6 43,2 34,3 39,15 18,-3 26,1 40,14 14,14 6,4 18,12l16 14c2,-22 1,-25 13,-39 20,1 28,9 37,20l10 0c-4,-14 -10,-25 -19,-31 -5,-3 -20,-1 -24,-27 -19,-1 -14,0 -25,-12 -39,3 -33,-12 -88,-9 -17,-19 -25,-14 -72,-24l-58 -8c-13,7 -14,12 -26,14 -10,3 -36,1 -67,18 -11,7 -17,8 -30,12 -6,24 -5,14 -17,24l-26 20c-11,10 0,7 -23,24 -8,6 -17,12 -25,20 -25,25 -17,20 -57,31 -18,5 -16,0 -31,6 -20,8 -7,8 -41,7l-8 16 -9 -12c-22,6 -47,3 -75,5l-12 16c-26,-14 -14,-5 -55,-1 -60,7 -47,-11 -71,10 -18,-12 -29,-1 -53,-7 -27,-7 -26,-4 -52,-5z"/>
   <path class="fil2" d="M13013 5600c5,4 -2,4 13,3l107 0c17,1 -5,-1 13,-3 11,0 23,6 35,6 9,1 14,-2 31,-2 15,0 23,1 38,2 16,1 20,2 34,3l3 -14c7,2 11,3 18,6 8,3 4,0 10,7 19,4 5,-2 22,1 2,0 11,5 18,6 13,0 16,-4 39,1l246 32c12,4 8,5 8,-10l-14 1c20,-5 5,-9 18,-26 21,4 25,7 25,31l130 -8c38,-3 47,-8 71,1 12,-8 6,-6 25,-5 30,2 84,4 110,-1 14,-2 21,3 32,3 21,0 54,-7 109,-5 26,1 41,-2 71,-1 69,0 139,7 207,-14l-10 -8c-1,-2 -3,-1 -5,-1 9,-14 5,-5 9,-17 -4,0 1,11 -5,-2 -3,-7 -3,4 -2,-11 2,-16 0,-1 5,-10 1,-2 1,-2 4,-3 -30,-1 -56,5 -77,17 -23,-7 -6,-4 -27,-2 -15,2 -18,-2 -32,-2l-131 4c-19,4 -42,-2 -62,-1 -5,0 -17,4 -26,4 -21,0 -10,-6 -70,-1 -19,1 -75,-3 -98,1 -31,6 -17,1 -31,-1 -7,-1 -26,1 -34,3 0,-1 -1,-3 -1,-2 0,0 -1,-2 -1,-3 0,0 0,-2 0,-2 -1,-4 0,-1 -2,-6 -11,4 -1,-1 -9,4 -8,6 -9,10 -22,10 -32,-1 -19,0 -44,8 -35,-6 -14,-10 -54,0l-51 -1c-23,-1 1,5 -30,1 -26,-4 -22,2 -55,-6 -21,-5 -15,-1 -28,6l-17 -12c-37,13 -39,-7 -84,-9 -19,-2 -26,-4 -47,-8 -18,-4 -31,-2 -49,-2 -24,0 -77,-15 -99,-10 -19,5 8,4 -15,4 -8,1 -15,1 -22,0 -12,-1 -17,0 -27,-1 -16,-1 -15,-4 -21,-11l-11 12c-36,-13 -66,-7 -105,-6 -8,0 -20,-3 -31,-3 -18,-3 2,-4 -20,1l6 8c1,1 0,14 2,7 0,0 -3,5 11,12 0,14 -18,12 2,9l-3 16z"/>
   <path class="fil5" d="M14457 5233c-17,7 -30,9 -48,7 -8,13 -30,24 -42,29 -21,9 -15,-2 -21,19 -15,-1 -15,-3 -24,7l-13 14c-22,19 6,8 -32,26 -32,16 -44,37 -45,38l-43 20c-19,11 -33,9 -51,16 -25,9 -35,6 -54,12 -32,10 -48,7 -83,11 -19,2 -9,10 -21,-5 -2,5 -3,6 -6,10 -28,-1 -32,-7 -59,6 -22,-10 -66,-7 -94,-6 -2,2 1,3 -8,2 -41,-4 -20,1 -44,0 -18,17 -7,13 -27,15l1 0 -1 15c21,-4 25,-1 35,10 33,-22 11,-6 42,-9 10,0 15,-4 25,-4 22,-1 36,12 50,0 14,9 2,7 16,8 33,0 7,-11 35,9 7,-15 7,-8 58,-8l135 0c4,-2 0,0 9,-5 18,19 17,10 66,9l20 -6c23,14 55,2 95,-5l72 -35c32,-26 17,-34 56,-71 33,-31 9,-11 25,-33 16,-20 17,-7 36,-19 17,-12 2,-5 21,-11l10 -3c0,0 10,-6 12,-6 3,-11 8,-10 18,-12l-1 -12c-6,-5 -8,-10 -15,-15 -10,-8 -11,-4 -20,-12 -18,-6 -7,-1 -24,-4 -21,-4 2,-3 -13,-4 -18,-1 -11,4 -33,-4l-15 6z"/>
   <path class="fil6" d="M13703 6269c-11,9 -13,14 -34,9 12,26 11,19 12,50 13,7 13,3 19,19l15 83c-8,37 3,24 5,55 1,12 -2,13 0,30 4,25 2,0 -5,27 1,2 7,18 7,18 4,22 -3,-4 -1,14 1,9 7,21 11,29 8,14 5,34 13,50l5 8c0,-1 1,1 2,2 -7,21 5,116 2,141 -3,22 -10,58 -6,85l12 9 -12 4c0,-1 -2,1 -3,2 -5,22 0,38 -5,61 -29,110 6,46 -43,99 -22,24 -30,6 -26,19 2,25 2,13 -5,23 0,-1 -6,-8 1,-1l8 10c-16,-2 0,-6 -11,10 -6,-4 3,0 -8,-4 -11,-3 -16,-3 -17,-14 0,0 1,-1 1,-1l9 -5c13,-11 3,1 11,-17 -67,16 -61,6 -83,7 -62,5 -71,-6 -88,-4 -18,1 3,1 -14,3 -12,2 -9,-2 -41,3l0 14c-18,-8 -11,-9 -25,0 1,4 -11,16 25,12 0,2 -1,8 -1,9 6,24 -16,-6 5,8l-25 17c11,-1 21,0 30,-1 12,-1 10,-3 16,-9 1,1 8,9 17,9 24,-9 11,-4 42,-2 41,3 119,-6 146,-1 13,-14 14,-7 42,-21 28,-13 14,-3 47,-45 7,-8 8,-14 11,-22 8,-16 16,-19 19,-44 6,-37 15,-207 24,-218 -7,-24 -5,-4 -5,-27l-1 -75c-2,-20 -3,6 -3,-17 -1,-10 2,-6 0,-21 -12,-24 -7,-11 -10,-41 -8,-11 -1,-6 -15,-12 2,-80 -13,8 -7,-98l-6 -70c-4,-23 1,-13 1,-34 -1,-13 -11,-49 -6,-71 -1,-1 -2,-4 -3,-3l-25 -73 0 18c-10,2 -19,-1 -20,-4 -1,-2 -3,-1 -4,-2z"/>
   <path class="fil7" d="M12173 6120l-20 85c-17,11 -30,21 -42,30 -20,14 -34,7 -49,23l-28 -2c-12,18 -25,27 -52,28 -1,-1 -1,-3 -2,-3 0,-1 -1,-2 -2,-3l-3 -6c-1,0 -1,-1 -2,-2 -3,-3 -7,-4 -12,-7l-8 4c-2,1 -3,2 -5,3 -1,0 -3,1 -4,2 -32,9 6,-7 -11,1 -3,1 5,9 -14,3 -3,-11 -4,1 0,-8 5,-11 3,0 5,1l-14 -6c-3,10 2,5 -12,11 -1,-45 7,-38 -10,-38l-8 59c-6,32 8,16 -8,58 -12,31 -3,33 18,64 5,8 9,9 20,13 -1,26 7,33 12,46 19,40 -14,29 11,53l3 34c1,0 4,3 5,3 6,5 4,4 9,8 -2,-16 -1,-32 4,-44l22 7c5,21 7,45 10,64l10 1c8,-32 5,7 12,-44l19 0c10,-28 4,-9 21,-29 -3,-35 7,-27 23,-58 26,-49 38,-17 31,-34l-7 -6c-4,6 8,6 -9,7 -20,1 9,-6 -41,-9 1,-1 2,-3 3,-4l7 -8c1,-2 2,-2 3,-5 1,-3 2,-3 4,-4 -15,4 -3,-5 -16,6 -33,16 -27,14 -33,34 -15,-3 -4,-6 -20,0 0,18 5,11 -2,31 -18,-8 -13,-7 -16,-24 -1,-9 -9,-24 -14,-34 -9,-15 -27,-50 -24,-70 17,-1 23,3 45,-3l8 9c5,-7 4,-7 10,-14 12,0 10,3 22,0l58 -21c16,-5 28,-3 48,-11 14,-5 31,-12 42,-15 1,-1 2,-3 2,-2 1,1 5,-1 8,-14 16,1 21,-1 31,-5l7 -7c22,-29 4,-68 3,-77l2 -78c3,-12 14,-27 2,-23l-7 9c-18,19 -12,14 -27,16 18,21 -4,17 -4,17 -1,-1 -2,-3 -3,-4l-11 -8z"/>
   <path class="fil2" d="M13680 6156l6 9c32,31 -13,59 18,67l-6 -21c49,-2 45,3 79,3l94 8c1,0 2,1 2,1l30 0c11,-6 4,-4 17,-7 9,7 15,11 29,10 2,0 9,-2 13,-3 18,-4 10,4 18,-10 9,28 45,6 113,13 6,0 10,1 19,-2 21,-5 -2,3 17,-8 2,4 4,20 22,9l8 -6c8,19 5,12 38,12l75 7c26,6 33,6 45,19 12,12 15,22 39,29 6,14 9,19 20,25 1,1 3,1 3,1l39 37c0,1 1,2 2,3 0,0 1,1 2,2l39 40c20,11 11,9 26,20l12 10c12,12 28,20 44,22 8,15 0,10 15,19 27,3 6,4 14,-11 -23,-11 -28,-17 -29,-33 -39,7 -8,2 -19,-5l9 -12c7,-7 10,-5 12,-7l8 -7c-9,-16 -36,-31 -36,-31 0,-1 -1,-2 -2,-3l-29 -24c-46,-42 -6,-32 -66,-60 -18,-9 -10,-19 -34,-33 -1,0 -2,0 -3,-1 -20,-12 -17,-47 -66,-48 -16,0 -10,5 -26,1 -44,-11 4,-16 -95,-14 -50,2 3,0 -44,-6 -28,-3 -40,-3 -53,10l-11 -17c-20,15 -52,2 -76,4 -6,1 -5,3 -13,3 -9,0 -11,-7 -67,-5l-81 2c-10,-3 -7,-4 -15,-7 -26,-9 -19,1 -38,-4 -6,-2 -7,-6 -15,-1 10,14 5,7 21,12 -11,11 -12,2 -18,17l32 -11c-7,11 -1,-6 -2,13l-1 5c-25,7 -12,-17 -24,6l-30 -11c-1,-2 -3,-1 -4,-2l12 -4c8,-3 1,9 6,-3 0,-1 2,-1 2,-2 -14,-10 0,2 -12,-17l-4 -6c-13,5 -27,4 -42,2 -21,-3 -16,-1 -39,1z"/>
   <path class="fil2" d="M14637 5466c3,10 -3,11 2,5 -8,3 -4,2 -9,-5l-1 16 0 33c22,9 14,3 9,48 -2,22 -4,14 -8,33 4,6 7,9 10,13 -24,24 6,41 -4,88 -4,17 -5,54 -3,68 9,61 2,38 -2,61 -5,29 18,102 18,109 -4,40 -25,34 -29,35l-32 10c-40,8 -37,2 -56,6 -32,8 -79,3 -106,-14 -8,7 -3,-7 -9,8 -7,-16 -2,-9 -20,-16 -19,-8 -7,-7 -20,-14l-35 -14c-30,-11 -41,-33 -65,-36l-2 -7 -14 -2c6,4 3,13 2,19 -9,-3 -20,-7 -23,-17 0,-3 -1,-3 -2,-4 0,17 0,16 -5,29l-20 -14c0,0 -1,-1 -2,-2 -18,-17 -21,-2 -24,0 34,0 4,-2 17,8 -5,13 14,0 51,37l21 17c1,0 2,1 3,2 18,14 19,14 34,19l42 21c20,16 10,3 29,14 24,13 10,-2 29,19 32,-8 2,3 46,6 12,0 16,-2 28,0 60,10 23,-3 68,-4 45,-1 25,-11 51,-1 24,-32 116,0 93,-123 -6,-35 -16,-62 -14,-99 4,-56 -8,-34 -7,-79l-1 -25c-3,-14 0,5 12,-26 -1,-1 -2,-4 -2,-3l-8 -17c0,-9 6,-5 0,-22l-6 -6c-12,7 -4,3 -17,8l5 -20c0,-2 1,-2 2,-3l-6 -18c10,-2 7,-1 14,-1 1,0 1,1 10,-1 -3,-15 0,-23 9,-34l-5 -75c-2,-18 4,-17 -4,-30l-5 14c-22,-23 4,-22 -18,-28 -1,0 -4,-1 -5,-1 -5,-1 -6,-2 -11,-4 12,11 0,7 16,13l-5 26c-16,10 -2,1 -9,-1l4 -22 -11 3z"/>
   <path class="fil8" d="M14914 5413c3,2 51,21 58,43 7,26 -19,50 -1,123 6,26 10,13 2,42 -4,16 11,68 22,80 -24,5 -1,-2 -11,8 5,10 4,11 4,22 0,14 1,8 6,21 6,18 4,32 8,49 7,24 6,7 13,46 4,17 15,25 25,34 -16,7 7,-10 -14,3 4,8 8,25 14,34 -10,46 4,80 2,122 -4,50 10,46 2,78 -3,11 -8,29 -7,39 1,22 6,12 1,39 -3,18 1,27 13,36l-2 17c1,11 14,23 17,25 14,-20 4,-18 3,-18l10 -8c3,-20 6,-20 18,-22 -13,-99 2,-42 -3,-128 -3,-39 3,-88 -5,-130 -9,-51 -2,-10 -1,-37 0,-25 -10,-8 3,-38 -20,-41 -7,12 -35,-87 -12,5 -9,10 -16,-7l16 -1c-4,-13 -8,-19 -10,-31l-8 -34c-6,-21 -5,-47 0,-70 -17,-13 -8,-20 -7,-39 1,-19 -11,-5 -2,-36l-10 -8c6,-20 -3,-28 -2,-50 1,-21 17,-38 6,-87 -6,-25 -3,-29 -28,-36 -4,14 -2,12 -16,20 -8,-23 6,-14 -18,-11 12,-19 6,-7 12,-24 -17,7 -3,1 -23,15l6 -26c0,-1 1,-1 1,-2 24,13 5,2 20,4 -1,-1 -3,-4 -3,-3 -1,1 -2,-2 -3,-2 -14,-8 -17,-6 -30,-5l-7 -8c-5,10 -4,7 -6,9l-46 17 14 10c14,6 21,-8 18,12z"/>
   <path class="fil9" d="M12949 6222c0,0 -7,-3 2,17l-42 -3c-1,2 -1,4 -1,5l-11 12c0,-1 -2,1 -3,2 13,-6 9,-18 29,2 -20,12 -1,4 -22,2 -6,0 -3,0 -8,1 -1,0 -6,3 -7,3 -1,0 -2,-1 -3,-1 0,-1 -2,-2 -2,-2l-8 -7c-20,4 16,-6 -4,2l-11 3 7 -19 -17 0 7 14 -9 7c-1,0 -6,5 -6,5 -2,-2 -7,-6 -9,-9l2 -9c-16,0 -13,-3 -24,10l-7 -10c-39,24 -8,2 -58,19 -17,6 -107,25 -126,33 -17,8 -43,11 -64,15 1,1 2,3 3,4 22,26 4,2 14,24l5 7c-36,-5 -4,5 -25,12 2,-7 0,4 3,-5 1,-3 3,-13 3,-14 -1,1 -6,3 -7,4 -6,1 -4,-1 -7,-3 0,0 -2,0 -2,-1l-23 -9c16,-3 13,-5 19,-17l-16 3 -19 7c4,11 5,12 10,19l-24 1c3,14 2,14 9,22 -12,4 -5,0 -13,6 -24,-6 -15,-1 -18,-7 0,-2 -2,-2 -3,-2l-16 7c7,-19 6,-13 16,-14l0 -14 -59 17c-14,5 -39,9 -51,16 -27,16 -58,34 -87,46l-4 22c-35,-4 1,-2 -32,18 -25,17 -6,15 -14,45l8 0c4,4 9,-5 6,13l8 3 17 5c0,0 3,4 3,5 7,-4 4,-3 8,-5l8 -5c24,-18 2,-23 30,-45 11,-9 11,-16 23,-27 10,-9 62,-24 76,-29 9,-4 23,-13 37,-18 56,-21 9,-10 51,-15 21,-3 12,0 16,-13 23,6 19,4 42,-4 14,-5 6,-4 19,-6l89 -25c9,-6 5,-8 16,-12 -1,5 -2,4 4,11 7,-3 20,-8 28,-9 23,-5 17,9 24,-13l99 -19c16,-3 33,-4 47,-11 15,-7 28,-14 44,-7l13 -10c41,7 39,-5 63,-6 13,0 14,3 25,0l-4 -11 12 -8 -12 -1c5,-11 -6,-10 5,-9 -17,4 -11,7 -15,12l-11 -8 -4 12c-20,-18 8,-9 -19,-14 9,-2 7,-4 13,-9l-13 2c7,-9 22,-17 0,-15l-23 5z"/>
   <path class="fil8" d="M12041 5553l58 20c18,-9 60,16 111,15l10 29c-2,2 -4,4 -6,6l-4 7c3,16 -7,56 -5,70 1,9 3,6 4,23l-14 6c2,25 -4,13 -3,36 2,43 -2,29 -7,72 -3,21 4,9 -6,27 8,21 2,44 1,69 -2,37 6,13 1,62 -2,11 3,11 -2,29 -2,12 -2,20 -4,32 -4,22 -2,12 -1,30 0,10 -2,20 -1,34l11 8c1,1 2,3 3,4 0,0 22,4 4,-17 15,-2 9,3 27,-16l7 -9c3,-14 8,-18 9,-29 1,-12 -4,-19 -4,-26 -1,-21 5,5 4,-25 0,-17 -5,-3 0,-20 6,-16 -1,-34 -1,-55 0,-22 11,-17 0,-38 -12,-22 0,16 -4,-5 0,-2 -1,-2 -2,-3 17,-23 10,-38 12,-66 4,-40 -9,-7 7,-47l12 -75c0,-15 -4,4 -1,-14 4,-18 13,-34 11,-52 -19,2 -6,-4 -18,7l-29 -4c4,-17 -13,-17 32,-20 -1,-2 -2,-3 -2,-5l-5 -12c1,-6 9,-10 12,-13 1,1 3,3 4,4 1,1 2,3 3,4l4 9c1,-1 1,2 2,4l0 -9c-13,-30 -3,-37 -25,-60l-27 3c-10,-15 -23,-8 -45,-10 -16,-1 -25,-8 -41,-10l-4 13c-26,-32 -9,0 -25,-23 -38,8 -13,4 -39,-5 -7,-3 -8,-1 -16,-5 -9,-3 -3,-4 -16,-8 -7,-2 -12,-2 -19,-4 -3,3 -15,17 -15,18 0,3 -13,6 7,10 14,3 3,4 10,-8 2,8 2,9 4,18 7,-1 23,-4 25,-4 2,13 -1,3 17,21l-21 0c5,-11 5,-3 12,0l-12 7z"/>
   <path class="fil6" d="M12689 4545c-3,13 -1,3 -2,14 -1,5 -1,11 -2,17l-11 -3 -18 8c-3,-4 -3,-11 -21,-7 -10,2 -8,4 -9,5l17 -3 0 16c17,7 212,-4 248,-12 6,-1 15,-2 19,-3l129 -17c19,-5 46,-2 70,-9 28,-7 42,-10 70,-2 21,-17 70,-10 101,-9 7,0 16,-2 24,-2 15,-1 11,2 26,4 59,8 40,-7 63,4 10,4 18,0 49,1l-3 -20c-11,4 -8,-4 -11,9 -6,-9 -7,-2 1,-13 -3,-2 -6,-4 -8,-5 0,-1 -5,-2 -5,-4 -1,-1 -2,-1 -3,-2 16,-12 23,3 21,-12 -21,-17 -13,1 -35,-3 -21,-4 -23,-2 -46,-4l-65 3c-20,4 -7,0 -18,-3 -6,-1 -130,2 -141,7l-38 21c-20,-21 -20,-6 -65,-6 -23,0 0,-1 -15,-2l-189 29c-16,2 -1,-1 -16,8 -10,-2 -16,-5 -29,-5 -37,0 4,7 -57,-2 -11,-1 -18,1 -31,2z"/>
   <path class="fil2" d="M14606 6268l8 19c-23,12 7,3 -12,16 -1,0 -3,0 -4,-1 -23,-11 -14,-18 -42,-13 -5,-13 -8,-9 -9,-12 -1,-2 -3,-2 -4,-3l-2 7c0,8 -3,4 1,11 23,4 18,14 51,32 1,1 5,2 6,3 11,6 23,8 32,14l21 19c0,0 30,3 46,20l17 -5c3,3 7,7 10,12 24,0 16,-3 31,12 19,0 10,-2 26,-3 1,0 12,0 12,0l29 7c19,5 -1,1 19,9 16,-6 88,3 106,7 22,5 -1,6 23,4 19,-3 55,4 71,14 2,0 3,-3 7,-4 23,-7 58,0 61,-32 1,-18 0,-10 8,-27 -2,-23 -6,-35 -4,-58 3,-48 -10,-24 -13,-59 -12,11 -9,-12 -10,13l-15 -3c1,-1 5,3 6,-2 3,-16 7,7 -1,-4 -6,-7 -1,-3 -12,-5 1,0 11,-2 -3,18 -3,-2 -16,-14 -17,-25 2,5 7,48 10,61 11,48 0,22 3,64 -12,0 -16,4 -24,2 -25,-4 -38,-4 -56,-14l-8 8c-9,-4 -4,0 -13,-8l-12 7c-17,-9 -70,-17 -93,-11 -10,2 11,4 -5,-3 0,0 -2,0 -2,-1l-46 -9c-31,-2 -30,-11 -52,-4 -13,-18 -5,-2 -21,-11 -11,-5 -2,-7 -22,-12 -47,-11 -29,-12 -42,-21 -4,-3 -39,-3 -47,-30l-13 1z"/>
   <path class="fil6" d="M14785 5482c9,17 4,3 3,24 -1,9 2,14 3,24 6,42 1,30 -2,52 9,9 5,4 5,18 -1,12 1,19 0,34 -1,39 3,109 -9,143 -3,9 -4,15 -1,25l28 -1 -7 20 -11 -5c-3,-17 1,-2 -10,-7 -9,19 -21,92 -16,109 6,23 8,-7 4,21 -1,7 -2,6 -3,9l-3 5c-1,1 -2,2 -2,3 10,18 1,40 22,87 23,50 8,47 8,90 0,7 -3,6 4,20 1,-1 3,-4 3,-4 5,7 0,-2 14,-13 14,7 4,-6 17,21l6 -1c19,-16 20,-60 6,-87 13,-11 4,-2 8,-13 -11,-13 -4,-10 -17,-16 2,-12 4,-16 0,-28 -3,-10 -6,-18 -17,-22 14,-30 3,-46 1,-84 -2,-58 17,-90 18,-128 2,-25 1,-15 10,-34 -9,-6 -6,-2 -10,-14l11 -21 -8 -12c17,-34 1,-70 1,-109 0,-21 0,-44 -1,-63 0,-22 -6,-30 -8,-56 -7,8 -4,-11 -6,10 -13,-11 -1,-7 -20,0 -15,6 -5,4 -21,3z"/>
   <path class="fil4" d="M13265 6176c0,1 3,10 3,11 0,5 3,6 -2,9 -14,7 8,1 -3,-1l-15 -4 4 -15c-1,1 -3,0 -3,2 -1,2 -3,1 -4,2 -1,0 -2,1 -3,2l-5 5c-5,-6 -6,-7 -14,-11l-11 7c-3,1 -12,-2 -20,-1l-84 17c-17,1 -30,4 -46,4l-1 6c-2,0 -3,0 -4,2 -5,13 0,-2 -11,7 -1,0 -1,1 -2,1l-19 16c-1,0 -3,1 -4,2 -11,-1 0,-2 -5,9l12 1 -12 8 4 11c50,-1 -5,-6 46,-8l28 -5c21,-6 11,3 29,-5 23,-10 123,-19 148,-16l7 -11c3,2 -5,4 27,3 46,-1 63,-9 87,-9 9,0 18,0 27,-2 21,-5 1,-5 24,-3 22,1 36,-1 58,-3l10 -10c10,13 91,10 115,9 21,-1 17,4 40,2 0,-17 -3,-31 6,-43 -5,-7 -5,-5 0,-14l-87 2c-43,2 -65,8 -84,-5 -16,12 -7,5 -24,6l-68 8c-21,5 2,5 -29,3 -5,0 -32,-2 -33,-2 -26,4 8,10 -54,9 -17,-1 -12,3 -28,4z"/>
   <path class="fil1" d="M13699 6002c0,25 18,40 20,61 13,0 27,-2 40,0 30,5 26,-3 43,-4 15,0 12,8 39,3 17,-3 30,-2 45,4 33,-14 44,-4 79,-10 29,-5 22,3 65,-6 8,-1 63,3 81,0l60 1c2,0 10,2 12,1 16,-4 2,12 10,-8 -14,-2 -23,-10 -27,-23 -24,-9 -21,-3 -33,-26 -24,1 -39,-2 -62,-6 -61,-12 -28,5 -50,-11 -21,0 -28,2 -49,-3 -23,-6 -134,4 -161,10 -17,4 -30,0 -45,3 -4,1 -32,12 -35,12 -10,0 -25,-15 -32,2z"/>
   <path class="fil2" d="M13617 4505l-10 10c-9,10 7,-4 -6,7l-11 9c0,-1 -2,1 -2,2l1 -13c0,-2 -1,-2 -1,-3 -7,0 -9,0 -14,2 -2,0 -9,6 -11,6l1 18 132 34c0,1 1,2 2,2 0,0 4,7 5,8 19,29 8,16 13,38l5 12c0,1 1,2 2,3 0,1 1,3 1,4 -11,10 -17,44 -15,61 3,15 -2,0 4,8 -13,16 -18,40 -16,58 3,16 3,15 3,30 0,26 4,2 -6,25 12,30 -17,82 12,138 10,20 11,67 14,88l-10 12 13 0c7,-8 -1,8 8,-14l25 11c-1,-15 -2,-14 5,-26 6,10 4,-5 1,12 13,0 6,-49 1,-60 -8,-17 -5,4 -12,-25l-10 -64c14,-90 -3,-97 0,-117 1,-9 6,-11 8,-30 3,-37 10,-29 16,-75 1,-13 8,-21 1,-44 -9,-35 -8,-26 -6,-61 -16,-11 -14,-14 -11,-29 -84,-59 -101,-22 -132,-37z"/>
   <path class="fil10" d="M15116 5617c-3,29 3,19 11,66 3,22 15,12 12,40 -2,23 -1,31 2,54 4,27 -3,80 3,118 2,16 -3,37 -5,55 -7,47 10,69 7,102l13 7c-4,47 19,31 13,98 -2,16 -2,31 -2,47l17 4 -4 10c8,-3 10,-3 11,-2l7 2c-10,-26 -10,-13 1,-58 -9,-8 -10,-9 -15,-8l9 -8c7,-21 15,-25 17,-29 0,-9 -2,0 9,-4l-32 -91c-8,-26 -11,-23 -6,-56 5,-25 -8,-34 9,-48 -12,-47 -5,-14 -6,-43 0,-7 -3,-13 -2,-25 2,-20 9,-36 8,-80 0,-27 -3,1 -6,-26 -1,-10 1,-17 4,-24 -34,-52 -10,-33 -17,-66 -4,-16 -5,-5 -9,-23l-5 -21c-2,-9 -4,-17 -6,-24 -18,-51 -4,-12 -10,-42l-3 -6 -5 8c0,-18 4,-9 -10,-19 15,-26 4,-18 -1,-25l-9 19c-2,8 -2,8 -4,19l12 21c11,25 5,-2 5,37 2,-2 5,-11 1,3 -2,6 -2,14 -14,18z"/>
   <path class="fil2" d="M11902 5755l4 226c-2,19 -7,-3 -8,63 0,19 -7,47 -6,60 5,53 -1,84 -4,132 17,0 9,-7 10,38 14,-6 9,-1 12,-11l14 6c-2,-1 0,-12 -5,-1 -4,9 -3,-3 0,8 19,6 11,-2 14,-3 17,-8 -21,8 11,-1 1,-1 3,-2 4,-2 2,-1 3,-2 5,-3 -20,-3 -11,10 -17,-11 -5,-18 12,-4 4,-45 17,-21 7,-24 5,-47 -2,-14 3,-15 3,-24l-7 -42c0,-8 3,-8 5,-24 5,-44 17,-45 -2,-62 11,-29 16,-30 15,-66 -1,-28 9,-37 -7,-65 25,-58 0,-47 6,-126l-13 4c-11,-15 -10,-15 -30,-16l-13 12z"/>
   <path class="fil5" d="M14438 5187c14,-2 28,-8 42,-3l71 7c1,1 4,7 5,7l15 4c14,11 37,49 51,55 34,-5 -6,-5 29,-2 28,2 30,-3 38,-9 11,7 -1,10 35,0 33,-9 7,2 49,-1l-3 -12c-10,-8 -18,-25 -22,-42l-16 -14c-12,-8 -4,2 -18,-12 -14,-13 -22,-17 -40,-14 -5,-12 4,-13 -39,-15 -26,-2 -23,-9 -48,-6 -2,-13 1,-6 -6,-14 -18,13 -17,-1 -37,-1 -22,1 -24,8 -53,3l-2 18c-12,0 -18,2 -24,6 -14,6 -10,5 -19,14l-20 -1c-6,7 -11,13 -15,20 -6,9 -1,3 -7,10 -4,6 -1,-1 -7,8 20,1 20,-9 41,-6z"/>
   <path class="fil1" d="M13876 5314c-15,3 -79,-5 -95,-2 -9,19 2,36 0,62l53 7c28,4 137,-6 139,-1l8 6 9 -11c58,6 18,-2 59,-4 24,-1 35,-7 63,-7 13,-16 1,-5 17,-9 40,-10 40,-25 76,-22l0 -17c13,1 8,4 21,-3 2,-2 38,-29 41,-38 -13,4 -11,3 -25,5 -18,4 -8,6 -22,10l-68 2c-1,0 -2,0 -3,0 -24,2 -42,14 -50,14 -14,1 -3,-4 -26,1 -27,7 -78,14 -99,9 -23,-5 -3,-2 -19,1 -10,2 -14,-3 -27,-1 -13,1 -9,7 -27,2 -18,-4 -7,-8 -25,-4z"/>
   <path class="fil9" d="M14459 6097c0,1 2,7 2,8 0,1 1,2 1,4 2,14 1,5 -4,15 19,0 19,0 32,12 -4,12 3,6 -9,12l-10 4c0,-1 -2,1 -3,2l16 -1c5,3 10,6 15,9 20,0 20,-1 28,12 25,-12 7,1 38,4 35,4 -14,-6 37,4 20,4 10,-4 40,2 15,3 5,3 18,5 14,3 12,1 27,5 16,5 47,12 63,8 29,-7 54,-6 78,-29 13,-12 8,-12 10,-17l-6 1c-13,-27 -3,-14 -17,-21 -14,11 -9,20 -14,13 0,0 -2,3 -3,4 -7,-14 -4,-13 -4,-20 -20,-2 -9,2 -29,3 -18,1 -11,1 -25,5l-17 -33 -17 12c-20,-5 -6,-5 -26,-2 -26,4 -75,-17 -107,-23 -10,-2 -49,-25 -80,-19 -18,9 -21,10 -34,21z"/>
   <path class="fil11" d="M13710 5064c14,23 17,61 19,89 2,13 3,15 1,27l5 69 -9 12c6,11 4,14 2,30 -2,16 2,78 -24,94 2,17 3,13 0,26 14,1 -2,2 21,12 13,6 15,8 24,16l-7 15c20,-2 9,2 27,-15 24,1 3,-4 44,0 9,1 6,0 8,-2 -6,-12 1,-8 -6,-24l18 -5c-8,-10 2,-4 -14,-9l15 -18 -53 -7c2,-26 -9,-43 0,-62 16,-3 80,5 95,2 3,-19 -3,-9 -23,-11 7,11 8,-4 8,-4 -11,2 -12,2 -25,4 5,-17 10,-12 -13,-13 9,-14 -1,-9 13,-13 -11,-1 -22,-6 -20,5 0,1 4,12 5,13 -14,-2 -21,-4 -37,-7 7,-6 15,-21 18,-27 4,0 18,0 22,1 10,3 6,3 20,12l0 -15c-18,-3 -18,-2 -34,-3 -14,0 -17,-7 -30,-14 2,-11 -1,-74 -4,-81 -9,-11 -7,13 -7,-13l-1 1c0,0 -1,0 -2,0l-14 -5c2,-17 -4,-6 7,-16l-16 -5c12,-3 7,0 10,-14 0,-2 0,-3 0,-4 5,-20 0,-15 12,-15l-3 -43c3,-17 5,-2 -1,-12 -7,12 -6,11 -5,26l-25 -11c-9,22 -1,6 -8,14l-13 0z"/>
   <path class="fil4" d="M11902 5755l13 -12c20,1 19,1 30,16l13 -4c-5,-11 0,-1 -9,-12 9,-30 -1,-52 0,-82l-15 -4c5,-7 7,-10 11,-15 -12,-29 -15,-20 -14,-46 3,-73 -11,-28 8,-82 0,0 1,-2 1,-3 10,2 13,5 19,8 13,6 6,0 17,8 9,7 14,14 44,11 6,9 9,14 21,15l12 -7c-7,-3 -7,-11 -12,0l21 0c-18,-18 -15,-8 -17,-21 -2,0 -18,3 -25,4 -2,-9 -2,-10 -4,-18 -7,12 4,11 -10,8 -20,-4 -7,-7 -7,-10 0,-1 12,-15 15,-18 -1,0 -2,-1 -2,-2l-7 -4c-36,-16 -10,-14 -32,-16 -10,11 -13,13 -30,15l-1 -26c-22,-6 -10,-15 -49,-10l-10 31c15,33 3,31 4,67 0,14 -4,21 -3,34l13 109c1,16 5,44 5,66z"/>
   <path class="fil9" d="M13643 5921c8,24 -11,19 -5,40 13,4 -1,-6 14,13 5,-5 -8,-6 12,-8 8,-1 14,2 18,5 10,7 3,2 8,13 6,16 1,10 9,18 7,-17 22,-2 32,-2 3,0 31,-11 35,-12 15,-3 28,1 45,-3 27,-6 138,-16 161,-10 21,5 28,3 49,3 -1,-1 -2,-1 -3,-1l-11 -3c-23,-7 -10,-8 -33,-10l-6 -11c-1,0 -9,1 -9,1 -19,0 -19,-15 -10,-30l-10 -1c-32,-5 -68,-6 -99,4 -15,5 -5,-1 -23,1 -16,2 -18,5 -36,4 -64,-6 -38,-7 -92,6l-8 -19 -7 12c-2,-25 5,-10 -10,-18l-6 14c0,-1 -1,3 -2,4 -11,-6 -4,4 -13,-10z"/>
   <path class="fil1" d="M12046 6414c3,-5 7,-13 14,-20 7,-8 1,-2 9,-8 35,-26 13,-21 46,-42l18 -15c25,-16 14,-3 43,-27l-6 -6c-11,3 -28,10 -42,15 -20,8 -32,6 -48,11l-58 21c-12,3 -10,0 -22,0 -6,7 -5,7 -10,14l-8 -9c-22,6 -28,2 -45,3 -3,20 15,55 24,70 5,10 13,25 14,34 3,17 -2,16 16,24 7,-20 2,-13 2,-31 16,-6 5,-3 20,0 6,-20 0,-18 33,-34z"/>
   <path class="fil6" d="M14428 5562c-3,1 -3,1 -4,3 -5,9 -3,-6 -5,10 -1,15 -1,4 2,11 6,13 1,2 5,2 -4,12 0,3 -9,17 2,0 4,-1 5,1l10 8c15,-2 48,-22 50,-24 26,-21 19,-22 37,-43l33 -42c7,-6 16,-9 23,-15 3,-4 3,-6 9,-12l4 -4c1,-1 5,-7 5,-7l27 2 9 13 1 -16c5,7 1,8 9,5 -5,6 1,5 -2,-5 -1,-2 0,-5 -4,-9 -4,-5 0,0 -5,-4l14 -27 -51 -5c-23,8 -27,3 -36,26 -26,-3 -12,-3 -35,25 -4,5 -2,3 -5,8 -15,24 -25,18 -42,35l-17 31c-23,-1 -18,1 -28,16z"/>
   <path class="fil8" d="M14021 5978c22,16 -11,-1 50,11 23,4 38,7 62,6 12,23 9,17 33,26 0,-57 47,-6 63,6 -1,-44 -9,-31 -31,-49 -8,-7 -1,-4 -12,-12 -19,-14 -43,-16 -56,-19 -14,-3 -16,-16 -41,-6 -5,-17 -9,-7 -3,-22 -34,18 -57,8 -107,1 -14,-2 -28,-7 -40,3l10 1c-9,15 -9,30 10,30 0,0 8,-1 9,-1l6 11c23,2 10,3 33,10l11 3c1,0 2,0 3,1z"/>
   <path class="fil11" d="M15056 5339c1,26 11,11 4,52l20 29c0,11 -3,24 -1,33 1,4 7,16 9,24 3,15 -2,11 -1,27 3,22 10,3 -2,31 22,13 12,65 31,82 12,-4 12,-12 14,-18 4,-14 1,-5 -1,-3 0,-39 6,-12 -5,-37l-12 -21c2,-11 2,-11 4,-19l9 -19c5,7 16,-1 1,25 14,10 10,1 10,19l5 -8c-5,-19 -6,-14 -5,-36 1,-17 -2,-33 2,-50 -7,-9 -6,-10 -6,-23 0,-12 -2,-16 -7,-28 -7,-17 -14,-43 -14,-62l-10 -8c5,-26 -3,-18 -18,-35 0,1 -1,2 -2,3l-7 15c-12,-2 -7,-1 -11,-6 -1,0 -2,-2 -3,-3 0,-1 -2,-1 -2,-4 -1,-2 -2,-2 -3,-4 3,11 3,9 5,18 1,2 1,3 1,4 6,19 18,11 8,29l-13 -7z"/>
   <path class="fil12" d="M14007 5866c55,11 56,2 77,5 38,5 26,1 51,12 11,5 12,2 23,4 19,5 17,20 46,23 -13,-10 17,-8 -17,-8 3,-2 6,-17 24,0 1,1 2,2 2,2l20 14c5,-13 5,-12 5,-29 1,1 2,1 2,4 3,10 14,14 23,17 1,-6 4,-15 -2,-19l14 2c-11,-10 -6,-7 -24,-7 -4,-30 -26,-22 -43,-23l-12 -20c-34,-2 -74,-35 -145,-27 -15,2 -33,-4 -46,-3l4 13c-2,-1 -6,-13 -6,4l29 9 -6 18c-1,-1 -2,-2 -3,-3 -1,-1 -3,-4 -5,-5 -9,-6 -6,-3 -19,-6l8 23z"/>
   <path class="fil9" d="M14669 5410l4 2c-6,4 -5,12 -4,13 17,22 -18,-3 6,7 13,5 6,2 15,1l-12 13c14,-4 1,-3 8,5 7,-1 16,-2 22,-4 2,0 6,-3 8,-4 5,-4 4,-4 7,-7l3 -1c6,-13 -2,-5 32,-16l7 -2c6,-1 11,-2 17,-4l12 -17 23 7c-2,10 -8,26 -6,35 3,13 2,5 7,10 -1,-17 -3,-22 5,-37 13,-3 72,-1 91,2 3,-20 -4,-6 -18,-12l-14 -10 46 -17c2,-2 1,1 6,-9l-5 -8c-29,9 -37,-16 -76,6 -29,-20 -41,15 -98,1 -23,29 -38,11 -66,31l-15 11c0,1 -2,2 -2,2 -1,0 -2,1 -3,2z"/>
   <path class="fil12" d="M14558 6465l22 7 2 15c5,-3 -1,-9 31,6l11 6c19,8 6,-3 19,14l16 0c10,-8 12,-8 35,-9 -1,15 2,15 4,17 9,-16 -2,4 2,-7l2 -4c0,-1 0,-2 1,-2 19,-2 36,4 45,-12 30,-1 20,0 8,-9l12 -2c-28,-24 -55,-11 -97,-34l-43 -15c-13,-5 -3,3 -21,-8 -32,-19 -36,-18 -43,-34l-11 -4 -8 7c-2,2 -5,0 -12,7l-9 12c11,7 -20,12 19,5 1,16 6,22 29,33 -8,15 13,14 -14,11z"/>
   <path class="fil9" d="M14768 6485l-12 2c12,9 22,8 -8,9 -9,16 -26,10 -45,12 -1,0 -1,1 -1,2l-2 4c-4,11 7,-9 -2,7 -2,-2 -5,-2 -4,-17 -23,1 -25,1 -35,9 21,10 10,-3 32,14 7,6 28,0 33,-2l7 11c15,-1 21,0 32,0 30,1 21,5 32,7 23,5 32,-2 77,8 22,5 128,-1 154,-9l3 -13c-13,1 -20,2 -26,9l-12 -7c-11,-8 -1,-2 -2,-7 -4,-17 -2,-2 -19,-11 -23,39 -36,5 -38,-4 -8,6 -1,-1 -6,6l-6 18c-2,-1 -4,-2 -6,-4 -1,-1 -3,-2 -4,-3 -10,-14 -1,-8 1,-9 -1,0 -3,0 -4,0 -12,0 -17,-5 -29,-12l8 -15 -21 1c3,26 -10,-25 7,12 8,17 1,10 -3,16 -15,-3 -9,1 -14,-14 -14,16 -15,15 -35,5l8 -24 -19 3 -5 -12 -5 10c-17,-6 -9,-5 -31,-2z"/>
   <path class="fil9" d="M15170 6347c0,1 -1,2 -1,3 0,1 -1,3 -1,4 -1,1 -7,38 -19,57l-6 11c-16,26 -5,21 -29,34 -12,6 -21,11 -26,25l-24 0 7 4c1,0 10,2 12,2l-8 26c-5,11 -4,-5 -3,8 0,12 18,6 27,6 5,-2 8,-4 18,-5 2,-12 1,-13 8,-21 7,19 2,5 8,11 7,-12 1,-11 12,-21 4,-4 20,-11 23,-15 12,-10 1,1 6,-10l38 -92c4,-16 9,-51 2,-68 -12,5 -10,-13 -10,6 13,18 5,-3 9,21 -15,-4 -21,0 -17,-15 -10,18 -7,13 -25,6 3,20 -5,4 8,21l-9 2z"/>
   <path class="fil11" d="M12201 5362c3,3 -1,0 7,5l26 12 -4 20 12 -9c21,5 21,0 23,19 30,-7 26,6 71,22l73 27 9 -12c-7,-4 1,-5 -16,-7 -20,-1 -1,-3 -18,3l-2 -5c-4,-5 -3,-5 -8,-10l-12 -11 13 -7c7,6 0,-2 9,9 7,-7 4,-4 4,-17l10 0 -6 -10c-29,2 -21,-25 -72,-15 -4,-12 -24,-31 -39,-37 -22,-9 -29,-17 -40,-36 -23,-28 1,24 -7,-8 -1,-2 -1,-2 -1,-4 -6,9 -5,1 -6,13 -1,5 6,35 25,30 -5,13 -4,5 -2,19l-31 -6c-5,6 -3,2 -7,9 -5,-4 -4,-3 -8,-7l-3 13z"/>
   <path class="fil8" d="M14430 6195c1,1 3,2 4,2l33 36c16,19 27,11 34,33l22 0c7,17 0,9 18,15l2 -7c1,1 3,1 4,3 1,3 4,-1 9,12 28,-5 19,2 42,13 1,1 3,1 4,1 19,-13 -11,-4 12,-16l-8 -19c-17,-1 -5,0 -12,-7 -17,-18 -12,-8 -27,-20 -8,-7 -1,-3 -11,-10 -52,-36 -20,-29 -53,-34 -7,-16 -9,-9 -16,-28l12 -7c-5,-3 -10,-6 -15,-9l-16 1 -27 1c7,13 15,14 2,19 -7,20 -3,14 -13,21z"/>
   <path class="fil12" d="M13840 5826c17,-5 3,-7 13,0 -1,1 -3,3 -4,4 -2,3 -7,3 -9,17 -26,-11 -3,-8 -38,-21l9 14c0,1 4,5 5,6 -9,-3 -6,-7 -18,1 6,14 7,1 1,13 -20,0 0,-3 -9,8 11,4 9,-8 9,8 17,-11 3,-14 33,-9 28,5 117,3 146,3 0,-1 6,-3 -2,-24 -3,-10 -4,-8 -6,-18 -8,5 -14,0 -15,19 0,15 -5,16 -5,17l-5 -31c0,-1 -4,-10 -5,-11 24,3 14,4 26,-4 4,6 0,7 5,2l-5 -6c-11,6 -48,8 -63,7 -16,0 -59,-9 -63,5z"/>
   <path class="fil12" d="M15170 6204c5,18 2,24 4,41 1,20 6,8 0,32l-4 70 9 -2c-13,-17 -5,-1 -8,-21 18,7 15,12 25,-6 -4,15 2,11 17,15 -4,-24 4,-3 -9,-21 0,-19 -2,-1 10,-6 0,-13 3,-22 11,-31 -4,-11 -1,-6 -8,-13 15,-37 -4,-35 0,-76 2,-16 1,-25 5,-37 8,-27 -3,-14 0,-38 -11,4 -9,-5 -9,4 -2,4 -10,8 -17,29l-9 8c5,-1 6,0 15,8 -11,45 -11,32 -1,58l-7 -2c-1,-1 -3,-1 -11,2l4 -10 -17 -4z"/>
   <path class="fil8" d="M14886 6490l-8 15c12,7 17,12 29,12 1,0 3,0 4,0 -2,1 -11,-5 -1,9 1,1 3,2 4,3 2,2 4,3 6,4l6 -18c5,-7 -2,0 6,-6 2,9 15,43 38,4 17,9 15,-6 19,11 1,5 -9,-1 2,7l12 7c6,-7 13,-8 26,-9l15 -4c-3,-13 -3,-22 11,-28 -2,18 -3,20 -8,36l18 4c8,-1 12,-1 19,-3 17,-5 7,-1 15,-7 -9,0 -27,6 -27,-6 -1,-13 -2,3 3,-8l8 -26c-2,0 -11,-2 -12,-2l-7 -4c-26,2 -56,12 -73,0 -1,1 -2,2 -3,2 -19,15 -84,13 -102,7z"/>
   <path class="fil13" d="M13640 5648c-21,25 -4,77 -19,107 10,16 8,29 10,50 7,9 8,-12 8,21l-2 -42 19 -8 11 -26c12,4 3,-1 16,5 -2,-23 -7,-22 -7,-54 0,-20 0,-38 1,-57 0,-24 -4,-27 -25,-31 -13,17 2,21 -18,26l14 -1c0,15 4,14 -8,10z"/>
   <path class="fil13" d="M13652 6066l-5 7c18,-1 21,1 38,0l8 16c15,-1 18,-5 26,-11l0 -15c-2,-21 -20,-36 -20,-61 -8,-8 -3,-2 -9,-18 -5,-11 2,-6 -8,-13 -4,-3 -10,-6 -18,-5 -20,2 -7,3 -12,8 -15,-19 -1,-9 -14,-13 -6,23 -3,3 3,21 4,11 3,21 4,32 3,19 11,29 7,52z"/>
   <path class="fil11" d="M13631 5805c1,9 0,20 2,28 3,12 3,-8 4,12 0,15 -1,15 5,29l31 5c-5,24 -30,22 -5,32l22 5c-2,-7 -5,-21 -6,-31 0,-16 4,-21 0,-37l0 -14c4,-13 5,-13 9,-24 -3,-7 -10,-23 -10,-30 1,-20 6,10 0,-25 -13,-6 -4,-1 -16,-5l-11 26 -19 8 2 42c0,-33 -1,-12 -8,-21z"/>
   <path class="fil2" d="M13684 5834l0 14c14,-3 14,8 19,19 12,2 16,4 21,5 8,1 45,-9 66,-4 9,-11 -11,-8 9,-8 6,-12 5,1 -1,-13 12,-8 9,-4 18,-1 -1,-1 -5,-5 -5,-6l-9 -14c35,13 12,10 38,21 2,-14 7,-14 9,-17 1,-1 3,-3 4,-4 -10,-7 4,-5 -13,0 -36,-7 -28,-1 -39,-3 -57,-14 -45,-3 -61,-3 -4,-1 -31,-14 -45,17l-11 -3z"/>
   <path class="fil13" d="M14748 5191c4,17 12,34 22,42 15,3 10,2 24,-2 0,15 -8,40 16,34 5,-2 8,-5 12,-10 13,-21 -4,2 -1,-30 1,-17 -3,-29 -14,-38l1 -15 -10 0c-9,-11 -17,-19 -37,-20 -12,14 -11,17 -13,39z"/>
   <path class="fil13" d="M14166 6021c4,13 13,21 27,23 18,3 27,25 45,38 15,-4 42,-16 56,-29 -8,-15 -15,-13 -35,-15 -21,-2 -16,-6 -30,-11 -16,-12 -63,-63 -63,-6z"/>
   <path class="fil14" d="M11949 5282l-13 -2 -10 61 19 29c3,9 2,9 7,18 5,10 4,5 7,16 26,-19 11,-46 17,-70 2,-6 6,-15 8,-23l3 -9 -18 -2 9 -22c-6,2 -12,5 -16,2l-5 -14c0,30 2,8 -8,16z"/>
   <path class="fil13" d="M11950 6574l5 23c9,0 6,22 9,33 3,10 11,24 18,34 -3,9 10,10 20,7 8,-2 12,-8 22,-12l4 0c-3,-9 -48,-13 -27,-50 -14,-3 1,1 -5,-7l-10 -1c-3,-19 -5,-43 -10,-64l-22 -7c-5,12 -6,28 -4,44z"/>
   <path class="fil15" d="M11895 6659l12 13c2,-9 0,-7 7,-9 6,7 7,-5 2,12 3,-8 -10,-11 24,-16 -25,27 -6,21 -3,22l12 -18 33 1c-7,-10 -15,-24 -18,-34 -3,-11 0,-33 -9,-33l-22 -6 -16 16c-11,12 -6,5 -18,14 0,1 1,2 1,3 2,11 16,2 -5,35z"/>
   <path class="fil16" d="M14480 5184l-16 -2c4,6 -6,23 16,8l-8 6c-1,1 -3,2 -3,3 -19,14 7,15 -4,21l7 7c22,8 15,3 33,4 15,1 -8,0 13,4 17,3 6,-2 24,4l2 -15c11,-12 14,-10 34,-8l-7 -14 -15 -4c-1,0 -4,-6 -5,-7l-71 -7z"/>
   <path class="fil13" d="M11942 5458l1 26c17,-2 20,-4 30,-15l-14 -65c-3,-11 -2,-6 -7,-16 -5,-9 -4,-9 -7,-18l-19 -29c-13,21 -20,24 -5,56 10,19 14,38 21,61z"/>
   <path class="fil12" d="M14947 5288l11 -3c13,1 27,6 43,12 14,5 27,16 39,22 -2,-25 -3,-18 1,-18l-21 -10c-1,-18 -5,-10 17,-19 -18,11 -12,-6 -13,-6l12 -13 -11 -9c-21,1 -15,-1 -35,-4 -31,3 -2,-4 -16,10 4,-23 13,-7 -17,-14 4,38 17,16 13,40 -24,-6 -4,-7 -32,-9 5,22 0,3 9,21z"/>
   <path class="fil17" d="M13666 6208l1 66 2 4c21,5 23,0 34,-9 3,-19 -2,-17 1,-37 -31,-8 14,-36 -18,-67l-6 -9 -8 -5c-5,9 -5,7 0,14 -9,12 -6,26 -6,43z"/>
   <path class="fil13" d="M13675 5447l2 23 9 -1 17 -6c1,21 0,7 -5,12 15,10 3,7 17,16l22 -10c0,-14 -8,-27 6,-27l-1 0 7 -15c-9,-8 -11,-10 -24,-16 -23,-10 -7,-11 -21,-12 -9,1 -2,4 -8,20 -2,1 -13,8 -14,8 -6,4 -4,3 -7,8z"/>
   <path class="fil13" d="M14542 5239c9,8 10,4 20,12 7,5 9,10 15,15 9,8 14,13 20,21 23,-4 25,-8 25,-30 -14,-6 -37,-44 -51,-55l7 14c-20,-2 -23,-4 -34,8l-2 15z"/>
   <path class="fil17" d="M14723 5436c11,-4 15,-5 28,-8 19,-6 9,-7 32,-6l2 60c16,1 6,3 21,-3 19,-7 7,-11 20,0 2,-21 -1,-2 6,-10 -2,-4 -4,-10 -5,-11l-9 -10c-5,-5 -4,3 -7,-10 -2,-9 4,-25 6,-35l-23 -7 -12 17c-6,2 -11,3 -17,4l-7 2c-34,11 -26,3 -32,16l-3 1z"/>
   <path class="fil17" d="M14421 6109c-8,-1 -6,-2 -13,2 -9,29 5,43 33,44l27 -1c1,-1 3,-3 3,-2l10 -4c12,-6 5,0 9,-12 -13,-12 -13,-12 -32,-12 5,-10 6,-1 4,-15 0,-2 -1,-3 -1,-4 0,-1 -2,-7 -2,-8l-16 26c-13,-8 -8,-10 -22,-14z"/>
   <path class="fil18" d="M15040 5319c5,15 2,13 16,20l13 7c10,-18 -2,-10 -8,-29 0,-1 0,-2 -1,-4 -2,-9 -2,-7 -5,-18 1,2 2,2 3,4 0,3 2,3 2,4 1,1 2,3 3,3 4,5 -1,4 11,6l7 -15c1,-1 2,-2 2,-3 0,-14 2,2 -21,-20l-26 -21 -12 13c1,0 -5,17 13,6 -22,9 -18,1 -17,19l21 10c-4,0 -3,-7 -1,18z"/>
   <path class="fil8" d="M13463 4501l-8 6c20,5 13,10 14,12 -11,9 2,3 -13,6 -11,3 -19,12 -10,21 2,6 29,-1 39,0 9,0 14,1 19,0 14,-1 7,-3 26,0 0,-12 -6,-10 -20,-13l-7 -21c16,-10 6,-3 12,-12 -15,-5 0,-2 -16,-2 -11,0 -9,1 -15,-5l-21 8z"/>
   <path class="fil19" d="M12629 4548l-12 14c-6,5 2,-2 -9,11 0,-1 -1,-2 -1,-2 -1,2 0,-7 -27,-13 1,18 -3,15 9,25l8 10c24,2 18,5 38,-5l8 4 0 -16 -17 3c1,-1 -1,-3 9,-5 18,-4 18,3 21,7l18 -8c-3,-14 -1,-9 -6,-19 -5,-8 -4,5 -3,-8 -24,-7 -25,-1 -36,2z"/>
   <path class="fil20" d="M14591 5421l51 5 -14 27c5,4 1,-1 5,4 4,4 3,7 4,9l11 -3 -4 22c7,2 -7,11 9,1l5 -26c-16,-6 -4,-2 -16,-13 5,2 6,3 11,4 1,0 4,1 5,1 22,6 -4,5 18,28l5 -14c0,-16 -3,-6 5,-15 -7,-8 6,-9 -8,-5l12 -13c-9,1 -2,4 -15,-1 -24,-10 11,15 -6,-7 -1,-1 -2,-9 4,-13l-4 -2c-24,-7 -7,9 -59,6 -8,0 -12,-4 -19,5z"/>
   <path class="fil21" d="M13971 5820c-5,5 -1,4 -5,-2 -12,8 -2,7 -26,4 1,1 5,10 5,11l5 31c0,-1 5,-2 5,-17 1,-19 7,-14 15,-19 2,10 3,8 6,18 8,21 2,23 2,24l29 -1 0 -3 -8 -23c13,3 10,0 19,6 2,1 4,4 5,5 1,1 2,2 3,3l6 -18 -29 -9c0,-17 4,-5 6,-4l-4 -13c-21,2 -13,0 -34,7z"/>
   <path class="fil22" d="M13515 4500c-6,9 4,2 -12,12l7 21c14,3 20,1 20,13l34 -3 -9 -9c4,-11 -1,0 5,-9 0,-1 1,-2 1,-3 4,-6 5,-2 -1,-14 9,0 1,2 5,-10l-4 -8c-2,1 -4,1 -4,2l-10 7c-13,-4 -2,-5 -17,-6 -25,-1 -14,6 -15,7z"/>
   <path class="fil23" d="M12865 6239l-7 19 11 -3c20,-8 -16,2 4,-2l8 7c0,0 2,1 2,2 1,0 2,1 3,1 1,0 6,-3 7,-3 5,-1 2,-1 8,-1 21,2 2,10 22,-2 -20,-20 -16,-8 -29,-2 1,-1 3,-3 3,-2l11 -12c0,-1 0,-3 1,-5l42 3c-9,-20 -2,-17 -2,-17 -8,0 -11,-4 -21,-2 -14,3 0,7 -23,6 -14,-1 -31,3 -40,13z"/>
   <path class="fil24" d="M12972 6217c22,-2 7,6 0,15l13 -2c-6,5 -4,7 -13,9 27,5 -1,-4 19,14l4 -12 11 8c4,-5 -2,-8 15,-12 1,-1 3,-2 4,-2l19 -16c1,0 1,-1 2,-1 11,-9 6,6 11,-7 1,-2 2,-2 4,-2 -24,0 -24,-1 -43,-7 -11,18 -26,12 -46,15z"/>
   <path class="fil21" d="M12983 5595l30 5 3 -16c-20,3 -2,5 -2,-9 -14,-7 -11,-12 -11,-12 -2,7 -1,-6 -2,-7l-6 -8c22,-5 2,-4 20,-1 -9,-13 -33,4 -50,-8l-8 15 22 13c-5,8 -1,-10 -2,8l6 20z"/>
   <path class="fil23" d="M14560 5290c-2,0 -12,6 -12,6l-10 3c-19,6 -4,-1 -21,11 20,-4 5,3 4,9 0,6 -2,3 -3,3 1,1 8,7 8,7l12 9c12,7 6,3 30,1 -14,-11 -11,1 -25,-19 19,-5 25,-2 33,-19 2,2 0,5 6,5 1,0 3,-1 3,-1 1,0 3,-1 4,-2l-3 -23c-2,1 -3,1 -3,2 -1,3 -5,2 -11,11l-12 -3z"/>
   <path class="fil21" d="M13643 5921c9,14 2,4 13,10 1,-1 2,-5 2,-4l6 -14c15,8 8,-7 10,18l7 -12 8 19 1 -22 -22 -5c-25,-10 0,-8 5,-32l-31 -5c-9,31 -6,21 1,47z"/>
   <path class="fil18" d="M12268 5635l3 -35 0 9c-1,-2 -1,-5 -2,-4l-4 -9c-1,-1 -2,-3 -3,-4 -1,-1 -3,-3 -4,-4 -3,3 -11,7 -12,13l5 12c0,2 1,3 2,5 -45,3 -28,3 -32,20l29 4c12,-11 -1,-5 18,-7z"/>
   <path class="fil25" d="M13776 5161c-1,-26 11,-21 -5,-57l-6 -14c-12,0 -7,-5 -12,15 0,1 0,2 0,4 -3,14 2,11 -10,14l16 5c-11,10 -5,-1 -7,16l14 5c1,0 2,0 2,0l1 -1c0,26 -2,2 7,13z"/>
   <path class="fil25" d="M12463 6344l0 14c-10,1 -9,-5 -16,14l16 -7c1,0 3,0 3,2 3,6 -6,1 18,7 8,-6 1,-2 13,-6 -7,-8 -6,-8 -9,-22l24 -1c-5,-7 -6,-8 -10,-19 -15,6 -23,16 -39,18z"/>
   <path class="fil23" d="M13565 4498c-4,12 4,10 -5,10 6,12 5,8 1,14 0,1 -1,2 -1,3 -6,9 -1,-2 -5,9l9 9 0 0 -1 -18c2,0 9,-6 11,-6 5,-2 7,-2 14,-2 0,1 1,1 1,3l-1 13c0,-1 2,-3 2,-2l11 -9c13,-11 -3,3 6,-7l10 -10c-18,-14 -30,-5 -52,-7z"/>
   <path class="fil26" d="M14865 6491c-19,-4 -18,-1 -36,3l-1 -8 -8 24c20,10 21,11 35,-5 5,15 -1,11 14,14 4,-6 11,1 3,-16 -17,-37 -4,14 -7,-12z"/>
   <path class="fil18" d="M14995 5407c-2,-21 2,-19 -18,-24 -15,-2 4,9 -20,-4 0,1 -1,1 -1,2l-6 26c20,-14 6,-8 23,-15 -6,17 0,5 -12,24 24,-3 10,-12 18,11 14,-8 12,-6 16,-20z"/>
   <path class="fil18" d="M13783 6156l-18 3c12,19 -2,7 12,17 0,1 -2,1 -2,2 -5,12 2,0 -6,3l-12 4c1,1 3,0 4,2l30 11c12,-23 -1,1 24,-6l1 -5c1,-19 -5,-2 2,-13l-32 11c6,-15 7,-6 18,-17 -16,-5 -11,2 -21,-12z"/>
   <path class="fil26" d="M13442 4547l4 -1c-9,-9 -1,-18 10,-21 15,-3 2,3 13,-6 -1,-2 6,-7 -14,-12l8 -6 -29 -1c2,15 -5,0 -21,12 1,1 2,1 3,2 0,2 5,3 5,4 2,1 5,3 8,5 -8,11 -7,4 -1,13 3,-13 0,-5 11,-9l3 20z"/>
   <path class="fil18" d="M12554 6314l-33 5 16 -3c-6,12 -3,14 -19,17l23 9c0,1 2,1 2,1 3,2 1,4 7,3 1,-1 6,-3 7,-4 0,1 -2,11 -3,14 -3,9 -1,-2 -3,5 21,-7 -11,-17 25,-12l-5 -7c-10,-22 8,2 -14,-24 -1,-1 -2,-3 -3,-4z"/>
   <path class="fil21" d="M14438 5187l8 6c-19,3 -8,-1 -19,6 10,17 -8,7 15,12 13,3 -3,-7 11,1 1,1 2,2 3,3l7 9 -15 2c-1,0 -2,1 -3,1 -1,0 -2,0 -4,0 34,-8 8,-2 16,6l15 -6 -7 -7c11,-6 -15,-7 4,-21 0,-1 2,-2 3,-3l8 -6c-22,15 -12,-2 -16,-8l16 2c-14,-5 -28,1 -42,3z"/>
   <path class="fil15" d="M13703 6269c1,1 3,0 4,2 1,3 10,6 20,4l0 -18c5,-9 1,-12 -3,-17 -1,-1 -7,-5 -8,-6 -9,-5 -1,-2 -12,-2 -3,20 2,18 -1,37z"/>
   <path class="fil27" d="M12382 5437l1 -8c6,3 11,5 19,8 0,-25 -2,-2 0,-10l3 -8c0,-1 1,-2 2,-3 -7,-8 -5,-3 -9,-15l-10 0c0,13 3,10 -4,17 -9,-11 -2,-3 -9,-9l-13 7 12 11c5,5 4,5 8,10z"/>
   <path class="fil28" d="M13660 7084c-8,18 2,6 -11,17l-9 5c0,0 -1,1 -1,1 1,11 6,11 17,14 11,4 2,0 8,4 11,-16 -5,-12 11,-10l-8 -10c-7,-7 -1,0 -1,1 7,-10 7,2 5,-23 -8,3 -5,3 -11,1z"/>
   <path class="fil18" d="M14679 5646l2 -41c-9,2 -9,1 -10,1 -7,0 -4,-1 -14,1l6 18c-1,1 -2,1 -2,3l-5 20c13,-5 5,-1 17,-8l6 6z"/>
   <path class="fil18" d="M15069 6256c11,2 6,-2 12,5 8,11 4,-12 1,4 -1,5 -5,1 -6,2l15 3c1,-25 -2,-2 10,-13l-4 -31c-12,2 -15,2 -18,22l-10 8z"/>
   <path class="fil21" d="M12467 4555l-16 0 6 12 -22 2 9 19c0,1 1,1 2,2l8 4c1,0 3,1 5,2 1,-2 5,-6 6,-6 1,-1 2,-1 3,-2l6 -3c1,0 3,-1 4,-1l-11 -4c-18,-1 -11,5 -16,-6 4,-2 53,-7 8,-8l8 -11z"/>
   <path class="fil28" d="M12204 6516c24,-1 -15,24 17,31l8 -1c1,0 2,0 2,0l1 -13c3,-3 3,-6 6,-9l-8 -3c3,-18 -2,-9 -6,-13l1 13c-18,-6 -8,-10 -21,-5z"/>
   <path class="fil25" d="M12076 6586c12,5 13,-14 8,10l-14 9c12,1 7,-2 11,8 0,1 0,3 1,3 0,0 0,2 1,3 20,-4 8,-2 25,-19 1,-1 3,-2 4,-4 -12,-4 -2,-2 -19,-7l6 -9 -23 6z"/>
   <path class="fil29" d="M12170 6296l6 6c18,-7 25,-4 37,-19 0,-1 1,-1 2,-3 0,-2 1,-2 2,-3l-6 -2c-10,4 -15,6 -31,5 -3,13 -7,15 -8,14 0,-1 -1,1 -2,2z"/>
   <path class="fil30" d="M15029 6529l-3 13 39 -5 -18 -4c5,-16 6,-18 8,-36 -14,6 -14,15 -11,28l-15 4z"/>
   <path class="fil31" d="M12674 4573l11 3c1,-6 1,-12 2,-17 1,-11 -1,-1 2,-14l-24 1c-1,13 -2,0 3,8 5,10 3,5 6,19z"/>
   <path class="fil32" d="M13246 4523c21,-1 11,3 19,-21l-15 -6c-5,7 -11,11 -4,27z"/>
   <path class="fil33" d="M12848 6239l-15 8 -2 9c2,3 7,7 9,9 0,0 5,-5 6,-5l9 -7 -7 -14z"/>
   <path class="fil30" d="M14784 5802l0 7c11,5 7,-10 10,7l11 5 7 -20 -28 1z"/>
   <path class="fil34" d="M13470 5535c5,15 3,6 6,10l4 -12 8 3 4 -16c-26,-3 -10,-3 -18,7l-4 8z"/>
   <path class="fil35" d="M13284 5609l31 -1c-6,-7 -2,-4 -10,-7 -7,-3 -11,-4 -18,-6l-3 14z"/>
   <path class="fil33" d="M13265 6176l-8 4 -5 -4 -4 15 15 4c11,2 -11,8 3,1 5,-3 2,-4 2,-9 0,-1 -3,-10 -3,-11z"/>
   <path class="fil36" d="M13686 5469c2,5 -5,7 12,6 5,-5 6,9 5,-12l-17 6z"/>
   <path class="fil37" d="M14836 5379c-7,-10 -2,-9 -16,-11 1,13 3,15 16,11z"/>
   <path class="fil34" d="M15056 5806l0 -8 -16 1c7,17 4,12 16,7z"/>
  </g>
 </g>
</svg>
