<?xml version="1.0" encoding="UTF-8"?>
<!DOCTYPE svg PUBLIC "-//W3C//DTD SVG 1.1//EN" "http://www.w3.org/Graphics/SVG/1.1/DTD/svg11.dtd">
<!-- Creator: CorelDRAW X8 -->
<svg xmlns="http://www.w3.org/2000/svg" xml:space="preserve" width="210mm" height="297mm" version="1.1" style="shape-rendering:geometricPrecision; text-rendering:geometricPrecision; image-rendering:optimizeQuality; fill-rule:evenodd; clip-rule:evenodd"
viewBox="0 0 21000 29700"
 xmlns:xlink="http://www.w3.org/1999/xlink">
 <defs>
  <style type="text/css">
   <![CDATA[
    .fil121 {fill:#150911}
    .fil107 {fill:#15132E}
    .fil78 {fill:#27151A}
    .fil69 {fill:#281A26}
    .fil57 {fill:#2B242A}
    .fil71 {fill:#2D1934}
    .fil36 {fill:#2F0F10}
    .fil43 {fill:#351B28}
    .fil22 {fill:#352735}
    .fil101 {fill:#374761}
    .fil128 {fill:#392B44}
    .fil37 {fill:#3B2B34}
    .fil4 {fill:#3C2C3B}
    .fil6 {fill:#43333D}
    .fil3 {fill:#443443}
    .fil99 {fill:#452829}
    .fil112 {fill:#452C44}
    .fil115 {fill:#463849}
    .fil67 {fill:#472A37}
    .fil123 {fill:#48363A}
    .fil15 {fill:#4B3444}
    .fil5 {fill:#4B3A45}
    .fil109 {fill:#4B545E}
    .fil58 {fill:#4C3B4B}
    .fil122 {fill:#4E2322}
    .fil12 {fill:#533C4C}
    .fil26 {fill:#544353}
    .fil62 {fill:#545069}
    .fil87 {fill:#56444B}
    .fil72 {fill:#594857}
    .fil13 {fill:#5B525A}
    .fil102 {fill:#634A59}
    .fil42 {fill:#66555B}
    .fil33 {fill:#675965}
    .fil32 {fill:#6B6269}
    .fil127 {fill:#6D4F4D}
    .fil81 {fill:#6D5669}
    .fil76 {fill:#6D6874}
    .fil96 {fill:#72738C}
    .fil124 {fill:#7489A5}
    .fil64 {fill:#76666B}
    .fil25 {fill:#776975}
    .fil50 {fill:#7C737A}
    .fil27 {fill:#85777B}
    .fil18 {fill:#887B84}
    .fil100 {fill:#896F70}
    .fil14 {fill:#8C8389}
    .fil133 {fill:#8E675D}
    .fil30 {fill:#8F7B8A}
    .fil68 {fill:#91A2BD}
    .fil126 {fill:#9296AA}
    .fil40 {fill:#93858B}
    .fil59 {fill:#96898B}
    .fil85 {fill:#968A95}
    .fil10 {fill:#9B8D93}
    .fil65 {fill:#9B939A}
    .fil74 {fill:#9D9294}
    .fil88 {fill:#A29495}
    .fil21 {fill:#A3959A}
    .fil55 {fill:#A59A9C}
    .fil44 {fill:#A59BA4}
    .fil77 {fill:#A79897}
    .fil20 {fill:#AA9C9D}
    .fil119 {fill:#AB9290}
    .fil63 {fill:#AB9DA2}
    .fil94 {fill:#ABA4AA}
    .fil130 {fill:#ABA9B4}
    .fil2 {fill:#ADA2A4}
    .fil131 {fill:#AFA39C}
    .fil11 {fill:#B2A4A5}
    .fil54 {fill:#B3A6AA}
    .fil24 {fill:#B5A9AA}
    .fil98 {fill:#B5ABAC}
    .fil97 {fill:#B5ABB3}
    .fil103 {fill:#B6A8A6}
    .fil120 {fill:#B6C6D5}
    .fil39 {fill:#B9ADAE}
    .fil89 {fill:#BAAEB1}
    .fil75 {fill:#BAB5B9}
    .fil110 {fill:#BBB1AE}
    .fil35 {fill:#BDB3B3}
    .fil53 {fill:#C1B6B6}
    .fil48 {fill:#C2B4B4}
    .fil95 {fill:#C2B6B9}
    .fil105 {fill:#C2B9B9}
    .fil111 {fill:#C3B9B6}
    .fil0 {fill:#C5BABA}
    .fil47 {fill:#C5BCC3}
    .fil45 {fill:#C6BDBD}
    .fil61 {fill:#C9B2AD}
    .fil106 {fill:#C9BDC1}
    .fil114 {fill:#C9BEBE}
    .fil117 {fill:#C9D7EC}
    .fil83 {fill:#CABCBB}
    .fil52 {fill:#CAC1C1}
    .fil113 {fill:#CACBD5}
    .fil129 {fill:#CBC6C8}
    .fil80 {fill:#CCC3C4}
    .fil118 {fill:#CEC4C4}
    .fil132 {fill:#D2C4C3}
    .fil56 {fill:#D2C8C6}
    .fil46 {fill:#D2C9C9}
    .fil79 {fill:#D5CDCA}
    .fil34 {fill:#D6CECD}
    .fil92 {fill:#D6D1CE}
    .fil108 {fill:#D6D1D2}
    .fil90 {fill:#D9CECC}
    .fil28 {fill:#D9D2D1}
    .fil60 {fill:#D9D5DA}
    .fil1 {fill:#DAD1CE}
    .fil116 {fill:#DBDAE4}
    .fil93 {fill:#DCD4D3}
    .fil29 {fill:#DDD6D5}
    .fil49 {fill:#DDD9D6}
    .fil125 {fill:#DED9D9}
    .fil82 {fill:#E1D9D6}
    .fil51 {fill:#E3DCDB}
    .fil91 {fill:#E4DDE3}
    .fil104 {fill:#E5E1DE}
    .fil41 {fill:#E5E3E4}
    .fil7 {fill:#E6E1E2}
    .fil73 {fill:#E6E6EA}
    .fil23 {fill:#E9E5E6}
    .fil8 {fill:#EAE4E3}
    .fil70 {fill:#EBF4EB}
    .fil38 {fill:#ECE9E6}
    .fil31 {fill:#EEEAED}
    .fil66 {fill:#F1ECEC}
    .fil86 {fill:#F3F1EE}
    .fil84 {fill:#F4F2F5}
    .fil19 {fill:#F5F5F8}
    .fil17 {fill:#F8F8FA}
    .fil9 {fill:#F9F9FB}
    .fil16 {fill:#FAFAF9}
   ]]>
  </style>
 </defs>
 <g id="Ebene_x0020_1">
  <metadata id="CorelCorpID_0Corel-Layer"/>
  <g id="_1602410810944">
   <path class="fil0" d="M12588 13026c0,0 42,-1 43,40 3,70 14,16 -57,44l6 -68c-68,15 -39,17 -106,14 -51,-3 -52,-3 -96,8 22,-65 22,-45 46,-119l-69 29c-90,17 -45,25 -87,74 -38,45 -32,6 -83,67 -30,-22 44,-16 -56,-24 -75,-7 -40,10 -48,12 -60,37 -32,1 -46,62l-25 -29c-1,-7 -8,-8 -11,-12l-287 58c-20,49 25,29 -50,53 -3,1 -81,-12 -136,99 -35,-48 -28,-45 -26,-116 -12,7 -30,11 -44,22l5 -29c-35,13 -76,17 -106,26 -28,9 -5,-2 -31,18l-30 30c-80,-18 -98,-8 -149,21l-42 -22 -78 0 -18 90c0,37 14,49 -20,69 -80,46 -32,0 -49,-22 -3,3 -36,32 -44,42l-42 -9c-11,46 10,33 -15,58 -72,-5 -24,6 -40,-33 -90,16 -179,18 -275,11 -3,6 -6,14 -7,19 -1,5 -4,14 -5,19 -11,52 -8,-36 1,32l18 44c-37,36 59,23 -51,30 -9,-15 -7,-6 -19,-40 -12,-36 -2,-18 -10,-49 -16,48 17,-4 17,-4 1,-2 2,-9 2,-11l-19 -46 45 4c-18,-22 -242,-18 -299,-18l-24 -46 -45 16 -36 20 68 72c39,33 8,24 46,16l-96 42c-36,-48 -30,-24 -25,-89 -6,3 -27,16 -33,18 -4,2 -9,6 -13,7l-115 14c-94,107 -85,33 -104,19 76,-59 35,3 78,-63l-64 19 -18 -7c-21,41 -31,24 -92,88 45,68 40,20 74,115 -73,-19 -44,-7 -86,-69 -38,-58 -40,-39 -43,-105l-67 18 -12 8c-56,36 -58,25 -100,13 6,49 14,68 29,101 -78,-24 -39,-38 -102,-18 8,-60 -6,-25 15,-63l-103 -10 38 32 -57 22c-16,28 -28,44 -63,59 -31,13 -34,8 -44,12 -48,18 -5,-8 -32,22 -71,33 -127,23 -224,15l0 10c55,13 88,3 106,23l79 1 6 93c-5,3 -11,7 -15,10 -3,2 -10,6 -14,9l-23 17c-3,2 -7,6 -10,8 -41,35 14,1 -42,36 -91,-55 -233,-91 -263,-98 -13,-3 -17,16 -26,-8 -2,-5 -10,-3 -14,-6 -18,45 -8,38 -49,61 -6,-8 -83,-29 15,-128l-49 12 -22 63c-13,-9 -25,-4 -41,-17l12 57c-70,2 -33,-12 -61,21l37 166c-44,-25 -37,-30 -105,-32 30,16 30,4 46,45 -78,8 -70,12 -151,-1l-34 40c-18,-9 -30,-18 -32,-19 -14,-6 -7,-7 -42,-12l-37 48c-48,-44 2,-9 -56,-39l-70 43c-23,-21 42,-22 -56,-14 -36,43 0,8 -49,28 -30,12 -3,2 -46,18 -38,45 -43,38 -86,67l-63 5c-7,70 -20,63 -25,87 -5,33 14,29 1,99l57 -36c-24,-58 -28,-47 4,-105l31 45c31,30 1,11 43,22l37 -62c132,0 142,58 241,-19 51,45 49,20 61,15 -47,-82 11,-3 -72,-56l17 -61c52,21 64,71 105,76 7,-1 16,-10 19,-5l33 -12c5,-3 19,-14 23,-17l18 -15c15,-7 100,-16 140,-28 12,29 1,2 14,42 10,30 4,15 13,38 100,-97 79,-79 73,-243l168 21 35 -75c85,-20 47,-3 61,17l14 81c40,13 23,-7 41,40l-44 8 20 75c50,-10 43,-15 100,-12l9 -107 64 24c-10,-60 -42,-34 -3,-94 73,22 30,-13 74,63l73 -57c-20,-101 20,-22 -49,-74l14 -115c63,23 63,23 110,77 3,-4 6,-15 7,-12 12,27 -11,-20 51,-41 -32,81 -29,34 2,110l-85 -26c27,99 11,29 1,143 54,-22 29,-15 69,-57l28 -25c105,47 79,57 207,51 30,68 44,108 120,125 110,26 61,-30 172,-46l-35 -105 107 -20c63,-42 4,-51 65,-48 -3,36 -22,6 -31,105l95 -6c21,-130 1,34 -17,-109l73 18c32,-64 20,-53 80,-56 59,80 19,54 -1,157l-62 -9c42,70 -6,6 51,46 72,50 -3,16 76,49 7,-56 18,-31 59,-57l12 -70c2,-5 4,-12 5,-14 2,-2 8,-9 10,-11l35 -12c39,64 30,77 49,162l15 -68c86,30 78,-17 126,44 45,-64 9,-16 51,-42 49,23 38,10 62,18 84,31 29,2 58,48 -26,12 -14,18 -65,23 -21,2 -15,2 -36,0 -57,-7 -30,-11 -43,-17 -9,52 -6,26 -44,58l-111 23c17,60 -27,44 160,72l3 -83 101 -28c20,89 55,-2 20,119 -32,24 48,25 -62,17l63 14c11,1 27,-4 61,1l39 -94c44,22 15,-14 43,37l11 -87c103,61 110,-34 133,-72l57 46c1,1 5,5 8,8l-34 61c9,2 19,1 23,13 2,9 26,26 29,30 37,51 14,74 23,163 -59,23 -112,20 -120,111 11,0 61,-6 63,-5l59 33c39,-41 -56,43 21,-16 62,-48 21,-25 72,-88l114 -5c-23,-10 -36,2 -81,-42 12,-6 26,-9 38,-17 76,-48 -6,-28 120,-109 19,66 -2,1 27,59 19,37 21,44 40,90l-111 93c107,104 -9,-26 111,35 -9,-99 4,-57 20,-80 59,-2 8,-21 70,9l47 39c3,3 8,8 13,12 5,-5 53,-17 57,-112 42,28 51,26 94,41 -20,31 -45,95 -60,130l52 25c12,5 52,25 63,31 -30,-57 -6,-13 -29,-47 -3,-5 -16,-18 -19,-23 -30,-57 -14,8 -10,-66 76,19 155,43 154,133 48,10 25,-3 69,14 17,-32 -1,-38 3,-67 3,-33 7,-31 15,-46 90,26 20,36 93,71l46 -58c2,-4 6,-10 9,-15l29 45c2,4 5,10 7,13 6,11 2,10 20,30l37 -53c62,16 50,11 108,45 -37,-63 -49,-71 -101,-92 44,-8 212,80 267,107l-2 50 75 4c4,-58 -25,-29 80,10 -24,-84 14,-39 -85,-122l-95 -108c-1,-2 -5,-7 -7,-11l38 -37c-108,-15 11,-28 -96,-20 -25,-23 -20,-15 -35,-92 -10,-50 -12,-13 1,-54 55,19 10,-6 56,53 12,-3 112,-5 120,-31 3,-7 10,-6 15,-8 12,44 17,47 36,78 -42,27 -45,-3 -80,78l39 0c-43,83 15,105 111,71l37 42c41,31 -4,8 51,19 64,13 63,-2 98,44l18 -51 102 28 1 46 32 -3c23,-57 -9,-33 73,-39l5 104 -2 18 48 -54c108,23 72,24 97,50l-68 44c-32,26 19,21 -119,44 19,-39 20,-45 38,-71 -71,-7 -47,-7 -103,-36l9 39c-89,2 -35,-38 -74,54 18,31 17,24 32,42l20 21c17,21 8,93 8,122 -85,42 -69,51 -136,42 -30,49 -15,38 -65,78l-21 16c-49,37 -38,14 -53,68 145,-64 185,-37 343,-37l64 -5 47 -15 30 39 40 49 36 2c12,-40 20,-46 42,-70 -16,-55 -9,-31 -35,-77 57,-1 93,5 128,23 43,-30 12,13 19,-57l-8 9 -36 -73 -27 54c-113,-6 -102,-11 -179,38 -12,-47 -15,-83 -14,-151 75,-35 33,1 50,-55l31 22c26,16 1,3 35,20 29,-65 -1,-5 37,-37 32,9 59,18 105,17 -9,-35 -1,-17 -18,-57l-12 -23c-4,-3 -10,-13 -12,-9l-33 -30c-3,-3 -8,-8 -11,-11 -2,-2 -6,-7 -10,-11 4,-53 -9,-113 64,-118 94,-6 62,70 62,76l36 -13c5,-46 4,3 -13,-30l58 -49c6,-2 13,-5 20,-8l-12 121c139,-30 55,-3 85,17 11,55 -1,3 24,27l45 -9c52,-33 13,-14 85,3 85,2 83,23 117,-31 38,61 8,30 69,70 42,-21 54,-15 68,-66 -40,4 -29,13 -59,1 -77,-32 -32,-21 -53,-56 36,-17 3,-14 70,-18 44,-3 20,6 85,2 71,-14 4,-41 159,-21l116 -55 207 116c45,6 51,14 80,17 96,8 42,4 56,-18l92 -18c2,-1 8,0 10,0 2,0 6,1 9,1 33,63 32,41 -22,72 49,0 -1,-6 22,28l69 1c1,-59 11,-76 12,-100 2,-33 -8,-35 -9,-90l99 -93 -2 -48c109,-2 49,19 61,-32l39 24c25,13 13,7 40,16 25,-15 25,-10 63,-21l45 -9c6,-75 9,-73 40,-116 68,5 31,7 97,17 28,-8 44,-3 88,-14 87,-23 24,-20 94,-41l37 75c93,-63 -19,-13 155,-139 -50,-7 -97,0 -86,-61 8,-48 29,-27 81,-59 -18,-45 6,-35 -89,-93l46 -43c2,-7 6,-8 9,-12 -28,-68 -24,-27 -48,-102 59,7 58,40 150,-40l-35 -7 -2 -116 65 6c-4,-38 -11,-79 -14,-91l-25 -3 -152 -43c-3,5 -6,10 -10,14 -30,37 17,4 -27,36 -50,37 -63,8 -89,0 -28,-117 29,-106 -84,-174 18,-38 16,-29 10,-89 53,48 47,-53 40,82 65,-5 122,-12 150,48l5 17c22,20 -2,8 54,2 -28,-78 -22,-27 -18,-92 -16,-19 -24,-7 -30,-71 -4,5 -8,11 -11,14l-19 25c-42,48 33,-7 -26,20 -14,-25 -26,-73 37,-86l-24 -83 -14 -73 -69 8 56 112c-24,40 -32,45 -53,87 -16,-26 -45,40 -15,-121l-47 29c20,37 13,-19 -1,24 -40,-46 -9,-34 -65,-76 4,42 -1,17 10,51l28 59 -75 27c43,59 23,39 9,86l-54 -78c-46,63 -8,48 -83,75 43,76 70,24 32,59 -38,35 16,-3 -60,0 -84,3 -121,43 -121,43l-131 -20c-57,-7 -48,-23 -72,-29 137,55 76,16 100,-49 -86,-1 -65,38 -98,-14 -44,-67 50,-8 -49,-69l2 -93c-69,-27 -67,16 -89,-59 3,87 2,46 25,92 20,40 24,30 24,83 -60,13 -26,10 -69,4l-55 26 24 -116 -122 12c-1,3 -3,8 -3,10 0,2 -1,8 -2,10l-21 76c48,51 38,34 41,109l-66 -42c-65,107 -74,-26 -43,114l-63 -15c-1,-2 -4,1 -6,1 38,42 53,39 32,94 -87,-66 -30,-108 -83,-135 -88,-45 8,35 -115,8 -6,-1 -16,-1 -20,-9 -4,-9 -13,-7 -20,-11l32 122c12,62 14,60 60,83l-69 37 -9 -75c-37,38 -16,32 -82,13 9,78 28,18 -22,77 5,3 11,5 13,7 2,1 9,4 11,5 2,1 7,4 9,5 1,1 4,4 6,5 81,71 62,46 66,102l-92 -30c-5,3 -12,6 -16,8l-57 33c26,-85 27,22 91,-114 -91,6 -107,-6 -185,35l-36 -53c4,-3 11,-6 15,-9l32 -12c3,-28 1,-68 1,-69l97 -47 -29 -16c-53,-33 -3,29 -43,-30 -33,-49 2,6 5,-47 0,-6 1,-9 1,-14 -39,-21 -5,9 -24,-28l-59 1 -31 5c19,34 31,48 44,96 -33,35 51,40 -40,28 85,36 31,4 52,47 -87,36 -31,15 -96,-9 -91,88 -45,-6 -149,19 47,56 51,24 79,82 -3,1 -7,1 -8,1 -1,0 -6,0 -7,0l-34 6c-1,1 -5,5 -6,6l-22 93c-55,4 -22,-9 -75,44 -6,-10 -23,-25 -1,-78l-70 21c43,-63 39,-18 20,-79l-52 30c-2,-4 -11,1 -16,1 23,173 -22,107 -67,122 -33,-90 -26,-94 2,-124 36,-40 -1,65 21,-21 2,-7 7,-7 11,-11 -49,-33 -77,-64 -164,-58l-32 -53c-2,-7 -7,-8 -10,-12 46,-84 -3,-69 95,-90 -15,-41 -19,-43 -4,-94 -95,86 -4,57 -54,38 -6,-40 27,-44 -12,-95 -3,4 -7,10 -9,13l-21 69c-32,-53 -16,-6 -16,-58 1,-115 11,62 3,-38 0,-3 -9,-17 -13,-22 39,-26 18,-7 41,-37 -5,-4 -13,-12 -15,-15l-18 -17c-96,-84 72,37 -28,-20l-37 70 -144 -74 58 -75c-67,-5 -69,26 -119,31 -102,11 -95,-63 -97,-67 37,-40 11,-24 69,-43 23,-7 6,-1 55,-13 -4,-1 -16,-1 -19,-1 -53,-11 -48,-20 -99,-53l-13 39c0,1 -2,12 -3,9 0,-2 -2,7 -3,10 -56,-37 -8,-3 -46,-49l-48 -45 102 -8 13 -69c-104,18 -69,-7 -110,-36 23,129 -14,53 46,87 -68,-33 -57,-49 -130,-7 -13,-49 3,-23 -12,-58 -67,4 -52,0 -98,18l-18 75z"/>
   <path class="fil1" d="M8898 14112l3 -48 -14 -81c-14,-20 24,-37 -61,-17l-35 75 -168 -21c6,164 27,146 -73,243 -9,-23 -3,-8 -13,-38 -13,-40 -2,-13 -14,-42 -40,12 -125,21 -140,28l-18 15c-4,3 -18,14 -23,17l-33 12c-3,-5 -12,4 -19,5 -41,-5 -53,-55 -105,-76l-17 61c83,53 25,-26 72,56 -12,5 -10,30 -61,-15 -99,77 -109,19 -241,19l-37 62c-42,-11 -12,8 -43,-22l-31 -45c-32,58 -28,47 -4,105l-57 36c-65,27 -38,-14 -76,42l-30 36c-60,-2 -69,3 -90,-51 -29,18 -27,19 -71,24 6,36 80,82 4,114 -3,1 -10,5 -14,6l-66 23c4,2 8,5 10,7 2,1 9,5 11,6 2,2 9,6 12,8l27 16c-7,33 -12,47 -12,54 1,18 -7,-2 16,24 7,-35 -30,-27 142,-31 -38,37 -14,37 -94,33 11,121 -8,107 -84,110l25 79c-2,-1 -33,-44 48,-10 5,2 143,84 164,158l37 -7c-25,-55 -28,-9 -58,-80l115 -9c12,29 15,43 26,74l128 -4c10,20 5,22 19,36 28,30 3,13 39,24 32,-53 -2,-18 51,-62 -74,-42 -24,22 -63,-55 45,-95 59,-6 58,-101 -79,65 -79,-10 -80,-11 26,-55 41,-44 57,-69 18,-27 2,-31 31,-79l-81 -30c21,-64 -42,-31 156,-129 5,5 11,6 13,14 8,38 35,52 81,14l28 -26c47,93 87,69 147,49 41,-13 -11,4 62,-18l-19 102 125 -25c4,41 22,60 40,86 -18,114 -52,-30 -28,125 130,-15 68,37 85,-92l90 -42 18 -97c99,24 -36,-22 121,83l-58 118c95,1 30,-22 67,43l-11 -2c16,-66 35,-56 39,-82 1,-9 -7,-41 0,-91l183 -39c45,-22 3,-7 56,-37 37,22 40,42 59,43 75,3 14,-199 162,-134 -2,-86 6,-88 153,-115 -36,60 -45,22 -76,111 29,16 43,21 92,28 -18,59 -10,34 -40,70 220,-18 26,-4 168,18 -22,-49 -35,-25 -59,-74 249,8 128,71 221,136l-29 65 117 28c-12,-40 -3,0 -35,-63l33 -31c22,-32 11,-3 21,-53 86,22 70,43 121,-23l4 107c19,44 -3,27 45,56l-29 46c17,7 22,-9 32,47 57,-1 23,-25 86,15 45,28 29,33 39,62 236,56 32,106 157,160 2,-3 4,-13 4,-10 9,34 7,-21 9,-25l11 -29c17,-42 86,-34 131,-37l-33 -37c1,-2 8,-17 10,-12 2,3 10,-11 12,-14 42,-81 9,39 11,-20 2,-48 48,53 -28,-38 69,-14 27,-17 90,3l16 -93c95,-9 49,-9 117,17l8 -68c23,-29 8,-17 50,-25 122,135 -98,157 323,87 24,36 -33,7 49,32l10 93c67,10 9,-28 119,44 55,-14 29,-14 99,-13 -1,-67 6,-55 39,-139 18,-49 108,-23 136,-20 9,-22 50,-41 80,26 37,-40 45,-37 114,-55 3,117 10,70 -10,176l200 4c71,70 50,82 38,175 47,35 36,33 59,76l42 -17c19,22 52,56 94,64 73,12 67,-17 110,-50l233 49c38,3 9,4 40,-1 71,-12 13,-21 117,-8l18 -40c158,50 82,-7 178,-17 87,-8 123,49 150,-33 -79,25 -37,4 -56,-4l44 -17c65,-31 19,34 55,-39 -158,0 -198,-27 -343,37 15,-54 4,-31 53,-68l21 -16c50,-40 35,-29 65,-78 67,9 51,0 136,-42 0,-29 9,-101 -8,-122l-20 -21c-15,-18 -14,-11 -32,-42 39,-92 -15,-52 74,-54l-9 -39c-11,-8 -47,-1 -1,-57l-1 -46 -102 -28 -18 51c-35,-46 -34,-31 -98,-44 -55,-11 -10,12 -51,-19l-37 -42c-96,34 -154,12 -111,-71l-39 0 -17 -4 -38 37c2,4 6,9 7,11l95 108c99,83 61,38 85,122 -105,-39 -76,-68 -80,-10l-75 -4c-93,-14 -58,-44 -164,-65 -58,-34 -46,-29 -108,-45l-37 53c-18,-20 -14,-19 -20,-30 -2,-3 -5,-9 -7,-13l-29 -45c-3,5 -7,11 -9,15l-46 58c-73,-35 -3,-45 -93,-71 -8,15 -12,13 -15,46 -4,29 14,35 -3,67 -44,-17 -21,-4 -69,-14l-96 3c-11,-6 -51,-26 -63,-31l-52 -25c15,-35 40,-99 60,-130 -43,-15 -52,-13 -94,-41 -4,95 -52,107 -57,112 -5,-4 -10,-9 -13,-12l-47 -39c-62,-30 -11,-11 -70,-9 -16,23 -29,-19 -20,80 -120,-61 -4,69 -111,-35l111 -93c-19,-46 -21,-53 -40,-90 -29,-58 -8,7 -27,-59 -126,81 -44,61 -120,109 -12,8 -26,11 -38,17 45,44 58,32 81,42l-114 5c-51,63 -10,40 -72,88 -77,59 18,-25 -21,16l-59 -33c-2,-1 -52,5 -63,5 8,-91 61,-88 120,-111 -9,-89 14,-112 -23,-163 -3,-4 -27,-21 -29,-30 -4,-12 -14,-11 -23,-13l34 -61c-3,-3 -7,-7 -8,-8l-57 -46c-23,38 -30,133 -133,72l-11 87c-28,-51 1,-15 -43,-37l-39 94c-34,-5 -50,0 -61,-1l-63 -14 -11 -31 -51 6c-187,-28 -143,-12 -160,-72l111 -23c38,-32 35,-6 44,-58 13,6 -14,10 43,17 21,2 15,2 36,0 51,-5 39,-11 65,-23 -29,-46 26,-17 -58,-48 -24,-8 -13,5 -62,-18 -42,26 -6,-22 -51,42 -48,-61 -40,-14 -126,-44l-15 68 -49 51c-33,-24 -19,-21 -58,-34 -38,-13 -22,3 -63,-15 -79,-33 -4,1 -76,-49 -57,-40 -9,24 -51,-46l-17 -92 -73 -18c18,143 38,-21 17,109l-95 6c9,-99 28,-69 31,-105 -61,-3 -2,6 -65,48l-107 20 35 105c-111,16 -62,72 -172,46 -76,-17 -90,-57 -120,-125 -128,6 -102,-4 -207,-51l-28 25c-40,42 -15,35 -69,57 10,-114 26,-44 -1,-143l85 26c-31,-76 -34,-29 -2,-110 -62,21 -39,68 -51,41 -1,-3 -4,8 -7,12 -47,-54 -47,-54 -110,-77l-14 115c69,52 29,-27 49,74l-73 57c-44,-76 -1,-41 -74,-63 -39,60 -7,34 3,94l-64 -24 -9 107c-57,-3 -50,2 -100,12l-20 -75z"/>
   <path class="fil2" d="M14584 12647c-7,13 -31,33 -29,93 2,81 21,41 22,41 -23,9 -90,-25 -123,-40 2,-74 2,-46 -8,-116l19 -41c-46,0 -68,-14 -68,24 42,-4 35,-1 50,6 -58,36 -51,24 -53,98l-112 -65 -118 30 97 -8 -62 71c66,26 122,12 67,108 26,20 -18,41 78,-1l80 -28c59,-28 11,8 36,-33l55 13c15,118 20,42 -31,56 -29,-19 -24,49 -22,-56 -60,33 -31,-16 -47,56l180 55c23,64 25,32 57,93 -41,52 -51,63 -20,148 -126,38 -15,3 -60,71 -6,9 -16,41 -76,43l-76 1c-1,1 -7,3 -8,4 -36,30 -11,38 -11,38 -75,-136 -4,-35 -91,-101 61,-50 20,-33 25,-83l-100 95c-14,-20 -23,-35 -43,-51 0,43 8,28 -41,26 82,154 12,53 72,126 84,106 31,115 1,144 -68,-71 3,-8 -82,-119 -11,-14 -25,-26 -11,-53 34,-69 -50,52 18,-18l24 -13c-77,-29 -8,0 -72,-44 71,-39 15,5 31,-40l-12 -32 -30 -7c-37,13 -13,-1 -49,34 -32,31 32,6 -51,36 -61,-60 -71,-64 -176,-61l2 97c7,6 10,18 39,33l27 17c0,0 1,49 -51,34l-2 48 20 -16c41,-19 89,20 -51,69 9,-39 18,-20 -7,-10 -42,16 -15,13 -18,16 -10,-52 -10,-53 49,-63 -19,-21 -26,-31 -41,-66l-94 12c13,-24 22,-38 35,-58 4,-6 22,-24 24,-34 3,-11 8,-11 12,-17 -88,17 -65,-9 -109,72 -36,-26 25,-42 -121,-5l-27 5c-1,-6 -4,-14 -3,-19 1,-5 -1,-13 1,-18l40 -42c73,-31 -36,-5 18,5 1,0 5,3 6,3 2,0 7,1 9,1l48 0c3,-1 8,-1 10,-1 13,-5 22,-24 32,-42 36,17 40,19 89,24l48 -52c-5,-41 -8,-11 25,-23l85 -22 -85 -36c5,-3 10,-8 13,-10l23 -18c32,-20 -6,-1 29,-14 42,-15 16,17 52,-25l-11 -57c-24,43 32,41 -51,12 51,-61 6,-1 28,-61 -6,-9 -17,-31 -18,-32 -32,-44 18,5 -36,-35 -74,67 -51,6 -143,78l-19 17c-87,50 71,-26 -29,6 -55,18 -25,81 -47,26 -1,-3 -7,5 -10,7l7 62 -18 52c-48,1 -10,23 -47,-9 -21,-17 -74,-71 -79,-74 -33,-22 -48,-11 -78,-49 -16,8 -39,16 -84,23 -11,-126 -2,-79 13,-85 -50,-22 -18,-10 -33,-1l27 126 -71 -30 51 72c-24,40 -33,53 -44,105l-100 -20c-21,32 10,-16 -18,30l-19 30c-55,-16 -41,-30 -46,-2 -55,-33 -49,54 -40,-69 -49,12 -32,6 -55,13 -58,19 -32,3 -69,43 2,4 -5,78 97,67 50,-5 52,-36 119,-31l-58 75 144 74 37 -70c100,57 -68,-64 28,20l18 17c2,3 10,11 15,15 -23,30 -2,11 -41,37 4,5 13,19 13,22 8,100 -2,-77 -3,38 0,52 -16,5 16,58l21 -69c2,-3 6,-9 9,-13 39,51 6,55 12,95 50,19 -41,48 54,-38 -15,51 -11,53 4,94 -98,21 -49,6 -95,90 3,4 8,5 10,12l32 53c87,-6 115,25 164,58 -4,4 -9,4 -11,11 -22,86 15,-19 -21,21 -28,30 -35,34 -2,124 45,-15 90,51 67,-122 5,0 14,-5 16,-1l52 -30c19,61 23,16 -20,79l70 -21c-22,53 -5,68 1,78 53,-53 20,-40 75,-44l22 -93c1,-1 5,-5 6,-6l34 -6c1,0 6,0 7,0 1,0 5,0 8,-1 -28,-58 -32,-26 -79,-82 104,-25 58,69 149,-19 65,24 9,45 96,9 -21,-43 33,-11 -52,-47 91,12 7,7 40,-28 -13,-48 -25,-62 -44,-96l-47 2c18,-68 -17,-35 40,-62l49 -4c38,2 12,-2 37,12l-48 47 59 -1c19,37 -15,7 24,28 0,5 -1,8 -1,14 -3,53 -38,-2 -5,47 40,59 -10,-3 43,30l29 16 -97 47c0,1 2,41 -1,69l-32 12c-4,3 -11,6 -15,9l36 53c78,-41 94,-29 185,-35 -64,136 -65,29 -91,114l57 -33c4,-2 11,-5 16,-8l92 30c-4,-56 15,-31 -66,-102 -2,-1 -5,-4 -6,-5 -2,-1 -7,-4 -9,-5 -2,-1 -9,-4 -11,-5 -2,-2 -8,-4 -13,-7 50,-59 31,1 22,-77 66,19 45,25 82,-13l9 75 69 -37c-46,-23 -48,-21 -60,-83l-32 -122c7,4 16,2 20,11 4,8 14,8 20,9 123,27 27,-53 115,-8 53,27 -4,69 83,135 21,-55 6,-52 -32,-94 2,0 5,-3 6,-1l63 15c-31,-140 -22,-7 43,-114l66 42c-3,-75 7,-58 -41,-109l21 -76c1,-2 2,-8 2,-10 0,-2 2,-7 3,-10l122 -12 -24 116 55 -26c43,6 9,9 69,-4 0,-53 -4,-43 -24,-83 -23,-46 -22,-5 -25,-92 22,75 20,32 89,59l-2 93c99,61 5,2 49,69 33,52 12,13 98,14 -24,65 37,104 -100,49 24,6 15,22 72,29l131 20c0,0 37,-40 121,-43 76,-3 22,35 60,0 38,-35 11,17 -32,-59 75,-27 37,-12 83,-75l54 78c14,-47 34,-27 -9,-86l75 -27 -28 -59c-11,-34 -6,-9 -10,-51 56,42 25,30 65,76 14,-43 21,13 1,-24l47 -29c-30,161 -1,95 15,121 21,-42 29,-47 53,-87l-56 -112c-36,15 -4,14 -16,1l5 -62c-45,-12 -30,20 -36,-42l-74 7 -36 -34 -88 -24c37,80 28,40 67,79l-63 15c8,-27 46,-125 -14,-90 -22,33 -13,18 -26,58l-18 59c-2,-5 -4,-10 -5,-13 -1,-4 -3,-10 -4,-14 -2,-5 -3,-11 -5,-15l-37 -65c-1,-5 -5,-5 -8,-8 43,-39 20,-24 95,-41 56,1 10,9 29,-42 -32,9 -72,34 -56,-16l-33 0c-1,1 -52,106 -69,86 -4,-5 -14,8 -20,13 0,-126 5,-42 -31,-74 -13,72 20,29 -25,59 -54,-22 -17,11 -39,-39 -2,-4 -2,-12 -3,-15l-51 -44 7 143c-21,-59 6,-8 -34,-63l-17 -34c1,-12 5,-15 7,-22 -67,11 -40,-15 -77,26l-51 -67c76,-39 11,8 62,-49 38,-43 26,-18 42,-74l15 129c22,-16 10,-7 23,-7 2,1 16,8 22,12 28,-40 -35,-34 34,-34 -14,-58 -17,-24 -29,-97 85,32 8,-7 71,54 38,-29 4,-28 49,-12l-18 -93c1,-8 2,-11 4,-15l-2 -51 -52 51c-50,-58 -12,-37 -41,-93l26 -48 -24 12 -47 4 -62 19c-41,76 21,51 -80,41 25,-37 7,-16 21,-50l-180 -18 12 44c36,64 34,20 4,87 -5,-14 40,-35 -40,-28 -50,3 -19,16 -19,24 -19,-31 17,-18 -26,-34z"/>
   <path class="fil3" d="M4000 10059c35,47 -27,23 59,33l-101 87c-5,-6 -17,4 -25,5 70,-75 44,-42 73,-111l-51 30 -340 231c-31,28 -2,-4 -34,36l63 13c-56,42 -8,27 -72,59l-4 53 -16 401c-1,51 -1,65 -38,81l-14 242c47,-5 18,-15 40,4l-15 68c-57,32 -17,19 -38,-20l-27 89c-3,40 -4,80 -8,122 -97,85 -37,111 -87,234 -18,44 -39,59 -53,114 -23,85 24,93 -13,107 -24,47 -4,8 -19,64l-16 49c-19,14 -28,294 -28,341 2,115 -58,253 -69,353l25 18c-53,101 -15,69 -55,148 -24,38 -43,154 -40,215l-7 54c65,1 33,-12 87,28 -3,5 -7,7 -9,15l-40 30c0,1 -2,4 -3,5l-30 47c-15,-66 3,-70 -29,-107l-64 111 -36 83 16 68 -4 71c16,-4 0,-29 48,-2l31 34c109,77 18,21 76,98 59,-20 -29,23 27,-171 1,-4 2,-9 3,-14l23 -50c28,-88 -18,-74 42,-107l4 -58 -4 -66 46 -4c8,-70 29,-120 44,-205 12,-69 15,-44 16,-106 1,-75 2,-2 32,-97l-64 -19c4,-105 1,-83 100,-71l13 -26c7,-23 6,-22 9,-46 5,-29 8,-50 7,-98 -8,-330 85,-379 69,-516 -38,-23 -30,19 -32,-23 74,-78 22,33 40,-57 1,-8 -5,-63 -6,-78l49 -16 -5 -22 -9 -88 44 -29 20 -71 -40 -8c29,-69 31,-94 20,-170l56 38c10,-41 4,-37 16,-74 12,-37 15,-33 36,-74l-22 -104c22,-40 24,-80 35,-147 -52,-37 -47,61 -43,-46 36,-16 -44,-28 52,-12l24 -12c44,-250 35,-74 39,-365 0,-61 -14,-106 -24,-158l-23 -27c60,-41 40,-6 74,-58 24,24 36,-34 14,42 33,-17 31,-13 63,-39 36,-28 -13,13 21,-18 30,-28 10,-9 29,-31l-29 -22c1,-1 33,-20 34,-21 37,-20 21,-18 62,-20 21,-28 0,-20 23,-1 22,-17 1,4 37,-26 54,-45 13,-8 39,-40 -63,-16 -26,4 -42,-30l70 -32 25 40 54 -14 10 -30c40,-77 1,-35 55,-90 1,1 111,-16 -25,55l34 10c54,2 43,16 131,-37 4,-3 8,-6 11,-9l24 -14c78,-37 111,-20 142,-103l52 7 2 -54c7,-1 55,-3 88,-4 -56,9 -26,21 -51,39 68,-3 71,12 85,-22 -39,-79 -36,-47 -102,-72l36 -38 -37 -13 -489 173c-32,16 -41,21 -78,33 -57,18 -61,8 -89,35z"/>
   <path class="fil4" d="M15203 10707c42,-32 19,38 35,-35 17,99 5,38 -36,114l10 50 -43 -1 -19 16c25,56 21,10 25,80l32 162 26 7c3,88 14,206 21,327 10,189 -84,169 -62,317l-9 54c4,4 9,10 11,12 2,2 7,7 9,9l23 20c57,-29 12,-3 49,-41 29,68 1,53 74,74 -54,88 -40,-4 -47,135l-59 2c-63,-28 -22,-23 -88,-15l-16 1c6,75 11,118 -33,166l2 62 61 -14c17,112 3,29 -18,65l-43 -40c-42,38 -32,8 -26,88 -16,53 -14,28 -52,56 -1,0 -39,37 -41,38l-32 21 32 8c30,15 18,-26 28,44l42 -61 43 36c-5,5 -11,5 -13,12 -2,7 -9,9 -11,11 -2,1 -8,6 -11,8 -46,33 -37,-3 -42,51l75 3 -8 87 2 51c29,27 35,-36 23,43 50,-47 -16,-14 58,-43 20,32 44,60 69,92 -15,84 4,-1 -28,76 68,43 15,0 39,49 -16,50 24,25 56,16 5,1 45,4 46,5 32,10 32,13 47,22 36,22 82,63 94,101 6,62 -9,30 36,42l70 6 10 47 14 73 9 11 59 -8 78 -6c13,89 41,92 79,107 -16,-44 -55,-130 -81,-159 -52,-57 -77,-51 -65,-148 -39,-100 -101,-150 -213,-197 -17,28 -4,20 -27,2 -78,-63 -16,0 -36,-66l-26 -15c-4,3 -9,4 -11,11 -9,32 11,2 -57,34 -4,-3 -8,-14 -10,-11l-75 -78c-31,-75 7,-44 11,-51 10,78 -5,0 41,38 20,-177 -9,-106 1,-172l38 -192c29,-227 -8,-55 44,-283 8,-34 4,-71 4,-106l60 -30c-65,-146 10,-76 -4,-218 -33,0 -23,6 -14,-30 70,-7 4,11 27,-54 52,-117 68,-119 27,-168 85,-194 -59,-257 -41,-631l-48 40c-64,31 -14,1 -31,-3 19,-57 -47,-29 49,-37l3 -33c-24,-26 -38,39 -18,-32l41 -20 116 -57 38 -47 21 -75 43 21 24 -10 -18 -57c-98,1 -35,-39 -114,40l-17 -35 -51 18 -21 -9 -46 -24c-95,106 -93,-25 -103,-115 -11,-92 -27,-200 -9,-269l-8 -82 59 2 23 -6 3 -54c-136,42 -30,-43 -175,24 0,-101 9,-15 -43,-44 -56,91 -32,16 -59,117 -16,59 -33,60 2,117 -41,47 -37,119 -27,183 17,105 12,88 91,132 -33,94 24,124 32,226z"/>
   <path class="fil5" d="M5315 9605c0,37 -10,30 24,30 -44,19 -89,-7 -37,49l-60 -38c-91,-2 -49,-5 -72,38 89,-68 23,-28 48,6 -21,17 -34,27 -61,49l0 54c69,-6 105,-26 148,-26 125,-1 11,17 114,-24 84,-33 160,-30 258,-72 -8,-46 -20,-73 -39,-99 32,-12 15,0 51,-17 7,13 19,38 20,42 8,53 7,16 -10,31l47 10 110 -42 42 -70c20,30 15,-9 0,45l383 -99c39,-88 53,-49 143,-78l366 -172c30,-18 7,-3 38,-17 69,-30 19,18 68,-60 152,27 287,-35 467,18l-1 -44 91 18c24,-66 -27,-26 49,-52l6 82 40 15c98,-105 64,18 290,-98l286 -108c209,-53 451,13 611,7 39,-1 49,-13 98,-20l-83 -53c-117,-84 31,-62 -237,-88 5,49 14,18 -2,48 -32,59 26,-9 -56,30l39 -81c-117,6 -173,3 -281,-11 -24,34 16,15 -31,36 -21,-14 -43,26 -3,-33 -73,25 -57,6 -121,21 -39,9 -59,35 -203,81 -21,6 -38,9 -61,16l-127 38c-69,19 -96,46 -250,51 -85,3 -52,-10 -109,-39 -88,15 -118,19 -184,-31 -47,49 5,21 -75,33l-190 26c-125,25 -17,-6 -99,39 -56,31 -36,7 -79,26l-118 68c-88,42 -110,72 -192,92 -233,55 -125,65 -423,151 -203,59 -94,67 -184,94l-83 25c-157,67 -153,77 -366,103z"/>
   <path class="fil3" d="M15825 7394l-37 35c-56,30 -13,2 -39,36l-76 80c-35,-31 -36,48 -25,-55 -2,4 -6,6 -7,13 -1,9 -10,23 -13,28l-153 140c-33,12 -192,29 -293,77 -221,107 -72,112 -611,67 -128,-10 -309,-5 -389,107 140,142 259,24 403,58 42,10 115,0 194,19 49,11 61,10 113,16 76,9 33,6 92,32 24,-14 16,-10 51,-21 24,-7 38,-8 68,-19 69,-28 236,-152 419,-159l-24 -36 35 18c57,-22 77,-20 136,-77 27,-26 27,-34 41,-51l60 -56c-10,-6 -99,-5 12,-44 32,-12 33,-86 37,10 58,-28 137,-53 204,-64 -12,-32 -21,-12 18,-29 26,-11 35,-6 64,-9l27 87c15,60 7,67 59,113l16 -24c12,-40 29,40 7,-56l49 49c11,-70 -17,-31 43,-48l-8 78c-53,3 -30,0 -79,13 34,20 56,22 74,49 73,108 2,51 -15,66l67 44c3,2 8,6 12,10l21 -21c19,-51 10,-29 34,-51l-3 64 -15 39 78 6 60 -22c1,3 1,9 2,12l17 46 -21 49 68 60 64 -68c23,-25 41,-39 80,-64 1,-71 6,-8 -25,-35l-87 -31c-2,-2 -5,-6 -6,-7 -35,-32 -17,-14 -65,-39l33 -54c-153,-9 -118,-11 -209,-65 65,-40 -17,-46 -20,-47l40 -6c-46,-63 -37,-12 -77,-106l50 -75 -15 -62c-54,-14 -50,-17 -97,-61 -80,-1 -99,45 -108,-11 -56,-3 -115,-28 -178,-7 -19,6 -52,24 -70,29 -66,20 -59,-19 -83,30z"/>
   <path class="fil6" d="M15949 7884c-25,69 -8,182 4,261l85 18c14,69 -4,70 -5,69 0,-3 -7,9 -10,14l-81 -53c4,43 9,177 16,203l54 186 52 -8c-6,-115 -14,-38 20,-78 12,13 11,11 26,26l33 34c-94,25 -74,37 -84,152l-63 17c-29,147 3,212 -64,328l29 55c-24,90 -31,8 -20,157l-29 45c-8,81 -6,4 -13,83l-15 105 41 34c115,-22 25,-13 57,22l-55 37c47,44 37,27 100,21 20,-54 39,-81 60,-124 39,-83 18,-72 0,-134 40,-26 80,-59 127,-71 12,-256 -44,-109 12,-267 -73,51 -71,15 -66,-41 5,-54 11,-90 30,-128 10,46 -5,0 43,24l24 -50c1,-2 7,-6 10,-9 -28,-14 -37,17 -38,-71 -2,-83 8,20 6,-43 -3,-71 10,58 -9,-30l-25 -337c-1,-66 -26,-90 -24,-201 -64,19 -16,16 -42,-4 19,-12 33,-22 61,-43 -41,-77 -17,19 -27,-100 -5,-55 -2,-61 -18,-117 -47,-43 -40,-55 -113,-48 -35,26 -33,-6 -26,30 -13,12 9,8 -9,1l-32 -16c-4,-10 -15,-7 -22,-11 45,116 16,27 0,62z"/>
   <path class="fil7" d="M8884 14919c54,-19 39,24 46,-19 14,111 -13,42 46,82 78,-46 -50,65 25,-20 33,-37 2,-34 110,-67l-50 -56c28,-23 23,-20 45,-44l79 11c17,-72 9,-57 102,-57l10 146c5,2 -1,2 -1,7 -4,21 -17,-6 -30,64 59,-21 4,3 57,-28 36,-22 4,-21 54,-19l-22 85 -108 4c90,59 79,7 174,99 74,-11 19,2 75,-20l14 90 41 -75c112,-6 217,-34 297,-109 5,2 12,2 14,8 2,5 11,5 14,6 51,7 42,-14 98,4 -10,-88 145,-55 148,-41l33 27c15,10 3,23 9,-7l83 19c-10,-29 6,-34 -39,-62 -63,-40 -29,-16 -86,-15 -10,-56 -15,-40 -32,-47l29 -46c-48,-29 -26,-12 -45,-56l-4 -107c-51,66 -35,45 -121,23 -10,50 1,21 -21,53l-33 31c32,63 23,23 35,63l-117 -28 29 -65c-93,-65 28,-128 -221,-136 24,49 37,25 59,74 -142,-22 52,-36 -168,-18 30,-36 22,-11 40,-70 -49,-7 -63,-12 -92,-28 31,-89 40,-51 76,-111 -147,27 -155,29 -153,115 -148,-65 -87,137 -162,134 -19,-1 -22,-21 -59,-43 -53,30 -11,15 -56,37l-183 39c-7,50 1,82 0,91 -4,26 -23,16 -39,82z"/>
   <path class="fil8" d="M7688 15089l26 86c14,34 15,-20 27,82 17,-1 43,2 57,-5 58,-30 -23,28 47,-55 72,4 65,21 96,-21 81,73 16,46 71,63 14,-25 0,-4 13,-32l24 -44c5,3 12,2 14,9 2,7 10,7 13,9 1,2 28,35 29,36 73,-37 3,-37 168,-43 -4,-5 -17,-17 -18,-19 -10,-28 -8,4 -2,-25l49 -17c4,-58 8,-14 -7,-62l30 10c-17,-70 -39,-10 -120,-55 3,-5 9,-17 11,-13 19,35 -7,-51 129,-106 56,-19 35,-12 95,5l96 40c-14,39 -9,38 -36,60l-62 40 156 37c-22,-47 -38,-38 -7,-84 122,17 -10,27 101,30 60,2 64,7 132,15l19 -106 56 -3c-37,-65 28,-42 -67,-43l58 -118c-157,-105 -22,-59 -121,-83l-18 97 -90 42c-17,129 45,77 -85,92 -24,-155 10,-11 28,-125 -18,-26 -36,-45 -40,-86l-125 25 19 -102c-73,22 -21,5 -62,18 -60,20 -100,44 -147,-49l-28 26c-46,38 -73,24 -81,-14 -2,-8 -8,-9 -13,-14 -198,98 -135,65 -156,129l81 30c-29,48 -13,52 -31,79 -16,25 -31,14 -57,69 1,1 1,76 80,11 1,95 -13,6 -58,101 39,77 -11,13 63,55 -53,44 -19,9 -51,62 -36,-11 -11,6 -39,-24 -14,-14 -9,-16 -19,-36l-128 4c-11,-31 -14,-45 -26,-74l-115 9c30,71 33,25 58,80l-37 7z"/>
   <path class="fil6" d="M15772 13445l0 16 3 39 17 7 75 -19c12,48 -21,36 28,40 -82,105 44,9 -31,21 -3,1 -14,0 -17,-6 -3,-7 -12,-8 -15,-12l15 68c3,12 10,53 14,91l15 -1 28 -4c31,34 27,-41 34,94 67,-15 18,-22 57,11 -7,11 -27,-32 -10,62 8,39 16,41 36,70l10 -6c126,56 -29,72 107,139 -20,42 -25,54 -12,112 11,31 0,1 13,36 3,9 16,40 21,54 12,36 14,57 20,99 44,4 38,53 56,108 27,94 37,82 -14,134l21 13 71 8 19 99c15,58 2,43 26,69 74,-61 86,-92 183,-152 -4,-48 -14,-52 -9,-111l-29 -15c-17,-4 -31,-5 -48,-5l-77 -217c-29,-32 -1,24 -28,-33 -10,-24 -12,-45 -18,-69l-11 -2c-13,-19 -15,-10 -27,-46 0,-2 -6,-41 -7,-47 -9,-59 -3,-48 -20,-102 -58,-66 6,-34 -82,-178 -2,-2 -4,-7 -5,-11 -65,-47 -32,-12 -67,-87 -17,-37 -35,-64 -43,-116 -23,-5 -5,8 -37,-26 -7,-8 -26,-31 -27,-33 -34,-36 -3,-5 -32,-29l-17 52c-39,-81 -9,-166 -105,-240l-12 109c8,2 -12,-26 -69,16z"/>
   <path class="fil9" d="M13960 12607c-66,12 -83,-4 -155,9 -64,12 -71,12 -145,5 -31,37 -37,19 -106,36l-28 18 -43 -2c-20,-6 -6,-12 -41,-11l-73 -6c-100,16 -67,-18 -152,16l-160 21 -37 17 -57 -2c-34,36 -37,60 -99,78 -25,11 -76,16 -123,35 -44,19 -68,22 -111,48 -36,61 -85,37 -155,41 86,71 -6,9 266,3l295 -21c48,-17 45,-31 69,-41 31,-13 92,-17 135,-20l39 -38c194,-13 408,11 588,-48 17,-13 8,-12 40,-25 3,-1 36,-9 43,-11 46,-9 78,-12 124,-15 78,1 41,11 90,-17l118 -30c48,-16 88,-27 115,-39 0,-38 22,-24 68,-24l20 0c-6,-3 -23,-12 -26,-15 -4,-2 -12,-3 -15,-11 -3,-9 -10,-8 -16,-13l0 0 -26 3c-78,-7 -183,5 -254,30 -104,36 -110,28 -188,29z"/>
   <path class="fil6" d="M2917 13707l47 56c-23,49 -38,66 -42,117l2 32c-3,42 44,87 -40,87 13,96 -30,294 -28,421 -22,40 -21,8 -4,63 -56,213 -39,160 40,320l98 -6 20 -44 38 -12c1,-36 -3,-123 32,-149l-7 -147c-4,-24 -10,-67 -8,-107 6,-92 20,-52 27,-113 10,-104 9,-157 32,-262l-100 -8c-27,38 -12,-19 0,25l6 16c0,-2 1,6 1,11l-56 1c-22,-90 -9,-75 -19,-152l86 -75c33,-50 22,-56 1,-105 10,-35 -13,-15 26,-32 -89,-21 -53,13 -71,-78l-42 -3c23,83 36,5 31,88 -3,52 -23,54 -70,56z"/>
   <path class="fil10" d="M7586 14260l-43 12c-58,-16 -10,-2 -69,-11l-34 50 -285 40c33,35 -42,17 42,32 -45,26 -80,45 -131,55 -17,-27 -41,32 -1,-47l-129 12c28,129 26,51 11,112l-11 27c88,45 42,23 101,84 157,-27 75,36 196,27l-11 -132c78,20 22,4 86,35l32 -14 16 -39c71,6 106,6 143,-11 3,-4 5,-16 6,-13 5,14 -6,-69 111,-25 29,10 14,22 74,29 38,-56 11,-15 76,-42 13,-70 -6,-66 -1,-99 5,-24 18,-17 25,-87l26 -12 -119 8c-11,23 -21,51 -34,73l-30 49c-13,-71 -8,-53 -74,-62l27 -51z"/>
   <path class="fil11" d="M6611 14454l-45 29 35 42c9,12 6,1 14,31l-50 -17c-21,52 -46,61 -88,69l10 59c77,4 81,15 154,19l-12 82c-8,-63 -2,-7 44,-31l31 26c79,11 158,-25 213,-27 32,-1 163,-15 218,-4 0,-35 -10,-28 22,-28l44 -22 52 -6 12 -45 22 -37c54,18 37,32 99,4l-46 -56 -32 14c-64,-31 -8,-15 -86,-35l11 132c-121,9 -39,-54 -196,-27 -59,-61 -13,-39 -101,-84l11 -27c15,-61 17,17 -11,-112 -93,-14 -44,-14 -105,12 -94,40 -112,30 -220,39z"/>
   <path class="fil12" d="M15649 9301l16 20c-29,29 -31,42 -50,64 -35,40 -83,39 -120,199 -26,-33 -35,43 -19,-46l-52 84c-57,129 -131,191 -158,247 -69,-2 -39,2 -92,-17l-10 80c52,29 43,-57 43,44 145,-67 39,18 175,-24l-3 54 63 -86 -20 -57c29,15 39,15 64,23 67,-42 56,-52 81,-147l30 -92 -41 0c34,-61 29,-37 65,-87 0,-37 -6,-23 39,-11 1,0 7,16 29,-32 16,-32 11,-32 21,-63 -29,-49 72,-180 72,-81 42,-22 40,-19 71,-39 16,-33 -35,-28 59,-24l29 -45 -74 4c-27,-59 -34,-66 -122,-78 -63,36 -67,44 -96,110z"/>
   <path class="fil13" d="M9382 13408c-118,72 -128,15 -192,70l-35 35 -39 -63 -48 19c-6,39 49,36 -24,59 -49,16 -71,7 -142,35l-105 -56 -9 94c39,-11 55,-4 110,23 106,-27 230,-47 344,-48 51,-16 119,-7 181,-14 100,-10 88,13 165,1l12 -8c30,-46 -4,-15 45,-34 8,-3 54,-8 56,-8 40,0 47,6 113,-5l40 -48c89,56 1,-60 161,15 3,-2 46,-27 58,-34 -36,-107 6,-16 -67,-77 -65,-12 -202,-9 -249,11 -89,37 -137,34 -224,51l-55 -39 -96 21z"/>
   <path class="fil11" d="M14502 13881c-37,-9 -33,29 -56,-13 -7,-12 -9,-19 -15,-29l71 -28c23,27 27,-42 15,48 77,-12 83,34 104,98 -31,-13 -56,-22 -100,-38 -167,157 -69,43 -143,87 10,152 -5,120 43,165l-51 110c11,10 15,31 21,43 22,18 3,8 35,8l127 -45c-16,-55 -7,-30 -29,-78 114,7 19,7 59,-25l-103 14 -38 -16 5 -39c5,-39 5,-49 19,-79 18,-34 24,-30 36,-42 49,44 80,91 89,160 65,-13 76,43 94,107 67,6 31,13 73,-7 -3,-3 -8,-12 -9,-9 -1,3 -8,-7 -10,-9 -5,-3 -32,-19 -32,-19l19 -63c-116,-7 -43,8 -86,-167 126,30 60,19 85,71 43,-25 53,15 44,-70 7,3 0,10 48,12 4,0 55,-2 60,-3 9,-55 10,-48 19,-99l-77 -33 -4 -121c-58,27 -38,12 -74,50l-40 -65c-3,3 -8,3 -10,9 -2,6 -8,7 -11,9l-37 25c48,58 11,25 48,36 2,1 8,1 11,1l19 0c-82,52 -52,-23 -158,-7 1,-69 -13,-70 -17,-79 -144,28 -185,120 -99,157 114,8 9,7 55,-27z"/>
   <path class="fil5" d="M12889 8037c-40,23 -41,27 -111,10 5,54 20,26 -5,31 -118,24 51,-19 -48,-8 -59,6 -81,-9 -131,0 -62,13 -34,22 -133,30l0 38 -38 8c-177,3 -166,74 -310,68 32,31 -54,68 108,19l-45 31c-1,21 -8,31 -8,37l16 57 88 -61c35,-16 5,-21 116,-23 31,45 24,-17 0,56 68,-20 89,-42 157,-64 45,-15 124,-32 178,-46 118,-32 287,-22 379,-52 -5,-36 11,-14 -9,-60 -40,11 -72,18 -130,20 27,-73 -19,-49 75,-58l-38 -55 -111 22z"/>
   <path class="fil14" d="M13240 12831l21 70c-64,-30 -34,-34 -124,2l-25 11c-4,2 -9,4 -13,6 -29,8 -31,5 -65,6l-128 13 4 8 -13 69 -102 8 48 45c38,46 -10,12 46,49 1,-3 3,-12 3,-10 1,3 3,-8 3,-9l13 -39c51,33 46,42 99,53 3,0 15,0 19,1 -9,123 -15,36 40,69 5,-28 -9,-14 46,2l19 -30c28,-46 -3,2 18,-30l100 20c11,-52 20,-65 44,-105l-51 -72 71 30 -27 -126c15,-9 -17,-21 33,1 -15,6 -24,-41 -13,85 45,-7 68,-15 84,-23 30,38 45,27 78,49 5,3 58,57 79,74 22,-64 -40,-56 65,-43l-7 -62c-28,-74 1,-37 -55,-74l-49 -33c-43,34 -30,33 -37,61 -11,47 25,17 -19,32 0,0 -18,22 11,-43l-58 6c-75,-14 14,-41 -115,-61l-4 -48 -39 38z"/>
   <path class="fil15" d="M14176 12432l3 47c-64,-20 -28,12 -60,-26l-5 37 -57 -26 -54 28c-50,16 -22,-7 -67,39 25,50 6,6 24,76 78,-1 84,7 188,-29 71,-25 176,-37 254,-30l-21 -56c53,-16 43,-12 47,53l0 0c83,-3 140,-24 203,6l22 3 180 18 59 9 62 -19 -63 -11c-11,-59 15,-28 -23,-57 -34,-27 -33,-16 -85,-21l14 -45c-96,-45 -330,-38 -464,-27 -35,48 -35,34 -67,78 -40,-44 -26,-47 -90,-47z"/>
   <path class="fil16" d="M10664 13315l-12 0 -24 41 -37 -28c-161,-34 -308,65 -420,96l24 46c57,0 281,-4 299,18l28 2c96,7 185,5 275,-11 35,-34 -5,-18 55,-25l42 9c8,-10 41,-39 44,-42 17,-48 19,-35 69,-47l18 -90c-59,-34 -26,-24 -101,-21 -36,56 39,18 -56,43 -1,0 -60,-1 -70,-1 -41,2 -91,7 -134,10z"/>
   <path class="fil17" d="M12184 12942l-183 15 -19 22 -114 12 -52 36c-289,112 -64,88 -299,124 8,33 -21,29 -49,38l-7 22 -5 29c14,-11 32,-15 44,-22 35,-16 126,-36 212,-36l287 -58c3,4 10,5 11,12l25 29c14,-61 -14,-25 46,-62 8,-2 -27,-19 48,-12 100,8 26,2 56,24 51,-61 45,-22 83,-67 42,-49 -3,-57 87,-74 -8,-13 -22,-36 -34,-51l-137 19z"/>
   <path class="fil18" d="M12443 12754l-240 44c-105,-16 -130,-1 -222,13l-17 22c-126,2 -56,-3 -182,46 -23,9 -48,20 -75,36l-79 69c70,-6 -8,-15 24,0 5,3 27,18 32,24l42 -11c51,-49 3,-19 88,-17l7 -28c43,-7 43,1 84,-8 61,-14 50,-23 66,-49 58,45 16,-15 30,62l183 -15 -35 -8c-8,0 -16,1 -23,0 -5,0 -47,6 -53,7 43,-43 17,-38 83,-50l177 5 83 -60c92,10 132,-5 206,-40 22,-21 16,-11 35,-45 14,-26 3,-12 14,-40l-39 -13c-3,6 -22,39 -24,43 -2,4 -7,19 -8,16 -2,-3 -5,12 -8,17 -86,1 -52,13 -129,30 -37,-24 -52,41 -20,-50z"/>
   <path class="fil3" d="M11726 12997l-112 61c-2,6 20,55 -75,36 -98,-19 25,84 -31,-26l-14 58c-65,-16 -31,17 -61,-38 -79,11 -132,38 -221,55 -77,15 -161,9 -225,27l0 51c0,-3 -5,9 -11,16l-52 -69 -19 -13c-71,28 -154,21 -240,33l-39 19 13 98 13 10 12 0c6,-4 14,-15 18,-10l53 -18c28,-6 47,-2 77,-2l6 -19c0,-1 1,-8 2,-9 5,-18 1,-14 11,-30 81,23 43,-2 49,72l44 -36c75,-3 42,-13 101,21l78 0 12 -52c76,-21 65,-5 88,-62l90 37c87,-58 41,-44 143,-20 36,-76 11,-60 81,-75 21,23 53,-24 0,39 235,-36 10,-12 299,-124l52 -36c-17,-51 16,-40 -47,-39l-7 28c-85,-2 -37,-32 -88,17z"/>
   <path class="fil19" d="M8898 13624l2 23c-44,5 -42,4 -80,15l-53 17c-2,-4 -9,1 -14,2 -4,3 -9,3 -11,10l-250 85c-39,21 -8,1 -36,32l20 19c61,-10 69,-18 107,7 16,13 28,8 41,17l22 -63 49 -12 123 -4c9,-34 -26,-22 47,-33 14,-2 65,7 80,9 97,8 153,18 224,-15 27,-30 -16,-4 32,-22 10,-4 13,1 44,-12 35,-15 47,-31 63,-59l-2 -64 -64 0c-114,1 -238,21 -344,48z"/>
   <path class="fil10" d="M14266 12848c-60,29 -15,-23 -50,42 29,26 34,20 36,76 -70,32 -21,39 -97,47 18,25 36,58 64,76l-108 9 -21 40 30 7 12 32 19 17c49,2 41,17 41,-26 20,16 29,31 43,51l100 -95 -56 -31 -20 -19 52 -52c-70,-26 -3,-1 -38,-37 16,-81 20,-34 25,-108 116,27 38,40 204,43l-46 154c42,3 43,-5 59,15 13,16 -7,-1 14,35 5,8 20,25 22,27l-22 19c-35,49 -14,31 -28,84 -1,2 -3,8 -5,11 60,-2 70,-34 76,-43 45,-68 -66,-33 60,-71 -31,-85 -21,-96 20,-148 -32,-61 -34,-29 -57,-93l-180 -55c16,-72 -13,-23 47,-56l-2 -13c-25,41 23,5 -36,33l-80 28c-96,42 -52,21 -78,1z"/>
   <path class="fil20" d="M14074 12694l-5 116 -75 42c-1,-1 -6,-3 -7,-4 -2,-1 -6,-4 -7,-5 -95,-85 54,-28 -33,-35 -51,-4 -38,56 -40,71 33,-19 37,17 28,-21l39 55 -44 22 11 57 34 66c-15,30 9,22 -25,5 16,91 8,7 -28,39 0,46 34,14 100,11l32 -5c-5,-83 -11,-14 40,-88l61 -7c76,-8 27,-15 97,-47 -2,-56 -7,-50 -36,-76 35,-65 -10,-13 50,-42l-123 -44c-13,-64 -19,-36 15,-42 5,-33 -4,-19 41,-22l62 -71 -97 8c-49,28 -12,18 -90,17z"/>
   <path class="fil21" d="M8309 13994l25 30 -107 40 21 -63 -69 54c-123,6 -180,-52 -239,79 87,-33 24,-42 133,-55 -12,18 -18,34 -39,58 98,-8 33,-7 56,14l70 -43c58,30 8,-5 56,39l37 -48c35,5 28,6 42,12 2,1 14,10 32,19l34 -40c81,13 73,9 151,1 -16,-41 -16,-29 -46,-45 68,2 61,7 105,32l-37 -166c28,-33 -9,-19 61,-21l-12 -57c-38,-25 -46,-17 -107,-7l-39 63c-80,27 -91,26 -128,104z"/>
   <path class="fil22" d="M11877 8292c48,71 11,2 97,63 -37,60 -78,44 -73,82l-102 -35c0,-98 6,-19 -21,-61l-36 21c36,62 83,109 183,110l54 -54 131 24c86,-49 151,-110 278,-112 24,-73 31,-11 0,-56 -111,2 -81,7 -116,23l-88 61 -16 -57c0,-6 7,-16 8,-37l45 -31c-162,49 -76,12 -108,-19 -69,5 -194,42 -236,78z"/>
   <path class="fil23" d="M11587 14865c35,41 -8,11 50,48 -52,81 -33,-47 -37,93 18,10 71,43 86,51 68,37 29,-6 91,41 -25,96 -27,3 -27,93l48 6c-16,-61 -7,-61 47,-89 23,-11 15,-5 43,-21l45 22c39,8 5,6 55,2l-28 116c71,49 24,29 64,68 16,-55 -6,-5 44,-28 -23,-43 -12,-41 -59,-76 12,-93 33,-105 -38,-175l-200 -4c20,-106 13,-59 10,-176 -69,18 -77,15 -114,55 -30,-67 -71,-48 -80,-26z"/>
   <path class="fil24" d="M15833 13807c-92,80 -91,47 -150,40 24,75 20,34 48,102 -3,4 -7,5 -9,12l-46 43c95,58 71,48 89,93 -52,32 -73,11 -81,59 -11,61 36,54 86,61l21 -39c6,0 44,-2 46,-3 37,-16 17,-7 39,-30 -80,20 2,49 -78,-11 27,-34 1,-6 42,-28l48 -28 -25 -68 49 6c6,-74 13,-106 -9,-168l2 -69c-62,19 -23,2 -72,28z"/>
   <path class="fil25" d="M13279 12793l4 48c129,20 40,47 115,61l58 -6c-29,65 -11,43 -11,43 44,-15 8,15 19,-32 7,-28 -6,-27 37,-61l49 33c56,37 27,0 55,74 3,-2 9,-10 10,-7 22,55 -8,-8 47,-26 100,-32 -58,44 29,-6l19 -17c92,-72 69,-11 143,-78 181,-155 -24,88 78,-76l-64 2c-180,59 -394,35 -588,48z"/>
   <path class="fil26" d="M13000 8015l38 55c-94,9 -48,-15 -75,58 58,-2 90,-9 130,-20 20,46 4,24 9,60 83,-39 -8,-22 83,-31 45,-5 53,6 104,-2 73,-12 129,-18 169,-54l-105 -114c-59,8 -88,10 -149,12 -71,2 -95,0 -148,42l-56 -6z"/>
   <path class="fil27" d="M14273 12985c211,-35 99,96 95,106 -18,-30 4,-15 -39,-29l-50 31 56 31c-5,50 36,33 -25,83 87,66 16,-35 91,101 0,0 -25,-8 11,-38 1,-1 7,-3 8,-4l76 -1c2,-3 4,-9 5,-11 14,-53 -7,-35 28,-84l22 -19c-2,-2 -17,-19 -22,-27 -21,-36 -1,-19 -14,-35 -16,-20 -17,-12 -59,-15l46 -154c-166,-3 -88,-16 -204,-43 -5,74 -9,27 -25,108z"/>
   <path class="fil26" d="M8522 13641c-5,4 -13,3 -15,11 -2,7 -10,8 -12,11l-18 19c-10,16 3,66 -134,74 3,-34 0,-22 18,-45 -123,38 -22,9 -126,75 -25,-17 -45,-32 -64,-50 -89,40 -72,0 -98,113l383 -41c28,-31 -3,-11 36,-32l250 -85c2,-7 7,-7 11,-10l-90 12c4,-6 9,-14 12,-18l31 -41 -58 -38 -35 30c-41,28 -43,34 -91,15z"/>
   <path class="fil28" d="M13456 15052l47 -34c27,-27 -11,-15 38,-29 57,-17 -2,-4 50,-3 -44,-125 -60,-38 -93,-140l-58 -16c17,40 9,22 18,57 -46,1 -73,-8 -105,-17 -38,32 -8,-28 -37,37 -34,-17 -9,-4 -35,-20l-31 -22c-17,56 25,20 -50,55 -1,68 2,104 14,151 77,-49 66,-44 179,-38l27 -54 36 73z"/>
   <path class="fil21" d="M8695 13776c-98,99 -21,120 -15,128 41,-23 31,-16 49,-61 4,3 12,1 14,6 9,24 13,5 26,8 30,7 172,43 263,98 56,-35 1,-1 42,-36 3,-2 7,-6 10,-8l23 -17c4,-3 11,-7 14,-9 4,-3 10,-7 15,-10l-6 -93 -79 -1c58,95 30,22 11,96l-17 -72c-216,27 -152,-21 -178,-52l78 5 0 -10c-15,-2 -66,-11 -80,-9 -73,11 -38,-1 -47,33l-123 4z"/>
   <path class="fil29" d="M12500 12884l-179 39c12,15 26,38 34,51l69 -29c-24,74 -24,54 -46,119 44,-11 45,-11 96,-8 67,3 38,1 106,-14l8 -16 18 -75c46,-18 31,-14 98,-18 15,35 -1,9 12,58 73,-42 62,-26 130,7 -60,-34 -23,42 -46,-87 41,29 6,54 110,36l-4 -8 128 -13 2 -34 -295 21c-272,6 -180,68 -266,-3 70,-4 119,20 155,-41l-130 15z"/>
   <path class="fil30" d="M13019 12574c-148,-40 8,-6 -241,42 -56,11 -37,5 -70,36l-46 47 9 12 35 4 25 43 72 9c22,-40 29,-54 75,-72l122 -38c34,36 13,-2 20,53l37 -17c10,-51 -19,-21 28,-41l45 -39c-5,-12 -30,-87 -37,-103 0,0 -33,33 -34,34 -25,23 -9,9 -40,30z"/>
   <path class="fil7" d="M7135 14732c45,45 6,192 4,201l83 6c57,-145 -45,-122 48,-164 51,19 5,9 73,33l-22 71c74,-5 19,-10 88,23 4,3 11,6 14,7 4,2 11,5 17,7 -48,127 4,42 102,96 2,1 32,18 38,21 118,69 36,47 108,56 -21,-74 -159,-156 -164,-158 -81,-34 -50,9 -48,10l-25 -79 -28 -19 -11 8c-49,-13 -50,2 -91,-99 -150,-17 -39,-70 -116,-26l-4 -44 -44 22c-32,0 -22,-7 -22,28z"/>
   <path class="fil31" d="M16363 13159c-17,-57 -2,-25 -71,-36 0,95 20,93 4,146 254,2 -42,-28 135,142 4,-6 11,-22 13,-18l24 -64c77,-1 82,4 139,-20 -46,-46 4,-37 -150,-33 16,-139 -65,-56 6,-146 -53,-60 -93,-80 -171,-82 33,106 63,41 71,111z"/>
   <path class="fil0" d="M7340 14542l46 56c-62,28 -45,14 -99,-4l-22 37c5,1 13,-2 17,5l93 3c-13,65 -7,49 -31,88l14 -11c2,0 8,-2 10,-2 3,0 11,-1 13,-1 3,-1 11,-1 16,-1l-5 56c94,-5 55,-18 93,52 -29,29 27,7 -62,23l28 19c76,-3 95,11 84,-110 80,4 56,4 94,-33 -172,4 -135,-4 -142,31 -23,-26 -15,-6 -16,-24 0,-7 5,-21 12,-54l-27 -16c-3,-2 -10,-6 -12,-8 -2,-1 -9,-5 -11,-6 -2,-2 -6,-5 -10,-7l66 -23c4,-1 11,-5 14,-6 76,-32 2,-78 -4,-114 -37,17 -72,17 -143,11l-16 39z"/>
   <path class="fil32" d="M7882 13722c0,58 20,26 81,54l23 10c68,41 35,-28 51,62l36 1c26,-113 9,-73 98,-113 19,18 39,33 64,50 104,-66 3,-37 126,-75 -18,23 -15,11 -18,45 137,-8 124,-58 134,-74l18 -19c2,-3 10,-4 12,-11 2,-8 10,-7 15,-11 -115,-16 -91,25 -178,41 -65,11 -157,2 -221,-2 -77,53 -118,61 -241,42z"/>
   <path class="fil33" d="M7493 13867l-36 29c-14,25 -12,6 -1,58l49 -4 7 -4c3,-51 5,-40 49,-31 11,-80 -23,-33 43,-65 75,28 24,-12 38,51l36 -3c25,-4 61,-5 93,-8 87,-7 50,17 91,-34l-66 0c26,-36 6,-28 49,-44 41,-14 10,17 64,-12 -13,-53 19,-28 -77,-22l24 -36c-124,4 -104,14 -206,46 -34,11 -67,20 -99,31 -57,20 -69,-20 -58,48z"/>
   <path class="fil12" d="M4841 9742c29,27 -14,30 48,39l-92 20 -1 -26c-41,10 -37,5 -69,11 -66,15 -34,2 -71,32l37 13c59,27 56,6 74,-5l56 116c50,-24 32,-12 68,-46 2,-79 -5,-25 24,-49 68,7 8,-5 36,27 44,-12 24,-1 58,-22l49 -39 6 -49 -80 -3 6 -58c-82,-2 -62,-5 -91,40l-58 -1z"/>
   <path class="fil11" d="M15822 13596l-30 -89 -17 -7c-60,65 -36,38 -59,-28l56 -11 0 -16c-35,-13 -26,-11 -42,-22 -4,-2 -18,-9 -20,-17 -1,-6 -6,-6 -9,-9 -4,65 -10,14 18,92 -56,6 -32,18 -54,-2l-5 -17c-28,-60 -85,-53 -150,-48 7,-135 13,-34 -40,-82 6,60 8,51 -10,89 113,68 56,57 84,174 26,8 39,37 89,0 44,-32 -3,1 27,-36 4,-4 7,-9 10,-14l152 43z"/>
   <path class="fil8" d="M13428 14807l12 23 58 16c33,102 49,15 93,140 -52,-1 7,-14 -50,3 -49,14 -11,2 -38,29 91,-30 98,-6 181,3 -7,-102 -49,-92 -94,-145 80,-127 52,-32 141,-116l-45 9c-25,-24 -13,28 -24,-27l-88 62c-5,-4 -20,-18 -29,-29l-57 -71c-46,31 -53,42 -60,103z"/>
   <path class="fil27" d="M13187 12514c-30,32 10,10 -27,9 -5,0 -56,-13 -67,-13 7,16 32,91 37,103l-45 39 120 -23c48,32 19,-34 12,43 85,-34 52,0 152,-16l-2 -41 55 1c-6,-31 3,-24 -26,-24l46 -25c1,-1 7,-2 9,-2l-148 -35c-54,-18 -76,-27 -116,-16z"/>
   <path class="fil34" d="M10119 13745l42 18c53,28 -7,-17 27,19 -59,23 -69,3 -126,37 22,29 -25,39 86,27l35 -2c91,-9 76,23 100,-72 30,55 46,46 111,57 -12,-55 -8,-58 -63,-105 -6,-4 -31,-22 -33,-25l-6 -16c-1,-2 -2,-9 -4,-12l-14 -30c-74,78 -66,13 -121,49 -60,38 -11,-1 -34,55z"/>
   <path class="fil27" d="M8797 13507l105 56c71,-28 93,-19 142,-35 73,-23 18,-20 24,-59l48 -19 39 63 35 -35c64,-55 74,2 192,-70 -154,14 -276,23 -424,21l-34 50c-27,-2 -56,-6 -79,-1 -50,11 -36,-5 -48,29z"/>
   <path class="fil33" d="M4066 14756l32 9c6,46 -5,18 20,64 31,-6 51,-9 82,-19 83,-28 35,-9 62,-37l-45 -4c30,-54 -3,-37 68,-42l0 37c68,-34 87,-23 111,-87l17 -84 -89 34c-61,10 -59,25 -121,58 -58,31 1,4 -64,27 -41,15 0,-9 -41,15 -32,18 -12,8 -32,29z"/>
   <path class="fil35" d="M11971 15016c34,5 48,11 84,15 62,8 10,-11 86,12 -42,-29 -13,-11 -30,-74l65 16 -88 -66c-88,-105 36,-97 -125,-104 -73,-3 -22,-45 -76,24 44,45 13,26 98,41 -3,3 -9,3 -10,9 -8,40 -49,-22 -4,127z"/>
   <path class="fil36" d="M15853 13320c96,74 66,159 105,240l17 -52c10,-45 -10,-101 -23,-152 -25,-99 -57,-50 -59,-113 -65,-44 -26,-5 -53,-76 -11,-27 -2,-13 -16,-40l-29 -38c-7,-4 -8,5 -25,-19 -15,-23 -11,-23 -22,-54l-41 -3c-12,97 13,91 65,148 26,29 65,115 81,159z"/>
   <path class="fil37" d="M10006 13364c73,61 31,-30 67,77l53 -1 45 -16c112,-31 259,-130 420,-96 25,-8 28,16 13,-23l-35 -14 -72 -6c-32,-24 -17,29 -30,-41 -62,42 -22,-14 -73,44 -2,-1 -39,-28 -39,-28 -17,-10 -5,-7 -38,-15 -3,69 11,52 41,108 -111,-26 -122,-18 -211,31 23,-19 29,-27 52,-65l-110 73c-31,-11 -46,-16 -83,-28z"/>
   <path class="fil38" d="M9344 15539c-35,18 -45,-35 -18,42l85 49c2,2 7,6 10,9l31 -74 149 -3c-2,-44 -5,-47 -10,-80l-21 -90c-3,4 -7,5 -8,12l-29 61c-141,-15 -44,17 -170,37l-19 37z"/>
   <path class="fil39" d="M8294 14524c26,25 25,20 52,49 68,-62 30,-13 161,-2 39,4 4,-14 64,10l-93 -171c-29,-39 -37,-29 -58,-39l-59 73c-38,54 -24,41 -67,80z"/>
   <path class="fil7" d="M12351 15061l17 -4c86,-20 59,16 157,-13l5 -52 -64 -13c-19,-82 -19,-48 -57,-104 -24,13 -29,17 -64,25 -49,12 -28,-10 -84,32 23,59 -15,5 40,67 35,39 9,-18 50,62z"/>
   <path class="fil21" d="M4428 14493c39,38 -51,12 58,36l-13 29c49,16 36,-33 40,41l15 -12c1,0 35,-7 36,-8 27,-12 22,-12 35,-23l57 5c43,-43 165,-85 241,-97 5,-3 34,-16 37,-24 4,-11 11,-14 17,-23l-87 23c-84,-22 -54,-10 -111,14 -59,26 -46,12 -109,26 -45,10 -44,26 -94,20 -75,-9 -25,-45 -122,-7z"/>
   <path class="fil0" d="M6704 14763l-31 -26c-46,24 -52,-32 -44,31l12 -82c-73,-4 -77,-15 -154,-19l-10 -59 -25 -3c7,120 -17,84 45,154 40,45 44,76 124,86l58 -63c3,-2 9,-7 12,-9 3,-3 8,-7 13,-10z"/>
   <path class="fil2" d="M13594 14023l106 -21c33,43 57,56 85,114l-86 69c98,76 125,30 156,-14 -25,-44 5,-20 -54,-55l56 -29 -60 -42 26 -60c-15,-2 -65,-10 -72,-11 -75,-3 17,19 -60,4 -49,-9 -45,-81 -97,45z"/>
   <path class="fil40" d="M11733 14127l6 4c41,38 26,37 114,32 -14,95 11,84 16,92l127 -65c20,-20 18,-17 31,-50l-30 -56c-20,4 -52,15 -55,17l-2 14c-34,-63 14,-29 -76,-59 27,89 61,100 -23,90 -23,-68 -24,-5 3,-82l-49 52c-4,-1 -10,-4 -12,-5 -2,-1 -9,-4 -12,-5l-38 21z"/>
   <path class="fil21" d="M12380 14001l-7 -84 42 14c5,-88 -5,-17 29,-52 86,26 44,49 119,33 28,-69 -2,-89 -26,-130l53 -106c-93,13 -85,-26 -93,67 -5,72 48,32 -30,104l-139 -29c0,1 2,8 3,10 2,2 40,22 41,22 -21,97 -35,68 8,151z"/>
   <path class="fil10" d="M13781 13306c3,-2 8,-11 10,-8 3,4 9,-5 13,-6 4,-2 48,-14 51,-15 -29,-15 -32,-27 -39,-33l-2 -97 -15 -7 -48 52c-49,-5 -53,-7 -89,-24 -10,18 -19,37 -32,42 -2,0 -7,0 -10,1l-48 0c-2,0 -7,-1 -9,-1 -1,0 -5,-3 -6,-3 -54,-10 55,-36 -18,-5l-40 42c-2,5 0,13 -1,18 -1,5 2,13 3,19l27 -5c146,-37 85,-21 121,5 44,-81 21,-55 109,-72 -4,6 -9,6 -12,17 -2,10 -20,28 -24,34 -13,20 -22,34 -35,58l94 -12z"/>
   <path class="fil41" d="M13816 14763l-4 71c0,0 -14,-21 -48,64 173,-35 229,-5 327,-133l-21 -29c-14,51 -26,45 -68,66 -61,-40 -31,-9 -69,-70 -34,54 -32,33 -117,31z"/>
   <path class="fil40" d="M13422 12616l167 -27c16,-10 8,-9 42,-18 4,-1 33,-1 39,0l-8 -55c-29,26 -15,-32 -27,29 0,0 -25,-41 -25,-42l-50 10c-92,-30 -43,-14 -134,-8 -27,2 -55,-1 -74,2 -74,11 -26,-2 -49,23l148 35c-2,0 -8,1 -9,2l-46 25c29,0 20,-7 26,24z"/>
   <path class="fil26" d="M3124 13963l-7 -14 -116 -24c15,-25 16,-25 19,-69 88,10 21,20 97,0l22 -38 -4 -36 -57 -5 29 -93 -64 -8c21,49 32,55 -1,105l-86 75c10,77 -3,62 19,152l56 -1c0,-5 -1,-13 -1,-11l-6 -16c-12,-44 -27,13 0,-25l100 8z"/>
   <path class="fil42" d="M11103 13284l42 22c51,-29 69,-39 149,-21l30 -30c26,-20 3,-9 31,-18 30,-9 71,-13 106,-26l7 -22 -32 -2c-102,-24 -56,-38 -143,20l-90 -37c-23,57 -12,41 -88,62l-12 52z"/>
   <path class="fil43" d="M16717 7906l-5 -18c-3,-4 -6,-16 -7,-13 -16,36 -12,-22 -15,-26l-27 -37 -14 -85c-45,-1 -104,0 -141,-11 -75,-23 -30,-37 -105,-59l-40 6c3,1 85,7 20,47 91,54 56,56 209,65l-33 54c48,25 30,7 65,39 1,1 4,5 6,7l87 31z"/>
   <path class="fil18" d="M13867 12745l64 -2c-102,164 103,-79 -78,76 54,40 4,-9 36,35 1,1 12,23 18,32l0 -7c2,-15 -11,-75 40,-71 87,7 -62,-50 33,35 1,1 5,4 7,5 1,1 6,3 7,4l75 -42 5 -116c-46,3 -78,6 -124,15 -7,2 -40,10 -43,11 -32,13 -23,12 -40,25z"/>
   <path class="fil44" d="M5328 14386l-3 26 -94 1 9 42c174,-19 382,-20 489,-112 -76,-10 -131,-3 -193,23 -88,35 -100,16 -208,20z"/>
   <path class="fil2" d="M12036 13982l67 -14c13,18 49,-35 -2,46 56,17 31,-5 76,35l39 -64c-42,-22 -4,-20 -62,6 6,-169 -33,-30 3,-162l-76 41c-19,-75 17,-53 -70,-64 -41,127 32,4 25,176z"/>
   <path class="fil13" d="M15108 12795l9 25c14,44 24,45 50,83l55 1 33 0c-24,-49 29,-6 -39,-49 32,-77 13,8 28,-76 -25,-32 -49,-60 -69,-92 -74,29 -8,-4 -58,43 12,-79 6,-16 -23,-43 -2,4 -3,7 -4,15l18 93z"/>
   <path class="fil45" d="M11443 14841l11 -30c12,-29 -5,-10 20,-31 47,-39 34,8 62,-71 -27,-56 8,-9 -60,-56l12 -28c1,-4 9,-22 11,-27 -223,-20 -60,239 -56,243z"/>
   <path class="fil13" d="M15703 13330l-2 67c3,3 8,3 9,9 2,8 16,15 20,17 16,11 7,9 42,22 57,-42 77,-14 69,-16l12 -109c-38,-15 -66,-18 -79,-107l-78 6 71 68 -64 43z"/>
   <path class="fil26" d="M10006 13364c37,12 52,17 83,28l110 -73c-23,38 -29,46 -52,65 89,-49 100,-57 211,-31 -30,-56 -44,-39 -41,-108 -109,48 -245,39 -311,119z"/>
   <path class="fil5" d="M12803 12767l-72 -9c-38,24 -55,31 -109,38 -74,35 -114,50 -206,40 -3,20 68,43 84,48l130 -15c43,-26 67,-29 111,-48 47,-19 98,-24 123,-35l-1 -35c-30,23 49,26 -60,16z"/>
   <path class="fil21" d="M15876 14145l78 3c-60,-16 11,20 -41,-15l37 -62c4,-3 10,-8 15,-11l-28 -74c45,-61 21,-9 32,-86l1 -63c-32,-18 31,-26 -58,-12l-3 -51 -4 5 -2 69c22,62 15,94 9,168l-49 -6 25 68 -48 28c-41,22 -15,-6 -42,28 80,60 -2,31 78,11z"/>
   <path class="fil46" d="M7201 14682l4 44c77,-44 -34,9 116,26 41,101 42,86 91,99l-20 -83 5 -56c-5,0 -13,0 -16,1 -2,0 -10,1 -13,1 -2,0 -8,2 -10,2l-14 11c24,-39 18,-23 31,-88l-93 -3c-4,-7 -12,-4 -17,-5l-12 45 -52 6z"/>
   <path class="fil22" d="M13589 12589l-3 32 74 0c74,7 81,7 145,-5 72,-13 89,3 155,-9 -18,-70 1,-26 -24,-76l-124 27c-50,-1 -61,38 -61,-23l-20 5 -82 59 -60 -10z"/>
   <path class="fil25" d="M11832 14040l12 24c-27,77 -26,14 -3,82 84,10 50,-1 23,-90 90,30 42,-4 76,59l2 -14c3,-2 35,-13 55,-17l30 56c-4,-73 -10,-34 12,-79l34 -46c48,5 30,12 30,-47l-67 14 10 2c-54,34 -22,-32 -47,40 -92,-33 -78,7 -167,16z"/>
   <path class="fil47" d="M4864 14440l87 -23c-6,9 -13,12 -17,23 -3,8 -32,21 -37,24l343 -9 -9 -42 94 -1 3 -26c-88,25 -156,7 -223,11 -36,2 -71,8 -115,10 -69,2 -88,-7 -126,33z"/>
   <path class="fil33" d="M2956 13563l42 3c18,91 -18,57 71,78 -39,17 -16,-3 -26,32l64 8 -29 93 57 5 -2 -122c-58,-77 33,-21 -76,-98l-31 -34c-48,-27 -32,-2 -48,2l4 -71c-52,15 -32,62 -26,104z"/>
   <path class="fil48" d="M8345 14887c7,71 20,81 56,137l37 8 62 -40c27,-22 22,-21 36,-60l-96 -40c-60,-17 -39,-24 -95,-5z"/>
   <path class="fil49" d="M11119 15457c129,12 128,5 226,-62l-27 -25c-8,-6 -39,-33 -42,-37 -83,15 -137,27 -157,124z"/>
   <path class="fil50" d="M8522 13641c48,19 50,13 91,-15l35 -30 58 38c64,-12 66,6 82,-33l9 -94 -191 60c-20,38 -7,21 -28,37 -3,2 -9,4 -13,7l-43 30z"/>
   <path class="fil51" d="M3843 11095c23,62 58,121 148,88 60,-21 24,0 49,-53 -26,-56 50,-53 -88,-55 -33,0 -92,11 -109,20z"/>
   <path class="fil0" d="M12749 14932c3,4 7,6 9,13l51 71c6,-89 10,-91 56,-86 11,2 -5,10 33,2 0,-1 56,-78 -34,-111 -100,-37 -86,54 -86,54 -1,2 -2,6 -3,8 -1,2 -3,6 -4,9l-22 40z"/>
   <path class="fil21" d="M9591 14542l58 29c55,-27 90,-75 109,-133l-132 -28c-44,65 -25,36 -35,132z"/>
   <path class="fil52" d="M14983 12884l1 6 51 44c1,3 1,11 3,15 22,50 -15,17 39,39 45,-30 12,13 25,-59 -15,-68 -25,-72 15,-109l-9 -25c-45,-16 -11,-17 -49,12 -63,-61 14,-22 -71,-54 12,73 15,39 29,97 -69,0 -6,-6 -34,34z"/>
   <path class="fil53" d="M14151 13194l-19 -17c-16,45 40,1 -31,40 64,44 -5,15 72,44l-24 13c-68,70 16,-51 -18,18 -14,27 0,39 11,53 85,111 14,48 82,119 30,-29 83,-38 -1,-144 -60,-73 10,28 -72,-126z"/>
   <path class="fil20" d="M9789 13822l-29 -68 88 21 6 -76c-43,58 -94,31 -262,-9 3,8 7,11 10,23 3,12 7,16 11,20 3,4 7,11 11,15 20,22 6,-23 59,68l17 27c56,-26 22,-24 89,-21z"/>
   <path class="fil54" d="M9832 13515l64 -19c-43,66 -2,4 -78,63 19,14 10,88 104,-19l115 -14c4,-1 9,-5 13,-7 6,-2 27,-15 33,-18 -5,65 -11,41 25,89l96 -42c-38,8 -7,17 -46,-16l-68 -72c-68,34 -30,34 -125,50 -69,12 -20,-2 -72,-12 -63,-12 -43,-13 -61,17z"/>
   <path class="fil0" d="M7745 14830c-6,1 -28,5 -31,6l-103 40c16,22 6,46 62,44l107 -53c38,-18 71,-15 96,-76 -96,-18 -65,-21 -165,-10 19,37 7,18 34,49z"/>
   <path class="fil34" d="M12818 14128c26,41 -22,10 53,37 16,52 14,11 0,93l96 -49c4,-2 10,-5 15,-7 4,-61 2,-86 -74,-138l-90 64z"/>
   <path class="fil55" d="M12459 14429l-2 -71c32,10 48,13 67,28 36,30 24,1 31,63l17 4c35,-81 38,-51 80,-78 -19,-31 -24,-34 -36,-78 -5,2 -12,1 -15,8 -8,26 -108,28 -120,31 -46,-59 -1,-34 -56,-53 -13,41 -11,4 -1,54 15,77 10,69 35,92z"/>
   <path class="fil42" d="M14022 13113l-49 32 17 63c83,-30 19,-5 51,-36 36,-35 12,-21 49,-34l21 -40 108 -9c-28,-18 -46,-51 -64,-76l-61 7c-51,74 -45,5 -40,88l-32 5z"/>
   <path class="fil18" d="M15954 14148c84,-91 2,-67 124,-94l-63 -68 16 -70 -10 6 -52 -22c-11,77 13,25 -32,86l28 74c-5,3 -11,8 -15,11l-37 62c52,35 -19,-1 41,15z"/>
   <path class="fil56" d="M8325 15061l29 12c28,-80 -2,-14 47,-49 -36,-56 -49,-66 -56,-137 -136,55 -110,141 -129,106 -2,-4 -8,8 -11,13 81,45 103,-15 120,55z"/>
   <path class="fil4" d="M5053 9702l11 62 -6 49c9,26 80,1 99,-20l0 -54c27,-22 40,-32 61,-49 -25,-34 41,-74 -48,-6 -62,-17 -83,-35 -117,18z"/>
   <path class="fil57" d="M14954 12562l47 -4 -30 -70c-1,-9 -6,-10 -7,-12l25 -31 -32 -8 -160 -9 -14 45c52,5 51,-6 85,21 38,29 12,-2 23,57l63 11z"/>
   <path class="fil18" d="M7586 14260l-27 51c66,9 61,-9 74,62l30 -49c13,-22 23,-50 34,-73l119 -8 10 -65c-109,21 -132,62 -244,69l4 13z"/>
   <path class="fil58" d="M11778 8341c27,42 21,-37 21,61l102 35c-5,-38 36,-22 73,-82 -86,-61 -49,8 -97,-63 -49,17 -70,29 -99,49z"/>
   <path class="fil23" d="M10621 15138c82,-27 23,29 61,-61 31,-1 43,3 73,-6 71,-21 48,-26 72,-47 -15,-7 -14,-16 -51,-20 -79,-7 1,25 -136,-9 -11,110 -51,51 -19,143z"/>
   <path class="fil33" d="M12184 12942l137 -19 179 -39c-16,-5 -87,-28 -84,-48l-83 60 -177 -5c-66,12 -40,7 -83,50 6,-1 48,-7 53,-7 7,1 15,0 23,0l35 8z"/>
   <path class="fil59" d="M14447 14143l52 1 -19 54 103 -14 8 -2c-9,-69 -40,-116 -89,-160 -12,12 -18,8 -36,42 -14,30 -14,40 -19,79z"/>
   <path class="fil11" d="M14146 14004l95 8c-27,60 -40,47 -10,104 72,-12 40,-11 83,15 16,-80 20,-20 34,-124 -78,16 -58,-10 -83,44 -9,-74 -52,-85 -117,-100l-2 53z"/>
   <path class="fil60" d="M7271 13955l6 -66 -154 3 -20 89c67,29 108,14 168,-26z"/>
   <path class="fil1" d="M13428 14807c7,-61 14,-72 60,-103 0,-6 32,-82 -62,-76 -73,5 -60,65 -64,118 4,4 8,9 10,11 3,3 8,8 11,11l33 30c2,-4 8,6 12,9z"/>
   <path class="fil26" d="M7862 13856l175 -8c-16,-90 17,-21 -51,-62l-23 -10c-61,-28 -81,4 -81,-54l-26 20 -24 36c96,-6 64,-31 77,22 -54,29 -23,-2 -64,12 -43,16 -23,8 -49,44l66 0z"/>
   <path class="fil8" d="M13274 15222c1,84 -7,26 23,44 87,-39 38,-33 79,-88 51,-68 9,-11 58,-37l58 -43c13,-113 7,-10 -28,-55 -7,70 24,27 -19,57 -35,-18 -71,-24 -128,-23 26,46 19,22 35,77 -22,24 -30,30 -42,70l-36 -2z"/>
   <path class="fil59" d="M14984 12890l-1 -6c-6,-4 -20,-11 -22,-12 -13,0 -1,-9 -23,7l-15 -129c-16,56 -4,31 -42,74 -51,57 14,10 -62,49l51 67c37,-41 10,-15 77,-26 -2,7 -6,10 -7,22l17 34c40,55 13,4 34,63l-7 -143z"/>
   <path class="fil32" d="M15168 11872l-13 122c66,-8 25,-13 88,15 51,-48 38,-42 32,-149 -112,-2 10,-4 -70,10 -35,7 17,11 -37,2z"/>
   <path class="fil53" d="M12368 15057l-17 4c-41,25 -25,-4 -55,35 -56,-51 -8,-38 -78,-53l2 93c56,31 82,30 158,30 -4,-87 13,-52 -10,-109z"/>
   <path class="fil55" d="M9600 13555l67 -18c3,66 5,47 43,105 42,62 13,50 86,69 -34,-95 -29,-47 -74,-115 61,-64 71,-47 92,-88 -66,11 -73,5 -113,5 -2,0 -48,5 -56,8 -49,19 -15,-12 -45,34z"/>
   <path class="fil61" d="M3133 13660l2 122 4 36c67,0 -9,-71 43,-251l46 -249c-60,33 -14,19 -42,107l-23 50c-1,5 -2,10 -3,14 -56,194 32,151 -27,171z"/>
   <path class="fil28" d="M13488 14704l57 71c9,11 24,25 29,29l88 -62c-30,-20 54,-47 -85,-17l12 -121c-7,3 -14,6 -20,8l-58 49c17,33 18,-16 13,30l-36 13z"/>
   <path class="fil62" d="M2884 13999c84,0 37,-45 40,-87l-2 -32c4,-51 19,-68 42,-117l-47 -56c-51,-8 -11,-12 -36,120 -28,147 34,42 3,172z"/>
   <path class="fil33" d="M13856 12481c-23,18 30,26 -77,23 0,1 -17,6 16,31l-44 0c0,61 11,22 61,23l124 -27c45,-46 17,-23 67,-39l54 -28 -176 1 -25 16z"/>
   <path class="fil54" d="M11500 13218c-2,71 -9,68 26,116 55,-111 133,-98 136,-99 75,-24 30,-4 50,-53 -86,0 -177,20 -212,36z"/>
   <path class="fil31" d="M7962 12598l-2 102c59,-1 60,8 103,-15 7,-3 28,-24 31,-28 23,-29 3,-4 24,-43l-32 -18c-29,-7 -88,-14 -124,2z"/>
   <path class="fil63" d="M11733 14127l38 -21c3,1 10,4 12,5 2,1 8,4 12,5l49 -52 -12 -24 -94 13c-1,3 -4,-8 -5,-5 -19,41 13,-17 -52,-55 21,54 17,39 26,85 -56,41 -47,36 -58,75 42,33 -33,-2 44,31l40 -57z"/>
   <path class="fil20" d="M10626 14293l51 -6 11 31c110,8 30,7 62,-17 35,-121 0,-30 -20,-119l-101 28 -3 83z"/>
   <path class="fil21" d="M11853 14672l96 -3c1,-90 -78,-114 -154,-133 -4,74 -20,9 10,66 3,5 16,18 19,23 23,34 -1,-10 29,47z"/>
   <path class="fil0" d="M14163 13546c-79,-21 -5,13 -55,-22 -15,-11 -10,-14 -11,-20 -44,67 -57,104 38,93 1,0 6,-3 8,-3 33,-1 3,6 59,23 25,-74 28,-76 18,-159 -50,50 -45,11 -57,88z"/>
   <path class="fil20" d="M10354 14009c69,19 22,-21 54,33l9 81c-104,-23 -66,7 -75,-44 -41,26 -52,1 -59,57 41,18 25,2 63,15 39,13 25,10 58,34l49 -51c-19,-85 -10,-98 -49,-162l-35 12c-2,2 -8,9 -10,11 -1,2 -3,9 -5,14z"/>
   <path class="fil2" d="M10139 13949l17 92 62 9c20,-103 60,-77 1,-157 -60,3 -48,-8 -80,56z"/>
   <path class="fil28" d="M13137 14732l-4 13c-18,26 -19,32 -38,71 138,-23 87,-18 119,-44l68 -44c-25,-26 11,-27 -97,-50l-48 54z"/>
   <path class="fil55" d="M11832 14040c89,-9 75,-49 167,-16 25,-72 -7,-6 47,-40 -4,-3 -9,-14 -12,-10l-85 -33 -48 9 -12 -31c-28,27 -14,18 -65,24l50 61 -42 36z"/>
   <path class="fil11" d="M11178 13522c59,52 -10,108 84,48 -21,129 -21,18 40,113 23,-29 40,-5 12,-66 -1,-3 -5,-8 -6,-10 -2,-4 -9,-13 -12,-16 -25,-40 -36,-68 -31,-134 -85,44 -16,23 -87,65z"/>
   <path class="fil63" d="M9781 14558c67,23 28,12 82,36l19 -1c15,-65 -9,-36 66,-61l-9 -62 -161 40 3 48z"/>
   <path class="fil18" d="M10317 13245c33,8 21,5 38,15 0,0 37,27 39,28 51,-58 11,-2 73,-44l42 -19c51,-3 -1,4 23,-40l-128 1c-16,7 -35,12 -51,22 -41,27 -19,12 -36,37z"/>
   <path class="fil64" d="M12803 12767c109,10 30,7 60,-16l1 35c62,-18 65,-42 99,-78l57 2c-7,-55 14,-17 -20,-53l-122 38c-46,18 -53,32 -75,72z"/>
   <path class="fil55" d="M11029 14755l6 69 -60 -48 56 -14c-6,-2 -14,-13 -16,-7 -2,3 -103,-28 -75,62 11,37 26,33 40,37l94 -8c3,0 10,-2 12,-3 2,0 8,-3 12,-4l-10 -76 -59 -8z"/>
   <path class="fil38" d="M16542 13726c55,-34 40,45 51,-73 10,-105 -18,-69 -51,-85 -37,47 -24,-60 -34,65 -13,148 11,63 34,93z"/>
   <path class="fil65" d="M9242 13576l64 0 21 10 103 10c-21,38 -7,3 -15,63 63,-20 24,-6 102,18 -15,-33 -23,-52 -29,-101 42,12 44,23 100,-13 -77,12 -65,-11 -165,-1 -62,7 -130,-2 -181,14z"/>
   <path class="fil11" d="M12385 14648c106,21 71,51 164,65l2 -50c-55,-27 -223,-115 -267,-107 52,21 64,29 101,92z"/>
   <path class="fil66" d="M15893 13243l-20 -73c85,-24 66,-11 78,-90l-156 9 29 38c14,27 5,13 16,40 27,71 -12,32 53,76z"/>
   <path class="fil67" d="M13458 8081c58,7 61,20 73,-27 -38,-46 -21,-28 -41,-82l-137 -5 105 114z"/>
   <path class="fil68" d="M3514 10977c37,-16 37,-30 38,-81l16 -401c-35,18 -40,-13 -38,116 3,106 24,239 -16,366z"/>
   <path class="fil69" d="M16012 8582l7 101 -38 19 15 23 63 -17c10,-115 -10,-127 84,-152l-33 -34c-15,-15 -14,-13 -26,-26 -34,40 -26,-37 -20,78l-52 8z"/>
   <path class="fil33" d="M13036 12892l-2 34c34,-1 36,2 65,-6 4,-2 9,-4 13,-6l25 -11c90,-36 60,-32 124,-2l-21 -70c-43,3 -104,7 -135,20 -24,10 -21,24 -69,41z"/>
   <path class="fil70" d="M16181 13799l31 -25c2,-2 8,-8 12,-11 -106,-128 -48,-109 -108,-131l-45 -36c8,52 26,79 43,116 35,75 2,40 67,87z"/>
   <path class="fil71" d="M15476 9538c-16,89 -7,13 19,46 37,-160 85,-159 120,-199 19,-22 21,-35 50,-64l-16 -20 -42 2c-80,193 -63,72 -114,170 -21,41 -12,37 -17,65z"/>
   <path class="fil6" d="M8788 13601c-16,39 -18,21 -82,33l-31 41c-3,4 -8,12 -12,18l90 -12c5,-1 12,-6 14,-2l53 -17c38,-11 36,-10 80,-15l-2 -23c-55,-27 -71,-34 -110,-23z"/>
   <path class="fil72" d="M15168 11872c54,9 2,5 37,-2 80,-14 -42,-12 70,-10 6,107 19,101 -32,149l59 -2c7,-139 -7,-47 47,-135 -73,-21 -45,-6 -74,-74 -37,38 8,12 -49,41l-23 -20c-2,-2 -7,-7 -9,-9 -2,-2 -7,-8 -11,-12 -1,36 -8,59 -15,74z"/>
   <path class="fil73" d="M15833 13807c49,-26 10,-9 72,-28l4 -5c-6,-55 -5,-40 -33,-85l-15 1 -65 -6 2 116 35 7z"/>
   <path class="fil35" d="M14266 12848c55,-96 -1,-82 -67,-108 -45,3 -36,-11 -41,22 -34,6 -28,-22 -15,42l123 44z"/>
   <path class="fil21" d="M12361 13413l41 -13 39 27 -7 50 67 -18 17 -86c-51,-24 -46,-26 -88,11l-60 -55c-1,58 5,44 -9,84z"/>
   <path class="fil43" d="M16226 9016l7 -145c-48,-24 -33,22 -43,-24 -19,38 -25,74 -30,128 -5,56 -7,92 66,41z"/>
   <path class="fil20" d="M11996 14190l-127 65c-5,-8 -30,3 -16,-92 -88,5 -73,6 -114,-32l44 155c83,2 86,-19 123,-59l90 -37z"/>
   <path class="fil74" d="M14584 12647l-26 -10c-41,58 9,30 -56,50l-56 -62c10,70 10,42 8,116 33,15 100,49 123,40 -1,0 -20,40 -22,-41 -2,-60 22,-80 29,-93z"/>
   <path class="fil25" d="M14446 12625l56 62c65,-20 15,8 56,-50l26 10c13,-58 1,-8 -26,-81l-73 18 -20 0 -19 41z"/>
   <path class="fil2" d="M14882 13704c-45,-16 -18,26 -43,-33l42 -37c-94,-27 -136,2 -178,84 41,-24 41,-28 78,-58 36,58 0,25 18,88 36,-3 17,32 83,-44z"/>
   <path class="fil33" d="M14279 13093l50 -31c43,14 21,-1 39,29 4,-10 116,-141 -95,-106 35,36 -32,11 38,37l-52 52 20 19z"/>
   <path class="fil55" d="M12969 13441c66,-32 73,-26 105,-127 -55,-6 -34,-9 -104,-24l-1 151z"/>
   <path class="fil65" d="M15102 12929c36,32 31,-52 31,74 6,-5 16,-18 20,-13 17,20 68,-85 69,-86l-55 -1c-26,-38 -36,-39 -50,-83 -40,37 -30,41 -15,109z"/>
   <path class="fil75" d="M13560 12513l50 -10c0,1 25,42 25,42 12,-61 -2,-3 27,-29 89,-1 50,1 69,24l20 -5 44 0c-33,-25 -16,-30 -16,-31 107,3 54,-5 77,-23 -68,-1 -98,-21 -157,-3 -35,11 -1,16 -65,16 -44,0 -41,-47 -74,19z"/>
   <path class="fil14" d="M7940 14134l-70 11 -6 59 75 -21c43,-16 16,-6 46,-18 49,-20 13,15 49,-28 21,-24 27,-40 39,-58 -109,13 -46,22 -133,55z"/>
   <path class="fil72" d="M3988 14784c-31,36 -7,24 -58,37 -16,4 -51,-1 -64,0l-15 14c38,38 148,44 195,-3 -50,-43 -6,19 2,-72l-60 9 0 15z"/>
   <path class="fil33" d="M16078 14054c32,59 -13,84 48,113 -13,-58 -8,-70 12,-112 -136,-67 19,-83 -107,-139l-16 70 63 68z"/>
   <path class="fil50" d="M9814 13508l18 7c18,-30 -2,-29 61,-17 52,10 3,24 72,12 95,-16 57,-16 125,-50l36 -20 -53 1c-12,7 -55,32 -58,34 -160,-75 -72,41 -161,-15l-40 48z"/>
   <path class="fil31" d="M15092 12636l8 -87 -75 -3 -26 48c29,56 -9,35 41,93l52 -51z"/>
   <path class="fil27" d="M9051 13781c-18,-20 -51,-10 -106,-23l-78 -5c26,31 -38,79 178,52l17 72c19,-74 47,-1 -11,-96z"/>
   <path class="fil76" d="M10552 13195c36,16 19,-1 22,21 0,4 -6,60 -5,75l35 14 35 0 -13 -98 39 -19c-58,-47 -20,-27 -75,-35 -23,17 -28,29 -38,42z"/>
   <path class="fil29" d="M14788 14181c89,-11 113,-29 140,-103 -21,-8 -57,-48 -112,36 -23,34 -15,14 -28,67z"/>
   <path class="fil34" d="M10567 13967c0,100 28,70 83,27 50,-40 20,-9 43,-74 -69,1 -84,-14 -126,47z"/>
   <path class="fil33" d="M11597 12996l-9 67 -34 13c-11,-16 -35,22 4,-59l-47 0 -29 42 34 -24 -8 33c56,110 -67,7 31,26 95,19 73,-30 75,-36l112 -61 -42 11c-5,-6 -27,-21 -32,-24 -32,-15 46,-6 -24,0l-31 12z"/>
   <path class="fil10" d="M11134 13800c6,55 22,46 -25,46 -36,-32 -13,6 -17,-50 -8,-19 4,-21 -13,-38 -77,4 -87,2 -42,96l16 23c35,-22 -27,-14 110,-15 2,-126 6,-11 -29,-62z"/>
   <path class="fil51" d="M15013 14505c127,-41 98,-8 195,17l6 -78c-38,11 -38,6 -63,21 -27,-9 -15,-3 -40,-16l-39 -24c-12,51 48,30 -61,32l2 48z"/>
   <path class="fil77" d="M12531 14937c33,15 19,8 61,12 25,-84 -37,-45 48,-65l-10 -61 -57 -9c-27,58 -32,51 -42,123z"/>
   <path class="fil76" d="M13422 12616l20 46c35,-1 21,5 41,11l43 2c-38,-23 -34,50 -30,-41 105,-16 23,-11 58,23 69,-17 75,1 106,-36l-74 0 3 -32 -167 27z"/>
   <path class="fil78" d="M15535 10491l17 35c79,-79 16,-39 114,-40 44,-32 36,-28 29,-65 -1,0 1,-44 -90,12 -33,20 -58,40 -70,58z"/>
   <path class="fil79" d="M13300 14116l24 44c18,34 1,-21 17,36l33 -17c4,-2 22,-11 26,-15 34,-30 16,-11 33,-51 -120,-58 -120,-5 -133,3z"/>
   <path class="fil20" d="M9434 13960c11,-125 56,-65 79,-141 -73,-37 -121,30 -118,75 8,127 -5,19 39,66z"/>
   <path class="fil78" d="M15405 12737l-101 -57c-46,-38 -31,40 -41,-38 -4,7 -42,-24 -11,51l75 78c2,-3 6,8 10,11 68,-32 48,-2 57,-34 2,-7 7,-8 11,-11z"/>
   <path class="fil80" d="M10270 15308c20,57 104,25 141,-6 -32,-62 36,-21 -85,-39l-52 -15 -4 60z"/>
   <path class="fil39" d="M10055 14199c-68,-86 -21,7 -72,-71l-34 -28 -29 70c17,13 24,21 43,32 68,38 19,12 84,35l8 -38z"/>
   <path class="fil81" d="M4759 9941l64 1 -56 -116c-18,11 -15,32 -74,5l-36 38c66,25 63,-7 102,72z"/>
   <path class="fil82" d="M14070 14736c3,-5 6,-20 8,-16 2,3 7,-12 9,-16 3,-5 25,-37 26,-39 -65,4 -41,-5 -85,-2 -67,4 -34,1 -70,18 21,35 -24,24 53,56 30,12 19,3 59,-1z"/>
   <path class="fil11" d="M15567 13708l26 55c35,-32 24,48 33,-66 70,-2 59,9 89,-54 -6,1 -62,12 -66,12l-40 -46c-8,81 -6,40 -42,99z"/>
   <path class="fil83" d="M13909 13095l13 7c36,-32 44,52 28,-39 34,17 10,25 25,-5l-34 -66c-36,42 -10,10 -52,25 -35,13 3,-6 -29,14l-23 18c-3,2 -8,7 -13,10l85 36z"/>
   <path class="fil53" d="M12531 14937l-1 55 41 31 38 -51c106,-169 24,-146 21,-149l10 61c-85,20 -23,-19 -48,65 -42,-4 -28,3 -61,-12z"/>
   <path class="fil41" d="M10270 15308l4 -60 52 15 -62 -119c-2,-4 -5,-10 -8,-15 -42,28 -68,42 14,179z"/>
   <path class="fil1" d="M11881 14468c3,4 8,4 10,11l98 72c0,-78 3,-68 -16,-143 -27,9 -17,0 -46,19 -42,27 -25,20 -46,41z"/>
   <path class="fil78" d="M16156 7342c9,56 28,10 108,11 47,44 43,47 97,61 -22,-40 -44,-66 -78,-99 -73,-6 -93,-12 -127,27z"/>
   <path class="fil33" d="M15876 13689c28,45 27,30 33,85l3 51c89,-14 26,-6 58,12l-1 63 52 22c-20,-29 -28,-31 -36,-70 -17,-94 3,-51 10,-62 -39,-33 10,-26 -57,-11 -7,-135 -3,-60 -34,-94l-28 4z"/>
   <path class="fil84" d="M15388 13021l36 34 74 -7c-12,-38 -58,-79 -94,-101 -41,30 -27,-29 -37,37 18,31 -12,25 21,37z"/>
   <path class="fil85" d="M14558 12566c27,73 39,23 26,81 43,16 7,3 26,34 0,-8 -31,-21 19,-24 80,-7 35,14 40,28 30,-67 32,-23 -4,-87l-12 -44 -22 -3c-6,8 -22,61 -73,15z"/>
   <path class="fil71" d="M16278 7837c17,-15 88,42 15,-66 -18,-27 -40,-29 -74,-49l-12 -36 -16 24 -2 45c64,40 51,43 89,82z"/>
   <path class="fil76" d="M12443 12754c-32,91 -17,26 20,50 77,-17 43,-29 129,-30 3,-5 6,-20 8,-17 1,3 6,-12 8,-16 2,-4 21,-37 24,-43 -66,22 -42,29 -83,43 -41,13 -59,0 -106,13z"/>
   <path class="fil20" d="M11152 14772l69 -46 -65 -53c-106,-26 -25,-7 -60,17 19,111 -17,23 56,82z"/>
   <path class="fil50" d="M13415 13695c2,-2 58,-7 57,-117 -1,-110 2,-30 -27,-68 -33,38 -21,-24 -26,100 -1,36 -9,37 -4,85z"/>
   <path class="fil63" d="M13323 13978l61 0 -30 -104c-2,-7 -1,-11 -2,-18 -1,-8 0,-12 -2,-19l-16 -52c-53,73 -12,82 -11,193z"/>
   <path class="fil64" d="M3117 13949l0 -93c-76,20 -9,10 -97,0 -3,44 -4,44 -19,69l116 24z"/>
   <path class="fil43" d="M3601 11622c36,21 17,-16 26,-59 5,-25 8,-54 10,-81l-56 -38c11,76 9,101 -20,170l40 8z"/>
   <path class="fil86" d="M10762 14806c21,-71 13,-23 43,-72l-67 -37c-46,57 -35,41 -47,118l71 -9z"/>
   <path class="fil87" d="M14989 12445l-25 31c1,2 6,3 7,12l30 70 24 -12c5,-54 -4,-18 42,-51 3,-2 9,-7 11,-8 2,-2 9,-4 11,-11 2,-7 8,-7 13,-12l-43 -36 -42 61c-10,-70 2,-29 -28,-44z"/>
   <path class="fil88" d="M11130 14195c92,-7 85,14 118,-61 -76,-52 -102,-47 -118,61z"/>
   <path class="fil64" d="M10664 13315c43,-3 93,-8 134,-10 10,0 69,1 70,1 95,-25 20,13 56,-43l-44 36c-6,-74 32,-49 -49,-72 -10,16 -6,12 -11,30 -1,1 -2,8 -2,9l-6 19c-30,0 -49,-4 -77,2l-53 18c-4,-5 -12,6 -18,10z"/>
   <path class="fil89" d="M7499 14492c44,-5 42,-6 71,-24 21,54 30,49 90,51l30 -36c-60,-7 -45,-19 -74,-29 -117,-44 -106,39 -111,25 -1,-3 -3,9 -6,13z"/>
   <path class="fil11" d="M11553 13680c54,-14 -14,11 28,-56l57 -65 -120 -23 35 144z"/>
   <path class="fil90" d="M12997 14588c108,1 74,5 106,-115 -84,26 -93,32 -106,115z"/>
   <path class="fil91" d="M11981 12811c92,-14 117,-29 222,-13 -20,-25 -20,-64 -140,-40 -104,20 -67,33 -82,53z"/>
   <path class="fil10" d="M15290 13001l-8 -39c-75,17 -52,2 -95,41 3,3 7,3 8,8l37 65c2,4 3,10 5,15 1,4 3,10 4,14 1,3 3,8 5,13l18 -59c13,-40 4,-25 26,-58z"/>
   <path class="fil25" d="M7354 13949c0,29 -6,18 30,16l72 -11c-11,-52 -13,-33 1,-58l36 -29c-76,1 -98,-4 -153,29l77 11 -47 35c-2,-4 -11,5 -16,7z"/>
   <path class="fil63" d="M12815 14261c3,-80 2,-106 -73,-122 -8,49 -20,28 3,81 25,58 15,35 70,41z"/>
   <path class="fil81" d="M3066 13197c32,37 14,41 29,107l30 -47c1,-1 3,-4 3,-5l40 -30c2,-8 6,-10 9,-15 -54,-40 -22,-27 -87,-28l7 -54c-3,4 -9,4 -10,12 -1,7 -8,9 -9,12 -19,49 -4,-17 -12,48z"/>
   <path class="fil0" d="M15282 12962l8 39c60,-35 22,63 14,90l63 -15c-39,-39 -30,1 -67,-79l88 24c-33,-12 -3,-6 -21,-37 10,-66 -4,-7 37,-37 -15,-9 -15,-12 -47,-22 -1,-1 -41,-4 -46,-5 -19,51 27,43 -29,42z"/>
   <path class="fil69" d="M15648 7490c-11,103 -10,24 25,55l76 -80c26,-34 -17,-6 39,-36l37 -35c-72,7 -31,-3 -86,40 -41,30 -47,28 -91,56z"/>
   <path class="fil28" d="M13976 14486c-45,-48 -46,-41 -123,-74 17,90 -29,57 46,95 5,3 25,5 31,4 59,-4 23,-9 46,-25z"/>
   <path class="fil88" d="M12357 13505l-2 69c100,-27 4,-27 108,-6l-26 -83c-1,-1 -3,-5 -3,-8l-15 -7 -62 35z"/>
   <path class="fil92" d="M9266 14966l-32 16 13 26 108 -4 22 -85c-50,-2 -18,-3 -54,19 -53,31 2,7 -57,28z"/>
   <path class="fil93" d="M14426 14332c-32,0 -13,10 -35,-8 -114,-24 -35,-7 -66,14 24,49 -17,53 112,68l-11 -74z"/>
   <path class="fil13" d="M11821 12952c63,-1 30,-12 47,39l114 -12 19 -22c-14,-77 28,-17 -30,-62 -16,26 -5,35 -66,49 -41,9 -41,1 -84,8z"/>
   <path class="fil27" d="M3866 14821c13,-1 48,4 64,0 51,-13 27,-1 58,-37 -67,-8 -125,-20 -202,-32l80 69z"/>
   <path class="fil47" d="M4382 14599l51 5 13 34c64,-21 36,9 82,-51l-15 12 -43 5 3 -46 13 -29c-109,-24 -19,2 -58,-36 -39,-4 -28,-11 -23,31l51 30 -74 45z"/>
   <path class="fil72" d="M3366 12782l36 -90c-99,-12 -96,-34 -100,71l64 19z"/>
   <path class="fil33" d="M10467 13244c13,70 -2,17 30,41l72 6c-1,-15 5,-71 5,-75 -3,-22 14,-5 -22,-21l-20 -10c-24,44 28,37 -23,40l-42 19z"/>
   <path class="fil64" d="M9012 8939l34 20 123 -51 30 -70c-79,-1 -46,22 -98,62 -29,22 -60,30 -89,39z"/>
   <path class="fil76" d="M15703 13330l64 -43 -71 -68 -59 8c26,46 40,66 66,103z"/>
   <path class="fil5" d="M3803 14839l48 -4 15 -14 -80 -69 -64 4c24,102 -11,10 34,50 13,12 27,25 30,21 3,-5 12,8 17,12z"/>
   <path class="fil94" d="M15701 13397l2 -67c-26,-37 -40,-57 -66,-103l-9 -11 24 83c-63,13 -51,61 -37,86 59,-27 -16,28 26,-20l19 -25c3,-3 7,-9 11,-14 6,64 14,52 30,71z"/>
   <path class="fil0" d="M9983 14128c51,78 4,-15 72,71 58,-55 40,-35 41,-109 -79,11 -57,-13 -85,55l-28 -17z"/>
   <path class="fil2" d="M14259 13628l30 17c3,1 9,5 13,7 4,2 9,4 14,6 28,12 36,11 67,23 1,-48 6,-42 -6,-72 -29,-73 -4,40 -31,-67 0,6 -3,20 -4,24 -21,51 -13,39 -83,62z"/>
   <path class="fil40" d="M14282 12647l112 65c2,-74 -5,-62 53,-98 -15,-7 -8,-10 -50,-6 -27,12 -67,23 -115,39z"/>
   <path class="fil70" d="M15634 11629c32,-48 43,56 26,-53 -13,-77 4,-20 -45,-46 -12,13 -44,-34 -33,49 9,73 -7,26 52,50z"/>
   <path class="fil32" d="M7065 14391c-40,79 -16,20 1,47 51,-10 86,-29 131,-55 -84,-15 -9,3 -42,-32 -57,6 -55,3 -90,40z"/>
   <path class="fil83" d="M9939 14470l9 62c-75,25 -51,-4 -66,61 73,-43 107,-27 133,-130 -76,-2 -30,-4 -76,7z"/>
   <path class="fil18" d="M14176 12432c64,0 50,3 90,47 32,-44 32,-30 67,-78 -98,18 -24,-7 -132,-15 -49,49 -11,16 -25,46z"/>
   <path class="fil91" d="M3985 12278c-2,-158 0,-43 -34,-89 -24,12 -82,-28 -47,53 23,55 -27,21 81,36z"/>
   <path class="fil10" d="M12801 13890c80,-18 77,-9 131,-53l-64 -48c-21,18 -15,-12 -59,79 -3,7 -6,15 -8,22z"/>
   <path class="fil47" d="M14485 12584l73 -18c51,46 67,-7 73,-15 -63,-30 -120,-9 -203,-6 6,5 13,4 16,13 3,8 11,9 15,11 3,3 20,12 26,15z"/>
   <path class="fil35" d="M12531 14937c10,-72 15,-65 42,-123 -101,49 -4,28 -124,30 24,56 22,68 82,93z"/>
   <path class="fil59" d="M12622 13426c-5,-28 -8,-14 -7,-52 3,-80 -4,-3 14,-39 41,27 24,-18 31,62 39,-37 28,47 33,-60l-28 -20c-36,-14 -20,-8 -54,-13 -3,6 -80,17 11,122z"/>
   <path class="fil24" d="M15033 13818l5 77c50,-5 22,15 66,-12 46,-30 30,3 23,-64l-94 -1z"/>
   <path class="fil33" d="M15953 8145l-11 48 81 53c3,-5 10,-17 10,-14 1,1 19,0 5,-69l-85 -18z"/>
   <path class="fil55" d="M14651 13566c20,-12 33,27 42,-44 12,-92 -12,-48 -24,-67 -21,14 -28,-31 -39,47 -12,87 4,38 21,64z"/>
   <path class="fil18" d="M10342 14079c9,51 -29,21 75,44l-9 -81c-32,-54 15,-14 -54,-33l-12 70z"/>
   <path class="fil31" d="M16090 12910l93 48c30,-102 -9,-107 -12,-113l-71 54c-2,2 -6,7 -10,11z"/>
   <path class="fil74" d="M13061 14649c38,86 15,52 78,65l-5 -104c-82,6 -50,-18 -73,39z"/>
   <path class="fil26" d="M13085 12652c-47,20 -18,-10 -28,41l160 -21c7,-77 36,-11 -12,-43l-120 23z"/>
   <path class="fil55" d="M13242 12968l2 -56 -109 31c33,152 80,14 81,13 0,41 -5,1 26,12z"/>
   <path class="fil2" d="M11720 13518c-53,-9 -26,2 -56,-16 -6,-75 -7,-8 28,-34l-88 -40c15,72 -3,41 36,80 66,66 -10,-18 28,24l22 28c5,6 10,12 15,17 5,6 10,13 16,19l-1 -78z"/>
   <path class="fil95" d="M14069 12810c-22,50 -28,81 -42,139l134 -7c-43,-46 -13,-33 -89,-42l-3 -90z"/>
   <path class="fil96" d="M16317 14728l2 95c75,-2 8,6 40,-36 -24,-26 -11,-11 -26,-69l-19 -99 -71 -8 1 18 55 11c-2,91 -13,12 18,88z"/>
   <path class="fil55" d="M12455 13316c70,-10 68,2 123,-35 -19,-47 19,-26 -27,-40 -95,-26 -4,-10 -51,17 -48,27 -23,-18 -45,58z"/>
   <path class="fil63" d="M10529 13604c-105,15 -31,12 -56,-26l38 -18c-9,-68 -12,20 -1,-32 1,-5 4,-14 5,-19 1,-5 4,-13 7,-19l-28 -2 -45 -4 19 46c0,2 -1,9 -2,11 0,0 -33,52 -17,4 8,31 -2,13 10,49 12,34 10,25 19,40 110,-7 14,6 51,-30z"/>
   <path class="fil10" d="M12584 13726c19,20 16,46 76,31 41,-11 46,-42 63,-72 -72,16 -97,9 -139,41z"/>
   <path class="fil97" d="M7561 13915c-44,-9 -46,-20 -49,31 72,-24 66,7 129,20l37 -68 -36 3 -81 14z"/>
   <path class="fil59" d="M9789 13822l44 17c55,-43 27,3 54,-57l-39 -7 -88 -21 29 68z"/>
   <path class="fil98" d="M13030 14709c56,29 32,29 103,36l4 -13 2 -18c-63,-13 -40,21 -78,-65l-32 3c-46,56 -10,49 1,57z"/>
   <path class="fil35" d="M10090 14581c64,8 55,11 99,-20 -26,-38 10,-18 -103,-62l4 82z"/>
   <path class="fil99" d="M15597 9647l27 1c31,-67 24,-9 36,-99 -45,-12 -39,-26 -39,11 -36,50 -31,26 -65,87l41 0z"/>
   <path class="fil100" d="M13824 13117c-33,12 -30,-18 -25,23l15 7c105,-3 115,1 176,61l-17 -63 49 -32c-66,3 -100,35 -100,-11l-13 -7 18 55 -95 -30c-2,-3 -6,-2 -8,-3z"/>
   <path class="fil2" d="M7826 14178l-10 65 -26 12 63 -5c43,-29 48,-22 86,-67l-75 21 6 -59 -44 33z"/>
   <path class="fil10" d="M13912 13500l31 -5 48 -47c-25,-14 1,-10 -37,-12l-49 4c-57,27 -22,-6 -40,62l47 -2z"/>
   <path class="fil101" d="M2917 13707c47,-2 67,-4 70,-56 5,-83 -8,-5 -31,-88l-39 144z"/>
   <path class="fil102" d="M16207 7686l12 36c49,-13 26,-10 79,-13l8 -78c-60,17 -32,-22 -43,48l-49 -49c22,96 5,16 -7,56z"/>
   <path class="fil27" d="M14092 13629c-4,4 -8,5 -9,13l-20 59c48,-5 55,5 81,-13 39,-28 13,-7 21,-56l-73 -3z"/>
   <path class="fil33" d="M5677 9671c80,-18 43,-9 69,-33l-47 -10c17,-15 18,22 10,-31 -1,-4 -13,-29 -20,-42 -36,17 -19,5 -51,17 19,26 31,53 39,99z"/>
   <path class="fil103" d="M3702 11083c-11,67 -13,107 -35,147l49 -21c8,-77 7,-120 19,-196l-24 12 -9 58z"/>
   <path class="fil1" d="M11889 13919l12 31 48 -9 -4 -58c64,1 21,4 17,-31l-75 12 2 55z"/>
   <path class="fil104" d="M8153 15840l-16 -71 -69 14c-13,25 -25,-25 -6,57l91 0z"/>
   <path class="fil93" d="M14731 14704l51 9c12,52 15,50 60,74 -23,-34 27,-28 -22,-28 54,-31 55,-9 22,-72 -3,0 -7,-1 -9,-1 -2,0 -8,-1 -10,0l-92 18z"/>
   <path class="fil105" d="M12713 14795c-14,20 -22,-12 -17,68 17,-5 39,-5 52,-13 42,-26 19,-5 38,-48 -102,-65 -61,-12 -73,-7z"/>
   <path class="fil106" d="M8807 14338c18,31 -20,30 42,39 93,13 45,-13 57,-20 -17,-26 -4,-35 -43,-42 -90,-16 -35,6 -56,23z"/>
   <polygon class="fil12" points="11992,8291 12097,8396 12080,8273 "/>
   <path class="fil65" d="M7412 14851l11 -8c89,-16 33,6 62,-23 -38,-70 1,-57 -93,-52l20 83z"/>
   <path class="fil18" d="M12459 14429c107,-8 -12,5 96,20 -7,-62 5,-33 -31,-63 -19,-15 -35,-18 -67,-28l2 71z"/>
   <path class="fil99" d="M15710 9454c42,-15 13,10 49,-36 10,-13 20,-34 23,-45 0,-99 -101,32 -72,81z"/>
   <path class="fil107" d="M16023 7548l109 49 -27 -87c-29,3 -38,-2 -64,9 -39,17 -30,-3 -18,29z"/>
   <path class="fil108" d="M13019 12574c31,-21 15,-7 40,-30 1,-1 34,-34 34,-34 11,0 62,13 67,13 37,1 -3,23 27,-9 -114,-64 -133,-43 -168,60z"/>
   <path class="fil109" d="M3803 14839c-5,-4 -14,-17 -17,-12 -3,4 -17,-9 -30,-21 -45,-40 -10,52 -34,-50l-74 27c25,32 -50,25 155,56z"/>
   <path class="fil110" d="M3500 12006c13,-27 27,-43 34,-79 11,-64 -19,-14 17,-95l-49 16c1,15 7,70 6,78 -18,90 34,-21 -40,57 2,42 -6,0 32,23z"/>
   <path class="fil63" d="M11517 13879c3,-4 9,-14 11,-11 1,4 11,-10 17,-22 9,-21 6,-33 5,-46l-82 -13c5,30 -2,24 11,48 31,58 16,22 38,44z"/>
   <path class="fil0" d="M13829 13376l-7 -4c-59,10 -59,11 -49,63 3,-3 -24,0 18,-16 25,-10 16,-29 7,10 140,-49 92,-88 51,-69l-20 16z"/>
   <path class="fil25" d="M14057 12464l57 26 5 -37c32,38 -4,6 60,26l-3 -47 -49 -9 -46 15c-69,8 -6,-4 -24,26z"/>
   <path class="fil51" d="M15259 14435c73,-33 58,-3 47,-94l90 -5c-66,-10 -29,-12 -97,-17 -31,43 -34,41 -40,116z"/>
   <path class="fil59" d="M13182 14215c41,-12 41,9 67,-37 23,-41 9,-27 -2,-64 -63,31 -56,33 -65,101z"/>
   <path class="fil55" d="M11196 13403c97,-5 67,37 84,-89 -61,26 -59,13 -84,89z"/>
   <path class="fil18" d="M13822 13372l7 4 2 -48c52,15 51,-34 51,-34l-27 -17c-3,1 -47,13 -51,15 -4,1 -10,10 -13,6 -2,-3 -7,6 -10,8 15,35 22,45 41,66z"/>
   <polygon class="fil14" points="12380,14001 12440,14003 12451,13943 12415,13931 12373,13917 "/>
   <path class="fil54" d="M12166 13726l10 19c1,2 2,9 3,12 19,56 -9,-4 17,47 18,-40 -29,-31 20,-30 10,1 12,4 23,9l28 -80c-2,-45 -6,-8 17,-56 -25,42 -40,73 -94,83 -11,2 -18,-2 -24,-4z"/>
   <path class="fil34" d="M9877 14023c2,-146 4,-38 -29,-83l-44 4c21,107 -6,54 73,79z"/>
   <path class="fil78" d="M11436 13187l32 2c28,-9 57,-5 49,-38 53,-63 21,-16 0,-39 -70,15 -45,-1 -81,75z"/>
   <path class="fil54" d="M13903 14187l83 -14 -29 -78c-80,60 -40,-11 -54,92z"/>
   <path class="fil109" d="M15822 13596l25 3 -15 -68c3,4 12,5 15,12 3,6 14,7 17,6 75,-12 -51,84 31,-21 -49,-4 -16,8 -28,-40l-75 19 30 89z"/>
   <path class="fil2" d="M11642 13374c29,58 -6,24 66,49 17,-73 17,-36 -1,-95 -118,66 -73,97 -65,46z"/>
   <path class="fil80" d="M6459 14561l106 -22 50 17c-8,-30 -5,-19 -14,-31l-35 -42 45 -29c-50,29 -39,30 -64,48 -34,24 -8,3 -38,21 -48,29 -17,-1 -50,38z"/>
   <polygon class="fil111" points="11152,14772 11201,14794 11261,14711 11156,14673 11221,14726 "/>
   <path class="fil14" d="M14502 13881l15 -22c12,-90 8,-21 -15,-48l-71 28c6,10 8,17 15,29 23,42 19,4 56,13z"/>
   <path class="fil112" d="M4046 14832l72 -3c-25,-46 -14,-18 -20,-64l-32 -9 -18 4c-8,91 -52,29 -2,72z"/>
   <path class="fil74" d="M6452 14605l25 3c42,-8 67,-17 88,-69l-106 22 -7 44z"/>
   <path class="fil107" d="M15203 10707c-39,43 -29,19 -36,83l35 -4c41,-76 53,-15 36,-114 -16,73 7,3 -35,35z"/>
   <path class="fil13" d="M12622 12796c54,-7 71,-14 109,-38l-25 -43 -35 -4c-11,28 0,14 -14,40 -19,34 -13,24 -35,45z"/>
   <path class="fil42" d="M13589 12589l60 10 82 -59c-19,-23 20,-25 -69,-24l8 55c-6,-1 -35,-1 -39,0 -34,9 -26,8 -42,18z"/>
   <path class="fil78" d="M3928 10359c54,-13 -13,23 50,-17 55,-34 27,-21 40,-47 -23,-19 -2,-27 -23,1 -41,2 -25,0 -62,20 -1,1 -33,20 -34,21l29 22z"/>
   <path class="fil88" d="M10938 13421c17,22 -31,68 49,22 34,-20 20,-32 20,-69 -50,12 -52,-1 -69,47z"/>
   <path class="fil53" d="M13907 12879l0 7c-22,60 23,0 -28,61 83,29 27,31 51,-12l44 -22 -39 -55c9,38 5,2 -28,21z"/>
   <polygon class="fil32" points="5064,9764 5053,9702 4990,9703 4984,9761 "/>
   <path class="fil69" d="M3750 10490c36,-5 57,7 65,-43 22,-76 10,-18 -14,-42 -34,52 -14,17 -74,58l23 27z"/>
   <path class="fil18" d="M15545 13151l69 -8 -10 -47 -70 -6 -5 62c12,13 -20,14 16,-1z"/>
   <path class="fil113" d="M15139 11995l16 -1 13 -122c7,-15 14,-38 15,-74l9 -54c-19,18 -13,6 -28,35l-25 216z"/>
   <path class="fil18" d="M14762 12813l33 -50c-19,-16 1,-25 -76,-25 -12,63 -2,52 43,75z"/>
   <polygon class="fil97" points="7384,13965 7391,14018 7422,14014 7505,13950 7456,13954 "/>
   <path class="fil83" d="M15338 13351c-4,-18 15,-52 -41,-55 -84,-5 -37,8 -28,50 4,3 11,2 14,7 3,6 12,4 16,3 136,-4 -91,16 39,-5z"/>
   <path class="fil98" d="M12648 15239c81,-78 29,-53 -19,-80 -16,31 -30,-19 -15,45 9,37 29,32 34,35z"/>
   <path class="fil26" d="M7320 13953l34 -4c5,-2 14,-11 16,-7l47 -35 -77 -11 -57 23c78,36 20,15 37,34z"/>
   <path class="fil42" d="M13490 7972c20,54 3,36 41,82 27,-26 32,13 32,-76l-73 -6z"/>
   <path class="fil27" d="M13661 13399c-34,-15 -51,-18 -101,-27 8,17 7,37 28,48 85,44 73,-21 73,-21z"/>
   <path class="fil21" d="M9907 13782c26,14 -31,54 49,16 20,-10 29,17 15,-31 -29,-102 -63,15 -64,15z"/>
   <path class="fil14" d="M11597 12996c-59,0 -54,-10 -86,21l47 0c-39,81 -15,43 -4,59l34 -13 9 -67z"/>
   <path class="fil26" d="M3955 10103l51 -30c-29,69 -3,36 -73,111 8,-1 20,-11 25,-5l101 -87c-86,-10 -24,14 -59,-33 -36,18 -26,9 -45,44z"/>
   <polygon class="fil18" points="8248,14001 8227,14064 8334,14024 8309,13994 "/>
   <path class="fil51" d="M4290 12929c35,70 -51,37 77,43 -1,-5 19,-102 -77,-43z"/>
   <path class="fil114" d="M9370 14134c55,70 50,66 87,0 -22,-16 35,-25 -38,-19 -39,3 -29,8 -49,19z"/>
   <path class="fil88" d="M12141 15043l45 -2 -10 -56 -65 -16c17,63 -12,45 30,74z"/>
   <path class="fil10" d="M11692 13468c-35,26 -34,-41 -28,34 30,18 3,7 56,16 41,-35 11,-1 30,-51 -55,-20 -20,-20 -58,1z"/>
   <path class="fil115" d="M7561 13915l81 -14c-14,-63 37,-23 -38,-51 -66,32 -32,-15 -43,65z"/>
   <path class="fil20" d="M14694 13400l-67 -39c-11,93 -16,64 80,73l-13 -34z"/>
   <path class="fil116" d="M7422 14014l-31 4 -7 -53c-36,2 -30,13 -30,-16l-34 4c13,37 4,16 28,47 7,9 31,36 34,40 80,2 7,6 40,-26z"/>
   <path class="fil64" d="M4211 10163c61,-7 52,7 64,-25l-34 -10c136,-71 26,-54 25,-55 -54,55 -15,13 -55,90z"/>
   <path class="fil55" d="M12588 13026l-8 16 -6 68c71,-28 60,26 57,-44 -1,-41 -43,-40 -43,-40z"/>
   <path class="fil55" d="M12704 13884c0,0 26,-7 30,-19 39,-128 11,-17 -12,-64 -42,32 -24,-11 -35,38 -14,62 13,40 17,45z"/>
   <path class="fil69" d="M11433 13088c30,55 -4,22 61,38l14 -58 8 -33 -34 24 -49 29z"/>
   <polygon class="fil78" points="15596,10607 15637,10634 15660,10553 15617,10532 "/>
   <path class="fil102" d="M14812 7959c30,2 56,0 59,-1l22 -45c2,-4 4,-12 6,-18 -72,32 -64,-34 -87,64z"/>
   <path class="fil43" d="M4094 10229c5,-1 13,-6 15,-1 1,3 11,-2 13,-3 25,-12 20,-13 25,-18l-25 -40 -70 32c16,34 -21,14 42,30z"/>
   <path class="fil42" d="M15244 10608c1,-25 15,-17 -2,-49 -25,-48 4,-5 -35,-34 -5,10 -59,-27 -9,56 4,6 37,22 46,27z"/>
   <path class="fil95" d="M14462 12799c-2,105 -7,37 22,56 51,-14 46,62 31,-56l-55 -13 2 13z"/>
   <path class="fil75" d="M13881 12465l176 -1c18,-30 -45,-18 24,-26l46 -15 -232 34c-4,2 -9,5 -14,8z"/>
   <polygon class="fil43" points="7363,9163 7468,9168 7453,9137 7362,9119 "/>
   <path class="fil40" d="M13336 13111c8,-4 30,-14 42,-26 32,-30 16,-7 36,-53 -100,22 -78,-12 -78,79z"/>
   <path class="fil77" d="M3080 14592l43 -27 -40 -107c-2,-3 -6,-9 -10,-13l7 147z"/>
   <path class="fil117" d="M15207 11093l-32 -162c-38,57 -18,93 18,145 3,6 8,12 14,17z"/>
   <path class="fil118" d="M7037 14626c-76,13 -30,-3 -57,27 22,73 -2,31 60,47l-3 -74z"/>
   <path class="fil18" d="M12357 13505l62 -35c-68,2 -34,-32 -17,-70l-41 13c-22,44 -20,36 -4,92z"/>
   <path class="fil64" d="M7453 9137l15 31 40 -1 -6 -82c-76,26 -25,-14 -49,52z"/>
   <path class="fil88" d="M12957 13829l20 65c74,-36 40,5 60,-61l-80 -4z"/>
   <path class="fil106" d="M14123 13786c-24,-66 4,-40 -75,-66 23,100 -20,62 75,66z"/>
   <path class="fil30" d="M12889 8037c-19,1 -83,-2 -95,0 -99,9 -39,-6 -69,33 99,-11 -70,32 48,8 25,-5 10,23 5,-31 70,17 71,13 111,-10z"/>
   <path class="fil2" d="M12623 13649c80,-10 48,7 57,-74 -63,31 -68,7 -57,74z"/>
   <path class="fil119" d="M16322 14183c-4,-40 -9,-76 -15,-108 -3,-15 -4,-30 -11,-46 -23,-54 -7,-14 -28,-41 17,54 11,43 20,102 1,6 7,45 7,47 12,36 14,27 27,46z"/>
   <path class="fil71" d="M3487 11271c21,39 -19,52 38,20l15 -68c-22,-19 7,-9 -40,-4l-13 52z"/>
   <path class="fil13" d="M12622 13426c41,-13 9,16 38,-29 -7,-80 10,-35 -31,-62 -18,36 -11,-41 -14,39 -1,38 2,24 7,52z"/>
   <path class="fil20" d="M11997 13578c4,3 10,2 12,8l76 43 -10 -75c-58,26 -22,-15 -78,24z"/>
   <path class="fil59" d="M14882 13704c15,-25 14,-22 32,-52 -23,-23 0,-9 -33,-18l-42 37c25,59 -2,17 43,33z"/>
   <path class="fil68" d="M15981 8702l38 -19 -7 -101c-51,-19 -22,34 -23,56 -1,44 10,21 -8,64z"/>
   <path class="fil33" d="M12419 13470l15 7 7 -50 -39 -27c-17,38 -51,72 17,70z"/>
   <path class="fil25" d="M13612 13015c-105,-13 -43,-21 -65,43 37,32 -1,10 47,9l18 -52z"/>
   <path class="fil57" d="M5242 9646l60 38c-52,-56 -7,-30 37,-49 -34,0 -24,7 -24,-30l-62 10c-14,15 -7,19 -11,31z"/>
   <path class="fil105" d="M9863 14594c-54,-24 -15,-13 -82,-36l17 66c53,-3 16,16 65,-30z"/>
   <path class="fil78" d="M15770 7646l49 -34c-4,-96 -5,-22 -37,-10 -111,39 -22,38 -12,44z"/>
   <path class="fil111" d="M10604 14579c6,3 -4,59 72,-18 -26,-12 36,-47 -46,-15 -34,14 -19,-8 -26,33z"/>
   <path class="fil40" d="M14892 12581l-59 -9c-14,34 4,13 -21,50 101,10 39,35 80,-41z"/>
   <path class="fil41" d="M6807 13535c76,-61 37,-38 -13,-81 -21,90 -8,49 13,81z"/>
   <path class="fil120" d="M15899 9393c7,-79 5,-2 13,-83 -94,-4 -43,-9 -59,24 2,3 5,5 7,11l39 48z"/>
   <path class="fil2" d="M15262 14041c77,-22 85,-19 19,-71 -51,76 -18,44 -19,71z"/>
   <path class="fil50" d="M14502 13454c47,-39 60,-21 37,-86 -51,29 -44,-10 -37,86z"/>
   <path class="fil27" d="M4396 14677c18,-12 30,-19 50,-39l-13 -34 -51 -5c-77,-8 -48,7 -58,28l89 -34 -17 84z"/>
   <path class="fil47" d="M15775 13500l-3 -39 -56 11c23,66 -1,93 59,28z"/>
   <path class="fil59" d="M13052 14898c26,13 3,20 42,16 45,-5 20,-5 42,-20 -5,-3 3,-71 -84,4z"/>
   <path class="fil40" d="M11062 13541c18,23 -20,36 78,33 -11,-29 -7,-52 -49,-49l-29 16z"/>
   <path class="fil121" d="M15494 12816c-10,-50 -3,-38 -63,-64 20,66 -42,3 36,66 23,18 10,26 27,-2z"/>
   <path class="fil24" d="M14002 14131c44,-42 40,-24 18,-77 -32,16 -26,-31 -34,28 -5,46 -1,24 16,49z"/>
   <path class="fil87" d="M15108 12234l43 40c21,-36 35,47 18,-65l-61 14 0 11z"/>
   <polygon class="fil115" points="13369,12656 13442,12662 13422,12616 13367,12615 "/>
   <path class="fil18" d="M14804 13156c-30,-75 22,-35 -69,-53 27,68 -30,50 69,53z"/>
   <path class="fil120" d="M16317 14728c-31,-76 -20,3 -18,-88l-55 -11c7,14 12,32 28,54 43,62 3,13 45,45z"/>
   <path class="fil122" d="M3702 11083l9 -58c-96,-16 -16,-4 -52,12 -4,107 -9,9 43,46z"/>
   <path class="fil33" d="M15949 7884c16,-35 45,54 0,-62 7,4 18,1 22,11l32 16c18,7 -4,11 9,-1 -7,-36 -9,-4 26,-30 -20,-15 8,-13 -27,-14 0,0 -52,10 -60,11l-2 69z"/>
   <path class="fil123" d="M4262 14773c29,2 28,23 23,-9l0 -37c-71,5 -38,-12 -68,42l45 4z"/>
   <path class="fil64" d="M8818 13772c-16,76 -5,24 10,46 65,-26 24,16 48,-64l-58 18z"/>
   <path class="fil124" d="M16236 14464c-18,-55 -12,-104 -56,-108 5,20 9,51 17,67 38,75 3,12 39,41z"/>
   <path class="fil125" d="M13157 15149l23 47c18,-15 39,-16 54,-23l-30 -39 -47 15z"/>
   <path class="fil126" d="M14989 12416c2,-1 40,-38 41,-38 38,-28 36,-3 52,-56 -48,34 -9,23 -82,25 -4,82 6,21 -11,69z"/>
   <path class="fil43" d="M15446 10796l7 -18 -37 18c-96,8 -30,-20 -49,37 17,4 -33,34 31,3l48 -40z"/>
   <path class="fil42" d="M8513 8822l-19 -3 -39 81c82,-39 24,29 56,-30 16,-30 7,1 2,-48z"/>
   <path class="fil107" d="M3572 10442c64,-32 16,-17 72,-59l-63 -13 -9 72z"/>
   <path class="fil124" d="M3137 12910c40,-79 2,-47 55,-148l-25 -18c-7,71 -26,65 -30,166z"/>
   <path class="fil127" d="M13909 13095l-85 22c2,1 6,0 8,3l95 30 -18 -55z"/>
   <path class="fil18" d="M10797 13479c16,39 -32,28 40,33 25,-25 4,-12 15,-58 -60,7 -20,-9 -55,25z"/>
   <path class="fil101" d="M15927 9591l55 -37c-32,-35 58,-44 -57,-22l2 59z"/>
   <path class="fil69" d="M4796 9775l1 26 92 -20c-62,-9 -19,-12 -48,-39l-45 33z"/>
   <path class="fil81" d="M10987 13170l-63 -2 52 69c6,-7 11,-19 11,-16l0 -51z"/>
   <path class="fil119" d="M3546 11810c9,-15 13,-19 20,-48 9,-31 -3,-17 15,-69l-44 29 9 88z"/>
   <path class="fil14" d="M7271 13955l49 -2c-17,-19 41,2 -37,-34l57 -23 -63 -7 -6 66z"/>
   <path class="fil69" d="M4635 9982l39 -19c25,-18 -5,-30 51,-39 -33,1 -81,3 -88,4l-2 54z"/>
   <path class="fil21" d="M10550 13652c25,32 -34,18 29,29 45,8 17,-1 38,-10 -16,-23 9,-52 -67,-19z"/>
   <path class="fil98" d="M7686 14375c60,71 40,42 69,-5 -6,-2 -22,-9 -25,-9 -31,4 -24,5 -44,14z"/>
   <path class="fil61" d="M15305 10092c3,-6 7,-20 8,-16 2,3 10,-19 17,-29 6,-10 20,-28 26,-35l-59 -2 8 82z"/>
   <polygon class="fil18" points="14480,14198 14499,14144 14447,14143 14442,14182 "/>
   <path class="fil128" d="M13526 12675l28 -18c-35,-34 47,-39 -58,-23 -4,91 -8,18 30,41z"/>
   <path class="fil63" d="M15179 13949c71,62 58,6 64,0 -11,-10 12,-51 -64,0z"/>
   <path class="fil55" d="M13408 14417c30,-63 18,-24 0,-62 -49,26 -70,18 0,62z"/>
   <path class="fil32" d="M14402 12548l26 -3c-4,-65 6,-69 -47,-53l21 56z"/>
   <path class="fil100" d="M3232 13260c54,-47 16,28 42,-70l-46 4 4 66z"/>
   <path class="fil21" d="M10707 14066c-30,-76 18,-44 -67,-44 33,57 -1,30 67,44z"/>
   <path class="fil62" d="M16472 7928c61,30 -7,10 79,36l-17 -46c-1,-3 -1,-9 -2,-12l-60 22z"/>
   <path class="fil64" d="M11134 13800l-42 -4c4,56 -19,18 17,50 47,0 31,9 25,-46z"/>
   <path class="fil129" d="M9344 15539c-3,63 32,58 67,4l-67 -4z"/>
   <path class="fil102" d="M5130 9771c-16,-99 -5,-25 -29,-52 -3,4 -44,-1 -16,34 17,22 -10,10 45,18z"/>
   <path class="fil42" d="M15419 10763l27 15 -4 -67 -41 20c-20,71 -6,6 18,32z"/>
   <path class="fil10" d="M12039 14061l52 -8 10 -39c51,-81 15,-28 2,-46 0,59 18,52 -30,47l-34 46z"/>
   <polygon class="fil116" points="9308,13640 9365,13618 9327,13586 9306,13576 "/>
   <path class="fil43" d="M4891 9896l60 -22c-28,-32 32,-20 -36,-27 -29,24 -22,-30 -24,49z"/>
   <path class="fil59" d="M9169 8908l62 -29c-16,-42 17,-3 -32,-41l-30 70z"/>
   <polygon class="fil76" points="15169,10835 15212,10836 15202,10786 15167,10790 "/>
   <path class="fil25" d="M10529 13604l-18 -44 -38 18c25,38 -49,41 56,26z"/>
   <path class="fil43" d="M5856 9596l34 10 8 -35c15,-54 20,-15 0,-45l-42 70z"/>
   <path class="fil107" d="M16394 7922l15 -39 -31 -13 -21 21c11,20 -19,19 37,31z"/>
   <path class="fil50" d="M4513 14599c-4,-74 9,-25 -40,-41l-3 46 43 -5z"/>
   <polygon class="fil27" points="11029,14755 11031,14762 10975,14776 11035,14824 "/>
   <path class="fil18" d="M15442 9920c38,-16 28,-15 44,-34 -25,-8 -35,-8 -64,-23l20 57z"/>
   <path class="fil130" d="M9046 8959l-34 -20 -44 13c51,31 23,42 78,7z"/>
   <path class="fil130" d="M10591 13328l37 28 24 -41 -13 -10 -35 0c15,39 12,15 -13,23z"/>
   <path class="fil68" d="M3264 12050l16 -49c15,-56 -5,-17 19,-64l-38 25 3 88z"/>
   <path class="fil119" d="M16712 7888l0 -59 -49 -17 27 37c3,4 -1,62 15,26 1,-3 4,9 7,13z"/>
   <path class="fil27" d="M15417 10476l46 24 -9 -61c-41,23 -14,-8 -37,37z"/>
   <path class="fil65" d="M10165 12576c24,36 10,35 52,19 -22,-42 10,-50 -52,-19z"/>
   <path class="fil50" d="M8898 14112l44 -8c-18,-47 -1,-27 -41,-40l-3 48z"/>
   <path class="fil131" d="M16379 14287c-1,-2 -12,-44 -13,-47 -32,-78 -7,-24 -33,-55 6,24 8,45 18,69 27,57 -1,1 28,33z"/>
   <path class="fil121" d="M8179 8811c-40,59 -18,19 3,33 47,-21 7,-2 31,-36l-38 -15 4 18z"/>
   <path class="fil132" d="M2990 14797c38,4 31,14 31,-20l27 -36 -38 12 -20 44z"/>
   <path class="fil59" d="M12081 13103c27,62 -28,24 50,49 -22,-78 17,-18 -50,-49z"/>
   <path class="fil18" d="M10214 13941c-7,-53 6,-18 -44,-45 27,70 -23,49 44,45z"/>
   <path class="fil26" d="M15275 11676l28 -70c-13,8 -41,21 -48,25l20 45z"/>
   <path class="fil81" d="M16378 7870l31 13 3 -64c-24,22 -15,0 -34,51z"/>
   <path class="fil96" d="M2852 14483c-17,-55 -18,-23 4,-63l-44 26c22,71 -2,11 40,37z"/>
   <polygon class="fil61" points="15567,9739 15624,9648 15597,9647 "/>
   <path class="fil133" d="M16177 8130l19 -47c-28,21 -42,31 -61,43 26,20 -22,23 42,4z"/>
   <path class="fil44" d="M15558 10654c37,-21 26,-20 79,-20l-41 -27 -38 47z"/>
   <path class="fil124" d="M3002 13308l64 -111c-16,12 -16,3 -35,36 -15,27 -20,46 -29,75z"/>
   <path class="fil47" d="M11056 11019c23,20 -47,36 33,10 2,-1 7,-7 12,-10 -30,-15 35,-46 -45,0z"/>
   <path class="fil94" d="M10878 14839c5,3 11,4 13,9 2,4 12,4 14,4 3,-1 12,-4 14,-4 3,-1 9,-7 14,-9 -31,-20 -21,-19 -55,0z"/>
   <path class="fil32" d="M4599 14556c-6,-38 72,-64 -39,-14l39 14z"/>
   <path class="fil33" d="M3315 12595c72,36 28,7 42,0 -33,-24 59,-35 -31,-9 -2,1 -7,7 -11,9z"/>
   <path class="fil27" d="M9169 13733c3,12 -8,19 9,21 1,1 7,3 9,3l25 -12c-22,-15 2,-11 -43,-12z"/>
   <path class="fil44" d="M12596 12632l34 10c2,-1 8,-7 12,-10 -30,-17 37,-51 -46,0z"/>
   <polygon class="fil65" points="12423,8146 12461,8138 12461,8100 "/>
   <path class="fil78" d="M15522 7848c42,2 8,5 11,-18l-35 -18 24 36z"/>
   <polygon class="fil121" points="15453,10778 15446,10778 15419,10763 15416,10796 "/>
   <path class="fil59" d="M15447 11679l13 -84c-23,65 43,47 -27,54 -9,36 -19,30 14,30z"/>
   <path class="fil27" d="M15080 13401c58,-22 29,11 45,-38l-45 38z"/>
   <path class="fil47" d="M12662 12699l46 -47c-52,29 -27,16 -46,47z"/>
  </g>
 </g>
</svg>
