<?xml version="1.0" encoding="UTF-8"?>
<!DOCTYPE svg PUBLIC "-//W3C//DTD SVG 1.1//EN" "http://www.w3.org/Graphics/SVG/1.1/DTD/svg11.dtd">
<!-- Creator: CorelDRAW X8 -->
<svg xmlns="http://www.w3.org/2000/svg" xml:space="preserve" width="210mm" height="297mm" version="1.1" style="shape-rendering:geometricPrecision; text-rendering:geometricPrecision; image-rendering:optimizeQuality; fill-rule:evenodd; clip-rule:evenodd"
viewBox="0 0 21000 29700"
 xmlns:xlink="http://www.w3.org/1999/xlink">
 <defs>
  <style type="text/css">
   <![CDATA[
    .fil124 {fill:#12164A}
    .fil61 {fill:#14122D}
    .fil108 {fill:#150A14}
    .fil93 {fill:#172A4E}
    .fil81 {fill:#262429}
    .fil37 {fill:#281927}
    .fil83 {fill:#291E4F}
    .fil21 {fill:#2B232B}
    .fil66 {fill:#2B2637}
    .fil26 {fill:#2C1833}
    .fil95 {fill:#2E1013}
    .fil73 {fill:#2F3051}
    .fil25 {fill:#351B27}
    .fil43 {fill:#362836}
    .fil76 {fill:#364654}
    .fil51 {fill:#37252B}
    .fil55 {fill:#392A44}
    .fil113 {fill:#3A3748}
    .fil42 {fill:#3B2B35}
    .fil56 {fill:#3C2C3B}
    .fil31 {fill:#3C323C}
    .fil78 {fill:#3D3343}
    .fil2 {fill:#43333D}
    .fil6 {fill:#443443}
    .fil58 {fill:#443B4B}
    .fil80 {fill:#461A2B}
    .fil102 {fill:#46292A}
    .fil54 {fill:#483B54}
    .fil116 {fill:#484448}
    .fil88 {fill:#491B17}
    .fil72 {fill:#4A4658}
    .fil23 {fill:#4B3544}
    .fil1 {fill:#4B3B45}
    .fil60 {fill:#4C3C4B}
    .fil4 {fill:#4D424C}
    .fil77 {fill:#4F5071}
    .fil90 {fill:#502F2F}
    .fil67 {fill:#523C4B}
    .fil89 {fill:#53434D}
    .fil69 {fill:#534453}
    .fil46 {fill:#544A54}
    .fil22 {fill:#574758}
    .fil101 {fill:#584B64}
    .fil45 {fill:#5B4B55}
    .fil28 {fill:#5B4C5B}
    .fil87 {fill:#5B5565}
    .fil7 {fill:#5D525C}
    .fil112 {fill:#5E6698}
    .fil12 {fill:#63535C}
    .fil9 {fill:#635463}
    .fil65 {fill:#644B58}
    .fil96 {fill:#67575A}
    .fil18 {fill:#675A68}
    .fil85 {fill:#69556F}
    .fil94 {fill:#6A5B64}
    .fil11 {fill:#6B626A}
    .fil35 {fill:#6B6575}
    .fil111 {fill:#70708D}
    .fil120 {fill:#718999}
    .fil97 {fill:#745B67}
    .fil92 {fill:#748DAE}
    .fil14 {fill:#75656B}
    .fil125 {fill:#769BC9}
    .fil27 {fill:#776976}
    .fil16 {fill:#7B727A}
    .fil82 {fill:#7B7685}
    .fil17 {fill:#85757A}
    .fil24 {fill:#877985}
    .fil86 {fill:#8A838A}
    .fil32 {fill:#8A8695}
    .fil109 {fill:#8B6E72}
    .fil53 {fill:#8F7988}
    .fil104 {fill:#9394AB}
    .fil121 {fill:#94AECC}
    .fil40 {fill:#95858A}
    .fil49 {fill:#968B95}
    .fil74 {fill:#9A939A}
    .fil79 {fill:#A2A6AA}
    .fil110 {fill:#A48875}
    .fil47 {fill:#A69BA5}
    .fil57 {fill:#AA9392}
    .fil91 {fill:#ABA3AB}
    .fil107 {fill:#ACB4CF}
    .fil99 {fill:#ADAAB3}
    .fil62 {fill:#B09CAA}
    .fil126 {fill:#B4C7D4}
    .fil100 {fill:#B5A7AA}
    .fil118 {fill:#B5ABB6}
    .fil36 {fill:#BAB7C5}
    .fil71 {fill:#BBB4B8}
    .fil50 {fill:#C3B6B8}
    .fil52 {fill:#C5BCBB}
    .fil119 {fill:#C7BDC3}
    .fil98 {fill:#C9BEBD}
    .fil115 {fill:#CBC8D5}
    .fil122 {fill:#CCAD97}
    .fil103 {fill:#CCC6C9}
    .fil106 {fill:#CDB3AD}
    .fil59 {fill:#CDC3C3}
    .fil117 {fill:#CFA199}
    .fil75 {fill:#D3CBCC}
    .fil114 {fill:#D5CDD1}
    .fil84 {fill:#D5D3D4}
    .fil39 {fill:#D5D4DA}
    .fil3 {fill:#D6CDCE}
    .fil123 {fill:#D7C8B6}
    .fil29 {fill:#DAD5D5}
    .fil0 {fill:#DBD3D3}
    .fil105 {fill:#DBD5DA}
    .fil70 {fill:#E1DADD}
    .fil5 {fill:#E2DDDD}
    .fil44 {fill:#E3DCE2}
    .fil10 {fill:#E5DEDE}
    .fil13 {fill:#E5E3E4}
    .fil48 {fill:#E6E1E1}
    .fil68 {fill:#E8DDE4}
    .fil8 {fill:#E8E7E8}
    .fil41 {fill:#E9E2E2}
    .fil34 {fill:#EAE5E6}
    .fil64 {fill:#EBE3E3}
    .fil20 {fill:#EBE5EA}
    .fil15 {fill:#EBEBEB}
    .fil38 {fill:#ECD5C9}
    .fil19 {fill:#EDE8EA}
    .fil33 {fill:#EDEDF2}
    .fil30 {fill:#F1ECED}
    .fil63 {fill:#F8F6EA}
   ]]>
  </style>
 </defs>
 <g id="Ebene_x0020_1">
  <metadata id="CorelCorpID_0Corel-Layer"/>
  <g id="_1602321017344">
   <path class="fil0" d="M14500 9850c99,-8 122,17 200,13 22,18 -24,4 46,22 28,7 42,5 69,7l-2 0 7 28 -122 -33c20,27 -12,71 157,67l9 81 48 -49c40,83 24,19 96,57 37,19 -3,31 102,58l5 -57 72 -1 -10 44 2 30c-33,20 -69,0 -20,59 61,75 15,3 17,3l65 27c20,12 10,5 22,26 -92,32 -48,-7 -41,65 48,25 41,22 89,9 50,63 8,-12 52,49 19,26 21,39 28,73l-68 52c94,11 50,-5 104,25 3,2 11,11 13,7 2,-4 9,5 13,7 4,-3 9,-8 11,-10l37 -34 117 101c-79,50 -73,-36 -70,82 125,-29 51,-19 119,-83 35,60 -19,9 -14,116 128,20 20,-5 91,-27l62 -6c-42,-46 65,-7 -29,-35l29 3 10 83 32 8c61,21 56,-30 54,37l-103 -11c-4,-2 -8,-13 -10,-10 -13,29 -13,-18 -15,-21 -32,-35 18,1 -23,-19l-6 36c25,32 15,30 53,20 39,53 7,27 58,57 5,54 0,65 -27,98 6,118 -3,54 -21,141 -68,-4 -75,-23 -114,6 63,41 32,51 64,180l-58 4c-5,104 -14,50 -33,69 -125,-38 49,-48 -148,-44l-42 90 -89 1 -58 61c-86,116 -48,47 -205,94l-29 -45c-114,44 -29,61 -184,-20 -70,-37 -65,-28 -164,-42 -19,31 -57,72 -83,90 -61,-30 -78,-48 -115,-97 -43,14 -47,10 -84,-11 -4,53 -6,47 -28,86l-85 12c31,-58 71,-70 79,-104 19,-79 -34,-54 -93,-56 -35,-1 -60,-11 -113,-10 21,-39 34,-18 56,-70 12,-27 2,-9 13,-48 -102,4 -84,-12 -140,52l-179 2c19,-65 13,-10 16,-79 -33,-23 -48,-40 -102,-52 13,54 10,42 44,79l-231 3c2,74 11,67 -57,80 -13,-30 -19,-51 -27,-84 -51,11 -64,12 -104,46 -2,-3 -19,-29 -23,-33l-37 -31 -39 64c-217,-1 -121,90 -264,122 -81,18 -35,10 -102,38l-127 9c-97,3 -28,17 -135,0l32 63 -56 -10 -6 96c-77,-7 -44,-11 -103,12 -66,27 -30,12 -115,17l-35 57c-272,44 -81,47 -204,100l-199 94c-49,24 -20,35 -101,46 -115,16 -94,30 -219,79 -75,29 -50,22 -75,87 -146,11 -143,-5 -189,45 30,63 29,-14 15,63 -83,-2 -45,-29 -155,-5 -105,24 -108,51 -131,96 -67,6 -146,37 -193,83l-34 -12c-3,-4 -7,-15 -9,-12 -1,3 -7,-8 -8,-11 -2,-3 -6,-8 -8,-11l-27 -66 -68 9c-19,124 -2,36 16,70l5 20c-72,-3 -148,4 -189,56 -16,-32 -7,-19 -43,-33l-19 20c-27,17 18,17 -96,16l-60 64c-31,-8 -36,-2 -73,-60 -40,-61 5,-51 -81,-65l-6 75c39,0 25,-26 77,-16 -32,58 -29,48 -108,48 -3,99 11,0 -38,90 -26,29 -99,21 -139,17 -47,40 -62,46 -115,79 -43,-87 17,-40 -49,-66 -10,24 -5,-3 -4,24 1,19 5,29 4,58 -178,6 -201,58 -246,84l-66 -32c-60,69 -99,54 -183,14l32 56c30,101 5,43 -184,84 -90,20 -72,-21 -175,-25l-27 47 -87 -6c-15,-26 -24,-86 -82,-90 -115,-6 -39,8 -66,26l2 3c-31,4 -87,7 -112,0 -104,-30 21,-38 -111,-35 5,-85 20,-45 -25,-82l-70 -1 -34 -103c-35,-57 -58,-113 -48,-185 95,-66 33,38 86,-81l-88 -4 43 -5 93 -3c64,13 2,-4 72,35l26 -53 46 0 52 29c51,-45 113,-68 174,-87 73,-10 73,28 147,-3 31,-13 32,-25 63,-34 33,-9 56,-6 94,-13 18,41 -27,35 45,32 20,-40 13,-15 23,-75l-31 0c44,-41 57,-21 111,-69l107 10c51,-73 59,-24 123,-101l49 14c82,-138 115,-54 199,-149 23,7 -15,25 48,-2 66,-16 113,-28 181,-50 78,-25 11,-5 62,-30 40,-20 74,-19 119,-24l-30 56c51,28 18,-16 37,27 32,74 -31,20 42,62 4,-4 11,-16 12,-13 1,2 8,-10 9,-14 16,-58 -1,-2 4,-41 2,-23 -21,-7 21,-23 -97,-45 -68,0 -63,-61 49,-11 16,-3 37,-13 11,-6 22,-15 46,-25 -15,46 58,36 -17,36 14,32 -8,17 53,46 28,14 21,17 46,15 76,-5 30,-63 22,-91 41,-34 44,-10 106,-32 73,-26 65,-36 129,-17l30 12c4,1 10,4 15,5 4,-44 -3,-48 18,-79 33,-48 84,-44 109,-52 35,-12 25,-10 40,-20 -27,-82 -7,-32 -35,-65 21,-22 1,-13 42,-20 5,-1 51,-2 56,-2 -42,101 -14,20 10,54 82,-19 45,21 56,-70l33 -8c-46,86 -12,18 -7,45 60,9 56,-8 57,-8 4,-3 11,-14 14,-16 25,-23 39,-5 83,10 22,7 18,5 43,13 83,-89 24,-56 175,-51l-29 -60c-11,-32 -14,6 11,-44l-79 -1 65 -28c37,-14 0,4 25,-9 25,-13 19,-13 33,-26l19 -67 109 -31 54 -27 44 0 25 -30 19 -23 62 7c-2,-5 -17,-46 -22,-57 18,-14 19,-19 28,-30 3,-3 15,-12 16,-19 1,-6 6,-6 9,-9 14,-23 -47,-22 28,-18 44,-2 55,10 73,-24l-3 -16 88 34 -5 -52 2 -52c89,-5 8,0 75,27 5,-3 11,-7 14,-9 58,-37 65,-29 96,-135 36,-28 26,-27 54,-58l62 0c-18,-48 0,2 -14,-27l-19 -42c65,-31 39,-32 108,-33l39 -32c21,-15 8,7 27,-24l67 2 -7 -59c74,-27 41,-12 99,-65l65 -12c-54,107 -46,37 -49,36 52,50 -8,6 64,32l14 70c-5,2 -33,12 -33,13l-29 16c14,72 -8,31 33,66 -2,-26 16,-47 -32,-25 -48,21 -23,-1 -33,57 1,2 -27,54 85,34 40,-8 95,-56 86,-139 57,-3 75,25 83,-126 -77,-14 -50,2 -107,-65l55 15 4 -53 77 -9c13,-28 2,-10 12,-34 18,-45 3,-11 17,-32 121,13 88,-18 166,-51 117,-48 18,-24 94,-53 5,-1 34,-3 41,-3l13 -32c23,-6 17,0 53,-20 33,-18 21,-14 31,-24l104 7c44,-62 63,-41 113,-75l29 0 10 40c73,-4 159,1 210,-59l-63 -4c29,-33 42,-14 86,-14 42,0 42,0 75,-11 135,-47 250,2 429,-60 51,15 6,-15 54,41 60,4 17,7 33,-15z"/>
   <path class="fil1" d="M15985 6528l-12 60 67 44c1,2 3,8 5,11l50 -51 -70 -10c106,-24 9,-3 52,-45 54,33 61,63 102,85 30,17 104,51 131,54l60 54c2,2 4,7 6,9 24,26 -8,3 30,31l6 29c156,54 261,171 312,183 -4,63 13,8 -14,56 3,3 8,2 10,8l33 26c3,2 8,7 12,10l18 231 -27 -9 -1 -73c-6,-1 -10,-7 -11,-4l-46 -26 -29 -57 -46 13c-33,-6 -3,11 -47,-13 -50,-28 -21,-7 -35,-40l8 -66c-44,-9 -65,-16 -94,-38 -37,19 -32,17 -83,11 -20,-7 -12,10 -28,-18 -23,-47 -3,-29 -55,-64l-25 -27c34,-58 32,-48 -6,-73l-16 78c-88,-43 -22,-7 -88,-62 -117,-97 -118,-65 -170,-95 -75,-43 18,-35 -87,-45 -54,-10 -8,3 -22,-26 -41,-3 -107,-27 -164,-48 -72,-28 -255,-97 -335,-85l-188 -26 41 -6c-83,-94 -90,-41 -108,-38 -97,14 -60,-22 -161,-17 -74,3 11,17 -76,-4l-39 -13c-107,-36 -75,-7 -155,30 -11,-77 1,-26 -25,-48 -31,24 -10,-9 -18,39l-48 -19 33 46 -99 3 5 -38c-105,14 -51,-5 -91,-17 -20,-6 -49,31 -89,-42 -34,74 -34,9 -23,65 3,1 9,-2 11,2 14,31 -6,-8 41,8l48 26c-83,-12 -217,50 -353,39 -28,53 6,32 -47,38 -19,-87 0,-19 -31,-48l-21 50 -16 5c28,-86 13,-22 -9,-43 -25,26 -6,-15 -16,44 -86,25 -94,11 -183,25l-66 12 -61 23c-72,14 -171,23 -232,52 62,-94 22,-21 0,-50 -7,1 -49,6 -50,6 -89,22 58,-25 -30,8 -5,2 -10,6 -14,7 -3,2 -8,6 -12,9l58 11c-18,18 29,16 -48,20 -76,-21 -13,-8 -46,-21 -45,-19 -5,-10 -61,-16l8 76c-239,66 -90,26 -222,90 -50,25 -75,18 -120,40 -70,35 -31,45 -132,38 -17,26 28,-1 -33,31 -19,10 -34,13 -57,23 -43,18 -86,26 -136,18 -80,-14 -8,-2 -67,9 -3,0 -8,1 -11,2l-40 13c-47,14 3,11 -60,7l21 42 -45 0c-3,6 -10,25 -16,30 -30,30 8,1 -31,20 -16,37 27,-1 -26,40 -8,7 -33,15 -46,19 -42,-55 -34,-36 -49,-13l-41 -9 19 35c-46,-9 -41,-14 -55,18 -62,0 -28,-11 -78,18l39 35 -52 -5c-27,53 -23,31 -60,70l-55 1 -28 -23 -25 35c-20,43 -14,38 -75,55 -41,12 -73,20 -107,30 14,-47 6,-16 -8,-28 -40,15 -92,37 -115,76 25,27 -15,9 36,12l-36 53 -45 -55c-25,33 -19,-15 -13,76 -32,18 -46,13 -76,23 -45,15 -47,28 -84,50 -65,39 -129,52 -205,69 33,-51 13,-12 -4,-29 -61,0 -36,-8 -86,30l54 10c-21,18 4,10 -46,28 -18,7 -31,8 -53,14 -39,12 -64,27 -99,44l24 -49c-98,23 -60,-30 -146,52l29 4c-25,32 -47,38 -97,52 -63,18 -67,29 -126,45 38,-86 16,-20 -13,-43 -26,35 -18,-13 0,36l-53 0c-36,58 -166,97 -252,104l-22 -22c-48,41 -75,43 -182,54 -175,18 -148,61 -198,3 -38,61 -49,66 -179,93 -5,1 -19,5 -24,6l-28 1c-75,7 -52,-11 -98,44l37 10c-4,4 -8,4 -10,10 -3,6 -8,8 -12,9 -34,17 1,4 -47,18 10,-62 54,-28 -33,-39 -16,26 -11,-4 0,45l-131 15c25,-38 -28,-40 28,-32l-37 -8 -34 -18c0,-22 6,-51 5,-57l-25 -62c44,-21 253,-61 342,-88 -26,41 30,33 -25,33l20 12c44,-45 25,17 5,-48l40 -17 43 10c51,18 -6,11 22,-7l76 -30c-33,66 -12,16 0,32 35,-26 8,7 19,-40 129,-21 169,-49 330,-65 13,24 -11,26 30,11 9,28 -3,29 12,47 50,-12 76,12 45,-61l-18 -45c72,-18 112,-23 173,-44 -29,47 -12,15 0,23 3,1 171,-14 191,-51 15,-27 159,-66 196,-79 -34,75 -9,14 7,34 137,-8 -60,-34 115,-34 -46,-45 4,-36 -76,-18l27 -38c18,-58 94,18 144,-68l38 6 47 -20c21,47 25,26 7,99l93 13c1,-19 -2,-2 -16,-35 -31,-76 13,-37 -33,-63l32 -51c55,-7 23,1 67,-29 47,-31 36,-17 90,-42 94,-44 125,-47 197,-74l6 34c36,-31 16,0 36,-51l-33 0c34,-44 120,-91 168,-111 77,-32 126,-44 203,-78l28 19c2,1 6,5 10,6 43,-23 48,-27 40,-56 43,-64 36,-39 99,-64l133 -60c17,69 44,6 108,-19l-36 -7c22,-31 -35,-12 47,-34 20,41 -31,30 37,33 43,-84 69,-31 137,-80l26 -36c46,-48 126,-74 197,-91 16,-4 26,-6 40,-9l37 -10c9,-43 36,-29 92,-32 29,58 71,23 105,1 33,-21 69,-33 105,-44 -60,-78 38,-22 -48,-23 50,-60 119,-96 196,-68 9,-8 34,-16 43,-20 -17,83 -7,11 14,42 28,-47 22,-17 9,-64 67,-3 72,-12 147,-12 -16,24 -7,24 48,27 53,4 53,-4 81,-29 -64,-1 -1,6 -30,-32 21,5 169,-27 212,-36 45,-10 61,-1 98,-12 50,-15 9,-20 79,-38l38 61 47 -49c1,-7 6,-8 9,-12 285,-51 154,-47 216,-68l253 2c63,-8 16,-26 116,-18l253 -21c73,-15 64,7 113,19 166,40 162,-45 242,52 73,-13 36,-9 105,-5 37,2 10,-2 46,-7 111,-16 184,24 267,51 39,13 84,16 116,25 47,15 35,28 91,38 101,19 124,6 186,84z"/>
   <path class="fil2" d="M5083 5750c56,16 20,-11 48,40l45 -4c27,25 -9,14 68,26l-26 -56c41,16 41,17 70,63 22,36 22,45 13,84l23 16c4,17 9,46 15,60 16,35 7,11 27,31l101 123c11,49 0,14 15,49 2,3 8,14 10,12 1,-2 6,7 10,11l-4 25 36 6c-19,51 32,34 -24,44l73 37c23,45 2,39 49,92l28 29c-16,26 -11,-24 -12,58 81,35 56,28 79,74 20,-25 60,47 0,-46 36,23 51,33 82,71l9 46c-85,-30 -42,-22 -51,12l90 21c33,-9 11,-6 10,17 -6,88 54,-12 -25,48 -30,-58 -17,-40 -65,-65 -9,27 -10,39 -17,65l-41 3 -9 -20c-35,-12 -28,-20 -23,17l-16 0 -15 -46c4,3 10,7 12,8l51 -16c14,-13 10,-4 26,-27 -40,-29 -29,-20 -84,-12 -10,24 -32,-49 0,45 -54,-24 -26,-7 -60,-62l-38 -49 -62 -74c-2,-3 -5,-7 -8,-9 -2,-3 -5,-6 -7,-9 -3,-2 -6,-6 -8,-8 -25,-29 -7,-1 -27,-36 -29,-53 -54,-130 -99,-172 -6,-23 -3,-50 -33,-43l7 -18 65 -27c-37,-35 38,-7 -40,-32 55,6 42,-9 57,34 16,44 -26,15 26,73 21,-19 28,-17 3,-68 -1,-4 -4,-8 -6,-11 -37,-68 -38,-73 -83,-86l-77 -27 3 7 -17 -57 -41 -5c-11,-15 0,6 -7,-16 -14,-47 14,-24 -39,-55 -37,125 -3,87 10,103 62,39 21,53 75,121 6,27 13,58 23,88 8,20 10,27 21,45 17,26 9,11 27,28l77 324c2,6 5,12 7,18l-23 21 28 31c13,75 47,106 43,182l-62 83c18,31 19,31 45,50 -15,31 2,27 -27,46 140,2 -33,-45 72,-88l32 135 29 21c-49,27 -18,26 -70,14l13 171 90 -21 -10 -25c-13,113 40,186 67,264 16,43 18,33 20,57 8,74 -18,-35 -3,59 6,36 26,95 35,147 -70,37 -13,-18 -26,33 -8,36 -40,-6 20,22 -20,31 17,12 -17,30l28 14c-18,70 -20,94 -3,139l21 293c46,37 -3,-3 26,34l38 32 0 -63c49,44 11,-1 41,69 20,48 14,27 22,90l21 95c-67,-2 -18,-6 -37,22l14 59c28,-88 2,-4 35,-33 6,61 25,93 39,141 -71,19 4,34 4,34l-3 2 -31 52c-11,26 -6,6 -11,38l49 -17c4,-2 11,-4 16,-6 0,90 -2,48 14,67l36 228c18,77 37,114 49,190l41 164c13,57 45,153 40,194 -47,51 -14,4 -35,58l63 -7 10 33 12 184c7,20 56,159 55,183 28,13 -4,14 50,-6l-7 52c82,27 29,15 51,101 10,37 26,94 36,122l1 74c0,54 3,27 -14,48 -19,23 -19,9 -19,58l-55 3 -3 -112 -14 -26c-52,-86 -34,-33 -51,-124l-31 -9 -14 -48 -45 -15 -4 -23c20,-21 18,4 25,-36 3,-21 -2,-31 -5,-49l-59 -17 26 -32c-97,-110 -51,-186 -96,-274 -3,-5 -10,-21 -11,-25 -2,-4 -6,-23 -8,-29 -23,-55 17,-22 -30,-47 -5,-55 -1,-40 14,-83 -86,-43 -106,-192 -68,-264 -34,-25 -85,-56 -32,-105 63,-31 25,8 33,-42l-67 -16c-18,-9 -19,1 -32,-13 3,-105 -44,-201 -53,-316 -11,-149 -59,-119 -52,-273 -1,-67 15,-56 -17,-108l-18 -20c-2,-4 -4,-7 -7,-11 -3,-5 -9,-20 -11,-24l-13 -23c-30,-67 1,-50 -16,-123l-56 -239c-10,-46 -7,-33 -17,-66 -14,-46 -12,-7 -10,-65 -16,-58 3,-56 -42,-78 3,-76 -52,-279 -80,-348 -26,-64 12,-73 -28,-168 -26,-64 -34,-117 -32,-193l-37 -80 -8 -15c87,-23 34,11 54,-37l-62 -17c43,-68 84,-21 103,-127 -72,7 -40,-20 -50,44 -27,-19 -26,-12 -39,-43l0 82c-17,-76 -12,-47 -48,-84 -24,-53 -51,-149 -63,-205 74,-53 -10,61 16,-23 9,-28 22,-24 -13,-21 27,-34 36,-52 53,-77 -36,-9 -22,-10 -49,19 0,-47 13,-37 -31,-37l-13 -22c-6,-68 -11,-26 6,-95l-34 -20c-4,-4 -10,-16 -12,-19 -2,-4 -9,-19 -11,-23 -17,-30 -1,-10 -24,-31 -16,-157 -144,-352 -177,-495l-60 -43c-4,-18 -7,-21 -3,-40 7,-28 9,-25 18,-38l-6 88c41,-48 10,8 39,-73 3,-10 13,-37 21,-59l41 -2 37 -9 -25 44 75 22c28,-44 -16,-29 46,-11z"/>
   <path class="fil3" d="M8029 7292c-28,44 40,37 -35,36 -24,-10 7,-22 -72,-53 -8,31 -11,9 -1,49l51 95c2,-3 6,6 10,10l-14 86 43 31c1,-3 1,-7 1,-9l3 -19c1,-3 2,-10 2,-12l10 -24c22,14 42,27 67,44 9,98 -27,41 15,115 10,17 33,50 33,51l5 23c0,-1 -2,5 -3,8 -18,20 -35,-1 -72,-5l34 95c-60,-24 48,21 -26,-14 -4,-2 -10,-5 -13,-6l-34 -13c-29,119 -15,41 -45,112 -64,-16 -76,24 -109,47l-35 5c0,-33 -155,-44 -183,-52l-14 -35 -72 -3c-12,1 -45,10 -47,10 -33,0 -13,-2 -41,-12 -75,-26 -30,-2 -79,-8 -1,-56 -29,-15 -95,-40l-59 -74 -105 6c30,-94 -8,10 42,-48 17,-21 9,-2 10,-40 -50,27 -4,16 -61,0 -1,5 -2,11 -4,14 -1,2 -2,9 -4,12l-30 38c-31,8 -20,12 -28,-21l39 8 -3 -57 -19 -34c38,-54 40,-40 34,-107l55 -2c32,-1 12,3 43,-7 19,-6 94,-29 50,-15l-7 -76c-26,-31 0,2 -13,-18 -6,-9 -9,-24 -21,-44 74,-8 44,9 46,-35 4,3 9,7 12,9l36 17c68,35 23,25 52,55 21,22 -21,-1 47,25 5,-194 -110,-70 -145,-204 -75,12 -67,13 -130,-13 -21,63 -16,61 -1,149 -125,-42 -50,-6 -78,-105 -15,-56 -31,-39 -58,-78 81,38 17,4 90,-12 33,-7 65,15 89,16 57,2 24,-22 107,-17l66 14c-10,-30 -35,-73 -56,-102l39 -122c-4,4 -4,6 -2,7 49,30 15,-17 101,-29l70 -25 128 33c17,50 4,28 39,58l58 59c133,134 84,-3 113,113l94 27c45,89 -5,43 80,113z"/>
   <path class="fil4" d="M14911 9727l31 39c-69,10 -35,-10 -58,27l60 17 -16 -59 53 3 -4 1 22 45c49,16 25,7 57,28 29,35 -33,27 40,32l24 -40c4,4 19,15 22,17 3,2 10,12 12,8 3,-3 9,6 14,8 26,20 7,3 38,16 66,28 -12,-31 46,27 -41,2 -69,-12 -111,-25 6,5 13,4 16,14l50 52 -31 26c-4,2 -25,13 -30,16l25 31 -56 17 -16 -34 -68 -18c-94,-12 -46,-27 -120,-43l-28 -41 -23 1c-1,-60 12,-21 -15,-54 -95,0 -18,-9 -39,44l-31 -10c31,-37 50,-7 5,-64 -46,20 -46,-13 -27,45l-53 10c-78,4 -101,-21 -200,-13 -57,-13 -19,36 -49,-46 -67,-6 -17,-8 -38,20 -179,62 -294,13 -429,60 -33,11 -33,11 -75,11 -44,0 -57,-19 -86,14l-112 13c-39,-29 41,-6 -49,-31 -26,19 -16,-2 -25,41 -50,34 -69,13 -113,75l-104 -7 31 -59c-92,26 -24,31 -85,1 -1,89 1,31 -17,58 -45,65 -2,-31 -20,21 -13,39 -14,-13 7,23l-13 32c-7,0 -36,2 -41,3 -76,29 23,5 -94,53 -78,33 -45,64 -166,51 -14,21 1,-13 -17,32 -10,24 1,6 -12,34l-77 9c-15,4 -55,12 -65,16 -38,19 -18,3 -36,35l-16 -4 10 -53c-64,8 -24,13 -76,2l-47 -15c-1,1 -38,18 7,53 19,15 35,5 78,13l4 22 -65 12c-58,53 -25,38 -99,65 -8,5 -31,18 -35,22 -35,35 11,-27 -25,35 -19,31 -6,9 -27,24l-39 32c-69,1 -43,2 -108,33l-20 10 -176 157 -8 27c-49,33 -33,1 -75,39 -18,16 -4,8 -23,31 -5,6 -23,25 -32,34l-19 16 3 16 -33 -16c-22,-33 -16,24 -4,-140l93 1c-7,-49 12,-27 -28,-51 3,-2 27,-21 27,-22 15,-65 9,-29 -16,-47l-1 -4c-8,-101 -8,-27 20,-45 78,54 -16,21 66,52 92,33 8,-40 59,-105 2,-2 7,-6 10,-9 -100,-12 -3,4 -53,-33l24 -34c81,-3 20,5 44,-24 26,-17 21,-25 60,-45 24,-12 59,-21 92,-36l26 19c26,-11 24,-11 46,-22 89,-1 -3,1 93,24l8 -112c52,13 39,13 128,-21 -5,-49 11,-3 -21,-55 133,44 113,20 166,-1l-11 -74 52 -10 22 -36 27 -14 -10 87c84,-60 -24,-35 78,-72 -26,-47 36,-15 -38,-15 12,-10 -20,-24 52,-22l49 -9 18 -41c72,-35 81,-8 157,-65 45,-34 85,-76 146,-84 0,6 2,42 3,46 0,2 2,12 2,10 0,-2 2,5 1,13l48 18c7,-81 31,-13 -29,-75 98,18 32,11 50,-13 22,-60 -2,-3 32,-42 2,-2 5,-6 7,-9 2,-2 5,-6 7,-9l74 -21c93,-9 61,-37 140,-34l32 42c16,-32 -10,-3 29,-36l12 3 34 31 26 -59 37 -4 29 35c37,3 29,13 29,-21l250 -23c40,13 58,8 99,-26l71 20c35,41 -64,40 77,35 69,-3 42,-19 47,-22 -94,-27 -8,2 -47,-36l138 -1c30,54 -21,1 31,50 30,-8 7,0 26,-13 2,-2 18,-16 23,-19 25,2 219,54 258,88z"/>
   <path class="fil5" d="M8029 7292c51,42 29,31 104,62 59,23 61,41 68,100 52,-8 113,-16 163,-2 80,23 44,50 64,113 62,31 84,17 122,46 2,2 5,6 8,8l18 20c2,3 6,8 10,12 55,-27 7,9 49,-37 28,35 52,54 94,76 -33,15 -12,12 -47,3 -43,-11 -2,-26 -52,-3 15,21 -2,12 26,30 65,39 99,18 122,11l5 87c28,13 57,23 81,35l-33 16c-33,22 -15,-3 -33,35 41,30 28,12 90,27l33 96 -63 3c-16,42 16,30 -58,21 -40,-5 -80,-6 -119,-8 -56,-31 -13,-72 -79,-106 -32,51 -38,64 -23,120l-26 8c-22,-77 -15,-33 -33,-53l-76 3 -183 18c-53,-34 -62,-30 -135,-27 -50,-17 -68,-14 -126,-25 -88,-17 -53,-35 -121,-42 33,-23 45,-63 109,-47 30,-71 16,7 45,-112l34 13c3,1 9,4 13,6 74,35 -34,-10 26,14l-34 -95c37,4 54,25 72,5 1,-3 3,-9 3,-8l-5 -23c0,-1 -23,-34 -33,-51 -42,-74 -6,-17 -15,-115 -25,-17 -45,-30 -67,-44l-10 24c0,2 -1,9 -2,12l-3 19c0,2 0,6 -1,9l-43 -31 14 -86c-4,-4 -8,-13 -10,-10l-51 -95c-10,-40 -7,-18 1,-49 79,31 48,43 72,53 75,1 7,8 35,-36z"/>
   <path class="fil6" d="M6017 6852l7 43 48 24 2 89 -17 24 48 28c12,-21 38,48 0,-41 46,9 38,28 51,55l-20 38c26,30 -8,1 37,33 24,17 2,9 44,22 20,31 -34,28 41,23 -59,18 2,-19 -29,25 23,69 -4,42 75,65 -33,-53 13,-14 -43,-49l7 -58c46,21 14,-3 48,29 39,36 -26,-34 15,17 15,19 9,15 22,35 -54,-1 -4,-25 -34,9l43 33 3 -37c20,15 15,0 30,27 7,13 5,11 6,27 20,59 24,27 -2,71 22,-5 39,-13 41,-14 15,-3 -8,-5 51,-6 62,31 50,42 93,77 60,49 92,27 109,79 -28,33 -18,8 -22,56l143 16c81,15 57,53 161,67 -39,44 55,30 -34,32 71,36 27,12 50,-7l83 7c8,33 -3,29 28,21 4,4 17,20 18,22 1,2 5,12 6,10 1,-3 4,6 6,10 -6,93 7,54 -19,133 21,28 48,53 61,86 -70,-15 -16,12 -64,-33 -35,-35 -206,-108 -258,-111l14 -33c-76,-16 -64,-6 -104,-50l-6 24 -84 -22c18,-63 -25,-19 22,-60l-56 16c-60,-2 -17,-9 -75,-22l-47 -44c-45,-24 -38,-40 -98,-76l6 -68c-68,-34 -20,-3 -56,-40 -20,19 -60,-47 -7,32 -42,-13 -9,10 -36,-15 -18,-17 -16,-20 -29,-47 10,-10 68,4 -76,-99 -18,18 -47,-56 -7,34 -28,-17 -10,-3 -43,-30 -17,-15 -16,-16 -30,-27 -21,-25 -13,-26 -16,-34l3 -41c-70,-5 -44,11 -65,-52 -26,24 -51,-34 -13,36 -36,-27 -30,1 -45,-62l46 11c-12,-37 -38,-51 -58,-80 -26,-38 0,1 -21,-44 -42,-93 34,47 -9,-24l-15 -18c-58,-62 -89,-127 -94,-137l-11 -24c-27,16 0,-25 -43,38 -17,-50 34,-42 -45,-37l-38 -57 0 -26 3 -9 41 -3c7,-26 8,-38 17,-65 48,25 35,7 65,65 79,-60 19,40 25,-48 23,24 11,-6 24,33 0,0 5,37 5,41 128,33 34,21 121,87z"/>
   <path class="fil7" d="M9895 11807l-28 42 67 -27c-84,95 -117,11 -199,149l-49 -14c-64,77 -72,28 -123,101l-107 -10c-54,48 -67,28 -111,69 -13,6 -15,7 -26,12 -1,1 -8,8 -10,5 -1,-4 -7,3 -10,5l9 21c-38,7 -61,4 -94,13 -31,9 -32,21 -63,34 -74,31 -74,-7 -147,3 22,-47 9,-4 13,-63 -6,1 -14,-3 -17,3 -3,6 -12,2 -16,3 -23,5 -23,15 -103,6l-33 52c-79,-30 -82,-2 -70,57l-46 0 -26 53c-70,-39 -8,-22 -72,-35 3,-77 0,-51 -16,-74l-41 23c-33,12 -44,7 -84,6l48 48 -43 5c-53,2 -37,-4 -65,-7 -34,-3 -19,2 -33,0 -22,-3 -19,-3 -30,-9l58 -18c-4,-1 -9,-9 -12,-6 -2,4 -9,-5 -12,-7 -69,-27 -70,-18 -104,-5l23 26c2,2 8,10 12,14l-71 -9 -5 20c-72,4 -10,4 -36,-18l33 -5c-21,-32 27,-14 -37,-35 -89,-29 -114,-49 -172,-55l26 -11 45 -8c54,-40 41,-13 98,-77l-1 -26 46 0 -1 3 46 40c-49,13 -15,-1 -40,54l114 -38c9,34 -11,22 90,70l28 -68 69 -14 60 70c2,-3 5,7 8,11 39,-11 43,-8 73,-27 74,-45 125,-58 206,-34 114,-107 51,-22 134,-73 -37,-21 -34,16 -55,-24l93 -22 20 59 31 -76c1,-6 5,-7 8,-11l68 -9c54,-14 88,-8 128,14l115 -30 -36 -71c76,14 26,-5 91,-11l105 -10c40,60 -52,39 83,51l-44 -84 4 -63 23 -1 60 9c-4,22 -4,30 45,80l108 -46z"/>
   <path class="fil8" d="M8223 12275c26,22 -36,22 36,18l5 -20 71 9 35 -4c11,6 8,6 30,9 14,2 -1,-3 33,0 28,3 12,9 65,7l88 4c-53,119 9,15 -86,81 -10,72 13,128 48,185l34 103c-189,-19 -145,-16 -175,-58 18,-12 -22,-23 85,2l-21 -81c-52,38 -42,48 -132,65l-29 2c-101,8 -66,-2 -114,-31l9 70c59,6 77,-9 127,-21 -24,75 -27,22 -40,92 2,1 31,9 32,9 3,1 8,3 12,5l96 37 0 79c-96,2 -183,-1 -253,-80 13,-43 -10,-7 29,-38l29 -17c-144,23 -64,-29 -144,-104 -115,19 6,3 -82,39 -88,-71 -109,-113 -110,-258l82 -5c32,50 21,45 44,102l57 -8c5,-44 7,-3 -8,-58 48,0 61,-7 93,-31 -60,-39 -37,-3 -64,-67l42 -7c2,0 7,-1 9,-1 1,0 6,-1 9,-2l10 -36 48 9z"/>
   <path class="fil9" d="M11534 11162c-56,19 -33,32 -110,32l-12 68 -9 4c-12,-9 4,-16 -57,-29l-135 92c-1,-3 -6,3 -8,4 -48,14 -19,-26 -46,38l-48 -14c-53,36 -30,26 -36,50 -5,0 -51,1 -56,2 -41,7 -21,-2 -42,20l2 -6 -47 6 -11 48 -7 0c-27,-31 -77,-13 -111,-4l-23 56 -46 2c35,-44 -72,-37 50,-37 -30,-17 3,-12 -51,-10 -6,0 -26,7 -58,4 34,78 -11,47 56,70l-51 41c-86,36 27,-37 -219,72l-12 -44c-79,24 -65,6 -71,82l-39 -2 7 9c-45,5 -79,4 -119,24 -51,25 16,5 -62,30 -68,22 -115,34 -181,50 19,-31 9,-17 31,-37 78,-74 -6,27 30,-27 -53,-47 -12,-5 -94,-22 -19,50 -8,30 -41,58l11 -80c-5,-15 -6,-13 -14,-38l61 34c16,-57 34,-56 35,-57l21 -20 42 7c-16,64 0,-2 -54,45 22,40 -10,11 38,41 31,-38 67,-80 150,-93l7 -47c69,13 -36,13 73,25l49 -97c70,-22 86,-26 129,-83l52 11c11,30 -8,55 103,44 -1,-2 -18,-44 -18,-45l-8 -35 43 -29c21,-9 1,-1 31,-3 56,26 10,-12 38,61 75,-14 23,12 70,-35 -39,-91 -32,12 -46,-68 42,-37 80,-46 132,-40l29 -2c-2,45 -5,7 4,43l82 -25 49 38c104,-38 -22,-57 118,-29l63 -102c12,16 2,17 4,25 7,38 -8,2 12,30l52 -88c16,1 61,5 71,8 38,13 26,11 48,39l5 -44c2,-1 34,-16 40,-18l28 -15c-1,-18 0,-22 2,-32 1,-3 11,-15 11,-22 1,-7 6,-9 8,-13l55 42c1,34 -20,-14 0,37z"/>
   <path class="fil10" d="M7447 6914c-86,12 -52,59 -101,29 -2,-1 -2,-3 2,-7l-39 122c21,29 46,72 56,102l-66 -14c-83,-5 -50,19 -107,17 -24,-1 -56,-23 -89,-16 -73,16 -9,50 -90,12 27,39 43,22 58,78 28,99 -47,63 78,105 -15,-88 -20,-86 1,-149 63,26 55,25 130,13 35,134 150,10 145,204 -68,-26 -26,-3 -47,-25 -29,-30 16,-20 -52,-55l-36 -17c-3,-2 -8,-6 -12,-9 -2,44 28,27 -46,35 12,20 15,35 21,44 13,20 -13,-13 13,18l7 76c44,-14 -31,9 -50,15 -31,10 -11,6 -43,7l-55 2c6,67 4,53 -34,107l19 34c-73,-71 -134,-288 -141,-301 -25,-44 -47,-38 -67,-93l42 -67c40,-72 -17,-63 46,-164 43,25 34,34 80,44 -17,-40 -54,-75 -80,-108 4,-3 9,-10 11,-7 7,14 53,-73 116,-33l39 -48c34,38 22,25 66,7l41 42c6,-4 11,-8 12,-6 1,3 7,-3 8,-3l57 -8c138,2 81,-14 107,17z"/>
   <path class="fil1" d="M15755 10291l12 31 -26 24c11,5 -22,41 49,2 81,42 55,54 112,108 2,2 22,18 27,22 7,6 18,17 26,24 59,52 31,42 90,77l-63 38c77,66 78,99 125,143l-74 -17c8,35 -22,33 30,42l27 -7c3,-6 11,-4 15,-7l-7 59c57,-28 11,-10 68,-27l43 40 56 -3 -5 38 -7 63 22 -7 43 82c49,-25 8,16 21,-35 9,11 12,12 23,32 2,2 7,15 11,22l0 35c-55,14 -42,-23 -19,66l-46 -19c-26,-5 2,-6 -17,3 -2,16 -7,10 12,36 1,0 30,31 35,36 28,-18 26,-42 35,-73l91 109c62,0 27,4 53,-17l34 15c-129,95 -82,88 -69,133 1,61 -23,44 -31,44l-15 -67c-2,-4 -4,-8 -6,-12 -14,-33 -17,-55 -42,-62 -101,-26 -13,-13 -50,23 -12,-11 -13,-8 -27,-26 -9,-11 -8,-13 -18,-29 -38,-61 4,-28 -52,-54l-14 -39 1 -53 -43 -20c-52,-24 -28,-17 -43,-31l38 -11 -38 -9c4,-50 -13,-35 -48,-31l-37 -54c-66,-29 -4,-18 -83,-52l-10 -54c35,33 23,-40 37,36l-3 -37c7,-13 19,37 17,-49 -1,-59 -2,-17 -21,-49l-30 49 -32 -44 -10 41 -20 -15c2,-67 7,-16 -54,-37l19 -60c-11,-48 -6,-31 -20,-64l-70 13c-53,-23 -15,-2 -31,-37 46,-9 17,-29 -16,-58l2 47 -73 -80c-1,-48 5,-42 8,-50 9,-27 4,29 16,-65l-66 43 -38 -15 -32 -30 38 -9c29,-57 2,-39 35,-66l59 -30c5,-9 14,-5 21,-8l-9 103c64,-22 0,11 37,-23l27 -37z"/>
   <path class="fil11" d="M8963 8055l78 0 -6 40 93 9 -6 56c-56,44 -31,-5 -55,71 6,1 27,3 31,5l46 30c-58,0 -62,-2 -98,33l-38 -10c-28,-68 -24,-12 -26,-92l-120 -35c-55,58 15,17 -79,98 -37,27 -4,20 -57,17l-42 -44c-17,23 -25,34 -43,55 -18,-8 -51,-18 -65,-24l-113 2c-102,-11 23,18 -36,-7 -5,-2 -24,-12 -29,-16l-59 5c35,-32 14,-33 43,-33 -26,-28 -19,-18 -20,-34 0,-3 1,-9 1,-12l28 -68c1,-8 6,-10 9,-14l-33 -1c3,0 55,-13 56,-13 47,-18 52,31 49,-34l81 26 26 -8c37,9 78,25 102,-14 39,2 79,3 119,8 74,9 42,21 58,-21l63 -3 -16 28 31 57 27 -57z"/>
   <path class="fil12" d="M7313 7804l-3 65c39,-9 43,-18 98,-25 49,6 4,-18 79,8 28,10 8,12 41,12 2,0 35,-9 47,-10l31 60c49,-11 7,-4 55,-22 28,8 183,19 183,52l-107 -7 36 63c-43,29 -36,17 -58,61l-90 19c-4,2 -8,6 -12,7 -43,17 -6,11 -55,3l-3 25 -86 -67 -99 4c28,-33 -9,-23 47,-29 57,-7 20,3 51,7l98 2c-42,-89 7,-35 -88,-39 -127,-5 -134,-16 -148,56 -32,-16 -19,-6 -55,-16l5 4 -80 -14 46 -61 -72 11c-13,-33 -40,-58 -61,-86 26,-79 13,-40 19,-133 21,0 53,3 75,0 64,-9 27,12 47,-24l59 74z"/>
   <path class="fil6" d="M8126 8006l32 78 50 -64 53 13 183 -18c23,33 -33,23 28,24 3,65 -2,16 -49,34 -1,0 -53,13 -56,13l-44 -8c-26,111 25,37 -67,64 60,11 35,1 68,41 -62,44 -125,23 -180,25l-183 -16 -85 -49 49 -8c-108,-54 -62,-20 -112,-94l-94 65c-3,2 -8,7 -11,11l34 7 -25 26c-64,-61 -40,-27 -134,-40l-28 5 3 -25c49,8 12,14 55,-3 4,-1 8,-5 12,-7l90 -19c22,-44 15,-32 58,-61l-36 -63 107 7 35 -5c68,7 33,25 121,42 58,11 76,8 126,25z"/>
   <path class="fil13" d="M14188 9651l-250 23 -58 -14 -37 4c-5,3 -22,12 -26,14 -5,2 -12,5 -17,7 -5,2 -12,4 -17,7l-12 -3 -61 -6c-79,-3 -47,25 -140,34l5 -34c0,0 -35,-38 -28,-73 12,-64 -1,-13 64,-54 2,-2 6,-4 9,-6 8,-6 65,-49 66,-50 32,-36 10,-42 53,-77 65,-52 115,-12 230,60l121 50c2,5 6,15 8,17l74 65c47,0 1,-6 16,36z"/>
   <path class="fil14" d="M7335 11625l185 150c2,-3 6,6 10,8l-4 24 -32 31c25,22 -34,26 46,14l-5 33c52,13 34,5 65,35l86 -8 19 34c-52,22 -19,1 -58,57 -23,-15 -9,-11 -41,-10l27 60c-148,-29 -34,-17 -76,23l-13 -20 -24 -57c-40,-52 -29,-1 -94,-103 -63,7 -8,-5 -37,28l-107 -34 66 7c-22,-35 -7,-24 -39,-50 -5,-3 -32,-16 -42,-22 -34,-19 -51,-33 -78,-47l0 14c-56,-20 -35,-7 -70,-46 48,-1 14,16 40,-11 -24,-18 -32,-28 -60,-52 -73,-63 -67,-105 -82,-35 -34,-19 -18,25 -32,-42l16 -25c46,17 31,-23 40,20l33 -37c37,23 -51,7 25,5l68 2c5,1 33,13 38,15 -27,-110 -32,-40 6,-75 6,85 -30,79 -55,132 -22,48 18,43 50,17 40,29 29,31 73,28 34,-30 48,19 14,-54l42 -9z"/>
   <path class="fil15" d="M15240 10130l-4 3 126 98 4 18 9 45 35 -8 43 45 66 -2c-9,31 -13,32 28,32l32 30 80 87 73 80c-6,34 -4,11 14,11 16,35 -22,14 31,37l0 17c94,28 -13,-11 29,35l-62 6c-71,22 37,47 -91,27 -5,-107 49,-56 14,-116 -68,64 6,54 -119,83 -3,-118 -9,-32 70,-82l-117 -101 -37 34c-2,2 -7,7 -11,10 -4,-2 -11,-11 -13,-7 -2,4 -10,-5 -13,-7 -54,-30 -10,-14 -104,-25l68 -52c-7,-34 -9,-47 -28,-73 -44,-61 -2,14 -52,-49 -48,13 -41,16 -89,-9 -7,-72 -51,-33 41,-65 -12,-21 -2,-14 -22,-26l-65 -27c-2,0 44,72 -17,-3 -49,-59 -13,-39 20,-59l61 13z"/>
   <path class="fil16" d="M11479 11083c-2,4 -7,6 -8,13 0,7 -10,19 -11,22 -2,10 -3,14 -2,32l-28 15c-6,2 -38,17 -40,18l-5 44c-22,-28 -10,-26 -48,-39 -10,-3 -55,-7 -71,-8l-52 88c-20,-28 -5,8 -12,-30 -2,-8 8,-9 -4,-25l-63 102c-140,-28 -14,-9 -118,29l-49 -38 -82 25c-9,-36 -6,2 -4,-43l-29 2 12 -18c31,14 34,16 54,34l32 -74 43 18c16,5 12,6 35,6 -34,-38 -19,-2 -37,-69 38,-14 67,-22 110,-31 75,-14 66,-23 105,-55l82 2c77,10 31,5 79,37l-6 -88c145,35 45,25 87,-7 10,-16 18,-27 21,-59l33 0 -24 97z"/>
   <path class="fil17" d="M9145 11978c-3,4 -7,5 -8,11l-31 76 -20 -59 -93 22c21,40 18,3 55,24 -83,51 -20,-34 -134,73 -81,-24 -132,-11 -206,34 -30,19 -34,16 -73,27 -3,-4 -6,-14 -8,-11l-60 -70 -69 14 -28 68c-101,-48 -81,-36 -90,-70l-114 38c25,-55 -9,-41 40,-54l-46 -40c61,12 81,28 139,19 113,-18 39,-4 125,6l66 -9 19 27 35 -57 107 33c24,-15 16,-10 35,-26 3,-2 8,-4 10,-11 2,-6 6,-7 9,-11l-6 1 57 1c28,25 36,20 61,-2l28 -29 -2 -48 -11 -10c66,14 29,16 110,28 30,5 56,10 103,5z"/>
   <path class="fil18" d="M7879 11979l36 23c-59,65 -37,3 -74,123 67,-24 94,-28 170,-39 13,59 13,37 62,83l-26 11 13 44 -27 -9c-20,17 -20,-38 -14,44 -6,-4 -18,-15 -21,-9 -2,4 -12,-8 -28,-20l-43 -44 -192 -27 -74 -62 -80 -10 101 -33 -35 -51c66,-7 16,18 66,-28l51 37c58,-78 7,-27 97,-57l18 24z"/>
   <path class="fil19" d="M15330 11412l58 -61 89 -1 42 -90c197,-4 23,6 148,44 19,-19 28,35 33,-69l58 -4c-31,26 26,10 -41,33l83 33c-11,26 -24,48 -36,69 31,17 35,15 39,52 -170,24 -30,-47 -251,29 -26,-17 -37,-26 -66,-43l-66 39c-21,-16 -38,-29 -53,-43l-37 12z"/>
   <path class="fil4" d="M11954 10904c-75,-4 -14,-5 -28,18 -3,3 -8,3 -9,9 -1,7 -13,16 -16,19 -9,11 -10,16 -28,30 -44,0 -30,1 -40,50 -31,0 -73,-7 -105,7 -48,19 -17,18 -37,73l-109 31 -19 67 -29 -46c-20,-51 1,-3 0,-37l-55 -42 24 -97 7 -8c47,72 -36,-76 12,28 15,32 -3,14 22,36 49,46 55,43 130,59l-30 -51c-15,-25 -11,-3 -17,-37l69 24c12,-39 8,-22 22,-64 -31,-56 -10,-41 -62,-50l18 -52 18 -5c71,34 62,61 142,70 -20,-60 -20,-41 -53,-81 13,-13 24,-27 38,-43 38,-4 139,30 135,92z"/>
   <path class="fil15" d="M11888 10689l-7 32 -75 34 -36 11c-17,18 -32,31 -42,42 -43,46 -13,-3 -36,58l-18 5c-51,15 -60,22 -104,37l-11 -135 98 -99c30,-21 7,-3 32,-17 4,-1 8,-3 12,-5l21 -12c43,-18 5,-6 59,-4 41,-50 0,-26 64,-50 0,53 -7,35 23,66 19,20 16,3 20,37z"/>
   <path class="fil1" d="M15410 10022c-15,15 -55,7 -11,48 19,18 28,9 54,7 15,35 -21,17 44,35 0,2 0,6 0,8 1,1 2,7 2,8 0,2 6,14 9,19l11 45c95,14 21,9 38,-21 30,63 -22,-2 25,28 -2,4 -5,10 -6,12l10 54c5,89 16,-5 -83,7l-27 -47c-3,-3 -9,-7 -11,-9 -2,-3 -8,-6 -12,-9 -64,45 -15,31 -87,42l-4 -18 -73 -39 11 -33c4,-4 9,-9 12,-13 2,-3 8,-8 10,-12 2,-4 6,-8 8,-12 10,-24 5,-14 4,-34l-12 -69c-39,-4 -63,0 -74,-48l15 -65c58,22 106,58 147,116z"/>
   <path class="fil13" d="M12775 10327l-4 -22 28 0 16 4 42 -13c57,67 30,51 107,65 -8,151 -26,123 -83,126 9,83 -46,131 -86,139 -112,20 -84,-32 -85,-34 10,-58 -15,-36 33,-57 48,-22 30,-1 32,25 -41,-35 -19,6 -33,-66l29 -16c0,-1 28,-11 33,-13l-14 -70c-72,-26 -12,18 -64,-32 3,1 -5,71 49,-36z"/>
   <path class="fil20" d="M10459 11671c246,-109 133,-36 219,-72l51 -41c10,-4 24,25 3,-27l46 -2c66,-18 85,-58 134,-52l7 0 36 -15 22 -39 -2 6c28,33 8,-17 35,65 -15,10 -5,8 -40,20 -25,8 -76,4 -109,52 -21,31 -14,35 -18,79 -5,-1 -11,-4 -15,-5l-30 -12c-64,-19 -56,-9 -129,17 -62,22 -65,-2 -106,32 8,28 54,86 -22,91 -25,2 -18,-1 -46,-15 -61,-29 -39,-14 -53,-46 75,0 2,10 17,-36z"/>
   <path class="fil9" d="M12027 10880c-18,34 -29,22 -73,24 4,-62 -97,-96 -135,-92l-46 -6 33 -51 75 -34 7 -32 71 -15c59,-47 26,13 44,-70l63 1c25,18 31,-18 16,47 0,1 -24,20 -27,22 40,24 21,2 28,51l-93 -1c-12,164 -18,107 4,140l33 16z"/>
   <path class="fil19" d="M11123 11674c-101,103 -51,38 -84,32 -50,-10 -32,42 -28,95l-126 -60c8,-66 14,-47 48,-99l-72 -33c28,-36 -25,-7 29,-32 46,-21 100,-1 144,2l27 -33c31,47 56,67 62,128z"/>
   <path class="fil6" d="M6774 11159l-33 7c4,4 15,16 18,19 65,69 49,24 101,79 45,0 37,10 20,-32l45 47c-22,32 -6,18 -39,44 -33,25 9,19 -63,24l-58 82 -52 -85 12 -63c-36,-46 -14,10 -37,-45 -13,-35 28,-1 -15,-47l12 -43c72,-17 1,-9 65,-21l24 34z"/>
   <path class="fil13" d="M11172 11383l22 -41c2,-2 6,-6 9,-9 43,5 106,7 154,9 -24,-79 -25,-51 -11,-86l57 10 9 -4 28 9 79 1c-25,50 -22,12 -11,44l29 60c-151,-5 -92,-38 -175,51 -25,-8 -21,-6 -43,-13 -44,-15 -58,-33 -83,-10 -3,2 -10,13 -14,16 -1,0 3,17 -57,8 -5,-27 -39,41 7,-45z"/>
   <path class="fil21" d="M9509 8176l-37 -10c46,-55 23,-37 98,-44l28 -1c5,-1 19,-5 24,-6 130,-27 141,-32 179,-93 50,58 23,15 198,-3 107,-11 134,-13 182,-54l22 22c-24,41 -79,47 -139,64l-555 125z"/>
   <path class="fil22" d="M6668 11038l30 38 -13 70 -12 43c43,46 2,12 15,47 23,55 1,-1 37,45l-12 63c-5,-3 -10,-13 -12,-10 -2,4 -9,-7 -11,-10l-32 -26c-41,-28 -8,8 -50,-31 1,-1 104,-18 -14,-61l-25 -17c-59,-20 18,24 -37,-9 -42,-26 3,16 -32,-30l43 0c-34,-26 -24,-7 -21,-53 94,30 50,17 64,4 -22,-19 -13,-7 -12,-39 23,-37 20,-17 7,-60l-16 3 28 1c28,39 20,27 75,32z"/>
   <path class="fil23" d="M6411 10666l-43 -5 -22 48 43 42 32 4 -4 -47c48,23 23,10 36,86l-32 19c56,23 34,9 47,41 46,110 -13,92 -18,98 -67,-43 -4,18 -30,-29l-43 -98c-2,-4 -6,-10 -9,-14l-17 28c-40,-17 -25,18 -34,-45 61,13 4,25 46,-5l-62 -123 -38 8 0 -33 55 -3c0,-49 0,-35 19,-58 17,-21 14,6 14,-48l30 8c12,53 19,62 30,126z"/>
   <path class="fil24" d="M7074 11436c127,-2 55,38 132,76l5 -1c-38,35 -33,-35 -6,75 -5,-2 -33,-14 -38,-15l-68 -2c-76,2 12,18 -25,-5l-33 37c-9,-43 6,-3 -40,-20l-16 25c-12,-46 2,-11 -26,-49l13 -79c2,-2 5,-3 7,-4l56 -66c1,-7 5,-8 7,-12 -1,59 -19,54 32,40z"/>
   <path class="fil20" d="M9401 11882l-7 44c-57,-9 -36,-11 -97,1 -55,10 -67,1 -84,42l-68 9c-47,5 -73,0 -103,-5 -81,-12 -44,-14 -110,-28 0,-90 -7,-4 129,-14 49,-4 18,-8 57,1 70,15 33,28 113,-20 -2,1 -9,-6 -11,-3 -2,4 -17,-7 -22,-15 -28,-47 -17,3 -3,-54l70 37c-25,-69 -13,-37 -6,-53 44,17 60,13 102,-4l9 68c-14,-56 5,-25 37,-39 4,26 20,30 -6,33z"/>
   <path class="fil24" d="M8073 12011l-13 24 53 74c47,-6 44,-11 62,-29l41 4c-57,64 -44,37 -98,77l-45 8c-49,-46 -49,-24 -62,-83 -76,11 -103,15 -170,39 37,-120 15,-58 74,-123l-36 -23c93,7 15,-4 71,17l58 23c2,44 -3,7 65,-8z"/>
   <path class="fil25" d="M5762 8112l-20 40 31 30 3 167 0 63 -38 -32c-29,-37 20,3 -26,-34l-21 -293c-17,-45 -15,-69 3,-139 66,57 24,30 38,100 6,31 24,52 30,98z"/>
   <path class="fil26" d="M15188 6520c-105,22 -100,-1 -184,-19 -118,-25 -45,43 -175,-29 -68,2 -131,43 -197,18l-33 -46 48 19 43 9c80,-37 48,-66 155,-30l39 13c87,21 2,7 76,4 101,-5 64,31 161,17 18,-3 25,-56 108,38l-41 6z"/>
   <path class="fil20" d="M14911 9932c74,16 26,31 120,43 21,23 -15,2 36,35 44,29 6,8 48,17l0 17 -5 57c-105,-27 -65,-39 -102,-58 -72,-38 -56,26 -96,-57l-48 49 -9 -81c-169,4 -137,-40 -157,-67l122 33 25 12 66 0z"/>
   <path class="fil7" d="M15755 10291l-27 37c-37,34 27,1 -37,23l9 -103c-7,3 -16,-1 -21,8l-59 30c-33,27 -6,9 -35,66l-38 9c-41,0 -37,-1 -28,-32l-33 -14c-42,3 19,-12 -49,10l7 -61c-71,-12 -5,-9 -34,22l-35 8 -9 -45c72,-11 23,3 87,-42 4,3 10,6 12,9 2,2 8,6 11,9l27 47c99,-12 88,82 83,-7 3,-50 -6,-19 25,-32 -2,39 -3,26 7,40l12 -22c7,-46 18,9 -19,-19l2 -35 53 5c14,62 51,67 89,89z"/>
   <path class="fil19" d="M8900 12785c-20,45 -31,56 -94,48 -65,-9 -32,-3 -83,-43 -23,116 12,45 19,121 -37,-6 -48,-15 -86,-58 -57,51 -5,48 -84,66 22,-101 31,-64 92,-114 27,-43 9,31 1,-15 0,-1 -1,-6 -2,-8l-29 -67c-3,-3 -7,-9 -10,-14 63,-18 8,14 28,-33 45,37 30,-3 25,82 132,-3 7,5 111,35 25,7 81,4 112,0z"/>
   <path class="fil2" d="M15300 10159c1,-39 -17,-25 -64,-26l4 -3c-13,-62 -8,-8 2,-78l-34 -7 -21 -2 -16 -33 -25 -31c5,-3 26,-14 30,-16l31 -26 -50 -52c-3,-10 -10,-9 -16,-14 42,13 70,27 111,25l11 10 -15 65c11,48 35,44 74,48l12 69c1,20 6,10 -4,34 -2,4 -6,8 -8,12 -2,4 -8,9 -10,12 -3,4 -8,9 -12,13z"/>
   <path class="fil27" d="M6932 11247c27,91 50,47 6,137 57,-3 51,-9 105,-5l-1 17c-2,4 -6,5 -7,12l-56 66c-2,1 -5,2 -7,4l-13 79c-66,-31 -20,-47 -6,-122 -71,-22 -27,-11 -71,-43l-59 -45c72,-5 30,1 63,-24 33,-26 17,-12 39,-44l-45 -47 -14 -18c57,10 49,1 66,33z"/>
   <path class="fil28" d="M6959 11557c28,38 14,3 26,49l-55 -2c-23,-38 -22,-36 -37,-69 30,-23 26,18 17,-53l-27 31c-45,-12 -21,3 -62,-28l-56 -56 58 -82 59 45c44,32 0,21 71,43 -14,75 -60,91 6,122z"/>
   <path class="fil29" d="M8827 11967l-28 66 6 -1 -71 -46 17 94 -107 -33 -35 57 -19 -27 -66 9c3,-4 8,-16 10,-12 2,3 13,-13 21,-21 72,-71 22,-72 89,-94 96,-31 38,38 183,8z"/>
   <path class="fil15" d="M10456 11429c-43,57 -59,61 -129,83 -40,13 -50,16 -104,23 10,-33 23,-75 -8,-103 88,-13 10,-12 169,-45 22,84 -17,42 72,42z"/>
   <path class="fil30" d="M9133 12852c-44,25 -44,17 -104,18 -16,-33 -17,-67 -58,-47 -50,24 -11,-4 -22,45 -2,10 -3,38 -10,60 -69,17 -81,14 -138,-24 25,-23 -8,-4 35,-30l114 -48c-12,-64 12,-24 -52,-44 27,-18 -49,-32 66,-26 58,4 67,64 82,90l87 6z"/>
   <path class="fil8" d="M10514 12440c0,42 -52,35 -93,36 15,42 13,32 5,46 -27,-13 -60,-26 -82,-37 -33,22 -35,17 -59,27 49,-90 35,9 38,-90 79,0 76,10 108,-48 -52,-10 -38,16 -77,16l6 -75c86,14 41,4 81,65 37,58 42,52 73,60z"/>
   <path class="fil31" d="M9004 12210c-61,19 -123,42 -174,87l-52 -29c-12,-59 -9,-87 70,-57l33 -52c80,9 80,-1 103,-6 4,-1 13,3 16,-3 3,-6 11,-2 17,-3 -4,59 9,16 -13,63z"/>
   <path class="fil32" d="M9008 8289c-34,-4 -19,-5 -61,9 37,-81 13,-20 0,-35l-10 40c-85,-14 -64,12 -99,-42l-55 -1c94,-81 24,-40 79,-98l120 35c2,80 -2,24 26,92z"/>
   <path class="fil27" d="M9908 11792l-13 15 -108 46c-49,-50 -49,-58 -45,-80l-60 -9c0,-42 23,-26 76,-29 15,15 -4,40 50,9 54,-6 48,16 80,-55l17 -15c8,25 9,23 14,38l-11 80z"/>
   <path class="fil33" d="M16623 7157l14 42 26 2 8 47 -157 42 8 -88c0,-50 41,-14 -12,-25l-5 -76 36 3c14,33 -15,12 35,40 44,24 14,7 47,13z"/>
   <path class="fil34" d="M12281 11215l1 82c-73,-24 -47,-39 -105,-54l-43 58c-25,38 1,-2 -17,26 -89,-14 -65,-10 -113,-62 65,-48 10,33 156,-53 76,-45 121,3 121,3z"/>
   <path class="fil35" d="M12560 10231l-29 1c36,-43 -9,-3 31,-30 17,-12 35,-18 49,-25 6,88 30,-1 34,-19l44 -27c4,-2 8,-4 11,-6 5,-3 15,-12 19,-15 56,-37 23,-19 103,-30l11 74c-53,21 -33,45 -166,1 32,52 16,6 21,55 -89,34 -76,34 -128,21z"/>
   <path class="fil36" d="M7330 8049l40 3 99 -4c21,51 11,63 79,82 -22,35 -61,20 -112,20l-32 -66c-46,1 -47,-7 -83,18 -119,80 -53,31 -74,21 -17,-71 -26,-16 41,-55l-13 -35c36,10 23,0 55,16z"/>
   <path class="fil27" d="M11718 10973c-71,4 -65,9 -126,16l-17 59 -31 -6c-25,-22 -7,-4 -22,-36 -48,-104 35,44 -12,-28l35 -48 25 3 0 -25c44,-15 53,-22 104,-37l-18 52c52,9 31,-6 62,50z"/>
   <path class="fil21" d="M10714 7650c-37,13 -181,52 -196,79 -20,37 -188,52 -191,51 -12,-8 -29,24 0,-23 73,-35 109,-46 193,-73 53,-18 21,-19 88,-37 68,-19 48,-26 112,-42l-6 45z"/>
   <path class="fil37" d="M6004 7149l-26 -3 -13 -45c-8,-26 -2,-27 -22,-53 -28,-37 15,-1 -36,-23 -30,-32 -20,-44 -48,-75 -11,-12 -43,-37 -62,-58l2 -21c43,-63 16,-22 43,-38l11 24c5,10 36,75 94,137l15 18c43,71 -33,-69 9,24 21,45 -5,6 21,44 20,29 46,43 58,80l-46 -11z"/>
   <path class="fil38" d="M12633 11124c56,-2 22,-10 25,42 -61,38 -41,4 -113,22 -43,-46 -51,-36 -63,-89 3,-2 8,-8 9,-5l19 -12c56,-31 56,-31 108,-13l15 55z"/>
   <path class="fil39" d="M12058 10560c-26,14 -46,27 -81,37l-18 77 -71 15c-4,-34 -1,-17 -20,-37 -30,-31 -23,-13 -23,-66 46,-31 0,-11 59,-36l34 51c36,-61 38,-63 98,-56l32 -35c-17,40 -9,14 -10,50z"/>
   <path class="fil40" d="M7335 11625l-42 9c34,73 20,24 -14,54 -44,3 -33,1 -73,-28 -32,26 -72,31 -50,-17 25,-53 61,-47 55,-132l-5 1c37,30 2,0 33,30 21,21 8,11 33,33 19,16 45,35 63,50z"/>
   <path class="fil41" d="M15432 10568c-52,11 -33,3 -67,1 -22,-2 -85,7 -131,-34 -56,-49 -16,7 -33,-66l177 27c40,18 43,35 54,72z"/>
   <path class="fil42" d="M9213 8057l25 62c1,6 -5,35 -5,57l34 18 -57 7 -33 -8 -1 -55c-28,-17 -10,0 -48,-34l-93 -9 6 -40c8,-13 -30,-19 33,-9 25,28 103,13 139,11z"/>
   <path class="fil25" d="M6270 10183c-54,20 -22,19 -50,6 1,-24 -48,-163 -55,-183l-12 -184c30,29 44,146 51,176 11,41 34,62 45,91 5,12 21,88 21,94z"/>
   <path class="fil30" d="M16142 11033c15,14 -9,7 43,31 13,49 5,42 42,73l14 39 -35 -17c-3,85 14,35 -34,57l-14 -82 -67 -13c-3,-96 16,-35 -34,-55l38 -28c1,-1 4,-2 6,-3l-7 -33c4,3 22,16 25,18 3,2 10,10 12,7 2,-3 7,4 11,6z"/>
   <path class="fil18" d="M12065 10601l-7 -41c1,-36 -7,-10 10,-50 36,-1 46,-9 67,-33 4,-3 9,-7 12,-10 3,-2 9,-7 12,-10 3,-2 8,-7 11,-10l21 -20 -24 34c50,37 -47,21 53,33 -3,3 -8,7 -10,9 -51,65 33,138 -59,105 -82,-31 12,2 -66,-52 -28,18 -28,-56 -20,45z"/>
   <path class="fil43" d="M6527 10917l4 47 -95 15c-22,-14 -7,1 -28,-21 0,0 -25,-33 -26,-33 -18,-31 -31,-63 -31,-86l17 -28c3,4 7,10 9,14l43 98c26,47 -37,-14 30,29 5,-6 64,12 18,-98 -13,-32 9,-18 -47,-41l32 -19c58,-7 41,71 74,123z"/>
   <path class="fil44" d="M8144 8208c17,11 -5,8 46,18 25,5 25,1 46,2 0,33 -71,5 -135,29 -25,9 -56,28 -90,24 -30,-4 -23,-8 -37,-16l-13 -73 183 16z"/>
   <path class="fil28" d="M5326 6211c-27,-29 -10,15 -17,-26 0,-1 3,-39 3,-45l-35 -8 -6 -65 77 27c45,13 46,18 83,86 2,3 5,7 6,11 25,51 18,49 -3,68 -52,-58 -10,-29 -26,-73 -15,-43 -2,-28 -57,-34 78,25 3,-3 40,32l-65 27z"/>
   <path class="fil45" d="M16479 11161c-4,75 -1,2 -15,67l-91 -109c-9,31 -7,55 -35,73 -5,-5 -34,-36 -35,-36 -19,-26 -14,-20 -12,-36 19,-9 -9,-8 17,-3l46 19c-23,-89 -36,-52 19,-66l0 -35 106 126z"/>
   <path class="fil46" d="M8339 8248c-41,-2 -56,-14 -103,-20 -21,-1 -21,3 -46,-2 -51,-10 -29,-7 -46,-18 55,-2 118,19 180,-25 -33,-40 -8,-30 -68,-41 92,-27 41,47 67,-64l44 8 33 1c-3,4 -8,6 -9,14l-28 68c0,3 -1,9 -1,12 1,16 -6,6 20,34 -29,0 -8,1 -43,33z"/>
   <path class="fil47" d="M7765 11920l-79 -8 -86 8c-31,-30 -13,-22 -65,-35l5 -33 5 -50 35 25c83,54 53,1 118,54 22,-13 25,-18 58,-20l9 59z"/>
   <path class="fil48" d="M8163 12270l-94 5c83,95 -9,101 -9,101 -62,-23 -27,6 -54,-44l-33 -73 55 10 5 -54 27 9c37,32 2,7 64,28l39 18z"/>
   <path class="fil49" d="M10205 11584l-27 35c-30,1 -55,-1 -82,-1 -28,0 -30,1 -61,0 0,-46 63,-2 148,-54l40 -29c54,-7 64,-10 104,-23l-49 97c-109,-12 -4,-12 -73,-25z"/>
   <path class="fil50" d="M12633 11124l-15 -55c-13,-81 -14,-17 41,-43l16 39c22,-23 10,-37 44,-40 18,55 4,131 -26,172 -3,-5 -8,-18 -9,-15l-16 -28c-26,-38 31,-11 -35,-30z"/>
   <path class="fil45" d="M5570 7288l10 25 -90 21 -13 -171c52,12 21,13 70,-14 -10,57 7,82 23,139z"/>
   <path class="fil18" d="M11819 10812c-14,16 -25,30 -38,43 33,40 33,21 53,81 -80,-9 -71,-36 -142,-70 23,-61 -7,-12 36,-58 10,-11 25,-24 42,-42l36 -11 -33 51 46 6z"/>
   <path class="fil34" d="M12406 11019c-4,70 7,49 -25,96 0,0 -106,-6 -19,-114l-40 -28c-3,-1 -8,-5 -11,-9 166,14 16,-13 156,-13 -32,58 -26,30 -61,68z"/>
   <path class="fil51" d="M16113 10700l15 56c-12,23 9,11 -23,15 -4,3 -12,1 -15,7l-27 7c-52,-9 -22,-7 -30,-42l74 17c-47,-44 -48,-77 -125,-143l63 -38c-2,64 -9,1 24,54 11,17 9,17 20,34 15,22 9,9 24,33z"/>
   <path class="fil20" d="M12012 11495l37 -53c2,-2 6,-5 8,-8 72,-89 12,-85 139,-104 -30,145 -1,43 -88,104 -54,37 -14,63 -96,61z"/>
   <path class="fil49" d="M9213 11969c17,-41 29,-32 84,-42 61,-12 40,-10 97,-1l7 -44 19 0 36 71 -115 30c-40,-22 -74,-28 -128,-14z"/>
   <path class="fil52" d="M12299 11428c-1,0 -107,-78 24,-122 3,-1 9,-2 12,-3 19,-4 6,-1 27,-1 21,84 3,97 -63,126z"/>
   <path class="fil9" d="M11544 11042l31 6 17 -59c61,-7 55,-12 126,-16 -14,42 -10,25 -22,64l-69 -24c6,34 2,12 17,37l30 51c-75,-16 -81,-13 -130,-59z"/>
   <path class="fil34" d="M13160 10704c-94,-6 -28,-3 -87,-47 -55,-41 -31,16 -68,-71 77,7 45,7 121,-2l34 120z"/>
   <path class="fil0" d="M7530 11783c-4,-2 -8,-11 -10,-8l-185 -150 67 -25c30,32 38,32 88,38 -11,57 -1,20 -21,69l61 76z"/>
   <path class="fil53" d="M7765 11920l96 35c-90,30 -39,-21 -97,57l-51 -37c-50,46 0,21 -66,28 39,-56 6,-35 58,-57l-19 -34 79 8z"/>
   <path class="fil33" d="M11545 10930l-35 48 -7 8 -33 0 0 -22c-32,71 7,28 -68,50 9,-65 23,-57 9,-97l56 -12c2,-1 7,-5 10,-7l68 32z"/>
   <path class="fil54" d="M9177 8193c-14,56 -6,10 -16,38 -11,28 -6,-8 -8,38l-9 -3 -46 -30c-4,-2 -25,-4 -31,-5 24,-76 -1,-27 55,-71l6 -56c38,34 20,17 48,34l1 55z"/>
   <path class="fil37" d="M7876 8143l-134 -19 -34 -7c3,-4 8,-9 11,-11l94 -65c50,74 4,40 112,94l-49 8z"/>
   <path class="fil55" d="M8223 12275l-48 -9 -12 4 -39 -18c-62,-21 -27,4 -64,-28l-13 -44c58,6 83,26 172,55 64,21 16,3 37,35l-33 5z"/>
   <path class="fil37" d="M12828 6684c38,-26 100,-62 162,-66 86,1 -12,-55 48,23 -36,11 -72,23 -105,44 -34,22 -76,57 -105,-1z"/>
   <path class="fil56" d="M12387 10322c4,-3 20,-12 33,-19 31,-17 19,-10 45,-23 75,-36 6,5 66,-48l29 -1 -8 112c-96,-23 -4,-25 -93,-24 -22,11 -20,11 -46,22l-26 -19z"/>
   <path class="fil24" d="M11563 11208c-14,13 -8,13 -33,26 -25,13 12,-5 -25,9l-65 28 -28 -9 12 -68c77,0 54,-13 110,-32l29 46z"/>
   <path class="fil33" d="M13666 9932l45 -10 112 -13 63 4c-51,60 -137,55 -210,59l-10 -40z"/>
   <path class="fil21" d="M14533 6493l-98 4 -48 -26c-47,-16 -27,23 -41,-8 -2,-4 -8,-1 -11,-2 -11,-56 -11,9 23,-65 40,73 69,36 89,42 40,12 -14,31 91,17l-5 38z"/>
   <path class="fil57" d="M7074 11436c-51,14 -33,19 -32,-40l1 -17c-54,-4 -48,2 -105,5 44,-90 21,-46 -6,-137 75,54 59,35 61,94l81 14 0 81z"/>
   <path class="fil58" d="M7370 8052l-40 -3c14,-72 21,-61 148,-56 95,4 46,-50 88,39l-98 -2c-31,-4 6,-14 -51,-7 -56,6 -19,-4 -47,29z"/>
   <path class="fil34" d="M10344 11716l-7 -9 39 2c-5,61 -34,16 63,61 -42,16 -19,0 -21,23 -5,39 12,-17 -4,41 -1,4 -8,16 -9,14 -1,-3 -8,9 -12,13 -73,-42 -10,12 -42,-62 -19,-43 14,1 -37,-27l30 -56z"/>
   <path class="fil30" d="M16045 11233c-124,-24 -55,-126 44,-141l-15 32c-15,45 -5,9 -13,45 -13,60 27,-5 -16,64z"/>
   <path class="fil59" d="M8681 8043c-24,39 -65,23 -102,14 -15,-56 -9,-69 23,-120 66,34 23,75 79,106z"/>
   <path class="fil60" d="M9982 11820c-63,27 -25,9 -48,2l-67 27 28 -42 13 -15c33,-28 22,-8 41,-58 82,17 41,-25 94,22 -36,54 48,-47 -30,27 -22,20 -12,6 -31,37z"/>
   <path class="fil18" d="M16541 7104l-36 -3 -33 -5 -27 -52 -54 -15c-26,3 -19,9 -19,-18 51,6 46,8 83,-11 29,22 50,29 94,38l-8 66z"/>
   <path class="fil34" d="M11198 12178c-3,-5 -6,-17 -7,-15 -2,6 -8,-54 -51,-138 58,1 81,-8 97,43 16,48 -18,88 -39,110z"/>
   <path class="fil27" d="M10022 11631c-11,-27 -15,-23 13,-13 31,1 33,0 61,0 27,0 52,2 82,1l27 -35 -7 47c-83,13 -119,55 -150,93 -48,-30 -16,-1 -38,-41 54,-47 38,19 54,-45l-42 -7z"/>
   <path class="fil7" d="M10969 7532c36,-33 71,-32 130,-57l-32 51c46,26 2,-13 33,63 14,33 17,16 16,35l-93 -13c18,-73 14,-52 -7,-99l-47 20z"/>
   <path class="fil34" d="M11897 11297l-147 -65c31,-27 50,-43 111,-55l36 120z"/>
   <path class="fil61" d="M4971 5658l16 37 -37 9 -41 2c-8,22 -18,49 -21,59 -29,81 2,25 -39,73l6 -88c-4,-50 53,-89 100,-106l16 14z"/>
   <path class="fil49" d="M11203 11333c2,-1 7,-7 8,-4l135 -92c61,13 45,20 57,29l-57 -10c-14,35 -13,7 11,86 -48,-2 -111,-4 -154,-9z"/>
   <path class="fil62" d="M12184 10821l15 -32 -26 -45 8 -27 101 -30c1,-7 8,-6 12,-10 -31,106 -38,98 -96,135 -3,2 -9,6 -14,9z"/>
   <path class="fil63" d="M16265 10840l-56 3 -43 -40 -28 -112 59 9c15,77 8,89 35,108l22 18c3,3 8,10 11,14z"/>
   <path class="fil64" d="M15291 10652c-16,-6 -53,-18 -65,-25 -63,-36 -30,28 -43,-77 93,-2 116,4 108,102z"/>
   <path class="fil45" d="M5486 6993c-105,43 68,90 -72,88 29,-19 12,-15 27,-46 -26,-19 -27,-19 -45,-50l62 -83c24,18 11,-1 20,35 1,3 7,53 8,56z"/>
   <path class="fil34" d="M15168 9853c-5,-2 -11,-11 -14,-8 -2,4 -9,-6 -12,-8 -3,-2 -18,-13 -22,-17l-32 -40c31,-33 21,-18 25,-66l86 51c3,1 8,5 11,8l-38 42c-2,1 -5,4 -8,7l4 31z"/>
   <path class="fil65" d="M16077 6537c-43,42 54,21 -52,45l70 10 -50 51c-2,-3 -4,-9 -5,-11l-67 -44 12 -60 92 9z"/>
   <path class="fil37" d="M12348 7057l-21 -42c63,4 13,7 60,-7l40 -13c3,-1 8,-2 11,-2 59,-11 -13,-23 67,-9 -18,49 -87,68 -141,88 -45,-21 -9,7 -16,-15z"/>
   <path class="fil66" d="M16451 11403l-45 -10c-41,-95 -7,-44 -68,-108 37,-36 -51,-49 50,-23 25,7 28,29 42,62 2,4 4,8 6,12l15 67z"/>
   <path class="fil21" d="M12262 6909c44,-34 138,-88 200,-83l-26 36c-68,49 -94,-4 -137,80 -68,-3 -17,8 -37,-33z"/>
   <path class="fil52" d="M14823 11101l61 38c-5,2 -37,15 -42,15l-44 -2c-19,-2 -31,-7 -36,-38l11 -50c1,-4 5,-7 7,-10l31 -41 12 88z"/>
   <path class="fil67" d="M5083 5750c-62,-18 -18,-33 -46,11l-75 -22 25 -44 -16 -37c101,21 86,7 112,92z"/>
   <path class="fil52" d="M14192 10592l-24 14c-93,56 -16,42 -71,47 -28,-73 -11,-93 65,-118 14,23 19,28 30,57z"/>
   <path class="fil68" d="M9074 8046c-63,-10 -25,-4 -33,9l-78 0 -58 0 16 -28 74 -43c17,7 36,12 48,21 27,21 15,12 31,41z"/>
   <path class="fil69" d="M5286 7048l2 -10 -36 -118c36,37 31,8 48,84l0 -82c13,31 12,24 39,43 10,-64 -22,-37 50,-44 -19,106 -60,59 -103,127z"/>
   <path class="fil70" d="M8194 12057c-73,-16 -48,-19 -134,-22l13 -24c-21,-21 48,-28 -57,-9 4,-82 30,-64 32,-59l137 103c2,2 6,7 9,11z"/>
   <path class="fil71" d="M7254 7730c-20,36 17,15 -47,24 -22,3 -54,0 -75,0 -2,-4 -5,-13 -6,-10 -1,2 -5,-8 -6,-10 -1,-2 -14,-18 -18,-22l30 -38c2,-3 3,-10 4,-12 2,-3 3,-9 4,-14 57,16 11,27 61,0 -1,38 7,19 -10,40 -50,58 -12,-46 -42,48l105 -6z"/>
   <path class="fil72" d="M7544 12056c-54,-40 -20,-29 -85,-63 -39,-20 -51,-17 -70,-69 29,-33 -26,-21 37,-28 65,102 54,51 94,103l24 57z"/>
   <path class="fil16" d="M12348 10619c-28,31 -18,30 -54,58 -4,4 -11,3 -12,10l-101 30 176 -157 -9 59z"/>
   <path class="fil73" d="M7282 11890c-45,-32 -92,-51 -93,-98l0 -14c27,14 44,28 78,47 10,6 37,19 42,22 32,26 17,15 39,50l-66 -7z"/>
   <path class="fil74" d="M5274 6074l-3 -7 6 65 -22 33c-54,-68 -13,-82 -75,-121 17,-45 -40,-26 36,-32l58 62z"/>
   <path class="fil37" d="M9267 8194l37 8c-56,-8 -3,-6 -28,32 -44,19 -103,48 -123,35 2,-46 -3,-10 8,-38 10,-28 2,18 16,-38l33 8 57 -7z"/>
   <path class="fil75" d="M5326 6211l-7 18c-30,21 -2,45 7,97 -18,-17 -10,-2 -27,-28 -11,-18 -13,-25 -21,-45 -10,-30 -17,-61 -23,-88l22 -33 35 8c0,6 -3,44 -3,45 7,41 -10,-3 17,26z"/>
   <path class="fil76" d="M7119 11746c-41,-7 -79,-56 -102,-98 15,-70 9,-28 82,35 28,24 36,34 60,52 -26,27 8,10 -40,11z"/>
   <path class="fil77" d="M6260 10529l-81 -13c-21,-65 -4,-7 -6,-71 -1,-40 -2,-47 -9,-75l31 9c17,91 -1,38 51,124l14 26z"/>
   <path class="fil56" d="M8634 12286l-93 3 -48 -48c40,1 51,6 84,-6l41 -23c16,23 19,-3 16,74z"/>
   <path class="fil78" d="M6574 11062c-1,32 -10,20 12,39 -14,13 30,26 -64,-4 -3,46 -13,27 21,53l-43 0 -2 10 -14 -79 15 -30c34,-26 26,9 34,-43l32 -3 16 -3c-59,24 -24,7 -49,33 17,30 -17,0 22,30 47,36 2,7 20,-3z"/>
   <path class="fil49" d="M8194 12057l21 1 1 26 -41 -4c-18,18 -15,23 -62,29l-53 -74c86,3 61,6 134,22z"/>
   <path class="fil52" d="M14438 10662l-41 -48c-25,-31 -20,-14 -33,-59 79,-8 57,-28 85,28 26,51 2,55 -11,79z"/>
   <path class="fil56" d="M12799 10305l-28 0c-43,-8 -59,2 -78,-13 -45,-35 -8,-52 -7,-53l47 15c52,11 12,6 76,-2l-10 53z"/>
   <path class="fil16" d="M10659 11372c2,-4 6,-13 8,-10 2,3 7,-8 10,-10 30,-19 1,-5 44,-22 14,80 7,-23 46,68 -47,47 5,21 -70,35 -28,-73 18,-35 -38,-61z"/>
   <path class="fil71" d="M8016 12002c105,-19 36,-12 57,9 -68,15 -63,52 -65,8l-58 -23c-56,-21 22,-10 -71,-17l-18 -24c50,-3 44,-5 84,-13 53,83 6,6 71,60z"/>
   <path class="fil7" d="M10714 7650l6 -45 67 -11 -27 38c80,-18 30,-27 76,18 -175,0 22,26 -115,34 -16,-20 -41,41 -7,-34z"/>
   <path class="fil71" d="M8917 12032c-20,-43 26,-16 -36,-43 -32,32 -10,-30 -25,45l-57 -1 28 -66c69,3 2,-3 66,17 31,-43 -2,-12 50,-29l2 48 -28 29z"/>
   <path class="fil65" d="M6814 7592l-143 -16c4,-48 -6,-23 22,-56 45,8 37,4 68,23 69,41 18,6 53,49z"/>
   <path class="fil25" d="M6866 11214l14 18c17,42 25,32 -20,32 -52,-55 -36,-10 -101,-79 -3,-3 -14,-15 -18,-19l33 -7c3,1 9,-1 11,4l81 51z"/>
   <path class="fil79" d="M9655 11828c-68,7 -23,-5 -39,33l-105 10c48,-54 7,-3 56,-36 26,-17 5,-2 27,-25 72,-73 -7,-24 65,-45l-4 63z"/>
   <path class="fil13" d="M8656 10592c-2,2 12,33 -53,21 -63,-12 -14,4 -46,-37 11,-9 -35,-49 62,-27 78,18 20,22 37,43z"/>
   <path class="fil80" d="M6255 7161l3 29c-75,5 -21,8 -41,-23 -42,-13 -20,-5 -44,-22 -45,-32 -11,-3 -37,-33l20 -38c40,13 49,48 99,87z"/>
   <path class="fil16" d="M12184 10821c-67,-27 14,-32 -75,-27l-2 52 -64 2c9,-9 27,-28 32,-34 19,-23 5,-15 23,-31 42,-38 26,-6 75,-39l26 45 -15 32z"/>
   <path class="fil34" d="M14766 10496c-36,-9 -73,-6 -85,-37 -24,-65 4,-31 7,-41 64,-12 84,-3 78,78z"/>
   <path class="fil47" d="M8726 8277c-22,19 28,9 -47,33 -37,12 -41,5 -75,1l-28 -47c14,6 47,16 65,24 18,-21 26,-32 43,-55l42 44z"/>
   <path class="fil81" d="M6317 10794c-12,-21 -43,-94 -54,-120l38 -8 62 123c-42,30 15,18 -46,5z"/>
   <path class="fil37" d="M11617 7413c-23,40 -40,49 -87,60 -51,-3 -11,15 -36,-12 23,-39 75,-61 115,-76 14,12 22,-19 8,28z"/>
   <path class="fil31" d="M13420 10000c-10,10 2,6 -31,24 -36,20 -30,14 -53,20 -21,-36 -20,16 -7,-23 18,-52 -25,44 20,-21 18,-27 16,31 17,-58 61,30 -7,25 85,-1l-31 59z"/>
   <path class="fil52" d="M13498 10494c8,51 12,46 -16,100 -55,-15 -39,54 -40,-50 -1,-19 -38,22 4,-35 14,-20 27,-18 52,-15z"/>
   <path class="fil49" d="M10865 11272c4,-3 10,-12 12,-9l115 -76c18,67 3,31 37,69 -23,0 -19,-1 -35,-6l-43 -18 -32 74c-20,-18 -23,-20 -54,-34z"/>
   <path class="fil44" d="M11139 11391c-11,91 26,51 -56,70 -24,-34 -52,47 -10,-54 6,-24 -17,-14 36,-50 15,55 0,25 30,34z"/>
   <path class="fil19" d="M11020 12318l-48 -11c-14,-37 -18,-39 -37,-57 -33,25 -5,-9 -19,47 -18,-34 -35,54 -16,-70l68 -9 27 66c2,3 6,8 8,11 1,3 7,14 8,11 2,-3 6,8 9,12z"/>
   <path class="fil82" d="M16756 7304l-24 3 -5 -28c-3,-48 3,-1 -30,-22 -13,-14 -4,-10 -26,-9l-8 -47 35 0 46 26c1,-3 5,3 11,4l1 73z"/>
   <path class="fil22" d="M7647 12003l35 51 -101 33 -24 -11c42,-40 -72,-52 76,-23l-27 -60c32,-1 18,-5 41,10z"/>
   <path class="fil21" d="M10837 7786l-93 7 -29 -4c86,-82 48,-29 146,-52l-24 49z"/>
   <path class="fil83" d="M6296 7424c-12,-4 -19,1 -50,-22 -33,-26 -27,-31 -33,-43 -40,-90 -11,-16 7,-34 144,103 86,89 76,99z"/>
   <path class="fil28" d="M16482 11359c-13,-45 -60,-38 69,-133 -7,54 0,40 -24,78 -4,7 -16,21 -21,28 -21,26 -9,11 -24,27z"/>
   <path class="fil24" d="M10508 11440l43 -8c39,-35 6,34 24,-19 2,-6 7,-6 10,-9l8 35c0,1 17,43 18,45 -111,11 -92,-14 -103,-44z"/>
   <path class="fil20" d="M11926 10922l133 17c0,9 3,11 3,17 1,11 14,19 4,51l-58 -26c-1,-2 -3,-8 -5,-11l-77 -48z"/>
   <path class="fil50" d="M15587 11215c41,-63 -13,-41 84,-42 -8,35 9,45 -26,60 -89,40 -55,-16 -58,-18z"/>
   <path class="fil51" d="M13399 6496c9,-3 99,-34 99,-34 29,38 -34,31 30,32 -28,25 -28,33 -81,29 -55,-3 -64,-3 -48,-27z"/>
   <path class="fil84" d="M9905 11674l-17 15 -110 7 17 -43c55,7 38,14 69,-11l50 2 -9 30z"/>
   <path class="fil21" d="M14358 9645l77 -23c39,38 -47,9 47,36 -5,3 22,19 -47,22 -141,5 -42,6 -77,-35z"/>
   <path class="fil85" d="M5192 6671l9 38c-43,-27 -25,-64 -36,-133 44,0 31,-10 31,37 27,-29 13,-28 49,-19 -17,25 -26,43 -53,77z"/>
   <path class="fil86" d="M11814 11053l-54 3 -15 27 -54 27c20,-55 -11,-54 37,-73 32,-14 74,-7 105,-7l-19 23z"/>
   <path class="fil65" d="M16166 10803c-57,17 -11,-1 -68,27l7 -59c32,-4 11,8 23,-15l-15 -56 25 -9 28 112z"/>
   <path class="fil87" d="M14806 9882l9 10c-27,-2 -41,0 -69,-7 -70,-18 -24,-4 -46,-22l53 -10c-19,-58 -19,-25 27,-45 45,57 26,27 -5,64l31 10z"/>
   <path class="fil64" d="M14462 10280c-52,-87 -19,-56 22,-81 19,26 45,-39 25,47 -12,48 -9,22 -47,34z"/>
   <path class="fil40" d="M11289 11103c14,-15 10,-13 29,-31 7,-5 24,-18 28,-22l103 -5c-42,32 58,42 -87,7l6 88c-48,-32 -2,-27 -79,-37z"/>
   <path class="fil28" d="M14963 6367c53,27 32,-2 26,52 -61,-39 -42,2 -48,-80l74 -4c1,73 8,47 -52,32z"/>
   <path class="fil27" d="M9616 11861c16,-38 -29,-26 39,-33l44 84c-135,-12 -43,9 -83,-51z"/>
   <path class="fil18" d="M13375 9799l75 -1c-18,24 48,31 -50,13 60,62 36,-6 29,75l-48 -18c1,-8 -1,-15 -1,-13 0,2 -2,-8 -2,-10 -1,-4 -3,-40 -3,-46z"/>
   <path class="fil40" d="M13304 6705l-99 39 -8 -76c56,6 16,-3 61,16 33,13 -30,0 46,21z"/>
   <path class="fil24" d="M9905 11674l9 -30 108 -13 -21 20c-1,1 -19,0 -35,57l-61 -34z"/>
   <path class="fil85" d="M15659 10478l-80 -87 38 15 66 -43c-12,94 -7,38 -16,65 -3,8 -9,2 -8,50z"/>
   <path class="fil58" d="M10459 11671c-24,10 -35,19 -46,25 -21,10 12,2 -37,13 6,-76 -8,-58 71,-82l12 44z"/>
   <path class="fil30" d="M9308 12160l-9 -21c3,-2 9,-9 10,-5 2,3 9,-4 10,-5 11,-5 13,-6 26,-12l31 0c-10,60 -3,35 -23,75 -72,3 -27,9 -45,-32z"/>
   <path class="fil85" d="M6533 11008c-8,52 0,17 -34,43l-3 -42c-68,-14 -37,-8 -60,-30l95 -15 2 44z"/>
   <path class="fil24" d="M7408 7844c-55,7 -59,16 -98,25l3 -65c66,25 94,-16 95,40z"/>
   <path class="fil74" d="M9808 11744c-10,-28 22,-6 -29,-31l-1 -17 110 -7c-32,71 -26,49 -80,55z"/>
   <path class="fil12" d="M8261 8033l-53 -13 -50 64 -32 -78c73,-3 82,-7 135,27z"/>
   <path class="fil88" d="M5727 6524c60,93 20,21 0,46 -23,-46 2,-39 -79,-74 1,-82 -4,-32 12,-58l67 86z"/>
   <path class="fil37" d="M5656 6693l5 -2c-32,-94 -10,-21 0,-45 55,-8 44,-17 84,12 -16,23 -12,14 -26,27l-51 16c-2,-1 -8,-5 -12,-8z"/>
   <path class="fil66" d="M8370 12278l-35 4c-4,-4 -10,-12 -12,-14l-23 -26c34,-13 35,-22 104,5 3,2 10,11 12,7 3,-3 8,5 12,6l-58 18z"/>
   <path class="fil89" d="M10732 11531c21,52 7,23 -3,27 -67,-23 -22,8 -56,-70 32,3 52,-4 58,-4 54,-2 21,-7 51,10 -122,0 -15,-7 -50,37z"/>
   <path class="fil90" d="M15088 9780l32 40 -24 40c-73,-5 -11,3 -40,-32l-20 -39 42 0 10 -9z"/>
   <path class="fil91" d="M7174 7973l72 -11 -46 61 80 14 -74 0c-26,-30 -18,-25 -41,-42 -54,-39 -17,15 -55,-55 48,45 -6,18 64,33z"/>
   <path class="fil37" d="M13400 6694l-48 -9 -58 -11c4,-3 9,-7 12,-9 4,-1 9,-5 14,-7 88,-33 -59,14 30,-8 1,0 43,-5 50,-6 22,29 62,-44 0,50z"/>
   <path class="fil87" d="M16636 7081c-55,-39 -38,15 -37,-85 28,12 33,-5 48,32 34,86 -5,40 -11,53z"/>
   <path class="fil24" d="M12065 10601l1 4 -63 -1c-18,83 15,23 -44,70l18 -77c35,-10 55,-23 81,-37l7 41z"/>
   <path class="fil61" d="M6852 7829l-58 -7 -38 -52 6 -24c40,44 28,34 104,50l-14 33z"/>
   <path class="fil92" d="M5686 8663c-26,-32 -10,0 -22,-40 -7,-21 6,-8 -14,-52 -25,-52 -23,7 -30,-94l13 23c2,4 8,19 11,24 3,4 5,7 7,11l18 20c32,52 16,41 17,108z"/>
   <path class="fil37" d="M12143 6969c0,-1 -6,-16 9,-30l63 4 36 7c-64,25 -91,88 -108,19z"/>
   <path class="fil91" d="M10778 11529l23 -56c34,-9 84,-27 111,4 -49,-6 -68,34 -134,52z"/>
   <path class="fil93" d="M15964 10772l34 49 3 37c-14,-76 -2,-3 -37,-36 -34,7 -10,7 -25,-11 -37,-44 -8,-5 -17,-42l10 -41 32 44z"/>
   <path class="fil94" d="M5216 6012c-76,6 -19,-13 -36,32 -13,-16 -47,22 -10,-103 53,31 25,8 39,55 7,22 -4,1 7,16z"/>
   <path class="fil34" d="M12590 10642c-26,49 29,58 -74,29 22,-54 -21,-35 30,-47 73,-16 20,3 44,18z"/>
   <path class="fil35" d="M13576 9773c11,30 29,-23 4,30 -10,21 -71,66 -60,-30 4,-2 11,-12 14,-7 2,5 11,-3 14,-3 3,1 11,3 14,3 3,1 9,5 14,7z"/>
   <path class="fil22" d="M6258 7190l-3 -29c27,0 29,-9 13,12l-7 58c56,35 10,-4 43,49 -79,-23 -52,4 -75,-65 31,-44 -30,-7 29,-25z"/>
   <polygon class="fil32" points="15867,10657 15848,10717 15816,10709 15806,10626 "/>
   <path class="fil95" d="M6417 10708l4 47 -32 -4c-10,-40 -10,-37 -21,-90l43 5 6 42z"/>
   <path class="fil71" d="M7661 7892c-48,18 -6,11 -55,22l-31 -60 72 3 14 35z"/>
   <path class="fil82" d="M15240 10130l-61 -13 -2 -30 34 -7 -3 -35 34 7c-10,70 -15,16 -2,78z"/>
   <path class="fil47" d="M8553 8065l-81 -26c-61,-1 -5,9 -28,-24l76 -3c18,20 11,-24 33,53z"/>
   <path class="fil65" d="M15581 10160l-24 11c-17,30 57,35 -38,21l-11 -45 29 2 -10 -33c52,24 28,5 54,44z"/>
   <path class="fil22" d="M15998 10821l-34 -49 30 -49c19,32 20,-10 21,49 2,86 -10,36 -17,49z"/>
   <path class="fil96" d="M15056 9828c-32,-21 -8,-12 -57,-28l-22 -45c9,2 53,4 64,8 54,20 -8,-26 37,26l-42 0 20 39z"/>
   <path class="fil7" d="M8065 8044c-32,14 -6,5 -54,14 -41,7 -12,-3 -47,9l-3 -45c56,-4 59,-4 104,22z"/>
   <path class="fil11" d="M10115 7860l57 -14c31,73 5,49 -45,61 -15,-18 -3,-19 -12,-47z"/>
   <path class="fil97" d="M5949 8962c-16,-19 -14,23 -14,-67 -5,2 -12,4 -16,6l-49 17c5,-32 0,-12 11,-38l31 -52c1,5 2,8 3,16 5,40 19,4 34,118z"/>
   <path class="fil98" d="M10113 12281c-53,-22 -72,-8 -50,-81 56,30 35,-7 50,81z"/>
   <path class="fil99" d="M8805 12032c-3,4 -7,5 -9,11 -2,7 -7,9 -10,11 -19,16 -11,11 -35,26l-17 -94 71 46z"/>
   <path class="fil83" d="M6124 7268l-33 -14c-46,-22 -30,-17 -42,-43 -38,-70 -13,-12 13,-36 21,63 -5,47 65,52l-3 41z"/>
   <path class="fil61" d="M6418 7562l-13 1c-10,-56 0,-52 -44,-77 -53,-79 -13,-13 7,-32 36,37 -12,6 56,40l-6 68z"/>
   <path class="fil55" d="M14860 9892l-17 14 -30 -14 2 0 -9 -10c21,-53 -56,-44 39,-44 27,33 14,-6 15,54z"/>
   <path class="fil94" d="M5857 6674l-90 -21c9,-34 -34,-42 51,-12l-9 -46c47,41 2,-17 29,32 5,9 13,32 19,47z"/>
   <path class="fil100" d="M12857 10296l-42 13c18,-32 -2,-16 36,-35 10,-4 50,-12 65,-16l-4 53 -55 -15z"/>
   <path class="fil43" d="M12923 10020l30 0c74,0 12,-32 38,15 -102,37 6,12 -78,72l10 -87z"/>
   <path class="fil53" d="M14573 9621c102,-5 51,-32 80,18 -5,3 -21,17 -23,19 -19,13 4,5 -26,13 -52,-49 -1,4 -31,-50z"/>
   <path class="fil18" d="M10347 7822c-1,0 11,32 -39,30 -48,-3 -11,3 -31,-30 2,-2 -5,-54 70,0z"/>
   <path class="fil85" d="M15867 10657l-61 -31 -29 -3 0 -17 70 -13c14,33 9,16 20,64z"/>
   <path class="fil53" d="M13887 6376l94 0c-3,4 -8,5 -9,12l-47 49 -38 -61z"/>
   <path class="fil37" d="M11071 7689l-36 11 -54 -10c50,-38 25,-30 86,-30 17,17 37,-22 4,29z"/>
   <path class="fil95" d="M15453 10058l0 19c-26,2 -35,11 -54,-7 -44,-41 -4,-33 11,-48 8,5 1,-2 23,17 0,0 16,16 20,19z"/>
   <polygon class="fil101" points="16698,7201 16663,7201 16637,7199 16623,7157 16669,7144 "/>
   <path class="fil102" d="M15613 10197l-2 35 0 1c-31,13 -22,-18 -25,32l-10 -54c1,-2 4,-8 6,-12 -47,-30 5,35 -25,-28l24 -11c22,10 15,-15 32,37z"/>
   <path class="fil32" d="M7555 8115l28 -5c-12,24 25,19 -35,20 -68,-19 -58,-31 -79,-82l86 67z"/>
   <path class="fil27" d="M6750 11125c-64,12 7,4 -65,21l13 -70 41 14 11 35z"/>
   <path class="fil21" d="M10172 7846l-57 14c-41,15 -17,13 -30,-11l69 -48 18 45z"/>
   <path class="fil65" d="M5793 8944c-2,-7 -16,-57 -16,-58 -5,-63 -7,-27 16,-58 23,61 32,68 0,116z"/>
   <path class="fil103" d="M15207 6223c-44,-38 -34,-41 16,-83 14,34 28,-36 5,47 -8,30 -17,30 -21,36z"/>
   <path class="fil13" d="M8439 10955c-50,-39 -67,-57 22,-67 -5,52 3,33 -22,67z"/>
   <polygon class="fil104" points="14911,9932 14845,9932 14820,9920 14813,9892 14843,9906 14860,9892 14883,9891 "/>
   <path class="fil25" d="M16339 10981c-13,51 28,10 -21,35l-43 -82 39 2 25 45z"/>
   <path class="fil37" d="M11833 7124c57,-32 17,-25 78,-31 8,29 3,33 -40,56 -4,-1 -8,-5 -10,-6l-28 -19z"/>
   <path class="fil71" d="M13708 10986c-35,26 -17,24 -60,12 -1,-5 -4,-17 -3,-14 0,0 -16,-15 34,-41 36,32 1,-2 29,43z"/>
   <path class="fil37" d="M12048 7236l-29 14 -39 -35c50,-29 16,-18 78,-18l-10 39z"/>
   <path class="fil91" d="M12348 10619l9 -59 20 -10 19 42c14,29 -4,-21 14,27l-62 0z"/>
   <path class="fil105" d="M8856 12034c15,-75 -7,-13 25,-45 62,27 16,0 36,43 -25,22 -33,27 -61,2z"/>
   <polygon class="fil47" points="12024,10864 12043,10848 12107,10846 12112,10898 "/>
   <path class="fil106" d="M6593 11006l-28 -1 -32 3 -2 -44 -4 -47c4,4 9,4 11,12l47 70c1,1 5,5 8,7z"/>
   <path class="fil104" d="M5152 6554c-59,0 -19,-37 -23,-60 0,-6 1,-25 0,-30 0,-5 -3,-19 -5,-25l34 20c-17,69 -12,27 -6,95z"/>
   <path class="fil14" d="M6491 7364c-59,1 -36,3 -51,6 -2,1 -19,9 -41,14 26,-44 22,-12 2,-71 5,3 42,19 43,19l47 32z"/>
   <path class="fil102" d="M6574 11062c-18,10 27,39 -20,3 -39,-30 -5,0 -22,-30 25,-26 -10,-9 49,-33 13,43 16,23 -7,60z"/>
   <path class="fil24" d="M11494 7526c-30,10 -25,1 -58,21 -6,-91 -12,-43 13,-76l45 55z"/>
   <path class="fil14" d="M7058 11527c-33,38 -16,39 -70,16 13,-18 -14,-18 26,-29 82,-22 30,3 44,13z"/>
   <path class="fil74" d="M11833 11030c10,-49 -4,-50 40,-50 5,11 20,52 22,57l-62 -7z"/>
   <path class="fil107" d="M6101 10284l3 -52c-4,-3 -6,-10 -7,-8 -1,2 -5,-7 -6,-9l-18 -21c-2,-3 -7,-8 -11,-12l59 17c3,18 8,28 5,49 -7,40 -5,15 -25,36z"/>
   <path class="fil16" d="M16765 7082c-4,-3 -9,-8 -12,-10l-33 -26c-2,-6 -7,-5 -10,-8 27,-48 10,7 14,-56 43,27 10,-8 27,35 1,3 12,57 14,65z"/>
   <path class="fil14" d="M6143 9789l-63 7c21,-54 -12,-7 35,-58 27,22 14,-35 28,51z"/>
   <path class="fil47" d="M12551 10461c36,-62 -10,0 25,-35 4,-4 27,-17 35,-22l7 59 -67 -2z"/>
   <path class="fil97" d="M6172 10295c-43,-63 -24,-44 40,-56 -18,52 30,28 -40,56z"/>
   <path class="fil108" d="M5176 5786c13,-25 -19,-16 42,-30l26 56c-77,-12 -41,-1 -68,-26z"/>
   <path class="fil39" d="M7963 9478c-18,53 35,29 -58,38 15,-55 -2,-65 58,-38z"/>
   <path class="fil95" d="M5872 8651c-33,29 -7,-55 -35,33l-14 -59c19,-28 -30,-24 37,-22l12 48z"/>
   <path class="fil109" d="M5583 6317l-73 -37c56,-10 5,7 24,-44 17,15 14,4 28,28 11,17 13,30 21,53z"/>
   <path class="fil39" d="M14249 7478c72,10 21,9 37,-17l-34 -13c17,-27 -33,-26 35,-19 25,56 19,22 0,70 -86,14 -10,6 -38,-21z"/>
   <path class="fil110" d="M5872 8651l-12 -48 -21 -95c13,16 11,7 21,36 54,153 17,103 12,107z"/>
   <path class="fil32" d="M15640 6231c30,-78 11,-17 -6,-41 -16,24 -11,-4 -3,39 -37,-15 -23,24 -30,-31 46,-36 12,-41 67,0 1,69 7,8 -28,33z"/>
   <path class="fil103" d="M12191 10427l-21 20c-3,3 -8,8 -11,10 -3,3 -9,8 -12,10 -3,3 -8,7 -12,10l29 -65 71 -9c-24,29 37,21 -44,24z"/>
   <path class="fil103" d="M15410 6149l-42 -9c5,-13 -1,-31 25,-39 105,-32 36,2 55,13l-52 -4 14 39z"/>
   <path class="fil47" d="M11172 11383l-33 8c-30,-9 -15,21 -30,-34l48 14c27,-64 -2,-24 46,-38 -3,3 -7,7 -9,9l-22 41z"/>
   <path class="fil16" d="M16517 11211c-26,21 9,17 -53,17 14,-65 11,8 15,-67l25 18 13 32z"/>
   <path class="fil100" d="M16406 6770c-38,-28 -6,-5 -30,-31 -2,-2 -4,-7 -6,-9l-60 -54c5,2 28,11 32,12 22,7 17,6 40,10l24 72z"/>
   <path class="fil65" d="M6589 7510c-61,-14 -37,20 -57,-58 55,19 47,1 57,58z"/>
   <path class="fil97" d="M6298 10481c-46,25 -38,17 -68,-9 28,-21 72,-38 68,9z"/>
   <path class="fil12" d="M14981 9754l-53 -3 16 59 -60 -17c23,-37 -11,-17 58,-27l-31 -39 70 27z"/>
   <path class="fil95" d="M6105 7019c38,89 12,20 0,41l-48 -28 17 -24 34 -7 -3 18z"/>
   <path class="fil24" d="M13711 9922l-45 10 -29 0c9,-43 -1,-22 25,-41 90,25 10,2 49,31z"/>
   <path class="fil92" d="M5992 9876l-37 -17 -12 -84c47,25 7,-8 30,47 2,6 6,25 8,29 1,4 8,20 11,25z"/>
   <path class="fil66" d="M16264 6902l-22 5 16 -78c38,25 40,15 6,73z"/>
   <path class="fil100" d="M12048 7236l10 -39c14,-32 9,-27 55,-18l18 0 -17 13c-3,1 -16,7 -21,10 -3,2 -7,4 -11,6l-34 28z"/>
   <path class="fil85" d="M5857 9323c-13,-35 -12,-35 -34,-58l67 16c-8,50 30,11 -33,42z"/>
   <path class="fil32" d="M14500 9850c-16,22 27,19 -33,15 -48,-56 -3,-26 -54,-41 21,-28 -29,-26 38,-20 30,82 -8,33 49,46z"/>
   <path class="fil66" d="M6608 11267l2 -3 -16 -58c118,43 15,60 14,61z"/>
   <path class="fil111" d="M16142 11033c-4,-2 -9,-9 -11,-6 -2,3 -9,-5 -12,-7 -3,-2 -21,-15 -25,-18l0 -20c35,-4 52,-19 48,31l0 20z"/>
   <path class="fil32" d="M15519 10329l-66 2 -43 -45c29,-31 -37,-34 34,-22l-7 61c68,-22 7,-7 49,-10l33 14z"/>
   <path class="fil111" d="M5294 7102c5,-41 6,-29 -6,-64l-2 10 62 17c-20,48 33,14 -54,37z"/>
   <path class="fil32" d="M15115 10027c-42,-9 -4,12 -48,-17 -51,-33 -15,-12 -36,-35l68 18 16 34z"/>
   <path class="fil112" d="M5965 7101c-23,-16 -15,0 -34,-24 -30,-38 -9,-6 -24,-52 51,22 8,-14 36,23 20,26 14,27 22,53z"/>
   <path class="fil18" d="M9808 11744c-54,31 -35,6 -50,-9l-4 -25 25 3c51,25 19,3 29,31z"/>
   <path class="fil37" d="M9440 8213l-33 6c-11,-49 -16,-19 0,-45 87,11 43,-23 33,39z"/>
   <path class="fil30" d="M12485 10517c24,5 56,12 32,36 -50,51 -31,7 -36,6l4 -42z"/>
   <path class="fil113" d="M6640 11146c-22,35 25,36 -66,32 2,-2 4,-11 5,-9 17,51 8,-16 10,-19 49,-55 -36,4 25,-18l26 14z"/>
   <path class="fil97" d="M15515 10110l-18 2c-65,-18 -29,0 -44,-35l0 -19c47,24 37,16 62,52z"/>
   <path class="fil1" d="M7540 11852c-80,12 -21,8 -46,-14l32 -31 19 -5 -5 50z"/>
   <path class="fil28" d="M11018 7576c-19,53 31,24 -53,38 17,-51 5,-55 53,-38z"/>
   <path class="fil114" d="M8261 12058l-46 0c1,-62 -18,-25 26,-44 31,26 9,0 20,44z"/>
   <path class="fil12" d="M5712 6620c14,-56 0,-31 55,-51 -22,56 14,40 -55,51z"/>
   <polygon class="fil115" points="7735,12159 7666,12147 7661,12097 "/>
   <path class="fil27" d="M6512 7399c10,81 0,26 -13,46l-34 -28c27,-25 -35,-22 47,-18z"/>
   <path class="fil92" d="M16227 11137c-37,-31 -29,-24 -42,-73l43 20 -1 53z"/>
   <path class="fil71" d="M8315 11363c-22,42 33,38 -50,26 4,-19 -15,-13 9,-27 39,-24 14,-9 41,1z"/>
   <polygon class="fil35" points="15187,10043 15115,10044 15115,10027 15171,10010 "/>
   <polygon class="fil86" points="8905,8055 8963,8055 8936,8112 "/>
   <path class="fil110" d="M16314 10936l-39 -2 -22 7 7 -63c3,4 8,4 9,10 7,26 9,10 18,19 6,7 27,28 27,29z"/>
   <path class="fil47" d="M14035 6574l-52 2 21 -50c31,29 12,-39 31,48z"/>
   <path class="fil71" d="M16551 11226l-34 -15 -13 -32 62 22c11,73 4,9 -15,25z"/>
   <polygon class="fil17" points="10919,11477 10930,11429 10977,11423 10955,11462 "/>
   <path class="fil107" d="M16472 7096c-33,-18 -19,-7 -47,-33 -22,-19 -23,-23 -34,-34l54 15 27 52z"/>
   <polygon class="fil116" points="15410,6149 15396,6110 15448,6114 15440,6151 "/>
   <path class="fil92" d="M5797 6892c-3,-3 -9,-13 -11,-10 -1,3 -8,-7 -10,-10 -27,-37 -4,-1 -22,-38 79,-5 28,-13 45,37l-2 21z"/>
   <path class="fil14" d="M6088 10072c-6,-8 -69,36 0,-51 20,25 42,-9 0,51z"/>
   <path class="fil117" d="M6381 10540l-30 -8 -1 -74c10,12 14,10 22,35 5,13 7,32 9,47z"/>
   <path class="fil108" d="M5683 7870c-60,-28 -28,14 -20,-22 13,-51 -44,4 26,-33 30,61 3,49 -6,55z"/>
   <path class="fil27" d="M14690 6472l-43 -9c8,-48 -13,-15 18,-39 26,22 14,-29 25,48z"/>
   <path class="fil77" d="M6672 7748c-42,-24 -11,12 -34,-44l56 -16c-47,41 -4,-3 -22,60z"/>
   <path class="fil37" d="M13229 6530l23 -22c13,47 19,17 -9,64 -21,-31 -31,41 -14,-42z"/>
   <path class="fil92" d="M6610 11264c-49,-23 -31,-19 -41,-75l25 17 16 58z"/>
   <path class="fil66" d="M6389 10751l-43 -42 22 -48c11,53 11,50 21,90z"/>
   <path class="fil92" d="M5521 7984c-39,-22 -29,-35 -42,-78 45,22 26,20 42,78z"/>
   <path class="fil108" d="M12731 6912l-50 14c42,-61 -1,-28 72,-48l-22 34z"/>
   <path class="fil37" d="M15746 10569c-18,0 -20,23 -14,-11l-2 -47c33,29 62,49 16,58z"/>
   <path class="fil17" d="M12184 7166l-53 13 4 -26c15,-23 7,-42 49,13z"/>
   <path class="fil32" d="M7973 12259l-3 -29c16,12 26,24 28,20 3,-6 15,5 21,9 -6,-82 -6,-27 14,-44l-5 54 -55 -10z"/>
   <path class="fil61" d="M11453 7330c0,-21 -19,-19 9,-17l33 0c-20,51 0,20 -36,51l-6 -34z"/>
   <polygon class="fil118" points="11745,11083 11760,11056 11814,11053 11789,11083 "/>
   <path class="fil119" d="M10585 11404c-3,3 -8,3 -10,9 -18,53 15,-16 -24,19l22 -53 55 -4 -43 29z"/>
   <path class="fil57" d="M5366 6010c-20,-20 -11,4 -27,-31 -6,-14 -11,-43 -15,-60 26,26 10,-5 27,33 0,0 15,57 15,58z"/>
   <path class="fil80" d="M15790 10348c-71,39 -38,3 -49,-2l26 -24 15 -1 8 27z"/>
   <path class="fil49" d="M13783 9692c5,-3 12,-5 17,-7 5,-2 12,-5 17,-7 4,-2 21,-11 26,-14l-26 59 -34 -31z"/>
   <path class="fil104" d="M5124 6439l-37 -7 -10 -66c23,21 7,1 24,31 2,4 9,19 11,23 2,3 8,15 12,19z"/>
   <path class="fil118" d="M12822 10080c27,-43 22,-21 74,-46l-22 36 -52 10z"/>
   <path class="fil120" d="M6405 7563c-22,-22 -10,0 -28,-33 -11,-19 -10,-28 -16,-44 44,25 34,21 44,77z"/>
   <path class="fil22" d="M5612 7720c-28,-35 -28,-19 -17,-63 15,14 14,-22 23,26 6,32 -1,23 -6,37z"/>
   <path class="fil121" d="M6164 10370c-37,-22 1,11 -28,-20 -12,-13 -21,-29 -31,-43l45 15 14 48z"/>
   <path class="fil13" d="M15154 6182c0,31 20,44 -35,38 1,-45 -6,-27 35,-38z"/>
   <path class="fil104" d="M6498 11160c-25,-32 -8,39 -24,-35 -16,-75 -2,-26 10,-44l14 79z"/>
   <path class="fil95" d="M5915 8826c0,0 -75,-15 -4,-34 48,-17 4,34 4,34z"/>
   <path class="fil120" d="M16344 6993c-50,-18 -40,-29 -55,-64 52,35 32,17 55,64z"/>
   <path class="fil9" d="M13970 9798c-60,-68 -31,-30 5,-51 6,17 9,1 4,29 0,3 -7,16 -9,22z"/>
   <path class="fil101" d="M5417 7549c25,-64 3,-19 47,-49 -27,62 25,40 -47,49z"/>
   <path class="fil55" d="M6893 11535c-18,-2 -24,25 -10,-22l27 -31c9,71 13,30 -17,53z"/>
   <path class="fil108" d="M13967 6581l-25 1c10,-59 -9,-18 16,-44 22,21 37,-43 9,43z"/>
   <path class="fil47" d="M13938 9674c0,34 8,24 -29,21l-29 -35 58 14z"/>
   <path class="fil122" d="M6072 6919l-48 -24 -7 -43c17,16 14,10 30,30 9,11 17,25 25,37z"/>
   <path class="fil118" d="M8463 8266c-23,21 37,18 -42,17l-23 -40c5,4 24,14 29,16 59,25 -66,-4 36,7z"/>
   <path class="fil108" d="M5464 6404c-23,-60 -13,-26 0,-52 3,4 52,-4 0,52z"/>
   <path class="fil27" d="M6713 7664l-13 -24c3,-39 -7,-3 11,-32 32,32 24,-42 18,21 -4,49 23,1 -16,35z"/>
   <path class="fil52" d="M7567 7001c-81,-45 21,61 -21,-13 -15,-26 -6,-2 -14,-41 15,6 60,6 35,54z"/>
   <polygon class="fil72" points="5274,6074 5216,6012 5257,6017 "/>
   <path class="fil123" d="M5502 6205c-4,-4 -9,-13 -10,-11 -2,2 -8,-9 -10,-12 -15,-35 -4,0 -15,-49 43,34 33,25 35,72z"/>
   <path class="fil95" d="M6353 7254l12 5 -3 37 -43 -33c30,-34 -20,-10 34,-9z"/>
   <path class="fil124" d="M5719 6742l-3 9c-32,8 -24,16 -29,-12 -5,-37 -12,-29 23,-17l9 20z"/>
   <path class="fil102" d="M15508 10147c-3,-5 -9,-17 -9,-19 0,-1 -1,-7 -2,-8 0,-2 0,-6 0,-8l18 -2 12 6 10 33 -29 -2z"/>
   <path class="fil97" d="M12760 6796c-58,-16 -24,4 -48,-47 106,40 2,3 48,47z"/>
   <polygon class="fil118" points="15177,10087 15187,10043 15208,10045 15211,10080 "/>
   <path class="fil94" d="M13710 9683l61 6c-39,33 -13,4 -29,36l-32 -42z"/>
   <path class="fil100" d="M6668 11038c-55,-5 -47,7 -75,-32 24,7 15,0 39,10 26,12 23,12 36,22z"/>
   <path class="fil56" d="M12611 10177l34 -19c-4,18 -28,107 -34,19z"/>
   <path class="fil9" d="M11603 7314c-28,15 -1,24 -45,-1 14,-15 46,-42 45,1z"/>
   <path class="fil37" d="M10521 7890l-13 -7c-18,-49 -26,-1 0,-36 29,23 51,-43 13,43z"/>
   <path class="fil9" d="M5571 6357c-81,13 -37,36 -55,-29l55 29z"/>
   <path class="fil95" d="M6991 7684c-23,19 21,43 -50,7 89,-2 -5,12 34,-32l16 25z"/>
   <path class="fil108" d="M12736 6716l53 -9c-25,40 3,22 -47,29l-6 -20z"/>
   <polygon class="fil37" points="13693,6619 13649,6607 13711,6579 "/>
   <polygon class="fil110" points="5773,8182 5742,8152 5762,8112 "/>
   <path class="fil24" d="M10499 11494c-81,55 -27,13 -47,0l24 -11c2,0 10,3 12,3 2,1 7,6 11,8z"/>
   <path class="fil111" d="M15362 10231l-126 -98c47,1 65,-13 64,26l-11 33 73 39z"/>
   <polygon class="fil47" points="13005,9998 13072,9948 13054,9989 "/>
   <path class="fil74" d="M14249 7478l3 -30 34 13c-16,26 35,27 -37,17z"/>
   <path class="fil121" d="M6140 7302l-36 -18c-31,-6 4,-1 -13,-30l33 14c3,8 -5,9 16,34z"/>
   <path class="fil125" d="M5352 6272c-38,-26 -15,37 -33,-43 30,-7 27,20 33,43z"/>
   <polygon class="fil95" points="12131,7179 12113,7179 12094,7144 12135,7153 "/>
   <path class="fil92" d="M5716 6751l0 26c-53,-18 -22,11 -45,-38l16 0c5,28 -3,20 29,12z"/>
   <path class="fil92" d="M5339 7197c-39,-22 -28,-29 -37,-80l37 80z"/>
   <polygon class="fil40" points="11799,7328 11824,7293 11852,7316 "/>
   <path class="fil95" d="M12256 7107c-58,18 -5,5 -26,-7l33 -38 -7 45z"/>
   <path class="fil108" d="M9736 7922l19 -8c-11,47 16,14 -19,40 -12,-16 -33,34 0,-32z"/>
   <path class="fil61" d="M15640 6231l-9 -2c-8,-43 -13,-15 3,-39 17,24 36,-37 6,41z"/>
   <path class="fil99" d="M14064 7494c-23,14 -17,15 -42,0 15,-11 -34,-39 42,0z"/>
   <path class="fil21" d="M9299 12139l-32 6c14,-55 -3,-7 25,-33l7 27z"/>
   <path class="fil126" d="M16732 7307l-35 -50c33,21 27,-26 30,22l5 28z"/>
   <path class="fil21" d="M9555 7969l0 -3c20,65 39,3 -5,48l-20 -12c55,0 -1,8 25,-33z"/>
   <path class="fil91" d="M9660 7952c-28,18 29,25 -22,7l-43 -10c4,-1 9,-7 11,-3 2,4 9,-2 11,-2 20,2 14,0 43,8z"/>
   <path class="fil104" d="M16094 10982c-31,17 -21,19 -21,-18l-16 -36 37 54z"/>
   <path class="fil97" d="M5878 8829l-38 -37c26,0 14,-19 28,6 2,2 7,26 10,31z"/>
   <path class="fil81" d="M15875 6679c15,-60 19,-12 34,-5l-34 5z"/>
   <path class="fil16" d="M15611 10233l0 -1c37,28 26,-27 19,19l-12 22c-10,-14 -9,-1 -7,-40z"/>
   <path class="fil35" d="M8947 8298l-10 5 10 -40c13,15 37,-46 0,35z"/>
   <path class="fil110" d="M5415 6720l-28 -31 23 -21c-9,30 -8,14 5,52z"/>
   <polygon class="fil95" points="16412,6799 16432,6831 16390,6807 "/>
   <path class="fil121" d="M5601 6629c-34,-19 -21,6 -38,-49l38 49z"/>
   <polygon class="fil26" points="16142,11033 16142,11013 16180,11022 "/>
   <path class="fil104" d="M4900 5871c-89,-34 6,14 -28,-12 -28,-21 -12,-6 -32,-31l60 43z"/>
   <path class="fil61" d="M5189 6715l12 -6 -9 -38c35,-3 22,-7 13,21 -26,84 58,-30 -16,23z"/>
   <polygon class="fil121" points="6563,7682 6516,7638 "/>
  </g>
 </g>
</svg>
