<?xml version="1.0" encoding="UTF-8"?>
<!DOCTYPE svg PUBLIC "-//W3C//DTD SVG 1.1//EN" "http://www.w3.org/Graphics/SVG/1.1/DTD/svg11.dtd">
<!-- Creator: CorelDRAW X8 -->
<svg xmlns="http://www.w3.org/2000/svg" xml:space="preserve" width="210mm" height="297mm" version="1.1" style="shape-rendering:geometricPrecision; text-rendering:geometricPrecision; image-rendering:optimizeQuality; fill-rule:evenodd; clip-rule:evenodd"
viewBox="0 0 21000 29700"
 xmlns:xlink="http://www.w3.org/1999/xlink">
 <defs>
  <style type="text/css">
   <![CDATA[
    .fil109 {fill:#111030}
    .fil102 {fill:#120911}
    .fil99 {fill:#151748}
    .fil75 {fill:#170B16}
    .fil48 {fill:#1B1626}
    .fil42 {fill:#20234D}
    .fil72 {fill:#28151A}
    .fil27 {fill:#281A27}
    .fil108 {fill:#2B0D0E}
    .fil34 {fill:#2B232B}
    .fil52 {fill:#2B2635}
    .fil46 {fill:#2C1833}
    .fil33 {fill:#33232D}
    .fil57 {fill:#342533}
    .fil51 {fill:#351B27}
    .fil123 {fill:#352A34}
    .fil29 {fill:#371819}
    .fil60 {fill:#38272A}
    .fil119 {fill:#382838}
    .fil78 {fill:#3A2B34}
    .fil55 {fill:#3C2D3B}
    .fil2 {fill:#43333C}
    .fil4 {fill:#443443}
    .fil83 {fill:#462A36}
    .fil90 {fill:#493A54}
    .fil12 {fill:#4B3543}
    .fil35 {fill:#4B4455}
    .fil5 {fill:#4C3C4B}
    .fil7 {fill:#4C424C}
    .fil100 {fill:#4D3862}
    .fil91 {fill:#4D4E6E}
    .fil13 {fill:#533C4B}
    .fil31 {fill:#53424C}
    .fil9 {fill:#544453}
    .fil49 {fill:#574957}
    .fil98 {fill:#594A64}
    .fil68 {fill:#5B4453}
    .fil40 {fill:#5B4B5B}
    .fil56 {fill:#5B5465}
    .fil103 {fill:#5E6696}
    .fil37 {fill:#644A58}
    .fil53 {fill:#654C63}
    .fil32 {fill:#65545A}
    .fil50 {fill:#675766}
    .fil92 {fill:#6D4E4F}
    .fil73 {fill:#6D5974}
    .fil93 {fill:#706972}
    .fil70 {fill:#72728B}
    .fil65 {fill:#745967}
    .fil69 {fill:#758AA7}
    .fil61 {fill:#76636A}
    .fil45 {fill:#776875}
    .fil81 {fill:#87777A}
    .fil67 {fill:#877985}
    .fil71 {fill:#8B8389}
    .fil121 {fill:#8C7071}
    .fil101 {fill:#8C8995}
    .fil114 {fill:#90A4B9}
    .fil76 {fill:#9193AB}
    .fil87 {fill:#94ADCD}
    .fil39 {fill:#97888A}
    .fil88 {fill:#978B94}
    .fil43 {fill:#9C9396}
    .fil120 {fill:#9DA7D7}
    .fil24 {fill:#A29495}
    .fil96 {fill:#A49BA5}
    .fil30 {fill:#A59699}
    .fil115 {fill:#AA9C9D}
    .fil110 {fill:#AAA5AA}
    .fil107 {fill:#AAA9B6}
    .fil38 {fill:#AC9EA2}
    .fil105 {fill:#ACB2CD}
    .fil117 {fill:#AD9390}
    .fil106 {fill:#ADA2A3}
    .fil111 {fill:#AF9CA6}
    .fil124 {fill:#B0A39C}
    .fil17 {fill:#B2A3A4}
    .fil18 {fill:#B2A5A6}
    .fil21 {fill:#B3A6A9}
    .fil11 {fill:#B5AAAC}
    .fil113 {fill:#B5ABB4}
    .fil23 {fill:#B6A9AA}
    .fil116 {fill:#B7C6D4}
    .fil1 {fill:#B9ADAE}
    .fil25 {fill:#BAACAC}
    .fil19 {fill:#BAAEB1}
    .fil85 {fill:#BBB2B2}
    .fil84 {fill:#BDB1B2}
    .fil94 {fill:#BDB4BA}
    .fil112 {fill:#C4BBBC}
    .fil63 {fill:#C5BCC1}
    .fil66 {fill:#C9BEBE}
    .fil122 {fill:#CAA79A}
    .fil77 {fill:#CAB7B6}
    .fil41 {fill:#CABBBC}
    .fil0 {fill:#CAC1C2}
    .fil80 {fill:#CBC9D4}
    .fil97 {fill:#CCBEC2}
    .fil44 {fill:#CDC2C2}
    .fil64 {fill:#CEC5C6}
    .fil79 {fill:#D1C6C9}
    .fil74 {fill:#D2C3C4}
    .fil62 {fill:#D2C9CA}
    .fil59 {fill:#D6CCCD}
    .fil22 {fill:#D6D1D3}
    .fil82 {fill:#D8CDD6}
    .fil118 {fill:#D8D1CE}
    .fil58 {fill:#DAD1D2}
    .fil10 {fill:#DBD3D4}
    .fil47 {fill:#DBD9E4}
    .fil14 {fill:#DCD5DA}
    .fil104 {fill:#DDC7B7}
    .fil26 {fill:#DDD5D5}
    .fil8 {fill:#E2DBDC}
    .fil3 {fill:#E3DDE2}
    .fil86 {fill:#E4D8D6}
    .fil20 {fill:#E5E2E3}
    .fil36 {fill:#E6E2DD}
    .fil89 {fill:#E7E7E9}
    .fil16 {fill:#EAE4E5}
    .fil95 {fill:#EBE5E9}
    .fil28 {fill:#EDEAEB}
    .fil54 {fill:#F2ECED}
    .fil6 {fill:#F7F7FA}
    .fil15 {fill:#FAFAFA}
   ]]>
  </style>
 </defs>
 <g id="Ebene_x0020_1">
  <metadata id="CorelCorpID_0Corel-Layer"/>
  <g id="_1602546853280">
   <path class="fil0" d="M4482 13529l26 35c105,1 39,-17 102,21 -86,90 -40,-1 -144,59l47 82c-80,41 -61,6 -53,102 -77,-86 -14,-46 -40,-46 -67,90 -11,-68 -14,19l44 99c-107,-37 -22,6 -94,-51l-34 61c-22,83 -15,38 -42,57 80,26 40,25 56,69 48,-19 14,6 38,-37l21 -49c37,-1 21,-2 57,2l60 20c2,-5 11,6 16,8 -28,62 -1,15 -33,59 -3,4 -16,18 -19,21l-21 21c-205,-22 -97,31 -99,37l-73 -32 -26 65c-208,-2 -54,54 -198,27 -2,-3 -3,-9 -4,-10l-4 -19c-1,-2 -2,-7 -3,-8l-59 -42c75,-39 37,18 51,-81 35,17 43,24 70,25l1 -88c-166,55 76,-36 -160,15l52 -46c3,-3 9,-5 13,-8 35,-32 12,9 23,-49 94,-2 75,11 124,-37l20 -24c55,-51 42,14 60,-81 -6,4 -12,10 -16,13 -59,52 -21,103 -56,52 -2,-4 -9,7 -13,13l-178 -9c21,59 6,24 34,72 -77,-43 -38,6 -69,-71 -198,29 -139,-94 -174,40 -66,-104 -4,-44 -68,-79 -16,22 -50,3 9,97 -122,-101 -18,8 -128,-54 13,-64 38,-22 40,-168l47 -3 -2 -30c51,6 101,-15 104,-23 5,-10 16,-7 24,-10 -18,100 -11,38 10,60l-17 -58c-33,-16 -140,0 -207,2 -143,4 -70,51 -225,33 132,-2 -9,16 48,-38l-51 20 -45 16c41,43 -7,5 53,32 25,10 24,6 36,16 59,18 50,4 132,0 -17,-51 43,-41 -26,-50l80 6c-19,59 -15,19 18,59l-36 26c-20,48 9,-26 -6,35l-11 39c-29,-10 -26,38 -48,-68 -113,8 -36,-4 -64,31l24 40c-47,38 -40,25 -107,10 -52,-10 -1,-24 -29,7 35,59 51,54 64,94 -141,26 59,-126 -222,40l-46 -57c-11,61 3,40 -53,70l-42 -70c-23,26 42,34 -60,17 -13,24 4,24 -24,37 22,15 42,23 56,59 40,107 -5,72 -9,80 -80,-27 -38,-40 -74,-97 -26,36 -51,-57 -10,91 -211,-2 -28,95 -222,59 77,-194 204,-69 192,-211 -57,13 -65,7 -65,81 -104,-41 -39,36 -77,-69l-51 70c-2,-3 -7,10 -10,15 -8,-123 68,-152 -32,-145l-69 18c-24,21 30,17 -63,44l-47 -1c-8,52 -133,36 -199,56l-29 81 -51 -40c-84,-20 -41,-15 -94,3 -2,5 -4,12 -5,16 -2,5 -5,13 -7,18 -2,5 -17,32 -21,37l63 -29c50,56 -18,-18 44,17 21,12 31,11 35,51 -36,35 7,32 -125,11l-17 -61c-43,7 -87,28 -105,32 -114,20 -49,27 -71,-39 -4,4 -10,10 -13,14 -2,3 -8,9 -11,14l-110 191c-37,57 -104,138 -126,194 -13,128 22,7 5,85l-70 -4c-17,28 -42,71 -63,103 -31,46 -36,41 -73,88 60,-18 92,-50 80,41 83,-29 115,-41 191,-69 64,-24 113,-34 172,-61 48,58 122,85 199,110 95,30 107,58 237,80 -14,-52 -17,-18 2,-55l97 54c20,-14 37,-24 70,-33l68 -26c2,3 4,6 5,7l-20 66c-14,42 -12,1 13,71l-67 -8 123 -78c182,55 144,23 240,34l29 6c5,2 21,11 24,12 3,1 12,9 14,5 2,-4 9,3 14,4 47,30 65,19 129,26 -4,-63 -14,-24 11,-57 5,2 12,7 16,9l33 15c42,14 8,5 52,6 -26,-25 -15,-11 -31,-23l-45 -35c2,0 67,-6 69,-6 90,-1 -17,-19 29,8 -54,-46 -90,-147 94,-162l71 58c-60,49 -7,-7 -34,52 51,16 3,-22 62,41l50 -15c61,-10 31,-3 56,8 -58,115 -2,0 -82,60 64,55 38,-4 85,78 44,-75 -3,-14 50,-55 43,10 47,12 79,21 23,-84 11,-53 89,-71 24,45 38,79 34,142l-101 20c62,37 184,32 280,46l-17 -45c59,2 21,5 62,-7l29 -24c5,4 11,9 15,11l26 21c2,2 7,6 9,8l21 13c151,-30 41,-28 87,17 41,-79 -1,-20 64,-69 76,-57 -19,-32 114,-47 -40,67 2,36 -76,81 4,3 10,7 12,10l44 54 40 -48 22 104c98,-19 81,-19 136,-3 0,6 2,13 1,17 -1,4 -1,12 -3,16 -18,43 -29,36 -56,64 68,-31 100,-74 137,-134 117,-14 97,-17 210,-50 -54,60 -24,26 -14,86l-200 2c59,35 76,50 24,112 -26,-9 -35,48 -29,-23 -166,9 -48,-15 -109,48 76,44 -53,-77 40,34l18 27c20,27 13,22 40,51l24 -15c50,-41 35,-55 49,-75 2,-4 4,-10 7,-14l99 -42c170,-6 51,1 98,34 -6,4 -13,8 -18,10l-93 40c-76,55 69,52 -98,42 42,112 30,56 5,89 -63,0 3,9 -69,-32l22 62 81 8 12 -26 129 9c6,78 -2,54 58,86 -32,22 41,20 -42,19 29,37 34,41 80,60 41,16 69,27 111,40l-1 -94c45,42 59,44 83,103l-56 0c27,31 10,18 50,42l165 74c144,50 86,63 191,126 -7,147 26,128 98,199 141,140 106,88 105,172l77 -19c32,81 37,57 88,110l99 98c80,89 75,124 221,189l24 -47c57,34 18,-12 28,48 33,-23 56,-37 108,-62 19,-84 17,-84 -29,-136 58,19 48,29 74,80 115,-47 -65,66 42,-24l52 28c31,-22 23,-9 48,-40l28 52c-119,20 -79,26 -102,70 184,16 147,-36 139,-110 66,-39 16,30 71,-63 5,3 12,2 15,8l75 12c29,-107 -13,-50 49,-79 5,21 53,-68 -12,49 -34,62 -23,18 -38,107 85,-26 25,-16 116,-79l-13 72c4,1 9,0 11,3 11,29 42,-59 134,-9 -4,3 -10,3 -12,9 -2,6 -10,7 -13,9 -21,14 -8,-2 -25,14 -32,31 -24,33 -39,80 86,-6 44,-7 109,-17 12,26 2,14 18,37 36,49 -3,9 41,43l-30 41c16,101 -4,12 21,55l-25 37 90 62c-330,-14 -307,-87 -290,84 -17,1 -44,0 -63,3 -55,10 -19,-4 -52,21 20,9 118,29 156,51 54,31 50,73 134,59 0,-63 79,-29 138,-26l40 -41c-74,45 -45,37 -107,-27l38 -29c79,-65 1,-51 72,-107 19,-14 143,-66 175,-68 27,45 41,205 153,105 -12,-27 1,-4 -20,-34l0 -44 71 22c25,-49 31,-59 101,-71 -62,87 -35,74 -103,97 40,51 30,29 4,76 32,-23 -56,-14 34,-16 49,-2 61,6 64,24 1,7 6,10 8,13 1,3 4,10 6,14 75,117 56,-14 97,124 2,19 -30,14 52,42 32,10 8,-1 47,11 51,16 24,11 33,16 67,35 50,3 86,66l59 8 20 -16c92,59 134,9 237,88 89,-29 228,-41 325,-8 72,3 67,14 94,14 101,-1 -15,-60 194,30 47,-54 65,-48 142,-75 149,-52 51,37 306,-33 69,-20 26,-32 146,-21l33 -36c46,-41 130,-57 184,-73l89 -13 17 -65 -93 -39c-33,-31 -16,-5 -50,-41 79,-1 55,11 107,-16 -4,-44 42,-5 -40,-44l61 -12c-25,-47 -34,-25 -9,-88l24 -54c-44,-29 -16,-37 -78,-77l16 53c-52,59 -20,25 -38,63 -19,39 -16,31 -45,58l-59 76c-51,-75 -43,-66 -117,-81l-34 56c-74,-27 -103,-25 -146,-90 -60,28 -61,18 -89,-55l-53 -5 42 18 -36 61c-44,47 -45,31 -101,38 22,-132 -25,-61 76,-113 -20,-107 -2,-82 21,-184l-38 -12c-38,5 -17,3 -36,13 -29,16 -75,39 -75,75 0,46 -5,5 8,59 -16,-5 -68,-24 -80,-24 -41,-2 -47,8 -69,28l-13 -40c-105,27 -74,48 -122,-8l-206 24c-12,56 -14,95 -59,130 -3,2 -10,8 -15,12l19 75c-29,30 -16,62 -44,100l-106 -12c3,-37 11,-79 14,-100 8,-58 -23,0 28,-63 -27,-54 -40,-59 -15,-117 59,19 17,-34 28,73l84 -20c11,-69 -11,-76 28,-121 2,-3 9,-8 13,-13 -10,-20 -27,-33 -20,-75 1,-5 11,-25 13,-31 -156,-17 5,-28 -95,-77 -77,-38 -168,39 -174,-79l-5 -88c-103,-32 -91,26 -189,44l0 -89c-117,16 -55,8 -86,-61l-98 -94c-74,-66 -14,-123 -151,-115l-100 12c9,-65 29,-18 10,-108l-31 -109c-6,-1 -13,-12 -18,-6 -5,7 -15,-4 -21,-4 -6,-1 -52,-2 -59,-2l-20 67c-27,-61 -63,-50 -79,-114 22,21 -29,27 17,12 47,-16 55,-66 79,-112 -71,-13 -44,2 -75,-42l38 -126c-61,28 -108,51 -138,109 -70,-80 -98,-30 -192,-41 58,-69 -15,-44 136,-43 20,-37 25,-38 41,-92 46,82 1,26 74,68 -2,-70 -24,-70 49,-82l-29 -54 -59 25c-4,-6 -10,-21 -12,-17 -2,4 -11,-17 -20,-30l-59 -98c-60,-83 59,75 -20,-24l-22 -28c50,-56 69,-37 -6,-108 -31,18 -49,-9 -48,63 1,98 59,105 101,167 28,43 19,51 39,90 -57,-10 -48,-16 -81,-44 -65,-56 -7,-33 -110,-35l-14 -85c-64,1 -85,-19 -128,-48 -78,-53 -107,-63 -123,-174l56 22c17,7 34,11 46,17 53,24 48,36 119,53 -12,-46 -20,-67 -36,-100 99,36 28,41 146,51 -27,-72 2,-10 -58,-86l27 -23c19,-23 8,-4 27,-37l-87 -32c-5,0 -18,1 -24,1l-164 -4c-4,-1 -10,-3 -14,-4l-107 20 -2 -80c-39,89 -52,113 -150,52l-30 -20c-32,-21 -35,-75 -44,-111 3,-4 9,-16 10,-13l56 -100 118 -19c40,41 19,-50 40,63l20 -50 80 31 -5 -8c-21,-97 -35,-66 -86,-130 -14,-18 -10,-6 -25,-51 76,-37 73,-1 154,-42l46 28c25,5 2,7 62,-20l-3 162 -65 -61c-33,88 1,22 -41,72 12,17 4,28 21,53l7 -13 -6 -2c206,-7 41,44 217,92 -18,-51 10,-15 -25,-64 -37,-52 5,-11 -19,-7 66,-40 45,-59 89,24 48,-13 62,-19 95,-35 -1,117 19,100 56,189l26 5 53 -40c84,34 106,50 147,107 38,-51 4,-14 63,-43 11,21 18,34 29,61 14,-82 1,-22 20,-65 82,17 52,-4 94,36 28,26 42,47 64,78 -11,52 -10,48 -27,79 75,62 -26,-18 68,20l-24 68c-2,5 -8,11 -12,17l76 -4c33,-49 -26,-21 42,-35 74,-15 78,42 69,89 -85,20 -31,28 -56,-22 16,86 43,65 100,121 28,28 68,103 118,122 49,16 50,29 94,45 31,11 27,6 63,17 14,5 30,13 44,18 46,0 35,-12 35,31 -6,-29 -4,-1 29,-15l50 -10 6 45 72 15c104,45 28,36 112,82 71,32 23,34 111,74 -12,-23 -5,-27 -24,-45 25,-24 -44,-44 43,-12l-73 -61c-10,41 -3,26 -25,44 -22,-15 -39,-8 -44,-51 -10,-80 -33,-16 33,-51l-29 -49 -86 -8 -64 -89c-75,-9 -33,47 -81,-59 31,-24 -59,-64 57,-3l-45 -36c-4,-3 -10,-4 -15,-7 -100,-65 12,-41 -106,-91l-1 -58 -22 -6c-69,81 0,15 -150,-77 -82,-50 -78,-96 -130,-128 -25,-15 -56,-21 -96,-43 -198,-112 -48,-95 -230,-160 29,64 21,51 29,127l-49 -70 -41 40 1 -98c-70,-42 -100,87 -138,-57 -59,47 -1,12 -60,34 -50,-87 10,-26 -50,-69 43,-22 20,2 30,-50 -79,-16 -35,-7 -78,-40 35,-18 -54,-57 59,0 -68,-90 -176,-149 -274,-203 -89,-50 -15,-32 -163,-171 -37,-35 -20,-23 -66,-45 -51,41 -58,12 -78,55 -25,51 24,25 -13,92 -111,5 -36,10 -82,-20l-52 -44c6,-3 12,-9 18,-10l50 -7c2,0 38,15 46,17 9,-91 -13,-60 42,-112l75 33c-46,-59 -1,-19 -79,-60 -33,-17 -33,-23 -58,-38 -39,-23 -109,-39 -148,-49l-56 -21c-9,52 -12,56 -33,100 -39,-33 -28,-22 -41,-90 -111,39 -160,17 -256,-21 -54,-21 -67,-34 -95,-44l-67 -32c-3,-7 -10,-5 -16,-7l-59 67 37 20c7,2 13,3 20,4 7,1 65,-12 65,-12 49,57 24,-29 36,70 57,-11 44,-23 49,-30l11 -18c18,21 6,-1 28,42 66,122 16,84 16,84 -35,36 -64,-3 -115,-21l53 96 -3 192c-5,4 -19,14 -24,18 -4,4 -9,8 -13,11l-58 35c-7,-87 0,-85 6,-151 -30,26 -50,14 -90,5 71,-83 21,0 54,-95l-87 16c2,-2 9,-8 11,-10l23 -22c-71,-35 -54,-5 -67,-90 68,50 68,23 106,-9 -89,-106 -58,-4 -165,-79 1,-65 -13,-42 24,-46l-21 -53c-125,-136 -103,61 -128,1 -1,-3 -4,6 -7,9l-40 -52c-31,24 15,17 -39,19 -21,1 -34,-10 -44,-13 -47,-13 -5,-14 -54,-2 -139,34 -73,-5 -79,-32l-97 -5c17,63 25,11 -2,47 -92,-45 -20,-23 -88,-72l18 -9 -92 -47c-30,24 -31,30 -36,49 -47,-58 -33,-51 -31,-118 -22,-26 -59,-48 -87,-77 -21,30 -12,10 5,71l-49 -8 82 61 -52 59c-1,-2 -4,5 -6,7l-36 -25c-80,-67 -85,-112 -181,-116 56,-48 19,3 52,-82l-73 7 0 73 -82 6 56 72c-47,-13 -58,-24 -92,-42 -24,21 -4,1 -32,28 -22,22 -21,23 -30,33 66,13 46,-25 85,57 -81,20 -105,5 -162,4 4,-47 6,-54 6,-102 11,-3 55,-16 56,-16 48,-23 17,2 48,-37 27,-35 12,-37 -3,-94 65,7 65,7 102,-16 -38,-23 -41,-27 -100,-31l13 -45c-37,20 -29,13 -62,39 -77,-22 -23,-36 -107,-32l22 77 -66 -18z"/>
   <path class="fil1" d="M9141 16816l19 -4 53 5c28,73 29,83 89,55 43,65 72,63 146,90l34 -56c74,15 66,6 117,81l59 -76 -26 2c-46,-2 -40,-119 -49,-160 -265,-22 -153,62 -251,6l23 -213 12 -96 -35 50c-1,-3 -4,8 -6,12 -175,-26 -184,-94 -172,-205 90,0 7,-24 87,19 -18,-34 -28,-80 -48,-119 -18,-35 -3,-10 -37,-41 -18,-16 -24,-21 -36,-33l-133 -80c-5,29 -2,91 -89,72 -1,-4 -3,-10 -3,-12l1 -28c1,-4 4,-12 5,-16l11 -38c-125,-6 -92,12 -136,-91 55,19 89,18 134,90l79 2c9,-85 4,-85 -129,-231 25,-39 -68,-55 52,-23 -43,-32 -11,-13 -32,-39l-43 -34 -9 32 -40 -10c-88,-40 -40,-42 -111,-74 -12,72 14,28 -28,64 -52,-35 -12,27 -56,-60 -24,-47 -16,-42 -28,-86l-72 -15 -65 12 9 -47c-33,14 -35,-14 -29,15 0,-43 11,-31 -35,-31 0,0 -20,83 -121,62 -132,-27 4,-25 -87,-73l7 -69c-50,-19 -90,-94 -118,-122 -57,-56 -84,-35 -100,-121l-55 -32 -76 4c4,-6 10,-12 12,-17l24 -68c-94,-38 7,42 -68,-20 17,-31 16,-27 27,-79 -22,-31 -36,-52 -64,-78 -42,-40 -12,-19 -94,-36 -19,43 -6,-17 -20,65 -11,-27 -18,-40 -29,-61 -59,29 -25,-8 -63,43 -41,-57 -63,-73 -147,-107l-53 40 -26 -5c-37,-89 -57,-72 -56,-189 -33,16 -47,22 -95,35 -44,-83 -23,-64 -89,-24 24,-4 -18,-45 19,7 35,49 7,13 25,64 -176,-48 -11,-99 -217,-92l6 2 10 60c-113,53 43,62 -120,58 14,-96 31,-69 35,-94 1,-9 7,-10 10,-14l-80 -31 -20 50c-21,-113 0,-22 -40,-63l-118 19 -56 100c-1,-3 -7,9 -10,13 9,36 12,90 44,111l30 20c98,61 111,37 150,-52l2 80 107 -20c4,1 10,3 14,4l164 4c6,0 19,-1 24,-1l87 32c-19,33 -8,14 -27,37l-27 23c60,76 31,14 58,86 -118,-10 -47,-15 -146,-51 16,33 24,54 36,100 -71,-17 -66,-29 -119,-53 -12,-6 -29,-10 -46,-17l-56 -22c16,111 45,121 123,174 43,29 64,49 128,48l14 85c103,2 45,-21 110,35 33,28 24,34 81,44 -20,-39 -11,-47 -39,-90 -42,-62 -100,-69 -101,-167 -1,-72 17,-45 48,-63 75,71 56,52 6,108l22 28c79,99 -40,-59 20,24l59 98c9,13 18,34 20,30 2,-4 8,11 12,17l59 -25 29 54c-73,12 -51,12 -49,82 -73,-42 -28,14 -74,-68 -16,54 -21,55 -41,92 -151,-1 -78,-26 -136,43 94,11 122,-39 192,41 30,-58 77,-81 138,-109l-38 126c31,44 4,29 75,42 -24,46 -32,96 -79,112 -46,15 5,9 -17,-12 16,64 52,53 79,114l20 -67c7,0 53,1 59,2 6,0 16,11 21,4 5,-6 12,5 18,6l31 109c19,90 -1,43 -10,108l100 -12c137,-8 77,49 151,115l98 94c31,69 -31,77 86,61l0 89c98,-18 86,-76 189,-44l5 88c6,118 97,41 174,79 100,49 -61,60 95,77 -2,6 -12,26 -13,31 -7,42 10,55 20,75 -4,5 -11,10 -13,13 -39,45 -17,52 -28,121l-84 20c-11,-107 31,-54 -28,-73 -25,58 -12,63 15,117 -51,63 -20,5 -28,63 -3,21 -11,63 -14,100l106 12c28,-38 15,-70 44,-100l-19 -75c5,-4 12,-10 15,-12 45,-35 47,-74 59,-130l206 -24c48,56 17,35 122,8l13 40c22,-20 28,-30 69,-28 12,0 64,19 80,24 -13,-54 -8,-13 -8,-59 0,-36 46,-59 75,-75 19,-10 -2,-8 36,-13l38 12c-23,102 -41,77 -21,184z"/>
   <path class="fil2" d="M4805 12989l-152 33c65,72 -18,-4 39,32l39 16c0,1 1,57 -76,33 -42,-13 -42,-41 -62,-77l9 -19 -48 -2 -6 26c-31,117 18,35 -54,79 -28,-47 -51,57 -8,-82l-4 -20 -67 19 6 20c-28,50 17,6 -35,59 -30,29 2,13 -41,7l5 -73c-130,3 -541,69 -628,130l27 118 -86 50c-24,-44 0,-35 -53,-35l2 -126 -13 70c-166,-11 -113,-6 -236,47 -20,4 -38,5 -60,11 -86,24 -43,-19 -77,42l41 0c-62,50 -7,48 -79,94 -8,-35 -31,51 -6,-69l-89 -9c-24,20 11,1 -43,28 -4,2 -15,10 -19,5 -3,-5 -13,3 -19,5l-3 -6 2 29 -4 79 -56 -3 14 -69 -53 7 6 4 -25 66c-1,4 -1,36 -3,51 -49,-7 -25,-11 -61,4 -3,1 -8,6 -12,7l-32 15c-3,-6 -13,4 -20,6 25,-82 -9,-53 87,-78l-40 -54 -33 24 -5 59 -87 -5c-39,12 75,52 -74,1 0,70 3,41 -24,76 -50,-69 -8,-35 -90,-37 -33,46 -63,69 -119,59l-44 9c-15,20 17,2 -29,28 -27,14 -27,8 -54,13 -131,19 -203,107 -221,200l-12 62c93,-36 31,-35 119,-4 -15,-79 -12,-21 23,-47l37 -13 4 88 38 4 22 -12c29,-55 13,-35 7,-91 69,7 45,19 87,56 66,-72 27,-36 105,-21l5 -61 105 18 69 -18c30,-24 52,-47 72,-66l105 4 4 -38 -48 -102 78 -18c2,7 7,33 8,46 2,37 4,21 -7,41l119 -30c66,20 107,3 139,-47l-60 13c12,-15 0,-16 40,-45 42,-30 1,-11 60,-19l8 41 57 -9 45 -1 49 -17 45 -16 51 -20c61,-29 187,-71 237,-117 41,-16 146,21 202,-17l35 -25c34,-19 409,-97 482,-78l36 -41 34 30c32,-2 49,-1 84,-7 56,-10 73,23 55,-23l339 -5c-34,-23 20,-11 -74,-34 -5,-2 -24,1 -30,1 27,-43 -52,-26 63,-24 25,0 23,10 57,2l43 53 78 13 81 -17c35,-35 -49,-29 46,-29 36,56 11,11 30,81l-54 -45c-4,-10 -11,-9 -16,-14l7 58 145 -22 59 24c-13,-54 -16,-24 0,-50 30,31 31,-47 20,59 104,-6 228,82 356,87l3 -7 23 17c70,54 -44,-46 24,17 27,24 7,-1 25,38 50,-13 40,-11 90,-28 31,78 -27,36 72,51 20,-30 -55,-64 93,-19 -7,55 18,17 -24,40 27,30 -12,32 73,10 2,113 -9,28 36,64l-27 -105c48,24 87,37 146,52 -42,40 60,67 -62,22 4,5 8,11 11,13 3,3 8,9 11,12l59 44c45,33 46,32 100,53l-22 -41c31,-4 26,-18 84,20 66,44 -50,-50 21,17 41,37 25,50 74,86l-60 -5c78,77 155,72 196,86 57,19 9,6 50,31 81,49 65,11 99,104 82,9 106,7 171,41 48,25 93,38 153,68 143,72 96,75 283,171 -10,-47 -8,-39 0,-56 74,68 42,15 14,51 22,39 13,29 54,50 4,-9 -28,-60 82,23 17,13 32,17 41,44 19,57 47,18 -20,46l29 18c55,33 -10,-13 28,15 75,54 10,51 88,108 28,21 48,31 80,58 73,64 37,114 64,69 3,-4 10,9 14,14l14 -42c75,30 -1,21 93,73 46,25 60,9 96,81 15,31 16,46 19,102 148,33 15,63 185,85l53 113c-18,76 11,-3 -29,23l1 58c118,50 6,26 106,91 5,3 11,4 15,7l45 36 24 62 64 89 86 8 29 49c30,59 -5,7 50,39 -53,-109 -24,-26 15,-58 43,38 121,106 125,177 44,51 11,4 -8,30 21,26 -11,7 32,39 94,49 47,59 104,113 50,47 -41,-33 25,18 4,3 10,7 13,9 3,3 9,7 14,10 19,6 12,-3 47,14 -50,-113 -21,-21 26,-58 24,47 -6,19 54,46l-25 66c43,55 66,46 132,78l-44 -69 134 21c-11,16 -33,-24 -12,70 17,72 -12,21 47,61 -32,65 27,15 -58,31l111 60 59 -6c-26,-86 -45,-47 -1,-62 -37,-158 -13,-29 22,-82 50,23 16,24 -3,-25 -2,-5 -6,-15 -8,-23 55,44 13,17 90,25l-30 -38 -2 -37 -26 -18 -85 61c-15,-61 -28,-35 16,-88l7 -26 -9 -9c-37,-22 -18,-9 -51,-13l-29 12c53,28 -19,63 -60,76 -31,-89 -58,-59 -24,-144 36,16 19,12 81,15 -19,-41 -24,-48 -48,-77l-28 4c12,-36 17,-27 -20,-19 -34,-33 -18,-7 -10,-64 -7,2 -67,19 -77,17 -54,-10 -18,17 -44,-31 -42,-81 -8,-23 -46,-42 -23,-54 7,-2 -34,-45 -25,-27 -18,-6 -29,-40 -38,-24 -24,2 -47,-63 -16,-14 -31,-22 -43,-35l-55 -67 4 55c-101,-87 -22,13 -145,-133l39 -8c-30,-31 8,-8 -37,-30 -8,-4 -43,-14 -52,-18 39,84 16,16 -23,43l-36 -74c-1,-3 -5,-8 -6,-10 -13,-39 -72,29 7,-21 -4,-4 -10,-16 -12,-12 0,0 -15,-16 -22,-23l-91 -110c-2,-3 -6,-8 -10,-12l-11 21 -78 -56c-14,-75 -7,-11 25,-44l0 -62c-101,-46 -28,7 -83,-83 -41,-68 -25,-56 -82,-93l36 64c-55,-19 -26,-1 -59,-21 -51,-31 -31,-26 -46,-41l74 2c0,-36 6,-24 -35,-14l-99 4c2,-4 6,-17 7,-14 0,2 23,-22 3,-96 -59,-92 -84,-77 -117,-106 -34,-29 -18,-34 -52,-66 -65,-62 -19,23 -64,-68 -71,9 -29,18 -86,-17l46 -16c-22,-27 -3,-15 -33,-38 -32,-25 -5,-4 -50,-30 -2,75 23,14 -20,60 -26,-47 13,-2 -53,-39 -106,-59 -86,-83 -137,-131l-206 -127c23,-21 -39,-36 40,-12 -36,-131 -6,-38 -129,-135l-235 -124c-95,-30 -36,18 -125,-45 -28,-17 -51,-32 -68,-43 -133,-15 -205,-77 -277,-133l-278 -155c-74,-14 -6,-19 -100,5l-5 -46 -12 -42c-89,-8 -69,-24 -159,-38l-66 27 -6 -67c-7,-27 -183,-27 -222,-27 -152,-176 -273,-42 -347,-176 -80,-1 -33,-7 -49,20l59 11 -30 117c-60,3 -11,-1 -90,-41 6,-73 -60,-41 29,-51 -34,0 -20,6 -19,-36l-67 -21 32 33 -50 -7 -62 -14 -56 42 -45 -26 -2 -71 -37 -14c-31,46 25,24 -77,46l-184 -28z"/>
   <path class="fil3" d="M13254 12331l27 22c7,5 35,23 39,26 66,40 96,39 178,100l78 74c190,195 177,84 235,168 7,1 38,2 42,4 43,13 25,-2 50,23l48 75 9 -11 36 9c55,8 -1,0 24,37 120,29 272,154 346,242l21 -2 193 82c30,11 9,-10 50,29l11 -41 81 55c126,-26 4,-56 117,-32 90,19 -12,46 131,44 -10,-227 3,-113 -39,-195 90,-22 213,-97 150,-207 1,-1 25,-16 36,-22 58,-33 -22,1 55,-26 -17,-104 -9,-108 26,-190 17,-41 9,-1 14,-64 2,-33 9,-59 16,-94l-92 -51c32,-57 -11,-1 29,-37l37 -31c-52,-48 -43,-25 -99,-59l20 -98c-10,-4 -25,-12 -28,-15l-37 -26c15,-96 8,-23 38,-98 -30,-14 -111,-38 -153,-40 38,50 1,30 75,45 -24,21 -21,14 -30,49 61,38 16,-10 44,55 9,20 17,46 28,73 -123,9 -45,45 -138,40 -70,-4 -55,-20 -63,-25 44,-61 -7,-24 75,-53 -78,-128 -33,-11 -127,-85 41,-102 18,-35 113,-72l-116 -14 -115 112c-37,25 -90,-9 -183,-5l-39 58c-97,-23 -54,-28 -119,-75l-50 44c-2,2 -6,8 -9,11 -30,-23 -17,-12 -60,-30l-23 25c-22,17 -2,7 -36,22 -55,-47 -5,-23 -79,-40l-40 91c-44,-19 -95,-30 -158,-30 -3,4 -8,6 -10,13 0,1 -22,41 -49,40 -57,-25 -21,-3 -52,-79l-34 16c-70,36 15,-2 -28,16 -26,10 -43,11 -77,15 24,83 3,40 -7,54l-60 -56c-62,25 -41,21 -119,24 -13,-70 -12,-63 -58,-101 -1,66 -6,38 17,80 -2,1 -25,25 -28,29l-134 24c26,100 37,36 0,78z"/>
   <path class="fil4" d="M9537 16292l70 38c-28,32 44,33 -51,24 0,33 -6,22 32,11l17 14c40,-26 -50,-50 47,-17l38 72c-37,21 30,39 -45,12 49,117 78,57 106,145l122 46c-6,87 -10,34 19,74l79 3 16 76c32,78 1,38 62,82l104 48 42 -33c52,103 54,-2 141,141 -23,29 74,34 -51,20 85,69 271,147 333,207 97,94 37,65 175,108 156,50 80,60 171,87 243,72 77,26 191,77 131,59 402,69 592,194 18,7 37,12 50,18 57,26 23,10 47,26 20,6 58,22 76,27 97,28 122,18 212,106 102,-20 105,4 218,34 121,32 350,32 495,46 222,22 119,53 217,35 0,-49 -11,-35 40,-35 -20,-20 1,-50 19,-78 159,31 4,10 84,40 2,1 67,11 96,19 -70,55 -57,12 -67,74 10,11 -38,23 52,12 25,-3 50,-13 68,-20 4,-5 9,-19 11,-15 2,4 8,-11 11,-14 3,-3 30,-31 30,-31 34,-21 49,-12 82,-8l-21 62 53 -26 30 -23 -13 0 0 -72 29 -21 -66 1 37 -65c-136,-7 -200,-30 -337,-39 -101,-6 -212,-84 -257,-53 -26,131 55,64 -46,101 -17,-36 0,7 -13,-42 -6,-19 -3,-19 -15,-58l-381 -44c58,85 23,23 0,43 -40,-22 -21,3 -20,-41l-81 2c-61,-89 -152,-54 -273,-81 -150,-33 -134,-91 -235,-127 -57,-21 -88,-17 -141,-32 -53,-15 -63,-44 -114,-65 -98,-39 -152,6 -246,-101l-75 28c-68,-78 -108,-32 -211,-95l-9 50c-73,-47 -24,-27 -117,-55 -115,-35 -59,-27 -85,-77 10,36 -5,1 35,11 -37,-42 -29,-28 -83,-48 -1,89 65,-14 -25,49 -28,-46 -21,-33 -73,-51l38 -35c-15,-15 -12,-16 -36,-34l-249 -150c-125,-66 21,-46 -140,-106l-48 -72 -32 7 -55 -1 58 73c-119,-36 -37,-46 -72,-14 -3,2 -11,9 -14,11l-51 23 -2 -57c-8,-62 -28,-96 -117,-54 -7,-15 -15,7 10,-54 -65,-29 -62,-28 -88,-100 142,-33 124,76 118,-33l-36 -35 -23 6c-57,-15 -41,-12 -102,-16l-58 0c-4,-4 -8,-11 -11,-14l-47 -19c-3,-8 -14,0 -23,0l27 -103c-87,-20 -150,-100 -190,-165 -42,72 4,18 -50,44l38 49 -43 53z"/>
   <path class="fil5" d="M7301 9167c-18,56 31,45 -37,45 -3,2 -8,1 -9,5l-103 14c5,72 0,27 -26,47 -36,-18 -27,-5 -42,-39l-97 -27c0,39 -5,86 7,124 22,66 -7,-1 45,52l35 -1 71 23c-58,-77 -22,-19 1,-42 46,25 25,-3 19,40 153,-11 221,-13 351,4l6 -43c10,-57 16,-11 -1,-61 9,3 36,19 40,20 75,26 -73,0 18,-1 37,0 -1,-42 44,23l-42 78 79 -7 49 9 23 -54c76,3 5,-6 36,34l67 -6c112,-9 -70,23 44,-5l33 -23c-75,-13 -68,5 -119,-26 39,-11 27,15 105,1l13 -51c84,-7 25,-31 85,27 86,-30 62,-79 133,24l-34 59c-121,-15 -70,43 -99,-55 -42,30 -43,11 -39,72l19 16c79,-6 17,-12 98,-11 69,1 25,39 69,-15l71 9c-65,-82 45,-54 76,-36 46,-27 57,6 81,31 45,6 35,17 35,-26 81,90 92,-48 203,69l-109 -8c0,52 26,19 67,27 43,9 63,14 102,28 -62,-105 -22,-23 0,-59 48,39 27,3 20,60 23,6 98,23 110,28 57,25 -6,20 85,52 22,-33 -35,-22 42,-27l18 49c68,65 119,50 190,72 -27,-79 -13,-15 16,-40 35,44 15,16 36,63l-60 -22c10,103 -13,-29 142,100 -48,-116 -18,-20 20,-59 58,91 52,23 107,84 5,5 17,35 29,47 17,18 37,23 63,41l-69 -1c11,9 -2,14 52,38 73,34 23,9 47,7 56,47 25,-49 43,38l60 -23c-16,29 -16,34 -33,53 40,0 4,-3 52,31l0 16 57 11 13 -47c65,30 48,28 98,79 -28,24 12,14 -55,15 121,148 270,127 420,303 177,206 86,106 253,207 22,-33 -54,-65 177,17 119,43 24,48 156,80 -60,81 39,27 -47,19 29,63 71,104 166,111 70,-16 55,32 178,113 162,105 30,-14 166,132l57 -6c14,82 -21,13 43,78 -25,16 -10,13 -62,15 5,4 11,2 14,9l55 29c14,11 39,51 50,63l57 8c48,2 28,-6 70,11 -19,31 4,15 -38,30 17,29 -24,13 54,39 16,-20 27,-23 67,1 40,25 39,38 31,62 49,81 41,55 142,72 1,1 17,27 18,29 49,54 3,12 56,47l-36 -49 77 26 -44 16c4,4 10,5 13,11 2,7 9,8 12,10 37,17 11,7 42,13 28,-6 23,-6 35,-13l42 -25c4,-2 11,-6 17,-8 82,46 102,66 92,172 14,20 -10,6 22,28 48,34 18,12 56,24 35,-10 8,5 36,-34 23,-33 32,-47 52,-84 -42,-72 -77,-87 -147,-111l-6 41c-45,-29 -42,-54 -81,-101 -46,-32 -77,-67 -112,-104 -54,-56 -68,-41 -143,-77 7,57 -13,30 -65,13 -48,-16 -38,-21 -57,-45 25,-28 -12,-8 38,-13 -26,-35 -32,-41 -64,-67 -11,127 -96,-44 -162,-78 -153,-78 -19,0 -94,-76 -150,-153 -144,1 -268,-221 -96,-9 -34,-17 -134,-71 38,-34 -15,-16 49,-8 -37,-47 -34,-37 -78,-82 -51,-53 19,-28 -89,-49 -46,-58 -125,-74 -210,-86 48,39 -68,44 54,33 -133,16 -21,17 -138,-48 -145,-80 15,20 -53,-27 -144,-99 -39,-74 -133,-126l37 -5c0,-33 7,-23 -30,-18 -70,-7 -20,9 -38,-47 -114,27 -66,-4 -68,-46 -35,-62 -10,-33 -66,-72l39 72c-79,-20 -94,-25 -147,-63 -60,-44 -112,-53 -28,-99 -4,-4 -8,-17 -10,-14 -3,4 -8,-10 -12,-12 -32,-25 -5,-8 -47,-28l-5 51 -88 -61 54 6c-96,-130 -98,-90 -199,-163 -65,-46 34,-38 -99,-23 -13,-131 -59,-36 -247,-223 -53,-54 -38,-23 -95,-58l-128 4 -11 -78c-43,-36 -128,-79 -169,-98 -75,-34 -121,-74 -193,-86l-28 23c-22,-42 -41,71 -15,-62l-66 14c-55,12 -275,-46 -356,-65 -165,-39 -278,-9 -422,-30l-63 -17c45,100 33,46 20,76 -128,38 -72,4 -99,-13l-15 -39 -34 -8 -5 49c-63,-5 -20,15 -60,-25 -92,0 -5,7 -44,-36 -107,-12 -229,-10 -320,-9z"/>
   <path class="fil4" d="M19425 14823l-43 6c-36,24 -69,30 -108,43 -33,11 -30,2 -57,22 -47,35 -16,16 -28,44l-90 71c31,86 34,23 -9,102l47 49c-80,-26 -37,-123 -139,-75l4 -16c-4,6 -8,13 -11,18l-42 64c-2,-3 -7,10 -10,13l-81 6c-36,106 -1,77 -86,103 51,-64 15,11 40,-81 -39,16 -28,13 -82,11 13,73 49,18 -11,61 -56,40 -35,-18 -36,-19l-31 32 -20 -9c-5,4 -10,9 -13,12l-59 51c-8,18 -18,66 -43,78 -106,54 -70,-14 -77,-31l-93 59 -81 40 -39 7 15 60 -37 -30c-47,20 -54,25 -94,52 -16,10 -21,13 -36,22l-54 35c34,32 34,-29 28,40 -7,1 -48,6 -49,6 -41,-2 -4,4 -33,-16l-49 7 -7 42c52,-13 17,-19 33,0 -25,51 -12,24 -34,44 -16,-24 -44,30 0,-40l-60 3c-12,16 -30,43 -61,65 -73,15 -15,-13 -61,42 8,69 11,109 -16,172 -46,-49 -26,-33 -20,-128 -24,10 -63,22 -89,33 -81,36 -35,76 -260,135l-24 70c-94,-19 -90,-21 -138,51 3,86 -30,82 -107,75 -3,116 0,47 -16,60 -1,1 -7,2 -9,3 -126,83 -70,55 -92,2l-75 19c-18,31 -22,33 -46,54l-1 14 -28 41 -36 -46 -21 1c-49,53 -21,5 -26,65l-39 101c-11,-14 -71,76 18,-76l-75 23 -15 5 0 50c-55,-3 -37,-16 -88,39 -78,-1 3,10 -32,-30 -27,13 -49,22 -73,36 -14,9 -25,13 -36,23 -37,36 0,-11 -24,37 -14,3 -106,8 -120,29 -14,91 -4,34 -33,54l-4 52c-232,50 -56,49 -213,100 -38,-41 -26,34 -5,-47 -66,7 -51,18 -62,47 -56,4 -66,11 -130,26 -19,4 -49,9 -66,17 -76,37 -12,-2 -44,39 38,8 37,-2 15,26 -73,21 -66,27 -119,66 -9,125 43,25 79,44 70,37 -49,16 75,38l140 -29 5 34c91,-31 73,-35 168,-100l26 -19 -73 6c43,-41 -18,-15 74,-49 42,-14 29,-9 74,-11l-4 -51c-1,-4 -4,-10 -5,-15 -18,-61 -4,-13 -19,-55l60 13c-12,84 -28,52 -10,130l79 -1c-68,-94 -31,-27 -3,-64 2,-2 65,-35 67,-36 -52,121 -11,11 9,59 45,-79 2,-8 65,-57l0 -38c-68,-19 -60,23 -80,-63l21 -6c52,-18 24,-17 79,-73 -70,160 -20,47 0,95l37 12c-25,-45 63,-31 101,-31 37,-117 25,-41 105,-89 45,-27 70,-77 106,-95 74,-37 79,18 176,-62l88 -69c26,24 10,-4 19,47 5,-2 13,-11 15,-7 3,4 12,-6 15,-8 42,-28 20,-13 41,-31l-34 -15c63,-45 141,-122 220,-162l11 36c94,-30 30,27 109,-44l-78 10c47,-64 -53,-20 86,-52l-8 51 122 -58c59,-32 66,-49 92,-95l-40 1c57,-56 129,-104 202,-134l0 46c40,-24 20,-5 50,-30 31,-25 20,-18 34,-42 101,-47 102,-67 225,-94l94 -91 70 -46c69,-30 82,-31 142,-72 28,-19 35,-29 55,-42 54,-36 30,-2 73,-49l-48 -8c3,1 7,1 9,1 1,0 7,0 9,-1 3,-1 9,-3 11,-4l67 -36c81,-53 3,-30 97,-66 137,-52 80,-60 176,-110l13 -96c21,28 28,22 -8,35 52,49 -82,92 99,28l-35 48c30,-14 44,-25 80,-31 42,-1 35,11 32,-26 18,-79 -19,-11 43,-78 -65,0 -44,9 -78,-21 28,-18 124,-49 133,-13l87 -8 50 -14 44 -57c4,-3 23,-18 26,-20 34,-18 -2,-3 36,-15 7,-9 2,-11 26,-34 35,-35 -2,-3 47,-32 80,-36 174,-117 209,-181 -20,-100 -32,-10 -109,-13 -82,-4 -42,-8 -62,-63 -22,67 4,57 -63,47z"/>
   <path class="fil6" d="M4910 13281l-339 5c18,46 1,13 -55,23 -35,6 -52,5 -84,7 -43,-1 -31,-2 -70,11 -73,-19 -448,59 -482,78l-35 25c-56,38 -161,1 -202,17 -50,46 -176,88 -237,117 -57,54 84,36 -48,38 155,18 82,-29 225,-33 67,-2 174,-18 207,-2 66,-11 120,-40 171,-50 50,-10 141,3 197,-1 129,-7 238,-40 368,-46 84,-4 30,10 107,32 33,-26 25,-19 62,-39l155 -12c81,35 44,4 120,0 59,-2 71,17 118,40l72 -50c103,39 36,52 186,42 28,79 76,93 177,102 -25,-55 -38,-25 -66,-83 83,-1 52,-10 129,23 103,45 25,1 125,29 2,0 66,23 71,26l301 118c175,63 5,-10 131,70 30,19 96,47 143,74 145,83 17,42 126,75 88,26 92,-1 138,75 39,10 109,26 148,49 25,15 25,21 58,38 78,41 33,1 79,60l-6 -4c46,22 29,10 66,45 148,139 74,121 163,171 98,54 206,113 274,203 53,4 9,-3 65,34 39,25 50,23 90,48 24,15 52,36 73,49 49,29 49,12 69,52 182,65 32,48 230,160 40,22 71,28 96,43 52,32 48,78 130,128 150,92 81,158 150,77l-36 -52c-21,-26 -33,-41 -59,-61 -110,-88 -34,-27 -153,-164 -28,-32 -17,-35 -52,-66 -33,-29 -81,-62 -109,-86 -4,-5 -11,-18 -14,-14 -27,45 9,-5 -64,-69 -32,-27 -52,-37 -80,-58 -78,-57 -13,-54 -88,-108 -38,-28 27,18 -28,-15l-29 -18c-16,-18 -27,-34 -54,-56 -6,-4 -31,-21 -35,-25 -30,-34 -4,9 -14,-32 -41,-21 -32,-11 -54,-50l-14 5c-187,-96 -140,-99 -283,-171 -60,-30 -105,-43 -153,-68 -65,-34 -89,-32 -171,-41 -34,-93 -18,-55 -99,-104 -41,-25 7,-12 -50,-31 -41,-14 -118,-9 -196,-86 -40,-50 -23,-52 -97,-77 -54,-21 -55,-20 -100,-53l-59 -44c-3,-3 -8,-9 -11,-12 -3,-2 -7,-8 -11,-13 -65,24 -16,-6 -57,31 -45,-36 -34,49 -36,-64 -85,22 -46,20 -73,-10l-69 -21c-99,-15 -41,27 -72,-51 -50,17 -40,15 -90,28 -18,-39 2,-14 -25,-38 -68,-63 46,37 -24,-17l-23 -17 -3 7c-128,-5 -252,-93 -356,-87l-20 -9 -59 -24 -145 22c-4,-3 -9,-8 -12,-10l-82 -24 -78 -13 -59 2z"/>
   <path class="fil2" d="M15396 17160l-28 83 -43 -40c0,33 7,23 -30,21l-72 -29c-55,6 -91,29 -136,57 -24,15 -42,25 -60,37 -71,42 -21,-4 -64,55l39 8 -50 14c-88,14 -201,19 -256,94l-15 60 -93 15 -85 -11 -17 47c-1,40 11,33 -23,33l-46 16 -98 51c-2,-4 -7,8 -10,12 -71,5 -111,-18 -122,37l34 1c-61,11 -28,2 -58,30 -22,21 -34,39 -47,61l-55 -48c-92,34 -8,11 -53,33 -80,41 71,24 -30,7l-32 -16c-11,87 6,39 -33,87l-53 -4 -50 -1 -66 39 -53 -50c-65,-17 -72,-41 -154,-46l-37 65 66 -1c54,-5 73,6 69,62 -19,45 1,35 -42,62l38 6 6 7 36 -45c83,23 10,-2 44,40 28,11 65,29 97,45l89 64c-20,-74 -12,-19 22,-39l28 16c-43,3 -1,-7 -20,43 73,-24 37,-17 110,-24 1,-7 4,-26 6,-29 17,-36 7,-17 22,-37l8 64c26,-15 39,-20 75,-32l-3 -61 41 -30 -35 -3c30,-27 15,30 30,-34 17,-72 7,-15 -12,-45 40,4 52,17 100,-4l37 -25c143,-71 104,17 251,-137l26 50c143,-12 94,-44 161,-82 28,-16 46,-15 83,-39 57,-35 -6,-15 63,-30l50 -19 -3 -5c20,-46 -24,-23 32,-43 14,-63 -7,-5 46,-31 126,-32 71,-60 178,-82l188 -65c69,-37 106,-58 177,-100 112,-65 86,3 176,-109 -53,-11 -46,20 -46,-20 30,-36 -22,-47 39,-30 -124,-22 -5,-1 -75,-38 -36,-19 -88,81 -79,-44 -33,25 -138,74 -201,86l18 20z"/>
   <path class="fil7" d="M12421 11998c74,78 76,44 179,131 48,40 -9,24 64,28 50,-5 29,-4 52,-13 1,0 23,-18 39,-22 55,-14 31,-5 71,18l-78 84c14,21 -3,10 35,37 23,16 35,21 60,39 54,40 67,39 125,64 33,-35 -24,-70 71,14 -18,20 37,48 -42,0 63,160 34,27 118,113l56 21c41,16 17,-11 61,32 30,29 4,1 18,42l61 34c58,38 20,8 55,44l40 3 1 48 67 2 15 41 18 0 75 -11c37,32 40,-11 32,57 51,36 23,24 61,85 45,73 56,36 126,64l13 -33c65,36 21,6 64,22l-21 39c3,4 9,5 11,11l56 29c61,32 26,6 45,39l32 42c2,5 4,12 6,18l24 -10 38 0c-26,-151 5,-63 22,-83 22,34 16,-22 21,44l-6 63c0,8 -2,16 -3,24l11 19 85 34 4 -35 151 54 -89 17 179 66c6,2 24,8 30,10l30 9c3,1 10,3 15,5 -2,-65 -12,-14 22,-29l24 -28 65 -8 1 -16c-44,-14 -37,-12 -81,-29 -4,-77 -12,-10 30,-47l-193 -82 -12 45 -60 -25c41,-35 -20,-10 51,-18 -74,-88 -226,-213 -346,-242l-59 -3c1,9 65,74 -107,35 33,-23 -45,-25 86,-23l-47 -33 58 -11 -48 -75c-8,1 -18,-1 -23,1 -108,30 -6,-25 -46,33 4,-32 58,24 65,31 -32,18 11,15 -66,26 -106,16 -19,1 -55,-6 -5,-13 -49,38 -8,-77 2,-5 36,-31 41,-35 -58,-84 -45,27 -235,-168l-56 -14 -22 -60c-82,-61 -112,-60 -178,-100 -4,-3 -32,-21 -39,-26l-27 -22c-62,-27 5,-13 -70,-56 -31,-18 -83,-40 -112,-56l-35 18c-7,-35 -8,-16 28,-30 0,-45 31,-7 -96,-74 -31,-16 -37,-22 -79,-39 -52,-3 -15,14 -53,-15l23 -6c-28,-41 -282,-217 -355,-220l-46 -16c25,106 50,45 -27,64l-1 -85 -42 -50c41,105 24,82 -3,176l35 56z"/>
   <path class="fil8" d="M4850 13451l194 211 49 8c-17,-61 -26,-41 -5,-71 28,29 65,51 87,77 -2,67 -16,60 31,118 5,-19 6,-25 36,-49l92 47c63,-8 55,-15 72,34l97 5c6,27 -60,66 79,32 49,-12 7,-11 54,2 10,3 23,14 44,13 54,-2 8,5 39,-19l40 52c3,-3 6,-12 7,-9 25,60 3,-137 128,-1 57,-34 75,10 104,43l59 -67c6,2 13,0 16,7l67 32c28,10 41,23 95,44 96,38 145,60 256,21 13,68 2,57 41,90 21,-44 24,-48 33,-100l56 21c-46,-76 -50,-49 -138,-75 -109,-33 19,8 -126,-75 -47,-27 -113,-55 -143,-74 -126,-80 44,-7 -131,-70l-301 -118c-5,-3 -69,-26 -71,-26 -100,-28 -22,16 -125,-29 -77,-33 -46,-24 -129,-23 28,58 41,28 66,83 -101,-9 -149,-23 -177,-102 -150,10 -83,-3 -186,-42l-72 50c-47,-23 -59,-42 -118,-40 -76,4 -39,35 -120,0z"/>
   <path class="fil9" d="M15471 13868c6,4 13,7 18,10l66 51c72,13 75,7 97,72 31,20 23,-36 25,48l258 87c121,30 203,13 304,59 -34,-81 -12,-16 9,-39 81,47 24,-17 48,73 30,0 115,24 140,39 71,41 7,63 154,39 28,-4 -1,2 30,-8 4,-1 16,-6 20,-7 2,-1 6,-2 7,-2 193,-35 139,42 142,73 -89,-24 -28,-2 -106,-65 -39,46 -21,-21 -12,57l132 55c40,-67 -1,-7 38,-32l34 61 103 4c27,-22 -40,-63 48,-7 -3,1 -10,10 -45,15l89 34c9,4 21,12 41,18 62,21 97,15 159,18l-23 -96c74,-2 77,26 147,59 -66,-8 -52,-20 -102,35l97 -3 46 -55c52,2 104,-3 99,54l62 15c51,2 61,-4 117,-5 11,0 55,3 60,2 70,-6 36,16 48,-21l3 -9 -113 -2 25 -24c22,-70 20,-48 -71,-75 -12,21 45,12 -48,20l0 -79c-169,-67 -213,0 -345,-10l61 89c-126,-42 -97,-42 -127,-96 14,-30 -8,-20 -48,-26 -1,21 -27,34 9,54 -104,5 -32,43 -68,-53l-44 -15c-17,48 22,33 -36,40 -3,-4 -10,-16 -11,-13 -1,1 -16,-5 -18,-71l-320 -47c10,-35 -7,-24 -50,-35l-12 35c-122,-83 -79,19 -241,-110l37 -13c-9,-10 19,-43 -30,-6 -42,63 2,53 -76,84 5,-71 -2,-41 27,-88l-29 -17 -49 12c-69,-7 -144,-12 -207,-71l64 -7c0,-55 -18,-15 -53,-27l-34 -9c-149,-52 -81,-5 -167,-35 -156,-54 50,-25 -259,-65 -3,65 11,27 -16,53 -48,-57 -25,-9 -38,-93 -40,23 -20,20 -65,-5l-1 76z"/>
   <path class="fil5" d="M19651 14271l-121 38c-49,60 -47,34 -136,28l-59 62c-8,-14 -16,4 -22,-67l-54 5c-38,44 -30,-20 -30,39 72,9 41,16 7,62 -7,-7 -84,30 -9,-58l-101 -51c-128,11 -235,0 -346,7 -124,9 -240,27 -360,-8 46,60 25,33 49,102 62,-9 47,32 51,-26l4 89c9,-3 18,-5 26,-9 76,-40 42,-28 72,-70 52,33 -9,-27 53,41 -6,47 1,14 -13,43l23 33c57,-28 55,-17 114,4 -119,-1 -9,-6 -58,38l59 4 30 -74c2,-4 7,-9 10,-13l17 41 42 5 -11 28 11 6c86,-82 72,-23 86,-11l123 4 -8 -70c156,21 23,-22 98,-24l8 84 -93 12c70,31 100,23 182,10 71,-11 148,-2 223,-1l-30 202c20,55 -20,59 62,63 77,3 89,-87 109,13l56 -14 15 -36 0 -542 -79 11z"/>
   <path class="fil10" d="M6180 16694l-47 11c109,138 391,277 545,346 33,-25 -3,-11 52,-21 19,-3 46,-2 63,-3 -17,-171 -40,-98 290,-84l-90 -62 25 -37c-25,-43 -5,46 -21,-55l30 -41c-44,-34 -5,6 -41,-43 -16,-23 -6,-11 -18,-37 -65,10 -23,11 -109,17 15,-47 7,-49 39,-80 17,-16 4,0 25,-14 3,-2 11,-3 13,-9 2,-6 8,-6 12,-9 -92,-50 -123,38 -134,9 -2,-3 -7,-2 -11,-3l13 -72c-91,63 -31,53 -116,79 15,-89 4,-45 38,-107 65,-117 17,-28 12,-49 -62,29 -20,-28 -49,79l-75 -12c-3,-6 -10,-5 -15,-8 -55,93 -5,24 -71,63 8,74 45,126 -139,110 23,-44 -17,-50 102,-70l-28 -52c-25,31 -17,18 -48,40l-52 -28c-107,90 73,-23 -42,24 -26,-51 -16,-61 -74,-80 46,52 48,52 29,136 -52,25 -75,39 -108,62z"/>
   <path class="fil11" d="M3961 13636l-7 38 -56 5 102 44c-50,64 -42,42 -91,71 -5,-12 -23,-61 -25,-65 26,139 13,23 -45,71l-13 -126 -5 92c-49,-62 -33,-2 -21,-96 -33,5 -46,1 -63,1 -26,0 -59,2 -90,5l24 -48 -47 3c-2,146 -27,104 -40,168 110,62 6,-47 128,54 -59,-94 -25,-75 -9,-97 64,35 2,-25 68,79 35,-134 -24,-11 174,-40 31,77 -8,28 69,71 -28,-48 -13,-13 -34,-72l178 9c4,-6 11,-17 13,-13 35,51 -3,0 56,-52 4,-3 10,-9 16,-13 -18,95 -5,30 -60,81l-20 24c-49,48 -30,35 -124,37 -11,58 12,17 -23,49 -4,3 -10,5 -13,8l-52 46c236,-51 -6,40 160,-15l-1 88c-27,-1 -35,-8 -70,-25 -14,99 24,42 -51,81l59 42c1,1 2,6 3,8l4 19c1,1 2,7 4,10 144,27 -10,-29 198,-27l26 -65 73 32c2,-6 -106,-59 99,-37l21 -21c3,-3 16,-17 19,-21 32,-44 5,3 33,-59 -5,-2 -14,-13 -16,-8l-60 -20c-36,-4 -20,-3 -57,-2l-21 49c-24,43 10,18 -38,37 -16,-44 24,-43 -56,-69 27,-19 20,26 42,-57l34 -61c72,57 -13,14 94,51l-44 -99c3,-87 -53,71 14,-19 26,0 -37,-40 40,46 -8,-96 -27,-61 53,-102l-47 -82c104,-60 58,31 144,-59 -63,-38 3,-20 -102,-21l-26 -35 -4 -40c-44,2 -23,1 -56,7l-143 35c7,49 13,47 43,75 -56,16 -31,-1 -66,39 -26,-20 -37,-30 -78,-53 -46,36 -12,9 -35,34 -3,4 -7,44 -17,21 -1,-3 -5,6 -8,9 -45,-17 -34,-12 -63,-53l-94 33z"/>
   <path class="fil12" d="M6603 9259l-82 69 -2 66c-102,-46 -41,-37 -98,-69l-65 20 0 27 38 13c-47,27 -44,32 -89,56l-2 -33 -246 43c-51,45 74,38 -79,38l41 4c36,5 17,-10 56,16 -29,26 41,14 -54,20l3 51 -4 -8c-41,38 -28,73 -25,95l74 -2c6,-1 11,-3 17,-4l50 -15 1 -37 0 53c89,-51 113,-65 204,-32 22,-48 10,-23 36,-44l35 -22c2,-1 5,-5 8,-8 31,-8 69,-17 112,-32l95 -46c10,1 79,8 85,8 61,-4 27,8 48,-22 30,-88 22,-12 17,-114l118 17c-65,45 -43,6 -86,82 92,-32 78,-34 167,-11l-1 -7 64 -43c-52,-53 -23,14 -45,-52 -12,-38 -7,-85 -7,-124l97 27 68 -8 103 -14c1,-4 6,-3 9,-5 68,0 19,11 37,-45 -143,-30 -217,22 -369,32 -65,4 -111,18 -171,22 -66,4 -80,28 -158,38z"/>
   <path class="fil13" d="M14551 13308c-12,43 58,45 -32,29 14,25 3,8 23,35 102,137 209,117 351,192 -60,-113 -19,-21 9,-51 126,58 108,43 135,92l-40 11 115 154 107 -4c47,68 6,8 48,41l5 -46 69 58 -36 10c3,3 8,4 10,11 1,6 8,8 11,10l209 154 88 -2c14,-67 -15,-22 -46,-25 -5,-1 -35,8 -42,10 -38,-125 -11,-12 20,-58l-66 -51c-5,-3 -12,-6 -18,-10l-64 -79c-2,-8 -5,-17 -7,-26 160,66 61,31 97,-4l-75 -21 -8 -74c-113,-19 -82,-61 -178,-97 -321,-120 -17,-44 -359,-215 -153,-77 -120,-81 -215,-76l-32 -4c-7,79 9,26 -31,59l-48 -23z"/>
   <path class="fil14" d="M6968 17161c157,1 141,6 178,55 88,-4 86,-25 198,-19 202,13 134,117 237,1 98,52 36,-5 158,-25 -41,-138 -22,-7 -97,-124 -2,-4 -5,-11 -6,-14 -2,-3 -7,-6 -8,-13 -3,-18 -15,-26 -64,-24 -90,2 -2,-7 -34,16 26,-47 36,-25 -4,-76 68,-23 41,-10 103,-97 -70,12 -76,22 -101,71l-71 -22 0 44c21,30 8,7 20,34 -112,100 -126,-60 -153,-105 -32,2 -156,54 -175,68 -71,56 7,42 -72,107l-38 29c62,64 33,72 107,27l-40 41c-59,-3 -138,-37 -138,26z"/>
   <path class="fil15" d="M9120 16133c12,12 18,17 36,33 34,31 19,6 37,41 20,39 30,85 48,119 3,2 8,2 9,7l113 73c5,3 11,4 14,12 9,34 -16,10 60,41 55,24 39,1 101,48l29 108c93,7 96,-10 182,31l2 -55c-28,-88 -57,-28 -106,-145 -28,-20 -11,2 -40,-43 -10,-14 -16,-35 -17,-38 -38,11 -32,22 -32,-11l-8 -19 -68 -87 -111 -60 -67 -114c-66,-32 -89,-23 -132,-78l-55 -54c-35,-17 -28,-8 -47,-14l-55 11c38,74 77,75 107,194z"/>
   <path class="fil1" d="M3906 15072c99,68 108,37 229,55l99 46c43,-43 23,-35 80,-6l79 40c-45,21 -8,15 -89,3l13 60c43,32 44,46 96,78l144 87c72,41 6,32 69,32 25,-33 37,23 -5,-89 167,10 22,13 98,-42l93 -40c5,-2 12,-6 18,-10 -47,-33 72,-40 -98,-34l-99 42c-3,4 -5,10 -7,14 -14,20 1,34 -49,75l-24 15c-27,-29 -20,-24 -40,-51l-18 -27c-93,-111 36,10 -40,-34 61,-63 -57,-39 109,-48 -6,71 3,14 29,23 52,-62 35,-77 -24,-112l200 -2c-10,-60 -40,-26 14,-86 -113,33 -93,36 -210,50 -37,60 -69,103 -137,134 27,-28 38,-21 56,-64 2,-4 2,-12 3,-16 1,-4 -1,-11 -1,-17 -55,-16 -38,-16 -136,3l-22 -104 -40 48 -44 -54c-2,-3 -8,-7 -12,-10 78,-45 36,-14 76,-81 -133,15 -38,-10 -114,47 -65,49 -23,-10 -64,69 -46,-45 64,-47 -87,-17l-21 -13c-2,-2 -7,-6 -9,-8l-26 -21c-4,-2 -10,-7 -15,-11l-29 24c-41,12 -3,9 -62,7l17 45z"/>
   <path class="fil16" d="M8598 17380l32 45c57,-3 85,-9 129,-24 -23,151 -8,80 14,83l28 3c81,11 127,2 205,-26 12,21 10,3 16,38 0,3 -7,28 -9,33 77,4 45,2 92,-56 228,89 26,7 198,9 -46,-32 -50,-16 -75,-62 69,-26 177,88 253,-56l138 13c35,-58 26,-78 91,-122 -19,-52 -26,-10 -13,-72 -54,16 -138,32 -184,73l-33 36c-120,-11 -77,1 -146,21 -255,70 -157,-19 -306,33 -77,27 -95,21 -142,75 -209,-90 -93,-31 -194,-30 -27,0 -22,-11 -94,-14z"/>
   <path class="fil11" d="M5291 14979l2 11 60 11 12 -70c96,52 21,18 73,66 63,57 46,-24 48,101l37 5 12 3 122 -90c-68,-170 -105,7 -79,-139 -96,57 -25,44 -136,15 -139,-37 -33,-3 -112,-66 -84,-68 -22,-1 -115,-39 -65,-27 -18,-43 -138,-50l84 69c-66,57 8,18 -92,37 -31,-111 -41,-208 -8,-320 -34,16 -68,16 -106,95 -2,4 -3,11 -5,15l-56 60c37,87 31,67 94,82 5,1 13,2 17,3 4,1 11,2 17,4 10,44 1,44 33,82l40 36c-39,43 -31,57 -32,109 75,21 52,25 118,12 3,-73 -4,-100 -66,-138 72,-62 54,-26 146,-45 -14,68 -5,48 -38,92l68 49z"/>
   <path class="fil17" d="M3039 14932l587 94 101 -20c4,-63 -10,-97 -34,-142 -78,18 -66,-13 -89,71 -32,-9 -36,-11 -79,-21 -53,41 -6,-20 -50,55 -47,-82 -21,-23 -85,-78 80,-60 24,55 82,-60 -25,-11 5,-18 -56,-8l-50 15c-59,-63 -11,-25 -62,-41 27,-59 -26,-3 34,-52l-71 -58c-184,15 -148,116 -94,162 -46,-27 61,-9 -29,-8 -2,0 -67,6 -69,6l45 35c16,12 5,-2 31,23 -44,-1 -10,8 -52,-6l-33 -15c-4,-2 -11,-7 -16,-9 -25,33 -15,-6 -11,57z"/>
   <path class="fil18" d="M3445 14354c-37,-14 -17,-12 -36,-24 -48,-31 54,-8 -63,-30 0,1 -100,7 19,122 -42,-69 1,-54 -98,-45l-21 -40c-4,-5 -11,-11 -15,-15 -3,-5 -10,-10 -16,-16l9 104c-104,-31 -133,-140 -188,18l134 2 -13 108c129,41 35,5 82,68 46,60 124,76 86,-60l-14 -50 120 -12c16,-62 9,-27 -12,-77 -54,-126 13,96 -10,-29 140,32 58,25 135,109l155 -71c-9,-67 -30,-118 -85,-71l-19 21c-2,2 -7,7 -10,10 -46,-94 -36,5 -37,-107l-25 39c-3,3 -7,8 -10,11 -12,9 -55,29 -68,35z"/>
   <path class="fil5" d="M17710 14332l10 30 -58 -1 3 35c91,27 93,5 71,75l55 0c77,51 -22,-51 33,26l-3 9c24,-107 -10,-44 49,-76 32,48 18,38 20,87l317 6c-19,-85 -15,-101 79,-101l-40 -74c161,57 18,17 76,-29 -72,-19 -138,-19 -195,6l-47 -12 -15 26 -17 38c-55,-50 -1,-26 -68,-42 -48,-12 -90,44 -90,-35l-91 -8c7,84 -17,-28 11,44l22 34c-92,20 19,1 -80,28 -21,-74 18,-32 -42,-66z"/>
   <path class="fil19" d="M5998 13944c-29,-33 -47,-77 -104,-43l21 53c-37,4 -23,-19 -24,46 107,75 76,-27 165,79 -38,32 -38,59 -106,9 13,85 -4,55 67,90l-23 22c-2,2 -9,8 -11,10l87 -16c-33,95 17,12 -54,95 40,9 60,21 90,-5 -6,66 -13,64 -6,151l58 -35c4,-3 9,-7 13,-11 5,-4 19,-14 24,-18l3 -192 -53 -96c51,18 80,57 115,21 0,0 50,38 -16,-84 -22,-43 -10,-21 -28,-42l-11 18c-5,7 8,19 -49,30 -12,-99 13,-13 -36,-70 0,0 -58,13 -65,12 -7,-1 -13,-2 -20,-4l-37 -20z"/>
   <path class="fil20" d="M9803 17108l-17 65c70,-13 40,28 110,-113 121,12 38,50 133,81 5,-91 -11,-69 -39,-141 125,17 99,29 191,61l53 -44 -81 -97 -104 -48c-61,-44 -30,-4 -62,-82 -4,-4 -9,-10 -11,-13 -2,-2 -8,-9 -11,-12l-20 -26c-2,-7 -6,-9 -9,-13l-44 10 -24 5c44,22 43,32 77,69 -42,74 -40,108 -132,123 41,57 29,13 -7,85 -34,69 15,31 -40,56 73,8 10,-5 37,34z"/>
   <path class="fil1" d="M4695 13463l-13 45c59,4 62,8 100,31 -37,23 -37,23 -102,16 15,57 30,59 3,94 -31,39 0,14 -48,37 -1,0 -45,13 -56,16 0,48 -2,55 -6,102 57,1 81,16 162,-4 -39,-82 -19,-44 -85,-57 9,-10 8,-11 30,-33 28,-27 8,-7 32,-28 34,18 45,29 92,42l-56 -72 82 -6 0 -73 73 -7c-33,85 4,34 -52,82 96,4 101,49 181,116l36 25c2,-2 5,-9 6,-7l52 -59 -82 -61 -194 -211 -155 12z"/>
   <path class="fil5" d="M5455 9773l-1 5c-31,54 45,39 -50,46l-43 0c31,32 13,9 -24,23l-4 29 14 84c103,-41 -36,-31 136,-56 -3,8 -8,8 -11,22l-24 46c-5,10 -8,16 -12,25 -5,9 -8,17 -12,26l60 -39c28,-1 16,3 35,-15 4,-2 11,-11 14,-7 3,5 20,-9 31,-14 35,-17 15,-3 49,-25l-2 -21 11 -119c51,40 38,-31 20,83l73 -7 26 -34 39 -59c-77,-24 -52,-47 33,-51 -17,-23 10,-17 -42,-46 -55,-31 -12,-28 -71,-10l-31 4 -197 153 -17 -43z"/>
   <path class="fil21" d="M2950 13790l-19 15 0 31 21 -5 15 46c102,17 37,9 60,-17l42 70c56,-30 42,-9 53,-70l46 57c281,-166 81,-14 222,-40 -13,-40 -29,-35 -64,-94 28,-31 -23,-17 29,-7l-50 -96c-30,-8 -42,-3 -42,-3 -52,-9 14,24 -23,-13l21 -47 -45 1 -19 134c-59,-15 -40,-1 -67,-33l-141 25 -39 46z"/>
   <path class="fil22" d="M9567 16615l-18 6c71,53 52,-27 90,85 38,24 28,22 86,31 62,40 34,48 78,77l-24 54c-25,63 -16,41 9,88l-61 12c82,39 36,0 40,44 -52,27 -28,15 -107,16 34,36 17,10 50,41l93 39c-27,-39 36,-26 -37,-34 55,-25 6,13 40,-56 36,-72 48,-28 7,-85 92,-15 90,-49 132,-123 -34,-37 -33,-47 -77,-69l24 -5 0 -25c-29,-40 -25,13 -19,-74l-122 -46 -2 55c-86,-41 -89,-24 -182,-31z"/>
   <path class="fil23" d="M4149 14534c-55,-14 -38,-26 -92,-77 -24,-22 -11,-10 -38,-30 -5,4 -13,5 -15,13 -5,22 -28,51 -32,23 -87,9 -164,-3 -229,18 -1,3 -2,33 -2,36 19,74 58,-57 -31,74 15,13 19,18 36,33l56 45c4,-6 10,-23 11,-19l13 -32c1,-2 0,-9 1,-11 12,-46 -46,34 14,-32 38,-42 -2,-8 43,-34 4,-3 10,-5 14,-7l42 -17c75,46 16,36 110,65l-24 -75c48,96 33,51 47,185l92 -56 -11 -58c1,-2 3,-7 4,-11 23,-9 29,-10 60,-15 7,-1 31,-1 38,-2 68,-19 -5,18 50,-28 -115,-93 -47,35 -99,-108 -3,3 -9,4 -9,11 0,7 -6,10 -6,12 -13,80 14,-25 0,42 -13,61 29,8 -43,55z"/>
   <path class="fil14" d="M3790 13567l17 58c-9,25 -13,19 14,17l56 22 6 -93c71,39 14,-8 57,49l21 16 94 -33c29,41 18,36 63,53 3,-3 7,-12 8,-9 10,23 14,-17 17,-21 23,-25 -11,2 35,-34 41,23 52,33 78,53 35,-40 10,-23 66,-39 -30,-28 -36,-26 -43,-75l143 -35c33,-6 12,-5 56,-7l4 40 66 18 -22 -77c-130,6 -239,39 -368,46 -56,4 -147,-9 -197,1 -51,10 -105,39 -171,50z"/>
   <path class="fil24" d="M9632 16913c-5,-64 -12,-58 -21,-104 -29,-137 -6,-77 28,-103 -38,-112 -19,-32 -90,-85l-62 7c15,-65 9,-60 -54,-66 -31,-28 -24,-29 -78,-16l-23 213c98,56 -14,-28 251,-6 9,41 3,158 49,160z"/>
   <path class="fil25" d="M6980 16157c-23,23 24,13 -55,18 17,35 -3,10 34,46l-52 24c73,30 86,29 132,79 67,72 168,155 127,-28 -80,-28 -62,-24 -81,-106 105,40 60,47 192,41 -58,-94 -107,-115 -230,-72l-186 -86c40,115 50,52 119,84z"/>
   <path class="fil9" d="M9480 16248l68 87 -11 -43 43 -53 -38 -49c54,-26 8,28 50,-44 40,65 103,145 190,165l-27 103c9,0 20,-8 23,0l47 19c3,3 7,10 11,14l-13 -109c92,24 50,17 119,76 -4,5 -9,8 -11,15l-24 17c-2,0 -8,0 -13,1 61,4 45,1 102,16l-5 -68c-36,-36 -30,-24 -66,-49 -47,-33 -21,-23 -77,-52l-12 23c-63,9 -3,10 -28,-41l-29 25 -27 -38 -63 -66c-5,-104 -13,-25 13,-73 -41,-71 -17,-55 -93,-87l30 38c-77,-8 -35,19 -90,-25 2,8 6,18 8,23 19,49 53,48 3,25 -35,53 -59,-76 -22,82 -44,15 -25,-24 1,62l-59 6z"/>
   <path class="fil26" d="M8799 17261c107,9 81,35 162,-24 -52,-27 -43,-19 -49,-61 78,7 92,48 153,89 10,-126 52,-100 -71,-110 97,9 33,-9 56,-34 0,-1 -19,-41 -24,-51 -47,-109 4,90 -21,-62 -64,54 -34,10 -59,84l-79 11 -41 -77c-20,29 -15,-34 -20,53l-7 182z"/>
   <path class="fil23" d="M4380 14755l11 14c120,41 26,17 59,-17 -23,-53 1,-28 -39,-59l24 0c24,149 -5,20 39,74 36,-37 26,-3 42,-72 49,28 160,17 222,1 -16,-15 -4,-18 -39,-30 -78,-26 -36,42 -93,-69l3 -4 -156 57c-55,-38 -73,-38 -85,-96 -6,4 -15,3 -17,11 -2,9 -12,9 -15,11 -8,9 -14,18 -28,31l-46 37c-3,2 -10,6 -15,9 17,13 6,14 47,26 7,1 39,4 49,5l37 71z"/>
   <path class="fil3" d="M6703 15555c17,31 -21,36 47,49 31,6 38,-10 79,-19 31,25 7,0 40,35 2,3 6,7 9,10l18 24c3,3 7,9 10,12 23,31 52,30 88,30 8,28 26,90 57,104 108,48 18,7 55,-3 1,-89 26,-39 -51,-67 18,-53 17,-43 28,-85l-100 -16c-24,-103 -29,-35 -60,-123 -67,10 -158,27 -220,49z"/>
   <path class="fil9" d="M10268 16698c-33,-40 -89,-68 -116,-103 -56,-76 15,-47 -97,-103 6,109 24,0 -118,33 26,72 23,71 88,100 -25,61 -17,39 -10,54 89,-42 109,-8 117,54l2 57 51 -23c3,-2 11,-9 14,-11 35,-32 -47,-22 72,14l-58 -73 55 1z"/>
   <path class="fil21" d="M6398 14348c-19,61 -14,33 0,108 48,-18 46,7 47,-68 7,136 17,5 50,99 21,61 -44,-25 20,104 41,0 57,9 94,-18 3,-2 8,-6 11,-9l38 -60c-4,-5 -28,-26 -33,-29 -175,-103 102,-8 -121,-79 6,-39 18,-47 12,-82l-66 13c-55,18 -31,10 -52,21z"/>
   <path class="fil27" d="M11614 11209l-299 -232c-104,-63 -76,-56 -151,-126 -33,-30 -129,-89 -159,-96 -64,-8 -11,-26 -49,8 100,54 38,62 134,71 124,222 118,68 268,221 75,76 -59,-2 94,76 66,34 151,205 162,78z"/>
   <path class="fil28" d="M8016 17316l-59 -8c-36,-63 -19,-31 -86,-66 12,82 12,30 -4,94 50,32 57,31 71,88 -50,-26 -10,-24 -60,-25 -61,-1 -12,-1 -45,24 62,81 145,-31 286,47 21,-29 8,-12 32,-36 3,-3 8,-6 11,-9 3,-2 8,-5 11,-8 66,-79 15,-33 15,-48 -45,-9 -21,-15 -63,3 -5,3 -21,17 -24,20l-25 18c-15,-64 10,-8 15,-37 1,-7 9,-6 14,-6l-107 -12 18 -39z"/>
   <path class="fil23" d="M6845 14636l63 11c-17,-25 -9,-36 -21,-53 42,-50 8,16 41,-72l65 61 3 -162c-60,27 -37,25 -62,20l-46 -28c-81,41 -78,5 -154,42 15,45 11,33 25,51 51,64 65,33 86,130z"/>
   <path class="fil19" d="M7700 14737c-20,-40 -20,-23 -69,-52 -21,-13 -49,-34 -73,-49 -40,-25 -51,-23 -90,-48 -56,-37 -12,-30 -65,-34 -113,-57 -24,-18 -59,0 43,33 -1,24 78,40 -10,52 13,28 -30,50 60,43 0,-18 50,69 59,-22 1,13 60,-34 38,144 68,15 138,57l-1 98 41 -40 49 70c-8,-76 0,-63 -29,-127z"/>
   <path class="fil25" d="M2641 13847c100,-7 24,22 32,145 3,-5 8,-18 10,-15l51 -70c38,105 -27,28 77,69 0,-74 8,-68 65,-81l-22 -52 77 -7 0 -31 -88 4c21,-48 17,-43 42,-75l-63 13 -4 38 -105 -4c-20,19 -42,42 -72,66z"/>
   <path class="fil21" d="M5120 14512l47 117c8,-15 7,7 5,-24 0,-1 -6,-44 -7,-54 69,24 68,16 121,58 22,-34 23,-57 67,-88 85,-59 50,17 73,-85 -34,-13 -111,-35 -168,-54 10,137 -16,131 -138,130z"/>
   <path class="fil21" d="M2876 13895c12,142 -115,17 -192,211 194,36 11,-61 222,-59 -41,-148 -16,-55 10,-91 36,57 -6,70 74,97 4,-8 49,27 9,-80 -14,-36 -34,-44 -56,-59 28,-13 11,-13 24,-37l-91 18z"/>
   <path class="fil29" d="M16443 16818l15 28 59 -16c36,-46 70,-40 127,-79 55,-37 80,-67 124,-94 86,-51 193,-61 270,-138 -9,-51 7,-23 -19,-47l-88 69c-97,80 -102,25 -176,62 -36,18 -61,68 -106,95 -80,48 -68,-28 -105,89 -38,0 -126,-14 -101,31z"/>
   <path class="fil27" d="M7897 14716c28,24 76,57 109,86 35,31 24,34 52,66 119,137 43,76 153,164 26,20 38,35 59,61l36 52 22 6c40,-26 11,53 29,-23l-53 -113c-170,-22 -37,-52 -185,-85 -3,-56 -4,-71 -19,-102 -36,-72 -50,-56 -96,-81 -94,-52 -18,-43 -93,-73l-14 42z"/>
   <path class="fil30" d="M9367 16450l-4 -44 -113 -73c-1,-5 -6,-5 -9,-7 -80,-43 3,-19 -87,-19 -12,111 -3,179 172,205 2,-4 5,-15 6,-12l35 -50z"/>
   <path class="fil10" d="M5701 14586c45,125 43,198 131,174 99,-27 -47,-21 72,-23 -68,-139 20,-51 -45,-176l-158 25z"/>
   <path class="fil26" d="M6572 15138c-132,-39 -67,-4 -94,10 26,17 -5,16 53,25 99,15 71,-32 137,39 4,-4 9,-17 10,-14 2,3 7,-11 9,-14 64,-100 -32,40 15,-25l88 -111c11,-92 6,-3 -14,-44l-47 7c-184,129 -99,-20 -157,127z"/>
   <path class="fil31" d="M5079 10161l-10 53 73 8 68 -50 8 -68 -18 -101c-17,6 -44,18 -52,22l-49 -17c-35,20 -16,-12 -24,54 -6,43 -1,62 4,99z"/>
   <path class="fil29" d="M14192 17989l37 14 77 -49c8,-27 -15,-13 26,-18l61 16 2 -49c76,-33 130,-55 194,-112l-26 -50c-147,154 -108,66 -251,137l-37 25c-48,21 -60,8 -100,4 19,30 29,-27 12,45 -15,64 0,7 -30,34l35 3z"/>
   <path class="fil27" d="M7858 14277c-108,-56 -79,-58 -168,-129 -31,-26 -53,-37 -86,-72 -46,-49 -51,-57 -122,-48 -79,-24 -17,-9 -40,12l206 127c51,48 31,72 137,131 66,37 27,-8 53,39 43,-46 18,15 20,-60z"/>
   <path class="fil10" d="M8989 16032l-2 21 133 80c-30,-119 -69,-120 -107,-194l55 -11c-5,-3 -11,-7 -14,-10 -3,-2 -9,-6 -13,-9 -66,-51 25,29 -25,-18 -57,-54 -10,-64 -104,-113 -120,-32 -27,-16 -52,23 133,146 138,146 129,231z"/>
   <path class="fil32" d="M7835 9404c22,28 -1,16 44,23 7,1 77,0 78,0 -4,-61 -3,-42 39,-72 29,98 -22,40 99,55l34 -59c-71,-103 -47,-54 -133,-24 -60,-58 -1,-34 -85,-27l-13 51c-78,14 -66,-12 -105,-1 51,31 44,13 119,26l-33 23c-114,28 68,-4 -44,5z"/>
   <path class="fil33" d="M5880 9544l9 66 10 30c24,26 34,-35 10,67 77,22 18,14 88,10l80 3c34,-40 32,-30 60,-58l0 -53 -1 37 -50 15c-6,1 -11,3 -17,4l-74 2c-3,-22 -16,-57 25,-95l4 8 -105 -59c-51,25 -34,-61 -39,23z"/>
   <path class="fil34" d="M11259 11186c52,-2 37,1 62,-15 -64,-65 -29,4 -43,-78l-57 6c-136,-146 -4,-27 -166,-132 -123,-81 -108,-129 -178,-113 50,67 50,38 100,86 43,42 36,54 91,87 107,65 90,94 191,159z"/>
   <path class="fil12" d="M18236 14523l156 1 72 -8 -32 -31c-19,-58 -43,-101 -49,-153l-58 -6 29 90c-32,15 16,3 -48,16 -1,0 -43,2 -54,2l-16 89z"/>
   <path class="fil29" d="M18534 15591c83,-9 144,-53 204,-90 76,-47 135,-61 186,-119l35 -48c-181,64 -47,21 -99,-28 36,-13 29,-7 8,-35l-13 96c-96,50 -39,58 -176,110 -94,36 -16,13 -97,66l-67 36c-2,1 -8,3 -11,4 -2,1 -8,1 -9,1 -2,0 -6,0 -9,-1l48 8z"/>
   <path class="fil35" d="M5235 9953l28 34c1,2 6,6 7,8 2,3 10,8 12,11l23 54c5,-5 21,-15 24,-16l35 -13 95 5 25 -52 -60 39c4,-9 7,-17 12,-26 4,-9 7,-15 12,-25l24 -46c3,-14 8,-14 11,-22 -172,25 -33,15 -136,56l-14 -84 -29 6 -5 46c-19,7 -11,14 -64,25z"/>
   <path class="fil21" d="M6235 14297c27,72 41,92 67,148 81,-34 13,-41 81,-38l-10 -92c81,-10 80,-17 82,-112 -79,24 -49,55 -88,74l-132 20z"/>
   <path class="fil3" d="M6721 15689c38,147 -28,82 123,125 -16,-159 -79,-161 -175,-170 -27,-38 -26,-52 -85,-69 20,93 34,147 137,114z"/>
   <path class="fil36" d="M9367 16450l-12 96c54,-13 47,-12 78,16 63,6 69,1 54,66l62 -7 18 -6 -29 -108c-62,-47 -46,-24 -101,-48 -76,-31 -51,-7 -60,-41 -3,-8 -9,-9 -14,-12l4 44z"/>
   <path class="fil37" d="M18469 14430l14 37c-32,29 -8,18 -51,18l32 31 -72 8c0,38 47,25 92,27 -15,-39 -60,-42 29,-44 16,0 39,2 69,1l-14 55 117 -3 0 -29 -23 -33c14,-29 7,4 13,-43 -62,-68 -1,-8 -53,-41 -30,42 4,30 -72,70 -8,4 -17,6 -26,9l-4 -89c-4,58 11,17 -51,26z"/>
   <path class="fil26" d="M3111 13637c-32,50 -73,67 -139,47l-23 31 1 75 39 -46 141 -25c27,32 8,18 67,33l19 -134 -57 9 -48 10z"/>
   <path class="fil38" d="M3132 14195c-28,18 -25,14 -63,25 -59,-72 -55,-55 -182,-49 55,98 -14,1 68,65 56,43 -7,24 78,64 95,45 79,-41 99,-105z"/>
   <path class="fil10" d="M5293 14990l-2 -11 -49 3c29,58 12,37 30,80 42,94 -27,38 77,49 -48,65 -15,64 -4,80 26,-24 24,32 33,-66 51,19 36,10 70,39 -7,-131 6,-90 -40,-105l-49 -21c-5,-3 -19,-10 -24,-14 -30,-20 -19,-12 -42,-34z"/>
   <path class="fil1" d="M2298 14847c46,35 121,50 168,76l67 8c-25,-70 -27,-29 -13,-71l20 -66c-1,-1 -3,-4 -5,-7l-68 26c-33,9 -50,19 -70,33l-97 -54c-19,37 -16,3 -2,55z"/>
   <path class="fil39" d="M9632 16913l26 -2c29,-27 26,-19 45,-58 18,-38 -14,-4 38,-63l-16 -53c-58,-9 -48,-7 -86,-31 -34,26 -57,-34 -28,103 9,46 16,40 21,104z"/>
   <path class="fil40" d="M3722 13170c-2,0 -64,-9 -69,-9 -50,1 -18,-9 -41,16l-2 126c53,0 29,-9 53,35l86 -50 -27 -118z"/>
   <path class="fil37" d="M13062 18013l172 20c10,-62 -3,-19 67,-74 -29,-8 -94,-18 -96,-19 -80,-30 75,-9 -84,-40 -18,28 -39,58 -19,78 -51,0 -40,-14 -40,35z"/>
   <path class="fil31" d="M1952 14001c-21,109 0,39 9,73 85,-44 40,28 60,-77l68 11 0 -48 93 2c-30,-38 -19,5 -20,-65 -35,26 -38,-32 -23,47 -88,-31 -26,-32 -119,4l12 -62c-34,23 -18,-4 -56,52 -51,77 -13,12 -24,63z"/>
   <path class="fil41" d="M3821 13642l5 32 13 126c58,-48 71,68 45,-71 2,4 20,53 25,65 49,-29 41,-7 91,-71l-102 -44 -15 -35c19,-36 -31,-31 57,-24 -43,-57 14,-10 -57,-49l-6 93 -56 -22z"/>
   <path class="fil42" d="M15405 17085l-69 52 -34 24 -4 21 54 19 44 -41 -18 -20c63,-12 168,-61 201,-86 53,-39 46,-45 119,-66 22,-28 23,-18 -15,-26 -82,20 -82,52 -137,77 -25,11 -113,36 -141,46z"/>
   <path class="fil43" d="M8373 15505c-14,-5 -30,-13 -44,-18 -36,-11 -32,-6 -63,-17 -44,-16 -45,-29 -94,-45l-7 69c91,48 -45,46 87,73 101,21 121,-62 121,-62z"/>
   <path class="fil44" d="M8282 16028l-35 -10c-61,1 -54,26 -81,60l116 10c-32,69 -84,62 -28,148 66,-30 20,16 57,-44 2,-4 3,-9 5,-13 2,-4 3,-9 5,-14 21,-62 7,-65 -39,-137z"/>
   <path class="fil10" d="M4609 14593l-3 4 39 -44c25,26 23,23 38,43l81 -30c24,-8 13,-12 33,-39 -69,-9 -32,22 -62,-59 -1,-3 -1,-10 -3,-15 -50,29 -25,4 -48,54l-107 -21c-14,99 -17,8 32,107z"/>
   <path class="fil37" d="M13354 18025l73 2c12,45 -6,20 50,28 0,0 54,0 58,-1 77,-7 83,-33 96,-47l-38 -6c43,-27 23,-17 42,-62l-39 37 -59 -6 13 0c5,83 22,3 -9,39 -33,40 -23,17 -21,-16l-53 26 21 -62c-33,-4 -48,-13 -82,8 0,0 -27,28 -30,31 -3,3 -9,18 -11,14 -2,-4 -7,10 -11,15z"/>
   <path class="fil18" d="M2902 14350c65,5 71,26 148,46 -34,-249 -63,-6 -43,-99 -6,-4 -14,-17 -18,-11l-137 -63c19,93 28,58 50,127z"/>
   <path class="fil9" d="M12223 11829l39 15c25,-19 2,-48 58,29l-50 -10c101,152 22,106 99,137 -28,-70 -8,-15 -15,-58 -15,-92 3,-56 17,-91l8 -26c14,-64 -61,-20 14,-61l-28 -9 -55 47c-44,-13 -41,-19 -53,-22 -38,-10 0,-7 -38,4l4 45z"/>
   <path class="fil45" d="M11899 11613c51,58 86,66 132,90 5,2 10,4 15,7l39 29c10,-106 -10,-126 -92,-172 -6,2 -13,6 -17,8l-42 25c-12,7 -7,7 -35,13z"/>
   <path class="fil45" d="M12163 11791c0,36 19,26 60,38l-4 -45c38,-11 0,-14 38,-4 12,3 9,9 53,22l55 -47 -15 -50 -99 -32c-20,37 -29,51 -52,84 -28,39 -1,24 -36,34z"/>
   <path class="fil33" d="M10711 10743c86,8 -13,62 47,-19 -132,-32 -37,-37 -156,-80 -231,-82 -155,-50 -177,-17 59,37 52,38 132,57 62,15 23,-4 76,26 35,19 3,25 78,33z"/>
   <path class="fil19" d="M5580 15289l-52 -13 -20 108c84,-26 39,-12 114,-49 34,29 25,28 79,33l-13 -117 -108 38z"/>
   <path class="fil1" d="M5507 15763c-42,-40 -31,-34 -92,-27 66,95 46,51 150,88l8 -60c0,-4 2,-10 3,-14l17 -53 -118 -31 32 97z"/>
   <path class="fil46" d="M16996 16224c-30,92 0,29 -46,55l7 10c22,53 -34,81 92,-2 2,-1 8,-2 9,-3 16,-13 13,56 16,-60 77,7 110,11 107,-75l-69 6c-37,55 -33,65 -116,69z"/>
   <path class="fil30" d="M3305 13680l50 96c67,15 60,28 107,-10l-24 -40c-33,-41 -38,41 -26,-50l111 11 8 -39c-82,4 -73,18 -132,0l-13 37 -81 -5z"/>
   <path class="fil24" d="M3671 13628l-24 48c31,-3 64,-5 90,-5 17,0 30,4 63,-1 -12,94 -28,34 21,96l5 -92 -5 -32c-27,2 -23,8 -14,-17 -21,-22 -28,40 -10,-60 -8,3 -19,0 -24,10 -3,8 -53,29 -104,23l2 30z"/>
   <path class="fil24" d="M8987 16053l2 -21 -79 -2c-45,-72 -79,-71 -134,-90 44,103 11,85 136,91l-11 38c-1,4 -4,12 -5,16l-1 28c0,2 2,8 3,12 87,19 84,-43 89,-72z"/>
   <path class="fil47" d="M14114 13177l-11 -19c-107,-45 -20,3 -72,-48l-24 10 -32 31c-42,-23 -35,43 -28,-61l-68 5c23,72 -3,27 35,74l32 29c4,3 10,7 13,10 3,2 9,7 13,10 69,-19 63,-14 99,-54l43 13z"/>
   <path class="fil48" d="M8748 15590l-14 19 73 61 25 0 5 35 43 34c19,-26 52,21 8,-30 -4,-71 -82,-139 -125,-177 -39,32 -68,-51 -15,58z"/>
   <path class="fil1" d="M6900 14135l6 4 -75 -33c-55,52 -33,21 -42,112 -8,-2 -44,-17 -46,-17l-50 7c-6,1 -12,7 -18,10l52 44c46,30 -29,25 82,20 37,-67 -12,-41 13,-92 20,-43 27,-14 78,-55z"/>
   <path class="fil14" d="M13136 12616l35 -104 -56 -21c-9,60 -13,13 -43,12l-68 30c10,80 48,65 132,83z"/>
   <path class="fil1" d="M4820 14198c6,70 -2,43 20,107l96 -62c65,-65 -6,-22 90,-70 -99,-6 -101,-13 -206,25z"/>
   <path class="fil27" d="M10193 10182l-103 -57c-2,-3 -7,-8 -9,-10l-24 -23c-84,46 -32,55 28,99 53,38 68,43 147,63l-39 -72z"/>
   <path class="fil8" d="M8372 15477c3,-5 7,-19 7,-16 0,5 16,-84 -46,-172 -59,27 -115,23 -11,145 29,32 10,20 50,43z"/>
   <path class="fil46" d="M15985 16833c-21,81 -33,6 5,47 157,-51 -19,-50 213,-100l4 -52 -49 4c-47,13 -155,78 -173,101z"/>
   <path class="fil32" d="M17389 14516l23 35c86,-5 124,23 184,-21l-62 -15c5,-57 -47,-52 -99,-54l-46 55z"/>
   <path class="fil3" d="M6087 15294l85 15 14 -192c-4,0 -10,-4 -11,1 -7,31 -94,42 -88,176z"/>
   <path class="fil49" d="M9459 15907l0 -33 2 1 -34 -9c-62,-3 -45,1 -81,-15 -34,85 -7,55 24,144 41,-13 113,-48 60,-76l29 -12z"/>
   <path class="fil21" d="M4863 14930l-4 70 127 32c-21,-107 -18,-40 -3,-135 -8,1 -62,6 -73,9 -34,11 -26,11 -47,24z"/>
   <path class="fil27" d="M9302 16074l67 114c85,-16 26,34 58,-31 -59,-40 -30,11 -47,-61 -21,-94 1,-54 12,-70l-134 -21 44 69z"/>
   <path class="fil50" d="M13903 12748c-25,-25 -7,-10 -50,-23 -4,-2 -35,-3 -42,-4 -5,4 -39,30 -41,35 -41,115 3,64 8,77 36,7 -51,22 55,6 77,-11 34,-8 66,-26 -7,-7 -61,-63 -65,-31 40,-58 -62,-3 46,-33 5,-2 15,0 23,-1z"/>
   <path class="fil33" d="M10628 10538c-34,-14 -67,-48 -107,-73 -55,-33 -72,-41 -93,-104l-33 4 -37 5c94,52 -11,27 133,126 68,47 -92,-53 53,27 117,65 5,64 138,48 -122,11 -6,6 -54,-33z"/>
   <path class="fil51" d="M17109 16473c80,-15 54,-27 101,-64 21,-17 55,-30 64,-36 35,-24 19,-15 32,-41l-11 -36c-79,40 -157,117 -220,162l34 15z"/>
   <path class="fil27" d="M10234 17017l51 31c125,14 28,9 51,-20 -87,-143 -89,-38 -141,-141l-42 33 81 97z"/>
   <path class="fil52" d="M18899 15099c-27,28 0,11 -39,33 0,0 -47,13 -51,14l3 46c-25,92 11,17 -40,81 85,-26 50,3 86,-103l81 -6c3,-3 8,-16 10,-13l42 -64c3,-5 7,-12 11,-18l-4 16 -13 -4c-24,5 -57,13 -86,18z"/>
   <path class="fil53" d="M5200 10003l18 101 52 -18 75 -3 19 -52 -35 13c-3,1 -19,11 -24,16l-23 -54c-2,-3 -10,-8 -12,-11 -1,-2 -6,-6 -7,-8l-28 -34c-48,34 -13,-11 -35,50z"/>
   <path class="fil24" d="M7348 14836l-19 48c48,46 35,14 40,85l74 -39c39,-104 1,-110 -95,-94z"/>
   <path class="fil1" d="M6763 16335l46 88 79 -3c37,-69 12,-35 18,-66 1,-2 2,-7 3,-9l5 -54c-128,26 54,-37 -36,12 -64,35 -26,33 -115,32z"/>
   <path class="fil19" d="M4805 15430c57,19 4,-31 42,36l23 51 82 -28c0,0 43,-40 -22,-38l-32 11c-5,1 -12,6 -19,9 41,-90 39,-16 34,-122 -55,19 -59,28 -108,81z"/>
   <path class="fil54" d="M6563 14119c-9,87 24,88 115,88l8 -88c-10,-5 -11,-54 -123,0z"/>
   <path class="fil55" d="M5746 9644l-47 9 1 6c59,-18 16,-21 71,10 52,29 25,23 42,46l-6 51 9 5 25 -28c20,23 16,-20 -1,42 41,-5 42,8 28,-23l-27 -86 58 -36 -10 -30 -67 8 -61 -15 24 45 -39 -4z"/>
   <path class="fil8" d="M6595 15076c-20,-59 -28,-61 -51,-112 -33,-75 -17,-58 -99,-82 20,139 46,128 150,194z"/>
   <path class="fil26" d="M5580 15289l36 -19c-29,-89 -43,-99 -81,-164l-12 -3 -54 103c81,15 60,18 111,83z"/>
   <path class="fil32" d="M5404 13049l-29 3 -22 -3c-1,42 -15,36 19,36 -89,10 -23,-22 -29,51 79,40 30,44 90,41l30 -117 -59 -11z"/>
   <path class="fil11" d="M4817 15593c83,1 10,3 42,-19 -60,-32 -52,-8 -58,-86l-129 -9 -12 26c32,41 28,23 104,64 37,20 17,13 53,24z"/>
   <path class="fil1" d="M5297 15569l85 103c78,86 93,-21 93,-22l-76 -41c-4,-4 -6,-9 -9,-12l-25 -48c-24,11 -43,13 -68,20z"/>
   <path class="fil18" d="M4632 14984c73,57 100,31 119,25 5,-77 26,-50 -37,-81 0,0 -84,-23 -97,-25l15 81z"/>
   <path class="fil56" d="M5880 9544c5,-84 -12,2 39,-23l105 59 -3 -51c95,-6 25,6 54,-20 -39,-26 -20,-11 -56,-16l-41 -4c153,0 28,7 79,-38l-79 8c-66,60 3,21 -96,50l-2 35z"/>
   <path class="fil57" d="M9268 9787c14,32 -13,15 33,26 29,7 28,0 39,-2l45 58c26,74 -3,18 33,30l69 1c-26,-18 -46,-23 -63,-41 -12,-12 -24,-42 -29,-47 -55,-61 -49,7 -107,-84 -38,39 -68,-57 -20,59z"/>
   <path class="fil18" d="M4967 15199l148 -11c-23,-57 -62,-83 -106,-108 -44,61 -29,39 -42,119z"/>
   <path class="fil58" d="M3515 14020c25,11 -13,20 59,11 136,-16 80,81 108,-51l-96 -45 -71 85z"/>
   <path class="fil19" d="M3531 13648l-8 39 -111 -11c-12,91 -7,9 26,50 28,-35 -49,-23 64,-31 22,106 19,58 48,68l11 -39c15,-61 -14,13 6,-35l36 -26c-33,-40 -37,0 -18,-59l-80 -6c69,9 9,-1 26,50z"/>
   <path class="fil59" d="M4317 15270l-13 -60c81,12 44,18 89,-3l-79 -40c-57,-29 -37,-37 -80,6l-99 -46 57 25c-2,36 1,28 -11,50 65,10 92,30 136,68z"/>
   <path class="fil60" d="M16072 17022l99 3 -2 -35c-18,-78 -2,-46 10,-130l-60 -13c15,42 1,-6 19,55 1,5 4,11 5,15l4 51c-45,2 -32,-3 -74,11 -92,34 -31,8 -74,49l73 -6z"/>
   <path class="fil61" d="M1880 14061c22,66 -43,59 71,39 18,-4 62,-25 105,-32l0 11c4,-5 19,-32 21,-37 2,-5 5,-13 7,-18 1,-4 3,-11 5,-16l-68 -11c-20,105 25,33 -60,77 -9,-34 -30,36 -9,-73 -5,4 -11,3 -13,11 -8,31 -12,11 -23,21 -37,32 1,7 -36,28z"/>
   <path class="fil29" d="M17629 16144c85,-26 114,-18 162,-87l0 -46c-73,30 -145,78 -202,134l40 -1z"/>
   <path class="fil34" d="M11092 17209c-13,-14 -2,-11 -40,-29 -7,-3 -34,-11 -45,-15 -59,-22 -34,-19 -91,-27 -40,-10 -25,25 -35,-11 26,50 -30,42 85,77 93,28 44,8 117,55l9 -50z"/>
   <path class="fil26" d="M9160 16812l-19 4c-101,52 -54,-19 -76,113 56,-7 57,9 101,-38l36 -61 -42 -18z"/>
   <path class="fil52" d="M5099 10008l49 17c8,-4 35,-16 52,-22 22,-61 -13,-16 35,-50 53,-11 45,-18 64,-25l5 -46 -40 0c-28,49 -106,67 -153,104 -45,0 -1,-5 -12,22z"/>
   <path class="fil53" d="M18207 14523l29 0 16 -89c11,0 53,-2 54,-2 64,-13 16,-1 48,-16l-29 -90 -3 -7c-58,46 85,86 -76,29l40 74c-94,0 -98,16 -79,101z"/>
   <path class="fil62" d="M8370 16157c23,14 -31,51 112,-6 1,-5 3,-18 4,-15l15 -81c-80,10 -38,-15 -100,52 -30,32 -16,-5 -31,50z"/>
   <path class="fil52" d="M16620 14154c-63,-54 -27,-19 -110,-42 -31,-8 -28,-11 -53,-24 -54,-27 -8,-9 -53,-22l-37 13c162,129 119,27 241,110l12 -35z"/>
   <path class="fil33" d="M14893 13564c1,2 -11,15 29,40 43,27 32,15 75,12l40 -11c-27,-49 -9,-34 -135,-92 -28,30 -69,-62 -9,51z"/>
   <path class="fil60" d="M15733 17136c-61,-17 -9,-6 -39,30 0,40 -7,9 46,20 52,15 101,-9 138,-45l-5 -34 -140 29z"/>
   <path class="fil63" d="M13136 12616c6,4 7,37 98,9l16 -39c-14,-41 12,-13 -18,-42 -44,-43 -20,-16 -61,-32l-35 104z"/>
   <path class="fil64" d="M8308 16383c6,-2 29,-13 34,-15 131,-48 77,-17 108,-72l-76 -61c-4,8 -8,11 -8,19l-14 47c-16,25 -34,-1 -44,82z"/>
   <path class="fil52" d="M16296 14039c-43,-63 -85,-27 -158,-48l-24 -11c-2,-1 -6,-5 -10,-7l-64 7c63,59 138,64 207,71l49 -12z"/>
   <path class="fil51" d="M8371 9421l-18 29c42,38 86,18 147,6l109 8c-111,-117 -122,21 -203,-69 0,43 10,32 -35,26z"/>
   <path class="fil9" d="M2812 13459l40 54c-96,25 -62,-4 -87,78 7,-2 17,-12 20,-6l32 -15c4,-1 9,-6 12,-7 36,-15 12,-11 61,-4 2,-15 2,-47 3,-51l25 -66c-77,26 -21,15 -106,17z"/>
   <path class="fil32" d="M2822 13747l63 -13 64 -19 23 -31 -119 30c11,-20 9,-4 7,-41 -1,-13 -6,-39 -8,-46l-78 18 48 102z"/>
   <path class="fil61" d="M16590 14307c24,27 -5,9 33,30 29,16 13,5 48,18 -9,-78 -27,-11 12,-57 78,63 17,41 106,65 -3,-31 51,-108 -142,-73 -1,0 -5,1 -7,2 -4,1 -16,6 -20,7 -31,10 -2,4 -30,8z"/>
   <path class="fil42" d="M5455 9773l17 43 197 -153 -67 11c-73,44 -98,28 -147,99z"/>
   <path class="fil61" d="M2263 13964c66,-20 191,-4 199,-56 -78,-15 -39,-51 -105,21 -42,-37 -18,-49 -87,-56 6,56 22,36 -7,91z"/>
   <path class="fil40" d="M16386 16891l29 -4c9,-75 -8,-23 43,-41l-15 -28 -37 -12c-20,-48 -70,65 0,-95 -55,56 -27,55 -79,73l-21 6c20,86 12,44 80,63l0 38z"/>
   <path class="fil19" d="M2297 14284l111 -86 -63 -24c-56,-16 -9,-16 -86,-5l38 115z"/>
   <path class="fil24" d="M6915 14634l-7 13 -63 -11 5 8c-3,4 -9,5 -10,14 -4,25 -21,-2 -35,94 163,4 7,-5 120,-58l-10 -60z"/>
   <path class="fil65" d="M12664 12157c39,56 16,37 84,67l78 -84c-40,-23 -16,-32 -71,-18 -16,4 -38,22 -39,22 -23,9 -2,8 -52,13z"/>
   <path class="fil33" d="M12369 12000l52 -2 -35 -56c27,-94 44,-71 3,-176l4 -2c-75,41 0,-3 -14,61l-8 26c-14,35 -32,-1 -17,91 7,43 -13,-12 15,58z"/>
   <path class="fil53" d="M6760 9464c58,-20 35,-12 109,-15 8,0 56,-1 59,-1 59,-6 38,-7 48,-10 -89,-23 -75,-21 -167,11 43,-76 21,-37 86,-82l-118 -17c5,102 13,26 -17,114z"/>
   <path class="fil8" d="M2056 14079l0 -11 17 61c132,21 89,24 125,-11 -4,-40 -14,-39 -35,-51 -62,-35 6,39 -44,-17l-63 29z"/>
   <path class="fil66" d="M7247 15132l95 15c-11,-74 -44,-70 4,-114 -32,-15 -35,-17 -76,-21l-23 120z"/>
   <path class="fil32" d="M9476 9855c70,55 17,72 145,95 -11,-65 16,-17 -53,-94l-19 -22c-2,-2 -6,-7 -10,-11l-63 32z"/>
   <path class="fil11" d="M3770 14871c35,40 -31,8 37,36 42,17 81,5 113,-6 4,-2 11,-7 17,-10 -36,-51 -29,-62 -81,-51l-86 31z"/>
   <path class="fil67" d="M3261 13617l-21 47c37,37 -29,4 23,13 0,0 12,-5 42,3l81 5 13 -37c-12,-10 -11,-6 -36,-16 -60,-27 -12,11 -53,-32l-49 17z"/>
   <path class="fil21" d="M5042 15519c34,-4 18,10 62,-9 96,-39 19,-5 60,-45 -58,-42 -47,-32 -123,-42l1 96z"/>
   <path class="fil68" d="M5868 9762c38,-14 45,-9 72,-16 65,-18 24,27 57,-29 -70,4 -11,12 -88,-10 24,-102 14,-41 -10,-67l-58 36 27 86z"/>
   <path class="fil45" d="M18432 14485c43,0 19,11 51,-18l-14 -37c-24,-69 -3,-42 -49,-102l-37 4c6,52 30,95 49,153z"/>
   <path class="fil50" d="M9836 16447l58 0c5,-1 11,-1 13,-1l24 -17c2,-7 7,-10 11,-15 -69,-59 -27,-52 -119,-76l13 109z"/>
   <path class="fil40" d="M17603 15893c26,-11 65,-23 89,-33 -6,95 -26,79 20,128 27,-63 24,-103 16,-172 -60,22 -92,32 -125,77z"/>
   <path class="fil69" d="M13860 17871l53 4c39,-48 22,0 33,-87l32 16c101,17 -50,34 30,-7 45,-22 -39,1 53,-33l0 -27c-93,11 -95,-11 -130,45 -25,39 8,13 -28,55l-43 34z"/>
   <path class="fil2" d="M9752 16263l36 -3 -3 -40c-11,-30 4,-5 -17,-35 -3,-4 -15,-18 -18,-22 -42,-48 -4,-21 -48,-39 -26,48 -18,-31 -13,73l63 66z"/>
   <path class="fil21" d="M2641 14332c48,-8 19,45 52,-51l77 38 -76 -102c-9,7 -41,20 -50,33 -3,4 -8,8 -10,13 -2,4 -5,10 -6,15 -22,108 -4,15 13,54z"/>
   <path class="fil65" d="M2162 13897c1,70 -10,27 20,65l-93 -2 0 48c53,-18 10,-23 94,-3 96,10 41,14 58,-29l-38 -4 -4 -88 -37 13z"/>
   <path class="fil45" d="M13537 17970l59 6 39 -37c4,-56 -15,-67 -69,-62l-29 21 0 72z"/>
   <path class="fil8" d="M5028 13842c34,50 26,31 54,43 61,26 1,12 95,26 -45,-96 -40,-95 -89,-92 -60,3 -34,10 -60,23z"/>
   <path class="fil70" d="M5264 9882l40 0 29 -6 4 -29 -18 -23 42 0 43 0c95,-7 19,8 50,-46l-141 21c-11,11 -14,11 -26,34 -16,28 -4,5 -23,49z"/>
   <path class="fil71" d="M8677 15653c-84,-46 -8,-37 -112,-82 12,44 4,39 28,86 44,87 4,25 56,60 42,-36 16,8 28,-64z"/>
   <path class="fil72" d="M8946 15404c-10,-16 -17,-23 -35,-42 -48,-45 -11,-25 -67,-44l-39 8c123,146 44,46 145,133l-4 -55z"/>
   <path class="fil73" d="M17710 14332c60,34 21,-8 42,66 99,-27 -12,-8 80,-28l-22 -34c-28,-72 -4,40 -11,-44 -18,5 -62,9 -68,11 -54,12 -27,-7 -49,23l28 6z"/>
   <path class="fil74" d="M5075 10252l-58 17 15 -54c-4,4 -11,3 -13,11 -10,36 -92,37 -103,126 54,-9 128,-48 159,-100z"/>
   <path class="fil17" d="M2910 14906l152 -67c-64,-18 -167,-82 -152,67z"/>
   <path class="fil8" d="M4391 14769l-11 -14 -84 -19c3,113 -14,69 107,103l-12 -70z"/>
   <path class="fil75" d="M7594 14434c67,-28 39,11 20,-46 -9,-27 -24,-31 -41,-44 -110,-83 -78,-32 -82,-23 10,41 -16,-2 14,32 4,4 29,21 35,25 27,22 38,38 54,56z"/>
   <path class="fil8" d="M7954 15182c25,50 -29,42 56,22 9,-47 5,-104 -69,-89 -68,14 -9,-14 -42,35l55 32z"/>
   <path class="fil18" d="M3501 14821c14,59 -36,46 119,86 -13,-32 5,-49 -52,-86 -60,-38 -41,-15 -67,0z"/>
   <path class="fil8" d="M6184 14984c5,-12 64,32 6,-62 -17,-27 -31,-24 -56,-37 -15,37 -33,37 -13,79 30,63 13,31 63,20z"/>
   <path class="fil48" d="M6374 13698c74,25 57,27 97,77l60 5c-49,-36 -33,-49 -74,-86 -71,-67 45,27 -21,-17 -58,-38 -53,-24 -84,-20l22 41z"/>
   <path class="fil73" d="M18065 14339l-16 -52c-83,29 -69,17 -159,13 0,79 42,23 90,35 67,16 13,-8 68,42l17 -38z"/>
   <path class="fil73" d="M4653 13022l-60 4c20,36 20,64 62,77 77,24 76,-32 76,-33l-39 -16c-57,-36 26,40 -39,-32z"/>
   <path class="fil27" d="M6136 13607c41,-37 -8,-7 57,-31 122,45 20,18 62,-22 -59,-15 -98,-28 -146,-52l27 105z"/>
   <path class="fil51" d="M15623 14002l0 31 54 16c-2,-84 6,-28 -25,-48 -22,-65 -25,-59 -97,-72 -31,46 -58,-67 -20,58 7,-2 37,-11 42,-10 31,3 60,-42 46,25z"/>
   <path class="fil76" d="M3363 13294c123,-53 70,-58 236,-47l13 -70c-4,3 -10,3 -12,9l-28 26c-2,1 -5,6 -8,9l-158 7c-22,31 -29,45 -43,66z"/>
   <path class="fil27" d="M18440 15378c7,17 -29,85 77,31 25,-12 35,-60 43,-78l-41 4c-39,37 -29,17 -79,43z"/>
   <path class="fil54" d="M2885 13734c-25,32 -21,27 -42,75l88 -4 19 -15 -1 -75 -64 19z"/>
   <path class="fil65" d="M19108 14563l5 2 93 -12 -8 -84c-75,2 58,45 -98,24l8 70z"/>
   <path class="fil77" d="M19079 15247c-62,67 -25,-1 -43,78l23 -1 148 -111c3,-2 9,-5 14,-8l-87 8c-3,8 3,22 -11,37l-44 -3z"/>
   <path class="fil61" d="M13810 17870c-4,-5 -16,-45 -58,-48 -83,-5 -40,1 -61,37l53 50 66 -39z"/>
   <path class="fil11" d="M3142 14495c-46,-64 -18,-41 -121,-48 18,39 -8,35 40,61 84,47 79,-12 81,-13z"/>
   <path class="fil56" d="M18985 15081l13 4c102,-48 59,49 139,75l-47 -49c43,-79 40,-16 9,-102l90 -71 -204 143z"/>
   <path class="fil70" d="M19313 14332c6,71 14,53 22,67l59 -62c89,6 87,32 136,-28l-217 23z"/>
   <path class="fil23" d="M6156 15756l45 -119c-27,5 -60,1 -78,33 -45,77 19,76 33,86z"/>
   <path class="fil78" d="M17270 14521l22 -2c50,-55 36,-43 102,-35 -70,-33 -73,-61 -147,-59l23 96z"/>
   <path class="fil23" d="M7303 16407c-18,-98 -5,-63 -107,-86 19,49 3,36 32,66 41,43 8,30 75,20z"/>
   <path class="fil45" d="M15471 13868l1 -76c45,25 25,28 65,5l40 15c-19,-57 -11,-39 -80,-53 -36,35 63,70 -97,4 2,9 5,18 7,26l64 79z"/>
   <path class="fil21" d="M6097 15509l34 -84 -103 -17c13,47 -6,28 19,66 26,40 7,18 50,35z"/>
   <path class="fil38" d="M2779 14159c24,27 -18,36 102,51 -18,-71 46,-40 -35,-72 -83,-34 -67,20 -67,21z"/>
   <path class="fil79" d="M8890 16454l79 13c84,-4 46,15 70,-68 -66,12 -89,7 -149,55z"/>
   <path class="fil68" d="M11252 17503l30 22c93,41 75,-23 88,-62 -23,1 -48,-3 -70,5 -38,15 -30,18 -48,35z"/>
   <path class="fil80" d="M4805 12989l184 28c102,-22 46,0 77,-46l-261 18z"/>
   <path class="fil45" d="M14031 13110c52,51 -35,3 72,48 1,-8 3,-16 3,-24l6 -63c-5,-66 1,-10 -21,-44 -17,20 -48,-68 -22,83l-38 0z"/>
   <path class="fil1" d="M1499 14787c12,-91 -20,-59 -80,-41l-33 65 113 -24z"/>
   <path class="fil39" d="M8139 15920c26,72 2,20 38,79 31,-40 17,-2 31,-75 62,4 46,8 90,-24 -5,-3 -11,-13 -14,-9l-145 29z"/>
   <path class="fil7" d="M6539 13530c-8,109 10,68 13,75 11,-38 -5,-23 20,-40l-158 -96c25,123 -2,107 125,61z"/>
   <path class="fil48" d="M14061 17737l0 27 55 48c13,-22 25,-40 47,-61 30,-28 -3,-19 58,-30l-34 -1 -126 17z"/>
   <path class="fil32" d="M19439 14950c66,7 99,0 103,-87 -2,1 -7,-1 -8,2l-19 8c-3,1 -9,3 -12,5 -73,38 -40,-10 -64,72z"/>
   <path class="fil50" d="M19126 14329l101 51c-75,88 2,51 9,58 34,-46 65,-53 -7,-62 0,-59 -8,5 30,-39l-133 -8z"/>
   <path class="fil48" d="M9696 10070c7,8 6,12 27,28 18,14 18,12 29,19 67,-1 27,9 55,-15 -50,-51 -33,-49 -98,-79l-13 47z"/>
   <path class="fil11" d="M6390 14198c-22,-32 5,-37 -92,-56 14,169 89,58 92,56z"/>
   <path class="fil24" d="M8247 16018l35 10 49 -2c-20,-112 5,-50 -58,-81 -60,45 -17,-14 -26,73z"/>
   <path class="fil73" d="M7621 9176c39,43 -48,36 44,36 40,40 -3,20 60,25l5 -49 -25 -35c-51,-1 -6,-4 -26,21l-58 2z"/>
   <path class="fil53" d="M12943 17721l-74 1c12,39 9,39 15,58 13,49 -4,6 13,42 101,-37 20,30 46,-101z"/>
   <path class="fil55" d="M13961 12855l-1 -43 -9 11 -58 11 47 33c-131,-2 -53,0 -86,23 172,39 108,-26 107,-35z"/>
   <path class="fil40" d="M10257 16757l8 92c50,-17 75,7 57,-58 -18,-69 -48,-34 -65,-34z"/>
   <path class="fil72" d="M9115 15942l55 54 25 -66c-60,-27 -30,1 -54,-46 -47,37 -76,-55 -26,58z"/>
   <path class="fil81" d="M5032 10215l-15 54 58 -17c84,-14 34,4 67,-30l-73 -8 10 -53c-31,25 -9,-23 -47,54z"/>
   <path class="fil82" d="M8734 15609l14 -19c-55,-32 -20,20 -50,-39 -66,35 -43,-29 -33,51 5,43 22,36 44,51 22,-18 15,-3 25,-44z"/>
   <path class="fil72" d="M8562 15051c8,-51 -34,-63 -64,-79 -32,33 -39,-31 -25,44l78 56 11 -21z"/>
   <path class="fil50" d="M5741 9825l102 -43 -27 -11 -9 -5 6 -51c-85,4 -110,27 -33,51l-39 59z"/>
   <path class="fil72" d="M19079 15247l44 3c14,-15 8,-29 11,-37 -9,-36 -105,-5 -133,13 34,30 13,21 78,21z"/>
   <path class="fil53" d="M7522 9369c57,-9 49,-26 47,22l16 34 75 -4 -79 7 42 -78c-45,-65 -7,-23 -44,-23 -91,1 57,27 -18,1 -4,-1 -31,-17 -40,-20 17,50 11,4 1,61z"/>
   <path class="fil33" d="M11762 11321c-41,-26 -55,-33 -84,-45 -50,5 -13,-15 -38,13 19,24 9,29 57,45 52,17 72,44 65,-13z"/>
   <path class="fil29" d="M4910 13281l59 -2 -43 -53c-34,8 -32,-2 -57,-2 -115,-2 -36,-19 -63,24 6,0 25,-3 30,-1 94,23 40,11 74,34z"/>
   <path class="fil65" d="M9581 15982c-18,-28 10,-30 -69,-27 -44,53 -31,27 -16,88l85 -61z"/>
   <path class="fil73" d="M17272 14327l-66 -7c30,54 1,54 127,96l-61 -89z"/>
   <path class="fil27" d="M11619 11438c8,-24 9,-37 -31,-62 -40,-24 -51,-21 -67,-1 27,50 28,56 98,63z"/>
   <path class="fil83" d="M18484 14551l84 12 14 -55c-30,1 -53,-1 -69,-1 -89,2 -44,5 -29,44z"/>
   <polygon class="fil50" points="5150,13082 5206,13040 5268,13054 5273,13026 5197,13007 5148,13006 "/>
   <path class="fil50" d="M10257 10445c1,38 -27,51 82,53 -3,-31 22,-29 -15,-55 -54,-37 -62,1 -67,2z"/>
   <path class="fil21" d="M5676 15245c58,-39 107,-102 -16,-100l16 100z"/>
   <path class="fil18" d="M4534 14061c37,-19 32,4 48,-33 33,-77 -5,-48 -9,-57 -40,18 -71,-40 -39,90z"/>
   <path class="fil21" d="M5008 15693l26 9 56 0c-24,-59 -38,-61 -83,-103l1 94z"/>
   <path class="fil21" d="M16803 14410c57,59 76,60 178,41l-3 -8 -103 -4 -34 -61c-39,25 2,-35 -38,32z"/>
   <polygon class="fil75" points="14199,13211 14265,13247 14354,13230 14203,13176 "/>
   <path class="fil81" d="M2462 13908l47 1c93,-27 39,-23 63,-44l-105 -18 -5 61z"/>
   <polygon class="fil43" points="2876,13895 2967,13877 2952,13831 2931,13836 2854,13843 "/>
   <path class="fil84" d="M14192 17989l-41 30 3 61 19 -50c51,2 49,12 82,-6l51 -70 -77 49 -37 -14z"/>
   <path class="fil46" d="M3182 13372c-25,120 -2,34 6,69 72,-46 17,-44 79,-94l-41 0c-67,2 -35,11 -44,25z"/>
   <path class="fil29" d="M16248 16989c89,-20 -12,-38 73,-41 -20,-48 -61,62 -9,-59 -2,1 -65,34 -67,36 -28,37 -65,-30 3,64z"/>
   <path class="fil32" d="M5576 13249l102 75c-1,-116 -14,-67 -27,-89 -61,-5 -3,-13 -75,14z"/>
   <path class="fil48" d="M10833 17090c-11,-25 -3,-49 -60,-37l-38 35c52,18 45,5 73,51 90,-63 24,40 25,-49z"/>
   <path class="fil85" d="M5406 13826c-17,-49 -9,-42 -72,-34l-18 9c68,49 -4,27 88,72 27,-36 19,16 2,-47z"/>
   <path class="fil35" d="M4548 13031l-62 -3c-43,139 -20,35 8,82 72,-44 23,38 54,-79z"/>
   <path class="fil70" d="M2499 13577c82,2 40,-32 90,37 27,-35 24,-6 24,-76 149,51 35,11 74,-1l-53 -14c-5,3 -50,26 -51,26 -4,2 -10,3 -14,4l-52 16c-5,1 -12,5 -18,8z"/>
   <path class="fil61" d="M8280 9419c0,34 31,25 73,31l18 -29c-24,-25 -35,-58 -81,-31l-10 29z"/>
   <path class="fil86" d="M2159 14371c16,-31 59,33 17,-46 -36,-66 16,-8 -67,-40 24,142 -22,52 50,86z"/>
   <path class="fil87" d="M17789 15774c31,-22 49,-49 61,-65l60 -3 1 -4 7 -42c-17,8 -46,18 -52,19 -15,4 -37,4 -53,5 -10,72 0,34 -24,90z"/>
   <path class="fil65" d="M17821 14506l69 11c-2,-49 12,-39 -20,-87 -59,32 -25,-31 -49,76z"/>
   <path class="fil38" d="M3242 14257c26,80 -50,37 83,58 -23,-79 -8,-93 -83,-58z"/>
   <path class="fil45" d="M8303 14724l-89 -106c20,74 -3,98 -3,96 -1,-3 -5,10 -7,14l99 -4z"/>
   <path class="fil88" d="M4206 13911c37,-19 51,10 53,-49 1,-63 17,-11 -42,-41 -32,51 -31,18 -11,90z"/>
   <path class="fil11" d="M6266 14859c82,-12 59,-22 108,-39 -18,-8 -26,-26 -59,-54l-49 93z"/>
   <path class="fil70" d="M16493 16549c35,40 -46,29 32,30 51,-55 33,-42 88,-39l0 -50c-41,13 -80,37 -120,59z"/>
   <path class="fil10" d="M2486 14525c-1,5 -6,7 -5,14 0,7 -2,12 -1,15 16,59 -10,-13 16,35 49,-25 49,-21 70,-82l-66 8c-3,1 -9,7 -14,10z"/>
   <path class="fil89" d="M8519 15405l-24 -62c-116,-61 -26,-21 -57,3 48,106 6,50 81,59z"/>
   <path class="fil90" d="M6521 9328l-35 -13 -65 10c57,32 -4,23 98,69l2 -66z"/>
   <path class="fil33" d="M14631 13256l-1 -47c-41,-39 -20,-18 -50,-29 -42,37 -34,-30 -30,47 44,17 37,15 81,29z"/>
   <path class="fil18" d="M3663 14673c12,-7 35,-5 39,-27 22,-119 7,-22 -30,-62 -4,6 -23,31 -23,36 -17,104 -5,25 14,53z"/>
   <path class="fil48" d="M9645 16446c75,27 8,9 45,-12l-38 -72c-97,-33 -7,-9 -47,17 35,36 11,-24 40,67z"/>
   <path class="fil91" d="M17617 14337l0 79c93,-8 36,1 48,-20l-3 -35 20 -35c-57,7 -1,-6 -65,11z"/>
   <path class="fil67" d="M9331 15774l12 -75 -143 -3c26,48 -10,21 44,31 10,2 70,-15 77,-17 -8,57 -24,31 10,64z"/>
   <path class="fil11" d="M9309 9567c-21,-15 -2,-19 -46,-24 -28,-3 -32,2 -59,6 -10,-99 2,-25 -34,-56l11 78 128 -4z"/>
   <path class="fil50" d="M4421 13047l-71 -7 -5 73c43,6 11,22 41,-7 52,-53 7,-9 35,-59z"/>
   <path class="fil1" d="M6369 15699l95 -8c-23,-88 33,-41 -51,-71 -18,92 4,14 -44,79z"/>
   <path class="fil76" d="M5150 13082l-2 -76 49 1c-5,-2 -12,-12 -15,-7 -3,5 -12,-6 -17,-7 -1,0 -60,-8 -62,-8l2 71 45 26z"/>
   <path class="fil92" d="M5611 9902l104 -43 -73 7c18,-114 31,-43 -20,-83l-11 119z"/>
   <path class="fil27" d="M12104 11562c-3,-12 16,-15 -24,-42 -39,-26 -19,-11 -63,-18 39,47 36,72 81,101l6 -41z"/>
   <path class="fil75" d="M6027 13533c42,-23 17,15 24,-40 -148,-45 -73,-11 -93,19l69 21z"/>
   <path class="fil51" d="M8214 9426l66 -7 10 -29c-31,-18 -141,-46 -76,36z"/>
   <path class="fil43" d="M3898 13679l56 -5 7 -38 -21 -16c-88,-7 -38,-12 -57,24l15 35z"/>
   <path class="fil50" d="M15327 13718l-29 -32c-37,-37 -3,-7 -34,-32 -33,-27 -14,-17 -58,-30 36,83 43,76 121,94z"/>
   <path class="fil53" d="M18800 14577l60 15c76,-7 10,7 28,-28l-38 13 7 -46 -17 -41c-3,4 -8,9 -10,13l-30 74z"/>
   <path class="fil93" d="M9639 10043c-48,-34 -12,-31 -52,-31 17,-19 17,-24 33,-53l-60 23c-18,-87 13,9 -43,-38 22,76 56,77 122,99z"/>
   <path class="fil45" d="M12505 11853c0,-44 -37,-34 -74,-37l1 85c77,-19 52,42 27,-64l46 16z"/>
   <path class="fil94" d="M13366 12664c-35,-36 3,-6 -55,-44l-61 -34 10 64 106 14z"/>
   <path class="fil45" d="M16374 14060l-49 -4c-29,47 -22,17 -27,88 78,-31 34,-21 76,-84z"/>
   <path class="fil38" d="M5055 14230c72,-21 44,24 70,-73 -111,14 -52,-24 -70,73z"/>
   <path class="fil8" d="M8083 17193c107,-3 78,48 69,-67 -73,26 -48,21 -69,67z"/>
   <path class="fil95" d="M8788 15727l40 10 9 -32 -5 -35 -25 0c-87,-32 -18,-12 -43,12 19,18 12,22 24,45z"/>
   <path class="fil37" d="M14625 17758c6,-5 15,-20 18,-16 3,4 12,-11 15,-16 3,-4 8,-11 11,-16l24 -46c-87,12 -87,18 -68,94z"/>
   <path class="fil29" d="M3111 13637l48 -10 -8 -41c-59,8 -18,-11 -60,19 -40,29 -28,30 -40,45l60 -13z"/>
   <path class="fil34" d="M16239 14195l4 42 53 -8c-24,-90 33,-26 -48,-73 -21,23 -43,-42 -9,39z"/>
   <path class="fil26" d="M4865 14792c-31,-60 51,-28 -79,-49 12,30 -1,35 24,52 71,48 42,2 55,-3z"/>
   <path class="fil96" d="M13947 13090c-7,104 -14,38 28,61l32 -31c-2,-6 -4,-13 -6,-18l-32 -42 -22 30z"/>
   <path class="fil70" d="M7779 9235c27,17 -29,51 99,13 13,-30 25,24 -20,-76l63 17 -43 -20c-55,56 -19,2 -37,70l-62 -4z"/>
   <path class="fil45" d="M15055 13644c18,14 -32,31 46,24 97,-9 15,-2 43,-24 -8,-6 -7,-63 -89,0z"/>
   <path class="fil50" d="M17217 16276c10,-17 97,39 0,-77 -69,102 -8,65 0,77z"/>
   <path class="fil55" d="M13857 12981l21 -39c-43,-16 1,14 -64,-22l-13 33 -10 34 66 -6z"/>
   <path class="fil51" d="M18685 14560l56 13c49,-44 -61,-39 58,-38 -59,-21 -57,-32 -114,-4l0 29z"/>
   <path class="fil97" d="M8568 15847l-62 -86c-32,-28 11,-4 -54,-39 104,133 6,104 116,125z"/>
   <path class="fil98" d="M2965 13431l-14 69 56 3 4 -79c-33,19 -11,20 -46,7z"/>
   <path class="fil3" d="M1555 14555l70 4c17,-78 -18,43 -5,-85 -48,38 -35,16 -65,81z"/>
   <path class="fil93" d="M2687 13537l87 5 5 -59c-53,27 -85,11 -92,54z"/>
   <path class="fil1" d="M6460 16162c60,-122 2,-58 -7,-74 -49,45 -62,42 7,74z"/>
   <path class="fil48" d="M8755 15270l-58 -62c-79,50 -20,-18 -7,21 1,2 5,7 6,10l36 74c39,-27 62,41 23,-43z"/>
   <path class="fil37" d="M14541 13308l10 0 48 23c40,-33 24,20 31,-59l-65 8 -24 28z"/>
   <path class="fil99" d="M6286 9390l17 18 2 33c45,-24 42,-29 89,-56l-38 -13 -70 18z"/>
   <path class="fil98" d="M16628 16485l75 -23c-89,152 -29,62 -18,76l39 -101 -29 0c-5,3 -31,17 -32,17 -37,25 -8,1 -35,31z"/>
   <path class="fil34" d="M15591 13837l-14 -25 -40 -15c13,84 -10,36 38,93 27,-26 13,12 16,-53z"/>
   <path class="fil88" d="M6094 13272c0,-40 -43,-34 -72,-40l6 67 66 -27z"/>
   <path class="fil100" d="M15298 17182l-3 42c37,2 30,12 30,-21l43 40 28 -83 -44 41 -54 -19z"/>
   <path class="fil27" d="M10327 10300l-9 -32 -59 -14c2,42 -46,73 68,46z"/>
   <path class="fil101" d="M15295 17224l3 -42 4 -21c-42,9 -79,3 -79,34l72 29z"/>
   <path class="fil102" d="M8333 14734l5 4 -74 -2c15,15 -5,10 46,41 33,20 4,2 59,21l-36 -64z"/>
   <path class="fil103" d="M5822 9618l67 -8 -9 -66c-55,36 -33,-2 -58,74z"/>
   <path class="fil38" d="M2496 14311c41,-57 53,80 20,-34 -20,-67 17,-1 -36,-51 -32,78 -42,42 16,85z"/>
   <path class="fil69" d="M5602 9674l67 -11 31 -4 -1 -6 19 -45c-11,5 -56,22 -65,27 -58,30 -21,8 -51,39z"/>
   <path class="fil55" d="M13507 12758l107 46c8,-68 5,-25 -32,-57l-75 11z"/>
   <path class="fil18" d="M19377 15099l72 13c-18,-66 -18,-5 1,-79 -49,29 -12,-3 -47,32 -24,23 -19,25 -26,34z"/>
   <path class="fil34" d="M12997 12378c79,48 24,20 42,0 -95,-84 -38,-49 -71,-14 -34,64 18,23 29,14z"/>
   <path class="fil104" d="M16458 16846c-51,18 -34,-34 -43,41 56,-18 3,-6 74,-12l28 -45 -59 16z"/>
   <path class="fil105" d="M2965 13431c35,13 13,12 46,-7l-2 -29c-85,20 -69,-10 -97,43l53 -7z"/>
   <path class="fil61" d="M9752 16263l27 38 29 -25 31 3c-29,-51 -13,-32 -54,-59l3 40 -36 3z"/>
   <path class="fil106" d="M6109 15362c6,57 -2,28 52,50 -4,-45 29,-24 -13,-53 -65,-47 -25,-1 -39,3z"/>
   <path class="fil107" d="M4415 13027l67 -19 4 20 62 3 6 -26c-63,2 -47,-2 -99,-16l-40 38z"/>
   <path class="fil108" d="M5134 13268c5,5 12,4 16,14l54 45c-19,-70 6,-25 -30,-81 -95,0 -11,-6 -46,29l6 -7z"/>
   <path class="fil29" d="M4571 13286l3 -46c-68,12 -39,15 -83,-20 17,68 -16,40 80,66z"/>
   <path class="fil29" d="M17415 16288l0 9 8 -51c-139,32 -39,-12 -86,52l78 -10z"/>
   <path class="fil73" d="M17158 14294l-59 1c36,96 -36,58 68,53 -36,-20 -10,-33 -9,-54z"/>
   <polygon class="fil107" points="14588,17535 14681,17520 14696,17460 "/>
   <path class="fil57" d="M15267 13807c9,18 -46,11 38,22l36 -10 -69 -58 -5 46z"/>
   <path class="fil109" d="M19425 14823c67,10 41,20 63,-47 -45,-38 -42,7 -45,17l-18 30z"/>
   <path class="fil43" d="M6370 13393c-55,-53 -32,-26 -105,-41l5 46c94,-24 26,-19 100,-5z"/>
   <path class="fil42" d="M18683 15245c1,1 -20,59 36,19 60,-43 24,12 11,-61l-47 42z"/>
   <polygon class="fil39" points="8493,15556 8487,15511 8437,15521 8428,15568 "/>
   <path class="fil110" d="M9987 16790l-16 -76 -79 -3 0 25 44 -10c3,4 7,6 9,13l20 26c3,3 9,10 11,12 2,3 7,9 11,13z"/>
   <path class="fil111" d="M17055 14280l-39 9c-5,-96 5,-15 -26,-53 2,66 17,72 18,71 1,-3 8,9 11,13 58,-7 19,8 36,-40z"/>
   <polygon class="fil24" points="6975,9431 7047,9435 7074,9387 7039,9388 "/>
   <path class="fil109" d="M17967 15653c29,20 -8,14 33,16 1,0 42,-5 49,-6 6,-69 6,-8 -28,-40l-54 30z"/>
   <path class="fil112" d="M9581 15982l26 18 -12 -59 -76 -12 -7 26c79,-3 51,-1 69,27z"/>
   <path class="fil77" d="M14943 17616l53 -20 25 -54c-53,26 -32,-32 -46,31 -56,20 -12,-3 -32,43z"/>
   <path class="fil65" d="M6136 9646c-40,-60 26,-28 -42,-50 -89,-28 -5,-6 -43,11 5,4 10,5 13,13l43 19c9,3 20,4 29,7z"/>
   <path class="fil75" d="M9548 16335l8 19c95,9 23,8 51,-24l-70 -38 11 43z"/>
   <path class="fil60" d="M14043 18114c12,25 -49,16 43,25l-7 -27 -8 -64c-15,20 -5,1 -22,37 -2,3 -5,22 -6,29z"/>
   <path class="fil21" d="M9427 15866l34 9 -29 -67 -53 -19c24,29 29,36 48,77z"/>
   <polygon class="fil72" points="9988,10038 9949,10034 9895,10028 9983,10089 "/>
   <path class="fil49" d="M5672 13198c-23,-22 -36,-32 -50,-50 -89,67 -3,44 50,50z"/>
   <path class="fil37" d="M7084 9239c15,34 6,21 42,39 26,-20 31,25 26,-47l-68 8z"/>
   <path class="fil45" d="M17099 14465c29,-61 34,-2 0,-77 -61,64 -20,61 0,77z"/>
   <path class="fil75" d="M7981 14378c-35,-72 -2,-19 -40,-33l-46 16c57,35 15,26 86,17z"/>
   <path class="fil76" d="M16158 16732l49 -4c29,-20 19,37 33,-54 -27,16 -10,2 -41,24 -52,35 -16,12 -41,34z"/>
   <path class="fil39" d="M13637 18014l80 -5c-34,-42 39,-17 -44,-40l-36 45z"/>
   <path class="fil65" d="M11048 17415c-27,-79 40,-44 -64,-51 28,57 -1,27 64,51z"/>
   <path class="fil96" d="M5141 13326l-7 -58 -6 7 -81 17 82 24c3,2 8,7 12,10z"/>
   <path class="fil45" d="M10838 10624c-121,1 -32,-7 -59,32 68,31 26,31 59,-32z"/>
   <path class="fil51" d="M17824 14497c-55,-77 44,25 -33,-26l-55 0 -25 24 113 2z"/>
   <path class="fil43" d="M13961 12855l59 3c-25,-37 31,-29 -24,-37l-36 -9 1 43z"/>
   <path class="fil103" d="M18519 15335l41 -4 59 -51c3,-3 8,-8 13,-12l-66 23c-3,3 -7,7 -10,10l-37 34z"/>
   <path class="fil108" d="M13903 18118c9,14 -10,16 30,20 19,-50 -23,-40 20,-43l-28 -16c-34,20 -42,-35 -22,39z"/>
   <path class="fil72" d="M9134 9686l-8 1 60 22c-21,-47 -1,-19 -36,-63 -29,25 -43,-39 -16,40z"/>
   <path class="fil72" d="M8669 9511l20 1c7,-57 28,-21 -20,-60 -22,36 -62,-46 0,59z"/>
   <path class="fil56" d="M5022 13070c49,37 42,23 71,0 -1,-1 11,-48 -71,0z"/>
   <path class="fil27" d="M11447 11328l20 8c42,-15 19,1 38,-30 -42,-17 -22,-9 -70,-11l12 33z"/>
   <path class="fil39" d="M8858 15855c-35,-99 17,-27 -66,-64 39,75 -14,26 66,64z"/>
   <path class="fil17" d="M14079 18112l7 27c42,-19 7,7 43,-23 28,-22 9,-10 25,-36 -36,12 -49,17 -75,32z"/>
   <path class="fil85" d="M6128 16693l5 12 47 -11c-10,-60 29,-14 -28,-48l-24 47z"/>
   <path class="fil52" d="M14387 13098l-21 2c-71,8 -10,-17 -51,18l60 25 12 -45z"/>
   <path class="fil105" d="M18809 15146c4,-1 51,-14 51,-14 39,-22 12,-5 39,-33 -85,16 -58,-8 -90,47z"/>
   <path class="fil113" d="M7516 9412l53 -21c2,-48 10,-31 -47,-22l-6 43z"/>
   <path class="fil65" d="M9450 9763c-32,-64 18,-14 -56,-56 22,78 -37,46 56,56z"/>
   <path class="fil39" d="M18899 14570l86 -11c-14,-12 0,-71 -86,11z"/>
   <path class="fil43" d="M19639 16962c90,-17 25,10 66,-33 -76,-46 -32,9 -66,33z"/>
   <path class="fil96" d="M13489 12758l-15 -41 -67 -2c4,4 10,4 13,12 3,7 10,9 14,10 39,20 4,7 55,21z"/>
   <polygon class="fil114" points="6286,9390 6356,9372 6356,9345 6300,9356 "/>
   <path class="fil48" d="M18520 14404c6,0 38,0 43,-1 42,-15 29,-12 49,-27 -99,0 -56,-16 -92,28z"/>
   <path class="fil115" d="M7709 9430l59 -20c-31,-40 40,-31 -36,-34l-23 54z"/>
   <path class="fil111" d="M10327 10300c18,56 -32,40 38,47 -20,-66 3,-35 -47,-79l9 32z"/>
   <path class="fil116" d="M2336 13645l44 -9c3,-46 17,-38 -23,-38 -38,31 -11,-3 -21,47z"/>
   <polygon class="fil117" points="5210,10172 5270,10086 5218,10104 "/>
   <path class="fil37" d="M3271 13594c-25,-70 12,-21 -51,-51 21,68 -31,44 51,51z"/>
   <polygon class="fil87" points="19651,14271 19730,14260 19730,14236 19691,14234 "/>
   <path class="fil81" d="M19004 15351l0 21 55 -1 0 -47 -23 1c3,37 10,25 -32,26z"/>
   <path class="fil39" d="M2183 14005l51 40 29 -81 -22 12c-17,43 38,39 -58,29z"/>
   <path class="fil115" d="M14393 17952l-61 -16c12,19 64,101 61,16z"/>
   <path class="fil107" d="M5375 13052l29 -3c16,-27 -31,-21 49,-20 -27,-30 41,-30 -49,-21l-29 44z"/>
   <path class="fil96" d="M11844 17765c-24,-16 10,0 -47,-26 -13,-6 -32,-11 -50,-18l29 40 68 4z"/>
   <path class="fil76" d="M6486 9315l35 13 82 -69c-56,45 -4,9 -54,28l-48 19c-4,1 -10,6 -15,9z"/>
   <polygon class="fil81" points="13576,12553 13498,12479 13520,12539 "/>
   <path class="fil65" d="M11810 17602c48,44 -60,32 27,21 55,-7 4,15 34,-21 -7,-5 3,-33 -61,0z"/>
   <path class="fil48" d="M17910 15706c-44,70 -16,16 0,40 22,-20 9,7 34,-44 -16,-19 19,-13 -33,0l-1 4z"/>
   <path class="fil71" d="M14896 17640c39,27 -51,21 49,23l1 -42 -50 19z"/>
   <polygon class="fil51" points="18888,14564 18899,14536 18857,14531 18850,14577 "/>
   <polygon class="fil99" points="5699,9653 5746,9644 5736,9598 5718,9608 "/>
   <polygon class="fil75" points="17662,14361 17720,14362 17710,14332 17682,14326 "/>
   <path class="fil102" d="M5345 13328l20 9c11,-106 10,-28 -20,-59 -16,26 -13,-4 0,50z"/>
   <path class="fil72" d="M7145 9410l20 -2c6,-43 27,-15 -19,-40 -23,23 -59,-35 -1,42z"/>
   <path class="fil118" d="M19004 15372c63,35 58,11 67,8 4,-27 11,-2 1,-32l-13 -24 0 47 -55 1z"/>
   <path class="fil67" d="M9645 16446c-29,-91 -5,-31 -40,-67l-17 -14c1,3 7,24 17,38 29,45 12,23 40,43z"/>
   <polygon class="fil48" points="5746,9644 5785,9648 5761,9603 5736,9598 "/>
   <polygon class="fil45" points="16835,16376 16771,16371 16807,16417 "/>
   <path class="fil119" d="M12270 11863l50 10c-56,-77 -33,-48 -58,-29l8 19z"/>
   <path class="fil48" d="M12488 17678l-20 2c-1,44 -20,19 20,41 23,-20 58,42 0,-43z"/>
   <path class="fil120" d="M2253 13686c27,-5 27,1 54,-13 46,-26 14,-8 29,-28 -23,5 -16,-3 -43,12 -25,13 -27,18 -40,29z"/>
   <path class="fil72" d="M7423 14276l14 -5c28,-36 60,17 -14,-51 -8,17 -10,9 0,56z"/>
   <path class="fil67" d="M9486 9783l48 12c-6,-18 36,-88 -48,-12z"/>
   <path class="fil117" d="M5519 9969l63 -1 31 -45c-34,22 -14,8 -49,25 -11,5 -28,19 -31,14 -3,-4 -10,5 -14,7z"/>
   <path class="fil24" d="M8944 9614l-18 -49c-77,5 -20,-6 -42,27 64,4 18,-17 60,22z"/>
   <path class="fil32" d="M8968 15533c-29,-71 1,-23 -48,-51 22,61 -25,29 48,51z"/>
   <path class="fil94" d="M9091 15569c-17,-61 19,-21 -47,-63 23,65 9,39 47,63z"/>
   <path class="fil102" d="M9154 15654c-86,-34 -11,-9 -40,8 8,69 -9,-3 30,28l10 -36z"/>
   <path class="fil57" d="M9848 16294l-9 -15 -31 -3c25,51 -35,50 28,41l12 -23z"/>
   <polygon class="fil34" points="11835,11586 11832,11579 11876,11563 11799,11537 "/>
   <path class="fil61" d="M8160 14670c76,11 39,24 45,-30 -45,1 -26,11 -45,30z"/>
   <path class="fil117" d="M6532 9524c71,-6 59,4 95,-46l-95 46z"/>
   <path class="fil67" d="M12081 11685l32 18c62,-15 3,15 50,-30l-82 12z"/>
   <path class="fil101" d="M10348 16763c-10,-42 3,-71 -48,-72l48 72z"/>
   <path class="fil114" d="M14417 17620l46 -16c34,0 22,7 23,-33 -20,12 -25,14 -43,27 -3,2 -11,15 -13,11 -3,-4 -9,7 -13,11z"/>
   <path class="fil121" d="M13550 17970l-30 23c-2,33 -12,56 21,16 31,-36 14,44 9,-39z"/>
   <path class="fil99" d="M18205 15514l37 30 -15 -60c-35,11 -15,-2 -22,30z"/>
   <path class="fil32" d="M13853 17973c4,-6 13,-20 13,-17l-13 -52c-1,2 -33,35 0,69z"/>
   <path class="fil34" d="M14519 13337c90,16 20,14 32,-29l-10 0c-34,15 -24,-36 -22,29z"/>
   <path class="fil71" d="M8780 9332l-26 -66c-104,-6 -18,-2 -55,18l66 -14c-26,133 -7,20 15,62z"/>
   <path class="fil51" d="M16981 14451c35,-5 42,-14 45,-15 -88,-56 -21,-15 -48,7l3 8z"/>
   <path class="fil39" d="M4362 13327c39,-13 27,-12 70,-11l-34 -30 -36 41z"/>
   <path class="fil52" d="M18065 14339l15 -26c-3,-27 44,-16 -31,-26l16 52z"/>
   <path class="fil110" d="M7730 9188l34 8c-23,-33 6,-21 -59,-43l25 35z"/>
   <path class="fil93" d="M9681 9904c26,24 19,28 52,21 -24,-34 18,-33 -52,-21z"/>
   <polygon class="fil115" points="14631,13256 14630,13272 14662,13276 14630,13209 "/>
   <path class="fil48" d="M19552 14636c29,-34 32,-23 20,-60 -27,26 -23,30 -20,60z"/>
   <path class="fil16" d="M2298 14544c24,-39 15,-29 0,-62 -43,55 -45,-69 -19,31 27,105 -53,-25 19,31z"/>
   <path class="fil45" d="M15762 13941c51,24 2,27 57,0 -33,-22 -24,-17 -57,0z"/>
   <path class="fil48" d="M15923 16880l-16 26c71,-15 15,11 59,-34l-43 8z"/>
   <polygon class="fil48" points="5286,13028 5273,13026 5268,13054 5318,13061 "/>
   <path class="fil34" d="M12890 12094c-16,-51 1,-19 -30,-21l-23 6c38,29 1,12 53,15z"/>
   <polygon class="fil110" points="11447,11328 11435,11295 11378,11287 "/>
   <path class="fil56" d="M2693 13699c35,-46 10,-19 0,-44 -14,27 -53,-52 0,44z"/>
   <path class="fil48" d="M5337 9847c37,-14 55,9 24,-23l-42 0 18 23z"/>
   <path class="fil122" d="M18194 15800c52,-17 39,10 70,-46l-70 46z"/>
   <path class="fil108" d="M6420 9556c-14,-29 3,-23 -17,-24 -31,0 -13,3 -32,16l49 8z"/>
   <path class="fil32" d="M9433 16562l-36 11 17 25c61,-40 16,20 19,-36z"/>
   <path class="fil38" d="M9510 15920l-51 -46 0 33c33,4 14,-9 51,13z"/>
   <path class="fil87" d="M16950 16279c46,-26 16,37 46,-55l-46 55z"/>
   <path class="fil108" d="M5816 9771l27 11 -3 3c17,-62 21,-19 1,-42l-25 28z"/>
   <path class="fil34" d="M13072 12219l-7 -12c-36,14 -35,-5 -28,30l35 -18z"/>
   <path class="fil72" d="M9351 15793l-33 8c19,17 10,64 33,-8z"/>
   <path class="fil123" d="M16670 14189c-36,21 -29,3 -7,38 12,-18 13,19 7,-38z"/>
   <path class="fil87" d="M15336 17137l69 -52c-60,23 -29,-2 -69,52z"/>
   <polygon class="fil69" points="19382,14829 19425,14823 19443,14793 "/>
   <path class="fil29" d="M18998 15324c1,-4 6,-12 5,-9l-5 -24c-42,42 -30,18 0,33z"/>
   <path class="fil124" d="M19271 15191c35,-21 22,5 44,-57l-44 57z"/>
   <polygon class="fil109" points="14952,17366 15002,17352 14963,17344 "/>
   <path class="fil69" d="M3012 13401c6,-2 16,-10 19,-5 4,5 15,-3 19,-5 54,-27 19,-8 43,-28l-81 38z"/>
   <path class="fil114" d="M16695 16437l29 0c5,-60 -23,-12 26,-65l-55 65z"/>
   <path class="fil83" d="M13427 18027l37 -5c-64,-26 -24,-25 -37,5z"/>
   <path class="fil96" d="M9385 9869l-45 -58c21,41 18,36 45,58z"/>
   <path class="fil42" d="M16360 16645l43 29c-2,-4 -4,-12 -5,-16l-38 -13z"/>
   <path class="fil72" d="M17875 15985l2 -29c-24,31 -27,13 -2,29z"/>
   <path class="fil114" d="M16836 16362c24,-21 28,-23 46,-54l-46 54z"/>
   <path class="fil110" d="M6993 13724l-68 -43c17,11 40,26 68,43z"/>
   <polygon class="fil72" points="5721,13424 5724,13417 "/>
   <polygon class="fil114" points="18266,15477 18347,15437 "/>
  </g>
 </g>
</svg>
