<?xml version="1.0" encoding="UTF-8"?>
<!DOCTYPE svg PUBLIC "-//W3C//DTD SVG 1.1//EN" "http://www.w3.org/Graphics/SVG/1.1/DTD/svg11.dtd">
<!-- Creator: CorelDRAW X8 -->
<svg xmlns="http://www.w3.org/2000/svg" xml:space="preserve" width="210mm" height="297mm" version="1.1" style="shape-rendering:geometricPrecision; text-rendering:geometricPrecision; image-rendering:optimizeQuality; fill-rule:evenodd; clip-rule:evenodd"
viewBox="0 0 21000 29700"
 xmlns:xlink="http://www.w3.org/1999/xlink">
 <defs>
  <style type="text/css">
   <![CDATA[
    .fil109 {fill:#111030}
    .fil102 {fill:#120911}
    .fil99 {fill:#151748}
    .fil75 {fill:#170B16}
    .fil48 {fill:#1B1626}
    .fil42 {fill:#20234D}
    .fil72 {fill:#28151A}
    .fil27 {fill:#281A27}
    .fil108 {fill:#2B0D0E}
    .fil34 {fill:#2B232B}
    .fil52 {fill:#2B2635}
    .fil46 {fill:#2C1833}
    .fil33 {fill:#33232D}
    .fil57 {fill:#342533}
    .fil51 {fill:#351B27}
    .fil123 {fill:#352A34}
    .fil29 {fill:#371819}
    .fil60 {fill:#38272A}
    .fil119 {fill:#382838}
    .fil78 {fill:#3A2B34}
    .fil55 {fill:#3C2D3B}
    .fil2 {fill:#43333C}
    .fil4 {fill:#443443}
    .fil83 {fill:#462A36}
    .fil90 {fill:#493A54}
    .fil12 {fill:#4B3543}
    .fil35 {fill:#4B4455}
    .fil5 {fill:#4C3C4B}
    .fil7 {fill:#4C424C}
    .fil100 {fill:#4D3862}
    .fil91 {fill:#4D4E6E}
    .fil13 {fill:#533C4B}
    .fil31 {fill:#53424C}
    .fil9 {fill:#544453}
    .fil49 {fill:#574957}
    .fil98 {fill:#594A64}
    .fil68 {fill:#5B4453}
    .fil40 {fill:#5B4B5B}
    .fil56 {fill:#5B5465}
    .fil103 {fill:#5E6696}
    .fil37 {fill:#644A58}
    .fil53 {fill:#654C63}
    .fil32 {fill:#65545A}
    .fil50 {fill:#675766}
    .fil92 {fill:#6D4E4F}
    .fil73 {fill:#6D5974}
    .fil93 {fill:#706972}
    .fil70 {fill:#72728B}
    .fil65 {fill:#745967}
    .fil69 {fill:#758AA7}
    .fil61 {fill:#76636A}
    .fil45 {fill:#776875}
    .fil81 {fill:#87777A}
    .fil67 {fill:#877985}
    .fil71 {fill:#8B8389}
    .fil121 {fill:#8C7071}
    .fil101 {fill:#8C8995}
    .fil114 {fill:#90A4B9}
    .fil76 {fill:#9193AB}
    .fil87 {fill:#94ADCD}
    .fil39 {fill:#97888A}
    .fil88 {fill:#978B94}
    .fil43 {fill:#9C9396}
    .fil120 {fill:#9DA7D7}
    .fil24 {fill:#A29495}
    .fil96 {fill:#A49BA5}
    .fil30 {fill:#A59699}
    .fil115 {fill:#AA9C9D}
    .fil110 {fill:#AAA5AA}
    .fil107 {fill:#AAA9B6}
    .fil38 {fill:#AC9EA2}
    .fil105 {fill:#ACB2CD}
    .fil117 {fill:#AD9390}
    .fil106 {fill:#ADA2A3}
    .fil111 {fill:#AF9CA6}
    .fil124 {fill:#B0A39C}
    .fil17 {fill:#B2A3A4}
    .fil18 {fill:#B2A5A6}
    .fil21 {fill:#B3A6A9}
    .fil11 {fill:#B5AAAC}
    .fil113 {fill:#B5ABB4}
    .fil23 {fill:#B6A9AA}
    .fil116 {fill:#B7C6D4}
    .fil1 {fill:#B9ADAE}
    .fil25 {fill:#BAACAC}
    .fil19 {fill:#BAAEB1}
    .fil85 {fill:#BBB2B2}
    .fil84 {fill:#BDB1B2}
    .fil94 {fill:#BDB4BA}
    .fil112 {fill:#C4BBBC}
    .fil63 {fill:#C5BCC1}
    .fil66 {fill:#C9BEBE}
    .fil122 {fill:#CAA79A}
    .fil77 {fill:#CAB7B6}
    .fil41 {fill:#CABBBC}
    .fil0 {fill:#CAC1C2}
    .fil80 {fill:#CBC9D4}
    .fil97 {fill:#CCBEC2}
    .fil44 {fill:#CDC2C2}
    .fil64 {fill:#CEC5C6}
    .fil79 {fill:#D1C6C9}
    .fil74 {fill:#D2C3C4}
    .fil62 {fill:#D2C9CA}
    .fil59 {fill:#D6CCCD}
    .fil22 {fill:#D6D1D3}
    .fil82 {fill:#D8CDD6}
    .fil118 {fill:#D8D1CE}
    .fil58 {fill:#DAD1D2}
    .fil10 {fill:#DBD3D4}
    .fil47 {fill:#DBD9E4}
    .fil14 {fill:#DCD5DA}
    .fil104 {fill:#DDC7B7}
    .fil26 {fill:#DDD5D5}
    .fil8 {fill:#E2DBDC}
    .fil3 {fill:#E3DDE2}
    .fil86 {fill:#E4D8D6}
    .fil20 {fill:#E5E2E3}
    .fil36 {fill:#E6E2DD}
    .fil89 {fill:#E7E7E9}
    .fil16 {fill:#EAE4E5}
    .fil95 {fill:#EBE5E9}
    .fil28 {fill:#EDEAEB}
    .fil54 {fill:#F2ECED}
    .fil6 {fill:#F7F7FA}
    .fil15 {fill:#FAFAFA}
   ]]>
  </style>
 </defs>
 <g id="Ebene_x0020_1">
  <metadata id="CorelCorpID_0Corel-Layer"/>
  <g id="_1602532455488">
   <path class="fil0" d="M16311 12365l-26 35c-105,1 -39,-17 -102,21 86,90 40,0 144,59l-47 82c80,41 61,6 53,102 77,-86 14,-46 40,-46 67,91 11,-68 14,20l-44 98c107,-37 22,6 95,-51l33 61c23,83 15,38 42,58 -80,25 -39,25 -56,68 -48,-19 -14,6 -38,-37l-21 -49c-37,-1 -21,-2 -57,2l-60 20c-2,-5 -11,6 -16,9 28,62 1,14 33,58 3,4 16,18 19,21l22 21c204,-22 97,31 98,37l74 -32 26 65c207,-1 54,54 198,27 1,-3 3,-9 3,-10l5 -19c1,-1 2,-7 3,-8l58 -42c-75,-39 -36,19 -51,-81 -34,18 -43,24 -69,26l-2 -89c167,55 -76,-36 161,15l-52 -46c-4,-3 -10,-5 -13,-8 -35,-32 -12,9 -23,-49 -94,-1 -75,11 -124,-37l-21 -24c-54,-51 -42,14 -59,-81 5,5 11,10 16,14 58,51 20,102 55,51 3,-4 9,7 14,14l177 -9c-20,58 -6,24 -33,72 76,-43 38,5 68,-72 199,29 140,-94 175,40 66,-104 4,-44 68,-79 16,22 50,3 -9,97 122,-101 18,8 129,-54 -13,-64 -38,-21 -41,-168l-47 -3 2 -30c-51,6 -101,-15 -104,-22 -5,-11 -16,-8 -24,-11 18,100 11,38 -10,60l17 -57c33,-17 140,-1 207,1 144,4 70,51 225,33 -132,-2 10,16 -47,-38l51 20 44 16c-40,43 7,5 -53,32 -25,11 -23,6 -36,16 -58,18 -50,4 -132,1 17,-52 -43,-42 27,-51l-80 7c18,58 14,18 -19,58l36 26c21,48 -9,-26 6,35l11 39c30,-10 26,38 48,-68 114,8 36,-4 65,31l-24 40c47,38 40,25 107,10 51,-10 1,-24 29,7 -35,60 -52,54 -64,94 141,26 -60,-126 221,40l46 -57c12,61 -2,40 53,70l43 -70c23,26 -42,34 60,18 13,23 -4,23 24,36 -22,16 -42,23 -56,59 -40,108 5,72 9,80 80,-27 38,-40 74,-97 26,36 52,-57 10,91 211,-2 29,95 223,60 -77,-195 -205,-70 -193,-212 57,13 66,8 65,81 104,-41 39,36 77,-69l52 71c1,-4 6,10 10,15 8,-124 -69,-153 32,-146l68 19c24,20 -29,16 63,43l48 -1c8,52 133,37 199,56l29 82 51 -41c84,-20 41,-15 94,3 2,6 4,12 6,17 1,4 5,12 7,17 2,5 16,32 20,37l-63 -29c-50,56 18,-18 -44,18 -21,12 -31,11 -35,50 36,35 -7,32 125,11l17 -61c43,8 88,28 106,32 113,20 48,27 70,-39 5,4 11,10 13,14 3,3 9,9 12,14l110 191c37,57 104,139 126,194 12,128 -22,7 -5,85l70 -3c17,27 42,71 63,102 31,46 36,41 73,88 -60,-18 -92,-49 -80,41 -83,-29 -115,-40 -192,-69 -63,-24 -112,-34 -172,-60 -48,57 -122,84 -198,109 -96,30 -108,58 -238,80 14,-52 17,-18 -2,-55l-97 54c-20,-14 -37,-24 -70,-33l-69 -25c-1,2 -4,5 -4,6l20 66c14,42 11,1 -14,71l68 -8 -123 -78c-183,56 -145,23 -241,34l-28 7c-6,1 -21,10 -25,11 -3,1 -12,9 -14,5 -2,-4 -9,3 -14,4 -47,30 -65,19 -129,26 4,-63 14,-24 -11,-57 -5,3 -12,7 -16,9l-33 15c-43,15 -8,6 -52,6 26,-25 15,-11 31,-23l45 -35c-3,0 -67,-6 -70,-6 -89,-1 18,-19 -28,8 54,-46 90,-147 -95,-162l-70 58c60,49 7,-7 33,52 -50,17 -2,-22 -62,41l-49 -15c-62,-10 -31,-3 -57,9 58,114 3,-1 82,59 -64,55 -37,-4 -85,78 -44,-75 3,-14 -49,-55 -43,10 -47,12 -80,21 -23,-84 -11,-53 -89,-71 -24,45 -38,79 -34,142l101 20c-62,38 -184,32 -280,46l17 -45c-59,2 -21,5 -62,-7l-29 -24c-5,4 -12,9 -15,12l-26 20c-2,2 -7,6 -9,8l-22 13c-151,-30 -40,-27 -86,17 -41,-79 0,-20 -64,-69 -76,-57 18,-31 -115,-47 40,67 -1,36 76,81 -4,3 -9,8 -11,10l-45 54 -40 -47 -21 104c-99,-20 -82,-20 -137,-4 0,6 -2,13 -1,17 1,4 1,12 3,16 18,43 29,36 56,64 -68,-31 -100,-74 -137,-134 -117,-14 -97,-17 -210,-50 54,60 24,27 14,86l199 2c-58,35 -76,50 -23,112 26,-9 35,49 29,-22 166,8 48,-16 109,48 -76,43 53,-78 -40,34l-18 26c-20,27 -13,23 -41,52l-23 -15c-50,-42 -35,-56 -49,-76 -2,-4 -4,-10 -8,-13l-98 -43c-171,-6 -51,2 -99,35 6,3 13,7 19,9l93 40c76,56 -69,52 98,42 -42,112 -31,56 -5,89 63,0 -3,9 68,-32l-21 62 -81 8 -12 -26 -129 9c-7,78 2,54 -59,87 33,21 -40,20 42,18 -28,37 -33,42 -79,60 -42,16 -69,27 -112,40l2 -94c-46,42 -60,44 -84,103l57 0c-28,31 -11,18 -51,42l-165 74c-144,51 -86,63 -191,127 7,147 -27,127 -98,198 -142,140 -106,88 -106,172l-76 -19c-33,81 -38,58 -89,110l-99 98c-80,89 -75,124 -221,190l-25 -48c-56,34 -17,-12 -27,48 -33,-23 -56,-37 -108,-62 -20,-84 -17,-84 29,-136 -59,19 -49,29 -74,81 -115,-48 65,65 -42,-24l-53 27c-31,-21 -22,-8 -47,-40l-28 53c119,19 78,25 102,69 -185,17 -148,-36 -140,-110 -66,-39 -16,30 -71,-63 -5,3 -12,2 -15,8l-75 12c-29,-107 13,-50 -49,-79 -5,21 -53,-68 12,50 34,61 23,17 38,106 -85,-26 -25,-16 -116,-79l13 72c-4,1 -10,0 -11,3 -11,29 -42,-59 -134,-9 4,3 10,3 12,9 2,7 10,7 13,9 21,14 8,-2 25,15 32,30 24,32 39,79 -86,-6 -44,-6 -109,-17 -12,26 -2,14 -19,37 -35,49 4,9 -40,43l29 41c-15,101 4,12 -20,56l25 36 -91 62c331,-14 308,-87 291,84 16,1 44,0 63,3 55,10 19,-4 52,21 -20,9 -118,29 -156,51 -54,32 -51,73 -134,59 0,-63 -79,-29 -139,-26l-39 -40c73,44 44,36 107,-28l-39 -29c-79,-65 0,-51 -72,-107 -19,-14 -143,-66 -174,-68 -28,45 -42,205 -154,106 12,-28 -1,-5 20,-34l0 -45 -71 22c-25,-48 -31,-59 -101,-71 62,87 35,74 103,97 -40,51 -30,29 -4,76 -32,-23 56,-14 -34,-16 -49,-1 -61,7 -64,24 -1,7 -6,11 -8,13 -1,3 -5,11 -7,14 -74,117 -55,-14 -96,124 -3,19 30,14 -52,42 -33,11 -8,-1 -47,11 -52,17 -25,11 -33,17 -68,35 -51,2 -86,65l-60 9 -20 -17c-92,59 -134,9 -238,88 -88,-29 -227,-41 -325,-8 -72,3 -67,14 -93,14 -101,-1 14,-60 -194,30 -48,-54 -66,-47 -143,-74 -149,-53 -51,37 -306,-34 -69,-19 -27,-31 -147,-21l-33 -36c-46,-41 -130,-56 -184,-73l-89 -13 -17 -65 93 -38c33,-31 17,-6 50,-42 -79,-1 -55,11 -107,-16 4,-43 -42,-5 40,-43l-61 -12c25,-48 34,-26 9,-89l-24 -54c43,-29 16,-36 78,-77l-16 53c52,59 20,25 38,63 19,39 16,31 45,59l59 75c52,-75 43,-66 117,-81l34 56c74,-27 104,-25 146,-90 61,28 61,18 90,-55l53 -5 -43 18 37 61c43,47 44,31 101,38 -22,-132 25,-61 -77,-113 21,-106 3,-82 -20,-184l38 -11c38,4 17,2 36,13 29,15 75,38 75,75 0,46 5,4 -9,58 17,-5 69,-24 81,-24 41,-2 47,8 69,28l14 -40c104,27 74,48 121,-7l206 23c13,57 14,95 60,130 3,3 10,8 15,12l-20 75c29,30 17,62 45,101l106 -13c-4,-37 -11,-79 -14,-99 -8,-58 23,-1 -28,-64 27,-54 39,-59 15,-117 -60,19 -17,-34 -28,73l-85 -19c-10,-70 11,-77 -27,-122 -3,-3 -9,-8 -14,-12 10,-21 27,-34 21,-75 -1,-6 -11,-26 -13,-32 156,-17 -5,-28 94,-77 78,-38 169,40 175,-79l5 -88c103,-31 91,26 189,44l0 -89c118,16 55,9 87,-60l98 -94c73,-67 13,-124 150,-116l101 12c-9,-64 -29,-18 -10,-108l31 -109c6,-1 13,-12 17,-6 6,7 15,-4 22,-4 6,-1 52,-2 59,-2l20 67c27,-61 63,-50 79,-114 -22,21 29,27 -17,12 -47,-15 -55,-66 -79,-111 71,-14 44,1 75,-43l-38 -126c61,28 108,51 138,109 70,-80 98,-30 192,-41 -57,-69 16,-43 -136,-42 -19,-38 -25,-39 -41,-93 -46,82 -1,26 -74,68 2,-70 24,-70 -49,-82l29 -54 59 25c4,-6 10,-21 12,-17 2,4 11,-17 20,-30l59 -97c60,-84 -59,74 20,-25l23 -27c-51,-57 -70,-37 5,-109 32,18 50,-9 49,64 -2,97 -60,105 -102,167 -28,42 -18,50 -38,89 57,-10 48,-15 80,-43 65,-57 7,-34 111,-35l14 -86c63,1 85,-19 128,-48 78,-53 107,-62 123,-174l-56 22c-17,7 -34,12 -46,17 -53,24 -48,37 -119,53 11,-45 19,-67 35,-100 -98,36 -27,42 -145,52 26,-73 -2,-11 58,-87l-27 -23c-20,-22 -9,-4 -27,-37l87 -32c5,0 18,1 24,2l164 -5c4,0 10,-3 14,-3l107 19 2 -79c39,88 52,112 150,52l31 -21c31,-21 34,-75 43,-111 -3,-4 -9,-16 -10,-13l-55 -100 -119 -19c-40,41 -19,-50 -40,64l-20 -51 -80 31 5 -7c21,-98 35,-67 86,-131 14,-18 10,-6 25,-50 -76,-37 -73,-2 -155,-43l-45 29c-26,4 -3,7 -62,-20l3 161 65 -61c33,88 -1,23 41,72 -12,17 -4,28 -21,53l-7 -13 6 -2c-207,-7 -41,44 -217,92 17,-50 -10,-15 24,-64 38,-52 -5,-11 20,-7 -67,-40 -46,-59 -90,25 -48,-14 -62,-19 -95,-35 1,116 -19,99 -56,189l-26 4 -53 -39c-84,33 -106,49 -147,106 -38,-51 -4,-13 -64,-43 -10,21 -17,35 -29,61 -13,-82 0,-22 -19,-65 -83,18 -52,-4 -95,36 -28,26 -41,47 -64,78 11,52 11,48 28,79 -76,62 26,-18 -69,20l24 68c3,5 9,11 13,17l-77 -4c-32,-48 26,-21 -41,-35 -75,-15 -78,42 -69,90 85,20 31,27 55,-22 -15,85 -43,64 -99,120 -28,28 -69,103 -119,122 -49,16 -50,29 -94,45 -31,12 -27,6 -63,17 -14,5 -30,13 -44,18 -46,0 -36,-12 -36,32 7,-30 4,-2 -29,-16l-50 -9 -5 44 -73 16c-104,44 -28,35 -112,81 -70,33 -22,35 -111,74 12,-23 5,-27 24,-45 -25,-24 44,-44 -43,-12l73 -60c11,40 3,25 26,43 21,-14 38,-8 44,-51 9,-79 32,-16 -34,-51l29 -49 87 -7 63 -90c76,-8 33,47 82,-59 -31,-24 59,-64 -57,-3l44 -36c5,-3 11,-4 15,-7 100,-65 -11,-40 107,-91l1 -58 22 -5c69,80 0,14 150,-78 82,-50 78,-96 131,-128 25,-15 56,-20 95,-43 198,-112 48,-95 231,-160 -30,64 -21,51 -29,127l49 -70 41 40 -2 -98c71,-42 101,88 139,-57 59,47 1,13 60,34 50,-87 -10,-26 50,-69 -42,-22 -20,2 -30,-50 79,-16 35,-7 79,-40 -36,-18 53,-57 -60,0 68,-90 176,-149 274,-203 90,-50 15,-32 163,-171 37,-35 20,-22 67,-45 51,41 58,12 78,55 24,51 -24,25 13,92 111,5 36,10 82,-19l52 -45c-6,-3 -12,-9 -18,-10l-50 -6c-2,0 -38,14 -46,16 -9,-91 13,-60 -42,-111l-75 32c46,-59 1,-19 79,-60 33,-17 33,-22 58,-37 39,-24 109,-39 148,-49l56 -22c10,52 12,57 33,100 39,-33 28,-22 41,-89 111,38 160,16 256,-22 55,-21 67,-34 96,-44l67 -31c2,-8 10,-6 16,-8l59 67 -37 21c-7,1 -13,2 -20,3 -7,1 -65,-12 -66,-12 -48,58 -23,-29 -35,70 -57,-11 -45,-23 -49,-30l-11 -18c-18,21 -6,0 -29,42 -65,122 -15,84 -15,85 34,35 64,-4 114,-22l-52 96 3 192c5,4 18,15 24,19 4,3 9,7 13,10l57 36c8,-87 1,-86 -5,-151 30,25 50,13 90,4 -71,-83 -21,0 -54,-94l87 15c-2,-2 -9,-8 -11,-9l-23 -22c71,-35 54,-6 67,-91 -68,50 -68,23 -106,-8 89,-107 58,-5 165,-80 0,-64 13,-42 -24,-45l21 -54c125,-136 103,61 128,1 1,-3 4,7 7,9l41 -51c31,23 -15,16 38,19 22,0 34,-11 44,-14 48,-13 6,-14 54,-2 140,34 74,-5 79,-32l97 -5c-17,63 -25,11 2,47 93,-44 21,-23 89,-72l-18 -9 92 -47c30,24 31,31 36,49 47,-58 33,-51 31,-118 22,-26 59,-48 87,-77 21,30 12,10 -5,71l49 -7 -81 60 51 59c1,-2 4,5 6,7l37 -25c79,-66 84,-112 181,-116 -57,-48 -19,4 -52,-82l72 7 1 73 82 6 -57 73c47,-14 59,-25 93,-42 24,21 4,1 32,27 22,22 20,23 30,33 -67,13 -46,-25 -85,57 80,20 105,6 162,5 -5,-48 -6,-55 -6,-103 -11,-3 -56,-16 -56,-16 -49,-23 -18,2 -48,-37 -27,-35 -12,-37 2,-94 -64,7 -64,7 -102,-16 39,-23 41,-27 101,-31l-13 -45c37,20 29,13 62,39 77,-22 23,-36 107,-32l-22 77 66 -18z"/>
   <path class="fil1" d="M11645 15652l-18 -4 -53 5c-29,73 -29,83 -90,55 -42,65 -72,63 -146,90l-34 -56c-74,15 -65,6 -117,81l-59 -75 26 1c46,-2 40,-119 49,-159 265,-23 154,61 251,5l-22 -213 -12 -96 34 50c1,-3 4,8 6,12 175,-26 184,-94 173,-205 -91,0 -7,-24 -88,19 19,-33 29,-80 49,-119 18,-35 2,-9 37,-41 18,-16 24,-21 36,-33l133 -80c5,30 2,91 89,73 1,-5 3,-10 3,-13l-1 -27c-1,-5 -4,-13 -5,-17l-11 -38c125,-6 92,13 136,-91 -55,20 -89,18 -134,90l-79 2c-9,-85 -4,-84 129,-231 -25,-39 68,-55 -52,-23 43,-32 11,-13 33,-38l42 -34 9 32 40 -11c89,-39 41,-41 111,-74 12,72 -13,28 28,65 53,-35 13,26 57,-60 24,-48 16,-42 27,-86l73 -16 64 13 -9 -48c33,14 36,-14 29,16 0,-44 -10,-32 36,-32 0,0 20,84 120,63 133,-28 -3,-26 88,-74l-7 -69c50,-19 91,-94 119,-122 56,-56 84,-35 99,-120l55 -33 77 4c-4,-6 -10,-12 -13,-17l-24 -68c95,-38 -7,42 69,-20 -17,-31 -17,-27 -28,-79 23,-31 36,-52 64,-78 43,-40 12,-18 95,-36 19,43 6,-17 19,65 12,-26 19,-40 29,-61 60,30 26,-8 64,43 41,-57 63,-73 147,-106l53 39 26 -4c37,-90 57,-73 56,-189 33,16 47,21 95,35 44,-84 23,-65 90,-25 -25,-4 18,-45 -20,7 -34,49 -7,14 -24,64 176,-48 10,-99 217,-92l-6 2 -10 61c113,52 -44,61 120,58 -14,-97 -31,-70 -35,-95 -2,-8 -7,-9 -10,-14l80 -31 20 51c21,-114 0,-23 40,-64l119 19 55 100c1,-3 7,9 10,13 -9,36 -12,90 -43,111l-31 21c-98,60 -111,36 -150,-52l-2 79 -107 -19c-4,0 -10,3 -14,3l-164 5c-6,-1 -19,-2 -24,-2l-87 32c18,33 7,15 27,37l27 23c-60,76 -32,14 -58,87 118,-10 47,-16 145,-52 -16,33 -24,55 -35,100 71,-16 66,-29 119,-53 12,-5 29,-10 46,-17l56 -22c-16,112 -45,121 -123,174 -43,29 -65,49 -128,48l-14 86c-104,1 -46,-22 -111,35 -32,28 -23,33 -80,43 20,-39 10,-47 38,-89 42,-62 100,-70 102,-167 1,-73 -17,-46 -49,-64 -75,72 -56,52 -5,109l-23 27c-79,99 40,-59 -20,25l-59 97c-9,13 -18,34 -20,30 -2,-4 -8,11 -12,17l-59 -25 -29 54c73,12 51,12 49,82 73,-42 28,14 74,-68 16,54 22,55 41,93 152,-1 79,-27 136,42 -94,11 -122,-39 -192,41 -30,-58 -77,-81 -138,-109l38 126c-31,44 -4,29 -75,43 24,45 32,96 79,111 46,15 -5,9 17,-12 -16,64 -52,53 -79,114l-20 -67c-7,0 -53,1 -59,2 -7,0 -16,11 -22,4 -4,-6 -11,5 -17,6l-31 109c-19,90 1,44 10,108l-101 -12c-137,-8 -77,49 -150,116l-98 94c-32,69 31,76 -87,60l0 89c-98,-18 -86,-75 -189,-44l-5 88c-6,119 -97,41 -175,79 -99,49 62,60 -94,77 2,6 12,26 13,32 6,41 -11,54 -21,75 5,4 11,9 14,12 38,45 17,52 27,122l85 19c11,-107 -32,-54 28,-73 24,58 12,63 -15,117 51,63 20,6 28,64 3,20 10,62 14,99l-106 13c-28,-39 -16,-71 -45,-101l20 -75c-5,-4 -12,-9 -15,-12 -46,-35 -47,-73 -60,-130l-206 -23c-47,55 -17,34 -121,7l-14 40c-22,-20 -28,-30 -69,-28 -12,0 -64,19 -81,24 14,-54 9,-12 9,-58 0,-37 -46,-60 -75,-75 -19,-11 2,-9 -36,-13l-38 11c23,102 41,78 20,184z"/>
   <path class="fil2" d="M15987 11825l152 33c-64,72 19,-4 -38,32l-40 16c1,1 -1,57 76,33 42,-13 43,-41 63,-77l-9 -19 48 -2 6 26c30,117 -18,35 54,79 28,-47 51,58 8,-82l4 -20 67 19 -6 20c28,50 -17,6 36,59 29,29 -3,13 40,7l-5 -73c131,3 542,69 629,130l-27 118 86 50c24,-44 1,-34 53,-35l-2 -125 13 69c167,-10 113,-5 236,47 21,4 39,5 60,11 87,24 44,-18 77,42l-41 0c63,50 8,48 80,94 8,-34 31,52 5,-69l90 -9c24,20 -11,1 43,28 4,2 15,10 19,6 3,-6 13,2 19,4l3 -5 -2 28 4 79 57 -3 -15 -68 53 6 -6 4 25 66c1,4 1,36 3,51 49,-7 25,-10 61,4 3,1 9,6 12,7l32 15c3,-5 13,4 20,6 -25,-82 10,-53 -87,-77l40 -55 33 24 5 60 87 -6c40,12 -75,52 75,1 0,70 -4,41 23,77 51,-70 8,-35 90,-38 34,46 63,69 120,59l44 9c15,20 -18,2 29,28 26,14 26,8 54,14 131,19 203,107 221,199l12 63c-93,-37 -31,-36 -119,-5 15,-79 12,-21 -23,-46l-37 -14 -4 89 -38 3 -22 -12c-29,-54 -13,-35 -7,-91 -69,8 -46,19 -87,56 -66,-72 -27,-36 -105,-21l-5 -61 -106 19 -68 -19c-31,-24 -53,-47 -73,-66l-105 4 -4 -38 49 -101 -79 -19c-1,7 -7,33 -8,46 -2,37 -4,21 7,41l-119 -30c-66,20 -107,3 -140,-47l61 14c-12,-15 0,-17 -40,-46 -42,-30 -1,-11 -60,-19l-9 41 -56 -9 -45 -1 -50 -17 -44 -16 -51 -20c-62,-29 -188,-71 -238,-117 -41,-16 -146,22 -202,-17l-35 -25c-34,-19 -410,-97 -483,-78l-36 -41 -34 30c-32,-2 -49,-1 -84,-7 -56,-10 -73,24 -55,-22l-339 -6c34,-23 -20,-10 74,-34 5,-1 24,2 30,2 -27,-44 52,-26 -64,-25 -25,0 -23,10 -57,3l-43 53 -78 12 -81 -17c-34,-35 49,-29 -46,-29 -36,56 -11,11 -30,82l55 -46c3,-10 11,-8 15,-14l-7 58 -145 -22 -59 24c12,-53 15,-24 0,-50 -30,31 -31,-47 -21,59 -103,-6 -227,82 -355,87l-3 -7 -24 17c-70,54 45,-46 -24,17 -27,25 -7,-1 -25,38 -50,-13 -40,-11 -90,-28 -31,78 27,36 -72,52 -20,-31 55,-65 -93,-20 7,55 -18,17 24,40 -27,30 12,33 -73,10 -2,113 8,28 -37,64l28 -105c-48,24 -88,37 -146,52 42,40 -61,68 62,22 -4,5 -8,11 -11,13 -3,3 -8,9 -12,12l-58 44c-46,34 -46,33 -100,53l22 -41c-32,-3 -27,-18 -85,21 -66,43 50,-50 -21,16 -41,38 -25,50 -74,86l60 -5c-78,77 -155,72 -196,86 -57,19 -9,6 -50,31 -81,49 -65,11 -99,104 -82,9 -106,7 -172,41 -47,25 -93,38 -153,69 -142,71 -96,74 -282,170 9,-47 7,-38 -1,-55 -74,68 -42,15 -14,50 -22,39 -13,30 -54,50 -4,-9 28,-60 -82,23 -17,13 -32,17 -41,44 -19,57 -48,19 19,47l-28 17c-55,33 10,-13 -28,15 -76,54 -10,51 -88,108 -28,21 -48,31 -80,59 -74,63 -38,113 -65,68 -2,-4 -9,10 -14,14l-13 -42c-76,30 1,22 -93,73 -47,25 -60,9 -97,82 -15,30 -16,45 -19,101 -148,33 -14,63 -185,85l-53 113c18,76 -11,-3 29,23l-1 58c-118,51 -7,26 -107,91 -4,3 -10,4 -15,7l-44 36 -25 62 -63 90 -87 7 -29 49c-30,59 5,8 -50,39 53,-109 24,-26 -15,-58 -43,38 -121,107 -125,177 -44,51 -11,4 9,31 -22,25 10,6 -33,38 -94,49 -47,59 -104,113 -50,47 41,-33 -25,18 -4,3 -10,7 -13,10 -4,2 -9,6 -14,9 -19,6 -12,-2 -47,15 50,-113 21,-22 -27,-59 -23,47 6,20 -54,46l25 66c-43,55 -65,46 -132,78l45 -69 -134 21c11,16 33,-23 11,70 -16,72 13,21 -47,61 32,65 -27,16 58,32l-111 59 -59 -6c26,-85 46,-47 2,-62 36,-158 12,-29 -22,-82 -51,24 -17,25 3,-25 2,-5 5,-15 8,-23 -56,44 -14,17 -91,26l30 -38 2 -38 26 -18 85 62c16,-62 28,-36 -16,-89l-7 -26 10 -9c36,-22 17,-8 50,-13l29 12c-53,28 20,63 60,76 32,-89 59,-58 24,-144 -36,17 -18,12 -80,15 19,-41 23,-47 47,-77l29 4c-12,-35 -17,-27 20,-19 33,-33 17,-7 10,-64 6,2 67,19 76,17 54,-10 19,17 45,-31 42,-80 8,-23 46,-42 23,-54 -7,-1 34,-45 25,-27 18,-5 29,-40 38,-24 24,2 47,-63 16,-13 31,-22 42,-35l56 -66 -4 54c102,-87 22,14 145,-133l-39 -7c30,-32 -8,-9 37,-31 9,-4 43,-14 52,-18 -39,84 -16,16 23,44l36 -75c1,-3 5,-8 6,-10 13,-38 73,29 -7,-21 4,-4 10,-16 12,-12 0,0 15,-16 22,-23l91 -110c2,-3 7,-8 10,-11l12 21 77 -57c15,-75 7,-11 -25,-44l1 -61c101,-47 28,6 83,-84 41,-68 24,-56 82,-93l-36 64c55,-19 26,-1 59,-21 51,-31 31,-26 46,-41l-74 2c0,-36 -7,-24 35,-14l99 4c-2,-4 -6,-17 -7,-14 0,2 -23,-22 -3,-96 59,-91 84,-76 117,-105 34,-30 18,-35 52,-67 66,-62 19,23 64,-67 71,8 30,17 86,-18l-46 -16c22,-26 3,-14 34,-38 31,-25 4,-4 49,-30 2,76 -23,14 20,60 27,-46 -13,-2 54,-38 106,-60 85,-84 137,-131l207 -128c-24,-21 39,-36 -41,-12 36,-131 6,-38 129,-135l235 -124c96,-30 37,18 126,-45 28,-17 51,-32 68,-43 133,-14 205,-77 277,-132l278 -156c74,-14 7,-19 101,6l5 -47 12 -42c88,-8 69,-24 159,-38l66 27 6 -67c7,-26 183,-27 222,-27 153,-176 273,-42 348,-176 79,-1 33,-7 48,20l-58 11 29 117c61,3 12,0 91,-41 -7,-73 60,-41 -29,-51 33,0 20,6 19,-36l67 -21 -32 34 50 -8 62 -14 56 42 45 -26 2 -71 37 -13c32,45 -25,24 77,45l184 -28z"/>
   <path class="fil3" d="M7528 11167l-28 22c-7,5 -35,24 -39,26 -66,40 -96,39 -178,100l-78 74c-191,195 -177,84 -236,168 -7,1 -37,2 -42,4 -42,14 -24,-2 -50,23l-47 75 -9 -11 -36 10c-56,7 1,-1 -24,36 -121,29 -273,154 -348,242l-20 -2 -194 82c-30,11 -9,-10 -50,29l-11 -41 -81 56c-126,-27 -4,-57 -117,-33 -90,19 12,46 -131,44 10,-226 -3,-113 39,-195 -90,-22 -213,-96 -150,-207 -1,-1 -25,-15 -36,-22 -59,-32 22,1 -55,-26 16,-103 9,-108 -26,-190 -18,-41 -9,-1 -14,-64 -2,-33 -9,-59 -17,-94l93 -51c-33,-57 11,-1 -29,-37l-38 -30c53,-49 44,-26 100,-60l-21 -98c10,-4 26,-12 29,-14l37 -26c-15,-97 -8,-24 -38,-99 30,-14 111,-38 153,-40 -38,50 -1,30 -75,45 24,21 21,14 30,49 -61,38 -16,-10 -44,55 -9,20 -17,46 -28,73 123,9 45,45 138,40 71,-4 55,-20 63,-24 -44,-61 7,-25 -75,-54 78,-128 33,-10 127,-85 -41,-102 -18,-35 -113,-72l117 -14 114 112c37,25 90,-8 183,-5l40 58c97,-23 54,-28 119,-75l50 44c2,2 6,8 9,12 30,-24 17,-13 60,-31l23 25c22,17 2,7 36,22 55,-47 5,-23 79,-40l40 91c44,-19 96,-29 158,-30 4,4 8,6 10,13 0,1 22,42 50,40 57,-25 20,-3 51,-79l35 16c69,36 -15,-2 28,16 25,11 43,11 77,15 -24,83 -3,40 7,54l59 -56c63,26 42,21 120,24 13,-70 12,-63 58,-101 1,66 6,39 -17,80 2,1 25,25 29,29l133 25c-26,99 -36,36 1,77z"/>
   <path class="fil4" d="M11250 15128l-71 39c29,31 -44,32 51,23 0,34 6,23 -32,12l-17 14c-40,-27 50,-51 -47,-18l-38 72c37,21 -30,40 45,12 -49,117 -78,57 -106,145l-122 46c6,87 10,34 -20,75l-78 2 -17 76c-31,78 0,38 -61,82l-105 48 -41 -33c-53,103 -55,-2 -142,141 23,29 -74,34 51,20 -85,69 -271,147 -334,207 -96,94 -36,65 -174,109 -157,49 -81,59 -172,86 -243,73 -77,26 -191,77 -132,59 -403,69 -593,194 -18,7 -37,12 -50,18 -57,26 -23,11 -47,26 -20,6 -58,22 -75,27 -98,29 -123,19 -213,106 -103,-20 -105,4 -219,34 -120,32 -350,32 -495,46 -223,22 -119,53 -218,35 0,-49 12,-35 -39,-35 20,-20 -1,-50 -20,-77 -159,30 -4,9 -84,39 -2,1 -67,11 -96,19 70,55 57,12 67,74 -9,11 38,23 -51,12 -26,-3 -51,-13 -68,-19 -4,-5 -10,-20 -12,-16 -2,4 -8,-11 -11,-14 -3,-3 -30,-30 -30,-30 -34,-22 -49,-13 -82,-9l21 62 -53 -26 -31 -23 14 0 -1 -72 -28 -20 66 0 -37 -65c136,-7 200,-30 338,-38 100,-6 211,-85 257,-54 26,131 -56,64 45,101 18,-36 1,7 14,-42 5,-19 3,-19 15,-57l381 -44c-58,84 -22,22 0,42 40,-22 21,3 20,-40l82 1c60,-88 152,-53 273,-80 150,-34 134,-92 235,-128 57,-20 88,-17 141,-32 53,-14 63,-44 114,-64 99,-40 152,6 247,-102l75 28c68,-78 108,-32 212,-95l8 50c73,-47 24,-27 117,-55 116,-34 59,-27 85,-77 -9,36 5,1 -35,11 37,-41 30,-27 83,-48 1,89 -65,-13 25,49 28,-45 22,-33 74,-51l-39 -35c15,-14 13,-16 37,-33l249 -150c126,-67 -21,-47 140,-106l48 -73 32 7 56 -1 -59 74c120,-37 37,-47 72,-15 3,2 11,9 14,11l52 23 1 -57c9,-62 28,-95 118,-54 7,-15 15,7 -11,-54 66,-29 63,-28 89,-100 -142,-33 -125,76 -119,-33l36 -35 24 6c56,-14 40,-11 101,-16l59 0c4,-4 8,-11 11,-13l47 -20c3,-8 14,0 23,0l-27 -103c87,-20 150,-99 190,-165 42,72 -4,18 51,44l-38 49 43 53z"/>
   <path class="fil5" d="M13488 8003c18,56 -31,45 37,45 3,2 8,1 10,6l102 14c-4,71 1,26 27,47 36,-19 27,-6 42,-40l96 -27c0,39 6,86 -7,124 -22,66 7,-1 -44,52l-36 -1 -71 23c58,-77 23,-19 0,-42 -46,25 -25,-3 -20,41 -152,-12 -221,-14 -351,3l-6 -43c-10,-57 -16,-11 1,-61 -9,4 -36,19 -40,21 -76,25 73,0 -18,-1 -37,-1 1,-43 -44,22l42 78 -79 -7 -50 9 -22 -54c-76,3 -5,-6 -37,34l-66 -6c-112,-9 70,23 -44,-4l-34 -23c76,-14 68,5 120,-27 -39,-11 -28,15 -105,1l-13 -51c-85,-7 -26,-30 -86,27 -86,-30 -61,-78 -132,25l33 58c121,-14 71,43 99,-55 43,30 43,12 40,72l-19 17c-80,-7 -18,-13 -99,-11 -69,1 -25,38 -69,-15l-71 8c65,-82 -45,-53 -76,-35 -46,-28 -58,5 -81,30 -45,6 -36,17 -36,-26 -80,90 -91,-48 -202,69l109 -8c0,52 -26,19 -68,28 -42,8 -62,14 -102,27 63,-105 22,-23 0,-59 -48,39 -26,3 -20,60 -22,6 -98,23 -110,29 -57,25 6,19 -85,52 -21,-34 35,-23 -42,-28l-18 49c-68,65 -120,50 -190,72 27,-78 13,-15 -16,-40 -36,44 -15,16 -36,63l59 -22c-10,103 14,-29 -142,100 49,-116 18,-20 -20,-59 -58,91 -52,23 -107,84 -4,6 -17,35 -29,47 -17,18 -37,24 -63,42l69 -2c-11,9 2,14 -51,38 -74,34 -24,10 -48,7 -55,47 -25,-49 -42,38l-60 -22c16,28 16,33 33,52 -40,0 -5,-3 -53,31l1 16 -58 11 -13 -46c-65,29 -48,27 -98,78 28,24 -12,14 55,15 -121,148 -270,127 -421,303 -177,207 -86,106 -253,207 -22,-33 54,-65 -177,17 -119,43 -24,48 -156,80 60,81 -39,27 47,19 -29,63 -71,104 -167,112 -70,-17 -55,31 -178,112 -162,105 -30,-13 -166,133l-57 -7c-14,82 21,13 -43,78 25,16 10,13 62,16 -5,3 -11,2 -14,8l-55 29c-14,11 -39,51 -50,63l-57 9c-49,1 -28,-7 -71,10 20,31 -3,15 38,30 -16,29 25,13 -53,40 -17,-20 -27,-24 -68,1 -40,24 -39,37 -31,61 -48,81 -41,55 -142,72 -1,2 -17,28 -18,29 -49,54 -3,12 -56,48l36 -50 -77 26 44 17c-4,3 -10,4 -12,10 -3,7 -10,9 -13,10 -37,17 -11,7 -42,13 -28,-6 -23,-6 -35,-13l-42 -25c-4,-2 -11,-6 -18,-8 -81,47 -101,66 -91,172 -14,20 9,6 -23,29 -48,33 -17,11 -55,23 -35,-10 -8,5 -36,-34 -23,-33 -32,-46 -53,-84 43,-72 77,-87 148,-110l6 40c45,-29 42,-54 81,-101 46,-32 77,-67 112,-104 54,-56 68,-41 143,-77 -7,57 13,30 65,13 48,-16 38,-20 58,-44 -26,-29 11,-9 -39,-14 26,-35 32,-41 64,-67 11,127 97,-44 163,-78 153,-78 19,1 94,-75 150,-154 144,0 268,-221 97,-10 34,-18 134,-71 -37,-34 15,-17 -49,-9 37,-47 35,-37 78,-82 52,-53 -19,-27 90,-48 45,-58 125,-75 210,-87 -48,39 67,44 -55,33 133,16 21,18 139,-48 145,-80 -15,20 53,-27 144,-98 39,-74 133,-126l-37 -5c0,-33 -7,-23 30,-18 70,-7 20,9 38,-47 114,27 67,-4 68,-46 35,-62 11,-33 66,-72l-39 73c79,-21 95,-26 147,-64 61,-44 113,-53 29,-99 3,-4 7,-17 10,-13 2,3 8,-11 11,-13 32,-24 5,-8 48,-28l4 51 89 -61 -55 7c97,-131 98,-90 200,-163 65,-47 -34,-39 99,-24 13,-131 60,-36 247,-223 54,-53 38,-23 95,-58l129 4 11 -78c43,-36 128,-79 169,-98 75,-34 121,-74 193,-86l28 23c22,-41 41,71 15,-61l66 13c56,12 275,-46 357,-65 165,-39 278,-9 423,-30l62 -17c-45,101 -33,46 -19,76 128,38 72,4 99,-13l14 -39 35 -8 4 49c64,-4 21,15 61,-25 92,0 5,7 44,-36 107,-12 229,-9 320,-9z"/>
   <path class="fil4" d="M1348 13659l43 6c37,24 69,31 108,44 33,11 30,2 57,21 47,35 16,16 28,44l91 72c-31,85 -35,22 8,102l-47 48c81,-26 38,-123 139,-75l-4 -16c4,6 9,13 12,18l41 64c2,-3 8,10 11,13l80 6c37,106 2,78 87,103 -51,-64 -15,11 -40,-81 38,16 28,13 82,11 -13,73 -49,18 11,61 56,40 35,-18 36,-18l31 31 21 -9c4,4 9,9 12,12l59 51c8,18 18,66 43,78 107,55 70,-14 77,-31l93 59 81 40 40 8 -16 59 38 -30c47,20 53,25 94,52 15,10 21,13 36,22l53 36c-33,32 -33,-30 -27,39 7,1 48,7 48,7 42,-3 5,3 34,-17l49 7 7 42c-52,-13 -17,-19 -33,0 25,51 12,24 34,44 16,-24 44,30 0,-40l60 4c12,15 31,42 61,64 73,15 16,-13 61,42 -8,70 -11,110 16,172 46,-49 26,-33 20,-127 25,9 63,21 89,32 82,36 36,76 260,135l25 70c94,-19 90,-21 138,51 -3,86 30,82 107,76 3,115 0,47 16,59 2,1 7,2 9,3 126,83 70,55 93,2l75 20c17,30 21,32 46,53l0 15 29 41 35 -47 21 1c50,53 22,6 27,65l39 101c10,-14 70,76 -18,-76l74 23 16 5 0 50c55,-3 37,-16 88,39 78,0 -4,11 32,-30 27,13 49,22 73,36 14,9 25,13 36,24 37,35 0,-11 24,36 14,3 106,8 120,29 15,91 4,34 33,54l4 52c233,50 57,49 213,100 39,-41 26,34 6,-47 66,7 50,19 61,47 56,4 67,11 131,26 18,4 49,9 66,17 76,37 12,-1 44,39 -39,8 -37,-2 -15,26 73,21 66,27 119,66 9,125 -43,25 -79,44 -70,38 49,16 -75,38l-140 -29 -5 34c-92,-31 -73,-35 -169,-99l-25 -19 73 5c-44,-40 18,-15 -75,-48 -42,-15 -29,-10 -74,-11l5 -52c1,-4 3,-10 4,-15 18,-61 5,-13 20,-55l-61 13c12,85 29,52 11,130l-79 0c68,-95 30,-28 2,-64 -2,-3 -65,-36 -67,-37 52,122 11,11 -9,60 -45,-80 -2,-8 -65,-58l0 -38c69,-19 60,23 80,-63l-21 -6c-52,-18 -24,-17 -79,-73 70,160 21,48 0,95l-37 13c25,-46 -63,-32 -102,-31 -36,-118 -25,-42 -104,-90 -45,-27 -71,-77 -106,-94 -75,-38 -80,17 -176,-63l-89 -69c-26,24 -10,-4 -19,47 -5,-2 -13,-11 -15,-7 -3,4 -12,-6 -15,-8 -42,-28 -20,-13 -41,-31l34 -15c-63,-45 -142,-122 -220,-162l-11 36c-95,-30 -30,27 -109,-44l77 10c-46,-64 54,-20 -85,-51l7 51 -122 -59c-59,-32 -65,-48 -92,-95l41 1c-58,-55 -130,-103 -203,-134l0 46c-40,-24 -20,-5 -50,-30 -31,-25 -20,-18 -34,-41 -101,-48 -102,-68 -225,-95l-94 -90 -70 -47c-70,-30 -82,-30 -142,-72 -28,-19 -36,-28 -56,-42 -54,-36 -30,-2 -73,-49l48 -7c-3,0 -7,1 -9,0 -1,0 -7,0 -9,-1 -2,0 -8,-2 -11,-4l-67 -36c-81,-53 -3,-30 -97,-66 -137,-51 -80,-60 -176,-110l-13 -96c-21,28 -28,22 8,35 -52,49 82,92 -99,29l35 47c-31,-14 -45,-25 -81,-31 -41,-1 -34,11 -32,-26 -18,-79 19,-11 -43,-78 66,1 44,9 79,-20 -29,-19 -124,-50 -133,-14l-88 -8 -50 -13 -44 -57c-4,-3 -23,-19 -26,-21 -33,-18 2,-2 -36,-15 -7,-9 -2,-11 -26,-34 -35,-35 2,-2 -47,-32 -80,-36 -174,-117 -210,-181 20,-99 33,-9 110,-13 82,-4 42,-8 62,-63 22,67 -4,57 63,47z"/>
   <path class="fil6" d="M15883 12117l339 6c-18,46 -1,12 55,22 35,6 52,5 84,7 43,-1 31,-2 70,11 73,-19 449,59 483,78l35 25c56,39 161,1 202,17 50,46 176,88 238,117 57,54 -85,36 47,38 -155,18 -81,-29 -225,-33 -67,-2 -174,-18 -207,-1 -66,-12 -120,-41 -171,-51 -51,-10 -141,3 -197,0 -130,-8 -239,-41 -369,-47 -84,-4 -30,10 -107,32 -33,-26 -25,-19 -62,-39l-156 -12c-81,35 -44,4 -119,0 -60,-2 -71,17 -119,40l-72 -49c-103,38 -36,51 -186,41 -28,79 -77,93 -177,102 25,-55 37,-24 66,-83 -83,-1 -52,-10 -129,24 -103,44 -26,0 -126,28 -2,1 -65,24 -71,26l-301 118c-176,63 -5,-9 -131,71 -30,18 -96,46 -143,73 -146,83 -17,42 -127,75 -88,26 -92,-1 -138,76 -39,10 -109,25 -148,49 -25,15 -25,20 -58,37 -78,41 -33,1 -79,60l6 -4c-47,23 -30,10 -67,45 -148,139 -73,121 -163,171 -98,54 -206,113 -274,203 -53,4 -9,-3 -65,34 -39,25 -50,23 -90,48 -24,15 -52,36 -73,49 -50,29 -49,12 -69,52 -183,65 -33,48 -231,160 -39,23 -70,28 -95,43 -53,32 -49,78 -131,128 -150,92 -81,158 -150,78l36 -53c21,-26 33,-41 59,-61 110,-88 34,-27 153,-164 28,-32 17,-35 52,-66 33,-29 82,-62 109,-86 5,-4 12,-18 14,-14 27,45 -9,-5 65,-68 32,-28 52,-38 80,-59 78,-57 12,-54 88,-108 38,-28 -27,18 28,-15l28 -17c17,-19 28,-34 55,-57 6,-4 31,-21 35,-25 30,-34 4,9 14,-32 41,-20 32,-11 54,-50l15 5c186,-96 140,-99 282,-170 60,-31 106,-44 153,-69 66,-34 90,-32 172,-41 34,-93 18,-55 99,-104 41,-25 -7,-12 50,-31 41,-14 118,-9 196,-86 40,-50 23,-52 98,-77 54,-20 54,-19 100,-53l58 -44c4,-3 9,-9 12,-12 3,-2 7,-8 11,-13 65,24 16,-6 56,31 45,-36 35,49 37,-64 85,23 46,20 73,-10l69 -20c99,-16 41,26 72,-52 50,17 40,15 90,28 18,-39 -2,-13 25,-38 69,-63 -46,37 24,-17l24 -17 3 7c128,-5 252,-93 355,-87l21 -9 59 -24 145 22c4,-3 9,-8 12,-10l82 -24 78 -12 60 1z"/>
   <path class="fil2" d="M5383 15996l28 83 43 -39c0,32 -7,22 30,20l72 -29c55,6 91,30 136,58 24,15 42,25 60,36 71,43 20,-3 64,55l-39 8 49 14c89,15 203,19 257,94l15 61 93 14 86 -11 17 47c0,40 -12,33 23,33l46 16 98 51c2,-3 7,8 10,12 71,6 111,-18 122,37l-34 1c61,11 28,2 58,30 22,21 34,39 47,61l55 -48c92,34 9,11 53,34 81,40 -71,24 30,7l32 -17c11,87 -6,39 34,87l52 -4 50 0 66 38 53 -50c66,-17 73,-41 155,-46l37 65 -66 0c-54,-6 -74,5 -70,61 20,46 0,35 43,62l-38 7 -6 6 -36 -45c-83,23 -11,-1 -44,40 -28,12 -65,29 -98,45l-88 65c19,-74 12,-20 -22,-39l-29 15c43,3 1,-7 21,43 -74,-24 -38,-17 -110,-24 -2,-6 -5,-25 -7,-29 -17,-36 -7,-16 -22,-36l-7 64c-27,-15 -40,-21 -76,-33l3 -61 -41 -29 35 -3c-30,-28 -15,29 -30,-35 -17,-72 -7,-15 12,-45 -40,4 -52,17 -100,-4l-37 -25c-143,-71 -104,17 -252,-137l-25 50c-144,-11 -94,-43 -162,-82 -28,-16 -45,-15 -83,-39 -57,-35 6,-14 -63,-30l-50 -19 3 -5c-20,-46 24,-23 -32,-43 -14,-63 7,-4 -46,-31 -127,-32 -71,-60 -178,-82l-189 -65c-68,-36 -105,-57 -177,-99 -112,-66 -86,2 -176,-110 53,-11 46,20 46,-20 -30,-36 22,-47 -39,-30 124,-22 5,0 75,-38 36,-19 88,81 79,-44 33,25 139,74 202,86l-18 20z"/>
   <path class="fil7" d="M8361 10834c-74,78 -76,44 -179,131 -48,41 9,25 -64,28 -50,-5 -29,-3 -52,-13 -1,0 -23,-18 -39,-22 -55,-14 -31,-5 -71,18l78 84c-14,22 3,10 -35,37 -23,16 -35,22 -60,40 -55,39 -67,38 -126,63 -32,-35 24,-70 -71,14 18,21 -36,48 42,0 -62,160 -34,27 -118,113l-55 21c-41,16 -18,-11 -62,32 -30,29 -4,1 -17,42l-61 34c-59,38 -20,8 -56,44l-40 3 -1 48 -67 2 -15 41 -18 0 -75 -10c-37,31 -41,-12 -32,56 -51,36 -24,25 -61,86 -45,72 -56,35 -126,63l-13 -33c-65,36 -22,6 -65,23l22 39c-4,3 -9,4 -11,10l-57 29c-61,32 -25,6 -45,39l-32 42c-2,5 -4,12 -6,18l-24 -10 -38 0c26,-151 -5,-63 -22,-83 -22,34 -16,-22 -20,44l5 63c0,8 3,16 3,24l-11 19 -85 35 -4 -36 -152 55 90 16 -180 66c-6,2 -24,8 -29,10l-30 9c-3,1 -10,3 -15,5 2,-65 11,-14 -23,-29l-24 -28 -65 -8 -1 -16c45,-14 37,-12 82,-29 4,-77 12,-10 -31,-47l194 -82 11 45 61 -24c-41,-35 19,-11 -52,-19 75,-88 227,-213 348,-242l59 -2c-2,9 -65,73 106,34 -33,-23 46,-25 -86,-23l47 -33 -57 -11 47 -75c8,1 18,-1 24,1 108,30 6,-25 45,33 -3,-31 -57,25 -64,31 31,18 -12,15 66,26 106,16 19,1 55,-6 5,-13 49,38 8,-76 -2,-6 -37,-32 -42,-36 59,-84 45,27 236,-168l55 -14 23 -60c82,-61 112,-60 178,-100 4,-2 32,-21 39,-26l28 -22c62,-27 -5,-13 69,-56 31,-18 84,-40 112,-56l36 19c6,-36 7,-17 -29,-30 0,-46 -31,-8 97,-75 31,-16 36,-21 79,-39 52,-3 15,14 53,-15l-23 -6c28,-41 283,-216 355,-219l47 -17c-25,106 -51,45 26,64l2 -85 41 -49c-41,105 -23,81 3,176l-35 55z"/>
   <path class="fil8" d="M15942 12287l-194 212 -49 7c17,-61 26,-41 5,-71 -28,29 -65,51 -87,77 2,67 16,60 -31,118 -5,-18 -6,-25 -36,-49l-92 47c-63,-8 -55,-15 -73,34l-97 5c-5,27 61,66 -79,32 -48,-12 -6,-11 -54,2 -10,3 -22,14 -44,14 -53,-3 -7,4 -38,-19l-41 51c-3,-2 -6,-12 -7,-9 -25,60 -3,-137 -128,-1 -57,-34 -75,10 -104,43l-59 -67c-6,2 -14,0 -16,8l-67 31c-29,10 -41,23 -96,44 -96,38 -145,60 -256,22 -13,67 -2,56 -41,89 -21,-43 -23,-48 -33,-100l-56 22c46,-77 50,-50 138,-76 110,-33 -19,8 127,-75 47,-27 113,-55 143,-73 126,-80 -45,-8 131,-71l301 -118c6,-2 69,-25 71,-26 100,-28 23,16 126,-28 77,-34 46,-25 129,-24 -29,59 -41,28 -66,83 100,-9 149,-23 177,-102 150,10 83,-3 186,-41l72 49c48,-23 59,-42 119,-40 75,4 38,35 119,0z"/>
   <path class="fil9" d="M5307 12705c-6,3 -13,6 -18,9l-66 51c-72,13 -75,7 -97,72 -31,20 -23,-36 -25,48l-259 87c-120,31 -202,13 -304,59 34,-80 12,-15 -8,-39 -81,47 -25,-17 -48,73 -31,0 -116,25 -141,39 -71,41 -7,63 -154,40 -28,-5 0,1 -31,-9 -3,-1 -16,-6 -19,-7 -2,0 -6,-2 -8,-2 -193,-35 -139,42 -142,74 90,-25 28,-3 107,-66 38,46 20,-21 12,58l-133 54c-40,-67 1,-7 -38,-32l-34 61 -103 4c-26,-22 40,-63 -48,-7 3,1 11,10 45,15l-88 34c-10,4 -22,12 -42,19 -62,20 -97,15 -159,17l23 -96c-74,-2 -77,26 -148,59 67,-8 53,-20 103,36l-98 -4 -45 -55c-52,3 -104,-3 -99,54l-62 15c-51,2 -62,-4 -117,-5 -11,0 -55,3 -61,2 -70,-6 -36,16 -48,-20l-3 -10 114 -2 -26 -24c-22,-70 -19,-48 71,-75 12,21 -45,12 49,20l0 -79c168,-67 212,0 345,-10l-61 89c126,-42 97,-42 127,-95 -14,-31 8,-21 48,-27 1,22 27,34 -9,54 104,5 32,43 68,-52l44 -16c18,48 -22,33 36,40 4,-4 11,-15 12,-12 0,0 16,-5 18,-72l320 -46c-11,-35 7,-25 50,-36l12 35c122,-83 79,19 242,-109l-38 -13c9,-10 -19,-44 30,-7 42,63 -2,53 76,85 -5,-72 3,-42 -27,-89l29 -17 49 13c69,-8 145,-12 207,-71l-63 -7c0,-55 18,-15 53,-27l34 -10c149,-52 80,-5 167,-35 156,-54 -50,-24 259,-65 3,65 -11,28 16,54 48,-58 25,-10 39,-94 40,23 19,20 65,-5l0 77z"/>
   <path class="fil5" d="M1121 13107l121 38c49,60 48,34 137,28l60 62c7,-14 15,4 21,-67l54 5c38,44 30,-20 30,39 -72,9 -41,16 -6,63 7,-7 84,29 8,-59l101 -50c129,10 235,-1 346,7 125,8 241,26 362,-9 -47,61 -26,33 -50,103 -62,-10 -47,31 -50,-27l-5 89c-9,-3 -18,-5 -26,-9 -76,-40 -42,-28 -72,-70 -52,33 9,-27 -53,42 6,46 -1,13 13,42l-23 34c-57,-28 -55,-18 -115,3 120,-1 10,-6 59,38l-60 4 -30 -74c-1,-3 -6,-9 -9,-13l-17 41 -42 5 10 28 -11 7c-86,-83 -71,-24 -85,-12l-124 4 8 -70c-156,21 -23,-22 -97,-24l-9 84 94 13c-71,31 -100,22 -183,9 -71,-11 -148,-2 -223,-1l30 202c-20,55 20,59 -62,63 -77,4 -90,-86 -110,13l-55 -14 -16 -36 0 -542 79 11z"/>
   <path class="fil10" d="M14611 15530l47 11c-109,138 -391,277 -546,346 -33,-25 3,-11 -52,-21 -19,-3 -47,-2 -63,-3 17,-171 40,-98 -291,-84l91 -62 -25 -36c24,-44 5,45 20,-56l-29 -41c44,-34 5,6 40,-43 17,-23 7,-11 19,-37 65,11 23,11 109,17 -15,-47 -7,-49 -39,-79 -17,-17 -4,-1 -25,-15 -3,-2 -11,-2 -13,-9 -2,-6 -8,-6 -12,-9 92,-50 123,38 134,9 1,-3 7,-2 11,-3l-13 -72c91,63 31,53 116,79 -15,-89 -4,-45 -38,-106 -65,-118 -17,-29 -12,-50 62,29 20,-28 49,79l75 -12c3,-6 10,-5 15,-8 55,93 5,24 71,63 -8,74 -45,127 140,110 -24,-44 17,-50 -102,-69l28 -53c25,32 16,19 47,40l53 -27c107,89 -73,-24 42,24 25,-52 15,-62 74,-81 -46,52 -49,52 -29,136 52,25 75,39 108,62z"/>
   <path class="fil11" d="M16832 12472l8 38 56 6 -102 43c50,65 42,42 91,71 5,-11 23,-60 25,-64 -26,138 -13,22 45,70l13 -126 5 93c49,-63 33,-3 21,-97 33,5 46,1 63,1 26,0 59,3 90,6l-24 -49 47 3c3,147 28,104 41,168 -111,62 -7,-47 -129,54 59,-94 25,-75 9,-97 -64,35 -2,-25 -68,79 -35,-134 24,-11 -175,-40 -30,77 8,29 -68,72 27,-48 13,-14 33,-72l-177 9c-5,-7 -11,-18 -14,-14 -35,51 3,0 -55,-51 -5,-4 -11,-9 -16,-14 17,95 5,30 59,81l21 24c49,48 30,36 124,37 11,58 -12,17 23,49 3,3 9,5 13,8l52 46c-237,-51 6,40 -161,-15l2 89c26,-2 35,-8 69,-26 15,100 -24,42 51,81l-58 42c-1,1 -2,7 -3,8l-5 19c0,1 -2,7 -3,10 -144,27 9,-28 -198,-27l-26 -65 -74 32c-1,-6 106,-59 -98,-37l-22 -21c-3,-3 -16,-17 -19,-21 -32,-44 -5,4 -33,-58 5,-3 14,-14 16,-9l60 -20c36,-4 20,-3 57,-2l21 49c24,43 -10,18 38,37 17,-43 -24,-43 56,-68 -27,-20 -19,25 -42,-58l-33 -61c-73,57 12,14 -95,51l44 -98c-3,-88 53,71 -14,-20 -26,0 37,-40 -40,46 8,-96 27,-61 -53,-102l47 -82c-104,-59 -58,31 -144,-59 63,-38 -3,-20 102,-21l26 -35 4 -40c44,2 23,2 56,7l143 35c-7,50 -13,47 -43,76 57,16 32,-2 66,38 27,-20 37,-30 79,-53 46,36 11,9 34,34 3,4 7,44 17,21 1,-3 5,6 8,9 45,-17 35,-12 63,-53l94 33z"/>
   <path class="fil12" d="M14187 8095l82 70 3 66c101,-47 40,-37 97,-70l65 20 0 27 -38 14c48,27 45,31 90,55l1 -32 247 42c51,46 -74,38 79,38l-41 5c-36,4 -17,-11 -56,15 29,27 -41,14 54,20l-3 51 4 -7c41,37 28,72 25,94l-75 -2c-5,-1 -11,-3 -16,-4l-51 -15 0 -37 0 54c-89,-52 -113,-65 -204,-33 -23,-48 -10,-23 -37,-43l-34 -22c-2,-2 -6,-6 -8,-9 -32,-8 -70,-17 -113,-31l-95 -47c-10,1 -79,8 -85,8 -61,-4 -27,8 -48,-22 -30,-88 -22,-11 -17,-113l-118 16c65,45 43,6 86,82 -92,-32 -78,-34 -167,-11l0 -7 -63 -43c51,-53 22,14 44,-52 13,-38 7,-85 7,-124l-96 27 -69 -7 -102 -14c-2,-5 -7,-4 -10,-6 -68,0 -19,11 -37,-45 143,-30 218,22 370,32 65,5 111,19 171,22 66,4 80,29 158,38z"/>
   <path class="fil13" d="M6229 12144c12,43 -59,46 32,29 -14,25 -3,9 -23,35 -103,137 -210,117 -352,192 60,-113 19,-21 -9,-51 -126,58 -108,43 -135,92l39 12 -114 153 -107 -4c-48,68 -6,9 -48,41l-5 -46 -70 58 37 10c-3,4 -8,4 -10,11 -2,6 -9,8 -11,10l-210 154 -88 -1c-14,-67 15,-23 46,-26 5,0 36,8 42,10 39,-125 11,-12 -20,-58l66 -51c5,-3 12,-6 18,-9l64 -80c2,-8 5,-17 7,-26 -160,66 -61,31 -97,-3l76 -22 8 -74c113,-19 82,-61 177,-97 322,-119 17,-44 360,-215 153,-76 120,-81 215,-76l32 -4c8,79 -8,26 32,60l48 -24z"/>
   <path class="fil14" d="M13822 15997c-158,2 -142,6 -178,56 -89,-5 -87,-26 -199,-19 -202,12 -134,116 -237,0 -98,52 -36,-5 -158,-25 41,-138 22,-7 96,-124 2,-3 6,-11 7,-14 2,-2 7,-6 8,-13 3,-17 15,-25 64,-24 90,2 2,-7 34,16 -26,-47 -36,-25 4,-76 -68,-23 -41,-10 -103,-97 70,12 76,23 101,71l71 -22 0 45c-21,29 -8,6 -20,34 112,99 126,-61 154,-106 31,2 155,54 174,68 72,56 -7,42 72,107l39 29c-63,64 -34,72 -107,28l39 40c60,-3 139,-37 139,26z"/>
   <path class="fil15" d="M11667 14969c-12,12 -18,17 -36,33 -35,32 -19,6 -37,41 -20,39 -30,86 -49,119 -3,3 -7,2 -9,7l-113 73c-4,4 -11,4 -13,12 -10,34 15,10 -60,42 -56,23 -40,0 -102,47l-29 108c-93,7 -96,-10 -182,31l-2 -55c28,-88 57,-28 106,-145 28,-20 12,2 40,-42 10,-15 16,-36 17,-38 38,11 32,22 32,-12l8 -19 68 -87 111 -59 67 -115c67,-32 89,-23 132,-78l56 -53c35,-17 28,-9 47,-15l55 12c-38,74 -77,75 -107,193z"/>
   <path class="fil1" d="M16888 13908c-100,69 -108,37 -229,55l-99 46c-43,-42 -24,-35 -81,-6l-79 40c45,21 8,15 89,3l-12 60c-44,32 -45,46 -97,78l-145 87c-71,41 -5,32 -68,32 -26,-33 -37,23 5,-89 -167,10 -22,14 -98,-42l-93 -40c-6,-2 -13,-6 -19,-9 48,-33 -72,-41 99,-35l98 43c4,3 6,9 8,13 14,20 -1,34 49,76l23 15c28,-29 21,-25 41,-52l18 -26c93,-112 -36,9 40,-34 -61,-64 57,-40 -109,-48 6,71 -3,13 -29,22 -53,-62 -35,-77 23,-112l-199 -2c10,-59 40,-26 -14,-86 113,33 93,36 210,50 37,60 69,103 137,134 -27,-28 -38,-21 -56,-64 -2,-4 -2,-12 -3,-16 -1,-4 1,-11 1,-17 55,-16 38,-16 137,4l21 -104 40 47 45 -54c2,-2 7,-7 11,-10 -77,-45 -36,-14 -76,-81 133,16 39,-10 115,47 64,49 23,-10 64,69 46,-44 -65,-47 86,-17l22 -13c2,-2 7,-6 9,-8l26 -20c3,-3 10,-8 15,-12l29 24c41,12 3,9 62,7l-17 45z"/>
   <path class="fil16" d="M12189 16216l-31 45c-57,-2 -86,-9 -129,-23 22,150 8,79 -15,82l-28 3c-81,11 -127,2 -205,-26 -12,21 -10,3 -16,38 0,3 7,29 8,33 -76,4 -44,2 -91,-55 -229,88 -26,6 -199,8 47,-32 51,-16 76,-61 -70,-27 -178,87 -253,-57l-139 13c-35,-58 -26,-77 -91,-122 19,-52 26,-10 13,-72 54,17 138,32 184,73l33 36c120,-10 78,2 147,21 255,71 157,-19 306,34 77,27 95,20 143,74 208,-90 93,-31 194,-30 26,0 21,-11 93,-14z"/>
   <path class="fil11" d="M15501 13815l-2 11 -60 11 -12 -70c-96,52 -22,18 -73,66 -63,58 -46,-24 -48,101l-37 5 -12 3 -122 -89c67,-171 104,6 78,-140 97,57 26,44 137,15 139,-37 33,-2 112,-66 84,-67 22,-1 115,-39 65,-27 18,-43 138,-49l-84 69c66,57 -8,17 92,37 31,-111 41,-209 9,-321 33,16 68,17 105,95 2,5 3,11 5,16l56 59c-36,87 -31,68 -93,82 -6,1 -13,3 -18,3 -4,1 -11,3 -17,4 -10,44 -1,45 -33,82l-40 36c40,43 31,57 33,110 -76,20 -53,24 -119,11 -3,-73 4,-100 66,-137 -72,-63 -54,-27 -146,-46 14,68 5,48 38,92l-68 49z"/>
   <path class="fil17" d="M17756 13768l-588 94 -101 -20c-4,-63 10,-97 34,-142 78,18 66,-13 89,71 33,-9 37,-11 80,-21 52,41 5,-20 49,55 48,-82 21,-23 85,-78 -79,-60 -24,55 -82,-59 26,-12 -5,-19 57,-9l49 15c60,-63 12,-24 62,-41 -26,-59 27,-3 -33,-52l70 -58c185,15 149,116 95,162 46,-27 -61,-9 28,-8 3,0 67,6 70,6l-45 35c-16,12 -5,-2 -31,23 44,0 9,9 52,-6l33 -15c4,-2 11,-6 16,-9 25,33 15,-6 11,57z"/>
   <path class="fil18" d="M17349 13190c37,-14 17,-12 36,-24 48,-31 -53,-7 63,-29 0,0 100,7 -19,121 43,-69 -1,-54 98,-45l22 -40c4,-4 11,-11 14,-15 4,-4 11,-10 17,-15l-10 103c104,-31 134,-140 189,18l-134 2 13 108c-129,41 -35,5 -83,68 -46,60 -124,76 -85,-60l13 -50 -119 -12c-17,-62 -10,-26 12,-77 54,-126 -14,96 10,-29 -140,32 -59,25 -136,109l-155 -71c9,-67 30,-118 85,-70l19 20c3,2 7,7 11,10 45,-93 35,6 36,-106l25 38c3,3 7,8 10,11 12,9 55,29 68,35z"/>
   <path class="fil5" d="M3065 13168l-10 30 58 -1 -3 35c-90,27 -93,5 -71,75l-55 0c-77,51 22,-51 -33,26l3 10c-24,-107 10,-44 -49,-77 -32,49 -18,38 -20,87l-317 7c19,-85 15,-101 -79,-102l39 -74c-160,57 -17,17 -75,-29 72,-19 138,-19 194,7l48 -12 14 25 17 38c56,-50 2,-26 69,-42 48,-12 90,44 90,-35l91 -7c-7,83 17,-28 -11,43l-22 34c93,20 -19,1 81,28 20,-74 -19,-32 41,-66z"/>
   <path class="fil19" d="M14793 12780c29,-33 47,-77 104,-43l-21 54c37,3 24,-19 24,45 -107,75 -76,-27 -165,80 38,31 38,58 106,8 -13,85 4,56 -67,91l23 22c2,1 9,7 11,9l-87 -15c33,94 -17,11 54,94 -40,9 -60,21 -90,-4 6,65 13,64 5,151l-57 -36c-4,-3 -9,-7 -13,-10 -6,-4 -19,-15 -24,-19l-3 -192 52 -96c-50,18 -80,57 -114,22 0,-1 -50,37 15,-85 23,-42 11,-21 29,-42l11 18c4,7 -8,19 49,30 12,-99 -13,-12 35,-70 1,0 59,13 66,12 7,-1 13,-2 20,-3l37 -21z"/>
   <path class="fil20" d="M10983 15944l17 65c-71,-13 -40,29 -110,-113 -121,12 -38,50 -133,82 -5,-92 11,-70 38,-142 -125,17 -98,29 -191,61l-53 -44 81 -97 105 -48c61,-44 30,-4 61,-82 4,-4 9,-10 12,-12 2,-3 8,-10 11,-13l20 -26c1,-7 6,-8 9,-13l43 11 24 4c-43,23 -42,32 -76,69 41,74 40,108 131,123 -40,57 -28,13 7,85 35,69 -14,32 40,56 -73,8 -10,-5 -36,34z"/>
   <path class="fil1" d="M16098 12299l13 45c-60,4 -62,8 -101,31 38,23 38,23 102,16 -14,57 -29,59 -2,94 30,39 -1,14 48,37 0,0 45,13 56,16 0,48 1,55 6,103 -57,1 -82,15 -162,-5 39,-82 18,-44 85,-57 -10,-10 -8,-11 -30,-33 -28,-26 -8,-6 -32,-27 -34,17 -46,28 -93,42l57 -73 -82 -6 -1 -73 -72 -7c33,86 -5,34 52,82 -97,4 -102,50 -181,116l-37 25c-2,-2 -5,-9 -6,-7l-51 -59 81 -60 194 -212 156 12z"/>
   <path class="fil5" d="M15337 8610l1 4c30,55 -45,39 49,46l44 1c-31,31 -13,8 24,23l4 28 -14 84c-104,-41 36,-31 -137,-55 4,7 9,7 12,21l24 46c5,10 7,16 12,25 4,10 8,17 12,26l-60 -39c-28,-1 -17,4 -35,-15 -5,-2 -12,-11 -14,-7 -4,5 -20,-9 -31,-14 -36,-17 -15,-3 -49,-24l2 -21 -12 -120c-51,40 -38,-31 -19,83l-74 -7 -25 -34 -40 -59c78,-24 53,-47 -32,-51 17,-23 -11,-17 41,-46 55,-31 12,-28 71,-10l32 4 197 153 17 -42z"/>
   <path class="fil21" d="M17846 12627l18 14 0 31 -21 -4 -15 46c-102,16 -37,8 -60,-18l-43 70c-55,-30 -41,-9 -53,-70l-46 57c-281,-166 -80,-14 -221,-40 12,-40 29,-34 64,-94 -28,-31 22,-17 -29,-7l49 -96c30,-8 42,-3 43,-3 52,-8 -14,24 23,-13l-21 -47 45 1 19 134c59,-15 40,-1 67,-33l141 26 40 46z"/>
   <path class="fil22" d="M11219 15451l18 6c-71,53 -52,-27 -90,85 -38,24 -28,22 -86,31 -62,41 -35,48 -78,77l24 54c25,63 16,41 -9,89l61 12c-82,38 -36,0 -40,43 52,27 28,15 107,16 -33,36 -17,11 -50,42l-93 38c26,-39 -37,-26 36,-34 -54,-24 -5,13 -40,-56 -35,-72 -47,-28 -7,-85 -91,-15 -90,-49 -131,-123 34,-37 33,-46 76,-69l-24 -4 0 -25c30,-41 26,12 20,-75l122 -46 2 55c86,-41 89,-24 182,-31z"/>
   <path class="fil23" d="M16644 13371c55,-14 39,-26 93,-78 24,-22 10,-10 37,-30 5,5 13,5 15,13 5,22 29,51 32,23 88,9 165,-3 230,18 1,3 2,33 2,36 -19,74 -58,-57 31,74 -15,14 -19,18 -36,33l-56 45c-4,-6 -10,-23 -11,-19l-13 -31c-1,-3 0,-10 -1,-12 -13,-46 46,34 -14,-32 -39,-42 2,-8 -44,-34 -4,-2 -9,-5 -13,-7l-42 -16c-75,45 -16,35 -111,64l25 -75c-48,96 -33,52 -47,185l-92 -56 10 -58c0,-2 -2,-7 -3,-10 -24,-10 -30,-11 -61,-16 -7,-1 -31,0 -38,-2 -68,-19 5,18 -50,-28 115,-92 47,36 99,-108 3,4 9,4 9,11 1,7 6,10 7,12 12,80 -14,-25 -1,42 13,62 -29,8 43,56z"/>
   <path class="fil14" d="M17004 12404l-17 57c9,25 13,19 -14,18l-56 21 -6 -92c-71,38 -14,-9 -57,48l-22 16 -94 -33c-28,41 -18,36 -63,53 -3,-3 -7,-12 -8,-9 -10,23 -14,-17 -17,-21 -23,-25 12,2 -34,-34 -42,23 -52,33 -79,53 -34,-40 -9,-22 -66,-38 30,-29 36,-26 43,-76l-143 -35c-33,-5 -12,-5 -56,-7l-4 40 -66 18 22 -77c130,6 239,39 369,47 56,3 146,-10 197,0 51,10 105,39 171,51z"/>
   <path class="fil24" d="M11154 15749c5,-64 12,-58 21,-104 29,-137 6,-77 -28,-103 38,-112 19,-32 90,-85l62 7c-14,-65 -8,-60 55,-65 30,-29 23,-30 78,-17l22 213c-97,56 14,-28 -251,-5 -9,40 -3,157 -49,159z"/>
   <path class="fil25" d="M13810 14993c23,23 -24,14 55,18 -18,35 3,10 -35,46l53 24c-73,30 -86,29 -132,79 -67,72 -169,155 -127,-28 80,-28 61,-24 80,-106 -104,40 -59,48 -192,41 59,-94 107,-115 231,-72l186 -86c-40,115 -50,52 -119,84z"/>
   <path class="fil9" d="M11306 15084l-68 87 12 -43 -43 -53 38 -49c-55,-26 -9,28 -51,-44 -40,66 -103,145 -190,165l27 103c-9,0 -20,-8 -23,0l-47 20c-3,2 -7,9 -11,13l13 -109c-92,25 -50,17 -120,76 5,5 9,8 11,15l25 17c1,1 8,0 12,1 -61,5 -45,2 -101,16l5 -68c36,-36 30,-23 66,-49 47,-33 21,-23 77,-52l12 24c63,9 3,9 28,-42l29 25 26 -38 64 -66c5,-104 13,-25 -13,-73 41,-71 17,-55 93,-86l-30 38c77,-9 35,18 91,-26 -3,8 -6,18 -8,23 -20,50 -54,49 -3,25 34,53 58,-76 22,82 44,15 24,-23 -2,62l59 6z"/>
   <path class="fil26" d="M11988 16097c-107,9 -81,35 -162,-24 52,-27 43,-19 49,-61 -78,7 -93,48 -153,89 -11,-126 -52,-99 71,-110 -98,9 -33,-8 -56,-34 0,0 19,-41 24,-51 47,-108 -4,90 20,-62 65,54 35,10 60,84l79 11 41 -77c20,29 15,-34 20,53l7 182z"/>
   <path class="fil23" d="M16414 13591l-12 14c-120,41 -25,17 -59,-17 23,-53 -1,-28 39,-59l-24 0c-24,149 5,20 -39,74 -36,-37 -26,-3 -42,-71 -49,27 -161,16 -223,0 17,-15 5,-18 40,-29 78,-27 36,42 92,-70l-2 -4 156 57c55,-38 73,-38 86,-95 5,3 14,2 16,11 2,8 12,8 15,11 9,8 14,18 28,31l46 36c4,2 10,6 15,9 -17,13 -5,14 -47,26 -7,2 -39,4 -48,5l-37 71z"/>
   <path class="fil3" d="M14087 14391c-17,31 21,36 -47,49 -31,6 -38,-10 -79,-19 -31,25 -7,0 -40,35 -2,3 -6,8 -9,11l-18 23c-3,3 -8,10 -10,13 -23,30 -52,30 -89,29 -7,28 -26,90 -56,104 -108,48 -18,7 -55,-3 -2,-89 -26,-39 51,-67 -19,-52 -17,-43 -29,-85l101 -16c24,-103 28,-35 60,-123 67,10 158,27 220,49z"/>
   <path class="fil9" d="M10517 15534c33,-40 89,-67 116,-103 57,-76 -15,-47 97,-103 -6,109 -23,0 119,33 -26,72 -23,71 -89,100 26,61 18,39 11,54 -90,-41 -109,-8 -118,54l-1 57 -52 -23c-3,-2 -11,-9 -14,-11 -35,-32 48,-22 -72,15l59 -74 -56 1z"/>
   <path class="fil21" d="M14392 13184c20,62 15,33 1,108 -48,-17 -47,7 -47,-67 -8,135 -18,4 -51,98 -21,61 44,-25 -19,105 -42,0 -57,8 -95,-18 -3,-3 -8,-6 -11,-10l-38 -60c4,-5 28,-26 33,-29 176,-103 -102,-7 121,-79 -6,-39 -17,-46 -12,-82l66 13c56,18 31,10 52,21z"/>
   <path class="fil27" d="M9169 10045l300 -231c104,-64 76,-57 151,-126 33,-31 129,-90 159,-97 64,-8 12,-25 49,9 -100,53 -37,61 -134,71 -124,221 -118,67 -268,221 -75,76 59,-3 -94,75 -66,34 -152,205 -163,78z"/>
   <path class="fil28" d="M12772 16153l60 -9c35,-63 18,-30 86,-65 -13,81 -12,30 4,93 -51,32 -58,31 -72,88 51,-25 10,-23 60,-24 62,-2 12,-2 45,24 -61,80 -144,-32 -286,46 -21,-29 -8,-12 -32,-36 -3,-3 -8,-5 -11,-8 -3,-3 -8,-6 -11,-9 -66,-78 -15,-33 -15,-48 45,-9 21,-15 63,3 5,3 21,17 25,20l25 18c14,-64 -11,-7 -16,-37 -1,-7 -9,-6 -13,-6l107 -12 -19 -38z"/>
   <path class="fil23" d="M13945 13473l-63 10c17,-25 9,-36 21,-53 -42,-49 -8,16 -41,-72l-65 61 -3 -161c59,27 36,24 62,20l45 -29c82,41 79,6 155,43 -15,44 -11,32 -25,50 -51,64 -65,33 -86,131z"/>
   <path class="fil19" d="M13089 13573c20,-40 19,-23 69,-52 21,-13 49,-34 73,-49 40,-25 51,-23 90,-48 56,-37 12,-30 65,-34 113,-57 24,-18 60,0 -44,33 0,24 -79,40 10,52 -12,28 30,50 -60,43 0,-18 -50,69 -59,-21 -1,13 -60,-34 -38,145 -68,15 -139,57l2 98 -41 -40 -49 70c8,-76 -1,-63 29,-127z"/>
   <path class="fil25" d="M18155 12683c-101,-7 -24,22 -32,146 -4,-5 -9,-19 -10,-15l-52 -71c-38,105 27,28 -77,69 1,-73 -8,-68 -65,-81l22 -52 -77 -7 0 -31 88 5c-21,-49 -17,-43 -41,-75l62 12 4 38 105 -4c20,19 42,42 73,66z"/>
   <path class="fil21" d="M15672 13348l-47 118c-8,-16 -7,7 -5,-25 0,0 6,-44 7,-54 -69,24 -68,16 -121,58 -23,-34 -23,-57 -67,-87 -85,-60 -50,16 -74,-86 35,-13 112,-35 169,-54 -10,138 16,131 138,130z"/>
   <path class="fil21" d="M17919 12731c-12,142 116,17 193,212 -194,35 -12,-62 -223,-60 42,-148 16,-55 -10,-91 -36,57 6,70 -74,97 -4,-8 -49,28 -9,-80 14,-36 34,-43 56,-59 -28,-13 -11,-13 -24,-36l91 17z"/>
   <path class="fil29" d="M4334 15655l-15 27 -59 -16c-37,-45 -70,-40 -127,-78 -55,-38 -81,-68 -125,-94 -86,-52 -193,-62 -270,-139 9,-51 -7,-23 19,-47l89 69c96,80 101,25 176,63 35,17 61,67 106,94 79,48 68,-28 104,90 39,-1 127,-15 102,31z"/>
   <path class="fil27" d="M12891 13552c-27,24 -76,57 -109,86 -35,31 -24,34 -52,66 -119,137 -43,76 -153,164 -26,20 -38,35 -59,61l-36 53 -22 5c-40,-26 -11,53 -29,-23l53 -113c171,-22 37,-52 185,-85 3,-56 4,-71 19,-101 37,-73 50,-57 97,-82 94,-51 17,-43 93,-73l13 42z"/>
   <path class="fil30" d="M11420 15286l3 -44 113 -73c2,-5 6,-4 9,-7 81,-43 -3,-19 88,-19 11,111 2,179 -173,205 -2,-4 -5,-15 -6,-12l-34 -50z"/>
   <path class="fil10" d="M15090 13422c-45,125 -42,198 -131,174 -99,-27 47,-21 -71,-23 68,-138 -21,-51 44,-176l158 25z"/>
   <path class="fil26" d="M14218 13974c132,-39 67,-4 94,10 -26,17 6,16 -53,25 -99,15 -71,-32 -137,40 -4,-5 -9,-18 -10,-15 -2,4 -7,-11 -9,-14 -64,-100 32,40 -15,-25l-88 -111c-11,-92 -6,-3 14,-43l47 6c184,129 99,-20 157,127z"/>
   <path class="fil31" d="M15713 8997l10 53 -73 8 -68 -50 -8 -68 18 -101c17,7 44,18 53,23l48 -18c35,20 16,-12 25,54 5,43 0,62 -5,99z"/>
   <path class="fil29" d="M6588 16826l-37 13 -77 -49c-8,-27 15,-12 -26,-18l-61 17 -2 -50c-76,-33 -131,-55 -194,-112l25 -50c148,154 109,66 252,137l37 25c48,21 60,8 100,4 -19,30 -29,-27 -12,45 15,64 0,7 30,35l-35 3z"/>
   <path class="fil27" d="M12930 13113c109,-55 80,-58 168,-129 32,-26 54,-37 87,-72 46,-49 51,-57 122,-48 80,-24 17,-9 41,12l-207 128c-52,47 -31,71 -137,131 -67,36 -27,-8 -54,38 -43,-46 -18,16 -20,-60z"/>
   <path class="fil10" d="M11798 14868l2 21 -133 80c30,-118 69,-119 107,-193l-55 -12c5,-3 10,-7 14,-9 3,-3 9,-7 13,-10 66,-51 -25,29 25,-18 57,-54 10,-64 104,-113 120,-32 27,-16 52,23 -133,147 -138,146 -129,231z"/>
   <path class="fil32" d="M12954 8240c-23,29 0,16 -45,23 -7,1 -76,0 -77,0 3,-60 3,-42 -40,-72 -28,98 22,41 -99,55l-33 -58c71,-103 46,-55 132,-25 60,-57 1,-34 86,-27l13 51c77,14 66,-12 105,-1 -52,32 -44,13 -120,27l34 23c114,27 -68,-5 44,4z"/>
   <path class="fil33" d="M14911 8380l-9 66 -10 30c-24,26 -34,-35 -10,67 -77,22 -18,14 -88,10l-80 4c-34,-40 -32,-31 -60,-58l0 -54 0 37 51 15c5,1 11,3 16,4l75 2c3,-22 16,-57 -25,-94l-4 7 105 -59c51,25 34,-60 39,23z"/>
   <path class="fil34" d="M9525 10023c-52,-3 -37,0 -62,-16 64,-65 29,4 43,-78l57 7c136,-146 4,-28 166,-133 123,-81 108,-129 178,-112 -49,66 -49,37 -99,86 -44,41 -37,53 -92,87 -107,64 -90,93 -191,159z"/>
   <path class="fil12" d="M2539 13359l-157 1 -72 -8 32 -31c19,-58 43,-101 49,-153l58 -5 -28 89c31,15 -16,3 48,16 1,1 42,2 54,2l16 89z"/>
   <path class="fil29" d="M2240 14427c-83,-8 -144,-53 -204,-90 -76,-47 -135,-61 -186,-119l-35 -47c181,63 47,20 99,-29 -36,-13 -29,-7 -8,-35l13 96c96,50 39,59 176,110 94,36 16,13 97,66l67 36c3,2 9,4 11,4 2,1 8,1 9,1 2,1 6,0 9,0l-48 7z"/>
   <path class="fil35" d="M15557 8789l-28 34c-1,2 -6,7 -7,8 -3,3 -10,8 -12,11l-23 54c-5,-5 -21,-15 -24,-16l-35 -12 -96 4 -24 -52 60 39c-4,-9 -8,-16 -12,-26 -5,-9 -7,-15 -12,-25l-24 -46c-3,-14 -8,-14 -12,-21 173,24 33,14 137,55l14 -84 29 6 5 46c19,7 11,14 64,25z"/>
   <path class="fil21" d="M14555 13133c-26,72 -41,92 -66,148 -82,-33 -13,-40 -81,-38l9 -92c-80,-10 -79,-17 -82,-111 79,23 49,54 88,74l132 19z"/>
   <path class="fil3" d="M14069 14525c-38,147 28,82 -123,125 16,-159 78,-161 175,-170 27,-38 26,-52 85,-68 -20,92 -34,146 -137,113z"/>
   <path class="fil36" d="M11420 15286l12 96c-55,-13 -48,-12 -78,17 -63,5 -69,0 -55,65l-62 -7 -18 -6 29 -108c62,-47 46,-24 102,-47 75,-32 50,-8 60,-42 2,-8 9,-8 13,-12l-3 44z"/>
   <path class="fil37" d="M2305 13267l-14 37c32,28 8,17 51,17l-32 31 72 8c0,38 -47,25 -91,27 14,-39 59,-42 -30,-43 -16,-1 -39,1 -69,0l14 55 -117 -3 0 -28 23 -34c-14,-29 -7,4 -13,-42 62,-69 1,-9 53,-42 30,42 -4,30 72,70 8,4 17,6 26,9l5 -89c3,58 -12,17 50,27z"/>
   <path class="fil26" d="M17683 12473c33,50 74,67 140,47l23 32 0 75 -40 -46 -141 -26c-27,32 -8,18 -67,33l-19 -134 56 9 48 10z"/>
   <path class="fil38" d="M17663 13031c28,19 25,14 62,25 60,-71 56,-55 183,-48 -55,97 15,0 -68,64 -56,44 7,24 -78,65 -96,45 -80,-42 -99,-106z"/>
   <path class="fil10" d="M15499 13826l2 -11 49 3c-29,58 -12,37 -30,80 -42,94 27,38 -77,50 48,64 15,63 4,80 -27,-25 -24,31 -33,-67 -51,19 -36,10 -70,39 7,-131 -6,-89 40,-105l49 -21c5,-3 18,-10 23,-13 31,-21 20,-13 43,-35z"/>
   <path class="fil1" d="M18498 13683c-46,35 -121,50 -168,76l-68 8c25,-70 28,-29 14,-71l-20 -66c0,-1 3,-4 4,-6l69 25c33,9 50,19 70,33l97 -54c19,37 16,3 2,55z"/>
   <path class="fil39" d="M11154 15749l-26 -1c-29,-28 -26,-20 -45,-59 -18,-38 14,-4 -38,-63l16 -53c58,-9 48,-7 86,-31 34,26 57,-34 28,103 -9,46 -16,40 -21,104z"/>
   <path class="fil40" d="M17072 12006c2,0 64,-9 69,-9 50,1 18,-9 41,17l2 125c-52,1 -29,-9 -53,35l-86 -50 27 -118z"/>
   <path class="fil37" d="M7719 16849l-172 20c-10,-62 3,-19 -67,-74 29,-8 94,-18 96,-19 80,-30 -75,-9 84,-39 19,27 40,57 20,77 51,0 39,-14 39,35z"/>
   <path class="fil31" d="M18845 12837c21,109 0,39 -10,73 -85,-43 -40,28 -59,-76l-69 10 1 -48 -94 2c30,-38 19,6 20,-64 35,25 38,-33 23,46 88,-31 26,-32 119,5l-12 -63c34,23 19,-4 56,52 51,77 13,12 25,63z"/>
   <path class="fil41" d="M16973 12479l-5 31 -13 126c-58,-48 -71,68 -45,-70 -2,4 -20,53 -25,64 -49,-29 -41,-6 -91,-71l102 -43 15 -36c-20,-36 31,-31 -57,-24 43,-57 -14,-10 57,-48l6 92 56 -21z"/>
   <path class="fil42" d="M5374 15921l69 52 34 24 3 21 -53 19 -44 -41 18 -20c-63,-12 -169,-61 -202,-86 -53,-39 -46,-45 -119,-66 -22,-28 -24,-18 15,-26 82,21 82,52 138,77 24,11 112,36 141,46z"/>
   <path class="fil43" d="M12415 14341c14,-5 30,-13 44,-18 36,-11 32,-5 63,-17 44,-16 45,-29 94,-45l7 69c-91,48 45,46 -88,74 -100,21 -120,-63 -120,-63z"/>
   <path class="fil44" d="M12506 14864l35 -9c61,0 54,25 81,59l-116 10c32,70 84,62 28,148 -66,-30 -20,16 -57,-44 -2,-3 -4,-9 -5,-13 -2,-4 -3,-9 -5,-14 -21,-62 -7,-65 39,-137z"/>
   <path class="fil10" d="M16184 13429l2 4 -38 -44c-26,26 -23,23 -38,43l-81 -30c-25,-8 -14,-12 -34,-38 70,-9 33,22 62,-60 1,-3 2,-10 4,-15 50,29 25,4 47,54l107 -21c15,99 18,8 -31,107z"/>
   <path class="fil37" d="M7428 16862l-74 1c-12,45 6,20 -50,28 0,0 -54,0 -58,0 -77,-8 -84,-34 -96,-47l38 -7c-43,-27 -23,-16 -43,-62l40 37 59 -6 -14 0c-4,83 -21,3 10,40 33,39 23,16 21,-17l53 26 -21 -62c33,-4 48,-13 82,9 0,0 27,27 30,30 3,3 9,18 11,14 2,-4 8,11 12,16z"/>
   <path class="fil18" d="M17893 13186c-65,5 -71,27 -148,46 34,-249 63,-6 43,-99 6,-4 14,-16 18,-11l137 -63c-19,93 -28,58 -50,127z"/>
   <path class="fil9" d="M8559 10665l-39 15c-24,-19 -1,-48 -57,29l49 -9c-101,151 -21,105 -99,136 28,-70 9,-15 16,-58 15,-92 -4,-56 -18,-91l-8 -26c-13,-64 61,-20 -13,-61l27 -9 55 48c45,-13 42,-20 54,-23 38,-10 -1,-6 38,5l-5 44z"/>
   <path class="fil45" d="M8884 10449c-51,58 -86,66 -132,90 -5,2 -11,4 -15,7l-39 29c-10,-106 10,-125 91,-172 7,2 14,6 18,8l42 25c12,7 7,7 35,13z"/>
   <path class="fil45" d="M8620 10627c0,36 -20,27 -61,38l5 -44c-39,-11 0,-15 -38,-5 -12,3 -9,10 -54,23l-55 -48 16 -50 98 -32c21,38 30,51 53,84 28,39 1,24 36,34z"/>
   <path class="fil33" d="M10074 9579c-86,8 13,62 -47,-19 132,-32 37,-37 156,-80 231,-82 155,-50 177,-17 -59,37 -52,39 -132,57 -62,15 -23,-3 -76,26 -35,20 -4,26 -78,33z"/>
   <path class="fil19" d="M15211 14125l53 -13 20 108c-84,-26 -39,-12 -115,-49 -34,29 -25,28 -78,33l13 -117 107 38z"/>
   <path class="fil1" d="M15284 14599c43,-39 32,-34 93,-27 -67,95 -46,51 -151,89l-7 -61c-1,-4 -2,-9 -3,-14l-18 -53 119 -31 -33 97z"/>
   <path class="fil46" d="M3780 15061c30,91 0,28 46,54l-6 10c-23,53 33,81 -93,-2 -2,-1 -7,-2 -9,-3 -16,-12 -13,56 -16,-59 -77,6 -110,10 -107,-76l69 7c38,54 33,64 116,69z"/>
   <path class="fil30" d="M17489 12516l-49 96c-67,15 -60,28 -107,-10l24 -40c32,-41 37,42 26,-50l-112 12 -8 -39c82,3 74,17 132,-1l14 37 80 -5z"/>
   <path class="fil24" d="M17123 12464l24 49c-31,-3 -64,-6 -90,-6 -17,0 -30,4 -63,-1 12,94 28,34 -21,97l-5 -93 5 -31c27,1 23,7 14,-18 21,-22 28,40 10,-60 8,3 19,0 24,11 3,7 53,28 104,22l-2 30z"/>
   <path class="fil24" d="M11800 14889l-2 -21 79 -2c45,-72 79,-70 134,-90 -44,104 -11,85 -136,91l11 38c1,4 4,12 5,17l1 27c0,3 -2,8 -3,13 -87,18 -84,-43 -89,-73z"/>
   <path class="fil47" d="M6666 12013l11 -19c107,-45 20,4 72,-48l24 10 32 31c42,-22 35,43 28,-61l68 5c-23,72 3,27 -34,74l-33 29c-3,3 -10,8 -13,10 -3,2 -9,7 -13,11 -69,-20 -63,-15 -99,-55l-43 13z"/>
   <path class="fil48" d="M12039 14426l14 20 -73 60 -25 1 -5 35 -42 34c-20,-27 -53,20 -9,-31 4,-70 82,-139 125,-177 39,32 68,-51 15,58z"/>
   <path class="fil1" d="M13890 12971l-6 4 75 -32c55,51 33,20 42,111 8,-2 44,-16 46,-16l50 6c6,1 12,7 18,10l-52 45c-46,29 29,24 -82,19 -37,-67 11,-41 -13,-92 -20,-43 -27,-14 -78,-55z"/>
   <path class="fil14" d="M7645 11452l-34 -104 55 -21c10,60 13,13 44,12l68 31c-11,79 -49,64 -133,82z"/>
   <path class="fil1" d="M15973 13034c-7,70 2,43 -20,107l-96 -62c-66,-65 5,-22 -91,-69 99,-7 101,-13 207,24z"/>
   <path class="fil27" d="M10592 9018l103 -57c3,-3 7,-7 10,-10l24 -23c84,46 32,55 -29,99 -52,38 -68,43 -147,64l39 -73z"/>
   <path class="fil8" d="M12415 14313c-2,-5 -6,-19 -6,-15 -1,4 -16,-85 46,-173 59,27 115,23 10,145 -28,33 -10,20 -50,43z"/>
   <path class="fil46" d="M4793 15669c20,81 33,6 -6,47 -156,-51 20,-50 -213,-100l-4 -52 50 4c47,13 155,78 173,101z"/>
   <path class="fil32" d="M3386 13352l-22 35c-87,-4 -125,24 -184,-21l62 -15c-5,-57 47,-51 99,-54l45 55z"/>
   <path class="fil3" d="M14704 14130l-85 15 -15 -192c4,0 11,-4 12,1 7,31 94,42 88,176z"/>
   <path class="fil49" d="M11327 14743l0 -33 -1 2 34 -10c62,-3 44,2 80,-15 35,86 8,55 -24,144 -40,-13 -113,-48 -60,-76l-29 -12z"/>
   <path class="fil21" d="M15929 13766l4 70 -127 32c21,-107 18,-40 3,-134 8,1 62,5 73,9 34,10 27,10 47,23z"/>
   <path class="fil27" d="M11484 14910l-67 115c-85,-16 -26,33 -58,-32 60,-40 31,11 47,-61 22,-93 0,-54 -11,-70l134 -21 -45 69z"/>
   <path class="fil50" d="M6877 11584c26,-25 8,-9 50,-23 5,-2 35,-3 42,-4 5,4 40,30 42,36 41,114 -3,63 -8,76 -36,7 51,22 -55,6 -78,-11 -35,-8 -66,-26 7,-6 61,-62 64,-31 -39,-58 63,-3 -45,-33 -6,-2 -16,0 -24,-1z"/>
   <path class="fil33" d="M10157 9374c34,-14 67,-48 107,-72 55,-34 72,-42 93,-105l33 4 37 5c-94,52 11,28 -133,126 -68,47 92,-53 -53,27 -118,66 -6,64 -139,48 122,11 7,6 55,-33z"/>
   <path class="fil51" d="M3667 15309c-81,-15 -54,-27 -101,-64 -21,-17 -55,-30 -64,-36 -35,-24 -19,-15 -32,-41l11 -36c78,40 157,117 220,162l-34 15z"/>
   <path class="fil27" d="M10551 15853l-51 31c-125,14 -28,9 -51,-20 87,-143 89,-38 142,-141l41 33 -81 97z"/>
   <path class="fil52" d="M1874 13935c28,28 1,11 39,33 1,0 48,14 52,15l-3 45c25,92 -11,17 40,81 -85,-25 -50,3 -87,-103l-80 -6c-3,-3 -9,-16 -11,-13l-41 -64c-3,-5 -8,-12 -12,-18l4 16 13 -3c25,5 57,13 86,17z"/>
   <path class="fil53" d="M15592 8839l-18 101 -53 -17 -74 -4 -19 -51 35 12c3,1 19,11 24,16l23 -54c2,-3 9,-8 12,-11 1,-1 6,-6 7,-8l28 -34c49,34 13,-11 35,50z"/>
   <path class="fil24" d="M13441 13672l19 48c-48,46 -35,14 -40,85l-74 -39c-39,-103 -1,-109 95,-94z"/>
   <path class="fil1" d="M14027 15171l-46 88 -80 -3c-37,-69 -11,-35 -18,-66 0,-2 -1,-7 -2,-9l-5 -53c128,25 -54,-38 35,11 65,35 27,33 116,32z"/>
   <path class="fil19" d="M15987 14266c-56,19 -3,-31 -41,36l-24 51 -82 -27c0,-1 -42,-41 22,-39l32 11c5,2 13,7 19,10 -41,-91 -39,-16 -33,-123 55,19 58,28 107,81z"/>
   <path class="fil54" d="M14228 12955c8,88 -25,88 -116,88l-8 -88c10,-4 11,-53 124,0z"/>
   <path class="fil55" d="M15046 8480l46 9 -1 6c-59,-18 -16,-21 -71,10 -52,29 -24,23 -41,46l5 51 -9 5 -25 -28c-20,24 -16,-20 1,42 -41,-5 -41,9 -27,-23l26 -86 -58 -36 10 -30 67 8 62 -15 -25 45 40 -4z"/>
   <path class="fil8" d="M14195 13912c21,-59 28,-61 51,-112 33,-75 17,-58 99,-82 -20,139 -46,129 -150,194z"/>
   <path class="fil26" d="M15211 14125l-36 -19c30,-89 43,-99 82,-164l12 -3 53 103c-81,15 -59,18 -111,83z"/>
   <path class="fil32" d="M15387 11885l30 3 22 -3c1,42 14,36 -19,36 89,10 22,-22 29,51 -79,41 -30,44 -91,41l-29 -117 58 -11z"/>
   <path class="fil11" d="M15975 14429c-82,2 -9,3 -42,-18 61,-33 52,-9 59,-87l129 -9 12 26c-32,42 -28,23 -105,64 -37,20 -16,13 -53,24z"/>
   <path class="fil1" d="M15494 14405l-84 103c-78,86 -93,-21 -93,-21l76 -42c3,-4 6,-8 9,-12l25 -48c24,11 43,13 67,20z"/>
   <path class="fil18" d="M16161 13821c-73,57 -100,30 -120,25 -5,-78 -25,-51 38,-82 0,0 84,-23 97,-25l-15 82z"/>
   <path class="fil56" d="M14911 8380c-5,-83 12,2 -39,-23l-105 59 3 -51c-95,-6 -25,7 -54,-20 39,-26 20,-11 56,-15l41 -5c-153,0 -28,8 -79,-38l79 8c66,60 -3,21 96,50l2 35z"/>
   <path class="fil57" d="M11518 8623c-13,33 14,15 -33,26 -29,7 -27,0 -39,-2l-45 58c-25,74 4,19 -33,30l-69 2c26,-18 46,-24 63,-42 12,-12 25,-41 29,-47 55,-61 49,7 107,-84 38,39 69,-57 20,59z"/>
   <path class="fil18" d="M15825 14035l-148 -11c23,-57 62,-83 107,-107 44,60 28,38 41,118z"/>
   <path class="fil58" d="M17279 12856c-24,11 13,20 -59,11 -136,-16 -80,81 -108,-50l97 -45 70 84z"/>
   <path class="fil19" d="M17263 12485l8 39 112 -12c11,92 6,9 -26,50 -29,-35 49,-23 -65,-31 -22,106 -18,58 -48,68l-11 -39c-15,-61 15,13 -6,-35l-36 -26c33,-40 37,0 19,-58l80 -7c-70,9 -10,-1 -27,51z"/>
   <path class="fil59" d="M16477 14106l12 -60c-81,12 -44,18 -89,-3l79 -40c57,-29 38,-36 81,6l99 -46 -58 25c2,36 0,28 11,50 -64,10 -92,30 -135,68z"/>
   <path class="fil60" d="M4706 15859l-99 3 2 -36c18,-78 1,-45 -11,-130l61 -13c-15,42 -2,-6 -20,55 -1,5 -3,11 -4,15l-5 52c45,1 32,-4 74,11 93,33 31,8 75,48l-73 -5z"/>
   <path class="fil61" d="M18916 12897c-22,66 43,59 -70,39 -18,-4 -63,-24 -106,-32l0 11c-4,-5 -18,-32 -20,-37 -2,-5 -6,-13 -7,-17 -2,-5 -4,-11 -6,-17l69 -10c19,104 -26,33 59,76 10,-34 31,36 10,-73 4,4 11,4 13,11 8,31 11,11 23,21 36,32 -2,7 35,28z"/>
   <path class="fil29" d="M3146 14980c-85,-26 -114,-18 -162,-87l0 -46c73,31 145,79 203,134l-41 -1z"/>
   <path class="fil34" d="M9693 16045c12,-14 1,-11 39,-28 7,-4 34,-12 46,-16 58,-22 33,-19 90,-27 40,-10 26,25 35,-11 -26,50 31,43 -85,77 -93,28 -44,8 -117,55l-8 -50z"/>
   <path class="fil26" d="M11627 15648l18 4c102,52 55,-19 77,113 -57,-7 -58,9 -101,-38l-37 -61 43 -18z"/>
   <path class="fil52" d="M15693 8844l-48 18c-9,-5 -36,-16 -53,-23 -22,-61 14,-16 -35,-50 -53,-11 -45,-18 -64,-25l-5 -46 40 0c28,49 106,68 153,104 45,0 1,-5 12,22z"/>
   <path class="fil53" d="M2568 13360l-29 -1 -16 -89c-12,0 -53,-1 -54,-2 -64,-13 -17,-1 -48,-16l28 -89 4 -8c58,46 -85,86 75,29l-39 74c94,1 98,17 79,102z"/>
   <path class="fil62" d="M12418 14993c-24,14 31,51 -112,-6 -2,-5 -4,-18 -4,-15l-15 -80c80,10 38,-16 100,51 29,32 15,-5 31,50z"/>
   <path class="fil52" d="M4157 12990c62,-54 27,-19 110,-41 31,-9 28,-12 53,-24 54,-28 8,-10 53,-22l38 13c-163,128 -120,26 -242,109l-12 -35z"/>
   <path class="fil33" d="M5886 12400c-1,2 11,15 -29,40 -43,27 -32,15 -76,13l-39 -12c27,-49 9,-34 135,-92 28,30 69,-62 9,51z"/>
   <path class="fil60" d="M5045 15972c61,-17 9,-6 39,30 0,40 7,9 -46,20 -52,15 -102,-9 -138,-45l5 -34 140 29z"/>
   <path class="fil63" d="M7645 11452c-6,4 -6,38 -97,9l-16 -39c13,-41 -13,-13 17,-42 44,-43 21,-16 62,-32l34 104z"/>
   <path class="fil64" d="M12480 15219c-6,-2 -29,-13 -34,-15 -131,-48 -78,-17 -108,-72l76 -61c4,8 7,11 8,19l14 47c16,25 34,-1 44,82z"/>
   <path class="fil52" d="M4481 12875c44,-63 85,-27 158,-47l24 -12c2,-1 7,-5 11,-6l63 7c-62,59 -138,63 -207,71l-49 -13z"/>
   <path class="fil51" d="M12417 8257l18 29c-42,39 -86,18 -147,6l-109 8c111,-117 122,21 202,-69 0,43 -9,32 36,26z"/>
   <path class="fil9" d="M17983 12295l-40 55c97,24 62,-5 87,77 -7,-2 -17,-11 -20,-6l-32 -15c-3,-1 -9,-6 -12,-7 -36,-14 -12,-11 -61,-4 -2,-15 -2,-47 -3,-51l-25 -66c77,26 21,15 106,17z"/>
   <path class="fil32" d="M17973 12583l-62 -12 -65 -19 -23 -32 119 30c-11,-20 -9,-4 -7,-41 1,-13 7,-39 8,-46l79 19 -49 101z"/>
   <path class="fil61" d="M4187 13144c-25,26 5,8 -33,29 -29,16 -13,5 -48,19 8,-79 26,-12 -12,-58 -79,63 -17,41 -107,66 3,-32 -51,-109 142,-74 2,0 6,2 8,2 3,1 16,6 19,7 31,10 3,4 31,9z"/>
   <path class="fil42" d="M15337 8610l-17 42 -197 -153 67 11c72,44 97,29 147,100z"/>
   <path class="fil61" d="M18533 12800c-66,-19 -191,-4 -199,-56 78,-15 39,-51 105,21 41,-37 18,-48 87,-56 -6,56 -22,37 7,91z"/>
   <path class="fil40" d="M4391 15727l-28 -4c-10,-74 7,-23 -44,-41l15 -27 37 -13c21,-47 70,65 0,-95 55,56 27,55 79,73l21 6c-20,86 -11,44 -80,63l0 38z"/>
   <path class="fil19" d="M18499 13120l-111 -86 63 -24c56,-15 9,-16 86,-5l-38 115z"/>
   <path class="fil24" d="M13875 13470l7 13 63 -10 -5 7c3,5 8,6 10,14 4,25 21,-2 35,95 -164,3 -7,-6 -120,-58l10 -61z"/>
   <path class="fil65" d="M8118 10993c-39,56 -16,37 -84,67l-78 -84c40,-23 16,-32 71,-18 16,4 38,22 39,22 23,10 2,8 52,13z"/>
   <path class="fil33" d="M8413 10836l-52 -2 35 -55c-26,-95 -44,-71 -3,-176l-3 -3c74,41 0,-3 13,61l8 26c14,35 33,-1 18,91 -7,43 12,-12 -16,58z"/>
   <path class="fil53" d="M14030 8300c-58,-20 -35,-12 -109,-15 -8,0 -57,-1 -60,-1 -58,-6 -37,-7 -47,-10 89,-23 75,-21 167,11 -43,-76 -21,-37 -86,-82l118 -16c-5,102 -13,25 17,113z"/>
   <path class="fil8" d="M18740 12915l0 -11 -17 61c-132,21 -89,24 -125,-11 4,-39 14,-38 35,-50 62,-36 -6,38 44,-18l63 29z"/>
   <path class="fil66" d="M13542 13969l-95 15c11,-75 44,-71 -4,-115 32,-14 35,-17 77,-21l22 121z"/>
   <path class="fil32" d="M11311 8691c-70,55 -18,72 -146,95 11,-65 -15,-17 53,-94l19 -22c2,-2 7,-7 10,-11l64 32z"/>
   <path class="fil11" d="M17024 13707c-35,40 31,8 -38,36 -41,18 -80,6 -112,-6 -4,-2 -12,-7 -17,-10 36,-51 29,-61 81,-50l86 30z"/>
   <path class="fil67" d="M17534 12453l21 47c-37,37 29,5 -23,13 -1,0 -13,-5 -43,3l-80 5 -14 -37c13,-10 11,-5 36,-16 60,-27 13,11 53,-32l50 17z"/>
   <path class="fil21" d="M15750 14355c-33,-4 -18,10 -62,-8 -96,-40 -19,-6 -60,-46 59,-42 47,-32 123,-42l-1 96z"/>
   <path class="fil68" d="M14924 8598c-39,-14 -46,-9 -72,-16 -66,-18 -25,27 -58,-29 70,4 11,12 88,-10 -24,-102 -14,-41 10,-67l58 36 -26 86z"/>
   <path class="fil45" d="M2342 13321c-43,0 -19,11 -51,-17l14 -37c24,-70 3,-42 50,-103l36 4c-6,52 -30,95 -49,153z"/>
   <path class="fil50" d="M10950 15283l-59 0c-4,-1 -11,0 -12,-1l-25 -17c-2,-7 -6,-10 -11,-15 70,-59 28,-51 120,-76l-13 109z"/>
   <path class="fil40" d="M3172 14729c-26,-11 -64,-23 -89,-32 6,94 26,78 -20,127 -27,-62 -24,-102 -16,-172 61,22 92,32 125,77z"/>
   <path class="fil69" d="M6920 16707l-52 4c-40,-48 -23,0 -34,-87l-32 17c-101,17 51,33 -30,-7 -44,-23 39,0 -53,-34l0 -26c93,10 96,-12 131,44 24,40 -9,13 27,56l43 33z"/>
   <path class="fil2" d="M11033 15099l-35 -3 3 -40c11,-30 -4,-4 17,-35 3,-4 15,-17 18,-22 42,-48 4,-21 48,-39 26,48 18,-31 13,73l-64 66z"/>
   <path class="fil21" d="M18155 13169c-49,-8 -19,44 -53,-52l-77 39 77 -103c9,7 40,20 50,33 3,4 8,8 10,13 2,5 5,10 6,15 22,108 3,15 -13,55z"/>
   <path class="fil65" d="M18634 12734c-1,70 10,26 -20,64l94 -2 -1 48c-53,-18 -10,-23 -94,-3 -96,10 -41,14 -58,-29l38 -3 4 -89 37 14z"/>
   <path class="fil45" d="M7244 16806l-59 6 -40 -37c-4,-56 16,-67 70,-61l28 20 1 72z"/>
   <path class="fil8" d="M15764 12678c-34,50 -26,31 -54,43 -61,26 -1,12 -95,26 45,-96 40,-95 90,-92 60,3 33,10 59,23z"/>
   <path class="fil70" d="M15528 8718l-40 0 -29 -6 -4 -28 18 -24 -42 1 -44 -1c-94,-7 -19,9 -49,-46l141 21c11,11 14,11 26,34 16,28 4,6 23,49z"/>
   <path class="fil71" d="M12110 14489c84,-46 8,-37 112,-81 -11,44 -3,38 -27,86 -44,86 -4,25 -57,60 -41,-37 -16,7 -28,-65z"/>
   <path class="fil72" d="M11841 14241c10,-17 17,-24 35,-42 48,-46 11,-26 67,-44l39 7c-123,147 -43,46 -145,133l4 -54z"/>
   <path class="fil73" d="M3065 13168c-60,34 -21,-8 -41,66 -100,-27 12,-8 -81,-28l22 -34c28,-71 4,40 11,-43 18,4 63,8 69,10 54,13 26,-6 48,23l-28 6z"/>
   <path class="fil74" d="M15718 9089l58 16 -16 -54c4,4 12,3 14,11 10,36 92,37 102,126 -54,-8 -128,-48 -158,-99z"/>
   <path class="fil17" d="M17885 13742l-152 -67c64,-17 167,-81 152,67z"/>
   <path class="fil8" d="M16402 13605l12 -14 83 -19c-3,113 14,69 -107,103l12 -70z"/>
   <path class="fil75" d="M13194 13271c-67,-28 -38,10 -19,-47 9,-27 24,-31 41,-44 110,-83 78,-32 82,-23 -10,41 16,-2 -14,32 -4,4 -29,21 -35,25 -27,23 -38,38 -55,57z"/>
   <path class="fil8" d="M12834 14019c-24,49 30,42 -55,22 -9,-48 -6,-105 69,-90 67,14 9,-13 41,35l-55 33z"/>
   <path class="fil18" d="M17293 13657c-14,59 37,46 -119,86 13,-32 -5,-49 52,-86 60,-38 42,-15 67,0z"/>
   <path class="fil8" d="M14607 13820c-6,-12 -64,32 -7,-61 17,-28 32,-25 57,-38 15,38 33,37 13,79 -30,63 -13,31 -63,20z"/>
   <path class="fil48" d="M14417 12534c-75,25 -58,27 -98,77l-60 5c49,-36 33,-48 74,-86 71,-66 -45,27 21,-16 58,-39 53,-24 85,-21l-22 41z"/>
   <path class="fil73" d="M2709 13175l17 -52c82,29 69,17 159,13 0,79 -42,23 -90,35 -67,16 -13,-8 -69,42l-17 -38z"/>
   <path class="fil73" d="M16139 11858l61 4c-20,36 -21,64 -63,77 -77,24 -75,-32 -76,-33l40 -16c57,-36 -26,40 38,-32z"/>
   <path class="fil27" d="M14654 12443c-40,-37 9,-7 -56,-31 -123,46 -20,18 -62,-22 58,-15 98,-28 146,-52l-28 105z"/>
   <path class="fil51" d="M5155 12839l0 31 -54 15c2,-84 -6,-28 25,-48 22,-65 25,-59 97,-72 31,46 59,-67 20,58 -6,-2 -37,-10 -42,-10 -31,3 -60,-41 -46,26z"/>
   <path class="fil76" d="M17431 12130c-123,-52 -69,-57 -236,-47l-13 -69c4,2 11,2 12,8l29 26c1,2 5,6 7,10l159 6c21,31 29,45 42,66z"/>
   <path class="fil27" d="M2334 14214c-7,17 30,86 -77,31 -25,-12 -35,-60 -43,-78l42 4c39,37 28,17 78,43z"/>
   <path class="fil54" d="M17911 12571c24,32 20,26 41,75l-88 -5 -18 -14 0 -75 65 19z"/>
   <path class="fil65" d="M1665 13399l-4 3 -94 -13 9 -84c74,2 -59,45 97,24l-8 70z"/>
   <path class="fil77" d="M1694 14083c62,67 25,-1 43,78l-23 -1 -148 -110c-3,-2 -9,-6 -14,-9l88 8c2,8 -4,22 10,37l44 -3z"/>
   <path class="fil61" d="M6970 16707c5,-6 17,-46 59,-49 83,-5 40,1 60,37l-53 50 -66 -38z"/>
   <path class="fil11" d="M17653 13331c46,-63 18,-41 121,-48 -18,40 8,35 -40,61 -85,47 -80,-12 -81,-13z"/>
   <path class="fil56" d="M1788 13918l-13 3c-101,-48 -58,49 -139,75l47 -48c-43,-80 -39,-17 -8,-102l-91 -72 204 144z"/>
   <path class="fil70" d="M1460 13168c-6,71 -14,53 -21,67l-60 -62c-89,6 -88,32 -137,-28l218 23z"/>
   <path class="fil23" d="M14635 14592l-45 -119c26,5 59,1 78,33 45,77 -19,76 -33,86z"/>
   <path class="fil78" d="M3506 13357l-22 -1c-50,-56 -36,-44 -103,-36 71,-33 74,-61 148,-59l-23 96z"/>
   <path class="fil23" d="M13486 15244c18,-99 5,-64 107,-87 -19,49 -2,36 -31,67 -41,43 -9,29 -76,20z"/>
   <path class="fil45" d="M5307 12705l0 -77c-46,25 -25,28 -65,5l-41 15c20,-57 11,-39 80,-52 36,34 -63,69 97,3 -2,9 -5,18 -7,26l-64 80z"/>
   <path class="fil21" d="M14694 14345l-34 -83 103 -18c-13,48 6,29 -19,66 -26,40 -7,19 -50,35z"/>
   <path class="fil38" d="M18016 12995c-24,27 18,36 -102,51 18,-71 -46,-39 35,-72 83,-33 67,21 67,21z"/>
   <path class="fil79" d="M11897 15290l-79 14c-84,-5 -46,14 -70,-69 66,12 89,7 149,55z"/>
   <path class="fil68" d="M9532 16339l-30 22c-93,41 -76,-22 -88,-62 22,1 48,-3 69,5 39,15 31,19 49,35z"/>
   <path class="fil80" d="M15987 11825l-184 28c-102,-21 -45,0 -77,-45l261 17z"/>
   <path class="fil45" d="M6749 11946c-52,52 35,3 -72,48 0,-8 -3,-16 -3,-24l-5 -63c4,-66 -2,-10 20,-44 17,20 48,-68 22,83l38 0z"/>
   <path class="fil1" d="M19298 13623c-12,-90 20,-59 80,-41l34 65 -114 -24z"/>
   <path class="fil39" d="M12649 14756c-26,72 -2,20 -38,79 -31,-40 -17,-2 -31,-75 -62,5 -46,8 -90,-24 5,-3 11,-13 14,-8l145 28z"/>
   <path class="fil7" d="M14251 12366c9,109 -9,68 -13,75 -10,-38 5,-22 -20,-40l159 -95c-25,122 1,106 -126,60z"/>
   <path class="fil48" d="M6719 16574l0 26 -55 48c-13,-22 -25,-40 -47,-61 -30,-28 3,-19 -58,-30l34 -1 126 18z"/>
   <path class="fil32" d="M1334 13786c-67,7 -99,0 -104,-87 3,1 8,-1 9,3l19 7c2,1 9,3 12,5 73,38 40,-10 64,72z"/>
   <path class="fil50" d="M1647 13166l-101 50c76,88 -1,52 -8,59 -35,-47 -66,-54 6,-63 0,-59 8,5 -30,-39l133 -7z"/>
   <path class="fil48" d="M11090 8906c-7,8 -6,12 -27,28 -18,15 -18,12 -29,19 -67,-1 -27,9 -55,-15 50,-51 33,-49 98,-78l13 46z"/>
   <path class="fil11" d="M14400 13034c22,-32 -5,-37 93,-56 -14,169 -90,58 -93,56z"/>
   <path class="fil24" d="M12541 14855l-35 9 -49 -2c20,-112 -5,-50 57,-81 61,46 18,-14 27,74z"/>
   <path class="fil73" d="M13168 8012c-39,43 48,36 -44,36 -40,40 3,21 -61,25l-4 -49 25 -35c51,0 6,-4 25,22l59 1z"/>
   <path class="fil53" d="M7839 16557l74 2c-12,38 -10,38 -15,57 -13,49 4,6 -14,42 -101,-37 -19,30 -45,-101z"/>
   <path class="fil55" d="M6820 11692l1 -44 9 11 57 11 -47 33c132,-2 53,0 86,23 -171,39 -108,-25 -106,-34z"/>
   <path class="fil40" d="M10528 15593l-8 92c-50,-17 -75,8 -57,-58 18,-69 48,-34 65,-34z"/>
   <path class="fil72" d="M11672 14779l-56 53 -25 -66c60,-26 31,1 54,-46 48,37 77,-54 27,59z"/>
   <path class="fil81" d="M15760 9051l16 54 -58 -16c-85,-15 -35,3 -68,-31l73 -8 -10 -53c31,25 10,-23 47,54z"/>
   <path class="fil82" d="M12053 14446l-14 -20c55,-31 20,20 50,-39 66,35 43,-28 34,51 -6,43 -23,37 -44,51 -23,-18 -15,-3 -26,-43z"/>
   <path class="fil72" d="M12225 13888c-7,-52 34,-64 64,-80 32,33 40,-31 25,44l-77 57 -12 -21z"/>
   <path class="fil50" d="M15051 8661l-103 -43 27 -11 9 -5 -5 -51c85,4 110,27 32,51l40 59z"/>
   <path class="fil72" d="M1694 14083l-44 3c-14,-15 -8,-29 -10,-37 9,-36 104,-5 133,14 -35,29 -13,21 -79,20z"/>
   <path class="fil53" d="M13267 8205c-57,-9 -49,-26 -47,22l-16 34 -75 -4 79 7 -42 -78c45,-65 7,-23 44,-22 91,1 -58,26 18,1 4,-2 31,-17 40,-21 -17,50 -11,4 -1,61z"/>
   <path class="fil33" d="M9021 10157c41,-26 55,-33 84,-45 50,5 13,-15 39,14 -20,24 -10,28 -58,44 -52,17 -72,44 -65,-13z"/>
   <path class="fil29" d="M15883 12117l-60 -1 43 -53c34,7 32,-3 57,-3 116,-1 37,-19 64,25 -6,0 -25,-3 -30,-2 -94,24 -40,11 -74,34z"/>
   <path class="fil65" d="M11205 14818c19,-28 -10,-30 69,-27 44,53 32,27 16,89l-85 -62z"/>
   <path class="fil73" d="M3504 13163l66 -6c-30,53 -1,53 -127,95l61 -89z"/>
   <path class="fil27" d="M9164 10274c-8,-24 -9,-37 31,-61 41,-25 51,-21 68,-1 -28,49 -29,55 -99,62z"/>
   <path class="fil83" d="M2291 13387l-85 12 -14 -55c30,1 53,-1 69,0 89,1 44,4 30,43z"/>
   <polygon class="fil50" points="15642,11918 15586,11876 15524,11890 15519,11862 15595,11844 15644,11843 "/>
   <path class="fil50" d="M10528 9281c-1,38 27,51 -82,53 3,-31 -22,-29 15,-54 54,-37 63,0 67,1z"/>
   <path class="fil21" d="M15115 14082c-57,-40 -107,-103 17,-101l-17 101z"/>
   <path class="fil18" d="M16259 12897c-37,-19 -32,5 -48,-33 -33,-77 5,-48 9,-57 40,18 71,-39 39,90z"/>
   <path class="fil21" d="M15784 14529l-25 9 -57 0c24,-59 38,-61 84,-103l-2 94z"/>
   <path class="fil21" d="M3973 13246c-56,59 -75,60 -178,41l3 -8 103 -4 34 -61c39,25 -2,-35 38,32z"/>
   <polygon class="fil75" points="6581,12048 6515,12083 6425,12067 6577,12012 "/>
   <path class="fil81" d="M18334 12744l-48 1c-92,-27 -39,-23 -63,-43l106 -19 5 61z"/>
   <polygon class="fil43" points="17919,12731 17828,12714 17843,12668 17864,12672 17941,12679 "/>
   <path class="fil84" d="M6588 16826l41 29 -3 61 -19 -50c-51,2 -49,12 -82,-6l-51 -70 77 49 37 -13z"/>
   <path class="fil46" d="M17612 12208c26,121 3,35 -5,69 -72,-46 -17,-44 -80,-94l41 0c68,2 35,12 44,25z"/>
   <path class="fil29" d="M4530 15826c-90,-21 12,-39 -74,-41 20,-49 61,62 9,-60 2,1 65,34 67,37 28,36 66,-31 -2,64z"/>
   <path class="fil32" d="M15216 12085l-102 75c1,-116 14,-67 27,-89 61,-5 2,-13 75,14z"/>
   <path class="fil48" d="M9951 15926c12,-25 4,-49 60,-37l39 35c-52,18 -46,6 -74,51 -90,-62 -24,40 -25,-49z"/>
   <path class="fil85" d="M15385 12662c18,-49 10,-42 73,-34l18 9c-68,49 4,28 -89,72 -27,-36 -19,16 -2,-47z"/>
   <path class="fil35" d="M16245 11867l62 -3c43,140 20,35 -8,82 -72,-44 -24,38 -54,-79z"/>
   <path class="fil70" d="M18296 12413c-82,3 -39,-32 -90,38 -27,-36 -23,-7 -23,-77 -150,51 -35,11 -75,-1l53 -14c5,3 51,26 51,26 4,2 10,3 15,4l52 16c4,2 12,5 17,8z"/>
   <path class="fil61" d="M12508 8255c0,35 -31,25 -73,31l-18 -29c23,-25 35,-58 81,-30l10 28z"/>
   <path class="fil86" d="M18637 13208c-15,-31 -59,32 -17,-46 36,-67 -16,-9 68,-41 -25,143 22,52 -51,87z"/>
   <path class="fil87" d="M2986 14610c-30,-22 -49,-49 -61,-64l-60 -4 -1 -4 -7 -42c17,8 47,18 52,20 15,3 37,4 53,4 10,73 1,34 24,90z"/>
   <path class="fil65" d="M2954 13343l-69 10c2,-49 -12,-38 20,-87 59,33 25,-30 49,77z"/>
   <path class="fil38" d="M17552 13094c-25,79 51,36 -82,58 23,-79 7,-94 82,-58z"/>
   <path class="fil45" d="M12485 13560l89 -106c-20,74 3,98 3,96 1,-3 5,10 7,14l-99 -4z"/>
   <path class="fil88" d="M16587 12747c-37,-19 -51,11 -52,-49 -2,-63 -17,-10 41,-40 32,50 31,17 11,89z"/>
   <path class="fil11" d="M14525 13695c-83,-12 -60,-21 -109,-39 18,-8 27,-26 60,-53l49 92z"/>
   <path class="fil70" d="M4284 15385c-36,41 46,30 -32,30 -51,-55 -33,-42 -88,-39l0 -50c40,13 79,37 120,59z"/>
   <path class="fil10" d="M18310 13361c1,5 5,7 5,14 -1,7 1,12 0,15 -16,59 11,-13 -15,36 -50,-26 -49,-21 -70,-82l65 7c4,1 10,8 15,10z"/>
   <path class="fil89" d="M12268 14241l25 -62c116,-61 26,-21 57,3 -49,106 -6,51 -82,59z"/>
   <path class="fil90" d="M14269 8165l35 -14 65 10c-57,33 4,23 -97,70l-3 -66z"/>
   <path class="fil33" d="M6148 12092l1 -47c41,-39 20,-18 50,-29 43,37 35,-30 31,47 -45,17 -37,15 -82,29z"/>
   <path class="fil18" d="M17131 13509c-12,-6 -35,-5 -39,-26 -22,-120 -7,-23 30,-63 4,6 23,32 23,36 17,104 5,26 -14,53z"/>
   <path class="fil48" d="M11141 15282c-75,28 -8,9 -45,-12l38 -72c97,-33 7,-9 47,18 -35,35 -11,-24 -40,66z"/>
   <path class="fil91" d="M3159 13173l0 79c-94,-8 -37,1 -49,-20l3 -35 -20 -35c58,7 1,-6 66,11z"/>
   <path class="fil67" d="M11456 14610l-12 -75 143 -3c-26,48 9,21 -45,31 -9,2 -70,-15 -76,-17 7,57 23,31 -10,64z"/>
   <path class="fil11" d="M11477 8403c21,-14 3,-19 47,-23 27,-4 32,1 59,5 10,-98 -2,-25 34,-56l-11 78 -129 -4z"/>
   <path class="fil50" d="M16372 11883l71 -7 5 73c-43,6 -11,22 -40,-7 -53,-53 -8,-9 -36,-59z"/>
   <path class="fil1" d="M14422 14535l-95 -8c23,-88 -34,-41 50,-71 18,92 -4,14 45,79z"/>
   <path class="fil76" d="M15642 11918l2 -75 -49 1c5,-3 12,-13 15,-8 4,5 12,-5 17,-6 1,-1 60,-9 62,-9l-2 71 -45 26z"/>
   <path class="fil92" d="M15181 8739l-105 -44 74 7c-19,-114 -32,-43 19,-83l12 120z"/>
   <path class="fil27" d="M8679 10399c3,-13 -16,-16 24,-42 39,-27 19,-11 63,-19 -39,47 -36,72 -81,101l-6 -40z"/>
   <path class="fil75" d="M14764 12369c-42,-23 -17,15 -24,-40 148,-45 73,-11 93,20l-69 20z"/>
   <path class="fil51" d="M12574 8262l-66 -7 -10 -28c31,-18 141,-47 76,35z"/>
   <path class="fil43" d="M16896 12516l-56 -6 -8 -38 22 -16c88,-7 37,-12 57,24l-15 36z"/>
   <path class="fil50" d="M5452 12554l28 -32c38,-37 3,-7 34,-32 33,-27 14,-17 59,-30 -37,84 -44,77 -121,94z"/>
   <path class="fil53" d="M1973 13413l-60 15c-75,-7 -9,8 -28,-28l39 13 -7 -46 17 -41c3,4 8,10 9,13l30 74z"/>
   <path class="fil93" d="M11147 8879c48,-34 13,-31 53,-31 -17,-19 -17,-24 -33,-52l60 22c17,-87 -13,9 42,-38 -21,77 -56,77 -122,99z"/>
   <path class="fil45" d="M8277 10690c0,-45 37,-34 75,-38l-2 85c-77,-19 -51,42 -26,-64l-47 17z"/>
   <path class="fil94" d="M7415 11500c36,-36 -3,-6 56,-44l61 -34 -11 64 -106 14z"/>
   <path class="fil45" d="M4403 12896l49 -4c30,47 22,17 27,89 -78,-32 -34,-22 -76,-85z"/>
   <path class="fil38" d="M15738 13067c-72,-22 -45,23 -71,-73 111,13 52,-25 71,73z"/>
   <path class="fil8" d="M12705 16029c-107,-2 -78,48 -69,-66 73,25 48,20 69,66z"/>
   <path class="fil95" d="M11999 14563l-40 11 -9 -32 5 -35 25 -1c87,-32 18,-12 43,12 -19,18 -12,22 -24,45z"/>
   <path class="fil37" d="M6154 16594c-6,-5 -15,-20 -18,-16 -2,4 -12,-11 -15,-16 -3,-4 -8,-11 -11,-16l-23 -46c86,12 86,18 67,94z"/>
   <path class="fil29" d="M17683 12473l-48 -10 9 -41c59,8 18,-11 60,19 40,29 28,31 40,46l-61 -14z"/>
   <path class="fil34" d="M4538 13031l-3 42 -53 -8c23,-90 -33,-26 48,-73 20,24 42,-41 8,39z"/>
   <path class="fil26" d="M15927 13628c32,-60 -50,-27 80,-49 -13,30 1,35 -25,52 -70,48 -42,2 -55,-3z"/>
   <path class="fil96" d="M6833 11926c7,104 14,39 -28,61l-32 -31c2,-6 4,-13 6,-18l32 -42 22 30z"/>
   <path class="fil70" d="M13010 8071c-27,17 29,51 -99,13 -14,-30 -26,25 19,-76l-62 17 42 -20c56,56 19,3 38,71l62 -5z"/>
   <path class="fil45" d="M5724 12480c-18,14 31,31 -46,24 -98,-9 -15,-2 -44,-24 9,-6 8,-62 90,0z"/>
   <path class="fil50" d="M3559 15112c-11,-16 -98,39 0,-77 69,102 8,66 0,77z"/>
   <path class="fil55" d="M6924 11818l-22 -39c43,-17 0,13 65,-23l13 33 9 34 -65 -5z"/>
   <path class="fil51" d="M2089 13396l-56 13c-49,-44 61,-39 -59,-38 60,-21 58,-31 115,-3l0 28z"/>
   <path class="fil97" d="M12220 14684l62 -87c32,-28 -12,-4 54,-39 -104,133 -7,104 -116,126z"/>
   <path class="fil98" d="M17830 12268l15 68 -57 3 -4 -79c33,19 11,20 46,8z"/>
   <path class="fil3" d="M19242 13392l-70 3c-17,-78 17,43 5,-85 48,38 35,16 65,82z"/>
   <path class="fil93" d="M18108 12373l-87 6 -5 -60c53,27 85,11 92,54z"/>
   <path class="fil1" d="M14330 14998c-60,-122 -2,-58 7,-74 50,45 62,42 -7,74z"/>
   <path class="fil48" d="M12032 14106l58 -62c80,50 20,-17 7,21 -1,2 -5,7 -6,10l-36 75c-39,-28 -62,40 -23,-44z"/>
   <path class="fil37" d="M6238 12144l-9 0 -48 24c-40,-34 -24,19 -32,-60l65 8 24 28z"/>
   <path class="fil99" d="M14505 8226l-18 19 -1 32c-45,-24 -42,-28 -90,-55l38 -14 71 18z"/>
   <path class="fil98" d="M4148 15321l-74 -23c88,152 28,62 18,76l-39 -101 29 0c5,3 31,17 31,17 38,25 8,1 35,31z"/>
   <path class="fil34" d="M5187 12673l14 -25 41 -15c-14,84 9,36 -39,94 -27,-26 -13,11 -16,-54z"/>
   <path class="fil88" d="M14697 12108c0,-39 43,-34 72,-40l-6 67 -66 -27z"/>
   <path class="fil100" d="M5480 16018l4 42c-37,2 -30,12 -30,-20l-43 39 -28 -83 44 41 53 -19z"/>
   <path class="fil27" d="M10458 9136l10 -31 58 -15c-1,42 46,73 -68,46z"/>
   <path class="fil101" d="M5484 16060l-4 -42 -3 -21c42,9 79,3 79,34l-72 29z"/>
   <path class="fil102" d="M12455 13570l-5 4 74 -2c-15,15 5,10 -46,41 -33,20 -4,2 -59,21l36 -64z"/>
   <path class="fil103" d="M14969 8454l-67 -8 9 -66c55,36 33,-2 58,74z"/>
   <path class="fil38" d="M18300 13147c-41,-57 -53,80 -20,-34 20,-67 -17,0 35,-50 33,78 42,41 -15,84z"/>
   <path class="fil69" d="M15190 8510l-67 -11 -32 -4 1 -6 -18 -44c10,5 55,22 65,27 57,29 21,7 51,38z"/>
   <path class="fil55" d="M7274 11594l-107 46c-9,-68 -5,-25 32,-56l75 10z"/>
   <path class="fil18" d="M1396 13935l-72 14c17,-67 18,-6 -1,-80 49,30 12,-3 47,32 24,23 19,25 26,34z"/>
   <path class="fil34" d="M7784 11214c-78,48 -24,21 -42,0 95,-84 39,-49 71,-14 34,64 -18,23 -29,14z"/>
   <path class="fil104" d="M4319 15682c51,18 34,-33 44,41 -57,-17 -4,-6 -75,-12l-28 -45 59 16z"/>
   <path class="fil105" d="M17830 12268c-35,12 -13,11 -46,-8l2 -28c85,19 69,-10 97,42l-53 -6z"/>
   <path class="fil61" d="M11033 15099l-26 38 -29 -25 -31 3c29,-51 13,-31 54,-59l-3 40 35 3z"/>
   <path class="fil106" d="M14681 14198c-5,58 3,28 -51,50 4,-44 -30,-23 12,-53 66,-46 26,-1 39,3z"/>
   <path class="fil107" d="M16378 11863l-67 -19 -4 20 -62 3 -6 -26c63,2 47,-2 100,-16l39 38z"/>
   <path class="fil108" d="M15658 12104c-4,6 -12,4 -15,14l-55 46c19,-71 -6,-26 30,-82 95,0 12,-6 46,29l-6 -7z"/>
   <path class="fil29" d="M16222 12123l-4 -47c69,13 40,15 84,-20 -17,69 17,40 -80,67z"/>
   <path class="fil29" d="M3361 15124l-1 10 -7 -51c139,31 39,-13 85,51l-77 -10z"/>
   <path class="fil73" d="M3618 13130l59 2c-36,95 36,57 -68,52 36,-20 10,-32 9,-54z"/>
   <polygon class="fil107" points="6191,16371 6098,16357 6083,16296 "/>
   <path class="fil57" d="M5512 12643c-9,18 46,11 -38,22l-37 -10 70 -58 5 46z"/>
   <path class="fil109" d="M1348 13659c-67,10 -41,20 -63,-47 44,-38 42,7 45,18l18 29z"/>
   <path class="fil43" d="M14420 12229c55,-53 33,-25 106,-41l-5 47c-94,-25 -27,-20 -101,-6z"/>
   <path class="fil42" d="M2091 14082c-1,0 20,58 -36,18 -60,-43 -24,12 -11,-61l47 43z"/>
   <polygon class="fil39" points="12295,14392 12300,14348 12350,14357 12359,14405 "/>
   <path class="fil110" d="M10798 15626l17 -76 78 -2 0 25 -43 -11c-3,5 -8,6 -9,13l-20 26c-3,3 -9,10 -11,13 -3,2 -8,8 -12,12z"/>
   <path class="fil111" d="M3721 13116l39 9c5,-95 -5,-15 27,-53 -2,67 -18,72 -18,72 -1,-3 -8,8 -12,12 -58,-7 -18,8 -36,-40z"/>
   <polygon class="fil24" points="13814,8267 13743,8272 13715,8223 13751,8224 "/>
   <path class="fil109" d="M2808 14489c-29,20 8,14 -34,17 0,0 -41,-6 -48,-7 -6,-69 -6,-7 27,-39l55 29z"/>
   <path class="fil112" d="M11205 14818l-26 18 12 -58 76 -13 7 26c-79,-3 -50,-1 -69,27z"/>
   <path class="fil77" d="M5836 16452l-53 -20 -25 -54c53,27 32,-32 46,31 56,20 12,-3 32,43z"/>
   <path class="fil65" d="M14654 8482c40,-60 -25,-28 43,-49 89,-29 5,-7 43,11 -5,4 -10,4 -14,12l-42 19c-9,3 -20,4 -30,7z"/>
   <path class="fil75" d="M11238 15171l-8 19c-95,9 -22,8 -51,-23l71 -39 -12 43z"/>
   <path class="fil60" d="M6738 16950c-13,26 48,17 -44,25l8 -26 7 -64c15,20 5,0 22,36 2,4 5,23 7,29z"/>
   <path class="fil21" d="M11360 14702l-34 10 28 -68 53 -19c-24,30 -28,36 -47,77z"/>
   <polygon class="fil72" points="10798,8874 10836,8871 10891,8864 10802,8925 "/>
   <path class="fil49" d="M15119 12034c23,-22 36,-32 50,-50 89,67 3,44 -50,50z"/>
   <path class="fil37" d="M13706 8075c-15,34 -6,21 -42,40 -26,-21 -31,24 -27,-47l69 7z"/>
   <path class="fil45" d="M3678 13301c-30,-60 -35,-2 0,-77 60,64 19,61 0,77z"/>
   <path class="fil75" d="M12807 13215c35,-73 2,-20 40,-34l46 16c-56,35 -15,26 -86,18z"/>
   <path class="fil76" d="M4620 15568l-50 -4c-29,-20 -18,37 -33,-54 27,16 10,3 42,24 51,35 16,13 41,34z"/>
   <path class="fil39" d="M7144 16850l-80 -5c33,-41 -39,-17 44,-40l36 45z"/>
   <path class="fil65" d="M9736 16251c27,-79 -40,-44 64,-51 -28,57 1,28 -64,51z"/>
   <path class="fil96" d="M15651 12162l7 -58 6 7 81 17 -82 24c-3,2 -8,7 -12,10z"/>
   <path class="fil45" d="M9947 9461c121,0 32,-8 59,31 -68,31 -27,31 -59,-31z"/>
   <path class="fil51" d="M2951 13333c55,-77 -44,25 33,-26l55 0 26 24 -114 2z"/>
   <path class="fil43" d="M6820 11692l-59 2c25,-37 -32,-29 24,-36l36 -10 -1 44z"/>
   <path class="fil103" d="M2256 14171l-42 -4 -59 -51c-3,-3 -8,-8 -12,-12l65 23c3,3 7,7 10,10l38 34z"/>
   <path class="fil108" d="M6878 16955c-9,13 10,16 -30,19 -20,-50 22,-40 -21,-43l29 -15c34,19 41,-35 22,39z"/>
   <path class="fil72" d="M11653 8522l7 1 -59 22c21,-47 0,-19 36,-63 29,25 43,-38 16,40z"/>
   <path class="fil72" d="M12118 8347l-20 1c-6,-57 -28,-21 20,-60 22,36 63,-46 0,59z"/>
   <path class="fil56" d="M15771 11906c-49,37 -43,23 -72,0 1,0 -11,-48 72,0z"/>
   <path class="fil27" d="M9337 10164l-21 8c-41,-15 -18,1 -38,-30 43,-17 22,-9 71,-10l-12 32z"/>
   <path class="fil39" d="M11929 14691c36,-99 -17,-27 67,-64 -40,75 13,27 -67,64z"/>
   <path class="fil17" d="M6702 16949l-8 26c-41,-19 -7,7 -43,-23 -28,-22 -9,-10 -25,-36 36,12 49,18 76,33z"/>
   <path class="fil85" d="M14663 15530l-5 11 -47 -11c10,-60 -29,-14 27,-48l25 48z"/>
   <path class="fil52" d="M6393 11934l20 2c71,8 11,-16 52,19l-61 24 -11 -45z"/>
   <path class="fil105" d="M1965 13983c-4,-1 -51,-15 -52,-15 -38,-22 -11,-5 -39,-33 86,16 59,-8 91,48z"/>
   <path class="fil113" d="M13273 8248l-53 -21c-2,-48 -10,-31 47,-22l6 43z"/>
   <path class="fil65" d="M11336 8599c33,-64 -18,-14 56,-56 -22,78 37,46 -56,56z"/>
   <path class="fil39" d="M1874 13407l-85 -12c14,-12 -1,-71 85,12z"/>
   <path class="fil43" d="M1134 15799c-91,-17 -25,9 -67,-34 77,-45 33,9 67,34z"/>
   <path class="fil96" d="M7292 11594l15 -41 67 -2c-4,4 -10,5 -13,12 -3,8 -10,9 -14,11 -39,19 -4,6 -55,20z"/>
   <polygon class="fil114" points="14505,8226 14434,8208 14434,8181 14491,8193 "/>
   <path class="fil48" d="M2255 13240c-7,0 -39,1 -44,-1 -42,-15 -29,-11 -49,-27 99,0 56,-15 93,28z"/>
   <path class="fil115" d="M13079 8266l-59 -20c32,-40 -39,-31 37,-34l22 54z"/>
   <path class="fil111" d="M10458 9136c-18,56 32,40 -38,47 21,-66 -3,-35 48,-78l-10 31z"/>
   <path class="fil116" d="M18460 12481l-44 -9c-4,-46 -17,-38 23,-38 38,31 11,-3 21,47z"/>
   <polygon class="fil117" points="15582,9008 15521,8923 15574,8940 "/>
   <path class="fil37" d="M17524 12430c24,-69 -12,-21 51,-51 -21,68 30,45 -51,51z"/>
   <polygon class="fil87" points="1121,13107 1042,13096 1042,13072 1082,13071 "/>
   <path class="fil81" d="M1769 14187l0 21 -55 -1 0 -47 23 1c-2,37 -9,25 32,26z"/>
   <path class="fil39" d="M18613 12841l-51 41 -29 -82 22 12c17,43 -38,39 58,29z"/>
   <path class="fil115" d="M6387 16789l61 -17c-13,19 -64,101 -61,17z"/>
   <path class="fil107" d="M15417 11888l-30 -3c-15,-27 31,-21 -48,-20 27,-29 -41,-30 48,-21l30 44z"/>
   <path class="fil96" d="M8939 16601c24,-15 -10,0 47,-26 13,-6 32,-11 50,-18l-29 40 -68 4z"/>
   <path class="fil76" d="M14304 8151l-35 14 -82 -70c56,45 4,10 54,29l49 18c4,2 10,6 14,9z"/>
   <polygon class="fil81" points="7205,11389 7283,11315 7260,11375 "/>
   <path class="fil65" d="M8973 16438c-48,44 61,32 -27,21 -55,-7 -4,15 -34,-21 7,-4 -3,-33 61,0z"/>
   <path class="fil48" d="M2865 14542c44,70 16,16 0,40 -22,-20 -9,7 -34,-44 16,-19 -19,-13 33,0l1 4z"/>
   <path class="fil71" d="M5883 16476c-39,28 51,21 -49,24l-1 -43 50 19z"/>
   <polygon class="fil51" points="1885,13400 1875,13372 1917,13367 1924,13413 "/>
   <polygon class="fil99" points="15092,8489 15046,8480 15056,8434 15074,8445 "/>
   <polygon class="fil75" points="3113,13197 3055,13198 3065,13168 3093,13162 "/>
   <path class="fil102" d="M15447 12164l-21 9c-10,-106 -9,-28 21,-59 15,26 12,-3 0,50z"/>
   <path class="fil72" d="M13644 8246l-20 -1c-5,-44 -26,-16 20,-41 23,23 58,-35 0,42z"/>
   <path class="fil118" d="M1769 14208c-63,35 -57,11 -67,9 -3,-28 -11,-3 -1,-33l13 -24 0 47 55 1z"/>
   <path class="fil67" d="M11141 15282c29,-90 5,-31 40,-66l17 -14c-1,2 -7,23 -17,38 -28,44 -12,22 -40,42z"/>
   <polygon class="fil48" points="15046,8480 15006,8484 15031,8439 15056,8434 "/>
   <polygon class="fil45" points="3941,15213 4005,15207 3970,15254 "/>
   <path class="fil119" d="M8512 10700l-49 9c56,-77 33,-48 57,-29l-8 20z"/>
   <path class="fil48" d="M8294 16515l20 2c1,43 20,18 -20,40 -22,-20 -58,42 0,-42z"/>
   <path class="fil120" d="M18543 12523c-28,-6 -28,0 -54,-14 -47,-26 -14,-8 -29,-28 23,6 15,-3 43,12 25,13 27,19 40,30z"/>
   <path class="fil72" d="M13367 13112l-15 -5c-28,-35 -60,18 14,-50 8,17 10,8 1,55z"/>
   <path class="fil67" d="M11300 8619l-48 12c6,-18 -36,-88 48,-12z"/>
   <path class="fil117" d="M15273 8805l-64 0 -30 -45c34,21 13,7 49,24 11,5 27,19 31,14 2,-4 9,5 14,7z"/>
   <path class="fil24" d="M11843 8450l18 -49c77,5 21,-6 42,28 -64,3 -18,-17 -60,21z"/>
   <path class="fil32" d="M11819 14370c29,-72 -1,-24 48,-52 -22,61 25,29 -48,52z"/>
   <path class="fil94" d="M11696 14405c17,-61 -19,-21 47,-63 -23,65 -9,39 -47,63z"/>
   <path class="fil102" d="M11633 14490c86,-33 11,-9 40,9 -9,68 9,-4 -30,27l-10 -36z"/>
   <path class="fil57" d="M10938 15130l9 -15 31 -3c-25,51 35,51 -28,42l-12 -24z"/>
   <polygon class="fil34" points="8948,10423 8951,10416 8907,10399 8984,10373 "/>
   <path class="fil61" d="M12628 13506c-76,12 -39,24 -45,-30 45,1 26,11 45,30z"/>
   <path class="fil117" d="M14258 8361c-71,-7 -59,3 -95,-47l95 47z"/>
   <path class="fil67" d="M8701 10521l-32 19c-62,-16 -3,14 -49,-31l81 12z"/>
   <path class="fil101" d="M10437 15600c10,-43 -3,-72 48,-73l-48 73z"/>
   <path class="fil114" d="M6363 16456l-46 -16c-35,0 -23,7 -23,-33 20,12 24,15 43,27 3,3 11,15 13,11 2,-4 9,7 13,11z"/>
   <path class="fil121" d="M7230 16806l31 23c2,33 12,56 -21,17 -31,-37 -14,43 -10,-40z"/>
   <path class="fil99" d="M2570 14350l-38 30 16 -59c34,10 15,-3 22,29z"/>
   <path class="fil32" d="M6927 16809c-4,-6 -13,-20 -12,-17l12 -52c1,3 33,35 0,69z"/>
   <path class="fil34" d="M6261 12173c-91,17 -20,14 -32,-29l9 0c34,15 25,-36 23,29z"/>
   <path class="fil71" d="M12007 8168l26 -66c105,-6 18,-1 55,18l-66 -13c26,132 7,20 -15,61z"/>
   <path class="fil51" d="M3795 13287c-34,-5 -42,-14 -45,-15 88,-56 22,-15 48,7l-3 8z"/>
   <path class="fil39" d="M16431 12163c-39,-13 -27,-12 -70,-11l34 -30 36 41z"/>
   <path class="fil52" d="M2709 13175l-14 -25c3,-28 -44,-17 31,-27l-17 52z"/>
   <path class="fil110" d="M13059 8024l-35 8c23,-33 -6,-21 60,-43l-25 35z"/>
   <path class="fil93" d="M11105 8740c-26,24 -19,28 -52,22 24,-35 -19,-34 52,-22z"/>
   <polygon class="fil115" points="6148,12092 6149,12108 6117,12112 6149,12045 "/>
   <path class="fil48" d="M1221 13472c-30,-34 -33,-23 -20,-60 27,26 22,30 20,60z"/>
   <path class="fil16" d="M18498 13380c-24,-39 -15,-29 0,-62 43,55 45,-69 19,31 -27,105 53,-25 -19,31z"/>
   <path class="fil45" d="M5016 12777c-52,24 -2,27 -57,0 33,-22 23,-16 57,0z"/>
   <path class="fil48" d="M4854 15716l17 26c-72,-15 -16,11 -60,-34l43 8z"/>
   <polygon class="fil48" points="15506,11864 15519,11862 15524,11890 15474,11898 "/>
   <path class="fil34" d="M7892 10930c16,-51 -1,-19 30,-21l23 6c-38,29 -1,12 -53,15z"/>
   <polygon class="fil110" points="9337,10164 9349,10132 9406,10123 "/>
   <path class="fil56" d="M18102 12536c-35,-47 -10,-20 0,-44 15,26 53,-53 0,44z"/>
   <path class="fil48" d="M15455 8684c-37,-15 -55,8 -24,-23l42 -1 -18 24z"/>
   <path class="fil122" d="M2581 14637c-52,-18 -39,9 -70,-47l70 47z"/>
   <path class="fil108" d="M14371 8392c13,-28 -3,-23 17,-23 31,-1 12,2 32,15l-49 8z"/>
   <path class="fil32" d="M11354 15399l35 10 -17 25c-61,-40 -15,20 -18,-35z"/>
   <path class="fil38" d="M11277 14756l50 -46 0 33c-33,5 -14,-9 -50,13z"/>
   <path class="fil87" d="M3826 15115c-46,-26 -16,37 -46,-54l46 54z"/>
   <path class="fil108" d="M14975 8607l-27 11 3 3c-17,-62 -21,-18 -1,-42l25 28z"/>
   <path class="fil34" d="M7709 11055l7 -11c36,13 35,-6 29,30l-36 -19z"/>
   <path class="fil72" d="M11436 14629l32 8c-19,17 -9,64 -32,-8z"/>
   <path class="fil123" d="M4107 13026c35,20 28,2 6,38 -11,-19 -13,19 -6,-38z"/>
   <path class="fil87" d="M5443 15973l-69 -52c59,23 28,-2 69,52z"/>
   <polygon class="fil69" points="1391,13665 1348,13659 1330,13630 "/>
   <path class="fil29" d="M1775 14160c-1,-3 -5,-12 -5,-9l5 -24c43,42 31,18 0,33z"/>
   <path class="fil124" d="M1502 14028c-35,-22 -21,4 -44,-57l44 57z"/>
   <polygon class="fil109" points="5826,16202 5777,16188 5816,16180 "/>
   <path class="fil69" d="M17783 12237c-6,-2 -16,-10 -19,-4 -4,4 -15,-4 -19,-6 -54,-27 -19,-8 -43,-28l81 38z"/>
   <path class="fil114" d="M4082 15273l-29 0c-5,-59 23,-12 -27,-65l56 65z"/>
   <path class="fil83" d="M7354 16863l-37 -5c64,-26 24,-25 37,5z"/>
   <path class="fil96" d="M11401 8705l45 -58c-20,41 -18,36 -45,58z"/>
   <path class="fil42" d="M4417 15481l-43 30c2,-5 4,-13 5,-16l38 -14z"/>
   <path class="fil72" d="M2900 14822l-2 -30c24,31 27,13 2,30z"/>
   <path class="fil114" d="M3941 15198c-25,-21 -29,-23 -46,-53l46 53z"/>
   <path class="fil110" d="M13797 12560l68 -43c-17,11 -40,26 -68,43z"/>
   <polygon class="fil72" points="15071,12260 15068,12253 "/>
   <polygon class="fil114" points="2508,14313 2427,14273 "/>
  </g>
 </g>
</svg>
