<?xml version="1.0" encoding="UTF-8"?>
<!DOCTYPE svg PUBLIC "-//W3C//DTD SVG 1.1//EN" "http://www.w3.org/Graphics/SVG/1.1/DTD/svg11.dtd">
<!-- Creator: CorelDRAW X8 -->
<svg xmlns="http://www.w3.org/2000/svg" xml:space="preserve" width="210mm" height="297mm" version="1.1" style="shape-rendering:geometricPrecision; text-rendering:geometricPrecision; image-rendering:optimizeQuality; fill-rule:evenodd; clip-rule:evenodd"
viewBox="0 0 21000 29700"
 xmlns:xlink="http://www.w3.org/1999/xlink">
 <defs>
  <style type="text/css">
   <![CDATA[
    .fil121 {fill:#150911}
    .fil107 {fill:#15132E}
    .fil78 {fill:#27151A}
    .fil69 {fill:#281A26}
    .fil57 {fill:#2B242A}
    .fil71 {fill:#2D1934}
    .fil36 {fill:#2F0F10}
    .fil43 {fill:#351B28}
    .fil22 {fill:#352735}
    .fil101 {fill:#374761}
    .fil128 {fill:#392B44}
    .fil37 {fill:#3B2B34}
    .fil4 {fill:#3C2C3B}
    .fil6 {fill:#43333D}
    .fil3 {fill:#443443}
    .fil99 {fill:#452829}
    .fil112 {fill:#452C44}
    .fil115 {fill:#463849}
    .fil67 {fill:#472A37}
    .fil123 {fill:#48363A}
    .fil15 {fill:#4B3444}
    .fil5 {fill:#4B3A45}
    .fil109 {fill:#4B545E}
    .fil58 {fill:#4C3B4B}
    .fil122 {fill:#4E2322}
    .fil12 {fill:#533C4C}
    .fil26 {fill:#544353}
    .fil62 {fill:#545069}
    .fil87 {fill:#56444B}
    .fil72 {fill:#594857}
    .fil13 {fill:#5B525A}
    .fil102 {fill:#634A59}
    .fil42 {fill:#66555B}
    .fil33 {fill:#675965}
    .fil32 {fill:#6B6269}
    .fil127 {fill:#6D4F4D}
    .fil81 {fill:#6D5669}
    .fil76 {fill:#6D6874}
    .fil96 {fill:#72738C}
    .fil124 {fill:#7489A5}
    .fil64 {fill:#76666B}
    .fil25 {fill:#776975}
    .fil50 {fill:#7C737A}
    .fil27 {fill:#85777B}
    .fil18 {fill:#887B84}
    .fil100 {fill:#896F70}
    .fil14 {fill:#8C8389}
    .fil133 {fill:#8E675D}
    .fil30 {fill:#8F7B8A}
    .fil68 {fill:#91A2BD}
    .fil126 {fill:#9296AA}
    .fil40 {fill:#93858B}
    .fil59 {fill:#96898B}
    .fil85 {fill:#968A95}
    .fil10 {fill:#9B8D93}
    .fil65 {fill:#9B939A}
    .fil74 {fill:#9D9294}
    .fil88 {fill:#A29495}
    .fil21 {fill:#A3959A}
    .fil55 {fill:#A59A9C}
    .fil44 {fill:#A59BA4}
    .fil77 {fill:#A79897}
    .fil20 {fill:#AA9C9D}
    .fil119 {fill:#AB9290}
    .fil63 {fill:#AB9DA2}
    .fil94 {fill:#ABA4AA}
    .fil130 {fill:#ABA9B4}
    .fil2 {fill:#ADA2A4}
    .fil131 {fill:#AFA39C}
    .fil11 {fill:#B2A4A5}
    .fil54 {fill:#B3A6AA}
    .fil24 {fill:#B5A9AA}
    .fil98 {fill:#B5ABAC}
    .fil97 {fill:#B5ABB3}
    .fil103 {fill:#B6A8A6}
    .fil120 {fill:#B6C6D5}
    .fil39 {fill:#B9ADAE}
    .fil89 {fill:#BAAEB1}
    .fil75 {fill:#BAB5B9}
    .fil110 {fill:#BBB1AE}
    .fil35 {fill:#BDB3B3}
    .fil53 {fill:#C1B6B6}
    .fil48 {fill:#C2B4B4}
    .fil95 {fill:#C2B6B9}
    .fil105 {fill:#C2B9B9}
    .fil111 {fill:#C3B9B6}
    .fil0 {fill:#C5BABA}
    .fil47 {fill:#C5BCC3}
    .fil45 {fill:#C6BDBD}
    .fil61 {fill:#C9B2AD}
    .fil106 {fill:#C9BDC1}
    .fil114 {fill:#C9BEBE}
    .fil117 {fill:#C9D7EC}
    .fil83 {fill:#CABCBB}
    .fil52 {fill:#CAC1C1}
    .fil113 {fill:#CACBD5}
    .fil129 {fill:#CBC6C8}
    .fil80 {fill:#CCC3C4}
    .fil118 {fill:#CEC4C4}
    .fil132 {fill:#D2C4C3}
    .fil56 {fill:#D2C8C6}
    .fil46 {fill:#D2C9C9}
    .fil79 {fill:#D5CDCA}
    .fil34 {fill:#D6CECD}
    .fil92 {fill:#D6D1CE}
    .fil108 {fill:#D6D1D2}
    .fil90 {fill:#D9CECC}
    .fil28 {fill:#D9D2D1}
    .fil60 {fill:#D9D5DA}
    .fil1 {fill:#DAD1CE}
    .fil116 {fill:#DBDAE4}
    .fil93 {fill:#DCD4D3}
    .fil29 {fill:#DDD6D5}
    .fil49 {fill:#DDD9D6}
    .fil125 {fill:#DED9D9}
    .fil82 {fill:#E1D9D6}
    .fil51 {fill:#E3DCDB}
    .fil91 {fill:#E4DDE3}
    .fil104 {fill:#E5E1DE}
    .fil41 {fill:#E5E3E4}
    .fil7 {fill:#E6E1E2}
    .fil73 {fill:#E6E6EA}
    .fil23 {fill:#E9E5E6}
    .fil8 {fill:#EAE4E3}
    .fil70 {fill:#EBF4EB}
    .fil38 {fill:#ECE9E6}
    .fil31 {fill:#EEEAED}
    .fil66 {fill:#F1ECEC}
    .fil86 {fill:#F3F1EE}
    .fil84 {fill:#F4F2F5}
    .fil19 {fill:#F5F5F8}
    .fil17 {fill:#F8F8FA}
    .fil9 {fill:#F9F9FB}
    .fil16 {fill:#FAFAF9}
   ]]>
  </style>
 </defs>
 <g id="Ebene_x0020_1">
  <metadata id="CorelCorpID_0Corel-Layer"/>
  <g id="_1565597124752">
   <path class="fil0" d="M7754 12346c0,1 -42,0 -43,41 -3,69 -14,16 58,43l-6 -68c68,15 39,17 105,14 52,-2 53,-2 97,9 -22,-66 -23,-46 -47,-120l69 29c91,17 46,25 88,74 38,46 32,7 83,68 30,-23 -44,-16 57,-25 74,-7 40,10 48,13 60,36 32,0 46,62l25 -30c1,-7 8,-7 11,-12l288 58c19,49 -26,29 50,53 3,1 81,-12 136,99 35,-48 28,-45 26,-116 12,8 31,12 44,22l-5 -29c36,14 76,17 107,27 28,9 4,-3 31,17l29 30c81,-17 99,-7 150,22l42 -23 79 0 18 91c-1,36 -15,48 20,68 80,47 31,0 49,-22 3,3 35,32 44,42l42 -8c11,46 -10,32 15,57 73,-5 24,6 40,-32 91,16 179,17 276,11 3,6 6,13 7,19 1,5 3,13 5,18 11,52 8,-36 -1,32l-18 44c37,36 -60,24 51,30 9,-15 7,-6 19,-40 12,-35 2,-18 10,-49 16,48 -17,-3 -17,-4 -1,-2 -2,-9 -2,-11l20 -45 -46 3c18,-22 242,-18 300,-18l24 -46 45 16 36 20 -68 72c-39,33 -8,24 -46,16l97 42c35,-47 29,-24 24,-89 6,3 28,16 33,19 4,2 9,5 14,7l114 13c95,107 86,33 105,20 -77,-59 -35,3 -78,-63l63 18 19 -7c21,41 31,24 92,89 -45,67 -40,19 -74,114 73,-19 44,-7 86,-69 38,-57 40,-39 43,-105l67 18 13 8c55,36 57,25 100,13 -7,50 -15,68 -30,101 79,-24 40,-37 103,-18 -8,-59 6,-24 -15,-63l104 -9 -39 32 57 22c16,27 29,43 63,58 31,13 35,8 44,12 49,19 6,-7 33,23 71,33 127,22 224,15l0 9c-55,14 -88,3 -106,23l-79 1 -6 93c5,3 11,7 15,10 3,2 10,7 14,9l23 17c3,2 7,6 10,9 41,34 -14,0 42,35 91,-54 233,-91 264,-98 13,-3 17,16 26,-7 2,-6 9,-4 14,-6 18,45 8,37 49,61 6,-9 84,-29 -15,-129l50 12 21 64c13,-10 25,-5 41,-18l-12 57c70,3 34,-12 62,21l-38 166c44,-25 37,-30 106,-32 -31,16 -31,4 -47,45 78,8 70,12 152,0l34 39c18,-8 31,-18 32,-19 14,-6 7,-7 42,-12l37 48c49,-43 -2,-9 57,-39l69 43c24,-21 -41,-22 56,-13 37,42 1,7 50,27 30,12 3,2 47,18 37,45 43,39 85,68l64 4c6,70 20,63 24,87 6,33 -14,30 -1,100l-57 -36c25,-59 29,-48 -3,-105l-32 45c-31,30 0,10 -43,21l-37 -62c-132,1 -143,58 -242,-19 -50,45 -49,21 -61,15 47,-82 -11,-3 72,-55l-17 -62c-52,22 -63,72 -105,76 -7,-1 -16,-9 -19,-4l-33 -13c-5,-2 -19,-14 -23,-17l-18 -15c-15,-7 -100,-16 -140,-27 -13,28 -1,2 -14,41 -11,31 -4,15 -13,38 -101,-97 -80,-78 -74,-243l-168 21 -35 -75c-85,-19 -47,-3 -62,17l-13 81c-41,14 -24,-7 -42,41l44 7 -19 75c-51,-10 -44,-15 -101,-12l-9 -106 -65 23c11,-60 43,-34 4,-93 -74,21 -30,-14 -74,62l-74 -56c21,-102 -20,-23 50,-75l-15 -115c-63,23 -62,24 -110,77 -3,-3 -6,-14 -7,-11 -12,27 11,-21 -51,-42 32,81 29,34 -2,111l85 -27c-27,99 -10,29 -1,143 -54,-22 -29,-15 -69,-56l-28 -26c-106,47 -79,57 -208,51 -30,68 -43,108 -120,126 -111,25 -61,-31 -173,-47l36 -104 -107 -21c-63,-41 -5,-51 -66,-47 4,35 22,6 31,104l-95 -6c-21,-130 -1,34 17,-109l-73 18c-32,-64 -20,-53 -80,-56 -60,80 -19,54 0,157l63 -8c-42,70 6,5 -51,45 -73,50 2,16 -77,50 -6,-57 -18,-32 -59,-58l-12 -70c-2,-4 -3,-12 -5,-13 -2,-2 -8,-9 -9,-11l-36 -13c-39,65 -30,77 -49,162l-15 -67c-86,30 -79,-18 -126,44 -46,-65 -10,-17 -52,-43 -49,23 -38,10 -62,19 -84,30 -29,1 -58,47 26,13 14,19 65,23 21,2 15,2 36,0 58,-7 31,-11 44,-17 9,53 6,26 44,58l112 23c-18,60 26,44 -162,72l-2 -82 -102 -29c-20,89 -55,-2 -19,119 31,24 -49,25 61,17l-63 14c-11,1 -27,-3 -61,1l-39 -94c-45,23 -15,-14 -43,38l-11 -88c-104,61 -110,-34 -134,-72l-56 46c-2,1 -6,6 -9,9l34 60c-9,3 -18,1 -22,14 -3,9 -27,25 -30,30 -37,50 -14,73 -23,163 60,22 112,20 120,110 -11,1 -60,-5 -63,-5l-59 33c-39,-41 57,43 -20,-16 -63,-48 -22,-25 -73,-87l-114 -6c23,-10 35,2 81,-42 -12,-5 -27,-9 -38,-16 -77,-49 6,-28 -120,-110 -20,66 2,1 -28,59 -19,37 -21,45 -40,90l111 93c-107,104 9,-26 -111,36 10,-100 -4,-58 -20,-81 -59,-2 -8,-20 -70,9l-47 40c-4,2 -9,8 -13,11 -5,-5 -53,-17 -57,-111 -42,27 -52,25 -95,40 20,32 45,95 60,131l-51 24c-13,5 -53,25 -63,31 29,-57 6,-12 28,-47 4,-5 16,-17 19,-23 31,-57 14,8 11,-66 -77,19 -156,43 -155,133 -48,10 -25,-3 -69,15 -17,-33 0,-39 -3,-68 -4,-33 -8,-30 -15,-45 -90,26 -20,35 -93,71l-46 -59c-3,-4 -7,-10 -10,-15l-29 45c-2,4 -5,10 -6,13 -7,12 -3,10 -21,30l-37 -53c-62,16 -50,12 -108,46 37,-64 49,-71 101,-93 -44,-8 -213,80 -268,107l2 50 -75 5c-4,-59 25,-30 -80,10 24,-84 -15,-39 85,-123l95 -107c2,-3 5,-8 8,-11l-38 -38c108,-15 -12,-28 95,-19 26,-23 21,-16 35,-92 10,-50 12,-13 -1,-55 -55,19 -10,-6 -56,53 -11,-2 -112,-5 -120,-31 -3,-7 -10,-6 -15,-8 -12,44 -17,47 -36,78 42,28 45,-3 80,78l-38 0c42,83 -16,106 -112,71l-37 42c-41,31 4,9 -51,20 -64,13 -63,-3 -98,43l-19 -50 -102 27 -1 46 -33 -3c-22,-57 10,-32 -73,-39l-4 105 2 18 -49 -55c-108,23 -72,24 -97,50l68 44c32,26 -18,22 120,44 -20,-39 -20,-45 -39,-71 72,-6 48,-7 104,-36l-9 40c89,1 35,-39 74,53 -18,32 -17,25 -32,42l-20 22c-17,20 -8,93 -8,121 85,42 69,51 136,42 30,49 15,38 65,79l21 15c49,37 38,14 54,68 -146,-63 -185,-36 -344,-37l-64 -4 -48 -16 -30 39 -40 50 -36 2c-12,-41 -20,-47 -42,-71 16,-55 9,-31 35,-76 -58,-1 -93,4 -129,22 -42,-30 -11,14 -18,-57l8 9 36 -73 27 54c113,-6 102,-11 180,38 11,-47 14,-82 14,-151 -76,-35 -34,2 -51,-55l-31 22c-26,16 -1,4 -34,20 -30,-65 1,-5 -38,-37 -32,9 -59,18 -105,17 9,-35 0,-17 17,-57l13 -23c4,-3 10,-13 12,-9l33 -29c3,-3 8,-9 11,-11 2,-3 6,-8 10,-12 -4,-53 9,-113 -64,-117 -95,-6 -62,69 -62,75l-36 -13c-6,-45 -5,4 13,-29l-58 -50c-6,-2 -14,-5 -21,-7l13 120c-140,-30 -56,-3 -86,17 -11,55 2,3 -24,27l-45 -8c-52,-34 -13,-15 -86,3 -85,2 -83,23 -117,-32 -38,62 -8,30 -68,70 -43,-20 -55,-15 -69,-66 40,5 29,14 60,1 77,-32 32,-21 52,-56 -35,-17 -2,-14 -70,-18 -44,-3 -20,6 -85,2 -71,-14 -4,-41 -160,-21l-116 -54 -208 116c-44,6 -50,14 -79,16 -97,9 -43,4 -57,-18l-92 -18c-2,0 -8,0 -10,0 -2,0 -6,1 -9,1 -34,64 -32,41 22,73 -49,0 1,-7 -22,28l-69 1c-1,-60 -12,-77 -13,-101 -1,-33 8,-34 10,-90l-99 -93 1 -48c-109,-2 -49,19 -60,-32l-40 24c-25,13 -13,7 -40,17 -25,-16 -25,-11 -63,-22l-46 -8c-6,-76 -8,-73 -39,-116 -69,4 -32,6 -98,17 -28,-8 -44,-4 -88,-15 -87,-23 -24,-20 -94,-40l-37 74c-94,-62 19,-13 -156,-139 50,-6 98,0 87,-61 -8,-48 -30,-27 -82,-59 18,-44 -5,-35 89,-93l-46 -43c-1,-7 -5,-8 -8,-12 27,-67 23,-27 47,-101 -58,6 -58,40 -150,-40l35 -7 2 -117 -65 7c4,-39 11,-79 14,-92l25 -2 152 -43c4,4 7,9 11,14 30,36 -17,3 27,35 50,37 63,9 89,0 28,-117 -29,-106 85,-173 -19,-39 -17,-30 -11,-90 -53,49 -47,-53 -40,83 -65,-6 -122,-12 -150,47l-6 17c-22,21 2,8 -53,2 28,-78 21,-27 18,-92 15,-19 24,-6 30,-71 4,5 8,11 11,15l19 24c42,49 -33,-7 26,20 14,-25 26,-72 -38,-86l24 -82 14 -74 70 9 -56 111c24,40 32,46 53,87 16,-26 46,40 15,-120l47 28c-20,37 -13,-18 1,25 40,-47 9,-34 65,-77 -4,42 2,17 -10,51l-28 60 75 27c-42,58 -23,39 -9,86l55 -79c46,63 7,48 83,75 -44,76 -70,25 -33,59 39,35 -15,-2 61,0 84,3 121,43 121,43l131 -20c58,-7 49,-23 72,-29 -136,55 -75,16 -100,-49 87,-1 65,38 99,-13 44,-68 -50,-9 49,-70l-2 -93c69,-27 67,16 89,-58 -3,87 -2,46 -25,91 -20,40 -24,31 -24,83 60,13 26,10 69,4l56 26 -25 -116 123 12c1,3 2,8 2,10 1,2 2,8 2,11l21 76c-47,50 -37,33 -40,109l66 -43c65,108 74,-26 43,115l63 -16c1,-2 4,1 6,2 -38,42 -53,39 -32,93 88,-65 30,-107 83,-135 88,-45 -8,36 116,8 5,-1 15,0 19,-8 5,-9 14,-8 21,-11l-33 122c-12,62 -14,59 -60,82l69 37 9 -75c38,38 17,32 82,13 -8,79 -28,18 22,78 -4,2 -10,5 -13,6 -1,1 -8,4 -11,5 -1,1 -6,4 -8,5 -1,1 -5,4 -6,5 -81,71 -62,46 -66,102l92 -30c5,3 12,7 16,9l57 32c-26,-85 -27,22 -92,-114 92,7 108,-6 187,35l35 -53c-4,-3 -10,-6 -15,-8l-32 -13c-3,-27 -1,-68 -1,-68l-97 -48 29 -16c53,-32 3,29 43,-30 33,-49 -2,6 -5,-46 0,-7 -1,-10 -1,-14 39,-21 5,8 25,-29l58 1 32 5c-20,34 -31,49 -44,97 33,34 -52,39 39,27 -84,36 -30,4 -52,47 88,36 32,15 97,-9 91,88 44,-6 149,19 -47,56 -52,24 -79,83 3,0 7,0 8,0 0,0 6,0 7,0l34 7c1,0 5,4 6,5l22 94c56,4 22,-9 76,43 5,-10 22,-25 1,-77l70 20c-44,-63 -40,-18 -20,-79l51 31c3,-5 11,0 17,1 -24,172 21,107 67,121 33,-89 25,-94 -2,-124 -37,-39 0,65 -21,-20 -2,-7 -8,-8 -11,-12 49,-33 77,-63 164,-58l33 -53c1,-7 6,-7 9,-11 -46,-85 3,-70 -95,-91 15,-41 19,-42 3,-94 96,86 5,58 55,38 6,-40 -27,-43 12,-94 3,4 8,9 9,12l22 70c31,-54 16,-7 15,-58 -1,-116 -11,61 -3,-38 1,-4 10,-18 13,-23 -39,-25 -17,-6 -41,-37 5,-4 13,-12 16,-15l17 -16c96,-85 -72,37 28,-20l37 70 144 -75 -57 -74c67,-6 69,26 119,31 103,10 96,-64 98,-68 -38,-39 -12,-24 -70,-43 -23,-7 -6,-1 -55,-12 4,-2 16,-1 19,-2 53,-10 48,-20 100,-53l12 39c1,2 3,12 3,10 0,-3 2,6 3,9 56,-37 8,-3 47,-49l47 -44 -102 -9 -13 -68c105,17 69,-7 111,-37 -24,129 14,53 -47,87 68,-32 58,-49 131,-7 13,-49 -3,-23 12,-58 67,4 52,0 98,18l18 75z"/>
   <path class="fil1" d="M11454 13432l-2 -48 13 -81c15,-20 -23,-36 62,-17l35 75 168 -21c-6,165 -27,146 74,243 9,-23 2,-7 13,-38 13,-39 1,-13 14,-41 40,11 125,20 140,27l18 15c4,3 18,15 23,17l33 13c3,-5 12,3 19,4 42,-4 53,-54 105,-76l17 62c-83,52 -25,-27 -72,55 12,6 11,30 61,-15 99,77 110,20 242,19l37 62c43,-11 12,9 43,-21l32 -45c32,57 28,46 3,105l57 36c66,26 39,-14 77,41l30 36c60,-1 69,3 90,-51 29,18 27,20 71,25 -5,35 -80,82 -4,113 4,1 10,5 14,7l66 22c-3,2 -8,6 -10,7 -2,1 -8,5 -10,7 -3,1 -10,6 -12,7l-28 16c7,33 12,47 12,55 -1,18 7,-3 -15,23 -8,-35 30,-27 -143,-30 38,37 14,36 94,32 -10,122 9,107 84,111l-25 79c3,-1 34,-44 -48,-11 -5,2 -143,84 -164,158l-37 -6c24,-56 28,-10 57,-80l-115 -10c-12,29 -14,43 -26,75l-128 -4c-10,19 -5,21 -19,36 -28,29 -3,12 -39,23 -32,-52 2,-18 -51,-61 75,-42 24,21 63,-56 -45,-95 -59,-6 -58,-101 79,66 79,-9 80,-10 -26,-56 -41,-45 -57,-70 -18,-27 -2,-30 -31,-79l81 -30c-21,-63 42,-31 -157,-129 -4,5 -10,6 -12,15 -9,37 -36,52 -82,13l-28 -25c-47,93 -87,68 -147,49 -42,-14 11,3 -62,-19l19 103 -126 -26c-3,41 -22,61 -40,86 18,114 52,-29 28,125 -130,-14 -68,37 -85,-92l-90 -41 -18 -98c-100,25 36,-22 -121,83l58 118c-96,1 -30,-22 -68,43l12 -2c-16,-66 -35,-56 -40,-82 -1,-9 8,-41 0,-90l-183 -39c-45,-22 -3,-7 -56,-38 -37,23 -40,42 -59,43 -76,3 -15,-198 -163,-133 2,-87 -6,-89 -154,-115 36,60 46,21 77,111 -29,16 -43,21 -92,27 18,59 10,35 39,70 -220,-18 -26,-4 -168,18 22,-49 36,-25 59,-74 -249,8 -128,72 -221,136l28 65 -117 29c12,-40 4,0 36,-64l-33 -31c-23,-32 -12,-2 -21,-52 -87,21 -71,42 -122,-23l-4 106c-19,44 3,28 -45,56l29 47c-17,6 -22,-10 -32,46 -57,-1 -23,-25 -86,15 -46,29 -29,33 -39,62 -237,57 -33,107 -158,161 -2,-4 -4,-13 -4,-11 -9,34 -7,-21 -9,-25l-11 -28c-17,-43 -86,-35 -131,-38l33 -37c-1,-2 -8,-16 -10,-12 -2,4 -10,-11 -12,-14 -42,-81 -9,39 -12,-20 -2,-48 -47,54 29,-38 -70,-13 -27,-17 -90,3l-16 -93c-96,-9 -50,-9 -118,17l-8 -68c-23,-28 -8,-17 -50,-24 -122,134 98,156 -323,87 -25,35 32,6 -50,32l-10 92c-67,10 -9,-28 -119,44 -56,-13 -29,-14 -100,-13 2,-66 -6,-54 -38,-139 -19,-49 -109,-23 -137,-20 -10,-22 -50,-41 -80,26 -38,-40 -46,-37 -114,-54 -4,117 -10,69 10,176l-201 3c-71,70 -51,82 -39,175 -47,35 -35,33 -58,76l-42 -17c-20,22 -52,57 -95,64 -73,13 -67,-16 -110,-50l-234 50c-38,2 -9,3 -40,-2 -71,-12 -13,-21 -117,-8l-18 -40c-158,50 -82,-6 -179,-16 -87,-9 -123,48 -150,-34 79,25 37,5 56,-4l-44 -17c-65,-31 -19,34 -55,-39 159,1 198,-26 344,37 -16,-54 -5,-31 -54,-68l-21 -15c-50,-41 -35,-30 -65,-79 -67,9 -51,0 -136,-42 0,-28 -9,-101 8,-121l20 -22c15,-17 14,-10 32,-42 -39,-92 15,-52 -74,-53l9 -40c11,-7 47,-1 1,-57l1 -46 102 -27 19 50c35,-46 34,-30 98,-43 55,-11 10,11 51,-20l37 -42c96,35 154,12 112,-71l38 0 18 -4 38 38c-3,3 -6,8 -8,11l-95 107c-100,84 -61,39 -85,123 105,-40 76,-69 80,-10l75 -5c94,-14 59,-44 165,-64 58,-34 46,-30 108,-46l37 53c18,-20 14,-18 21,-30 1,-3 4,-9 6,-13l29 -45c3,5 7,11 10,15l46 59c73,-36 3,-45 93,-71 7,15 11,12 15,45 3,29 -14,35 3,68 44,-18 21,-5 69,-15l97 3c10,-6 50,-26 63,-31l51 -24c-15,-36 -40,-99 -60,-131 43,-15 53,-13 95,-40 4,94 52,106 57,111 4,-3 9,-9 13,-11l47 -40c62,-29 11,-11 70,-9 16,23 30,-19 20,81 120,-62 4,68 111,-36l-111 -93c19,-45 21,-53 40,-90 30,-58 8,7 28,-59 126,82 43,61 120,110 11,7 26,11 38,16 -46,44 -58,32 -81,42l114 6c51,62 10,39 73,87 77,59 -19,-25 20,16l59 -33c3,0 52,6 63,5 -8,-90 -60,-88 -120,-110 9,-90 -14,-113 23,-163 3,-5 27,-21 30,-30 4,-13 13,-11 22,-14l-34 -60c3,-3 7,-8 9,-9l56 -46c24,38 30,133 134,72l11 88c28,-52 -2,-15 43,-38l39 94c34,-4 50,0 61,-1l63 -14 11 -30 51 5c188,-28 144,-12 162,-72l-112 -23c-38,-32 -35,-5 -44,-58 -13,6 14,10 -44,17 -21,2 -15,2 -36,0 -51,-4 -39,-10 -65,-23 29,-46 -26,-17 58,-47 24,-9 13,4 62,-19 42,26 6,-22 52,43 47,-62 40,-14 126,-44l15 67 49 51c33,-23 20,-21 59,-34 37,-13 22,3 62,-14 79,-34 4,0 77,-50 57,-40 9,25 51,-45l17 -93 73 -18c-18,143 -38,-21 -17,109l95 6c-9,-98 -27,-69 -31,-104 61,-4 3,6 66,47l107 21 -36 104c112,16 62,72 173,47 77,-18 90,-58 120,-126 129,6 102,-4 208,-51l28 26c40,41 15,34 69,56 -9,-114 -26,-44 1,-143l-85 27c31,-77 34,-30 2,-111 62,21 39,69 51,42 1,-3 4,8 7,11 48,-53 47,-54 110,-77l15 115c-70,52 -29,-27 -50,75l74 56c44,-76 0,-41 74,-62 39,59 7,33 -4,93l65 -23 9 106c57,-3 50,2 101,12l19 -75z"/>
   <path class="fil2" d="M5752 11968c7,12 32,32 30,93 -2,80 -22,40 -22,40 22,9 90,-25 123,-40 -2,-74 -2,-46 8,-115l-19 -42c46,1 68,-14 68,25 -42,-5 -35,-1 -50,5 58,37 51,24 53,99l112 -66 118 30 -97 -7 63 71c-66,25 -123,11 -68,107 -25,20 19,41 -78,0l-80 -28c-59,-29 -11,7 -36,-34l-56 13c-14,119 -19,42 32,56 29,-19 24,49 22,-56 60,33 31,-16 47,56l-181 55c-23,65 -24,32 -57,93 42,52 52,63 20,149 127,38 15,3 61,71 5,8 16,40 76,43l76 1c1,0 7,3 8,4 36,29 12,37 11,37 76,-135 5,-35 91,-101 -61,-50 -19,-33 -25,-83l101 95c14,-20 23,-34 43,-51 0,43 -9,29 41,26 -83,154 -13,53 -72,127 -85,105 -32,114 -2,143 69,-70 -2,-8 83,-118 11,-15 25,-26 11,-54 -34,-69 50,52 -18,-18l-25 -13c78,-29 9,0 73,-43 -71,-40 -15,4 -31,-41l12 -31 30 -7c37,12 13,-2 49,33 32,31 -32,6 51,37 62,-60 71,-65 177,-62l-3 97c-6,7 -9,18 -39,34l-26 16c0,0 -2,49 50,34l3 49 -21 -17c-40,-19 -89,20 52,70 -10,-39 -18,-21 7,-11 42,16 15,13 18,16 10,-51 10,-52 -49,-63 18,-20 26,-31 41,-66l95 12c-14,-24 -23,-38 -36,-57 -4,-6 -22,-25 -24,-35 -3,-11 -8,-11 -12,-17 88,17 66,-8 109,72 36,-25 -25,-41 121,-5l28 5c1,-6 3,-14 2,-19 -1,-5 1,-13 0,-18l-40 -42c-74,-30 35,-4 -18,5 -1,1 -5,3 -7,3 -1,0 -6,1 -8,1l-49 0c-2,0 -8,0 -10,-1 -13,-5 -22,-23 -32,-42 -36,17 -40,19 -89,24l-48 -52c4,-41 8,-11 -25,-22l-85 -22 84 -37c-4,-3 -10,-8 -13,-10l-22 -17c-33,-21 6,-2 -29,-14 -42,-15 -17,17 -53,-26l11 -56c24,42 -32,40 52,12 -52,-61 -6,-2 -29,-62 6,-9 17,-31 18,-32 32,-43 -17,5 36,-35 75,67 52,7 144,78l19 17c87,50 -71,-26 29,7 55,18 25,80 47,26 1,-4 7,5 11,6l-8 62 19 52c47,1 10,23 47,-9 20,-17 74,-70 79,-74 32,-21 48,-10 78,-49 16,9 39,17 84,24 11,-126 2,-80 -12,-86 49,-22 17,-9 32,0l-27 125 72 -29 -51 71c24,40 33,53 44,105l100 -19c20,31 -11,-17 18,30l19 29c55,-16 41,-30 46,-2 55,-32 49,54 40,-68 49,11 32,5 55,12 58,19 32,4 70,43 -2,4 5,78 -98,68 -50,-5 -52,-37 -119,-31l57 74 -144 75 -37 -70c-100,57 68,-65 -28,20l-17 16c-3,3 -11,11 -16,15 24,31 2,12 41,37 -3,5 -12,19 -13,23 -8,99 2,-78 3,38 1,51 16,4 -15,58l-22 -70c-1,-3 -6,-8 -9,-12 -39,51 -6,54 -12,94 -50,20 41,48 -55,-38 16,52 12,53 -3,94 98,21 49,6 95,91 -3,4 -8,4 -9,11l-33 53c-87,-5 -115,25 -164,58 3,4 9,5 11,12 21,85 -16,-19 21,20 27,30 35,35 2,124 -46,-14 -91,51 -67,-121 -6,-1 -14,-6 -17,-1l-51 -31c-20,61 -24,16 20,79l-70 -20c21,52 4,67 -1,77 -54,-52 -20,-39 -76,-43l-22 -94c-1,-1 -5,-5 -6,-5l-34 -7c-1,0 -7,0 -7,0 -1,0 -5,0 -8,0 27,-59 32,-27 79,-83 -105,-25 -58,69 -149,-19 -65,24 -9,45 -97,9 22,-43 -32,-11 52,-47 -91,12 -6,7 -39,-27 13,-48 24,-63 44,-97l47 2c-18,-68 17,-35 -40,-61l-50 -5c-37,3 -12,-2 -37,12l48 47 -58 -1c-20,37 14,8 -25,29 0,4 1,7 1,14 3,52 38,-3 5,46 -40,59 10,-2 -43,30l-29 16 97 48c0,0 -2,41 1,68l32 13c5,2 11,5 15,8l-35 53c-79,-41 -95,-28 -187,-35 65,136 66,29 92,114l-57 -32c-4,-2 -11,-6 -16,-9l-92 30c4,-56 -15,-31 66,-102 1,-1 5,-4 6,-5 2,-1 7,-4 8,-5 3,-1 10,-4 11,-5 3,-1 9,-4 13,-6 -50,-60 -30,1 -22,-78 -65,19 -44,25 -82,-13l-9 75 -69 -37c46,-23 48,-20 60,-82l33 -122c-7,3 -16,2 -21,11 -4,8 -14,7 -19,8 -124,28 -28,-53 -116,-8 -53,28 5,70 -83,135 -21,-54 -6,-51 32,-93 -2,-1 -5,-4 -6,-2l-63 16c31,-141 22,-7 -43,-115l-66 43c3,-76 -7,-59 40,-109l-21 -76c0,-3 -1,-9 -2,-11 0,-2 -1,-7 -2,-10l-123 -12 25 116 -56 -26c-43,6 -9,9 -69,-4 0,-52 4,-43 24,-83 23,-45 22,-4 25,-91 -22,74 -20,31 -89,58l2 93c-99,61 -5,2 -49,70 -34,51 -12,12 -99,13 25,65 -36,104 100,49 -23,6 -14,22 -72,29l-131 20c0,0 -37,-40 -121,-43 -76,-2 -22,35 -61,0 -37,-34 -11,17 33,-59 -76,-27 -37,-12 -83,-75l-55 79c-14,-47 -33,-28 9,-86l-75 -27 28 -60c12,-34 6,-9 10,-51 -56,43 -25,30 -65,77 -14,-43 -21,12 -1,-25l-47 -28c31,160 1,94 -15,120 -21,-41 -29,-47 -53,-87l56 -111c36,14 4,13 16,0l-5 -62c45,-11 30,20 36,-41l74 7 37 -35 88 -24c-38,81 -28,41 -68,79l64 15c-8,-27 -46,-125 14,-90 22,33 13,18 26,59l18 58c2,-4 4,-10 5,-13 1,-3 3,-10 4,-14 2,-4 3,-10 4,-15l38 -65c1,-5 5,-5 8,-8 -43,-39 -21,-24 -95,-41 -56,2 -10,9 -29,-41 32,8 72,33 55,-17l34 1c0,0 52,106 69,85 4,-5 14,9 20,13 0,-126 -5,-41 32,-74 12,72 -21,29 24,59 54,-22 18,11 40,-39 2,-4 2,-12 3,-15l50 -43 -7 143c22,-59 -5,-8 34,-64l18 -34c-1,-11 -5,-15 -8,-22 67,12 41,-15 78,26l51 -67c-77,-39 -11,8 -62,-49 -38,-43 -26,-17 -42,-74l-15 129c-23,-16 -10,-7 -23,-6 -2,0 -17,8 -22,11 -28,-40 35,-34 -34,-34 14,-58 16,-24 29,-97 -85,33 -9,-7 -71,55 -39,-29 -4,-28 -50,-13l19 -93c-1,-7 -3,-10 -4,-15l1 -51 52 51c51,-58 12,-37 42,-93l-27 -48 25 12 46 5 63 19c41,75 -21,51 80,40 -25,-37 -7,-16 -21,-50l181 -17 -13 44c-35,63 -34,20 -4,87 5,-14 -40,-35 40,-29 51,4 19,16 20,24 19,-31 -18,-18 25,-33z"/>
   <path class="fil3" d="M16366 9379c-35,47 27,23 -59,33l102 87c4,-6 16,4 24,6 -70,-75 -44,-43 -73,-112l51 30 341 231c31,28 2,-4 34,36l-63 13c56,42 8,27 73,59l4 53 15 402c1,50 1,65 38,80l15 242c-48,-5 -19,-15 -41,4l16 68c57,32 16,20 38,-20l27 89c3,40 4,80 8,123 97,84 37,110 87,234 18,43 39,58 53,113 23,85 -24,93 13,107 24,48 4,8 19,64l16 49c20,14 29,294 28,341 -2,115 58,254 69,354l-25 17c54,101 15,69 55,148 24,38 44,154 40,215l8 54c-66,1 -33,-12 -88,28 3,5 7,8 9,15l40 30c1,1 3,4 4,6l30 46c15,-66 -4,-70 28,-107l65 111 36 84 -16 67 4 71c-16,-4 0,-29 -48,-2l-32 34c-109,77 -17,21 -76,98 -59,-20 29,23 -26,-170 -2,-5 -3,-10 -4,-14l-23 -51c-28,-88 18,-73 -42,-107l-4 -58 4 -66 -45 -4c-9,-70 -30,-119 -45,-205 -12,-69 -15,-43 -16,-106 -1,-75 -2,-2 -32,-97l65 -19c-5,-104 -2,-83 -101,-71l-14 -26c-6,-23 -5,-22 -9,-45 -5,-29 -7,-51 -6,-99 8,-330 -85,-378 -69,-515 37,-24 30,18 32,-24 -75,-77 -23,33 -40,-57 -2,-7 4,-62 5,-78l-48 -15 4 -23 9 -87 -44 -29 -20 -71 40 -9c-29,-69 -31,-94 -20,-169l-56 38c-10,-42 -4,-38 -16,-75 -12,-37 -15,-33 -36,-74l22 -103c-22,-41 -24,-81 -35,-147 52,-37 47,60 43,-46 -36,-17 44,-28 -52,-12l-24 -12c-44,-251 -35,-75 -39,-366 -1,-61 14,-106 24,-158l23 -27c-60,-40 -41,-6 -74,-58 -24,24 -36,-33 -15,42 -32,-16 -30,-13 -63,-39 -35,-28 13,14 -20,-18 -31,-28 -11,-9 -30,-31l29 -22c0,-1 -32,-20 -34,-20 -37,-20 -21,-18 -61,-21 -22,-28 -1,-20 -24,-1 -22,-16 -1,4 -37,-26 -54,-44 -13,-8 -39,-40 63,-16 26,5 42,-30l-70 -32 -25 40 -55 -14 -9 -30c-40,-77 -2,-35 -56,-89 0,0 -111,-17 26,54l-35 10c-54,3 -43,17 -131,-37 -4,-2 -8,-6 -11,-8l-24 -15c-78,-37 -111,-20 -143,-103l-52 8 -2 -54c-7,-2 -55,-3 -88,-5 57,10 26,21 51,40 -68,-4 -71,11 -85,-23 39,-78 36,-47 102,-72l-36 -38 37 -13 491 174c32,15 41,20 78,32 57,18 61,9 89,35z"/>
   <path class="fil4" d="M5131 10027c-41,-32 -18,39 -34,-35 -17,99 -5,38 36,115l-10 49 43 0 19 15c-25,56 -21,10 -25,80l-32 162 -26 7c-3,88 -14,207 -21,327 -11,189 84,170 62,317l9 54c-4,4 -9,11 -11,13 -2,1 -7,6 -9,8l-23 20c-58,-29 -12,-2 -50,-41 -29,69 -1,53 -73,74 54,88 40,-4 47,135l59 2c63,-28 21,-23 88,-15l16 1c-6,75 -11,119 33,166l-2 62 -61 -13c-17,112 -3,28 18,64l44 -39c42,37 31,7 25,88 16,53 14,27 53,55 1,1 39,37 40,39l33 21 -33 7c-30,16 -18,-26 -27,44l-42 -61 -44 36c5,5 11,6 13,13 2,6 9,8 11,10 3,1 9,7 11,8 46,33 37,-3 42,51l-75 3 8 87 -1 51c-30,27 -36,-35 -24,44 -50,-47 16,-15 -59,-44 -19,32 -43,61 -68,92 14,84 -4,-1 28,76 -69,43 -15,0 -40,49 17,50 -23,25 -55,17 -6,0 -45,4 -46,4 -33,10 -32,13 -47,22 -36,22 -83,63 -95,102 -6,61 9,30 -36,41l-70 6 -11 47 -14 74 -8 10 -60 -8 -78 -6c-12,89 -41,93 -79,107 16,-44 55,-130 82,-159 51,-56 77,-51 64,-148 40,-100 102,-149 214,-197 17,28 4,21 27,2 79,-63 17,0 37,-66l26 -15c3,4 8,5 10,11 9,32 -10,2 58,34 3,-3 8,-14 9,-11l75 -78c32,-75 -6,-43 -10,-51 -10,79 5,1 -41,38 -21,-176 9,-105 -1,-172l-38 -192c-30,-226 8,-55 -45,-283 -8,-33 -4,-71 -4,-105l-60 -31c65,-146 -10,-75 4,-218 33,0 23,7 14,-29 -70,-8 -4,10 -26,-55 -53,-117 -69,-119 -28,-168 -85,-194 59,-257 41,-630l48 40c65,30 14,0 31,-3 -19,-57 48,-30 -48,-37l-4 -34c24,-26 38,40 18,-32l-40 -19 -117 -58 -39 -47 -20 -74 -43 20 -25 -9 18 -57c98,0 36,-39 114,40l18 -35 51 17 22 -9 45 -24c96,107 93,-25 104,-115 10,-91 26,-200 9,-269l7 -82 -58 2 -24 -5 -3 -55c137,42 30,-43 176,24 0,-101 -9,-15 43,-44 56,91 32,17 59,117 16,59 33,61 -2,117 42,47 38,119 27,183 -16,106 -12,88 -91,132 33,94 -24,125 -33,226z"/>
   <path class="fil5" d="M15047 8926c0,37 10,29 -24,29 44,19 90,-7 38,49l60 -37c91,-3 49,-6 71,37 -88,-68 -22,-28 -48,6 22,17 34,27 62,50l0 54c-69,-7 -105,-27 -149,-27 -125,-1 -10,18 -114,-23 -84,-34 -160,-31 -259,-73 9,-46 20,-73 40,-98 -32,-13 -16,-1 -52,-18 -7,13 -19,39 -19,43 -9,52 -7,15 9,30l-47 10 -110 -42 -42 -69c-20,29 -15,-10 0,44l-384 -99c-39,-88 -53,-49 -144,-78l-366 -171c-31,-19 -8,-4 -39,-17 -69,-31 -19,17 -68,-61 -152,27 -288,-35 -468,18l0 -44 -91 18c-24,-66 27,-25 -49,-52l-5 82 -41 16c-98,-105 -63,17 -291,-99l-286 -108c-210,-53 -453,13 -613,7 -39,-1 -49,-12 -99,-19l84 -54c117,-84 -31,-62 238,-88 -5,49 -15,18 1,48 33,59 -25,-8 57,30l-40 -81c118,6 174,3 282,-10 25,33 -15,14 31,35 21,-14 43,27 3,-33 73,25 58,6 122,21 39,10 59,36 204,81 20,7 37,9 60,17l128 37c69,19 97,46 251,52 85,3 52,-10 109,-40 88,16 118,20 184,-31 47,50 -4,21 76,33l190 27c125,25 17,-6 100,39 56,30 36,6 79,25l117 68c89,42 111,73 194,92 233,55 125,65 424,152 203,58 94,67 184,93l83 25c158,67 153,77 367,104z"/>
   <path class="fil3" d="M4509 6714l37 35c56,31 12,2 39,36l76 80c35,-31 36,48 24,-55 3,4 6,6 8,14 1,9 10,23 12,27l154 140c33,12 193,29 294,78 222,107 72,111 612,67 129,-11 311,-5 390,106 -140,143 -259,24 -403,58 -42,10 -116,0 -195,19 -49,11 -61,10 -113,16 -76,9 -33,6 -93,32 -23,-14 -15,-10 -51,-20 -24,-7 -38,-8 -67,-20 -70,-27 -237,-152 -421,-159l24 -36 -35 18c-58,-22 -77,-19 -136,-77 -27,-26 -27,-34 -42,-51l-60 -55c10,-6 99,-5 -12,-45 -32,-12 -33,-86 -37,10 -58,-27 -137,-53 -204,-63 12,-33 21,-13 -19,-30 -26,-11 -35,-5 -63,-9l-28 87c-15,60 -7,67 -59,113l-16 -24c-12,-40 -29,40 -7,-56l-49 49c-11,-70 17,-31 -43,-48l8 79c53,2 30,-1 79,12 -34,21 -56,22 -74,49 -73,108 -2,51 15,66l-68 44c-2,2 -8,7 -12,10l-20 -21c-19,-51 -10,-29 -35,-51l3 65 16 38 -78 7 -61 -22c-1,2 -1,8 -2,11l-17 46 21 49 -68 60 -64 -68c-24,-25 -41,-38 -80,-64 -2,-71 -6,-8 25,-35l87 -31c1,-1 5,-5 6,-7 35,-31 17,-14 66,-38l-34 -54c153,-10 118,-12 210,-65 -66,-41 16,-47 20,-48l-40 -6c45,-62 36,-12 77,-105l-50 -75 15 -63c54,-14 50,-17 97,-61 80,-1 99,45 108,-11 56,-2 116,-27 179,-6 19,6 52,23 70,29 66,19 59,-20 84,29z"/>
   <path class="fil6" d="M4384 7204c25,69 8,182 -4,261l-86 18c-13,69 5,70 5,69 1,-2 7,10 11,14l81 -53c-4,43 -9,177 -16,204l-54 185 -53 -7c6,-115 14,-39 -20,-79 -12,13 -11,11 -26,27l-33 34c94,25 74,37 84,151l64 17c29,148 -4,212 64,329l-29 55c24,89 30,7 20,156l29 46c8,80 6,3 13,82l15 105 -41 34c-116,-22 -25,-13 -57,22l55 37c-47,45 -37,27 -101,22 -20,-54 -39,-81 -60,-125 -39,-82 -17,-72 1,-134 -40,-26 -80,-59 -128,-71 -12,-256 44,-109 -12,-266 74,51 71,14 66,-41 -4,-55 -11,-90 -30,-129 -10,47 5,0 -43,25l-24 -51c-2,-2 -7,-6 -10,-9 28,-14 37,17 38,-71 2,-83 -8,20 -6,-43 3,-71 -11,58 9,-30l25 -336c1,-67 26,-91 24,-202 64,19 16,16 43,-4 -20,-12 -34,-22 -62,-42 41,-78 17,18 27,-101 5,-55 3,-61 18,-116 47,-43 40,-55 113,-49 36,26 34,-6 27,30 12,13 -10,8 9,1l32 -16c3,-10 15,-7 22,-11 -45,116 -16,27 0,62z"/>
   <path class="fil7" d="M11469 14239c-54,-19 -40,24 -47,-19 -14,112 14,42 -46,82 -78,-45 50,65 -25,-20 -33,-36 -2,-33 -110,-67l50 -56c-28,-22 -23,-20 -45,-44l-80 11c-16,-71 -8,-56 -102,-57l-10 146c-4,2 1,2 2,7 4,21 16,-6 30,64 -59,-20 -5,4 -57,-28 -37,-21 -4,-20 -55,-19l22 86 108 3c-90,59 -79,7 -174,100 -75,-11 -19,1 -75,-20l-14 90 -42 -75c-112,-7 -217,-34 -297,-110 -5,3 -12,2 -14,8 -2,6 -11,6 -14,6 -51,7 -42,-14 -98,4 10,-88 -146,-55 -149,-41l-33 27c-15,10 -3,24 -9,-7l-83 19c10,-29 -7,-33 39,-62 63,-40 29,-16 86,-15 10,-56 15,-40 32,-46l-29 -47c48,-28 26,-12 45,-56l4 -106c51,65 35,44 122,23 9,50 -2,20 21,52l33 31c-32,64 -24,24 -36,64l117 -29 -28 -65c93,-64 -28,-128 221,-136 -23,49 -37,25 -59,74 142,-22 -52,-36 168,-18 -29,-35 -21,-11 -39,-70 49,-6 63,-11 92,-27 -31,-90 -41,-51 -77,-111 148,26 156,28 154,115 148,-65 87,136 163,133 19,-1 22,-20 59,-43 53,31 11,16 56,38l183 39c8,49 -1,81 0,90 5,26 24,16 40,82z"/>
   <path class="fil8" d="M12668 14409l-26 87c-14,34 -16,-21 -27,81 -17,0 -44,3 -57,-4 -59,-30 22,28 -48,-56 -72,5 -65,22 -96,-21 -81,74 -16,47 -71,63 -14,-25 0,-4 -13,-32l-24 -44c-5,3 -12,2 -14,9 -2,7 -10,7 -13,10 -1,1 -28,34 -29,36 -74,-38 -3,-38 -169,-44 5,-4 17,-16 18,-19 11,-28 9,4 2,-25l-49 -17c-4,-58 -8,-14 7,-61l-30 10c17,-71 39,-11 121,-56 -4,-4 -10,-17 -12,-13 -18,36 7,-51 -129,-106 -56,-19 -35,-12 -95,5l-97 40c15,39 9,39 36,60l63 41 -157 36c22,-47 39,-37 7,-84 -122,18 10,27 -101,31 -61,2 -64,6 -132,14l-19 -105 -57 -4c38,-65 -28,-42 68,-43l-58 -118c157,-105 21,-58 121,-83l18 98 90 41c17,129 -45,78 85,92 24,-154 -10,-11 -28,-125 18,-25 37,-45 40,-86l126 26 -19 -103c73,22 20,5 62,19 60,19 100,44 147,-49l28 25c46,39 73,24 82,-13 2,-9 8,-10 12,-15 199,98 136,66 157,129l-81 30c29,49 13,52 31,79 16,25 31,14 57,70 -1,1 -1,76 -80,10 -1,95 13,6 58,101 -39,77 12,14 -63,56 53,43 19,9 51,61 36,-11 11,6 39,-23 14,-15 9,-17 19,-36l128 4c12,-32 14,-46 26,-75l115 10c-29,70 -33,24 -57,80l37 6z"/>
   <path class="fil6" d="M4561 12766l0 15 -3 40 -17 7 -75 -19c-12,48 21,35 -29,40 84,105 -43,8 32,20 3,1 14,0 17,-6 3,-7 12,-7 16,-12l-16 68c-3,13 -10,53 -14,92l-15 -2 -28 -4c-32,34 -27,-41 -34,94 -67,-14 -19,-22 -58,12 8,10 28,-33 10,61 -7,39 -16,41 -35,70l-10 -6c-127,57 29,72 -108,139 20,42 26,55 12,112 -10,32 1,1 -13,36 -3,9 -16,40 -21,54 -11,37 -13,57 -20,99 -44,5 -38,53 -56,109 -27,93 -38,81 14,133l-21 13 -71 9 -19 98c-15,59 -2,44 -26,70 -75,-61 -87,-93 -184,-153 4,-48 15,-52 9,-111l30 -15c16,-3 31,-4 48,-5l77 -217c29,-32 1,24 27,-33 11,-24 13,-44 19,-69l11 -2c12,-18 15,-10 26,-46 1,-1 7,-41 8,-46 9,-60 2,-48 19,-103 59,-66 -5,-34 84,-178 1,-2 3,-7 4,-11 65,-47 32,-12 67,-87 17,-36 35,-64 44,-115 23,-6 4,8 37,-27 7,-7 26,-31 27,-32 34,-36 2,-6 32,-29l17 52c39,-82 8,-167 105,-241l12 110c-8,2 12,-27 69,16z"/>
   <path class="fil9" d="M6378 11928c66,11 83,-5 156,9 64,12 71,11 145,4 32,37 37,19 106,36l29 19 43 -3c20,-6 5,-11 40,-11l74 -5c100,15 67,-19 153,16l160 20 37 17 57 -1c34,36 37,60 100,77 25,12 76,16 122,36 45,18 69,22 112,47 36,61 85,37 155,41 -86,71 6,9 -267,3l-295 -21c-48,-17 -45,-31 -69,-41 -32,-13 -93,-17 -136,-20l-38 -37c-195,-13 -410,10 -591,-48 -17,-13 -7,-12 -39,-26 -3,-1 -36,-9 -43,-10 -47,-10 -78,-12 -125,-16 -78,2 -41,12 -91,-17l-118 -30c-47,-15 -88,-26 -115,-38 0,-39 -22,-24 -68,-25l-20 0c6,-2 22,-12 26,-14 4,-3 12,-3 15,-11 3,-9 10,-9 16,-13l0 -1 27 3c77,-7 183,5 254,30 104,36 110,28 188,30z"/>
   <path class="fil6" d="M17452 13027l-47 57c23,48 38,65 42,117l-2 32c3,41 -44,86 40,86 -13,96 30,294 28,421 22,40 21,8 5,63 55,213 39,161 -41,320l-98 -5 -20 -45 -38 -12c-2,-36 3,-123 -33,-148l7 -147c5,-25 11,-68 8,-108 -5,-91 -20,-52 -26,-112 -11,-104 -10,-157 -33,-262l101 -9c26,38 12,-19 0,26l-6 16c0,-3 -1,5 -1,10l56 1c22,-90 9,-74 19,-152l-87 -75c-32,-50 -21,-56 -1,-105 -9,-35 14,-15 -25,-32 89,-21 53,13 71,-78l42 -2c-23,82 -36,4 -31,87 3,52 23,55 70,56z"/>
   <path class="fil10" d="M12771 13580l43 13c57,-17 9,-3 68,-12l35 50 285 41c-33,34 42,16 -42,31 45,27 81,45 131,55 18,-27 42,32 2,-47l129 13c-28,128 -26,50 -11,111l11 27c-88,46 -42,23 -102,84 -157,-27 -74,37 -196,28l11 -133c-78,20 -22,4 -86,36l-33 -15 -15 -39c-72,7 -106,6 -144,-10 -3,-4 -4,-17 -6,-14 -5,14 7,-69 -111,-25 -29,11 -14,22 -74,29 -38,-55 -11,-15 -77,-41 -13,-70 7,-67 1,-100 -4,-24 -18,-17 -24,-87l-27 -12 120 9c11,22 21,50 34,72l30 49c13,-71 8,-52 74,-62l-26 -51z"/>
   <path class="fil11" d="M13748 13774l45 30 -35 41c-10,12 -6,1 -15,32l51 -18c21,52 46,61 88,69l-9 60c-79,3 -82,14 -155,18l12 82c8,-63 2,-7 -44,-31l-31 26c-79,11 -159,-25 -214,-27 -32,-1 -164,-14 -218,-4 0,-35 9,-28 -23,-28l-43 -22 -52 -6 -13 -45 -22 -37c-54,18 -37,32 -99,4l45 -56 33 15c64,-32 8,-16 86,-36l-11 133c122,9 39,-55 196,-28 60,-61 14,-38 102,-84l-11 -27c-15,-61 -17,17 11,-111 94,-14 44,-14 105,11 95,40 113,30 221,39z"/>
   <path class="fil12" d="M4685 8622l-16 20c29,29 31,41 50,63 34,40 83,40 121,199 25,-32 34,43 19,-46l51 84c58,130 131,191 159,247 69,-1 39,2 92,-17l10 80c-52,29 -43,-57 -43,44 -146,-67 -39,18 -176,-24l3 55 -63 -86 20 -58c-29,15 -39,16 -64,23 -67,-42 -56,-52 -82,-147l-29 -92 41 0c-35,-61 -29,-37 -65,-86 0,-38 6,-23 -40,-12 0,0 -6,16 -29,-31 -15,-32 -11,-32 -20,-64 28,-48 -72,-180 -73,-81 -42,-22 -39,-19 -71,-39 -16,-33 35,-27 -59,-23l-29 -46 74 4c27,-58 34,-66 123,-77 62,35 67,43 96,110z"/>
   <path class="fil13" d="M10969 12728c118,72 129,16 193,70l35 35 39 -63 48 19c6,40 -49,36 24,59 49,16 71,7 142,36l106 -57 9 95c-40,-12 -56,-5 -110,23 -107,-27 -231,-48 -345,-48 -52,-17 -119,-8 -182,-14 -100,-11 -88,12 -165,0l-13 -8c-30,-46 4,-14 -45,-34 -8,-3 -54,-8 -56,-8 -39,0 -47,7 -113,-5l-40 -47c-89,55 -1,-61 -162,14 -2,-2 -46,-27 -58,-33 36,-107 -6,-17 67,-78 66,-12 203,-8 250,11 89,37 137,34 225,52l55 -40 96 21z"/>
   <path class="fil11" d="M5835 13201c37,-9 32,29 56,-13 7,-12 9,-19 15,-28l-72 -29c-22,27 -26,-42 -15,48 -77,-12 -82,34 -103,98 31,-12 56,-22 100,-38 167,157 69,44 143,87 -10,153 5,120 -43,166l51 109c-11,10 -15,31 -21,44 -22,17 -3,8 -35,7l-127 -44c15,-56 6,-30 29,-79 -115,8 -19,7 -60,-25l104 14 38 -16 -5 -39c-5,-38 -5,-49 -20,-78 -17,-35 -23,-31 -36,-43 -48,45 -80,91 -89,160 -65,-13 -75,44 -94,107 -67,6 -30,13 -73,-6 3,-3 8,-13 9,-10 2,4 8,-7 10,-8 5,-4 32,-19 32,-19l-19 -64c117,-7 43,8 87,-166 -127,29 -61,18 -86,70 -43,-24 -53,15 -43,-69 -8,2 -1,9 -49,12 -4,0 -55,-3 -61,-3 -8,-55 -9,-49 -18,-100l77 -33 4 -120c58,26 38,11 74,49l40 -64c3,3 8,3 10,8 2,6 9,7 11,9l38 26c-49,57 -11,24 -48,35 -3,1 -9,1 -11,1l-20 1c82,52 52,-24 159,-8 -1,-69 12,-69 16,-79 145,29 186,120 100,158 -114,7 -9,6 -55,-28z"/>
   <path class="fil5" d="M7452 7357c41,23 41,27 112,10 -6,54 -20,26 5,31 118,24 -52,-18 48,-8 59,6 81,-9 131,1 63,12 34,21 133,30l1 37 37 9c178,2 167,73 312,67 -33,31 53,69 -109,20l46 30c0,21 7,31 7,37l-16 57 -88 -61c-35,-15 -5,-21 -117,-22 -31,44 -23,-18 0,56 -67,-21 -88,-43 -157,-65 -45,-15 -124,-32 -178,-46 -118,-32 -288,-21 -380,-51 5,-37 -11,-15 9,-61 40,11 72,18 130,20 -27,-73 19,-49 -76,-58l39 -55 111 22z"/>
   <path class="fil14" d="M7100 12151l-20 71c64,-31 33,-34 123,1l26 12c4,1 8,4 12,5 30,9 32,5 66,7l129 13 -5 8 13 68 102 9 -47 44c-39,46 9,12 -47,49 -1,-3 -3,-12 -3,-9 0,2 -2,-8 -3,-10l-12 -39c-52,33 -47,43 -100,53 -3,1 -15,0 -19,2 9,122 15,36 -40,68 -5,-28 9,-14 -46,2l-19 -29c-29,-47 2,1 -18,-30l-100 19c-11,-52 -20,-65 -44,-105l51 -71 -72 29 27 -125c-15,-9 17,-22 -32,0 14,6 23,-40 12,86 -45,-7 -68,-15 -84,-24 -30,39 -46,28 -78,49 -5,4 -59,57 -79,74 -23,-64 40,-56 -66,-43l8 -62c27,-74 -1,-36 55,-74l49 -33c43,34 30,33 37,61 11,47 -26,17 18,32 0,0 18,22 -11,-43l59 7c75,-15 -14,-41 115,-62l5 -47 38 37z"/>
   <path class="fil15" d="M6162 11752l-3 47c63,-20 28,12 60,-25l5 36 57 -25 54 27c51,17 22,-7 67,40 -25,50 -6,5 -24,76 -78,-2 -84,6 -188,-30 -71,-25 -177,-37 -254,-30l20 -56c-53,-16 -43,-11 -47,53l0 1c-83,-3 -141,-25 -204,6l-21 3 -181 17 -59 10 -63 -19 64 -12c10,-59 -15,-28 23,-57 34,-26 33,-16 85,-20l-14 -45c96,-45 331,-39 465,-28 36,48 36,34 68,78 40,-44 26,-46 90,-47z"/>
   <path class="fil16" d="M9684 12635l12 1 23 41 38 -29c161,-34 308,66 421,96l-24 46c-58,0 -282,-4 -300,18l-28 3c-97,6 -185,5 -276,-11 -35,-35 5,-19 -55,-25l-42 8c-9,-10 -41,-39 -44,-42 -18,-48 -19,-35 -69,-46l-18 -91c59,-34 26,-23 101,-21 36,56 -40,18 56,44 1,0 60,-2 70,-1 41,1 92,7 135,9z"/>
   <path class="fil17" d="M8159 12262l183 15 20 22 114 13 52 35c290,112 65,88 300,125 -8,32 22,29 49,37l7 22 5 29c-13,-10 -32,-14 -44,-22 -35,-16 -126,-35 -212,-36l-288 -58c-3,5 -10,5 -11,12l-25 30c-14,-62 14,-26 -46,-62 -8,-3 26,-20 -48,-13 -101,9 -27,2 -57,25 -51,-61 -45,-22 -83,-68 -42,-49 3,-57 -88,-74 9,-13 23,-36 34,-51l138 19z"/>
   <path class="fil18" d="M7899 12074l241 45c106,-16 131,-1 223,12l17 22c126,3 56,-3 182,46 23,9 48,20 75,36l80 70c-70,-6 8,-16 -25,0 -4,2 -26,18 -31,23l-42 -10c-52,-50 -3,-19 -88,-17l-8 -29c-43,-7 -43,1 -84,-8 -61,-14 -50,-23 -66,-48 -58,44 -16,-16 -31,61l-183 -15 36 -7c7,-1 15,0 22,0 6,-1 47,6 53,7 -42,-44 -17,-39 -83,-50l-177 4 -84 -60c-92,10 -131,-5 -206,-40 -22,-21 -16,-11 -35,-45 -14,-25 -3,-12 -14,-39l39 -13c3,5 22,38 25,42 2,4 6,20 7,17 2,-4 5,11 8,16 86,2 52,13 130,31 37,-25 51,40 19,-51z"/>
   <path class="fil3" d="M8619 12318l112 61c2,5 -20,54 75,35 98,-19 -25,84 31,-26l14 58c66,-16 31,18 62,-38 78,11 132,38 221,56 77,15 161,9 226,26l0 52c0,-3 5,8 11,15l52 -68 19 -13c71,27 154,20 240,33l40 18 -14 98 -12 11 -12 -1c-6,-3 -14,-15 -18,-10l-53 -18c-29,-5 -48,-2 -78,-2l-6 -18c0,-2 -1,-8 -2,-10 -5,-18 -1,-14 -11,-29 -81,22 -43,-2 -49,71l-44 -36c-75,-2 -42,-13 -101,21l-79 0 -12 -52c-75,-21 -65,-4 -88,-62l-90 37c-87,-58 -42,-44 -143,-20 -36,-76 -12,-59 -82,-75 -21,23 -53,-24 0,40 -235,-37 -10,-13 -300,-125l-52 -35c17,-51 -16,-41 47,-40l8 29c85,-2 36,-33 88,17z"/>
   <path class="fil19" d="M11455 12945l-3 22c44,5 42,4 81,16l53 16c2,-4 9,1 14,2 4,3 9,4 11,10l250 85c40,22 8,1 37,33l-20 18c-62,-10 -69,-18 -108,7 -16,13 -28,8 -41,18l-21 -64 -50 -12 -123 -3c-10,-35 26,-23 -47,-34 -14,-2 -65,7 -81,10 -97,7 -153,18 -224,-15 -27,-30 16,-4 -33,-23 -9,-4 -13,1 -44,-12 -34,-15 -47,-31 -63,-58l2 -65 65 1c114,0 238,21 345,48z"/>
   <path class="fil10" d="M6071 12168c61,29 16,-22 51,43 -29,25 -35,20 -36,75 70,32 21,39 96,48 -17,24 -35,58 -64,76l109 9 21 40 -30 7 -12 31 -19 17c-50,3 -41,17 -41,-26 -20,17 -29,31 -43,51l-101 -95 56 -30 20 -20 -52 -52c71,-26 3,-1 38,-37 -16,-81 -20,-33 -25,-107 -116,27 -38,39 -204,42l46 154c-42,3 -44,-5 -59,16 -13,16 7,-2 -14,34 -5,8 -20,26 -22,28l21 18c36,50 15,32 29,84 1,3 3,8 5,12 -60,-3 -71,-35 -76,-43 -46,-68 66,-33 -61,-71 32,-86 22,-97 -20,-149 33,-61 34,-28 57,-93l181 -55c-16,-72 13,-23 -47,-56l2 -13c25,41 -23,5 36,34l80 28c97,41 53,20 78,0z"/>
   <path class="fil20" d="M6264 12014l6 117 74 41c1,-1 6,-3 8,-4 1,-1 5,-3 6,-4 95,-86 -54,-29 34,-36 50,-3 38,56 39,71 -32,-19 -37,17 -28,-21l-39 56 44 22 -11 56 -34 66c16,30 -9,22 26,5 -17,91 -8,8 27,39 0,47 -34,14 -100,11l-32 -4c5,-83 11,-15 -40,-89l-62 -6c-75,-9 -26,-16 -96,-48 1,-55 7,-50 36,-75 -35,-65 10,-14 -51,-43l124 -44c13,-64 19,-36 -15,-42 -5,-32 3,-19 -41,-21l-63 -71 97 7c50,29 13,19 91,17z"/>
   <path class="fil21" d="M12045 13315l-25 30 108 39 -22 -63 69 55c124,5 181,-52 240,78 -87,-33 -24,-42 -133,-55 12,18 18,34 38,59 -97,-9 -32,-8 -56,13l-69 -43c-59,30 -8,-4 -57,39l-37 -48c-35,5 -28,6 -42,12 -1,1 -14,11 -32,19l-34 -39c-82,12 -74,8 -152,0 16,-41 16,-29 47,-45 -69,2 -62,7 -106,32l38 -166c-28,-33 8,-18 -62,-21l12 -57c39,-25 46,-17 108,-7l38 63c81,27 91,26 129,105z"/>
   <path class="fil22" d="M8468 7612c-49,71 -12,2 -98,63 37,60 79,45 73,82l102 -35c1,-98 -6,-19 22,-61l35 21c-36,62 -83,109 -183,110l-55 -54 -130 24c-87,-48 -152,-109 -280,-111 -23,-74 -31,-12 0,-56 112,1 82,7 117,22l88 61 16 -57c0,-6 -7,-16 -7,-37l-46 -30c162,49 76,11 109,-20 69,5 194,43 237,78z"/>
   <path class="fil23" d="M8758 14185c-35,42 8,11 -50,48 52,81 33,-47 37,93 -18,11 -71,43 -86,52 -68,36 -30,-7 -91,41 25,95 26,3 26,92l-47 6c16,-61 7,-61 -48,-88 -23,-12 -15,-6 -43,-21l-45 22c-40,8 -5,5 -56,2l29 115c-72,50 -24,29 -64,68 -16,-54 5,-4 -44,-28 23,-43 11,-41 58,-76 -12,-93 -32,-105 39,-175l201 -3c-20,-107 -14,-59 -10,-176 68,17 76,14 114,54 30,-67 70,-48 80,-26z"/>
   <path class="fil24" d="M4500 13128c92,80 92,46 150,40 -24,74 -20,34 -47,101 3,4 7,5 8,12l46 43c-94,58 -71,49 -89,93 52,32 74,11 82,59 11,61 -37,55 -87,61l-20 -39c-7,0 -45,-2 -47,-3 -37,-15 -17,-7 -39,-29 80,19 -2,48 79,-12 -28,-34 -2,-5 -43,-27l-48 -28 25 -68 -49 5c-6,-74 -14,-106 9,-168l-3 -68c64,19 24,1 73,28z"/>
   <path class="fil25" d="M7062 12114l-5 47c-129,21 -40,47 -115,62l-59 -7c29,65 11,43 11,43 -44,-15 -7,15 -18,-32 -7,-28 6,-27 -37,-61l-49 33c-56,38 -28,0 -55,74 -4,-1 -10,-10 -11,-6 -22,54 8,-8 -47,-26 -100,-33 58,43 -29,-7l-19 -17c-92,-71 -69,-11 -144,-78 -181,-155 25,88 -78,-75l64 2c181,58 396,35 591,48z"/>
   <path class="fil26" d="M7341 7335l-39 55c95,9 49,-15 76,58 -58,-2 -90,-9 -130,-20 -20,46 -4,24 -9,61 -84,-39 8,-23 -83,-32 -46,-5 -54,7 -105,-2 -73,-12 -130,-18 -170,-54l106 -114c59,8 89,11 149,12 71,2 95,0 149,43l56 -7z"/>
   <path class="fil27" d="M6064 12305c-211,-35 -99,96 -95,106 18,-30 -4,-14 39,-29l50 32 -56 30c6,50 -36,33 25,83 -86,66 -15,-34 -91,101 1,0 25,-8 -11,-37 -1,-1 -7,-4 -8,-4l-76 -1c-2,-4 -4,-9 -5,-12 -14,-52 7,-34 -29,-84l-21 -18c2,-2 17,-20 22,-28 21,-36 1,-18 14,-34 15,-21 17,-13 59,-16l-46 -154c166,-3 88,-15 204,-42 5,74 9,26 25,107z"/>
   <path class="fil26" d="M11832 12961c4,4 12,3 14,11 2,8 11,8 13,11l17 20c11,15 -3,65 135,74 -3,-35 0,-22 -18,-46 123,38 22,9 127,75 25,-16 44,-32 64,-50 88,40 71,0 98,113l-384 -40c-29,-32 3,-11 -37,-33l-250 -85c-2,-6 -7,-7 -11,-10l90 13c-4,-6 -9,-14 -12,-19l-31 -41 58 -38 36 31c41,27 43,34 91,14z"/>
   <path class="fil28" d="M6884 14372l-48 -34c-27,-27 12,-14 -38,-29 -57,-17 3,-4 -50,-3 44,-124 61,-37 94,-139l57 -17c-17,40 -8,22 -17,57 46,1 73,-8 105,-17 39,32 8,-28 38,37 33,-16 8,-4 34,-20l31 -22c17,57 -25,20 51,55 0,69 -3,104 -14,151 -78,-49 -67,-44 -180,-38l-27 -54 -36 73z"/>
   <path class="fil21" d="M11658 13096c99,100 21,120 15,129 -41,-24 -31,-16 -49,-61 -5,2 -12,0 -14,6 -9,23 -13,4 -26,7 -31,7 -173,44 -264,98 -56,-35 -1,-1 -42,-35 -3,-3 -7,-7 -10,-9l-23 -17c-4,-2 -11,-7 -14,-9 -4,-3 -10,-7 -15,-10l6 -93 79 -1c-58,95 -31,22 -11,96l17 -71c217,27 152,-22 179,-52l-79 4 0 -9c16,-3 67,-12 81,-10 73,11 37,-1 47,34l123 3z"/>
   <path class="fil29" d="M7843 12204l178 39c-11,15 -25,38 -34,51l-69 -29c24,74 25,54 47,120 -44,-11 -45,-11 -97,-9 -66,3 -37,1 -105,-14l-9 -16 -18 -75c-46,-18 -31,-14 -98,-18 -15,35 1,9 -12,58 -73,-42 -63,-25 -131,7 61,-34 23,42 47,-87 -42,30 -6,54 -111,37l5 -8 -129 -13 -2 -35 295 21c273,6 181,68 267,-3 -70,-4 -119,20 -155,-41l131 15z"/>
   <path class="fil30" d="M7322 11895c148,-41 -8,-7 241,42 56,11 38,4 71,35l46 47 -9 13 -35 4 -25 43 -73 8c-22,-40 -29,-54 -75,-72l-122 -38c-34,36 -13,-2 -20,53l-37 -17c-10,-51 19,-20 -28,-41l-45 -38c5,-13 29,-88 37,-103 0,0 33,33 34,34 25,22 9,8 40,30z"/>
   <path class="fil7" d="M13223 14052c-46,45 -6,193 -5,201l-83 7c-57,-146 45,-122 -48,-165 -51,19 -5,9 -73,33l22 71c-75,-5 -19,-10 -88,24 -4,2 -11,5 -15,7 -4,2 -11,4 -16,6 48,127 -4,42 -103,96 -2,1 -32,18 -37,21 -119,70 -37,48 -109,56 21,-74 159,-156 164,-158 82,-33 51,10 48,11l25 -79 29 -20 11 8c49,-13 49,2 90,-99 151,-17 40,-70 117,-26l5 -44 43 22c32,0 23,-7 23,28z"/>
   <path class="fil31" d="M3968 12479c18,-56 3,-25 71,-36 1,95 -19,93 -3,147 -255,2 42,-28 -135,141 -5,-6 -12,-22 -14,-18l-24 -63c-77,-2 -82,3 -139,-21 46,-45 -4,-37 150,-33 -16,-138 66,-56 -5,-146 52,-60 93,-80 171,-82 -33,106 -64,42 -72,111z"/>
   <path class="fil0" d="M13016 13862l-45 56c62,28 45,14 99,-4l22 37c-5,1 -13,-1 -17,5l-93 3c13,65 6,49 30,89l-13 -12c-2,0 -8,-1 -10,-2 -3,0 -11,-1 -14,-1 -3,0 -10,-1 -16,-1l6 56c-95,-5 -56,-18 -94,53 30,28 -27,7 63,22l-29 20c-75,-4 -94,11 -84,-111 -80,4 -56,5 -94,-32 173,3 135,-5 143,30 22,-26 14,-5 15,-23 0,-8 -5,-22 -12,-55l28 -16c2,-1 9,-6 12,-7 2,-2 8,-6 10,-7 2,-1 7,-5 10,-7l-66 -22c-4,-2 -10,-6 -14,-7 -76,-31 -1,-78 4,-113 38,16 72,17 144,10l15 39z"/>
   <path class="fil32" d="M12473 13043c0,57 -20,25 -81,54l-23 10c-68,40 -36,-29 -51,61l-36 1c-27,-113 -10,-73 -98,-113 -20,18 -39,34 -64,50 -105,-66 -4,-37 -127,-75 18,24 15,11 18,46 -138,-9 -124,-59 -135,-74l-17 -20c-2,-3 -11,-3 -13,-11 -2,-8 -10,-7 -14,-11 115,-15 91,25 178,41 65,12 158,3 221,-2 77,54 119,61 242,43z"/>
   <path class="fil33" d="M12864 13187l35 30c14,24 12,5 2,57l-50 -4 -7 -4c-3,-51 -4,-40 -49,-31 -11,-79 23,-32 -43,-64 -75,27 -24,-13 -38,50l-36 -3c-25,-4 -61,-5 -94,-8 -86,-7 -50,17 -91,-34l66 0c-26,-35 -6,-28 -49,-44 -40,-14 -10,18 -63,-11 12,-54 -20,-29 76,-23l-24 -36c124,5 105,15 207,47 34,11 67,20 99,30 58,20 69,-20 59,48z"/>
   <path class="fil12" d="M15522 9063c-28,27 15,30 -47,38l92 21 1 -26c41,10 37,4 69,11 66,14 34,2 71,31l-37 13c-59,27 -56,7 -74,-5l-56 117c-51,-25 -32,-13 -68,-46 -3,-80 5,-25 -25,-50 -67,7 -7,-5 -35,27 -45,-11 -24,0 -58,-22l-50 -39 -6 -49 80 -2 -5 -59c82,-1 61,-5 91,40l57 0z"/>
   <path class="fil11" d="M4511 12917l30 -89 17 -7c60,64 37,37 60,-29l-57 -11 0 -15c36,-14 26,-12 42,-22 4,-3 18,-10 20,-18 2,-5 7,-6 10,-9 3,65 10,14 -18,92 55,6 31,19 53,-2l6 -17c28,-59 85,-53 150,-47 -7,-136 -13,-34 40,-83 -6,60 -8,51 11,90 -114,67 -57,56 -85,173 -26,9 -39,37 -89,0 -44,-32 3,1 -27,-35 -4,-5 -7,-10 -11,-14l-152 43z"/>
   <path class="fil8" d="M6912 14127l-13 23 -57 17c-33,102 -50,15 -94,139 53,-1 -7,-14 50,3 50,15 11,2 38,29 -90,-30 -98,-6 -181,3 7,-102 50,-91 94,-145 -80,-127 -52,-32 -141,-115l45 8c26,-24 13,28 24,-27l89 63c5,-4 19,-19 28,-30l58 -71c45,31 53,42 60,103z"/>
   <path class="fil27" d="M7154 11834c30,32 -11,10 26,9 5,0 56,-13 68,-12 -8,15 -32,90 -37,103l45 38 -121 -23c-47,33 -19,-34 -11,44 -86,-35 -53,-1 -153,-16l2 -42 -55 1c6,-31 -3,-24 26,-24l-46 -25c-2,0 -8,-1 -9,-2l149 -35c53,-18 76,-26 116,-16z"/>
   <path class="fil34" d="M10230 13065l-42 18c-54,29 7,-17 -27,19 59,24 69,3 126,37 -22,30 25,39 -86,28l-35 -3c-92,-9 -77,23 -101,-72 -30,55 -46,47 -111,57 12,-55 8,-57 64,-104 5,-5 30,-23 32,-26l6 -15c2,-3 3,-10 4,-12l14 -31c75,79 67,14 122,49 60,38 11,0 34,55z"/>
   <path class="fil27" d="M11556 12827l-106 57c-71,-29 -93,-20 -142,-36 -73,-23 -18,-19 -24,-59l-48 -19 -39 63 -35 -35c-64,-54 -75,2 -193,-70 155,14 277,23 425,21l34 51c27,-2 56,-7 80,-2 50,11 35,-5 48,29z"/>
   <path class="fil33" d="M16300 14076l-32 9c-7,46 4,18 -21,65 -31,-7 -50,-9 -81,-20 -84,-28 -36,-9 -63,-37l46 -4c-30,-53 3,-37 -69,-42l0 38c-68,-35 -87,-24 -111,-88l-17 -84 89 34c61,10 59,25 121,58 59,31 0,4 65,27 40,15 -1,-9 41,15 31,18 12,9 32,29z"/>
   <path class="fil35" d="M8373 14336c-34,5 -48,11 -85,16 -62,8 -9,-12 -85,11 41,-29 12,-11 29,-74l-65 16 89 -66c88,-105 -37,-97 125,-104 74,-3 22,-45 76,24 -44,45 -13,26 -98,41 3,3 9,3 10,9 8,41 49,-22 4,127z"/>
   <path class="fil36" d="M4480 12640c-97,74 -66,159 -105,241l-17 -52c-10,-46 9,-102 23,-152 25,-100 57,-50 59,-114 65,-43 26,-5 53,-76 11,-27 2,-13 17,-39l28 -39c7,-4 9,5 25,-19 15,-23 12,-23 22,-53l41 -4c13,97 -13,92 -64,148 -27,29 -66,115 -82,159z"/>
   <path class="fil37" d="M10343 12684c-73,61 -31,-29 -67,78l-53 -2 -45 -16c-113,-30 -260,-130 -421,-96 -26,-7 -29,17 -13,-23l35 -14 72 -6c32,-23 17,29 30,-40 62,42 23,-14 73,43 2,-1 39,-27 40,-28 17,-10 5,-7 37,-15 4,69 -11,53 -40,108 110,-26 121,-18 211,31 -23,-18 -29,-27 -52,-65l110 74c31,-12 47,-17 83,-29z"/>
   <path class="fil38" d="M11007 14859c35,19 46,-34 18,42l-85 49c-2,2 -7,7 -10,9l-31 -73 -150 -4c2,-43 6,-47 10,-80l22 -90c2,4 6,6 7,13l30 60c141,-15 43,17 170,37l19 37z"/>
   <path class="fil39" d="M12060 13845c-26,25 -25,19 -52,49 -68,-62 -30,-14 -162,-2 -39,3 -4,-15 -63,9l93 -171c29,-39 37,-29 58,-38l59 73c38,53 24,41 67,80z"/>
   <path class="fil7" d="M7992 14382l-17 -5c-86,-20 -59,16 -158,-13l-5 -52 64 -12c20,-83 20,-49 57,-104 25,13 30,17 65,25 49,11 28,-11 84,31 -23,59 15,6 -40,67 -35,40 -9,-17 -50,63z"/>
   <path class="fil21" d="M15937 13813c-40,39 51,12 -59,36l14 29c-50,16 -36,-32 -40,41l-15 -12c-1,0 -35,-7 -36,-8 -28,-12 -22,-11 -36,-22l-56 4c-44,-42 -166,-85 -242,-97 -6,-3 -35,-16 -37,-24 -4,-11 -12,-14 -18,-23l88 23c84,-22 54,-10 111,14 59,26 46,12 109,26 46,10 44,26 95,20 75,-8 25,-45 122,-7z"/>
   <path class="fil0" d="M13655 14083l31 -26c46,24 52,-32 44,31l-12 -82c73,-4 76,-15 155,-18l9 -60 25 -3c-7,120 17,84 -45,154 -40,45 -44,76 -125,86l-57 -62c-3,-3 -9,-8 -12,-10 -3,-2 -9,-6 -13,-10z"/>
   <path class="fil2" d="M6746 13343l-107 -20c-33,42 -57,56 -85,113l86 69c-98,77 -125,30 -156,-13 25,-44 -5,-21 54,-56l-56 -29 59 -42 -25 -59c14,-3 64,-11 72,-11 75,-4 -17,18 60,3 50,-9 45,-80 98,45z"/>
   <path class="fil40" d="M8611 13448l-6 4c-41,37 -25,36 -114,32 14,94 -11,83 -16,92l-127 -66c-21,-20 -18,-17 -31,-50l30 -56c20,5 52,15 55,17l2 14c34,-63 -14,-28 77,-59 -28,89 -62,100 22,90 23,-67 24,-5 -3,-81l49 51c5,-1 10,-3 12,-4 3,-1 9,-4 12,-6l38 22z"/>
   <path class="fil21" d="M7963 13321l6 -84 -41 14c-5,-88 5,-17 -29,-51 -86,26 -44,48 -119,32 -29,-69 1,-89 25,-130l-53 -105c93,12 85,-27 93,67 6,71 -48,31 31,103l139 -29c0,2 -2,8 -3,10 -2,2 -40,22 -41,23 20,97 35,67 -8,150z"/>
   <path class="fil10" d="M6558 12626c-3,-2 -8,-11 -10,-7 -3,4 -10,-6 -13,-7 -4,-2 -48,-14 -52,-14 30,-16 33,-27 39,-34l3 -97 15 -7 48 52c49,-5 53,-7 89,-24 10,19 19,37 32,42 2,1 8,1 10,1l49 0c2,0 7,-1 8,-1 2,0 6,-2 7,-3 53,-9 -56,-35 18,-5l40 42c1,5 -1,13 0,18 1,5 -1,13 -2,19l-28 -5c-146,-36 -85,-20 -121,5 -43,-80 -21,-55 -109,-72 4,6 9,6 12,17 2,10 20,29 24,35 13,19 22,33 36,57l-95 -12z"/>
   <path class="fil41" d="M6522 14084l4 70c1,0 14,-21 49,64 -173,-35 -230,-5 -328,-133l21 -29c14,51 26,46 69,66 60,-40 30,-8 68,-70 34,55 32,34 117,32z"/>
   <path class="fil40" d="M6918 11936l-168 -27c-15,-10 -8,-9 -42,-18 -4,-1 -32,0 -38,0l7 -55c30,26 16,-32 28,30 0,-1 24,-42 24,-43l51 10c92,-30 42,-14 133,-7 28,1 56,-2 75,1 74,11 26,-2 50,23l-149 35c1,1 7,2 9,2l46 25c-29,0 -20,-7 -26,24z"/>
   <path class="fil26" d="M17244 13284l7 -15 117 -24c-15,-24 -16,-25 -20,-69 -87,10 -20,20 -97,0l-21 -37 3 -37 58 -4 -29 -94 63 -8c-20,49 -31,55 1,105l87 75c-10,78 3,62 -19,152l-56 -1c0,-5 1,-13 1,-10l6 -16c12,-45 26,12 0,-26l-101 9z"/>
   <path class="fil42" d="M9243 12604l-42 23c-51,-29 -69,-39 -150,-22l-29 -30c-27,-20 -3,-8 -31,-17 -31,-10 -71,-13 -107,-27l-7 -22 33 -2c101,-24 56,-38 143,20l90 -37c23,58 13,41 88,62l12 52z"/>
   <path class="fil43" d="M3614 7226l5 -18c2,-4 6,-15 7,-13 16,36 12,-21 14,-26l28 -37 14 -85c45,-1 104,0 141,-11 75,-22 30,-37 106,-59l40 6c-4,1 -86,7 -20,48 -92,53 -57,55 -210,65l34 54c-49,24 -31,7 -66,38 -1,2 -5,6 -6,7l-87 31z"/>
   <path class="fil18" d="M6471 12066l-64 -2c103,163 -103,-80 78,75 -53,40 -4,-8 -36,35 -1,1 -12,23 -18,32l0 -7c-1,-15 11,-74 -39,-71 -88,7 61,-50 -34,36 -1,1 -5,3 -6,4 -2,1 -7,3 -8,4l-74 -41 -6 -117c47,4 78,6 125,16 7,1 40,9 43,10 32,14 22,13 39,26z"/>
   <path class="fil44" d="M15035 13706l2 27 95 0 -9 42c-175,-19 -383,-20 -490,-112 75,-9 130,-2 193,23 88,35 100,17 209,20z"/>
   <path class="fil2" d="M8308 13302l-67 -13c-13,17 -50,-35 1,45 -56,18 -30,-5 -76,36l-39 -64c42,-23 4,-20 62,5 -6,-169 34,-29 -3,-162l76 41c20,-75 -17,-52 71,-64 40,127 -32,4 -25,176z"/>
   <path class="fil13" d="M5227 12115l-9 25c-14,45 -24,45 -50,83l-55 2 -34 -1c25,-49 -29,-6 40,-49 -32,-77 -14,8 -28,-76 25,-31 49,-60 68,-92 75,29 9,-3 59,44 -12,-79 -6,-17 24,-44 1,5 3,8 4,15l-19 93z"/>
   <path class="fil45" d="M8903 14162l-12 -31c-12,-29 5,-10 -20,-31 -47,-39 -34,8 -62,-71 27,-56 -8,-9 60,-55l-12 -29c-1,-3 -8,-21 -11,-27 224,-20 61,239 57,244z"/>
   <path class="fil13" d="M4630 12650l3 67c-3,3 -8,4 -10,9 -2,8 -16,15 -20,18 -16,10 -6,8 -42,22 -57,-43 -77,-14 -69,-16l-12 -110c38,-14 67,-18 79,-107l78 6 -71 68 64 43z"/>
   <path class="fil26" d="M10343 12684c-36,12 -52,17 -83,29l-110 -74c23,38 29,47 52,65 -90,-49 -101,-57 -211,-31 29,-55 44,-39 40,-108 109,48 247,39 312,119z"/>
   <path class="fil5" d="M7538 12087l73 -8c38,23 55,31 109,37 75,35 114,50 206,40 4,21 -68,44 -83,48l-131 -15c-43,-25 -67,-29 -112,-47 -46,-20 -97,-24 -122,-36l0 -35c30,24 -49,26 60,16z"/>
   <path class="fil21" d="M4457 13466l-78 2c60,-16 -11,20 41,-15l-37 -62c-4,-3 -10,-7 -15,-11l28 -74c-45,-60 -21,-8 -32,-86l-1 -62c32,-18 -31,-27 58,-13l3 -51 3 6 3 68c-23,62 -15,94 -9,168l49 -5 -25 68 48 28c41,22 15,-7 43,27 -81,60 1,31 -79,12z"/>
   <path class="fil46" d="M13157 14002l-5 44c-77,-44 34,9 -117,26 -41,101 -41,86 -90,99l20 -83 -6 -56c6,0 13,1 16,1 3,0 11,1 14,1 2,1 8,2 10,2l13 12c-24,-40 -17,-24 -30,-89l93 -3c4,-6 12,-4 17,-5l13 45 52 6z"/>
   <path class="fil22" d="M6750 11909l3 32 -74 0c-74,7 -81,8 -145,-4 -73,-14 -90,2 -156,-9 18,-71 -1,-26 24,-76l125 26c50,0 61,38 61,-23l20 6 82 58 60 -10z"/>
   <path class="fil25" d="M8512 13360l-12 25c27,76 26,14 3,81 -84,10 -50,-1 -22,-90 -91,31 -43,-4 -77,59l-2 -14c-3,-2 -35,-12 -55,-17l-30 56c3,-72 10,-34 -12,-78l-35 -47c-48,6 -29,12 -29,-46l67 13 -11 3c54,34 23,-33 48,39 92,-32 78,7 167,16z"/>
   <path class="fil47" d="M15500 13760l-88 -23c6,9 14,12 18,23 2,8 31,21 37,24l-344 -9 9 -42 -95 0 -2 -27c87,25 156,7 223,11 36,2 71,9 115,10 69,3 89,-7 127,33z"/>
   <path class="fil33" d="M17413 12884l-42 2c-18,91 18,57 -71,78 39,17 16,-3 25,32l-63 8 29 94 -58 4 2 -122c59,-77 -33,-21 76,-98l32 -34c48,-27 32,-2 48,2l-4 -71c52,15 32,63 26,105z"/>
   <path class="fil48" d="M12009 14207c-7,72 -20,82 -57,137l-36 9 -63 -41c-27,-21 -21,-21 -36,-60l97 -40c60,-17 39,-24 95,-5z"/>
   <path class="fil49" d="M9227 14778c-129,11 -128,4 -226,-63l26 -24c8,-7 39,-34 43,-38 83,15 138,28 157,125z"/>
   <path class="fil50" d="M11832 12961c-48,20 -50,13 -91,-14l-36 -31 -58 38c-64,-12 -66,6 -82,-32l-9 -95 192 60c20,38 6,21 28,37 3,2 9,5 12,7l44 30z"/>
   <path class="fil51" d="M16524 10415c-23,63 -59,121 -149,89 -60,-22 -24,-1 -49,-54 26,-55 -50,-52 88,-55 33,0 93,11 110,20z"/>
   <path class="fil0" d="M7592 14252c-3,4 -7,6 -8,14l-52 70c-6,-89 -10,-91 -55,-85 -12,1 5,9 -34,1 0,0 -56,-78 35,-111 100,-36 86,54 86,55 0,1 2,6 3,7 0,2 3,7 4,9l21 40z"/>
   <path class="fil21" d="M10760 13862l-58 29c-56,-27 -90,-75 -110,-133l132 -28c44,66 26,36 36,132z"/>
   <path class="fil52" d="M5353 12204l-2 7 -50 43c-1,3 -1,11 -3,15 -22,50 14,17 -40,39 -45,-30 -12,13 -24,-59 14,-68 24,-71 -16,-109l9 -25c46,-15 11,-16 50,13 62,-62 -14,-22 71,-55 -13,73 -15,39 -29,97 69,0 6,-6 34,34z"/>
   <path class="fil53" d="M6187 12514l19 -17c16,45 -40,1 31,41 -64,43 5,14 -73,43l25 13c68,70 -16,-51 18,18 14,28 0,39 -11,54 -85,110 -14,48 -83,118 -30,-29 -83,-38 2,-143 59,-74 -11,27 72,-127z"/>
   <path class="fil20" d="M10561 13143l30 -69 -89 21 -6 -76c43,58 94,31 262,-9 -3,8 -7,11 -10,24 -3,11 -6,15 -10,20 -4,4 -8,10 -12,15 -20,22 -6,-24 -58,67l-17 28c-57,-26 -23,-24 -90,-21z"/>
   <path class="fil54" d="M10517 12835l-63 -18c43,66 1,4 78,63 -19,13 -10,87 -105,-20l-114 -13c-5,-2 -10,-5 -14,-7 -5,-3 -27,-16 -33,-19 5,65 11,42 -24,89l-97 -42c38,8 7,17 46,-16l68 -72c68,34 30,34 125,50 69,12 20,-2 73,-12 63,-11 42,-13 60,17z"/>
   <path class="fil0" d="M12611 14151c6,1 27,4 31,5l103 40c-16,22 -6,46 -62,44l-107 -52c-39,-18 -71,-15 -97,-77 96,-18 66,-20 165,-10 -19,37 -6,18 -33,50z"/>
   <path class="fil34" d="M7523 13448c-26,41 23,11 -52,37 -17,52 -15,12 0,93l-97 -49c-3,-1 -10,-4 -15,-7 -4,-61 -2,-86 75,-137l89 63z"/>
   <path class="fil55" d="M7883 13750l3 -72c-32,10 -49,13 -67,28 -37,30 -25,1 -31,63l-18 4c-35,-81 -38,-50 -80,-78 19,-31 24,-34 36,-78 5,2 12,1 15,8 8,26 109,29 120,31 46,-59 1,-34 56,-53 13,42 11,5 1,55 -14,76 -9,69 -35,92z"/>
   <path class="fil42" d="M6316 12433l49 33 -17 63c-83,-31 -19,-6 -51,-37 -36,-35 -12,-21 -49,-33l-21 -40 -109 -9c29,-18 47,-52 64,-76l62 6c51,74 45,6 40,89l32 4z"/>
   <path class="fil18" d="M4379 13468c-84,-91 -2,-66 -125,-94l63 -68 -15 -70 10 6 52 -22c11,78 -13,26 32,86l-28 74c5,4 11,8 15,11l37 62c-52,35 19,-1 -41,15z"/>
   <path class="fil56" d="M12029 14382l-29 11c-28,-80 2,-14 -48,-49 37,-55 50,-65 57,-137 136,55 111,142 129,106 2,-4 8,9 12,13 -82,45 -104,-15 -121,56z"/>
   <path class="fil4" d="M15310 9022l-11 62 6 49c-9,26 -80,1 -99,-19l0 -54c-28,-23 -40,-33 -62,-50 26,-34 -40,-74 48,-6 63,-17 84,-35 118,18z"/>
   <path class="fil57" d="M5381 11883l-46 -5 29 -70c2,-8 7,-9 7,-12l-25 -31 33 -7 160 -9 14 45c-52,4 -51,-6 -85,20 -38,29 -13,-2 -23,57l-64 12z"/>
   <path class="fil18" d="M12771 13580l26 51c-66,10 -61,-9 -74,62l-30 -49c-13,-22 -23,-50 -34,-72l-120 -9 -9 -64c109,21 132,61 244,68l-3 13z"/>
   <path class="fil58" d="M8567 7661c-28,42 -21,-37 -22,61l-102 35c6,-37 -36,-22 -73,-82 86,-61 49,8 98,-63 48,17 69,29 99,49z"/>
   <path class="fil23" d="M9726 14459c-82,-27 -23,28 -61,-61 -31,-1 -43,2 -73,-7 -71,-21 -48,-25 -72,-46 15,-8 14,-17 51,-20 79,-7 -1,24 137,-9 11,109 50,51 18,143z"/>
   <path class="fil33" d="M8159 12262l-138 -19 -178 -39c15,-4 87,-27 83,-48l84 60 177 -4c66,11 41,6 83,50 -6,-1 -47,-8 -53,-7 -7,0 -15,-1 -22,0l-36 7z"/>
   <path class="fil59" d="M5890 13463l-52 1 19 54 -104 -14 -8 -2c9,-69 41,-115 89,-160 13,12 19,8 36,43 15,29 15,40 20,78z"/>
   <path class="fil11" d="M6192 13325l-95 7c26,60 40,47 9,104 -71,-12 -39,-11 -83,15 -16,-79 -20,-19 -33,-123 77,15 58,-10 82,44 10,-75 52,-86 118,-101l2 54z"/>
   <path class="fil60" d="M13086 13276l-6 -67 154 4 21 88c-67,30 -109,14 -169,-25z"/>
   <path class="fil1" d="M6912 14127c-7,-61 -15,-72 -60,-103 0,-6 -33,-81 62,-75 73,4 60,64 64,117 -4,4 -8,9 -10,12 -3,2 -8,8 -11,11l-33 29c-2,-4 -8,6 -12,9z"/>
   <path class="fil26" d="M12493 13176l-175 -8c15,-90 -17,-21 51,-61l23 -10c61,-29 81,3 81,-54l26 19 24 36c-96,-6 -64,-31 -76,23 53,29 23,-3 63,11 43,16 23,9 49,44l-66 0z"/>
   <path class="fil8" d="M7066 14543c0,83 7,26 -23,43 -87,-39 -38,-33 -79,-87 -51,-69 -9,-11 -58,-38l-59 -42c-12,-114 -7,-11 29,-56 7,71 -24,27 18,57 36,-18 71,-23 129,-22 -26,45 -19,21 -35,76 22,24 30,30 42,71l36 -2z"/>
   <path class="fil59" d="M5351 12211l2 -7c5,-3 20,-11 22,-11 13,-1 0,-10 23,6l15 -129c16,57 4,31 42,74 51,57 -15,10 62,49l-51 67c-37,-41 -11,-14 -78,-26 3,7 7,11 8,22l-18 34c-39,56 -12,5 -34,64l7 -143z"/>
   <path class="fil32" d="M5167 11192l13 122c-67,-8 -25,-13 -88,15 -51,-48 -39,-42 -32,-149 112,-1 -10,-3 70,11 35,6 -18,11 37,1z"/>
   <path class="fil53" d="M7975 14377l17 5c41,24 25,-4 55,34 56,-51 8,-38 79,-53l-3 93c-56,31 -82,30 -159,30 5,-87 -12,-52 11,-109z"/>
   <path class="fil55" d="M10750 12875l-67 -18c-3,66 -5,48 -43,105 -42,62 -13,50 -86,69 34,-95 29,-47 74,-114 -61,-65 -71,-48 -92,-89 66,12 74,5 113,5 2,0 48,5 56,8 49,20 15,-12 45,34z"/>
   <path class="fil61" d="M17235 12980l-2 122 -3 37c-68,0 8,-72 -44,-252l-46 -249c60,34 14,19 42,107l23 51c1,4 2,9 4,14 55,193 -33,150 26,170z"/>
   <path class="fil28" d="M6852 14024l-58 71c-9,11 -23,26 -28,30l-89 -63c30,-20 -54,-47 86,-17l-13 -120c7,2 15,5 21,7l58 50c-18,33 -19,-16 -13,29l36 13z"/>
   <path class="fil62" d="M17485 13319c-84,0 -37,-45 -40,-86l2 -32c-4,-52 -19,-69 -42,-117l47 -57c51,-7 11,-12 36,120 28,147 -34,43 -3,172z"/>
   <path class="fil33" d="M6482 11801c24,18 -30,26 78,24 0,0 17,6 -16,31l44 -1c0,61 -11,23 -61,23l-125 -26c-45,-47 -16,-23 -67,-40l-54 -27 177 0 24 16z"/>
   <path class="fil54" d="M8845 12538c2,71 9,68 -26,116 -55,-111 -133,-98 -136,-99 -76,-24 -31,-4 -50,-53 86,1 177,20 212,36z"/>
   <path class="fil31" d="M12393 11918l2 102c-59,-1 -60,8 -103,-14 -7,-4 -28,-25 -31,-29 -23,-29 -4,-4 -25,-43l33 -17c29,-8 88,-15 124,1z"/>
   <path class="fil63" d="M8611 13448l-38 -22c-3,2 -9,5 -12,6 -2,1 -7,3 -12,4l-49 -51 12 -25 94 13c2,3 5,-8 6,-5 19,41 -14,-17 52,-55 -21,54 -18,40 -26,86 56,41 47,35 58,74 -42,34 33,-2 -45,32l-40 -57z"/>
   <path class="fil20" d="M9721 13613l-51 -5 -11 30c-110,8 -30,7 -61,-17 -36,-121 -1,-30 19,-119l102 29 2 82z"/>
   <path class="fil21" d="M8492 13992l-97 -3c-1,-90 78,-114 155,-133 3,74 20,9 -11,66 -3,6 -15,18 -19,23 -22,35 1,-10 -28,47z"/>
   <path class="fil0" d="M6175 12866c79,-21 5,13 55,-22 15,-11 10,-14 11,-20 44,67 58,105 -38,94 -1,0 -6,-3 -8,-3 -33,-2 -3,5 -59,22 -25,-73 -28,-76 -18,-159 49,50 45,11 57,88z"/>
   <path class="fil20" d="M9994 13329c-68,20 -22,-21 -54,33l-9 81c105,-23 66,7 75,-44 41,26 53,1 59,58 -40,17 -25,1 -62,14 -39,13 -26,11 -59,34l-49 -51c19,-85 10,-97 49,-162l36 13c1,2 7,9 9,11 2,1 3,9 5,13z"/>
   <path class="fil2" d="M10210 13269l-17 93 -63 8c-19,-103 -60,-77 0,-157 60,3 48,-8 80,56z"/>
   <path class="fil28" d="M7204 14053l3 12c19,26 19,32 39,71 -138,-22 -88,-18 -120,-44l-68 -44c25,-26 -11,-27 97,-50l49 55z"/>
   <path class="fil55" d="M8512 13360c-89,-9 -75,-48 -167,-16 -25,-72 6,-5 -48,-39 4,-4 10,-15 12,-11l86 -33 48 10 12 -32c28,28 14,18 66,24l-51 62 42 35z"/>
   <path class="fil11" d="M9168 12843c-59,51 10,107 -85,47 22,129 22,18 -40,113 -22,-28 -39,-5 -11,-66 1,-3 5,-7 6,-10 2,-3 9,-12 11,-16 26,-39 37,-68 31,-134 86,44 17,23 88,66z"/>
   <path class="fil63" d="M10569 13878c-68,23 -28,12 -82,37l-20 -2c-14,-65 10,-36 -66,-61l10 -62 161 40 -3 48z"/>
   <path class="fil18" d="M10031 12565c-32,8 -20,5 -37,15 -1,1 -38,27 -40,28 -50,-57 -11,-1 -73,-43l-42 -19c-52,-3 1,4 -23,-41l128 1c16,7 36,12 51,22 42,27 20,12 36,37z"/>
   <path class="fil64" d="M7538 12087c-109,10 -30,8 -60,-16l0 35c-63,-17 -66,-41 -100,-77l-57 1c7,-55 -14,-17 20,-53l122 38c46,18 53,32 75,72z"/>
   <path class="fil55" d="M9317 14075l-6 69 61 -47 -56 -15c5,-2 13,-13 16,-7 2,3 103,-28 75,62 -12,38 -26,33 -40,37l-95 -7c-3,-1 -10,-3 -12,-4 -2,0 -8,-2 -11,-4l9 -76 59 -8z"/>
   <path class="fil38" d="M3789 13046c-55,-34 -40,46 -51,-73 -10,-105 18,-68 51,-85 37,47 24,-60 34,65 13,148 -11,63 -34,93z"/>
   <path class="fil65" d="M11110 12897l-65 -1 -20 11 -104 9c21,39 7,4 15,63 -63,-19 -24,-6 -103,18 15,-33 23,-51 30,-101 -43,12 -45,23 -100,-13 77,12 65,-11 165,0 63,6 130,-3 182,14z"/>
   <path class="fil11" d="M7958 13969c-106,20 -71,50 -165,64l-2 -50c55,-27 224,-115 268,-107 -52,22 -64,29 -101,93z"/>
   <path class="fil66" d="M4440 12563l20 -72c-85,-25 -66,-12 -78,-91l156 9 -28 39c-15,26 -6,12 -17,39 -27,71 12,33 -53,76z"/>
   <path class="fil67" d="M6881 7401c-57,7 -61,21 -73,-27 39,-46 22,-27 42,-81l137 -6 -106 114z"/>
   <path class="fil68" d="M16853 10297c-37,-15 -37,-30 -38,-80l-15 -402c34,18 39,-13 37,116 -2,106 -24,239 16,366z"/>
   <path class="fil69" d="M4321 7902l-7 101 38 19 -15 23 -64 -17c-10,-114 10,-126 -84,-151l33 -34c15,-16 14,-14 26,-27 34,40 26,-36 20,79l53 7z"/>
   <path class="fil33" d="M7305 12212l2 35c-34,-2 -36,2 -66,-7 -4,-1 -8,-4 -12,-5l-26 -12c-90,-35 -59,-32 -123,-1l20 -71c43,3 104,7 136,20 24,10 21,24 69,41z"/>
   <path class="fil70" d="M4151 13119l-31 -25c-2,-2 -8,-7 -12,-10 106,-129 48,-110 109,-132l45 -35c-9,51 -27,79 -44,115 -35,75 -2,40 -67,87z"/>
   <path class="fil71" d="M4859 8858c15,89 6,14 -19,46 -38,-159 -87,-159 -121,-199 -19,-22 -21,-34 -50,-63l16 -20 42 2c80,192 63,71 114,169 21,41 12,37 18,65z"/>
   <path class="fil6" d="M11565 12922c16,38 18,20 82,32l31 41c3,5 8,13 12,19l-90 -13c-5,-1 -12,-6 -14,-2l-53 -16c-39,-12 -37,-11 -81,-16l3 -22c54,-28 70,-35 110,-23z"/>
   <path class="fil72" d="M5167 11192c-55,10 -2,5 -37,-1 -80,-14 42,-12 -70,-11 -7,107 -19,101 32,149l-59 -2c-7,-139 7,-47 -47,-135 72,-21 44,-5 73,-74 38,39 -8,12 50,41l23 -20c2,-2 7,-7 9,-8 2,-2 7,-9 11,-13 1,36 7,59 15,74z"/>
   <path class="fil73" d="M4500 13128c-49,-27 -9,-9 -73,-28l-3 -6c6,-55 5,-39 33,-85l15 2 65 -7 -2 117 -35 7z"/>
   <path class="fil35" d="M6071 12168c-55,-96 2,-82 68,-107 44,2 36,-11 41,21 34,6 28,-22 15,42l-124 44z"/>
   <path class="fil21" d="M7982 12733l-42 -13 -38 28 7 49 -67 -18 -18 -85c52,-25 46,-26 88,10l60 -55c2,58 -4,44 10,84z"/>
   <path class="fil43" d="M4106 8337l-7 -145c48,-25 33,22 43,-25 19,39 26,74 30,129 5,55 8,92 -66,41z"/>
   <path class="fil20" d="M8348 13510l127 66c5,-9 30,2 16,-92 89,4 73,5 114,-32l-43 154c-84,3 -87,-19 -124,-59l-90 -37z"/>
   <path class="fil74" d="M5752 11968l27 -11c40,58 -9,30 55,50l57 -61c-10,69 -10,41 -8,115 -33,15 -101,49 -123,40 0,0 20,40 22,-40 2,-61 -23,-81 -30,-93z"/>
   <path class="fil25" d="M5891 11946l-57 61c-64,-20 -15,8 -55,-50l-27 11c-12,-59 0,-8 27,-81l73 17 20 0 19 42z"/>
   <path class="fil2" d="M5454 13024c45,-15 18,27 43,-33l-42 -37c94,-27 136,2 178,84 -41,-24 -41,-28 -77,-58 -37,58 -1,26 -19,89 -36,-4 -17,32 -83,-45z"/>
   <path class="fil33" d="M6058 12414l-50 -32c-43,15 -21,-1 -39,29 -4,-10 -116,-141 95,-106 -35,36 33,11 -38,37l52 52 -20 20z"/>
   <path class="fil55" d="M7372 12761c-66,-32 -73,-26 -106,-126 56,-7 35,-9 105,-25l1 151z"/>
   <path class="fil65" d="M5234 12249c-37,33 -32,-52 -32,74 -6,-4 -16,-18 -20,-13 -17,21 -69,-85 -69,-85l55 -2c26,-38 36,-38 50,-83 40,38 30,41 16,109z"/>
   <path class="fil75" d="M6780 11833l-51 -10c0,1 -24,42 -24,43 -12,-62 2,-4 -28,-30 -89,-1 -50,1 -69,25l-20 -6 -44 1c33,-25 16,-31 16,-31 -108,2 -54,-6 -78,-24 68,-1 99,-20 158,-3 35,11 1,17 65,17 44,0 41,-48 75,18z"/>
   <path class="fil14" d="M12415 13454l70 11 7 59 -75 -21c-44,-16 -17,-6 -47,-18 -49,-20 -13,15 -50,-27 -20,-25 -26,-41 -38,-59 109,13 46,22 133,55z"/>
   <path class="fil72" d="M16378 14104c32,36 7,24 58,38 16,4 51,-1 65,-1l15 14c-38,38 -149,44 -196,-3 50,-42 6,19 -2,-72l60 9 0 15z"/>
   <path class="fil33" d="M4254 13374c-31,59 14,84 -48,113 14,-57 8,-70 -12,-112 137,-67 -19,-82 108,-139l15 70 -63 68z"/>
   <path class="fil50" d="M10536 12828l-19 7c-18,-30 3,-28 -60,-17 -53,10 -4,24 -73,12 -95,-16 -57,-16 -125,-50l-36 -20 53 2c12,6 56,31 58,33 161,-75 73,41 162,-14l40 47z"/>
   <path class="fil31" d="M5243 11956l-8 -87 75 -3 27 48c-30,56 9,35 -42,93l-52 -51z"/>
   <path class="fil27" d="M11301 13101c18,-20 51,-9 106,-23l79 -4c-27,30 38,79 -179,52l-17 71c-20,-74 -47,-1 11,-96z"/>
   <path class="fil76" d="M9796 12515c-37,17 -19,-1 -22,21 0,5 6,61 5,75l-35 14 -36 0 14 -98 -40 -18c59,-48 20,-28 76,-36 23,17 28,29 38,42z"/>
   <path class="fil29" d="M5548 13501c-90,-10 -114,-29 -140,-102 21,-8 57,-49 112,35 23,34 15,15 28,67z"/>
   <path class="fil34" d="M9781 13288c-1,99 -29,69 -83,27 -51,-40 -21,-10 -44,-74 69,1 85,-15 127,47z"/>
   <path class="fil33" d="M8748 12317l9 67 34 12c11,-15 36,22 -4,-59l47 0 29 42 -34 -24 8 33c-56,110 67,7 -31,26 -95,19 -73,-30 -75,-35l-112 -61 42 10c5,-5 27,-21 31,-23 33,-16 -45,-6 25,0l31 12z"/>
   <path class="fil10" d="M9212 13121c-6,54 -22,45 25,45 37,-32 13,7 17,-50 9,-18 -3,-21 13,-38 78,4 88,2 42,96l-16 24c-35,-23 28,-15 -110,-15 -2,-127 -6,-11 29,-62z"/>
   <path class="fil51" d="M5323 13825c-128,-40 -99,-8 -196,17l-6 -78c38,11 38,6 63,22 27,-10 15,-4 40,-17l40 -24c11,51 -49,30 60,32l-1 48z"/>
   <path class="fil77" d="M7812 14257c-34,15 -20,8 -62,12 -25,-83 37,-44 -48,-65l10 -61 57 -9c28,58 32,51 43,123z"/>
   <path class="fil76" d="M6918 11936l-21 46c-35,0 -20,5 -40,11l-43 3c37,-24 33,49 30,-42 -106,-15 -24,-11 -59,23 -69,-17 -74,1 -106,-36l74 0 -3 -32 168 27z"/>
   <path class="fil78" d="M4799 9812l-18 35c-78,-79 -16,-40 -114,-40 -43,-33 -36,-29 -28,-66 1,0 -2,-44 90,12 33,20 58,40 70,59z"/>
   <path class="fil79" d="M7040 13436l-24 44c-18,35 -1,-20 -17,36l-33 -16c-4,-3 -22,-12 -26,-16 -34,-29 -16,-10 -33,-51 121,-58 120,-5 133,3z"/>
   <path class="fil20" d="M10917 13280c-11,-125 -56,-65 -80,-141 74,-37 122,31 119,75 -8,128 6,20 -39,66z"/>
   <path class="fil78" d="M4930 12057l101 -57c46,-37 31,41 41,-38 4,8 42,-24 10,51l-75 78c-1,-3 -6,8 -9,11 -68,-32 -49,-2 -58,-34 -2,-6 -7,-7 -10,-11z"/>
   <path class="fil80" d="M10079 14628c-20,57 -104,26 -141,-5 31,-63 -37,-21 85,-39l52 -16 4 60z"/>
   <path class="fil39" d="M10294 13519c68,-86 21,7 73,-70l34 -29 29 70c-17,13 -24,22 -43,32 -68,39 -19,12 -85,35l-8 -38z"/>
   <path class="fil81" d="M15605 9261l-64 2 56 -117c18,12 15,32 74,5l36 38c-66,25 -63,-6 -102,72z"/>
   <path class="fil82" d="M6268 14056c-3,-5 -6,-19 -8,-16 -2,3 -7,-12 -9,-16 -3,-5 -25,-37 -26,-39 65,4 41,-5 85,-2 68,4 35,1 70,18 -20,35 25,24 -52,56 -31,13 -20,4 -60,-1z"/>
   <path class="fil11" d="M4767 13028l-26 55c-36,-32 -24,49 -33,-66 -70,-2 -59,9 -89,-53 6,0 62,12 66,11l40 -46c8,81 6,40 42,99z"/>
   <path class="fil83" d="M6430 12416l-14 6c-35,-31 -44,52 -27,-39 -35,17 -10,25 -26,-5l34 -66c36,43 11,11 53,26 35,12 -4,-7 29,14l22 17c3,2 9,7 13,10l-84 37z"/>
   <path class="fil53" d="M7812 14257l0 55 -41 31 -37 -51c-107,-168 -25,-146 -22,-149l-10 61c85,21 23,-18 48,65 42,-4 28,3 62,-12z"/>
   <path class="fil41" d="M10079 14628l-4 -60 -52 16 62 -120c2,-4 5,-10 8,-14 42,27 67,41 -14,178z"/>
   <path class="fil1" d="M8464 13788c-4,4 -9,5 -10,12l-99 72c0,-79 -3,-68 15,-144 28,9 18,0 48,19 41,27 24,20 46,41z"/>
   <path class="fil78" d="M4176 6662c-9,56 -28,10 -108,11 -47,44 -43,47 -97,61 22,-39 44,-66 78,-98 73,-7 93,-13 127,26z"/>
   <path class="fil33" d="M4457 13009c-28,46 -27,30 -33,85l-3 51c-89,-14 -26,-5 -58,13l1 62 -52 22c19,-29 28,-31 35,-70 18,-94 -2,-51 -10,-61 39,-34 -9,-26 58,-12 7,-135 2,-60 34,-94l28 4z"/>
   <path class="fil84" d="M4947 12341l-37 35 -74 -7c12,-39 59,-80 95,-102 40,30 27,-29 36,38 -17,30 12,24 -20,36z"/>
   <path class="fil85" d="M5779 11887c-27,73 -39,22 -27,81 -43,15 -6,2 -25,33 -1,-8 31,-20 -20,-24 -80,-6 -35,15 -40,29 -30,-67 -31,-24 4,-87l13 -44 21 -3c7,7 23,61 74,15z"/>
   <path class="fil71" d="M4054 7157c-17,-15 -88,42 -15,-66 18,-27 40,-28 74,-49l12 -36 16 24 2 46c-64,40 -51,42 -89,81z"/>
   <path class="fil76" d="M7899 12074c32,91 18,26 -19,51 -78,-18 -44,-29 -130,-31 -3,-5 -6,-20 -8,-16 -1,3 -5,-13 -7,-17 -3,-4 -22,-37 -25,-42 66,22 42,29 83,42 42,14 59,0 106,13z"/>
   <path class="fil20" d="M9194 14092l-69 -46 65 -52c107,-27 26,-7 60,17 -18,110 18,22 -56,81z"/>
   <path class="fil50" d="M6925 13015c-2,-1 -59,-7 -58,-117 2,-109 -2,-29 27,-68 34,39 22,-24 27,100 1,36 9,37 4,85z"/>
   <path class="fil63" d="M7017 13299l-61 0 30 -105c2,-7 1,-11 2,-18 2,-7 0,-12 2,-19l16 -51c53,72 12,82 11,193z"/>
   <path class="fil64" d="M17251 13269l0 -93c77,20 10,10 97,0 4,44 5,45 20,69l-117 24z"/>
   <path class="fil43" d="M16766 10943c-36,20 -17,-16 -26,-60 -5,-25 -8,-53 -10,-80l56 -38c-11,75 -9,100 20,169l-40 9z"/>
   <path class="fil86" d="M9585 14126c-21,-71 -12,-23 -42,-72l66 -37c47,58 36,41 47,118l-71 -9z"/>
   <path class="fil87" d="M5346 11765l25 31c0,3 -5,4 -7,12l-29 70 -25 -12c-5,-54 4,-18 -42,-51 -2,-1 -8,-7 -11,-8 -2,-2 -9,-4 -11,-10 -2,-7 -8,-8 -13,-13l44 -36 42 61c9,-70 -3,-28 27,-44z"/>
   <path class="fil88" d="M9216 13515c-92,-7 -85,14 -118,-61 76,-51 102,-47 118,61z"/>
   <path class="fil64" d="M9684 12635c-43,-2 -94,-8 -135,-9 -10,-1 -69,1 -70,1 -96,-26 -20,12 -56,-44l44 36c6,-73 -32,-49 49,-71 10,15 6,11 11,29 1,2 2,8 2,10l6 18c30,0 49,-3 78,2l53 18c4,-5 12,7 18,10z"/>
   <path class="fil89" d="M12857 13813c-44,-5 -42,-7 -71,-25 -21,54 -30,50 -90,51l-30 -36c60,-7 45,-18 74,-29 118,-44 106,39 111,25 2,-3 3,10 6,14z"/>
   <path class="fil11" d="M8792 13000c-54,-14 14,12 -28,-55l-57 -65 120 -23 -35 143z"/>
   <path class="fil90" d="M7344 13908c-108,1 -74,6 -106,-115 84,26 93,32 106,115z"/>
   <path class="fil91" d="M8363 12131c-92,-13 -117,-28 -223,-12 20,-25 20,-64 141,-41 104,20 67,33 82,53z"/>
   <path class="fil10" d="M5045 12321l8 -39c74,17 52,2 95,41 -3,3 -7,3 -8,8l-38 65c-1,5 -2,11 -4,15 -1,4 -3,11 -4,14 -1,3 -3,9 -5,13l-18 -58c-13,-41 -4,-26 -26,-59z"/>
   <path class="fil25" d="M13003 13269c0,29 6,18 -30,16l-72 -11c10,-52 12,-33 -2,-57l-35 -30c75,2 97,-4 153,29l-77 11 46 36c3,-5 12,4 17,6z"/>
   <path class="fil63" d="M7527 13582c-4,-80 -3,-107 72,-123 8,49 21,28 -2,81 -25,58 -15,36 -70,42z"/>
   <path class="fil81" d="M17302 12517c-32,37 -13,41 -28,107l-30 -46c-1,-2 -3,-5 -4,-6l-40 -30c-2,-7 -6,-10 -9,-15 55,-40 22,-27 88,-28l-8 -54c4,4 10,4 11,12 1,7 7,9 9,13 19,48 3,-18 11,47z"/>
   <path class="fil0" d="M5053 12282l-8 39c-60,-35 -22,63 -14,90l-64 -15c40,-38 30,2 68,-79l-88 24c32,-12 3,-6 20,-36 -9,-67 4,-8 -36,-38 15,-9 14,-12 47,-22 1,0 40,-4 46,-4 19,50 -27,43 29,41z"/>
   <path class="fil69" d="M4685 6810c12,103 11,24 -24,55l-76 -80c-27,-34 17,-5 -39,-36l-37 -35c71,7 31,-2 86,40 40,31 47,28 90,56z"/>
   <path class="fil28" d="M6362 13807c46,-49 46,-41 123,-74 -16,90 30,56 -45,94 -6,3 -25,5 -31,5 -60,-5 -23,-10 -47,-25z"/>
   <path class="fil88" d="M7986 12826l2 69c-100,-28 -4,-27 -108,-7l26 -83c0,-1 2,-5 3,-8l15 -7 62 36z"/>
   <path class="fil92" d="M11086 14286l32 17 -14 25 -108 -3 -22 -86c51,-1 18,-2 55,19 52,32 -2,8 57,28z"/>
   <path class="fil93" d="M5911 13652c32,1 13,10 35,-7 114,-25 35,-8 67,13 -25,49 16,53 -113,68l11 -74z"/>
   <path class="fil13" d="M8523 12272c-63,-1 -30,-11 -47,40l-114 -13 -20 -22c15,-77 -27,-17 31,-61 16,25 5,34 66,48 41,9 41,1 84,8z"/>
   <path class="fil27" d="M16501 14141c-14,0 -49,5 -65,1 -51,-14 -26,-2 -58,-38 67,-8 126,-20 202,-32l-79 69z"/>
   <path class="fil47" d="M15983 13919l-51 5 -14 35c-63,-22 -35,8 -81,-52l15 12 43 6 -3 -47 -14 -29c110,-24 19,3 59,-36 39,-4 28,-11 22,31l-50 31 74 44z"/>
   <path class="fil72" d="M17002 12102l-36 -90c99,-12 96,-33 101,71l-65 19z"/>
   <path class="fil33" d="M9881 12565c-13,69 2,17 -30,40l-72 6c1,-14 -5,-70 -5,-75 3,-22 -15,-4 22,-21l20 -10c24,45 -29,38 23,41l42 19z"/>
   <path class="fil64" d="M11340 8259l-34 20 -124 -51 -29 -70c79,-1 45,23 98,63 29,21 60,30 89,38z"/>
   <path class="fil76" d="M4630 12650l-64 -43 71 -68 60 8c-26,47 -41,66 -67,103z"/>
   <path class="fil5" d="M16564 14160l-48 -5 -15 -14 79 -69 65 4c-25,102 11,10 -35,51 -13,11 -27,24 -30,20 -3,-5 -11,8 -16,13z"/>
   <path class="fil94" d="M4633 12717l-3 -67c26,-37 41,-56 67,-103l8 -10 -24 82c64,14 52,61 38,86 -59,-27 16,29 -26,-20l-19 -24c-3,-4 -7,-10 -11,-15 -6,65 -15,52 -30,71z"/>
   <path class="fil0" d="M10367 13449c-52,77 -5,-16 -73,70 -58,-55 -40,-35 -41,-109 80,12 57,-13 86,55l28 -16z"/>
   <path class="fil2" d="M6078 12949l-29 16c-3,2 -10,5 -14,7 -4,2 -9,4 -13,6 -29,12 -37,12 -68,23 -1,-48 -6,-41 6,-72 29,-73 4,40 31,-66 1,6 3,20 4,23 21,52 13,39 83,63z"/>
   <path class="fil40" d="M6055 11967l-112 66c-2,-75 5,-62 -53,-99 15,-6 8,-10 50,-5 27,12 68,23 115,38z"/>
   <path class="fil70" d="M4700 10950c-32,-49 -44,56 -26,-53 12,-78 -4,-21 45,-47 12,13 44,-34 33,49 -10,74 7,26 -52,51z"/>
   <path class="fil32" d="M13293 13711c40,79 16,20 -2,47 -50,-10 -86,-28 -131,-55 84,-15 9,3 42,-31 58,5 55,2 91,39z"/>
   <path class="fil83" d="M10411 13790l-10 62c76,25 52,-4 66,61 -72,-42 -107,-27 -133,-130 76,-1 30,-3 77,7z"/>
   <path class="fil18" d="M6162 11752c-64,1 -50,3 -90,47 -32,-44 -32,-30 -68,-78 98,19 24,-7 133,-15 49,49 11,17 25,46z"/>
   <path class="fil91" d="M16381 11599c2,-159 0,-44 34,-90 24,13 83,-28 47,54 -23,54 27,20 -81,36z"/>
   <path class="fil10" d="M7541 13211c-81,-19 -77,-10 -132,-53l64 -49c22,18 15,-12 59,79 3,7 6,15 9,23z"/>
   <path class="fil47" d="M5852 11904l-73 -17c-51,46 -67,-8 -74,-15 63,-31 121,-9 204,-6 -6,4 -13,4 -16,13 -3,8 -11,8 -15,11 -4,2 -20,12 -26,14z"/>
   <path class="fil35" d="M7812 14257c-11,-72 -15,-65 -43,-123 102,49 5,28 125,30 -25,57 -22,69 -82,93z"/>
   <path class="fil59" d="M7720 12747c5,-29 8,-14 7,-52 -3,-81 4,-3 -14,-40 -41,27 -24,-18 -31,63 -39,-37 -28,47 -33,-61l28 -20c37,-13 20,-8 54,-13 3,6 80,17 -11,123z"/>
   <path class="fil24" d="M5302 13138l-5 77c-50,-5 -21,15 -66,-12 -46,-29 -30,3 -23,-64l94 -1z"/>
   <path class="fil33" d="M4380 7465l11 48 -81 53c-4,-4 -10,-16 -11,-14 0,1 -18,0 -5,-69l86 -18z"/>
   <path class="fil55" d="M5686 12886c-21,-12 -34,28 -43,-44 -12,-92 13,-48 24,-67 21,14 29,-30 40,48 12,86 -5,37 -21,63z"/>
   <path class="fil18" d="M10006 13399c-9,51 30,21 -75,44l9 -81c32,-54 -14,-13 54,-33l12 70z"/>
   <path class="fil31" d="M4242 12231l-93 48c-30,-103 9,-108 12,-113l71 53c2,2 7,8 10,12z"/>
   <path class="fil74" d="M7279 13969c-37,86 -14,53 -77,66l4 -105c83,7 51,-18 73,39z"/>
   <path class="fil26" d="M7256 11972c47,21 18,-10 28,41l-160 -20c-8,-78 -36,-11 11,-44l121 23z"/>
   <path class="fil55" d="M7099 12289l-3 -57 109 32c-32,152 -80,13 -80,12 0,41 5,1 -26,13z"/>
   <path class="fil2" d="M8625 12838c53,-9 25,2 56,-16 6,-74 7,-7 -28,-34l88 -40c-15,72 2,41 -36,80 -66,66 10,-17 -28,24l-22 28c-6,7 -10,12 -15,17 -5,6 -11,13 -16,19l1 -78z"/>
   <path class="fil95" d="M6270 12131c21,50 27,81 41,138l-134 -7c43,-45 13,-33 89,-42l4 -89z"/>
   <path class="fil96" d="M4015 14048l-2 95c-76,-2 -9,6 -40,-35 24,-26 11,-11 26,-70l19 -98 71 -9 -1 19 -55 10c2,91 13,12 -18,88z"/>
   <path class="fil55" d="M7887 12636c-70,-9 -68,2 -123,-35 19,-47 -19,-26 28,-39 94,-27 3,-10 50,16 48,28 23,-17 45,58z"/>
   <path class="fil63" d="M9819 12924c106,16 31,13 56,-26l-38 -18c9,-68 12,20 1,-32 -2,-5 -4,-13 -5,-18 -1,-6 -4,-13 -7,-19l28 -3 46 -3 -20 45c0,2 1,9 2,11 0,1 33,52 17,4 -8,31 2,14 -10,49 -12,34 -10,25 -19,40 -111,-6 -14,6 -51,-30z"/>
   <path class="fil10" d="M7758 13046c-19,20 -16,47 -76,31 -41,-11 -47,-42 -63,-72 72,16 97,9 139,41z"/>
   <path class="fil97" d="M12795 13235c45,-9 46,-20 49,31 -72,-23 -66,7 -129,20l-37 -68 36 3 81 14z"/>
   <path class="fil59" d="M10561 13143l-45 16c-55,-43 -26,3 -53,-57l39 -7 89 -21 -30 69z"/>
   <path class="fil98" d="M7311 14029c-56,29 -32,30 -104,36l-3 -12 -2 -18c63,-13 40,20 77,-66l33 3c46,56 10,50 -1,57z"/>
   <path class="fil35" d="M10259 13901c-64,8 -55,11 -100,-20 27,-37 -9,-18 105,-62l-5 82z"/>
   <path class="fil99" d="M4737 8967l-27 1c-32,-67 -25,-8 -37,-99 46,-11 40,-26 40,12 36,49 30,25 65,86l-41 0z"/>
   <path class="fil100" d="M6515 12438c33,11 29,-19 25,22l-15 7c-106,-3 -115,2 -177,62l17 -63 -49 -33c66,3 100,36 100,-11l14 -6 -19 54 96 -30c1,-3 5,-1 8,-2z"/>
   <path class="fil2" d="M12530 13499l9 64 27 12 -64 -4c-42,-29 -48,-23 -85,-68l75 21 -7 -59 45 34z"/>
   <path class="fil10" d="M6427 12820l-32 -5 -48 -47c25,-14 0,-9 37,-12l50 5c57,26 22,-7 40,61l-47 -2z"/>
   <path class="fil101" d="M17452 13027c-47,-1 -67,-4 -70,-56 -5,-83 8,-5 31,-87l39 143z"/>
   <path class="fil102" d="M4125 7006l-12 36c-49,-13 -26,-10 -79,-12l-8 -79c60,17 32,-22 43,48l49 -49c-22,96 -5,16 7,56z"/>
   <path class="fil27" d="M6246 12949c4,4 8,5 9,13l20 59c-48,-4 -55,6 -81,-12 -39,-28 -13,-8 -22,-57l74 -3z"/>
   <path class="fil33" d="M14684 8991c-80,-18 -42,-8 -69,-33l47 -10c-16,-15 -18,22 -9,-30 0,-4 12,-30 19,-43 36,17 20,5 52,18 -20,25 -31,52 -40,98z"/>
   <path class="fil103" d="M16665 10404c11,66 13,106 35,147l-49 -22c-8,-77 -7,-119 -19,-195l24 12 9 58z"/>
   <path class="fil1" d="M8455 13239l-12 32 -48 -10 4 -57c-65,0 -21,3 -17,-31l75 11 -2 55z"/>
   <path class="fil104" d="M12201 15160l17 -71 69 14c13,25 25,-25 6,57l-92 0z"/>
   <path class="fil93" d="M5605 14024l-51 9c-12,53 -15,50 -60,75 23,-35 -27,-28 22,-28 -54,-32 -56,-9 -22,-73 3,0 7,-1 9,-1 2,0 8,0 10,0l92 18z"/>
   <path class="fil105" d="M7629 14115c14,20 22,-11 17,68 -17,-5 -39,-5 -52,-13 -43,-26 -19,-4 -38,-48 102,-65 61,-12 73,-7z"/>
   <path class="fil106" d="M11545 13658c-17,31 21,30 -41,39 -94,13 -46,-13 -57,-20 17,-26 4,-35 43,-42 90,-15 35,7 55,23z"/>
   <polygon class="fil12" points="8352,7611 8247,7716 8264,7593 "/>
   <path class="fil65" d="M12945 14171l-11 -8c-90,-15 -33,6 -63,-22 38,-71 -1,-58 94,-53l-20 83z"/>
   <path class="fil18" d="M7883 13750c-107,-9 13,4 -95,19 6,-62 -6,-33 31,-63 18,-15 35,-18 67,-28l-3 72z"/>
   <path class="fil99" d="M4624 8774c-43,-15 -13,10 -49,-35 -11,-14 -21,-35 -24,-46 1,-99 101,33 73,81z"/>
   <path class="fil107" d="M4310 6869l-110 48 28 -87c28,4 37,-2 63,9 40,17 31,-3 19,30z"/>
   <path class="fil108" d="M7322 11895c-31,-22 -15,-8 -40,-30 -1,-1 -34,-34 -34,-34 -12,-1 -63,12 -68,12 -37,1 4,23 -26,-9 114,-64 133,-43 168,61z"/>
   <path class="fil109" d="M16564 14160c5,-5 13,-18 16,-13 3,4 17,-9 30,-20 46,-41 10,51 35,-51l74 27c-25,32 50,25 -155,57z"/>
   <path class="fil110" d="M16868 11327c-14,-28 -28,-44 -34,-80 -12,-64 19,-14 -17,-94l48 15c-1,16 -7,71 -5,78 17,90 -35,-20 40,57 -2,42 5,0 -32,24z"/>
   <path class="fil63" d="M8828 13199c-3,-4 -9,-14 -11,-11 -1,4 -11,-9 -17,-22 -9,-21 -6,-33 -5,-46l82 -13c-5,30 2,24 -11,48 -31,58 -16,23 -38,44z"/>
   <path class="fil0" d="M6510 12697l7 -5c59,11 59,12 49,63 -3,-3 24,0 -18,-16 -25,-10 -17,-28 -7,11 -141,-50 -92,-89 -52,-70l21 17z"/>
   <path class="fil25" d="M6281 11785l-57 25 -5 -36c-32,37 3,5 -60,25l3 -47 49 -9 46 16c69,7 6,-5 24,26z"/>
   <path class="fil51" d="M5075 13756c-73,-34 -57,-4 -46,-95l-91 -4c66,-11 29,-13 98,-17 31,43 33,40 39,116z"/>
   <path class="fil59" d="M7159 13535c-41,-12 -41,9 -68,-37 -23,-41 -9,-27 3,-64 62,31 55,34 65,101z"/>
   <path class="fil55" d="M9150 12723c-97,-5 -67,37 -84,-89 61,26 59,14 84,89z"/>
   <path class="fil18" d="M6517 12692l-7 5 -3 -49c-52,15 -50,-34 -50,-34l26 -16c4,0 48,12 52,14 3,1 10,11 13,7 2,-4 7,5 10,7 -15,35 -23,46 -41,66z"/>
   <polygon class="fil14" points="7963,13321 7903,13323 7892,13263 7928,13251 7969,13237 "/>
   <path class="fil54" d="M8178 13046l-11 19c0,3 -2,9 -3,12 -19,57 9,-4 -17,47 -18,-40 29,-31 -20,-29 -10,0 -12,4 -23,9l-28 -80c3,-46 6,-9 -17,-57 25,42 40,73 94,83 11,2 19,-2 25,-4z"/>
   <path class="fil34" d="M10472 13343c-1,-146 -4,-38 30,-83l44 5c-21,107 6,53 -74,78z"/>
   <path class="fil78" d="M8910 12507l-33 2c-27,-8 -57,-5 -49,-37 -53,-64 -21,-17 0,-40 70,16 46,-1 82,75z"/>
   <path class="fil54" d="M6435 13507l-83 -14 29 -78c80,60 40,-11 54,92z"/>
   <path class="fil109" d="M4511 12917l-25 2 16 -68c-4,5 -13,5 -16,12 -3,6 -14,7 -17,6 -75,-12 52,85 -32,-20 50,-5 17,8 29,-40l75 19 -30 89z"/>
   <path class="fil2" d="M8702 12694c-28,58 6,24 -65,50 -17,-73 -17,-37 1,-96 118,66 73,97 64,46z"/>
   <path class="fil80" d="M13901 13881l-107 -22 -51 18c9,-31 5,-20 15,-32l35 -41 -45 -30c50,29 39,30 64,48 34,25 8,3 38,21 48,29 17,-1 51,38z"/>
   <polygon class="fil111" points="9194,14092 9145,14114 9085,14031 9190,13994 9125,14046 "/>
   <path class="fil14" d="M5835 13201l-16 -22c-11,-90 -7,-21 15,-48l72 29c-6,9 -8,16 -15,28 -24,42 -19,4 -56,13z"/>
   <path class="fil112" d="M16320 14152l-73 -2c25,-47 14,-19 21,-65l32 -9 18 4c8,91 52,30 2,72z"/>
   <path class="fil74" d="M13907 13925l-25 3c-42,-8 -67,-17 -88,-69l107 22 6 44z"/>
   <path class="fil107" d="M5131 10027c40,43 30,20 37,83l-35 -3c-41,-77 -53,-16 -36,-115 16,74 -7,3 34,35z"/>
   <path class="fil13" d="M7720 12116c-54,-6 -71,-14 -109,-37l25 -43 35 -4c11,27 0,14 14,39 19,34 13,24 35,45z"/>
   <path class="fil42" d="M6750 11909l-60 10 -82 -58c19,-24 -20,-26 69,-25l-7 55c6,0 34,-1 38,0 34,9 27,8 42,18z"/>
   <path class="fil78" d="M16438 9679c-53,-13 14,23 -50,-17 -55,-34 -27,-21 -40,-47 23,-19 2,-27 24,1 40,3 24,1 61,21 2,0 34,19 34,20l-29 22z"/>
   <path class="fil88" d="M9409 12741c-18,22 31,69 -49,22 -35,-20 -21,-32 -20,-68 50,11 51,-2 69,46z"/>
   <path class="fil53" d="M6431 12199l0 7c23,60 -23,1 29,62 -84,28 -28,30 -52,-12l-44 -22 39 -56c-9,38 -4,2 28,21z"/>
   <polygon class="fil32" points="15299,9084 15310,9022 15374,9023 15379,9082 "/>
   <path class="fil69" d="M16617 9810c-36,-5 -57,7 -66,-43 -21,-75 -9,-18 15,-42 33,52 14,18 74,58l-23 27z"/>
   <path class="fil18" d="M4789 12472l-70 -9 11 -47 70 -6 5 62c-12,13 20,14 -16,0z"/>
   <path class="fil113" d="M5196 11315l-16 -1 -13 -122c-8,-15 -14,-38 -15,-74l-9 -54c19,18 13,6 28,35l25 216z"/>
   <path class="fil18" d="M5574 12133l-33 -50c19,-16 -1,-25 76,-25 12,63 2,53 -43,75z"/>
   <polygon class="fil97" points="12973,13285 12966,13338 12934,13334 12851,13270 12901,13274 "/>
   <path class="fil83" d="M4997 12671c3,-18 -16,-52 41,-55 83,-5 36,8 28,51 -5,2 -11,1 -14,6 -3,6 -13,4 -16,4 -137,-5 91,15 -39,-6z"/>
   <path class="fil98" d="M7694 14559c-81,-77 -30,-52 19,-80 16,31 30,-19 15,45 -9,37 -29,32 -34,35z"/>
   <path class="fil26" d="M13036 13273l-33 -4c-5,-2 -14,-11 -17,-6l-46 -36 77 -11 57 24c-78,35 -20,14 -38,33z"/>
   <path class="fil42" d="M6850 7293c-20,54 -3,35 -42,81 -27,-25 -31,14 -31,-76l73 -5z"/>
   <path class="fil27" d="M6678 12719c34,-15 51,-17 101,-27 -8,17 -6,38 -28,48 -85,44 -72,-21 -73,-21z"/>
   <path class="fil21" d="M10442 13102c-25,14 32,55 -49,16 -19,-10 -29,17 -15,-31 30,-102 64,15 64,15z"/>
   <path class="fil14" d="M8748 12317c59,-1 54,-11 86,20l-47 0c40,81 15,44 4,59l-34 -12 -9 -67z"/>
   <path class="fil26" d="M16411 9423l-51 -30c29,69 3,37 73,112 -8,-2 -20,-12 -24,-6l-102 -87c86,-10 24,14 59,-33 36,18 27,9 45,44z"/>
   <polygon class="fil18" points="12106,13321 12128,13384 12020,13345 12045,13315 "/>
   <path class="fil51" d="M16075 12249c-34,70 51,37 -77,43 1,-5 -19,-102 77,-43z"/>
   <path class="fil114" d="M10981 13454c-55,70 -50,67 -87,0 22,-16 -35,-24 38,-19 39,3 29,9 49,19z"/>
   <path class="fil88" d="M8203 14363l-46 -2 10 -56 65 -16c-17,63 12,45 -29,74z"/>
   <path class="fil10" d="M8653 12788c35,27 34,-40 28,34 -31,18 -3,7 -56,16 -41,-35 -12,-1 -30,-51 54,-20 19,-20 58,1z"/>
   <path class="fil115" d="M12795 13235l-81 -14c14,-63 -37,-23 38,-50 66,32 32,-15 43,64z"/>
   <path class="fil20" d="M5643 12720l66 -38c11,93 16,63 -80,73l14 -35z"/>
   <path class="fil116" d="M12934 13334l32 4 7 -53c36,2 30,13 30,-16l33 4c-12,38 -3,16 -27,48 -7,9 -31,36 -34,40 -81,1 -8,5 -41,-27z"/>
   <path class="fil64" d="M16155 9483c-62,-7 -53,7 -65,-25l35 -10c-137,-71 -26,-54 -26,-54 54,54 16,12 56,89z"/>
   <path class="fil55" d="M7754 12346l9 16 6 68c-72,-27 -61,26 -58,-43 1,-41 43,-40 43,-41z"/>
   <path class="fil55" d="M7638 13204c0,0 -27,-7 -30,-19 -40,-128 -11,-17 12,-64 42,33 23,-10 34,38 15,62 -12,41 -16,45z"/>
   <path class="fil69" d="M8913 12408c-31,56 4,22 -62,38l-14 -58 -8 -33 34 24 50 29z"/>
   <polygon class="fil78" points="4737,9927 4696,9954 4674,9873 4717,9853 "/>
   <path class="fil102" d="M5524 7280c-30,1 -57,0 -59,-2l-22 -44c-2,-5 -4,-13 -6,-19 72,32 63,-33 87,65z"/>
   <path class="fil43" d="M16272 9549c-5,0 -13,-5 -15,-1 -2,4 -11,-2 -13,-2 -25,-12 -20,-14 -25,-19l25 -40 70 32c-16,35 21,14 -42,30z"/>
   <path class="fil42" d="M5091 9928c-1,-25 -16,-17 1,-49 26,-48 -3,-5 36,-34 5,10 59,-27 9,57 -4,5 -37,21 -46,26z"/>
   <path class="fil95" d="M5875 12119c2,105 7,37 -22,56 -51,-14 -46,63 -32,-56l56 -13 -2 13z"/>
   <path class="fil75" d="M6458 11785l-177 0c-18,-31 45,-19 -24,-26l-46 -16 232 35c4,1 10,5 15,7z"/>
   <polygon class="fil43" points="12994,8483 12888,8488 12903,8457 12994,8439 "/>
   <path class="fil40" d="M7004 12432c-7,-5 -30,-15 -43,-27 -31,-30 -15,-7 -35,-53 100,22 78,-12 78,80z"/>
   <path class="fil77" d="M17288 13913l-43 -27 40 -107c2,-4 7,-9 10,-13l-7 147z"/>
   <path class="fil117" d="M5128 10413l32 -162c38,57 18,93 -18,145 -3,6 -8,13 -14,17z"/>
   <path class="fil118" d="M13320 13946c76,13 31,-2 58,28 -23,72 2,30 -61,46l3 -74z"/>
   <path class="fil18" d="M7986 12826l-62 -36c68,2 34,-32 16,-70l42 13c21,44 20,37 4,93z"/>
   <path class="fil64" d="M12903 8457l-15 31 -39 -1 5 -82c76,27 25,-14 49,52z"/>
   <path class="fil88" d="M7384 13150l-20 64c-74,-36 -40,5 -60,-61l80 -3z"/>
   <path class="fil106" d="M6215 13106c24,-66 -4,-40 75,-66 -23,101 20,62 -75,66z"/>
   <path class="fil30" d="M7452 7357c20,1 83,-1 95,0 100,9 40,-5 70,33 -100,-10 70,32 -48,8 -25,-5 -11,23 -5,-31 -71,17 -71,13 -112,-10z"/>
   <path class="fil2" d="M7719 12970c-80,-11 -48,6 -57,-75 63,31 68,8 57,75z"/>
   <path class="fil119" d="M4010 13503c4,-40 8,-76 15,-107 3,-16 4,-31 11,-47 22,-54 6,-14 27,-41 -17,55 -10,43 -19,103 -1,5 -7,45 -8,46 -11,36 -14,28 -26,46z"/>
   <path class="fil71" d="M16881 10591c-22,40 19,52 -38,20l-16 -68c22,-19 -7,-9 41,-4l13 52z"/>
   <path class="fil13" d="M7720 12747c-41,-14 -9,16 -38,-29 7,-81 -10,-36 31,-63 18,37 11,-41 14,40 1,38 -2,23 -7,52z"/>
   <path class="fil20" d="M8347 12898c-4,3 -10,2 -12,8l-77 44 10 -76c59,26 22,-15 79,24z"/>
   <path class="fil59" d="M5454 13024c-15,-24 -14,-21 -32,-52 23,-23 -1,-9 33,-18l42 37c-25,60 2,18 -43,33z"/>
   <path class="fil68" d="M4352 8022l-38 -19 7 -101c51,-19 22,34 22,56 1,44 -9,21 9,64z"/>
   <path class="fil33" d="M7924 12790l-15 7 -7 -49 38 -28c18,38 52,72 -16,70z"/>
   <path class="fil25" d="M6727 12335c106,-13 43,-21 66,43 -37,32 0,10 -47,9l-19 -52z"/>
   <path class="fil57" d="M15121 8967l-60 37c52,-56 6,-30 -38,-49 34,0 24,8 24,-29l63 9c13,15 6,19 11,32z"/>
   <path class="fil105" d="M10487 13915c54,-25 14,-14 82,-37l-17 67c-53,-3 -16,15 -65,-30z"/>
   <path class="fil78" d="M4563 6967l-49 -35c4,-96 5,-22 37,-10 111,40 22,39 12,45z"/>
   <path class="fil111" d="M9744 13899c-7,3 4,59 -72,-18 25,-12 -36,-46 46,-14 34,13 19,-9 26,32z"/>
   <path class="fil40" d="M5444 11902l59 -10c14,34 -4,13 21,50 -101,11 -39,35 -80,-40z"/>
   <path class="fil41" d="M13551 12855c-76,-60 -37,-38 13,-81 21,90 8,49 -13,81z"/>
   <path class="fil120" d="M4434 8713c-7,-79 -5,-2 -13,-82 94,-4 43,-10 59,23 -2,4 -5,5 -7,11l-39 48z"/>
   <path class="fil2" d="M5072 13361c-77,-22 -84,-18 -19,-71 52,76 19,44 19,71z"/>
   <path class="fil50" d="M5835 12774c-47,-39 -60,-21 -38,-86 52,29 45,-10 38,86z"/>
   <path class="fil27" d="M15969 13997c-19,-12 -30,-19 -51,-38l14 -35 51 -5c77,-8 49,8 58,28l-89 -34 17 84z"/>
   <path class="fil47" d="M4558 12821l3 -40 57 11c-23,66 0,93 -60,29z"/>
   <path class="fil59" d="M7288 14218c-25,13 -2,20 -42,16 -45,-5 -20,-5 -42,-19 5,-4 -2,-72 84,3z"/>
   <path class="fil40" d="M9284 12861c-18,23 20,36 -78,33 11,-28 7,-52 49,-48l29 15z"/>
   <path class="fil121" d="M4840 12136c10,-50 3,-38 64,-64 -20,66 42,3 -37,66 -23,19 -10,26 -27,-2z"/>
   <path class="fil24" d="M6337 13451c-45,-41 -40,-23 -19,-77 32,16 26,-31 34,28 6,47 1,25 -15,49z"/>
   <path class="fil87" d="M5228 11555l-44 39c-21,-36 -35,48 -18,-64l61 13 1 12z"/>
   <polygon class="fil115" points="6971,11977 6897,11982 6918,11936 6973,11935 "/>
   <path class="fil18" d="M5532 12476c30,-75 -22,-35 69,-53 -27,69 31,50 -69,53z"/>
   <path class="fil120" d="M4015 14048c31,-76 20,3 18,-88l55 -10c-7,14 -12,31 -28,54 -43,61 -3,12 -45,44z"/>
   <path class="fil122" d="M16665 10404l-9 -58c96,-16 16,-5 52,12 4,106 9,9 -43,46z"/>
   <path class="fil33" d="M4384 7204c-16,-35 -45,54 0,-62 -7,4 -19,1 -22,11l-32 16c-19,7 3,12 -9,-1 7,-36 9,-4 -27,-30 20,-15 -7,-13 27,-13 1,0 53,9 61,10l2 69z"/>
   <path class="fil123" d="M16103 14093c-29,2 -28,23 -23,-8l0 -38c72,5 39,-11 69,42l-46 4z"/>
   <path class="fil64" d="M11535 13093c16,75 5,23 -10,45 -66,-26 -25,16 -49,-64l59 19z"/>
   <path class="fil124" d="M4096 13785c18,-56 12,-104 56,-109 -5,20 -9,51 -17,67 -38,75 -2,12 -39,42z"/>
   <path class="fil125" d="M7184 14470l-24 47c-17,-16 -38,-17 -54,-24l30 -39 48 16z"/>
   <path class="fil126" d="M5346 11737c-1,-2 -39,-38 -40,-39 -39,-28 -37,-2 -53,-55 48,33 9,22 83,24 3,82 -6,21 10,70z"/>
   <path class="fil43" d="M4888 10117l-7 -19 38 19c96,7 29,-20 48,37 -17,3 34,33 -31,3l-48 -40z"/>
   <path class="fil42" d="M11841 8142l18 -3 40 81c-82,-38 -24,29 -57,-30 -16,-30 -6,1 -1,-48z"/>
   <path class="fil107" d="M16796 9762c-65,-32 -17,-17 -73,-59l63 -13 10 72z"/>
   <path class="fil124" d="M17231 12230c-40,-79 -1,-47 -55,-148l25 -17c7,70 27,64 30,165z"/>
   <path class="fil127" d="M6430 12416l85 22c-3,1 -7,-1 -8,2l-96 30 19 -54z"/>
   <path class="fil18" d="M9550 12800c-16,38 33,27 -40,32 -25,-25 -4,-11 -15,-57 60,6 20,-10 55,25z"/>
   <path class="fil101" d="M4406 8911l-55 -37c32,-35 -59,-44 57,-22l-2 59z"/>
   <path class="fil69" d="M15568 9096l-1 26 -92 -21c62,-8 19,-11 47,-38l46 33z"/>
   <path class="fil81" d="M9360 12490l63 -1 -52 68c-6,-7 -11,-18 -11,-15l0 -52z"/>
   <path class="fil119" d="M16821 11130c-8,-14 -13,-19 -20,-47 -8,-32 3,-18 -15,-69l44 29 -9 87z"/>
   <path class="fil14" d="M13086 13276l-50 -3c18,-19 -40,2 38,-33l-57 -24 63 -7 6 67z"/>
   <path class="fil69" d="M15729 9303l-39 -19c-25,-19 6,-30 -51,-40 33,2 81,3 88,5l2 54z"/>
   <path class="fil21" d="M9798 12972c-25,32 34,18 -29,29 -46,8 -17,-1 -39,-10 17,-23 -8,-52 68,-19z"/>
   <path class="fil98" d="M12669 13695c-59,71 -39,43 -68,-4 5,-3 21,-10 25,-9 30,3 24,4 43,13z"/>
   <path class="fil61" d="M5030 9412c-3,-5 -7,-19 -9,-16 -1,3 -9,-18 -16,-29 -6,-9 -20,-28 -26,-35l58 -2 -7 82z"/>
   <polygon class="fil18" points="5857,13518 5838,13464 5890,13463 5895,13502 "/>
   <path class="fil128" d="M6814 11996l-29 -19c35,-34 -47,-38 59,-23 3,91 7,18 -30,42z"/>
   <path class="fil63" d="M5156 13269c-71,63 -58,6 -65,0 11,-9 -12,-51 65,0z"/>
   <path class="fil55" d="M6932 13737c-30,-63 -18,-24 0,-62 49,27 70,18 0,62z"/>
   <path class="fil32" d="M5936 11868l-27 -3c4,-64 -6,-69 47,-53l-20 56z"/>
   <path class="fil100" d="M17136 12580c-54,-47 -16,28 -41,-70l45 4 -4 66z"/>
   <path class="fil21" d="M9640 13387c31,-77 -18,-45 68,-45 -33,57 1,31 -68,45z"/>
   <path class="fil62" d="M3860 7249c-62,29 7,9 -80,35l17 -46c1,-3 1,-9 2,-11l61 22z"/>
   <path class="fil64" d="M9212 13121l42 -5c-4,57 20,18 -17,50 -47,0 -31,9 -25,-45z"/>
   <path class="fil129" d="M11007 14859c4,64 -32,58 -67,5l67 -5z"/>
   <path class="fil102" d="M15233 9092c16,-100 5,-26 29,-53 3,4 44,-1 16,34 -17,22 11,11 -45,19z"/>
   <path class="fil42" d="M4915 10083l-27 15 5 -66 40 19c20,72 6,6 -18,32z"/>
   <path class="fil10" d="M8305 13382l-53 -9 -10 -39c-51,-80 -14,-28 -1,-45 0,58 -19,52 29,46l35 47z"/>
   <polygon class="fil116" points="11043,12961 10986,12939 11025,12907 11045,12896 "/>
   <path class="fil43" d="M15473 9217l-60 -23c28,-32 -32,-20 35,-27 30,25 22,-30 25,50z"/>
   <path class="fil59" d="M11182 8228l-61 -29c16,-42 -17,-3 32,-41l29 70z"/>
   <polygon class="fil76" points="5166,10156 5123,10156 5133,10107 5168,10110 "/>
   <path class="fil25" d="M9819 12924l18 -44 38 18c-25,39 50,42 -56,26z"/>
   <path class="fil43" d="M14505 8916l-34 11 -8 -36c-15,-54 -20,-15 0,-44l42 69z"/>
   <path class="fil107" d="M3938 7242l-16 -38 32 -14 20 21c-11,20 20,19 -36,31z"/>
   <path class="fil50" d="M15852 13919c4,-73 -10,-25 40,-41l3 47 -43 -6z"/>
   <polygon class="fil27" points="9317,14075 9316,14082 9372,14097 9311,14144 "/>
   <path class="fil18" d="M4892 9241c-38,-17 -28,-15 -44,-35 25,-7 35,-8 64,-23l-20 58z"/>
   <path class="fil130" d="M11306 8279l34 -20 45 13c-51,31 -24,42 -79,7z"/>
   <path class="fil130" d="M9757 12648l-38 29 -23 -41 12 -11 36 0c-16,40 -13,16 13,23z"/>
   <path class="fil68" d="M17104 11370l-16 -49c-15,-56 5,-16 -19,-64l38 25 -3 88z"/>
   <path class="fil119" d="M3619 7208l0 -58 49 -18 -28 37c-2,5 2,62 -14,26 -1,-2 -5,9 -7,13z"/>
   <path class="fil27" d="M4917 9796l-45 24 8 -60c41,22 15,-9 37,36z"/>
   <path class="fil65" d="M10184 11897c-24,36 -10,34 -52,18 22,-41 -11,-50 52,-18z"/>
   <path class="fil50" d="M11454 13432l-44 -7c18,-48 1,-27 42,-41l2 48z"/>
   <path class="fil131" d="M3953 13607c0,-2 11,-44 12,-46 33,-78 8,-25 34,-56 -6,25 -8,45 -19,69 -26,57 2,1 -27,33z"/>
   <path class="fil121" d="M12175 8131c40,60 18,19 -3,33 -46,-21 -6,-2 -31,-35l38 -15 -4 17z"/>
   <path class="fil132" d="M17379 14118c-38,3 -31,13 -31,-20l-27 -37 38 12 20 45z"/>
   <path class="fil59" d="M8263 12424c-27,61 27,24 -51,49 23,-79 -17,-19 51,-49z"/>
   <path class="fil18" d="M10134 13261c8,-53 -5,-18 45,-44 -28,69 23,49 -45,44z"/>
   <path class="fil26" d="M5060 10996l-28 -70c13,8 41,22 48,25l-20 45z"/>
   <path class="fil81" d="M3954 7190l-32 14 -3 -65c25,22 16,0 35,51z"/>
   <path class="fil96" d="M17518 13803c16,-55 17,-23 -5,-63l45 26c-23,71 1,11 -40,37z"/>
   <polygon class="fil61" points="4766,9059 4710,8968 4737,8967 "/>
   <path class="fil133" d="M4155 7450l-19 -46c28,20 42,30 62,42 -27,20 21,23 -43,4z"/>
   <path class="fil44" d="M4776 9974c-37,-21 -26,-20 -80,-20l41 -27 39 47z"/>
   <path class="fil124" d="M17367 12628l-65 -111c17,12 17,3 36,36 15,27 19,47 29,75z"/>
   <path class="fil47" d="M9290 10339c-22,20 47,37 -32,10 -3,-1 -8,-7 -12,-10 29,-15 -36,-46 44,0z"/>
   <path class="fil94" d="M9469 14159c-5,3 -11,4 -14,9 -1,5 -11,4 -13,4 -3,-1 -12,-3 -14,-4 -3,-1 -10,-6 -14,-9 31,-19 21,-18 55,0z"/>
   <path class="fil32" d="M15765 13877c7,-39 -72,-65 40,-15l-40 15z"/>
   <path class="fil33" d="M17053 11915c-72,36 -28,7 -43,0 34,-24 -58,-35 32,-8 2,0 7,6 11,8z"/>
   <path class="fil27" d="M11183 13054c-3,11 8,19 -10,21 -1,0 -7,2 -8,2l-25 -12c21,-14 -2,-11 43,-11z"/>
   <path class="fil44" d="M7746 11952l-34 10c-2,-1 -8,-7 -12,-10 30,-16 -37,-51 46,0z"/>
   <polygon class="fil65" points="7919,7467 7882,7458 7881,7421 "/>
   <path class="fil78" d="M4812 7168c-43,2 -8,5 -11,-18l35 -18 -24 36z"/>
   <polygon class="fil121" points="4881,10098 4888,10098 4915,10083 4919,10117 "/>
   <path class="fil59" d="M4887 10999l-12 -84c22,65 -44,47 26,55 9,36 19,29 -14,29z"/>
   <path class="fil27" d="M5255 12722c-58,-23 -28,11 -45,-39l45 39z"/>
   <path class="fil47" d="M7680 12019l-46 -47c52,29 27,16 46,47z"/>
  </g>
 </g>
</svg>
