<?xml version="1.0" encoding="UTF-8"?>
<!DOCTYPE svg PUBLIC "-//W3C//DTD SVG 1.1//EN" "http://www.w3.org/Graphics/SVG/1.1/DTD/svg11.dtd">
<!-- Creator: CorelDRAW X8 -->
<svg xmlns="http://www.w3.org/2000/svg" xml:space="preserve" width="210mm" height="297mm" version="1.1" style="shape-rendering:geometricPrecision; text-rendering:geometricPrecision; image-rendering:optimizeQuality; fill-rule:evenodd; clip-rule:evenodd"
viewBox="0 0 21000 29700"
 xmlns:xlink="http://www.w3.org/1999/xlink">
 <defs>
  <style type="text/css">
   <![CDATA[
    .fil124 {fill:#12164A}
    .fil61 {fill:#14122D}
    .fil108 {fill:#150A14}
    .fil93 {fill:#172A4E}
    .fil81 {fill:#262429}
    .fil37 {fill:#281927}
    .fil83 {fill:#291E4F}
    .fil21 {fill:#2B232B}
    .fil66 {fill:#2B2637}
    .fil26 {fill:#2C1833}
    .fil95 {fill:#2E1013}
    .fil73 {fill:#2F3051}
    .fil25 {fill:#351B27}
    .fil43 {fill:#362836}
    .fil76 {fill:#364654}
    .fil51 {fill:#37252B}
    .fil55 {fill:#392A44}
    .fil113 {fill:#3A3748}
    .fil42 {fill:#3B2B35}
    .fil56 {fill:#3C2C3B}
    .fil31 {fill:#3C323C}
    .fil78 {fill:#3D3343}
    .fil2 {fill:#43333D}
    .fil6 {fill:#443443}
    .fil58 {fill:#443B4B}
    .fil80 {fill:#461A2B}
    .fil102 {fill:#46292A}
    .fil54 {fill:#483B54}
    .fil116 {fill:#484448}
    .fil88 {fill:#491B17}
    .fil72 {fill:#4A4658}
    .fil23 {fill:#4B3544}
    .fil1 {fill:#4B3B45}
    .fil60 {fill:#4C3C4B}
    .fil4 {fill:#4D424C}
    .fil77 {fill:#4F5071}
    .fil90 {fill:#502F2F}
    .fil67 {fill:#523C4B}
    .fil89 {fill:#53434D}
    .fil69 {fill:#534453}
    .fil46 {fill:#544A54}
    .fil22 {fill:#574758}
    .fil101 {fill:#584B64}
    .fil45 {fill:#5B4B55}
    .fil28 {fill:#5B4C5B}
    .fil87 {fill:#5B5565}
    .fil7 {fill:#5D525C}
    .fil112 {fill:#5E6698}
    .fil12 {fill:#63535C}
    .fil9 {fill:#635463}
    .fil65 {fill:#644B58}
    .fil96 {fill:#67575A}
    .fil18 {fill:#675A68}
    .fil85 {fill:#69556F}
    .fil94 {fill:#6A5B64}
    .fil11 {fill:#6B626A}
    .fil35 {fill:#6B6575}
    .fil111 {fill:#70708D}
    .fil120 {fill:#718999}
    .fil97 {fill:#745B67}
    .fil92 {fill:#748DAE}
    .fil14 {fill:#75656B}
    .fil125 {fill:#769BC9}
    .fil27 {fill:#776976}
    .fil16 {fill:#7B727A}
    .fil82 {fill:#7B7685}
    .fil17 {fill:#85757A}
    .fil24 {fill:#877985}
    .fil86 {fill:#8A838A}
    .fil32 {fill:#8A8695}
    .fil109 {fill:#8B6E72}
    .fil53 {fill:#8F7988}
    .fil104 {fill:#9394AB}
    .fil121 {fill:#94AECC}
    .fil40 {fill:#95858A}
    .fil49 {fill:#968B95}
    .fil74 {fill:#9A939A}
    .fil79 {fill:#A2A6AA}
    .fil110 {fill:#A48875}
    .fil47 {fill:#A69BA5}
    .fil57 {fill:#AA9392}
    .fil91 {fill:#ABA3AB}
    .fil107 {fill:#ACB4CF}
    .fil99 {fill:#ADAAB3}
    .fil62 {fill:#B09CAA}
    .fil126 {fill:#B4C7D4}
    .fil100 {fill:#B5A7AA}
    .fil118 {fill:#B5ABB6}
    .fil36 {fill:#BAB7C5}
    .fil71 {fill:#BBB4B8}
    .fil50 {fill:#C3B6B8}
    .fil52 {fill:#C5BCBB}
    .fil119 {fill:#C7BDC3}
    .fil98 {fill:#C9BEBD}
    .fil115 {fill:#CBC8D5}
    .fil122 {fill:#CCAD97}
    .fil103 {fill:#CCC6C9}
    .fil106 {fill:#CDB3AD}
    .fil59 {fill:#CDC3C3}
    .fil117 {fill:#CFA199}
    .fil75 {fill:#D3CBCC}
    .fil114 {fill:#D5CDD1}
    .fil84 {fill:#D5D3D4}
    .fil39 {fill:#D5D4DA}
    .fil3 {fill:#D6CDCE}
    .fil123 {fill:#D7C8B6}
    .fil29 {fill:#DAD5D5}
    .fil0 {fill:#DBD3D3}
    .fil105 {fill:#DBD5DA}
    .fil70 {fill:#E1DADD}
    .fil5 {fill:#E2DDDD}
    .fil44 {fill:#E3DCE2}
    .fil10 {fill:#E5DEDE}
    .fil13 {fill:#E5E3E4}
    .fil48 {fill:#E6E1E1}
    .fil68 {fill:#E8DDE4}
    .fil8 {fill:#E8E7E8}
    .fil41 {fill:#E9E2E2}
    .fil34 {fill:#EAE5E6}
    .fil64 {fill:#EBE3E3}
    .fil20 {fill:#EBE5EA}
    .fil15 {fill:#EBEBEB}
    .fil38 {fill:#ECD5C9}
    .fil19 {fill:#EDE8EA}
    .fil33 {fill:#EDEDF2}
    .fil30 {fill:#F1ECED}
    .fil63 {fill:#F8F6EA}
   ]]>
  </style>
 </defs>
 <g id="Ebene_x0020_1">
  <metadata id="CorelCorpID_0Corel-Layer"/>
  <g id="_1602305247808">
   <path class="fil0" d="M6510 10724c-98,-8 -121,17 -199,13 -23,19 24,5 -46,22 -27,7 -42,6 -69,8l3 0 -8 28 122 -33c-20,27 12,70 -157,67l-9 80 -48 -49c-40,83 -24,19 -96,57 -36,20 4,31 -101,58l-5 -57 -72 0 10 43 -2 30c32,20 68,0 20,60 -61,75 -16,2 -17,3l-65 27c-20,12 -10,4 -22,25 91,32 48,-7 41,66 -47,24 -40,21 -89,8 -49,64 -7,-11 -52,49 -19,26 -20,40 -27,74l67 52c-93,11 -50,-5 -104,25 -2,1 -10,10 -12,7 -2,-4 -9,5 -14,7 -3,-4 -8,-8 -11,-10l-37 -34 -116 101c79,49 73,-37 70,82 -125,-29 -51,-20 -119,-83 -35,60 19,8 14,116 -128,19 -20,-6 -91,-28l-62 -5c42,-47 -64,-8 30,-36l-30 4 -10 82 -31 8c-62,22 -57,-29 -54,37l103 -11c3,-1 7,-12 9,-9 13,29 13,-19 16,-22 31,-35 -19,2 22,-18l6 35c-25,32 -14,30 -53,21 -39,53 -7,27 -57,56 -5,54 0,65 27,98 -7,118 2,55 20,141 68,-3 75,-22 114,7 -63,40 -32,50 -63,179l58 5c4,103 13,49 32,69 124,-39 -49,-48 148,-44l42 90 89 1 58 61c85,116 47,46 204,94l29 -46c113,45 28,61 183,-19 71,-37 65,-28 164,-42 19,31 56,71 83,90 61,-30 78,-48 115,-98 42,15 46,11 83,-10 5,52 7,47 28,85l85 13c-31,-59 -71,-70 -79,-105 -19,-78 34,-54 93,-56 35,-1 60,-10 113,-9 -21,-39 -34,-19 -56,-70 -12,-28 -2,-9 -13,-49 102,4 84,-12 139,52l180 2c-19,-65 -14,-9 -16,-79 32,-23 47,-40 102,-52 -14,54 -11,43 -45,80l230 3c-1,74 -10,67 58,80 13,-30 18,-52 27,-84 51,10 63,12 104,46 2,-3 19,-29 23,-33l36 -31 39 64c217,-2 121,90 264,121 81,18 34,10 101,39l127 9c97,3 28,16 135,0l-32 63 56 -10 6 95c76,-7 43,-11 102,13 67,26 31,11 115,17l36 57c271,44 80,47 203,99l198 95c49,23 20,34 101,46 115,16 94,29 219,78 75,29 50,23 74,87 147,11 144,-5 190,46 -31,63 -30,-14 -16,62 83,-1 46,-29 155,-4 105,24 108,50 130,96 67,6 146,37 193,83l34 -13c3,-4 8,-14 9,-11 1,3 7,-9 8,-11 2,-3 6,-8 8,-11l27 -66 68 9c19,123 2,36 -16,70l-5 20c72,-4 147,3 188,55 16,-31 7,-18 44,-33l18 21c27,17 -17,17 97,16l59 64c31,-9 36,-3 73,-60 40,-62 -5,-52 81,-65l6 74c-39,0 -26,-26 -77,-15 31,57 28,47 108,48 3,99 -12,0 38,90 25,29 98,20 138,16 47,40 62,47 115,80 43,-87 -16,-41 49,-67 10,24 5,-3 4,25 -1,19 -5,28 -4,58 177,5 200,58 246,83l65 -31c60,68 99,53 183,13l-32 56c-30,102 -5,44 183,84 90,20 73,-21 175,-24l28 47 86 -7c15,-25 24,-86 82,-89 114,-7 39,8 66,25l-2 3c31,4 86,7 111,0 104,-29 -20,-38 111,-35 -5,-85 -20,-45 25,-81l70 -2 34 -102c35,-58 58,-113 47,-185 -94,-66 -32,38 -85,-82l88 -4 -43 -5 -93 -3c-64,13 -2,-4 -72,36l-26 -53 -45 -1 -53 30c-50,-45 -112,-68 -173,-88 -73,-9 -73,28 -146,-2 -32,-14 -32,-26 -64,-34 -33,-9 -55,-6 -93,-13 -19,41 26,35 -45,31 -20,-40 -13,-14 -24,-74l32 0c-44,-42 -57,-22 -112,-69l-106 10c-51,-73 -59,-24 -123,-101l-49 13c-81,-138 -115,-53 -198,-148 -23,7 15,24 -48,-2 -66,-17 -113,-29 -180,-51 -78,-25 -12,-5 -63,-30 -39,-20 -73,-19 -118,-23l30 55c-51,28 -18,-15 -37,28 -32,74 31,20 -42,62 -4,-5 -11,-17 -12,-14 -1,3 -8,-10 -9,-14 -16,-57 1,-2 -4,-41 -2,-23 21,-7 -21,-22 97,-45 67,0 62,-62 -48,-11 -16,-2 -36,-12 -11,-6 -22,-15 -46,-26 15,47 -58,36 17,37 -15,31 8,17 -53,46 -28,13 -21,16 -46,14 -76,-5 -30,-63 -22,-91 -41,-34 -44,-9 -106,-32 -72,-26 -64,-35 -129,-16l-29 11c-4,2 -10,4 -15,6 -4,-45 3,-48 -19,-79 -32,-49 -83,-45 -108,-53 -35,-11 -25,-10 -40,-19 27,-83 7,-32 35,-65 -21,-22 -1,-13 -42,-20 -4,-1 -51,-2 -56,-2 42,101 14,20 -10,54 -81,-19 -45,21 -56,-71l-33 -7c46,86 12,18 7,45 -59,9 -55,-8 -57,-9 -3,-2 -11,-14 -13,-16 -25,-22 -39,-4 -83,10 -22,7 -19,5 -43,13 -83,-89 -24,-55 -175,-51l29 -59c11,-32 14,5 -10,-44l78 -2 -65 -27c-37,-14 0,4 -25,-9 -25,-13 -18,-14 -32,-26l-20 -67 -108 -31 -55 -28 -44 1 -24 -30 -20 -24 -61 8c2,-5 17,-46 22,-57 -18,-15 -19,-19 -28,-31 -3,-3 -15,-11 -16,-19 -1,-5 -6,-6 -9,-9 -14,-22 47,-22 -28,-17 -43,-2 -54,9 -73,-25l3 -15 -88 33 6 -52 -2 -52c-89,-5 -8,1 -76,27 -4,-3 -10,-6 -14,-9 -58,-37 -64,-28 -95,-134 -36,-29 -26,-28 -54,-58l-62 0c18,-49 0,2 14,-27l19 -42c-65,-31 -39,-32 -108,-33l-38 -33c-21,-14 -9,8 -27,-23l-67 2 6 -60c-73,-26 -41,-12 -98,-64l-65 -12c54,107 46,37 49,35 -52,50 7,6 -64,33l-14 70c5,1 32,12 33,12l28 17c-13,72 9,31 -32,65 2,-25 -16,-46 32,-25 48,21 23,-1 33,58 -2,1 26,53 -85,33 -40,-7 -95,-56 -86,-139 -57,-3 -74,26 -82,-125 76,-14 49,1 106,-65l-55 15 -4 -54 -77 -9c-12,-28 -2,-10 -12,-33 -18,-45 -3,-11 -16,-32 -122,12 -88,-19 -166,-51 -117,-49 -18,-25 -94,-53 -5,-2 -34,-4 -41,-4l-13 -32c-23,-5 -17,0 -53,-19 -33,-19 -21,-14 -31,-25l-104 7c-44,-62 -63,-41 -112,-74l-29 0 -11 39c-72,-4 -158,2 -209,-58l63 -4c-29,-33 -42,-14 -86,-14 -41,0 -42,-1 -75,-12 -135,-46 -249,3 -427,-60 -52,15 -7,-15 -55,42 -60,4 -17,6 -33,-16z"/>
   <path class="fil1" d="M5029 7402l12 60 -67 45c-1,2 -3,7 -5,11l-51 -52 71 -9c-106,-24 -9,-3 -52,-45 -54,33 -61,62 -102,85 -30,16 -104,50 -130,54l-61 54c-2,2 -3,7 -5,9 -24,26 8,3 -31,31l-5 28c-157,55 -261,172 -311,183 3,63 -14,9 13,57 -3,2 -8,2 -10,7l-33 27c-3,2 -8,7 -12,10l-18 230 27 -8 1 -73c6,-1 10,-7 11,-4l46 -27 29 -56 46 12c33,-6 3,11 47,-13 50,-27 20,-7 35,-39l-8 -66c44,-10 65,-16 93,-39 37,19 33,18 84,12 19,-7 12,10 27,-18 23,-47 3,-29 55,-64l25 -27c-34,-58 -31,-48 6,-73l16 78c88,-43 22,-8 88,-62 117,-97 118,-66 170,-96 75,-43 -19,-35 87,-45 53,-9 7,4 21,-25 41,-4 107,-27 164,-49 72,-27 254,-96 334,-84l188 -26 -41 -6c83,-94 90,-41 108,-39 96,14 60,-21 160,-17 74,3 -11,18 76,-3l40 -13c106,-37 74,-8 154,30 10,-78 -1,-27 25,-48 31,24 10,-10 18,38l47 -19 -32 47 98 2 -4 -38c104,14 51,-4 91,-17 19,-6 48,32 89,-42 34,75 33,9 22,65 -3,2 -9,-1 -11,3 -13,30 6,-9 -40,8l-48 25c82,-11 216,51 352,40 27,53 -7,32 47,38 19,-87 -1,-20 30,-48l22 49 15 5c-28,-85 -13,-21 9,-43 25,26 6,-14 16,45 86,25 95,10 182,25l67 11 61 24c72,14 170,23 232,51 -63,-94 -22,-21 0,-49 6,1 48,5 49,6 88,21 -58,-25 30,8 5,2 10,5 13,7 4,2 9,6 13,8l-58 12c18,18 -29,16 48,20 76,-21 13,-8 46,-22 45,-19 5,-9 61,-16l-8 76c238,66 90,26 221,91 50,24 75,17 120,40 69,34 31,45 132,37 17,26 -28,0 33,31 19,10 34,14 56,23 43,19 86,26 136,19 80,-14 8,-2 67,8 3,1 8,2 11,2l40 14c47,13 -3,11 60,6l-21 42 45 0c3,6 10,25 15,30 30,30 -7,1 32,21 15,36 -27,-2 26,40 8,6 32,15 46,19 42,-56 33,-37 49,-13l41 -10 -20 36c46,-10 41,-14 55,17 62,0 28,-10 79,19l-40 35 52 -5c27,52 23,31 60,70l54 1 29 -23 25 35c20,42 14,37 74,55 42,12 74,20 108,30 -14,-47 -7,-16 7,-29 40,15 92,37 115,76 -25,28 16,10 -36,12l37 54 44 -55c25,32 19,-15 13,76 32,18 46,12 76,23 44,15 47,28 84,50 64,38 129,51 204,68 -32,-51 -13,-12 5,-29 60,0 35,-7 85,31l-54 10c21,17 -3,9 46,28 18,7 31,8 53,14 39,11 64,27 99,44l-24 -49c98,22 60,-31 145,51l-29 5c25,31 48,37 97,52 63,18 68,28 126,44 -38,-85 -16,-19 13,-42 26,34 18,-13 0,35l53 0c36,59 165,98 251,105l22 -22c48,41 75,43 182,54 174,17 147,60 198,2 38,62 48,66 179,93 5,1 18,5 23,6l28 2c75,7 52,-11 97,43l-36 11c4,3 8,4 10,10 3,6 8,7 11,9 35,17 0,4 48,18 -11,-63 -54,-29 33,-40 16,26 11,-4 0,46l131 15c-26,-38 27,-40 -29,-32l38 -8 33 -18c1,-23 -5,-51 -4,-57l24 -63c-43,-20 -252,-61 -341,-88 26,42 -30,33 24,33l-19 12c-44,-44 -25,17 -5,-47l-40 -17 -43 10c-51,18 6,10 -22,-7l-75 -31c32,67 11,16 0,33 -35,-26 -9,6 -20,-40 -128,-21 -169,-50 -329,-65 -13,24 11,26 -30,11 -9,28 3,29 -12,46 -49,-11 -75,12 -44,-60l17 -45c-72,-18 -111,-24 -172,-44 28,47 12,15 0,23 -3,0 -171,-15 -191,-51 -15,-27 -159,-66 -195,-79 33,74 9,14 -8,33 -137,-7 61,-34 -115,-34 47,-44 -3,-35 77,-17l-27 -39c-19,-58 -95,18 -144,-68l-38 7 -46 -21c-22,48 -26,27 -8,99l-93 13c-1,-18 2,-2 16,-34 31,-77 -12,-37 34,-63l-33 -52c-55,-6 -22,2 -67,-28 -46,-32 -36,-18 -89,-43 -94,-44 -125,-46 -197,-74l-6 35c-35,-31 -15,-1 -35,-51l32 0c-34,-44 -120,-91 -167,-111 -78,-32 -127,-45 -203,-78l-28 19c-2,1 -6,4 -10,6 -43,-23 -48,-28 -40,-57 -43,-64 -36,-39 -99,-64l-132 -60c-18,69 -44,7 -108,-18l36 -7c-22,-31 35,-13 -47,-34 -21,41 31,29 -37,33 -43,-85 -69,-31 -137,-80l-26 -36c-45,-49 -126,-74 -197,-92 -15,-3 -25,-5 -39,-8l-37 -11c-9,-42 -37,-28 -92,-31 -29,57 -71,23 -104,1 -34,-22 -70,-33 -106,-44 60,-78 -38,-22 48,-24 -49,-59 -118,-95 -195,-67 -9,-8 -34,-16 -44,-21 18,83 8,12 -13,42 -28,-46 -22,-17 -9,-64 -67,-2 -72,-11 -147,-11 17,24 7,23 -48,27 -52,3 -52,-4 -81,-30 64,0 1,6 30,-31 -21,4 -169,-27 -211,-36 -45,-10 -61,-2 -98,-12 -50,-15 -9,-21 -79,-39l-38 62 -46 -50c-2,-6 -6,-7 -10,-11 -284,-51 -153,-48 -215,-69l-252 3c-64,-8 -17,-27 -116,-18l-253 -22c-72,-14 -63,8 -112,20 -166,40 -162,-45 -242,51 -73,-12 -36,-8 -105,-4 -37,2 -10,-2 -46,-7 -110,-16 -183,23 -267,51 -38,12 -83,15 -115,25 -47,14 -35,28 -91,38 -100,18 -124,5 -185,83z"/>
   <path class="fil2" d="M15908 6624c-56,17 -20,-11 -49,41l-44 -5c-27,26 8,15 -68,27l26 -56c-41,16 -41,17 -70,62 -22,36 -22,45 -13,85l-23 15c-3,17 -8,46 -15,61 -16,35 -7,11 -27,30l-101 124c-10,49 1,13 -15,48 -2,4 -8,15 -9,12 -1,-2 -7,8 -10,11l4 25 -36 7c18,51 -33,33 24,44l-73 36c-23,46 -2,40 -50,93l-28 28c17,27 12,-24 13,58 -81,35 -56,29 -79,75 -20,-25 -60,47 0,-46 -36,23 -51,32 -82,70l-9 47c85,-31 42,-23 51,11l-90 21c-33,-8 -11,-5 -10,18 6,88 -54,-13 25,48 30,-58 18,-40 65,-65 9,26 10,39 17,65l41 2 9 -19c34,-13 28,-20 23,16l16 0 15 -46c-4,3 -10,8 -12,9l-52 -17c-13,-13 -9,-3 -25,-27 40,-28 29,-19 84,-11 10,23 31,-50 0,45 54,-24 25,-8 59,-63l39 -48 61 -75c3,-2 6,-6 8,-9 2,-2 6,-6 8,-8 2,-3 6,-6 8,-9 24,-28 6,0 26,-36 29,-53 54,-129 99,-171 6,-24 3,-50 33,-43l-7 -19 -64 -26c36,-36 -39,-7 39,-33 -55,6 -41,-9 -57,35 -16,44 26,14 -25,73 -22,-20 -29,-17 -4,-69 2,-3 5,-7 6,-11 37,-67 38,-73 83,-85l77 -27 -3 6 17 -57 40 -5c12,-14 0,7 7,-15 15,-47 -13,-25 40,-56 36,126 3,88 -10,104 -62,38 -21,53 -75,120 -6,27 -13,59 -23,88 -8,20 -10,28 -21,45 -17,27 -9,11 -27,28l-77 325c-2,5 -5,12 -7,18l24 21 -29 31c-13,75 -47,106 -43,181l62 84c-17,31 -19,30 -45,49 16,31 -1,27 28,46 -140,3 33,-44 -72,-88l-32 135 -30 22c49,26 19,25 71,14l-13 170 -90 -20 10 -25c13,112 -40,185 -67,263 -16,43 -18,34 -20,58 -8,74 18,-36 3,59 -6,36 -27,95 -35,147 70,36 13,-19 25,33 9,35 40,-7 -20,21 21,32 -16,13 18,30l-28 15c18,69 20,93 3,139l-21 292c-46,38 3,-2 -26,35l-38 31 0 -62c-49,44 -11,-2 -41,68 -20,49 -14,28 -22,90l-21 95c67,-1 18,-5 37,23l-14 59c-27,-88 -1,-5 -35,-33 -6,61 -24,93 -39,141 71,19 -3,33 -4,33l3 3 31 51c12,27 6,7 11,38l-48 -16c-4,-2 -11,-5 -17,-7 0,91 2,49 -13,68l-36 228c-19,77 -37,113 -50,190l-41 164c-12,57 -44,153 -40,193 47,51 15,5 36,59l-64 -8 -9 33 -12 185c-7,20 -56,158 -55,182 -28,14 4,15 -50,-6l7 53c-81,27 -29,14 -51,101 -10,37 -26,93 -36,122l-1 73c0,54 -3,28 14,49 19,22 19,8 19,57l55 4 3 -113 14 -26c52,-86 34,-33 51,-124l31 -9 14 -48 45 -14 4 -23c-20,-22 -18,3 -25,-37 -3,-20 2,-30 4,-49l59 -16 -25 -32c96,-110 51,-187 95,-275 3,-4 10,-21 12,-24 1,-4 6,-24 8,-29 22,-55 -18,-22 29,-48 5,-54 1,-39 -14,-82 87,-43 106,-192 68,-264 34,-26 85,-56 32,-105 -63,-32 -25,8 -33,-43l67 -16c18,-8 19,1 32,-12 -3,-106 44,-201 53,-316 11,-150 59,-119 52,-273 1,-67 -15,-56 17,-109l17 -19c3,-4 5,-8 7,-11 3,-5 10,-21 12,-25l13 -22c29,-67 -1,-50 16,-123l56 -240c9,-45 6,-33 16,-65 14,-46 12,-7 11,-66 15,-58 -4,-56 41,-78 -2,-75 52,-278 80,-348 26,-64 -12,-72 28,-168 26,-64 35,-116 32,-192l37 -81 8 -14c-87,-23 -34,10 -54,-37l62 -18c-43,-67 -84,-21 -103,-127 72,8 40,-20 50,45 27,-20 26,-13 39,-44l0 83c17,-77 12,-47 48,-84 24,-53 51,-149 62,-206 -73,-52 11,62 -15,-22 -9,-29 -22,-24 13,-21 -27,-34 -36,-53 -53,-78 36,-8 22,-9 49,19 0,-47 -13,-37 30,-37l14 -22c6,-67 11,-26 -6,-95l34 -19c3,-4 10,-16 12,-20 2,-3 9,-19 11,-23 17,-29 1,-9 23,-30 17,-158 144,-352 177,-495l60 -44c4,-17 7,-20 3,-40 -7,-27 -9,-24 -18,-38l6 88c-41,-47 -10,9 -39,-72 -3,-11 -13,-37 -21,-59l-41 -3 -37 -9 25 45 -74 21c-28,-44 16,-28 -46,-11z"/>
   <path class="fil3" d="M12967 8167c29,44 -39,37 36,36 24,-10 -8,-23 72,-53 7,30 10,9 0,48l-51 95c-1,-3 -5,6 -10,10l14 87 -42 30c-1,-2 -1,-7 -2,-8l-2 -20c-1,-2 -2,-9 -3,-11l-9 -25c-22,15 -42,27 -67,45 -9,98 27,40 -15,115 -10,17 -33,50 -33,51l-5 23c0,-2 2,5 3,7 18,20 35,0 72,-4l-34 94c60,-23 -48,22 26,-14 3,-1 10,-4 13,-6l33 -12c30,118 16,41 46,112 64,-16 75,24 108,46l35 5c0,-32 155,-43 183,-51l14 -35 72 -4c12,2 45,10 47,10 33,1 13,-1 41,-11 75,-27 30,-3 79,-9 0,-55 28,-15 94,-40l59 -74 105 7c-30,-95 8,9 -41,-49 -18,-21 -10,-2 -10,-40 48,27 3,16 60,1 1,4 2,10 3,13 1,3 3,10 4,13l30 38c31,7 20,12 29,-22l-39 8 3 -57 19 -33c-38,-55 -40,-40 -34,-108l-55 -2c-31,0 -12,3 -42,-6 -20,-6 -95,-29 -51,-15l8 -77c25,-30 0,3 12,-17 6,-10 9,-24 22,-45 -75,-7 -45,10 -47,-34 -4,3 -9,7 -12,9l-35 17c-69,35 -24,25 -53,55 -21,22 21,-1 -46,24 -5,-193 110,-70 144,-204 75,13 67,14 130,-12 21,63 16,60 1,148 125,-41 49,-5 77,-105 16,-56 32,-39 59,-77 -81,38 -18,3 -90,-12 -33,-7 -65,15 -89,16 -57,2 -24,-23 -107,-18l-65 14c9,-29 35,-73 55,-101l-39 -122c4,4 4,6 3,7 -50,29 -15,-18 -101,-29l-70 -26 -128 34c-17,49 -4,28 -39,58l-58 59c-132,134 -84,-4 -113,113l-93 27c-46,89 4,43 -81,113z"/>
   <path class="fil4" d="M6100 10601l-31 39c70,11 35,-9 59,28l-61 17 17 -59 -53 3 4 1 -23 44c-48,16 -25,8 -57,28 -29,35 34,27 -39,33l-24 -41c-4,4 -19,15 -22,18 -3,2 -10,11 -12,8 -3,-4 -9,5 -14,8 -26,20 -7,2 -39,16 -65,27 13,-31 -45,27 41,1 69,-12 111,-25 -6,4 -13,3 -17,14l-49 51 31 27c3,2 25,13 30,15l-26 31 57 18 15 -35 68 -18c94,-11 47,-27 120,-43l28 -41 23 2c1,-60 -12,-21 15,-54 95,0 18,-10 40,43l30 -9c-31,-37 -50,-7 -5,-64 46,19 46,-14 27,45l53 9c78,4 101,-21 199,-13 57,-12 20,37 49,-45 68,-7 18,-8 39,19 178,63 292,14 427,60 33,11 34,12 75,12 44,0 57,-19 86,14l112 13c39,-30 -42,-7 48,-31 26,19 17,-3 26,41 49,33 68,12 112,74l104 -7 -31 -59c92,27 24,32 85,1 1,90 -1,32 17,58 45,65 2,-30 20,22 13,38 14,-14 -7,22l13 32c7,0 36,2 41,4 76,28 -23,4 94,53 78,32 44,63 166,51 13,21 -2,-13 16,32 10,23 0,5 12,33l77 9c15,4 55,12 65,17 38,18 18,2 36,35l16 -5 -10 -53c64,9 24,13 76,2l47 -14c0,1 38,18 -7,52 -19,15 -35,6 -78,13l-4 23 65 12c57,52 25,38 98,64 8,6 31,19 35,22 36,36 -10,-26 26,36 18,31 6,9 27,23l38 33c69,1 43,2 108,33l20 10 176 156 8 27c49,34 33,1 75,39 18,17 4,8 23,32 4,5 22,24 31,34l19 16 -3 15 33 -16c23,-33 17,24 4,-140l-92 2c7,-50 -12,-27 27,-51 -3,-2 -26,-22 -26,-22 -16,-65 -9,-30 16,-47l0 -5c8,-101 8,-26 -20,-44 -78,54 16,21 -66,51 -91,34 -7,-40 -59,-105 -1,-2 -6,-5 -10,-8 101,-12 4,4 53,-33l-23 -35c-81,-2 -20,5 -45,-23 -25,-18 -20,-25 -59,-45 -24,-12 -59,-22 -92,-36l-26 18c-26,-11 -23,-10 -45,-22 -90,0 2,1 -93,24l-9 -111c-52,12 -39,13 -127,-22 4,-48 -11,-3 20,-54 -132,44 -112,19 -165,-2l11 -74 -52 -9 -22 -36 -27 -15 10 88c-84,-61 24,-35 -77,-73 25,-47 -36,-14 37,-15 -12,-10 20,-23 -51,-22l-50 -9 -18 -40c-71,-36 -80,-8 -156,-66 -45,-33 -85,-75 -146,-84 0,7 -2,43 -2,46 -1,3 -3,12 -3,10 0,-1 -2,6 -1,13l-48 18c-6,-81 -31,-13 30,-74 -99,17 -33,11 -51,-14 -21,-59 2,-2 -31,-41 -2,-3 -6,-6 -8,-9 -2,-2 -5,-7 -6,-9l-75 -22c-93,-9 -61,-37 -140,-33l-31 42c-16,-33 9,-4 -29,-36l-12 2 -34 32 -26 -59 -37 -4 -29 35c-36,2 -29,12 -29,-22l-250 -23c-39,13 -57,9 -98,-26l-71 20c-34,41 64,41 -76,35 -70,-3 -43,-18 -47,-22 94,-26 8,2 47,-35l-139 -2c-30,55 21,1 -30,51 -30,-9 -7,-1 -27,-14 -2,-1 -17,-15 -22,-19 -25,3 -218,54 -258,88z"/>
   <path class="fil5" d="M12967 8167c-50,42 -28,31 -103,61 -59,24 -61,42 -68,101 -52,-8 -112,-17 -162,-3 -81,24 -44,50 -64,114 -62,30 -84,16 -122,46 -2,2 -6,6 -8,8l-18 20c-2,3 -6,8 -10,11 -55,-27 -7,10 -49,-37 -27,36 -52,54 -94,77 33,15 12,11 48,2 42,-10 1,-25 51,-2 -15,21 2,12 -26,29 -64,39 -99,18 -122,12l-5 87c-28,13 -56,22 -81,35l33 16c34,22 16,-3 34,34 -41,30 -29,12 -90,28l-33 96 62 3c16,42 -15,29 59,20 39,-4 80,-6 119,-8 55,-30 12,-72 78,-105 32,50 38,63 23,120l26 7c22,-76 15,-33 33,-53l75 3 184 19c52,-34 61,-30 134,-27 50,-17 68,-14 126,-26 87,-17 52,-35 120,-42 -33,-22 -44,-62 -108,-46 -30,-71 -16,6 -46,-112l-33 12c-3,2 -10,5 -13,6 -74,36 34,-9 -26,14l34 -94c-37,4 -54,24 -72,4 -1,-2 -3,-9 -3,-7l5 -23c0,-1 23,-34 33,-51 42,-75 6,-17 15,-115 25,-18 45,-30 67,-45l9 25c1,2 2,9 3,11l2 20c1,1 1,6 2,8l42 -30 -14 -87c5,-4 9,-13 10,-10l51 -95c10,-39 7,-18 0,-48 -80,30 -48,43 -72,53 -75,1 -7,8 -36,-36z"/>
   <path class="fil6" d="M14976 7727l-7 43 -48 23 -2 90 17 23 -48 29c-12,-22 -38,47 0,-42 -46,9 -39,28 -51,56l20 37c-26,31 8,1 -37,33 -24,18 -2,10 -44,22 -20,31 34,28 -41,24 59,18 -2,-19 29,25 -23,68 4,41 -75,65 33,-53 -13,-14 43,-49l-7 -58c-46,21 -14,-3 -48,28 -38,36 26,-34 -14,18 -16,19 -10,14 -23,35 55,-1 5,-25 34,8l-42 33 -4 -36c-20,15 -14,-1 -29,26 -8,13 -6,11 -6,28 -21,58 -25,27 2,71 -23,-6 -40,-13 -42,-14 -15,-4 9,-5 -51,-7 -61,31 -50,43 -92,77 -61,49 -92,27 -109,79 28,34 18,9 22,56l-142 17c-82,14 -57,52 -162,66 40,44 -54,31 35,33 -71,36 -28,12 -51,-7l-82 6c-9,34 2,29 -29,22 -3,4 -16,20 -17,22 -1,1 -5,12 -6,9 -1,-2 -4,7 -6,10 6,94 -7,55 19,134 -21,27 -48,53 -61,85 70,-15 16,13 64,-32 35,-35 205,-109 257,-111l-14 -34c76,-16 64,-5 104,-50l6 25 84 -22c-18,-64 25,-19 -22,-61l56 16c60,-2 17,-9 75,-21l47 -45c44,-24 37,-40 97,-75l-6 -69c68,-33 20,-2 57,-40 20,19 59,-46 6,32 42,-12 9,11 36,-15 18,-16 16,-19 29,-47 -10,-10 -68,5 76,-99 18,19 47,-55 7,35 28,-17 10,-3 43,-31 17,-15 15,-16 29,-26 22,-26 14,-27 17,-34l-3 -42c69,-5 44,12 64,-52 27,25 51,-34 14,37 36,-27 29,0 45,-62l-47 11c12,-38 38,-52 58,-80 27,-39 1,0 21,-44 42,-94 -34,46 10,-25l14 -18c58,-62 89,-126 94,-136l11 -24c27,15 0,-26 43,37 17,-49 -33,-42 45,-36l38 -58 0 -25 -3 -10 -41 -2c-7,-26 -8,-39 -17,-65 -47,25 -35,7 -65,65 -79,-61 -19,40 -25,-48 -23,23 -11,-6 -24,32 0,1 -4,38 -5,42 -128,33 -34,20 -120,87z"/>
   <path class="fil7" d="M11105 12682l29 42 -67 -27c83,95 117,10 198,148l49 -13c64,77 72,28 123,101l106 -10c55,47 68,27 112,69 13,5 14,6 25,11 2,1 9,8 10,5 2,-3 7,4 11,5l-9 22c38,7 60,4 93,13 32,8 32,20 64,34 73,30 73,-7 146,2 -22,-46 -9,-4 -13,-62 6,0 14,-4 17,3 3,6 12,2 16,3 23,5 22,14 102,5l33 53c80,-30 82,-2 71,56l45 1 26 53c70,-40 8,-23 72,-36 -3,-77 0,-51 16,-74l41 24c33,11 44,7 84,5l-48 48 43 5c53,2 37,-3 65,-6 34,-3 19,1 33,-1 21,-2 19,-3 29,-8l-57 -19c3,0 9,-9 11,-5 3,4 10,-6 13,-7 68,-27 69,-18 103,-5l-23 25c-2,3 -7,10 -12,15l71 -9 5 20c72,3 10,4 37,-19l-34 -4c21,-32 -27,-14 37,-35 89,-30 114,-50 171,-56l-25 -11 -45 -8c-53,-39 -41,-12 -98,-76l2 -27 -47 1 2 2 -46 40c49,13 15,-1 39,55l-113 -38c-10,34 11,21 -91,69l-27 -68 -69 -13 -60 70c-2,-3 -5,7 -8,10 -39,-11 -43,-8 -73,-26 -74,-45 -125,-58 -206,-35 -114,-107 -50,-21 -133,-73 37,-21 34,16 54,-24l-92 -21 -20 59 -30 -76c-1,-7 -6,-8 -9,-12l-68 -8c-53,-14 -87,-8 -128,13l-114 -30 36 -70c-77,14 -26,-5 -91,-11l-105 -10c-40,60 52,39 -83,51l44 -84 -4 -63 -23 -1 -60 8c5,23 5,31 -44,81l-109 -46z"/>
   <path class="fil8" d="M12775 13149c-27,23 35,22 -37,19l-5 -20 -71 9 -35 -4c-10,5 -8,6 -29,8 -14,2 1,-2 -33,1 -28,3 -12,8 -65,6l-88 4c53,120 -9,16 85,82 11,72 -12,127 -47,185l-34 102c188,-18 145,-16 174,-57 -18,-13 22,-23 -85,1l22 -81c52,38 42,48 132,65l28 3c101,8 67,-2 114,-31l-9 70c-59,6 -77,-9 -126,-21 24,74 26,22 39,92 -2,1 -31,8 -31,9 -4,1 -9,3 -13,5l-96 37 0 78c96,3 183,0 253,-80 -13,-43 10,-7 -29,-37l-28 -18c143,24 63,-28 143,-103 114,18 -6,2 82,38 88,-71 109,-113 109,-257l-81 -6c-32,51 -22,46 -44,103l-57 -9c-5,-44 -7,-3 8,-57 -48,-1 -61,-8 -92,-31 59,-40 36,-4 63,-67l-42 -7c-1,-1 -7,-1 -9,-2 -1,0 -6,-1 -8,-1l-11 -37 -47 9z"/>
   <path class="fil9" d="M9470 12037c56,19 33,32 110,32l12 68 9 3c12,-8 -4,-15 57,-29l134 92c2,-2 6,3 9,5 48,14 19,-27 45,38l48 -14c53,36 30,25 36,50 5,0 52,1 56,2 41,7 21,-2 42,20l-2 -7 47 7 11 48 7 -1c26,-30 77,-13 110,-3l23 56 47 2c-35,-45 72,-37 -51,-37 30,-18 -3,-13 51,-11 6,1 27,7 59,5 -34,77 11,47 -56,70l50 40c86,37 -27,-37 219,72l12 -44c79,25 65,7 70,82l40 -2 -7 10c45,4 79,3 118,23 51,25 -15,5 63,30 67,22 114,34 180,51 -19,-32 -10,-18 -31,-38 -78,-74 6,27 -30,-26 53,-47 12,-6 94,-22 19,50 8,30 41,57l-12 -80c6,-14 7,-13 15,-38l-61 34c-16,-56 -34,-55 -35,-56l-21 -20 -42 7c16,64 1,-2 54,45 -21,40 10,11 -38,41 -31,-39 -66,-81 -149,-93l-8 -47c-68,12 36,12 -72,24l-49 -97c-70,-21 -86,-25 -129,-83l-52 11c-11,31 8,55 -103,45 1,-2 18,-45 18,-46l8 -35 -42 -28c-22,-9 -1,-1 -31,-4 -57,26 -10,-12 -38,62 -76,-15 -23,12 -71,-36 39,-90 32,12 46,-67 -41,-37 -79,-46 -132,-41l-28 -1c2,45 5,7 -4,42l-82 -24 -49 37c-104,-38 22,-56 -118,-29l-62 -102c-12,16 -2,17 -4,26 -8,38 7,1 -13,30l-51 -88c-16,1 -62,4 -71,7 -38,14 -27,11 -48,39l-5 -44c-2,-1 -34,-15 -40,-18l-28 -15c1,-18 0,-22 -2,-31 -1,-4 -10,-15 -11,-23 -1,-7 -5,-8 -8,-12l-55 41c-1,35 20,-13 0,38z"/>
   <path class="fil10" d="M13549 7789c86,11 51,58 101,29 1,-1 1,-3 -3,-7l39 122c-20,28 -46,72 -55,101l65 -14c83,-5 50,20 107,18 24,-1 56,-23 89,-16 72,15 9,50 90,12 -27,38 -43,21 -59,77 -28,100 48,64 -77,105 15,-88 20,-85 -1,-148 -63,26 -55,25 -130,12 -34,134 -149,11 -144,204 67,-25 25,-2 46,-24 29,-30 -16,-20 53,-55l35 -17c3,-2 8,-6 12,-9 2,44 -28,27 47,34 -13,21 -16,35 -22,45 -12,20 13,-13 -12,17l-8 77c-44,-14 31,9 51,15 30,9 11,6 42,6l55 2c-6,68 -4,53 34,108l-19 33c72,-71 133,-287 141,-300 25,-44 46,-38 67,-94l-43 -67c-39,-71 18,-63 -46,-163 -43,25 -33,33 -79,44 16,-41 54,-76 80,-109 -4,-2 -9,-10 -11,-7 -8,15 -54,-73 -116,-32l-39 -48c-34,37 -22,24 -66,7l-41 41c-6,-3 -11,-8 -12,-5 0,2 -6,-3 -8,-3l-56 -8c-138,2 -82,-14 -107,17z"/>
   <path class="fil1" d="M5258 11165l-11 32 25 24c-11,5 22,40 -49,1 -80,43 -55,55 -112,108 -2,2 -22,19 -27,23 -6,6 -17,17 -26,24 -59,52 -30,42 -89,76l63 39c-78,66 -78,99 -125,143l74 -18c-8,36 21,34 -30,43l-27 -7c-3,-6 -11,-5 -16,-7l8 59c-57,-28 -11,-10 -68,-27l-43 40 -56 -3 5 38 7 63 -22 -8 -42 83c-50,-25 -9,16 -22,-35 -9,11 -11,12 -23,32 -1,2 -7,14 -11,21l0 35c55,14 42,-23 19,66l46 -18c26,-6 -2,-6 17,3 3,16 7,10 -12,36 0,0 -29,31 -35,35 -27,-18 -26,-42 -35,-72l-91 109c-61,0 -27,3 -53,-18l-33 16c129,95 81,87 69,132 -1,62 22,44 31,45l15 -67c1,-4 3,-8 5,-12 15,-33 18,-56 42,-62 101,-27 13,-13 50,22 13,-11 13,-7 27,-25 9,-12 9,-14 18,-29 38,-62 -4,-29 52,-55l14 -39 -1 -52 43 -21c52,-24 28,-16 43,-30l-38 -12 38 -8c-4,-50 13,-35 48,-32l37 -54c66,-28 4,-18 82,-51l11 -54c-36,33 -23,-40 -37,35l3 -37c-8,-12 -19,38 -18,-48 2,-59 3,-18 22,-50l30 49 31 -43 11 41 20 -16c-3,-66 -8,-15 54,-37l-20 -59c12,-48 6,-32 20,-65l70 13c53,-23 15,-1 31,-37 -45,-8 -17,-29 16,-57l-2 47 73 -81c1,-48 -5,-41 -8,-50 -9,-26 -4,29 -16,-65l66 43 38 -15 31 -29 -37 -9c-29,-57 -3,-39 -35,-66l-59 -30c-5,-9 -14,-6 -21,-8l9 102c-64,-22 0,12 -37,-22l-27 -38z"/>
   <path class="fil11" d="M12035 8930l-77 -1 6 41 -92 8 5 57c56,44 31,-6 55,71 -6,1 -27,3 -31,5l-46 30c58,-1 62,-2 98,32l38 -9c28,-68 24,-13 26,-93l120 -35c54,59 -15,18 79,99 37,27 4,19 56,16l42 -44c17,24 25,34 43,55 18,-7 51,-18 65,-24l112 3c103,-12 -22,18 37,-7 4,-2 24,-13 28,-16l59 5c-34,-32 -14,-33 -43,-33 27,-29 20,-18 21,-34 0,-3 -2,-9 -2,-12l-27 -69c-1,-7 -6,-9 -9,-14l33 0c-3,-1 -56,-13 -57,-14 -47,-17 -51,31 -49,-34l-80 26 -26 -7c-37,9 -78,25 -101,-15 -39,2 -80,4 -119,8 -74,9 -43,22 -59,-20l-62 -3 16 28 -31 57 -28 -57z"/>
   <path class="fil12" d="M13682 8678l3 65c-39,-8 -42,-17 -97,-25 -49,6 -4,-18 -79,9 -28,10 -8,12 -41,11 -2,0 -35,-8 -47,-10l-31 61c-49,-11 -8,-4 -55,-22 -28,8 -183,19 -183,51l107 -6 -36 63c43,28 36,17 58,60l90 20c4,2 8,5 12,7 43,17 6,10 55,3l3 25 86 -68 99 5c-29,-33 8,-23 -48,-30 -57,-6 -19,4 -51,8l-97 2c41,-89 -7,-35 88,-39 126,-5 133,-17 148,56 32,-17 18,-7 54,-17l-5 4 80 -14 -46 -61 72 11c13,-32 40,-58 61,-85 -26,-79 -13,-40 -19,-134 -21,1 -53,4 -75,1 -64,-9 -27,11 -47,-25l-59 74z"/>
   <path class="fil6" d="M12871 8881l-32 78 -50 -65 -52 14 -184 -19c-22,33 33,23 -28,24 -2,65 2,17 49,34 1,1 54,13 57,14l44 -8c26,111 -25,36 66,63 -60,12 -35,2 -67,42 61,43 125,23 179,25l183 -17 85 -48 -49 -8c107,-54 61,-21 111,-94l94 65c3,2 8,7 11,10l-34 8 25 26c64,-62 40,-28 134,-40l28 5 -3 -25c-49,7 -12,14 -55,-3 -4,-2 -8,-5 -12,-7l-90 -20c-22,-43 -15,-32 -58,-60l36 -63 -107 6 -35 -5c-68,7 -33,25 -120,42 -58,12 -76,9 -126,26z"/>
   <path class="fil13" d="M6821 10525l250 23 58 -13 37 4c5,3 22,11 26,13 5,2 12,5 17,7 5,2 12,5 17,7l12 -2 60 -6c79,-4 47,24 140,33l-5 -33c0,0 35,-38 29,-73 -12,-65 1,-13 -64,-54 -3,-2 -7,-5 -9,-7 -8,-5 -65,-49 -66,-50 -32,-35 -10,-41 -54,-76 -64,-52 -114,-12 -229,60l-120 49c-3,5 -7,15 -8,18l-74 65c-48,0 -2,-6 -17,35z"/>
   <path class="fil14" d="M13661 12500l-186 150c-1,-3 -6,5 -9,8l4 24 31 31c-24,21 34,26 -45,13l5 33c-52,14 -34,5 -65,36l-86 -8 -19 33c52,22 19,2 58,57 23,-15 9,-10 41,-10l-27 61c148,-30 34,-18 76,22l13 -19 23 -57c40,-52 30,-2 94,-104 63,7 8,-5 38,29l106 -34 -66 7c22,-36 8,-24 40,-50 4,-4 31,-17 41,-22 34,-19 51,-33 78,-47l0 14c56,-21 35,-8 70,-47 -48,-1 -14,16 -40,-11 24,-17 32,-27 60,-52 72,-63 66,-104 81,-34 34,-19 19,24 33,-42l-17 -26c-45,17 -30,-23 -39,21l-33 -38c-37,23 51,7 -25,6l-68 1c-5,1 -33,14 -38,16 27,-110 32,-41 -6,-76 -6,85 30,79 55,133 22,48 -18,43 -49,17 -40,28 -30,30 -74,27 -33,-29 -47,19 -14,-54l-41 -8z"/>
   <path class="fil15" d="M5772 11005l4 2 -126 99 -4 18 -9 44 -34 -7 -44 44 -65 -2c9,31 13,33 -29,33l-31 29 -80 87 -73 81c6,33 4,11 -14,10 -16,36 22,14 -31,37l1 17c-94,28 12,-11 -30,36l62 5c71,22 -37,47 91,28 5,-108 -49,-56 -14,-116 68,63 -6,54 119,83 3,-119 9,-33 -70,-82l116 -101 37 34c3,2 8,6 11,10 5,-2 12,-11 14,-7 2,3 10,-6 12,-7 54,-30 11,-14 104,-25l-67 -52c7,-34 8,-48 27,-74 45,-60 3,15 52,-49 49,13 42,16 89,-8 7,-73 50,-34 -41,-66 12,-21 2,-13 22,-25l65 -27c1,-1 -44,72 17,-3 48,-60 12,-40 -20,-60l-61 14z"/>
   <path class="fil16" d="M9525 11958c3,4 7,5 8,12 1,8 10,19 11,23 2,9 3,13 2,31l28 15c6,3 38,17 40,18l5 44c21,-28 10,-25 48,-39 9,-3 55,-6 71,-7l51 88c20,-29 5,8 13,-30 2,-9 -8,-10 4,-26l62 102c140,-27 14,-9 118,29l49 -37 82 24c9,-35 6,3 4,-42l28 1 -11 -17c-31,14 -34,16 -54,33l-33 -74 -42 19c-16,5 -12,6 -35,6 34,-38 19,-2 37,-69 -37,-14 -67,-23 -110,-31 -75,-15 -66,-24 -105,-56l-81 3c-77,9 -31,4 -79,37l6 -89c-145,35 -45,25 -87,-7 -10,-16 -18,-27 -21,-58l-33 0 24 97z"/>
   <path class="fil17" d="M11854 12852c3,4 8,5 9,12l30 76 20 -59 92 21c-20,40 -17,3 -54,24 83,52 19,-34 133,73 81,-23 132,-10 206,35 30,18 34,15 73,26 3,-3 6,-13 8,-10l60 -70 69 13 27 68c102,-48 81,-35 91,-69l113 38c-24,-56 10,-42 -39,-55l46 -40c-62,13 -81,29 -139,20 -113,-19 -40,-4 -125,6l-66 -9 -19 26 -35 -56 -106 32c-24,-14 -17,-9 -36,-26 -2,-2 -7,-4 -9,-10 -2,-7 -6,-8 -9,-11l5 0 -56 2c-29,25 -36,20 -61,-3l-28 -29 2 -48 10 -10c-65,15 -28,16 -109,29 -30,5 -56,10 -103,4z"/>
   <path class="fil18" d="M13117 12854l-36 23c59,65 38,2 74,122 -67,-23 -93,-27 -169,-39 -13,60 -13,37 -62,83l25 11 -12 44 27 -9c20,18 20,-38 14,45 6,-5 18,-16 21,-10 2,4 12,-7 27,-19l44 -45 191 -27 74 -62 79 -10 -99 -33 34 -51c-65,-6 -16,18 -65,-27l-52 36c-57,-78 -7,-26 -96,-56l-19 24z"/>
   <path class="fil19" d="M5683 12287l-58 -61 -89 -1 -42 -90c-197,-4 -24,5 -148,44 -19,-20 -28,34 -32,-69l-58 -5c30,26 -27,11 40,33l-83 34c11,26 24,47 36,69 -31,17 -35,14 -39,52 169,23 30,-47 251,29 26,-18 37,-27 65,-44l66 40c22,-16 38,-30 53,-44l38 13z"/>
   <path class="fil4" d="M9051 11779c75,-5 14,-5 28,17 3,3 8,4 9,9 1,8 13,16 16,19 9,12 10,16 28,31 44,-1 30,1 39,49 32,0 74,-6 106,7 47,20 17,19 37,74l108 31 20 67 28 -46c20,-51 -1,-3 0,-38l55 -41 -24 -97 -7 -8c-47,71 36,-76 -12,28 -15,32 3,14 -22,35 -49,46 -55,44 -130,59l31 -51c14,-24 10,-3 17,-36l-69 24c-13,-40 -8,-23 -22,-64 31,-57 10,-41 62,-51l-19 -51 -18 -5c-70,33 -61,61 -141,69 20,-59 20,-40 52,-81 -12,-12 -24,-27 -38,-43 -38,-3 -138,30 -134,93z"/>
   <path class="fil15" d="M9117 11564l7 32 75 34 36 11c17,18 31,31 42,42 42,45 12,-3 35,58l18 5c51,15 61,22 104,36l11 -135 -97 -99c-31,-21 -7,-3 -33,-16 -3,-2 -8,-4 -11,-6l-21 -11c-43,-18 -6,-6 -60,-4 -40,-50 0,-26 -63,-50 0,52 7,35 -23,66 -19,20 -16,3 -20,37z"/>
   <path class="fil1" d="M5602 10896c15,16 55,8 11,49 -19,18 -27,9 -54,7 -14,34 21,17 -44,34 0,3 0,7 0,8 0,1 -1,7 -1,8 -1,3 -6,14 -9,19l-11 46c-95,14 -21,8 -39,-21 -29,62 22,-2 -25,27 2,5 5,11 7,13l-11 54c-4,89 -15,-5 84,7l27 -47c3,-3 8,-7 10,-10 3,-2 8,-6 12,-9 64,46 15,32 87,43l4 -18 74 -40 -12 -32c-4,-5 -9,-10 -12,-13 -2,-4 -8,-9 -10,-13 -2,-3 -6,-8 -8,-12 -10,-23 -4,-13 -4,-33l12 -70c39,-4 63,0 74,-47l-15 -65c-58,21 -105,58 -147,115z"/>
   <path class="fil13" d="M8232 11202l4 -23 -28 0 -16 5 -42 -13c-57,66 -30,51 -106,65 8,151 25,122 82,125 -9,83 46,132 86,139 111,20 83,-32 85,-33 -10,-59 15,-37 -33,-58 -48,-21 -30,0 -32,25 41,-34 19,7 32,-65l-28 -17c-1,0 -28,-11 -33,-12l14 -70c71,-27 12,17 64,-33 -3,2 5,72 -49,-35z"/>
   <path class="fil20" d="M10543 12545c-246,-109 -133,-35 -219,-72l-50 -40c-10,-5 -24,25 -3,-27l-47 -2c-65,-19 -85,-59 -133,-53l-7 1 -36 -15 -22 -40 2 7c-28,33 -8,-18 -35,65 15,9 5,8 40,19 25,8 76,4 108,53 22,31 15,34 19,79 5,-2 11,-4 15,-6l29 -11c65,-19 57,-10 129,16 62,23 65,-2 106,32 -8,28 -54,86 22,91 25,2 18,-1 46,-14 61,-29 38,-15 53,-46 -75,-1 -2,10 -17,-37z"/>
   <path class="fil9" d="M8978 11754c19,34 30,23 73,25 -4,-63 96,-96 134,-93l47 -6 -33 -50 -75 -34 -7 -32 -70 -15c-59,-47 -27,12 -45,-70l-62 1c-25,17 -32,-18 -16,47 0,0 23,20 26,22 -39,24 -20,1 -27,51l92 -2c13,164 19,107 -4,140l-33 16z"/>
   <path class="fil19" d="M9880 12549c101,103 51,38 84,31 51,-9 32,42 28,96l125 -61c-7,-65 -13,-46 -47,-99l71 -33c-27,-36 25,-7 -28,-31 -46,-21 -100,-2 -143,1l-28 -33c-31,48 -56,67 -62,129z"/>
   <path class="fil6" d="M14220 12033l34 8c-5,3 -16,16 -19,19 -65,69 -49,24 -101,79 -45,0 -37,10 -19,-32l-45 47c21,31 5,18 39,44 32,25 -9,18 63,23l57 82 53 -84 -13 -63c36,-46 14,10 37,-46 13,-35 -28,0 15,-46l-12 -43c-72,-17 -1,-9 -65,-22l-24 34z"/>
   <path class="fil13" d="M9831 12258l-22 -42c-1,-1 -5,-5 -8,-8 -43,5 -106,7 -155,9 25,-80 26,-52 12,-87l-57 10 -9 -3 -28 8 -78 2c24,49 21,12 10,44l-29 59c151,-4 92,-38 175,51 24,-8 21,-6 43,-13 44,-14 58,-32 83,-10 2,2 10,14 13,16 2,1 -2,18 57,9 5,-27 39,41 -7,-45z"/>
   <path class="fil21" d="M11491 9051l36 -11c-45,-54 -22,-36 -97,-43l-28 -2c-5,-1 -18,-5 -23,-6 -131,-27 -141,-31 -179,-93 -51,58 -24,15 -198,-2 -107,-11 -134,-13 -182,-54l-22 22c24,41 79,47 139,63l554 126z"/>
   <path class="fil22" d="M14326 11913l-30 38 13 70 12 43c-43,46 -2,11 -15,46 -23,56 -1,0 -37,46l13 63c4,-3 9,-13 11,-10 2,3 9,-8 11,-10l31 -26c42,-29 9,7 51,-31 -2,-1 -104,-18 14,-61l25 -18c58,-19 -18,24 36,-9 42,-26 -3,16 33,-30l-43 0c34,-26 23,-6 20,-53 -93,30 -50,18 -63,4 22,-19 13,-6 11,-39 -22,-36 -19,-16 -6,-59l16 2 -28 2c-28,39 -20,27 -75,32z"/>
   <path class="fil23" d="M14583 11541l43 -6 21 49 -42 42 -33 4 4 -48c-47,24 -23,11 -35,87l31 19c-56,22 -34,8 -47,40 -45,111 13,92 19,99 66,-43 3,18 29,-30l43 -98c3,-4 7,-9 10,-14l16 28c40,-16 25,18 34,-45 -61,13 -4,26 -46,-4l62 -124 38 9 0 -33 -55 -4c0,-49 0,-35 -19,-57 -17,-21 -14,5 -14,-49l-30 9c-11,53 -19,61 -29,126z"/>
   <path class="fil24" d="M13921 12310c-127,-2 -56,39 -132,76l-5 -1c38,35 33,-34 6,76 5,-2 33,-15 38,-16l68 -1c76,1 -12,17 25,-6l33 38c9,-44 -6,-4 39,-21l17 26c11,-47 -3,-11 26,-50l-13 -79c-2,-1 -6,-3 -7,-3l-56 -67c-1,-6 -5,-8 -7,-12 1,59 18,54 -32,40z"/>
   <path class="fil20" d="M11598 12756l7 45c57,-9 37,-11 97,0 56,11 67,1 84,43l68 8c47,6 73,1 103,-4 81,-13 44,-14 109,-29 0,-89 8,-3 -128,-13 -49,-4 -18,-9 -57,0 -70,16 -33,28 -113,-20 2,2 10,-5 11,-2 2,4 18,-7 23,-16 27,-46 16,4 3,-53l-71 37c25,-69 13,-38 6,-54 -43,18 -60,13 -101,-3l-9 68c14,-56 -5,-26 -37,-40 -5,27 -20,30 5,33z"/>
   <path class="fil24" d="M12924 12886l13 23 -53 74c-47,-5 -44,-10 -62,-29l-41 5c57,64 45,37 98,76l45 8c49,-46 49,-23 62,-83 76,12 102,16 169,39 -36,-120 -15,-57 -74,-122l36 -23c-93,7 -14,-5 -71,17l-57 22c-3,45 2,7 -65,-7z"/>
   <path class="fil25" d="M15230 8986l20 40 -31 31 -3 167 0 62 38 -31c29,-37 -20,3 26,-35l21 -292c17,-46 15,-70 -3,-139 -66,57 -24,29 -38,99 -6,31 -24,53 -30,98z"/>
   <path class="fil26" d="M5824 7395c104,21 100,-1 184,-19 117,-25 45,43 174,-30 68,3 131,43 197,19l32 -47 -47 19 -43 10c-80,-38 -48,-67 -154,-30l-40 13c-87,21 -2,6 -76,3 -100,-4 -64,31 -160,17 -18,-2 -25,-55 -108,39l41 6z"/>
   <path class="fil20" d="M6100 10806c-73,16 -26,32 -120,43 -20,24 15,2 -35,36 -44,29 -6,7 -48,17l0 16 5 57c105,-27 65,-38 101,-58 72,-38 56,26 96,-57l48 49 9 -80c169,3 137,-40 157,-67l-122 33 -25 12 -66 -1z"/>
   <path class="fil7" d="M5258 11165l27 38c37,34 -27,0 37,22l-9 -102c7,2 16,-1 21,8l59 30c32,27 6,9 35,66l37 9c42,0 38,-2 29,-33l33 -14c41,3 -19,-11 49,11l-8 -62c72,-11 5,-8 35,23l34 7 9 -44c-72,-11 -23,3 -87,-43 -4,3 -9,7 -12,9 -2,3 -7,7 -10,10l-27 47c-99,-12 -88,82 -84,-7 -2,-51 7,-20 -24,-32 2,39 3,26 -7,40l-12 -23c-7,-46 -18,10 19,-19l-2 -34 -53 4c-14,62 -50,67 -89,89z"/>
   <path class="fil19" d="M12099 13659c19,46 30,56 94,48 64,-8 32,-2 83,-43 22,117 -13,46 -20,122 38,-7 49,-16 86,-58 57,51 5,48 84,65 -22,-101 -31,-64 -92,-113 -27,-44 -9,30 -1,-16 0,-1 1,-6 2,-7l29 -67c3,-4 7,-10 10,-15 -63,-17 -8,15 -28,-32 -45,36 -30,-4 -25,81 -131,-3 -7,6 -111,35 -25,7 -80,4 -111,0z"/>
   <path class="fil2" d="M5712 11034c-1,-40 17,-26 64,-27l-4 -2c13,-63 8,-9 -2,-78l34 -7 21 -2 15 -34 26 -31c-5,-2 -27,-13 -30,-15l-31 -27 49 -51c4,-11 11,-10 17,-14 -42,13 -70,26 -111,25l-11 10 15 65c-11,47 -35,43 -74,47l-12 70c0,20 -6,10 4,33 2,4 6,9 8,12 2,4 8,9 10,13 3,3 8,8 12,13z"/>
   <path class="fil27" d="M14062 12122c-26,90 -49,46 -6,137 -56,-3 -50,-9 -104,-5l1 16c2,4 6,6 7,12l56 67c1,0 5,2 7,3l13 79c65,-30 19,-47 6,-121 71,-23 27,-11 70,-44l60 -45c-72,-5 -31,2 -63,-23 -34,-26 -18,-13 -39,-44l45 -47 13 -18c-56,10 -48,0 -66,33z"/>
   <path class="fil28" d="M14036 12431c-29,39 -15,3 -26,50l54 -2c23,-38 22,-37 37,-69 -30,-23 -26,18 -17,-53l28 31c44,-13 20,3 61,-29l56 -56 -57 -82 -60 45c-43,33 1,21 -70,44 13,74 59,91 -6,121z"/>
   <path class="fil29" d="M12172 12841l27 66 -5 0 71 -46 -17 93 106 -32 35 56 19 -26 66 9c-3,-4 -8,-16 -10,-13 -3,4 -13,-13 -21,-21 -72,-71 -22,-72 -89,-94 -95,-31 -38,38 -182,8z"/>
   <path class="fil15" d="M10546 12303c43,58 59,62 129,83 39,14 50,16 104,23 -10,-33 -23,-75 8,-102 -88,-13 -10,-13 -170,-45 -21,84 18,41 -71,41z"/>
   <path class="fil30" d="M11867 13727c43,24 43,17 103,17 16,-32 17,-66 58,-47 50,24 11,-3 22,46 2,10 3,38 10,60 68,17 81,13 138,-24 -25,-24 8,-4 -35,-30l-114 -48c11,-64 -12,-25 52,-45 -27,-17 48,-32 -66,-25 -58,3 -67,64 -82,89l-86 7z"/>
   <path class="fil8" d="M10488 13315c0,42 52,35 93,36 -15,41 -13,31 -5,46 27,-14 59,-27 82,-37 33,21 34,16 59,27 -50,-90 -35,9 -38,-90 -80,-1 -77,9 -108,-48 51,-11 38,15 77,15l-6 -74c-86,13 -41,3 -81,65 -37,57 -42,51 -73,60z"/>
   <path class="fil31" d="M11995 13084c61,20 123,43 173,88l53 -30c11,-58 9,-86 -71,-56l-33 -53c-80,9 -79,0 -102,-5 -4,-1 -13,3 -16,-3 -3,-7 -11,-3 -17,-3 4,58 -9,16 13,62z"/>
   <path class="fil32" d="M11991 9164c34,-4 18,-5 61,9 -37,-81 -13,-20 0,-35l10 40c85,-14 64,11 98,-43l56 0c-94,-81 -25,-40 -79,-99l-120 35c-2,80 2,25 -26,93z"/>
   <path class="fil27" d="M11093 12666l12 16 109 46c49,-50 49,-58 44,-81l60 -8c0,-42 -22,-26 -76,-29 -14,15 4,40 -49,8 -54,-5 -48,17 -80,-55l-17 -15c-8,25 -9,24 -15,38l12 80z"/>
   <path class="fil33" d="M4392 8031l-14 43 -26 1 -8 47 157 42 -8 -87c0,-50 -41,-14 12,-25l5 -76 -36 3c-15,32 15,12 -35,39 -44,24 -14,7 -47,13z"/>
   <path class="fil34" d="M8725 12090l-2 82c74,-25 48,-39 106,-55l42 58c26,39 -1,-1 18,27 88,-14 64,-11 112,-62 -65,-48 -9,33 -156,-54 -75,-44 -120,4 -120,4z"/>
   <path class="fil35" d="M8446 11106l29 0c-36,-43 10,-3 -30,-30 -17,-11 -36,-17 -49,-25 -7,89 -30,0 -34,-19l-45 -27c-3,-2 -8,-4 -11,-6 -4,-3 -15,-11 -19,-14 -55,-37 -22,-19 -102,-31l-11 74c53,21 33,46 165,2 -31,51 -16,6 -20,54 88,35 75,34 127,22z"/>
   <path class="fil36" d="M13666 8924l-40 3 -99 -5c-22,51 -11,63 -79,82 22,36 60,20 112,21l32 -67c46,1 46,-6 82,18 119,80 54,32 74,21 17,-71 26,-16 -41,-55l13 -35c-36,10 -22,0 -54,17z"/>
   <path class="fil27" d="M9287 11848c70,4 64,9 125,16l17 59 31 -7c25,-21 7,-3 22,-35 48,-104 -35,43 12,-28l-35 -48 -25 3 0 -26c-43,-14 -53,-21 -104,-36l19 51c-52,10 -31,-6 -62,51z"/>
   <path class="fil21" d="M10289 8525c36,13 180,52 195,79 20,36 188,51 191,51 12,-8 28,24 0,-23 -73,-35 -109,-46 -193,-74 -53,-17 -21,-18 -88,-37 -68,-19 -48,-25 -112,-41l7 45z"/>
   <path class="fil37" d="M14989 8024l25 -4 14 -45c8,-26 1,-27 21,-53 28,-36 -15,-1 37,-23 29,-32 19,-43 47,-74 12,-13 43,-38 62,-59l-2 -21c-43,-63 -16,-22 -43,-37l-11 24c-5,10 -36,74 -94,136l-14 18c-44,71 32,-69 -10,25 -20,44 6,5 -21,44 -20,28 -46,42 -58,80l47 -11z"/>
   <path class="fil38" d="M8374 11998c-57,-1 -22,-9 -26,43 61,38 41,3 113,21 43,-46 51,-36 63,-89 -3,-1 -7,-7 -9,-5l-18 -12c-56,-30 -56,-31 -108,-12l-15 54z"/>
   <path class="fil39" d="M8947 11435c26,14 46,26 81,37l19 77 70 15c4,-34 1,-17 20,-37 30,-31 23,-14 23,-66 -46,-31 0,-12 -59,-36l-34 50c-36,-61 -38,-63 -98,-55l-31 -35c16,40 8,14 9,50z"/>
   <path class="fil40" d="M13661 12500l41 8c-33,73 -19,25 14,54 44,3 34,1 74,-27 31,26 71,31 49,-17 -25,-54 -61,-48 -55,-133l5 1c-36,30 -2,0 -32,30 -22,22 -9,12 -34,33 -19,16 -44,36 -62,51z"/>
   <path class="fil41" d="M5580 11443c52,10 33,2 67,0 23,-1 85,7 131,-33 56,-49 16,7 33,-66l-177 27c-40,18 -43,35 -54,72z"/>
   <path class="fil42" d="M11786 8931l-24 63c-1,6 5,34 4,57l-33 18 57 7 32 -8 1 -56c28,-16 10,0 49,-34l92 -8 -6 -41c-8,-13 30,-19 -33,-8 -25,27 -103,12 -139,10z"/>
   <path class="fil25" d="M14723 11057c54,21 22,20 50,6 -1,-24 48,-162 55,-182l12 -185c-30,30 -44,147 -51,177 -11,41 -34,62 -45,90 -5,13 -21,88 -21,94z"/>
   <path class="fil30" d="M4872 11908c-15,14 9,6 -43,30 -13,50 -5,42 -42,73l-14 39 35 -17c3,86 -14,36 34,57l14 -82 66 -13c4,-96 -15,-35 35,-55l-38 -28c-1,0 -4,-1 -7,-2l8 -34c-4,4 -22,16 -25,19 -3,2 -10,10 -12,7 -2,-3 -7,4 -11,6z"/>
   <path class="fil18" d="M8940 11475l7 -40c-1,-36 7,-10 -9,-50 -37,-1 -46,-10 -67,-34 -4,-3 -9,-7 -12,-9 -3,-3 -9,-7 -12,-10 -3,-3 -9,-8 -11,-10l-21 -21 23 35c-49,37 48,21 -53,33 4,3 9,6 10,8 52,65 -32,139 59,105 82,-30 -12,3 66,-51 28,18 28,-57 20,44z"/>
   <path class="fil43" d="M14467 11792l-4 47 95 15c22,-15 6,0 27,-21 0,0 26,-33 26,-34 18,-30 31,-63 31,-86l-16 -28c-3,5 -7,10 -10,14l-43 98c-26,48 37,-13 -29,30 -6,-7 -64,12 -19,-99 13,-32 -9,-18 47,-40l-31 -19c-58,-7 -41,71 -74,123z"/>
   <path class="fil44" d="M12853 9083c-17,11 5,8 -46,18 -25,5 -25,1 -45,1 0,34 70,6 134,29 25,10 56,28 90,24 30,-3 23,-7 36,-15l14 -74 -183 17z"/>
   <path class="fil28" d="M15665 7085c27,-28 10,16 17,-26 0,0 -3,-38 -3,-44l35 -8 6 -65 -77 27c-45,12 -46,18 -83,85 -1,4 -4,8 -6,11 -25,52 -18,49 4,69 51,-59 9,-29 25,-73 16,-44 2,-29 57,-35 -78,26 -3,-3 -39,33l64 26z"/>
   <path class="fil45" d="M4535 12036c4,74 2,1 15,67l91 -109c9,30 8,54 35,72 6,-4 35,-35 35,-35 19,-26 15,-20 12,-36 -19,-9 9,-9 -17,-3l-46 18c23,-89 36,-52 -19,-66l0 -35 -106 127z"/>
   <path class="fil46" d="M12658 9123c41,-2 56,-14 104,-21 20,0 20,4 45,-1 51,-10 29,-7 46,-18 -54,-2 -118,18 -179,-25 32,-40 7,-30 67,-42 -91,-27 -40,48 -66,-63l-44 8 -33 0c3,5 8,7 9,14l27 69c0,3 2,9 2,12 -1,16 6,5 -21,34 29,0 9,1 43,33z"/>
   <path class="fil47" d="M13231 12795l79 -8 86 8c31,-31 13,-22 65,-36l-5 -33 -5 -49 -35 25c-83,53 -53,1 -118,54 -22,-14 -25,-19 -58,-21l-9 60z"/>
   <path class="fil48" d="M12834 13144l94 6c-83,95 9,100 9,100 62,-23 27,7 54,-44l32 -72 -54 9 -5 -54 -27 9c-37,33 -3,8 -64,28l-39 18z"/>
   <path class="fil49" d="M10796 12459l28 35c29,0 54,-1 81,-1 28,-1 30,1 61,0 0,-46 -62,-3 -147,-55l-40 -29c-54,-7 -65,-9 -104,-23l49 97c108,-12 4,-12 72,-24z"/>
   <path class="fil50" d="M8374 11998l15 -54c13,-81 14,-17 -41,-43l-16 39c-22,-23 -10,-37 -44,-41 -19,56 -4,131 26,172 3,-4 7,-18 9,-15l15 -27c27,-38 -30,-11 36,-31z"/>
   <path class="fil45" d="M15422 8163l-10 25 90 20 13 -170c-52,11 -22,12 -71,-14 11,57 -6,81 -22,139z"/>
   <path class="fil18" d="M9185 11686c14,16 26,31 38,43 -32,41 -32,22 -52,81 80,-8 71,-36 141,-69 -23,-61 7,-13 -35,-58 -11,-11 -25,-24 -42,-42l-36 -11 33 50 -47 6z"/>
   <path class="fil34" d="M8600 11893c5,71 -7,49 25,97 0,0 106,-7 19,-114l40 -28c3,-2 8,-6 11,-9 -165,14 -16,-13 -156,-14 32,58 26,30 61,68z"/>
   <path class="fil51" d="M4901 11574l-15 57c12,22 -9,11 22,15 5,2 13,1 16,7l27 7c51,-9 22,-7 30,-43l-74 18c47,-44 47,-77 125,-143l-63 -39c2,65 9,2 -24,55 -11,17 -9,16 -20,33 -15,23 -9,10 -24,33z"/>
   <path class="fil20" d="M8993 12370l-37 -53c-2,-3 -6,-6 -8,-8 -71,-90 -12,-85 -138,-104 30,145 1,43 88,103 53,37 14,63 95,62z"/>
   <path class="fil49" d="M11786 12844c-17,-42 -28,-32 -84,-43 -60,-11 -40,-9 -97,0l-7 -45 -18 1 -36 70 114 30c41,-21 75,-27 128,-13z"/>
   <path class="fil52" d="M8707 12303c1,-1 107,-78 -24,-122 -3,-1 -9,-2 -12,-3 -19,-5 -7,-2 -27,-1 -21,84 -3,97 63,126z"/>
   <path class="fil9" d="M9460 11916l-31 7 -17 -59c-61,-7 -55,-12 -125,-16 14,41 9,24 22,64l69 -24c-7,33 -3,12 -17,36l-31 51c75,-15 81,-13 130,-59z"/>
   <path class="fil34" d="M7847 11579c94,-6 28,-3 88,-48 55,-41 30,16 68,-70 -77,6 -45,7 -122,-3l-34 121z"/>
   <path class="fil0" d="M13466 12658c3,-3 8,-11 9,-8l186 -150 -67 -26c-31,32 -39,33 -89,38 12,58 1,20 21,70l-60 76z"/>
   <path class="fil53" d="M13231 12795l-95 35c89,30 39,-22 96,56l52 -36c49,45 0,21 65,27 -39,-55 -6,-35 -58,-57l19 -33 -79 8z"/>
   <path class="fil33" d="M9459 11805l35 48 7 8 33 0 0 -23c32,72 -7,28 68,50 -9,-64 -23,-56 -9,-96l-56 -12c-2,-1 -7,-5 -10,-8l-68 33z"/>
   <path class="fil54" d="M11822 9068c14,56 6,10 16,37 11,28 6,-7 8,38l9 -2 46 -30c4,-2 25,-4 31,-5 -24,-77 1,-27 -55,-71l-5 -57c-39,34 -21,18 -49,34l-1 56z"/>
   <path class="fil37" d="M13121 9018l133 -19 34 -8c-3,-3 -8,-8 -11,-10l-94 -65c-50,73 -4,40 -111,94l49 8z"/>
   <path class="fil55" d="M12775 13149l47 -9 12 4 39 -18c61,-20 27,5 64,-28l12 -44c-57,6 -82,26 -171,56 -64,21 -16,3 -37,35l34 4z"/>
   <path class="fil37" d="M8179 7559c-38,-26 -100,-62 -162,-67 -86,2 12,-54 -48,24 36,11 72,22 106,44 33,22 75,56 104,-1z"/>
   <path class="fil56" d="M8619 11197c-4,-3 -20,-12 -33,-19 -31,-17 -18,-11 -45,-23 -75,-36 -6,4 -66,-49l-29 0 9 111c95,-23 3,-24 93,-24 22,12 19,11 45,22l26 -18z"/>
   <path class="fil24" d="M9442 12083c14,12 7,13 32,26 25,13 -12,-5 25,9l65 27 28 -8 -12 -68c-77,0 -54,-13 -110,-32l-28 46z"/>
   <path class="fil33" d="M7343 10807l-45 -10 -112 -13 -63 4c51,60 137,54 209,58l11 -39z"/>
   <path class="fil21" d="M6477 7367l99 4 48 -25c46,-17 27,22 40,-8 2,-4 8,-1 11,-3 11,-56 12,10 -22,-65 -41,74 -70,36 -89,42 -40,13 13,31 -91,17l4 38z"/>
   <path class="fil57" d="M13921 12310c50,14 33,19 32,-40l-1 -16c54,-4 48,2 104,5 -43,-91 -20,-47 6,-137 -75,53 -58,34 -60,94l-81 14 0 80z"/>
   <path class="fil58" d="M13626 8927l40 -3c-15,-73 -22,-61 -148,-56 -95,4 -47,-50 -88,39l97 -2c32,-4 -6,-14 51,-8 56,7 19,-3 48,30z"/>
   <path class="fil34" d="M10658 12591l7 -10 -40 2c5,62 35,17 -62,62 42,15 19,-1 21,22 5,39 -12,-16 4,41 1,4 8,17 9,14 1,-3 8,9 12,14 73,-42 10,12 42,-62 19,-43 -14,0 37,-28l-30 -55z"/>
   <path class="fil30" d="M4969 12108c124,-25 55,-127 -44,-142l14 33c16,45 6,8 13,44 14,61 -26,-4 17,65z"/>
   <path class="fil59" d="M12318 8917c23,40 64,24 101,15 15,-57 9,-70 -23,-120 -66,33 -23,75 -78,105z"/>
   <path class="fil60" d="M11019 12695c63,26 25,9 48,2l67 27 -29 -42 -12 -16c-33,-27 -22,-7 -41,-57 -82,16 -41,-25 -94,22 36,53 -48,-48 30,26 21,20 12,6 31,38z"/>
   <path class="fil18" d="M4474 7979l36 -3 33 -5 26 -53 54 -15c26,3 20,9 20,-17 -51,6 -47,7 -84,-12 -28,23 -49,29 -93,39l8 66z"/>
   <path class="fil34" d="M9806 13052c2,-4 6,-16 7,-14 2,5 7,-54 50,-139 -57,1 -80,-7 -97,43 -15,49 19,88 40,110z"/>
   <path class="fil27" d="M10979 12506c11,-28 15,-23 -13,-13 -31,1 -33,-1 -61,0 -27,0 -52,1 -81,1l-28 -35 8 47c83,12 118,54 149,93 48,-30 17,-1 38,-41 -53,-47 -38,19 -54,-45l42 -7z"/>
   <path class="fil7" d="M10034 8407c-36,-34 -71,-32 -130,-58l33 52c-46,26 -3,-14 -34,63 -14,32 -17,16 -16,34l93 -13c-18,-72 -14,-51 8,-99l46 21z"/>
   <path class="fil34" d="M9108 12172l146 -66c-30,-26 -49,-42 -110,-55l-36 121z"/>
   <path class="fil61" d="M16019 6532l-16 37 37 9 41 3c8,22 18,48 21,59 29,81 -2,25 39,72l-6 -88c4,-49 -53,-88 -99,-105l-17 13z"/>
   <path class="fil49" d="M9801 12208c-3,-2 -7,-7 -9,-5l-134 -92c-61,14 -45,21 -57,29l57 -10c14,35 13,7 -12,87 49,-2 112,-4 155,-9z"/>
   <path class="fil62" d="M8821 11695l-14 -31 26 -46 -8 -27 -101 -30c-2,-7 -8,-5 -12,-9 31,106 37,97 95,134 4,3 10,6 14,9z"/>
   <path class="fil63" d="M4749 11715l56 3 43 -40 28 -113 -59 10c-15,77 -8,88 -35,107l-22 19c-3,3 -7,9 -11,14z"/>
   <path class="fil64" d="M5721 11526c16,-5 53,-17 65,-24 63,-36 30,27 43,-77 -93,-2 -116,4 -108,101z"/>
   <path class="fil45" d="M15506 7867c105,44 -68,91 72,88 -29,-19 -12,-15 -28,-46 26,-19 28,-18 45,-49l-62 -84c-24,19 -10,0 -20,36 -1,3 -7,53 -7,55z"/>
   <path class="fil34" d="M5844 10728c5,-3 11,-12 14,-8 2,3 9,-6 12,-8 3,-3 18,-14 22,-18l31 -39c-30,-34 -21,-19 -24,-67l-86 51c-3,2 -8,5 -11,8l38 42c2,2 5,5 8,7l-4 32z"/>
   <path class="fil65" d="M4937 7412c43,42 -54,21 52,45l-71 9 51 52c2,-4 4,-9 5,-11l67 -45 -12 -60 -92 10z"/>
   <path class="fil37" d="M8658 7931l21 -42c-63,5 -13,7 -60,-6l-40 -14c-3,0 -8,-1 -11,-2 -59,-10 13,-22 -67,-8 18,48 87,67 141,88 45,-22 9,7 16,-16z"/>
   <path class="fil66" d="M4564 12278l45 -11c41,-94 7,-44 67,-108 -37,-35 51,-49 -50,-22 -24,6 -27,29 -42,62 -2,4 -4,8 -5,12l-15 67z"/>
   <path class="fil21" d="M8744 7784c-44,-34 -138,-88 -200,-83l26 36c68,49 94,-5 137,80 68,-4 16,8 37,-33z"/>
   <path class="fil52" d="M6188 11975l-61 39c5,1 37,14 42,15l44 -2c19,-2 31,-7 36,-38l-10 -51c-2,-3 -6,-6 -8,-10l-30 -41 -13 88z"/>
   <path class="fil67" d="M15908 6624c62,-17 18,-33 46,11l74 -21 -25 -45 16 -37c-101,22 -85,8 -111,92z"/>
   <path class="fil52" d="M6818 11467l24 14c93,56 16,41 71,47 28,-73 11,-93 -65,-118 -15,23 -20,28 -30,57z"/>
   <path class="fil68" d="M11925 8921c63,-11 25,-5 33,8l77 1 59 0 -16 -28 -74 -43c-17,7 -36,12 -48,20 -27,21 -15,12 -31,42z"/>
   <path class="fil69" d="M15705 7922l-2 -10 36 -117c-36,37 -31,7 -48,84l0 -83c-13,31 -12,24 -39,44 -10,-65 22,-37 -50,-45 19,106 60,60 103,127z"/>
   <path class="fil70" d="M12803 12932c73,-17 48,-19 134,-23l-13 -23c21,-21 -48,-29 56,-9 -3,-82 -30,-64 -31,-59l-137 102c-2,3 -6,8 -9,12z"/>
   <path class="fil71" d="M13741 8604c20,36 -17,16 47,25 22,3 54,0 75,-1 2,-3 5,-12 6,-10 1,3 5,-8 6,-9 1,-2 14,-18 17,-22l-30 -38c-1,-3 -3,-10 -4,-13 -1,-3 -2,-9 -3,-13 -57,15 -12,26 -60,-1 0,38 -8,19 10,40 49,58 11,-46 41,49l-105 -7z"/>
   <path class="fil72" d="M13452 12931c54,-40 20,-30 85,-64 38,-20 50,-16 70,-68 -30,-34 25,-22 -38,-29 -64,102 -54,52 -94,104l-23 57z"/>
   <path class="fil16" d="M8658 11494c28,30 18,29 54,58 4,4 10,2 12,9l101 30 -176 -156 9 59z"/>
   <path class="fil73" d="M13713 12765c46,-32 92,-52 93,-98l0 -14c-27,14 -44,28 -78,47 -10,5 -37,18 -41,22 -32,26 -18,14 -40,50l66 -7z"/>
   <path class="fil74" d="M15717 6948l3 -6 -6 65 22 32c54,-67 13,-82 75,-120 -18,-46 40,-26 -37,-33l-57 62z"/>
   <path class="fil37" d="M11733 9069l-38 8c56,-8 3,-6 29,32 43,19 102,47 122,34 -2,-45 3,-10 -8,-38 -10,-27 -2,19 -16,-37l-32 8 -57 -7z"/>
   <path class="fil75" d="M15665 7085l7 19c30,20 2,44 -7,96 18,-17 10,-1 27,-28 11,-17 13,-25 21,-45 10,-29 17,-61 23,-88l-22 -32 -35 8c0,6 3,44 3,44 -7,42 10,-2 -17,26z"/>
   <path class="fil76" d="M13876 12620c41,-7 78,-55 101,-97 -15,-70 -9,-29 -81,34 -28,25 -36,35 -60,52 26,27 -8,10 40,11z"/>
   <path class="fil77" d="M14733 11403l81 -13c21,-64 4,-6 6,-71 1,-40 2,-46 9,-75l-31 9c-17,91 1,38 -51,124l-14 26z"/>
   <path class="fil56" d="M12364 13160l93 3 48 -48c-40,2 -51,6 -84,-5l-41 -24c-16,23 -19,-3 -16,74z"/>
   <path class="fil78" d="M14419 11936c2,33 11,20 -11,39 13,14 -30,26 63,-4 3,47 14,27 -20,53l43 0 2 10 13 -78 -14 -30c-35,-26 -26,9 -34,-44l-32 -3 -16 -2c58,24 24,7 48,33 -16,29 17,0 -21,29 -47,36 -3,7 -21,-3z"/>
   <path class="fil49" d="M12803 12932l-20 0 -2 27 41 -5c18,19 15,24 62,29l53 -74c-86,4 -61,6 -134,23z"/>
   <path class="fil52" d="M6572 11537l41 -49c25,-31 20,-14 33,-58 -78,-8 -56,-28 -85,27 -26,52 -2,56 11,80z"/>
   <path class="fil56" d="M8208 11179l28 0c43,-7 59,2 78,-13 45,-34 7,-51 7,-52l-47 14c-52,11 -12,7 -76,-2l10 53z"/>
   <path class="fil16" d="M10344 12246c-3,-3 -6,-13 -8,-10 -2,3 -7,-8 -10,-9 -30,-19 -2,-5 -45,-22 -14,79 -7,-23 -46,67 48,48 -5,21 71,36 28,-74 -19,-36 38,-62z"/>
   <path class="fil71" d="M12980 12877c-104,-20 -35,-12 -56,9 67,14 62,52 65,7l57 -22c57,-22 -22,-10 71,-17l19 -24c-50,-4 -45,-5 -84,-14 -53,84 -6,6 -72,61z"/>
   <path class="fil7" d="M10289 8525l-7 -45 -66 -12 27 39c-80,-18 -30,-27 -77,17 176,0 -22,27 115,34 17,-19 41,41 8,-33z"/>
   <path class="fil71" d="M12082 12906c20,-42 -26,-15 35,-43 32,33 10,-30 26,46l56 -2 -27 -66c-69,4 -2,-2 -67,17 -31,-42 2,-11 -49,-29l-2 48 28 29z"/>
   <path class="fil65" d="M14181 8467l142 -17c-4,-47 6,-22 -22,-56 -45,9 -37,4 -68,23 -69,42 -18,7 -52,50z"/>
   <path class="fil25" d="M14128 12089l-13 18c-18,42 -26,32 19,32 52,-55 36,-10 101,-79 3,-3 14,-16 19,-19l-34 -8c-3,2 -9,0 -11,5l-81 51z"/>
   <path class="fil79" d="M11345 12703c68,7 23,-6 39,33l105 10c-48,-54 -7,-3 -56,-36 -25,-17 -5,-2 -27,-25 -72,-74 7,-24 -65,-45l4 63z"/>
   <path class="fil13" d="M12342 11467c2,1 -12,32 53,20 63,-12 14,5 46,-36 -11,-9 35,-49 -61,-27 -79,17 -20,22 -38,43z"/>
   <path class="fil80" d="M14738 8035l-3 30c75,4 21,7 41,-24 42,-12 20,-4 44,-22 45,-32 11,-2 37,-33l-20 -37c-40,13 -49,48 -99,86z"/>
   <path class="fil16" d="M8821 11695c68,-26 -13,-32 76,-27l2 52 63 3c-9,-10 -27,-29 -31,-34 -19,-24 -5,-15 -23,-32 -42,-38 -26,-5 -75,-39l-26 46 14 31z"/>
   <path class="fil34" d="M6245 11370c36,-8 73,-6 84,-36 25,-65 -3,-32 -6,-41 -64,-12 -84,-4 -78,77z"/>
   <path class="fil47" d="M12272 9151c23,19 -27,10 48,34 36,11 41,4 74,1l28 -48c-14,6 -47,17 -65,24 -18,-21 -26,-31 -43,-55l-42 44z"/>
   <path class="fil81" d="M14676 11668c12,-20 43,-93 54,-119l-38 -9 -62 124c42,30 -15,17 46,4z"/>
   <path class="fil37" d="M9388 8288c23,39 39,49 86,59 52,-2 11,16 36,-12 -23,-39 -75,-61 -115,-76 -14,13 -21,-18 -7,29z"/>
   <path class="fil31" d="M7588 10874c10,11 -2,6 31,25 36,19 30,14 53,19 21,-36 20,16 7,-22 -18,-52 25,43 -20,-22 -18,-26 -16,32 -17,-58 -61,31 7,26 -85,-1l31 59z"/>
   <path class="fil52" d="M7510 11369c-7,51 -11,45 17,99 54,-15 39,54 40,-50 0,-19 37,23 -5,-34 -14,-20 -27,-18 -52,-15z"/>
   <path class="fil49" d="M10138 12147c-4,-3 -10,-13 -12,-9l-115 -76c-18,67 -3,31 -37,69 23,0 19,-1 35,-6l42 -19 33 74c20,-17 23,-19 54,-33z"/>
   <path class="fil44" d="M9864 12265c11,92 -25,52 56,71 24,-34 52,47 10,-54 -6,-25 17,-14 -36,-50 -14,55 1,25 -30,33z"/>
   <path class="fil19" d="M9983 13192l48 -10c14,-38 18,-39 37,-58 33,25 5,-8 19,48 18,-34 35,53 16,-70l-68 -9 -27 66c-2,3 -6,8 -8,11 -1,2 -7,14 -8,11 -1,-3 -6,7 -9,11z"/>
   <path class="fil82" d="M4259 8179l25 3 4 -29c4,-48 -3,0 30,-21 14,-14 4,-10 26,-10l8 -47 -35 0 -46 27c-1,-3 -5,3 -11,4l-1 73z"/>
   <path class="fil22" d="M13349 12877l-34 51 99 33 25 -11c-42,-40 72,-52 -76,-22l27 -61c-32,0 -18,-5 -41,10z"/>
   <path class="fil21" d="M10166 8661l92 7 29 -5c-85,-82 -47,-29 -145,-51l24 49z"/>
   <path class="fil83" d="M14697 8298c12,-3 19,2 50,-22 33,-25 27,-31 33,-42 40,-90 11,-16 -7,-35 -144,104 -86,89 -76,99z"/>
   <path class="fil28" d="M4533 12233c12,-45 60,-37 -69,-132 7,54 0,40 24,77 4,7 15,22 21,29 21,26 9,10 24,26z"/>
   <path class="fil24" d="M10494 12314l-43 -7c-39,-35 -6,34 -24,-19 -2,-7 -7,-6 -10,-10l-8 35c0,1 -17,44 -18,46 111,10 92,-14 103,-45z"/>
   <path class="fil20" d="M9079 11796l-132 18c-1,9 -3,11 -4,16 0,11 -13,19 -4,52l58 -27c1,-2 3,-7 5,-11l77 -48z"/>
   <path class="fil50" d="M5426 12090c-42,-64 13,-42 -84,-42 8,35 -9,45 26,60 89,39 55,-16 58,-18z"/>
   <path class="fil51" d="M7609 7371c-9,-3 -99,-34 -99,-34 -29,37 34,31 -30,31 29,26 29,33 81,30 55,-4 65,-3 48,-27z"/>
   <path class="fil84" d="M11096 12548l17 15 110 7 -17 -42c-55,7 -38,13 -69,-12l-51 3 10 29z"/>
   <path class="fil21" d="M6652 10519l-76 -22c-39,37 47,9 -47,35 4,4 -23,19 47,22 140,6 42,6 76,-35z"/>
   <path class="fil85" d="M15799 7546l-9 37c43,-27 25,-63 35,-133 -43,0 -30,-10 -30,37 -27,-28 -13,-27 -49,-19 17,25 26,44 53,78z"/>
   <path class="fil86" d="M9191 11928l54 2 14 27 55 28c-20,-55 10,-54 -37,-74 -32,-13 -74,-7 -106,-7l20 24z"/>
   <path class="fil65" d="M4848 11678c57,17 11,-1 68,27l-8 -59c-31,-4 -10,7 -22,-15l15 -57 -25 -9 -28 113z"/>
   <path class="fil87" d="M6206 10756l-10 11c27,-2 42,-1 69,-8 70,-17 23,-3 46,-22l-53 -9c19,-59 19,-26 -27,-45 -45,57 -26,27 5,64l-30 9z"/>
   <path class="fil64" d="M6548 11155c52,-87 19,-56 -21,-81 -19,26 -45,-39 -25,46 11,49 9,22 46,35z"/>
   <path class="fil40" d="M9715 11978c-14,-16 -10,-13 -30,-31 -6,-6 -23,-18 -27,-22l-103 -6c42,32 -58,42 87,7l-6 89c48,-33 2,-28 79,-37z"/>
   <path class="fil28" d="M6049 7242c-53,27 -33,-3 -26,51 60,-39 41,3 48,-79l-75 -5c0,73 -7,48 53,33z"/>
   <path class="fil27" d="M11384 12736c-16,-39 29,-26 -39,-33l-44 84c135,-12 43,9 83,-51z"/>
   <path class="fil18" d="M7633 10673l-75 -1c18,25 -48,31 51,14 -61,61 -36,-7 -30,74l48 -18c-1,-7 1,-14 1,-13 0,2 2,-7 3,-10 0,-3 2,-39 2,-46z"/>
   <path class="fil40" d="M7704 7580l99 38 8 -76c-56,7 -16,-3 -61,16 -33,14 30,1 -46,22z"/>
   <path class="fil24" d="M11096 12548l-10 -29 -107 -13 21 20c1,1 19,0 35,56l61 -34z"/>
   <path class="fil85" d="M5354 11352l80 -87 -38 15 -66 -43c12,94 7,39 16,65 3,9 9,2 8,50z"/>
   <path class="fil58" d="M10543 12545c24,11 35,20 46,26 20,10 -12,1 36,12 -5,-75 9,-57 -70,-82l-12 44z"/>
   <path class="fil30" d="M11692 13035l9 -22c-4,-1 -9,-8 -11,-5 -1,3 -8,-4 -10,-5 -11,-5 -12,-6 -25,-11l-32 0c11,60 4,34 24,74 71,4 26,10 45,-31z"/>
   <path class="fil85" d="M14461 11882c8,53 -1,18 34,44l3 -42c67,-15 36,-8 60,-30l-95 -15 -2 43z"/>
   <path class="fil24" d="M13588 8718c55,8 58,17 97,25l-3 -65c-66,25 -94,-15 -94,40z"/>
   <path class="fil74" d="M11193 12618c9,-27 -22,-5 28,-31l2 -17 -110 -7c32,72 26,50 80,55z"/>
   <path class="fil12" d="M12737 8908l52 -14 50 65 32 -78c-73,-3 -82,-7 -134,27z"/>
   <path class="fil88" d="M15265 7399c-60,93 -20,21 0,46 23,-46 -2,-40 79,-75 -1,-82 4,-31 -13,-58l-66 87z"/>
   <path class="fil37" d="M15336 7567l-5 -1c31,-95 10,-22 0,-45 -55,-8 -44,-17 -84,11 16,24 12,14 25,27l52 17c2,-1 8,-6 12,-9z"/>
   <path class="fil66" d="M12627 13153l35 4c5,-5 10,-12 12,-15l23 -25c-34,-13 -35,-22 -103,5 -3,1 -10,11 -13,7 -2,-4 -8,5 -11,5l57 19z"/>
   <path class="fil89" d="M10271 12406c-21,52 -7,22 3,27 67,-23 22,7 56,-70 -32,2 -53,-4 -59,-5 -54,-2 -21,-7 -51,11 123,0 16,-8 51,37z"/>
   <path class="fil90" d="M5923 10655l-31 39 24 41c73,-6 10,2 39,-33l21 -38 -42 -1 -11 -8z"/>
   <path class="fil91" d="M13821 8847l-72 -11 46 61 -80 14 75 0c25,-30 17,-25 40,-41 54,-39 17,15 55,-55 -48,45 6,17 -64,32z"/>
   <path class="fil37" d="M7609 7568l47 -8 58 -12c-4,-2 -9,-6 -13,-8 -3,-2 -8,-5 -13,-7 -88,-33 58,13 -30,-8 -1,-1 -43,-5 -49,-6 -22,28 -63,-45 0,49z"/>
   <path class="fil87" d="M4379 7956c55,-40 38,15 37,-86 -28,13 -33,-4 -48,32 -34,86 5,41 11,54z"/>
   <path class="fil24" d="M8940 11475l0 5 62 -1c18,82 -14,23 45,70l-19 -77c-35,-11 -55,-23 -81,-37l-7 40z"/>
   <path class="fil61" d="M14142 8704l58 -7 38 -52 -6 -25c-40,45 -28,34 -104,50l14 34z"/>
   <path class="fil92" d="M15306 9538c26,-33 9,-1 22,-40 7,-21 -7,-8 14,-52 24,-53 22,7 30,-94l-13 22c-2,4 -9,20 -12,25 -2,3 -4,7 -7,11l-17 19c-32,53 -16,42 -17,109z"/>
   <path class="fil37" d="M8863 7843c0,0 6,-16 -9,-29l-63 4 -36 7c64,25 90,87 108,18z"/>
   <path class="fil91" d="M10224 12404l-23 -56c-33,-10 -84,-27 -110,3 48,-6 68,34 133,53z"/>
   <path class="fil93" d="M5050 11646l-34 49 -3 37c14,-75 1,-2 37,-35 33,6 10,6 24,-11 37,-44 8,-5 18,-42l-11 -41 -31 43z"/>
   <path class="fil94" d="M15774 6886c77,7 19,-13 37,33 13,-16 46,22 10,-104 -53,31 -25,9 -40,56 -7,22 5,1 -7,15z"/>
   <path class="fil34" d="M8416 11516c27,50 -28,58 74,29 -22,-53 21,-34 -30,-46 -72,-17 -20,3 -44,17z"/>
   <path class="fil35" d="M7432 10647c-10,30 -28,-23 -3,31 9,21 71,66 60,-31 -5,-2 -12,-12 -14,-6 -3,5 -12,-3 -14,-3 -3,0 -12,2 -15,3 -3,0 -9,5 -14,6z"/>
   <path class="fil22" d="M14735 8065l3 -30c-27,0 -29,-8 -13,13l7 58c-56,35 -10,-4 -43,49 79,-24 52,3 75,-65 -31,-44 30,-7 -29,-25z"/>
   <polygon class="fil32" points="5146,11532 5166,11591 5197,11583 5207,11501 "/>
   <path class="fil95" d="M14576 11582l-4 48 33 -4c9,-41 9,-38 21,-91l-43 6 -7 41z"/>
   <path class="fil71" d="M13335 8767c47,18 6,11 55,22l31 -61 -72 4 -14 35z"/>
   <path class="fil82" d="M5772 11005l61 -14 2 -30 -34 -6 3 -35 -34 7c10,69 15,15 2,78z"/>
   <path class="fil47" d="M12445 8939l80 -26c61,-1 6,9 28,-24l-75 -3c-18,20 -11,-23 -33,53z"/>
   <path class="fil65" d="M5432 11034l23 12c18,29 -56,35 39,21l11 -46 -29 3 10 -33c-52,23 -28,5 -54,43z"/>
   <path class="fil22" d="M5016 11695l34 -49 -30 -49c-19,32 -20,-9 -22,50 -1,86 10,36 18,48z"/>
   <path class="fil96" d="M5955 10702c32,-20 9,-12 57,-28l23 -44c-10,2 -53,3 -64,7 -54,20 8,-26 -37,26l42 1 -21 38z"/>
   <path class="fil7" d="M12932 8918c32,15 6,5 54,14 41,8 12,-3 47,10l2 -46c-55,-3 -58,-3 -103,22z"/>
   <path class="fil11" d="M10886 8735l-56 -14c-31,72 -5,49 44,60 15,-17 3,-18 12,-46z"/>
   <path class="fil97" d="M15044 9837c15,-19 13,23 13,-68 6,2 13,5 17,7l48 16c-5,-31 1,-11 -11,-38l-31 -51c0,5 -1,8 -3,16 -5,40 -18,3 -33,118z"/>
   <path class="fil98" d="M10888 13156c53,-23 72,-8 50,-82 -55,31 -35,-7 -50,82z"/>
   <path class="fil99" d="M12194 12907c3,3 7,4 9,11 2,6 7,8 9,10 19,17 12,12 36,26l17 -93 -71 46z"/>
   <path class="fil83" d="M14869 8143l32 -15c46,-21 31,-16 43,-42 37,-71 13,-12 -14,-37 -20,64 5,47 -64,52l3 42z"/>
   <path class="fil61" d="M14575 8437l13 1c11,-57 0,-52 44,-78 53,-78 14,-13 -6,-32 -37,38 11,7 -57,40l6 69z"/>
   <path class="fil55" d="M6151 10767l17 13 31 -13 -3 0 10 -11c-22,-53 55,-43 -40,-43 -27,33 -14,-6 -15,54z"/>
   <path class="fil94" d="M15135 7548l90 -21c-9,-34 34,-42 -51,-11l9 -47c-46,42 -2,-16 -29,33 -5,8 -13,32 -19,46z"/>
   <path class="fil100" d="M8150 11171l42 13c-18,-33 2,-17 -36,-35 -10,-5 -50,-13 -65,-17l4 54 55 -15z"/>
   <path class="fil43" d="M8084 10894l-30 0c-73,1 -12,-32 -37,15 101,38 -7,12 77,73l-10 -88z"/>
   <path class="fil53" d="M6437 10495c-101,-4 -50,-32 -79,18 5,4 20,18 22,19 20,13 -3,5 27,14 51,-50 0,4 30,-51z"/>
   <path class="fil18" d="M10655 8696c1,1 -12,32 39,30 48,-2 11,3 31,-30 -2,-2 5,-54 -70,0z"/>
   <path class="fil85" d="M5146 11532l61 -31 30 -4 -1 -17 -70 -13c-14,33 -8,17 -20,65z"/>
   <path class="fil53" d="M7122 7250l-94 1c4,4 8,5 10,11l46 50 38 -62z"/>
   <path class="fil37" d="M9932 8563l36 12 54 -10c-50,-38 -25,-31 -85,-31 -18,17 -37,-22 -5,29z"/>
   <path class="fil95" d="M5560 10933l-1 19c27,2 35,11 54,-7 44,-41 4,-33 -11,-49 -8,6 -1,-1 -22,18 -1,0 -17,16 -20,19z"/>
   <polygon class="fil101" points="4317,8075 4352,8075 4378,8074 4392,8031 4346,8019 "/>
   <path class="fil102" d="M5400 11072l2 34 0 2c31,12 22,-19 24,32l11 -54c-2,-2 -5,-8 -7,-13 47,-29 -4,35 25,-27l-23 -12c-22,11 -15,-15 -32,38z"/>
   <path class="fil32" d="M13441 8990l-28 -5c12,24 -25,18 35,19 68,-19 57,-31 79,-82l-86 68z"/>
   <path class="fil27" d="M14244 11999c64,13 -7,5 65,22l-13 -70 -41 13 -11 35z"/>
   <path class="fil21" d="M10830 8721l56 14c41,15 17,13 30,-11l-69 -48 -17 45z"/>
   <path class="fil65" d="M15200 9819c1,-8 15,-57 15,-58 5,-63 7,-27 -15,-59 -23,62 -33,68 0,117z"/>
   <path class="fil103" d="M5805 7098c44,-39 34,-42 -16,-83 -14,33 -28,-37 -5,46 8,30 17,30 21,37z"/>
   <path class="fil13" d="M12559 11829c49,-38 66,-57 -22,-67 5,52 -4,34 22,67z"/>
   <polygon class="fil104" points="6100,10806 6166,10807 6191,10795 6199,10767 6168,10780 6151,10767 6128,10765 "/>
   <path class="fil25" d="M4675 11856c13,51 -28,10 22,35l42 -83 -39 2 -25 46z"/>
   <path class="fil37" d="M9172 7999c-57,-33 -17,-26 -78,-32 -8,29 -3,34 40,57 4,-2 8,-5 10,-6l28 -19z"/>
   <path class="fil71" d="M7301 11860c34,26 16,24 60,13 1,-5 4,-18 2,-15 0,1 17,-14 -33,-40 -37,32 -2,-2 -29,42z"/>
   <path class="fil37" d="M8958 8110l28 15 40 -35c-51,-29 -17,-19 -79,-19l11 39z"/>
   <path class="fil91" d="M8658 11494l-9 -59 -20 -10 -19 42c-14,29 4,-22 -14,27l62 0z"/>
   <path class="fil105" d="M12143 12909c-16,-76 6,-13 -26,-46 -61,28 -15,1 -35,43 25,23 32,28 61,3z"/>
   <polygon class="fil47" points="8981,11739 8962,11723 8899,11720 8893,11772 "/>
   <path class="fil106" d="M14401 11881l28 -2 32 3 2 -43 4 -47c-4,3 -10,4 -11,12l-47 69c-1,2 -6,5 -8,8z"/>
   <path class="fil104" d="M15839 7428c59,0 19,-37 22,-60 1,-5 0,-25 1,-29 0,-5 3,-20 5,-25l-34 19c17,69 12,28 6,95z"/>
   <path class="fil14" d="M14502 8238c60,2 36,3 51,7 2,1 19,8 42,14 -27,-44 -23,-13 -2,-71 -6,3 -43,18 -44,19l-47 31z"/>
   <path class="fil102" d="M14419 11936c18,10 -26,39 21,3 38,-29 5,0 21,-29 -24,-26 10,-9 -48,-33 -13,43 -16,23 6,59z"/>
   <path class="fil24" d="M9511 8401c29,9 24,1 57,21 6,-91 12,-44 -13,-76l-44 55z"/>
   <path class="fil14" d="M13937 12401c33,38 16,39 70,17 -14,-18 14,-18 -27,-29 -81,-23 -30,3 -43,12z"/>
   <path class="fil74" d="M9171 11904c-9,-48 5,-50 -39,-49 -5,11 -20,52 -22,57l61 -8z"/>
   <path class="fil107" d="M14892 11159l-3 -53c3,-2 6,-10 7,-8 1,3 4,-7 6,-8l17 -21c3,-3 8,-8 11,-12l-59 16c-2,19 -7,29 -4,49 7,40 5,15 25,37z"/>
   <path class="fil16" d="M4250 7957c4,-3 9,-8 12,-10l33 -27c2,-5 7,-5 10,-7 -27,-48 -10,6 -13,-57 -44,27 -11,-7 -28,35 -1,4 -12,58 -14,66z"/>
   <path class="fil14" d="M14849 10663l64 8c-21,-54 11,-8 -36,-59 -26,23 -13,-34 -28,51z"/>
   <path class="fil47" d="M8456 11336c-36,-62 10,0 -26,-36 -4,-3 -27,-16 -35,-22l-6 60 67 -2z"/>
   <path class="fil97" d="M14820 11169c43,-63 24,-43 -39,-55 18,52 -30,28 39,55z"/>
   <path class="fil108" d="M15815 6660c-13,-25 19,-15 -42,-29l-26 56c76,-12 41,-1 68,-27z"/>
   <path class="fil39" d="M13034 10352c18,54 -35,29 58,39 -16,-55 1,-65 -58,-39z"/>
   <path class="fil95" d="M15120 9526c34,28 8,-55 35,33l14 -59c-19,-28 30,-24 -37,-23l-12 49z"/>
   <path class="fil109" d="M15409 7191l73 -36c-57,-11 -6,7 -24,-44 -17,15 -14,4 -29,27 -11,18 -13,31 -20,53z"/>
   <path class="fil39" d="M6761 8353c-71,10 -21,8 -37,-18l34 -13c-17,-26 33,-25 -35,-18 -25,55 -19,22 0,69 86,14 10,7 38,-20z"/>
   <path class="fil110" d="M15120 9526l12 -49 21 -95c-12,17 -11,7 -21,37 -53,152 -16,103 -12,107z"/>
   <path class="fil32" d="M5373 7106c-30,-78 -12,-17 6,-41 15,23 10,-4 3,39 37,-15 23,24 30,-31 -46,-37 -12,-41 -67,0 -1,69 -7,7 28,33z"/>
   <path class="fil103" d="M8815 11301l21 21c2,2 8,7 11,10 3,3 9,7 12,10 3,2 8,6 12,9l-30 -64 -71 -9c25,28 -36,21 45,23z"/>
   <path class="fil103" d="M5603 7024l42 -10c-6,-12 0,-31 -26,-39 -105,-31 -36,2 -55,14l52 -5 -13 40z"/>
   <path class="fil47" d="M9831 12258l33 7c31,-8 16,22 30,-33l-48 14c-26,-65 3,-24 -45,-38 3,3 7,7 8,8l22 42z"/>
   <path class="fil16" d="M4497 12085c26,21 -8,18 53,18 -13,-66 -11,7 -15,-67l-24 17 -14 32z"/>
   <path class="fil100" d="M4608 7645c39,-28 7,-5 31,-31 2,-2 3,-7 5,-9l61 -54c-5,2 -29,11 -33,12 -21,6 -16,5 -40,9l-24 73z"/>
   <path class="fil65" d="M14405 8385c61,-15 36,20 56,-58 -54,18 -46,0 -56,58z"/>
   <path class="fil97" d="M14696 11356c45,25 37,17 67,-9 -28,-22 -72,-39 -67,9z"/>
   <path class="fil12" d="M6031 10629l53 -3 -17 59 61 -17c-24,-37 11,-17 -59,-28l31 -39 -69 28z"/>
   <path class="fil95" d="M14888 7893c-38,89 -12,20 0,42l48 -29 -17 -23 -34 -7 3 17z"/>
   <path class="fil24" d="M7298 10797l45 10 29 0c-9,-44 0,-22 -26,-41 -90,24 -9,1 -48,31z"/>
   <path class="fil92" d="M15000 10750l38 -17 11 -84c-47,26 -7,-7 -29,48 -2,5 -7,25 -8,29 -2,3 -9,20 -12,24z"/>
   <path class="fil66" d="M4750 7777l22 5 -16 -78c-37,25 -40,15 -6,73z"/>
   <path class="fil100" d="M8958 8110l-11 -39c-14,-31 -9,-27 -55,-17l-17 0 16 12c3,2 17,8 21,10 3,2 8,4 11,6l35 28z"/>
   <path class="fil85" d="M15135 10198c13,-36 13,-36 34,-59l-67 16c8,51 -30,11 33,43z"/>
   <path class="fil32" d="M6510 10724c16,22 -27,20 33,16 48,-57 3,-27 55,-42 -21,-27 29,-26 -39,-19 -29,82 8,33 -49,45z"/>
   <path class="fil66" d="M14386 12142l-2 -3 16 -58c-118,43 -16,60 -14,61z"/>
   <path class="fil111" d="M4872 11908c4,-2 9,-9 11,-6 2,3 9,-5 12,-7 3,-3 21,-15 25,-19l0 -20c-35,-3 -52,-18 -48,32l0 20z"/>
   <path class="fil32" d="M5494 11203l65 2 44 -44c-30,-31 37,-34 -35,-23l8 62c-68,-22 -8,-8 -49,-11l-33 14z"/>
   <path class="fil111" d="M15697 7977c-5,-42 -6,-30 6,-65l2 10 -62 18c20,47 -33,14 54,37z"/>
   <path class="fil32" d="M5897 10902c42,-10 4,12 48,-17 50,-34 15,-12 35,-36l-68 18 -15 35z"/>
   <path class="fil112" d="M15028 7975c23,-15 15,0 33,-23 30,-38 10,-6 25,-53 -52,22 -9,-13 -37,23 -20,26 -13,27 -21,53z"/>
   <path class="fil18" d="M11193 12618c53,32 35,7 49,-8l5 -25 -26 2c-50,26 -19,4 -28,31z"/>
   <path class="fil37" d="M11560 9088l33 6c11,-50 16,-20 0,-46 -87,11 -44,-23 -33,40z"/>
   <path class="fil30" d="M8521 11392c-23,5 -56,12 -32,36 50,51 31,6 36,6l-4 -42z"/>
   <path class="fil113" d="M14354 12021c22,34 -25,36 66,32 -2,-3 -4,-12 -5,-9 -17,50 -8,-17 -11,-19 -48,-55 37,4 -24,-19l-26 15z"/>
   <path class="fil97" d="M5498 10984l17 2c65,-17 30,0 44,-34l1 -19c-47,23 -37,15 -62,51z"/>
   <path class="fil1" d="M13456 12726c79,13 21,8 45,-13l-31 -31 -19 -5 5 49z"/>
   <path class="fil28" d="M9985 8450c19,53 -30,24 53,38 -17,-51 -5,-54 -53,-38z"/>
   <path class="fil114" d="M12736 12933l47 -1c-2,-61 17,-25 -26,-44 -32,27 -10,1 -21,45z"/>
   <path class="fil12" d="M15280 7495c-14,-57 0,-31 -55,-51 22,56 -13,40 55,51z"/>
   <polygon class="fil115" points="13261,13033 13330,13022 13335,12971 "/>
   <path class="fil27" d="M14481 8274c-9,81 1,26 14,46l34 -29c-28,-24 34,-22 -48,-17z"/>
   <path class="fil92" d="M4787 12011c37,-31 29,-23 42,-73l-43 21 1 52z"/>
   <path class="fil71" d="M12682 12237c23,42 -33,38 51,27 -5,-19 14,-13 -10,-28 -39,-24 -13,-9 -41,1z"/>
   <polygon class="fil35" points="5825,10918 5897,10918 5897,10902 5840,10884 "/>
   <polygon class="fil86" points="12094,8930 12035,8930 12063,8987 "/>
   <path class="fil110" d="M4700 11810l39 -2 22 8 -7 -63c-3,3 -7,4 -9,10 -6,26 -9,9 -18,19 -6,6 -26,28 -27,28z"/>
   <path class="fil47" d="M6975 7449l52 1 -22 -49c-31,28 -11,-39 -30,48z"/>
   <path class="fil71" d="M4464 12101l33 -16 14 -32 -62 23c-11,72 -5,8 15,25z"/>
   <polygon class="fil17" points="10084,12352 10073,12304 10026,12297 10048,12337 "/>
   <path class="fil107" d="M4543 7971c32,-18 19,-8 47,-33 21,-19 23,-24 33,-35l-54 15 -26 53z"/>
   <polygon class="fil116" points="5603,7024 5616,6984 5564,6989 5572,7026 "/>
   <path class="fil92" d="M15195 7766c3,-3 9,-12 11,-9 1,3 8,-8 10,-10 27,-38 4,-2 22,-38 -78,-6 -28,-13 -45,36l2 21z"/>
   <path class="fil14" d="M14904 10946c6,-7 69,36 0,-50 -19,25 -41,-9 0,50z"/>
   <path class="fil117" d="M14612 11415l30 -9 1 -73c-9,12 -13,9 -22,34 -4,14 -6,33 -9,48z"/>
   <path class="fil108" d="M15308 8744c60,-28 29,14 20,-21 -12,-52 45,3 -25,-33 -30,60 -4,48 5,54z"/>
   <path class="fil27" d="M6321 7347l43 -10c-8,-48 13,-14 -18,-38 -26,21 -15,-30 -25,48z"/>
   <path class="fil77" d="M14322 8623c42,-24 11,11 34,-45l-56 -16c47,42 4,-3 22,61z"/>
   <path class="fil37" d="M7778 7404l-22 -22c-13,47 -19,18 9,64 21,-30 31,41 13,-42z"/>
   <path class="fil92" d="M14384 12139c49,-24 30,-19 41,-76l-25 18 -16 58z"/>
   <path class="fil66" d="M14605 11626l42 -42 -21 -49c-12,53 -12,50 -21,91z"/>
   <path class="fil92" d="M15471 8858c38,-21 29,-34 41,-78 -45,22 -26,20 -41,78z"/>
   <path class="fil108" d="M8276 7786l50 14c-42,-60 0,-28 -72,-47l22 33z"/>
   <path class="fil37" d="M5267 11443c18,1 20,23 14,-10l2 -47c-33,28 -61,49 -16,57z"/>
   <path class="fil17" d="M8822 8041l53 13 -4 -26c-16,-24 -7,-43 -49,13z"/>
   <path class="fil32" d="M13023 13134l3 -29c-15,12 -25,23 -27,19 -3,-6 -15,5 -21,10 6,-83 6,-27 -14,-45l5 54 54 -9z"/>
   <path class="fil61" d="M9551 8204c1,-21 19,-19 -9,-16l-32 0c20,50 0,20 35,51l6 -35z"/>
   <polygon class="fil118" points="9259,11957 9245,11930 9191,11928 9215,11958 "/>
   <path class="fil119" d="M10417 12278c3,4 8,3 10,10 18,53 -15,-16 24,19l-21 -54 -55 -3 42 28z"/>
   <path class="fil57" d="M15625 6884c20,-19 11,5 27,-30 7,-15 12,-44 15,-61 -26,27 -10,-4 -27,33 0,1 -15,58 -15,58z"/>
   <path class="fil80" d="M5223 11222c71,39 38,4 49,-1l-25 -24 -16 -1 -8 26z"/>
   <path class="fil49" d="M7226 10566c-5,-2 -12,-5 -17,-7 -5,-2 -12,-5 -17,-7 -4,-2 -21,-10 -26,-13l26 59 34 -32z"/>
   <path class="fil104" d="M15867 7314l37 -7 9 -66c-22,21 -6,1 -23,30 -2,4 -9,20 -11,23 -2,4 -9,16 -12,20z"/>
   <path class="fil118" d="M8185 10954c-27,-43 -22,-21 -74,-45l22 36 52 9z"/>
   <path class="fil120" d="M14588 8438c22,-23 10,-1 29,-34 10,-19 9,-27 15,-44 -44,26 -33,21 -44,78z"/>
   <path class="fil22" d="M15380 8595c27,-35 28,-20 16,-63 -14,13 -13,-23 -22,26 -6,32 1,23 6,37z"/>
   <path class="fil121" d="M14829 11244c37,-21 -1,11 28,-20 11,-12 21,-28 31,-42l-45 14 -14 48z"/>
   <path class="fil13" d="M5858 7057c0,31 -20,44 35,38 -1,-46 6,-28 -35,-38z"/>
   <path class="fil104" d="M14496 12034c24,-32 8,39 24,-35 15,-75 1,-25 -11,-43l-13 78z"/>
   <path class="fil95" d="M15077 9700c1,0 75,-14 4,-33 -48,-18 -4,33 -4,33z"/>
   <path class="fil120" d="M4670 7868c50,-18 40,-30 55,-64 -52,35 -32,17 -55,64z"/>
   <path class="fil9" d="M7039 10672c60,-68 32,-29 -4,-51 -6,18 -9,2 -5,30 1,2 8,16 9,21z"/>
   <path class="fil101" d="M15574 8423c-25,-64 -2,-18 -46,-48 26,61 -26,39 46,48z"/>
   <path class="fil55" d="M14101 12410c19,-2 24,25 11,-22l-28 -31c-9,71 -13,30 17,53z"/>
   <path class="fil108" d="M7042 7455l25 2c-10,-59 9,-19 -16,-45 -22,22 -37,-42 -9,43z"/>
   <path class="fil47" d="M7071 10548c0,34 -7,24 29,22l29 -35 -58 13z"/>
   <path class="fil122" d="M14921 7793l48 -23 7 -43c-17,15 -14,9 -30,30 -9,11 -17,25 -25,36z"/>
   <path class="fil118" d="M12534 9141c24,20 -36,18 42,16l23 -39c-4,3 -24,14 -28,16 -59,25 66,-5 -37,7z"/>
   <path class="fil108" d="M15527 7279c23,-61 13,-26 0,-52 -3,3 -51,-4 0,52z"/>
   <path class="fil27" d="M14281 8538l13 -23c-3,-39 7,-3 -11,-33 -32,33 -24,-42 -18,22 4,49 -22,1 16,34z"/>
   <path class="fil52" d="M13429 7876c81,-46 -21,60 21,-14 15,-25 6,-1 14,-41 -15,6 -60,7 -35,55z"/>
   <polygon class="fil72" points="15717,6948 15774,6886 15734,6891 "/>
   <path class="fil123" d="M15490 7079c3,-3 9,-13 10,-11 1,3 7,-8 9,-12 16,-35 5,1 15,-48 -43,34 -32,25 -34,71z"/>
   <path class="fil95" d="M14640 8129l-12 5 4 36 42 -33c-29,-33 21,-9 -34,-8z"/>
   <path class="fil124" d="M15273 7616l3 10c32,8 24,16 29,-13 5,-36 11,-29 -23,-16l-9 19z"/>
   <path class="fil102" d="M5505 11021c3,-5 8,-16 9,-19 0,-1 1,-7 1,-8 0,-1 0,-5 0,-8l-17 -2 -12 7 -10 33 29 -3z"/>
   <path class="fil97" d="M8247 7670c58,-16 24,5 48,-47 -106,41 -3,3 -48,47z"/>
   <polygon class="fil118" points="5835,10961 5825,10918 5804,10920 5801,10955 "/>
   <path class="fil94" d="M7298 10558l-60 6c38,32 13,3 29,36l31 -42z"/>
   <path class="fil100" d="M14326 11913c55,-5 47,7 75,-32 -24,7 -15,-1 -39,10 -26,11 -23,12 -36,22z"/>
   <path class="fil56" d="M8396 11051l-34 -19c4,19 27,108 34,19z"/>
   <path class="fil9" d="M9401 8188c28,16 1,25 45,0 -14,-15 -46,-43 -45,0z"/>
   <path class="fil37" d="M10481 8764l13 -7c18,-48 26,-1 0,-35 -29,23 -51,-43 -13,42z"/>
   <path class="fil9" d="M15421 7231c81,14 37,37 55,-28l-55 28z"/>
   <path class="fil95" d="M14003 8559c23,19 -20,43 51,7 -89,-2 5,11 -35,-33l-16 26z"/>
   <path class="fil108" d="M8271 7590l-53 -9c24,41 -3,23 46,29l7 -20z"/>
   <polygon class="fil37" points="7316,7493 7359,7482 7298,7454 "/>
   <polygon class="fil110" points="15219,9057 15250,9026 15230,8986 "/>
   <path class="fil24" d="M10503 12369c81,55 27,13 47,0l-24 -11c-2,0 -10,2 -12,3 -2,0 -7,6 -11,8z"/>
   <path class="fil111" d="M5650 11106l126 -99c-47,1 -65,-13 -64,27l12 32 -74 40z"/>
   <polygon class="fil47" points="8003,10872 7935,10823 7953,10863 "/>
   <path class="fil74" d="M6761 8353l-3 -31 -34 13c16,26 -34,28 37,18z"/>
   <path class="fil121" d="M14852 8177l36 -18c32,-6 -3,-1 13,-31l-32 15c-3,7 5,8 -17,34z"/>
   <path class="fil125" d="M15639 7147c38,-27 15,37 33,-43 -30,-7 -27,19 -33,43z"/>
   <polygon class="fil95" points="8875,8054 8892,8054 8912,8018 8871,8028 "/>
   <path class="fil92" d="M15276 7626l0 25c53,-17 22,11 45,-38l-16 0c-5,29 3,21 -29,13z"/>
   <path class="fil92" d="M15652 8072c39,-22 28,-29 37,-81l-37 81z"/>
   <polygon class="fil40" points="9206,8203 9181,8168 9152,8191 "/>
   <path class="fil95" d="M8750 7982c58,17 5,5 26,-7l-33 -39 7 46z"/>
   <path class="fil108" d="M11265 8796l-20 -7c11,46 -15,14 20,40 11,-17 32,34 0,-33z"/>
   <path class="fil61" d="M5373 7106l9 -2c7,-43 12,-16 -3,-39 -18,24 -36,-37 -6,41z"/>
   <path class="fil99" d="M6945 8368c24,14 18,16 42,0 -14,-10 34,-38 -42,0z"/>
   <path class="fil21" d="M11701 13013l31 6c-14,-54 3,-7 -25,-32l-6 26z"/>
   <path class="fil126" d="M4284 8182l34 -50c-33,21 -26,-27 -30,21l-4 29z"/>
   <path class="fil21" d="M11445 8843l0 -2c-20,64 -39,3 5,47l19 -12c-54,0 2,9 -24,-33z"/>
   <path class="fil91" d="M11340 8827c28,17 -29,25 22,7l43 -10c-4,-1 -9,-7 -11,-3 -1,3 -8,-2 -11,-2 -20,1 -14,0 -43,8z"/>
   <path class="fil104" d="M4920 11856c30,18 21,19 21,-17l16 -37 -37 54z"/>
   <path class="fil97" d="M15114 9703l38 -37c-25,1 -13,-19 -28,6 -2,3 -6,27 -10,31z"/>
   <path class="fil81" d="M5138 7554c-15,-60 -19,-13 -33,-6l33 6z"/>
   <path class="fil16" d="M5402 11108l0 -2c-37,29 -26,-27 -19,19l12 23c10,-14 9,-1 7,-40z"/>
   <path class="fil35" d="M12052 9173l10 5 -10 -40c-13,15 -37,-46 0,35z"/>
   <path class="fil110" d="M15576 7595l29 -31 -24 -21c9,30 8,14 -5,52z"/>
   <polygon class="fil95" points="4603,7673 4583,7705 4624,7681 "/>
   <path class="fil121" d="M15390 7503c34,-18 21,6 39,-48l-39 48z"/>
   <polygon class="fil26" points="4872,11908 4872,11888 4834,11896 "/>
   <path class="fil104" d="M16090 6746c89,-35 -6,14 29,-13 27,-21 11,-5 31,-31l-60 44z"/>
   <path class="fil61" d="M15801 7589l-11 -6 9 -37c-35,-3 -22,-8 -13,21 26,84 -58,-30 15,22z"/>
   <polygon class="fil121" points="14431,8557 14478,8512 "/>
  </g>
 </g>
</svg>
