<?xml version="1.0" encoding="UTF-8"?>
<!DOCTYPE svg PUBLIC "-//W3C//DTD SVG 1.1//EN" "http://www.w3.org/Graphics/SVG/1.1/DTD/svg11.dtd">
<!-- Creator: CorelDRAW X8 -->
<svg xmlns="http://www.w3.org/2000/svg" xml:space="preserve" width="210mm" height="297mm" version="1.1" style="shape-rendering:geometricPrecision; text-rendering:geometricPrecision; image-rendering:optimizeQuality; fill-rule:evenodd; clip-rule:evenodd"
viewBox="0 0 21000 29700"
 xmlns:xlink="http://www.w3.org/1999/xlink">
 <defs>
  <style type="text/css">
   <![CDATA[
    .fil71 {fill:#12132D}
    .fil40 {fill:#26171A}
    .fil85 {fill:#2B2735}
    .fil74 {fill:#2D0D0D}
    .fil16 {fill:#2D232B}
    .fil28 {fill:#32252D}
    .fil3 {fill:#342B33}
    .fil82 {fill:#372A37}
    .fil84 {fill:#3B333B}
    .fil9 {fill:#42343B}
    .fil78 {fill:#442C36}
    .fil18 {fill:#443A43}
    .fil58 {fill:#47373A}
    .fil66 {fill:#473947}
    .fil20 {fill:#4A3B44}
    .fil42 {fill:#4A4656}
    .fil24 {fill:#4D424B}
    .fil39 {fill:#53444C}
    .fil32 {fill:#554756}
    .fil14 {fill:#554A52}
    .fil47 {fill:#58474A}
    .fil68 {fill:#5B4539}
    .fil23 {fill:#5B4C54}
    .fil26 {fill:#5B4D5B}
    .fil44 {fill:#5D525B}
    .fil46 {fill:#63545C}
    .fil59 {fill:#644B57}
    .fil22 {fill:#645562}
    .fil13 {fill:#655A63}
    .fil25 {fill:#665868}
    .fil49 {fill:#6B5B5D}
    .fil10 {fill:#6B5C64}
    .fil4 {fill:#6C5D6A}
    .fil50 {fill:#6D626B}
    .fil52 {fill:#725D64}
    .fil7 {fill:#73646B}
    .fil5 {fill:#746A73}
    .fil19 {fill:#756A6D}
    .fil51 {fill:#7A7486}
    .fil37 {fill:#7B6B6D}
    .fil11 {fill:#7B6C74}
    .fil17 {fill:#7B6D7A}
    .fil8 {fill:#7C727B}
    .fil29 {fill:#83737B}
    .fil12 {fill:#837582}
    .fil31 {fill:#847A83}
    .fil64 {fill:#867990}
    .fil53 {fill:#88787B}
    .fil43 {fill:#898596}
    .fil27 {fill:#8B8289}
    .fil76 {fill:#8E91AD}
    .fil83 {fill:#907574}
    .fil70 {fill:#937C85}
    .fil69 {fill:#95858A}
    .fil62 {fill:#968A95}
    .fil75 {fill:#9997A7}
    .fil86 {fill:#9B939A}
    .fil35 {fill:#A69BA5}
    .fil57 {fill:#A7969A}
    .fil72 {fill:#A7A3AB}
    .fil67 {fill:#A9A7B7}
    .fil54 {fill:#ADB3CE}
    .fil65 {fill:#B6A6A9}
    .fil56 {fill:#B7ABB5}
    .fil79 {fill:#B9B3BA}
    .fil80 {fill:#B9B8C7}
    .fil55 {fill:#C6BBC5}
    .fil77 {fill:#C9C4CA}
    .fil38 {fill:#C9C8D6}
    .fil73 {fill:#CFBCCB}
    .fil60 {fill:#D3D6D6}
    .fil61 {fill:#D6C6CA}
    .fil33 {fill:#D6CCD5}
    .fil48 {fill:#D9D5DA}
    .fil81 {fill:#D9D9E7}
    .fil15 {fill:#DBD4DC}
    .fil63 {fill:#DCE3E8}
    .fil36 {fill:#DDDBE3}
    .fil34 {fill:#E3DDE3}
    .fil21 {fill:#E6E5EA}
    .fil41 {fill:#E7E9F5}
    .fil45 {fill:#E9E5EC}
    .fil6 {fill:#EAE9EE}
    .fil30 {fill:#EBE3E5}
    .fil2 {fill:#EDEAEE}
    .fil1 {fill:#EEEDF2}
    .fil0 {fill:#F8F8FA}
   ]]>
  </style>
 </defs>
 <g id="Ebene_x0020_1">
  <metadata id="CorelCorpID_0Corel-Layer"/>
  <g id="_1602236016624">
   <path class="fil0" d="M13879 7675c4,5 -1,-5 8,12 7,12 -3,-1 6,14 5,7 13,13 18,19l12 10 -3 38c9,13 17,33 25,47 9,16 4,10 15,23 19,22 3,-12 16,20l-5 17c13,10 16,12 26,27 14,20 0,9 22,20l-7 37c12,13 11,18 37,20 7,32 -1,10 31,50 5,7 2,5 10,12 1,1 3,2 5,3l23 14 10 8c26,22 -19,-11 9,8 23,15 19,2 36,31 44,13 -1,11 43,17l16 -6 12 41 25 3c18,35 26,28 74,27 11,12 21,26 29,37 32,-1 51,5 79,14l61 26 13 3c45,2 54,12 89,32 40,22 39,-7 70,19 8,-19 2,-10 10,-28l40 2c-4,-2 -3,-6 -3,-9 32,11 55,4 97,0 -2,26 -8,28 -6,50 21,-12 37,-29 66,-9 39,-29 86,-14 130,-31 19,-19 27,-19 67,-18 12,-8 13,-7 31,-12 34,-11 7,3 31,-15l19 -1 19 5c2,-23 -3,-4 -8,-29 33,-8 8,-1 25,-13 62,-45 57,-6 92,-41l29 8c-1,-8 -10,0 5,-26l31 -4c2,15 3,15 9,27l15 0 -4 -15c-10,-24 -8,-15 10,-24l12 23 33 -5 -1 -23 0 -44c15,-7 25,-15 32,-19 31,-16 15,18 27,-24l36 1c12,-38 8,-14 31,-27 18,-10 -1,-8 42,-27l15 2 3 -14c28,-56 52,-55 68,-62l10 -11c1,-2 1,-4 3,-5 9,-2 11,-24 13,-31 0,-1 1,-3 2,-5 7,-6 12,-10 22,-18l13 -26c16,-14 47,-69 81,-101l8 -26c1,-2 1,-5 5,-6 13,-4 31,-50 36,-60 12,-27 18,-52 45,-68 1,-4 0,-14 2,-18 4,-14 1,-5 7,-14 8,-21 2,-21 7,-44 6,-32 5,-6 20,-37 15,-31 48,-243 48,-290 -1,-44 -7,-70 -3,-116 -11,-16 -9,-32 -13,-58 -4,-28 -7,-40 -24,-58l4 -12 6 -6 -17 -9 4 -25c-3,0 -9,0 -8,-1 2,0 -5,-1 -6,-1 -10,-6 -8,-5 -13,-11l-21 -29 -10 -17c-14,-16 -11,-15 -18,-33l-8 -25c-23,-18 -10,-15 -32,-34 -14,-30 -1,-15 -26,-43l-11 -13c-1,-1 -2,-3 -4,-5l-19 -46 -30 -3c0,-2 -10,-27 -10,-28 -13,-24 -39,-28 -60,-48 -24,-24 8,-18 -60,-48 -23,-10 -10,-1 -17,-13 -18,-15 -4,-4 -14,-14 -8,-9 -1,-5 -11,-12 -11,-7 -28,-11 -34,-13 -27,-5 -26,-12 -40,-17 -13,-4 -7,3 -32,-9 1,-4 -6,-6 13,-29l-13 -13 -7 5c-127,-125 -94,-20 -145,-92 -46,0 -47,17 -54,-20 -9,1 -16,3 -26,2 -15,-1 -7,0 -15,-5 -14,-8 -22,-11 -36,-23 -16,6 -12,3 -22,17 -18,-11 -8,-8 -32,-14l-8 -17c-52,4 -20,0 -42,-7 -23,-7 -21,-5 -44,0l-14 -2c-41,-27 -34,-14 -85,-20 -63,-9 -56,-15 -66,-29l-72 12c-13,14 -9,-7 -10,29 -89,-10 -111,37 -164,27 -4,4 -11,10 -16,14 -1,1 -6,8 -9,8 -3,1 -4,3 -5,5l-14 -4c-12,10 -15,-15 -9,15 19,9 13,0 22,20l-24 4c-15,8 -16,5 -47,-1l-32 10c-15,3 -14,5 -33,6 -1,0 -22,-1 -22,-1 -13,-2 -10,-3 -16,-6 -14,0 4,4 -12,0 -2,-1 -4,-1 -6,-2l-17 -13c-15,12 -7,5 -24,13 -31,15 -48,29 -75,35 -14,32 -17,17 -49,31l-120 108c-8,10 0,2 -11,14 -7,7 -5,6 -11,11 -10,7 -17,9 -29,15 10,32 -25,10 -60,84 -17,37 -14,13 -34,46 -31,50 -17,40 -11,51l-29 25c-58,60 -39,97 -58,124 -36,49 0,-8 -29,57 -17,40 -2,29 -19,69 -15,35 10,18 -28,29 5,40 -5,38 16,56l-14 26c-32,57 8,74 -29,107 9,22 12,127 12,146l27 14c-42,90 3,44 5,116 1,33 -16,27 6,70 20,40 33,104 43,143z"/>
   <path class="fil1" d="M13515 7414c9,15 -11,8 22,20l-10 14 26 28c-12,6 16,14 -22,0l2 13c4,21 0,24 -7,47l19 13 0 40 -6 46 9 3 24 5c-7,13 5,7 -23,12l-1 22c3,5 6,8 10,17 16,32 3,24 13,45 2,3 8,9 8,9 -2,1 3,2 4,4l-7 43c5,5 8,6 14,12 9,8 3,0 9,11 19,22 4,12 15,25 3,4 11,8 15,11 -15,43 2,25 5,52 6,42 -15,9 0,42 7,31 4,16 14,39 8,15 5,24 14,39 11,19 11,9 27,25 14,13 4,9 27,22 2,22 24,59 34,74 1,1 2,3 3,4l24 37c3,8 6,26 8,35l41 2 6 26c14,7 16,4 28,13 1,0 11,11 16,15l20 16c1,0 3,1 4,2 14,9 0,-8 16,14l9 19c21,11 33,6 50,29 54,62 68,31 127,61 39,20 79,36 103,77 62,-6 13,10 68,14 29,2 7,5 34,8 14,2 29,0 43,-1 19,10 20,19 42,19 19,1 -2,-8 25,3 16,6 -7,0 21,9 20,7 34,15 46,19 69,20 50,11 77,-3 42,47 147,41 213,60l17 -21c35,19 62,1 95,-8 7,-10 -1,-7 19,-7 15,0 3,-6 31,9l10 7c29,-10 20,-12 59,-6l13 -16c28,8 20,10 51,1 62,-18 -6,-27 87,-11l7 -9 21 1 17 -11c24,-9 49,-14 61,-44 18,0 32,7 51,-15l5 -9c1,-2 2,-4 3,-5 1,-1 2,-3 2,-5 42,17 46,-14 60,-25 14,-11 26,-5 68,-38 1,-10 -11,-10 12,-6 50,-45 2,-19 76,-57 9,-5 3,-1 12,-9 10,-8 3,-6 18,-12l13 -5 29 -43 25 -43c9,7 6,-3 12,19l15 -5 -3 -4c10,-39 -2,4 41,-55 26,23 10,16 28,15 0,-2 1,-8 1,-9 5,-9 4,-7 7,-12 8,-12 8,-5 12,-21l14 -16c-22,-23 -13,6 -21,-26l28 -1c2,0 3,2 4,3l27 10c-12,-36 -29,-28 -34,-64 21,1 23,3 36,12 -2,-38 1,-19 7,-26 21,18 11,11 49,14 -5,-36 6,-3 -26,-24l7 -35 63 -8 -20 -14 49 -19 32 -9c6,-23 7,-23 18,-38l23 -15c1,-34 19,-70 33,-98 1,-2 2,-4 3,-5 0,-2 1,-4 2,-6 0,-1 1,-4 2,-5 11,-25 9,-2 11,-24 11,-41 2,-42 1,-79l15 -14c1,0 20,-11 21,-11 25,-15 4,-5 23,-29 -1,-3 -5,-6 -2,-8l-20 -40 29 -9c13,-38 -9,-44 36,-48l7 -35 2 -17c-3,-1 -9,-6 -9,-7l30 -38c25,-9 13,-23 23,-59l14 -28 -5 -19c-2,-2 -8,-5 -9,-6l-18 -30 37 2 12 -1c-19,-30 -11,-19 -1,-46l-4 -14 -8 -44c0,0 -10,-7 -10,-7l23 -7c16,-51 2,-44 7,-69 6,-30 -15,-197 -17,-222l-30 -30c-41,-41 -3,-38 -43,-64l2 -29c-26,-21 -25,-30 -27,-65 -2,-1 -8,-4 -9,-5l-14 -10c1,-37 -6,-26 -21,-49l-25 -52 -3 -29 -18 -5 -1 -41 -35 -2c-5,-67 -28,-41 -48,-107 -19,-4 -7,-1 -20,-13 -10,-8 -9,-6 -21,-16 -38,-19 5,-13 -43,-30 -17,-6 -37,-15 -51,-21 -23,-9 -41,-4 -58,-13 -13,-7 -6,-10 -21,-17 -25,-12 -8,7 -32,-11 -42,-30 31,-1 -70,-39 -62,-22 -38,-5 -82,-26 -24,-12 -41,-14 -61,-5 -1,-32 -4,-29 -32,-40 -72,-28 0,-24 -75,-26l-87 -10c-20,1 -30,-14 -54,-26l-30 -7 -32 2c0,59 -50,-56 -50,41l72 23c2,1 4,3 7,4l3 7c63,-9 25,1 66,10 33,7 17,-17 61,12l9 7c39,28 36,16 69,32 32,15 60,39 92,59 16,10 37,20 49,26 33,16 18,15 41,37 32,30 62,32 73,80 19,3 31,8 46,14 38,15 32,11 30,55 2,0 3,0 7,1l35 8c13,3 13,4 20,8 5,19 2,22 -5,34l37 -1 -8 25c3,0 12,-1 14,-1 14,4 8,2 16,8 -23,11 -3,-7 -15,21 32,19 -19,-22 13,14 27,29 26,4 46,55l4 11c1,2 2,3 3,5 20,44 43,33 52,70 9,36 -8,10 23,52l11 16 16 9 -12 36 32 0c4,13 3,7 8,21 8,19 0,-7 11,27l-3 22c1,5 2,17 4,24 5,16 20,27 12,56l-5 9c-4,9 1,-11 -5,15 26,-1 35,2 55,16l-29 7c5,35 5,26 -4,58l17 23c-16,12 -9,42 -7,61 -4,29 5,28 -9,56 -12,26 -14,17 -16,53l8 10 -28 29c10,46 7,53 -4,98 -9,21 -1,10 -12,18l2 58 -33 22 -4 18 3 13 2 29c31,4 21,-2 31,20 -11,6 12,11 -14,5 -16,-4 -9,-6 -13,-8 1,33 -5,13 -10,19 -1,-2 -5,-4 -3,-5l-15 -30c9,36 -5,14 -13,20 -18,8 -14,8 -20,21l-9 20c-13,19 -8,19 -8,65l-14 -3c-23,4 -14,4 -36,3l5 17c-7,20 -3,4 -12,28 -8,17 -2,23 -22,26 -14,41 -2,7 -24,36l-21 26c2,4 8,20 9,21l-16 10c-20,21 7,16 -33,38l-1 25 -18 17c-23,20 -20,43 -63,44 1,53 4,36 -46,59 -15,7 -34,33 -67,50l0 19 -42 -1c3,32 -2,24 -25,32 -4,7 -11,12 -23,17l-31 15c-2,1 -2,3 -4,5l-12 -5c-2,2 -6,4 -5,4 1,1 -4,3 -5,4 -2,1 -14,7 -15,7 -21,14 -7,-1 -19,24 -44,2 -40,-3 -72,18l-52 28c-13,3 -22,1 -35,7 -12,5 -7,7 -22,14 -19,9 -42,10 -62,17 -19,6 -38,15 -59,18l-47 5 -38 28c-19,-9 -73,-7 -101,22 -28,-17 -47,-7 -83,-2 -66,9 -71,-12 -85,-24l-43 14 -22 -16c-23,9 -7,3 -29,18 -30,-21 -54,-28 -81,-16l-6 -21c-98,2 -35,-26 -123,-18 -22,-36 -30,-6 -34,-52 -23,14 -13,1 -33,-1 -16,-1 -21,5 -42,7 -20,-31 -17,-21 -51,-38l-40 -11c-15,-18 -61,-39 -85,-52l-75 -58c-32,-22 -82,-65 -96,-99 -16,-36 -3,-9 -31,-34l-14 -34c-4,-19 -12,-26 -21,-44l-5 -6c-1,-1 -2,-3 -3,-4 -28,-37 -30,-22 -37,-44l-30 -86c-9,-2 -4,3 -6,-9 -38,-15 10,10 -37,-62l-2 -29 -27 -103 -27 -15c8,-30 8,0 9,-36l-22 -46c-27,-9 -27,-6 -38,-27 1,-1 7,-10 8,-11 15,-15 -7,2 16,-10 16,-18 -2,-1 -8,-49 -3,-26 0,-31 6,-53 -7,-11 -3,-5 -10,-14 -1,-1 -1,-3 -3,-4 -3,-1 -3,-3 -4,-4l6 -9c0,-38 6,-1 -16,-35l7 -11c1,-19 1,-32 -1,-51 -7,-51 0,-10 8,-48l4 -86 3 -12c-32,1 -20,4 -41,-8 7,-20 3,-6 14,-18 23,-27 -28,-40 -36,-85 8,-4 4,-4 16,-7 23,-8 18,4 43,-22l-41 -1c2,-19 -2,-11 10,-22l19 -13c-5,-7 -21,-30 -24,-36 -14,-32 9,-20 -14,-39 -9,29 3,1 -17,14 -5,27 -9,42 -32,58 -5,32 -8,43 -11,77l-20 6c1,20 -16,33 -21,53 -6,21 -4,28 -14,56l10 16 11 15 -16 7c-21,20 -7,28 5,51l-24 13 -9 47 1 25c-19,30 -9,2 -15,33 8,4 0,-13 11,7 13,23 1,-2 3,17 1,7 16,99 0,91z"/>
   <path class="fil2" d="M13547 8016l-3 -27c-27,-27 -24,-42 -36,-77 0,-34 -4,-11 -9,-26 -5,-13 -3,-23 -6,-40 -7,-54 -45,-26 -36,-138l-19 -14 9 -29c-29,-29 -3,-7 -20,-116 -8,-51 -24,-8 -11,-72 -12,-8 -10,10 -10,-8 10,-9 9,-6 14,-22l-10 -38c11,-21 -15,-75 -3,-120 26,-102 3,-56 9,-106l-13 -11c18,-24 19,-9 17,-41 12,-68 4,-75 19,-71 2,-11 2,-11 5,-26 -15,-12 -15,-5 -28,-22 16,-5 1,-7 28,2l10 -48c9,-20 6,13 11,-17 1,-7 -2,-21 -2,-31l42 -37c9,-26 34,-61 50,-90 6,-12 7,-15 11,-33l-5 -7c2,-2 5,-3 6,-4l15 -14c0,0 7,-24 8,-29 9,-24 16,-27 30,-39 3,-12 14,-37 21,-48 13,-19 18,-14 26,-33 10,-23 -5,-37 44,-75l11 -38 27 -5 5 -5c-6,-19 7,-10 -18,-18l19 -11c-24,-14 -7,2 -17,-19 26,-20 7,-3 11,-45l93 -27 15 -10 35 -49c8,8 7,6 19,10l6 -24c-22,-17 -19,-14 -30,-37 75,12 61,7 92,-10 5,6 7,21 7,22 5,-10 8,-14 14,-23 18,-25 6,-10 22,-21 18,-11 35,-24 42,-44 44,2 40,-2 98,-35 21,-12 -7,-6 22,-11 26,-39 39,-12 69,-56l39 -1c21,-17 15,-7 45,-12l252 -82 45 -19c30,-12 23,-6 56,-10 -20,-12 10,-15 17,-17 24,-13 -25,13 12,-10 14,-8 2,-2 21,-9 40,-14 26,-14 66,-15 11,0 4,-11 16,2 14,13 -3,3 -10,29 26,11 13,6 38,1 20,26 4,11 33,25 2,1 6,3 5,4 -1,0 3,2 4,3l24 0c2,1 4,2 6,2 42,9 46,-23 91,14 12,5 44,17 55,18 32,4 25,-9 51,13l0 0c30,1 38,-4 63,9 63,31 75,3 123,28l18 10c8,2 27,2 36,3 31,32 27,12 71,20 21,4 44,9 67,32l24 0c7,-32 -9,-41 -39,-45 0,-57 3,-8 -15,-29 -22,2 -16,-6 -29,7l0 -42c-69,1 -66,-23 -109,-21l-14 -36c-43,2 -15,4 -46,13 -41,13 -15,-9 -36,22 -2,-19 -3,-11 -27,-24 -26,-14 -8,-16 -39,-2l1 -30c-2,-34 7,-2 -9,-32 28,-16 7,-1 18,-28 -30,-20 15,24 -10,-10 -7,-10 -10,-23 -24,-18l-19 9c-2,2 -4,4 -6,5 -1,2 -3,4 -5,6l10 36c-17,11 -17,19 -29,35 -8,12 -23,20 -33,28l0 -33 -58 11c3,-9 -1,-1 4,-9l6 -11c1,-1 3,-4 4,-6 -13,-8 2,-8 -20,-10 -2,0 -9,3 -11,5 -5,-44 -3,-15 -12,-29 -15,5 -25,8 -48,9l-1 26c-14,-18 -13,-13 -20,-34 -30,4 -18,6 -46,-3l25 -15 -12 -48c-22,11 -23,-11 -12,29 -1,-1 -3,-2 -2,-2 0,0 -10,-4 -12,-38 -10,11 -6,-2 -11,16 -1,3 -2,13 -3,17 -18,-35 -34,5 -40,29l-14 1c-23,-40 -14,-45 -73,-53 -2,2 -6,5 -4,5 1,0 -3,4 -3,4 -1,0 -2,2 -3,2l-10 -3c-2,-1 -5,-3 -7,-4 -2,-1 -5,-3 -8,-4l1 64 -55 -17c-3,32 -5,25 -20,50 -1,-1 -5,-2 -4,-2l-13 -9c-1,0 -3,-2 -5,-3l-14 28c-17,-6 -11,-4 -34,-9l-10 28c-2,1 -7,3 -6,3l-41 13c-2,1 -10,7 -11,7 -7,-7 0,-5 -14,-9 -11,-4 -23,-4 -34,-6 -14,-3 -39,-5 -66,-7l-5 18c-6,-5 -1,-2 -12,-11l-12 -8c-1,-1 -4,-3 -6,-4 -16,20 -11,12 -49,16l12 26c-32,-2 -20,-11 -39,12l-48 -11 -10 -43c-10,12 -12,-13 -13,60 20,12 15,4 25,30l-21 8c6,12 8,14 11,29 -50,8 -43,32 -77,46 -43,16 -75,6 -89,51 -34,-1 -22,-2 -42,15l-22 28 -33 -21 -22 28c-58,8 -13,-1 -39,17 -17,11 -22,7 -45,6l9 12c0,2 2,4 3,6l11 22 -22 4c4,20 10,39 -15,33 -24,-6 14,-4 -25,-9 -35,-5 13,8 -24,-1 -5,50 -26,40 -25,88 49,-15 2,6 20,-8 -6,3 1,-15 -8,9 -42,6 -18,8 -47,-11 -1,35 4,31 -11,52 -44,-13 5,-21 -54,-30l1 47 -23 15c-2,14 -5,30 -11,42 -12,-33 1,-38 -48,-39l7 50 -35 -8c-8,1 -13,2 -22,2 -4,37 -24,50 -51,72 -27,23 -9,-10 -21,26 9,7 2,6 18,10 0,0 20,2 23,2 -13,26 -4,17 -4,51l-41 -22c-2,1 -6,4 -4,4 2,1 -4,8 -11,3 -1,0 -2,-3 -3,-4 -1,0 -2,-3 -4,-5 -13,7 -7,-3 -18,15 -11,-17 6,-14 -33,-12l-38 51c-14,20 -13,35 -5,59 -4,0 -12,-1 -15,0 -46,18 -17,71 -23,102 10,8 18,8 24,20 7,14 4,25 4,41 33,3 17,2 37,22 -20,-3 -21,-8 -35,-11 -43,-9 -39,4 -45,8l0 14c13,9 -19,10 23,8 10,0 8,-4 28,-7l2 36c-9,-11 -7,-10 -23,-15 -15,108 -12,77 85,83 1,23 -4,25 -8,48 -30,12 -20,-7 -21,33 -3,0 -19,1 -19,1l-22 9c19,46 15,2 35,46l41 0c-4,11 -12,16 -21,23 12,43 16,99 11,144l-2 167c1,17 3,7 -5,19l21 14c-16,10 -18,12 -41,16 0,24 0,20 -7,35l21 12c0,36 -7,48 21,68l2 72c4,-4 2,-1 8,-10l11 -18c13,16 12,45 23,65l-7 8c-13,21 11,28 7,78 5,-11 9,-22 13,-36 22,25 12,42 2,71l36 4c1,37 25,38 21,63 31,6 32,10 47,30 13,17 -1,7 21,17z"/>
   <path class="fil3" d="M14356 7679l15 -28c24,12 23,14 38,38l-45 18c11,11 13,8 22,16 19,19 -6,18 27,19 -3,-28 -3,-28 -20,-42 36,-1 24,8 62,7l-19 16c29,0 20,-14 24,29 -2,-1 -9,-4 -10,-4 -2,-1 -5,-1 -9,-2 -6,0 -7,-1 -11,-2 7,25 -12,5 14,28l61 29c10,6 8,10 23,19 28,20 35,8 73,22 15,6 71,42 148,43 23,0 23,-7 50,-1 69,17 35,-3 79,-1 30,1 57,17 88,8 20,-6 8,-13 45,-10 17,1 24,6 36,14l48 -17c53,-15 67,-26 72,-28 14,-4 12,1 25,-1 36,-4 7,-20 51,0l19 -22c30,-27 39,-9 72,-44l47 -33c6,-3 65,-53 74,-77 15,-43 34,-42 61,-99 22,-47 0,-19 34,-48 -3,-52 13,-55 20,-95 8,-46 -17,-70 -15,-101l-15 -11c-10,48 -32,6 -33,71l-17 -28c-18,13 -9,18 -36,36 -3,-4 -28,-1 0,-36 -14,8 -17,16 -26,26 3,6 2,6 6,13 0,1 2,3 2,4l7 8c0,1 2,3 3,4 -15,8 -15,9 -32,17l0 22c-17,10 -13,7 -26,46 -1,-2 -6,-5 -4,-6 2,-1 -3,-4 -4,-6 -1,-1 -2,-4 -3,-5l-19 -17c-31,31 -29,79 -61,105l-68 63c-1,1 -3,2 -4,3l-21 23c14,5 -10,4 -11,4 -32,15 -19,24 -40,30 -33,9 -12,-12 -65,17 -43,24 -34,-1 -92,23 -17,7 -3,1 -22,7 -32,9 -35,29 -87,23 -28,-4 -13,-15 -42,-13 -20,1 -20,11 -51,5 -30,-6 -12,-18 -45,0 -58,-41 -38,-35 -87,-35 -2,23 -1,0 -11,24 -7,16 4,5 -9,25 -10,-59 -6,-47 -31,-49l36 -5c-30,-23 -5,14 -59,-30 -15,-13 -5,-3 -18,-11 -26,-17 -5,-11 -28,-30 -13,-12 -15,-6 -31,-26 -43,-11 -14,7 -30,-22l-6 4c0,1 -2,3 -2,3 -1,1 -3,6 -4,8 -8,-49 -17,-26 -23,-50l28 -6 5 -6c-26,-11 -7,-1 -17,-11l1 -28c-18,-17 -16,-24 -22,-43 -10,-31 -68,-18 -99,-18l-4 32 -40 10c-8,43 -5,58 19,84 4,8 -7,47 24,89 16,20 1,9 15,12z"/>
   <path class="fil4" d="M13937 7987c4,2 22,10 22,10 11,5 8,4 13,9 -38,8 -6,-4 -21,15 28,25 15,-2 31,34 14,34 64,77 96,99l75 58c24,13 70,34 85,52l3 -29 -16 -8c16,-8 16,-10 28,6 18,22 1,6 26,27l-1 15c34,17 31,7 51,38 21,-2 26,-8 42,-7 20,2 10,15 33,1 4,46 12,16 34,52 88,-8 25,20 123,18l6 21c27,-12 51,-5 81,16 22,-15 6,-9 29,-18l22 16 43 -14c14,12 19,33 85,24 36,-5 55,-15 83,2 28,-29 82,-31 101,-22l38 -28 -29 -9 11 -30c0,-1 1,-3 2,-5 19,10 37,9 64,7l-1 32c21,-3 40,-12 59,-18 20,-7 43,-8 62,-17 15,-7 10,-9 22,-14 13,-6 22,-4 35,-7l52 -28c-13,-12 -9,4 -12,-12 -3,-26 0,-14 9,-28l29 21 11 -19c23,-50 61,-27 79,-19l12 5c2,-2 2,-4 4,-5l31 -15c12,-5 19,-10 23,-17 1,-29 -4,-41 -44,-47 -20,-3 -2,14 -24,-20l-11 1 1 23 -33 5 -22 1 4 15 -15 0c-57,-2 -60,41 -116,38 -9,20 2,14 -32,10 -21,28 -12,23 -35,30l-19 -5c-2,35 6,15 -10,10 -1,-1 -3,-2 -4,-3 -2,0 -4,-4 -5,-6 -24,18 3,4 -31,15 -18,5 -19,4 -31,12l12 5c-44,23 -46,-3 -71,30 -12,-9 -4,2 -8,-17 -44,17 -91,2 -130,31 -29,-20 -45,-3 -66,9 -61,7 -80,-32 -138,-15 -31,-26 -30,3 -70,-19 -35,-20 -44,-30 -89,-32 7,25 0,-10 3,13 0,1 1,4 -1,5 -2,1 -2,3 -2,4 -20,-10 -13,3 -13,-25l-61 -26c-28,-9 -47,-15 -79,-14 -8,-11 -18,-25 -29,-37 -48,1 -56,8 -74,-27l-25 -3 8 14c-1,0 2,1 4,1 -37,22 0,-7 -71,32 -2,-31 -7,-6 2,-27 1,-2 9,-9 11,-10 8,-4 21,0 40,0 -26,-27 -6,-23 -40,-24 22,-27 -23,-10 18,-21 -44,-6 1,-4 -43,-17 -22,-7 -23,-9 -44,-18l-11 -29 -23 -14c-2,-1 -4,-2 -5,-3 -8,-7 -5,-5 -10,-12 -32,-40 -24,-18 -31,-50 -26,-2 -25,-7 -37,-20l7 -37c-22,-11 -8,0 -22,-20 -10,-15 -13,-17 -26,-27l5 -17c-36,7 -25,-4 -21,45 1,17 1,6 0,22 -2,16 -4,23 -4,44l-35 -26c9,18 17,25 21,44z"/>
   <path class="fil5" d="M13693 7276c72,23 -39,-33 27,16 35,26 21,-8 26,24l-21 -10 -14 29c-16,6 -10,6 -9,-13l-6 9c1,1 1,3 4,4 2,1 2,3 3,4 7,9 3,3 10,14 -6,22 -9,27 -6,53 6,48 24,31 8,49l-2 21 30 7 -14 20 22 46c-1,36 -1,6 -9,36l27 15 27 103 25 -6c-4,27 -4,13 -3,33 -11,10 21,26 -20,2 47,72 -1,47 37,62l-13 -28c17,-19 31,-30 52,-14l25 7c15,5 10,3 21,9l3 -38 -12 -10 -13 18c-10,-17 -12,-23 -24,-41 -8,12 -6,7 -19,13 13,-50 5,-40 24,-35 -10,-39 -23,-103 -43,-143 -22,-43 -5,-37 -6,-70 -2,-72 -47,-26 -5,-116l-27 -14c0,-19 -3,-124 -12,-146 37,-33 -3,-50 29,-107l14 -26c-21,-18 -11,-16 -16,-56 38,-11 13,6 28,-29 17,-40 2,-29 19,-69 29,-65 -7,-8 29,-57 19,-27 0,-64 58,-124l29 -25c-6,-11 -20,-1 11,-51 20,-33 17,-9 34,-46 35,-74 70,-52 60,-84 22,-39 8,-9 -1,-21 21,-4 16,0 27,-9 -8,-8 -11,2 -10,-15 2,-30 -4,-7 13,-17 11,7 15,-9 4,23l18 -1 120 -108c32,-14 35,1 49,-31 2,-29 -3,-10 12,-17 -2,-1 -9,-3 -7,-4l-13 -6c-23,-10 -8,-10 -16,-5 1,-1 1,-2 2,-2 2,0 3,-1 3,-1l8 -3c1,0 3,-1 5,-2l-9 -31c-27,4 -104,36 -120,60 -10,15 4,1 -8,12 -2,2 -44,26 -84,69 -44,49 -74,54 -99,97l33 17 12 -32c10,9 22,14 34,6 -25,56 -21,-13 -31,65 -38,-4 -27,-5 -33,-35 0,-1 -1,-3 -2,-5l-19 30c-21,-21 -7,13 -7,-17 -32,18 -7,24 -37,28 -13,34 -2,34 -33,53 -3,33 6,33 10,37 1,1 5,4 4,5 -1,0 3,3 5,4l-82 58c-17,16 0,-3 -5,20 0,0 -5,14 -5,15 -6,12 0,1 -10,17 20,25 8,19 40,35l-22 62 -44 -4c14,-47 9,-14 3,-64 37,-6 17,-1 30,-18l-11 -15 -19 36c-8,19 -5,18 -2,39l-13 43 -13 3c2,36 -8,16 -12,43 -3,24 11,3 -3,39 -18,47 -20,45 -9,90 -9,21 -2,33 -30,36l-4 86c-8,38 -15,-3 -8,48 2,19 2,32 1,51z"/>
   <path class="fil6" d="M13852 6665c9,11 -21,2 13,10l5 -22 -10 -71c21,-3 7,2 35,12 4,-26 4,-19 -7,-32 29,-13 13,-11 37,-5 30,-4 5,-10 37,-28l6 -14c2,-4 3,-4 7,-15 25,-43 55,-48 99,-97 40,-43 82,-67 84,-69 12,-11 -2,3 8,-12 16,-24 93,-56 120,-60 18,-8 57,-29 85,-16 1,-2 3,-6 4,-7l11 -13c18,1 0,-2 6,9l24 -18c2,-2 4,-4 6,-6l-3 -5 36 -5 -2 -29 9 -1c8,-18 1,-12 18,-17l7 26 27 -19c30,11 44,-13 95,-16l-5 8 26 -20c47,1 81,2 118,-15 39,-19 58,-25 103,-23 95,-8 17,25 94,-2 25,16 30,9 58,10 47,2 9,13 63,15 32,4 9,3 15,-6 -2,-2 -7,-6 -8,-6l-8 -7c-1,0 -3,-2 -5,-3 9,-8 10,-10 18,-25 -20,-6 -39,0 -69,-9 -9,-2 -21,-7 -28,-9 -15,-6 -16,-5 -34,-9 -34,-4 -37,2 -69,12 -31,-7 -31,-7 -49,-22 -25,-10 -59,12 -84,-13 -20,-20 -15,-7 -45,-25l-11 -1c4,28 13,7 2,28 -36,-14 3,-20 -44,-20 -21,-9 -41,-5 -65,8l-15 10c-13,21 -26,11 -51,31 -15,-13 -12,-8 -21,-13l-9 14c-11,17 -125,62 -141,62 -4,11 -22,9 -39,14 -17,27 -6,13 -39,25l-34 10c-23,23 -8,11 -22,34 -17,8 -4,-7 -13,11 -49,-2 -34,-5 -77,12 -4,12 -12,24 -18,36 -41,36 -40,24 -55,34 -30,19 3,40 -48,38l-6 26 -37 9 -3 10c-11,35 1,8 -20,28 -27,26 -4,21 -37,49 -57,51 -21,56 -97,99 -2,13 -2,7 -1,24 1,0 2,9 3,13l-23 4c-7,13 -20,32 -27,42 -12,17 -20,17 -27,39l0 15c11,-2 16,-6 18,-6 47,-19 60,5 69,10l-5 -26c25,-7 3,4 27,-14 42,0 8,-3 18,14z"/>
   <path class="fil7" d="M13959 8480l4 -17c15,20 14,14 41,20l-16 12c6,7 3,5 12,12 8,6 12,8 19,10 8,3 32,6 41,7l42 29 24 -9c7,7 19,21 31,33 18,17 20,13 43,22 27,10 28,5 78,7 23,2 7,-9 43,4l-3 -17c24,-9 8,2 18,-22 -12,8 -2,0 -2,8 0,8 -1,20 -2,29 28,-4 37,7 66,21l5 -30c10,17 15,7 3,30 -15,7 18,18 -25,4 11,23 41,21 71,34 -8,-24 -15,-3 0,-16 17,13 11,-3 7,22l27 -2c4,-14 -4,-7 12,-11l2 14c48,6 -3,11 54,15 89,5 44,22 116,29 19,1 50,-2 61,7 32,-1 16,2 41,-8l14 12 51 -33c12,8 18,16 43,14 28,-3 -5,-8 51,-3 21,-20 7,-11 42,-13l27 0c21,-23 64,-22 106,-23l35 -5 -13 -29c16,-7 32,-16 24,-36l-12 -13c-1,-1 -3,-3 -5,-4l21 -11c-93,-16 -25,-7 -87,11 -31,9 -23,7 -51,-1l-13 16c-39,-6 -30,-4 -59,6l-10 -7 -22 -4c-5,32 1,12 -10,19 -7,-6 -10,-10 -18,-17 -33,9 -60,27 -95,8l-17 21c-66,-19 -171,-13 -213,-60 -27,14 -8,23 -77,3 -12,-4 -26,-12 -46,-19 -28,-9 -5,-3 -21,-9 -27,-11 -6,-2 -25,-3 -22,0 -23,-9 -42,-19 -14,1 -29,3 -43,1 -27,-3 -5,-6 -34,-8 -55,-4 -6,-20 -68,-14 -24,-41 -64,-57 -103,-77 -59,-30 -73,1 -127,-61 -40,11 0,3 -32,6 0,30 -6,20 8,40l-6 8c-9,21 -8,4 2,31l-32 -5c-1,0 -2,1 -6,1 -3,0 -4,0 -6,0 7,7 -8,4 12,7 1,1 22,0 23,0l0 26 21 7z"/>
   <path class="fil3" d="M14199 7016l-2 3c53,36 28,30 65,22l-18 30c31,2 26,-6 30,35l28 -11c14,-4 59,23 74,30 -5,5 1,7 -19,7 19,32 55,-2 87,10l14 -18c40,15 84,-40 102,-70 14,-24 8,-15 30,-35 3,-44 21,-58 20,-95 -3,-44 -11,-69 -35,-88 16,44 5,10 0,22 -17,-10 -6,1 -21,-14 -9,-7 -7,-6 -15,-19 -1,0 -5,-1 -4,-2 1,0 -4,-2 -5,-2 -25,-9 16,-3 -14,-5 0,0 -18,4 -23,4l-2 -26c0,-2 -1,-4 -2,-6l-19 11 4 -30c16,2 4,8 12,-11 -32,-3 -14,6 -35,-16 -56,-6 -70,-12 -123,8 -42,15 1,0 -41,31l-39 36c-22,23 -15,40 -47,56 9,46 7,26 -14,66 -2,19 30,40 -3,65l15 12z"/>
   <path class="fil8" d="M15224 6099l30 7 -12 -23c27,-4 21,11 15,-21 28,10 27,13 46,11 1,0 6,-2 8,-2 -4,11 1,8 -12,12 1,3 3,5 4,7l11 16c5,8 2,0 2,13 -17,0 -1,-3 -8,13l87 10c75,2 3,-2 75,26 28,11 31,8 32,40 20,-9 37,-7 61,5 44,21 20,4 82,26 101,38 28,9 70,39 24,18 7,-1 32,11 15,7 8,10 21,17 17,9 35,4 58,13 14,6 34,15 51,21 48,17 5,11 43,30 -3,-24 -9,-20 12,-19 12,42 -6,-3 22,19 -19,-53 -6,-13 1,-29 10,39 14,8 10,46 14,16 5,-1 -4,12 20,66 43,40 48,107l35 2 1 41 18 5c-7,-17 8,-15 -7,-15 0,-16 -5,-23 5,-24 0,0 25,4 31,3 1,-1 -1,-3 1,-3 1,-1 0,-4 0,-4l6 -19c8,9 16,16 29,25 -10,-23 -16,-48 -30,-37 -1,1 -2,4 -3,4 -1,1 -2,4 -3,6l-13 -28c-32,5 -15,-2 -30,16 -13,-44 7,-18 -21,-30l6 -10c19,4 -5,0 21,3 2,0 10,1 12,1l22 -6c23,-10 -9,-8 18,-6 -15,-21 2,-1 -18,-19 -7,-7 -11,-11 -17,-16l-26 -13 -5 -31c-32,-5 -22,-6 -39,-25l-9 -7 -17 -3c-4,-14 -4,-19 -19,-35 -17,-10 -7,-6 -26,-16l-76 -27c-24,-5 -15,-2 -34,0 -12,-31 -9,-23 -37,-32l-20 4 9 33c-8,-13 -15,19 -4,-22 -22,9 -23,2 -31,2l-7 -38c3,1 6,2 9,3l39 10c-5,-19 -40,-15 -63,-23 -20,-7 -5,-6 -31,-14 -23,-6 -12,5 -29,-9 -23,-11 -25,-16 -54,-27l-53 -15c-21,-8 -20,-6 -28,-19l-24 0c-23,-23 -46,-28 -67,-32 -44,-8 -40,12 -71,-20 -9,-1 -28,-1 -36,-3l-18 -10c-48,-25 -60,3 -123,-28 -25,-13 -33,-8 -63,-9 -10,46 1,25 7,34 18,-17 2,-10 31,-12 17,46 16,-9 40,45 11,23 -13,-2 10,4 9,2 23,7 22,23l-5 16z"/>
   <path class="fil9" d="M15120 6881c22,9 7,-5 17,20 10,24 -9,8 19,30l-8 12c-12,27 -6,22 -6,34l14 -17c4,-3 13,-6 20,-8l3 47 -18 -11c-4,-1 -4,-4 -5,-6 -21,0 -15,-4 -13,18 16,9 7,12 28,9l21 9c-7,-35 1,-30 23,-48l5 36 25 2 -31 -78c-45,9 8,9 -37,7 -3,0 -4,-1 -4,-1l10 -26c-20,-17 25,-11 -21,-11l23 -29c5,45 5,17 20,29 0,-15 -2,-33 1,-42 6,-23 12,17 6,-36 14,16 9,9 16,26 2,-1 10,-6 11,-7l17 -9c-9,44 2,51 -7,88 20,-11 23,-11 31,17 16,-7 6,-5 28,-5 -11,25 -13,26 2,55 -18,-14 -38,-34 -47,0 -2,9 10,7 -19,34l-16 13c16,6 49,23 57,38l11 -6c1,-1 3,-3 4,-4l94 -5 -2 -36c0,-1 0,-3 0,-4l3 -12c15,5 21,8 30,14l-5 -7c-1,-2 -3,-4 -5,-6l-12 -16c37,-4 4,3 32,-22 25,20 17,-3 16,25l21 -7c-1,-3 -9,16 -4,-25 50,20 -3,-10 18,8 10,9 9,3 10,12 0,3 -5,11 -7,14l-14 24 24 -5c7,-10 1,8 8,-17 4,-15 -3,-5 5,-21 8,-19 9,1 16,-37 -17,-11 7,-11 -37,0l2 -36c-19,0 -16,11 -32,0 14,-19 6,-15 36,-20 -11,-10 7,-20 7,-20l27 25c-24,2 1,-4 -12,15 -1,31 -3,1 15,10 24,-49 12,-103 29,-133 -4,-2 -20,-7 -21,-8 -19,-12 -7,4 -16,-21 -10,14 -30,-24 -1,34l-48 -13c0,61 5,30 5,30l-25 0c3,-2 8,-2 9,-3 26,-14 23,-19 14,-49l-34 12c-17,-17 -29,-4 -29,-4 14,-14 19,-11 -44,-43 1,2 3,18 2,20 -2,18 -1,12 -5,20 -7,-21 1,-11 -1,-28l-3 -11c-32,-6 -34,12 -1,38 2,1 4,3 6,4 -2,1 -7,3 -6,3l-10 4c-2,1 3,-2 -8,0 3,48 0,7 15,32 18,30 -4,-6 4,16l12 24c-39,-6 -26,5 -39,-22 -19,39 -20,-3 -24,53 -1,24 2,8 -2,26 -7,-11 -6,-4 -8,-23 0,-2 1,-4 1,-6l-38 8 17 -64c-21,-26 -1,-11 -21,-17 18,-32 10,-20 8,-28l-39 15c-14,-26 -2,-2 -13,-18 -5,-9 -6,-7 -10,-25 -6,37 2,2 -16,20 3,-17 5,-25 9,-34 -27,5 -14,-3 -21,17l-11 -12c-4,3 -10,6 -12,8 -1,2 -2,5 -3,6 -1,1 -3,4 -4,6 -23,33 -15,1 -21,43 26,8 11,0 32,-7 31,-9 -23,1 10,2l25 31 -27 -8c-2,0 -2,1 -3,1 -20,45 11,38 -57,58l3 6 6 9z"/>
   <path class="fil4" d="M13416 7477c32,-23 26,-14 59,-6l-25 24c-2,1 -7,11 -10,17 18,15 40,38 65,44l-7 46c-6,37 -11,16 7,45l8 -19 26 7 6 -46c-32,10 0,-3 -40,-1l8 -29c-25,-14 -31,-9 -48,-42 79,-12 33,-5 58,-36l4 -33 -38 -16c10,-10 9,-10 26,-18 16,8 1,-84 0,-91 -2,-19 10,6 -3,-17 -11,-20 -3,-3 -11,-7 -16,19 1,1 -15,10l-10 -27c-6,-15 1,9 -8,-21 29,-43 -13,-47 39,-67 -2,26 -1,27 -9,43 9,7 2,3 17,4l9 -47 24 -13c-12,-23 -26,-31 -5,-51l5 -22 -10 -16c10,-28 8,-35 14,-56 5,-20 22,-33 21,-53l9 -19c-10,2 -19,4 -21,4 16,-16 5,2 11,-21 -11,-9 -3,-1 -10,-16 -1,-1 -2,-4 -3,-5 -1,-2 -1,-4 -2,-6 -4,-10 -2,-7 -5,-17 24,-8 18,-7 33,22l6 11c2,-29 -5,-12 13,-36 23,-16 27,-31 32,-58l3 -26c29,-5 18,3 24,-12l-3 -15 25 -7 5 -31c-4,2 -11,4 -10,5 6,4 -29,16 -64,4 -6,-20 -2,1 1,-16 3,-15 3,-12 0,-34 36,7 16,9 32,-3l-36 -7c14,-21 -29,-10 25,-15l-18 -20c-14,12 -21,15 -30,39 -1,5 -8,29 -8,29l-15 14c-1,1 -4,2 -6,4l5 7c14,14 16,-18 12,17 41,8 -14,-14 23,4 11,5 12,10 16,15 -8,30 -17,24 -17,24 -11,13 10,17 -26,14 2,-2 17,11 5,-20 -14,-37 -2,-12 -24,-21 -16,29 -41,64 -50,90 -26,91 -33,58 -14,102l-27 31c-22,22 -7,-8 -20,20 -3,15 -3,15 -5,26 -15,-4 -7,3 -19,71 5,5 22,24 23,26 15,28 -1,23 -1,24l-26 2c-6,50 17,4 -9,106 -12,45 14,99 3,120l10 38c-5,16 -4,13 -14,22 0,18 -2,0 10,8z"/>
   <path class="fil10" d="M13547 8016l5 32c33,13 12,1 30,22 39,44 2,14 32,69 12,21 15,7 5,32 43,1 7,2 63,61 38,41 9,71 109,114l22 17c1,1 3,2 4,4l-8 -24c20,13 4,-1 20,17 10,12 2,6 15,17l2 -13 18 10 -6 22c5,18 3,14 18,26 4,3 9,6 13,9l14 9 -10 -21c42,8 21,16 34,-8 0,-1 -2,-3 -1,-4 8,-3 -13,-1 -22,-38 16,7 24,14 36,24l3 -28c32,-3 -8,5 32,-6 -17,-23 -29,-18 -50,-29l-9 -19c-14,-7 3,-6 -15,-5 -2,0 -20,4 -24,5l-1 -32c-5,-4 -15,-15 -16,-15 -12,-9 -14,-6 -28,-13 -11,-5 -11,-4 -23,-10 -2,-1 -7,-4 -9,-6 -6,-4 -10,-8 -15,-12 -2,-9 -5,-27 -8,-35l-24 -37c-1,-1 -2,-3 -3,-4 -10,-15 -32,-52 -34,-74 -23,-13 -13,-9 -27,-22 -16,-16 -16,-6 -27,-25 -9,-15 -6,-24 -14,-39 -10,-23 -7,-8 -14,-39l-18 -7c-2,-18 -4,-22 -5,-44 -1,-25 4,-23 -15,-44l3 -21c-2,0 -5,1 -6,1 -1,1 -4,1 -5,2l-50 25c8,13 7,8 10,26 29,-10 10,13 22,-15l-4 28c0,-12 21,4 -7,-7 -13,45 3,17 -21,37 11,-51 8,-28 -1,-41 -30,18 -19,-3 -14,38l-15 -14c12,35 9,50 36,77l3 27z"/>
   <path class="fil11" d="M15674 8368c35,-2 23,-5 41,-27 -1,-17 16,7 -14,-30 27,-6 6,2 23,-14 55,-52 1,-36 48,-56l15 35c-34,39 -11,-22 -35,41l31 -15 7 5c18,-48 29,-32 58,-61 38,-38 -4,-31 60,-55l14 -24c14,-15 -13,-9 26,-8l-9 -30c5,-3 18,-6 23,-8l0 -6 15 -20c-17,-10 -13,17 -14,-31l26 13c4,-23 -5,-11 17,-30l9 -7c19,-3 12,2 28,-16 1,-1 2,-3 3,-4l6 -30c-26,-4 -45,-13 -71,-8 -2,0 -4,1 -5,2 -2,0 -4,1 -6,1 -15,4 -16,4 -30,10l-16 -9 2 19c-77,23 -28,50 -77,89 -42,34 -47,62 -100,72 -4,16 -4,9 -12,21 -3,5 -2,3 -7,12 0,1 -1,7 -1,9 -16,26 -2,12 -34,24 -11,4 -23,10 -35,16l3 4c-7,23 12,5 -21,22 -14,8 -14,5 -31,7l-29 43c2,26 -3,15 12,14 12,0 8,5 20,-7 25,40 23,15 43,44 0,-16 -2,0 17,-7z"/>
   <path class="fil5" d="M14610 6257c1,-2 2,-4 5,-5 3,0 8,-7 9,-8 5,-4 12,-10 16,-14 53,10 75,-37 164,-27 1,-36 -3,-15 10,-29l72 -12c10,14 3,20 66,29 51,6 44,-7 85,20 16,-21 -25,-8 18,-17 4,6 4,7 -4,19 23,-5 21,-7 44,0 22,7 -10,11 42,7l8 17 31 -17c7,-14 -12,5 4,-1l12 -5c16,-12 -1,1 11,-12 19,-21 15,-15 18,-33 -3,-1 -5,-3 -7,-4l-72 -23 -15 -16c-11,3 -19,6 -30,5 -5,0 -11,-1 -14,-2 -31,-9 -5,1 -17,-11 -54,-2 -16,-13 -63,-15 -28,-1 -33,6 -58,-10 -10,28 10,12 -17,26l15 30c-16,-6 -15,-2 -26,-10 -26,-17 -5,-8 -17,-19l-46 -21c-2,0 -2,-2 -3,-4 -45,-2 -64,4 -103,23 -37,17 -71,16 -118,15l-26 20 -1 12c-15,-1 -21,1 -43,5 14,24 6,6 40,29l10 36c-26,42 -9,9 0,22z"/>
   <path class="fil8" d="M13685 6782c17,-33 -7,-22 24,-53l-3 -30c4,-20 -2,-20 19,-27 7,-22 15,-22 27,-39 7,-10 20,-29 27,-42 2,-1 2,-5 5,-5l-6 -31c12,-10 -3,-8 22,-5 76,-43 40,-48 97,-99 33,-28 10,-23 37,-49 21,-20 9,7 20,-28l-18 -25c-30,13 -31,20 -50,-22l-29 4 -15 10 -2 26c-67,40 11,27 -55,28l-3 51 -28 15 -5 5c-14,24 1,2 -18,22l-20 21c-49,38 -34,52 -44,75 -8,19 -13,14 -26,33 -7,11 -18,36 -21,48l18 20c-54,5 -11,-6 -25,15l36 7c-16,12 4,10 -32,3 3,22 3,19 0,34 -3,17 -7,-4 -1,16 35,12 70,0 64,-4 -1,-1 6,-3 10,-5l-5 31z"/>
   <path class="fil12" d="M15235 6257c8,5 0,4 15,5 10,1 17,-1 26,-2 7,37 8,20 54,20 51,72 18,-33 145,92l7 -5c16,6 28,6 38,18 14,16 2,5 9,15 13,21 -8,-4 11,15l-1 -28 20 11c1,1 3,2 4,3 1,1 3,3 4,4 9,9 4,11 14,18l49 37c58,28 34,18 48,8l5 31c49,-18 19,14 77,9 2,-44 8,-40 -30,-55 -15,-6 -27,-11 -46,-14 -11,-48 -41,-50 -73,-80 -23,-22 -8,-21 -41,-37 -12,-6 -33,-16 -49,-26 -32,-20 -60,-44 -92,-59 -33,-16 -30,-4 -69,-32l-9 -7c-44,-29 -28,-5 -61,-12 -41,-9 -3,-19 -66,-10 11,20 -22,15 10,15 -3,20 8,14 -13,19 19,9 9,3 18,16 26,35 3,29 -4,31z"/>
   <path class="fil5" d="M15208 8654l122 -49c51,-17 4,-26 78,-30 12,-30 11,-34 43,-35 0,-3 1,-12 2,-13 9,-22 17,-18 70,-45 32,-16 20,-22 66,-39 -16,-46 -7,-26 -46,-50 13,-21 -2,26 5,-12 2,-14 -3,-13 9,-34 13,-23 0,8 12,-18 -15,6 -8,4 -18,12 -9,8 -3,4 -12,9 -74,38 -26,12 -76,57l17 10c-20,24 -4,12 -26,16 -2,-12 -3,1 -3,-20 -42,33 -54,27 -68,38 -14,11 -18,42 -60,25 0,2 -1,4 -2,5 -1,1 -2,3 -3,5l-5 9c-19,22 -33,15 -51,15 -12,30 -37,35 -61,44l-17 11c49,21 -6,20 -23,20l7 7c3,13 -9,7 3,30 -12,5 -8,-4 -17,17l51 -7 3 22z"/>
   <path class="fil13" d="M16238 7236l9 -36c2,-11 3,-16 5,-24 25,15 1,-2 17,27 4,7 5,8 10,13 27,34 -33,-34 11,12 -10,7 1,1 -16,7 -1,1 -3,1 -5,1l-21 10c-3,1 -4,3 -6,4 -10,27 -18,16 1,46l-12 1 -1 33 22 -13c16,26 11,38 51,42 7,17 -8,14 9,15l-2 27c24,-10 13,-23 12,-53l18 -10c-21,-32 -10,-2 7,-81 4,-19 -1,-11 12,-21l-13 -22 16 -12 -21 -7c18,-21 9,-5 19,-25l-21 -3c-13,-12 -21,29 -9,-29 -24,3 -14,9 -31,-7l-9 -40c13,-15 1,-3 14,-15 -1,-1 -5,-3 -4,-4 8,-2 -16,-1 0,-21 17,-22 23,-15 50,-11l5 -10c-32,-16 -14,-4 -28,-23 8,-9 5,-2 21,-8 0,-35 2,2 -5,-26 -3,-14 -4,-25 -8,-37 -14,-3 -19,-3 -28,-9 -16,-12 -11,-2 -10,-30 7,14 -1,8 16,11 4,-44 -2,-7 14,-23l-1 -32 -13 -5 -24 9c-18,14 10,3 -18,4 1,2 4,4 5,6l10 21c-22,-4 -19,0 -30,-22l-4 -14c-15,15 -15,11 -19,35 2,25 23,192 17,222 -5,25 9,18 -7,69l-23 7c0,0 10,7 10,7l8 44z"/>
   <path class="fil10" d="M14700 5983l0 13c30,18 25,5 45,25 25,25 59,3 84,13 18,15 18,15 49,22 0,-27 -5,-25 -13,-53 21,-2 0,4 3,-12 6,-27 12,-17 32,-22 -1,2 -3,5 -4,7 0,2 -2,5 -3,7l-7 41c17,-11 10,1 20,-18l13 25c-2,1 2,3 4,5l23 -17 1 25c18,4 19,3 34,9 7,2 19,7 28,9 30,9 49,3 69,9 28,11 23,2 56,4 22,17 27,31 58,26l32 -2 5 -16c1,-16 -13,-21 -22,-23 -23,-6 1,19 -10,-4 -24,-54 -23,1 -40,-45 -29,2 -13,-5 -31,12 -6,-9 -17,12 -7,-34l0 0 -16 9c12,25 6,11 6,31 0,0 -27,-8 -19,-21 -21,0 -31,11 -43,28 -11,-6 -20,-10 -37,-13l-7 9c-1,0 -3,2 -3,3 -11,9 -2,2 -9,4 -14,-16 -14,-26 -9,-46 2,-9 -3,-33 35,-26 -10,0 -8,2 -4,-9 -45,-37 -49,-5 -91,-14 -2,0 -4,-1 -6,-2l-24 0 -49 17c-23,-21 -10,-18 -10,-22 -1,0 0,-3 -1,-4 -2,0 -1,-3 -2,-4 -36,-15 -22,3 -43,14 17,-31 20,-2 11,-40 -59,14 -78,9 -91,33l0 -24c-7,2 -37,5 -17,17 -12,20 15,16 -12,16 23,5 13,5 6,22 34,7 6,-2 16,16z"/>
   <path class="fil14" d="M13508 7912l15 14c-5,-41 -16,-20 14,-38 9,13 12,-10 1,41 24,-20 8,8 21,-37 28,11 7,-5 7,7l4 -28c-12,28 7,5 -22,15 -3,-18 -2,-13 -10,-26l50 -25c1,-1 4,-1 5,-2 1,0 4,-1 6,-1l0 -14c-6,-11 0,-3 -9,-11 -6,-6 -9,-7 -14,-12l7 -43c-1,-2 -6,-3 -4,-4 0,0 -6,-6 -8,-9 -10,-21 3,-13 -13,-45 -4,-9 -7,-12 -10,-17l-24 -5c5,-20 2,-21 25,-17l-1 -17 -9 -3 -26 -7 -8 19c-18,-29 -13,-8 -7,-45l7 -46c-25,-6 -47,-29 -65,-44 3,-6 8,-16 10,-17l25 -24c-33,-8 -27,-17 -59,6 -13,64 3,21 11,72 17,109 -9,87 20,116l-9 29 19 14c-9,112 29,84 36,138 3,17 1,27 6,40 5,15 9,-8 9,26z"/>
   <path class="fil15" d="M13704 7091c28,-3 21,-15 30,-36 -11,-45 -9,-43 9,-90 14,-36 0,-15 3,-39 4,-27 14,-7 12,-43l5 -45 21 -1c-3,-21 -6,-20 2,-39l19 -36 4 4c10,-16 4,-5 10,-17 0,-1 5,-15 5,-15 5,-23 -12,-4 5,-20l16 -12c-4,-14 -7,-21 -11,-31l18 -6c-10,-17 24,-14 -18,-14 -24,18 -2,7 -27,14l5 26c-9,-5 -22,-29 -69,-10 -2,0 -7,4 -18,6l0 -15c-21,7 -15,7 -19,27l25 5c-2,40 -4,69 6,95 -57,2 -32,27 -74,5 -6,15 5,7 -24,12l-3 26c20,-13 8,15 17,-14 23,19 0,7 14,39 3,6 19,29 24,36l-19 13c-12,11 -8,3 -10,22l41 1c-25,26 -20,14 -43,22 -12,3 -8,3 -16,7 8,45 59,58 36,85 -11,12 -7,-2 -14,18 21,12 9,9 41,8l-3 12z"/>
   <path class="fil16" d="M15526 6750c-11,-23 -22,-21 -28,-62l-6 4 -15 22c-29,-4 -19,0 -27,-17l-17 -6c-16,-7 -34,-2 -47,4 -6,-27 -5,-26 -33,-39 14,-25 16,-7 29,-30l-15 -9 -22 14c-8,-7 -2,-3 -9,-9 -14,-12 -2,-2 -13,-10l-8 13 -7 25 36 -9c-8,19 -10,6 -7,21 3,11 1,-6 12,13 -22,-2 -24,-1 -48,-8 -21,21 -11,29 -48,25 10,-29 12,-32 33,-46l-34 -1c-31,14 -80,44 -81,81l11 12c7,-20 -6,-12 21,-17 -4,9 -6,17 -9,34 18,-18 10,17 16,-20 4,18 5,16 10,25 11,16 -1,-8 13,18l39 -15c2,8 10,-4 -8,28 20,6 0,-9 21,17l-17 64 38 -8c0,2 -1,4 -1,6 2,19 1,12 8,23 4,-18 1,-2 2,-26 4,-56 5,-14 24,-53 13,27 0,16 39,22l-12 -24c-8,-22 14,14 -4,-16 -15,-25 -12,16 -15,-32 11,-2 6,1 8,0l10 -4c-1,0 4,-2 6,-3 -2,-1 -4,-3 -6,-4 -33,-26 -31,-44 1,-38l3 11c2,17 -6,7 1,28 4,-8 3,-2 5,-20 1,-2 -1,-18 -2,-20 63,32 58,29 44,43 0,0 12,-13 29,4l34 -12c9,30 12,35 -14,49 -1,1 -6,1 -9,3l25 0c0,0 -5,31 -5,-30l48 13c-29,-58 -9,-20 1,-34z"/>
   <path class="fil11" d="M16233 6887c4,-24 4,-20 19,-35l4 14c11,22 8,18 30,22l-10 -21c-1,-2 -4,-4 -5,-6 28,-1 0,10 18,-4l24 -9 -23 -23 4 -25 -31 -18c-22,-94 -42,-99 -53,-121 -9,-20 -5,-34 -9,-57 -11,-4 -17,-7 -26,-10l-3 7c-1,0 -7,-6 -9,-6l-11 1c0,0 -20,15 -18,16l9 -44 -29 -10c-24,-6 -3,-4 -36,-4l2 8c-1,2 -2,5 -3,6l-11 15 25 52c15,23 22,12 21,49l14 10c1,1 7,4 9,5 2,35 1,44 27,65l-2 29c40,26 2,23 43,64l30 30z"/>
   <path class="fil17" d="M15512 8196c23,-8 28,0 25,-32 -10,-17 0,3 -10,-27l23 -13c1,-1 2,-2 3,-2l5 -3c1,0 3,-1 4,-2l24 -4 -7 33c33,-17 52,-43 67,-50 50,-23 47,-6 46,-59 43,-1 40,-24 63,-44l4 -24c-2,0 -16,5 -18,6 -10,2 -12,1 -15,1l16 -25 -2 -16 -17 11c4,-31 11,-9 -3,-25 -2,1 -8,3 -9,4l-15 5c-2,0 -6,1 -9,2l10 -27 -10 11c-13,23 -16,16 -28,33 -22,29 0,15 -40,29l-3 14 -15 -2 -4 20c-20,6 -24,6 -47,42 -30,45 -28,6 -41,47l-24 2c-3,0 -4,2 -7,2l-34 26c22,34 4,17 24,20 40,6 45,18 44,47z"/>
   <path class="fil18" d="M15809 6660l22 10c-5,-30 -10,-9 0,-29 2,2 4,4 4,5l10 11c12,10 5,-21 22,55l-17 9c22,19 9,16 32,34l0 -12c21,13 23,13 25,45l1 25 10 17 14 12c2,-1 3,-4 6,-5 2,0 3,-3 3,-4 1,0 3,-1 3,-4l23 18c2,1 4,4 5,5 1,1 3,3 4,5 28,-10 12,-6 37,-23l-11 -16c-31,-42 -14,-16 -23,-52 -9,-37 -32,-26 -52,-70 -1,-2 -2,-3 -3,-5l-4 -11c-20,-51 -19,-26 -46,-55 -32,-36 19,5 -13,-14l-29 -8c-1,-24 -2,-8 5,-33 -55,3 -67,-29 -77,-62 -58,5 -28,-27 -77,-9l-5 -31c-14,10 10,20 -48,-8l-24 -5 7 19c7,12 -6,3 17,13 68,30 36,24 60,48 21,20 47,24 60,48 0,1 10,26 10,28l30 3 19 46z"/>
   <path class="fil11" d="M13957 6364l37 -9 6 -26c51,2 18,-19 48,-38 15,-10 14,2 55,-34l-17 4c4,-28 8,-10 -14,-40 9,-5 15,-5 17,-7 1,0 3,-1 3,-2l10 -11c10,10 11,11 19,20 43,-17 28,-14 77,-12 9,-18 -4,-3 13,-11 14,-23 -1,-11 22,-34l6 -16 -28 5 14 -26c-26,-17 -6,-12 -41,-18 -29,5 -1,-1 -22,11 -58,33 -54,37 -98,35 -7,20 -24,33 -42,44 -16,11 -4,-4 -22,21 -6,9 -9,13 -14,23 -23,10 -4,0 -24,13l-31 27c-20,13 -5,2 -20,9l3 11c26,9 16,8 7,41 23,-13 17,-3 26,-21 1,2 3,4 4,5 20,33 19,22 6,36z"/>
   <path class="fil13" d="M16253 7566l4 -12 -4 -21c-28,-8 -21,12 -25,-31l51 13c11,-30 24,-57 29,-98l1 7c-1,-2 -5,-6 -3,-7 0,0 2,-10 -29,-15 1,1 9,-5 -1,3 -1,1 -4,3 -5,3 -1,2 -5,3 -6,4 -2,2 -5,3 -8,5 5,-69 -17,-42 -31,-67l-14 28c-10,36 2,50 -23,59l13 25 -31 4 -2 28c-2,1 -2,3 -3,5l-7 35c-6,10 -5,14 -11,27 -16,33 -19,5 -12,44l38 -7c2,-1 4,-2 6,-3 1,0 4,-1 5,-2 21,-12 13,-2 17,-24 34,3 24,8 51,-3z"/>
   <path class="fil11" d="M14345 6115c16,0 130,-45 141,-62l9 -14c9,5 6,0 21,13 25,-20 38,-10 51,-31l29 -39c4,-3 12,-7 15,-8 -44,-4 -6,3 -22,-16l-252 82c-30,5 -24,-5 -45,12l-37 24c78,0 27,4 52,-15 7,9 2,4 -2,29 12,9 -15,7 22,9 -18,12 -9,6 -10,16 11,1 10,3 28,0z"/>
   <path class="fil11" d="M16145 7811c1,-1 1,-3 4,-4l12 -16c14,-13 -8,4 13,-8l16 -10 -12 -36c56,-40 28,-65 58,-118 10,-18 14,-29 17,-53 -27,11 -17,6 -51,3 -4,22 4,12 -17,24 -1,1 -4,2 -5,2 -2,1 -4,2 -6,3l-38 7c-40,16 0,-5 -13,16 -6,10 17,3 -5,12 -2,1 -1,4 -2,6 -19,24 2,14 -23,29l0 36 12 0c4,8 14,27 14,28l26 79z"/>
   <path class="fil19" d="M16064 7977c16,-22 1,-4 22,-17 2,-15 -9,-4 12,-12 3,-51 -5,-30 25,-52l-15 -29 26 -1c18,-39 11,-2 10,-57 -22,0 -15,-5 -15,21l-2 -32c0,0 -16,11 -22,-20 -4,-23 8,16 0,-17 -9,-34 -1,-8 -13,-21l-23 20 -13 12c-2,22 0,-1 -11,24 -1,1 -2,4 -2,5 -1,2 -2,4 -2,6 -1,1 -2,3 -3,5 -14,28 -32,64 -33,98l-23 15c15,4 12,4 17,7l45 -16c-1,33 -4,22 -23,37 16,10 8,-4 17,20 5,-5 9,-10 12,-15 15,11 8,-15 14,19z"/>
   <path class="fil20" d="M16027 7486l15 -4c11,-8 3,3 12,-18 -7,-31 14,-9 -12,-18 -5,12 -7,16 -11,25 -37,-16 -27,-5 -43,-7l-17 -3c14,-37 2,-22 26,-37 -6,-29 -9,-23 -6,-48l2 -30c-2,-1 0,-4 0,-6l16 -4c2,0 9,2 11,2 2,-21 -12,-3 7,-15 -1,-1 -3,-3 -3,-4 -1,-1 -3,-3 -4,-4 -1,-1 -3,-4 -4,-5l-9 -9c2,-1 4,-4 5,-5l14 -17c0,-25 -2,-21 -4,-43 9,-11 19,-21 28,-31l42 14 11 -1c-2,-19 -9,-49 7,-61 -16,-20 16,-1 -22,-2l-11 0c-1,0 -3,-1 -3,-1 -1,0 -1,-2 -2,-2 -2,-1 0,-3 -1,-3 -14,-20 -12,-18 -6,-45 -15,8 -23,12 -27,25l-1 -18c-27,38 13,45 -28,45 0,47 -33,259 -48,290 -15,31 -14,5 -20,37 -5,23 1,23 -7,44 4,41 9,0 -8,42 33,-29 18,-28 27,-44l4 34c13,-32 9,-1 27,-33 0,-1 15,-66 43,-40z"/>
   <path class="fil10" d="M14506 6301l32 -10c31,6 32,9 47,1l2 -24c-6,-30 -3,-5 9,-15l14 4c-9,-13 -26,20 0,-22l-10 -36c-34,-23 -26,-5 -40,-29 22,-4 28,-6 43,-5l1 -12 5 -8c-51,3 -65,27 -95,16l-27 19 -25 -9 -9 1 2 29 -36 5 3 5 -7 39c23,-12 5,-6 29,-3 0,0 2,0 3,0 28,4 -1,12 40,8 13,-22 5,-17 27,-32 -2,48 -6,35 17,70 -24,-20 -4,-6 -30,-14l5 22z"/>
   <path class="fil21" d="M15114 6940l6 -59 -6 -9c-8,-4 -14,-8 -20,-13 11,-25 -1,-16 22,-19l5 -25c1,-2 3,-5 4,-7l-2 1c-16,-37 -19,15 -20,-37 16,-5 8,-9 16,10 17,-52 -11,-6 11,-48 -33,0 -30,-1 -54,7l-15 -21c-12,15 -10,-18 -8,15 0,27 -6,-1 6,13l-34 -21c-1,1 -5,3 -4,3l-9 6c-17,7 -14,-2 -33,14l8 24c54,-5 0,4 36,-15 12,48 13,50 35,56l-8 71c38,19 -4,32 -18,45l44 23c4,2 12,3 17,4 -6,25 -8,16 -4,31 28,-42 -7,-35 25,-49z"/>
   <path class="fil22" d="M16054 7464c11,-45 14,-52 4,-98l28 -29 -8 -10 -30 -5c10,-26 12,-43 -13,-50 25,-6 26,1 27,-29 0,0 30,7 30,7 -6,-32 -4,-15 0,-31l-42 -14c-9,10 -19,20 -28,31 2,22 4,18 4,43l-14 17c-1,1 -3,4 -5,5l9 9c1,1 3,4 4,5 1,1 3,3 4,4 0,1 2,3 3,4 -19,12 -5,-6 -7,15 -2,0 -9,-2 -11,-2l-16 4c0,2 -2,5 0,6l-2 30c-3,25 0,19 6,48 -24,15 -12,0 -26,37l17 3c16,2 6,-9 43,7 4,-9 6,-13 11,-25 26,9 5,-13 12,18z"/>
   <path class="fil10" d="M13916 7943l35 26c0,-21 2,-28 4,-44 1,-16 1,-5 0,-22 -4,-49 -15,-38 21,-45 -13,-32 3,2 -16,-20 -11,-13 -6,-7 -15,-23 -8,-14 -16,-34 -25,-47 -11,-6 -6,-4 -21,-9l-25 -7 0 13c1,1 3,3 4,5 11,17 3,1 4,23 -15,4 -27,6 -41,10l30 86c7,22 9,7 37,44 1,1 2,3 3,4l5 6z"/>
   <path class="fil23" d="M15414 7434c17,-8 17,-9 32,-17 -1,-1 -3,-3 -3,-4l-7 -8c0,-1 -2,-3 -2,-4 -4,-7 -3,-7 -6,-13 9,-10 12,-18 26,-26 -28,35 -3,32 0,36 27,-18 18,-23 36,-36l17 28c1,-65 23,-23 33,-71l15 11 -11 -14 -16 -6c29,44 1,18 -2,22l-52 -19c-8,6 -8,13 -23,-2 7,-7 2,-5 14,-12 22,-13 23,-2 18,-27 -12,0 -23,2 -29,4l-20 14c-39,22 -27,16 -35,43 -14,45 -31,24 -27,85l-14 10 2 33c18,-8 7,-3 18,-8 4,-2 15,-8 15,-8l21 -11z"/>
   <path class="fil24" d="M15824 7797c21,-12 17,14 17,-12 -4,-5 -9,5 1,-9l40 -25c-1,-1 4,-2 6,-2 1,-2 1,-5 3,-5l2 -24c10,-46 3,-26 27,-56 2,-7 -8,-38 0,-41 10,-3 17,-39 18,-46 -2,-2 -5,-9 -13,-18 -27,16 -33,41 -45,68 -5,10 -23,56 -36,60 -4,1 -4,4 -5,6l24 -6c-8,28 -12,21 -22,45 -13,0 -8,3 -10,-13 -34,32 -65,87 -81,101l-13 26 -1 12c10,0 23,-1 27,0 2,0 10,0 16,2 1,0 8,6 11,8l0 -23c-1,15 5,6 -30,13l9 -23c14,-29 21,-6 9,-34l46 -4z"/>
   <path class="fil25" d="M15924 7746l14 3c0,-46 -5,-46 8,-65l9 -20c6,-13 2,-13 20,-21 0,-31 -13,-34 24,-29l-15 -24 26 3 -3 -13c-22,-6 -7,7 -20,-13l-13 -31 38 12c-3,-26 -2,-15 -12,-34 21,5 26,28 27,-28 -28,-26 -43,39 -43,40 -18,32 -14,1 -27,33l-4 -34c-9,16 6,15 -27,44 17,-42 12,-1 8,-42 -6,9 -3,0 -7,14 -2,4 -1,14 -2,18 8,9 11,16 13,18 -1,7 -8,43 -18,46 -8,3 2,34 0,41 -24,30 -17,10 -27,56l20 2 11 24z"/>
   <path class="fil16" d="M15220 7006l-12 12 23 16 -3 -1 16 -13c29,-27 17,-25 19,-34 9,-34 29,-14 47,0 -15,-29 -13,-30 -2,-55 -22,0 -12,-2 -28,5 -8,-28 -11,-28 -31,-17 9,-37 -2,-44 7,-88l-17 9c-1,1 -9,6 -11,7 -7,-17 -2,-10 -16,-26 6,53 0,13 -6,36 -3,9 -1,27 -1,42 -15,-12 -15,16 -20,-29l-23 29c46,0 1,-6 21,11l-10 26c0,0 1,1 4,1 45,2 -8,2 37,-7l31 78 -25 -2z"/>
   <path class="fil26" d="M16037 7111l1 18c4,-13 12,-17 27,-25 -6,27 -8,25 6,45 1,0 -1,2 1,3 1,0 1,2 2,2 0,0 2,1 3,1l11 0c38,1 6,-18 22,2l-17 -23c9,-32 9,-23 4,-58l29 -7c-20,-14 -29,-17 -55,-16 6,-26 1,-6 5,-15l5 -9c8,-29 -7,-40 -12,-56 -2,-7 -3,-19 -4,-24 -31,-5 -21,-5 -26,-29 -11,7 -18,-25 -8,30 6,14 5,5 -3,10 3,16 20,70 -4,77 -2,0 -2,2 -4,3 17,26 0,25 19,43l-2 28z"/>
   <path class="fil17" d="M15740 7935c11,-7 19,-12 30,-18l-11 29c8,9 -13,13 15,5 40,-22 13,-17 33,-38l16 -10c-1,-1 -7,-17 -9,-21l21 -26c22,-29 10,5 24,-36l-19 -4c3,-5 5,-31 6,0 -15,-8 -5,7 -22,-19l-46 4c12,28 5,5 -9,34l-9 23c35,-7 29,2 30,-13l0 23c-3,-2 -10,-8 -11,-8 -6,-2 -14,-2 -16,-2 -4,-1 -17,0 -27,0l1 -12c-10,8 -15,12 -22,18 19,11 13,8 29,15l2 41c-1,1 -2,3 -2,4l-4 11z"/>
   <path class="fil10" d="M14301 6333c27,-6 44,-20 75,-35 17,-8 9,-1 24,-13l17 13c2,1 4,1 6,2 16,4 -2,0 12,0 28,1 30,2 60,8 -8,-28 13,-26 -23,-34 -19,-4 -14,2 -21,12 -30,-6 -13,-32 -64,-17l5 -34c-6,-11 12,-8 -6,-9l-11 13c-1,1 -3,5 -4,7 -28,-13 -67,8 -85,16l9 31c-2,1 -4,2 -5,2l-8 3c0,0 -1,1 -3,1 -1,0 -1,1 -2,2 8,-5 -7,-5 16,5l13 6c-2,1 5,3 7,4 -15,7 -10,-12 -12,17z"/>
   <path class="fil4" d="M16063 6554l3 29 11 -15c1,-1 2,-4 3,-6l-2 -8c33,0 12,-2 36,4l29 10 -9 44c-2,-1 18,-16 18,-16l11 -1c2,0 8,6 9,6l3 -7 -1 -23 -24 -3 -7 -57c-1,-15 -5,-30 -16,-43 -26,-31 -20,6 -20,-38 -27,-2 5,-4 -18,6l-22 6c-2,0 -10,-1 -12,-1 -26,-3 -2,1 -21,-3l-6 10c28,12 8,-14 21,30 15,-18 -2,-11 30,-16l13 28c1,-2 2,-5 3,-6 1,0 2,-3 3,-4 14,-11 20,14 30,37 -13,-9 -21,-16 -29,-25l-6 19c0,0 1,3 0,4 -2,0 0,2 -1,3 -6,1 -31,-3 -31,-3 -10,1 -5,8 -5,24 15,0 0,-2 7,15z"/>
   <path class="fil27" d="M14233 6164l34 -10c33,-12 22,2 39,-25 17,-5 35,-3 39,-14 -18,3 -17,1 -28,0 1,-10 -8,-4 10,-16 -37,-2 -10,0 -22,-9 4,-25 9,-20 2,-29 -25,19 26,15 -52,15l37 -24 -39 1c-30,44 -43,17 -69,56 35,6 15,1 41,18l-14 26 28 -5 -6 16z"/>
   <path class="fil15" d="M15749 8166c53,-10 58,-38 100,-72 49,-39 0,-66 77,-89l-2 -19c4,-5 4,-8 8,-14l-49 19 20 14 -63 8 -7 35c32,21 21,-12 26,24 -38,-3 -28,4 -49,-14 -6,7 -9,-12 -7,26 -13,-9 -15,-11 -36,-12 5,36 22,28 34,64l-27 -10c-1,-1 -2,-3 -4,-3l-28 1c8,32 -1,3 21,26l-14 16z"/>
   <path class="fil27" d="M15589 8443l9 -8 19 2 -3 -25 31 -2c2,-25 -2,-17 23,-25l6 -17c-19,7 -17,-9 -17,7 -20,-29 -18,-4 -43,-44 -12,12 -8,7 -20,7 -15,1 -10,12 -12,-14l-13 5c-12,26 1,-5 -12,18 -12,21 -7,20 -9,34 -7,38 8,-9 -5,12 39,24 30,4 46,50z"/>
   <path class="fil28" d="M16009 7156c41,0 1,-7 28,-45l2 -28c-19,-18 -2,-17 -19,-43 2,-1 2,-3 4,-3 24,-7 7,-61 4,-77 8,-5 9,4 3,-10l-44 -33c-2,-1 -5,-2 -6,-2 -2,-1 -5,-2 -8,-3l-4 12c17,18 20,30 24,58 4,26 2,42 13,58 -4,46 2,72 3,116z"/>
   <path class="fil29" d="M15119 5989c-26,-22 -19,-9 -51,-13 -11,-1 -43,-13 -55,-18 -4,11 -6,9 4,9 -38,-7 -33,17 -35,26 -5,20 -5,30 9,46 7,-2 -2,5 9,-4 0,-1 2,-3 3,-3l7 -9c17,3 26,7 37,13 12,-17 22,-28 43,-28 -8,13 19,21 19,21 0,-20 6,-6 -6,-31l16 -9z"/>
   <path class="fil30" d="M15358 7428l14 -10c-4,-61 13,-40 27,-85 8,-27 -4,-21 35,-43l20 -14c-16,-1 -23,-2 -36,-2 -17,0 -11,2 -22,-11 -13,29 -25,19 -14,59 -25,4 -9,-6 -19,14 -12,-18 -1,-15 -29,-13 -3,30 -6,25 18,43 -26,9 -13,-4 -20,22 11,17 18,19 26,40z"/>
   <path class="fil15" d="M15444 8129l34 -26c3,0 4,-2 7,-2l24 -2c13,-41 11,-2 41,-47 23,-36 27,-36 47,-42l4 -20c-43,19 -24,17 -42,27 -23,13 -19,-11 -31,27l-36 -1c-12,42 4,8 -27,24 -7,4 -17,12 -32,19l0 44 11 -1z"/>
   <path class="fil31" d="M14647 6003l53 -20c-10,-18 18,-9 -16,-16 7,-17 17,-17 -6,-22 27,0 0,4 12,-16 -33,4 -26,-2 -56,10l-45 19c16,19 -22,12 22,16 -3,1 -11,5 -15,8l-29 39 15 -10c24,-13 44,-17 65,-8z"/>
   <path class="fil18" d="M15492 6692l-24 -37c-32,0 -61,-19 -86,-29 -13,23 -15,5 -29,30 28,13 27,12 33,39 13,-6 31,-11 47,-4l17 6c8,17 -2,13 27,17l15 -22z"/>
   <path class="fil32" d="M15394 7056c27,-5 40,-5 58,-18 27,-18 17,-10 47,-25l-24 5 14 -24c2,-3 7,-11 7,-14 -1,-9 0,-3 -10,-12 -21,-18 32,12 -18,-8 -5,41 3,22 4,25l-21 7c1,-28 9,-5 -16,-25 -28,25 5,18 -32,22l12 16c2,2 4,4 5,6l5 7c-9,-6 -15,-9 -30,-14l-3 12c0,1 0,3 0,4l2 36z"/>
   <path class="fil33" d="M13754 6461l28 -15 3 -51c66,-1 -12,12 55,-28l2 -26 -93 27c-4,42 15,25 -11,45 10,21 -7,5 17,19l-19 11c25,8 12,-1 18,18z"/>
   <path class="fil23" d="M16052 7990l7 -1 5 -12c-6,-34 1,-8 -14,-19 -3,5 -7,10 -12,15 -9,-24 -1,-10 -17,-20 19,-15 22,-4 23,-37l-45 16c-5,-3 -2,-3 -17,-7 -11,15 -12,15 -18,38l-32 9c-4,6 -4,9 -8,14l16 9c14,-6 15,-6 30,-10 2,0 4,-1 6,-1 1,-1 3,-2 5,-2 26,-5 45,4 71,8z"/>
   <path class="fil31" d="M16339 7167c2,-24 4,-31 15,-48 -21,-25 -15,-52 -4,-79 -27,-4 -33,-11 -50,11 -16,20 8,19 0,21 -1,1 3,3 4,4 -13,12 -1,0 -14,15l9 40c17,16 7,10 31,7 -12,58 -4,17 9,29z"/>
   <path class="fil34" d="M15185 8252c23,-7 14,-2 35,-30 34,4 23,10 32,-10 56,3 59,-40 116,-38 -6,-12 -7,-12 -9,-27l-31 4c-15,26 -6,18 -5,26l-29 -8c-35,35 -30,-4 -92,41 -17,12 8,5 -25,13 5,25 10,6 8,29z"/>
   <path class="fil35" d="M14892 5942c-1,-1 -5,-3 -4,-3 1,-1 -3,-3 -5,-4 -29,-14 -13,1 -33,-25 -25,5 -12,10 -38,-1 7,-26 24,-16 10,-29 -12,-13 -5,-2 -16,-2 -40,1 -26,1 -66,15 -19,7 -7,1 -21,9 -37,23 12,-3 -12,10l0 24c13,-24 32,-19 91,-33 9,38 6,9 -11,40 21,-11 7,-29 43,-14 1,1 0,4 2,4 1,1 0,4 1,4 0,4 -13,1 10,22l49 -17z"/>
   <path class="fil36" d="M14822 8333c-2,-22 4,-24 6,-50 -42,4 -65,11 -97,0 0,3 -1,7 3,9l-40 -2c-8,18 -2,9 -10,28 58,-17 77,22 138,15z"/>
   <path class="fil37" d="M14435 6300c6,3 3,4 16,6 0,0 21,1 22,1 19,-1 18,-3 33,-6l-5 -22c26,8 6,-6 30,14 -23,-35 -19,-22 -17,-70 -22,15 -14,10 -27,32 -41,4 -12,-4 -40,-8 -1,0 -3,0 -3,0 -24,-3 -6,-9 -29,3l7 -39c-2,2 -4,4 -6,6l-24 18 -5 34c51,-15 34,11 64,17 7,-10 2,-16 21,-12 36,8 15,6 23,34 -30,-6 -32,-7 -60,-8z"/>
   <path class="fil38" d="M15066 6118c12,12 -14,2 17,11 3,1 9,2 14,2 11,1 19,-2 30,-5l15 16c0,-97 50,18 50,-41 -31,5 -36,-9 -58,-26 -33,-2 -28,7 -56,-4 -8,15 -9,17 -18,25 2,1 4,3 5,3l8 7c1,0 6,4 8,6 -6,9 17,10 -15,6z"/>
   <path class="fil39" d="M16308 7417l2 -16 2 -27c-17,-1 -2,2 -9,-15 -40,-4 -35,-16 -51,-42l-22 13 -9 1 5 19c14,25 36,-2 31,67 3,-2 6,-3 8,-5 1,-1 5,-2 6,-4 1,0 4,-2 5,-3 10,-8 2,-2 1,-3 31,5 29,15 29,15 -2,1 2,5 3,7l-1 -7z"/>
   <path class="fil40" d="M14357 7132c20,0 14,-2 19,-7 -15,-7 -60,-34 -74,-30l-28 11c-4,-41 1,-33 -30,-35l18 -30c-37,8 -12,14 -65,-22l2 -3 -1 32c56,33 78,84 159,84z"/>
   <path class="fil41" d="M13706 6699l3 30c-31,31 -7,20 -24,53l-25 7 3 15c42,22 17,-3 74,-5 -10,-26 -8,-55 -6,-95l-25 -5z"/>
   <path class="fil42" d="M13545 7589l0 -40 -19 -13c7,-23 11,-26 7,-47l-10 -8c-25,31 21,24 -58,36 17,33 23,28 48,42l-8 29c40,-2 8,11 40,1z"/>
   <path class="fil43" d="M15861 6611c12,-28 -8,-10 15,-21 -8,-6 -2,-4 -16,-8 -2,0 -11,1 -14,1l8 -25 -37 1c7,-12 10,-15 5,-34 -7,-4 -7,-5 -20,-8l-35 -8c-4,-1 -5,-1 -7,-1 10,33 22,65 77,62 -7,25 -6,9 -5,33l29 8z"/>
   <path class="fil33" d="M13444 7034c13,-28 -2,2 20,-20l27 -31c-19,-44 -12,-11 14,-102l-42 37c0,10 3,24 2,31 -5,30 -2,-3 -11,17l-10 48c-27,-9 -12,-7 -28,-2 13,17 13,10 28,22z"/>
   <path class="fil23" d="M13809 6766l-4 -4 11 15c-13,17 7,12 -30,18 6,50 11,17 -3,64l44 4 22 -62c-32,-16 -20,-10 -40,-35z"/>
   <path class="fil27" d="M15715 8341c70,-31 54,-10 68,-39l-31 15c24,-63 1,-2 35,-41l-15 -35c-47,20 7,4 -48,56 -17,16 4,8 -23,14 30,37 13,13 14,30z"/>
   <path class="fil44" d="M15141 8666l15 5 21 -21 31 4 -3 -22 -51 7c9,-21 5,-12 17,-17 -12,-23 0,-17 -3,-30l-7 -7c17,0 72,1 23,-20l-21 -1 -7 9 -21 11c2,1 4,3 5,4l12 13c8,20 -8,29 -24,36l13 29z"/>
   <path class="fil8" d="M15326 8285c32,-21 28,-16 72,-18 12,-25 -2,-10 19,-24 1,0 13,-6 15,-7 1,-1 6,-3 5,-4 -1,0 3,-2 5,-4 -18,-8 -56,-31 -79,19l-11 19 -29 -21c-9,14 -12,2 -9,28 3,16 -1,0 12,12z"/>
   <path class="fil42" d="M14539 6825l19 2c-8,-17 -10,-35 -29,-45 -44,-24 -15,-1 -41,-36l-37 -4c21,22 3,13 35,16 -8,19 4,13 -12,11l-4 30 19 -11c1,2 2,4 2,6l2 26c5,0 23,-4 23,-4 30,2 -11,-4 14,5 1,0 6,2 5,2 -1,1 3,2 4,2z"/>
   <path class="fil24" d="M16031 6950c-10,-55 -3,-23 8,-30l29 7c-11,-34 -3,-8 -11,-27 -5,-14 -4,-8 -8,-21l-32 0 -10 23c-20,-14 -7,-4 -16,-15 -10,-12 0,-8 -7,-8l-5 27 -6 6c3,1 6,2 8,3 1,0 4,1 6,2l44 33z"/>
   <path class="fil45" d="M15004 8726c7,-7 9,9 15,-19l50 16 18 -17c-25,0 9,14 -24,-2l8 -7c14,-9 21,-8 35,-26 -42,1 -85,0 -106,23l4 32z"/>
   <path class="fil9" d="M15315 6625c-19,8 -5,1 -27,4 -3,0 -16,3 -17,4 -17,6 -11,4 -19,12l34 1c-21,14 -23,17 -33,46 37,4 27,-4 48,-25 24,7 26,6 48,8 -11,-19 -9,-2 -12,-13 -3,-15 -1,-2 7,-21l-36 9 7 -25z"/>
   <path class="fil46" d="M15235 6257c7,-2 30,4 4,-31 -9,-13 1,-7 -18,-16 21,-5 10,1 13,-19 -32,0 1,5 -10,-15l-3 -7c-3,18 1,12 -18,33 -12,13 5,0 -11,12l-12 5c-16,6 3,-13 -4,1l-31 17c24,6 14,3 32,14 10,-14 6,-11 22,-17 14,12 22,15 36,23z"/>
   <path class="fil31" d="M13501 7299c6,-31 -4,-3 15,-33l-1 -25c-15,-1 -8,3 -17,-4 8,-16 7,-17 9,-43 -52,20 -10,24 -39,67 9,30 2,6 8,21l10 27c16,-9 -1,9 15,-10z"/>
   <path class="fil5" d="M15544 7316l-5 -42c-19,5 -25,8 -41,13 -7,-26 2,-2 -15,-15 5,25 4,14 -18,27 -12,7 -7,5 -14,12 15,15 15,8 23,2l52 19c3,-4 31,22 2,-22l16 6z"/>
   <path class="fil5" d="M16078 7327c2,-36 4,-27 16,-53 14,-28 5,-27 9,-56l-11 1c-4,16 -6,-1 0,31 0,0 -30,-7 -30,-7 -1,30 -2,23 -27,29 25,7 23,24 13,50l30 5z"/>
   <path class="fil47" d="M15131 6789c4,36 4,9 -8,20l2 -1c-1,5 -1,29 -2,34 -1,3 -1,4 -2,6l-10 18c68,-20 37,-13 57,-58 1,0 1,-1 3,-1l27 8 -25 -31c-33,-1 21,-11 -10,-2 -21,7 -6,15 -32,7z"/>
   <path class="fil44" d="M16144 7809l1 2 -26 -79c0,-1 -10,-20 -14,-28l-12 0c-10,37 0,15 -24,40l0 16 23 -20c12,13 4,-13 13,21 8,33 -4,-6 0,17 6,31 22,20 22,20l2 32c0,-26 -7,-21 15,-21z"/>
   <path class="fil48" d="M13911 6292c15,-7 0,4 20,-9l31 -27c20,-13 1,-3 24,-13 0,-1 -2,-16 -7,-22 -31,17 -17,22 -92,10 11,23 8,20 30,37l-6 24z"/>
   <path class="fil4" d="M15308 6132c7,-16 -9,-13 8,-13 0,-13 3,-5 -2,-13l-11 -16c-1,-2 -3,-4 -4,-7 13,-4 8,-1 12,-12 -2,0 -7,2 -8,2 -19,2 -18,-1 -46,-11 6,32 12,17 -15,21l12 23c24,12 34,27 54,26z"/>
   <path class="fil8" d="M14878 6056c32,-10 35,-16 69,-12l-1 -25 -23 17c-2,-2 -6,-4 -4,-5l-13 -25c-10,19 -3,7 -20,18l7 -41c1,-2 3,-5 3,-7 1,-2 3,-5 4,-7 -20,5 -26,-5 -32,22 -3,16 18,10 -3,12 8,28 13,26 13,53z"/>
   <path class="fil49" d="M15143 7000c-2,-22 -8,-18 13,-18 1,2 1,5 5,6l18 11 -3 -47c-7,2 -16,5 -20,8l-14 17c0,-12 -6,-7 6,-34l8 -12c-28,-22 -9,-6 -19,-30 -10,-25 5,-11 -17,-20l-6 59c24,3 15,5 19,20 4,16 5,25 10,40z"/>
   <path class="fil32" d="M13975 6500c-4,11 -5,11 -7,15l-6 14c0,30 -14,-4 7,17l19 -30c1,2 2,4 2,5 6,30 -5,31 33,35 10,-78 6,-9 31,-65 -12,8 -24,3 -34,-6l-12 32 -33 -17z"/>
   <path class="fil3" d="M15979 6906l5 -27c7,0 -3,-4 7,8 9,11 -4,1 16,15l10 -23 12 -36 -16 -9c-25,17 -9,13 -37,23l-21 -2 11 17 -4 25 17 9z"/>
   <path class="fil50" d="M15859 7820c20,-3 14,-9 22,-26 9,-24 5,-8 12,-28l-5 -17c-2,0 -7,1 -6,2l-40 25c-10,14 -5,4 -1,9 0,26 4,0 -17,12 17,26 7,11 22,19 -1,-31 -3,-5 -6,0l19 4z"/>
   <path class="fil26" d="M15528 6938c0,-17 0,-15 6,-26 -18,-9 -16,21 -15,-10 13,-19 -12,-13 12,-15l-27 -25c0,0 -18,10 -7,20 -30,5 -22,1 -36,20 16,11 13,0 32,0l-2 36c44,-11 20,-11 37,0z"/>
   <path class="fil51" d="M16007 7580l4 -18 33 -22 -2 -58 -15 4c-1,56 -6,33 -27,28 10,19 9,8 12,34l-38 -12 13 31c13,20 -2,7 20,13z"/>
   <path class="fil46" d="M15740 7935l4 -11c0,-1 1,-3 2,-4l-2 -41c-16,-7 -10,-4 -29,-15 -1,2 -2,4 -2,5 -2,7 -4,29 -13,31 -2,1 -2,3 -3,5l-10 27c3,-1 7,-2 9,-2l15 -5c1,-1 7,-3 9,-4 14,16 7,-6 3,25l17 -11z"/>
   <path class="fil15" d="M13870 6653c23,-8 3,1 15,-31l7 -12c31,-19 20,-19 33,-53 -24,-6 -8,-8 -37,5 11,13 11,6 7,32 -28,-10 -14,-15 -35,-12l10 71z"/>
   <path class="fil32" d="M14244 8157l-12 -41 -16 6c-41,11 4,-6 -18,21 34,1 14,-3 40,24 -19,0 -32,-4 -40,0 -2,1 -10,8 -11,10 -9,21 -4,-4 -2,27 71,-39 34,-10 71,-32 -2,0 -5,-1 -4,-1l-8 -14z"/>
   <path class="fil52" d="M13954 6374l3 -10c13,-14 14,-3 -6,-36 -1,-1 -3,-3 -4,-5 -9,18 -3,8 -26,21 9,-33 19,-32 -7,-41l-28 24c19,42 20,35 50,22l18 25z"/>
   <path class="fil24" d="M13841 7803c14,-4 26,-6 41,-10 -1,-22 7,-6 -4,-23 -1,-2 -3,-4 -4,-5l0 -13c-21,-16 -35,-5 -52,14l13 28c2,12 -3,7 6,9z"/>
   <path class="fil31" d="M15049 8374l47 -5 1 -32c-27,2 -45,3 -64,-7 -1,2 -2,4 -2,5l-11 30 29 9z"/>
   <path class="fil48" d="M16010 7593l-26 -3 15 24c-37,-5 -24,-2 -24,29 8,-6 22,16 13,-20l15 30c-2,1 2,3 3,5 5,-6 11,14 10,-19 4,2 -3,4 13,8 26,6 3,1 14,-5 -10,-22 0,-16 -31,-20l-2 -29z"/>
   <path class="fil21" d="M15006 7650c-4,-31 -1,-31 -56,-32l-1 42c35,3 31,9 57,-10z"/>
   <path class="fil53" d="M13566 6758c-4,18 -5,21 -11,33 22,9 10,-16 24,21 12,31 -3,18 -5,20 36,3 15,-1 26,-14 0,0 9,6 17,-24 -4,-5 -5,-10 -16,-15 -37,-18 18,4 -23,-4 4,-35 2,-3 -12,-17z"/>
   <path class="fil54" d="M13634 7948c-15,-33 6,0 0,-42 -3,-27 -20,-9 -5,-52 -4,-3 -12,-7 -15,-11 -11,-13 4,-3 -15,-25l0 14 -3 21c19,21 14,19 15,44 1,22 3,26 5,44l18 7z"/>
   <path class="fil31" d="M13573 6983l20 -6c3,-34 6,-45 11,-77 -18,24 -11,7 -13,36l-6 -11c-15,-29 -9,-30 -33,-22 3,10 1,7 5,17 1,2 1,4 2,6 1,1 2,4 3,5 7,15 -1,7 10,16 -6,23 5,5 -11,21 2,0 11,-2 21,-4l-9 19z"/>
   <path class="fil55" d="M16116 7639c1,-2 0,-5 2,-6 22,-9 -1,-2 5,-12 13,-21 -27,0 13,-16 -7,-39 -4,-11 12,-44 6,-13 5,-17 11,-27 -45,4 -23,10 -36,48l-29 9 20 40c-3,2 1,5 2,8z"/>
   <path class="fil27" d="M15537 8164l42 1 0 -19 7 -33 -24 4c-1,1 -3,2 -4,2l-5 3c-1,0 -2,1 -3,2l-23 13c10,30 0,10 10,27z"/>
   <path class="fil23" d="M14945 6093c-77,27 1,-6 -94,2 1,2 1,4 3,4l46 21c12,11 -9,2 17,19 11,8 10,4 26,10l-15 -30c27,-14 7,2 17,-26z"/>
   <path class="fil52" d="M15554 6435c6,2 23,6 34,13 10,7 3,3 11,12 10,10 -4,-1 14,14l-7 -19 24 5 -49 -37c-10,-7 -5,-9 -14,-18 -1,-1 -3,-3 -4,-4 -1,-1 -3,-2 -4,-3l-20 -11 1 28c3,7 2,5 6,11 1,1 6,7 8,9z"/>
   <path class="fil56" d="M16069 7760l0 -16c24,-25 14,-3 24,-40l0 -36c-1,0 -20,11 -21,11l-15 14c1,37 10,38 -1,79l13 -12z"/>
   <path class="fil57" d="M13892 6610l-7 12c-12,32 8,23 -15,31l-5 22c-34,-8 -4,1 -13,-10l-18 6c4,10 7,17 11,31l-16 12 82 -58c-2,-1 -6,-4 -5,-4 1,-1 -3,-4 -4,-5 -4,-4 -13,-4 -10,-37z"/>
   <path class="fil23" d="M15839 8166l4 8c10,10 -3,3 5,6 13,5 -2,-2 21,-3 2,-49 3,-45 -38,-41l-17 44c39,-3 19,7 25,-14z"/>
   <path class="fil30" d="M15554 6435c-2,-2 -7,-8 -8,-9 -4,-6 -3,-4 -6,-11 -19,-19 2,6 -11,-15 -7,-10 5,1 -9,-15 -10,-12 -22,-12 -38,-18l13 13c-19,23 -12,25 -13,29 25,12 19,5 32,9 14,5 13,12 40,17z"/>
   <path class="fil20" d="M14413 7742c14,-6 3,-5 12,6 1,1 2,3 3,5l16 19c-26,-23 -7,-3 -14,-28 4,1 5,2 11,2 4,1 7,1 9,2 1,0 8,3 10,4 -4,-43 5,-29 -24,-29l19 -16c-38,1 -26,-8 -62,-7 17,14 17,14 20,42z"/>
   <path class="fil42" d="M14511 7621c-8,-17 2,-14 -9,-22l-1 -15c-20,-18 8,-14 -24,-11l-3 -15 -28 6c6,24 15,1 23,50 1,-2 3,-7 4,-8 0,0 2,-2 2,-3l6 -4c16,29 -13,11 30,22z"/>
   <path class="fil39" d="M13943 8365l-3 28c-12,-10 -20,-17 -36,-24 9,37 30,35 22,38 -1,1 1,3 1,4 -13,24 8,16 -34,8l10 21c2,0 3,0 6,0 4,0 5,-1 6,-1l32 5c-10,-27 -11,-10 -2,-31l6 -8c-14,-20 -8,-10 -8,-40z"/>
   <path class="fil23" d="M14381 8633c43,14 10,3 25,-4 12,-23 7,-13 -3,-30l-5 30c-29,-14 -38,-25 -66,-21 1,-9 2,-21 2,-29 0,-8 -10,0 2,-8 -10,24 6,13 -18,22l3 17 3 17 57 6z"/>
   <path class="fil58" d="M16242 7250c2,-1 3,-3 6,-4l21 -10c2,0 4,0 5,-1 17,-6 6,0 16,-7 -44,-46 16,22 -11,-12 -5,-5 -6,-6 -10,-13 -16,-29 8,-12 -17,-27 -2,8 -3,13 -5,24l-9 36 4 14z"/>
   <path class="fil59" d="M15850 6721l17 -9c-17,-76 -10,-45 -22,-55l-10 -11c0,-1 -2,-3 -4,-5 -10,20 -5,-1 0,29l-22 -10c2,2 3,4 4,5l11 13c25,28 12,13 26,43z"/>
   <path class="fil60" d="M15962 8121c-5,2 -18,5 -23,8l9 30c-39,-1 -12,-7 -26,8l-14 24c60,15 47,-29 54,-70z"/>
   <path class="fil38" d="M16134 7866l-26 1 15 29c-30,22 -22,1 -25,52 20,1 15,-17 16,-30 24,-5 21,-2 36,-15 -7,-20 2,-8 -21,-22l5 -15z"/>
   <path class="fil39" d="M14364 7707l45 -18c-15,-24 -14,-26 -38,-38l-15 28 8 28z"/>
   <path class="fil61" d="M15123 6809c12,-11 12,16 8,-20 6,-42 -2,-10 21,-43 1,-2 3,-5 4,-6 1,-1 2,-4 3,-6l-29 0c-22,42 6,-4 -11,48 -8,-19 0,-15 -16,-10 1,52 4,0 20,37z"/>
   <path class="fil20" d="M15414 7434l-21 11c0,0 -11,6 -15,8 -11,5 0,0 -18,8l-2 7 19 17c1,1 2,4 3,5 1,2 6,5 4,6 -2,1 3,4 4,6 13,-39 9,-36 26,-46l0 -22z"/>
   <path class="fil39" d="M14151 8166c15,13 4,16 45,12 -10,-42 -13,-43 -50,-50 8,36 -21,-18 6,16l10 9c-14,7 -11,3 -11,13z"/>
   <path class="fil62" d="M15755 7993l18 -17 1 -25c-28,8 -7,4 -15,-5l11 -29c-11,6 -19,11 -30,18l2 16 -16 25c3,0 5,1 15,-1 2,-1 16,-6 18,-6l-4 24z"/>
   <path class="fil23" d="M15231 7034l-23 -16 12 -12 -5 -36c-22,18 -30,13 -23,48l-21 -9c21,25 17,20 60,25z"/>
   <path class="fil26" d="M14103 6257c6,-12 14,-24 18,-36 -8,-9 -9,-10 -19,-20l-10 11c0,1 -2,2 -3,2 -2,2 -8,2 -17,7 22,30 18,12 14,40l17 -4z"/>
   <path class="fil52" d="M15961 6399c9,-13 18,4 4,-12 4,-38 0,-7 -10,-46 -7,16 -20,-24 -1,29 -28,-22 -10,23 -22,-19 -21,-1 -15,-5 -12,19 12,10 11,8 21,16 13,12 1,9 20,13z"/>
   <path class="fil51" d="M16335 6936l18 -18c-18,-12 -21,-11 -26,-33 -16,16 -10,-21 -14,23 -17,-3 -9,3 -16,-11 -1,28 -6,18 10,30 9,6 14,6 28,9z"/>
   <path class="fil33" d="M15729 8208c-18,1 -2,8 -28,-15 -43,59 -31,16 -41,55 12,-6 24,-12 35,-16 32,-12 18,2 34,-24z"/>
   <path class="fil42" d="M13911 7720c-5,-6 -13,-12 -18,-19 -9,-15 1,-2 -6,-14 -9,-17 -4,-7 -8,-12 -19,-5 -11,-15 -24,35 13,-6 11,-1 19,-13 12,18 14,24 24,41l13 -18z"/>
   <path class="fil36" d="M15995 8084c-7,7 -5,4 -12,14 -7,10 -5,11 -8,18 17,25 -7,9 24,23 1,-2 1,-4 4,-5 3,-1 4,-4 4,-5l9 -12c-10,-27 -14,-15 -21,-33z"/>
   <path class="fil46" d="M13892 6727l-33 -4c-3,21 0,32 4,57 23,0 8,1 17,-18 6,-15 7,-20 12,-35z"/>
   <path class="fil4" d="M15784 6206c0,-10 10,-9 -5,-8l-39 -10c-3,-1 -6,-2 -9,-3l7 38c8,0 9,7 31,-2 -11,41 -4,9 4,22l-9 -33 20 -4z"/>
   <path class="fil23" d="M13702 7322c-1,19 -7,19 9,13l14 -29 21 10c-5,-32 9,2 -26,-24 -66,-49 45,7 -27,-16l-7 11c22,34 16,-3 16,35z"/>
   <path class="fil62" d="M15962 8115l13 1c3,-7 1,-8 8,-18 7,-10 5,-7 12,-14 5,-24 -8,-6 19,-21l1 -23 -9 7c-22,19 -13,7 -17,30l-26 -13c1,48 -3,21 14,31l-15 20z"/>
   <path class="fil46" d="M15276 6260l17 3c1,-4 -1,-7 1,-7l2 -38c-2,-1 -19,-4 -20,-4 -22,2 -8,1 -19,9 4,6 11,21 19,37z"/>
   <path class="fil63" d="M16086 7960c-21,13 -6,-5 -22,17l-5 12 -7 1 -6 30 43 -23 -3 -37z"/>
   <path class="fil39" d="M13439 7060l2 51 49 -8c-4,-22 -4,-18 -8,-37l-27 31c-14,-31 -17,-20 -9,-34l-7 -3z"/>
   <path class="fil61" d="M13886 6327l28 -24 -3 -11c-12,-4 -11,-2 -19,-10l-35 49 29 -4z"/>
   <path class="fil20" d="M14238 8264l40 11 1 -15c-25,-21 -8,-5 -26,-27 -12,-16 -12,-14 -28,-6l16 8 -3 29z"/>
   <path class="fil64" d="M16257 7554c1,-1 1,-3 3,-4 2,-1 2,-4 3,-5l16 -30 -51 -13c4,43 -3,23 25,31l4 21z"/>
   <path class="fil65" d="M13416 7183l26 -2c0,-1 16,4 1,-24 -1,-2 -18,-21 -23,-26 2,32 1,17 -17,41l13 11z"/>
   <path class="fil62" d="M14081 6512c12,-6 19,-8 29,-15 6,-5 4,-4 11,-11 11,-12 3,-4 11,-14l-18 1c11,-32 7,-16 -4,-23 -17,10 -11,-13 -13,17 -1,17 2,7 10,15 -11,9 -6,5 -27,9 9,12 23,-18 1,21z"/>
   <path class="fil66" d="M15085 8275c-40,-1 -48,-1 -67,18 4,19 -4,8 8,17 25,-33 27,-7 71,-30l-12 -5z"/>
   <path class="fil61" d="M15687 7916c-16,7 -40,6 -68,62 40,-14 18,0 40,-29 12,-17 15,-10 28,-33z"/>
   <path class="fil15" d="M13729 7503l14 -20 -30 -7 2 -21c-23,12 -1,-5 -16,10 -1,1 -7,10 -8,11 11,21 11,18 38,27z"/>
   <path class="fil61" d="M15663 8252l-15 5c-6,-22 -3,-12 -12,-19l-25 43c17,-2 17,1 31,-7 33,-17 14,1 21,-22z"/>
   <path class="fil49" d="M15966 6872l-11 -17 21 2c-1,-2 -3,-4 -4,-5 -1,-1 -3,-4 -5,-5l-23 -18c0,3 -2,4 -3,4 0,1 -1,4 -3,4 -3,1 -4,4 -6,5l-14 -12 21 29c5,6 3,5 13,11 1,0 8,1 6,1 -1,1 5,1 8,1z"/>
   <path class="fil40" d="M14662 7723l3 -7 -18 2 -36 5c25,2 21,-10 31,49 13,-20 2,-9 9,-25 10,-24 9,-1 11,-24z"/>
   <path class="fil67" d="M16174 6571l-7 -26c-22,-29 -2,-14 -24,-34l7 57 24 3z"/>
   <path class="fil33" d="M16221 7331l9 -1 1 -33 -37 -2 18 30c1,1 7,4 9,6z"/>
   <path class="fil36" d="M15656 6152c-14,-39 -1,-14 -29,-41 -8,6 -10,8 -25,14 29,11 31,16 54,27z"/>
   <path class="fil54" d="M14474 7558l3 15c32,-3 4,-7 24,11l-26 -57c-10,-15 3,-1 -12,-14l-1 28c10,10 -9,0 17,11l-5 6z"/>
   <path class="fil68" d="M13796 7703l2 29c41,24 9,8 20,-2 -1,-20 -1,-6 3,-33l-25 6z"/>
   <path class="fil60" d="M14700 5996l0 -13 -53 20c47,0 8,6 44,20 11,-21 2,0 -2,-28l11 1z"/>
   <path class="fil40" d="M15839 7693l-8 26c2,16 -3,13 10,13 10,-24 14,-17 22,-45l-24 6z"/>
   <path class="fil69" d="M13858 8396l6 -22 -18 -10 -2 13c-10,9 -1,10 -24,0 0,1 7,18 8,20l30 -1z"/>
   <path class="fil70" d="M15924 7746l-11 -24 -20 -2 -2 24c-2,0 -2,3 -3,5 22,1 13,1 36,-3z"/>
   <path class="fil67" d="M13779 6591l23 -4c-1,-4 -2,-13 -3,-13 -1,-17 -1,-11 1,-24 -25,-3 -10,-5 -22,5l6 31c-3,0 -3,4 -5,5z"/>
   <path class="fil43" d="M13527 7448l10 -14c-33,-12 -13,-5 -22,-20 -17,8 -16,8 -26,18l38 16z"/>
   <path class="fil71" d="M14575 6836l2 -7 -19 -2 -19 -2c8,13 6,12 15,19 15,15 4,4 21,14 5,-12 16,22 0,-22z"/>
   <polygon class="fil57" points="13784,6837 13763,6838 13758,6883 13771,6880 "/>
   <path class="fil72" d="M14173 8105c-17,-29 -13,-16 -36,-31 -28,-19 17,14 -9,-8l-10 -8 11 29c21,9 22,11 44,18z"/>
   <path class="fil38" d="M15645 8410l-31 2 3 25 8 -13c18,20 -3,10 22,15l-2 -29z"/>
   <path class="fil58" d="M13988 8495l16 -12c-27,-6 -26,0 -41,-20l-4 17c1,21 18,15 29,15z"/>
   <path class="fil56" d="M15114 6872l-3 -6 10 -18c1,-2 1,-3 2,-6 1,-5 1,-29 2,-34 -1,2 -3,5 -4,7l-5 25c-23,3 -11,-6 -22,19 6,5 12,9 20,13z"/>
   <path class="fil73" d="M16166 7499c1,-2 1,-4 3,-5l2 -28 31 -4 -13 -25 -30 38c0,1 6,6 9,7l-2 17z"/>
   <path class="fil74" d="M15890 6780l17 8c-2,-32 -4,-32 -25,-45l0 12 8 25z"/>
   <path class="fil75" d="M13832 8251l-6 -26 -41 -2c5,4 9,8 15,12 2,2 7,5 9,6 12,6 12,5 23,10z"/>
   <path class="fil36" d="M16341 7456c1,-2 14,5 3,-15 -13,-21 -8,-8 -19,-11 -14,25 -2,32 16,26z"/>
   <polygon class="fil67" points="16313,6848 16326,6853 16294,6800 16290,6825 "/>
   <path class="fil76" d="M16065 6949l3 -22 -29 -7c5,24 -5,24 26,29z"/>
   <path class="fil55" d="M14102 8553l-42 -29c11,28 5,0 1,31l41 -2z"/>
   <path class="fil77" d="M14772 8717c-25,10 -9,7 -41,8 6,4 5,6 15,11 13,9 7,5 21,11l5 -30z"/>
   <path class="fil78" d="M13820 8377c23,10 14,9 24,0 -13,-11 -5,-5 -15,-17 -16,-18 0,-4 -20,-17l8 24 3 10z"/>
   <path class="fil72" d="M14936 8598c-28,-15 -16,-9 -31,-9 -20,0 -12,-3 -19,7 8,7 11,11 18,17 11,-7 5,13 10,-19l22 4z"/>
   <path class="fil23" d="M15463 8407c-23,-4 -11,-4 -12,6 0,21 1,8 3,20 22,-4 6,8 26,-16l-17 -10z"/>
   <path class="fil67" d="M13527 7448l-4 33 10 8 -2 -13c38,14 10,6 22,0l-26 -28z"/>
   <path class="fil75" d="M13916 8311c-16,-22 -2,-5 -16,-14 -1,-1 -3,-2 -4,-2l-20 -16 1 32c4,-1 22,-5 24,-5 18,-1 1,-2 15,5z"/>
   <path class="fil56" d="M13749 6466l-27 5 -11 38 20 -21c19,-20 4,2 18,-22z"/>
   <path class="fil35" d="M15004 8726l-4 -32 -27 0c9,10 16,23 31,32z"/>
   <path class="fil51" d="M13548 7677l1 -22c-23,-4 -20,-3 -25,17l24 5z"/>
   <path class="fil79" d="M15993 6319c-6,-12 -6,-16 -10,-27l-26 -11c15,16 15,21 19,35l17 3z"/>
   <path class="fil60" d="M15379 8159l22 -1 -12 -23c-18,9 -20,0 -10,24z"/>
   <path class="fil57" d="M13937 7987l14 34c15,-19 -17,-7 21,-15 -5,-5 -2,-4 -13,-9 0,0 -18,-8 -22,-10z"/>
   <path class="fil76" d="M16355 7030c-9,-17 -7,-10 -7,-31 -16,6 -13,-1 -21,8 14,19 -4,7 28,23z"/>
   <path class="fil80" d="M14587 6268l-2 24 24 -4c-9,-20 -3,-11 -22,-20z"/>
   <path class="fil75" d="M14487 6180l-7 -26c-17,5 -10,-1 -18,17l25 9z"/>
   <path class="fil38" d="M15469 8243l-25 5c20,27 21,21 25,-5z"/>
   <path class="fil18" d="M14525 8267l-13 -3c0,28 -7,15 13,25 0,-1 0,-3 2,-4 2,-1 1,-4 1,-5 -3,-23 4,12 -3,-13z"/>
   <path class="fil81" d="M16072 6395c-6,-21 -2,-13 -16,-27l-10 14 26 13z"/>
   <path class="fil82" d="M15051 6213c8,-12 8,-13 4,-19 -43,9 -2,-4 -18,17l14 2z"/>
   <path class="fil38" d="M13548 7638l1 17c28,-5 16,1 23,-12l-24 -5z"/>
   <path class="fil66" d="M14500 8674l-2 -14c-16,4 -8,-3 -12,11 3,15 -14,2 10,15l4 -12z"/>
   <path class="fil83" d="M15908 6813l-1 -25 -17 -8c7,18 4,17 18,33z"/>
   <path class="fil84" d="M14459 8673c4,-25 10,-9 -7,-22 -15,13 -8,-8 0,16 1,10 -5,6 7,6z"/>
   <path class="fil85" d="M15166 8247l-19 1c1,2 3,6 5,6 1,1 3,2 4,3 16,5 8,25 10,-10z"/>
   <path class="fil86" d="M14325 7548c-15,-5 19,-15 -20,0 4,3 7,20 20,0z"/>
   <polygon class="fil75" points="13548,7108 13543,7130 13559,7123 "/>
  </g>
 </g>
</svg>
