<?xml version="1.0" encoding="UTF-8"?>
<!DOCTYPE svg PUBLIC "-//W3C//DTD SVG 1.1//EN" "http://www.w3.org/Graphics/SVG/1.1/DTD/svg11.dtd">
<!-- Creator: CorelDRAW X8 -->
<svg xmlns="http://www.w3.org/2000/svg" xml:space="preserve" width="192.307mm" height="95.798mm" version="1.1" style="shape-rendering:geometricPrecision; text-rendering:geometricPrecision; image-rendering:optimizeQuality; fill-rule:evenodd; clip-rule:evenodd"
viewBox="0 0 19231 9580"
 xmlns:xlink="http://www.w3.org/1999/xlink">
 <defs>
  <style type="text/css">
   <![CDATA[
    .fil0 {fill:black}
   ]]>
  </style>
 </defs>
 <g id="Ebene_x0020_1">
  <metadata id="CorelCorpID_0Corel-Layer"/>
  <g id="_3093901316848">
   <path class="fil0" d="M10614 3513c-36,42 -36,63 -95,74 -24,21 -36,84 -36,116 -47,10 -24,0 -59,21l0 106 24 63c23,11 11,11 35,32l-24 126c-11,53 0,-10 -11,43 -12,31 0,74 0,105 -12,64 -24,32 -24,85 0,63 12,31 24,84l59 0c0,74 -24,43 -24,95l-12 95c-12,43 0,85 -12,117 -11,63 -23,21 0,105 -47,42 -35,64 -35,116 0,64 -12,32 -24,64 0,42 24,21 12,63 -12,64 -24,32 -24,74 -12,53 -12,95 -23,148 0,21 0,21 0,42 -12,32 -24,53 0,85 -24,31 -24,53 -36,84 -12,64 12,53 -24,95 24,53 0,21 0,95 0,106 -12,85 -12,116 -11,22 0,43 -11,64 0,32 -12,21 -12,63 0,64 12,0 12,53 0,11 -24,63 0,85l23 10c-23,32 12,0 -35,32 0,42 -48,137 -36,222 0,42 12,21 12,84l-12 11c0,0 -24,10 -24,10 0,32 0,53 0,85 0,63 -23,42 -23,74 0,21 12,31 23,42 -23,53 -35,158 0,201 -47,63 -35,31 -23,95 0,31 -12,74 -12,126 0,53 0,74 -12,127 -24,32 -12,32 -12,63 0,53 0,11 -24,53 36,53 24,106 0,159 48,53 12,42 12,74 -12,31 12,52 -24,95 24,63 12,74 0,126 -11,64 0,138 -11,169 -48,117 -12,243 -36,360l-36 190c0,63 -11,31 -11,53l-24 116c0,31 0,21 0,42 -36,106 -24,32 35,137 24,42 72,138 119,159 36,10 24,0 48,10 35,21 23,32 59,32 59,0 12,-11 47,-11 36,-10 12,21 95,-21 24,-10 36,-21 59,-21 12,-53 48,-106 60,-158 12,-43 0,-43 12,-85l23 -84c12,-21 12,-85 12,-106 -12,-74 12,-106 12,-201 0,-74 12,-42 24,-95 12,-116 0,-306 0,-433 0,-53 -12,-53 12,-95 23,-74 -12,-264 11,-317l24 -31c-12,-43 12,-243 24,-275 0,-21 0,-21 12,-53 0,-10 -12,-31 -12,-42l47 -306c0,-21 36,-138 36,-233 0,-63 12,-31 24,-74 0,-21 0,-63 0,-84l59 -391c0,-116 36,-201 36,-243l11 -74c12,-42 0,-74 24,-126l0 -64c0,-42 24,-63 36,-84 0,-53 -48,-32 12,-85 35,11 35,21 47,64 24,42 24,73 36,105 11,32 23,53 35,85 12,10 24,31 24,42l154 359c12,11 24,11 36,32 11,31 11,52 35,84 24,32 36,53 48,85l379 591c36,32 12,11 24,42l190 264c59,96 142,169 189,264 36,64 48,32 95,106 83,95 131,106 226,232 35,64 23,22 71,64 59,42 0,32 83,53 35,95 83,84 118,148l95 105c24,32 12,21 36,42l95 106c23,32 12,32 23,53 36,32 36,32 60,74 12,53 23,84 23,137 0,95 -59,63 24,190l48 116c11,11 35,32 47,43 47,74 166,84 237,31 95,-52 119,-232 119,-327 0,-32 -12,-21 -24,-53 -12,-84 -12,-53 -36,-116 -23,-63 -59,-106 -94,-159l-72 -84c-47,-53 -130,-127 -189,-190l-71 -64c-12,-21 -24,-31 -36,-42l-225 -200c-12,-22 -24,-22 -36,-43l-47 -42c-60,-32 -83,-84 -131,-116l-130 -127c-24,-42 -36,-63 -71,-95l-72 -95c-35,-53 -59,-42 -94,-148 -12,-32 -60,-53 -84,-84l-35 -53c-36,-21 -36,-64 -71,-95l-415 -581 -143 -264c-12,-32 0,0 -12,-32 -47,-74 -154,-274 -166,-370 60,-10 72,11 119,11 59,11 71,11 119,0 71,0 35,21 106,21 166,11 190,-10 249,-21 72,0 72,11 131,-11 202,-52 190,-21 427,-116 47,-31 225,-126 273,-126l189 -53c12,0 24,0 24,-11 71,-32 0,-21 107,-32 47,-63 201,-73 273,-126l11 -21c36,-32 83,-32 107,-74l59 -32c48,-32 95,-74 143,-116l71 -95c24,-43 24,-85 47,-127 0,-11 24,-42 36,-53 -36,-84 0,-137 -59,-222l-95 -95c-83,-74 -154,-95 -226,-137 -59,-21 -47,-11 -83,-42 -83,-11 -94,-32 -166,-53 -35,-21 -59,-21 -94,-32 0,0 -24,-10 -36,-10 0,0 -12,-11 -12,-11 -24,0 -12,0 -35,-10l-190 -32c0,0 -12,-11 -12,-11 -24,0 -12,0 -36,0 -47,-10 -12,-10 -47,-10 -59,-21 -142,-32 -190,-42 -35,-22 -47,-22 -95,-22 -59,0 -71,-10 -95,-21 -59,0 -11,21 -71,11 -225,-53 -332,0 -439,-42 -71,31 -47,10 -83,10 -47,-10 0,0 -47,0 -24,0 -47,-21 -95,11 -47,-32 -71,-21 -119,-11 -47,11 -94,0 -142,11 -59,10 -12,31 -130,0 -48,-11 -71,-21 -119,-11 -12,-42 -24,-21 -47,-63 -36,21 -12,10 -48,21 -71,-63 -71,-32 -130,-21 -119,21 -95,21 -143,10 -35,-10 -71,-10 -94,-10zm391 1383c59,-10 130,-95 178,-105l107 0c23,42 59,31 154,53 83,10 107,31 201,0 24,10 95,21 107,0 24,-32 0,10 12,-11 12,-32 12,-21 36,-21l23 42c36,-10 24,0 36,-10 24,0 142,-11 213,-53 -12,-21 0,0 -12,-21 0,-11 0,0 -11,-21 35,0 47,10 71,21 12,-32 12,-21 23,-32 48,21 12,21 72,11l-36 -22c95,-21 -12,-31 166,-31 24,-53 24,-11 71,-43 36,-42 71,-63 143,-84 23,-11 35,-11 59,-21 24,-21 12,-21 47,-32l143 -53c59,-31 11,-31 106,-63l119 -63c12,-11 59,-74 83,-95 71,-64 83,0 95,-96 35,-10 24,0 24,-31 -72,-42 -143,-11 -166,-74 -48,0 -60,0 -95,-11l-166 -42c-119,-21 11,11 -166,-32 -36,-10 -12,0 -83,-21 -48,-10 -60,0 -107,0 -71,0 -48,-10 -83,-21 -48,-10 -154,11 -202,0 -47,-10 -12,-21 -83,-21 -142,0 -249,21 -296,21l-285 21c-24,0 -47,21 -71,32 -36,0 -83,0 -131,21 -23,32 -71,106 -83,158 -23,32 -11,43 -11,85 0,53 -48,53 -72,232l-47 201c-12,137 -47,53 -83,232z"/>
   <path class="fil0" d="M12843 2805c-71,0 -47,-10 -83,-21 -47,-11 -59,11 -95,21 -35,-10 -12,-21 -59,-21 -95,-11 -119,21 -166,21 -47,0 -71,-21 -130,-10 -36,10 -36,10 -72,0 -71,-22 -71,10 -154,10l-154 0c-59,0 -36,-10 -83,-21 -71,21 -71,21 -166,21l-391 0c-60,0 -143,-10 -202,0 -59,0 -12,11 -83,11l-71 0c-59,-21 -83,0 -154,0 -143,10 -344,-11 -487,10 -23,11 -23,0 -59,0 -119,21 -273,-10 -391,11 -71,21 -190,10 -261,31l-178 11c-36,11 -24,-21 -142,11l-143 10c-12,0 -12,0 -12,0l-23 -10c-48,0 -36,10 -95,10l-142 0c-84,0 -36,11 -95,21 -83,11 -178,0 -261,0 -48,0 -60,21 -202,21 -59,0 -71,22 -154,11 -83,0 -71,11 -142,21 -60,0 -119,0 -166,0 -60,0 -24,11 -60,11 -59,21 -95,31 -154,21l-59 0c-12,0 -24,0 -36,0 -47,10 12,0 -35,10 -24,11 -36,11 -72,11 -142,0 -130,21 -225,21 -59,0 -47,-11 -83,11 -83,-32 -59,0 -142,0l-83 21c-60,10 -131,-11 -190,10 -47,11 -36,0 -59,0l-178 21c-59,11 -131,0 -178,11 -59,21 -190,11 -225,11 -48,0 0,10 -36,10 -59,21 -142,0 -202,11 -47,10 -130,10 -177,31 -36,-10 -12,-10 -48,-21 -47,32 -59,11 -119,21 -71,11 -35,21 -142,11l-225 0c-59,10 0,10 -59,21 -48,11 -95,0 -143,0 -59,21 12,21 -35,11 -60,-11 -12,0 -48,0 -59,21 -237,0 -308,10 -59,0 -59,11 -131,11 -47,10 -106,0 -154,0 -71,0 -47,21 -130,21 -48,0 -107,0 -154,0 -83,0 -72,21 -131,21 -47,0 -107,0 -154,0 -71,0 -166,32 -214,0 -11,-11 -11,-11 -23,-21 -71,0 -48,0 -95,-21 -48,31 -48,21 -107,10l-47 11c-36,0 0,-11 -48,-11 -118,95 -533,64 -676,64 -47,0 -35,0 -71,-21l-154 42c-83,0 -119,-21 -202,10 -35,-10 -35,-10 -71,-10 -83,0 -59,42 -166,0 -83,42 -201,0 -249,0 -35,0 -59,0 -95,0 -12,-32 0,-32 -24,-53 -35,-11 -59,0 -94,-11l-131 -42c-35,21 -130,64 -142,95l-12 21c-36,53 -24,53 -36,106 -11,32 -11,0 -23,42 12,11 35,32 35,42 36,53 48,96 107,138l0 53c24,10 24,10 47,21l12 53c48,10 36,10 71,42l72 0c23,10 23,10 47,31 83,0 237,-10 297,0 23,-31 23,-31 47,-52 95,0 59,-32 154,-11 12,0 24,0 48,-21 11,0 11,0 11,0l24 -11c24,-10 0,0 36,-10l201 -32c48,-10 95,0 131,-10 130,-43 569,-85 676,-64 12,233 -36,243 -36,328 0,31 0,52 0,84 -12,32 -23,0 -23,53 0,32 11,53 0,84l-12 74c-12,43 -12,21 -24,64 36,21 12,10 59,10 -12,74 -12,254 -47,317 -59,-74 47,-211 0,-296 -24,32 0,64 -12,106 -24,63 -12,95 -24,148 -12,53 -12,-11 -12,53 -11,21 0,42 -11,63 0,21 0,0 -12,42 0,43 12,74 0,117 -12,31 -12,-11 -12,31l-24 106c-12,42 0,84 -12,116 -24,53 -12,32 0,42 48,-21 24,11 24,-53l36 -190c11,-63 23,-221 47,-264 0,74 0,85 -12,148 -12,53 12,116 -35,137 23,159 -24,265 -24,360 -12,74 -24,52 -24,126 0,43 0,85 -12,117 -12,63 0,126 -24,179 -23,95 -47,338 -47,433 0,42 -12,63 -12,116 -12,85 -24,159 -24,243 0,64 -23,53 -23,116 0,85 0,64 -12,127 -12,42 12,85 -12,116 -36,-31 0,-200 0,-253 -12,10 -12,-11 -24,21 -23,32 0,95 -12,137 0,43 -11,32 -11,85 -12,53 -12,42 -12,95l-12 169c0,53 -12,32 -24,74 0,53 12,126 0,169 -24,53 -12,211 -24,243 -23,84 0,190 -11,285 -12,63 -24,10 0,84 -48,53 -12,391 -24,518 0,42 0,21 -12,53 36,53 12,105 0,148 -12,52 12,95 12,147 0,64 -12,-10 -12,106 0,21 0,11 0,42l24 275c12,21 12,42 12,74 47,32 23,10 47,53l24 31c0,0 0,11 0,11 0,0 12,0 12,0 0,0 0,0 11,0 0,10 0,10 0,10 72,22 24,0 72,43 23,21 23,10 59,31l35 -31c72,0 36,10 95,-21 0,-32 -11,-53 0,-74 12,-32 12,-11 12,-64 12,-42 12,-21 24,-53 12,-63 -24,-63 12,-179 24,-53 24,-159 47,-222l-23 -32c23,-42 23,0 23,-63 0,-11 0,-32 0,-42l0 -32c24,-53 12,-95 24,-158 36,-106 24,-148 36,-243l0 -74c0,-32 23,-64 23,-148l24 -158c12,-43 12,-117 12,-169 0,-74 12,-22 12,-64 12,-32 0,-63 12,-95 11,-42 0,21 11,-32 12,-63 0,-147 0,-211 0,-63 12,-42 24,-74 0,-31 0,-63 0,-84 0,-53 12,-21 24,-85 0,-53 -12,-116 0,-169 24,-63 12,-95 12,-158 12,-42 23,-42 23,-106 0,-63 24,-63 12,-127 0,-52 0,-42 12,-84 24,-53 -12,-95 36,-148 -36,-106 23,-127 12,-285 0,-85 23,-85 23,-148 0,-21 0,-53 0,-84l36 -233c0,-63 12,-31 24,-63 0,-32 0,-53 0,-85 35,-116 11,-137 23,-190l12 -127c0,-73 36,-200 48,-211 11,-127 47,-211 47,-327 0,0 12,-21 12,-21l12 -106c0,-53 12,-32 24,-63 0,-32 -12,-43 0,-74 11,-21 23,-53 35,-64 0,-31 0,-52 12,-74 12,-52 12,-74 36,-116 0,0 0,0 11,0 12,-31 -11,-21 36,-53 0,-52 0,-63 36,-105 -83,-116 23,-106 -36,-190 24,-32 36,-21 47,-53 36,-95 107,-53 190,-74 48,-11 83,-11 142,-11 48,0 107,0 155,0 83,0 71,-42 142,0 47,-31 237,-31 320,-31 214,0 202,-21 261,-21 166,0 131,-22 273,-22 154,0 201,-10 284,-10 95,0 131,-21 226,-21 71,0 118,10 178,-11 59,-10 130,0 189,-10 48,0 -11,-11 72,-11l71 0c24,0 71,0 95,0 71,-10 12,-10 83,-21 47,0 142,11 189,0l178 -21c36,-21 36,-11 83,-11 72,0 36,-10 72,-21 23,0 71,11 94,0 72,0 107,-32 332,-32 72,0 60,0 119,-10 36,-11 12,0 36,0 83,0 189,-42 272,-42 214,-11 107,-11 178,-21 24,0 48,10 71,0 60,0 60,-11 119,-11 83,0 154,-21 237,-21 83,0 60,-11 119,-21 59,0 130,10 178,0l71 -11c35,0 83,0 130,-10 48,-11 48,-22 95,10 60,-42 71,-21 143,-21 83,0 35,-11 106,-21 119,0 154,-11 249,-11l119 -10c36,0 0,10 36,0 23,0 0,0 47,-11l190 -10c35,0 12,0 59,-11 119,0 285,21 403,0 36,0 48,-10 107,-10l415 0c107,0 131,-43 225,0 48,-22 36,-22 107,-22 178,0 629,22 771,0 59,-10 107,22 178,-10 83,32 47,-11 119,0 71,0 0,10 83,10 177,11 367,0 545,0l463 74c47,21 35,11 83,21 35,0 59,11 118,11l48 0c23,-32 35,-21 47,-63l59 -11c0,-74 0,-53 36,-116 -24,-42 -12,-63 -36,-85 -23,-42 -23,11 -71,-63l-59 -21c-36,-32 12,-21 -59,-21 0,-11 0,-11 -12,-11l-12 -21c-202,0 -83,-10 -202,-42l-23 -11c0,0 0,0 0,0l-155 0c-83,32 -71,-31 -201,21 -24,0 -24,11 -36,32z"/>
   <path class="fil0" d="M4874 5308c-36,-10 -12,11 -36,-21 -36,-21 -48,-21 -83,-31 -59,-32 0,-32 -107,-32l-35 32c-12,-11 -24,-11 -48,-11 -107,63 -201,11 -249,148l-118 179c-24,22 -12,32 -36,64 -12,31 -24,31 -36,63 -12,21 -23,42 -35,63 -24,53 -12,32 -48,64 0,0 0,10 0,10 0,0 0,0 0,11 0,0 0,0 -12,0 0,21 -11,32 -11,42 -36,64 -60,127 -107,190l-36 64c-59,0 -35,10 -83,-11 -71,53 -71,21 -154,42l-47 11c-24,32 -60,116 -71,158l35 106c24,63 36,42 83,74 -12,21 -35,53 -59,74 -59,127 -59,74 -154,137 -36,32 -36,11 -83,64l-24 158c24,11 24,21 35,32 12,95 -47,42 36,137l131 74c71,21 201,0 260,-32 83,-42 12,-53 83,-105l0 -85 60 -21c23,-95 12,-42 59,-106 12,-42 24,-63 47,-116 0,-10 24,-31 24,-53l59 -116c24,-31 12,-31 36,-53 24,0 12,0 36,11l23 0c24,-11 36,-21 60,-42 12,0 35,0 35,0 48,10 -12,10 48,0 35,-11 59,-11 83,-21 47,-22 95,-22 130,-32 24,0 48,-11 48,53l0 190c-12,-21 -12,-42 -24,-74 0,10 -12,-11 -12,32l0 74c36,-11 12,-11 47,-22 48,64 24,159 36,233l-24 -21c-12,-21 0,-21 -23,-32 -12,21 -24,-32 0,63 23,64 59,159 59,233l59 31c-35,95 12,21 83,212l12 21c48,116 12,95 119,179 118,116 118,138 332,127 12,-21 12,-11 23,-32 48,-42 36,-42 24,-84 -12,-21 0,-53 0,-74l-83 -106c0,-21 0,-21 0,-31 -12,-32 -24,-22 -47,-64 -12,-21 -24,-42 -48,-63 0,-53 -12,-53 -23,-95l-24 -85c0,0 0,0 0,-10 -36,-95 -24,-74 -36,-138 -23,-84 -23,22 -12,-158 0,-53 -23,-53 -23,-106 -12,-31 0,-84 0,-116 0,-53 -24,-74 -24,-169 130,-10 296,11 403,-21l83 11c83,-32 48,10 95,0 0,0 12,0 12,0l36 -11c59,32 59,-10 130,0 59,0 0,0 36,11 11,0 0,-11 47,-11l0 127c-12,32 -12,-11 -24,32 0,31 12,73 0,105 -23,85 -12,85 -12,180 0,74 -23,42 -23,116 0,53 12,137 -12,190 -12,32 0,32 0,63 -12,64 -36,53 -24,138l0 190c0,42 0,31 -12,63 -23,53 0,137 -23,190 -12,32 0,43 0,74 0,53 0,95 0,148 0,74 -24,74 -24,127 0,42 12,211 0,243l-24 21c48,63 0,158 48,222 23,21 47,53 83,74 35,21 94,31 154,31 35,-42 0,-31 47,-63l0 -74c36,-21 36,-21 48,-63 11,-21 11,-64 11,-106l60 -32c0,-42 0,-42 12,-84 11,-42 0,-42 11,-85 12,-42 0,11 12,-31 12,-21 12,-32 12,-53 0,-21 -12,-85 0,-106 0,-42 12,-63 24,-105 0,-64 -12,10 -12,-43 12,-21 24,-21 24,-74 0,-42 0,-63 12,-95 -12,-31 0,-10 -12,-42 24,-42 12,-63 12,-116l23 -180c0,-52 12,-63 24,-105 0,-53 0,-32 12,-64 -36,-63 0,-42 0,-105 12,-21 0,-53 0,-74 0,0 24,-116 24,-127l35 -169c12,-42 12,-10 24,-53 -12,-53 -24,-10 -12,-53l24 -242c0,-22 -12,-32 -12,-64 12,-32 24,-10 24,-74 -12,-42 -60,-42 12,-137 -24,-42 -24,-63 -36,-116 -12,-32 -12,-11 -24,-53 0,-21 0,-11 0,-32 -12,-31 -23,-31 0,-74 -35,-53 -35,-53 -35,-116 -95,-32 -12,-21 -143,-127 -12,-21 0,0 -12,-21 155,0 60,11 178,-10 95,-21 261,42 344,21 48,-11 131,-11 190,-11 48,0 154,0 190,0 118,32 47,11 95,0 23,0 71,21 213,0 59,-10 83,-53 119,-74 0,-179 -12,-84 -107,-169 -24,-42 -24,-31 -83,-52 -130,-43 -261,-32 -415,-32 -48,0 -107,-11 -154,0 -48,0 -71,10 -143,10 -83,0 -166,11 -237,-10 -35,21 0,10 -47,21 -83,0 -107,-42 -190,-11 -71,-42 -427,-10 -557,-10 -48,0 -131,-21 -155,-32 -118,42 -177,-42 -308,-42 -35,0 -59,0 -83,10l-59 32c-48,32 -36,74 -59,116zm-368 634c-107,0 -131,137 -119,169 95,32 12,0 166,0 12,-74 -12,-53 -12,-148 0,-21 12,-105 -11,-148 -36,32 -36,85 -24,127zm1328 201c83,-53 -12,-169 48,-254 -24,-74 -12,-95 -12,-179 -71,0 -107,-21 -60,-95 0,-11 0,-11 0,-11l24 -53 -261 -10c-35,0 -35,21 -95,10 -118,-31 -118,0 -201,-21 -60,-21 -154,-42 -178,-84 -95,0 -71,-11 -142,-21 -24,-22 -12,-11 -36,-32 -12,-32 -12,-32 -36,-53 -35,63 12,-11 -11,106 0,31 11,42 11,74l83 559c12,43 107,32 202,32 213,0 119,21 213,21 72,0 167,-10 238,0 83,11 71,-32 213,11z"/>
   <path class="fil0" d="M9511 5667c12,43 -12,0 12,43 -24,42 -12,63 -12,126 -12,74 12,201 -12,264l-12 127c0,169 -36,338 -36,507 -118,-10 -237,-222 -284,-296 -36,-42 -154,-242 -190,-264l0 -52c-24,-11 -36,-22 -59,-32 0,-53 12,-53 -24,-85 24,-42 24,0 24,-63 0,-42 -12,-53 -12,-74 12,-53 47,-169 24,-211 -12,-21 -24,-32 -36,-53l-59 -32c-131,-116 -226,0 -297,-52 -24,21 -35,31 -59,52 -48,11 -225,-21 -308,22 -12,10 -36,42 -60,52l0 95c71,53 131,11 226,117 11,10 11,10 11,31 0,0 12,32 12,42 24,53 0,43 0,64 -12,21 0,63 -23,127 -12,42 0,95 -24,126l-178 -52c-59,-11 -12,10 -59,-22 11,-42 11,-31 35,-63 0,0 0,-11 0,-11 0,0 0,0 0,-10 -24,-42 24,-74 0,-137 -59,-106 -47,-106 -178,-180 -35,-11 -23,-21 -35,-42 -107,-11 -12,-32 -154,-42 -12,-11 -12,10 -24,-32 -24,0 -59,0 -83,0 -71,-21 -119,-21 -202,-21 -71,0 -35,10 -71,21 -71,10 -83,-11 -166,21 -47,32 -178,53 -225,74 -48,32 -48,42 -107,84 -71,32 -142,95 -178,148l-59 85c-119,116 -60,253 -60,338 0,53 24,105 48,158l261 338c59,32 118,64 166,116 95,0 83,0 142,32 202,85 154,53 344,85l71 0c95,10 166,-11 249,-11 71,-11 24,-11 71,-21 60,-11 72,0 155,-21 47,-11 -12,0 35,-11 24,-10 24,0 48,0 59,-10 12,-10 71,-21l-36 444c0,31 0,63 0,84 0,53 0,32 -23,64 23,31 35,10 23,63 -23,53 -23,106 0,158 24,43 12,32 60,43 0,74 59,95 106,137 83,74 83,21 190,0 0,-53 12,-74 47,-106 0,-190 48,-253 72,-412 0,-52 23,-95 35,-137 0,-32 -12,-106 12,-211 12,-42 -12,-11 -12,-53 12,-42 48,-211 71,-243 0,-32 0,-21 -12,-53l72 -84c-12,-42 12,0 -12,-42 12,-11 24,-11 35,-22l-23 -52c71,10 106,84 154,147 24,22 47,74 83,85 59,42 59,84 130,127 36,10 48,42 71,63l83 53c48,32 60,10 72,63 83,11 106,53 355,64 12,-32 60,-64 83,-106 36,-32 36,-84 60,-169 0,-21 -12,-95 0,-127 35,-95 23,-222 23,-327 0,-74 0,-53 24,-116 -12,-43 -24,-32 -12,-85 0,-32 12,-42 12,-95l0 -655c0,-63 -24,-63 -24,-137 12,-74 24,-201 -11,-264 -24,-42 -36,-11 -48,-85l-47 -10c12,-42 12,-21 12,-64 0,0 0,-10 0,-10 -12,10 -12,0 -12,0 -60,-32 -36,-53 -83,-85 -24,-31 0,-10 -36,-31 -12,-43 -24,-74 -47,-95 -36,21 -12,0 -36,31 -35,53 -35,95 -35,159 0,74 -24,53 -24,105 0,22 0,43 0,64 0,53 -12,21 -12,53 -12,21 0,42 -12,63 0,63 0,0 -12,53 -12,42 0,95 0,137 -12,32 -12,21 -23,42 -12,64 23,148 -12,190zm-2313 360c-24,21 -36,21 -47,63 47,0 23,0 59,-32 35,32 166,21 237,32 59,10 24,-11 107,10 35,11 47,11 83,11 47,11 47,32 142,11 12,-64 -59,-32 -107,-64 -59,-31 -47,-53 -142,-53 -95,0 -130,-42 -249,0 -36,22 -24,22 -83,22zm439 433l-12 -32c-12,0 -12,0 -12,0 -35,10 -47,10 -83,0 -83,32 -59,10 -130,10 -72,11 47,11 -131,22 -47,0 -24,10 -130,21 -60,0 -24,0 -60,10 -23,0 -47,0 -71,11l-12 53c60,31 48,10 72,74 94,21 35,63 189,74 24,31 12,10 24,52l83 0c12,32 -12,32 95,64 59,21 83,-11 142,21 36,-11 12,-11 48,-11 83,43 23,-10 166,0l320 -74c24,-10 47,-21 59,-31 60,-11 24,10 71,-21 24,-307 107,-254 -118,-265 -83,0 -12,-10 -154,-10 -60,0 -48,-11 -95,-21 -36,21 -48,21 -83,0l-131 42c-23,11 -12,11 -47,11z"/>
   <path class="fil0" d="M18050 4854c59,11 47,0 83,-21 35,32 83,21 118,53 36,63 12,127 24,190l-36 275c-23,42 0,63 -11,105 0,53 -12,11 -24,85 0,84 -48,317 -71,390 -12,32 0,64 -12,85 -12,42 0,42 -12,95l-48 190c-11,64 12,0 12,74l-95 0c-71,0 -35,-10 -83,-21 -106,-21 -237,21 -332,-11 -118,-31 -296,11 -427,-31 0,0 24,-138 24,-148 24,-53 12,-95 12,-159l36 -221c11,-43 0,-117 0,-159 0,-53 11,-10 23,-63 0,-42 -12,-42 12,-74 12,-42 12,-32 12,-74l0 -137 -47 -138c-24,-42 -95,-52 -143,-63 -71,-32 -59,11 -106,32l-95 -11 0 53 -60 10 0 74c-95,32 -47,74 -47,138 12,42 24,63 35,95 24,63 0,53 -11,84 0,21 0,43 0,64 -12,31 -24,42 0,74 -12,63 -12,21 -12,73 12,11 -12,43 -12,85 0,63 -12,53 -12,127 0,42 0,95 0,137l-47 169c0,32 0,42 0,74 -48,0 -60,-21 -95,-32 -60,-10 -48,0 -119,-21 -24,11 -24,21 -47,42 -36,11 -48,11 -71,22 -24,42 0,31 -36,63 -12,32 -24,42 -36,63 12,32 24,21 24,43 24,21 0,21 24,42 12,21 59,42 83,63 -59,42 -95,11 -142,53 -36,21 -72,32 -95,63l-155 0 -23 -31c-71,-11 -83,-21 -143,-21 -11,-64 -35,-32 -94,-74 -72,-64 -178,-148 -202,-243 -12,-43 0,-32 -24,-64 24,-42 12,-10 24,-53 12,-126 -24,-21 36,-137 11,-32 0,-53 0,-84l47 -43c36,-63 178,-179 249,-190l154 -31c83,-22 119,10 166,63 83,11 119,21 190,21 71,0 36,-10 83,-21 71,-11 119,-11 154,-63 0,0 0,-11 0,-11 48,-74 24,-32 36,-106 0,-42 35,-21 12,-63 -24,-42 -24,-21 -48,-42 -47,-32 0,-42 -71,-85l-344 -63 -249 42c0,11 -36,21 -36,21l-260 106c-72,21 -72,74 -131,106 -59,42 -95,126 -142,179l-71 116c-24,43 -36,85 -36,138 0,63 -24,84 -12,147 0,64 0,0 12,53 59,275 12,74 83,243 36,85 130,211 225,243 24,11 60,32 83,42 36,22 24,32 72,43l367 105c83,11 36,21 226,21 166,0 35,53 177,-21 36,64 0,43 0,169 0,21 12,21 0,53 -23,53 -59,190 -59,243 0,95 -24,180 -35,296 0,53 -12,63 -24,95 0,42 12,74 0,116 -36,116 -12,327 -12,454 0,32 -12,74 0,116l12 11c35,127 107,95 166,169 12,0 12,0 12,0 35,-11 71,-11 106,-32 24,-42 0,-21 12,-53 24,-52 36,-10 36,-95l47 -21c0,-53 12,-63 12,-116 12,-84 0,-32 24,-116 12,-64 0,-137 0,-201 0,-63 12,-21 12,-53 12,-21 0,-42 12,-63 0,-63 11,0 11,-63 12,-22 0,-43 0,-64 12,-42 24,-21 12,-74 0,-31 0,-10 0,-31l36 -106c0,-21 -12,-53 0,-74 12,-42 12,0 12,-53 12,-21 0,-31 12,-63 0,-32 12,10 12,-42 0,-32 -12,-32 11,-64 12,-31 0,-21 12,-53 12,-63 36,-116 36,-179 0,-63 24,-116 35,-169 0,-32 0,-53 0,-74 12,-42 12,0 24,-42l12 -201c47,-32 119,-21 178,-21 83,0 59,0 130,-21 36,0 48,42 154,10 36,-10 36,0 72,0 35,11 12,-21 130,11 59,10 131,0 190,0 47,0 47,10 71,21 -24,21 12,0 -36,21 12,21 12,21 12,42 -35,22 -23,0 -35,32 23,21 23,11 35,21 0,11 0,11 0,21l0 43c-23,21 -35,63 -71,84l12 53c-24,42 -24,32 -12,106 -47,31 -47,31 -24,84 -35,53 12,63 -59,127 0,31 0,31 24,53 -48,42 -24,95 -71,137 12,42 12,0 0,53 0,21 -12,31 -24,63 -12,53 -47,137 -12,180 0,0 0,0 -12,0 0,21 -35,21 -35,42 0,53 0,63 -12,116 -12,21 -24,95 -24,116 0,53 12,222 -12,285l-23 307c11,42 11,74 11,126l60 74c23,11 71,32 95,43 35,0 106,-32 130,-53 12,-21 24,-42 24,-64 0,-10 0,-31 0,-42l23 -105c12,0 12,0 12,0l36 -127c12,-53 0,-106 12,-159 0,-63 35,-126 35,-221 0,-64 24,-148 48,-212l47 -211c12,-42 48,-137 60,-201l154 -707c0,-32 0,-64 0,-95 23,0 142,21 166,21 47,10 106,32 166,32 23,42 178,105 237,105 119,0 71,11 142,-32 143,-73 131,-42 131,-190 -12,-10 -12,-10 -24,-31 -59,-53 -95,-32 -178,-64 -59,-21 -202,-31 -273,-31 -71,0 -35,-22 -106,-22 -60,0 -178,-10 -214,-31 36,-74 36,-285 59,-380l36 -127c0,-21 0,-32 0,-64l36 -190c0,-74 11,-42 23,-84 12,-74 -12,-148 24,-243 24,-74 12,-180 12,-254 0,-74 24,-42 24,-84 0,-42 -12,-21 -12,-42 -36,-74 -60,-159 -143,-201 -47,-21 -83,-32 -142,-32 -118,-10 -95,-10 -178,32 -35,21 -107,63 -118,116z"/>
   <path class="fil0" d="M604 598c0,148 24,63 59,148 12,42 0,95 0,126 0,64 -23,32 -23,95 0,43 11,85 0,127 0,63 -12,32 -12,106 0,31 0,95 -12,126l-12 95c0,22 -12,43 -12,53 0,32 12,11 12,53 0,21 -36,116 -36,190 0,42 0,74 -11,106 -24,42 -12,53 11,84 -11,11 0,0 -23,11l-12 21c35,42 12,32 0,63 -12,43 -12,53 -24,85l12 42c-12,21 -12,21 -24,32 -23,53 -59,84 -12,158 0,0 0,0 0,11 0,0 -11,0 -11,0 -12,21 0,0 -12,21 0,11 -12,53 -12,53l0 105 -36 53c36,85 -12,106 -23,180 0,31 11,63 0,105 -12,21 -12,0 -24,43 -12,42 0,10 -12,52 0,32 12,32 0,64 -12,84 -47,137 -47,232 0,32 0,53 -12,74 -60,137 0,169 -83,243l23 32c-23,31 -23,53 -23,84 -12,42 -12,0 -12,32 -24,63 -24,137 -36,201l-47 158c0,21 0,32 0,53l-60 264c-11,32 -11,-11 -23,32 0,31 12,52 0,95 -12,31 0,-11 -12,31 -12,11 0,43 0,53 0,42 0,42 -12,85 -24,21 -24,105 0,147 47,-21 12,-52 83,-52 0,-32 0,-32 12,-53 24,-42 95,-85 107,-116l0 -74 59 -11c-24,-95 -36,-42 71,-63 12,-21 12,-32 12,-53 0,0 0,0 0,-11l47 -105c36,-85 12,-64 60,-159 35,-52 59,-95 71,-158 12,-63 47,-85 47,-169 60,-32 60,-85 83,-148l24 -63c12,-21 12,0 12,-43l47 -126c0,0 0,0 0,-11l36 -148c0,-53 12,-74 36,-116 11,-63 35,-116 35,-179 12,-64 12,-11 24,-64 12,-32 0,-63 0,-95l24 -74c0,-32 0,-10 11,-32l48 -190c0,-10 0,-105 24,-169l47 -221c12,-43 0,-53 0,-95 12,-43 24,-22 24,-64 0,-42 -12,-42 12,-84 11,-43 11,-127 23,-159 24,-74 -12,-190 12,-264 24,-42 12,-32 -12,-63 36,-53 24,-74 24,-74 12,-21 12,0 24,-42 0,-43 0,-117 0,-159 59,0 83,42 118,85 71,84 48,21 83,74 24,21 24,52 48,74l59 10c24,42 95,63 131,85 47,21 23,10 71,21 47,10 71,21 130,0 48,-32 71,-53 119,-64 12,-63 23,-63 59,-105 12,-11 24,-21 36,-32l47 -53c12,-21 36,-63 71,-84 12,84 -24,84 -24,158 0,95 0,74 -11,127 0,21 11,21 11,53l-35 21c12,53 24,10 12,53 -12,42 0,105 -12,158 -24,74 -36,148 -36,222l-35 148c23,53 35,84 0,137 35,106 -24,106 0,201 0,31 12,31 35,53 -47,63 0,74 0,137 0,21 -12,74 0,95 12,42 12,42 24,84 0,127 -12,138 24,254 0,21 0,10 12,32 11,74 35,52 106,31l72 -42c11,-11 23,-21 35,-32l24 -21c0,0 0,0 0,-10 12,0 12,0 12,0 0,-32 0,-64 12,-85 11,-42 35,-211 23,-243 -35,-116 0,-232 12,-338 24,0 36,32 48,-21 35,-84 23,-179 47,-274l36 -180c0,-63 11,-42 23,-85 0,-42 -12,-63 0,-105 12,-11 12,10 12,-42l83 -507c0,-53 48,-117 24,-169 24,-43 24,-148 0,-190 12,-32 35,-117 12,-148 -12,-32 -60,-32 -83,-74 -48,-11 -83,-32 -119,-43 -47,-10 -95,0 -142,-10l-190 32c-36,31 -24,31 -83,31l-107 127c-47,63 -118,95 -166,158 -35,53 0,11 -47,43 -36,31 -131,169 -225,53l-95 -117c-36,-52 -107,-116 -131,-179 -47,-106 -225,-254 -356,-222l-118 53c-12,10 -24,21 -48,31 -59,53 -83,53 -142,117z"/>
   <path class="fil0" d="M2976 1231c-36,-10 -47,-10 -95,-21l-95 -10c-107,105 -83,52 -118,190l35 31c0,106 12,74 83,117 48,21 12,31 71,63l0 63 36 32c0,74 36,95 71,159 12,10 12,10 24,31l130 106c12,10 12,10 12,10l190 85c59,32 35,-11 71,53 12,0 36,0 47,0 48,0 24,0 48,10 47,11 95,0 142,11 107,53 60,10 107,10 47,22 12,22 59,11 24,-11 60,0 83,0 24,0 60,-11 95,-21 0,0 0,0 0,0l24 0c71,0 142,-21 213,-42 36,-11 119,-43 166,-53l-11 137c-36,106 -36,243 -83,380 -12,64 0,180 0,243 0,64 -12,64 -12,106 83,42 35,32 59,105 12,11 12,11 24,22l130 137c83,-32 48,32 131,0 130,-53 83,-95 106,-180 12,-31 0,21 12,-31l59 -286c0,-52 36,-84 36,-137 12,-63 12,-116 36,-190 12,-21 0,-21 12,-42l11 -95c12,-42 12,-32 24,-95 0,-64 24,-43 24,-148 -12,-64 0,-64 12,-95 12,-42 0,-21 23,-95 12,-53 -11,-64 -23,-85 -12,-63 12,-53 23,-95 -11,-32 -23,-32 -23,-84 0,-43 0,-64 -12,-95 12,-32 12,-11 12,-53 -95,-116 35,-21 -95,-254 -36,-63 -95,-84 -131,-148 -47,0 -71,0 -95,-10 -118,74 -59,116 -106,201 23,52 23,84 0,147l-24 -21c-12,0 -12,0 -12,0 -83,0 -213,11 -284,-10 -48,-11 -72,0 -131,-21 -12,0 24,0 -24,0 -12,0 -23,0 -35,0l-214 -11c-71,0 -47,-21 -130,-11 -12,11 -12,11 -24,11l-261 -11c0,-52 36,-73 83,-95 24,-21 24,-10 71,-21 36,-21 36,-21 60,-42 59,0 95,-10 154,-21 24,-53 0,-11 24,-32l189 0c0,0 24,-10 24,-10 12,42 24,31 59,53l0 95c166,10 178,-11 249,-22 36,0 83,11 119,0 24,-21 36,-31 47,-63l60 0c12,-53 12,-21 23,-63 0,-53 -11,-32 12,-74 -23,-53 -47,-159 -95,-180 0,0 -11,0 -11,-10 -12,0 -12,0 -12,0 -143,-53 0,-32 -190,-43 -83,0 -119,-21 -237,-10 -36,0 -71,10 -107,21 -36,11 -47,-11 -83,11 -59,21 -95,21 -154,42 0,0 0,10 0,10l-95 32c-47,11 -83,21 -107,42 -35,32 -47,32 -83,43 -24,21 -59,31 -71,42l-142 95c-48,42 -83,42 -119,95l-71 84zm795 296c-83,42 -166,11 -261,21 -131,11 -24,-10 -83,0 -48,0 -12,32 -107,0 -83,53 -119,21 -142,42 -12,32 -12,11 11,43 12,31 12,31 24,63l48 11c11,42 11,31 59,52 107,64 71,64 202,96l166 21c130,0 284,10 403,-32 35,0 23,0 59,0l202 -42c23,-11 59,-21 83,-43 35,-31 35,-126 47,-179 24,-53 12,-21 12,-95 0,-53 12,-74 -12,-116 -47,31 -12,21 -59,63 -12,11 -12,11 -36,21l-12 11c-71,31 -23,31 -94,53 -48,10 0,10 -48,10 -59,0 -12,-42 -154,0 -71,32 -237,21 -308,0z"/>
   <path class="fil0" d="M6593 1876c-47,21 -47,42 -71,74 -71,-11 -47,-74 -83,-117 -12,-10 -36,-21 -59,-42l-71 -137c-24,-32 -12,0 -36,-21l-190 -275c-35,-32 0,-21 -35,-63 -12,-21 -48,-32 -60,-53 -12,-21 -23,-42 -35,-63 -12,-22 -107,-64 -119,-148 -12,-11 -12,-43 -12,-53 -59,-32 -47,-53 -95,-85 -59,-42 -130,-31 -189,-74 -60,-31 -48,-21 -107,-10 -36,10 -48,10 -71,21 -48,-21 0,0 -48,-11l-12 11c-23,42 -35,63 -83,95 0,63 0,42 48,74 0,84 12,42 24,106 11,21 11,21 11,52 24,64 24,43 24,148 0,32 -12,43 -24,64 0,10 12,31 12,31 0,64 -12,-10 -12,43 0,63 12,0 12,42l-12 137c0,85 -23,74 -11,180 0,21 -12,42 -12,84 0,95 -24,64 -12,180l0 84c-12,64 -12,148 0,212l0 31c0,42 -12,-31 0,42 12,43 35,117 35,169 0,64 0,106 72,127 11,21 0,21 11,42 12,43 48,53 72,95 35,64 71,43 130,85 48,-11 107,-11 166,-11l0 -211c0,-42 0,-21 -24,-53 36,-52 12,-10 0,-52 0,-22 0,-32 0,-43l-11 -42c0,0 0,0 0,0l0 -21c-24,-127 11,-148 11,-243 0,-63 24,-243 48,-275 -12,-31 -12,-10 -24,-42 24,-95 24,-105 12,-201 0,-63 24,-95 24,-158 0,-11 0,-21 0,-32 12,-42 0,0 12,-21 35,21 23,32 47,64 47,42 36,-11 47,74 48,10 36,31 95,126 71,74 36,64 60,127 35,42 35,0 83,85 35,42 11,21 59,42 0,0 12,31 36,84 11,0 11,0 11,0 24,32 48,43 72,74 23,42 0,21 35,42 24,11 24,11 36,32 35,21 59,21 106,42 60,43 166,53 249,43 155,-43 202,-190 285,-286 59,-73 107,-200 131,-285l11 -63c12,-21 24,-32 36,-42 12,-64 -24,-53 24,-117 23,-42 12,-147 23,-190 12,-31 12,-31 12,-63 0,-53 12,-32 12,-63 12,-22 0,-53 12,-85 0,-21 12,11 12,-53 0,-53 -12,-105 0,-158 47,-148 -12,-127 0,-222 12,-32 35,-95 35,-137l-47 -21c12,-32 12,-74 36,-106 -48,-95 -36,-53 -48,-180l-35 -21c0,0 -12,0 -12,-10 0,0 0,0 0,0l35 -74c-12,0 -23,-11 -35,-11l-24 -74c-24,-10 -36,-21 -59,-42 12,-21 12,-21 12,-42l-48 -42c-59,21 -71,84 -83,137l-59 95c0,32 0,32 -12,63l-83 286c-24,63 -12,73 -24,126l-95 497c-12,52 -12,10 -23,52 0,32 11,43 0,74l-72 286c0,10 0,10 0,10l-11 32c-12,42 0,0 -12,32l-24 116c-12,21 -12,-11 -12,31 0,11 0,32 0,43z"/>
   <path class="fil0" d="M14361 6935c12,-21 24,-42 48,-63 23,-22 35,-32 59,-64 -12,-32 0,-21 -36,-42l0 -53c-47,-32 -35,-32 -59,-84l-47 0c-36,-53 -71,-43 -119,-64 -24,-10 -24,-10 -47,-21l-24 32c35,95 47,74 -36,116 -23,0 -35,11 -47,32 -24,0 -190,21 -225,10 -48,-10 11,0 -36,-10 -71,-21 -71,10 -154,-32 -48,-11 -36,0 -83,-11l-202 -74c-35,-10 -47,-21 -59,-31 -36,-11 -95,-21 -142,-53 -24,-11 -12,-21 -48,-32 -24,-10 -35,-10 -71,-31 -71,-32 -95,0 -107,-74l-59 0c-12,-53 -59,-64 -95,-95 -47,-32 -24,10 -36,-32 60,-32 83,0 131,10 59,0 107,0 166,0 36,11 95,-10 142,0 36,11 107,22 143,32 35,-10 35,-21 83,-21 83,0 35,11 83,21 106,21 95,-32 166,0 83,-32 213,-10 320,-21l118 -63c24,-11 36,-11 48,-21 0,-127 -249,-127 -380,-159 -106,-32 -83,-21 -189,-32 -60,0 -107,-42 -166,-52 -60,-11 35,10 -24,0l-261 -53c-12,0 -59,-21 -83,-21 -83,-21 -59,0 -178,-43l-83 -31c119,-138 71,-64 154,-106l356 -127c71,-10 107,0 178,-21 59,43 59,11 83,0 47,0 142,21 190,21 83,0 59,-10 106,-21l36 53c24,42 -24,85 -24,116 24,21 0,0 24,21 24,0 12,0 24,-10l23 0c83,-32 166,-11 261,-21 12,-32 48,-74 60,-95 12,-21 35,-74 59,-95 -95,-117 24,-32 -190,-222 -35,0 -24,0 -47,10 -24,-42 -95,-52 -143,-63 -59,-11 -59,11 -94,-42 -48,21 -83,31 -143,42 -59,0 -130,-11 -190,-11l-154 22c-47,10 0,21 -71,21 -12,0 -24,0 -47,0 -48,10 -95,31 -166,52l-131 53c-12,0 -47,11 -59,21 -36,11 -24,11 -59,32 -36,11 0,-10 -36,11l-95 42c-47,21 -83,21 -118,53 -60,53 -72,31 -119,63 -24,32 -12,21 -24,53 -12,10 -47,32 -47,42 -36,53 12,21 -71,106 -60,42 -155,105 -95,211 12,21 12,21 24,53 23,42 11,21 11,74 12,53 36,126 83,169 60,53 48,105 131,158 24,21 12,11 24,32 47,32 213,148 272,169 95,21 166,84 261,105l415 127c36,21 12,21 60,21 23,11 23,0 35,11 60,10 131,42 190,42 24,11 59,0 83,11 36,0 0,10 71,10 225,11 308,11 498,-63z"/>
   <path class="fil0" d="M14634 5572c36,85 0,338 24,402 0,31 12,0 12,53 0,63 -24,-11 -24,190 0,74 -12,63 -12,137 0,21 0,53 0,63 -12,43 -12,0 -24,53 0,32 0,42 0,74 -35,74 -12,63 -23,116l-24 116c-12,32 -12,43 -12,74 0,22 -36,106 -36,180 0,32 0,42 -11,63 -12,64 -12,64 -12,127 0,32 -36,169 -12,254 47,116 -59,116 118,232l36 21c24,11 71,0 95,0l35 -11c0,0 12,0 12,0 36,-84 0,-63 83,-105 12,-53 24,-137 48,-169 35,-64 35,-148 47,-180l83 -232c12,-53 -12,-21 24,-95 24,-21 24,-74 36,-106 23,-53 35,-63 0,-105 35,-74 23,-138 23,-222 0,-53 12,-32 24,-74 -36,-74 -24,-53 -24,-137 0,-53 -12,-22 -23,-53 0,-32 11,-53 0,-85 0,0 0,0 0,-10 -12,0 -12,0 -12,0 0,-11 0,-11 0,-11 -12,-21 -12,-21 -12,-32l-36 -116c-23,-95 -47,-126 -59,-179 0,-64 -24,-64 -47,-106 -12,-10 -12,-10 -12,-10l0 -22c-12,-10 -12,-21 -24,-21l-83 -74c-24,-31 -12,-21 -36,-52l-106 0 -36 42c0,0 0,10 0,10z"/>
   <path class="fil0" d="M14764 4580l-59 0c0,84 -47,31 -35,200 83,32 130,21 177,74 60,-21 48,0 107,0l237 -53c60,-31 -11,-21 60,-31l47 -159c-35,-63 -24,0 -71,-105 0,-22 0,-11 -12,-53 -47,0 -35,-11 -83,-21l-71 -43c-59,-31 -71,-21 -95,0 -154,95 -83,95 -154,127 -36,32 -36,11 -48,64z"/>
   <path class="fil0" d="M4672 471l0 42 71 53c107,74 83,53 154,53 36,10 12,10 48,21 35,10 47,0 83,-11l23 -10c48,-21 131,-127 72,-233 -72,-105 -95,-95 -119,-126 -12,-32 -24,-64 -36,-85 -35,11 -83,21 -106,42 -12,11 -72,64 -72,74l-35 32c-12,21 -24,21 -36,42 -12,21 -47,74 -47,106z"/>
  </g>
 </g>
</svg>
