<?xml version="1.0" encoding="UTF-8"?>
<!DOCTYPE svg PUBLIC "-//W3C//DTD SVG 1.1//EN" "http://www.w3.org/Graphics/SVG/1.1/DTD/svg11.dtd">
<!-- Creator: CorelDRAW X8 -->
<svg xmlns="http://www.w3.org/2000/svg" xml:space="preserve" width="33.277mm" height="33.286mm" version="1.1" style="shape-rendering:geometricPrecision; text-rendering:geometricPrecision; image-rendering:optimizeQuality; fill-rule:evenodd; clip-rule:evenodd"
viewBox="0 0 3328 3329"
 xmlns:xlink="http://www.w3.org/1999/xlink">
 <defs>
  <style type="text/css">
   <![CDATA[
    .str0 {stroke:#92D400;stroke-width:17.64}
    .fil2 {fill:#000100}
    .fil1 {fill:#030400}
    .fil3 {fill:#121B00}
    .fil0 {fill:#92D400}
    .fil4 {fill:#93D500}
   ]]>
  </style>
 </defs>
 <g id="Ebene_x0020_1">
  <metadata id="CorelCorpID_0Corel-Layer"/>
  <path class="fil0" d="M2559 1449c-215,-119 -143,-310 48,-406 382,120 263,454 -48,406zm-119 789c-143,-48 -334,-621 -478,-741 -71,191 -191,956 -286,1027 -72,-167 95,-788 143,-1051 48,-191 48,-143 0,-310l72 -72c143,-24 382,-72 453,95 96,168 -143,239 -262,287 95,239 358,502 358,765zm-1695 -1290c358,0 716,-48 1074,-24 310,0 979,-96 979,-96 24,215 -860,191 -1027,215 -24,239 -238,1625 -358,1720 -95,-621 191,-1433 191,-1744l-454 48 24 239 239 -191 48 48c-24,215 -48,430 -96,645 -23,143 -47,525 -167,597 -48,-311 144,-812 167,-1099 -47,24 -47,24 -95,72 -48,71 -24,71 -72,119 -95,-24 -71,-48 -143,-119 -119,167 -430,812 -549,884 24,-96 215,-478 286,-598l215 -454c24,-119 -48,-24 24,-119 -143,0 -286,48 -286,-143zm2125 215c71,47 167,358 191,454 24,167 -48,406 -96,573 -95,287 -358,549 -621,693 -286,143 -764,143 -1098,71 -215,-47 -287,-95 -454,-191 -238,-143 -262,-239 -358,-310 -239,-239 -262,-669 -215,-1004 24,-95 120,-382 167,-478 48,-95 72,-119 144,-191 358,-549 1098,-645 1695,-430 143,72 382,96 382,287 -72,0 -1074,-645 -1815,24 -262,215 -358,382 -429,740 -72,383 -96,646 143,956 215,263 430,382 740,502 239,95 788,48 1027,-72 358,-143 716,-717 692,-1099 -24,-119 -71,-406 -95,-525zm-2890 692c48,454 263,813 597,1076 382,334 717,430 1242,406 884,-72 1552,-860 1480,-1840 -47,-526 -262,-788 -573,-1099 -310,-334 -835,-406 -1265,-382 -406,24 -860,263 -1098,573 -311,406 -406,741 -383,1266z"/>
  <path class="fil1" d="M2870 1163c24,119 71,406 95,525 24,382 -334,956 -692,1099 -239,120 -788,167 -1027,72 -310,-120 -525,-239 -740,-502 -239,-310 -215,-573 -143,-956 71,-358 167,-525 429,-740 741,-669 1743,-24 1815,-24 0,-191 -239,-215 -382,-287 -597,-215 -1337,-119 -1695,430 -72,72 -96,96 -144,191 -47,96 -143,383 -167,478 -47,335 -24,765 215,1004 96,71 120,167 358,310 167,96 239,144 454,191 334,72 812,72 1098,-71 263,-144 526,-406 621,-693 48,-167 120,-406 96,-573 -24,-96 -120,-407 -191,-454z"/>
  <path class="fil2" d="M745 948c0,191 143,143 286,143 -72,95 0,0 -24,119l-215 454c-71,120 -262,502 -286,598 119,-72 430,-717 549,-884 72,71 48,95 143,119 48,-48 24,-48 72,-119 48,-48 48,-48 95,-72 -23,287 -215,788 -167,1099 120,-72 144,-454 167,-597 48,-215 72,-430 96,-645l-48 -48 -239 191 -24 -239 454 -48c0,311 -286,1123 -191,1744 120,-95 334,-1481 358,-1720 167,-24 1051,0 1027,-215 0,0 -669,96 -979,96 -358,-24 -716,24 -1074,24z"/>
  <path class="fil2" d="M2010 1186c72,-23 119,-23 215,-23 -24,95 -119,167 -239,143l24 -120zm-119 -95l-72 72c48,167 48,119 0,310 -48,263 -215,884 -143,1051 95,-71 215,-836 286,-1027 144,120 335,693 478,741 0,-263 -263,-526 -358,-765 119,-48 358,-119 262,-287 -71,-167 -310,-119 -453,-95z"/>
  <path class="fil3" d="M2559 1449c311,48 430,-286 48,-406 -191,96 -263,287 -48,406z"/>
  <path class="fil4" d="M2010 1186l-24 120c120,24 215,-48 239,-143 -96,0 -143,0 -215,23z"/>
  <path class="fil0 str0" d="M2634 1128c80,0 144,62 144,139 0,76 -64,139 -144,139 -79,0 -143,-63 -143,-139 0,-77 64,-139 143,-139zm64 82c10,-2 9,-19 -1,-21 -3,-8 -10,-14 -18,-17 -5,-3 -11,-5 -18,-5l-38 0c-6,0 -11,1 -15,4 -7,0 -9,2 -15,5 -12,2 -20,11 -28,20l0 0c-3,2 -5,5 -7,8 -2,2 -4,5 -5,6 -5,1 -8,5 -8,10l1 -1c-2,3 -5,9 -5,12 -2,2 -3,2 -4,6 -2,2 -2,5 -3,9 -3,4 -5,10 -5,16l0 36c0,10 10,35 17,42 0,1 1,2 2,3l-1 0c0,5 5,10 10,10 3,2 9,7 13,8 4,4 13,8 18,11l-1 -2c4,4 13,9 18,11 7,4 13,5 20,5 2,0 4,1 4,1 7,0 26,1 31,-1 8,-1 15,-4 23,-8 7,0 21,-8 26,-13 3,-1 6,-3 8,-6 6,-3 10,-7 13,-13 2,-2 16,-21 17,-24 4,-4 7,-10 8,-17 1,-3 2,-7 2,-11l0 -32c0,-12 -12,-33 -25,-33 -5,-1 -18,-1 -22,2 -10,0 -12,5 -12,14 -4,8 -4,20 -1,28 0,5 1,10 -1,14 -2,3 -3,5 -4,8 -3,2 -5,5 -7,9 -1,1 -2,3 -3,4 -3,2 -5,4 -7,6 -2,1 -4,2 -6,4 -5,1 -9,4 -14,6 -5,1 -10,4 -14,7l0 0 6 -5 -15 0c-2,-1 -3,-2 -5,-2 -4,-2 -8,-4 -12,-6 -3,-3 -6,-4 -10,-6 -3,-2 -4,-5 -8,-7l-2 -3c-3,-5 -4,-10 -6,-15l0 -11c2,-3 3,-7 4,-10 2,-3 3,-6 4,-10 3,-3 4,-6 6,-10 4,-3 5,-7 8,-10 3,-3 5,-4 9,-5 7,-1 17,-6 22,-11l-7 7c5,0 15,-1 19,0l6 2c16,5 33,-3 38,-19z"/>
 </g>
</svg>
