<?xml version="1.0" encoding="UTF-8"?>
<!DOCTYPE svg PUBLIC "-//W3C//DTD SVG 1.1//EN" "http://www.w3.org/Graphics/SVG/1.1/DTD/svg11.dtd">
<!-- Creator: CorelDRAW X8 -->
<svg xmlns="http://www.w3.org/2000/svg" xml:space="preserve" width="40.94mm" height="25.4mm" version="1.1" style="shape-rendering:geometricPrecision; text-rendering:geometricPrecision; image-rendering:optimizeQuality; fill-rule:evenodd; clip-rule:evenodd"
viewBox="0 0 4094 2540"
 xmlns:xlink="http://www.w3.org/1999/xlink">
 <defs>
  <style type="text/css">
   <![CDATA[
    .fil20 {fill:#15020D}
    .fil6 {fill:#180C15}
    .fil15 {fill:#200E1E}
    .fil16 {fill:#281520}
    .fil3 {fill:#291627}
    .fil4 {fill:#2B1D28}
    .fil1 {fill:#301828}
    .fil9 {fill:#332031}
    .fil2 {fill:#3B2833}
    .fil5 {fill:#3C293B}
    .fil18 {fill:#43303E}
    .fil17 {fill:#463A43}
    .fil19 {fill:#776976}
    .fil13 {fill:#7E6B7E}
    .fil14 {fill:#8A797B}
    .fil11 {fill:#C4B0A1}
    .fil7 {fill:#DDD1C7}
    .fil10 {fill:#DDD4D2}
    .fil12 {fill:#FAFFFA}
    .fil8 {fill:#FCF5F5}
    .fil0 {fill:white}
   ]]>
  </style>
 </defs>
 <g id="Ebene_x0020_1">
  <metadata id="CorelCorpID_0Corel-Layer"/>
  <g id="_3093548029440">
   <path class="fil0" d="M500 2446c314,33 203,3 456,-25 386,-45 223,-36 569,8 27,3 77,2 117,8 179,33 133,117 413,44 88,-23 137,-12 234,-16 79,-5 160,-25 231,-29 99,-4 140,32 223,32 73,1 145,-24 228,-24 103,0 87,32 216,-9l396 -93c89,-19 129,5 217,-14 85,-18 122,-58 186,-78 66,-78 59,-361 49,-459 -6,-61 -19,-93 -18,-153 -83,-18 -36,-46 -25,-192 2,-35 -2,-72 0,-106 2,-46 18,-53 -26,-67 -100,9 -141,-29 -231,-30 -173,-3 -180,-24 -231,-26 -168,-2 -310,20 -456,64 -198,58 -382,-30 -657,11l-488 19c-58,-7 -161,6 -237,8 -133,7 -366,-6 -463,7l-329 65c-33,10 -59,27 -98,32 -68,8 -172,17 -243,22 -12,1 -23,2 -33,2l0 999z"/>
   <path class="fil1" d="M500 1447c10,0 21,-1 33,-2 71,-5 175,-14 243,-22 39,-5 65,-22 98,-32l329 -65c97,-13 330,0 463,-7 76,-2 179,-15 237,-8l488 -19c275,-41 459,47 657,-11 146,-44 288,-66 456,-64 51,2 58,23 231,26 90,1 131,39 231,30l34 -62c-125,16 -114,-3 -213,-14 -64,-8 -136,17 -186,-11 38,-5 68,-8 84,-42 -79,-36 -108,20 -191,19 -152,-2 -212,21 -453,15 -43,-1 -74,-9 -111,-7 -45,3 -58,-7 -108,-10 -69,-2 -173,-23 -231,-17 -84,8 -78,32 -185,22 -186,-16 -293,-6 -467,20 -107,16 -13,26 -208,23 -73,-3 -147,20 -214,25l-455 11c-351,66 -265,15 -438,22 -42,3 -47,18 -96,34 -7,1 -17,5 -28,9l0 45c13,-4 27,-8 44,-14 59,-19 123,-28 193,-8 97,28 324,-68 386,-39l-404 95c-41,3 -79,-4 -115,0 -100,11 -53,4 -104,4l0 54z"/>
   <path class="fil2" d="M3793 1118c-7,28 -9,14 8,22 37,2 53,-3 82,4 38,10 69,17 106,23 0,-62 -55,9 -68,-58l-28 -5c-8,-35 7,-54 -5,-106 -39,-172 -93,-357 -124,-531 -14,-90 -3,-157 -18,-249l-208 -45c-47,1 -67,17 -104,20 -42,4 -84,-1 -127,3 -98,7 -126,28 -210,42 -89,15 -136,-32 -218,-8 -94,29 -103,43 -218,32 -152,-16 -283,43 -426,64 -61,10 -140,1 -217,27 -287,96 -288,10 -432,51 -236,69 -196,40 -451,46l-209 -1c-39,1 -71,12 -111,7 -42,-5 -67,-16 -120,-10 -72,9 -137,11 -195,10l0 41c23,0 53,0 92,0 45,0 79,-10 115,-10 40,0 68,9 116,10 46,2 82,-7 118,-8l471 -7c79,-5 137,-37 202,-48 89,-14 147,17 235,1l201 -49c80,-21 151,-9 219,-27l86 -17c349,-97 264,14 522,-67 115,-37 75,16 198,10 96,-6 119,-51 312,-45 48,1 71,-3 115,-11 105,-22 105,19 197,37 23,289 57,340 118,622 6,28 21,69 25,106 6,42 -10,71 13,101l-62 23z"/>
   <path class="fil3" d="M3694 1741c-61,15 -57,17 -122,24 -62,4 -55,18 -108,34 -328,94 -317,493 97,420 66,-11 51,-14 95,-45 37,-24 68,-23 95,-42 38,-28 42,-50 63,-87 35,-64 77,-103 45,-206 -23,-76 -79,-118 -165,-98z"/>
   <path class="fil4" d="M500 269c26,-6 53,-11 81,-15l371 -42c47,-3 98,0 143,0 -35,45 -2,7 -49,37 53,19 110,-11 172,-14 70,-6 127,3 192,-10 203,-39 122,35 351,-2l390 -26c109,-2 319,-50 369,-49l0 -19c-88,12 -197,11 -294,26 -158,25 -416,18 -489,30 -73,12 -80,13 -153,2 -57,-9 -123,-12 -163,-3 -125,27 -77,7 -134,-12 -96,-34 -624,9 -787,41l0 56z"/>
   <path class="fil5" d="M500 2494c116,-3 143,19 231,6 225,-31 400,-98 679,-49 79,13 164,19 246,34 80,13 99,58 194,58 57,0 184,-17 228,-28l478 -39c77,3 153,34 242,27 100,-9 121,-28 250,-14 139,16 383,-99 699,-110 111,-4 163,-48 220,-51 36,-43 65,-26 70,-42 1,-2 3,-3 6,-6l-53 -8 -4 -22c-64,20 -101,60 -186,78 -88,19 -128,-5 -217,14l-396 93c-129,41 -113,9 -216,9 -83,0 -155,25 -228,24 -83,0 -124,-36 -223,-32 -71,4 -152,24 -231,29 -97,4 -146,-7 -234,16 -280,73 -234,-11 -413,-44 -40,-6 -90,-5 -117,-8 -346,-44 -183,-53 -569,-8 -253,28 -142,58 -456,25l0 48z"/>
   <path class="fil6" d="M4091 935c-28,-11 -8,3 -37,-19l-8 -4 -51 56 10 113c-12,55 1,9 -17,31l-67 -3c13,67 68,-4 68,58l28 -3 -17 47 -34 62c44,14 28,21 26,67 -3,34 2,71 0,106 -11,146 -58,174 25,192 -1,60 12,92 18,153 10,98 17,381 -49,459l4 22 53 8 18 -34c22,-51 29,-30 36,-142l-13 -445c-17,-94 -21,-144 -28,-237l13 -11c31,-21 22,-12 11,-57 -4,-20 -8,-30 -7,-58 21,-58 -31,-66 -8,-146 6,-221 27,-214 26,-215z"/>
   <path class="fil7" d="M500 2269l10 14c71,1 83,-9 142,4l121 -82c47,-54 54,-81 59,-169 -1,3 -5,8 -6,9l-12 20c0,-3 -4,6 -5,10 -12,-43 -8,-111 -28,-115 -24,-39 -5,-35 -46,-64l-5 11c-40,-26 -41,-22 -93,-32 21,35 58,63 81,101 -24,27 -106,69 -141,83 5,-101 -22,-57 -77,-89l0 299z"/>
   <path class="fil8" d="M3513 2174c32,-58 17,15 32,-54l2 -58c36,-19 29,-19 60,2l4 -14c27,-91 113,-44 23,-163 46,27 56,33 85,2 17,19 19,29 50,37l6 -28c-5,-51 -25,-57 -63,-81l-21 44c-82,-31 -20,-60 -214,-16 -143,33 -262,204 -137,295 56,42 125,46 173,34z"/>
   <path class="fil9" d="M2520 129l0 19 834 -89c30,-4 64,2 86,3 24,1 36,-5 70,-10 51,-7 121,-19 167,-19 62,0 102,16 166,19 70,34 59,415 73,493 11,56 6,102 17,157 11,53 45,237 62,266l51 -56c-24,-16 -14,1 -30,-28l-57 -389c-6,-57 7,-88 -1,-143 -14,-92 4,-345 -132,-349l-727 46c-52,2 -89,16 -137,23 -158,23 -110,-22 -442,57z"/>
   <path class="fil1" d="M735 1896c41,29 22,25 46,64l46 -14 5 90c-5,88 -12,115 -59,169l-121 82c-20,32 6,9 -42,31 -24,11 -1,10 -43,15 -5,1 -42,1 -67,-4l0 43c59,14 126,4 202,-55 85,-66 230,-156 177,-363 -17,-63 -82,-93 -133,-144 -111,-115 -158,-92 -246,-45l0 46c9,-6 17,-11 26,-16 84,-43 79,-18 156,7l-24 11c-26,21 -9,-7 -19,28 47,20 75,7 96,55z"/>
   <path class="fil0" d="M3076 1238l0 -26c-63,11 -315,-4 -382,-10 -132,-15 -216,30 -360,2 -63,-13 -140,-5 -200,5 -40,6 -60,2 -92,10 -175,41 -410,36 -465,60l766 -14c63,-6 113,-20 183,-25 87,-4 149,34 353,22 68,-3 147,-24 197,-24z"/>
   <path class="fil10" d="M3513 2174l198 -84c48,-29 56,-93 70,-137 10,-32 8,6 9,-26 0,-53 2,-14 -15,-29l-6 28c-31,-8 -33,-18 -50,-37 -29,31 -39,25 -85,-2 90,119 4,72 -23,163l-4 14c-31,-21 -24,-21 -60,-2l-2 58c-15,69 0,-4 -32,54z"/>
   <path class="fil11" d="M500 2329c25,5 62,5 67,4 42,-5 19,-4 43,-15 48,-22 22,1 42,-31 -59,-13 -71,-3 -142,-4l-10 -14 0 60z"/>
   <path class="fil12" d="M781 1960c20,4 16,72 28,115 1,-4 5,-13 5,-10l12 -20c1,-1 5,-6 6,-9l-5 -90 -46 14z"/>
   <path class="fil13" d="M3801 1140c-17,-8 -15,6 -8,-22l-26 11c13,18 -15,17 18,20 22,1 4,1 16,-9z"/>
   <polygon class="fil14" points="3076,1238 3098,1227 3076,1212 "/>
   <path class="fil0" d="M2520 148c-50,-1 -260,47 -369,49l-390 26c-229,37 -148,-37 -351,2 -65,13 -122,4 -192,10 -62,3 -119,33 -172,14 47,-30 14,8 49,-37 -45,0 -96,-3 -143,0l-371 42c-28,4 -55,9 -81,15l0 187c58,1 123,-1 195,-10 53,-6 78,5 120,10 40,5 72,-6 111,-7l209 1c255,-6 215,23 451,-46 144,-41 145,45 432,-51 77,-26 156,-17 217,-27 143,-21 274,-80 426,-64 115,11 124,-3 218,-32 82,-24 129,23 218,8 84,-14 112,-35 210,-42 43,-4 85,1 127,-3 37,-3 57,-19 104,-20l208 45c15,92 4,159 18,249 31,174 85,359 124,531 12,52 -3,71 5,106l28 5 67 3c18,-22 5,24 17,-31l-10 -113c-17,-29 -51,-213 -62,-266 -11,-55 -6,-101 -17,-157 -14,-78 -3,-459 -73,-493 -64,-3 -104,-19 -166,-19 -46,0 -116,12 -167,19 -34,5 -46,11 -70,10 -22,-1 -56,-7 -86,-3l-834 89zm-2020 1253c51,0 4,-1 104,-12 36,-4 74,3 115,0l404 -95c-62,-29 -289,67 -386,39 -70,-20 -134,-11 -193,8 -17,6 -31,10 -44,14l0 46zm0 -91c11,-4 21,-8 28,-9 49,-16 54,-31 96,-34 173,-7 87,44 438,-22l455 -11c67,-5 141,-28 214,-25 195,3 101,-7 208,-23 174,-26 281,-36 467,-20 107,10 101,-14 185,-22 58,-6 162,15 231,17 50,3 63,13 108,10 37,-2 68,6 111,7 241,6 301,-17 453,-15 83,1 112,-55 191,-19 -16,34 -46,37 -84,42 50,28 122,3 186,11 99,11 88,30 213,14l17 -47 -28 3c-37,-6 -68,-13 -106,-23 -29,-7 -45,-2 -82,-4 -12,10 6,10 -16,9 -33,-3 -5,-2 -18,-20l26 -11 62 -23c-23,-30 -7,-59 -13,-101 -4,-37 -19,-78 -25,-106 -61,-282 -95,-333 -118,-622 -92,-18 -92,-59 -197,-37 -44,8 -67,12 -115,11 -193,-6 -216,39 -312,45 -123,6 -83,-47 -198,-10 -258,81 -173,-30 -522,67l-86 17c-68,18 -139,6 -219,27l-201 49c-88,16 -146,-15 -235,-1 -65,11 -123,43 -202,48l-471 7c-36,1 -72,10 -118,8 -48,-1 -76,-10 -116,-10 -36,0 -70,10 -115,10 -39,0 -69,0 -92,0l0 813z"/>
   <path class="fil0" d="M303 1459l-123 23c38,24 36,-8 53,38l-3 239c8,12 6,3 12,24 1,4 3,17 4,22 3,22 2,41 2,63l-13 206c-6,36 -10,75 -3,111 5,27 19,55 26,105l5 1 20 63c13,20 5,7 15,21 0,1 4,22 8,12 0,-1 2,4 3,6l29 31c50,-15 46,5 94,8 16,1 31,-2 52,0l28 3 0 -996c-112,7 -38,-5 -209,20z"/>
   <path class="fil1" d="M314 1412l-11 47c171,-25 97,-6 209,-13l0 -45c-17,0 -45,-8 -94,-9 -78,0 -41,3 -104,20zm198 -110c-23,8 -50,15 -70,14 -15,-1 -51,-24 -112,-3 -40,13 -55,33 -67,72 44,4 56,-11 86,-30 87,4 108,8 163,-7l0 -46z"/>
   <path class="fil2" d="M512 452c-213,-2 -322,-35 -325,108 -1,30 33,188 21,379 -4,68 -23,159 -12,221 12,75 -83,159 32,175 30,-91 32,-386 21,-513l2 -314c159,-18 183,-17 261,-16l0 -40z"/>
   <g>
    <path class="fil4" d="M103 420c159,37 219,-96 68,-106 4,-3 45,-15 52,-17 38,-10 83,-10 126,-10 60,1 111,-11 163,-23l0 -55c-10,2 -18,4 -26,6 -174,45 -165,-18 -403,68l20 137zm-90 103l-10 87c28,-20 23,48 23,-32l7 30 52 3c21,-88 -10,-73 21,-88 1,-1 26,0 23,-31 -4,-40 7,-16 -21,-28l-11 -40c2,-1 9,-40 -4,-100l0 0 -10 -41c-53,-10 -52,134 -48,100 -20,33 -9,47 -22,140z"/>
   </g>
   <path class="fil5" d="M309 2393l-6 16 -27 8c68,47 -39,86 224,77l12 -11 0 -35 -28 -16c-21,-2 -36,1 -52,0 -48,-3 -44,-23 -94,-8l-29 -31z"/>
   <path class="fil7" d="M489 1944c-14,39 10,7 -25,45 -57,0 -18,-7 -75,-39 -11,42 -15,77 -49,104 -10,62 -22,103 15,150 27,34 74,67 91,99l46 3c-15,-33 38,-27 -23,-27 5,-5 17,-6 30,-37 2,2 5,3 6,7l7 10 0 -298c-7,-4 -15,-9 -23,-17z"/>
   <path class="fil1" d="M512 2331c-16,-3 -27,-19 -20,-25l-46 -3c-17,-32 -64,-65 -91,-99 -37,-47 -25,-88 -15,-150l-48 6c11,14 7,20 3,-4 -25,22 -26,139 43,198 50,42 107,104 174,121l0 -44zm0 -575c-13,7 -27,14 -42,22 -42,21 -43,-1 -82,28 4,24 4,23 14,40 42,1 75,-22 110,-44l0 -46z"/>
   <path class="fil15" d="M162 1771c62,0 14,-5 33,23l35 -35 3 -239c-17,-46 -15,-14 -53,-38l123 -23 11 -47 -80 1 -17 -52c-23,2 -19,-5 -40,6 -33,16 -10,14 -32,38 -87,92 -33,42 -31,136 1,29 -9,37 -10,59 -2,53 20,42 30,53 39,40 -3,95 28,118z"/>
   <path class="fil5" d="M38 799l7 41c4,35 0,0 2,17l19 152c27,48 -36,78 -24,92 2,2 53,363 54,365 1,1 40,-51 41,-53 1,-2 -32,-343 -29,-340 -5,-143 -33,-262 -39,-405l16 -57c-34,0 -65,-13 -74,-4 -9,8 1,36 9,65l18 127z"/>
   <path class="fil16" d="M295 2056c4,24 8,18 -3,4l48 -6c34,-27 38,-62 49,-104 57,32 18,39 75,39 35,-38 11,-6 25,-45 -41,9 21,-88 -107,-67 -18,9 -67,125 -80,157 -1,2 -2,6 -3,7l-4 15z"/>
   <path class="fil17" d="M191 2057l8 56 36 -39 13 -206c-18,-14 -12,9 -26,-22l-39 2c9,63 24,39 14,104 -5,31 -15,55 -6,105z"/>
   <path class="fil5" d="M173 2182c1,67 5,116 61,187 31,41 0,6 26,25l1 -24c-1,-34 -4,0 22,-16l-20 -63 -5 -1 -32 0c9,-65 -10,-70 -22,-120l-31 12z"/>
   <path class="fil11" d="M492 2306c-7,6 4,22 20,25l0 -72 -7 -10c-1,-4 -4,-5 -6,-7 -13,31 -25,32 -30,37 61,0 8,-6 23,27z"/>
   <path class="fil18" d="M149 348l-25 1c-15,30 3,14 -29,34 -4,34 -13,29 17,24l4 3c22,-6 75,-26 91,-29 54,-10 48,30 86,-16 -2,-2 -5,-7 -6,-5l-23 -10c-10,-3 -30,-7 -38,-7 -43,-4 -42,5 -77,5z"/>
   <path class="fil19" d="M173 2182l31 -12c12,50 31,55 22,120l32 0c-7,-50 -21,-78 -26,-105 -7,-36 -3,-75 3,-111l-36 39 -8 -56c-7,10 -8,5 -14,26 0,0 -5,33 -5,34 -3,26 -2,40 1,65z"/>
   <path class="fil9" d="M162 1771l4 58 17 19 39 -2c14,31 8,8 26,22 0,-22 1,-41 -2,-63 -1,-5 -3,-18 -4,-22 -6,-21 -4,-12 -12,-24l-35 35c-19,-28 29,-23 -33,-23z"/>
   <path class="fil20" d="M260 2394l16 23 27 -8 6 -16c-1,-2 -3,-7 -3,-6 -4,10 -8,-11 -8,-12 -10,-14 -2,-1 -15,-21 -26,16 -23,-18 -22,16l-1 24z"/>
   <path class="fil0" d="M512 264c-52,12 -103,24 -163,23 -43,0 -88,0 -126,10 -7,2 -48,14 -52,17 -33,19 -6,-8 -26,34 34,0 34,-9 76,-5 9,0 28,4 38,7l23 10c1,-2 4,3 6,5 -37,46 -32,6 -86,16 -16,3 -68,23 -91,29l-8 10c-1,1 -4,3 -6,4l-6 8 0 30c19,2 35,0 38,30 3,31 -22,30 -23,31 0,0 -8,1 -15,3l0 85c-22,57 -14,19 -22,57l1 15 21 203c8,60 15,121 17,187 7,33 2,38 -1,68 -8,21 13,25 -15,15l22 19c-4,37 -2,17 -4,59l-19 204 24 0c7,-9 17,-19 30,-33 22,-24 -1,-22 32,-38 21,-11 17,-4 40,-6l17 52 80 -1c63,-17 26,-20 104,-20 49,1 77,1 94,1l0 -45c-55,15 -76,11 -163,7 -30,19 -42,34 -86,30 12,-39 27,-59 67,-72 61,-21 97,2 112,3 20,1 47,-6 70,-14l0 -810c-78,-1 -102,-2 -261,16l-2 314c11,127 9,422 -21,513 -115,-16 -20,-100 -32,-175 -11,-62 8,-153 12,-221 12,-191 -22,-349 -21,-379 3,-143 112,-110 325,-108l0 -188z"/>
  </g>
 </g>
</svg>
